<svg width="179" height="71" viewBox="0 0 179 71" fill="none" xmlns="http://www.w3.org/2000/svg">
<g id="Logos">
<g id="Group">
<g id="Clip path group">
<mask id="mask0_300_12951" style="mask-type:luminance" maskUnits="userSpaceOnUse" x="43" y="23" width="126" height="28">
<g id="SVGID_00000163756641072745196370000000038924548158695102_">
<path id="Vector" d="M168.976 23.572H43.6044V50.339H168.976V23.572Z" fill="white"/>
</g>
</mask>
<g mask="url(#mask0_300_12951)">
<g id="Group_2">
<path id="Vector_2" fill-rule="evenodd" clip-rule="evenodd" d="M43.676 43.665L52.1248 24.566C52.268 24.282 52.4828 23.998 52.7692 23.785C53.0556 23.572 53.4136 23.501 53.7716 23.501H58.9984L67.8768 43.665C67.8768 43.736 67.8768 43.736 67.8768 43.807C67.8768 43.878 67.8768 43.878 67.8052 43.949C67.8052 44.02 67.7336 44.02 67.7336 44.02C67.662 44.02 67.662 44.02 67.5904 44.02H63.5808C63.5092 44.02 63.5092 44.02 63.4376 43.949C63.366 43.949 63.366 43.878 63.366 43.807L61.576 40.115C61.576 40.044 61.5044 40.044 61.5044 39.973C61.4328 39.973 61.4328 39.902 61.3612 39.902H50.1916C50.12 39.902 50.12 39.902 50.0484 39.973C49.9768 39.973 49.9768 40.044 49.9768 40.115L48.1868 43.878C48.1868 43.949 48.1152 43.949 48.1152 44.02C48.0436 44.02 48.0436 44.091 47.972 44.091H43.9624C43.8908 44.091 43.8908 44.091 43.8192 44.091C43.7476 44.02 43.676 44.02 43.676 43.949C43.676 43.878 43.6044 43.878 43.6044 43.807C43.6044 43.807 43.6044 43.736 43.676 43.665ZM59.4996 36.352C59.5712 36.352 59.5712 36.352 59.6428 36.352C59.7144 36.352 59.7144 36.281 59.7144 36.281C59.7144 36.21 59.786 36.21 59.786 36.139C59.786 36.068 59.786 36.068 59.786 35.997L56.0628 27.264C56.0628 27.193 55.9912 27.193 55.9912 27.122C55.9196 27.122 55.9196 27.051 55.848 27.051C55.7764 27.051 55.7764 27.051 55.7048 27.122C55.6332 27.122 55.6332 27.193 55.6332 27.264L51.91 35.997C51.91 36.068 51.91 36.068 51.91 36.139C51.91 36.21 51.91 36.21 51.9816 36.281C51.9816 36.352 52.0532 36.352 52.0532 36.352C52.1248 36.352 52.1248 36.352 52.1964 36.423H59.4996V36.352ZM69.81 50.268C69.7384 50.268 69.6668 50.268 69.5952 50.197C69.5236 50.126 69.5236 50.055 69.5236 49.984V31.24C69.5236 30.814 69.6668 30.459 69.9532 30.175C70.2396 29.891 70.5976 29.749 71.0272 29.749H79.0464C81.624 29.749 83.7004 30.388 85.1324 31.595C86.5644 32.802 87.2088 34.577 87.2088 36.92C87.2088 39.263 86.5644 41.109 85.1324 42.316C83.7004 43.523 81.624 44.091 79.0464 44.091H73.8912V50.055C73.8912 50.126 73.8912 50.197 73.8196 50.268C73.748 50.339 73.6764 50.339 73.6048 50.339H69.81V50.268ZM79.0464 32.944H73.8912V40.896H79.0464C80.3352 40.896 81.266 40.541 81.9104 39.902C82.5548 39.263 82.9128 38.269 82.9128 36.92C82.9128 35.571 82.5548 34.577 81.9104 33.938C81.266 33.299 80.3352 33.015 79.0464 32.944ZM91.29 42.245C92.722 43.452 94.6552 44.091 97.2328 44.091H100.455C102.961 44.091 104.966 43.452 106.398 42.245C107.83 41.038 108.546 39.192 108.546 36.778C108.546 34.364 107.83 32.518 106.398 31.311C104.966 30.104 103.032 29.465 100.455 29.465H97.2328C94.7268 29.465 92.722 30.104 91.29 31.311C89.858 32.518 89.142 34.364 89.142 36.778C89.142 39.192 89.858 40.967 91.29 42.245ZM100.455 40.896H97.2328C96.0156 40.896 95.0848 40.541 94.4404 39.902C93.796 39.263 93.438 38.198 93.438 36.849C93.438 35.429 93.796 34.364 94.4404 33.725C95.0848 33.086 96.0156 32.731 97.2328 32.731H100.455C101.672 32.731 102.603 33.086 103.247 33.725C103.892 34.364 104.25 35.429 104.25 36.849C104.25 38.269 103.892 39.263 103.247 39.902C102.603 40.541 101.672 40.896 100.455 40.896ZM134.536 44.091C132.03 44.091 130.026 43.452 128.594 42.245C127.162 41.038 126.446 39.192 126.446 36.778C126.446 34.364 127.162 32.518 128.594 31.311C130.026 30.104 131.959 29.465 134.536 29.465H137.758C140.264 29.465 142.269 30.104 143.701 31.311C145.133 32.518 145.849 34.364 145.849 36.778C145.849 39.192 145.133 40.967 143.701 42.245C142.269 43.523 140.336 44.091 137.758 44.091H134.536ZM134.536 40.896H137.758C138.976 40.896 139.906 40.541 140.551 39.902C141.195 39.263 141.553 38.198 141.553 36.849C141.553 35.429 141.195 34.435 140.551 33.725C139.906 33.086 138.976 32.731 137.758 32.731H134.536C133.319 32.731 132.388 33.086 131.744 33.725C131.1 34.364 130.742 35.429 130.742 36.849C130.742 38.269 131.1 39.263 131.744 39.902C132.388 40.541 133.319 40.896 134.536 40.896ZM119.5 44.02C119.572 44.091 119.644 44.091 119.715 44.091H123.51C123.582 44.091 123.653 44.091 123.725 44.02C123.796 43.949 123.796 43.878 123.796 43.807V23.572H121.004C120.574 23.572 120.216 23.714 119.858 23.998C119.572 24.282 119.357 24.637 119.357 25.063V43.878C119.357 43.878 119.429 43.949 119.5 44.02ZM111.481 44.091C111.41 44.091 111.338 44.091 111.266 44.02C111.195 43.949 111.195 43.878 111.195 43.807V24.992C111.195 24.566 111.41 24.211 111.696 23.927C111.982 23.643 112.412 23.501 112.842 23.501H115.562V43.736C115.562 43.807 115.562 43.878 115.491 43.949C115.419 44.02 115.348 44.02 115.276 44.02H111.481V44.091ZM153.439 34.293L147.496 44.091H152.15L157.162 36.494C157.305 36.352 157.377 36.21 157.592 36.139C157.735 36.068 157.95 35.997 158.093 35.997H158.379C158.594 35.997 158.737 36.068 158.88 36.139C159.024 36.21 159.167 36.352 159.31 36.494L164.322 44.091H168.976L163.033 34.293C162.89 34.08 162.818 33.796 162.818 33.512C162.818 33.228 162.89 32.944 163.033 32.731L168.976 23.572H164.322L159.238 31.169C159.167 31.311 159.024 31.453 158.809 31.595C158.666 31.666 158.451 31.737 158.308 31.737H158.021C157.806 31.737 157.663 31.666 157.52 31.595C157.377 31.524 157.234 31.382 157.09 31.169L152.007 23.572H147.496L153.439 32.731C153.582 32.944 153.654 33.228 153.654 33.512C153.654 33.796 153.582 34.08 153.439 34.293Z" fill="#FAFAFA"/>
</g>
</g>
</g>
</g>
<path id="Vector_3" fill-rule="evenodd" clip-rule="evenodd" d="M34.8692 29.82C32.936 34.151 29.8572 37.914 25.8476 40.541C21.838 43.168 17.184 44.659 12.4584 44.801C11.456 43.31 10.74 41.677 10.4536 39.973C10.0956 38.269 10.0956 36.494 10.4536 34.719C10.8116 33.015 11.456 31.311 12.4584 29.891C13.4608 28.4 14.678 27.193 16.1816 26.199C17.6852 25.205 19.332 24.495 21.0504 24.211C22.7688 23.856 24.5588 23.856 26.3488 24.211C28.0672 24.566 29.7856 25.205 31.2176 26.199C32.578 27.122 33.8668 28.4 34.8692 29.82ZM35.7284 29.749V28.116C35.7284 28.116 35.7284 28.116 35.7284 28.045L37.1604 27.193C37.1604 27.193 37.1604 27.193 37.232 27.193C37.232 27.193 37.232 27.193 37.3036 27.193C37.3036 27.193 37.3036 27.193 37.3036 27.264C37.3036 27.264 37.3036 27.264 37.3036 27.335V28.968C37.3036 28.968 37.3036 28.968 37.3036 29.039C37.3036 29.039 37.3036 29.039 37.3036 29.11L35.8716 29.962C35.8716 29.962 35.8716 29.962 35.8 29.962C35.8 29.962 35.8 29.962 35.7284 29.962C35.7284 29.82 35.7284 29.82 35.7284 29.749ZM34.5828 45.014C36.2296 42.742 37.0888 39.973 37.0888 37.204C37.0888 35.145 36.5876 33.086 35.6568 31.24C31.4324 36.636 28.7832 43.097 27.924 49.913C30.5732 49.061 32.936 47.357 34.5828 45.014Z" fill="#FAFAFA"/>
</g>
</svg>
