<svg width="180" height="71" viewBox="0 0 180 71" fill="none" xmlns="http://www.w3.org/2000/svg">
<g id="Logos">
<g id="Group-4">
<path id="Shape" d="M74.9776 40.612V27.051H76.2664C77.3404 27.051 78.2712 27.903 78.2712 28.968V35.003C80.4192 33.157 82.1376 32.376 84.572 32.376C89.1544 32.305 93.0924 35.642 93.522 40.186C93.9516 45.582 90.0136 49.629 84.8584 49.629C79.0588 49.629 74.9776 46.15 74.9776 40.612ZM78.1996 41.748C78.5576 44.588 81.2068 46.86 84.0708 46.931C87.794 47.002 90.3716 44.588 90.3716 41.038C90.3716 37.488 87.8656 35.145 84.2856 35.145C80.3476 35.074 77.6984 37.843 78.1996 41.748Z" fill="#FAFAFA"/>
<path id="Shape-2" d="M98.8204 32.66V35.074C100.897 32.802 102.114 32.234 104.477 32.234C105.193 32.234 105.837 32.305 106.553 32.376V35.571C105.837 35.358 105.05 35.287 104.334 35.287C102.615 35.287 101.183 35.855 100.038 36.92C99.1068 37.843 98.8204 38.553 98.8204 40.044V48.99H95.4552V32.66H98.8204Z" fill="#FAFAFA"/>
<path id="Shape-3" d="M107.412 38.1271C107.556 36.5651 107.914 35.6421 108.558 34.8611C109.918 33.1571 112.424 32.3051 116.004 32.3051C118.797 32.3051 120.873 32.7311 122.305 33.6541C123.451 34.4351 123.952 35.5711 123.952 37.5591V44.8011C123.952 46.3631 124.382 46.9311 125.527 46.9311C125.742 46.9311 126.028 46.9311 126.315 46.8601V49.0611C125.742 49.2031 125.169 49.3451 124.596 49.3451C122.448 49.3451 121.518 48.7061 120.873 46.8601C118.797 48.7771 116.649 49.5581 113.57 49.5581C109.417 49.5581 106.911 47.7121 106.911 44.6591C106.911 42.9551 107.914 41.3221 109.489 40.6831C110.706 40.1151 111.494 39.9731 115.074 39.6181C118.152 39.3341 118.654 39.2631 119.513 38.9791C120.444 38.6951 120.873 38.1981 120.873 37.3461C120.873 35.5711 119.37 34.7901 116.291 34.7901C113.212 34.7901 111.637 35.3581 111.064 36.9201C110.778 37.7011 110.062 38.1981 109.202 38.1981L107.412 38.1271ZM120.73 40.8961C118.582 41.5351 116.362 41.8901 114.143 42.1031C111.136 42.3871 110.205 42.9551 110.205 44.4461C110.205 46.0791 111.565 46.9311 114.358 46.9311C116.577 46.9311 118.296 46.3631 119.513 45.2981C120.515 44.3751 120.73 43.7361 120.73 42.1741V40.8961Z" fill="#FAFAFA"/>
<path id="Shape-4" d="M134.406 49.061H133.546C132.759 49.061 132.114 48.635 131.756 47.925L124.453 32.66H126.458C127.604 32.66 128.678 33.299 129.179 34.435L134.048 45.369L139.06 34.364C139.561 33.37 140.635 32.66 141.852 32.66H143.714L136.196 47.996C135.838 48.635 135.193 49.061 134.406 49.061Z" fill="#FAFAFA"/>
<path id="Shape-5" d="M145.933 41.819C146.291 44.943 148.797 46.931 152.449 46.931C154.597 46.931 156.172 46.292 157.103 45.085C157.676 44.375 158.535 43.949 159.466 43.949H161.47C159.752 47.641 156.745 49.487 152.162 49.487C146.506 49.487 142.64 46.079 142.64 40.967C142.64 35.855 146.506 32.234 152.234 32.234C156.315 32.234 159.609 34.08 160.969 37.133C161.542 38.553 161.757 39.76 161.757 41.819H145.933ZM158.32 39.263C157.604 36.423 155.313 34.79 152.234 34.79C149.155 34.79 146.864 36.423 146.076 39.263H158.32Z" fill="#FAFAFA"/>
</g>
<g id="build-icons_Stable">
<g id="Logo">
<path id="Head" d="M65.5134 26.9799L66.4442 24.7079C66.4442 24.7079 65.227 23.4299 63.795 22.0099C62.363 20.5899 59.2842 21.3709 59.2842 21.3709L55.7758 17.4659H43.6038L40.0954 21.3709C40.0954 21.3709 37.0166 20.5189 35.5846 22.0099C34.1526 23.5009 32.9354 24.7079 32.9354 24.7079L33.8662 26.9799L32.649 30.3169C32.649 30.3169 36.1574 43.4519 36.587 45.0849C37.3746 48.2089 37.9474 49.4869 40.2386 51.1199C42.5298 52.7529 46.6826 55.5219 47.3986 55.9479C48.043 56.3739 48.9738 57.0839 49.6898 57.0839C50.4058 57.0839 51.265 56.3739 51.981 55.9479C52.6254 55.5219 56.8498 52.7529 59.141 51.1199C61.4322 49.5579 62.005 48.2799 62.7926 45.0849C63.2222 43.4519 66.659 30.3169 66.659 30.3169L65.5134 26.9799Z" fill="#FAFAFA"/>
<path id="Face" d="M58.3534 23.927C58.3534 23.927 62.8642 29.323 62.8642 30.459C62.8642 31.595 62.2914 31.879 61.7186 32.518C61.1458 33.157 58.6398 35.713 58.3534 36.068C57.9954 36.423 57.4226 36.92 57.7806 37.843C58.2102 38.766 58.7114 39.902 58.1386 41.109C57.4942 42.316 56.4202 43.097 55.7042 42.955C54.9882 42.813 53.3414 41.961 52.7686 41.535C52.1958 41.18 50.2626 39.547 50.2626 38.979C50.2626 38.411 52.2674 37.275 52.6254 37.062C52.9834 36.849 54.6302 35.855 54.7018 35.5C54.7734 35.145 54.7018 35.003 54.2006 34.08C53.6994 33.157 52.7686 31.95 52.9834 31.098C53.1982 30.246 54.5586 29.891 55.561 29.465C56.5634 29.039 58.5682 28.329 58.783 28.258C58.9978 28.187 58.9262 28.045 58.2102 27.974C57.4226 27.903 55.3462 27.619 54.4154 27.903C53.4846 28.187 51.8378 28.542 51.6946 28.755C51.5514 28.968 51.4798 28.968 51.5514 29.678C51.6946 30.388 52.4106 33.938 52.4822 34.577C52.5538 35.216 52.697 35.642 51.981 35.784C51.1934 35.997 50.0478 36.21 49.6898 36.21C49.3318 36.21 48.1146 35.926 47.4702 35.784C46.8258 35.642 46.8974 35.216 46.969 34.577C47.0406 33.938 47.7566 30.459 47.8998 29.678C48.043 28.968 47.8998 28.897 47.7566 28.755C47.6134 28.542 45.9666 28.187 45.0358 27.903C44.105 27.619 41.957 27.903 41.241 27.974C40.4534 28.045 40.4534 28.116 40.6682 28.258C40.883 28.4 42.8878 29.11 43.8902 29.465C44.8926 29.82 46.3246 30.246 46.4678 31.098C46.611 31.95 45.7518 33.157 45.2506 34.08C44.7494 35.074 44.7494 35.145 44.7494 35.5C44.7494 35.855 46.4678 36.849 46.8258 37.062C47.1838 37.275 49.1886 38.411 49.1886 38.979C49.1886 39.547 47.2554 41.109 46.6826 41.535C46.1098 41.961 44.463 42.742 43.747 42.955C43.031 43.097 41.957 42.316 41.3126 41.109C40.6682 39.902 41.241 38.766 41.6706 37.843C42.0286 36.92 41.3842 36.423 41.0978 36.068C40.883 35.713 38.377 33.086 37.8042 32.518C37.2314 31.95 36.6586 31.595 36.6586 30.459C36.6586 29.323 41.1694 23.927 41.1694 23.927C41.1694 23.927 44.9642 24.637 45.4654 24.637C45.9666 24.637 47.0406 24.211 48.1146 23.856C49.1886 23.501 49.833 23.501 49.833 23.501C49.833 23.501 50.4774 23.501 51.5514 23.856C52.6254 24.211 53.6994 24.637 54.2006 24.637C54.7018 24.637 58.3534 23.927 58.3534 23.927ZM54.9882 44.517C55.2746 44.659 55.1314 45.014 54.845 45.156C54.6302 45.298 51.1934 47.925 50.907 48.28C50.549 48.564 50.1194 49.061 49.7614 49.061C49.4034 49.061 48.9738 48.564 48.6158 48.28C48.2578 47.996 44.8926 45.369 44.6778 45.156C44.463 45.014 44.2482 44.659 44.5346 44.517C44.821 44.375 45.6802 43.949 46.8974 43.31C48.1146 42.671 49.6182 42.174 49.833 42.174C50.0478 42.174 51.5514 42.671 52.7686 43.31C53.8426 43.878 54.7018 44.375 54.9882 44.517Z" fill="#1E1E1E"/>
<g id="Top-Head">
<path id="path-3" d="M59.3558 21.442L55.8474 17.537H43.6038L40.0954 21.442C40.0954 21.442 37.0166 20.59 35.5846 22.081C35.5846 22.081 39.6658 21.726 41.0978 23.998C41.0978 23.998 44.8926 24.708 45.3938 24.708C45.895 24.708 46.969 24.282 48.043 23.927C49.117 23.572 49.7614 23.572 49.7614 23.572C49.7614 23.572 50.4058 23.572 51.4798 23.927C52.5538 24.282 53.6278 24.708 54.129 24.708C54.6302 24.708 58.425 23.998 58.425 23.998C59.7854 21.726 63.9382 22.081 63.9382 22.081C62.363 20.59 59.3558 21.442 59.3558 21.442Z" fill="#FAFAFA"/>
</g>
</g>
</g>
</g>
</svg>
