<svg width="180" height="71" viewBox="0 0 180 71" fill="none" xmlns="http://www.w3.org/2000/svg">
<g id="Logos">
<g id="Group-4">
<path id="Shape" d="M74.9776 40.6118V27.0508H76.2664C77.3404 27.0508 78.2712 27.9028 78.2712 28.9678V35.0028C80.4192 33.1568 82.1376 32.3758 84.572 32.3758C89.1544 32.3048 93.0924 35.6418 93.522 40.1858C93.9516 45.5818 90.0136 49.6288 84.8584 49.6288C79.0588 49.6288 74.9776 46.1498 74.9776 40.6118ZM78.1996 41.7478C78.5576 44.5878 81.2068 46.8598 84.0708 46.9308C87.794 47.0018 90.3716 44.5878 90.3716 41.0378C90.3716 37.4878 87.8656 35.1448 84.2856 35.1448C80.3476 35.0738 77.6984 37.8428 78.1996 41.7478Z" fill="#4D4040"/>
<path id="Shape-2" d="M98.8204 32.6599V35.0739C100.897 32.8019 102.114 32.2339 104.477 32.2339C105.193 32.2339 105.837 32.3049 106.553 32.3759V35.5709C105.837 35.3579 105.05 35.2869 104.334 35.2869C102.615 35.2869 101.183 35.8549 100.038 36.9199C99.1068 37.8429 98.8204 38.5529 98.8204 40.0439V48.9899H95.4552V32.6599H98.8204Z" fill="#4D4040"/>
<path id="Shape-3" d="M107.412 38.1267C107.556 36.5647 107.914 35.6417 108.558 34.8607C109.918 33.1567 112.424 32.3047 116.004 32.3047C118.797 32.3047 120.873 32.7307 122.305 33.6537C123.451 34.4347 123.952 35.5707 123.952 37.5587V44.8007C123.952 46.3627 124.382 46.9307 125.527 46.9307C125.742 46.9307 126.028 46.9307 126.315 46.8597V49.0607C125.742 49.2027 125.169 49.3447 124.596 49.3447C122.448 49.3447 121.518 48.7057 120.873 46.8597C118.797 48.7767 116.649 49.5577 113.57 49.5577C109.417 49.5577 106.911 47.7117 106.911 44.6587C106.911 42.9547 107.914 41.3217 109.489 40.6827C110.706 40.1147 111.494 39.9727 115.074 39.6177C118.152 39.3337 118.654 39.2627 119.513 38.9787C120.444 38.6947 120.873 38.1977 120.873 37.3457C120.873 35.5707 119.37 34.7897 116.291 34.7897C113.212 34.7897 111.637 35.3577 111.064 36.9197C110.778 37.7007 110.062 38.1977 109.202 38.1977L107.412 38.1267ZM120.73 40.8957C118.582 41.5347 116.362 41.8897 114.143 42.1027C111.136 42.3867 110.205 42.9547 110.205 44.4457C110.205 46.0787 111.565 46.9307 114.358 46.9307C116.577 46.9307 118.296 46.3627 119.513 45.2977C120.515 44.3747 120.73 43.7357 120.73 42.1737V40.8957Z" fill="#4D4040"/>
<path id="Shape-4" d="M134.406 49.0607H133.546C132.759 49.0607 132.114 48.6347 131.756 47.9247L124.453 32.6597H126.458C127.604 32.6597 128.678 33.2987 129.179 34.4347L134.048 45.3687L139.06 34.3637C139.561 33.3697 140.635 32.6597 141.852 32.6597H143.714L136.196 47.9957C135.838 48.6347 135.193 49.0607 134.406 49.0607Z" fill="#4D4040"/>
<path id="Shape-5" d="M145.933 41.8189C146.291 44.9429 148.797 46.9309 152.449 46.9309C154.597 46.9309 156.172 46.2919 157.103 45.0849C157.676 44.3749 158.535 43.9489 159.466 43.9489H161.47C159.752 47.6409 156.745 49.4869 152.162 49.4869C146.506 49.4869 142.64 46.0789 142.64 40.9669C142.64 35.8549 146.506 32.2339 152.234 32.2339C156.315 32.2339 159.609 34.0799 160.969 37.1329C161.542 38.5529 161.757 39.7599 161.757 41.8189H145.933ZM158.32 39.2629C157.604 36.4229 155.313 34.7899 152.234 34.7899C149.155 34.7899 146.864 36.4229 146.076 39.2629H158.32Z" fill="#4D4040"/>
</g>
<g id="build-icons_Stable">
<g id="Logo">
<path id="Head" d="M65.5134 26.9798L66.4442 24.7078C66.4442 24.7078 65.227 23.4298 63.795 22.0098C62.363 20.5898 59.2842 21.3708 59.2842 21.3708L55.7758 17.4658H43.6038L40.0954 21.3708C40.0954 21.3708 37.0166 20.5188 35.5846 22.0098C34.1526 23.5008 32.9354 24.7078 32.9354 24.7078L33.8662 26.9798L32.649 30.3168C32.649 30.3168 36.1574 43.4518 36.587 45.0848C37.3746 48.2088 37.9474 49.4868 40.2386 51.1198C42.5298 52.7528 46.6826 55.5218 47.3986 55.9478C48.043 56.3738 48.9738 57.0838 49.6898 57.0838C50.4058 57.0838 51.265 56.3738 51.981 55.9478C52.6254 55.5218 56.8498 52.7528 59.141 51.1198C61.4322 49.5578 62.005 48.2798 62.7926 45.0848C63.2222 43.4518 66.659 30.3168 66.659 30.3168L65.5134 26.9798Z" fill="#4D4040"/>
<path id="Face" d="M58.3534 23.927C58.3534 23.927 62.8642 29.323 62.8642 30.459C62.8642 31.595 62.2914 31.879 61.7186 32.518C61.1458 33.157 58.6398 35.713 58.3534 36.068C57.9954 36.423 57.4226 36.92 57.7806 37.843C58.2102 38.766 58.7114 39.902 58.1386 41.109C57.4942 42.316 56.4202 43.097 55.7042 42.955C54.9882 42.813 53.3414 41.961 52.7686 41.535C52.1958 41.18 50.2626 39.547 50.2626 38.979C50.2626 38.411 52.2674 37.275 52.6254 37.062C52.9834 36.849 54.6302 35.855 54.7018 35.5C54.7734 35.145 54.7018 35.003 54.2006 34.08C53.6994 33.157 52.7686 31.95 52.9834 31.098C53.1982 30.246 54.5586 29.891 55.561 29.465C56.5634 29.039 58.5682 28.329 58.783 28.258C58.9978 28.187 58.9262 28.045 58.2102 27.974C57.4226 27.903 55.3462 27.619 54.4154 27.903C53.4846 28.187 51.8378 28.542 51.6946 28.755C51.5514 28.968 51.4798 28.968 51.5514 29.678C51.6946 30.388 52.4106 33.938 52.4822 34.577C52.5538 35.216 52.697 35.642 51.981 35.784C51.1934 35.997 50.0478 36.21 49.6898 36.21C49.3318 36.21 48.1146 35.926 47.4702 35.784C46.8258 35.642 46.8974 35.216 46.969 34.577C47.0406 33.938 47.7566 30.459 47.8998 29.678C48.043 28.968 47.8998 28.897 47.7566 28.755C47.6134 28.542 45.9666 28.187 45.0358 27.903C44.105 27.619 41.957 27.903 41.241 27.974C40.4534 28.045 40.4534 28.116 40.6682 28.258C40.883 28.4 42.8878 29.11 43.8902 29.465C44.8926 29.82 46.3246 30.246 46.4678 31.098C46.611 31.95 45.7518 33.157 45.2506 34.08C44.7494 35.074 44.7494 35.145 44.7494 35.5C44.7494 35.855 46.4678 36.849 46.8258 37.062C47.1838 37.275 49.1886 38.411 49.1886 38.979C49.1886 39.547 47.2554 41.109 46.6826 41.535C46.1098 41.961 44.463 42.742 43.747 42.955C43.031 43.097 41.957 42.316 41.3126 41.109C40.6682 39.902 41.241 38.766 41.6706 37.843C42.0286 36.92 41.3842 36.423 41.0978 36.068C40.883 35.713 38.377 33.086 37.8042 32.518C37.2314 31.95 36.6586 31.595 36.6586 30.459C36.6586 29.323 41.1694 23.927 41.1694 23.927C41.1694 23.927 44.9642 24.637 45.4654 24.637C45.9666 24.637 47.0406 24.211 48.1146 23.856C49.1886 23.501 49.833 23.501 49.833 23.501C49.833 23.501 50.4774 23.501 51.5514 23.856C52.6254 24.211 53.6994 24.637 54.2006 24.637C54.7018 24.637 58.3534 23.927 58.3534 23.927ZM54.9882 44.517C55.2746 44.659 55.1314 45.014 54.845 45.156C54.6302 45.298 51.1934 47.925 50.907 48.28C50.549 48.564 50.1194 49.061 49.7614 49.061C49.4034 49.061 48.9738 48.564 48.6158 48.28C48.2578 47.996 44.8926 45.369 44.6778 45.156C44.463 45.014 44.2482 44.659 44.5346 44.517C44.821 44.375 45.6802 43.949 46.8974 43.31C48.1146 42.671 49.6182 42.174 49.833 42.174C50.0478 42.174 51.5514 42.671 52.7686 43.31C53.8426 43.878 54.7018 44.375 54.9882 44.517Z" fill="#FDFBF5"/>
<g id="Top-Head">
<path id="path-3" d="M59.3558 21.4416L55.8474 17.5366H43.6038L40.0954 21.4416C40.0954 21.4416 37.0166 20.5896 35.5846 22.0806C35.5846 22.0806 39.6658 21.7256 41.0978 23.9976C41.0978 23.9976 44.8926 24.7076 45.3938 24.7076C45.895 24.7076 46.969 24.2816 48.043 23.9266C49.117 23.5716 49.7614 23.5716 49.7614 23.5716C49.7614 23.5716 50.4058 23.5716 51.4798 23.9266C52.5538 24.2816 53.6278 24.7076 54.129 24.7076C54.6302 24.7076 58.425 23.9976 58.425 23.9976C59.7854 21.7256 63.9382 22.0806 63.9382 22.0806C62.363 20.5896 59.3558 21.4416 59.3558 21.4416Z" fill="#4D4040"/>
</g>
</g>
</g>
</g>
</svg>
