<svg width="179" height="71" viewBox="0 0 179 71" fill="none" xmlns="http://www.w3.org/2000/svg">
<g id="Logos">
<g id="Layer_2">
<g id="Layer_1-2">
<path id="Vector" d="M66.1046 38.83C65.9195 34.3215 69.4368 30.523 73.958 30.3384H74.3638C78.5433 30.3384 81.0068 32.7879 81.733 35.6492L79.1342 36.5154C78.6501 34.3073 76.6209 32.7879 74.3638 32.937C71.6582 32.937 68.9526 34.9037 68.9526 38.8726C68.9526 42.8415 71.5942 44.7372 74.3994 44.7372C76.6636 44.8011 78.6714 43.3101 79.2695 41.1375L81.8185 41.954C80.9142 45.2768 77.817 47.5275 74.3638 47.3642C69.8854 47.4494 66.1901 43.8923 66.1046 39.4264C66.0975 39.2276 66.1046 39.0288 66.1118 38.8229L66.1046 38.83Z" fill="#4D4040"/>
<path id="Vector_2" d="M86.8665 47.0017H84.1823V30.2954H86.8665V36.8274C87.6569 35.8902 88.8317 35.3719 90.0634 35.4216C92.8402 35.4216 94.1574 37.4025 94.1574 39.8804V47.0017H91.5729V40.3561C91.7366 39.1775 90.9178 38.0841 89.7359 37.9066C89.5722 37.8924 89.4155 37.8924 89.2518 37.9066C87.9559 37.9066 86.9093 38.9503 86.9093 40.2425C86.9093 40.3135 86.9093 40.3774 86.9093 40.4484L86.8665 47.0017Z" fill="#4D4040"/>
<path id="Vector_3" d="M100.181 40.562L103.065 40.1147C103.72 40.0295 103.883 39.6958 103.883 39.2982C103.883 38.3539 103.243 37.5942 101.754 37.5942C100.58 37.5019 99.5544 38.361 99.4476 39.5325V39.6532L96.9912 39.1065C97.1977 37.1611 98.9634 35.4287 101.733 35.4287C105.208 35.4287 106.525 37.3883 106.525 39.6745V45.248C106.525 45.8515 106.568 46.455 106.667 47.0514H104.211C104.125 46.5757 104.09 46.0929 104.104 45.6172C103.342 46.7816 102.025 47.4561 100.63 47.3922C98.6858 47.5555 96.977 46.1142 96.8132 44.1759V44.0126C96.7705 41.9465 98.2515 40.8389 100.188 40.5691L100.181 40.562ZM103.898 42.3654V41.8542L100.957 42.2944C100.131 42.3228 99.469 42.9973 99.4619 43.8209C99.4761 44.6445 100.152 45.2977 100.978 45.2835H101.128C102.531 45.4326 103.791 44.4102 103.933 43.0115V42.9973C103.947 42.7843 103.933 42.5784 103.898 42.3654Z" fill="#4D4040"/>
<path id="Vector_4" d="M111.089 30.0611C112.057 30.0469 112.855 30.8208 112.869 31.7864C112.869 32.7591 112.086 33.5401 111.117 33.5401C110.149 33.5401 109.366 32.7591 109.366 31.7935C109.366 30.835 110.135 30.0611 111.096 30.0469V30.0611H111.089ZM109.779 47.0443V35.7624H112.463V46.9946L109.779 47.0443Z" fill="#4D4040"/>
<path id="Vector_5" d="M118.579 47.0017H115.902V35.7695H118.515V37.2605C119.206 36.089 120.487 35.3932 121.847 35.4429C124.595 35.4429 125.941 37.4238 125.941 39.9017V47.0088H123.264V40.3632C123.264 38.9858 122.63 37.864 120.95 37.864C119.64 37.8711 118.586 38.9432 118.593 40.2496V47.0088L118.579 47.0017Z" fill="#4D4040"/>
<path id="Vector_6" d="M129.181 47.0017V30.2954H131.865V47.0017H129.181Z" fill="#4D4040"/>
<path id="Vector_7" d="M136.657 30.061C137.618 30.061 138.401 30.8349 138.408 31.7934C138.408 32.7519 137.632 33.5329 136.671 33.54C135.71 33.54 134.927 32.7661 134.919 31.8076V31.7934C134.927 30.842 135.703 30.0681 136.657 30.061ZM135.34 47.0442V35.7623H138.002V46.9945L135.34 47.0442Z" fill="#4D4040"/>
<path id="Vector_8" d="M144.161 47.0017H141.477V35.7695H144.09V37.2605C144.788 36.0961 146.062 35.3932 147.422 35.4429C150.171 35.4429 151.516 37.4238 151.516 39.9017V47.0088H148.832V40.3632C148.996 39.1846 148.177 38.0912 146.995 37.9137C146.831 37.8995 146.667 37.8995 146.504 37.9137C145.201 37.9279 144.154 38.9858 144.154 40.2851C144.147 40.3774 144.147 40.4768 144.154 40.5691V47.0088L144.161 47.0017Z" fill="#4D4040"/>
<path id="Vector_9" d="M160.672 40.5052L165.4 47.0372H162.125L158.85 42.408L157.468 43.8635V47.0017H154.806V30.2954H157.468V40.3064L161.79 35.7695H165.35L160.672 40.5123V40.5052Z" fill="#4D4040"/>
<path id="Vector_10" d="M34.3139 25.7658L45.9266 32.4114V45.7665L34.3494 52.4547L22.7438 45.8233V32.4753L34.3139 25.7658ZM34.3139 15.9678L30.0561 18.4173L18.4647 25.1268L14.207 27.5763V50.7436L18.4647 53.1931L30.0774 59.8387L34.3352 62.2882L38.593 59.8387L50.163 53.1434L54.4207 50.6939V27.4982L50.163 25.0487L38.5574 18.4173L34.2996 15.9678H34.3139Z" fill="#4D4040"/>
</g>
</g>
</g>
</svg>
