<svg width="179" height="71" viewBox="0 0 179 71" fill="none" xmlns="http://www.w3.org/2000/svg">
<g id="Logos">
<g id="Layer_2">
<g id="Layer_1-2">
<path id="Vector" d="M66.1046 38.8299C65.9195 34.3214 69.4368 30.5229 73.958 30.3383H74.3638C78.5433 30.3383 81.0068 32.7878 81.733 35.6491L79.1342 36.5153C78.6501 34.3072 76.6209 32.7878 74.3638 32.9369C71.6582 32.9369 68.9526 34.9036 68.9526 38.8725C68.9526 42.8414 71.5942 44.7371 74.3994 44.7371C76.6636 44.801 78.6714 43.31 79.2695 41.1374L81.8185 41.9539C80.9142 45.2767 77.817 47.5274 74.3638 47.3641C69.8854 47.4493 66.1901 43.8922 66.1046 39.4263C66.0975 39.2275 66.1046 39.0287 66.1118 38.8228L66.1046 38.8299Z" fill="#FAFAFA"/>
<path id="Vector_2" d="M86.8665 47.002H84.1823V30.2957H86.8665V36.8277C87.6569 35.8905 88.8317 35.3722 90.0634 35.4219C92.8402 35.4219 94.1574 37.4028 94.1574 39.8807V47.002H91.5729V40.3564C91.7366 39.1778 90.9178 38.0844 89.7359 37.9069C89.5722 37.8927 89.4155 37.8927 89.2518 37.9069C87.9559 37.9069 86.9093 38.9506 86.9093 40.2428C86.9093 40.3138 86.9093 40.3777 86.9093 40.4487L86.8665 47.002Z" fill="#FAFAFA"/>
<path id="Vector_3" d="M100.181 40.5623L103.065 40.115C103.72 40.0298 103.883 39.6961 103.883 39.2985C103.883 38.3542 103.243 37.5945 101.754 37.5945C100.58 37.5022 99.5544 38.3613 99.4476 39.5328V39.6535L96.9912 39.1068C97.1977 37.1614 98.9634 35.429 101.733 35.429C105.208 35.429 106.525 37.3886 106.525 39.6748V45.2483C106.525 45.8518 106.568 46.4553 106.667 47.0517H104.211C104.125 46.576 104.09 46.0932 104.104 45.6175C103.342 46.7819 102.025 47.4564 100.63 47.3925C98.6858 47.5558 96.977 46.1145 96.8132 44.1762V44.0129C96.7705 41.9468 98.2515 40.8392 100.188 40.5694L100.181 40.5623ZM103.898 42.3657V41.8545L100.957 42.2947C100.131 42.3231 99.469 42.9976 99.4619 43.8212C99.4761 44.6448 100.152 45.298 100.978 45.2838H101.128C102.531 45.4329 103.791 44.4105 103.933 43.0118V42.9976C103.947 42.7846 103.933 42.5787 103.898 42.3657Z" fill="#FAFAFA"/>
<path id="Vector_4" d="M111.089 30.0614C112.057 30.0472 112.855 30.8211 112.869 31.7867C112.869 32.7594 112.086 33.5404 111.117 33.5404C110.149 33.5404 109.366 32.7594 109.366 31.7938C109.366 30.8353 110.135 30.0614 111.096 30.0472V30.0614H111.089ZM109.779 47.0446V35.7627H112.463V46.9949L109.779 47.0446Z" fill="#FAFAFA"/>
<path id="Vector_5" d="M118.579 47.002H115.902V35.7698H118.515V37.2608C119.206 36.0893 120.487 35.3935 121.847 35.4432C124.595 35.4432 125.941 37.4241 125.941 39.902V47.0091H123.264V40.3635C123.264 38.9861 122.63 37.8643 120.95 37.8643C119.64 37.8714 118.586 38.9435 118.593 40.2499V47.0091L118.579 47.002Z" fill="#FAFAFA"/>
<path id="Vector_6" d="M129.181 47.002V30.2957H131.865V47.002H129.181Z" fill="#FAFAFA"/>
<path id="Vector_7" d="M136.657 30.0614C137.618 30.0614 138.401 30.8353 138.408 31.7938C138.408 32.7523 137.632 33.5333 136.671 33.5404C135.71 33.5404 134.927 32.7665 134.919 31.808V31.7938C134.927 30.8424 135.703 30.0685 136.657 30.0614ZM135.34 47.0446V35.7627H138.002V46.9949L135.34 47.0446Z" fill="#FAFAFA"/>
<path id="Vector_8" d="M144.161 47.0019H141.477V35.7697H144.09V37.2607C144.788 36.0963 146.062 35.3934 147.422 35.4431C150.171 35.4431 151.516 37.424 151.516 39.9019V47.009H148.832V40.3634C148.996 39.1848 148.177 38.0914 146.995 37.9139C146.831 37.8997 146.667 37.8997 146.504 37.9139C145.201 37.9281 144.154 38.986 144.154 40.2853C144.147 40.3776 144.147 40.477 144.154 40.5693V47.009L144.161 47.0019Z" fill="#FAFAFA"/>
<path id="Vector_9" d="M160.672 40.5055L165.4 47.0375H162.125L158.85 42.4083L157.468 43.8638V47.002H154.806V30.2957H157.468V40.3067L161.79 35.7698H165.35L160.672 40.5126V40.5055Z" fill="#FAFAFA"/>
<path id="Vector_10" d="M34.3139 25.7659L45.9266 32.4115V45.7666L34.3494 52.4548L22.7438 45.8234V32.4754L34.3139 25.7659ZM34.3139 15.9679L30.0561 18.4174L18.4647 25.1269L14.207 27.5764V50.7437L18.4647 53.1932L30.0774 59.8388L34.3352 62.2883L38.593 59.8388L50.163 53.1435L54.4207 50.694V27.4983L50.163 25.0488L38.5574 18.4174L34.2996 15.9679H34.3139Z" fill="#FAFAFA"/>
</g>
</g>
</g>
</svg>
