<svg width="180" height="71" viewBox="0 0 180 71" fill="none" xmlns="http://www.w3.org/2000/svg">
<g id="Logos">
<path id="Combined-Shape" d="M28.7818 48.358V43.1608H23.512V37.9636H34.0229V48.3864H28.7818V48.358ZM34.0229 32.7451H18.2709V48.358H13.0012V27.5195H34.0158V32.7451H34.0229Z" fill="#4D4040"/>
<path id="Combined-Shape-2" d="M34.0229 50.4455V53.5766H18.2709V48.3794H28.7818V46.0435H34.0229V50.4455Z" fill="#4D4040"/>
<path id="Rectangle-5-Copy-19" d="M39.2855 32.7383V37.9639H34.0229V32.7383H39.2855Z" fill="#4D4040"/>
<path id="Rectangle-5-Copy-29" d="M18.2709 48.3579V53.5764H13.0012V48.3579H18.2709Z" fill="#4D4040"/>
<path id="Rectangle-5-Copy-30" d="M18.2709 53.5767V58.7739H13.0012V53.5767H18.2709Z" fill="#4D4040"/>
<path id="Vector" d="M133.346 34.1157H130.991V46.4058H139.504V43.9847H133.346V34.1157ZM109.697 42.4156L103.683 34.1157H101.212V46.4058H103.683V38.184L109.697 46.4058H112.167V34.1157H109.697V42.4156ZM93.4796 41.3151C93.4796 43.154 92.1764 44.148 90.7373 44.148C89.4342 44.148 88.1597 43.1611 88.1597 41.3151V33.9737H85.7181V41.3151C85.7181 45 88.4604 46.6472 90.7373 46.6472C93.0142 46.6472 95.9211 44.9716 95.9211 41.3151V33.9737H93.4796V41.3151ZM120.344 33.9737H116.213V36.4729H120.344V46.6756H122.785V36.4729H126.917V33.9737H120.344ZM75.0927 42.6641L76.7252 39.1709L78.3863 42.6641H75.0855H75.0927ZM70.632 46.6472H73.2096L74.1261 44.6947H79.3386L80.2837 46.6472H82.8613L76.6536 33.7536L70.6392 46.6472H70.632ZM167.199 33.9737H156.495V36.4729H160.626V46.6756H163.068V36.4729H167.199V33.9737ZM148.067 33.9737H148.01C144.237 33.9737 142.354 37.6586 142.354 40.3211C142.354 42.9836 144.265 46.3419 147.538 46.6472V46.6756H152.721V44.1764H148.175C146.707 44.1764 145.626 43.0191 145.153 41.6772H152.442V39.178H145.096C145.454 37.7509 146.485 36.5084 148.01 36.5084H152.721V34.0092L148.06 33.9808L148.067 33.9737ZM61.8395 41.592H65.0544V43.7362C64.5245 44.1764 63.5866 44.7018 62.0042 44.7018C59.9779 44.7018 58.0948 42.6641 58.0948 40.5199C58.0948 37.332 60.3144 35.983 62.5054 35.983C65.0257 35.983 66.7226 38.0207 66.7441 38.042L66.8515 38.2053V35.2659L66.8229 35.2375C66.8229 35.2375 66.4649 34.8257 65.7417 34.4139C65.0758 34.0305 63.9374 33.5903 62.3336 33.5903C59.7273 33.5903 55.6246 35.4576 55.6246 40.5199C55.6246 44.503 59.1474 46.9809 62.4195 46.9809C65.6916 46.9809 67.3814 44.4249 67.41 44.4249V39.4762H61.8109V41.592H61.8395Z" fill="#4D4040"/>
</g>
</svg>
