<svg width="180" height="71" viewBox="0 0 180 71" fill="none" xmlns="http://www.w3.org/2000/svg">
<g id="Logos">
<path id="Vector" d="M12.5076 40.0581C12.4574 35.0242 16.7176 30.75 21.9588 30.8139C26.7202 30.8707 31.2166 34.5556 31.2095 40.1007C31.2095 45.3902 27.0495 49.3804 21.8299 49.3733C16.3238 49.3662 12.436 44.9216 12.5076 40.0581Z" fill="#FAFAFA"/>
<path id="Vector_2" d="M63.4438 47.5629H59.5989V35.0882L59.4915 35.0456C59.3769 35.1947 59.2624 35.3438 59.155 35.5C57.5798 37.8785 55.9974 40.257 54.4365 42.6497C54.236 42.955 54.0284 43.0615 53.6776 43.0402C53.0475 43.0047 52.31 43.2106 51.8231 42.9479C51.3291 42.6852 51.0856 41.9752 50.7348 41.4498C49.403 39.4405 48.0713 37.4241 46.7467 35.4148C46.6536 35.2657 46.539 35.1308 46.3529 34.8752V47.5558H42.5223V28.8047C43.7681 28.8047 45.0068 28.7905 46.2383 28.826C46.3815 28.826 46.539 29.0603 46.6464 29.2165C48.6512 32.2411 50.6489 35.2728 52.6465 38.2974C52.7396 38.4323 52.8327 38.5672 52.9687 38.7518C53.248 38.34 53.4986 37.9637 53.7563 37.5874C55.6179 34.7758 57.4795 31.9642 59.3483 29.1597C59.4557 29.0035 59.6705 28.8189 59.8423 28.8189C61.0237 28.7905 62.2123 28.8047 63.4438 28.8047V47.5771V47.5629Z" fill="#FAFAFA"/>
<path id="Vector_3" d="M117.903 28.7336C121.146 28.7904 124.34 28.7194 127.511 28.9537C129.86 29.1312 131.8 30.2814 132.531 32.6812C133.232 35.0029 133.032 37.2536 131.163 39.0641C130.103 40.0936 128.75 40.5835 127.297 40.69C125.707 40.8036 124.11 40.7823 122.521 40.8178C122.285 40.8178 122.041 40.8178 121.741 40.8178V47.5486H117.903V28.7336ZM121.755 37.5731C121.841 37.5944 121.891 37.6157 121.941 37.6157C123.165 37.6157 124.383 37.6299 125.607 37.6157C126.008 37.6157 126.416 37.5447 126.81 37.4524C128.206 37.1045 128.85 36.1815 128.815 34.6337C128.786 33.2918 128.041 32.2907 126.695 32.1416C125.07 31.9641 123.423 31.9925 121.748 31.9286V37.5731H121.755Z" fill="#FAFAFA"/>
<path id="Vector_4" d="M145.412 35.72V34.2645H149.142V47.5486H145.404V46.1925C142.648 48.997 137.471 48.2941 135.273 45.6884C132.867 42.8413 133.061 38.2405 135.738 35.7129C138.273 33.3131 143.056 33.2421 145.404 35.7271L145.412 35.72ZM145.648 40.9172C145.648 38.6239 143.937 36.9838 141.559 36.998C139.168 37.0122 137.485 38.6452 137.485 40.9456C137.485 43.1963 139.175 44.8364 141.531 44.879C143.901 44.9216 145.648 43.2389 145.648 40.9172Z" fill="#FAFAFA"/>
<path id="Vector_5" d="M91.2962 33.6967C93.7449 33.8529 95.9072 34.5487 97.5254 36.4089C100.382 39.6749 99.523 44.7514 95.7139 46.853C92.764 48.4789 89.6923 48.4576 86.7567 46.8175C84.2149 45.3904 83.1624 43.0545 83.4202 40.2216C83.6923 37.2822 85.3677 35.3155 88.1601 34.3499C89.1553 34.0091 90.2437 33.9097 91.289 33.7038L91.2962 33.6967ZM91.2819 44.8224C93.7234 44.8153 95.4418 43.1681 95.406 40.8748C95.3702 38.5744 93.6661 36.9627 91.2819 36.9556C88.8761 36.9556 87.1649 38.6099 87.172 40.9245C87.1792 43.232 88.8689 44.8295 91.2819 44.8153V44.8224Z" fill="#FAFAFA"/>
<path id="Vector_6" d="M65.7637 40.9173C65.7637 37.3957 68.1766 34.5983 71.7709 33.9948C73.9834 33.6256 76.1314 33.796 78.1075 34.9604C80.5061 36.3733 81.6446 38.4962 81.5228 41.251C81.4011 43.9561 80.0694 45.9441 77.635 47.0943C74.7996 48.4362 71.9213 48.3368 69.1503 46.8458C66.9952 45.6885 65.7637 43.452 65.7637 40.9173ZM73.6253 44.8223C76.0955 44.8223 77.7352 43.2461 77.7352 40.8889C77.7352 38.5814 76.0597 36.9697 73.654 36.9555C71.2267 36.9413 69.5513 38.5601 69.5513 40.9102C69.5513 43.2532 71.1909 44.8223 73.6253 44.8152V44.8223Z" fill="#FAFAFA"/>
<path id="Vector_7" d="M101.449 47.5488V34.2292C102.63 34.2292 103.79 34.2292 104.95 34.2434C105.029 34.2434 105.151 34.4706 105.165 34.5984C105.194 34.9179 105.172 35.2374 105.172 35.7131C106.203 34.5842 107.385 34.0801 108.724 33.9239C111.137 33.6399 113.478 34.3073 114.516 36.4586C114.896 37.2467 115.153 38.1697 115.182 39.043C115.268 41.7623 115.211 44.4887 115.211 47.208C115.211 47.3145 115.189 47.421 115.182 47.5559H111.516C111.516 47.35 111.516 47.137 111.516 46.924C111.495 44.5526 111.516 42.1812 111.43 39.8098C111.387 38.5957 110.829 37.5875 109.583 37.1828C108.294 36.7568 107.041 36.8349 106.024 37.8502C105.358 38.5105 105.179 39.3767 105.179 40.2855C105.179 42.4936 105.179 44.7017 105.179 46.9098V47.5488H101.449Z" fill="#FAFAFA"/>
<path id="Vector_8" d="M154.29 52.5187C154.634 51.8158 154.941 51.1768 155.257 50.5378C155.686 49.6645 156.109 48.7841 156.56 47.925C156.717 47.6197 156.71 47.3712 156.567 47.0588C154.762 42.9763 152.98 38.8938 151.19 34.8042C151.118 34.6409 151.054 34.4705 150.953 34.2291C152.228 34.2291 153.445 34.2149 154.655 34.2504C154.798 34.2504 154.992 34.4989 155.063 34.6764C156.223 37.417 157.369 40.1576 158.514 42.8982C158.607 43.1183 158.7 43.3384 158.822 43.6437C158.965 43.3881 159.08 43.1964 159.18 42.9976C160.498 40.2712 161.822 37.5448 163.118 34.8042C163.319 34.3853 163.533 34.1936 164.028 34.2149C165.073 34.2575 166.125 34.2291 167.292 34.2291C166.892 35.0527 166.541 35.7911 166.176 36.5224C163.605 41.7054 161.027 46.8884 158.464 52.0785C158.307 52.398 158.135 52.54 157.755 52.5329C156.631 52.5045 155.5 52.5258 154.283 52.5258L154.29 52.5187Z" fill="#FAFAFA"/>
<path id="Vector_9" d="M33.7155 32.092C31.5675 32.0991 29.8777 30.459 29.8777 28.3574C29.8777 26.27 31.5317 24.6157 33.6439 24.6015C35.8205 24.5873 37.4817 26.1919 37.4888 28.3077C37.496 30.4519 35.8707 32.0849 33.7227 32.092H33.7155Z" fill="#FAFAFA"/>
</g>
</svg>
