<svg width="179" height="71" viewBox="0 0 179 71" fill="none" xmlns="http://www.w3.org/2000/svg">
<g id="Logos">
<g id="Group">
<g id="Group_2">
<g id="Group_3">
<path id="Vector" d="M62.2706 31.7014H65.0558V46.3558H63.3302V46.3771L55.5688 36.4868V46.3558H52.7836V31.7227H55.039L62.2706 40.7965V31.6943V31.7014Z" fill="white"/>
<path id="Vector_2" d="M67.6048 46.3558V31.744H78.2088V34.3994H70.3829V38.3896H77.7863V40.9385H70.3829V46.3558H67.5977H67.6048Z" fill="white"/>
<path id="Vector_3" d="M84.6026 34.2291H79.9199V31.7228H92.0633V34.2291H87.3806V46.3559H84.5954V34.2291H84.6026Z" fill="white"/>
<path id="Vector_4" d="M100.856 37.7649L104.78 31.7228H108.13V31.8435L102.245 40.3138V46.3559H99.4597V40.3138L93.7889 31.8435V31.7228H97.104L100.856 37.7649Z" fill="white"/>
<path id="Vector_5" d="M116.4 31.7228V43.807H123.99V46.3559H113.615V31.7228H116.4Z" fill="white"/>
<path id="Vector_6" d="M137.272 43.594H129.553L128.286 46.3559H125.271L131.894 31.7228H134.93L141.553 46.3559H138.517L137.272 43.594ZM133.412 34.79L130.67 41.0238H136.155L133.412 34.79Z" fill="white"/>
<path id="Vector_7" d="M155.422 35.9686C155.422 37.0975 154.871 38.1838 153.503 38.7944C155.229 39.3198 155.866 41.1374 155.866 42.0533C155.866 45.3122 153.403 46.363 150.346 46.363H143.343V31.7299H150.346C153.26 31.7299 155.429 33.0221 155.429 35.9757L155.422 35.9686ZM146.086 37.6016H150.346C152.093 37.6016 152.666 36.8703 152.666 36.0325C152.666 35.3651 152.114 34.2362 150.346 34.2362H146.086V37.6016ZM146.086 43.7857H150.346C151.484 43.7857 153.11 43.4094 153.11 42.032C153.11 40.6546 151.484 40.0227 150.346 40.0227H146.086V43.7857Z" fill="white"/>
<path id="Vector_8" d="M167.379 35.2515C166.871 34.4137 165.482 33.6185 163.878 33.6185C161.816 33.6185 160.821 34.4776 160.821 35.5639C160.821 36.8419 162.339 37.1969 164.107 37.4028C167.186 37.7791 170.057 38.5743 170.057 42.0604C170.057 45.3193 167.143 46.7251 163.857 46.7251C160.842 46.7251 158.522 45.8092 157.427 43.1254L159.747 41.9326C160.398 43.5443 162.11 44.2543 163.9 44.2543C165.69 44.2543 167.293 43.6508 167.293 42.0604C167.293 40.683 165.84 40.115 163.878 39.902C160.864 39.547 158.079 38.7518 158.079 35.4716C158.079 32.4612 161.071 31.2258 163.792 31.2045C166.091 31.2045 168.475 31.8506 169.592 34.1084L167.387 35.2444L167.379 35.2515Z" fill="white"/>
</g>
<g id="Group_4">
<path id="Vector_9" d="M62.2706 31.7014H65.0558V46.3558H63.3302V46.3771L55.5688 36.4868V46.3558H52.7836V31.7227H55.039L62.2706 40.7965V31.6943V31.7014Z" fill="#FAFAFA"/>
<path id="Vector_10" d="M67.6048 46.3558V31.744H78.2088V34.3994H70.3829V38.3896H77.7863V40.9385H70.3829V46.3558H67.5977H67.6048Z" fill="#FAFAFA"/>
<path id="Vector_11" d="M84.6026 34.2291H79.9199V31.7228H92.0633V34.2291H87.3806V46.3559H84.5954V34.2291H84.6026Z" fill="#FAFAFA"/>
<path id="Vector_12" d="M100.856 37.7649L104.78 31.7228H108.13V31.8435L102.245 40.3138V46.3559H99.4597V40.3138L93.7889 31.8435V31.7228H97.104L100.856 37.7649Z" fill="#FAFAFA"/>
<path id="Vector_13" d="M116.4 31.7228V43.807H123.99V46.3559H113.615V31.7228H116.4Z" fill="#FAFAFA"/>
<path id="Vector_14" d="M137.272 43.594H129.553L128.286 46.3559H125.271L131.894 31.7228H134.93L141.553 46.3559H138.517L137.272 43.594ZM133.412 34.79L130.67 41.0238H136.155L133.412 34.79Z" fill="#FAFAFA"/>
<path id="Vector_15" d="M155.422 35.9686C155.422 37.0975 154.871 38.1838 153.503 38.7944C155.229 39.3198 155.866 41.1374 155.866 42.0533C155.866 45.3122 153.403 46.363 150.346 46.363H143.343V31.7299H150.346C153.26 31.7299 155.429 33.0221 155.429 35.9757L155.422 35.9686ZM146.086 37.6016H150.346C152.093 37.6016 152.666 36.8703 152.666 36.0325C152.666 35.3651 152.114 34.2362 150.346 34.2362H146.086V37.6016ZM146.086 43.7857H150.346C151.484 43.7857 153.11 43.4094 153.11 42.032C153.11 40.6546 151.484 40.0227 150.346 40.0227H146.086V43.7857Z" fill="#FAFAFA"/>
<path id="Vector_16" d="M167.379 35.2515C166.871 34.4137 165.482 33.6185 163.878 33.6185C161.816 33.6185 160.821 34.4776 160.821 35.5639C160.821 36.8419 162.339 37.1969 164.107 37.4028C167.186 37.7791 170.057 38.5743 170.057 42.0604C170.057 45.3193 167.143 46.7251 163.857 46.7251C160.842 46.7251 158.522 45.8092 157.427 43.1254L159.747 41.9326C160.398 43.5443 162.11 44.2543 163.9 44.2543C165.69 44.2543 167.293 43.6508 167.293 42.0604C167.293 40.683 165.84 40.115 163.878 39.902C160.864 39.547 158.079 38.7518 158.079 35.4716C158.079 32.4612 161.071 31.2258 163.792 31.2045C166.091 31.2045 168.475 31.8506 169.592 34.1084L167.387 35.2444L167.379 35.2515Z" fill="#FAFAFA"/>
</g>
</g>
</g>
<g id="Group_5">
<path id="Vector_17" d="M39.6234 29.323C39.1151 28.6414 38.5638 28.0024 37.9552 27.406L35.0912 31.098C34.6974 31.6021 33.9384 31.6021 33.5446 31.098L27.1364 22.7697C26.9288 22.7626 26.7283 22.7555 26.5206 22.7555C25.776 22.7555 25.0385 22.8052 24.3225 22.9046L32.0195 32.9156C32.5136 33.5475 32.5064 34.4279 32.0195 35.0598C31.6687 35.5142 31.146 35.7414 30.6233 35.7414C30.1006 35.7414 29.5708 35.5142 29.2128 35.0598L20.5349 23.8915C19.7401 24.2039 18.974 24.5731 18.2437 25.0062L24.0504 32.4896C24.5946 33.1854 24.5731 34.1652 24.0146 34.8397C23.9932 34.8681 23.9645 34.8965 23.943 34.9178C23.5636 35.4077 22.9979 35.6562 22.4323 35.6562C21.8666 35.6562 21.301 35.4077 20.9215 34.9178L15.0933 27.4131C14.4847 28.0095 13.9262 28.6485 13.4178 29.3301L20.8571 38.8938L13.4178 48.4646C13.9262 49.1462 14.4847 49.7852 15.0861 50.3745L18.0289 46.5831C18.4227 46.0861 19.1816 46.0861 19.5683 46.5831L26.0839 55.0179C26.2271 55.0179 26.3703 55.0179 26.5206 55.0179C27.3226 55.0179 28.1173 54.9611 28.8834 54.8475L21.0647 44.7371C20.5922 44.1194 20.5993 43.2745 21.0647 42.6639C21.4084 42.2237 21.9239 42.0036 22.4251 42.0036C22.9263 42.0036 23.4418 42.2237 23.7784 42.6639L23.9359 42.8627L32.5136 53.8819C33.3155 53.5695 34.0744 53.1932 34.8048 52.7601L28.9908 45.2838C28.4467 44.5809 28.461 43.6082 29.0266 42.9337C29.0481 42.9053 29.0696 42.8769 29.0911 42.8485C29.4706 42.3515 30.0362 42.1101 30.609 42.1101C31.1818 42.1101 31.7331 42.3515 32.1126 42.8485L37.948 50.3532C38.5566 49.7639 39.1151 49.1249 39.6163 48.4433L32.1842 38.8725L39.6163 29.3017L39.6234 29.323ZM28.3894 39.7174L27.1149 41.3646C26.9144 41.6131 26.6567 41.6486 26.5206 41.6486C26.3846 41.6486 26.1268 41.606 25.9264 41.3646L24.6519 39.7174C24.2724 39.2346 24.2724 38.553 24.6519 38.0702L25.9264 36.4301C26.1268 36.1745 26.3846 36.1461 26.5206 36.1461C26.6567 36.1461 26.9216 36.1816 27.1149 36.4301L28.3894 38.0702C28.7689 38.553 28.7689 39.2346 28.3894 39.7174Z" fill="white"/>
<path id="Vector_18" d="M40.5471 28.5633C40.5113 28.5065 40.4683 28.4497 40.4254 28.4C39.9242 27.7539 39.3729 27.1433 38.7786 26.5682L38.7356 26.5256C35.6497 23.5578 31.4611 21.7047 26.8429 21.6266C26.8071 21.6266 26.7641 21.6266 26.714 21.6266H26.5135C25.6328 21.6266 24.7665 21.6905 23.9287 21.8183C23.7426 21.8396 23.5493 21.8751 23.3559 21.9106C22.2032 22.1165 21.0934 22.436 20.0409 22.8549C20.0194 22.862 19.9979 22.8691 19.9764 22.8762C19.1387 23.2099 18.3296 23.6004 17.5707 24.0548C17.5206 24.0761 17.4776 24.1116 17.4203 24.14C16.289 24.8216 15.2437 25.6168 14.2986 26.5256L14.2556 26.5682C13.6613 27.1362 13.11 27.7468 12.6088 28.4C12.5658 28.4568 12.5229 28.5136 12.4871 28.5633C10.2603 31.4814 8.94287 35.1024 8.94287 39.0429C8.94287 42.9834 10.2317 46.5405 12.4226 49.4373C12.4799 49.5225 12.5444 49.6077 12.6088 49.6929C13.0885 50.3035 13.6112 50.8999 14.1768 51.4466C14.2126 51.4892 14.2556 51.5247 14.2914 51.5602C17.4489 54.5919 21.7521 56.4521 26.4849 56.4663H26.5207C27.4944 56.4663 28.4539 56.3882 29.3918 56.2249C29.5422 56.2036 29.6854 56.1823 29.8357 56.1468C30.9527 55.9409 32.0339 55.6214 33.0649 55.2096C33.1007 55.1954 33.1365 55.1883 33.1652 55.1741C34.0029 54.8404 34.8048 54.4357 35.5709 53.9742C35.5852 53.9671 35.6067 53.9529 35.621 53.9458C36.7523 53.2642 37.7977 52.4548 38.7499 51.5602C38.7857 51.5247 38.8287 51.4821 38.8645 51.4466C39.423 50.8928 39.9528 50.3035 40.4326 49.6929C40.497 49.6148 40.5614 49.5296 40.6187 49.4373C42.8025 46.5334 44.0985 42.9408 44.0985 39.0358C44.0985 35.1024 42.781 31.4672 40.5543 28.5562L40.5471 28.5633ZM37.6115 50.1189L37.5972 50.1331L37.5757 50.1615L37.5542 50.1828L37.5113 50.2254C36.6449 51.049 35.6998 51.7732 34.6974 52.3767H34.6831C34.6831 52.3767 34.6544 52.398 34.6401 52.4122C33.9671 52.8169 33.2439 53.179 32.4921 53.4772L32.4563 53.4914C32.4563 53.4914 32.4133 53.5056 32.3919 53.5198C31.4539 53.8961 30.4802 54.1801 29.5064 54.3576H29.4849C29.3703 54.386 29.2486 54.4073 29.1269 54.4215H29.0983C28.2534 54.5706 27.387 54.6416 26.5207 54.6416H26.492C22.375 54.6345 18.4872 53.0654 15.5516 50.2467L15.4943 50.1899H15.48L15.4585 50.1544L15.437 50.1331C14.9215 49.629 14.4561 49.1036 14.0265 48.5569V48.5356C13.9692 48.4788 13.9262 48.4149 13.8761 48.3439V48.3226C11.8212 45.6033 10.7472 42.3728 10.7472 38.979C10.7472 35.5852 11.8498 32.2837 13.9334 29.5644L13.9549 29.536L13.9764 29.5005C13.9764 29.5005 13.9978 29.4721 14.0122 29.4508L14.048 29.4011C14.499 28.8189 14.9931 28.2651 15.5372 27.7539L15.5659 27.7255C16.4251 26.9019 17.363 26.1848 18.3654 25.5813L18.4156 25.5529C18.4156 25.5529 18.437 25.5387 18.4442 25.5387L18.48 25.5245L18.5086 25.5032C19.1817 25.1056 19.9048 24.7506 20.671 24.4453C20.6924 24.4453 20.7211 24.4311 20.7497 24.4169C21.6948 24.0406 22.6972 23.7637 23.7211 23.572C23.8786 23.5436 24.0433 23.5152 24.2295 23.4939C24.9956 23.3803 25.776 23.3235 26.5565 23.3235H26.8572C30.8668 23.3945 34.6616 24.9565 37.5327 27.7184L37.5471 27.7326L37.5757 27.761C38.1055 28.2722 38.6068 28.8189 39.0507 29.4011L39.0865 29.4508C39.0865 29.4508 39.1079 29.4792 39.1151 29.4934L39.1366 29.5289L39.1581 29.5573C41.2416 32.2837 42.3443 35.5355 42.3443 38.9719C42.3443 42.4083 41.2631 45.6033 39.2225 48.3155V48.3368C39.1652 48.4007 39.1223 48.4646 39.0722 48.5285V48.5498C38.6426 49.0965 38.17 49.629 37.6545 50.126L37.6115 50.1189Z" fill="white"/>
</g>
</g>
</svg>
