<svg width="240" height="75" viewBox="0 0 240 75" fill="none" xmlns="http://www.w3.org/2000/svg">
<g clip-path="url(#clip0_492_207461)">
<g clip-path="url(#clip1_492_207461)">
<path d="M321.429 -7.5H-148.776V82.5H321.429V-7.5Z" fill="url(#paint0_radial_492_207461)"/>
</g>
<g clip-path="url(#clip2_492_207461)">
<g clip-path="url(#clip3_492_207461)">
<path d="M321.429 -7.5H-148.775V82.5H321.429V-7.5Z" fill="url(#paint1_radial_492_207461)"/>
<path d="M193.294 52.8144C200.067 52.8144 205.557 47.2608 205.557 40.4101C205.557 33.5594 200.067 28.0059 193.294 28.0059C186.522 28.0059 181.031 33.5594 181.031 40.4101C181.031 47.2608 186.522 52.8144 193.294 52.8144Z" fill="url(#paint2_radial_492_207461)"/>
<path style="mix-blend-mode:multiply" d="M193.294 52.8144C200.067 52.8144 205.557 47.2608 205.557 40.4101C205.557 33.5594 200.067 28.0059 193.294 28.0059C186.522 28.0059 181.031 33.5594 181.031 40.4101C181.031 47.2608 186.522 52.8144 193.294 52.8144Z" fill="url(#paint3_radial_492_207461)"/>
<path d="M193.193 56.0782C184.651 56.0782 177.699 49.0491 177.699 40.4053C177.699 31.7613 184.648 24.7322 193.193 24.7322C201.739 24.7322 208.688 31.7613 208.688 40.4053C208.688 49.0491 201.735 56.0782 193.193 56.0782ZM193.193 26.4765C190.469 26.4772 187.806 27.2949 185.541 28.8264C183.276 30.3579 181.511 32.5342 180.469 35.0803C179.427 37.6264 179.155 40.4279 179.687 43.1305C180.219 45.8331 181.531 48.3155 183.458 50.2638C185.384 52.2121 187.839 53.5388 190.511 54.0761C193.183 54.6134 195.952 54.3373 198.469 53.2826C200.986 52.2278 203.137 50.442 204.65 48.1508C206.164 45.8594 206.971 43.1657 206.971 40.41C206.968 36.7154 205.514 33.1733 202.931 30.5611C200.348 27.9489 196.846 26.4799 193.193 26.4765Z" fill="url(#paint4_linear_492_207461)"/>
<path d="M193.294 54.4316C190.552 54.4316 187.872 53.6091 185.592 52.0682C183.313 50.5273 181.536 48.3372 180.487 45.7749C179.437 43.2125 179.163 40.3929 179.698 37.6728C180.233 34.9526 181.553 32.454 183.492 30.493C185.431 28.5319 187.901 27.1965 190.59 26.6556C193.28 26.1147 196.067 26.3925 198.6 27.454C201.133 28.5156 203.298 30.3131 204.821 32.6192C206.344 34.9254 207.157 37.6366 207.157 40.4101C207.153 44.1277 205.691 47.6917 203.092 50.3203C200.493 52.9489 196.97 54.4274 193.294 54.4316ZM193.294 28.1234C190.892 28.1243 188.544 28.8457 186.547 30.1964C184.55 31.547 182.994 33.4663 182.075 35.7115C181.157 37.9567 180.917 40.4269 181.386 42.81C181.855 45.193 183.013 47.382 184.712 49.0998C186.41 50.8176 188.575 51.9873 190.931 52.4611C193.287 52.9348 195.729 52.6912 197.948 51.761C200.168 50.831 202.065 49.2562 203.399 47.2358C204.734 45.2152 205.446 42.8399 205.446 40.4101C205.441 37.1523 204.16 34.0293 201.881 31.7265C199.603 29.4237 196.515 28.1291 193.294 28.127V28.1234Z" fill="url(#paint5_linear_492_207461)"/>
<path d="M193.294 54.5918C190.521 54.5918 187.81 53.7599 185.504 52.2014C183.198 50.6429 181.401 48.4278 180.34 45.8362C179.279 43.2444 179.001 40.3927 179.542 37.6414C180.083 34.8902 181.419 32.3631 183.38 30.3796C185.341 28.3961 187.839 27.0455 190.559 26.4983C193.279 25.9512 196.099 26.2323 198.661 27.3059C201.223 28.3796 203.413 30.1976 204.953 32.5301C206.494 34.8626 207.316 37.6049 207.316 40.4101C207.312 44.1703 205.833 47.7752 203.204 50.4339C200.576 53.0927 197.011 54.588 193.294 54.5918ZM193.294 26.4611C190.567 26.462 187.901 27.2809 185.634 28.8142C183.367 30.3475 181.6 32.5264 180.557 35.0753C179.514 37.6242 179.242 40.4287 179.774 43.1342C180.307 45.8399 181.621 48.3248 183.549 50.2751C185.478 52.2254 187.935 53.5535 190.61 54.0914C193.285 54.6292 196.058 54.3527 198.577 53.2968C201.097 52.2409 203.25 50.453 204.765 48.1592C206.281 45.8653 207.09 43.1686 207.09 40.4101C207.084 36.7116 205.629 33.1662 203.043 30.5518C200.456 27.9373 196.95 26.4675 193.294 26.4646V26.4611Z" fill="url(#paint6_linear_492_207461)"/>
<path style="mix-blend-mode:screen" opacity="0.56" d="M205.162 40.4671C205.163 41.965 204.887 43.45 204.347 44.8448C203.476 42.5973 201.955 40.6675 199.984 39.3072C198.012 37.9469 195.681 37.2193 193.295 37.2193C190.908 37.2193 188.577 37.9469 186.605 39.3072C184.634 40.6675 183.113 42.5973 182.243 44.8448C181.606 43.201 181.335 41.4353 181.45 39.6737C181.565 37.912 182.063 36.1976 182.908 34.6527C183.753 33.108 184.924 31.7706 186.339 30.7361C187.753 29.7017 189.376 28.9954 191.091 28.6678C192.806 28.3402 194.571 28.3993 196.261 28.8408C197.951 29.2824 199.524 30.0955 200.868 31.2223C202.211 32.3491 203.293 33.7618 204.035 35.3598C204.777 36.9577 205.162 38.7016 205.162 40.4671Z" fill="url(#paint7_radial_492_207461)"/>
<path d="M199.026 35.0063L198.039 35.0488L197.969 33.1495C197.96 32.9536 198.117 32.7918 198.318 32.7833L198.572 32.7748C198.772 32.7663 198.939 32.9196 198.947 33.1154L199.026 35.0063Z" fill="url(#paint8_linear_492_207461)"/>
<path d="M199.026 35.0066L198.537 35.0236L198.449 32.7665L198.58 32.758C198.781 32.7495 198.947 32.9028 198.956 33.0987L199.026 35.0066Z" fill="url(#paint9_linear_492_207461)"/>
<path d="M199.926 35.7816C200.013 36.6844 199.97 37.6127 199.786 38.5496C198.738 43.8132 193.514 47.2542 188.115 46.2321C187.154 46.0533 186.254 45.7382 185.424 45.3208C185.363 45.2867 184.821 44.9546 184.489 44.4777C184.323 44.2392 184.201 43.9665 184.218 43.677C184.218 43.677 184.218 43.677 184.218 43.6685C184.218 43.6343 184.227 43.6003 184.236 43.5747C184.245 43.5407 184.253 43.5152 184.271 43.4896C184.393 43.2682 184.699 43.1318 185.092 43.0467C185.948 42.8593 187.197 42.9189 187.722 42.8935H187.73C187.861 42.8935 187.984 42.8849 188.115 42.8764C188.123 42.8764 188.132 42.8764 188.132 42.8764C188.272 42.8678 188.412 42.8593 188.552 42.8424C188.595 42.8424 188.639 42.8338 188.674 42.8338C188.709 42.8253 188.744 42.8253 188.787 42.8167C188.822 42.8167 188.857 42.8082 188.892 42.7997C188.945 42.7913 188.988 42.7913 189.041 42.7827C189.137 42.7657 189.233 42.7571 189.32 42.74C189.373 42.7316 189.425 42.7231 189.486 42.706C189.635 42.6804 189.783 42.6464 189.923 42.6124C189.967 42.6038 190.01 42.5953 190.063 42.5782C190.107 42.5698 190.15 42.5528 190.203 42.5442C190.334 42.5102 190.474 42.4675 190.605 42.425C190.613 42.425 190.622 42.4164 190.631 42.4164L190.666 42.4079C190.858 42.3483 191.05 42.2802 191.242 42.2035C191.417 42.1353 191.6 42.0586 191.775 41.9821C191.801 41.9735 191.819 41.965 191.845 41.9481L191.871 41.9395C191.985 41.8884 192.098 41.8288 192.212 41.7692C192.221 41.7606 192.238 41.7606 192.247 41.7521C192.264 41.7436 192.273 41.7352 192.291 41.7265C192.614 41.5563 192.92 41.3774 193.225 41.173C193.286 41.1389 193.339 41.0963 193.4 41.0538C193.453 41.0196 193.505 40.9771 193.566 40.9345C193.575 40.926 193.584 40.9174 193.592 40.9174C193.619 40.8918 193.653 40.8749 193.68 40.8493C193.767 40.7812 193.854 40.7131 193.942 40.6449C193.985 40.6109 194.029 40.5767 194.073 40.5427C194.134 40.4916 194.204 40.432 194.265 40.3724C194.291 40.3467 194.317 40.3297 194.335 40.3042C194.422 40.2275 194.51 40.1509 194.588 40.0657C194.955 39.708 195.305 39.3248 195.61 38.9074C195.619 38.8988 195.619 38.8903 195.628 38.8818C195.75 38.7285 195.864 38.5667 195.969 38.3963C196.021 38.3196 196.074 38.2431 196.117 38.1663C196.152 38.1067 196.196 38.0387 196.231 37.9791C196.239 37.9705 196.248 37.9534 196.248 37.9449C196.327 37.8087 196.405 37.6638 196.475 37.5191C196.877 36.7439 197.174 35.9008 197.349 35.0149C197.366 34.9213 197.384 34.8277 197.401 34.7339C197.401 34.7339 197.41 34.7084 197.428 34.6657C197.436 34.6488 197.436 34.6402 197.445 34.6232C197.445 34.6147 197.454 34.6062 197.454 34.5977C197.454 34.5891 197.462 34.5806 197.462 34.5721C197.541 34.4103 197.698 34.1888 197.978 34.044C198.179 33.9418 198.441 33.8822 198.782 33.9333C199.105 33.9844 199.341 34.1888 199.516 34.4528C199.778 34.8617 199.882 35.4323 199.926 35.7816Z" fill="url(#paint10_linear_492_207461)"/>
<path d="M198.781 33.9248C198.781 33.9333 198.781 33.9333 198.781 33.9418C198.886 34.802 198.878 35.6878 198.729 36.5822C198.712 36.7014 198.685 36.8206 198.668 36.9399C197.62 42.2035 192.395 45.6445 186.996 44.6224C186.193 44.4692 185.441 44.2306 184.725 43.9155C184.62 43.8643 184.515 43.8218 184.41 43.7707C184.349 43.7367 184.279 43.7025 184.218 43.677C184.218 43.643 184.227 43.6089 184.236 43.5834C184.244 43.5492 184.253 43.5238 184.27 43.4981C184.393 43.2767 184.699 43.1404 185.092 43.0553C185.948 42.8678 187.197 42.9275 187.721 42.902H187.73C187.861 42.902 187.983 42.8935 188.115 42.8849C188.123 42.8849 188.132 42.8849 188.132 42.8849C188.272 42.8764 188.412 42.8678 188.551 42.8509C188.56 42.8509 188.577 42.8509 188.586 42.8509C188.613 42.8509 188.647 42.8424 188.674 42.8424C188.709 42.8338 188.744 42.8338 188.787 42.8253C188.831 42.8167 188.857 42.8167 188.892 42.8082C188.944 42.7998 188.988 42.7998 189.04 42.7913C189.137 42.7742 189.233 42.7571 189.32 42.7486C189.373 42.7402 189.425 42.7316 189.486 42.7146C189.582 42.6975 189.669 42.6805 189.757 42.6549C189.809 42.6464 189.862 42.6295 189.923 42.6209C189.967 42.6124 190.01 42.5953 190.063 42.5868C190.106 42.5782 190.15 42.5613 190.202 42.5528C190.333 42.5187 190.473 42.476 190.604 42.4335C190.613 42.4335 190.622 42.425 190.631 42.425L190.666 42.4164C190.7 42.4079 190.735 42.3909 190.77 42.3824C190.928 42.3313 191.085 42.2717 191.242 42.2121C191.399 42.1524 191.548 42.0843 191.705 42.0161C191.731 42.0077 191.749 41.9991 191.775 41.9821C191.801 41.9735 191.819 41.9651 191.845 41.9481L191.871 41.9395C191.941 41.9055 192.011 41.8714 192.081 41.8373C192.124 41.8117 192.168 41.7948 192.212 41.7777C192.221 41.7692 192.238 41.7692 192.247 41.7606C192.264 41.7521 192.273 41.7436 192.29 41.7352C192.352 41.701 192.413 41.667 192.474 41.6328C192.518 41.6074 192.561 41.5817 192.605 41.5563C192.622 41.5477 192.649 41.5307 192.666 41.5221C192.727 41.4881 192.788 41.4455 192.85 41.4114C192.911 41.3774 192.963 41.3434 193.016 41.3007C193.085 41.2581 193.147 41.2156 193.216 41.173C193.278 41.1303 193.33 41.0963 193.391 41.0538C193.444 41.0112 193.496 40.977 193.557 40.9345C193.566 40.926 193.575 40.9174 193.583 40.9174C193.61 40.8919 193.645 40.8749 193.671 40.8493C193.758 40.7812 193.845 40.7131 193.933 40.6449C193.976 40.6109 194.02 40.5767 194.064 40.5427C194.125 40.4916 194.195 40.432 194.256 40.3724C194.282 40.3467 194.308 40.3298 194.326 40.3042C194.352 40.2787 194.378 40.2616 194.396 40.236C194.457 40.1764 194.518 40.1253 194.579 40.0657C194.632 40.0146 194.675 39.972 194.728 39.9209C194.789 39.8613 194.841 39.8102 194.894 39.7506C194.92 39.725 194.946 39.691 194.981 39.6569C194.999 39.6313 195.025 39.6057 195.042 39.5888C195.095 39.5377 195.138 39.4781 195.191 39.427C195.243 39.3673 195.287 39.3162 195.339 39.2566C195.374 39.2139 195.418 39.163 195.453 39.1203C195.505 39.0521 195.558 38.9841 195.61 38.9159C195.619 38.9074 195.619 38.8988 195.628 38.8903C195.68 38.8221 195.724 38.7626 195.767 38.6945C195.794 38.6518 195.829 38.6092 195.855 38.5667C195.89 38.5156 195.925 38.456 195.968 38.4049C196.003 38.3538 196.03 38.3112 196.064 38.26C196.082 38.2345 196.099 38.2005 196.117 38.1749C196.152 38.1153 196.196 38.0471 196.23 37.9875C196.239 37.9791 196.248 37.962 196.248 37.9534C196.274 37.9024 196.309 37.8513 196.335 37.7916C196.361 37.7491 196.379 37.7065 196.405 37.6638C196.431 37.6213 196.449 37.5787 196.475 37.5276C196.51 37.468 196.536 37.3998 196.571 37.3317C196.589 37.2977 196.606 37.2635 196.624 37.2295C196.667 37.1444 196.702 37.0591 196.737 36.9739C196.763 36.9144 196.79 36.8632 196.807 36.8036C196.842 36.7184 196.877 36.6333 196.912 36.5481C196.929 36.4885 196.956 36.4288 196.973 36.3692C197.008 36.2841 197.034 36.1904 197.06 36.0967C197.078 36.037 197.095 35.986 197.113 35.9263C197.148 35.8241 197.174 35.722 197.2 35.6283C197.209 35.5856 197.218 35.5516 197.235 35.5091C197.235 35.492 197.244 35.4749 197.244 35.4665C197.279 35.3216 197.314 35.1684 197.349 35.0235C197.366 34.9298 197.384 34.8362 197.401 34.7424C197.401 34.7424 197.41 34.7169 197.427 34.6744C197.436 34.6573 197.436 34.6488 197.445 34.6317C197.445 34.6232 197.454 34.6147 197.454 34.6062C197.454 34.5977 197.462 34.5891 197.462 34.5806C197.541 34.4188 197.698 34.1973 197.978 34.0526C198.179 33.9333 198.441 33.8737 198.781 33.9248Z" fill="url(#paint11_linear_492_207461)"/>
<path d="M185.101 43.0298C184.646 43.413 184.419 43.8815 184.489 44.4692C184.323 44.2308 184.201 43.9582 184.218 43.6686C184.218 43.6686 184.218 43.6686 184.218 43.6601C184.218 43.6259 184.227 43.5919 184.236 43.5663C184.245 43.5323 184.253 43.5067 184.271 43.4812C184.402 43.2512 184.716 43.1149 185.101 43.0298Z" fill="url(#paint12_linear_492_207461)"/>
<path style="mix-blend-mode:color-dodge" d="M214.888 57.2584C215.727 56.168 208.165 48.7961 197.997 40.7926C187.83 32.7892 178.908 27.1851 178.069 28.2755C177.23 29.3659 184.792 36.7379 194.96 44.7412C205.127 52.7446 214.049 58.3488 214.888 57.2584Z" fill="url(#paint13_radial_492_207461)"/>
<path style="mix-blend-mode:color-dodge" d="M198.071 44.0208C201.39 39.7079 203.366 35.6503 202.486 34.9577C201.606 34.2652 198.203 37.2 194.885 41.5128C191.567 45.8257 189.591 49.8833 190.471 50.5759C191.35 51.2685 194.753 48.3337 198.071 44.0208Z" fill="url(#paint14_radial_492_207461)"/>
<path style="mix-blend-mode:color-dodge" d="M196.465 44.2116C205.338 44.3009 212.537 43.7253 212.545 42.9259C212.552 42.1266 205.366 41.4063 196.494 41.317C187.621 41.2277 180.422 41.8034 180.414 42.6027C180.406 43.402 187.592 44.1223 196.465 44.2116Z" fill="url(#paint15_radial_492_207461)"/>
<path style="mix-blend-mode:color-dodge" d="M200.01 54.9657C200.834 54.7219 199.92 49.0616 197.969 42.323C196.019 35.5845 193.77 30.3196 192.947 30.5634C192.123 30.8073 193.037 36.4676 194.988 43.206C196.938 49.9446 199.187 55.2096 200.01 54.9657Z" fill="url(#paint16_radial_492_207461)"/>
<path style="mix-blend-mode:screen" d="M205.196 50.1502C206.146 48.9232 203.024 44.8415 198.221 41.0336C193.418 37.2257 188.753 35.1334 187.803 36.3604C186.852 37.5874 189.975 41.6689 194.778 45.4769C199.581 49.2849 204.246 51.3772 205.196 50.1502Z" fill="url(#paint17_radial_492_207461)"/>
<path style="mix-blend-mode:color-dodge" d="M192.559 28.8137C205.127 28.5496 215.292 27.2354 215.265 25.8782C215.236 24.5211 205.026 23.635 192.458 23.8991C179.89 24.1632 169.725 25.4774 169.753 26.8345C169.781 28.1916 179.991 29.0777 192.559 28.8137Z" fill="url(#paint18_radial_492_207461)"/>
<path style="mix-blend-mode:color-dodge" d="M192.596 30.7843C193.914 30.7578 194.947 28.9366 194.904 26.7167C194.86 24.4967 193.756 22.7186 192.438 22.7452C191.119 22.7717 190.086 24.5928 190.13 26.8128C190.173 29.0327 191.277 30.8108 192.596 30.7843Z" fill="url(#paint19_radial_492_207461)"/>
<path style="mix-blend-mode:color-dodge" d="M193.151 27.8957C196.922 26.0139 199.659 23.8324 199.264 23.0232C198.87 22.214 195.493 23.0835 191.722 24.9654C187.951 26.8472 185.214 29.0287 185.609 29.8379C186.003 30.6471 189.38 29.7775 193.151 27.8957Z" fill="url(#paint20_radial_492_207461)"/>
<path style="mix-blend-mode:color-dodge" d="M198.806 29.6346C199.188 28.8842 196.667 26.8016 193.174 24.983C189.682 23.1644 186.541 22.2984 186.159 23.0488C185.777 23.7991 188.299 25.8817 191.791 27.7003C195.284 29.5189 198.424 30.3849 198.806 29.6346Z" fill="url(#paint21_radial_492_207461)"/>
<path style="mix-blend-mode:screen" d="M192.565 29.133C198.519 29.0079 203.32 27.6644 203.289 26.1322C203.257 24.6001 198.405 23.4594 192.452 23.5845C186.498 23.7096 181.697 25.0531 181.728 26.5853C181.759 28.1174 186.612 29.2581 192.565 29.133Z" fill="url(#paint22_radial_492_207461)"/>
<path style="mix-blend-mode:color-dodge" d="M192.154 27.3285C203.64 27.3285 212.951 26.3293 212.951 25.0968C212.951 23.8643 203.64 22.8651 192.154 22.8651C180.668 22.8651 171.357 23.8643 171.357 25.0968C171.357 26.3293 180.668 27.3285 192.154 27.3285Z" fill="url(#paint23_radial_492_207461)"/>
<path style="mix-blend-mode:color-dodge" d="M192.154 33.9238C193.359 33.9238 194.335 29.9718 194.335 25.0967C194.335 20.2217 193.359 16.2697 192.154 16.2697C190.949 16.2697 189.972 20.2217 189.972 25.0967C189.972 29.9718 190.949 33.9238 192.154 33.9238Z" fill="url(#paint24_radial_492_207461)"/>
<path style="mix-blend-mode:color-dodge" d="M193.05 26.3577C199.501 21.6671 204.33 17.2984 203.834 16.5998C203.338 15.9012 197.706 19.1373 191.254 23.8279C184.803 28.5184 179.974 32.8872 180.47 33.5858C180.966 34.2844 186.598 31.0482 193.05 26.3577Z" fill="url(#paint25_radial_492_207461)"/>
<path style="mix-blend-mode:color-dodge" d="M201.266 31.6992C201.721 31.0572 198.007 27.5792 192.973 23.9309C187.938 20.2827 183.488 17.8456 183.034 18.4876C182.58 19.1297 186.293 22.6076 191.328 26.2559C196.363 29.9042 200.812 32.3412 201.266 31.6992Z" fill="url(#paint26_radial_492_207461)"/>
<path style="mix-blend-mode:screen" d="M192.154 27.6152C197.595 27.6152 202.006 26.4876 202.006 25.0967C202.006 23.7058 197.595 22.5782 192.154 22.5782C186.712 22.5782 182.301 23.7058 182.301 25.0967C182.301 26.4876 186.712 27.6152 192.154 27.6152Z" fill="url(#paint27_radial_492_207461)"/>
</g>
</g>
</g>
<defs>
<radialGradient id="paint0_radial_492_207461" cx="0" cy="0" r="1" gradientUnits="userSpaceOnUse" gradientTransform="translate(111.86 4.14306) scale(395.418 113.885)">
<stop stop-color="#414042"/>
<stop offset="1"/>
</radialGradient>
<radialGradient id="paint1_radial_492_207461" cx="0" cy="0" r="1" gradientUnits="userSpaceOnUse" gradientTransform="translate(111.86 4.14306) scale(395.418 113.885)">
<stop stop-color="#414042"/>
<stop offset="1"/>
</radialGradient>
<radialGradient id="paint2_radial_492_207461" cx="0" cy="0" r="1" gradientUnits="userSpaceOnUse" gradientTransform="translate(192.028 30.7059) scale(24.0577 24.3348)">
<stop stop-color="#58595B"/>
<stop offset="1"/>
</radialGradient>
<radialGradient id="paint3_radial_492_207461" cx="0" cy="0" r="1" gradientUnits="userSpaceOnUse" gradientTransform="translate(193.294 40.4101) scale(12.263 12.4042)">
<stop stop-color="white"/>
<stop offset="0.09" stop-color="#F9F9F9"/>
<stop offset="0.22" stop-color="#E8E8E8"/>
<stop offset="0.36" stop-color="#CDCDCD"/>
<stop offset="0.52" stop-color="#A7A7A7"/>
<stop offset="0.68" stop-color="#757575"/>
<stop offset="0.85" stop-color="#3A3A3A"/>
<stop offset="1"/>
</radialGradient>
<linearGradient id="paint4_linear_492_207461" x1="193.193" y1="56.0782" x2="193.193" y2="24.7406" gradientUnits="userSpaceOnUse">
<stop stop-color="#42210B"/>
<stop offset="0.11" stop-color="#44230C"/>
<stop offset="0.15" stop-color="#4B280E"/>
<stop offset="0.18" stop-color="#563212"/>
<stop offset="0.21" stop-color="#674018"/>
<stop offset="0.23" stop-color="#7D5220"/>
<stop offset="0.24" stop-color="#98682A"/>
<stop offset="0.25" stop-color="#A97630"/>
<stop offset="0.27" stop-color="#AE7C35"/>
<stop offset="0.29" stop-color="#BD8D44"/>
<stop offset="0.32" stop-color="#D6AA5B"/>
<stop offset="0.34" stop-color="#F8D17C"/>
<stop offset="0.35" stop-color="#FFD983"/>
<stop offset="0.38" stop-color="#FDD781"/>
<stop offset="0.4" stop-color="#F6CE7C"/>
<stop offset="0.42" stop-color="#EAC172"/>
<stop offset="0.44" stop-color="#D9AD64"/>
<stop offset="0.45" stop-color="#C39352"/>
<stop offset="0.46" stop-color="#A8743C"/>
<stop offset="0.47" stop-color="#7C4018"/>
<stop offset="0.54" stop-color="#874D1E"/>
<stop offset="0.64" stop-color="#A16D2E"/>
<stop offset="1" stop-color="#FCD681"/>
</linearGradient>
<linearGradient id="paint5_linear_492_207461" x1="193.19" y1="24.4462" x2="193.422" y2="58.9589" gradientUnits="userSpaceOnUse">
<stop offset="0.06" stop-color="#662A12"/>
<stop offset="0.11" stop-color="#6B3013"/>
<stop offset="0.17" stop-color="#7B4016"/>
<stop offset="0.25" stop-color="#945C1A"/>
<stop offset="0.33" stop-color="#B78221"/>
<stop offset="0.42" stop-color="#E4B329"/>
<stop offset="0.46" stop-color="#FACB2D"/>
<stop offset="0.65" stop-color="#793F15"/>
<stop offset="0.66" stop-color="#80481B"/>
<stop offset="0.69" stop-color="#925F2C"/>
<stop offset="0.73" stop-color="#AF8547"/>
<stop offset="0.77" stop-color="#D7B96D"/>
<stop offset="0.8" stop-color="#FBE78E"/>
<stop offset="0.99" stop-color="#FBEC9F"/>
</linearGradient>
<linearGradient id="paint6_linear_492_207461" x1="193.294" y1="54.5918" x2="193.294" y2="26.2271" gradientUnits="userSpaceOnUse">
<stop offset="0.01" stop-color="#FBEC9F"/>
<stop offset="0.27" stop-color="#FBE78E"/>
<stop offset="0.62" stop-color="#FACB2D"/>
<stop offset="0.65" stop-color="#E4B329"/>
<stop offset="0.72" stop-color="#B78221"/>
<stop offset="0.79" stop-color="#945C1A"/>
<stop offset="0.85" stop-color="#7B4016"/>
<stop offset="0.9" stop-color="#6B3013"/>
<stop offset="0.94" stop-color="#662A12"/>
</linearGradient>
<radialGradient id="paint7_radial_492_207461" cx="0" cy="0" r="1" gradientUnits="userSpaceOnUse" gradientTransform="translate(28018.3 -155.058) scale(4918.83 3395.39)">
<stop stop-color="#58595B"/>
<stop offset="1"/>
</radialGradient>
<linearGradient id="paint8_linear_492_207461" x1="196.686" y1="31.9842" x2="198.737" y2="34.4087" gradientUnits="userSpaceOnUse">
<stop stop-color="#FFE988"/>
<stop offset="0.25" stop-color="#BA801E"/>
<stop offset="0.5" stop-color="#FBEC83"/>
<stop offset="0.75" stop-color="#BA801F"/>
<stop offset="1" stop-color="#FFE97F"/>
</linearGradient>
<linearGradient id="paint9_linear_492_207461" x1="196.832" y1="31.8616" x2="198.883" y2="34.2856" gradientUnits="userSpaceOnUse">
<stop stop-color="#FFE988"/>
<stop offset="0.25" stop-color="#BA801E"/>
<stop offset="0.5" stop-color="#FBEC83"/>
<stop offset="0.75" stop-color="#BA801F"/>
<stop offset="1" stop-color="#FFE97F"/>
</linearGradient>
<linearGradient id="paint10_linear_492_207461" x1="183.967" y1="39.402" x2="210.96" y2="41.513" gradientUnits="userSpaceOnUse">
<stop stop-color="#FFE988"/>
<stop offset="0.25" stop-color="#BA801E"/>
<stop offset="0.5" stop-color="#FBEC83"/>
<stop offset="0.75" stop-color="#BA801F"/>
<stop offset="1" stop-color="#FFE97F"/>
</linearGradient>
<linearGradient id="paint11_linear_492_207461" x1="183.221" y1="40.5301" x2="201.498" y2="38.4209" gradientUnits="userSpaceOnUse">
<stop stop-color="#FFE988"/>
<stop offset="0.25" stop-color="#BA801E"/>
<stop offset="0.5" stop-color="#FBEC83"/>
<stop offset="0.75" stop-color="#BA801F"/>
<stop offset="1" stop-color="#FFE97F"/>
</linearGradient>
<linearGradient id="paint12_linear_492_207461" x1="183.637" y1="42.5785" x2="184.836" y2="43.8533" gradientUnits="userSpaceOnUse">
<stop stop-color="#FFE988"/>
<stop offset="0.25" stop-color="#BA801E"/>
<stop offset="0.5" stop-color="#FBEC83"/>
<stop offset="0.75" stop-color="#BA801F"/>
<stop offset="1" stop-color="#FFE97F"/>
</linearGradient>
<radialGradient id="paint13_radial_492_207461" cx="0" cy="0" r="1" gradientUnits="userSpaceOnUse" gradientTransform="translate(196.764 43.7367) rotate(38.2083) scale(23.5722 2.55537)">
<stop stop-color="#FCFBDF"/>
<stop offset="0.16" stop-color="#BCBCA7"/>
<stop offset="0.33" stop-color="#848375"/>
<stop offset="0.49" stop-color="#55544B"/>
<stop offset="0.64" stop-color="#30302A"/>
<stop offset="0.78" stop-color="#161513"/>
<stop offset="0.9" stop-color="#060605"/>
<stop offset="1"/>
</radialGradient>
<radialGradient id="paint14_radial_492_207461" cx="0" cy="0" r="1" gradientUnits="userSpaceOnUse" gradientTransform="translate(194.745 41.7854) rotate(127.572) scale(9.90677 1.91194)">
<stop stop-color="#FCFBDF"/>
<stop offset="0.01" stop-color="#F6F5D9"/>
<stop offset="0.05" stop-color="#C8C7B1"/>
<stop offset="0.09" stop-color="#9D9C8B"/>
<stop offset="0.14" stop-color="#777769"/>
<stop offset="0.19" stop-color="#57564D"/>
<stop offset="0.25" stop-color="#3B3B35"/>
<stop offset="0.32" stop-color="#252521"/>
<stop offset="0.4" stop-color="#141412"/>
<stop offset="0.49" stop-color="#090908"/>
<stop offset="0.63" stop-color="#020202"/>
<stop offset="1"/>
</radialGradient>
<radialGradient id="paint15_radial_492_207461" cx="0" cy="0" r="1" gradientUnits="userSpaceOnUse" gradientTransform="translate(-13223.5 812.111) rotate(-179.423) scale(4334.32 38.2817)">
<stop stop-color="#FCFBDF"/>
<stop offset="0.01" stop-color="#F6F5D9"/>
<stop offset="0.05" stop-color="#C8C7B1"/>
<stop offset="0.09" stop-color="#9D9C8B"/>
<stop offset="0.14" stop-color="#777769"/>
<stop offset="0.19" stop-color="#57564D"/>
<stop offset="0.25" stop-color="#3B3B35"/>
<stop offset="0.32" stop-color="#252521"/>
<stop offset="0.4" stop-color="#141412"/>
<stop offset="0.49" stop-color="#090908"/>
<stop offset="0.63" stop-color="#020202"/>
<stop offset="1"/>
</radialGradient>
<radialGradient id="paint16_radial_492_207461" cx="0" cy="0" r="1" gradientUnits="userSpaceOnUse" gradientTransform="translate(1805.36 125.071) rotate(-106.144) scale(332.28 332.864)">
<stop stop-color="#FCFBDF"/>
<stop offset="0.01" stop-color="#F6F5D9"/>
<stop offset="0.05" stop-color="#C8C7B1"/>
<stop offset="0.09" stop-color="#9D9C8B"/>
<stop offset="0.14" stop-color="#777769"/>
<stop offset="0.19" stop-color="#57564D"/>
<stop offset="0.25" stop-color="#3B3B35"/>
<stop offset="0.32" stop-color="#252521"/>
<stop offset="0.4" stop-color="#141412"/>
<stop offset="0.49" stop-color="#090908"/>
<stop offset="0.63" stop-color="#020202"/>
<stop offset="1"/>
</radialGradient>
<radialGradient id="paint17_radial_492_207461" cx="0" cy="0" r="1" gradientUnits="userSpaceOnUse" gradientTransform="translate(604.654 5366.66) rotate(38.4078) scale(522.482 484.018)">
<stop stop-color="#FCFBDF"/>
<stop offset="0.01" stop-color="#F6F5D9"/>
<stop offset="0.05" stop-color="#C8C7B1"/>
<stop offset="0.09" stop-color="#9D9C8B"/>
<stop offset="0.14" stop-color="#777769"/>
<stop offset="0.19" stop-color="#57564D"/>
<stop offset="0.25" stop-color="#3B3B35"/>
<stop offset="0.32" stop-color="#252521"/>
<stop offset="0.4" stop-color="#141412"/>
<stop offset="0.49" stop-color="#090908"/>
<stop offset="0.63" stop-color="#020202"/>
<stop offset="1"/>
</radialGradient>
<radialGradient id="paint18_radial_492_207461" cx="0" cy="0" r="1" gradientUnits="userSpaceOnUse" gradientTransform="translate(45495.9 -580.757) rotate(-1.2037) scale(8787.17 103.987)">
<stop stop-color="#FCFBDF"/>
<stop offset="0.16" stop-color="#BCBCA7"/>
<stop offset="0.33" stop-color="#848375"/>
<stop offset="0.49" stop-color="#55544B"/>
<stop offset="0.64" stop-color="#30302A"/>
<stop offset="0.78" stop-color="#161513"/>
<stop offset="0.9" stop-color="#060605"/>
<stop offset="1"/>
</radialGradient>
<radialGradient id="paint19_radial_492_207461" cx="0" cy="0" r="1" gradientUnits="userSpaceOnUse" gradientTransform="translate(2545.6 712.467) rotate(88.873) scale(166.109 168.23)">
<stop stop-color="#FCFBDF"/>
<stop offset="0.01" stop-color="#F6F5D9"/>
<stop offset="0.05" stop-color="#C8C7B1"/>
<stop offset="0.09" stop-color="#9D9C8B"/>
<stop offset="0.14" stop-color="#777769"/>
<stop offset="0.19" stop-color="#57564D"/>
<stop offset="0.25" stop-color="#3B3B35"/>
<stop offset="0.32" stop-color="#252521"/>
<stop offset="0.4" stop-color="#141412"/>
<stop offset="0.49" stop-color="#090908"/>
<stop offset="0.63" stop-color="#020202"/>
<stop offset="1"/>
</radialGradient>
<radialGradient id="paint20_radial_492_207461" cx="0" cy="0" r="1" gradientUnits="userSpaceOnUse" gradientTransform="translate(-1645.35 1656.43) rotate(153.479) scale(968.759 43.1145)">
<stop stop-color="#FCFBDF"/>
<stop offset="0.01" stop-color="#F6F5D9"/>
<stop offset="0.05" stop-color="#C8C7B1"/>
<stop offset="0.09" stop-color="#9D9C8B"/>
<stop offset="0.14" stop-color="#777769"/>
<stop offset="0.19" stop-color="#57564D"/>
<stop offset="0.25" stop-color="#3B3B35"/>
<stop offset="0.32" stop-color="#252521"/>
<stop offset="0.4" stop-color="#141412"/>
<stop offset="0.49" stop-color="#090908"/>
<stop offset="0.63" stop-color="#020202"/>
<stop offset="1"/>
</radialGradient>
<radialGradient id="paint21_radial_492_207461" cx="0" cy="0" r="1" gradientUnits="userSpaceOnUse" gradientTransform="translate(1346.79 -1334.72) rotate(-152.492) scale(184.324 189.897)">
<stop stop-color="#FCFBDF"/>
<stop offset="0.01" stop-color="#F6F5D9"/>
<stop offset="0.05" stop-color="#C8C7B1"/>
<stop offset="0.09" stop-color="#9D9C8B"/>
<stop offset="0.14" stop-color="#777769"/>
<stop offset="0.19" stop-color="#57564D"/>
<stop offset="0.25" stop-color="#3B3B35"/>
<stop offset="0.32" stop-color="#252521"/>
<stop offset="0.4" stop-color="#141412"/>
<stop offset="0.49" stop-color="#090908"/>
<stop offset="0.63" stop-color="#020202"/>
<stop offset="1"/>
</radialGradient>
<radialGradient id="paint22_radial_492_207461" cx="0" cy="0" r="1" gradientUnits="userSpaceOnUse" gradientTransform="translate(12779.1 172.314) rotate(-1.2037) scale(2010.01 137.933)">
<stop stop-color="#FCFBDF"/>
<stop offset="0.01" stop-color="#F6F5D9"/>
<stop offset="0.05" stop-color="#C8C7B1"/>
<stop offset="0.09" stop-color="#9D9C8B"/>
<stop offset="0.14" stop-color="#777769"/>
<stop offset="0.19" stop-color="#57564D"/>
<stop offset="0.25" stop-color="#3B3B35"/>
<stop offset="0.32" stop-color="#252521"/>
<stop offset="0.4" stop-color="#141412"/>
<stop offset="0.49" stop-color="#090908"/>
<stop offset="0.63" stop-color="#020202"/>
<stop offset="1"/>
</radialGradient>
<radialGradient id="paint23_radial_492_207461" cx="0" cy="0" r="1" gradientUnits="userSpaceOnUse" gradientTransform="translate(192.856 25.2141) scale(20.9239 2.2895)">
<stop stop-color="#FCFBDF"/>
<stop offset="0.16" stop-color="#BCBCA7"/>
<stop offset="0.33" stop-color="#848375"/>
<stop offset="0.49" stop-color="#55544B"/>
<stop offset="0.64" stop-color="#30302A"/>
<stop offset="0.78" stop-color="#161513"/>
<stop offset="0.9" stop-color="#060605"/>
<stop offset="1"/>
</radialGradient>
<radialGradient id="paint24_radial_492_207461" cx="0" cy="0" r="1" gradientUnits="userSpaceOnUse" gradientTransform="translate(193.407 25.2842) rotate(90) scale(8.87552 2.26298)">
<stop stop-color="#FCFBDF"/>
<stop offset="0.01" stop-color="#F6F5D9"/>
<stop offset="0.05" stop-color="#C8C7B1"/>
<stop offset="0.09" stop-color="#9D9C8B"/>
<stop offset="0.14" stop-color="#777769"/>
<stop offset="0.19" stop-color="#57564D"/>
<stop offset="0.25" stop-color="#3B3B35"/>
<stop offset="0.32" stop-color="#252521"/>
<stop offset="0.4" stop-color="#141412"/>
<stop offset="0.49" stop-color="#090908"/>
<stop offset="0.63" stop-color="#020202"/>
<stop offset="1"/>
</radialGradient>
<radialGradient id="paint25_radial_492_207461" cx="0" cy="0" r="1" gradientUnits="userSpaceOnUse" gradientTransform="translate(-6887.65 5893.63) rotate(143.981) scale(3896.37 41.0216)">
<stop stop-color="#FCFBDF"/>
<stop offset="0.01" stop-color="#F6F5D9"/>
<stop offset="0.05" stop-color="#C8C7B1"/>
<stop offset="0.09" stop-color="#9D9C8B"/>
<stop offset="0.14" stop-color="#777769"/>
<stop offset="0.19" stop-color="#57564D"/>
<stop offset="0.25" stop-color="#3B3B35"/>
<stop offset="0.32" stop-color="#252521"/>
<stop offset="0.4" stop-color="#141412"/>
<stop offset="0.49" stop-color="#090908"/>
<stop offset="0.63" stop-color="#020202"/>
<stop offset="1"/>
</radialGradient>
<radialGradient id="paint26_radial_492_207461" cx="0" cy="0" r="1" gradientUnits="userSpaceOnUse" gradientTransform="translate(3016.94 -2332.38) rotate(-144.072) scale(300.243 299.025)">
<stop stop-color="#FCFBDF"/>
<stop offset="0.01" stop-color="#F6F5D9"/>
<stop offset="0.05" stop-color="#C8C7B1"/>
<stop offset="0.09" stop-color="#9D9C8B"/>
<stop offset="0.14" stop-color="#777769"/>
<stop offset="0.19" stop-color="#57564D"/>
<stop offset="0.25" stop-color="#3B3B35"/>
<stop offset="0.32" stop-color="#252521"/>
<stop offset="0.4" stop-color="#141412"/>
<stop offset="0.49" stop-color="#090908"/>
<stop offset="0.63" stop-color="#020202"/>
<stop offset="1"/>
</radialGradient>
<radialGradient id="paint27_radial_492_207461" cx="0" cy="0" r="1" gradientUnits="userSpaceOnUse" gradientTransform="translate(12158.2 222.15) scale(1836.59 109.541)">
<stop stop-color="#FCFBDF"/>
<stop offset="0.01" stop-color="#F6F5D9"/>
<stop offset="0.05" stop-color="#C8C7B1"/>
<stop offset="0.09" stop-color="#9D9C8B"/>
<stop offset="0.14" stop-color="#777769"/>
<stop offset="0.19" stop-color="#57564D"/>
<stop offset="0.25" stop-color="#3B3B35"/>
<stop offset="0.32" stop-color="#252521"/>
<stop offset="0.4" stop-color="#141412"/>
<stop offset="0.49" stop-color="#090908"/>
<stop offset="0.63" stop-color="#020202"/>
<stop offset="1"/>
</radialGradient>
<clipPath id="clip0_492_207461">
<rect width="240" height="75" rx="10" fill="white"/>
</clipPath>
<clipPath id="clip1_492_207461">
<rect width="360" height="90" fill="white" transform="translate(-90 -7.5)"/>
</clipPath>
<clipPath id="clip2_492_207461">
<rect width="45.5121" height="45.5121" fill="white" transform="translate(169.753 14.7526)"/>
</clipPath>
<clipPath id="clip3_492_207461">
<rect width="45.5121" height="45.5121" fill="white" transform="translate(169.753 14.7526)"/>
</clipPath>
</defs>
</svg>
