<svg width="120" height="120" viewBox="0 0 120 120" fill="none" xmlns="http://www.w3.org/2000/svg">
<g clip-path="url(#clip0_492_205040)">
<path d="M24.6357 49.645C24.6357 49.4348 24.6548 49.2245 24.6548 49.0143C24.674 48.7276 24.6932 48.4409 24.7124 48.1542C24.7316 47.944 24.7316 47.7146 24.7507 47.5044C24.7891 47.1986 24.8083 46.8928 24.8466 46.587C24.9042 46.1283 24.9809 45.6696 25.0576 45.2109C25.1343 44.7713 25.2302 44.3508 25.3069 43.9113C25.3069 43.873 25.3261 43.8539 25.3261 43.8157C25.4028 43.5099 25.4604 43.2041 25.5563 42.8983C25.6713 42.4396 25.8056 41.9809 25.9399 41.5222C26.0358 41.2164 26.1317 40.9106 26.2275 40.6048C26.4002 40.1079 26.592 39.6109 26.7837 39.114C27.2824 37.8526 27.877 36.6103 28.5291 35.3871C28.6633 35.1386 28.7976 34.8902 28.9318 34.6417C29.1044 34.3359 29.2962 34.0301 29.488 33.7243C29.6031 33.5332 29.7374 33.3612 29.8524 33.17C30.0634 32.8451 30.2744 32.5202 30.4854 32.1953C30.5045 32.1762 30.5045 32.1571 30.5237 32.138C30.6388 31.9851 30.7539 31.8322 30.8881 31.6793C31.1183 31.3543 31.3676 31.0485 31.5977 30.7427C31.732 30.5707 31.8663 30.3987 32.0197 30.2267C32.269 29.9209 32.5567 29.6151 32.806 29.3284C32.9595 29.1564 33.0937 28.9844 33.2472 28.8124C33.5349 28.5066 33.8225 28.239 34.1102 27.9523C34.2829 27.7994 34.4363 27.6274 34.6089 27.4745C34.9158 27.1878 35.2226 26.9202 35.5487 26.6336C35.7213 26.4807 35.9131 26.3278 36.0857 26.1749C36.4309 25.9073 36.757 25.6397 37.1022 25.3721C37.294 25.2192 37.505 25.0854 37.6968 24.9325C38.0228 24.7032 38.3489 24.4738 38.6941 24.2636C39.0201 24.0534 39.3462 23.8431 39.6914 23.652C45.5411 20.25 51.947 19.5237 57.3172 21.8554L57.298 21.8363C59.8872 22.8302 62.3613 23.9005 64.6053 25.5059C73.2935 32.826 73.6388 48.2307 65.3917 59.8511C60.6736 66.5022 54.1334 70.4776 47.7851 71.2995C45.1 71.567 42.4341 71.2995 39.9599 70.4203C39.5763 70.3438 39.3845 70.2292 39.001 70.1336C38.7133 70.0189 38.2721 69.9425 38.0036 69.8087C38.042 69.8278 38.0995 69.8278 38.1571 69.8469C38.1762 69.8469 38.1954 69.8469 38.2146 69.866C38.1954 69.866 38.1762 69.866 38.1571 69.8469C38.0995 69.8278 38.0612 69.8278 38.0036 69.8087C37.5625 69.7131 37.1406 69.5793 36.7186 69.4455C36.546 69.3882 36.3734 69.3309 36.1816 69.2544C36.0665 69.2162 35.9706 69.178 35.8747 69.1397C35.4144 68.9677 34.9733 68.7575 34.5322 68.5473C34.4171 68.4899 34.3212 68.4326 34.2061 68.3752C34.0335 68.2797 33.8609 68.1841 33.6883 68.0886C32.8828 67.6107 32.0964 67.0756 31.3484 66.4449C29.4689 64.8586 27.9729 62.89 26.8796 60.6729C26.4577 59.8128 26.0933 58.8954 25.7864 57.978C25.6905 57.7105 25.6138 57.4429 25.5371 57.1753C25.4604 56.9077 25.3837 56.6211 25.3261 56.3535C25.2878 56.2197 25.2686 56.0668 25.2302 55.933C25.1343 55.5125 25.0576 55.0921 24.9809 54.6525C24.9234 54.3658 24.885 54.0791 24.8466 53.7924C24.8083 53.5057 24.7699 53.219 24.7507 52.9132C24.7316 52.7603 24.7316 52.6266 24.7124 52.4737C24.6932 52.359 24.6932 52.2443 24.6932 52.1105C24.6932 52.0341 24.674 51.9576 24.674 51.8812C24.6548 51.69 24.6548 51.4989 24.6357 51.2887C24.6357 51.0784 24.6165 50.8873 24.6165 50.6771C24.6165 50.3331 24.6165 49.989 24.6357 49.645Z" fill="#FCA463"/>
<path d="M64.8547 43.1276C64.0492 55.0921 54.5171 65.4893 44.2561 66.1773C43.7383 66.2155 43.2205 66.2155 42.7218 66.1964C33.976 65.9289 28.1072 58.0927 28.9511 48.0778C29.8141 37.6041 37.7927 27.6848 47.3056 25.7162C49.4154 25.2766 51.5059 25.2575 53.4814 25.6588C60.5777 27.1114 65.4876 33.8963 64.8547 43.1276Z" fill="#FAF4E6"/>
<path opacity="0.5" d="M64.8547 43.1276C64.0492 55.0921 54.5171 65.4893 44.2561 66.1773C43.7383 66.2155 43.2205 66.2155 42.7218 66.1964C33.976 65.9289 28.1072 58.0927 28.9511 48.0778C29.8141 37.6041 37.7927 27.6848 47.3056 25.7162C49.4154 25.2766 51.5059 25.2575 53.4814 25.6588C60.5777 27.1114 65.4876 33.8963 64.8547 43.1276Z" fill="url(#paint0_linear_492_205040)"/>
<path d="M53.7525 41.2989C53.1004 38.8525 51.0098 37.8395 48.3823 37.2853L47.8492 32.9276L45.8457 33.2214L46.2917 36.9603C45.7355 36.903 45.141 36.8266 44.5656 36.7501L43.9726 33.5341L41.9239 33.8216L42.3408 36.5781L37.4309 36.0047L37.7761 38.5276C37.7761 38.5276 39.6173 38.6614 39.5982 38.6996C40.2694 38.6996 40.9407 39.1965 41.1325 39.8463L42.7244 50.6831C42.7436 50.9125 42.6669 51.1418 42.5134 51.2947C42.36 51.4667 42.149 51.5432 41.8997 51.5241C41.938 51.5432 40.0585 51.5814 40.0585 51.5814L40.0009 54.7159L45.0259 54.4101L45.6639 58.6529L47.8994 58.3735L47.3658 54.3145L49.1495 54.1998L49.8036 58.1086L51.8443 57.891L51.2784 54.0278C54.6347 53.5882 56.6869 52.5561 56.3033 49.135C56.0156 46.4593 54.6923 45.2361 52.7935 44.6627C53.7717 44.1658 54.2511 43.0955 53.7525 41.2989ZM52.4483 48.791C52.947 51.5623 48.459 51.3903 46.9438 51.4285L46.1191 46.2299C47.6151 46.249 51.9496 45.9241 52.4483 48.791ZM50.3386 41.9678C50.7605 44.4333 47.0014 43.9555 45.7547 43.8982L45.0259 39.3685C46.2726 39.4832 49.8974 39.445 50.3386 41.9678Z" fill="#F09242"/>
<path d="M24.7124 52.4546C24.6932 52.34 24.6932 52.2253 24.6932 52.0915C24.6932 52.0151 24.674 51.9386 24.674 51.8622C24.6549 51.671 24.6549 51.4799 24.6357 51.2697C24.6357 51.0594 24.6165 50.8683 24.6165 50.6581C24.6165 50.3141 24.6165 49.97 24.6165 49.626C24.6165 49.4158 24.6357 49.2055 24.6357 48.9953C24.6549 48.7086 24.674 48.4219 24.6932 48.1352C24.7124 47.925 24.7124 47.6956 24.7316 47.4854C24.7699 47.1796 24.7891 46.8738 24.8275 46.568C24.885 46.1093 24.9617 45.6506 25.0384 45.1919C25.1152 44.7523 25.2111 44.3318 25.2878 43.8922C25.2878 43.854 25.307 43.8349 25.307 43.7967C25.3837 43.4909 25.4412 43.1851 25.5371 42.8793C25.6522 42.4206 25.7864 41.9619 25.9207 41.5032C26.0166 41.1974 26.1125 40.8916 26.2084 40.5858C26.381 40.0889 26.5728 39.5919 26.7646 39.095C27.2632 37.8336 27.8578 36.5913 28.5099 35.3681C28.6441 35.1196 28.7784 34.8712 28.9127 34.6227C29.0853 34.3169 29.2771 34.0111 29.4689 33.7053C29.5839 33.5142 29.7182 33.3422 29.8333 33.151C30.0442 32.8261 30.2552 32.5012 30.4662 32.1763C30.4854 32.1572 30.4854 32.1381 30.5045 32.119C30.6196 31.9661 30.7347 31.8132 30.8689 31.6603C31.0991 31.3353 31.3484 31.0295 31.5786 30.7237C31.7128 30.5517 31.8471 30.3797 32.0005 30.2077C32.2499 29.9019 32.5375 29.5961 32.7869 29.3094C32.9403 29.1374 33.0746 28.9654 33.228 28.7934C33.5157 28.4876 33.8034 28.22 34.0911 27.9333C34.2637 27.7804 34.4171 27.6084 34.5897 27.4555C34.8966 27.1688 35.2035 26.9012 35.5295 26.6146C35.7021 26.4617 35.8939 26.3088 36.0665 26.1559C36.4118 25.8883 36.7378 25.6207 37.083 25.3531C37.2748 25.2002 37.4858 25.0664 37.6776 24.9135C38.0036 24.6842 38.3297 24.4548 38.6749 24.2446C39.001 24.0344 39.327 23.8241 39.6722 23.633C45.4836 20.2692 51.9278 19.5429 57.3172 21.9129C57.509 21.9893 57.6816 22.0849 57.8734 22.1613C58.1611 22.2951 58.4488 22.448 58.7365 22.62C58.8707 22.6965 59.0241 22.7729 59.1584 22.8685L59.1776 22.8876C59.3118 22.9641 59.4461 23.0405 59.5612 23.1361C59.5803 23.1552 59.5995 23.1743 59.6187 23.1743C59.7338 23.2508 59.8489 23.3272 59.9639 23.4037C60.0023 23.4228 60.0406 23.461 60.079 23.4801C60.1749 23.5566 60.2708 23.6139 60.3667 23.6903C60.4242 23.7477 60.501 23.7859 60.5585 23.8432C60.6352 23.9006 60.6927 23.9579 60.7695 23.9961C60.9037 24.1108 61.038 24.2064 61.1722 24.3211C61.2489 24.3784 61.3065 24.4357 61.3832 24.5122C61.5175 24.6269 61.6325 24.7415 61.7668 24.8562C61.8819 24.9709 62.0161 25.0856 62.1312 25.2002C62.1312 25.2002 62.1312 25.2002 62.1504 25.2193C62.2654 25.334 62.3805 25.4487 62.4956 25.5634L62.5148 25.5825C62.6299 25.6972 62.7449 25.8309 62.86 25.9456C63.071 26.1941 63.2819 26.4425 63.4929 26.691C63.5888 26.8057 63.6847 26.9395 63.7806 27.0541L63.7998 27.0733C63.8957 27.207 63.9916 27.3217 64.0875 27.4555C64.1067 27.4937 64.145 27.532 64.1642 27.5702C64.2217 27.6466 64.2793 27.7231 64.3176 27.7995C64.356 27.8569 64.3944 27.9142 64.4327 27.9715C64.4711 28.0289 64.5094 28.0862 64.5478 28.1627C64.5861 28.22 64.6245 28.2773 64.6629 28.3347C64.7204 28.4302 64.7971 28.5449 64.8547 28.6405C64.893 28.7169 64.9505 28.7934 64.9889 28.8698C65.0273 28.9272 65.0464 28.9654 65.0848 29.0227C65.1232 29.0992 65.1615 29.1565 65.1999 29.233C65.2382 29.2903 65.2766 29.3668 65.315 29.4241C65.3533 29.4814 65.3725 29.5388 65.4109 29.5961C65.4684 29.6917 65.5067 29.7872 65.5643 29.8828C65.5835 29.921 65.6026 29.9401 65.6218 29.9784C65.6985 30.1504 65.7944 30.3224 65.8712 30.4944C65.8712 30.5135 65.8903 30.5135 65.8903 30.5326C65.9671 30.7046 66.0438 30.8766 66.1205 31.0487C66.2931 31.45 66.4657 31.8705 66.6 32.3101C66.6575 32.4821 66.715 32.635 66.7726 32.807C66.7726 32.807 66.7726 32.807 66.7726 32.8261C66.8301 32.9981 66.8685 33.151 66.926 33.323C66.9836 33.5142 67.0411 33.7053 67.0794 33.8964C67.0794 33.9155 67.0795 33.9155 67.0986 33.9346C67.1562 34.1258 67.1945 34.3169 67.2521 34.508C67.2904 34.6609 67.3288 34.8329 67.3671 34.9858C67.4055 35.1387 67.4439 35.3107 67.463 35.4636C67.5014 35.6548 67.5398 35.8268 67.5589 36.0179V36.037C67.5973 36.2281 67.6165 36.4193 67.6548 36.6104C67.674 36.7633 67.6932 36.8971 67.7124 37.05C67.7124 37.0691 67.7124 37.0691 67.7124 37.0882C67.7315 37.2411 67.7507 37.394 67.7699 37.5469C67.7891 37.7189 67.8083 37.91 67.8274 38.0821C67.8466 38.2732 67.8658 38.4452 67.8658 38.6363C67.8658 38.7701 67.885 38.923 67.885 39.0568C67.885 39.0759 67.885 39.0759 67.885 39.095C67.885 39.2479 67.9042 39.3817 67.9042 39.5346C67.9042 39.7066 67.9233 39.8977 67.9233 40.0698C67.9233 40.2418 67.9233 40.4329 67.9233 40.6049C67.9233 40.7387 67.9233 40.8916 67.9233 41.0254C67.9233 41.0445 67.9233 41.0636 67.9233 41.0827C67.9233 41.2165 67.9233 41.3503 67.9042 41.4841C67.9042 41.6561 67.885 41.8281 67.885 42.0001V42.0192C67.885 42.1912 67.8658 42.3633 67.8466 42.5353V42.5544C67.8274 42.8219 67.8083 43.1086 67.7699 43.3953C67.7507 43.5673 67.7315 43.7393 67.7124 43.8922C67.6932 44.0643 67.674 44.2363 67.6548 44.4083C67.6356 44.5421 67.6165 44.6759 67.5973 44.8096C67.5973 44.867 67.5781 44.9243 67.5781 44.9817C67.5589 45.0772 67.5589 45.1728 67.5398 45.2683V45.2875C67.4822 45.6124 67.4247 45.9373 67.3671 46.2622C67.3096 46.5298 67.2521 46.7973 67.1945 47.084C67.1562 47.2369 67.1178 47.4089 67.0794 47.5618V47.581C67.0411 47.7339 67.0027 47.8868 66.9644 48.0397C66.8877 48.3072 66.8109 48.5748 66.7342 48.8424C66.6959 48.9953 66.6383 49.1482 66.6 49.3011V49.3202C66.5616 49.4731 66.5041 49.626 66.4465 49.7789C66.3698 50.0465 66.2739 50.2949 66.178 50.5625C66.1205 50.7154 66.0629 50.8492 66.0246 51.0021C66.0246 51.0212 66.0246 51.0212 66.0054 51.0403C65.9479 51.1932 65.8903 51.3461 65.8328 51.499C65.7369 51.7475 65.641 52.0151 65.5259 52.2635C65.4684 52.3973 65.4109 52.5311 65.3533 52.6649C65.3533 52.684 65.3341 52.7031 65.3341 52.7222C65.2766 52.8751 65.1999 53.028 65.1423 53.1618C65.0273 53.4103 64.9122 53.6587 64.7971 53.9072C64.7971 53.9072 64.7971 53.9072 64.7971 53.9263C64.6629 54.213 64.5094 54.5188 64.356 54.8055C64.2409 55.0348 64.1258 55.2451 64.0108 55.4744C63.8381 55.7802 63.6655 56.0669 63.4929 56.3536C63.4737 56.3727 63.4546 56.4109 63.4546 56.43C63.4354 56.4492 63.4162 56.4874 63.397 56.5065L63.3778 56.5256C63.2628 56.7167 63.1477 56.9079 63.0134 57.099C62.9943 57.1372 62.9751 57.1754 62.9559 57.1945C62.8792 57.3283 62.8025 57.443 62.7066 57.5577C62.6874 57.5959 62.6682 57.615 62.649 57.6532C62.6107 57.7106 62.5723 57.787 62.5148 57.8444C62.4956 57.8826 62.4572 57.9208 62.4381 57.959C62.3038 58.1502 62.1887 58.3413 62.0545 58.5324C62.0353 58.5706 62.0161 58.5898 61.9778 58.628C61.786 58.9147 61.575 59.1822 61.364 59.4498C61.2873 59.5454 61.2106 59.6409 61.153 59.7365C61.0955 59.813 61.0188 59.9085 60.9613 59.985C60.9229 60.0423 60.8845 60.0805 60.8462 60.1379C60.7886 60.2143 60.7311 60.2717 60.6736 60.3481C60.5201 60.5392 60.3667 60.7112 60.2133 60.9024C60.1941 60.9215 60.1749 60.9406 60.1749 60.9597C60.0982 61.0553 60.0023 61.1508 59.9256 61.2464C59.868 61.3228 59.7913 61.3993 59.7338 61.4757C59.7146 61.4949 59.6762 61.5331 59.6571 61.5522C59.6379 61.5713 59.6187 61.5904 59.5995 61.6095C59.3502 61.8771 59.12 62.1256 58.8707 62.374C58.8515 62.3931 58.8324 62.4123 58.8132 62.4314C58.794 62.4505 58.7748 62.4696 58.7748 62.4696C58.6597 62.5843 58.5447 62.6989 58.4296 62.8136C58.372 62.871 58.3145 62.9283 58.257 62.9856C58.1994 63.0239 58.1611 63.0812 58.1035 63.1194C57.9501 63.2723 57.7775 63.4252 57.6241 63.5781C57.5665 63.6355 57.509 63.6928 57.4323 63.7501C57.3364 63.8457 57.2213 63.9413 57.1254 64.0177C57.0679 64.0559 57.0103 64.1133 56.972 64.1515C56.9144 64.1897 56.8761 64.2471 56.8185 64.2853C56.7993 64.3044 56.7802 64.3235 56.761 64.3426C56.761 64.3426 56.7418 64.3426 56.7418 64.3617C56.5884 64.4764 56.4349 64.6102 56.3007 64.7249C56.3007 64.7249 56.3007 64.7249 56.2815 64.744C56.1281 64.8587 55.9938 64.9733 55.8404 65.088C55.7253 65.1645 55.6294 65.26 55.5143 65.3365C55.4952 65.3556 55.476 65.3556 55.4568 65.3747C55.4376 65.3938 55.4184 65.4129 55.3801 65.432C55.3609 65.4511 55.3417 65.4703 55.3225 65.4703C55.2266 65.5276 55.1499 65.604 55.054 65.6614C54.8814 65.7761 54.728 65.8907 54.5554 66.0054C54.4595 66.0819 54.3636 66.1392 54.2485 66.1965C54.191 66.2348 54.1142 66.2921 54.0567 66.3303C53.769 66.5214 53.4813 66.6935 53.1745 66.8655C53.1553 66.8846 53.1361 66.8846 53.1169 66.9037C52.7909 67.0948 52.4456 67.2859 52.1196 67.458C52.1004 67.4771 52.0812 67.4771 52.0621 67.4962C51.9662 67.5535 51.8511 67.6109 51.7552 67.6491C51.6977 67.6682 51.6593 67.7064 51.6018 67.7255C51.4675 67.802 51.3141 67.8593 51.1798 67.9358C51.1606 67.9549 51.1415 67.9549 51.1223 67.974H51.1031C51.1031 67.974 51.0839 67.974 51.0839 67.9931C51.0072 68.0313 50.9497 68.0504 50.8729 68.0887C50.7387 68.146 50.5853 68.2225 50.451 68.2798C50.451 68.2798 50.4318 68.2798 50.4318 68.2989C50.4126 68.2989 50.4126 68.2989 50.3935 68.318C50.3743 68.318 50.3551 68.3371 50.3359 68.3371C50.1441 68.4136 49.9523 68.49 49.7797 68.5665H49.7606C49.3961 68.7194 49.0317 68.8532 48.6673 68.9678C48.6481 68.9678 48.629 68.987 48.6098 68.987C48.3605 69.0634 48.1111 69.1399 47.8618 69.2163C47.8426 69.2163 47.8426 69.2163 47.8234 69.2354C47.8043 69.2354 47.7659 69.2545 47.7467 69.2545C47.6508 69.2928 47.5549 69.3119 47.459 69.331C47.3248 69.3692 47.1905 69.4074 47.0563 69.4457C47.0371 69.4457 47.0371 69.4457 47.0179 69.4648C46.8837 69.503 46.7302 69.5412 46.596 69.5603C46.5576 69.5603 46.5192 69.5794 46.4809 69.5794C46.4425 69.5794 46.4234 69.5986 46.385 69.5986C46.3275 69.6177 46.2699 69.6177 46.2124 69.6368C46.0014 69.675 45.8096 69.7132 45.5986 69.7515C45.426 69.7897 45.2342 69.8088 45.0616 69.8279C44.8507 69.8661 44.6397 69.9044 44.4287 69.9235C44.2753 69.9426 44.141 69.9617 43.9876 69.9617C43.8341 69.9808 43.6999 69.9808 43.5465 69.9999C43.5273 69.9999 43.5081 69.9999 43.5081 69.9999C43.4314 69.9999 43.3355 70.019 43.2588 70.019C43.1437 70.019 43.0478 70.0381 42.9327 70.0381C42.9135 70.0381 42.9135 70.0381 42.8944 70.0381C42.5683 70.0573 42.2614 70.0573 41.9354 70.0573C41.9162 70.0573 41.8779 70.0573 41.8587 70.0573C41.6669 70.0573 41.4751 70.0381 41.2833 70.0381C41.2449 70.0381 41.2066 70.0381 41.1682 70.0381C41.034 70.0381 40.8997 70.019 40.7655 70.019C40.7079 70.019 40.6504 69.9999 40.5928 69.9999C40.5161 69.9999 40.4586 69.9808 40.3819 69.9808C40.2284 69.9617 40.0942 69.9426 39.9599 69.9235C39.8449 69.9044 39.749 69.8852 39.6339 69.8852C39.4421 69.8661 39.2695 69.8279 39.0969 69.7897C38.8859 69.7515 38.6749 69.7132 38.4831 69.675C38.4448 69.6559 38.3872 69.6559 38.3489 69.6368C38.2913 69.6177 38.253 69.6177 38.1954 69.5986C37.7543 69.503 37.3324 69.3692 36.9104 69.2354C36.7378 69.1781 36.5652 69.1207 36.3734 69.0443C36.2583 69.0061 36.1624 68.9678 36.0665 68.9296C35.6062 68.7576 35.1651 68.5474 34.724 68.3371C34.6089 68.2798 34.513 68.2225 34.3979 68.1651C34.2253 68.0696 34.0527 67.974 33.8801 67.8784C33.0746 67.4006 32.2882 66.8655 31.5402 66.2348C29.6607 64.6484 28.1647 62.6798 27.0714 60.4628C26.6495 59.6027 26.2851 58.6853 25.9782 57.7679C25.8823 57.5003 25.8056 57.2328 25.7289 56.9652C25.6522 56.6976 25.5755 56.4109 25.5179 56.1434C25.4796 56.0096 25.4604 55.8567 25.422 55.7229C25.3261 55.3024 25.2494 54.8819 25.1727 54.4423C25.1152 54.1557 25.0768 53.869 25.0384 53.5823C25.0001 53.2956 24.9617 53.0089 24.9425 52.7031C24.7316 52.7604 24.7316 52.6075 24.7124 52.4546ZM33.4198 34.4889C32.2115 36.1899 31.2142 37.9865 30.4662 39.8404C29.2771 42.6882 28.625 45.6315 28.5099 48.4984C28.3756 51.7093 28.8935 54.7864 30.0634 57.4621C30.773 59.0676 31.7128 60.5201 32.902 61.7624C32.9211 61.8007 32.9595 61.8198 32.9979 61.858C33.017 61.8771 33.0362 61.8962 33.0362 61.8962C33.0746 61.9344 33.1129 61.9918 33.1705 62.03C33.3047 62.1638 33.439 62.2976 33.5732 62.4123C33.7075 62.546 33.8417 62.6607 33.9952 62.7754C34.0719 62.8327 34.1294 62.8901 34.2061 62.9474C34.2253 62.9665 34.2445 62.9856 34.2829 63.0047C34.3212 63.043 34.3788 63.0812 34.4171 63.1194C34.4555 63.1576 34.4938 63.1768 34.5322 63.215C34.5897 63.2532 34.6473 63.2914 34.7048 63.3488C34.7623 63.387 34.8007 63.4252 34.8582 63.4634C34.8774 63.4826 34.9158 63.5017 34.935 63.5208L34.9541 63.5399C34.9541 63.5399 34.9541 63.5399 34.9733 63.559C35.1076 63.6546 35.261 63.7501 35.3953 63.8457C35.4144 63.8648 35.4336 63.8648 35.4528 63.8839C35.5871 63.9604 35.7021 64.0368 35.8364 64.1133C35.8747 64.1324 35.9323 64.1706 35.9706 64.1897C36.0282 64.2279 36.1049 64.2662 36.1624 64.3044C36.1816 64.3044 36.1816 64.3235 36.2008 64.3235C36.2391 64.3426 36.2775 64.3808 36.335 64.4C36.3542 64.4 36.3734 64.4191 36.3926 64.4191C36.4118 64.4191 36.4118 64.4382 36.4309 64.4382C36.4309 64.4382 36.4501 64.4382 36.4501 64.4573C36.5268 64.4955 36.6036 64.5337 36.6995 64.572C36.7762 64.6102 36.8337 64.6484 36.9104 64.6866C36.9296 64.6866 36.9296 64.7058 36.9488 64.7058C36.9488 64.7058 36.968 64.7058 36.968 64.7249C36.9871 64.7249 36.9871 64.744 37.0063 64.744C37.1406 64.8013 37.2557 64.8587 37.3899 64.916C37.4091 64.9351 37.4283 64.9351 37.4666 64.9542C37.4858 64.9542 37.4858 64.9733 37.505 64.9733C37.505 64.9733 37.5242 64.9733 37.5242 64.9924C37.6009 65.0116 37.6584 65.0498 37.7351 65.0689C37.8118 65.088 37.8694 65.1262 37.9461 65.1453C37.9653 65.1453 37.9845 65.1645 38.0036 65.1645C38.1571 65.2218 38.3105 65.2791 38.4831 65.3174C38.5215 65.3365 38.5598 65.3365 38.5982 65.3556C38.6174 65.3556 38.6366 65.3747 38.6557 65.3747C38.6749 65.3747 38.6941 65.3938 38.7133 65.3938C38.7325 65.3938 38.7516 65.4129 38.7708 65.4129C38.8475 65.432 38.9051 65.4511 38.9818 65.4703C39.0201 65.4703 39.0393 65.4894 39.0777 65.4894C39.0969 65.4894 39.0969 65.4894 39.116 65.4894C39.1544 65.5085 39.1928 65.5085 39.2503 65.5276C39.3654 65.5658 39.4996 65.5849 39.6147 65.6232C39.749 65.6614 39.9024 65.6805 40.0366 65.7187C40.0558 65.7187 40.0942 65.7378 40.1134 65.7378C40.1325 65.7378 40.1517 65.7378 40.1709 65.7569C40.1901 65.7569 40.2093 65.7569 40.2284 65.7761C40.3627 65.7952 40.497 65.8143 40.6312 65.8334C40.6696 65.8334 40.7079 65.8525 40.7463 65.8525C40.9189 65.8716 41.0915 65.8907 41.2641 65.9098H41.2833C41.4367 65.929 41.6093 65.9481 41.7628 65.9481C41.8011 65.9481 41.8587 65.9481 41.897 65.9481C42.0313 65.9481 42.1847 65.9672 42.319 65.9672C42.3573 65.9672 42.3765 65.9672 42.4149 65.9672C42.4149 65.9672 42.4149 65.9672 42.4341 65.9672C42.4532 65.9672 42.4724 65.9672 42.4724 65.9672C42.6259 65.9672 42.7985 65.9672 42.9519 65.9672C42.9711 65.9672 43.0094 65.9672 43.0286 65.9672C43.067 65.9672 43.0862 65.9672 43.1245 65.9672C43.1629 65.9672 43.2204 65.9672 43.2588 65.9672C43.3355 65.9672 43.4122 65.9672 43.4889 65.9672C43.5273 65.9672 43.5848 65.9672 43.6232 65.9672C43.7191 65.9672 43.7958 65.9481 43.8917 65.9481C43.9492 65.9481 44.0068 65.9481 44.0643 65.929C44.0835 65.929 44.1218 65.929 44.141 65.929C44.3136 65.9098 44.4862 65.8907 44.678 65.8716C44.7164 65.8716 44.7548 65.8525 44.7931 65.8525C44.8698 65.8334 44.9465 65.8334 45.0233 65.8143C45.0808 65.8143 45.1575 65.7952 45.2151 65.7952C45.2534 65.7952 45.2726 65.7761 45.311 65.7761C45.3301 65.7761 45.3493 65.7761 45.3493 65.7761C45.5219 65.7569 45.6754 65.7187 45.848 65.6805H45.8672C46.0206 65.6423 46.174 65.6232 46.3275 65.5849C46.3466 65.5849 46.385 65.5658 46.4042 65.5658C46.4234 65.5658 46.4425 65.5467 46.4617 65.5467C46.4809 65.5467 46.5001 65.5276 46.5193 65.5276C46.6535 65.4894 46.7878 65.4511 46.9412 65.4129C46.9796 65.3938 47.0371 65.3938 47.0754 65.3747C47.1713 65.3556 47.2481 65.3174 47.344 65.2982C47.3823 65.2791 47.4207 65.2791 47.459 65.26C47.5166 65.2409 47.5549 65.2409 47.6125 65.2218C47.6125 65.2218 47.6125 65.2218 47.6316 65.2218C47.6892 65.2027 47.7467 65.1836 47.8234 65.1645C47.9385 65.1262 48.0344 65.088 48.1495 65.0498C48.1879 65.0307 48.2262 65.0307 48.2646 65.0116C48.2837 65.0116 48.2837 65.0116 48.3029 64.9924C48.3796 64.9733 48.4564 64.9351 48.5139 64.916C48.5714 64.8969 48.6482 64.8778 48.7057 64.8395C48.744 64.8204 48.7824 64.8013 48.8399 64.7822C48.9742 64.7249 49.0893 64.6866 49.2235 64.6293C49.2619 64.6102 49.3194 64.5911 49.3578 64.572C49.3961 64.5529 49.4153 64.5529 49.4537 64.5337C49.5496 64.4955 49.6455 64.4382 49.7606 64.4C49.7989 64.3808 49.8564 64.3617 49.8948 64.3426C49.9523 64.3235 49.9907 64.3044 50.0482 64.2662C50.1441 64.2279 50.24 64.1706 50.3167 64.1324C50.3551 64.1133 50.4126 64.0942 50.451 64.075C50.4702 64.075 50.4702 64.0559 50.4894 64.0559C50.5085 64.0368 50.5469 64.0368 50.5661 64.0177C50.5853 64.0177 50.6044 63.9986 50.6236 63.9986C50.662 63.9795 50.6812 63.9604 50.7195 63.9413C50.7579 63.9221 50.7962 63.903 50.8346 63.8839C50.9113 63.8457 51.0072 63.8075 51.0839 63.7501C51.1223 63.731 51.1606 63.7119 51.199 63.6928C51.2757 63.6546 51.3524 63.6163 51.4291 63.5781C51.4867 63.5399 51.5442 63.5208 51.6018 63.4826C51.6209 63.4826 51.6209 63.4634 51.6401 63.4634C51.6593 63.4634 51.6785 63.4443 51.6977 63.4443C51.7168 63.4252 51.7552 63.4061 51.7744 63.4061C51.8895 63.3297 52.0045 63.2723 52.1196 63.1959C52.1388 63.1768 52.158 63.1768 52.1771 63.1576C52.1963 63.1385 52.2155 63.1385 52.2347 63.1194C52.3881 63.0239 52.5415 62.9283 52.7142 62.8136C52.7333 62.7945 52.7525 62.7945 52.7717 62.7754C52.7717 62.7754 52.7909 62.7754 52.7909 62.7563C52.8101 62.7563 52.8101 62.7372 52.8292 62.7372C52.8484 62.7181 52.8676 62.7181 52.8868 62.6989C52.9443 62.6607 52.9827 62.6225 53.0402 62.6034C53.0977 62.5652 53.1553 62.5269 53.2128 62.4887C53.232 62.4696 53.2704 62.4505 53.2895 62.4314C53.3087 62.4123 53.3471 62.3931 53.3663 62.374C53.3854 62.3549 53.4046 62.3358 53.4238 62.3358C53.4622 62.3167 53.4813 62.2976 53.5197 62.2594C53.5772 62.2211 53.6348 62.1829 53.6731 62.1447C53.6731 62.1447 53.6923 62.1447 53.6923 62.1256C53.7307 62.0873 53.7882 62.0682 53.8266 62.03C53.9033 61.9727 53.98 61.9153 54.0567 61.858C54.1142 61.8198 54.1718 61.7815 54.2101 61.7433C54.2101 61.7433 54.2293 61.7433 54.2293 61.7242C54.2293 61.7242 54.2485 61.7242 54.2485 61.7051C54.2677 61.686 54.2677 61.686 54.2869 61.6669C54.4403 61.5522 54.5937 61.4375 54.728 61.3037C54.7663 61.2655 54.8239 61.2273 54.8622 61.1891C54.9006 61.1508 54.9581 61.1126 54.9965 61.0744C55.0157 61.0553 55.0349 61.0362 55.054 61.0362C55.0924 60.9979 55.1308 60.9597 55.1883 60.9215C55.2266 60.9024 55.2458 60.8641 55.2842 60.845C55.3034 60.8259 55.3225 60.8068 55.3417 60.7877C55.4376 60.7112 55.5143 60.6348 55.6102 60.5583C55.6294 60.5392 55.6486 60.5201 55.6678 60.5201C55.7061 60.4819 55.7637 60.4437 55.802 60.4054C55.8787 60.3481 55.9363 60.2717 56.013 60.1952C56.0705 60.1379 56.1089 60.0996 56.1664 60.0423C56.1856 60.0232 56.2048 60.0041 56.224 59.985L56.2431 59.9659C56.2623 59.9467 56.2815 59.9276 56.2815 59.9276C56.3199 59.8894 56.3582 59.8512 56.3966 59.813C56.4733 59.7365 56.5692 59.6601 56.6459 59.5645C56.6651 59.5454 56.6843 59.5072 56.7226 59.488C56.7418 59.4689 56.761 59.4498 56.7802 59.4307L56.7993 59.4116C56.8952 59.316 56.9911 59.2205 57.087 59.1058C57.1254 59.0485 57.1829 59.0102 57.2213 58.9529C57.3364 58.8382 57.4323 58.7235 57.5473 58.5898C57.5857 58.5515 57.6049 58.5133 57.6432 58.4942C57.7775 58.3413 57.9117 58.1884 58.046 58.0355C58.0844 57.9973 58.1227 57.959 58.1419 57.9017C58.1994 57.8444 58.2378 57.787 58.2953 57.7297C58.3529 57.6724 58.3912 57.615 58.4488 57.5577C58.4679 57.5386 58.4871 57.5003 58.5063 57.4812C58.5255 57.4621 58.5447 57.4239 58.5638 57.4048C58.6597 57.2901 58.7556 57.1754 58.8324 57.0416C58.8707 56.9843 58.9091 56.9461 58.9474 56.8887C58.9474 56.8696 58.9666 56.8696 58.9666 56.8505L58.9858 56.8314C59.1009 56.6785 59.2159 56.5256 59.3118 56.3727C59.3886 56.2771 59.4461 56.1625 59.5228 56.0669C59.5995 55.9713 59.6762 55.8567 59.7338 55.7611C59.7721 55.7038 59.7913 55.6655 59.8297 55.6082C59.8489 55.5891 59.8489 55.57 59.868 55.5509C59.9256 55.4744 59.9831 55.398 60.0215 55.3024C60.0407 55.2642 60.079 55.226 60.0982 55.1877C60.1365 55.1304 60.1749 55.0731 60.2133 55.0157C60.29 54.901 60.3667 54.7673 60.4242 54.6526C60.4242 54.6335 60.4434 54.6335 60.4434 54.6144C60.4434 54.6144 60.4434 54.6144 60.4434 54.5952C60.4434 54.5952 60.4434 54.5952 60.4434 54.5761C60.4626 54.5379 60.4818 54.4997 60.501 54.4806C60.5201 54.4615 60.5201 54.4423 60.5393 54.4232C60.6544 54.2321 60.7695 54.041 60.8654 53.8499C60.9037 53.7734 60.9613 53.6778 60.9996 53.6014C61.0188 53.5823 61.0188 53.5632 61.038 53.5441C61.0955 53.4294 61.153 53.3147 61.2298 53.2C61.2681 53.1427 61.2873 53.0854 61.3257 53.0089C61.3257 52.9898 61.3448 52.9898 61.3448 52.9707C61.3832 52.8942 61.4216 52.8369 61.4407 52.7605C61.4791 52.684 61.5175 52.6267 61.5366 52.5502C61.6134 52.3973 61.6901 52.2444 61.7476 52.0915C61.8243 51.9386 61.8819 51.7857 61.9586 51.6328C61.9969 51.5564 62.0161 51.4799 62.0545 51.4035C62.0928 51.327 62.112 51.2506 62.1504 51.1741C62.2463 50.9448 62.3422 50.7345 62.4189 50.5052C62.4572 50.4287 62.4764 50.3523 62.5148 50.2758C62.6299 49.9891 62.7258 49.6833 62.8408 49.3966V49.3775C62.9367 49.0717 63.0326 48.785 63.1285 48.4792C63.1669 48.3263 63.2244 48.1735 63.2628 48.0206C63.3011 47.8677 63.3395 47.7147 63.3778 47.5618C63.397 47.4854 63.4162 47.3898 63.4354 47.3134C63.4929 47.1032 63.5313 46.8929 63.5888 46.7018C63.7231 46.0902 63.8573 45.4595 63.934 44.8479C64.0299 44.1598 64.1067 43.4909 64.145 42.822C64.1642 42.5926 64.1642 42.3824 64.1834 42.153C64.2217 41.1783 64.1834 40.2035 64.1067 39.267C64.0683 38.8466 64.0108 38.4261 63.9532 38.0247C63.8573 37.394 63.7231 36.7633 63.5696 36.1517C63.071 34.2022 62.2654 32.3865 61.1722 30.8193C61.0572 30.6664 60.9421 30.4944 60.827 30.3415C60.6736 30.1313 60.501 29.921 60.3283 29.7299C59.8297 29.1374 59.2735 28.5831 58.6789 28.0862C51.5634 21.9893 40.2284 24.8944 33.4198 34.4889Z" fill="#F09242"/>
<path d="M30.447 39.8403C29.2579 42.6881 28.6058 45.6314 28.4907 48.4983C28.3565 51.7092 28.8743 54.7863 30.0443 57.462C30.7539 59.0675 31.6937 60.52 32.8828 61.7623C30.332 58.7426 29.0469 54.6525 29.0278 50.2566C29.0086 46.8355 29.7758 43.2232 31.3101 39.8021C32.0197 38.1966 32.9212 36.6294 33.976 35.1386C36.1433 32.0806 38.79 29.6916 41.6094 28.067C47.6125 24.6076 54.402 24.5503 59.2543 28.6404C59.6379 28.9653 60.0023 29.3093 60.3284 29.6533C59.8297 29.0609 59.2735 28.5066 58.679 28.0097C51.5634 22.0083 40.2285 24.9134 33.4198 34.5079C32.2115 36.1898 31.2142 37.9864 30.447 39.8403Z" fill="#DD7F37"/>
<path d="M65.3917 59.8511C60.6736 66.5022 54.1334 70.4776 47.7851 71.2995C45.1 71.567 42.4341 71.2995 39.96 70.4203C39.5764 70.3438 39.3846 70.2292 39.001 70.1336C38.7133 70.0189 38.2722 69.9425 38.0037 69.8087C38.042 69.8278 38.0996 69.8278 38.1571 69.8469C38.1955 69.866 38.253 69.866 38.2914 69.8852C38.4064 69.9043 38.5407 69.9425 38.6749 69.9616C38.7517 69.9807 38.8476 69.9807 38.9243 69.9998C39.0969 70.038 39.2887 70.0572 39.4613 70.0954C39.4996 70.0954 39.538 70.1145 39.5572 70.1145C39.5955 70.1145 39.6339 70.1336 39.6531 70.1336C39.6723 70.1336 39.6723 70.1336 39.6914 70.1336C39.7106 70.1336 39.749 70.1336 39.7682 70.1336C39.9024 70.1527 40.0559 70.1718 40.1901 70.1909C40.2668 70.1909 40.3244 70.2101 40.4011 70.2101C40.4586 70.2101 40.5162 70.2292 40.5737 70.2292C40.7079 70.2483 40.8422 70.2483 40.9765 70.2483C41.0148 70.2483 41.0532 70.2483 41.0915 70.2483C41.2833 70.2674 41.4751 70.2674 41.6669 70.2674C41.6861 70.2674 41.7244 70.2674 41.7436 70.2674C42.0697 70.2674 42.3765 70.2674 42.7026 70.2483C42.7218 70.2483 42.7218 70.2483 42.7409 70.2483C42.856 70.2483 42.9519 70.2292 43.067 70.2292C43.1437 70.2292 43.2396 70.2101 43.3163 70.2101C43.3355 70.2101 43.3547 70.2101 43.3547 70.2101C43.5081 70.1909 43.6424 70.191 43.7958 70.1718C43.9492 70.1527 44.0835 70.1336 44.2369 70.1336C44.4479 70.1145 44.6589 70.0763 44.8699 70.038C45.0425 70.0189 45.2343 69.9807 45.4069 69.9616C45.6178 69.9234 45.8096 69.8851 46.0206 69.8469C46.0781 69.8278 46.1357 69.8278 46.1932 69.8087C46.2316 69.8087 46.2508 69.7896 46.2891 69.7896C46.3275 69.7896 46.3658 69.7705 46.4042 69.7705C46.5384 69.7322 46.6919 69.694 46.8261 69.6749C46.8453 69.6749 46.8453 69.6749 46.8645 69.6558C46.9988 69.6176 47.133 69.5793 47.2673 69.5411C47.3632 69.522 47.4591 69.4838 47.555 69.4647C47.5741 69.4647 47.6125 69.4456 47.6317 69.4456C47.6508 69.4456 47.6508 69.4456 47.67 69.4264C47.9194 69.35 48.1687 69.2735 48.418 69.1971C48.5523 69.1589 48.6674 69.1015 48.8016 69.0633C48.8591 69.0442 48.9167 69.0251 48.9742 69.006C49.1852 68.9295 49.377 68.8531 49.588 68.7766C49.7798 68.7002 49.9715 68.6237 50.1442 68.5473C50.1633 68.5473 50.1825 68.5282 50.2017 68.5282C50.2209 68.5282 50.2209 68.5282 50.2401 68.509C50.2401 68.509 50.2592 68.509 50.2592 68.4899C50.3935 68.4326 50.5469 68.3561 50.6812 68.2988C50.7579 68.2606 50.8154 68.2415 50.8921 68.2032C50.8921 68.2032 50.9113 68.2032 50.9113 68.1841H50.9305C50.9497 68.165 50.9689 68.165 50.988 68.1459C51.1223 68.0886 51.2757 68.0121 51.41 67.9357C51.4675 67.9166 51.5059 67.8783 51.5634 67.8592C51.6593 67.8019 51.7744 67.7445 51.8703 67.7063C51.8895 67.6872 51.9086 67.6872 51.9278 67.6681C52.0813 67.5917 52.2347 67.4961 52.3881 67.4196C52.5607 67.3241 52.7525 67.2094 52.9252 67.1138C52.9443 67.0947 52.9635 67.0947 52.9827 67.0756C53.1169 66.9992 53.2704 66.9036 53.4046 66.808C53.5581 66.7125 53.7115 66.6169 53.8458 66.5214C53.9033 66.4831 53.98 66.4258 54.0376 66.3876C54.1334 66.3302 54.2293 66.2538 54.3444 66.1964C54.3636 66.1964 54.3636 66.1773 54.3828 66.1773C54.5362 66.0626 54.6896 65.9671 54.8431 65.8524C54.8431 65.8524 54.8623 65.8524 54.8623 65.8333C54.939 65.776 55.0349 65.7186 55.1116 65.6613C55.1308 65.6422 55.1499 65.6231 55.1691 65.6231C55.1883 65.6039 55.2075 65.5848 55.2458 65.5657C55.265 65.5466 55.2842 65.5466 55.3034 65.5275C55.4185 65.451 55.5144 65.3555 55.6294 65.279C55.687 65.2217 55.7637 65.1835 55.8212 65.1261C55.8979 65.0688 55.9747 64.9923 56.0706 64.935C56.0706 64.935 56.0706 64.935 56.0897 64.9159C56.1665 64.8586 56.224 64.8012 56.3007 64.7439C56.3774 64.6865 56.4541 64.6101 56.5309 64.5528C56.55 64.5336 56.5884 64.5145 56.6076 64.4954C56.6651 64.4572 56.7035 64.419 56.761 64.3616C56.8186 64.3234 56.8761 64.2661 56.9144 64.2279C57.0103 64.1323 57.1254 64.0558 57.2213 63.9603C57.2789 63.9029 57.3364 63.8456 57.4131 63.7883C57.509 63.7118 57.5857 63.6354 57.6816 63.5398C57.7583 63.4633 57.8351 63.406 57.9118 63.3296C57.9693 63.2913 58.0077 63.234 58.0652 63.1958C58.0844 63.1767 58.1227 63.1384 58.1419 63.1193C58.1803 63.0811 58.1995 63.062 58.2378 63.0238C58.3529 62.9091 58.468 62.7944 58.583 62.6797C58.6022 62.6606 58.6214 62.6415 58.6214 62.6415C58.6406 62.6224 58.6598 62.6033 58.6789 62.5842C58.9283 62.3357 59.1776 62.0681 59.4078 61.8197C59.4269 61.8006 59.4461 61.7815 59.4653 61.7623C59.4845 61.7432 59.5228 61.705 59.542 61.6859C59.5995 61.6094 59.6763 61.533 59.7338 61.4757C59.8105 61.3801 59.9064 61.2845 59.9831 61.189C60.0023 61.1699 60.0215 61.1507 60.0215 61.1316C60.1749 60.9596 60.3284 60.7685 60.4818 60.5774C60.5393 60.5009 60.5969 60.4436 60.6544 60.3671C60.6928 60.3098 60.7311 60.2716 60.7695 60.2142C60.827 60.1378 60.9037 60.0422 60.9613 59.9658C61.038 59.8702 61.1147 59.7746 61.1722 59.6791C61.3832 59.4115 61.575 59.1248 61.786 58.8572L61.8052 58.8381C61.8243 58.819 61.8435 58.7999 61.8627 58.7617C61.997 58.5706 62.1504 58.3603 62.2846 58.1501C62.3038 58.131 62.323 58.0927 62.3422 58.0736C62.3805 58.0163 62.4189 57.9398 62.4764 57.8825C62.4956 57.8443 62.5148 57.8252 62.534 57.7869C62.6107 57.6723 62.6874 57.5385 62.7833 57.4238C62.8025 57.3856 62.8217 57.3474 62.8408 57.3282C62.9559 57.1371 63.071 56.946 63.1861 56.7549L63.2053 56.7358C63.2244 56.6975 63.2436 56.6593 63.2628 56.6211C63.282 56.602 63.282 56.5829 63.3011 56.5637C63.3203 56.5255 63.3395 56.5064 63.3587 56.4682C63.4929 56.2197 63.6464 55.9904 63.7806 55.7419C63.7998 55.7228 63.7998 55.7037 63.819 55.6654C63.9341 55.4552 64.0491 55.2259 64.1642 54.9965C64.3177 54.7098 64.4711 54.404 64.6053 54.1173C64.6053 54.1173 64.6053 54.1173 64.6053 54.0982C64.7204 53.8498 64.8355 53.6013 64.9506 53.3528C65.0273 53.1999 65.0848 53.047 65.1424 52.9133C65.1424 52.8941 65.1615 52.875 65.1615 52.8559C65.2191 52.7221 65.2766 52.5883 65.3342 52.4546C65.4492 52.2061 65.5451 51.9385 65.641 51.6901C65.6986 51.5372 65.7561 51.3843 65.8136 51.2314C65.8136 51.2122 65.8136 51.2122 65.8328 51.1931C65.8904 51.0402 65.9479 50.9064 65.9863 50.7535C66.0821 50.486 66.1589 50.2375 66.2548 49.9699C66.3123 49.817 66.3507 49.6641 66.4082 49.5112V49.4921C66.4466 49.3392 66.5041 49.1863 66.5425 49.0334C66.6192 48.7658 66.6959 48.4983 66.7726 48.2307C66.811 48.0778 66.8493 47.9249 66.8877 47.772V47.7529C66.926 47.6 66.9644 47.428 67.0028 47.2751C67.0603 47.0075 67.1178 46.7399 67.1754 46.4532C67.2329 46.1283 67.3096 45.8034 67.348 45.4785V45.4594L70.2824 46.587L67.348 45.4594C67.3672 45.3638 67.3863 45.2683 67.3863 45.1727C67.3863 45.1154 67.4055 45.058 67.4055 45.0007C67.4247 44.8669 67.4439 44.7331 67.4631 44.5993C67.4822 44.4273 67.5014 44.2553 67.5206 44.0833C67.5398 43.9113 67.559 43.7393 67.5781 43.5864C67.5973 43.2997 67.6357 43.0321 67.6548 42.7454V42.7263C67.674 42.5543 67.674 42.3823 67.6932 42.2103V42.1911C67.6932 42.0191 67.7124 41.8471 67.7124 41.6751C67.7124 41.5413 67.7124 41.4075 67.7316 41.2737C67.7316 41.2546 67.7316 41.2355 67.7316 41.2164C67.7316 41.0826 67.7316 40.9297 67.7316 40.7959C67.7316 40.6239 67.7316 40.4328 67.7316 40.2608C67.7316 40.0888 67.7316 39.8976 67.7124 39.7256C67.7124 39.5727 67.6932 39.4389 67.6932 39.286C67.6932 39.2669 67.6932 39.2669 67.6932 39.2478C67.6932 39.114 67.674 38.9611 67.674 38.8273C67.6548 38.6362 67.6548 38.4642 67.6357 38.2731C67.6165 38.082 67.5973 37.9099 67.5781 37.7379C67.559 37.585 67.5398 37.4321 67.5206 37.2792C67.5206 37.2601 67.5206 37.2601 67.5206 37.241C67.5014 37.0881 67.4822 36.9543 67.4631 36.8014C67.4439 36.6103 67.4055 36.4192 67.3672 36.228V36.2089C67.3288 36.0178 67.3096 35.8458 67.2713 35.6547C67.2329 35.5018 67.2137 35.3298 67.1754 35.1769C67.137 35.024 67.0987 34.8519 67.0603 34.699C67.0219 34.5079 66.9644 34.3168 66.9069 34.1257C66.9069 34.1066 66.9069 34.1066 66.8877 34.0874C66.8301 33.8963 66.7918 33.7052 66.7342 33.5141C66.6767 33.3421 66.6383 33.1892 66.5808 33.0171C66.5808 33.0171 66.5808 33.0171 66.5808 32.998C66.5233 32.826 66.4657 32.6731 66.4082 32.5011C66.2548 32.0806 66.1013 31.6602 65.9287 31.2397C65.852 31.0677 65.7753 30.8957 65.6986 30.7236C65.6986 30.7045 65.6794 30.7045 65.6794 30.6854C65.6027 30.5134 65.5259 30.3414 65.4301 30.1694C65.4109 30.1312 65.3917 30.112 65.3725 30.0738C65.315 29.9783 65.2766 29.8827 65.2191 29.7871C65.1807 29.7298 65.1615 29.6725 65.1232 29.6151C65.0848 29.5578 65.0465 29.4813 65.0081 29.424C64.9697 29.3475 64.9314 29.2902 64.893 29.2138C64.8547 29.1564 64.8355 29.1182 64.7971 29.0609C64.7588 28.9844 64.7012 28.908 64.6629 28.8315C64.6053 28.7359 64.5478 28.6213 64.4711 28.5257C64.4327 28.4684 64.3944 28.411 64.356 28.3537C64.3177 28.2964 64.2793 28.239 64.2409 28.1626C64.2026 28.1052 64.1642 28.0479 64.1259 27.9906C64.0683 27.9141 64.0108 27.8377 63.9724 27.7612C63.9532 27.723 63.9149 27.6848 63.8957 27.6465C63.7998 27.5127 63.7039 27.379 63.608 27.2643L63.5888 27.2452C63.4929 27.1305 63.397 26.9967 63.3011 26.882C63.0902 26.6336 62.8792 26.3851 62.6682 26.1366L64.9697 27.0158L62.6682 26.1366C62.5532 26.0029 62.4381 25.8882 62.323 25.7735L62.3038 25.7544C62.1888 25.6397 62.0737 25.525 61.9586 25.4104C61.9586 25.4104 61.9586 25.4104 61.9394 25.3913C61.8243 25.2766 61.6901 25.1619 61.575 25.0472C61.4408 24.9326 61.3257 24.8179 61.1914 24.7032C61.1147 24.6459 61.0572 24.5694 60.9805 24.5121C60.8462 24.3974 60.7119 24.2827 60.5777 24.1872C60.501 24.1298 60.4434 24.0725 60.3667 24.0343C60.3092 23.9769 60.2325 23.9387 60.1749 23.8814C60.079 23.8049 59.9831 23.7476 59.8872 23.6711C59.8489 23.652 59.8105 23.6138 59.7722 23.5947C59.6571 23.5182 59.542 23.4418 59.4269 23.3653C59.4078 23.3462 59.3886 23.3271 59.3694 23.3271C59.2351 23.2507 59.1009 23.1551 58.9858 23.0786L58.9666 23.0595C58.8324 22.9831 58.6981 22.8875 58.5447 22.8111C58.257 22.6582 57.298 22.1804 57.0103 22.0466C59.5995 23.0404 62.0737 24.1107 64.3177 25.7162C73.2744 32.826 73.6388 48.2307 65.3917 59.8511ZM69.9947 49.2245C69.918 49.4921 69.8605 49.7597 69.7838 50.0273C69.8413 49.7597 69.918 49.4921 69.9947 49.2245Z" fill="#FCA463"/>
<path fill-rule="evenodd" clip-rule="evenodd" d="M46.0014 83.6843C46.0014 83.6843 45.3877 83.5314 44.4095 83.6079C43.6999 83.6461 43.6807 84.0666 43.3547 83.4359C43.0286 82.8052 39.6914 78.8489 33.3047 78.3711C33.3047 78.3711 30.2936 77.9315 29.488 80.3205C29.1812 81.8878 30.3511 82.098 31.0607 82.4803C31.7704 82.8625 33.6691 83.9901 34.7623 84.7929C35.8555 85.5956 39.8065 88.7492 39.8065 88.7492C39.8065 88.7492 46.6151 88.9403 46.0014 83.6843Z" fill="#895446"/>
<path fill-rule="evenodd" clip-rule="evenodd" d="M39.1929 88.883C39.1929 88.883 36.2393 89.571 32.3267 87.8318C28.4141 86.0925 23.6193 87.4686 22.0658 88.2905C20.5122 89.1123 20.8383 90.7178 21.2602 91.4823C21.6822 92.2468 30.543 92.7628 33.4391 91.7881C36.3352 90.7942 39.1929 88.883 39.1929 88.883Z" fill="#895446"/>
<path fill-rule="evenodd" clip-rule="evenodd" d="M83.6504 71.5479L88.6754 66.9609C89.3083 66.3684 90.344 66.7507 90.4591 67.6107L90.9769 71.8919C91.0153 72.2551 91.3221 72.5227 91.6865 72.5227L99.3007 72.6373C99.9336 72.6564 100.26 73.4018 99.8186 73.8605L95.2922 78.5813C94.947 78.9445 95.0621 79.5561 95.5224 79.7472L98.3034 80.9322C98.687 81.1042 98.8596 81.5629 98.6678 81.926L97.5938 84.0284C97.3828 84.4489 97.6129 84.9458 98.0541 85.0605L101.142 85.8441C101.756 85.997 101.89 86.8188 101.353 87.1628C100.893 87.4495 100.893 88.1185 101.353 88.386L104.652 90.3928C105.208 90.7369 105.074 91.5778 104.422 91.7116C101.871 92.2467 99.7227 93.1068 91.6482 95.6488C83.5737 98.1907 79.5652 98.8979 71.7592 98.8979C63.9533 98.8979 56.1473 99.7388 52.4649 99.433C48.7825 99.1272 44.0835 98.0569 38.8476 98.1907C33.6308 98.3245 29.8909 98.8406 27.4934 98.0378C25.096 97.2351 20.9533 97.2924 17.6928 97.2924C14.4323 97.2924 14.6625 94.9416 15.6406 93.642C16.6188 92.3423 19.8025 91.2529 22.1424 90.9853C24.4823 90.7178 27.8578 91.4249 36.0474 89.5519C44.237 87.6789 44.2178 86.6468 45.6371 84.296C47.0563 81.9451 47.6317 82.0216 46.385 81.0851C45.1384 80.1485 43.0287 78.868 39.96 78.3902C36.8913 77.9124 33.2664 75.81 32.0389 75.3513C30.8115 74.8926 25.0768 73.8988 23.9069 72.1213C22.737 70.3438 22.315 69.3118 23.6384 67.6681C24.9618 66.0435 25.1536 65.5084 28.7976 65.2599C32.4417 65.0306 35.7597 66.3684 40.6504 68.2415C44.5247 69.6749 46.7303 70.21 48.6482 70.4203C50.5661 70.6305 53.2129 70.8408 53.9033 71.0128C54.5938 71.1848 54.5938 71.2039 55.5336 70.9554C56.4734 70.6879 62.4381 69.4455 68.0385 71.9302C73.658 74.4148 72.5648 74.625 77.3021 74.7779C82.0393 74.9499 83.6504 71.5479 83.6504 71.5479Z" fill="#A16552"/>
</g>
<defs>
<linearGradient id="paint0_linear_492_205040" x1="39.1019" y1="65.662" x2="54.6382" y2="25.8966" gradientUnits="userSpaceOnUse">
<stop offset="0.0172918" stop-color="#FFFCF3" stop-opacity="0.1"/>
<stop offset="0.3468" stop-color="white" stop-opacity="0.4"/>
<stop offset="1" stop-color="#FFFCF3" stop-opacity="0.1"/>
</linearGradient>
<clipPath id="clip0_492_205040">
<rect width="90" height="90" fill="white" transform="matrix(-1 0 0 1 105 15)"/>
</clipPath>
</defs>
</svg>
