<svg width="420" height="121" viewBox="0 0 420 121" fill="none" xmlns="http://www.w3.org/2000/svg">
<g clip-path="url(#clip0_533_205522)">
<g clip-path="url(#clip1_533_205522)">
<path d="M-125.081 -2.71985H501.519V124.56H-125.081V-2.71985Z" fill="#FFDAB9"/>
<path style="mix-blend-mode:multiply" opacity="0.2" d="M141.999 124.56H103.359V-2.71985H170.559C179.559 41.0402 169.719 91.4002 141.999 124.56Z" fill="url(#paint0_radial_533_205522)"/>
<g style="mix-blend-mode:multiply" opacity="0.26">
<path d="M172.039 125.52H-61.801V-3.67981H198.319C206.999 39.4002 194.919 89.0402 172.039 125.52Z" fill="#3A3333"/>
</g>
<path d="M163.719 125.52H-125.121V-3.67993H196.199C206.999 40.3201 191.679 89.2001 163.719 125.52Z" fill="url(#paint1_radial_533_205522)"/>
<path opacity="0.2" d="M198.239 124.56C197.479 122.2 192.159 111.64 199.759 110.04C205.399 109.16 224.919 108.48 224.359 114.96C223.359 117.16 221.279 124.56 221.279 124.56H198.239Z" fill="#DD8B7A"/>
<path d="M147.24 124.56H-99.0003V-2.71985H176.76C184.84 39.6802 172.64 92.3602 147.24 124.56Z" fill="url(#paint2_linear_533_205522)"/>
<path d="M137.639 124.56H-125.121V-2.71985H169.999C178.879 40.0802 165.399 92.4002 137.639 124.56Z" fill="url(#paint3_linear_533_205522)"/>
<g style="mix-blend-mode:lighten" opacity="0.19">
<path d="M-99.8006 -1.07983C-85.2006 -1.07983 -72.2005 -1.07983 -60.4805 4.72017C-23.4405 14.2402 8.79943 -9.31983 48.0394 4.16017C63.8794 10.8002 81.9594 9.08017 100.999 5.00017C120.039 0.920166 161.599 10.8002 167.319 11.9602C173.039 13.1202 188.559 16.9202 188.559 16.9202V25.5202C180.879 5.48017 112.879 43.4002 80.3994 25.6002C44.2394 17.4802 54.6794 4.72017 22.9594 6.16017C-8.76056 7.60017 -11.0005 14.8402 -29.0805 18.4802C-82.7605 29.6402 -79.5206 -9.71984 -134.401 20.4002V7.32017C-134.401 7.32017 -114.401 -1.07983 -99.8006 -1.07983ZM85.9994 18.3602C91.7194 19.7202 105.559 23.5602 113.679 23.4002C121.799 23.2402 135.679 21.0402 137.799 19.0402C139.919 17.0402 142.479 14.9602 137.279 14.1202C132.079 13.2802 131.759 10.9202 117.199 10.5202C105.799 9.68017 75.7594 15.5202 85.9994 18.3602Z" fill="#FDFFFF"/>
<path d="M-128.361 54.4402C-116.481 57.9202 -71.2409 45.0002 -58.8809 46.5202C-54.2409 47.0802 -28.0009 52.4802 -8.5609 44.8402C10.8791 37.2002 41.4391 46.5202 55.9591 49.3602C94.8791 57.2802 149.079 66.4802 182.199 48.5202V57.2402C119.999 83.2802 101.799 46.7602 42.9991 65.1602C-33.2009 100 -16.7609 55.8402 -66.2809 57.2402C-102.961 58.2002 -136.321 80.9602 -128.361 54.4402ZM-26.3209 62.9202C-23.4009 66.8402 -20.2809 66.2802 -11.2009 69.5202C-2.12089 72.7602 1.47909 68.4002 9.47909 68.2802C17.4791 68.1602 19.6791 65.1602 22.1591 62.6402C24.6391 60.1202 36.0391 56.9602 38.3591 55.2002C40.6791 53.4402 37.1191 52.8802 30.7191 53.6002C17.7991 55.3202 14.9591 51.2802 0.679088 51.3202C-7.96091 52.1602 -12.2809 58.9602 -17.0409 59.2402C-24.4809 59.6402 -29.2409 58.9602 -26.3209 62.9202V62.9202Z" fill="#FDFFFF"/>
<path d="M170.879 93.4402C162.359 82.2402 101.559 95.6002 90.3195 96.9602C74.3195 98.4002 36.2795 98.6802 16.4795 95.2002C-3.32052 91.7202 -13.2405 84.6402 -39.4805 89.0402C-71.8805 94.7202 -112.121 120.52 -134.08 108.64V121.2C-83.5205 123.44 -55.9205 83.2802 4.95948 101.32C43.0395 114.8 79.7595 113.64 116.199 104.4C144.479 92.7602 174.839 116.8 170.879 93.4402Z" fill="#FDFFFF"/>
</g>
<g style="mix-blend-mode:multiply" opacity="0.15">
<path d="M-1.67991 65.4801C-5.63991 58.2001 -7.71992 60.7201 -2.63992 54.2001C0.400083 54.1201 0.960073 53.8801 3.20007 56.2001L-1.67991 65.4801Z" fill="#155784"/>
<path d="M3.9598 54.7601C1.6398 52.3201 1.3598 52.3201 -1.8402 52.4801L-0.0401979 47.7201C3.1998 47.2001 5.99977 47.1201 9.07977 48.4401L3.9598 54.7601Z" fill="#155784"/>
<path d="M-5.59993 34.3601C-5.99993 34.4001 -8.27991 35.9201 -8.27991 35.9201C-3.31991 37.1601 -1.19993 35.7201 3.20007 34.1201L2.40007 33.2401L-5.59993 34.3601Z" fill="#155784"/>
<path d="M-5.95992 45.4401C-2.35992 38.6001 -3.87993 38.2801 3.88007 35.4801C3.88007 35.4801 15.1201 41.8801 14.9601 41.9201C14.8001 41.9601 10.8001 47.1201 10.6001 46.7601C10.4001 46.4001 5.08007 44.8401 5.08007 44.8401C2.76007 45.4401 -3.59992 45.6801 -5.95992 45.4401Z" fill="#155784"/>
<path d="M-11.2406 27.5201L-7.00066 29.6401L-5.80066 32.6801L1.43933 32.2401L-2.08064 25.5601L-6.56067 23.6801L-11.2406 27.5201Z" fill="#155784"/>
<path d="M16.3198 40.4001L10.6398 37.0001C15.6398 34.4001 23.9598 26.4401 30.0398 29.1201L16.3198 40.4001Z" fill="#155784"/>
<path d="M31.1598 27.7201L27.2798 27.0001C31.7998 21.3201 29.0398 19.9601 35.7998 23.4801L31.1598 27.7201Z" fill="#155784"/>
<path d="M25.4798 26.68L29.1198 20.8C23.4798 20.56 20.0398 21.56 14.9598 23.72V28.96C19.9198 29.8 21.2398 28.76 25.4798 26.68Z" fill="#155784"/>
<path d="M18.4794 30.6001C14.8794 29.2801 7.59937 31.7201 4.19937 32.6801C4.51937 34.5201 7.71935 35.6401 9.07935 36.4001L18.4794 30.6001Z" fill="#155784"/>
<path d="M13.1198 28.56V23.88L0.239807 25.32C4.35981 34.48 2.19981 31 13.1198 28.56Z" fill="#155784"/>
<path d="M36.9998 22.28L32.5598 20.16L37.7198 14.24L43.2398 12.12L45.1598 13.28L36.9998 22.28Z" fill="#155784"/>
<path d="M45.1598 12.48C42.4398 11.28 43.2398 10.24 42.8798 7.80005L46.1998 8.52005C46.5598 10.52 46.5198 10.96 45.1598 12.48Z" fill="#155784"/>
<path d="M42.4393 11.5601L41.8393 7.52014C41.8393 7.52014 34.7593 7.92014 34.6793 7.80014C34.5993 7.68014 33.3993 10.4401 33.3993 10.4401L37.3993 13.1201L42.4393 11.5601Z" fill="#155784"/>
<path d="M31.1198 19.4401L36.1598 13.8801L32.2398 11.3201L22.7998 12.9201L22.1998 19.8001L31.1198 19.4401Z" fill="#155784"/>
<path d="M32.7198 8C32.5654 8.78442 32.3651 9.55909 32.1198 10.32L22.6398 11.88L21.8398 9.96L32.7198 8Z" fill="#155784"/>
<path d="M-4.64065 22.3599L-0.88064 24.1599L12.4393 22.5999L10.8393 15.9599L8.19934 14.7999L-4.64065 22.3599Z" fill="#155784"/>
<path d="M20.9201 20.2001L14.2801 22.2801L13.1201 18.2801L21.2001 15.6801L20.9201 20.2001Z" fill="#155784"/>
<path d="M21.0398 14.3601C21.3198 13.2801 20.9998 11.3201 20.5198 10.3201L10.4398 14.0801C11.5598 14.7601 12.5998 15.7201 12.8798 17.0401L21.0398 14.3601Z" fill="#155784"/>
<path d="M-7.6406 101.6L-12.8406 107.12C-11.8406 111 -12.7606 112.52 -8.8406 114.8L-1.0406 111.36L0.47937 107.8L-7.6406 101.6Z" fill="#0E3772"/>
<path d="M-0.359841 113.72C-8.43984 117.32 -7.19984 116.32 -10.7598 124.32C-6.83984 126.6 1.60017 130.76 6.00017 131.8C9.64017 118.88 8.04016 123.72 -0.359841 113.72Z" fill="#0E3772"/>
<path d="M2.27979 108.8L0.639796 112.04L8.75981 120.64C12.7598 119.68 13.4398 119.84 15.7998 116.16L2.27979 108.8Z" fill="#0E3772"/>
<path d="M17.4001 116.8L16.1201 119.8L25.3201 126.04C25.9601 130.92 26.0401 129.16 30.1601 129L34.2401 123.12L17.4001 116.8Z" fill="#0E3772"/>
<path d="M68.4794 125.4C68.4394 119.16 68.0794 118.24 64.6394 113.08L55.3594 120.64L55.1594 125.4C55.4394 125.12 69.1994 126.8 68.4794 125.4Z" fill="#2B7AC9"/>
<path d="M53.3198 125.2L53.7198 120.32L36.6398 116.52L29.8398 119.56C35.0398 121.12 48.0398 124.84 53.3198 125.2Z" fill="#2B7AC9"/>
<path d="M54.3198 119L59.9998 114.68C54.5998 114.04 43.7598 112.32 38.4398 111.28L37.3598 115.12L54.3198 119Z" fill="#2B7AC9"/>
<path d="M63.3202 111.92C62.4802 115.04 40.8802 109.56 38.9602 109.64L39.5202 101.84C42.6402 103.16 61.2002 109.68 63.3202 111.92Z" fill="#2B7AC9"/>
<path d="M-1.03992 69.4801C-1.15992 69.7201 -7.03992 71.9601 -7.03992 71.9601L-5.19993 76.7201L3.20007 74.0801L-1.03992 69.4801Z" fill="#2B7AC9"/>
<path d="M4.04014 75.64C3.48014 75.76 -5.59985 78.44 -5.59985 78.44L-7.43984 82.08C2.92016 87.08 0.720151 86.24 11.2802 82.64L4.04014 75.64Z" fill="#2B7AC9"/>
<path d="M0.119812 87.96L-7.28019 84.48L-9.92023 85.72L-6.72023 91.64L0.119812 87.96Z" fill="#2B7AC9"/>
<path d="M12.3198 84.04L3.83981 87.28L15.7998 92.28L21.8798 90.96L12.3198 84.04Z" fill="#2B7AC9"/>
<path d="M37.9598 101.04L37.0398 107.72C29.0398 103.08 28.2398 106.84 31.5598 97.8L37.9598 101.04Z" fill="#2B7AC9"/>
<path d="M29.8398 97.08C29.8398 97.08 27.6798 102.64 27.1998 102.52C26.7198 102.4 16.9998 93.88 16.9998 93.88C25.3198 91.32 23.1198 92.64 29.8398 97.08Z" fill="#2B7AC9"/>
<path d="M37.0398 109.68C35.4398 116.56 34.8798 114.84 29.1998 117.88L24.9198 114.44L25.8398 104.4L37.0398 109.68Z" fill="#2B7AC9"/>
<path d="M27.5995 119C23.5995 114.72 24.1595 115.48 18.5595 115.88L27.5995 119Z" fill="#2B7AC9"/>
<path d="M23.3998 114C24.1598 108.2 23.2398 109.92 18.9998 107.04L13.9598 110L13.2798 113.36C17.8798 116.12 18.6398 114.92 23.3998 114Z" fill="#2B7AC9"/>
<path d="M23.6794 107.04L24.5594 102.52L15.5194 95.08L11.2794 103.96L13.2794 108.2C18.3994 106.16 18.1194 104.48 23.6794 107.04Z" fill="#2B7AC9"/>
<path d="M11.2794 112.32C13.0394 108.88 11.3194 107.8 10.1194 104.84L-1.56065 100.24L-3.20064 103.2L11.2794 112.32Z" fill="#2B7AC9"/>
<path d="M9.91936 103.04L13.4393 95.0801L-0.0806388 94.0001L-0.960668 98.9601L9.91936 103.04Z" fill="#2B7AC9"/>
<path d="M13.4398 94L13.8798 93.08L3.19982 88.52L-1.60018 90.28L-0.0801638 92.72L13.4398 94Z" fill="#2B7AC9"/>
<path d="M69.4398 123.92C69.2357 122.02 69.1289 120.111 69.1198 118.2C71.2798 118.36 78.3598 118.64 80.3198 119.24C81.9198 121.08 82.8398 121.6 82.4798 124.28L69.4398 123.92Z" fill="#0E3772"/>
</g>
<path d="M172.879 -28.7599C210.119 -29.4399 198.239 -30.8799 204.039 3.40013C204.799 8.80013 179.199 8.04013 177.119 9.60013C171.559 9.72013 172.879 -26.7999 171.719 -28.7599H172.879Z" fill="url(#paint4_linear_533_205522)"/>
<path d="M202.319 9.60012C196.159 9.84012 184.399 11.8001 178.039 11.9201C175.879 11.4801 175.999 11.7601 175.839 14.6801C175.959 20.5201 176.039 31.6801 175.119 36.4801C177.759 41.4001 197.319 40.0001 200.759 40.2801C205.239 40.1601 201.999 22.0401 202.999 19.0001C203.159 17.6801 203.239 9.56012 202.319 9.60012Z" fill="url(#paint5_linear_533_205522)"/>
<path d="M200.119 43.5201C196.599 43.2001 184.319 42.6401 180.759 42.2801C178.919 42.2401 175.999 40.4401 174.959 42.4801C174.399 46.0001 173.239 58.4401 172.599 61.8001C176.319 68.1202 192.479 60.0001 197.839 60.0401C198.239 59.0801 201.079 44.2001 200.119 43.5201Z" fill="url(#paint6_linear_533_205522)"/>
<path d="M197.199 62.1602C195.239 62.3202 184.439 65.0802 181.919 65.8802C179.079 67.3202 187.039 68.0402 188.079 69.2002C189.759 69.7602 195.159 74.7602 195.439 71.9602C195.399 71.0402 197.639 62.2002 197.199 62.1602Z" fill="url(#paint7_linear_533_205522)"/>
<path d="M194.039 77.6001C194.999 74.4801 193.959 75.0001 190.959 73.6801C188.039 71.6801 182.679 69.4801 179.319 68.5201C178.119 68.2801 173.719 64.5601 172.599 64.9601C171.479 65.3601 164.679 87.7201 165.039 90.7601C168.559 90.1201 175.319 94.2801 178.719 95.5601C180.999 96.5201 185.759 104.84 187.479 98.9201C188.559 94.8401 193.119 81.6401 194.039 77.6001Z" fill="url(#paint8_linear_533_205522)"/>
<path d="M184.719 105.56C186.159 102.76 183.519 102.52 181.999 101.04C177.999 96.6401 169.799 93.9601 164.119 92.8801C161.759 94.2801 157.839 107.16 156.359 109.96C156.919 112.96 163.719 114.04 166.359 115.32C170.439 116.6 173.719 120.8 177.159 121.64C179.119 119 183.759 108.76 184.719 105.56Z" fill="url(#paint9_linear_533_205522)"/>
<path d="M154.919 113.24C155.919 112.92 155.639 112.72 156.719 113.88C159.039 115.4 162.679 116.24 165.519 117.32C166.999 117.92 170.639 119.52 168.639 120.12C163.159 120.44 163.279 125.52 157.239 122.92C154.879 122.28 151.479 123.48 149.959 121.64C150.999 120.32 153.719 114.16 154.919 113.24Z" fill="url(#paint10_linear_533_205522)"/>
<path d="M176.239 124.2C176.719 122.96 175.759 122.56 174.599 122.2C173.439 121.84 172.799 121.08 171.799 120.96C170.799 120.84 169.239 121.92 167.919 121.84C166.599 121.76 163.559 123.68 164.239 124.92C164.919 126.16 164.199 125.44 166.119 126.16C174.359 130 171.079 133.28 176.239 124.2Z" fill="url(#paint11_linear_533_205522)"/>
<path opacity="0.1" d="M224.079 -2.71985C221.359 0.160151 201.119 10.0002 208.919 19.0001C210.879 21.9201 218.239 41.7601 220.919 43.2401C223.599 44.7201 233.519 45.2001 236.639 43.2401C245.599 33.8001 266.559 7.72015 272.199 -2.71985H224.079Z" fill="#DD8B7A"/>
<path opacity="0.1" d="M288.799 104.2C292.159 101.88 299.079 96.7201 300.079 92.6401C301.079 88.5601 304.479 79.6001 301.799 75.4001C299.119 71.2001 277.679 66.9201 273.639 66.0401C265.279 62.5601 253.039 75.4801 256.639 82.4401C258.479 84.6401 274.119 105.28 276.319 105.6C278.519 105.92 285.919 106.2 288.799 104.2Z" fill="#DD8B7A"/>
<path style="mix-blend-mode:lighten" opacity="0.2" d="M192.32 124.56L242.24 -2.71985H294L244.84 124.56H192.32Z" fill="url(#paint12_linear_533_205522)"/>
<path style="mix-blend-mode:lighten" opacity="0.2" d="M268.68 124.56L319 -2.71985H335.88L284.12 124.56H268.68Z" fill="url(#paint13_linear_533_205522)"/>
</g>
</g>
<defs>
<radialGradient id="paint0_radial_533_205522" cx="0" cy="0" r="1" gradientUnits="userSpaceOnUse" gradientTransform="translate(-19.353 25.1122) rotate(180) scale(190.416)">
<stop stop-color="#1D1D1B" stop-opacity="0"/>
<stop offset="0.56" stop-color="#1D1D1B"/>
<stop offset="0.71" stop-color="#1F1D1B"/>
<stop offset="0.76" stop-color="#261C1C"/>
<stop offset="0.79" stop-color="#311B1D"/>
<stop offset="0.82" stop-color="#421A1E"/>
<stop offset="0.85" stop-color="#581721"/>
<stop offset="0.86" stop-color="#681622"/>
<stop offset="0.92" stop-color="#681622" stop-opacity="0.98"/>
<stop offset="0.95" stop-color="#691620" stop-opacity="0.92"/>
<stop offset="0.96" stop-color="#6B161E" stop-opacity="0.8"/>
<stop offset="0.97" stop-color="#6E161A" stop-opacity="0.64"/>
<stop offset="0.99" stop-color="#751610" stop-opacity="0.17"/>
<stop offset="1" stop-color="#78160C" stop-opacity="0"/>
</radialGradient>
<radialGradient id="paint1_radial_533_205522" cx="0" cy="0" r="1" gradientUnits="userSpaceOnUse" gradientTransform="translate(40.8807 29.3459) rotate(1.39718) scale(157.27 152.19)">
<stop stop-color="#F4868C"/>
<stop offset="0.11" stop-color="#EE928F"/>
<stop offset="0.35" stop-color="#E5A494"/>
<stop offset="0.59" stop-color="#E0AF97"/>
<stop offset="0.86" stop-color="#DEB398"/>
<stop offset="0.87" stop-color="#E2B89C"/>
<stop offset="0.89" stop-color="#EBC5A6"/>
<stop offset="0.92" stop-color="#EEC9A9"/>
<stop offset="0.96" stop-color="#EDC9A9"/>
<stop offset="0.98" stop-color="#ECC7A8"/>
<stop offset="0.99" stop-color="#E7C0A2"/>
<stop offset="1" stop-color="#DEB398"/>
</radialGradient>
<linearGradient id="paint2_linear_533_205522" x1="179.244" y1="60.9282" x2="-98.9963" y2="60.9282" gradientUnits="userSpaceOnUse">
<stop stop-color="#0077B6"/>
<stop offset="0.11" stop-color="#0096C7"/>
<stop offset="0.32" stop-color="#00B4D8"/>
</linearGradient>
<linearGradient id="paint3_linear_533_205522" x1="172.719" y1="60.9282" x2="-125.109" y2="60.9282" gradientUnits="userSpaceOnUse">
<stop stop-color="#0096C7"/>
<stop offset="0.32" stop-color="#00B4D8"/>
<stop offset="0.97" stop-color="#0077B6"/>
</linearGradient>
<linearGradient id="paint4_linear_533_205522" x1="203.387" y1="-11.7799" x2="171.203" y2="-9.34388" gradientUnits="userSpaceOnUse">
<stop stop-color="#F4978E"/>
<stop offset="0.11" stop-color="#F4918D"/>
<stop offset="0.2" stop-color="#F4868C"/>
<stop offset="0.27" stop-color="#F4868C"/>
<stop offset="0.77" stop-color="#F4868C"/>
<stop offset="1" stop-color="#F4978E"/>
</linearGradient>
<linearGradient id="paint5_linear_533_205522" x1="203.203" y1="24.9441" x2="175.135" y2="24.9441" gradientUnits="userSpaceOnUse">
<stop stop-color="#F4978E"/>
<stop offset="0.16" stop-color="#F4868C"/>
<stop offset="0.23" stop-color="#F4868C"/>
<stop offset="0.8" stop-color="#F4868C"/>
<stop offset="0.81" stop-color="#F4888C"/>
<stop offset="1" stop-color="#F4978E"/>
</linearGradient>
<linearGradient id="paint6_linear_533_205522" x1="199.639" y1="55.0682" x2="173.143" y2="52.1442" gradientUnits="userSpaceOnUse">
<stop stop-color="#F4978E"/>
<stop offset="0.16" stop-color="#F4868C"/>
<stop offset="0.23" stop-color="#F4868C"/>
<stop offset="0.8" stop-color="#F4868C"/>
<stop offset="0.81" stop-color="#F4888C"/>
<stop offset="1" stop-color="#F4978E"/>
</linearGradient>
<linearGradient id="paint7_linear_533_205522" x1="198.231" y1="68.2682" x2="165.515" y2="57.6482" gradientUnits="userSpaceOnUse">
<stop stop-color="#F4868C"/>
<stop offset="0.55" stop-color="#F4978E"/>
<stop offset="1" stop-color="#F4868C"/>
</linearGradient>
<linearGradient id="paint8_linear_533_205522" x1="191.843" y1="88.9961" x2="166.895" y2="77.0361" gradientUnits="userSpaceOnUse">
<stop stop-color="#F4978E"/>
<stop offset="0.16" stop-color="#F4868C"/>
<stop offset="0.23" stop-color="#F4868C"/>
<stop offset="0.8" stop-color="#F4868C"/>
<stop offset="0.81" stop-color="#F4888C"/>
<stop offset="1" stop-color="#F4978E"/>
</linearGradient>
<linearGradient id="paint9_linear_533_205522" x1="182.863" y1="111.564" x2="158.787" y2="102.276" gradientUnits="userSpaceOnUse">
<stop stop-color="#F4978E"/>
<stop offset="0.16" stop-color="#F4868C"/>
<stop offset="0.23" stop-color="#F4868C"/>
<stop offset="0.8" stop-color="#F4868C"/>
<stop offset="0.81" stop-color="#F4888C"/>
<stop offset="1" stop-color="#F4978E"/>
</linearGradient>
<linearGradient id="paint10_linear_533_205522" x1="151.163" y1="116.78" x2="181.271" y2="129.212" gradientUnits="userSpaceOnUse">
<stop stop-color="#F4868C"/>
<stop offset="0.55" stop-color="#F4978E"/>
<stop offset="1" stop-color="#F4868C"/>
</linearGradient>
<linearGradient id="paint11_linear_533_205522" x1="175.427" y1="126.872" x2="157.147" y2="119.216" gradientUnits="userSpaceOnUse">
<stop stop-color="#F4868C"/>
<stop offset="0.55" stop-color="#F4978E"/>
<stop offset="1" stop-color="#F4868C"/>
</linearGradient>
<linearGradient id="paint12_linear_533_205522" x1="271" y1="-4.39585" x2="216.66" y2="124.844" gradientUnits="userSpaceOnUse">
<stop stop-color="white"/>
<stop offset="1" stop-color="#F6F6F6" stop-opacity="0"/>
</linearGradient>
<linearGradient id="paint13_linear_533_205522" x1="327.048" y1="-2.55185" x2="277.48" y2="124.48" gradientUnits="userSpaceOnUse">
<stop stop-color="white"/>
<stop offset="1" stop-color="#F6F6F6" stop-opacity="0"/>
</linearGradient>
<clipPath id="clip0_533_205522">
<rect x="-0.00012207" y="0.960083" width="420" height="120" rx="10" fill="white"/>
</clipPath>
<clipPath id="clip1_533_205522">
<rect width="420" height="120" fill="white" transform="matrix(-1 0 0 1 420 0.960083)"/>
</clipPath>
</defs>
</svg>
