<svg width="60" height="76" viewBox="0 0 60 76" fill="none" xmlns="http://www.w3.org/2000/svg">
<g opacity="0.9">
<path d="M31.9415 0.656118C30.9518 -0.215614 29.4673 -0.215614 28.4776 0.656118C22.6061 5.80215 3.82129 24.0523 3.82129 46.9235C3.82129 74.0315 25.756 76 30.2095 76C34.6631 76 56.5977 74.0315 56.5977 46.9235C56.5882 24.0523 37.8129 5.80215 31.9415 0.656118ZM41.9334 49.3512H34.311V57.5436C34.311 59.1371 32.9977 60.4307 31.38 60.4307H29.039C27.4213 60.4307 26.1081 59.1371 26.1081 57.5436V49.3512H18.4856C16.8679 49.3512 15.5547 48.0577 15.5547 46.4642V44.074C15.5547 42.4805 16.8679 41.1869 18.4856 41.1869H26.1081V32.9945C26.1081 31.4011 27.4213 30.1075 29.039 30.1075H31.38C32.9977 30.1075 34.311 31.4011 34.311 32.9945V41.1869H41.9334C43.5511 41.1869 44.8644 42.4805 44.8644 44.074V46.4642C44.8644 48.0577 43.5511 49.3512 41.9334 49.3512Z" fill="#FDFBF5"/>
<g opacity="0.5" filter="url(#filter0_d_1550_90043)">
<path d="M29.0293 60.4213H31.3702C32.988 60.4213 34.3012 59.1277 34.3012 57.5343V49.3419H41.9236C43.5414 49.3419 44.8546 48.0483 44.8546 46.4548V44.0646C44.8546 42.4711 43.5414 41.1776 41.9236 41.1776H34.3012V32.9852C34.3012 31.3917 32.988 30.0981 31.3702 30.0981H29.0293C27.4115 30.0981 26.0983 31.3917 26.0983 32.9852V41.1776H18.4759C16.8581 41.1776 15.5449 42.4711 15.5449 44.0646V46.4548C15.5449 48.0483 16.8581 49.3419 18.4759 49.3419H26.0983V57.5343C26.0983 59.1277 27.4115 60.4213 29.0293 60.4213Z" fill="#282828"/>
</g>
</g>
<defs>
<filter id="filter0_d_1550_90043" x="5.54492" y="20.0981" width="49.3096" height="50.3231" filterUnits="userSpaceOnUse" color-interpolation-filters="sRGB">
<feFlood flood-opacity="0" result="BackgroundImageFix"/>
<feColorMatrix in="SourceAlpha" type="matrix" values="0 0 0 0 0 0 0 0 0 0 0 0 0 0 0 0 0 0 127 0" result="hardAlpha"/>
<feOffset/>
<feGaussianBlur stdDeviation="5"/>
<feColorMatrix type="matrix" values="0 0 0 0 0 0 0 0 0 0 0 0 0 0 0 0 0 0 1 0"/>
<feBlend mode="normal" in2="BackgroundImageFix" result="effect1_dropShadow_1550_90043"/>
<feBlend mode="normal" in="SourceGraphic" in2="effect1_dropShadow_1550_90043" result="shape"/>
</filter>
</defs>
</svg>
