<svg width="25" height="25" viewBox="0 0 25 25" fill="none" xmlns="http://www.w3.org/2000/svg">
<path d="M3.77637 9.40103C3.5854 9.40103 3.42046 9.32291 3.28158 9.16666C3.14269 9.01041 3.07324 8.82811 3.07324 8.61978C3.07324 8.41145 3.14269 8.22916 3.28158 8.07291C3.42046 7.91666 3.5854 7.83853 3.77637 7.83853H7.65658C8.16005 7.83853 8.55067 7.99478 8.82845 8.30728C9.10623 8.61978 9.28852 8.98436 9.37533 9.40103H3.77637ZM5.93783 20.8333C4.5663 20.8333 3.40744 20.3515 2.46126 19.388C1.51508 18.4245 1.04199 17.2569 1.04199 15.8854C1.04199 14.5139 1.52376 13.3463 2.48731 12.3828C3.45085 11.4193 4.61838 10.9375 5.98991 10.9375C6.54547 10.9375 7.10102 11.033 7.65658 11.2239C8.21213 11.4149 8.7156 11.7014 9.16699 12.0833H10.9639C11.693 12.0833 12.305 11.8272 12.7998 11.3151C13.2946 10.8029 13.542 10.1823 13.542 9.45311V6.74478L12.266 5.49478L10.6774 7.08332L10.1826 6.61457L13.8805 2.91666L14.3493 3.38541L12.7347 4.99999L14.0107 6.27603H21.0941C21.5455 6.27603 21.9187 6.4236 22.2139 6.71874C22.509 7.01388 22.6566 7.38714 22.6566 7.83853V14.5833C23.0559 14.9305 23.3727 15.3385 23.6071 15.8073C23.8415 16.276 23.9587 16.7795 23.9587 17.3177C23.9587 18.2899 23.6158 19.1189 22.93 19.8047C22.2443 20.4904 21.4153 20.8333 20.443 20.8333C19.4708 20.8333 18.6418 20.4904 17.9561 19.8047C17.2703 19.1189 16.9274 18.316 16.9274 17.3958C16.9274 17.2917 16.9318 17.1658 16.9404 17.0182C16.9491 16.8706 16.9621 16.7535 16.9795 16.6667H10.8857C10.6948 17.8646 10.1392 18.8585 9.21908 19.6484C8.29894 20.4384 7.20519 20.8333 5.93783 20.8333ZM5.98991 19.2708C6.92741 19.2708 7.72602 18.941 8.38574 18.2812C9.04547 17.6215 9.37533 16.8229 9.37533 15.8854C9.37533 14.9479 9.04547 14.1493 8.38574 13.4896C7.72602 12.8298 6.92741 12.5 5.98991 12.5C5.05241 12.5 4.2538 12.8298 3.59408 13.4896C2.93435 14.1493 2.60449 14.9479 2.60449 15.8854C2.60449 16.8229 2.93435 17.6215 3.59408 18.2812C4.2538 18.941 5.05241 19.2708 5.98991 19.2708ZM20.443 19.2708C20.9812 19.2708 21.4413 19.0798 21.8232 18.6979C22.2052 18.316 22.3962 17.8559 22.3962 17.3177C22.3962 16.7795 22.2052 16.3194 21.8232 15.9375C21.4413 15.5555 20.9812 15.3646 20.443 15.3646C19.9048 15.3646 19.4448 15.5555 19.0628 15.9375C18.6809 16.3194 18.4899 16.7795 18.4899 17.3177C18.4899 17.8559 18.6809 18.316 19.0628 18.6979C19.4448 19.0798 19.9048 19.2708 20.443 19.2708ZM5.98991 17.7083C5.48644 17.7083 5.05675 17.5304 4.70085 17.1745C4.34494 16.8186 4.16699 16.3889 4.16699 15.8854C4.16699 15.3819 4.34494 14.9522 4.70085 14.5963C5.05675 14.2404 5.48644 14.0625 5.98991 14.0625C6.49338 14.0625 6.92307 14.2404 7.27897 14.5963C7.63488 14.9522 7.81283 15.3819 7.81283 15.8854C7.81283 16.3889 7.63488 16.8186 7.27897 17.1745C6.92307 17.5304 6.49338 17.7083 5.98991 17.7083Z" fill="#FAFAFA"/>
</svg>
