<svg width="25" height="25" viewBox="0 0 25 25" fill="none" xmlns="http://www.w3.org/2000/svg">
<circle cx="12.5003" cy="12.5" r="11.4583" fill="#4D4040"/>
<path d="M17.8273 8.01376L17.0178 8.11116L16.8275 6.60256C16.8069 6.44672 16.925 6.3082 17.0889 6.28873L17.2964 6.26601C17.4616 6.24652 17.6083 6.35799 17.6289 6.51274L17.8261 8.01376H17.8273Z" fill="url(#paint0_linear_2802_7056)"/>
<path d="M17.827 8.01405L17.4258 8.0595L17.1953 6.26736L17.3031 6.25221C17.4682 6.23274 17.6149 6.34419 17.6356 6.49896L17.827 8.01405Z" fill="url(#paint1_linear_2802_7056)"/>
<path d="M18.6226 8.57341C18.7579 9.28659 18.7865 10.029 18.7017 10.7876C18.2087 15.0483 14.1512 18.1271 9.63747 17.6618C8.83378 17.5817 8.07135 17.388 7.35937 17.1099C7.30663 17.0871 6.83772 16.8566 6.5316 16.4984C6.37798 16.3188 6.25874 16.1099 6.253 15.8783V15.8718C6.24957 15.8448 6.25529 15.8166 6.25988 15.7961C6.26448 15.7679 6.27019 15.7474 6.28281 15.7257C6.36764 15.5417 6.60957 15.413 6.92714 15.3199C7.61848 15.1154 8.65033 15.0818 9.08028 15.0277H9.08714C9.19492 15.019 9.29466 15.0039 9.40244 14.9887H9.41733C9.53199 14.9714 9.64664 14.9563 9.76014 14.9336C9.79569 14.9303 9.83122 14.9216 9.85989 14.9184C9.88854 14.9097 9.91722 14.9076 9.95161 14.8978C9.98028 14.8957 10.0089 14.887 10.0365 14.8773C10.0789 14.8675 10.1144 14.8643 10.158 14.8545C10.2359 14.8351 10.3139 14.8221 10.385 14.8026C10.4274 14.7929 10.4698 14.782 10.5191 14.7647C10.6395 14.7344 10.7599 14.6976 10.8722 14.6619C10.9078 14.6522 10.9433 14.6424 10.9846 14.6262C11.0201 14.6165 11.0545 14.6002 11.097 14.5905C11.2024 14.5548 11.3148 14.5115 11.4191 14.4693C11.426 14.4693 11.4329 14.4617 11.4398 14.4606L11.4684 14.452C11.622 14.3924 11.7757 14.3253 11.9282 14.2518C12.0669 14.1857 12.2125 14.1132 12.3512 14.0407C12.3719 14.0321 12.3856 14.0245 12.4063 14.0093L12.4269 14.0007C12.5163 13.9531 12.6058 13.8979 12.6952 13.8427C12.7021 13.8351 12.7158 13.834 12.7227 13.8264C12.7364 13.8189 12.7433 13.8113 12.7571 13.8037C13.0116 13.6468 13.2501 13.4845 13.4874 13.3027C13.5356 13.2713 13.5757 13.2345 13.6227 13.1966C13.664 13.1663 13.7041 13.1284 13.7511 13.0905C13.758 13.083 13.7637 13.0754 13.7717 13.0754C13.7912 13.0537 13.8187 13.0375 13.8394 13.0159C13.907 12.9564 13.9735 12.8958 14.0412 12.8362C14.0744 12.8059 14.1088 12.7767 14.1421 12.7464C14.1891 12.702 14.2418 12.6501 14.2888 12.5981C14.3083 12.5765 14.3289 12.5613 14.3415 12.5397C14.408 12.4726 14.4745 12.4066 14.533 12.333C14.8093 12.0246 15.0707 11.6967 15.2931 11.3439C15.3 11.3363 15.2989 11.3298 15.3057 11.3222C15.3952 11.1924 15.4777 11.056 15.5523 10.9131C15.5901 10.8482 15.6279 10.7844 15.6589 10.7205C15.6829 10.6707 15.715 10.6134 15.7391 10.5636C15.746 10.556 15.7517 10.542 15.7506 10.5355C15.8056 10.4218 15.8606 10.3017 15.9077 10.1816C16.184 9.53766 16.3697 8.84721 16.4511 8.1308C16.4591 8.05505 16.4672 7.97929 16.474 7.90354C16.474 7.90354 16.4798 7.88297 16.4912 7.84725C16.497 7.83318 16.497 7.82668 16.5027 7.81263C16.5027 7.80613 16.5084 7.79856 16.5084 7.79206C16.5084 7.78557 16.5142 7.77799 16.5142 7.7715C16.568 7.6373 16.6816 7.45117 16.9017 7.31805C17.0599 7.2239 17.2708 7.15896 17.5552 7.17845C17.8246 7.19792 18.0333 7.34619 18.1949 7.54531C18.4391 7.85375 18.5652 8.30178 18.626 8.57775L18.6226 8.57341Z" fill="url(#paint2_linear_2802_7056)"/>
<path d="M17.5503 7.16766V7.18173C17.6982 7.86027 17.7532 8.56696 17.6936 9.28879C17.6879 9.38511 17.6741 9.48141 17.6684 9.57774C17.1754 13.8384 13.1179 16.9173 8.60419 16.4519C7.93234 16.3816 7.29718 16.2398 6.6861 16.0353C6.59667 16.0017 6.50725 15.9747 6.41666 15.94C6.36393 15.9173 6.30431 15.8946 6.25158 15.8773C6.24929 15.8502 6.25387 15.8221 6.2596 15.8015C6.26418 15.7734 6.26992 15.7528 6.28254 15.7312C6.36737 15.5472 6.60927 15.4184 6.92686 15.3253C7.6182 15.1208 8.65005 15.0872 9.07998 15.0331H9.08686C9.19464 15.0245 9.29438 15.0093 9.40214 14.9942H9.41705C9.53171 14.9769 9.64636 14.9617 9.75986 14.939L9.78853 14.9368C9.8103 14.9347 9.83783 14.926 9.8596 14.9249C9.88827 14.9163 9.91694 14.9141 9.95133 14.9044C9.98686 14.8946 10.0086 14.8935 10.0362 14.8838C10.0786 14.8741 10.1141 14.8708 10.1577 14.8611C10.2356 14.8416 10.3136 14.821 10.3847 14.8091C10.4271 14.7994 10.4695 14.7886 10.5188 14.7713C10.5968 14.7518 10.6679 14.7323 10.7378 14.7063C10.7802 14.6966 10.8227 14.6793 10.872 14.6684C10.9075 14.6587 10.9419 14.6425 10.9843 14.6327C11.0199 14.623 11.0542 14.6068 11.0967 14.597C11.2022 14.5613 11.3145 14.518 11.4188 14.4758C11.4257 14.4758 11.4326 14.4682 11.4395 14.4672L11.4681 14.4585C11.4968 14.4498 11.5243 14.4336 11.5518 14.4249C11.678 14.3741 11.8029 14.3167 11.9279 14.2583C12.0529 14.2009 12.171 14.1371 12.2948 14.0721C12.3154 14.0635 12.3292 14.0559 12.3498 14.0408C12.3704 14.0321 12.3842 14.0245 12.4048 14.0094L12.4255 14.0007C12.4805 13.9693 12.5355 13.938 12.5906 13.9055C12.625 13.8828 12.6593 13.8654 12.6938 13.8492C12.7006 13.8416 12.7144 13.8406 12.7213 13.833C12.735 13.8254 12.7419 13.8178 12.7557 13.8103C12.8038 13.7789 12.852 13.7486 12.899 13.7172C12.9334 13.6945 12.9678 13.6706 13.001 13.6479C13.0148 13.6403 13.0354 13.6252 13.0492 13.6165C13.0973 13.5851 13.1443 13.5473 13.1925 13.517C13.2406 13.4856 13.2808 13.4553 13.3209 13.4185C13.3759 13.3795 13.4229 13.3417 13.4768 13.3038C13.5238 13.2659 13.5651 13.2356 13.6121 13.1977C13.6522 13.1609 13.6935 13.1295 13.7405 13.0917C13.7474 13.0841 13.7531 13.0765 13.7611 13.0765C13.7806 13.0549 13.8081 13.0386 13.8288 13.017C13.8964 12.9575 13.9629 12.8969 14.0306 12.8373C14.0638 12.807 14.0982 12.7778 14.1315 12.7475C14.1785 12.7032 14.2312 12.6512 14.2782 12.5993C14.2977 12.5776 14.3183 12.5625 14.331 12.5408C14.3504 12.5192 14.3711 12.504 14.3837 12.4824C14.4295 12.4304 14.4766 12.3861 14.5224 12.3352C14.5614 12.2908 14.5946 12.254 14.6348 12.2108C14.6806 12.1588 14.7208 12.1155 14.7597 12.0646C14.7792 12.043 14.7987 12.0138 14.8251 11.9846C14.8377 11.9629 14.8572 11.9413 14.8709 11.9261C14.9099 11.8818 14.942 11.832 14.9822 11.7876C15.0211 11.7367 15.0532 11.6934 15.0922 11.6426C15.1175 11.6069 15.1507 11.5625 15.1759 11.5268C15.2138 11.4694 15.2527 11.411 15.2906 11.3536C15.2974 11.3461 15.2963 11.3396 15.3032 11.332C15.341 11.2746 15.3731 11.2238 15.4041 11.1664C15.4224 11.1307 15.4488 11.095 15.4671 11.0593C15.4923 11.016 15.5164 10.9662 15.5497 10.9229C15.5749 10.8796 15.5932 10.8439 15.6185 10.8017C15.6311 10.7801 15.6425 10.7519 15.6552 10.7303C15.6792 10.6805 15.7113 10.6231 15.7354 10.5734C15.7423 10.5658 15.748 10.5517 15.7469 10.5452C15.7652 10.503 15.7905 10.4597 15.8076 10.411C15.826 10.3753 15.8374 10.3407 15.8558 10.305C15.8741 10.2693 15.8856 10.2346 15.904 10.1924C15.928 10.1427 15.9452 10.0864 15.9693 10.0301C15.9808 10.002 15.9934 9.97382 16.0048 9.94569C16.0346 9.87534 16.0576 9.805 16.0805 9.73466C16.0977 9.68595 16.116 9.64268 16.1264 9.59397C16.1493 9.52363 16.1722 9.45329 16.1952 9.38401C16.2055 9.33532 16.2227 9.28663 16.233 9.23792C16.2559 9.16758 16.2708 9.09183 16.2857 9.01499C16.296 8.96628 16.3064 8.92409 16.3167 8.87538C16.3385 8.79205 16.3522 8.70872 16.3671 8.63188C16.3717 8.59726 16.3763 8.5702 16.3878 8.53448C16.3866 8.52043 16.3923 8.50636 16.3923 8.49986C16.4107 8.38189 16.429 8.25745 16.4474 8.14056C16.4554 8.06481 16.4634 7.98905 16.4703 7.9133C16.4703 7.9133 16.476 7.89275 16.4875 7.85703C16.4932 7.84296 16.4932 7.83646 16.499 7.82239C16.499 7.81589 16.5047 7.80834 16.5047 7.80184C16.5047 7.79535 16.5104 7.78777 16.5104 7.78127C16.5643 7.64708 16.6778 7.46095 16.8979 7.32783C17.055 7.21961 17.266 7.15575 17.5503 7.17416V7.16766Z" fill="url(#paint3_linear_2802_7056)"/>
<path d="M6.93207 15.3049C6.58469 15.6393 6.43104 16.0278 6.52965 16.491C6.37602 16.3113 6.25678 16.1025 6.25105 15.8709V15.8644C6.24762 15.8373 6.25333 15.8092 6.25793 15.7886C6.2625 15.7605 6.26824 15.7399 6.28086 15.7183C6.37257 15.5267 6.62136 15.3979 6.93207 15.3049Z" fill="url(#paint4_linear_2802_7056)"/>
<defs>
<linearGradient id="paint0_linear_2802_7056" x1="15.6872" y1="5.76082" x2="17.4842" y2="7.61775" gradientUnits="userSpaceOnUse">
<stop stop-color="#FFE988"/>
<stop offset="0.25" stop-color="#BA801E"/>
<stop offset="0.5" stop-color="#FBEC83"/>
<stop offset="0.75" stop-color="#BA801F"/>
<stop offset="1" stop-color="#FFE97F"/>
</linearGradient>
<linearGradient id="paint1_linear_2802_7056" x1="15.8057" y1="5.64644" x2="17.6027" y2="7.50339" gradientUnits="userSpaceOnUse">
<stop stop-color="#FFE988"/>
<stop offset="0.25" stop-color="#BA801E"/>
<stop offset="0.5" stop-color="#FBEC83"/>
<stop offset="0.75" stop-color="#BA801F"/>
<stop offset="1" stop-color="#FFE97F"/>
</linearGradient>
<linearGradient id="paint2_linear_2802_7056" x1="5.74479" y1="12.4928" x2="28.1024" y2="12.3321" gradientUnits="userSpaceOnUse">
<stop stop-color="#FFE988"/>
<stop offset="0.25" stop-color="#BA801E"/>
<stop offset="0.5" stop-color="#FBEC83"/>
<stop offset="0.75" stop-color="#BA801F"/>
<stop offset="1" stop-color="#FFE97F"/>
</linearGradient>
<linearGradient id="paint3_linear_2802_7056" x1="5.21097" y1="13.4371" x2="20.0497" y2="10.3328" gradientUnits="userSpaceOnUse">
<stop stop-color="#FFE988"/>
<stop offset="0.25" stop-color="#BA801E"/>
<stop offset="0.5" stop-color="#FBEC83"/>
<stop offset="0.75" stop-color="#BA801F"/>
<stop offset="1" stop-color="#FFE97F"/>
</linearGradient>
<linearGradient id="paint4_linear_2802_7056" x1="5.69669" y1="15.04" x2="6.74061" y2="16.0115" gradientUnits="userSpaceOnUse">
<stop stop-color="#FFE988"/>
<stop offset="0.25" stop-color="#BA801E"/>
<stop offset="0.5" stop-color="#FBEC83"/>
<stop offset="0.75" stop-color="#BA801F"/>
<stop offset="1" stop-color="#FFE97F"/>
</linearGradient>
</defs>
</svg>
