<svg width="25" height="25" viewBox="0 0 25 25" fill="none" xmlns="http://www.w3.org/2000/svg">
<path d="M12.4996 3.125C11.1767 3.125 9.99957 3.95833 9.56207 5.20833H3.12457V7.29167H5.15582L2.08291 14.5833C1.59332 16.6667 3.12457 17.7083 5.72874 17.7083C8.33291 17.7083 9.95791 16.6667 9.37457 14.5833L6.30166 7.29167H9.55166C9.89541 8.17708 10.5725 8.85417 11.4579 9.19792V20.8333H2.08291V22.9167H22.9162V20.8333H13.5412V9.1875C14.4267 8.85417 15.1037 8.17708 15.4371 7.29167H18.6975L15.6246 14.5833C15.135 16.6667 16.6662 17.7083 19.2704 17.7083C21.8746 17.7083 23.4996 16.6667 22.9162 14.5833L19.8433 7.29167H21.8746V5.20833H15.4475C14.9996 3.95833 13.8225 3.125 12.4996 3.125ZM12.4996 5.20833C12.7758 5.20833 13.0408 5.31808 13.2361 5.51343C13.4315 5.70878 13.5412 5.97373 13.5412 6.25C13.5412 6.52627 13.4315 6.79122 13.2361 6.98657C13.0408 7.18192 12.7758 7.29167 12.4996 7.29167C12.2233 7.29167 11.9584 7.18192 11.763 6.98657C11.5677 6.79122 11.4579 6.52627 11.4579 6.25C11.4579 5.97373 11.5677 5.70878 11.763 5.51343C11.9584 5.31808 12.2233 5.20833 12.4996 5.20833ZM5.72874 10.6771L7.29124 14.5833H4.16624L5.72874 10.6771ZM19.2704 10.6771L20.8329 14.5833H17.7079L19.2704 10.6771Z" fill="#FAFAFA"/>
</svg>
