<svg width="25" height="25" viewBox="0 0 25 25" fill="none" xmlns="http://www.w3.org/2000/svg">
<path fill-rule="evenodd" clip-rule="evenodd" d="M12 23C9.715 23 7.81 22.215 6.285 20.65C4.76 19.085 4 17.135 4 14.8C4 13.135 4.66 11.32 5.99 9.36C7.315 7.4 9.32 5.28 12 2.995C14.685 5.28 16.69 7.4 18.015 9.36C19.34 11.32 20 13.13 20 14.8C20 17.135 19.24 19.085 17.71 20.65C16.185 22.215 14.28 23 12 23ZM13.2857 19H10.7143V16.2857H8V13.7143H10.7143V11H13.2857V13.7143H16V16.2857H13.2857V19Z" fill="#FAFAFA"/>
</svg>
