<svg width="25" height="25" viewBox="0 0 25 25" fill="none" xmlns="http://www.w3.org/2000/svg">
<g clip-path="url(#clip0_2802_7114)">
<path d="M13.0236 21.8701C12.4632 21.8892 11.9059 21.8421 11.3527 21.7627C10.9478 21.7045 10.5456 21.6172 10.1469 21.5243C9.81499 21.4471 9.48443 21.3577 9.16244 21.2461C8.78152 21.1141 8.40746 20.9606 8.03649 20.8019C7.77547 20.6903 7.52609 20.5518 7.26884 20.4319C7.20204 20.4007 7.18149 20.3501 7.17533 20.2902C7.15272 20.0694 7.126 19.8484 7.11709 19.627C7.10099 19.2251 7.13628 18.8245 7.21575 18.4313C7.40517 17.4916 7.81897 16.6763 8.54859 16.0436C8.86339 15.7706 9.21142 15.5496 9.59199 15.3819C9.65433 15.3545 9.71394 15.3164 9.77902 15.3004C9.83006 15.288 9.89343 15.2869 9.94139 15.3063C10.26 15.4356 10.572 15.5811 10.893 15.7034C11.2342 15.8333 11.5901 15.9085 11.9501 15.9702C12.4334 16.0533 12.9191 16.0856 13.4066 16.0485C13.7265 16.0242 14.0461 15.9754 14.3613 15.9134C14.6449 15.8576 14.9282 15.7852 15.2008 15.6895C15.5057 15.5828 15.803 15.4501 16.0956 15.3112C16.2124 15.2554 16.2956 15.3046 16.385 15.3455C16.77 15.5215 17.1325 15.737 17.4527 16.0177C17.8545 16.37 18.1762 16.7858 18.4136 17.2699C18.5626 17.5734 18.6725 17.8901 18.7482 18.2171C18.8332 18.5851 18.8839 18.961 18.8695 19.3404C18.8568 19.6769 18.8315 20.0133 18.8034 20.3491C18.7996 20.392 18.7527 20.4478 18.7113 20.4679C18.3506 20.6429 17.9902 20.8196 17.6223 20.9786C17.3695 21.0878 17.1075 21.1772 16.8447 21.261C16.5142 21.3663 16.1822 21.4689 15.8455 21.55C15.5331 21.6252 15.2156 21.6848 14.8973 21.7267C14.4455 21.7863 13.9913 21.8282 13.5371 21.868C13.3672 21.8829 13.1952 21.8705 13.024 21.8705L13.0236 21.8701Z" fill="#FAFAFA"/>
<path d="M23.9562 12.4953C23.9679 12.9305 23.9268 13.4288 23.8298 13.9183C23.7558 14.2925 23.6493 14.6605 23.5448 15.0278C23.4071 15.5101 23.2002 15.965 22.9639 16.4044C22.486 17.2934 21.8773 18.0824 21.1456 18.7733C21.1271 18.7909 21.0997 18.7993 21.0764 18.8117C21.0644 18.7871 21.0449 18.7632 21.0415 18.7376C21.0158 18.5404 21.0035 18.3412 20.9672 18.1461C20.9127 17.8527 20.8548 17.5585 20.7746 17.2713C20.7044 17.0208 20.6092 16.7765 20.5109 16.5353C20.3585 16.1622 20.155 15.8164 19.9248 15.4865C19.5387 14.9335 19.0708 14.4616 18.5334 14.0601C18.4008 13.961 18.2614 13.8716 18.1233 13.7808C18.0113 13.7073 18.0093 13.7087 18.0809 13.5982C18.2699 13.3061 18.4292 12.9977 18.5388 12.6668C18.6748 12.2566 18.7481 11.8349 18.7087 11.3994C18.706 11.3706 18.7087 11.3388 18.6974 11.3142C18.6163 11.1381 18.6985 10.9885 18.7735 10.8409C19.0037 10.388 19.312 9.99579 19.6905 9.66039C20.0111 9.37593 20.3619 9.13547 20.7544 8.96742C20.9809 8.87041 21.2217 8.80666 21.4587 8.73771C21.595 8.69821 21.7362 8.65871 21.8763 8.65316C22.362 8.63341 22.8035 8.77686 23.193 9.06998C23.2513 9.11399 23.2886 9.19818 23.315 9.27129C23.4294 9.58659 23.5462 9.90155 23.6435 10.2224C23.8613 10.9407 23.9596 11.6783 23.9566 12.495L23.9562 12.4953Z" fill="#FAFAFA"/>
<path d="M4.96077 18.8127C4.7251 18.5602 4.47709 18.3183 4.25718 18.0526C3.98965 17.7286 3.73514 17.3925 3.49467 17.0474C3.20796 16.6358 2.96681 16.1947 2.78081 15.7266C2.64139 15.3753 2.49752 15.0229 2.39544 14.6598C2.29336 14.296 2.2317 13.9194 2.16833 13.5455C2.05803 12.8958 2.0642 12.2403 2.13271 11.5879C2.1697 11.2369 2.24267 10.8887 2.31803 10.5436C2.3766 10.2747 2.4547 10.0093 2.54068 9.74803C2.61296 9.52766 2.70202 9.31215 2.79896 9.10149C2.82671 9.0412 2.90309 8.99823 2.96509 8.96012C3.31689 8.74391 3.70054 8.63373 4.11125 8.65418C4.29143 8.66318 4.47298 8.70511 4.647 8.75569C4.87273 8.82153 5.0947 8.90364 5.31291 8.99269C5.60989 9.11361 5.87708 9.28928 6.13056 9.48539C6.50428 9.77471 6.82936 10.1125 7.07942 10.5158C7.19314 10.6995 7.28597 10.8994 7.36544 11.101C7.39525 11.1769 7.37332 11.2823 7.35208 11.3682C7.2894 11.6235 7.33324 11.8775 7.37846 12.1235C7.42642 12.3841 7.50794 12.6429 7.60899 12.8879C7.71313 13.1408 7.85666 13.3774 7.98648 13.6189C8.03444 13.7083 8.03546 13.718 7.94811 13.7714C7.46238 14.0666 7.02598 14.4235 6.63308 14.8361C6.22785 15.262 5.89147 15.738 5.62805 16.2647C5.43794 16.6448 5.2903 17.0415 5.19199 17.4583C5.09573 17.8665 5.05634 18.2819 5.00564 18.6963C5.00119 18.732 4.99228 18.7667 4.98543 18.802C4.97721 18.8058 4.96899 18.8096 4.96077 18.8134V18.8127Z" fill="#FAFAFA"/>
<path d="M14.0996 5.16164C14.0996 4.52411 14.0996 3.88658 14.0996 3.24905C14.0996 3.12812 14.1075 3.11496 14.2267 3.1302C14.5799 3.17525 14.9334 3.21925 15.2845 3.27746C15.565 3.32389 15.8445 3.3821 16.1206 3.45105C16.3964 3.51965 16.669 3.60211 16.9397 3.68978C17.1993 3.77397 17.4576 3.86371 17.7104 3.96696C17.992 4.08165 18.2746 4.19911 18.5428 4.34186C18.9319 4.54871 19.3169 4.7663 19.6896 5.0026C20.3018 5.39032 20.855 5.85565 21.366 6.37156C21.388 6.39339 21.3993 6.42596 21.4154 6.45368C21.3856 6.46719 21.3568 6.49041 21.3263 6.49318C20.9865 6.52471 20.659 6.6141 20.3391 6.72532C19.8866 6.88263 19.4591 7.09606 19.0569 7.36043C18.4726 7.74468 17.9594 8.20862 17.5192 8.75503C17.4792 8.80458 17.4422 8.81497 17.3925 8.76612C17.1079 8.48616 16.7978 8.23669 16.4502 8.04335C16.1549 7.87912 15.8497 7.73048 15.5404 7.59535C15.317 7.49764 15.0817 7.42522 14.847 7.35731C14.659 7.30291 14.4651 7.26653 14.2719 7.23292C14.1167 7.2059 14.0996 7.1955 14.0996 7.03993C14.0996 6.41383 14.0996 5.78774 14.0996 5.16199V5.16164Z" fill="#FAFAFA"/>
<path d="M4.62109 6.46855C4.78826 6.30883 4.95336 6.14667 5.12327 5.98971C5.51925 5.62452 5.9464 5.29986 6.39446 5.00327C6.81099 4.72782 7.24123 4.47627 7.69476 4.26873C8.03833 4.11142 8.38396 3.95654 8.73644 3.82176C9.02281 3.71227 9.3198 3.62981 9.61405 3.54284C9.84595 3.47458 10.0796 3.41014 10.3156 3.35816C10.5461 3.30723 10.7797 3.26981 11.013 3.23412C11.2665 3.19497 11.5207 3.16102 11.7755 3.13191C11.9146 3.11597 11.917 3.12359 11.917 3.2615C11.917 4.53067 11.917 5.79984 11.917 7.06901C11.917 7.18439 11.8964 7.20864 11.7834 7.22632C11.4426 7.27967 11.1117 7.37115 10.7838 7.47994C10.3769 7.61507 9.98948 7.79005 9.61987 8.0066C9.26636 8.2138 8.94094 8.45876 8.64498 8.74357C8.56174 8.82361 8.55524 8.82084 8.47988 8.72902C8.03525 8.18677 7.52897 7.71174 6.93362 7.34481C6.6243 7.15425 6.30026 6.98308 5.96833 6.83617C5.57166 6.66085 5.1541 6.5427 4.71735 6.51325C4.68755 6.51117 4.65843 6.50182 4.62897 6.49593C4.62623 6.48692 4.62383 6.47756 4.62109 6.46855Z" fill="#FAFAFA"/>
</g>
<defs>
<clipPath id="clip0_2802_7114">
<rect width="21.875" height="18.75" fill="white" transform="translate(2.08301 3.125)"/>
</clipPath>
</defs>
</svg>
