<svg width="25" height="25" viewBox="0 0 25 25" fill="none" xmlns="http://www.w3.org/2000/svg">
<rect x="2" y="3.83331" width="22" height="18.3333" rx="5" fill="#FAFAFA"/>
<path d="M10.9465 11.5276C10.9465 11.7916 10.8767 12.0391 10.7372 12.2702C10.6028 12.5012 10.3883 12.6874 10.0936 12.8289C9.80417 12.9703 9.43717 13.041 8.99264 13.041H8.08548V14.9364H7V10H8.99264C9.41133 10 9.76799 10.066 10.0626 10.198C10.3573 10.33 10.5769 10.5116 10.7217 10.7426C10.8716 10.9736 10.9465 11.2353 10.9465 11.5276ZM8.94612 12.2419C9.24592 12.2419 9.46819 12.1806 9.61292 12.058C9.75765 11.9307 9.83001 11.7539 9.83001 11.5276C9.83001 11.0467 9.53538 10.8062 8.94612 10.8062H8.08548V12.2419H8.94612Z" fill="#0B0B0B"/>
<path d="M12.8027 11.6266C12.9422 11.4191 13.1232 11.2565 13.3454 11.1386C13.5729 11.0207 13.8313 10.9618 14.1208 10.9618V12.0014H13.8339C13.4927 12.0014 13.2343 12.0745 13.0585 12.2207C12.888 12.3668 12.8027 12.6214 12.8027 12.9844V14.9364H11.7172V11.0184H12.8027V11.6266Z" fill="#0B0B0B"/>
<path d="M16.7592 15C16.3457 15 15.9736 14.9175 15.6428 14.7525C15.3119 14.5827 15.0509 14.3446 14.8597 14.0382C14.6736 13.7317 14.5805 13.3781 14.5805 12.9774C14.5805 12.5766 14.6762 12.223 14.8674 11.9165C15.0638 11.6101 15.33 11.3744 15.666 11.2093C16.002 11.0396 16.3767 10.9547 16.7903 10.9547C17.2038 10.9547 17.5785 11.0396 17.9145 11.2093C18.2505 11.3744 18.5141 11.6101 18.7054 11.9165C18.9018 12.223 19 12.5766 19 12.9774C19 13.3781 18.8992 13.7317 18.6976 14.0382C18.5012 14.3446 18.2324 14.5827 17.8913 14.7525C17.5553 14.9175 17.1779 15 16.7592 15ZM16.7592 14.1372C16.9557 14.1372 17.1392 14.0948 17.3097 14.0099C17.4855 13.9203 17.6251 13.7883 17.7284 13.6139C17.8318 13.4394 17.8835 13.2273 17.8835 12.9774C17.8835 12.6049 17.775 12.3197 17.5579 12.1216C17.3459 11.9189 17.0849 11.8175 16.7748 11.8175C16.4646 11.8175 16.2036 11.9189 15.9917 12.1216C15.7849 12.3197 15.6815 12.6049 15.6815 12.9774C15.6815 13.3498 15.7823 13.6374 15.9839 13.8402C16.1907 14.0382 16.4491 14.1372 16.7592 14.1372Z" fill="#0B0B0B"/>
</svg>
