<svg width="15" height="16" viewBox="0 0 15 16" fill="none" xmlns="http://www.w3.org/2000/svg">
<g clip-path="url(#clip0_2834_7919)">
<rect x="-3" y="-0.583496" width="22" height="18.3333" rx="5" fill="#4D4040"/>
<path d="M5.94651 7.11059C5.94651 7.37462 5.87673 7.62214 5.73717 7.85316C5.60278 8.08419 5.38826 8.27042 5.09363 8.41186C4.80417 8.5533 4.43717 8.62403 3.99264 8.62403H3.08548V10.5194H2V5.58301H3.99264C4.41133 5.58301 4.76799 5.64901 5.06262 5.78103C5.35725 5.91304 5.57693 6.09456 5.72166 6.32558C5.87156 6.5566 5.94651 6.81827 5.94651 7.11059ZM3.94612 7.82487C4.24592 7.82487 4.46819 7.76358 4.61292 7.641C4.75765 7.5137 4.83001 7.3369 4.83001 7.11059C4.83001 6.62968 4.53538 6.38923 3.94612 6.38923H3.08548V7.82487H3.94612Z" fill="#F9F4E7"/>
<path d="M7.80268 7.2096C7.94224 7.00215 8.12316 6.83949 8.34542 6.72162C8.57286 6.60375 8.83131 6.54482 9.12077 6.54482V7.58442H8.83389C8.49274 7.58442 8.23429 7.6575 8.05854 7.80366C7.88797 7.94982 7.80268 8.20441 7.80268 8.56745V10.5194H6.7172V6.6014H7.80268V7.2096Z" fill="#F9F4E7"/>
<path d="M11.7592 10.583C11.3457 10.583 10.9736 10.5005 10.6428 10.3355C10.3119 10.1658 10.0509 9.92766 9.85965 9.6212C9.67357 9.31474 9.58053 8.96113 9.58053 8.56038C9.58053 8.15962 9.67615 7.80602 9.8674 7.49956C10.0638 7.1931 10.33 6.95736 10.666 6.79234C11.002 6.62261 11.3767 6.53775 11.7903 6.53775C12.2038 6.53775 12.5785 6.62261 12.9145 6.79234C13.2505 6.95736 13.5141 7.1931 13.7054 7.49956C13.9018 7.80602 14 8.15962 14 8.56038C14 8.96113 13.8992 9.31474 13.6976 9.6212C13.5012 9.92766 13.2324 10.1658 12.8913 10.3355C12.5553 10.5005 12.1779 10.583 11.7592 10.583ZM11.7592 9.72021C11.9557 9.72021 12.1392 9.67777 12.3097 9.59291C12.4855 9.50333 12.6251 9.37132 12.7284 9.19687C12.8318 9.02242 12.8835 8.81026 12.8835 8.56038C12.8835 8.18791 12.775 7.90267 12.5579 7.70465C12.3459 7.50191 12.0849 7.40055 11.7748 7.40055C11.4646 7.40055 11.2036 7.50191 10.9917 7.70465C10.7849 7.90267 10.6815 8.18791 10.6815 8.56038C10.6815 8.93284 10.7823 9.22044 10.9839 9.42318C11.1907 9.6212 11.4491 9.72021 11.7592 9.72021Z" fill="#F9F4E7"/>
</g>
<defs>
<clipPath id="clip0_2834_7919">
<rect y="0.583008" width="15" height="15" rx="4" fill="white"/>
</clipPath>
</defs>
</svg>
