<svg width="25" height="25" viewBox="0 0 25 25" fill="none" xmlns="http://www.w3.org/2000/svg">
<path d="M15.4688 11.4323C15.3299 10.9809 15.0911 10.5989 14.7526 10.2864C14.4141 9.97395 14.0191 9.74825 13.5677 9.60936V2.13541C16.0503 2.37846 18.1597 3.36805 19.8958 5.10416C21.6319 6.84027 22.6215 8.94964 22.8646 11.4323H15.4688ZM11.4323 22.8646C8.77604 22.6215 6.55816 21.5191 4.77865 19.5573C2.99913 17.5955 2.10938 15.2691 2.10938 12.5781C2.10938 9.88714 2.99479 7.53905 4.76562 5.53384C6.53646 3.52864 8.75868 2.39582 11.4323 2.13541V9.60936C10.8247 9.85242 10.3342 10.243 9.96094 10.7812C9.58767 11.3194 9.40104 11.9184 9.40104 12.5781C9.40104 13.2031 9.58767 13.7674 9.96094 14.2708C10.3342 14.7743 10.8247 15.1389 11.4323 15.3646V22.8646ZM13.5677 22.8646V15.3646C14.0191 15.2257 14.4141 15.0043 14.7526 14.7005C15.0911 14.3967 15.3299 14.0191 15.4688 13.5677H22.8646C22.6215 16.0503 21.6319 18.1597 19.8958 19.8958C18.1597 21.6319 16.0503 22.6215 13.5677 22.8646Z" fill="#FAFAFA"/>
</svg>
