<svg width="25" height="25" viewBox="0 0 25 25" fill="none" xmlns="http://www.w3.org/2000/svg">
<path d="M18.3204 10.7216H22.3274C22.4161 10.7216 22.501 10.6864 22.5637 10.6238C22.6263 10.5611 22.6615 10.4762 22.6615 10.3876C22.6615 10.299 22.6263 10.2141 22.5637 10.1515C22.501 10.0888 22.4161 10.0536 22.3274 10.0536H18.3204C18.2766 10.0536 18.2331 10.0623 18.1926 10.0791C18.152 10.0959 18.1152 10.1205 18.0842 10.1515C18.0532 10.1825 18.0285 10.2193 18.0118 10.2598C17.995 10.3003 17.9863 10.3437 17.9863 10.3876C17.9863 10.4315 17.995 10.4749 18.0118 10.5154C18.0285 10.5559 18.0532 10.5927 18.0842 10.6238C18.1152 10.6548 18.152 10.6794 18.1926 10.6962C18.2331 10.7129 18.2766 10.7216 18.3204 10.7216Z" fill="#FAFAFA"/>
<path d="M18.3198 9.38576H19.6562C19.7413 9.38071 19.8211 9.34338 19.8796 9.2814C19.938 9.21946 19.9705 9.13753 19.9705 9.0524C19.9705 8.96726 19.938 8.88534 19.8796 8.82336C19.8211 8.76142 19.7413 8.72409 19.6562 8.71904H18.3198C18.2743 8.71632 18.2288 8.72294 18.1859 8.73847C18.1431 8.75401 18.104 8.77811 18.0708 8.80934C18.0376 8.84055 18.0112 8.87822 17.9932 8.92002C17.9751 8.96183 17.9658 9.00688 17.9658 9.0524C17.9658 9.09792 17.9751 9.14296 17.9932 9.18477C18.0112 9.22655 18.0376 9.26424 18.0708 9.29545C18.104 9.32666 18.1431 9.35078 18.1859 9.3663C18.2288 9.38185 18.2743 9.38847 18.3198 9.38576Z" fill="#FAFAFA"/>
<path d="M18.3204 12.0562H19.6569C19.7455 12.0562 19.8305 12.021 19.8932 11.9584C19.9558 11.8957 19.991 11.8108 19.991 11.7222C19.991 11.6337 19.9558 11.5487 19.8932 11.4861C19.8305 11.4235 19.7455 11.3883 19.6569 11.3883H18.3204C18.2318 11.3883 18.1468 11.4235 18.0842 11.4861C18.0215 11.5487 17.9863 11.6337 17.9863 11.7222C17.9863 11.8108 18.0215 11.8957 18.0842 11.9584C18.1468 12.021 18.2318 12.0562 18.3204 12.0562Z" fill="#FAFAFA"/>
<path d="M18.3204 14.7267H19.6569C19.7455 14.7267 19.8305 14.6915 19.8932 14.6289C19.9558 14.5662 19.991 14.4813 19.991 14.3927C19.991 14.3041 19.9558 14.2192 19.8932 14.1565C19.8305 14.0939 19.7455 14.0587 19.6569 14.0587H18.3204C18.2318 14.0587 18.1468 14.0939 18.0842 14.1565C18.0215 14.2192 17.9863 14.3041 17.9863 14.3927C17.9863 14.4813 18.0215 14.5662 18.0842 14.6289C18.1468 14.6915 18.2318 14.7267 18.3204 14.7267Z" fill="#FAFAFA"/>
<path d="M22.3274 12.7241H18.3204C18.1359 12.7241 17.9863 12.8736 17.9863 13.058C17.9863 13.2425 18.1359 13.392 18.3204 13.392H22.3274C22.512 13.392 22.6616 13.2425 22.6616 13.058C22.6616 12.8736 22.512 12.7241 22.3274 12.7241Z" fill="#FAFAFA"/>
<path d="M23.9799 2.71463H6.64974C6.37952 2.71463 6.12037 2.82193 5.92929 3.01291C5.73821 3.20389 5.63086 3.46292 5.63086 3.73301V8.94913C5.78502 9.04938 5.9262 9.1683 6.05116 9.30315C6.65541 9.4828 7.21909 9.77774 7.7111 10.1717C8.05289 9.71848 8.49545 9.35098 9.00382 9.09826C9.51219 8.84551 10.0724 8.71448 10.6402 8.71548V12.3866H14.3131C14.3124 12.8903 14.2081 13.3885 14.0066 13.8502C13.805 14.3118 13.5106 14.7271 13.1417 15.0703C12.7727 15.4134 12.3371 15.6769 11.8618 15.8446C11.3866 16.0122 10.882 16.0804 10.3793 16.0447C10.2841 16.0376 10.1896 16.0271 10.096 16.0129C10.068 16.4901 10 19.5 6 20.3888H23.9811C24.1151 20.3888 24.2477 20.3624 24.3713 20.3112C24.4951 20.2599 24.6075 20.1848 24.702 20.0901C24.7968 19.9954 24.8718 19.883 24.9227 19.7593C24.9739 19.6356 25.0001 19.5031 25.0001 19.3692V3.73301C25.0001 3.59918 24.9736 3.46665 24.9225 3.34302C24.871 3.21939 24.7958 3.10707 24.7013 3.01249C24.6065 2.91791 24.4939 2.84292 24.3704 2.79181C24.2466 2.7407 24.1139 2.71448 23.9799 2.71463ZM11.9755 11.0555V7.38321C12.4579 7.38321 12.9356 7.47821 13.3813 7.66277C13.827 7.84733 14.232 8.11785 14.573 8.45887C14.9141 8.7999 15.1846 9.20473 15.3692 9.65027C15.5536 10.0958 15.6485 10.5733 15.6484 11.0555H11.9755ZM23.6636 16.0613H16.986V7.04926H23.6647L23.6636 16.0613Z" fill="#FAFAFA"/>
<path d="M9.7712 14.3325C9.90145 14.122 9.97883 13.8831 9.99668 13.6363C10.0463 13.0179 9.74287 12.4043 9.22693 12.2663C9.1026 12.2291 8.97147 12.2204 8.84333 12.2409C8.71517 12.2613 8.59328 12.3103 8.48669 12.3843L8.46543 12.3996C8.40639 12.2745 8.34029 12.1506 8.26944 12.0314C8.21749 11.9441 8.16202 11.8591 8.10298 11.7742C7.5044 10.9174 6.58237 10.2495 5.58474 10.0336C5.52925 9.94863 5.18332 9.45302 4.59774 9.46955C4.56705 9.46783 4.53634 9.46783 4.50565 9.46955L4.44308 9.98994L4.30611 10.0135L4.23174 10.0301L3.56707 9.72444L3.60485 10.2448C2.6757 10.6697 1.91892 11.5193 1.51869 12.4869C1.48013 12.5813 1.44471 12.6769 1.41244 12.7737C1.36805 12.9054 1.33061 13.0393 1.30029 13.1749C1.17744 13.1208 1.04366 13.0962 0.90961 13.103C0.775559 13.1097 0.644937 13.1477 0.528159 13.2138C-0.128262 13.5537 -0.190832 14.7042 0.441977 15.3485C0.641878 15.5672 0.903875 15.7195 1.19285 15.7851C1.19285 15.7981 1.19285 15.8123 1.19285 15.8253C1.17219 16.019 1.17219 16.2144 1.19285 16.4082C1.39119 18.2231 3.35927 19.4988 5.59062 19.2556H5.63431C5.81851 19.2342 6.00138 19.2027 6.18213 19.1613C6.52913 19.0809 6.86613 18.9622 7.18683 18.8073C8.55397 18.1441 9.42056 16.879 9.27297 15.5338C9.2525 15.3399 9.2109 15.1488 9.149 14.9638C9.14538 14.951 9.14105 14.9384 9.13603 14.9261C9.40325 14.7975 9.62485 14.5904 9.7712 14.3325Z" fill="#FAFAFA"/>
</svg>
