<svg width="25" height="25" viewBox="0 0 25 25" fill="none" xmlns="http://www.w3.org/2000/svg">
<path fill-rule="evenodd" clip-rule="evenodd" d="M11.558 5.11447C11.9267 5.42905 12.2507 5.80197 12.4996 6.21968C12.7486 5.80197 13.0726 5.42905 13.4413 5.11447C14.2913 4.38947 15.4215 3.9353 16.5507 3.9353C17.3403 3.9353 18.1861 4.15822 18.9153 4.5353C19.6424 4.91134 20.3049 5.46759 20.6674 6.1728C20.6763 6.19007 20.6843 6.20781 20.6913 6.22593L22.9101 12.0593C23.3319 12.754 23.5919 13.5348 23.6706 14.3437C23.7493 15.1526 23.6447 15.9689 23.3646 16.7319C23.0846 17.4949 22.6362 18.185 22.0529 18.7509C21.4695 19.3168 20.7662 19.744 19.9951 20.0008C19.2239 20.2576 18.4049 20.3374 17.5987 20.2342C16.7925 20.131 16.0199 19.8476 15.3383 19.4048C14.6568 18.9621 14.0837 18.3715 13.6617 17.6769C13.2397 16.9823 12.9796 16.2015 12.9007 15.3926H12.0986C12.0204 16.2021 11.7607 16.9836 11.3388 17.6789C10.917 18.3743 10.3438 18.9656 9.66194 19.4089C8.98009 19.8522 8.20708 20.1361 7.40039 20.2395C6.59369 20.343 5.77406 20.2632 5.00243 20.0063C4.2308 19.7493 3.52701 19.3217 2.94339 18.7553C2.35977 18.1888 1.91133 17.4982 1.63141 16.7345C1.35148 15.9709 1.24728 15.1541 1.32654 14.3446C1.4058 13.5352 1.66649 12.7541 2.08923 12.0593L4.30798 6.22593C4.31501 6.20814 4.32301 6.19076 4.33193 6.17384C4.69548 5.46759 5.35694 4.91134 6.08298 4.5353C6.81319 4.15822 7.65902 3.9353 8.4486 3.9353C9.57777 3.9353 10.708 4.38947 11.558 5.11447ZM2.86423 14.8728C2.86423 13.8521 3.26969 12.8733 3.99141 12.1515C4.71313 11.4298 5.692 11.0244 6.71266 11.0244C7.73333 11.0244 8.7122 11.4298 9.43392 12.1515C10.1556 12.8733 10.5611 13.8521 10.5611 14.8728C10.5611 15.8935 10.1556 16.8723 9.43392 17.5941C8.7122 18.3158 7.73333 18.7212 6.71266 18.7212C5.692 18.7212 4.71313 18.3158 3.99141 17.5941C3.26969 16.8723 2.86423 15.8935 2.86423 14.8728ZM14.4382 14.8728C14.4382 13.8521 14.8436 12.8733 15.5654 12.1515C16.2871 11.4298 17.266 11.0244 18.2866 11.0244C19.3073 11.0244 20.2862 11.4298 21.0079 12.1515C21.7296 12.8733 22.1351 13.8521 22.1351 14.8728C22.1351 15.8935 21.7296 16.8723 21.0079 17.5941C20.2862 18.3158 19.3073 18.7212 18.2866 18.7212C17.266 18.7212 16.2871 18.3158 15.5654 17.5941C14.8436 16.8723 14.4382 15.8935 14.4382 14.8728Z" fill="#FAFAFA"/>
</svg>
