<svg width="25" height="25" viewBox="0 0 25 25" fill="none" xmlns="http://www.w3.org/2000/svg">
<path d="M1 6C1 5.44772 1.44772 5 2 5H23C23.5523 5 24 5.44772 24 6V18C24 18.5523 23.5523 19 23 19H2C1.44772 19 1 18.5523 1 18V6Z" fill="#FAFAFA"/>
<rect x="7" y="6" width="12" height="12" rx="6" fill="#1E1E1E"/>
<path d="M16.8179 11.8731C16.9221 11.7047 16.984 11.5135 16.9983 11.316C17.038 10.8213 16.7952 10.3303 16.3824 10.2199C16.283 10.1901 16.178 10.1832 16.0755 10.1995C15.973 10.2159 15.8754 10.2551 15.7902 10.3143L15.7732 10.3265C15.7259 10.2265 15.673 10.1273 15.6163 10.032C15.5748 9.9621 15.5304 9.89412 15.4832 9.82615C15.0042 9.14069 14.2665 8.6063 13.4683 8.43353C13.4239 8.36554 13.1471 7.96901 12.6786 7.98223C12.6541 7.98086 12.6295 7.98086 12.6049 7.98223L12.5549 8.39859L12.4453 8.41747L12.3858 8.43069L11.854 8.18616L11.8842 8.60253C11.1408 8.94243 10.5353 9.62222 10.2151 10.3964C10.1842 10.4719 10.1559 10.5484 10.1301 10.6259C10.0946 10.7312 10.0646 10.8384 10.0404 10.9469C9.94206 10.9036 9.83503 10.8839 9.72777 10.8893C9.62052 10.8947 9.51601 10.9251 9.42258 10.978C8.89738 11.2499 8.84732 12.1705 9.35362 12.686C9.51356 12.8609 9.72319 12.9828 9.95439 13.0353C9.95439 13.0457 9.95439 13.057 9.95439 13.0674C9.93786 13.2224 9.93786 13.3788 9.95439 13.5338C10.1131 14.9859 11.6877 16.0066 13.473 15.812H13.508C13.6554 15.7949 13.8017 15.7697 13.9463 15.7365C14.2239 15.6722 14.4936 15.5773 14.7501 15.4533C15.844 14.9227 16.5373 13.9105 16.4193 12.8342C16.4029 12.679 16.3696 12.5261 16.3201 12.3782C16.3172 12.3679 16.3137 12.3578 16.3097 12.348C16.5235 12.2451 16.7008 12.0794 16.8179 11.8731Z" fill="#FAFAFA"/>
</svg>
