<svg width="25" height="25" viewBox="0 0 25 25" fill="none" xmlns="http://www.w3.org/2000/svg">
<path d="M7.39583 17.7865H8.95833V12.4479H7.39583V17.7865ZM16.0417 17.7865H17.6042V6.84896H16.0417V17.7865ZM11.7188 17.7865H13.2812V9.71354H11.7188V17.7865ZM4.6875 21.875C4.27083 21.875 3.90625 21.7187 3.59375 21.4062C3.28125 21.0937 3.125 20.7292 3.125 20.3125V4.6875C3.125 4.27083 3.28125 3.90625 3.59375 3.59375C3.90625 3.28125 4.27083 3.125 4.6875 3.125H20.3125C20.7292 3.125 21.0937 3.28125 21.4062 3.59375C21.7187 3.90625 21.875 4.27083 21.875 4.6875V20.3125C21.875 20.7292 21.7187 21.0937 21.4062 21.4062C21.0937 21.7187 20.7292 21.875 20.3125 21.875H4.6875Z" fill="#FAFAFA"/>
</svg>
