<svg width="25" height="25" viewBox="0 0 25 25" fill="none" xmlns="http://www.w3.org/2000/svg">
<path d="M4.6875 22.9167C4.27083 22.9167 3.90625 22.7604 3.59375 22.4479C3.28125 22.1354 3.125 21.7708 3.125 21.3542V16.1979L6.64062 12.3177L7.76042 13.4375L4.6875 16.7969H20.3125L17.4219 13.5156L18.5417 12.3958L21.875 16.1979V21.3542C21.875 21.7708 21.7187 22.1354 21.4062 22.4479C21.0937 22.7604 20.7292 22.9167 20.3125 22.9167H4.6875ZM11.5104 14.974L7.36979 10.8333C7.03993 10.5035 6.89236 10.1345 6.92708 9.72656C6.96181 9.31857 7.13542 8.95833 7.44792 8.64583L12.9687 3.125C13.2639 2.82986 13.6285 2.67795 14.0625 2.66927C14.4965 2.66059 14.8698 2.8125 15.1823 3.125L19.3229 7.26562C19.6181 7.56076 19.77 7.91232 19.7786 8.32031C19.7873 8.72829 19.6181 9.1059 19.2708 9.45312L13.75 14.974C13.4549 15.2691 13.0903 15.4253 12.6562 15.4427C12.2222 15.4601 11.8403 15.3038 11.5104 14.974ZM17.9948 8.28125L14.0885 4.375L8.67187 9.79166L12.5781 13.6979L17.9948 8.28125Z" fill="#FAFAFA"/>
</svg>
