<svg width="25" height="25" viewBox="0 0 25 25" fill="none" xmlns="http://www.w3.org/2000/svg">
<path d="M16.3398 2.47001C17.9538 2.46706 19.5063 3.08859 20.6724 4.20449C21.8385 5.32038 22.5277 6.84411 22.5957 8.45666C22.6637 10.0692 22.1052 11.6456 21.0373 12.8557C19.9693 14.0658 18.4746 14.8158 16.8661 14.9488C16.5969 13.2543 15.7987 11.6883 14.5856 10.475C13.3725 9.26169 11.8067 8.46318 10.1123 8.19376C10.2442 6.63287 10.9574 5.17842 12.1107 4.1184C13.264 3.05838 14.7734 2.47009 16.3398 2.47001Z" fill="white" fill-opacity="0.87"/>
<path d="M15.0898 16.22C15.0898 14.5624 14.4314 12.9727 13.2593 11.8006C12.0872 10.6285 10.4974 9.97 8.83984 9.97C7.18224 9.97 5.59253 10.6285 4.42043 11.8006C3.24832 12.9727 2.58984 14.5624 2.58984 16.22C2.58984 17.8776 3.24832 19.4673 4.42043 20.6394C5.59253 21.8115 7.18224 22.47 8.83984 22.47C10.4974 22.47 12.0872 21.8115 13.2593 20.6394C14.4314 19.4673 15.0898 17.8776 15.0898 16.22Z" fill="white" fill-opacity="0.87"/>
</svg>
