<svg width="25" height="25" viewBox="0 0 25 25" fill="none" xmlns="http://www.w3.org/2000/svg">
<path d="M5.20833 11.4583H9.375C10.5208 11.4583 11.4583 10.5208 11.4583 9.375V5.20833C11.4583 4.0625 10.5208 3.125 9.375 3.125H5.20833C4.0625 3.125 3.125 4.0625 3.125 5.20833V9.375C3.125 10.5208 4.0625 11.4583 5.20833 11.4583ZM5.20833 21.875H9.375C10.5208 21.875 11.4583 20.9375 11.4583 19.7917V15.625C11.4583 14.4792 10.5208 13.5417 9.375 13.5417H5.20833C4.0625 13.5417 3.125 14.4792 3.125 15.625V19.7917C3.125 20.9375 4.0625 21.875 5.20833 21.875ZM13.5417 5.20833V9.375C13.5417 10.5208 14.4792 11.4583 15.625 11.4583H19.7917C20.9375 11.4583 21.875 10.5208 21.875 9.375V5.20833C21.875 4.0625 20.9375 3.125 19.7917 3.125H15.625C14.4792 3.125 13.5417 4.0625 13.5417 5.20833ZM15.625 21.875H19.7917C20.9375 21.875 21.875 20.9375 21.875 19.7917V15.625C21.875 14.4792 20.9375 13.5417 19.7917 13.5417H15.625C14.4792 13.5417 13.5417 14.4792 13.5417 15.625V19.7917C13.5417 20.9375 14.4792 21.875 15.625 21.875Z" fill="#FAFAFA"/>
</svg>
