<svg width="15" height="16" viewBox="0 0 15 16" fill="none" xmlns="http://www.w3.org/2000/svg">
<path d="M2.8125 13.708C2.5625 13.708 2.34375 13.6143 2.15625 13.4268C1.96875 13.2393 1.875 13.0205 1.875 12.7705V3.39551C1.875 3.14551 1.96875 2.92676 2.15625 2.73926C2.34375 2.55176 2.5625 2.45801 2.8125 2.45801H10.0312L13.125 5.55176V12.7705C13.125 13.0205 13.0312 13.2393 12.8438 13.4268C12.6562 13.6143 12.4375 13.708 12.1875 13.708H2.8125ZM4.35938 11.0361H10.6406V10.0986H4.35938V11.0361ZM4.35938 8.55176H10.6406V7.61426H4.35938V8.55176ZM9.51562 6.06738H12.1875L9.51562 3.39551V6.06738ZM4.35938 6.06738H7.5V5.12988H4.35938V6.06738Z" fill="#FAFAFA"/>
</svg>
