<svg width="25" height="25" viewBox="0 0 25 25" fill="none" xmlns="http://www.w3.org/2000/svg">
<path d="M1.4375 19.5312C1.72917 19.8438 2.08333 20 2.5 20H13.5C13.9167 20 14.2708 19.8438 14.5625 19.5312C14.8542 19.2188 15 18.8393 15 18.3929V6.60714C15 6.16071 14.8542 5.78125 14.5625 5.46875C14.2708 5.15625 13.9167 5 13.5 5H2.5C2.08333 5 1.72917 5.15625 1.4375 5.46875C1.14583 5.78125 1 6.16071 1 6.60714V18.3929C1 18.8393 1.14583 19.2188 1.4375 19.5312Z" fill="#FAFAFA"/>
<path d="M17.2875 11.1205C17.4792 11.3259 17.7167 11.4286 18 11.4286H22C22.2833 11.4286 22.5208 11.3259 22.7125 11.1205C22.9042 10.9152 23 10.6607 23 10.3571V6.07143C23 5.76786 22.9042 5.51339 22.7125 5.30804C22.5208 5.10268 22.2833 5 22 5H18C17.7167 5 17.4792 5.10268 17.2875 5.30804C17.0958 5.51339 17 5.76786 17 6.07143V10.3571C17 10.6607 17.0958 10.9152 17.2875 11.1205Z" fill="#FAFAFA"/>
<path d="M17.2875 19.692C17.4792 19.8973 17.7167 20 18 20H22C22.2833 20 22.5208 19.8973 22.7125 19.692C22.9042 19.4866 23 19.2321 23 18.9286V14.6429C23 14.3393 22.9042 14.0848 22.7125 13.8795C22.5208 13.6741 22.2833 13.5714 22 13.5714H18C17.7167 13.5714 17.4792 13.6741 17.2875 13.8795C17.0958 14.0848 17 14.3393 17 14.6429V18.9286C17 19.2321 17.0958 19.4866 17.2875 19.692Z" fill="#FAFAFA"/>
</svg>
