<svg width="25" height="25" viewBox="0 0 25 25" fill="none" xmlns="http://www.w3.org/2000/svg">
<g clip-path="url(#clip0_2802_7027)">
<path d="M13.0236 21.8702C12.4632 21.8892 11.9059 21.8421 11.3527 21.7627C10.9478 21.7045 10.5456 21.6172 10.1469 21.5244C9.81499 21.4471 9.48443 21.3577 9.16244 21.2461C8.78152 21.1141 8.40746 20.9606 8.03649 20.8019C7.77547 20.6904 7.52609 20.5518 7.26884 20.4319C7.20204 20.4007 7.18149 20.3501 7.17533 20.2902C7.15272 20.0695 7.126 19.8484 7.11709 19.627C7.10099 19.2251 7.13628 18.8246 7.21575 18.4313C7.40517 17.4916 7.81897 16.6764 8.54859 16.0437C8.86339 15.7706 9.21142 15.5496 9.59199 15.3819C9.65433 15.3545 9.71394 15.3164 9.77902 15.3005C9.83006 15.288 9.89343 15.287 9.94139 15.3064C10.26 15.4356 10.572 15.5811 10.893 15.7034C11.2342 15.8334 11.5901 15.9085 11.9501 15.9702C12.4334 16.0534 12.9191 16.0856 13.4066 16.0485C13.7265 16.0243 14.0461 15.9754 14.3613 15.9134C14.6449 15.8576 14.9282 15.7852 15.2008 15.6896C15.5057 15.5829 15.803 15.4501 16.0956 15.3112C16.2124 15.2554 16.2956 15.3046 16.385 15.3455C16.77 15.5215 17.1325 15.737 17.4527 16.0177C17.8545 16.3701 18.1762 16.7858 18.4136 17.2699C18.5626 17.5734 18.6725 17.8901 18.7482 18.2172C18.8332 18.5851 18.8839 18.9611 18.8695 19.3405C18.8568 19.6769 18.8315 20.0133 18.8034 20.3491C18.7996 20.3921 18.7527 20.4478 18.7113 20.4679C18.3506 20.6429 17.9902 20.8196 17.6223 20.9787C17.3695 21.0878 17.1075 21.1772 16.8447 21.261C16.5142 21.3664 16.1822 21.4689 15.8455 21.55C15.5331 21.6252 15.2156 21.6848 14.8973 21.7267C14.4455 21.7863 13.9913 21.8282 13.5371 21.8681C13.3672 21.883 13.1952 21.8705 13.024 21.8705L13.0236 21.8702Z" fill="#4D4040"/>
<path d="M23.9562 12.4953C23.9679 12.9305 23.9268 13.4288 23.8298 13.9183C23.7558 14.2925 23.6493 14.6605 23.5448 15.0278C23.4071 15.5101 23.2002 15.965 22.9639 16.4044C22.486 17.2934 21.8773 18.0824 21.1456 18.7733C21.1271 18.7909 21.0997 18.7993 21.0764 18.8117C21.0644 18.7871 21.0449 18.7632 21.0415 18.7376C21.0158 18.5404 21.0035 18.3412 20.9672 18.1461C20.9127 17.8527 20.8548 17.5585 20.7746 17.2713C20.7044 17.0208 20.6092 16.7765 20.5109 16.5353C20.3585 16.1622 20.155 15.8164 19.9248 15.4865C19.5387 14.9335 19.0708 14.4616 18.5334 14.0601C18.4008 13.961 18.2614 13.8716 18.1233 13.7808C18.0113 13.7073 18.0093 13.7087 18.0809 13.5982C18.2699 13.3061 18.4292 12.9977 18.5388 12.6668C18.6748 12.2566 18.7481 11.8349 18.7087 11.3994C18.706 11.3706 18.7087 11.3388 18.6974 11.3142C18.6163 11.1381 18.6985 10.9885 18.7735 10.8409C19.0037 10.388 19.312 9.99579 19.6905 9.66039C20.0111 9.37593 20.3619 9.13547 20.7544 8.96742C20.9809 8.87041 21.2217 8.80666 21.4587 8.73771C21.595 8.69821 21.7362 8.65871 21.8763 8.65316C22.362 8.63341 22.8035 8.77686 23.193 9.06998C23.2513 9.11399 23.2886 9.19818 23.315 9.27129C23.4294 9.58659 23.5462 9.90155 23.6435 10.2224C23.8613 10.9407 23.9596 11.6783 23.9566 12.495L23.9562 12.4953Z" fill="#4D4040"/>
<path d="M4.96077 18.8128C4.7251 18.5602 4.47709 18.3183 4.25718 18.0526C3.98965 17.7286 3.73514 17.3925 3.49467 17.0474C3.20796 16.6358 2.96681 16.1947 2.78081 15.7266C2.64139 15.3753 2.49752 15.0229 2.39544 14.6598C2.29336 14.296 2.2317 13.9194 2.16833 13.5455C2.05803 12.8959 2.0642 12.2403 2.13271 11.5879C2.1697 11.2369 2.24267 10.8887 2.31803 10.5436C2.3766 10.2747 2.4547 10.0093 2.54068 9.74806C2.61296 9.52769 2.70202 9.31218 2.79896 9.10152C2.82671 9.04123 2.90309 8.99826 2.96509 8.96015C3.31689 8.74395 3.70054 8.63376 4.11125 8.65421C4.29143 8.66321 4.47298 8.70514 4.647 8.75573C4.87273 8.82156 5.0947 8.90367 5.31291 8.99272C5.60989 9.11364 5.87708 9.28931 6.13056 9.48542C6.50428 9.77474 6.82936 10.1126 7.07942 10.5159C7.19314 10.6995 7.28597 10.8994 7.36544 11.1011C7.39525 11.177 7.37332 11.2823 7.35208 11.3682C7.2894 11.6236 7.33324 11.8775 7.37846 12.1236C7.42642 12.3841 7.50794 12.6429 7.60899 12.8879C7.71313 13.1408 7.85666 13.3775 7.98648 13.619C8.03444 13.7084 8.03546 13.7181 7.94811 13.7714C7.46238 14.0666 7.02598 14.4235 6.63308 14.8362C6.22785 15.262 5.89147 15.7381 5.62805 16.2647C5.43794 16.6448 5.2903 17.0416 5.19199 17.4584C5.09573 17.8665 5.05634 18.282 5.00564 18.6964C5.00119 18.732 4.99228 18.7667 4.98543 18.802C4.97721 18.8059 4.96899 18.8097 4.96077 18.8135V18.8128Z" fill="#4D4040"/>
<path d="M14.0996 5.16167C14.0996 4.52414 14.0996 3.88661 14.0996 3.24908C14.0996 3.12815 14.1075 3.11499 14.2267 3.13023C14.5799 3.17528 14.9334 3.21928 15.2845 3.27749C15.565 3.32392 15.8445 3.38213 16.1206 3.45108C16.3964 3.51968 16.669 3.60215 16.9397 3.68981C17.1993 3.774 17.4576 3.86374 17.7104 3.96699C17.992 4.08168 18.2746 4.19914 18.5428 4.34189C18.9319 4.54874 19.3169 4.76633 19.6896 5.00263C20.3018 5.39035 20.855 5.85568 21.366 6.37159C21.388 6.39342 21.3993 6.42599 21.4154 6.45371C21.3856 6.46722 21.3568 6.49044 21.3263 6.49321C20.9865 6.52474 20.659 6.61413 20.3391 6.72535C19.8866 6.88266 19.4591 7.09609 19.0569 7.36046C18.4726 7.74471 17.9594 8.20865 17.5192 8.75506C17.4792 8.80461 17.4422 8.815 17.3925 8.76615C17.1079 8.48619 16.7978 8.23672 16.4502 8.04338C16.1549 7.87915 15.8497 7.73051 15.5404 7.59538C15.317 7.49767 15.0817 7.42525 14.847 7.35734C14.659 7.30294 14.4651 7.26656 14.2719 7.23295C14.1167 7.20593 14.0996 7.19553 14.0996 7.03996C14.0996 6.41387 14.0996 5.78777 14.0996 5.16202V5.16167Z" fill="#4D4040"/>
<path d="M4.62109 6.46858C4.78826 6.30886 4.95336 6.1467 5.12327 5.98974C5.51925 5.62455 5.9464 5.29989 6.39446 5.0033C6.81099 4.72785 7.24123 4.4763 7.69476 4.26876C8.03833 4.11145 8.38396 3.95657 8.73644 3.82179C9.02281 3.7123 9.3198 3.62984 9.61405 3.54287C9.84595 3.47461 10.0796 3.41017 10.3156 3.3582C10.5461 3.30726 10.7797 3.26984 11.013 3.23415C11.2665 3.195 11.5207 3.16105 11.7755 3.13194C11.9146 3.116 11.917 3.12363 11.917 3.26153C11.917 4.5307 11.917 5.79987 11.917 7.06904C11.917 7.18442 11.8964 7.20868 11.7834 7.22635C11.4426 7.2797 11.1117 7.37118 10.7838 7.47997C10.3769 7.6151 9.98948 7.79008 9.61987 8.00663C9.26636 8.21383 8.94094 8.45879 8.64498 8.7436C8.56174 8.82364 8.55524 8.82087 8.47988 8.72905C8.03525 8.1868 7.52897 7.71177 6.93362 7.34484C6.6243 7.15428 6.30026 6.98311 5.96833 6.8362C5.57166 6.66088 5.1541 6.54273 4.71735 6.51328C4.68755 6.5112 4.65843 6.50185 4.62897 6.49596C4.62623 6.48695 4.62383 6.47759 4.62109 6.46858Z" fill="#4D4040"/>
</g>
<defs>
<clipPath id="clip0_2802_7027">
<rect width="21.875" height="18.75" fill="white" transform="translate(2.08301 3.125)"/>
</clipPath>
</defs>
</svg>
