<svg width="25" height="25" viewBox="0 0 25 25" fill="none" xmlns="http://www.w3.org/2000/svg">
<g id="Sizing Frame">
<path id="Vector" d="M16.2507 17.6419C17.2679 18.6592 18.1311 19.6379 18.5901 20.3121C18.5989 20.3209 19.0107 20.946 19.1147 21.1874C19.2565 21.5446 19.2733 21.95 19.1647 22.3276C19.0666 22.6182 18.9084 22.8705 18.6942 23.0847C18.4621 23.2991 17.8983 23.5743 17.6651 23.6721C16.1537 24.341 12.6876 25.0422 11.0449 24.998C10.7749 24.999 10.4654 24.9824 10.3883 24.983C10.0108 24.9363 9.66486 24.7659 9.38699 24.488C9.13662 24.2376 8.96495 23.9104 8.92012 23.5527C8.89028 23.3733 8.88639 23.0721 8.88631 22.9327L8.88668 22.8577C8.82994 21.1666 9.55205 17.8171 10.1622 16.3625C10.1532 16.3535 10.4579 15.6282 10.726 15.2749L10.798 15.1886L10.8369 15.1498C11.2853 14.7013 11.9532 14.5322 12.571 14.7215C12.9085 14.8258 13.6583 15.3604 13.6781 15.3602C14.3411 15.8479 15.2816 16.6728 16.2507 17.6419ZM7.31103 8.8048C7.71309 9.20689 7.73732 9.84458 7.38687 10.2855L7.29936 10.3835L3.67297 14.44C3.11296 15 2.21282 15.0066 1.66101 14.4548C1.14369 13.9375 1.11633 13.1132 1.57637 12.5507L1.67488 12.4419L5.73231 8.81646C6.17175 8.37702 6.87801 8.37181 7.31103 8.8048ZM15.6141 0.51216C15.8625 0.760583 16.0341 1.0877 16.081 1.44541C16.1052 1.59545 16.1118 1.82985 16.1134 1.98455L16.1134 2.1415C16.1682 3.8325 15.4481 7.18202 14.838 8.63657C14.8461 8.64467 14.5413 9.37151 14.2732 9.72506L14.2012 9.8114L14.1623 9.85025C13.7149 10.2977 13.046 10.4658 12.4292 10.2775C12.0907 10.1742 11.342 9.63863 11.3222 9.63879C10.6591 9.15109 9.71861 8.3262 8.74949 7.3571C7.73229 6.33989 6.86909 5.36109 6.41016 4.68694C6.40035 4.67712 5.98954 4.05306 5.88547 3.81149C5.74271 3.45548 5.72692 3.04907 5.83554 2.6714C5.93363 2.38087 6.09177 2.12846 6.30503 1.91522C6.53807 1.69985 7.10091 1.42566 7.33309 1.32701C8.84645 0.658075 12.3116 -0.0440645 13.9541 0.00216548C14.2252 0.000163605 14.5346 0.0166713 14.6118 0.0161027C14.9883 0.0617874 15.3352 0.233312 15.6141 0.51216ZM23.3393 10.5445C23.8566 11.0618 23.883 11.8853 23.4229 12.4477L23.3243 12.5565L19.2679 16.183C18.8284 16.6224 18.1221 16.6277 17.6891 16.1947C17.2871 15.7926 17.2628 15.1549 17.6133 14.714L17.7008 14.6159L21.3264 10.5584C21.8862 9.99838 22.7875 9.99272 23.3393 10.5445Z" fill="#FAFAFA"/>
</g>
</svg>
