<svg width="180" height="71" viewBox="0 0 180 71" fill="none" xmlns="http://www.w3.org/2000/svg">
<g id="Logos">
<g id="Shape_3_copy">
<path id="Vector" fill-rule="evenodd" clip-rule="evenodd" d="M67.8467 8.93179L70.6964 8.67619C71.2334 8.62649 71.5986 8.25019 71.5986 7.73189V6.43969C71.5986 6.02079 71.3193 5.63029 70.6964 5.68709L67.8467 5.94269C67.2238 5.99949 66.9446 6.43969 66.9446 6.85859V8.15079C66.9446 8.66909 67.3097 8.98149 67.8467 8.93179ZM121.096 20.0078C122.098 20.7675 123.322 21.0941 124.754 20.9663C126.731 20.7888 128.227 20.4622 129.337 19.9723C129.723 19.8019 129.945 19.4753 129.945 19.0919V17.9772C129.945 17.2459 129.337 17.0755 128.9 17.2246C127.855 17.5654 126.494 17.8139 124.754 17.9701C124.275 18.0127 123.867 17.8849 123.537 17.5867C123.208 17.2814 123.036 16.9051 123.036 16.4507V11.0618C123.036 10.6074 123.201 10.1956 123.537 9.84059C123.867 9.47849 124.275 9.27969 124.754 9.23709C126.494 9.08089 127.89 9.08089 128.893 9.23709C129.387 9.31519 129.945 9.02409 129.945 8.29989V7.18519C129.945 6.81599 129.745 6.53909 129.365 6.41129C128.263 6.12019 126.752 6.06339 124.754 6.24799C123.33 6.37579 122.091 6.92959 121.067 7.88809C120.065 8.83239 119.535 10.0394 119.535 11.3813V16.7702C119.535 18.1334 120.057 19.2197 121.096 20.0149V20.0078ZM75.1356 25.418L76.8397 25.2618C77.3767 25.2121 77.7418 24.8358 77.7418 24.3175V15.1017C77.7418 14.6686 77.9137 14.2497 78.243 13.8734C78.5724 13.5184 78.9805 13.3125 79.4602 13.2699L81.7514 13.064C82.2097 13.0214 82.6035 13.1563 82.9328 13.4758C83.2622 13.774 83.434 14.1503 83.434 14.5834V23.7992C83.434 24.3175 83.7992 24.6299 84.3362 24.5802L86.0689 24.424C86.1548 24.4169 86.2408 24.3885 86.3195 24.3459C86.835 24.0761 86.9424 23.7282 86.9424 23.4797V14.2639C86.9424 13.8308 87.1143 13.4119 87.4436 13.0356C87.773 12.6806 88.1811 12.4747 88.6537 12.4321L90.9449 12.2262C91.4103 12.1836 91.8041 12.3185 92.1621 12.638C92.4914 12.9362 92.6633 13.3125 92.6633 13.7456V22.9614C92.6633 23.4797 93.0284 23.7921 93.5654 23.7424L95.2695 23.5862C95.8065 23.5365 96.1717 23.1602 96.1717 22.6419V13.4261C96.1717 12.0558 95.6418 10.9695 94.6108 10.2098C93.6084 9.44299 92.3769 9.12349 90.952 9.25129L88.6608 9.45719C87.3076 9.57789 86.1477 10.0607 85.1954 10.8914C84.2431 10.2311 83.0904 9.96129 81.7586 10.0749L79.4674 10.2808C78.0569 10.4086 76.8182 10.9482 75.78 11.8996C74.7776 12.8439 74.2478 14.0509 74.2478 15.3928V24.6086C74.2478 25.1269 74.6129 25.4393 75.1499 25.3896L75.1356 25.418ZM94.3889 26.341C94.5464 26.4901 94.7039 26.6818 94.8686 26.9232C95.0332 27.1646 95.2051 27.4131 95.3769 27.6758L101.649 36.565V27.0794C101.649 26.4617 101.785 25.9931 102.05 25.6594C102.05 25.6523 102.064 25.6452 102.072 25.6381L94.3459 26.3126C94.3459 26.3126 94.3745 26.3339 94.3889 26.3481V26.341ZM70.1379 11.1399L68.4052 11.2961C67.7823 11.3529 67.503 11.8002 67.503 12.212V25.2334C67.503 25.7517 67.8682 26.0641 68.4052 26.0144L70.1379 25.8582C70.6749 25.8085 71.0401 25.4322 71.0401 24.9139V11.8996C71.0401 11.4807 70.7608 11.0902 70.1379 11.147V11.1399ZM97.9116 9.75539C98.112 9.64889 98.2839 9.49269 98.4199 9.32229L101.864 12.8439L99.809 13.5326C99.7445 13.3338 99.6228 13.1563 99.451 13.0214C98.9426 12.6309 98.1765 12.7587 97.7397 13.2983C97.303 13.8379 97.3603 14.5905 97.8686 14.981C98.377 15.3715 99.1431 15.2437 99.5799 14.7041C99.7016 14.555 99.7803 14.3917 99.8233 14.2213L101.885 15.1727C101.885 15.2153 101.885 15.2508 101.885 15.2934C101.885 19.667 105.465 22.8975 109.883 22.4999C114.301 22.1023 117.881 18.2328 117.881 13.8592C117.881 9.48559 114.301 6.25509 109.883 6.65269C108.229 6.80179 106.69 7.44079 105.415 8.40639L103.675 7.21359C103.804 7.01479 103.89 6.78759 103.897 6.53909C103.933 5.82909 103.382 5.28239 102.666 5.31079C101.957 5.33919 101.348 5.94269 101.313 6.65269C101.277 7.36269 101.828 7.90939 102.537 7.88099C102.73 7.87389 102.916 7.81709 103.088 7.73899L103.468 10.1104L98.7564 8.52709C98.7851 8.26439 98.7564 8.00169 98.6347 7.76029C98.2982 7.05739 97.4175 6.81599 96.68 7.22069C95.9426 7.62539 95.6132 8.51999 95.9569 9.22289C96.2934 9.92579 97.1741 10.1672 97.9116 9.76249V9.75539ZM111.652 17.2814C112.239 17.2317 112.711 17.6577 112.711 18.2399C112.711 18.8221 112.239 19.3333 111.652 19.383C111.064 19.4327 110.592 19.0067 110.592 18.4245C110.592 17.8494 111.064 17.3311 111.652 17.2814ZM107.964 17.6151C108.551 17.5654 109.024 17.9914 109.024 18.5736C109.024 19.1558 108.551 19.667 107.964 19.7167C107.377 19.7664 106.905 19.3404 106.905 18.7582C106.905 18.176 107.377 17.6648 107.964 17.6151ZM113.656 27.0652L111.501 27.2427V38.0702L113.971 37.8714C114.516 37.8288 114.938 37.7791 115.246 37.7223C115.554 37.6655 115.869 37.5661 116.198 37.4241C116.528 37.2821 116.814 37.0975 117.057 36.8632C118.146 35.8621 118.69 34.2433 118.69 32.0068C118.69 30.4306 118.446 29.2733 117.974 28.5278C117.494 27.7823 116.9 27.335 116.198 27.1788C115.497 27.0226 114.644 26.9871 113.649 27.0652H113.656ZM78.8087 37.0762L83.6202 36.6857L81.193 30.3028L78.8087 37.0762ZM136.554 26.1209C136.397 26.1209 136.389 26.2345 136.389 26.2345C136.389 26.2487 136.389 26.2629 136.389 26.2771C136.389 26.6605 136.253 27.0226 135.974 27.3492C135.702 27.6829 135.358 27.8604 134.95 27.8959C134.578 27.9243 134.292 27.8604 134.098 27.69C133.905 27.5196 133.69 27.2356 133.468 26.8309C133.175 26.2558 132.824 25.8156 132.416 25.5103C132.007 25.205 131.349 25.0914 130.439 25.1695C129.595 25.2405 128.922 25.4748 128.406 25.8866C127.89 26.2984 127.633 26.7599 127.633 27.2711C127.633 27.5906 127.719 27.8604 127.898 28.0734C128.077 28.2935 128.313 28.471 128.621 28.613C128.929 28.755 129.237 28.8615 129.552 28.9254C129.867 28.9964 130.389 29.0887 131.112 29.2094C132.022 29.3443 132.845 29.5076 133.576 29.7064C134.313 29.8981 134.936 30.1537 135.451 30.4803C135.967 30.7998 136.368 31.2258 136.661 31.7583C136.676 31.7867 136.69 31.8222 136.704 31.8506V26.2416C136.704 26.2416 136.683 26.128 136.554 26.128V26.1209ZM109.496 24.9281C109.432 24.9494 109.368 24.9707 109.31 24.992L109.496 24.9778V24.9281ZM134.141 38.4039C133.175 38.9151 132.029 39.2275 130.704 39.3411C129.115 39.4689 127.805 39.2843 126.774 38.7731C126.043 38.4039 125.449 37.8856 124.991 37.204C124.532 36.5224 124.303 35.8479 124.303 35.1734C124.303 34.7829 124.439 34.435 124.711 34.1368C124.984 33.8386 125.334 33.6682 125.757 33.6327C126.1 33.6043 126.394 33.6895 126.63 33.8883C126.867 34.0871 127.074 34.3924 127.239 34.8042C127.447 35.2941 127.669 35.6988 127.905 36.0254C128.141 36.3449 128.478 36.6005 128.907 36.7851C129.337 36.9697 129.91 37.0336 130.611 36.9768C131.578 36.8987 132.365 36.6076 132.967 36.1177C133.568 35.6207 133.876 35.0385 133.876 34.3711C133.876 33.8386 133.712 33.4268 133.389 33.1215C133.06 32.8162 132.645 32.6032 132.129 32.4683C131.614 32.3334 130.926 32.2056 130.06 32.0849C128.9 31.9145 127.933 31.6802 127.153 31.382C126.373 31.0838 125.757 30.6507 125.299 30.0685C124.84 29.4863 124.611 28.7337 124.611 27.8107C124.611 26.8877 124.855 26.1351 125.334 25.4109C125.814 24.6867 126.516 24.1116 127.432 23.6643C127.69 23.5436 127.962 23.43 128.241 23.3377L116.105 24.4027C116.549 24.4169 116.957 24.4524 117.337 24.5234C118.124 24.6654 118.847 24.9849 119.492 25.489C121.167 26.7741 122.005 28.8686 122.005 31.7654C122.005 32.7239 121.919 33.6043 121.754 34.4066C121.583 35.2089 121.325 35.9473 120.974 36.6076C120.623 37.2679 120.172 37.8785 119.621 38.4181C119.191 38.837 118.719 39.1849 118.203 39.4618C117.687 39.7387 117.136 39.9446 116.549 40.0866C115.962 40.2286 115.296 40.328 114.559 40.3919L110.313 40.7398C109.718 40.7895 109.274 40.7398 108.974 40.5836C108.673 40.4274 108.48 40.1931 108.387 39.8807C108.294 39.5683 108.251 39.1494 108.251 38.6382V26.9445C108.251 26.2487 108.408 25.7304 108.723 25.3967C108.874 25.2334 109.074 25.1056 109.317 25.0062L104.22 25.4535C104.22 25.4535 104.241 25.4748 104.255 25.489C104.527 25.773 104.663 26.2274 104.663 26.8451V39.3908C104.663 40.7895 104.076 41.535 102.909 41.6344C102.616 41.6557 102.351 41.6344 102.122 41.5776C101.885 41.5137 101.671 41.4001 101.463 41.2368C101.255 41.0735 101.069 40.8747 100.89 40.6475C100.711 40.4203 100.539 40.186 100.36 39.9446L94.2456 31.1548V40.4984C94.2456 41.109 94.1025 41.5776 93.816 41.9184C93.5296 42.2521 93.1645 42.4367 92.7206 42.4793C92.2623 42.5148 91.89 42.387 91.6108 42.0959C91.3315 41.8048 91.1955 41.3575 91.1955 40.754V28.4497C91.1955 27.9243 91.2528 27.5125 91.3745 27.2072C91.4747 26.9658 91.6251 26.7528 91.8184 26.5611L82.7825 27.3563C82.9042 27.4557 83.0116 27.5693 83.1047 27.69C83.2908 27.9456 83.4484 28.2154 83.5772 28.5136C83.7061 28.8118 83.8708 29.2094 84.0641 29.7064L88.267 39.6535C88.5964 40.4132 88.7611 40.967 88.7611 41.322C88.7611 41.677 88.6036 42.0462 88.2957 42.3799C87.9878 42.7136 87.6083 42.8982 87.1716 42.9337C86.9138 42.955 86.699 42.9337 86.5128 42.8485C86.3267 42.7704 86.1763 42.6639 86.0546 42.5148C85.9329 42.3657 85.7968 42.1385 85.6536 41.8261C85.5104 41.5137 85.3887 41.2439 85.2885 41.0025L84.5224 39.0642L77.9781 39.5967L77.212 41.7054C76.9113 42.529 76.6535 43.0899 76.4459 43.381C76.2311 43.6792 75.8874 43.8425 75.4005 43.8851C74.9924 43.9206 74.6272 43.7999 74.3122 43.5301C73.9972 43.2603 73.8396 42.9337 73.8396 42.5574C73.8396 42.3373 73.8754 42.1101 73.947 41.8758C74.0186 41.6344 74.1404 41.3078 74.3122 40.8747L78.4292 30.1821C78.5438 29.8768 78.687 29.5076 78.8516 29.0745C79.0163 28.6414 79.1953 28.2864 79.3815 27.9953C79.4674 27.8604 79.5676 27.7326 79.6822 27.619L69.1212 28.542C69.2143 28.5704 69.3002 28.5988 69.3861 28.6272C69.8945 28.7976 70.3384 29.0603 70.725 29.4224C71.1117 29.7845 71.4052 30.2105 71.6057 30.7146C71.8062 31.2187 71.9064 31.7583 71.9064 32.3405C71.9064 33.5333 71.5699 34.506 70.8897 35.2728C70.2095 36.0396 69.1856 36.6289 67.8109 37.0336C68.3909 37.2892 68.9422 37.6939 69.472 38.2477C70.0019 38.8015 70.4673 39.3908 70.8826 40.0298C71.2978 40.6688 71.62 41.2439 71.8492 41.7693C72.0783 42.2876 72.1928 42.6497 72.1928 42.8556C72.1928 43.0615 72.1284 43.2816 71.9924 43.4946C71.8563 43.7147 71.6702 43.8922 71.441 44.0271C71.2048 44.1691 70.9327 44.2472 70.632 44.2756C70.2668 44.304 69.9589 44.2472 69.7083 44.0981C69.4577 43.949 69.2429 43.7502 69.0639 43.5017C68.8849 43.2532 68.6415 42.8911 68.3336 42.4083L67.0305 40.3635C66.5651 39.6109 66.1426 39.0429 65.7703 38.6595C65.398 38.2761 65.0257 38.0276 64.6462 37.8998C64.2667 37.7791 63.787 37.7436 63.207 37.7862L62.0686 37.8785V43.0047C62.0686 43.6792 61.9182 44.1904 61.6175 44.5312C61.3168 44.872 60.923 45.0637 60.4433 45.1063C59.9206 45.1489 59.5196 45.014 59.2332 44.7016C58.9468 44.3892 58.8036 43.9135 58.8036 43.2674V30.9986C58.8036 30.3028 58.9612 29.7845 59.2762 29.4508C59.2905 29.4295 59.312 29.4153 59.3335 29.394L52.8895 29.962C53.047 30.0188 53.1902 30.0827 53.3334 30.1537C53.7129 30.3454 54.0494 30.6081 54.343 30.9276C54.6365 31.2471 54.8585 31.6092 55.016 32.0139C55.1664 32.4186 55.2451 32.8517 55.2451 33.3203C55.2451 34.9178 54.4432 36.1461 52.8322 37.0194C54.9444 37.5164 56.0041 38.7234 56.0041 40.6546C56.0041 41.5492 55.775 42.3657 55.3096 43.1183C54.8513 43.8709 54.2284 44.446 53.4408 44.8507C52.9539 45.0921 52.3883 45.2838 51.751 45.4187C51.1138 45.5536 50.3692 45.6601 49.5243 45.724L44.6054 46.1287C43.8965 46.1855 43.3882 46.0719 43.0874 45.7808C43.0588 45.7524 43.0302 45.724 43.0015 45.6885V46.3204C43.0015 46.3204 43.0588 46.434 43.1805 46.4695C47.2116 47.5203 117.988 65.9022 117.988 65.9022L136.74 36.6218V35.7272C136.64 35.9686 136.518 36.2029 136.375 36.4372C135.874 37.2466 135.136 37.9069 134.177 38.4252L134.141 38.4039ZM142.984 5.89299C141.981 5.12619 140.75 4.80669 139.325 4.93449C137.542 5.09779 136.196 5.32499 135.308 5.63029C134.671 5.87169 134.607 6.34029 134.607 6.53199V7.69639C134.607 7.92359 134.664 8.10819 134.786 8.25019C134.936 8.42769 135.158 8.51289 135.423 8.49159C135.466 8.49159 135.566 8.47029 135.609 8.45609C136.296 8.25019 137.549 8.06559 139.332 7.90229C139.79 7.85969 140.184 7.99459 140.514 8.31409C140.843 8.61229 141.015 8.98859 141.015 9.42169V10.1885L137.041 10.5435C135.616 10.6713 134.37 11.2251 133.354 12.1836C132.337 13.1421 131.821 14.3065 131.821 15.6484C131.821 16.9903 132.344 18.0979 133.382 18.8931C134.385 19.6528 135.616 19.9794 137.041 19.8516L143.65 19.2552C144.165 19.2126 144.523 18.8221 144.523 18.3109V9.10929C144.523 7.76739 143.993 6.65269 142.991 5.89299H142.984ZM141.008 16.5146L137.034 16.8696C136.554 16.9122 136.146 16.7844 135.824 16.4862C135.494 16.1809 135.323 15.8046 135.323 15.3502C135.323 14.8958 135.487 14.5124 135.824 14.1503C136.153 13.7953 136.561 13.5894 137.034 13.5468L141.008 13.1918V16.5146ZM62.0256 35.5497L64.9469 35.3083C65.7274 35.2444 66.3861 35.1237 66.9231 34.9462C67.4601 34.7687 67.8682 34.506 68.1474 34.1581C68.4267 33.8102 68.5699 33.3558 68.5699 32.7878C68.5699 32.3476 68.4553 31.9642 68.2262 31.6447C67.9971 31.3252 67.682 31.098 67.2811 30.9631C66.9016 30.8353 66.1498 30.814 65.0328 30.9063L62.0256 31.1548V35.5426V35.5497ZM51.8012 38.9861C51.2284 38.6737 50.3763 38.5601 49.245 38.6524L45.8512 38.9293V43.5869L49.3524 43.3029C51.5577 43.1254 52.6604 42.245 52.6604 40.6688C52.6604 39.8665 52.374 39.3056 51.8012 38.9861ZM52.5028 27.4486L54.2069 27.2924C54.7439 27.2427 55.1091 26.8664 55.1091 26.3481V17.1323C55.1091 16.6992 55.2809 16.2874 55.6103 15.904C55.9396 15.549 56.3478 15.3431 56.8203 15.3005L59.1115 15.0946C59.5698 15.052 59.9636 15.1869 60.2929 15.5064C60.6223 15.8046 60.7941 16.1809 60.7941 16.614V25.8298C60.7941 26.3481 61.1593 26.6605 61.6963 26.6108L63.429 26.4546C63.9445 26.412 64.3025 26.0215 64.3025 25.5103V16.2945C64.3025 14.9242 63.7727 13.8379 62.7416 13.0782C61.7392 12.3114 60.522 11.9919 59.1115 12.1197L56.8203 12.3256C55.4098 12.4534 54.1711 12.993 53.1329 13.9444C52.1305 14.8887 51.6007 16.0957 51.6007 17.4376V26.6534C51.6007 27.1717 51.9658 27.4841 52.5028 27.4344V27.4486ZM45.8512 36.6147L48.8369 36.3733C49.646 36.3094 50.2761 36.1816 50.72 35.9899C51.1639 35.7982 51.5004 35.4858 51.7367 35.0385C51.9229 34.719 52.0088 34.3711 52.0088 33.9948C52.0088 33.1925 51.7224 32.6813 51.1424 32.4612C50.5625 32.2411 49.6818 32.1843 48.4932 32.2837L45.844 32.4967V36.6218L45.8512 36.6147ZM48.3858 26.9587V17.7429C48.3858 16.401 47.856 15.2863 46.8536 14.5266C45.8512 13.7598 44.6197 13.4403 43.1948 13.5681C41.412 13.7314 40.0659 13.9586 39.1781 14.2639C38.5408 14.5053 38.4764 14.9739 38.4764 15.1656V16.33C38.4764 16.5572 38.5337 16.7418 38.6554 16.8838C38.8058 17.0613 39.0277 17.1465 39.2926 17.1252C39.3356 17.1252 39.4358 17.1039 39.4788 17.0897C40.1662 16.8838 41.4192 16.6992 43.202 16.5359C43.6602 16.4933 44.054 16.6282 44.3834 16.9477C44.7128 17.2459 44.8846 17.6222 44.8846 18.0553V18.8221L40.9108 19.1771C39.486 19.3049 38.2401 19.8587 37.2234 20.8172C36.2067 21.7757 35.6912 22.9401 35.6912 24.282C35.6912 25.6239 36.221 26.7315 37.2592 27.5267C38.2616 28.2864 39.4931 28.613 40.918 28.4852L47.5266 27.8888C48.0422 27.8462 48.4002 27.4557 48.4002 26.9445L48.3858 26.9587ZM44.8774 25.1411L40.9036 25.4961C40.4239 25.5387 40.0158 25.4109 39.6936 25.1127C39.3642 24.8145 39.1924 24.4311 39.1924 23.9767C39.1924 23.5223 39.3571 23.1389 39.6936 22.7768C40.023 22.4218 40.4311 22.2159 40.9036 22.1733L44.8774 21.8183V25.1411Z" fill="#FAFAFA"/>
</g>
</g>
</svg>
