<svg width="180" height="71" viewBox="0 0 180 71" fill="none" xmlns="http://www.w3.org/2000/svg">
<g id="Logos">
<g id="Shape_3_copy">
<path id="Vector" fill-rule="evenodd" clip-rule="evenodd" d="M67.8467 8.93191L70.6964 8.67631C71.2334 8.62661 71.5986 8.25031 71.5986 7.73201V6.43981C71.5986 6.02091 71.3193 5.63041 70.6964 5.68721L67.8467 5.94281C67.2238 5.99961 66.9446 6.43981 66.9446 6.85871V8.15091C66.9446 8.66921 67.3097 8.98161 67.8467 8.93191ZM121.096 20.0079C122.098 20.7676 123.322 21.0942 124.754 20.9664C126.731 20.7889 128.227 20.4623 129.337 19.9724C129.723 19.802 129.945 19.4754 129.945 19.092V17.9773C129.945 17.246 129.337 17.0756 128.9 17.2247C127.855 17.5655 126.494 17.814 124.754 17.9702C124.275 18.0128 123.867 17.885 123.537 17.5868C123.208 17.2815 123.036 16.9052 123.036 16.4508V11.0619C123.036 10.6075 123.201 10.1957 123.537 9.84071C123.867 9.47861 124.275 9.27981 124.754 9.23721C126.494 9.08101 127.89 9.08101 128.893 9.23721C129.387 9.31531 129.945 9.02421 129.945 8.30001V7.18531C129.945 6.81611 129.745 6.53921 129.365 6.41141C128.263 6.12031 126.752 6.06351 124.754 6.24811C123.33 6.37591 122.091 6.92971 121.067 7.88821C120.065 8.83251 119.535 10.0395 119.535 11.3814V16.7703C119.535 18.1335 120.057 19.2198 121.096 20.015V20.0079ZM75.1356 25.4181L76.8397 25.2619C77.3767 25.2122 77.7418 24.8359 77.7418 24.3176V15.1018C77.7418 14.6687 77.9137 14.2498 78.243 13.8735C78.5724 13.5185 78.9805 13.3126 79.4602 13.27L81.7514 13.0641C82.2097 13.0215 82.6035 13.1564 82.9328 13.4759C83.2622 13.7741 83.434 14.1504 83.434 14.5835V23.7993C83.434 24.3176 83.7992 24.63 84.3362 24.5803L86.0689 24.4241C86.1548 24.417 86.2408 24.3886 86.3195 24.346C86.835 24.0762 86.9424 23.7283 86.9424 23.4798V14.264C86.9424 13.8309 87.1143 13.412 87.4436 13.0357C87.773 12.6807 88.1811 12.4748 88.6537 12.4322L90.9449 12.2263C91.4103 12.1837 91.8041 12.3186 92.1621 12.6381C92.4914 12.9363 92.6633 13.3126 92.6633 13.7457V22.9615C92.6633 23.4798 93.0284 23.7922 93.5654 23.7425L95.2695 23.5863C95.8065 23.5366 96.1717 23.1603 96.1717 22.642V13.4262C96.1717 12.0559 95.6418 10.9696 94.6108 10.2099C93.6084 9.44311 92.3769 9.12361 90.952 9.25141L88.6608 9.45731C87.3076 9.57801 86.1477 10.0608 85.1954 10.8915C84.2431 10.2312 83.0904 9.96141 81.7586 10.075L79.4674 10.2809C78.0569 10.4087 76.8182 10.9483 75.78 11.8997C74.7776 12.844 74.2478 14.051 74.2478 15.3929V24.6087C74.2478 25.127 74.6129 25.4394 75.1499 25.3897L75.1356 25.4181ZM94.3889 26.3411C94.5464 26.4902 94.7039 26.6819 94.8686 26.9233C95.0332 27.1647 95.2051 27.4132 95.3769 27.6759L101.649 36.5651V27.0795C101.649 26.4618 101.785 25.9932 102.05 25.6595C102.05 25.6524 102.064 25.6453 102.072 25.6382L94.3459 26.3127C94.3459 26.3127 94.3745 26.334 94.3889 26.3482V26.3411ZM70.1379 11.14L68.4052 11.2962C67.7823 11.353 67.503 11.8003 67.503 12.2121V25.2335C67.503 25.7518 67.8682 26.0642 68.4052 26.0145L70.1379 25.8583C70.6749 25.8086 71.0401 25.4323 71.0401 24.914V11.8997C71.0401 11.4808 70.7608 11.0903 70.1379 11.1471V11.14ZM97.9116 9.75551C98.112 9.64901 98.2839 9.49281 98.4199 9.32241L101.864 12.844L99.809 13.5327C99.7445 13.3339 99.6228 13.1564 99.451 13.0215C98.9426 12.631 98.1765 12.7588 97.7397 13.2984C97.303 13.838 97.3603 14.5906 97.8686 14.9811C98.377 15.3716 99.1431 15.2438 99.5799 14.7042C99.7016 14.5551 99.7803 14.3918 99.8233 14.2214L101.885 15.1728C101.885 15.2154 101.885 15.2509 101.885 15.2935C101.885 19.6671 105.465 22.8976 109.883 22.5C114.301 22.1024 117.881 18.2329 117.881 13.8593C117.881 9.48571 114.301 6.25521 109.883 6.65281C108.229 6.80191 106.69 7.44091 105.415 8.40651L103.675 7.21371C103.804 7.01491 103.89 6.78771 103.897 6.53921C103.933 5.82921 103.382 5.28251 102.666 5.31091C101.957 5.33931 101.348 5.94281 101.313 6.65281C101.277 7.36281 101.828 7.90951 102.537 7.88111C102.73 7.87401 102.916 7.81721 103.088 7.73911L103.468 10.1105L98.7564 8.52721C98.7851 8.26451 98.7564 8.00181 98.6347 7.76041C98.2982 7.05751 97.4175 6.81611 96.68 7.22081C95.9426 7.62551 95.6132 8.52011 95.9569 9.22301C96.2934 9.92591 97.1741 10.1673 97.9116 9.76261V9.75551ZM111.652 17.2815C112.239 17.2318 112.711 17.6578 112.711 18.24C112.711 18.8222 112.239 19.3334 111.652 19.3831C111.064 19.4328 110.592 19.0068 110.592 18.4246C110.592 17.8495 111.064 17.3312 111.652 17.2815ZM107.964 17.6152C108.551 17.5655 109.024 17.9915 109.024 18.5737C109.024 19.1559 108.551 19.6671 107.964 19.7168C107.377 19.7665 106.905 19.3405 106.905 18.7583C106.905 18.1761 107.377 17.6649 107.964 17.6152ZM113.656 27.0653L111.501 27.2428V38.0703L113.971 37.8715C114.516 37.8289 114.938 37.7792 115.246 37.7224C115.554 37.6656 115.869 37.5662 116.198 37.4242C116.528 37.2822 116.814 37.0976 117.057 36.8633C118.146 35.8622 118.69 34.2434 118.69 32.0069C118.69 30.4307 118.446 29.2734 117.974 28.5279C117.494 27.7824 116.9 27.3351 116.198 27.1789C115.497 27.0227 114.644 26.9872 113.649 27.0653H113.656ZM78.8087 37.0763L83.6202 36.6858L81.193 30.3029L78.8087 37.0763ZM136.554 26.121C136.397 26.121 136.389 26.2346 136.389 26.2346C136.389 26.2488 136.389 26.263 136.389 26.2772C136.389 26.6606 136.253 27.0227 135.974 27.3493C135.702 27.683 135.358 27.8605 134.95 27.896C134.578 27.9244 134.292 27.8605 134.098 27.6901C133.905 27.5197 133.69 27.2357 133.468 26.831C133.175 26.2559 132.824 25.8157 132.416 25.5104C132.007 25.2051 131.349 25.0915 130.439 25.1696C129.595 25.2406 128.922 25.4749 128.406 25.8867C127.89 26.2985 127.633 26.76 127.633 27.2712C127.633 27.5907 127.719 27.8605 127.898 28.0735C128.077 28.2936 128.313 28.4711 128.621 28.6131C128.929 28.7551 129.237 28.8616 129.552 28.9255C129.867 28.9965 130.389 29.0888 131.112 29.2095C132.022 29.3444 132.845 29.5077 133.576 29.7065C134.313 29.8982 134.936 30.1538 135.451 30.4804C135.967 30.7999 136.368 31.2259 136.661 31.7584C136.676 31.7868 136.69 31.8223 136.704 31.8507V26.2417C136.704 26.2417 136.683 26.1281 136.554 26.1281V26.121ZM109.496 24.9282C109.432 24.9495 109.368 24.9708 109.31 24.9921L109.496 24.9779V24.9282ZM134.141 38.404C133.175 38.9152 132.029 39.2276 130.704 39.3412C129.115 39.469 127.805 39.2844 126.774 38.7732C126.043 38.404 125.449 37.8857 124.991 37.2041C124.532 36.5225 124.303 35.848 124.303 35.1735C124.303 34.783 124.439 34.4351 124.711 34.1369C124.984 33.8387 125.334 33.6683 125.757 33.6328C126.1 33.6044 126.394 33.6896 126.63 33.8884C126.867 34.0872 127.074 34.3925 127.239 34.8043C127.447 35.2942 127.669 35.6989 127.905 36.0255C128.141 36.345 128.478 36.6006 128.907 36.7852C129.337 36.9698 129.91 37.0337 130.611 36.9769C131.578 36.8988 132.365 36.6077 132.967 36.1178C133.568 35.6208 133.876 35.0386 133.876 34.3712C133.876 33.8387 133.712 33.4269 133.389 33.1216C133.06 32.8163 132.645 32.6033 132.129 32.4684C131.614 32.3335 130.926 32.2057 130.06 32.085C128.9 31.9146 127.933 31.6803 127.153 31.3821C126.373 31.0839 125.757 30.6508 125.299 30.0686C124.84 29.4864 124.611 28.7338 124.611 27.8108C124.611 26.8878 124.855 26.1352 125.334 25.411C125.814 24.6868 126.516 24.1117 127.432 23.6644C127.69 23.5437 127.962 23.4301 128.241 23.3378L116.105 24.4028C116.549 24.417 116.957 24.4525 117.337 24.5235C118.124 24.6655 118.847 24.985 119.492 25.4891C121.167 26.7742 122.005 28.8687 122.005 31.7655C122.005 32.724 121.919 33.6044 121.754 34.4067C121.583 35.209 121.325 35.9474 120.974 36.6077C120.623 37.268 120.172 37.8786 119.621 38.4182C119.191 38.8371 118.719 39.185 118.203 39.4619C117.687 39.7388 117.136 39.9447 116.549 40.0867C115.962 40.2287 115.296 40.3281 114.559 40.392L110.313 40.7399C109.718 40.7896 109.274 40.7399 108.974 40.5837C108.673 40.4275 108.48 40.1932 108.387 39.8808C108.294 39.5684 108.251 39.1495 108.251 38.6383V26.9446C108.251 26.2488 108.408 25.7305 108.723 25.3968C108.874 25.2335 109.074 25.1057 109.317 25.0063L104.22 25.4536C104.22 25.4536 104.241 25.4749 104.255 25.4891C104.527 25.7731 104.663 26.2275 104.663 26.8452V39.3909C104.663 40.7896 104.076 41.5351 102.909 41.6345C102.616 41.6558 102.351 41.6345 102.122 41.5777C101.885 41.5138 101.671 41.4002 101.463 41.2369C101.255 41.0736 101.069 40.8748 100.89 40.6476C100.711 40.4204 100.539 40.1861 100.36 39.9447L94.2456 31.1549V40.4985C94.2456 41.1091 94.1025 41.5777 93.816 41.9185C93.5296 42.2522 93.1645 42.4368 92.7206 42.4794C92.2623 42.5149 91.89 42.3871 91.6108 42.096C91.3315 41.8049 91.1955 41.3576 91.1955 40.7541V28.4498C91.1955 27.9244 91.2528 27.5126 91.3745 27.2073C91.4747 26.9659 91.6251 26.7529 91.8184 26.5612L82.7825 27.3564C82.9042 27.4558 83.0116 27.5694 83.1047 27.6901C83.2908 27.9457 83.4484 28.2155 83.5772 28.5137C83.7061 28.8119 83.8708 29.2095 84.0641 29.7065L88.267 39.6536C88.5964 40.4133 88.7611 40.9671 88.7611 41.3221C88.7611 41.6771 88.6036 42.0463 88.2957 42.38C87.9878 42.7137 87.6083 42.8983 87.1716 42.9338C86.9138 42.9551 86.699 42.9338 86.5128 42.8486C86.3267 42.7705 86.1763 42.664 86.0546 42.5149C85.9329 42.3658 85.7968 42.1386 85.6536 41.8262C85.5104 41.5138 85.3887 41.244 85.2885 41.0026L84.5224 39.0643L77.9781 39.5968L77.212 41.7055C76.9113 42.5291 76.6535 43.09 76.4459 43.3811C76.2311 43.6793 75.8874 43.8426 75.4005 43.8852C74.9924 43.9207 74.6272 43.8 74.3122 43.5302C73.9972 43.2604 73.8396 42.9338 73.8396 42.5575C73.8396 42.3374 73.8754 42.1102 73.947 41.8759C74.0186 41.6345 74.1404 41.3079 74.3122 40.8748L78.4292 30.1822C78.5438 29.8769 78.687 29.5077 78.8516 29.0746C79.0163 28.6415 79.1953 28.2865 79.3815 27.9954C79.4674 27.8605 79.5676 27.7327 79.6822 27.6191L69.1212 28.5421C69.2143 28.5705 69.3002 28.5989 69.3861 28.6273C69.8945 28.7977 70.3384 29.0604 70.725 29.4225C71.1117 29.7846 71.4052 30.2106 71.6057 30.7147C71.8062 31.2188 71.9064 31.7584 71.9064 32.3406C71.9064 33.5334 71.5699 34.5061 70.8897 35.2729C70.2095 36.0397 69.1856 36.629 67.8109 37.0337C68.3909 37.2893 68.9422 37.694 69.472 38.2478C70.0019 38.8016 70.4673 39.3909 70.8826 40.0299C71.2978 40.6689 71.62 41.244 71.8492 41.7694C72.0783 42.2877 72.1928 42.6498 72.1928 42.8557C72.1928 43.0616 72.1284 43.2817 71.9924 43.4947C71.8563 43.7148 71.6702 43.8923 71.441 44.0272C71.2048 44.1692 70.9327 44.2473 70.632 44.2757C70.2668 44.3041 69.9589 44.2473 69.7083 44.0982C69.4577 43.9491 69.2429 43.7503 69.0639 43.5018C68.8849 43.2533 68.6415 42.8912 68.3336 42.4084L67.0305 40.3636C66.5651 39.611 66.1426 39.043 65.7703 38.6596C65.398 38.2762 65.0257 38.0277 64.6462 37.8999C64.2667 37.7792 63.787 37.7437 63.207 37.7863L62.0686 37.8786V43.0048C62.0686 43.6793 61.9182 44.1905 61.6175 44.5313C61.3168 44.8721 60.923 45.0638 60.4433 45.1064C59.9206 45.149 59.5196 45.0141 59.2332 44.7017C58.9468 44.3893 58.8036 43.9136 58.8036 43.2675V30.9987C58.8036 30.3029 58.9612 29.7846 59.2762 29.4509C59.2905 29.4296 59.312 29.4154 59.3335 29.3941L52.8895 29.9621C53.047 30.0189 53.1902 30.0828 53.3334 30.1538C53.7129 30.3455 54.0494 30.6082 54.343 30.9277C54.6365 31.2472 54.8585 31.6093 55.016 32.014C55.1664 32.4187 55.2451 32.8518 55.2451 33.3204C55.2451 34.9179 54.4432 36.1462 52.8322 37.0195C54.9444 37.5165 56.0041 38.7235 56.0041 40.6547C56.0041 41.5493 55.775 42.3658 55.3096 43.1184C54.8513 43.871 54.2284 44.4461 53.4408 44.8508C52.9539 45.0922 52.3883 45.2839 51.751 45.4188C51.1138 45.5537 50.3692 45.6602 49.5243 45.7241L44.6054 46.1288C43.8965 46.1856 43.3882 46.072 43.0874 45.7809C43.0588 45.7525 43.0302 45.7241 43.0015 45.6886V46.3205C43.0015 46.3205 43.0588 46.4341 43.1805 46.4696C47.2116 47.5204 117.988 65.9023 117.988 65.9023L136.74 36.6219V35.7273C136.64 35.9687 136.518 36.203 136.375 36.4373C135.874 37.2467 135.136 37.907 134.177 38.4253L134.141 38.404ZM142.984 5.89311C141.981 5.12631 140.75 4.80681 139.325 4.93461C137.542 5.09791 136.196 5.32511 135.308 5.63041C134.671 5.87181 134.607 6.34041 134.607 6.53211V7.69651C134.607 7.92371 134.664 8.10831 134.786 8.25031C134.936 8.42781 135.158 8.51301 135.423 8.49171C135.466 8.49171 135.566 8.47041 135.609 8.45621C136.296 8.25031 137.549 8.06571 139.332 7.90241C139.79 7.85981 140.184 7.99471 140.514 8.31421C140.843 8.61241 141.015 8.98871 141.015 9.42181V10.1886L137.041 10.5436C135.616 10.6714 134.37 11.2252 133.354 12.1837C132.337 13.1422 131.821 14.3066 131.821 15.6485C131.821 16.9904 132.344 18.098 133.382 18.8932C134.385 19.6529 135.616 19.9795 137.041 19.8517L143.65 19.2553C144.165 19.2127 144.523 18.8222 144.523 18.311V9.10941C144.523 7.76751 143.993 6.65281 142.991 5.89311H142.984ZM141.008 16.5147L137.034 16.8697C136.554 16.9123 136.146 16.7845 135.824 16.4863C135.494 16.181 135.323 15.8047 135.323 15.3503C135.323 14.8959 135.487 14.5125 135.824 14.1504C136.153 13.7954 136.561 13.5895 137.034 13.5469L141.008 13.1919V16.5147ZM62.0256 35.5498L64.9469 35.3084C65.7274 35.2445 66.3861 35.1238 66.9231 34.9463C67.4601 34.7688 67.8682 34.5061 68.1474 34.1582C68.4267 33.8103 68.5699 33.3559 68.5699 32.7879C68.5699 32.3477 68.4553 31.9643 68.2262 31.6448C67.9971 31.3253 67.682 31.0981 67.2811 30.9632C66.9016 30.8354 66.1498 30.8141 65.0328 30.9064L62.0256 31.1549V35.5427V35.5498ZM51.8012 38.9862C51.2284 38.6738 50.3763 38.5602 49.245 38.6525L45.8512 38.9294V43.587L49.3524 43.303C51.5577 43.1255 52.6604 42.2451 52.6604 40.6689C52.6604 39.8666 52.374 39.3057 51.8012 38.9862ZM52.5028 27.4487L54.2069 27.2925C54.7439 27.2428 55.1091 26.8665 55.1091 26.3482V17.1324C55.1091 16.6993 55.2809 16.2875 55.6103 15.9041C55.9396 15.5491 56.3478 15.3432 56.8203 15.3006L59.1115 15.0947C59.5698 15.0521 59.9636 15.187 60.2929 15.5065C60.6223 15.8047 60.7941 16.181 60.7941 16.6141V25.8299C60.7941 26.3482 61.1593 26.6606 61.6963 26.6109L63.429 26.4547C63.9445 26.4121 64.3025 26.0216 64.3025 25.5104V16.2946C64.3025 14.9243 63.7727 13.838 62.7416 13.0783C61.7392 12.3115 60.522 11.992 59.1115 12.1198L56.8203 12.3257C55.4098 12.4535 54.1711 12.9931 53.1329 13.9445C52.1305 14.8888 51.6007 16.0958 51.6007 17.4377V26.6535C51.6007 27.1718 51.9658 27.4842 52.5028 27.4345V27.4487ZM45.8512 36.6148L48.8369 36.3734C49.646 36.3095 50.2761 36.1817 50.72 35.99C51.1639 35.7983 51.5004 35.4859 51.7367 35.0386C51.9229 34.7191 52.0088 34.3712 52.0088 33.9949C52.0088 33.1926 51.7224 32.6814 51.1424 32.4613C50.5625 32.2412 49.6818 32.1844 48.4932 32.2838L45.844 32.4968V36.6219L45.8512 36.6148ZM48.3858 26.9588V17.743C48.3858 16.4011 47.856 15.2864 46.8536 14.5267C45.8512 13.7599 44.6197 13.4404 43.1948 13.5682C41.412 13.7315 40.0659 13.9587 39.1781 14.264C38.5408 14.5054 38.4764 14.974 38.4764 15.1657V16.3301C38.4764 16.5573 38.5337 16.7419 38.6554 16.8839C38.8058 17.0614 39.0277 17.1466 39.2926 17.1253C39.3356 17.1253 39.4358 17.104 39.4788 17.0898C40.1662 16.8839 41.4192 16.6993 43.202 16.536C43.6602 16.4934 44.054 16.6283 44.3834 16.9478C44.7128 17.246 44.8846 17.6223 44.8846 18.0554V18.8222L40.9108 19.1772C39.486 19.305 38.2401 19.8588 37.2234 20.8173C36.2067 21.7758 35.6912 22.9402 35.6912 24.2821C35.6912 25.624 36.221 26.7316 37.2592 27.5268C38.2616 28.2865 39.4931 28.6131 40.918 28.4853L47.5266 27.8889C48.0422 27.8463 48.4002 27.4558 48.4002 26.9446L48.3858 26.9588ZM44.8774 25.1412L40.9036 25.4962C40.4239 25.5388 40.0158 25.411 39.6936 25.1128C39.3642 24.8146 39.1924 24.4312 39.1924 23.9768C39.1924 23.5224 39.3571 23.139 39.6936 22.7769C40.023 22.4219 40.4311 22.216 40.9036 22.1734L44.8774 21.8184V25.1412Z" fill="#4D4040"/>
</g>
</g>
</svg>
