<svg width="180" height="71" viewBox="0 0 180 71" fill="none" xmlns="http://www.w3.org/2000/svg">
<g id="Logos">
<path id="Vector" d="M46.582 54.5422V53.5695H46.9472V53.4275H46.0594V53.5695H46.4174V54.5493H46.582V54.5422ZM48.3577 54.5351V53.4204H48.2002L47.7921 54.0239L47.3911 53.4204H47.2121V54.5422H47.3768V53.676L47.7778 54.2795H47.7921L48.2002 53.676V54.5422H48.3577V54.5351ZM43.3386 54.6345C43.3386 54.6345 43.3958 54.6203 43.4102 54.599L58.396 39.7742C58.396 39.7742 58.4175 39.7245 58.4175 39.7032C58.4175 39.6464 58.3817 39.5967 58.3244 39.5967L40.6034 39.7955C40.5175 39.8097 40.4674 39.8381 40.403 39.8665L27.8085 49.8491C27.6796 49.9485 27.515 49.8491 27.515 49.7142C27.515 49.6645 27.5364 49.6219 27.5651 49.5935L51.7516 22.5496C51.7516 22.5496 51.773 22.507 51.773 22.4928C51.773 22.436 51.7301 22.3863 51.6728 22.3863L33.4792 22.3721C33.4792 22.3721 33.4291 22.3863 33.4076 22.4005L18.5721 37.9921C18.5721 37.9921 18.5363 38.0418 18.5363 38.0702L23.8705 54.5635C23.892 54.6061 23.9135 54.6345 23.9636 54.6345L43.3386 54.6487V54.6345ZM158.987 32.1346H159.545C159.825 32.1346 159.975 32.2553 159.975 32.4683C159.975 32.7026 159.796 32.8162 159.524 32.8162H158.987V32.1346ZM160.354 33.7676L159.774 33.0221C160.054 32.944 160.269 32.7594 160.269 32.4683C160.269 32.2979 160.19 32.1914 160.111 32.0991C159.989 31.9571 159.774 31.8861 159.553 31.8861H158.7V33.7676H158.973V33.0576H159.452L160.011 33.7676H160.354ZM159.424 31.2116C160.397 31.2116 161.106 31.9358 161.106 32.8801C161.106 33.8244 160.376 34.5699 159.424 34.5486C158.457 34.5486 157.741 33.7889 157.741 32.8801C157.741 31.9713 158.464 31.2116 159.424 31.2116ZM159.431 34.7048C160.462 34.7048 161.271 33.8812 161.271 32.8801C161.271 31.879 160.462 31.0483 159.431 31.0483C158.4 31.0483 157.576 31.9074 157.576 32.9085C157.576 33.9096 158.385 34.7119 159.431 34.7119V34.7048ZM156.467 47.8611L148.87 38.3684L156.144 31.027H153.674L143.922 41.0877V31.027H142.039V47.8611H143.951V43.3526L147.567 39.7032L154.075 47.8611H156.474H156.467ZM107.335 47.8824V46.15H96.8381V40.2641H106.117V38.5175H96.8452V32.7665H107.191V31.0341H94.9264V47.8895H107.327L107.335 47.8824ZM130.905 47.8824V46.15H120.409V40.2641H129.681V38.5175H120.409V32.7665H130.741V31.0341H118.476V47.8895H130.898L130.905 47.8824ZM69.0072 39.5044C69.0072 44.3324 72.6086 48.1593 77.5347 48.1593C80.6135 48.1593 82.5539 46.9949 84.3224 45.1986L83.0551 43.9632C81.4369 45.4968 79.9118 46.3914 77.5777 46.3914C73.8258 46.3914 70.9905 43.3526 70.9905 39.4547V39.4121C70.9905 35.5355 73.8115 32.5109 77.5777 32.5109C79.6756 32.5251 81.573 33.4126 82.9047 34.8255L84.215 33.4268C82.5109 31.8222 80.6708 30.743 77.592 30.743C72.5872 30.743 69 34.6835 69 39.4547V39.4973L69.0072 39.5044Z" fill="#4D4040"/>
</g>
</svg>
