<?xml version="1.0" encoding="utf-8"?>
<!-- Generator: Adobe Illustrator 27.6.1, SVG Export Plug-In . SVG Version: 6.00 Build 0)  -->
<svg version="1.1" id="Layer_1" xmlns="http://www.w3.org/2000/svg" xmlns:xlink="http://www.w3.org/1999/xlink" x="0px" y="0px"
	 viewBox="0 0 250 100" style="enable-background:new 0 0 250 100;" xml:space="preserve">
<style type="text/css">
	.st0{fill:#4D4040;}
</style>
<path class="st0" d="M139.8,95.7c0.4-0.3,0.8-0.4,1.2-0.3c0.4,0.4,0.8,0.8,1.1,1.2c0.2,0.3,0.6,0.6,0.8,0.9c0.1,0.3,0,0.4-0.3,0.4
	C141.7,97.3,140.7,96.5,139.8,95.7L139.8,95.7z"/>
<path class="st0" d="M142.2,96.2c-0.1,0-0.2,0-0.2-0.1c-0.2-0.3-0.4-0.6-0.6-0.8c0-0.2,0-0.3,0.2-0.4
	C141.8,95.3,142.1,95.8,142.2,96.2L142.2,96.2z"/>
<path class="st0" d="M142.7,98c0.2-0.1,0.3-0.2,0.3-0.4c0.2,0.2,0.3,0.5,0.5,0.8c-0.1,0-0.2,0-0.3,0C143,98.2,142.8,98.1,142.7,98
	L142.7,98z"/>
<g>
	<path class="st0" d="M76.3,33.1c-0.2,0.2-0.5,0.3-0.7,0.5c-0.1,0.1-0.2,0.1-0.3,0.1c-0.2,0-0.5,0-0.7,0s-0.4,0-0.5-0.2
		s-0.3-0.2-0.5,0c-0.2,0.3-0.4,0.3-0.7,0.1c-0.2-0.1-0.3,0-0.4,0c-0.2,0.1-0.3,0-0.2-0.2c0-0.2,0-0.4,0.1-0.6c0,0,0-0.1,0-0.2
		c-0.2-0.4-0.1-0.7-0.1-1.1c0-0.2-0.1-0.4-0.3-0.5c-0.3-0.2-0.3-0.2-0.1-0.5c0.1-0.1,0.2-0.2,0.1-0.3c-0.1-0.1-0.2-0.1-0.3-0.1
		c-0.2,0.1-0.2,0-0.2-0.2c0-0.1,0.2-0.2-0.1-0.3c-0.2-0.1-0.3-0.3-0.5-0.4S70.6,29,70.4,29c-0.1-0.1-0.2-0.1-0.2-0.3
		c0.1-0.1,0.2-0.2,0.4-0.3c0.1,0,0.2,0.1,0.2,0.2s0.1,0.1,0.2,0.1s0.1-0.1,0.1-0.2S71,28.4,71,28.4c-0.1,0-0.2,0-0.3-0.1
		c0-0.2-0.2-0.3-0.3-0.2c-0.1,0.1-0.2,0.1-0.3,0c-0.1-0.1-0.1-0.2,0-0.3c0.1-0.1,0.3-0.3,0.4-0.3c0.2,0,0.2-0.2,0.1-0.3
		c-0.1-0.1-0.2-0.3-0.3-0.4c-0.1,0-0.1-0.1-0.2,0c-0.1,0-0.1,0.1,0,0.2c0.1,0.3,0.1,0.5-0.2,0.8c-0.1,0.1-0.2,0.4-0.1,0.6
		c0,0.1,0.1,0.1,0.1,0.2c0,0.2-0.2,0.2-0.3,0.2c0.1,0.1,0.2,0.2,0.3,0.3c0.2,0.1,0.2,0.3,0.2,0.5c-0.1,0.2-0.2,0.2-0.4,0.1
		c-0.1-0.1-0.3-0.2-0.4-0.3c-0.1,0-0.1-0.2-0.2-0.3c0-0.2-0.1-0.4-0.2-0.5c-0.2,0.2,0.1,0.4-0.1,0.5c-0.2-0.1-0.4-0.3-0.6-0.4
		c-0.2,0-0.2-0.1-0.2-0.2c0-0.4-0.4-0.6-0.7-0.5c-0.2,0.1-0.3,0-0.5-0.1c-0.9-0.5-1.8-1-2.7-1.6c-0.4-0.3-0.8-0.3-1.2-0.6
		c-0.2-0.1-0.4-0.2-0.5-0.4c-0.1-0.1-0.2-0.2-0.2,0c-0.2,0.6-0.7,0.8-1.2,1.1c-1.3,0.7-2.6,1.5-3.9,2.2c-1.4,0.8-2.8,1.6-4.1,2.4
		c-0.1,0.1-0.2,0.2-0.2,0.4c-0.1,0.5,0,0.9,0,1.4c0,0.3,0,0.5,0,0.8c0,0.2-0.1,0.2-0.2,0.3c0,0.2,0.3,0.2,0.2,0.4
		c0,0.6-0.1,1.2,0,1.8c0.1,1.9,0,3.8,0,5.7c0,0.5,0.1,0.8,0.5,0.9c0.2,0.1,0.4,0.2,0.5,0.5c0,0.2,0.2,0.2,0.3,0.2s0.2-0.1,0.3,0
		c0,0.1,0,0.1,0,0.2c0,0.1-0.2,0.2,0,0.2c0.1,0.1,0.2,0,0.3-0.1c0,0,0-0.1,0.1-0.2c0.2,0,0.3,0.1,0.4,0.2c0.2,0.2,0.5,0.2,0.7,0.3
		c0.7,0.4,1.4,0.8,2.1,1.2c0.8,0.5,1.6,0.9,2.4,1.3c0.6,0.4,1.3,0.7,1.9,1.1c0.3,0.2,0.5,0.2,0.8,0c0.5-0.3,1-0.5,1.5-0.8
		c0,0,0.1,0,0.1-0.1c0.2-0.2,0.5-0.2,0.8,0s0.6,0.4,1,0.5c0.2,0.1,0.2,0.4,0.5,0.4c0.2,0,0.4,0.2,0.6,0.3c0.3,0.2,0.7,0.4,1,0.5
		c0.1,0.1,0.3,0.2,0.3,0.3c0.1,0.2,0,0.3-0.2,0.4c-0.5,0.3-1,0.6-1.6,0.9c-0.1,0-0.2,0.1-0.3,0.1c-0.2,0-0.2,0.1-0.3,0.2
		c-0.2,0.3-0.5,0.3-0.7,0.5c-0.9,0.5-1.8,1-2.8,1.5c-0.2,0.1-0.5,0.1-0.7,0c-2-1.2-4.1-2.4-6.1-3.5c-0.2-0.1-0.5-0.2-0.7-0.4
		c-0.1-0.1-0.2,0-0.2,0c-0.5,0.1-0.8,0.5-1.2,0.7c-0.3,0.2-0.6,0.4-1,0.6c-0.1,0.1-0.3,0.2-0.2,0.3s0,0.2,0,0.3c0,3.5,0,6.9,0,10.3
		c0,0.1,0,0.2,0,0.3c0.3,0.3,0.8,0.5,1.2,0.7c0.1,0,0.2,0.1,0.2,0.1c0.1,0.2,0.1,0.4,0.2,0.5l0.1,0.1c0.1,0,0.1-0.1,0.1-0.1
		c0-0.1,0.1-0.2,0.3-0.2c0.3,0.3,0.8,0.5,1.2,0.7c0.8,0.5,1.7,0.9,2.5,1.4c0.8,0.5,1.7,1,2.6,1.5c0.4,0.3,0.9,0.4,1.3,0.8
		c0.2,0.2,0.3,0,0.5-0.1h0.1c0.1,0.1,0.1,0.2,0.2,0.2c0.2,0,0.3,0.1,0.5,0.1c-0.1-0.1-0.3-0.1-0.4-0.2c-0.2-0.1-0.2-0.2-0.1-0.4
		c0.9-0.5,1.9-1.1,2.8-1.6c1.2-0.7,2.3-1.3,3.5-2c0.7-0.4,1.3-0.8,2-1.2c0.2-0.1,0.4-0.3,0.7-0.4c0.1,0,0.1-0.1,0.1-0.2
		c0-0.8,0-1.6,0-2.4c0-0.2-0.1-0.2-0.3-0.3c-0.6-0.2-1.3,0.1-1.9,0c-0.2,0-0.4,0-0.6,0c-0.3-0.1-0.5,0-0.8,0.1
		c-1.5,0.8-3,1.7-4.4,2.5c-0.5,0.3-1.1,0.6-1.7,1c-0.1,0.1-0.2,0.1-0.3,0c-0.4-0.3-0.9-0.5-1.3-0.9c-0.2-0.1-0.4-0.1-0.6-0.2
		c-0.2-0.1-0.4-0.1-0.4-0.4l-0.1-0.1c-0.7-0.1-1.1-0.5-1.7-0.8c-0.3-0.2-0.6-0.4-0.9-0.5c-0.3-0.2-0.4-0.3-0.4-0.7
		c0-1.3,0-2.6,0-3.8c0-0.1-0.1-0.3,0.1-0.3c0.1-0.1,0.3,0,0.3,0.1c0.2,0.4,0.7,0.4,1,0.6c0.7,0.4,1.4,0.8,2.1,1.2
		c0.5,0.3,1.1,0.6,1.6,0.9c0.3,0.2,0.6,0.2,0.9,0c0.8-0.5,1.6-0.9,2.4-1.4c0.1-0.1,0.2-0.1,0.4-0.2c0.1,0,0.2-0.1,0.3-0.2
		c0.2-0.2,0.5-0.3,0.7-0.4c0.1,0,0.2,0,0.2,0c0.1,0.2,0.3,0.3,0.5,0.3c-0.1-0.1-0.1-0.2-0.2-0.3c-0.1,0-0.2-0.1-0.1-0.2
		c0.1-0.2,0.3-0.2,0.5-0.2h0.1c1.9,0,3.7,0,5.6,0h0.1c0.1,0.1,0.3,0,0.4,0c0.8,0,1.5,0,2.3,0c0.1,0,0.1,0,0.2,0.1c0,0.1,0,0.1,0,0.2
		c0,1.8,0,3.6,0,5.4c0,0.1,0,0.1,0,0.2c0,0.3-0.1,0.6,0,0.9c0.1,0.2-0.1,0.3-0.2,0.3s-0.2,0-0.3,0.2c0,0.1,0.1,0.2,0.2,0.2
		c0.2,0.1,0.3,0.3,0.3,0.6s0,0.7,0,1c0,0.2-0.1,0.2-0.2,0.3c-0.2,0.1-0.4,0.3-0.6,0.3c-0.4,0-0.6,0.4-1,0.4c-0.1,0-0.1,0.1-0.1,0.2
		c0,0.3-0.2,0.3-0.5,0.3c-0.1,0-0.1,0-0.2,0c-0.3-0.1-0.4,0-0.5,0.3c0,0.2-0.2,0.4-0.4,0.5c-0.9,0.5-1.8,1-2.6,1.5
		c-0.7,0.4-1.3,0.7-2,1.1c-1.4,0.9-2.8,1.6-4.2,2.5c-0.2,0.1-0.3,0.2-0.5,0c-0.1-0.1-0.2-0.1-0.2-0.1c-0.1,0.1,0,0.1,0,0.2
		c0.1,0.2,0,0.2-0.1,0.3c-0.2,0.1-0.4,0.2-0.6,0.3c-0.2,0.1-0.3,0-0.4-0.1c-1.6-1-3.3-1.9-4.9-2.9c-2.2-1.2-4.3-2.5-6.5-3.7
		c-0.5-0.3-1.1-0.7-1.6-1c-0.2-0.1-0.4-0.2-0.6-0.3l-0.1-0.1c0-0.2,0-0.3,0-0.5s0-0.3,0-0.4c0-4,0-7.9,0-11.9c0-0.2,0-0.3,0-0.5
		c-0.1-0.1,0-0.3,0.1-0.4c0.3-0.2,0.3-0.2,0-0.5c-0.1-0.1-0.1-0.2-0.1-0.2c0-0.4,0-0.8,0-1.2c0-0.2,0.2-0.4,0.3-0.5
		c0.4-0.2,0.7-0.5,1.2-0.6c0.3-0.1,0.6-0.3,0.8-0.6c0.2-0.2,0-0.3-0.1-0.4c-0.6-0.3-1.2-0.7-1.8-1c-0.1-0.1-0.3-0.2-0.4-0.3
		c-0.1-0.1-0.1-0.2,0-0.3c0.1-0.6,0-1.3,0-1.9c0-0.6,0-1.1,0-1.7c0-0.1,0-0.3,0-0.4c0-0.2,0-0.3,0-0.5c0-1.9,0-3.7,0-5.6
		c0-0.3-0.1-0.6,0.4-0.7c0,0,0.1,0,0.1-0.1s-0.1-0.1-0.1,0c-0.3,0.2-0.3,0-0.3-0.2c0-0.3,0-0.5,0-0.8c0-0.2,0-0.3,0-0.5
		s0.1-0.3,0.3-0.2c0.1,0,0.2,0.1,0.2,0s0-0.2-0.1-0.2c-0.3-0.2-0.3-0.4-0.3-0.7c0-0.6,0.1-1.1,0-1.7c0-0.2,0-0.3,0.2-0.5
		c0.9-0.5,1.7-1,2.6-1.5c0.4-0.2,0.9-0.5,1.3-0.8c0.1-0.1,0.3-0.1,0.4-0.1c0.1,0,0.2,0,0.2-0.1c0.6-0.6,1.3-0.9,2-1.3
		c1.2-0.7,2.4-1.4,3.6-2.1c0.3-0.2,0.6-0.3,0.9-0.4c0.3-0.1,0.5-0.4,0.8-0.5c0.3-0.2,0.6-0.4,0.9-0.5c0.3-0.2,0.6,0,0.7,0.3
		c0,0.3,0.1,0.2,0.3,0.1c0,0,0.1,0,0.2-0.1c0.2-0.2,0.3-0.1,0.5,0l0,0c0.1,0.1,0.3,0.2,0.4,0.1c0.1-0.1-0.1-0.2-0.1-0.3
		c-0.1-0.1-0.1-0.2,0.1-0.2c0.7,0.4,1.4,0.9,2.1,1.2c0.2,0.1,0.5,0.2,0.2,0.5c-0.1,0-0.1,0.1,0,0.2s0.2,0,0.3,0
		c0.2-0.1,0.2-0.3,0.4-0.2c0.3,0.1,0.5,0.3,0.8,0.5c0.1,0.1,0.1,0.2,0.1,0.3c0,0.2,0.1,0.2,0.2,0.1c0.2-0.1,0.4-0.1,0.5,0
		s0.2,0.1,0.3,0.2c0.2,0.1,0.5,0.2,0.2,0.5c-0.1,0.1,0.2,0.8,0.4,0.8c0.1,0,0.2,0,0.2-0.1s0-0.1,0-0.2s0-0.2,0.2-0.2
		s0.2,0.1,0.2,0.2s0,0.2,0,0.3c0,0.1,0.1,0.2,0.2,0.2s0.1-0.1,0.1-0.2c0-0.2-0.1-0.4,0.2-0.4c0.3,0,0.2,0.3,0.2,0.4s0,0.3,0,0.5
		c0,0.1,0.1,0.3,0.2,0.3c0.2,0,0.3,0.1,0.4,0.2s0.2,0.1,0.3,0.1c0.2,0,0.4,0.1,0.5,0.4c0.1,0.2,0.2,0.2,0.4,0.1
		c0.2,0,0.2-0.2,0.2-0.3c0-0.1,0-0.1,0-0.2c0.1-0.2,0.2-0.1,0.3-0.1c0.2,0.1,0.4,0.3,0.7,0.4c-0.2,0.1-0.3,0.1-0.4,0.1
		s-0.2,0.1-0.1,0.2c0.1,0.2,0.6,0.2,0.7,0c0.1-0.1,0.2-0.1,0.3-0.1c0.9,0.5,1.8,1,2.6,1.5l0.1,0.1c0,0.1,0,0.1,0,0.2
		c0,1.3,0,2.5,0,3.8C76.3,32.9,76.3,32.9,76.3,33.1L76.3,33.1z"/>
	<path class="st0" d="M201,53.9c0.4,0,0.6,0.2,0.6,0.5c0,0.7,0,1.3,0,2c-0.1,1.9-0.7,3.5-1.9,5c-0.7,0.8-1.6,1.5-2.6,2
		c-0.8,0.4-1.6,0.6-2.5,0.7c-0.2,0-0.3,0.1-0.5,0.1c-0.1,0-0.1,0-0.2,0c-2.7,0-5.4,0-8.1,0c-0.1,0-0.1,0-0.2,0
		c-0.1-0.1-0.1-0.2-0.1-0.3c0-1.2,0-2.4,0-3.6c0-0.2,0.1-0.3,0.3-0.3c2.6,0,5.1,0,7.6,0c1,0,1.8-0.3,2.6-0.9
		c0.3-0.3,0.6-0.6,0.9-0.9c0,0,0.1-0.1,0.1-0.2c0-0.1-0.1,0-0.2,0c-0.1,0-0.3,0-0.4-0.1c-0.1,0-0.2,0-0.2,0c-3.2,0-6.4,0-9.7,0
		c-0.1,0-0.2,0-0.2,0c-0.2,0-0.6,0.1-0.7,0c-0.2-0.1-0.1-0.5-0.1-0.7c0-0.6,0-1.2,0-1.9c0.1-1.8,0.8-3.5,2-4.9s2.8-2.3,4.6-2.7
		c0.3-0.1,0.6-0.1,0.8-0.1c0.1,0,0.2,0,0.3,0c2.4,0,4.9,0,7.3,0c0.1,0,0.2,0,0.3,0s0.2,0,0.3,0s0.3-0.1,0.3,0.1
		c0.1,0.1,0,0.3-0.1,0.4c-0.4,0.6-0.8,1.3-1.2,1.9c-0.3,0.5-0.7,1-1,1.5c-0.2,0.3-0.4,0.4-0.7,0.3c-1.5-0.1-2.9,0-4.4,0
		c-0.6,0-1.2,0-1.7,0.2c-0.6,0.2-1.2,0.6-1.7,1.1c-0.2,0.2-0.4,0.4-0.6,0.7c0.3,0.1,0.6,0,0.8,0.1c0.1,0,0.2,0,0.2,0
		c3.2,0,6.4,0,9.6,0C200.8,53.9,200.9,54,201,53.9L201,53.9z"/>
	<path class="st0" d="M179.6,47.9c1.3,0,2.6,0.1,3.9,0.1c0.1,0.1,0,0.2,0,0.3c0,5.2,0,10.4,0,15.5c0,0.1,0,0.2,0,0.3l0,0
		c-0.3,0.1-0.6,0-0.8,0c-0.9,0-1.7,0-2.6,0c-1.9-2.4-3.7-4.8-5.6-7.2c-0.6-0.8-1.2-1.5-1.6-2.3c0,0-0.1-0.1-0.1,0
		c-0.1,0.1,0,0.2,0,0.3c0,3,0,5.9,0,8.8c0,0.1,0,0.2,0,0.3c-0.1,0-0.2,0-0.4,0c-1.2,0-2.3,0-3.5,0c-0.1-0.1-0.1-0.3-0.1-0.5
		c0.1-0.3,0.1-0.6,0.1-0.9c0-4.7,0-9.4,0-14.1c0-0.2-0.1-0.4-0.1-0.5s0-0.3,0.2-0.3c1.1,0,2.2,0,3.3,0c0.1,0,0.2,0.1,0.3,0.2
		c2,2.6,4,5.2,6,7.9c0.3,0.4,0.6,0.8,1,1.2v-0.4c0-0.1,0-0.2,0-0.2c0-2.8,0-5.5,0-8.3C179.6,48.1,179.6,48,179.6,47.9L179.6,47.9z"
		/>
	<path class="st0" d="M143.4,54.9c-0.1-0.7-0.2-1.3-0.5-2c-0.6-1.6-1.7-2.8-3.1-3.7c-1.4-0.9-3.1-1.3-4.7-1.3c-0.1,0-0.2,0-0.3,0
		c-2,0-4,0-5.9,0c-0.3,0-0.5,0.2-0.5,0.5c0,0.2,0,0.3,0,0.4c0,0.1,0,0.2,0,0.3v14c0,0.1,0,0.2,0,0.3c0,0.2-0.1,0.6,0.1,0.7
		c0.2,0.1,0.5,0,0.8,0c0,0,0,0,0.1,0c0.1-0.1,0.2,0,0.3,0c1.9,0,3.9,0,5.8,0c0.1,0,0.2,0,0.3,0c0.4,0,0.7-0.1,1-0.1
		c0.9-0.1,1.7-0.4,2.5-0.8c2.2-1.1,3.6-2.8,4.2-5.1C143.5,57.1,143.4,56,143.4,54.9L143.4,54.9z M139,57.3c-0.2,0.9-0.6,1.7-1.3,2.4
		c-0.7,0.6-1.4,0.9-2.3,1c-1,0.1-2,0-3,0c-0.1,0-0.1,0-0.1,0v-0.1c0-3,0-6.1,0-9.1c0,0,0-0.1,0-0.2c0.9,0,1.8-0.1,2.7,0
		c1.6,0.2,3,0.8,3.8,2.3C139.3,54.9,139.3,56.1,139,57.3L139,57.3z"/>
	<path class="st0" d="M116.1,29.9c0.1-0.4-0.1-0.8,0.1-1.2c0.8,0,1.6,0,2.3,0c0.4,0,0.8,0,1.2,0c0.2,0.1,0.2,0.3,0.3,0.4
		c1.6,2.1,3.2,4.1,4.7,6.2c0.6,0.8,1.3,1.7,1.9,2.5c0,0,0.1,0.1,0.1,0.2v-1.4c0.1-0.1,0-0.2,0-0.3c0-2.4,0-4.8,0-7.2
		c0-0.1,0-0.2,0-0.3c0.2-0.1,0.3,0,0.5,0c1.1,0,2.1,0,3.2,0c0.1,0,0.2,0,0.3,0l0,0c0.1,0.1,0,0.2,0,0.4c0,5.1,0,10.1,0,15.2
		c0,0.1,0,0.2,0,0.4c0,0.3-0.2,0.3-0.4,0.3c-0.9,0-1.8,0-2.8,0c-0.2,0-0.3-0.1-0.4-0.2c-1.6-2.1-3.2-4.2-4.8-6.3
		c-0.7-1-1.4-1.9-2.2-2.9c-0.1-0.1-0.1-0.1-0.2-0.1s-0.1,0.1-0.1,0.2c0,2.8,0,5.6,0,8.5c0,0.2-0.1,0.5,0.1,0.7
		c0.1,0.1-0.1,0.2-0.2,0.2c-0.3,0-0.5,0-0.8,0c-0.1,0-0.2-0.1-0.2-0.2c-0.8-1.8-1.6-3.6-2.4-5.4c-0.2-0.3-0.3-0.7-0.3-1.1
		c0-0.1,0-0.1,0-0.2c0-2.7,0-5.3,0-8C116.1,30.1,116.1,30,116.1,29.9L116.1,29.9z"/>
	<path class="st0" d="M88.6,45c-0.1-0.2,0.1-0.4,0-0.5c0-0.1,0-0.3,0-0.4c0-1.9,0-3.7,0-5.6c0-0.1,0-0.2,0-0.3c0-0.2,0-0.5,0-0.8
		c0-0.2,0-0.2-0.2-0.1c-0.8,0.5-1.6,1-2.4,1.4c-1,0.6-2,1.2-3,1.7c-0.2,0.1-0.3,0.3-0.3,0.5c0,1.4-0.1,2.8-0.1,4.1
		c-0.1,0-0.1,0-0.2,0c-1.2,0-2.4,0-3.6,0c-0.1,0-0.1,0-0.2,0c-0.1-0.4-0.1-0.9,0-1.3c0-0.1,0-0.2,0-0.2c0-4.5,0-9,0-13.5
		c0-0.1,0-0.2,0-0.2c-0.1-0.3,0-0.6-0.1-0.8c0-0.1,0.1-0.1,0.2-0.1c0.9,0,1.8,0,2.8,0c0.3,0,0.7,0,1.1,0c0.1,0.2,0.1,0.5,0,0.8
		c0,0.6-0.1,1.2,0,1.8c-0.1,0.5,0,1,0,1.5c0,1,0,2.1,0,3.2c0,0.1,0,0.2,0,0.3c0.1,0.1,0.2,0,0.2,0c1.5-1,3.1-1.8,4.6-2.8
		c0.3-0.2,0.6-0.3,0.8-0.5c0.2-0.1,0.3-0.3,0.3-0.5c0-1.1,0-2.3,0-3.4c0-0.1-0.1-0.2,0.1-0.3c0.4,0,0.8,0,1.3,0c0.8,0,1.6,0,2.4,0
		c0.1,0,0.2,0,0.3,0l0,0c0.1,0.1,0,0.2,0,0.3c0,5.2,0,10.4,0,15.6c0,0.1,0,0.2,0,0.3l0,0c-0.5,0.1-1.1,0-1.6,0c-0.7,0-1.4,0-2.1,0
		C88.8,45,88.7,45,88.6,45L88.6,45z"/>
	<path class="st0" d="M92.8,47.9c0.1,0,0.2,0.1,0.2,0.1c0.1,0.1,0,0.2,0,0.2c0,3,0,6,0,9c0,0.1,0,0.1,0,0.2
		c-0.1,1.1-0.2,2.3-0.7,3.3c-0.8,1.8-2.1,2.9-4,3.4c-1.1,0.3-2.2,0.4-3.3,0.3c-2.1-0.1-4-0.8-5.3-2.7c-0.5-0.7-0.8-1.5-0.9-2.3
		c-0.2-0.8-0.2-1.5-0.2-2.3c0-0.1,0-0.2,0-0.2c0-2.9,0-5.8,0-8.8c0-0.1,0-0.2,0-0.3c1.3,0,2.5,0.1,3.8,0c0.1,0,0.2,0,0.2,0.2
		s0,0.4,0,0.6c0,0.1,0,0.2,0,0.3c0,2.8,0,5.6,0,8.4c0,0.1,0,0.2,0,0.3c0.1,1.7,1,2.7,2.2,3s2.3,0.1,3.3-0.8c0.5-0.4,0.6-1,0.8-1.6
		c0.1-0.2,0.1-0.6,0.1-1c0-0.1,0-0.1,0-0.2c0-2.6,0-5.3,0-7.9c0-0.1,0-0.2,0-0.2c-0.1-0.3-0.1-0.6,0-0.9c0.3-0.1,0.6,0,0.9,0
		C90.9,47.9,91.9,48,92.8,47.9L92.8,47.9z"/>
	<path class="st0" d="M104.1,28.7c0.2,0.1,0.2,0.3,0.3,0.5c0.8,2,1.7,3.9,2.5,5.8c0.5,1.3,1.1,2.6,1.6,3.8c0.9,2,1.8,4,2.6,6
		c0,0.1-0.1,0.1-0.1,0.1c-1.1,0-2.3,0-3.4,0c-0.5,0.1-0.8-0.2-1-0.7c-1.1-2.7-2.2-5.4-3.3-8.1c-0.3-0.8-0.6-1.6-0.9-2.3
		c0-0.1-0.1-0.1-0.1-0.1c-0.1,0-0.1,0.1-0.1,0.1c-0.4,0.9-0.8,1.8-1.1,2.7c-0.3,0.9-0.8,1.8-1.1,2.7c-0.3,0.6-0.5,1.3-0.8,1.9
		c-0.1,0.1-0.3,0.2-0.1,0.4c0.1,0.1,0.3,0,0.4,0c1,0,2,0,3,0c0.1,0.1,0,0.2,0,0.3c0,0.9,0,1.8,0,2.7c0,0.1,0,0.2,0,0.3l0,0
		c-0.1,0.1-0.1,0-0.2,0c-2.7,0-5.5,0-8.2,0c-0.1,0-0.1,0-0.2,0s-0.1,0-0.2,0c-0.2,0-0.2,0-0.1-0.2c0.8-1.5,1.3-3.2,2-4.7
		s1.3-3,1.9-4.5c0.9-2.1,1.8-4.3,2.8-6.4c0.1-0.1,0-0.3,0.2-0.4C101.8,28.7,102.9,28.7,104.1,28.7z"/>
	<path class="st0" d="M104.2,48c0.3,0.6,0.5,1.2,0.8,1.8c0.7,1.7,1.5,3.5,2.2,5.2c0.4,1,0.9,1.9,1.2,2.9c0.4,1.1,1,2.1,1.4,3.2
		c0.4,1.1,0.9,2.1,1.4,3.1c-0.3,0.1-0.5,0.1-0.8,0.1c-1,0-2,0-3,0c-0.3,0-0.4-0.1-0.5-0.3c-0.6-1.3-1-2.6-1.6-3.9
		c-0.7-1.6-1.3-3.1-1.9-4.7c-0.3-0.7-0.6-1.5-0.9-2.2c0-0.1-0.1-0.1-0.1-0.1c-0.7,1.5-1.3,3.1-1.9,4.7c-0.4,1-0.7,1.9-1.2,2.9
		c0,0.1-0.2,0.2-0.1,0.3c0.9,0.1,1.7,0,2.6,0c0.3,0,0.6,0,0.8,0l0,0c0.1,0.3,0,0.6,0,0.9c0,0.8,0,1.6,0,2.4l0,0
		c-0.1,0.1-0.2,0-0.2,0c-2.8,0-5.7,0-8.5,0c-0.1,0-0.2,0-0.2,0c0.2-0.5,0.5-1.1,0.7-1.7c0.5-1.2,1.1-2.5,1.6-3.7
		c0.7-1.7,1.5-3.4,2.2-5.2c0.5-1.3,1.2-2.6,1.6-3.9c0.2-0.6,0.5-1.2,0.8-1.8c0-0.1,0.1-0.1,0.1-0.1C101.8,48,103,48,104.2,48
		L104.2,48z"/>
	<path class="st0" d="M159,60.9c0.1,0,0.1,0,0.2,0.1c0.1,0.2,0,0.5,0,0.7c0,0.8,0,1.7,0,2.5c-0.1,0.1-0.2,0-0.3,0.1
		c-0.1,0-0.1,0-0.2,0c-2.7,0-5.3,0-8,0c-0.1,0-0.1,0-0.2,0c-0.2,0-0.3,0-0.1-0.3c0.4-0.9,0.8-1.9,1.2-2.8c0.7-1.7,1.5-3.5,2.2-5.2
		c0.9-2.1,1.8-4.1,2.6-6.2c0.2-0.5,0.4-1.1,0.7-1.7c0-0.1,0.1-0.2,0.2-0.2c1,0,2.1,0,3.1,0c0.1,0,0.3,0,0.4,0c0.1,0,0.2,0.1,0.2,0.2
		c0.8,2,1.7,4,2.5,6c0.8,1.9,1.6,3.8,2.4,5.7c0.6,1.4,1.1,2.8,1.8,4.1c0.1,0.3-0.1,0.2-0.2,0.2c-1.3,0-2.6,0-3.9,0
		c-0.2-0.1-0.1-0.3-0.2-0.4c-1-2.3-1.9-4.7-2.9-7c-0.5-1.1-0.9-2.3-1.4-3.4c0-0.1,0-0.2-0.2-0.2c-0.1,0-0.1,0.2-0.1,0.2
		c-0.3,0.8-0.7,1.6-1,2.4c-0.6,1.6-1.3,3.1-1.9,4.7c-0.1,0.2-0.2,0.3-0.2,0.5h0.1C156.9,61,158,61,159,60.9L159,60.9z"/>
	<path class="st0" d="M120.3,48c1.1,0,2.2,0.2,3.2,0.7c1.4,0.7,2.3,1.8,2.5,3.4c0.3,1.6,0.2,3-0.7,4.4c-0.5,0.8-1.3,1.4-2.2,1.7
		c-0.2,0.1-0.2,0.2-0.1,0.3c-0.5,0.5-0.5,0.6-0.1,1.2c0.1,0.2,0.2,0.4,0.1,0.6c-0.2,0-0.2-0.2-0.3-0.3c-0.5-1.2-1.2-2.2-1.7-3.4
		c-0.1-0.3-0.2-0.5-0.4-0.8c-0.1-0.1-0.2-0.2-0.1-0.3c1.7-0.5,1.8-2.8,0.8-3.7c-0.4-0.3-0.8-0.4-1.2-0.5c-1.2-0.1-2.5,0-3.7-0.1
		c-0.2,0-0.2,0.1-0.2,0.3c0,4.1,0,8.1,0,12.2c0,0.3-0.1,0.3-0.3,0.3c-1.1,0.1-2.2,0-3.4,0.1c-0.2,0-0.3-0.1-0.3-0.3
		c0-5.2,0-10.4,0-15.5c0-0.6-0.1-0.5,0.5-0.5h0.1c0.1,0,0.2,0,0.3,0c2.2,0,4.5,0,6.7,0C120.1,47.9,120.2,47.9,120.3,48L120.3,48z"/>
	<path class="st0" d="M73.8,35.8c0.3-0.2,0.7-0.3,1,0c0.1,0.1,0.1,0.1,0.2,0c0.1-0.2,0.3-0.1,0.4-0.1c0.8,0,0.8,0,0.8,0.8
		c0,0.3,0.1,0.7-0.1,1c-0.1,0.1-0.2,0-0.3,0.1c-0.1,0-0.2,0.1-0.2,0.3c0.2,0,0.3-0.2,0.6-0.2c0,0.1,0,0.2,0,0.4
		c0,0.8-0.1,1.7,0.1,2.6v0.1c-0.1,0.2-0.2,0.1-0.3,0.1l0,0c-0.2,0-0.3-0.3-0.4-0.1c-0.1,0.1,0.1,0.3,0.2,0.4v0.1
		c-0.1,0.2-0.2,0.4,0,0.6c0.1,0.2,0.3,0.3,0.5,0.4c0.1,0,0.1,0,0.1,0.1s0,0.2,0,0.4c0.1,0.2,0,0.4,0,0.6c0,0.2,0,0.4-0.2,0.6
		s0.3,0.3,0.1,0.5c-0.1,0.1-0.2,0-0.2,0.1c-0.1,0.1-0.2,0.1-0.1,0.3s0,0.4-0.2,0.5c-0.2,0-0.3,0.2-0.4,0.3S75.1,45.9,75,46
		c-0.2,0.1-0.5,0.3-0.7,0.4c-0.1,0-0.2,0.1-0.2,0.2c0,0.1,0.1,0.2,0.2,0.2c0,0,0.1,0,0.1,0.1c0.1,0.1,0.1,0.2,0,0.2
		c-0.2,0.2-0.1,0.3,0.2,0.3c0.1,0,0.2,0.1,0.4,0.1c0.1,0,0.1,0,0.2,0s0.2,0,0.2,0.1s-0.1,0.1-0.1,0.2c-0.2,0.1-0.4,0.2-0.3,0.5
		c-0.4-0.2-0.4-0.2-0.5,0.3c0,0.2,0,0.4,0.1,0.4c0.2,0,0.1-0.2,0.2-0.4c0.1-0.1,0-0.3,0.2-0.4c0.2,0.1,0.4,0.3,0.7,0.1
		c0.1-0.1,0.2-0.1,0.1-0.2c-0.1-0.1,0-0.2,0.1-0.3s0.2,0,0.3,0c0.4,0.1,0.4,0.4,0.3,1c0,0.1,0,0.2-0.1,0.2c-0.1,0.2-0.1,0.5,0,0.7
		s0,0.2-0.1,0.3c-0.1,0-0.2,0.2-0.1,0.2c0.3,0.1,0.2,0.4,0.3,0.6c-0.1,0.3-0.2,0.6,0,0.9c0.1,0.3,0,0.6,0,0.9c0,0.2-0.2,0.2-0.3,0.2
		c-0.2-0.1-0.4,0-0.6,0s-0.3-0.1-0.5-0.1c0,0,0,0-0.1-0.1c-0.1-0.2-0.3-0.3-0.5-0.3s0.1,0.3,0,0.4c-0.2,0.1-0.3,0.1-0.5,0.1
		c-0.4,0-0.9,0-1.3,0c-0.3,0-0.4-0.1-0.4-0.4c0-0.5,0-1.1,0-1.6c0-0.3-0.1-0.4-0.3-0.6c-0.5-0.4-1.1-0.6-1.6-1
		c-0.3-0.2-0.8-0.2-0.9-0.7c0-0.1-0.1-0.1-0.1-0.2c0.1-0.3-0.2-0.5-0.3-0.7c-0.2-0.3-0.5-0.3-0.8-0.3c-0.2-0.2-0.2-0.4-0.6-0.3
		c-0.1,0-0.2,0-0.2,0.1s0.1,0.1,0.2,0.1s0.2,0,0.3,0c0.1,0,0.1,0,0.1,0.1c-0.1,0.3-0.4,0.4-0.7,0.2c-1.1-0.7-2.3-1.3-3.4-2
		c-0.4-0.2-0.8-0.4-1.2-0.7c-0.2-0.2-0.5-0.1-0.7,0c-0.3,0.2-0.6,0.4-1,0.5c-0.2,0.1-0.3,0-0.3-0.2c0-0.1-0.1-0.2-0.1-0.2
		c0-0.1,0-0.2-0.1-0.2c-0.2,0-0.1,0.2,0,0.3c0.1,0.2,0.2,0.4,0.1,0.6c-0.5,0.3-0.5,0.3-1,0c-1-0.6-2-1.2-3.1-1.8
		c-0.1,0-0.2-0.1-0.3-0.2c-0.2-0.1-0.2-0.2,0-0.3c1.6-0.9,3.2-1.8,4.8-2.7c0.4-0.2,0.7-0.5,1.1-0.7c0.2-0.1,0.3-0.1,0.5,0
		c1.5,0.9,2.9,1.7,4.4,2.5c0.8,0.5,1.6,0.9,2.4,1.4c0.2,0.1,0.4,0.1,0.6,0c0.7-0.4,1.3-0.8,2-1.2c0.2-0.1,0.2-0.2,0.2-0.4
		c0-0.3,0-0.5,0-0.8c0.1-0.4,0-0.8,0-1.2c0-0.2,0-0.4,0.3-0.5c-0.3-0.1-0.3-0.3-0.3-0.5c0-0.1,0-0.2,0-0.3s0-0.3,0.1-0.3
		c0.2-0.1,0.2,0.1,0.3,0.1c0.2,0.1,0.5,0,0.7,0c0.1,0,0.1,0,0.2,0c0.2,0,0.2,0.1,0.3,0.2c0.3,0.2,0.3,0.2,0.4-0.1
		c0-0.2-0.1-0.5-0.2-0.7s-0.2-0.3-0.4-0.4c-0.1-0.1-0.1-0.1-0.1-0.2c0-0.1,0-0.2,0-0.3l-0.1-0.1c-0.2,0-0.4,0-0.4-0.3
		c0-0.2,0.2-0.3,0.4-0.3c0.1,0,0.1,0,0.1,0c0.1,0,0.2,0.1,0.4,0.2c0.1,0,0.2,0.2,0.3,0.1c0.1,0,0.1-0.2,0.1-0.3
		C74.3,36.3,74.2,36,73.8,35.8L73.8,35.8z"/>
	<path class="st0" d="M139.8,95.7c-1.1-0.9-2.1-1.8-3-2.9c-0.6-0.7-1-1.6-1.4-2.4c-1.5-2.8-3-5.6-4.4-8.5c-1.1-2.2-2.3-4.4-3.4-6.6
		c-1.4-2.8-2.8-5.7-4.2-8.6c-1.7-3.4-3.3-6.8-4.8-10.2c-0.1-0.2-0.2-0.3-0.2-0.5c-0.1-0.2-0.1-0.3,0.2-0.3c0.7,0,1.3,0,2,0
		c0.1,0,0.1,0.1,0.2,0.2c0.7,1.5,1.4,2.9,2.1,4.3c0.3,0.6,0.6,1.2,0.9,1.8c0.5,1.1,1.1,2.2,1.6,3.3c0.6,1.2,1.1,2.3,1.7,3.4
		c0.2,0.3,0.3,0.6,0.4,0.9c0.5,1.1,1.1,2.2,1.6,3.3c0.1,0.4,0.4,0.7,0.6,1.1c0.6,1.4,1.4,2.8,2.1,4.2c0.7,1.4,1.4,2.8,2.1,4.2
		c0.5,1,1.1,2,1.5,3.1c0.3,0.6,0.7,1.2,1,1.8c0,0.1,0.1,0.2,0.1,0.3c0.1,0.3,0.3,0.6,0.4,0.9c0.6,1,1,2,1.6,3
		c0.8,1.3,1.7,2.5,2.7,3.7c0,0.1,0.1,0.1,0,0.2l-0.1,0.1C140.6,95.3,140.2,95.5,139.8,95.7L139.8,95.7z"/>
	<path class="st0" d="M145.1,56c0-2.6,0-5.2,0-7.8c0-0.3,0-0.4,0.3-0.3c1.2,0,2.3,0,3.5,0c0.2,0,0.2,0,0.2,0.2c0,0.1,0,0.1,0,0.2
		c0,5.2,0,10.3,0,15.5c0,0.3-0.1,0.4-0.4,0.3c-0.7,0-1.4,0.1-2.1,0.1c-0.5,0-0.9,0-1.4-0.1c-0.1,0-0.2-0.1-0.1-0.2
		c0-0.1,0-0.1,0-0.2C145.1,61.2,145.1,58.6,145.1,56L145.1,56z"/>
	<path class="st0" d="M103.5,22c-1-2.4-2-4.8-3-7.1c-0.7-1.6-1.4-3.1-2-4.7s-1.3-3.1-2-4.7c-0.1-0.1-0.1-0.3-0.2-0.3
		S96.1,5.3,96,5.5c0,0.1,0.1,0.3-0.2,0.3c-0.1,0-0.2,0-0.1-0.1c0-0.1-0.1-0.2,0-0.3c0.1-0.3-0.2-0.8,0.1-1.1
		c-0.2-0.4-0.1-0.8-0.1-1.2c-0.1-0.4,0.2-0.7,0.6-0.9C96.7,2,97,1.8,97.4,1.7c0.7-0.2,1-0.1,1.3,0.5c0.6,1.2,1,2.4,1.6,3.6
		c0.4,0.9,0.8,1.7,1.1,2.6c0.3,0.9,0.8,1.8,1.1,2.7c0,0.1,0,0.2,0,0.3c-0.2,0.2-0.1,0.4,0,0.7c0.3,0.7,0.7,1.4,0.9,2.1
		c0.5,1.4,1.2,2.6,1.6,4c0,0.1,0.1,0.2,0.2,0.3c0.1,0.2,0.2,0.5,0.3,0.8c0.1,0.2,0.1,0.4,0,0.6c-0.6,0.6-1.1,1.4-1.7,2
		C103.7,21.9,103.7,22,103.5,22L103.5,22z"/>
	<path class="st0" d="M115.4,44.7c0.1,0.3,0,0.4-0.3,0.4c-0.4,0-0.9,0-1.3,0c-0.3,0-0.5-0.1-0.6-0.4c-0.7-1.5-1.3-3.1-2-4.6
		c-0.6-1.4-1.3-2.9-1.9-4.3c-0.2-0.7-0.6-1.3-0.8-1.9c-0.9-2.2-1.9-4.4-2.7-6.6l0,0c-0.2-0.4-0.2-0.5,0.2-0.6
		c0.4-0.1,0.8-0.2,1.1-0.4h0.1c0.3,0.2,0.3,0.5,0.5,0.8c0.6,1.5,1.2,2.9,1.9,4.4c0.1,0.1,0.1,0.3,0.2,0.5c0.1,0.4,0.3,0.8,0.5,1.1
		c0.8,1.9,1.6,3.8,2.4,5.6c0.7,1.5,1.3,3.1,2.1,4.7C115,43.7,115.2,44.2,115.4,44.7L115.4,44.7z"/>
	<path class="st0" d="M123,60.3c0-0.2,0-0.4-0.2-0.6c-0.2-0.2-0.3-0.5-0.2-0.7c0-0.3,0.2-0.4,0.5-0.4c0.8,1.7,1.6,3.3,2.3,5
		c0.6,1.3,1.2,2.5,1.8,3.7c1.2,2.4,2.4,4.8,3.6,7.2c1.2,2.3,2.4,4.7,3.5,7c1.2,2.3,2.3,4.5,3.5,6.8c1.1,2.1,2.3,4.2,3.4,6.3
		c0.1,0.1,0.1,0.3,0.2,0.4c-0.1,0.1-0.1,0.3-0.2,0.4c-0.1,0-0.1,0-0.2-0.1c-0.7-0.9-1.4-1.8-2.1-2.7c-0.4-0.6-0.8-1.2-1.1-1.9
		c-0.4-0.7-0.8-1.5-1.2-2.2c-0.1-0.3-0.2-0.6-0.4-0.8c-0.8-1.6-1.6-3.2-2.4-4.7c-0.6-1.1-1.1-2.2-1.7-3.4c-0.8-1.7-1.7-3.4-2.5-5.1
		c-0.6-1.3-1.3-2.6-1.9-3.8c-0.5-1-1-2-1.5-3c-0.5-1.1-1.1-2.2-1.6-3.3c-0.5-1.1-1-2.3-1.6-3.3C123.1,60.7,123,60.5,123,60.3
		L123,60.3z"/>
	<path class="st0" d="M105.6,18.7c0.5,1.3,1.1,2.5,1.6,3.8c0.1,0.2,0.2,0.3,0.4,0.2c0.6-0.2,1.3-0.3,2-0.4c0.2,0,0.3,0.1,0.4,0.2
		c0.4,0.9,0.5,0.8-0.3,1.4c-0.3,0.2-0.5,0.4-0.8,0.5c-0.3,0.2-0.7,0.3-0.7,0.8c-0.3,0.3-0.7,0.4-1.1,0.6c-0.2,0.1-0.4,0.2-0.6,0.2
		c-0.4,0.1-0.7,0.3-1.1,0.3c-0.1,0-0.2,0.1-0.2,0c-0.1-0.2-0.3-0.2-0.5-0.1c-0.6,0.1-1.2,0.4-1.9,0.3c-0.2,0-0.3-0.1-0.4-0.2l0,0
		c-0.5-0.9-0.4-0.8,0.3-1.4c0.4-0.3,0.8-0.5,1.3-0.8c0.2-0.1,0.2-0.2,0.1-0.4c-0.2-0.5-0.4-1-0.7-1.5c-0.1-0.1-0.1-0.2,0-0.3
		c0.5-0.6,1-1.2,1.5-1.8c0.1-0.2,0.3-0.3,0.4-0.5s0-0.4-0.1-0.6c-0.1-0.1-0.2-0.2-0.1-0.4C105.4,18.6,105.5,18.6,105.6,18.7
		L105.6,18.7z"/>
	<path class="st0" d="M108.6,25.6c0.1,0.5,0.4,0.9,0.6,1.4c0.7,1.5,1.3,3.1,1.9,4.6c0.6,1.4,1.2,2.7,1.7,4.1c1,2.4,2,4.7,3,7
		c0.3,0.7,0.6,1.3,0.9,2c0.1,0.2,0.1,0.3-0.2,0.3c-0.1,0-0.2,0-0.4,0c-0.3,0-0.5-0.1-0.6-0.4c-0.2-0.4-0.4-0.8-0.6-1.2
		c-0.6-1.5-1.3-3-1.9-4.4c-0.7-1.5-1.4-3-2-4.6c-0.2-0.6-0.5-1.1-0.7-1.7c-0.1-0.4-0.4-0.9-0.5-1.3c-0.7-1.7-1.4-3.3-2.1-5
		c-0.1-0.1-0.2-0.3-0.2-0.5C107.8,25.7,108.1,25.5,108.6,25.6z"/>
	<path class="st0" d="M105.6,18.7c-0.1,0-0.2,0-0.3,0.1c-0.2-0.1-0.2-0.3-0.3-0.5c-0.3-0.6-0.4-1.3-0.8-1.9c-0.7-1.4-1.1-3-1.9-4.4
		c-0.1-0.2-0.3-0.5,0.1-0.7c0.1,0,0.1,0,0.2,0.1c0.4,0.9,0.7,1.7,1.1,2.6c0.3,0.8,0.7,1.6,1.1,2.4C105,17.3,105.3,18,105.6,18.7
		L105.6,18.7z"/>
	<path class="st0" d="M72.5,36.6c0.1-0.3,0.1-0.5-0.2-0.6c-0.1-0.1-0.2-0.2-0.2-0.3c0.1-0.1,0.3-0.1,0.4,0c0.3,0.3,0.5,0.1,0.8,0.1
		c0.2,0,0.3-0.1,0.4,0s0.1,0.2,0.1,0.2c0,0.2-0.2,0.3-0.4,0.3c-0.3,0-0.6,0.5-0.4,0.8c0.1,0.1,0.1,0.2,0.1,0.3c0,0,0,0.1,0,0.2
		C73,37.8,73,38,72.7,38.1c-0.1,0-0.2-0.1-0.3-0.1c-0.2,0-0.3-0.2-0.2-0.4c0-0.2,0-0.4,0-0.6C72.2,36.8,72.3,36.6,72.5,36.6
		L72.5,36.6z"/>
	<path class="st0" d="M96,10.7c0.9,0.5,1.6,1.2,2.2,1.9c0.3,0.4,0.5,0.9,0.5,1.4c0.1,0.8,0,1.7-0.2,2.5c0,0.1-0.1,0.2-0.2,0.3
		c-0.1,0-0.1,0-0.1-0.1c0.2-0.9,0.2-1.8,0.2-2.6c0-0.6-0.2-1.1-0.6-1.5s-0.9-0.9-1.4-1.3c-0.1-0.1-0.2-0.2-0.3-0.2
		c-0.1,0.1,0.1,0.3-0.1,0.5c-0.2,0-0.2-0.1-0.2-0.2C95.8,11.2,95.8,11,96,10.7L96,10.7z"/>
	<path class="st0" d="M97.1,19c-0.3-0.5-0.1-1-0.1-1.5c0-0.6,0.2-1.3-0.1-1.9c0.3-0.1,0.3,0.1,0.3,0.3c0,0.5,0,0.9,0.1,1.3
		c0.1-0.1-0.1-0.3,0-0.4c0.2-0.1,0.2,0,0.2,0.2c0.1-0.1,0.1-0.3,0.3-0.3c0.1,0.1,0.1,0.2,0.1,0.4c0,0.3-0.2,0.5-0.2,0.8
		c0,0.1,0,0.2,0,0.3c-0.1,0.3-0.3,0.5-0.4,0.8C97.3,19.1,97.2,19.2,97.1,19L97.1,19z"/>
	<path class="st0" d="M183.6,64.2c0-1.8,0-3.6,0-5.3c0-3.6,0-7.2,0-10.9c0.1,0,0.1,0.1,0.1,0.2c0,5.3,0,10.5,0,15.8
		C183.6,64,183.7,64.1,183.6,64.2L183.6,64.2z"/>
	<path class="st0" d="M92.6,45c0-2,0-4,0-6.1c0-3.2,0-6.4,0-9.6c0-0.2,0-0.3,0-0.5c0.2,0.2,0.1,0.4,0.1,0.5c0,5.1,0,10.2,0,15.3
		C92.6,44.7,92.7,44.8,92.6,45z"/>
	<path class="st0" d="M130.9,44.7c-0.1-0.1-0.1-0.3-0.1-0.4c0-5.1,0-10.3,0-15.4c0,0,0-0.1,0-0.2c0.1,0.1,0.1,0.2,0.1,0.2
		C130.9,34.2,130.9,39.4,130.9,44.7C130.9,44.6,130.9,44.7,130.9,44.7L130.9,44.7z"/>
	<path class="st0" d="M95.6,5.7C95.6,5.8,95.7,5.8,95.6,5.7c0.2,0.6,0,1-0.1,1.5c0,0.3-0.1,0.6-0.1,0.9c-0.1,0.1-0.2,0.1-0.2,0
		C95,7.8,95.1,7.4,95.1,7c0.1-0.3,0.2-0.7,0.3-1C95.4,5.8,95.5,5.7,95.6,5.7L95.6,5.7z"/>
	<path class="st0" d="M97.3,21.3c0,0.2-0.1,0.4-0.2,0.6s-0.3,0.3-0.5,0.4s-0.4,0.3-0.4,0.6c0,0.1-0.1,0.2-0.2,0.3h-0.1
		c-0.1,0-0.2,0.2-0.3,0.1c-0.1-0.1,0.1-0.2,0.1-0.3c-0.1-0.4,0.2-0.7,0.5-0.9c0.4-0.3,0.7-0.6,0.8-1.1C97.2,21,97.2,21.2,97.3,21.3
		L97.3,21.3z"/>
	<path class="st0" d="M76.3,42.1c-0.4-0.1-0.6-0.4-0.8-0.7c-0.1-0.1-0.1-0.2,0-0.2c0.1-0.1,0.1-0.2,0.1-0.3c0.1,0,0.2,0.1,0.3,0
		c0.2-0.1,0.2-0.2,0.1-0.4c0.1,0,0.2,0.1,0.3,0c0.1,0.5,0.1,0.9,0,1.4C76.3,42,76.3,42.1,76.3,42.1z"/>
	<path class="st0" d="M97.3,16.8c0.1,0.2,0,0.4,0,0.6c0,0,0,0.1-0.1,0.1s-0.1-0.1-0.1-0.1c0-0.5,0-1,0-1.5c0-0.2-0.1-0.3-0.2-0.3
		c-0.1-0.2-0.2-0.4-0.3-0.7c-0.1-0.2,0-0.2,0.1-0.1s0.2,0.2,0.2,0.3c0.4,0.2,0.5,0.6,0.6,1C97.6,16.4,97.6,16.6,97.3,16.8L97.3,16.8
		z"/>
	<path class="st0" d="M95.9,11.5c0,0.1,0.1,0.1,0.1,0.2c0.1,0,0.1,0.1,0.2,0.2c0.1,0.1,0.1,0.3,0.1,0.5c0.1,0.2,0.2,0.4,0.2,0.6
		c0,0.1,0.1,0.2,0,0.3h-0.1c-0.2,0-0.2-0.2-0.3-0.3C96,12.9,96,12.9,96,12.8c-0.1-0.5-0.3-1-0.6-1.5c0-0.1-0.1-0.3-0.1-0.4v-0.1
		c0-0.1,0-0.2,0-0.2c0.1,0,0.2,0,0.2,0.1c0.1,0.1,0.3,0.3,0.2,0.5C95.8,11.3,95.9,11.4,95.9,11.5L95.9,11.5z"/>
	<path class="st0" d="M72.5,36.6c-0.4,0.3-0.2,0.7-0.2,1.1c0,0.2,0.2,0,0.3,0.2c-0.1,0.1-0.1,0.2,0,0.3c0.2,0.2,0.2,0.4,0.1,0.6
		c-0.1,0-0.1-0.3-0.3-0.2c-0.1,0-0.1,0.2-0.1,0.3c0,0.2,0,0.3,0,0.5s0,0.3,0.2,0.2c0.1,0,0.2,0,0.2,0.1s0,0.2-0.1,0.2
		c-0.3,0-0.3,0.2-0.3,0.5c0,0.4,0.1,0.8-0.1,1.1c-0.1-0.5,0.1-1-0.1-1.5c0-0.2,0-0.3,0.1-0.5c0-0.3,0-0.7-0.1-1
		c-0.1-0.4,0.1-0.8,0.1-1.2c0-0.1,0-0.2,0-0.2C72.1,36.6,72.3,36.5,72.5,36.6L72.5,36.6z"/>
	<path class="st0" d="M96.3,14.2l0.1,0.1c0.2,0.1,0.3,0.3,0.5,0.4c0-0.1,0-0.1,0-0.2c0.1,0,0.2-0.1,0.2-0.2c0.1,0,0.1,0,0.2,0.1
		s0.2,0.1,0.3,0.2c0.2,0.2,0.3,0.5,0.4,0.7c0.1,0.1,0.1,0.3,0.1,0.4c0,0.3,0.1,0.6-0.1,0.9c0,0.2,0,0.1,0,0c0-0.2,0-0.4,0-0.5
		c0.1-0.5-0.3-0.8-0.7-1.1c-0.1,0.2-0.2,0.1-0.3,0.1c-0.1,0-0.1-0.1-0.2-0.2c-0.1-0.1-0.1-0.1-0.1,0C96.6,14.6,96.3,14.5,96.3,14.2
		L96.3,14.2z"/>
	<path class="st0" d="M186.2,58c0.1-0.1,0.2,0,0.4,0c3.2,0,6.3,0,9.5,0c0.1,0,0.2,0,0.3,0c-0.9,0-1.8,0-2.6,0c-2.4,0-4.8,0-7.2,0
		C186.4,58,186.3,58,186.2,58L186.2,58z"/>
	<path class="st0" d="M201,53.9c-0.1,0.1-0.2,0-0.3,0c-3.1,0-6.3,0-9.4,0c-0.1,0-0.2,0-0.3,0c0.4,0,0.8,0,1.2,0
		C195.1,53.9,198,53.9,201,53.9C200.9,53.9,200.9,53.9,201,53.9L201,53.9z"/>
	<path class="st0" d="M172.8,64.2c0-1.4,0-2.8,0-4.2c0-1.7,0-3.3,0-5c0-0.1,0-0.2,0.1-0.3c0,2.3,0,4.6,0,6.9c0,0.8,0,1.5,0,2.3
		C172.8,64,172.9,64.1,172.8,64.2L172.8,64.2z"/>
	<path class="st0" d="M70.6,26.5c-0.1-0.1-0.2-0.2-0.3-0.2c0.1,0,0.1-0.1,0.2-0.1c0.3-0.4,0.5-0.4,0.9-0.2c0.3,0.2,0.7,0.3,1,0.6
		c-0.1,0-0.2,0-0.3,0.1c-0.2,0-0.2-0.1-0.3-0.2C71.3,26.2,70.9,26.3,70.6,26.5L70.6,26.5z"/>
	<path class="st0" d="M82.7,57.8c-0.1-0.1-0.1-0.2-0.1-0.3c0-2.9,0-5.9,0-8.8c0.1,0.1,0.1,0.2,0.1,0.4c0,2.7,0,5.4,0,8.1
		C82.7,57.4,82.7,57.6,82.7,57.8L82.7,57.8z"/>
	<path class="st0" d="M97.3,21.3c-0.1,0-0.1-0.2-0.3-0.2c0-0.3-0.1-0.7-0.1-1c0-0.1,0-0.2,0.1-0.3c0.1,0,0.2,0,0.3,0
		C97.4,20.2,97.4,20.8,97.3,21.3L97.3,21.3z"/>
	<path class="st0" d="M93.6,64.3c0.8,0,1.5,0,2.3,0c2.2,0,4.3,0,6.5,0h0.1c-0.1,0.1-0.2,0.1-0.2,0.1c-2.8,0-5.7,0-8.5,0
		C93.7,64.4,93.6,64.4,93.6,64.3L93.6,64.3z"/>
	<path class="st0" d="M179.6,47.9c-0.1,0.3,0,0.6,0,0.8c0,2.6,0,5.2,0,7.9v0.1c-0.1-0.1-0.1-0.3-0.1-0.4c0-2.7,0-5.4,0-8.1
		C179.6,48.1,179.5,48,179.6,47.9L179.6,47.9z"/>
	<path class="st0" d="M105.5,19.9c-0.6,0.7-1.2,1.4-1.8,2.1c-0.1,0.1-0.1,0.1-0.2,0.1s-0.1,0-0.1,0c0.4-0.2,0.6-0.6,0.9-1
		C104.7,20.7,105,20.2,105.5,19.9C105.5,19.8,105.5,19.8,105.5,19.9L105.5,19.9z"/>
	<path class="st0" d="M200.8,47.7c-0.1,0.1-0.2,0-0.3,0c-2.5,0-5.1,0-7.6,0h-0.1c0.1,0,0.2,0,0.2,0
		C195.7,47.7,198.2,47.7,200.8,47.7L200.8,47.7z"/>
	<path class="st0" d="M126.9,28.8c0,0.1,0,0.3,0,0.4c0,2.4,0,4.7,0,7.1c0,0.1,0,0.2-0.1,0.4C126.9,34,126.9,31.4,126.9,28.8
		C126.9,28.7,126.9,28.7,126.9,28.8L126.9,28.8z"/>
	<path class="st0" d="M120.3,48c-2.4,0-4.8,0-7.2,0c-0.1,0-0.2,0-0.2,0c1.7,0,3.4,0,5,0c0.7,0,1.4,0,2,0
		C120.1,47.9,120.2,47.9,120.3,48L120.3,48z"/>
	<path class="st0" d="M95.3,9.5c-0.1-0.4-0.1-0.8-0.1-1.2c0-0.1,0-0.2,0.1-0.3c0.1,0,0.2,0,0.2,0c0,0.4,0,0.9,0,1.3
		c0,0.1,0.1,0.2,0,0.3C95.4,9.6,95.3,9.6,95.3,9.5L95.3,9.5z"/>
	<path class="st0" d="M135,48c-2.1,0-4.1,0-6.2,0c-0.3,0-0.5,0.1-0.6,0.4c0-0.1,0-0.1,0-0.2c-0.1-0.2,0.1-0.3,0.3-0.3
		c0.8,0,1.6,0,2.4,0c1.3,0,2.5,0,3.8,0C134.8,47.9,134.9,47.8,135,48L135,48z"/>
	<path class="st0" d="M95.6,23c0,0.1,0,0.2,0,0.3c0.1,0,0.2-0.2,0.4-0.1c0,0.3-0.1,0.5-0.1,0.8c0,0,0,0,0,0.1c0.1,0.2,0,0.3-0.1,0.3
		c-0.1-0.1-0.1-0.2-0.2-0.3c-0.1-0.1-0.1-0.4-0.3,0c-0.1,0.1-0.1,0-0.2-0.1c-0.1-0.2,0.1-0.3,0.1-0.4C95.5,23.3,95.6,23.2,95.6,23
		L95.6,23z"/>
	<path class="st0" d="M96.1,22.9c0-0.3,0.1-0.5,0.4-0.6c0.2-0.1,0.3-0.3,0.5-0.3c0.1,0.2,0,0.3-0.1,0.5s-0.3,0.3-0.4,0.5
		C96.4,22.9,96.3,22.8,96.1,22.9L96.1,22.9z"/>
	<path class="st0" d="M88.6,38c0.1,0.1,0.1,0.2,0.1,0.3c0,2,0,3.9,0,5.8c0,0.1,0,0.2-0.1,0.3c0-1.8,0-3.5,0-5.3
		C88.6,38.8,88.6,38.4,88.6,38L88.6,38z"/>
	<path class="st0" d="M95.3,9.5c0.2,0.1,0.2,0,0.2-0.2c0.1,0.1,0.1,0.2,0.1,0.4c0,0.4,0.1,0.7,0.3,1c0,0.2-0.1,0.2-0.2,0.1
		c-0.2-0.1-0.3-0.3-0.3-0.4C95.3,10.1,95.2,9.8,95.3,9.5L95.3,9.5z"/>
	<path class="st0" d="M70.2,28.8c0,0.1,0.1,0.2,0.1,0.3c-0.1,0-0.2,0-0.2,0.2s0,0.3-0.1,0.4c0-0.2,0-0.4-0.3-0.5
		c-0.2,0-0.2-0.3-0.4-0.4c-0.1,0,0.1-0.1,0.1-0.1c0.1,0,0.3,0,0.3-0.1C70,28.6,70.1,28.7,70.2,28.8z"/>
	<path class="st0" d="M96.1,27c-0.7-0.4-1.1-1.6-0.7-2.2c0,0.4-0.1,0.8,0.1,1.1C95.7,26.3,95.9,26.7,96.1,27z"/>
	<path class="st0" d="M76.3,60.3c0-1.6,0-3.2,0-4.8c0-0.3,0-0.6,0-0.9c0.1,0.1,0.1,0.2,0.1,0.2c0,1.7,0,3.5,0,5.2
		C76.3,60.1,76.4,60.2,76.3,60.3L76.3,60.3z"/>
	<path class="st0" d="M70.8,29.3c0.2,0.1,0.4,0.1,0.5,0.4c-0.2,0.2-0.5,0.4-0.8,0.4c-0.1,0-0.1,0-0.2,0c0-0.1,0-0.1,0.1-0.2
		s0.2-0.2,0.3-0.3C70.9,29.5,70.9,29.4,70.8,29.3z"/>
	<path class="st0" d="M60.6,45.5c0-0.2-0.1-0.4-0.2-0.6c0-0.1-0.1-0.2,0-0.3s0.1-0.2,0.2-0.2c0.1,0,0.2,0.1,0.1,0.2
		c-0.1,0.2,0.1,0.3,0.1,0.5c0,0.1,0.1,0,0.2,0.1C61,45.3,60.8,45.4,60.6,45.5z"/>
	<path class="st0" d="M74.9,47.2c-0.2,0.1-0.4,0-0.6,0s-0.2-0.3,0-0.4c0.1-0.1,0.1-0.1,0.1-0.2C74.7,46.7,74.9,46.9,74.9,47.2
		L74.9,47.2z"/>
	<path class="st0" d="M97.6,18.2c0-0.1,0-0.2,0-0.3c0.3-0.1,0.4-0.4,0.5-0.7c0-0.1,0-0.2,0.1-0.4c0,0,0.1-0.1,0.2-0.1
		c0,0,0,0,0.1,0.1c0.1,0.5-0.2,0.9-0.4,1.3C97.8,18.3,97.8,18.3,97.6,18.2C97.6,18.3,97.6,18.3,97.6,18.2L97.6,18.2z"/>
	<path class="st0" d="M97.3,19.7c-0.1,0-0.2,0-0.3,0c-0.2-0.4-0.2-0.4,0.1-0.6c0.1,0,0.3-0.2,0.4,0C97.5,19.4,97.6,19.6,97.3,19.7
		L97.3,19.7z"/>
	<path class="st0" d="M82.6,36.3c-0.1-0.1-0.1-0.1-0.1-0.2c0-1.5,0-3.1,0-4.6c0-0.1,0-0.1,0.1-0.2C82.6,32.9,82.6,34.6,82.6,36.3
		L82.6,36.3z"/>
	<path class="st0" d="M63.5,21.4c-0.1,0-0.1,0.1-0.1,0.2c-0.3-0.2-0.7-0.4-1.1-0.5c-0.2,0-0.1-0.1,0-0.2s0.2-0.1,0.3,0
		C62.9,21.1,63.2,21.2,63.5,21.4z"/>
	<path class="st0" d="M95,7.8L95,7.8c-0.1,0.6,0,1.1,0.1,1.6c0,0.1,0.2,0.4-0.2,0.3c-0.1-0.5-0.1-1,0-1.4C94.9,8.1,94.8,7.9,95,7.8
		L95,7.8z"/>
	<path class="st0" d="M76.3,44.3c0-0.2-0.1-0.2-0.2-0.3c-0.2-0.1-0.2-0.3,0-0.3c0.2-0.1,0.2-0.2,0.2-0.4s0-0.5,0-0.7
		c0.1,0.5,0.1,1,0.1,1.6C76.4,44.1,76.4,44.2,76.3,44.3L76.3,44.3z"/>
	<path class="st0" d="M97.4,19.2c-0.1-0.1-0.2,0-0.4,0v-0.1c0.1,0,0.1,0,0.1-0.1c0-0.3,0.2-0.5,0.4-0.8l0.1,0.1
		c0.1,0.2,0,0.4-0.1,0.5C97.5,18.9,97.4,19,97.4,19.2z"/>
	<path class="st0" d="M76.3,33.1c0-1.4,0-2.8,0-4.2c0.1,0.1,0.1,0.2,0.1,0.3c0,1.2,0,2.5,0,3.7C76.3,32.9,76.4,33,76.3,33.1z"/>
	<path class="st0" d="M67.1,54.7c0.2,0.2,0.4,0.2,0.5,0.5c0,0.1,0.1,0.2,0,0.2c-0.1,0.1-0.1,0-0.1-0.1l-0.1-0.1
		c-0.2,0-0.4,0-0.4-0.3h-0.1C66.8,54.8,67,54.8,67.1,54.7L67.1,54.7z"/>
	<path class="st0" d="M63.1,66.7C63,66.8,63,66.9,63.2,67c0.1,0,0.2,0.1,0.2,0.1c0.1,0,0.2,0,0.2,0.2v0.1c-0.1,0-0.2,0.1-0.3,0
		s-0.2-0.1-0.3-0.1c-0.2,0-0.1-0.3-0.3-0.3C62.9,66.9,63,66.8,63.1,66.7L63.1,66.7z"/>
	<path class="st0" d="M95.4,10.4c0.1,0.1,0.2,0.2,0.3,0.4c0.1,0.1,0.2,0.1,0.2-0.1c0,0,0,0,0.1,0c0,0.2-0.2,0.5-0.1,0.8
		c-0.1-0.1-0.1-0.2-0.1-0.3c-0.1-0.2-0.2-0.4-0.4-0.5c0,0.1,0,0.2,0,0.3c-0.1-0.1-0.1-0.2-0.1-0.3C95.1,10.5,95.4,10.5,95.4,10.4z"
		/>
	<path class="st0" d="M92.8,47.9c-0.1,0.1-0.2,0-0.3,0c-1.2,0-2.3,0-3.5,0c0.1-0.1,0.1-0.1,0.2-0.1C90.5,47.9,91.6,47.9,92.8,47.9
		L92.8,47.9z"/>
	<path class="st0" d="M76.3,50.5c-0.1-0.2,0-0.4-0.3-0.5c-0.2,0-0.1-0.3,0.1-0.3c0.1,0,0.2-0.1,0.2-0.2
		C76.5,49.8,76.3,50.2,76.3,50.5z"/>
	<path class="st0" d="M96.4,24.5c0,0.1,0.1,0.2,0.1,0.2c0,0.1,0,0.2-0.1,0.2c-0.2-0.2-0.4-0.5-0.6-0.8c0.2-0.1,0.1-0.2,0.1-0.3
		C96.1,24.2,96.2,24.4,96.4,24.5L96.4,24.5z"/>
	<path class="st0" d="M104.2,48c-1.1,0-2.2,0-3.3,0c-0.1,0-0.2,0-0.3,0c0.1-0.1,0.2,0,0.3,0c1,0,2,0,3,0C104,48,104.1,47.9,104.2,48
		L104.2,48z"/>
	<path class="st0" d="M104.1,28.7c-1.2,0-2.3,0-3.5,0c0.1-0.1,0.2,0,0.3,0C101.9,28.7,102.9,28.7,104.1,28.7L104.1,28.7z"/>
	<path class="st0" d="M160.8,47.9c-0.2,0.1-0.4,0-0.5,0c-1,0-2,0-3,0c0.1,0,0.1,0,0.1,0C158.5,47.9,159.6,47.9,160.8,47.9
		L160.8,47.9z"/>
	<path class="st0" d="M102.5,61c-1,0-2.1,0-3.1,0c-0.1,0-0.2,0-0.3,0C100.2,61,101.3,61,102.5,61L102.5,61L102.5,61z"/>
	<path class="st0" d="M159,60.9c-0.2,0.1-0.5,0-0.7,0c-0.8,0-1.5,0-2.3,0c-0.1,0-0.2,0-0.2-0.1C156.8,60.9,157.9,60.9,159,60.9
		L159,60.9z"/>
	<path class="st0" d="M159.2,64.2c0-1.1,0-2.1,0-3.2c0.1,0,0.1,0.1,0.1,0.2c0,1,0,1.9,0,2.9C159.3,64.1,159.3,64.2,159.2,64.2z"/>
	<path class="st0" d="M95.3,24.7v-0.5C95.5,24.3,95.3,24.5,95.3,24.7z"/>
	<path class="st0" d="M48.5,50.8c0-0.2-0.1-0.3,0-0.5C48.7,50.4,48.6,50.5,48.5,50.8c0.1,2.9,0.1,6,0.1,9c0,1,0,2.1,0,3.1
		c0,0.1,0,0.2,0,0.3c-0.1-0.1,0-0.2,0-0.2c0-4,0-8,0-12C48.5,51,48.5,50.9,48.5,50.8z"/>
	<path class="st0" d="M48.5,40.5c0-1.7,0-3.3,0-5c0-1,0-1.9,0-2.9c0.1,0.2,0,0.4,0,0.6c0,0.1,0,0.3,0,0.4c0.1,0,0.1-0.1,0.1-0.1
		c0.1-0.1,0-0.2,0.2-0.2c0.1,0,0.2,0.2,0.2,0.3c0,0.2-0.2,0.2-0.2,0.2c-0.3-0.1-0.2,0.1-0.2,0.3c0,2,0,4,0,6
		C48.6,40.2,48.6,40.3,48.5,40.5L48.5,40.5z"/>
	<path class="st0" d="M60.9,68.3c0,0.1,0,0.2-0.2,0.2c-0.1,0-0.1-0.1-0.1-0.2s-0.1-0.2-0.2-0.2C60.2,68,60,67.9,60,67.6
		c0-0.1,0.1-0.2,0.2-0.1C60.4,67.7,60.6,67.9,60.9,68.3C60.9,68.2,60.9,68.2,60.9,68.3z"/>
	<path class="st0" d="M71.8,62.8c0,0.2-0.2,0.2-0.3,0.1s-0.2-0.2-0.4-0.3c-0.1,0-0.1-0.2,0-0.2s0.2-0.1,0.2,0
		c0.1,0.2,0.2,0.3,0.4,0.3C71.8,62.7,71.8,62.8,71.8,62.8L71.8,62.8z"/>
	<path class="st0" d="M64.2,22.8c-0.1,0-0.2,0-0.3-0.1s0.1-0.2,0.2-0.2c0.1,0,0.1,0,0.2,0c0.2,0,0.3,0,0.3,0.2s-0.2,0.2-0.2,0.2
		C64.4,22.8,64.3,22.8,64.2,22.8L64.2,22.8z"/>
	<path class="st0" d="M60.3,66.5C60.3,66.6,60.3,66.6,60.3,66.5c-0.2,0.2-0.4,0.4-0.6,0.5c-0.1,0-0.2,0-0.2-0.1s0-0.2,0.1-0.2
		c0.2,0,0.3-0.1,0.3-0.3c0-0.1,0.1-0.1,0.2-0.1C60.2,66.4,60.2,66.5,60.3,66.5L60.3,66.5z"/>
	<path class="st0" d="M72.7,57.1c0-0.1,0-0.3,0.2-0.3s0.2,0.2,0.2,0.4c0,0.1,0,0.3-0.2,0.3S72.7,57.3,72.7,57.1L72.7,57.1z"/>
	<path class="st0" d="M48.5,44.5c0-1.2,0-2.4,0-3.6c0.1,0.1,0,0.1,0,0.2c0,1.1,0,2.2,0,3.2C48.6,44.3,48.6,44.4,48.5,44.5L48.5,44.5
		z"/>
	<path class="st0" d="M51,47.2c0,0.1,0,0.3-0.1,0.3c-0.2,0-0.2-0.2-0.2-0.2v-0.1c0-0.1-0.2-0.2-0.1-0.3c0.1,0,0.2,0,0.3,0
		S51,47.1,51,47.2L51,47.2z"/>
	<path class="st0" d="M73.6,63.7c0,0.3,0.3,0.2,0.4,0.2c-0.3,0.1-0.7,0-1,0.1c-0.1,0-0.2-0.1-0.2-0.2c0-0.1,0.1-0.2,0.2-0.1
		C73.3,63.8,73.4,63.9,73.6,63.7L73.6,63.7z"/>
	<path class="st0" d="M63.7,69c-0.1,0.1-0.1,0.3-0.2,0.5c0,0.1-0.2,0.1-0.2,0c-0.1-0.1-0.2-0.1-0.1-0.2C63.4,69.2,63.4,69,63.7,69
		C63.6,68.8,63.7,68.9,63.7,69L63.7,69z"/>
	<path class="st0" d="M132.2,51.4c0,2.9,0,5.8,0,8.7c0,0.2,0,0.4,0,0.7c-0.1,0-0.1-0.1-0.1-0.2c0-3,0-6,0-8.9
		C132.2,51.5,132.1,51.4,132.2,51.4L132.2,51.4z"/>
	<path class="st0" d="M73.8,36c0.2,0.1,0.1,0.3,0.1,0.4c0,0.1,0,0.3,0,0.4c-0.1,0-0.2-0.1-0.3-0.2c0-0.1,0-0.3-0.2-0.3
		c-0.1,0-0.2,0-0.2,0.1s0,0.1,0.1,0.1s0.1,0,0.2,0.1c0,0.1-0.1,0.1-0.2,0.1c-0.2,0-0.1,0.1-0.1,0.2c0,0.1,0.1,0.1,0.2,0.2
		s0.4-0.1,0.3,0.2c-0.2-0.1-0.4,0.1-0.5,0.2v-0.1c-0.4-0.3-0.1-0.7,0-1.1c0-0.2,0.2-0.1,0.3-0.1C73.5,36.2,73.7,36.2,73.8,36
		L73.8,36z"/>
	<path class="st0" d="M73.7,37.8c0,0.1-0.1,0.2-0.1,0.2c0,0.1,0,0.2-0.1,0.3s-0.2,0-0.3-0.1C73,38.1,73,38,73,37.8
		c0.1-0.2,0.3-0.2,0.5-0.2S73.7,37.7,73.7,37.8z"/>
	<path class="st0" d="M74.3,38.8c-0.1-0.1,0-0.3-0.3-0.3c-0.2,0-0.2,0.2-0.2,0.4c-0.1-0.1-0.2-0.2-0.2-0.2c0.2-0.2,0.3-0.4,0.5-0.5
		c0.1,0,0-0.1,0-0.2C74.3,38.3,74.3,38.6,74.3,38.8L74.3,38.8z"/>
	<path class="st0" d="M102.3,12.1c0.2,0.2,0.3,0.5,0.4,0.7c0.5,0.9,0.8,2,1.2,3c0.4,0.8,0.7,1.7,1.1,2.6c0,0,0,0.1-0.1,0.1
		c-0.2-0.2-0.3-0.5-0.3-0.8c-0.3-1-0.8-1.8-1.2-2.8s-0.7-1.8-1.2-2.7C102.3,12.2,102.3,12.1,102.3,12.1L102.3,12.1z"/>
	<path class="st0" d="M73.1,37.6c0,0.1,0.1,0.1,0.1,0.2c0,0.2,0.1,0.3,0.1,0.5c-0.1,0.1-0.1,0.2-0.1,0.2c-0.1,0.1-0.1,0.2-0.2,0.2
		s-0.2-0.2-0.2-0.3s0-0.2,0-0.3C73,37.9,73,37.8,73.1,37.6L73.1,37.6z"/>
	<path class="st0" d="M96.5,13.3c0.3,0.3,0.5,0.7,0.6,1.1c0,0.1,0.1,0.2,0,0.3s-0.1-0.1-0.2-0.1c-0.3-0.2-0.3-0.5-0.5-0.8
		C96.5,13.6,96.3,13.4,96.5,13.3L96.5,13.3L96.5,13.3z"/>
</g>
</svg>
