<?xml version="1.0" encoding="utf-8"?>
<!-- Generator: Adobe Illustrator 27.6.1, SVG Export Plug-In . SVG Version: 6.00 Build 0)  -->
<svg version="1.1" id="Layer_1" xmlns="http://www.w3.org/2000/svg" xmlns:xlink="http://www.w3.org/1999/xlink" x="0px" y="0px"
	 viewBox="0 0 250 100" style="enable-background:new 0 0 250 100;" xml:space="preserve">
<style type="text/css">
	.st0{fill:#4D4040;}
</style>
<g>
	<g>
		<path class="st0" d="M61.4,48.4L54,35.6c-0.3-0.5-0.7-0.9-1.2-1.1s-1-0.4-1.6-0.4H36.6c-0.6,0-1.1,0.2-1.6,0.4
			c-0.5,0.3-0.9,0.7-1.2,1.2l-7.4,12.8c-0.3,0.5-0.4,1-0.4,1.6s0.1,1.1,0.4,1.6l7.4,12.8c0.3,0.5,0.7,0.9,1.2,1.2
			c0.5,0.3,1,0.4,1.6,0.4h14.7c0.5,0,1.1-0.2,1.6-0.4c0.5-0.3,0.9-0.7,1.2-1.2l7.4-12.8c0.3-0.5,0.4-1,0.4-1.6S61.7,48.9,61.4,48.4
			L61.4,48.4z M43.9,60.9v-2.2c1.7,0,3.4-0.5,4.9-1.5c1.4-1,2.6-2.3,3.2-3.9c0.7-1.6,0.8-3.4,0.5-5.1s-1.2-3.3-2.4-4.5
			s-2.8-2.1-4.5-2.4s-3.5-0.2-5.1,0.5s-3,1.8-3.9,3.2s-1.5,3.1-1.5,4.9c0,1.9,0.6,3.8,1.8,5.3l1.6-1.5c-0.8-1.1-1.2-2.4-1.2-3.8
			c0-1.3,0.4-2.6,1.1-3.7c0.7-1.1,1.8-1.9,3-2.4s2.5-0.6,3.8-0.4c1.3,0.2,2.5,0.9,3.4,1.8s1.5,2.1,1.8,3.4s0.1,2.6-0.4,3.8
			s-1.3,2.2-2.4,3s-2.3,1.1-3.7,1.1v-2.2c0.9,0,1.7-0.3,2.4-0.8s1.3-1.2,1.6-2s0.4-1.7,0.2-2.5s-0.6-1.6-1.2-2.2s-1.4-1-2.2-1.2
			s-1.7-0.1-2.5,0.2s-1.5,0.9-2,1.6c-0.5,0.7-0.7,1.6-0.7,2.4c0,0.8,0.2,1.5,0.6,2.2l1.6-1.6c0-0.2-0.1-0.4-0.1-0.6
			c0-0.4,0.1-0.9,0.4-1.2s0.6-0.7,1-0.8c0.4-0.2,0.9-0.2,1.3-0.1c0.4,0.1,0.8,0.3,1.2,0.6c0.3,0.3,0.5,0.7,0.6,1.2
			c0.1,0.4,0,0.9-0.1,1.3c-0.2,0.4-0.5,0.8-0.8,1c-0.4,0.2-0.8,0.4-1.2,0.4c-0.2,0-0.4,0-0.6-0.1l-5.7,5.5c0,0-0.1,0.1-0.2,0.1l0,0
			c0,0-0.1,0-0.1,0.1c0,0,0,0-0.1,0h-0.1c0,0,0,0-0.1,0H37h-0.1h-0.1h-0.1c0,0,0,0-0.1,0c0,0-0.1,0-0.1-0.1c0,0,0,0-0.1,0l-0.1-0.1
			l0,0c-1.8-1.8-2.8-4.2-3.1-6.7c-0.2-2.5,0.4-5,1.9-7.1s3.5-3.6,6-4.3c2.4-0.7,5-0.6,7.3,0.4s4.2,2.7,5.4,5c1.2,2.2,1.5,4.8,1,7.3
			S53,56.9,51,58.5C48.9,60.1,46.5,61,43.9,60.9L43.9,60.9L43.9,60.9z M70.2,39.7H77c6.5-0.1,11.3,4.1,11.2,10.2
			c0.1,6-4.7,10.4-11.2,10.3h-6.7C70.2,60.3,70.2,39.7,70.2,39.7z M76.9,56.5c4.1,0,6.9-2.6,6.9-6.5s-2.7-6.4-6.9-6.4h-2.5v13
			L76.9,56.5L76.9,56.5z M103.6,60.3h-3.9v-1.5c-0.6,0.6-1.3,1.1-2.2,1.4c-0.8,0.3-1.7,0.5-2.5,0.5c-3.3,0-5.3-1.9-5.3-4.6
			s2.2-4.5,5.8-4.5h3.9v-0.7c0-0.4,0-0.8-0.2-1.1c-0.1-0.3-0.3-0.7-0.6-0.9s-0.6-0.5-1-0.6s-0.7-0.2-1.1-0.1c-0.8,0-1.6,0.2-2.3,0.6
			s-1.3,0.9-1.8,1.5l-2.2-2.6c0.8-1,1.8-1.8,3-2.4s2.4-0.8,3.7-0.8c0.9-0.1,1.8,0,2.6,0.3c0.8,0.3,1.6,0.8,2.2,1.4
			c0.6,0.6,1.1,1.4,1.4,2.2s0.4,1.7,0.3,2.6L103.6,60.3L103.6,60.3L103.6,60.3z M99.4,54.4h-3.3c-1.4,0-2.2,0.5-2.2,1.5
			s0.9,1.7,2.2,1.7c0.4,0,0.8,0,1.2-0.2s0.8-0.4,1.1-0.7s0.6-0.6,0.7-1c0.2-0.4,0.2-0.8,0.2-1.2v-0.1H99.4z M115.7,60.7
			c-0.9,0-1.7-0.1-2.5-0.5c-0.8-0.3-1.5-0.8-2.1-1.4v7.1h-4.2v-21h3.9v1.9c0.6-0.8,1.3-1.4,2.2-1.8c0.9-0.4,1.8-0.6,2.8-0.5
			c1,0,2,0.2,3,0.6s1.8,1,2.5,1.8s1.2,1.6,1.6,2.6s0.5,2,0.4,3c0.1,1-0.1,2.1-0.4,3c-0.3,1-0.9,1.9-1.6,2.6
			c-0.7,0.8-1.6,1.4-2.5,1.8C117.7,60.4,116.7,60.7,115.7,60.7L115.7,60.7z M114.9,48.4c-0.5,0-1.1,0.1-1.6,0.3s-0.9,0.5-1.3,0.9
			s-0.7,0.9-0.8,1.4s-0.2,1-0.2,1.6c-0.1,0.5,0,1.1,0.2,1.6s0.4,1,0.8,1.4s0.8,0.7,1.3,0.9s1,0.3,1.6,0.3s1.1-0.1,1.6-0.3
			s0.9-0.5,1.3-0.9s0.7-0.9,0.8-1.4c0.2-0.5,0.3-1.1,0.2-1.6c0-0.5,0-1.1-0.2-1.6s-0.5-1-0.8-1.4c-0.4-0.4-0.8-0.7-1.3-0.9
			S115.5,48.3,114.9,48.4L114.9,48.4L114.9,48.4z M134.5,60.7c-0.9,0-1.7-0.1-2.5-0.5c-0.8-0.3-1.5-0.8-2.1-1.4v7.1h-4.2v-21h3.9
			v1.9c0.6-0.8,1.3-1.3,2.2-1.8c0.9-0.4,1.8-0.6,2.8-0.5c1,0,2,0.2,3,0.6s1.8,1,2.5,1.8s1.2,1.6,1.6,2.6c0.4,1,0.5,2,0.4,3
			c0.1,1-0.1,2.1-0.4,3c-0.4,1-0.9,1.9-1.6,2.6s-1.6,1.4-2.5,1.8S135.5,60.7,134.5,60.7L134.5,60.7z M133.7,48.4
			c-0.5,0-1.1,0.1-1.6,0.3s-0.9,0.5-1.3,0.9c-0.4,0.4-0.6,0.9-0.8,1.4s-0.2,1.1-0.2,1.6c-0.1,0.5,0,1.1,0.2,1.6s0.4,1,0.8,1.4
			c0.4,0.4,0.8,0.7,1.3,0.9s1,0.3,1.6,0.3s1.1-0.1,1.6-0.3s0.9-0.5,1.3-0.9c0.4-0.4,0.7-0.9,0.9-1.4s0.3-1.1,0.2-1.6
			c0-0.5,0-1.1-0.2-1.6s-0.5-1-0.8-1.4c-0.4-0.4-0.8-0.7-1.3-0.9C134.8,48.5,134.3,48.4,133.7,48.4L133.7,48.4L133.7,48.4z
			 M157.3,60.3L152,53h-3.1v7.3h-4.2V39.7h7.7c4.3,0,7.4,2.7,7.4,6.6c0,1.2-0.3,2.4-0.9,3.5s-1.6,1.9-2.7,2.4l5.8,8.1L157.3,60.3
			L157.3,60.3z M148.9,49.3h3.5c0.4,0,0.8,0,1.2-0.1s0.7-0.3,1-0.6s0.5-0.6,0.7-1s0.2-0.8,0.2-1.2s-0.1-0.8-0.2-1.2s-0.4-0.7-0.7-1
			s-0.6-0.5-1-0.6s-0.8-0.2-1.2-0.1h-3.5V49.3L148.9,49.3z M176.2,60.3h-3.9v-1.5c-0.6,0.6-1.4,1.1-2.2,1.4s-1.7,0.5-2.5,0.5
			c-3.3,0-5.3-1.9-5.3-4.6s2.2-4.5,5.8-4.5h3.9v-0.7c0-0.4,0-0.8-0.2-1.1c-0.1-0.3-0.4-0.7-0.6-0.9c-0.3-0.3-0.6-0.5-1-0.6
			s-0.7-0.2-1.1-0.1c-0.8,0-1.6,0.2-2.3,0.6c-0.7,0.4-1.3,0.9-1.8,1.5l-2.2-2.6c0.8-1,1.8-1.8,3-2.4c1.2-0.5,2.4-0.8,3.7-0.8
			c0.9-0.1,1.8,0,2.6,0.3s1.6,0.8,2.2,1.4c0.6,0.6,1.1,1.4,1.4,2.2s0.4,1.7,0.3,2.6L176.2,60.3L176.2,60.3L176.2,60.3z M171.9,54.4
			h-3.3c-1.4,0-2.1,0.5-2.1,1.5s0.9,1.7,2.2,1.7c0.4,0,0.8,0,1.2-0.2s0.8-0.4,1.1-0.7s0.6-0.6,0.7-1S171.9,54.9,171.9,54.4
			L171.9,54.4L171.9,54.4z M194.9,36.9v23.4H191v-1.9c-0.6,0.8-1.3,1.4-2.2,1.8s-1.8,0.6-2.8,0.5c-1,0-2.1-0.2-3-0.7
			c-0.9-0.4-1.8-1-2.5-1.8s-1.2-1.6-1.6-2.6c-0.3-1-0.5-2-0.4-3c-0.1-1,0.1-2.1,0.4-3c0.3-1,0.9-1.9,1.6-2.6s1.6-1.4,2.5-1.8
			s2-0.6,3-0.7c0.9,0,1.7,0.1,2.5,0.4c0.8,0.3,1.5,0.8,2.1,1.4v-9.4L194.9,36.9L194.9,36.9z M186.8,48.3c-0.6,0-1.1,0.1-1.6,0.3
			s-0.9,0.5-1.3,0.9c-0.4,0.4-0.7,0.9-0.9,1.4s-0.3,1.1-0.2,1.6c0,0.5,0,1.1,0.2,1.6s0.5,1,0.9,1.4s0.8,0.7,1.3,0.9s1.1,0.3,1.6,0.3
			s1.1-0.1,1.6-0.3s0.9-0.5,1.3-0.9c0.4-0.4,0.6-0.9,0.8-1.4s0.2-1.1,0.2-1.6c0.1-0.5,0-1.1-0.2-1.6s-0.4-1-0.8-1.4
			c-0.4-0.4-0.8-0.7-1.3-0.9C187.9,48.5,187.4,48.4,186.8,48.3L186.8,48.3z M211.2,60.3h-3.9v-1.5c-0.6,0.6-1.4,1.1-2.2,1.4
			s-1.7,0.5-2.5,0.5c-3.3,0-5.3-1.9-5.3-4.6s2.2-4.5,5.8-4.5h3.9v-0.7c0-0.4,0-0.8-0.1-1.1s-0.4-0.7-0.6-0.9c-0.3-0.3-0.6-0.5-1-0.6
			s-0.7-0.2-1.1-0.1c-0.8,0-1.6,0.2-2.3,0.6c-0.7,0.4-1.3,0.9-1.8,1.5l-2.2-2.6c0.8-1,1.8-1.8,3-2.4c1.2-0.5,2.4-0.8,3.7-0.8
			c0.9-0.1,1.8,0,2.6,0.3s1.6,0.8,2.2,1.4c0.6,0.6,1.1,1.4,1.4,2.2s0.4,1.7,0.3,2.6L211.2,60.3L211.2,60.3L211.2,60.3z M207,54.3
			h-3.3c-1.4,0-2.1,0.5-2.1,1.5s0.9,1.7,2.2,1.7c0.4,0,0.8,0,1.2-0.2s0.8-0.4,1.1-0.7s0.6-0.6,0.7-1C207,55.2,207,54.8,207,54.3
			L207,54.3L207,54.3z M223.9,48.6h-1.1c-0.6-0.1-1.1,0-1.6,0.2s-1,0.5-1.4,0.8c-0.4,0.4-0.7,0.8-0.9,1.4c-0.2,0.5-0.3,1.1-0.2,1.6
			v7.7h-4.2V44.9h3.9v1.8c0.5-0.6,1.1-1.2,1.9-1.5c0.7-0.3,1.5-0.5,2.4-0.5c0.5,0,0.9,0,1.4,0.2L223.9,48.6L223.9,48.6L223.9,48.6z"
			/>
	</g>
</g>
</svg>
