<?xml version="1.0" encoding="utf-8"?>
<!-- Generator: Adobe Illustrator 27.6.1, SVG Export Plug-In . SVG Version: 6.00 Build 0)  -->
<svg version="1.1" id="Layer_1" xmlns="http://www.w3.org/2000/svg" xmlns:xlink="http://www.w3.org/1999/xlink" x="0px" y="0px"
	 viewBox="0 0 250 100" style="enable-background:new 0 0 250 100;" xml:space="preserve">
<style type="text/css">
	.st0{fill:#FFFFFF;}
	.st1{fill:#CFCFCF;}
	.st2{fill:none;stroke:#221F1F;stroke-linejoin:round;}
	.st3{fill:#929497;}
	.st4{fill:none;stroke:#221F1F;stroke-linecap:round;stroke-linejoin:round;}
	.st5{fill:#F79422;}
	.st6{fill:none;stroke:#221F1F;stroke-miterlimit:10;}
	.st7{fill:none;stroke:#171717;stroke-linecap:round;stroke-linejoin:round;}
	.st8{fill:#171717;}
	.st9{fill:#221F1F;}
</style>
<path class="st0" d="M113,69.2V37.1h19.9v4.2h-15.1V51h13.6v4.2h-13.6v14H113L113,69.2z"/>
<path class="st0" d="M158.1,69.6c-2.2,0-4.2-0.5-5.9-1.6s-3-2.5-3.9-4.3c-0.9-1.9-1.4-4-1.4-6.5s0.5-4.7,1.4-6.5s2.2-3.3,3.9-4.3
	s3.6-1.5,5.9-1.5s4.2,0.5,5.9,1.5s3,2.5,3.9,4.3s1.4,4,1.4,6.5s-0.5,4.7-1.4,6.5c-0.9,1.9-2.2,3.3-3.9,4.3
	C162.3,69.1,160.3,69.6,158.1,69.6z M158.1,65.7c1.5,0,2.7-0.4,3.6-1.2s1.7-1.8,2.1-3.1s0.7-2.7,0.7-4.2s-0.2-3-0.7-4.2
	c-0.5-1.3-1.2-2.3-2.1-3.1s-2.2-1.2-3.6-1.2s-2.7,0.4-3.7,1.2s-1.7,1.8-2.1,3.1c-0.5,1.3-0.7,2.7-0.7,4.2s0.2,3,0.7,4.2
	s1.2,2.3,2.1,3.1C155.4,65.3,156.6,65.7,158.1,65.7z"/>
<path class="st0" d="M141.6,37.1v32.1h-4.7V37.1C136.9,37.1,141.6,37.1,141.6,37.1z"/>
<path class="st0" d="M174.3,69.2V37.1h4.7v32.1H174.3z M178.6,61v-5.7h0.8l9.6-10.2h5.6l-10.9,11.6H183L178.6,61L178.6,61z
	 M189.5,69.2l-8.6-11.4l3.2-3.3l11.1,14.7H189.5z"/>
<path class="st0" d="M201.2,41.4c-0.8,0-1.5-0.3-2.1-0.8s-0.9-1.2-0.9-2s0.3-1.4,0.9-2s1.3-0.8,2.1-0.8s1.5,0.3,2.1,0.8
	s0.9,1.2,0.9,2s-0.3,1.4-0.9,2S202,41.4,201.2,41.4z M198.8,69.2v-24h4.7v24H198.8z"/>
<g id="Layer_2_00000132791214560741091540000006532085060119297967_">
	<g id="Layer_4_00000146486704567773722210000004862500745891693969_">
		<path class="st1" d="M93.9,63.3c-0.6,7-8.8,12.8-21.1,12.5l0,0c-11.6-0.3-19.7-5.1-20.2-12.1c-0.1-0.9,0-1.8,0.1-2.7
			c0.4-2.7,1.3-5.3,2.7-7.6l0.9,0.4c2.3-0.9,4.6-1.5,7-2c3.1-0.4,6.5-1,9.6-0.7l0.3-0.1c3.2-0.2,6,0.4,9.2,0.9c2.4,0.4,4.8,1.1,7,2
			l0.9-0.4l0.6-0.3c1.4,2.3,2.3,4.9,2.9,7.6C93.8,61.7,93.9,62.5,93.9,63.3"/>
		<path class="st0" d="M93.9,63.3c-0.5,6.9-8.7,12.5-21.1,12.5l0,0c-11.6-0.3-19.7-5.1-20.2-12.1c-0.1-0.9,0-1.8,0.1-2.7
			c1.2-0.3,2.5-0.3,3.7-0.1c2.3,0.4,3.7,1.8,5.3,2.6c1,0.4,1.9-0.3,2.8-1.1c2.3-2.3,5.5-3.6,8.7-3.7c3.3-0.1,6,1.2,8.9,3.9
			c0.6,0.6,1.4,1,2.2,0.9c0.7-0.2,1.5-0.6,2.1-1.1c2.2-1.5,4.8-2,7.4-1.7C93.9,61.6,94,62.5,93.9,63.3"/>
		<path class="st1" d="M59.9,46.1c-0.8,0.8-1.8,1.4-2.9,1.6l-0.4,0.1c-0.6,0.2-1,0.3-1.5,0.3h-0.3c-0.2-0.1-0.5-0.2-0.7-0.2
			c-0.8-0.4-1.5-0.8-2.2-1.4c-1.3-1.1-2.6-2.3-3.5-3.8c-4-5.9-2.8-13.8,2.8-18.2c0.3-0.2,0.8-0.2,1.1,0.1c0.2,0.2,0.2,0.4,0.2,0.7
			c-0.6,2.4-1,6,1.2,9.2c1.9,2.7,5.9,5.3,8.3,5.2C62.4,42.6,61.6,44.5,59.9,46.1"/>
		<path class="st2" d="M59.9,46.1c-0.8,0.8-1.8,1.4-2.9,1.6l-0.4,0.1c-0.6,0.2-1,0.3-1.5,0.3h-0.3c-0.2-0.1-0.5-0.2-0.7-0.2
			c-0.8-0.4-1.5-0.8-2.2-1.4c-1.3-1.1-2.6-2.3-3.5-3.8c-4-5.9-2.8-13.8,2.8-18.2c0.3-0.2,0.8-0.2,1.1,0.1c0.2,0.2,0.2,0.4,0.2,0.7
			c-0.6,2.4-1,6,1.2,9.2c1.9,2.7,5.9,5.3,8.3,5.2C62.4,42.6,61.6,44.5,59.9,46.1L59.9,46.1z"/>
		<path class="st3" d="M70.4,36l-0.9,9.4h-0.1c-1.5,0.2-3.4,0.5-6.2,1c-2.5,0.4-5.9,2.1-7.8,3.3l-0.3-1.5c0.4-0.1,1-0.2,1.4-0.2
			l0.4-0.1c1.1-0.2,2.1-0.8,2.9-1.6c1.7-1.7,2.6-3.6,2-6.6l0.3,0.1c0.9-1,1.9-1.7,3.1-2.3C66.8,36.5,68.6,36.1,70.4,36"/>
		<path class="st2" d="M70.4,36l-0.9,9.4h-0.1c-1.5,0.2-3.4,0.5-6.2,1c-2.5,0.4-5.9,2.1-7.8,3.3l-0.3-1.5c0.4-0.1,1-0.2,1.4-0.2
			l0.4-0.1c1.1-0.2,2.1-0.8,2.9-1.6c1.7-1.7,2.6-3.6,2-6.6l0.3,0.1c0.9-1,1.9-1.7,3.1-2.3C66.8,36.5,68.6,36.1,70.4,36z"/>
		<path class="st3" d="M91.8,52.9l-0.6,0.3l0,0l-0.6,0.3l-0.9,0.4c-2.3-0.9-4.6-1.5-7-2c-3.2-0.6-6.3-0.9-9.5-0.9l0,0
			c-3.2,0-6.4,0.2-9.5,0.9c-2.4,0.4-4.8,1.1-7,2c-0.3-0.2-0.6-0.3-0.9-0.4l-1.3-0.6c0.1-1,0-1.6,0-2.6c0.2-0.2,0.6-0.4,1-0.6
			l0.1-0.1c1.8-1.2,5.2-2.9,7.7-3.3c2.7-0.4,4.6-0.7,6.2-1c0.9-0.1,2-0.1,3-0.1c1.5,0,2.9,0,4.3,0.1c1.5,0.2,3.4,0.5,6.2,1
			c2.6,0.4,5.9,2.1,7.9,3.3H91c0.4,0.2,0.7,0.4,0.9,0.6C91.7,51.3,91.7,51.9,91.8,52.9"/>
		<path class="st4" d="M91.8,52.9l-0.6,0.3l0,0l-0.6,0.3l-0.9,0.4c-2.3-0.9-4.6-1.5-7-2c-3.2-0.5-6.3-0.8-9.5-0.8l0,0
			c-3.2,0-6.4,0.2-9.5,0.8c-2.4,0.4-4.8,1.1-7,2c-0.3-0.2-0.6-0.3-0.9-0.4l-1.3-0.6c0.1-1,0-1.6,0-2.6c0.2-0.2,0.6-0.4,1-0.6
			l0.1-0.1c1.8-1.2,5.2-2.9,7.7-3.3c2.7-0.4,4.6-0.7,6.2-1c0.9-0.1,2-0.1,3-0.1c1.5,0,2.9,0,4.3,0.1c1.5,0.2,3.4,0.5,6.2,1
			c2.6,0.4,5.9,2.1,7.9,3.3H91c0.4,0.2,0.7,0.4,0.9,0.6C91.8,51.3,91.7,51.9,91.8,52.9L91.8,52.9z"/>
		<path class="st3" d="M76.7,45.4c-1.3-0.1-2.8-0.2-4.3-0.1c-1,0-2.1,0.1-3,0.1h0.1l0.9-9.4l0.2-1.9c0.7-0.4,1.6-0.7,2.4-0.7h0.2
			c0.9,0,1.7,0.2,2.4,0.7l0.2,1.9v0.1L76.7,45.4L76.7,45.4z"/>
		<path class="st4" d="M76.7,45.4c-1.3-0.1-2.8-0.2-4.3-0.1c-1,0-2.1,0.1-3,0.1h0.1l0.9-9.4l0.2-1.9c0.7-0.4,1.6-0.7,2.4-0.7h0.2
			c0.9,0,1.7,0.2,2.4,0.7l0.2,1.9v0.1L76.7,45.4L76.7,45.4z"/>
		<line class="st4" x1="91.2" y1="53.1" x2="91.2" y2="53.1"/>
		<path class="st4" d="M94,63.4c-0.6,7-9.5,12.5-21.1,12.5l0,0c-11.7-0.3-19.8-5.1-20.3-12.1c-0.1-0.9,0-1.8,0.1-2.7
			c0.4-2.7,1.3-5.3,2.7-7.6l0.9,0.4c2.3-0.9,4.6-1.5,7-2c3.1-0.6,6.3-0.8,9.5-0.9l0,0c3.2,0,6.4,0.3,9.5,0.9c2.4,0.4,4.8,1.1,7,2
			l0.9-0.4l0.6-0.3c1.4,2.3,2.3,4.9,2.9,7.6C94,61.7,94,62.6,94,63.4L94,63.4z"/>
		<path class="st1" d="M97.5,42.6c-1,1.4-2.2,2.7-3.6,3.8c-0.7,0.6-1.4,1-2.2,1.4L91.3,48l-0.2,0.1c-0.5,0.2-0.8,0-1.8-0.2l-0.4-0.2
			c-1.1-0.2-2.1-0.8-2.9-1.6c-1.7-1.7-2.6-3.6-2-6.6c2.3,0.1,6.4-2.5,8.3-5.2c2.2-3.1,1.8-6.8,1.2-9.1c-0.1-0.4,0.2-0.8,0.6-1
			c0.2-0.1,0.5,0,0.7,0.1C100.3,28.8,101.5,36.7,97.5,42.6"/>
		<path class="st2" d="M97.5,42.6c-1,1.4-2.2,2.7-3.6,3.8c-0.7,0.6-1.4,1-2.2,1.4L91.3,48l-0.2,0.1c-0.5,0.2-0.8,0-1.8-0.2l-0.4-0.2
			c-1.1-0.2-2.1-0.8-2.9-1.6c-1.7-1.7-2.6-3.6-2-6.6c2.3,0.1,6.4-2.5,8.3-5.2c2.2-3.1,1.8-6.8,1.2-9.1c-0.1-0.4,0.2-0.8,0.6-1
			c0.2-0.1,0.5,0,0.7,0.1C100.3,28.8,101.5,36.7,97.5,42.6L97.5,42.6z"/>
		<path class="st3" d="M91.2,48.1l-0.3,1.6c-2-1.2-5.3-2.9-7.9-3.3c-2.8-0.4-4.7-0.7-6.2-1L75.9,36c1.7,0.1,3.4,0.6,4.9,1.4
			c1.2,0.6,2.2,1.4,3.1,2.3l0.3-0.1c-0.6,2.9,0.3,4.9,2,6.6c0.8,0.8,1.8,1.4,2.9,1.6c0.1,0,0.4,0.2,0.4,0.2
			C89.9,48.2,90.6,48.2,91.2,48.1"/>
		<path class="st2" d="M91.2,48.1l-0.3,1.6c-2-1.2-5.3-2.9-7.9-3.3c-2.8-0.4-4.7-0.7-6.2-1L75.9,36c1.7,0.1,3.4,0.6,4.9,1.4
			c1.2,0.6,2.2,1.4,3.1,2.3l0.3-0.1c-0.6,2.9,0.3,4.9,2,6.6c0.8,0.8,1.8,1.4,2.9,1.6l0.4,0.1C90.4,48.1,90.6,48.2,91.2,48.1
			L91.2,48.1z"/>
		<path class="st2" d="M75.8,36h-0.3"/>
		<path class="st5" d="M90.9,49.7l-0.2,0.2"/>
		<path class="st6" d="M90.9,49.7l-0.2,0.2"/>
		<path class="st5" d="M55.2,49.7c0,0,0.1,0.1,0.2,0.2"/>
		<path class="st6" d="M55.2,49.7c0,0,0.1,0.1,0.2,0.2"/>
		<path class="st7" d="M70.4,66.2c0.5,0.2,1.1,0.1,1.6-0.2c0.8-0.3,1.3-1.1,1.2-2c-0.1,0.9,0.4,1.7,1.2,2c0.5,0.2,1,0.3,1.5,0.2"/>
		<path class="st8" d="M76.1,61.5c0,0.9-1.3,2-2.9,2s-2.9-1.2-2.9-2s1.3-1.2,2.9-1.2S76.1,60.7,76.1,61.5"/>
		<path class="st0" d="M74.4,61.2c0,0.2-0.6,0.5-1.2,0.5S72,61.4,72,61.3s0.5-0.2,1.1-0.2S74.4,61,74.4,61.2"/>
		<path class="st7" d="M68.6,64c-0.1,1,0.6,1.9,1.6,2.1h0.2"/>
		<path class="st7" d="M73.2,62.9v1"/>
		<path class="st7" d="M76.1,66.2h0.2c1-0.2,1.8-1.1,1.6-2.1"/>
		<path class="st2" d="M94.8,24.4c5.6,4.4,6.8,12.3,2.7,18.1"/>
		<path class="st2" d="M59.9,46.1c-0.8,0.8-1.8,1.4-2.9,1.6l-0.4,0.1c-0.6,0.2-1,0.3-1.5,0.3h-0.3c-0.2-0.1-0.5-0.2-0.7-0.2
			c-0.8-0.4-1.5-0.8-2.2-1.4c-1.3-1.1-2.6-2.3-3.5-3.8c-4-5.9-2.8-13.8,2.8-18.2c0.3-0.2,0.8-0.2,1.1,0.1c0.2,0.2,0.2,0.4,0.2,0.7
			c-0.6,2.4-1,6,1.2,9.2c1.9,2.7,5.9,5.3,8.3,5.2C62.4,42.6,61.6,44.5,59.9,46.1L59.9,46.1z"/>
		<path class="st9" d="M67.8,56.7c0,1.6-0.9,2.9-2.1,2.9s-2.1-1.3-2.1-2.9c0-1.4,0.7-2.6,1.7-2.9l2.3,1.8
			C67.7,56,67.8,56.3,67.8,56.7z"/>
		<path class="st0" d="M67,56.3c0,0.6-0.4,1-0.7,1s-0.7-0.4-0.7-1s0.4-1,0.7-1S67,55.8,67,56.3"/>
		<path class="st9" d="M65.2,58.9c-0.8,0.7-1.5,1.4-2.2,2.2c-0.3,0.4-0.6,0.8-0.8,1.3c-0.2,0.4-0.4,1-0.4,1.5
			c-0.1,0.2-0.1,0.5-0.1,0.7v2.3c0.1,0.5,0.2,1.1,0.2,1.6c0.1,0.3,0.1,0.5,0.2,0.8c0.1,0.2,0.2,0.5,0.3,0.7
			c-0.2-0.2-0.2-0.5-0.4-0.7c-0.1-0.2-0.2-0.5-0.3-0.7c-0.2-0.5-0.3-1-0.4-1.6c-0.1-0.5-0.2-1.1-0.2-1.6v-1.6
			c0.1-0.6,0.2-1.2,0.4-1.7s0.4-1,0.7-1.5c0.7-1,1.3-1.8,2.1-2.6c0.3-0.2,0.7-0.2,0.9,0C65.5,58.2,65.5,58.6,65.2,58.9L65.2,58.9
			L65.2,58.9z"/>
		<path class="st9" d="M64.8,58.7h-0.4L64,58.6c-0.2-0.1-0.4-0.1-0.7-0.1c-0.4,0-1,0-1.4,0.2c-0.2,0.1-0.4,0.2-0.7,0.2
			c-0.7,0.3-1.2,0.8-1.6,1.4c0.2-0.5,0.4-1,0.8-1.3c0.2-0.2,0.4-0.4,0.6-0.5s0.4-0.3,0.7-0.4c0.4-0.3,1-0.4,1.5-0.6
			c0.3-0.1,0.5-0.1,0.8-0.1h0.7c0,0,0.1,0,0,0c0.4,0,0.7,0.3,0.7,0.7S65.2,58.7,64.8,58.7L64.8,58.7"/>
		<path class="st9" d="M82.9,56.7c0,1.6-0.9,2.9-2.1,2.9s-2.2-1.2-2.2-2.9c0-0.4,0.1-0.7,0.2-1.1l2.3-1.8
			C82.2,54.2,82.9,55.3,82.9,56.7L82.9,56.7z"/>
		<path class="st0" d="M79.4,56.3c0,0.6,0.4,1,0.7,1s0.7-0.4,0.7-1s-0.4-1-0.7-1S79.4,55.8,79.4,56.3"/>
		<path class="st9" d="M82.2,57.9c0.8,0.8,1.5,1.6,2.1,2.6c0.3,0.4,0.6,1,0.8,1.5s0.4,1.1,0.4,1.6c0.1,0.6,0.1,1.1,0,1.7
			c-0.1,0.5-0.2,1.1-0.2,1.6s-0.2,1-0.4,1.5c-0.1,0.2-0.2,0.5-0.3,0.7c-0.1,0.2-0.2,0.5-0.4,0.7c0.1-0.2,0.2-0.5,0.3-0.7
			s0.2-0.5,0.2-0.7c0.1-0.5,0.2-1,0.2-1.5c0.1-0.5,0.1-1,0.1-1.6c0-0.5-0.1-1-0.2-1.5c-0.2-0.5-0.3-1-0.5-1.4s-0.5-0.9-0.9-1.2
			c-0.7-0.8-1.4-1.5-2.2-2.2l0,0c-0.3-0.3-0.3-0.7,0-1C81.5,57.7,81.9,57.6,82.2,57.9L82.2,57.9"/>
		<path class="st9" d="M81.6,57.4h0.8c0.3,0,0.6,0,0.9,0.1c0.6,0.1,1.1,0.2,1.6,0.4s0.9,0.6,1.4,1c0.4,0.4,0.7,0.9,0.9,1.3
			c-0.3-0.4-0.7-0.8-1.1-1.1s-0.9-0.5-1.4-0.6s-0.9-0.1-1.5-0.1c-0.2,0-0.5,0.1-0.7,0.1h-0.4h-0.4c-0.4,0.1-0.7-0.2-0.7-0.6
			c-0.1-0.4,0.2-0.7,0.6-0.7h0.2"/>
	</g>
</g>
</svg>
