<?xml version="1.0" encoding="utf-8"?>
<!-- Generator: Adobe Illustrator 27.6.1, SVG Export Plug-In . SVG Version: 6.00 Build 0)  -->
<svg version="1.1" id="Layer_1" xmlns="http://www.w3.org/2000/svg" xmlns:xlink="http://www.w3.org/1999/xlink" x="0px" y="0px"
	 viewBox="0 0 250 100" style="enable-background:new 0 0 250 100;" xml:space="preserve">
<style type="text/css">
	.st0{fill:#6B5858;}
	.st1{fill:#FFFFFF;}
	.st2{fill:none;stroke:#221F1F;stroke-linejoin:round;}
	.st3{fill:#4D4040;}
	.st4{fill:none;stroke:#2B2424;stroke-linejoin:round;}
	.st5{fill:none;stroke:#2B2424;stroke-linecap:round;stroke-linejoin:round;}
	.st6{fill:none;stroke:#221F1F;stroke-linecap:round;stroke-linejoin:round;}
	.st7{fill:#F79422;}
	.st8{fill:none;stroke:#221F1F;stroke-miterlimit:10;}
	.st9{fill:#2B2424;}
</style>
<g id="Layer_2">
	<g id="Layer_4">
		<path class="st0" d="M93.8,63.2c-0.6,7-8.8,12.8-21.1,12.5l0,0C61.1,75.4,53,70.6,52.5,63.6c-0.1-0.9,0-1.8,0.1-2.7
			c0.4-2.7,1.3-5.3,2.7-7.6l0.9,0.4c2.3-0.9,4.6-1.5,7-2c3.1-0.4,6.5-1,9.6-0.7l0.3-0.1c3.2-0.2,6,0.4,9.2,0.9c2.4,0.4,4.8,1.1,7,2
			l0.9-0.4l0.6-0.3c1.4,2.3,2.3,4.9,2.9,7.6C93.7,61.6,93.8,62.4,93.8,63.2"/>
		<path class="st1" d="M93.8,63.2c-0.5,6.9-8.7,12.5-21.1,12.5l0,0C61.1,75.4,53,70.6,52.5,63.6c-0.1-0.9,0-1.8,0.1-2.7
			c1.2-0.3,2.5-0.3,3.7-0.1c2.3,0.4,3.7,1.8,5.3,2.6c1,0.4,1.9-0.3,2.8-1.1c2.3-2.3,5.5-3.6,8.7-3.7c3.3-0.1,6,1.2,8.9,3.9
			c0.6,0.6,1.4,1,2.2,0.9c0.7-0.2,1.5-0.6,2.1-1.1c2.2-1.5,4.8-2,7.4-1.7C93.8,61.5,93.9,62.4,93.8,63.2"/>
		<path class="st0" d="M59.8,46c-0.8,0.8-1.8,1.4-2.9,1.6l-0.4,0.1c-0.6,0.2-1,0.3-1.5,0.3h-0.3c-0.2-0.1-0.5-0.2-0.7-0.2
			c-0.8-0.4-1.5-0.8-2.2-1.4c-1.3-1.1-2.6-2.3-3.5-3.8c-4-5.9-2.8-13.8,2.8-18.2c0.3-0.2,0.8-0.2,1.1,0.1c0.2,0.2,0.2,0.4,0.2,0.7
			c-0.6,2.4-1,6,1.2,9.2c1.9,2.7,5.9,5.3,8.3,5.2C62.3,42.5,61.5,44.4,59.8,46"/>
		<path class="st2" d="M59.8,46c-0.8,0.8-1.8,1.4-2.9,1.6l-0.4,0.1c-0.6,0.2-1,0.3-1.5,0.3h-0.3c-0.2-0.1-0.5-0.2-0.7-0.2
			c-0.8-0.4-1.5-0.8-2.2-1.4c-1.3-1.1-2.6-2.3-3.5-3.8c-4-5.9-2.8-13.8,2.8-18.2c0.3-0.2,0.8-0.2,1.1,0.1c0.2,0.2,0.2,0.4,0.2,0.7
			c-0.6,2.4-1,6,1.2,9.2c1.9,2.7,5.9,5.3,8.3,5.2C62.3,42.5,61.5,44.4,59.8,46L59.8,46z"/>
		<path class="st3" d="M70.3,35.9l-0.9,9.4h-0.1c-1.5,0.2-3.4,0.5-6.2,1c-2.5,0.4-5.9,2.1-7.8,3.3L55,48.1c0.4-0.1,1-0.2,1.4-0.2
			l0.4-0.1c1.1-0.2,2.1-0.8,2.9-1.6c1.7-1.7,2.6-3.6,2-6.6l0.3,0.1c0.9-1,1.9-1.7,3.1-2.3C66.7,36.4,68.5,36,70.3,35.9"/>
		<path class="st4" d="M70.3,35.9l-0.9,9.4h-0.1c-1.5,0.2-3.4,0.5-6.2,1c-2.5,0.4-5.9,2.1-7.8,3.3L55,48.1c0.4-0.1,1-0.2,1.4-0.2
			l0.4-0.1c1.1-0.2,2.1-0.8,2.9-1.6c1.7-1.7,2.6-3.6,2-6.6l0.3,0.1c0.9-1,1.9-1.7,3.1-2.3C66.7,36.4,68.5,36,70.3,35.9z"/>
		<path class="st3" d="M91.7,52.8l-0.6,0.3l0,0l-0.6,0.3l-0.9,0.4c-2.3-0.9-4.6-1.5-7-2c-3.2-0.6-6.3-0.9-9.5-0.9l0,0
			c-3.2,0-6.4,0.2-9.5,0.9c-2.4,0.4-4.8,1.1-7,2c-0.3-0.2-0.6-0.3-0.9-0.4l-1.3-0.6c0.1-1,0-1.6,0-2.6c0.2-0.2,0.6-0.4,1-0.6
			l0.1-0.1c1.8-1.2,5.2-2.9,7.7-3.3c2.7-0.4,4.6-0.7,6.2-1c0.9-0.1,2-0.1,3-0.1c1.5,0,2.9,0,4.3,0.1c1.5,0.2,3.4,0.5,6.2,1
			c2.6,0.4,5.9,2.1,7.9,3.3h0.1c0.4,0.2,0.7,0.4,0.9,0.6C91.6,51.2,91.6,51.8,91.7,52.8"/>
		<path class="st5" d="M91.7,52.8l-0.6,0.3l0,0l-0.6,0.3l-0.9,0.4c-2.3-0.9-4.6-1.5-7-2c-3.2-0.5-6.3-0.8-9.5-0.8l0,0
			c-3.2,0-6.4,0.2-9.5,0.8c-2.4,0.4-4.8,1.1-7,2c-0.3-0.2-0.6-0.3-0.9-0.4l-1.3-0.6c0.1-1,0-1.6,0-2.6c0.2-0.2,0.6-0.4,1-0.6
			l0.1-0.1c1.8-1.2,5.2-2.9,7.7-3.3c2.7-0.4,4.6-0.7,6.2-1c0.9-0.1,2-0.1,3-0.1c1.5,0,2.9,0,4.3,0.1c1.5,0.2,3.4,0.5,6.2,1
			c2.6,0.4,5.9,2.1,7.9,3.3h0.1c0.4,0.2,0.7,0.4,0.9,0.6C91.7,51.2,91.6,51.8,91.7,52.8L91.7,52.8z"/>
		<path class="st3" d="M76.6,45.3c-1.3-0.1-2.8-0.2-4.3-0.1c-1,0-2.1,0.1-3,0.1h0.1l0.9-9.4l0.2-1.9c0.7-0.4,1.6-0.7,2.4-0.7h0.2
			c0.9,0,1.7,0.2,2.4,0.7l0.2,1.9V36L76.6,45.3L76.6,45.3z"/>
		<path class="st5" d="M76.6,45.3c-1.3-0.1-2.8-0.2-4.3-0.1c-1,0-2.1,0.1-3,0.1h0.1l0.9-9.4l0.2-1.9c0.7-0.4,1.6-0.7,2.4-0.7h0.2
			c0.9,0,1.7,0.2,2.4,0.7l0.2,1.9V36L76.6,45.3L76.6,45.3z"/>
		<line class="st6" x1="91.1" y1="53" x2="91.1" y2="53"/>
		<path class="st5" d="M93.9,63.3c-0.6,7-9.5,12.5-21.1,12.5l0,0C61.1,75.5,53,70.7,52.5,63.7c-0.1-0.9,0-1.8,0.1-2.7
			c0.4-2.7,1.3-5.3,2.7-7.6l0.9,0.4c2.3-0.9,4.6-1.5,7-2c3.1-0.6,6.3-0.8,9.5-0.9l0,0c3.2,0,6.4,0.3,9.5,0.9c2.4,0.4,4.8,1.1,7,2
			l0.9-0.4l0.6-0.3c1.4,2.3,2.3,4.9,2.9,7.6C93.9,61.6,93.9,62.5,93.9,63.3L93.9,63.3z"/>
		<path class="st0" d="M97.4,42.5c-1,1.4-2.2,2.7-3.6,3.8c-0.7,0.6-1.4,1-2.2,1.4l-0.4,0.2L91,48c-0.5,0.2-0.8,0-1.8-0.2l-0.4-0.2
			c-1.1-0.2-2.1-0.8-2.9-1.6c-1.7-1.7-2.6-3.6-2-6.6c2.3,0.1,6.4-2.5,8.3-5.2c2.2-3.1,1.8-6.8,1.2-9.1c-0.1-0.4,0.2-0.8,0.6-1
			c0.2-0.1,0.5,0,0.7,0.1C100.2,28.7,101.4,36.6,97.4,42.5"/>
		<path class="st4" d="M97.4,42.5c-1,1.4-2.2,2.7-3.6,3.8c-0.7,0.6-1.4,1-2.2,1.4l-0.4,0.2L91,48c-0.5,0.2-0.8,0-1.8-0.2l-0.4-0.2
			c-1.1-0.2-2.1-0.8-2.9-1.6c-1.7-1.7-2.6-3.6-2-6.6c2.3,0.1,6.4-2.5,8.3-5.2c2.2-3.1,1.8-6.8,1.2-9.1c-0.1-0.4,0.2-0.8,0.6-1
			c0.2-0.1,0.5,0,0.7,0.1C100.2,28.7,101.4,36.6,97.4,42.5L97.4,42.5z"/>
		<path class="st3" d="M91.1,48l-0.3,1.6c-2-1.2-5.3-2.9-7.9-3.3c-2.8-0.4-4.7-0.7-6.2-1l-0.9-9.4c1.7,0.1,3.4,0.6,4.9,1.4
			c1.2,0.6,2.2,1.4,3.1,2.3l0.3-0.1c-0.6,2.9,0.3,4.9,2,6.6c0.8,0.8,1.8,1.4,2.9,1.6c0.1,0,0.4,0.2,0.4,0.2
			C89.8,48.1,90.5,48.1,91.1,48"/>
		<path class="st4" d="M91.1,48l-0.3,1.6c-2-1.2-5.3-2.9-7.9-3.3c-2.8-0.4-4.7-0.7-6.2-1l-0.9-9.4c1.7,0.1,3.4,0.6,4.9,1.4
			c1.2,0.6,2.2,1.4,3.1,2.3l0.3-0.1c-0.6,2.9,0.3,4.9,2,6.6c0.8,0.8,1.8,1.4,2.9,1.6l0.4,0.1C90.3,48,90.5,48.1,91.1,48L91.1,48z"/>
		<path class="st2" d="M75.7,35.9h-0.3"/>
		<path class="st7" d="M90.8,49.6l-0.2,0.2"/>
		<path class="st8" d="M90.8,49.6l-0.2,0.2"/>
		<path class="st7" d="M55.1,49.6c0,0,0.1,0.1,0.2,0.2"/>
		<path class="st8" d="M55.1,49.6c0,0,0.1,0.1,0.2,0.2"/>
		<path class="st5" d="M70.3,66.1c0.5,0.2,1.1,0.1,1.6-0.2c0.8-0.3,1.3-1.1,1.2-2c-0.1,0.9,0.4,1.7,1.2,2c0.5,0.2,1,0.3,1.5,0.2"/>
		<path class="st9" d="M76,61.4c0,0.9-1.3,2-2.9,2s-2.9-1.2-2.9-2s1.3-1.2,2.9-1.2S76,60.6,76,61.4"/>
		<path class="st1" d="M74.3,61.1c0,0.2-0.6,0.5-1.2,0.5s-1.2-0.3-1.2-0.4S72.4,61,73,61S74.3,60.9,74.3,61.1"/>
		<path class="st5" d="M68.5,63.9c-0.1,1,0.6,1.9,1.6,2.1h0.2"/>
		<path class="st5" d="M73.1,62.8v1"/>
		<path class="st5" d="M76,66.1h0.2c1-0.2,1.8-1.1,1.6-2.1"/>
		<path class="st2" d="M94.7,24.3c5.6,4.4,6.8,12.3,2.7,18.1"/>
		<path class="st4" d="M59.8,46c-0.8,0.8-1.8,1.4-2.9,1.6l-0.4,0.1c-0.6,0.2-1,0.3-1.5,0.3h-0.3c-0.2-0.1-0.5-0.2-0.7-0.2
			c-0.8-0.4-1.5-0.8-2.2-1.4c-1.3-1.1-2.6-2.3-3.5-3.8c-4-5.9-2.8-13.8,2.8-18.2c0.3-0.2,0.8-0.2,1.1,0.1c0.2,0.2,0.2,0.4,0.2,0.7
			c-0.6,2.4-1,6,1.2,9.2c1.9,2.7,5.9,5.3,8.3,5.2C62.3,42.5,61.5,44.4,59.8,46L59.8,46z"/>
		<path class="st9" d="M67.7,56.6c0,1.6-0.9,2.9-2.1,2.9s-2.1-1.3-2.1-2.9c0-1.4,0.7-2.6,1.7-2.9l2.3,1.8
			C67.6,55.9,67.7,56.2,67.7,56.6z"/>
		<path class="st1" d="M66.9,56.2c0,0.6-0.4,1-0.7,1s-0.7-0.4-0.7-1s0.4-1,0.7-1S66.9,55.7,66.9,56.2"/>
		<path class="st9" d="M65.1,58.8c-0.8,0.7-1.5,1.4-2.2,2.2c-0.3,0.4-0.6,0.8-0.8,1.3c-0.2,0.4-0.4,1-0.4,1.5
			c-0.1,0.2-0.1,0.5-0.1,0.7v2.3c0.1,0.5,0.2,1.1,0.2,1.6c0.1,0.3,0.1,0.5,0.2,0.8c0.1,0.2,0.2,0.5,0.3,0.7
			c-0.2-0.2-0.2-0.5-0.4-0.7c-0.1-0.2-0.2-0.5-0.3-0.7c-0.2-0.5-0.3-1-0.4-1.6c-0.1-0.5-0.2-1.1-0.2-1.6v-1.6
			c0.1-0.6,0.2-1.2,0.4-1.7s0.4-1,0.7-1.5c0.7-1,1.3-1.8,2.1-2.6c0.3-0.2,0.7-0.2,0.9,0C65.4,58.1,65.4,58.5,65.1,58.8L65.1,58.8
			L65.1,58.8z"/>
		<path class="st9" d="M64.7,58.6h-0.4l-0.4-0.1c-0.2-0.1-0.4-0.1-0.7-0.1c-0.4,0-1,0-1.4,0.2c-0.2,0.1-0.4,0.2-0.7,0.2
			c-0.7,0.3-1.2,0.8-1.6,1.4c0.2-0.5,0.4-1,0.8-1.3c0.2-0.2,0.4-0.4,0.6-0.5s0.4-0.3,0.7-0.4c0.4-0.3,1-0.4,1.5-0.6
			c0.3-0.1,0.5-0.1,0.8-0.1h0.7c0,0,0.1,0,0,0c0.4,0,0.7,0.3,0.7,0.7S65.1,58.6,64.7,58.6L64.7,58.6"/>
		<path class="st9" d="M82.8,56.6c0,1.6-0.9,2.9-2.1,2.9s-2.2-1.2-2.2-2.9c0-0.4,0.1-0.7,0.2-1.1l2.3-1.8
			C82.1,54.1,82.8,55.2,82.8,56.6L82.8,56.6z"/>
		<path class="st1" d="M79.3,56.2c0,0.6,0.4,1,0.7,1s0.7-0.4,0.7-1s-0.4-1-0.7-1S79.3,55.7,79.3,56.2"/>
		<path class="st9" d="M82.1,57.8c0.8,0.8,1.5,1.6,2.1,2.6c0.3,0.4,0.6,1,0.8,1.5s0.4,1.1,0.4,1.6c0.1,0.6,0.1,1.1,0,1.7
			c-0.1,0.5-0.2,1.1-0.2,1.6s-0.2,1-0.4,1.5c-0.1,0.2-0.2,0.5-0.3,0.7c-0.1,0.2-0.2,0.5-0.4,0.7c0.1-0.2,0.2-0.5,0.3-0.7
			s0.2-0.5,0.2-0.7c0.1-0.5,0.2-1,0.2-1.5c0.1-0.5,0.1-1,0.1-1.6c0-0.5-0.1-1-0.2-1.5c-0.2-0.5-0.3-1-0.5-1.4s-0.5-0.9-0.9-1.2
			c-0.7-0.8-1.4-1.5-2.2-2.2l0,0c-0.3-0.3-0.3-0.7,0-1C81.4,57.6,81.8,57.5,82.1,57.8L82.1,57.8"/>
		<path class="st9" d="M81.5,57.3h0.8c0.3,0,0.6,0,0.9,0.1c0.6,0.1,1.1,0.2,1.6,0.4s0.9,0.6,1.4,1c0.4,0.4,0.7,0.9,0.9,1.3
			c-0.3-0.4-0.7-0.8-1.1-1.1s-0.9-0.5-1.4-0.6s-0.9-0.1-1.5-0.1c-0.2,0-0.5,0.1-0.7,0.1H82h-0.4c-0.4,0.1-0.7-0.2-0.7-0.6
			c-0.1-0.4,0.2-0.7,0.6-0.7h0.2"/>
	</g>
</g>
<path class="st3" d="M113,69.2V37.1h19.9v4.2h-15.1V51h13.6v4.2h-13.6v14H113L113,69.2z"/>
<path class="st3" d="M158.1,69.6c-2.2,0-4.2-0.5-5.9-1.6s-3-2.5-3.9-4.3c-0.9-1.9-1.4-4-1.4-6.5s0.5-4.7,1.4-6.5s2.2-3.3,3.9-4.3
	s3.6-1.5,5.9-1.5s4.2,0.5,5.9,1.5s3,2.5,3.9,4.3s1.4,4,1.4,6.5s-0.5,4.7-1.4,6.5c-0.9,1.9-2.2,3.3-3.9,4.3
	C162.3,69.1,160.3,69.6,158.1,69.6z M158.1,65.7c1.5,0,2.7-0.4,3.6-1.2s1.7-1.8,2.1-3.1s0.7-2.7,0.7-4.2s-0.2-3-0.7-4.2
	c-0.5-1.3-1.2-2.3-2.1-3.1s-2.2-1.2-3.6-1.2s-2.7,0.4-3.7,1.2s-1.7,1.8-2.1,3.1c-0.5,1.3-0.7,2.7-0.7,4.2s0.2,3,0.7,4.2
	s1.2,2.3,2.1,3.1C155.4,65.3,156.6,65.7,158.1,65.7z"/>
<path class="st3" d="M141.6,37.1v32.1h-4.7V37.1C136.9,37.1,141.6,37.1,141.6,37.1z"/>
<path class="st3" d="M174.3,69.2V37.1h4.7v32.1H174.3z M178.6,61v-5.7h0.8l9.6-10.2h5.6l-10.9,11.6H183L178.6,61L178.6,61z
	 M189.5,69.2l-8.6-11.4l3.2-3.3l11.1,14.7H189.5z"/>
<path class="st3" d="M201.2,41.4c-0.8,0-1.5-0.3-2.1-0.8s-0.9-1.2-0.9-2s0.3-1.4,0.9-2s1.3-0.8,2.1-0.8s1.5,0.3,2.1,0.8
	s0.9,1.2,0.9,2s-0.3,1.4-0.9,2S202,41.4,201.2,41.4z M198.8,69.2v-24h4.7v24H198.8z"/>
</svg>
