<svg width="180" height="71" viewBox="0 0 180 71" fill="none" xmlns="http://www.w3.org/2000/svg">
<g id="Logos">
<path id="Combined-Shape" d="M28.7818 48.3582V43.161H23.512V37.9638H34.0229V48.3866H28.7818V48.3582ZM34.0229 32.7453H18.2709V48.3582H13.0012V27.5197H34.0158V32.7453H34.0229Z" fill="#FAFAFA"/>
<path id="Combined-Shape-2" d="M34.0229 50.4455V53.5766H18.2709V48.3794H28.7818V46.0435H34.0229V50.4455Z" fill="#FAFAFA"/>
<path id="Rectangle-5-Copy-19" d="M39.2855 32.738V37.9636H34.0229V32.738H39.2855Z" fill="#FAFAFA"/>
<path id="Rectangle-5-Copy-29" d="M18.2709 48.3582V53.5767H13.0012V48.3582H18.2709Z" fill="#FAFAFA"/>
<path id="Rectangle-5-Copy-30" d="M18.2709 53.5767V58.7739H13.0012V53.5767H18.2709Z" fill="#FAFAFA"/>
<path id="Vector" d="M133.346 34.1155H130.991V46.4056H139.504V43.9845H133.346V34.1155ZM109.697 42.4154L103.683 34.1155H101.212V46.4056H103.683V38.1838L109.697 46.4056H112.167V34.1155H109.697V42.4154ZM93.4796 41.3149C93.4796 43.1538 92.1764 44.1478 90.7373 44.1478C89.4342 44.1478 88.1597 43.1609 88.1597 41.3149V33.9735H85.7181V41.3149C85.7181 44.9998 88.4604 46.647 90.7373 46.647C93.0142 46.647 95.9211 44.9714 95.9211 41.3149V33.9735H93.4796V41.3149ZM120.344 33.9735H116.213V36.4727H120.344V46.6754H122.785V36.4727H126.917V33.9735H120.344ZM75.0927 42.6639L76.7252 39.1707L78.3863 42.6639H75.0855H75.0927ZM70.632 46.647H73.2096L74.1261 44.6945H79.3386L80.2837 46.647H82.8613L76.6536 33.7534L70.6392 46.647H70.632ZM167.199 33.9735H156.495V36.4727H160.626V46.6754H163.068V36.4727H167.199V33.9735ZM148.067 33.9735H148.01C144.237 33.9735 142.354 37.6584 142.354 40.3209C142.354 42.9834 144.265 46.3417 147.538 46.647V46.6754H152.721V44.1762H148.175C146.707 44.1762 145.626 43.0189 145.153 41.677H152.442V39.1778H145.096C145.454 37.7507 146.485 36.5082 148.01 36.5082H152.721V34.009L148.06 33.9806L148.067 33.9735ZM61.8395 41.5918H65.0544V43.736C64.5245 44.1762 63.5866 44.7016 62.0042 44.7016C59.9779 44.7016 58.0948 42.6639 58.0948 40.5197C58.0948 37.3318 60.3144 35.9828 62.5054 35.9828C65.0257 35.9828 66.7226 38.0205 66.7441 38.0418L66.8515 38.2051V35.2657L66.8229 35.2373C66.8229 35.2373 66.4649 34.8255 65.7417 34.4137C65.0758 34.0303 63.9374 33.5901 62.3336 33.5901C59.7273 33.5901 55.6246 35.4574 55.6246 40.5197C55.6246 44.5028 59.1474 46.9807 62.4195 46.9807C65.6916 46.9807 67.3814 44.4247 67.41 44.4247V39.476H61.8109V41.5918H61.8395Z" fill="#FAFAFA"/>
</g>
</svg>
