<svg width="180" height="71" viewBox="0 0 180 71" fill="none" xmlns="http://www.w3.org/2000/svg">
<g id="Logos">
<path id="Vector" d="M20.6991 22.9686C23.7277 22.9615 26.7564 22.9686 29.7851 22.9331C30.6371 22.9189 31.2672 23.21 31.8543 23.7993C33.5226 25.4891 35.2195 27.1434 36.9093 28.8119C38.7136 30.5869 38.3914 30.6011 40.1599 28.8616C41.8855 27.1647 43.6111 25.4749 45.3151 23.7567C45.8665 23.2029 46.4607 22.926 47.2555 22.9331C49.8689 22.9615 52.4895 22.9686 55.1029 22.9331C56.0981 22.9189 56.5134 23.2739 56.5062 24.275C56.4919 35.1167 56.5062 45.9584 56.4919 56.8072C56.4919 57.1551 56.6136 57.6166 56.227 57.8012C55.7401 58.0284 55.5038 57.5243 55.2389 57.2616C50.2341 52.3271 45.2507 47.3713 40.2315 42.4581C39.5012 41.741 39.5012 41.244 40.2459 40.5624C41.4201 39.4832 42.5442 38.3472 43.6612 37.2041C44.2698 36.5793 44.7925 36.5509 45.3867 37.2041C46.4249 38.3401 47.4775 39.4619 48.5228 40.5837L48.9095 40.3281V30.7502C48.3009 30.6863 48.0789 31.2259 47.7567 31.5454C45.1505 34.1014 42.5657 36.6787 39.9595 39.2418C38.2912 40.8819 38.642 40.8748 36.9379 39.1921C34.4677 36.7568 32.0119 34.3144 29.5417 31.872C29.198 31.5312 28.8328 31.2117 28.2385 30.6721V40.5056C29.5202 39.5755 30.5369 38.4253 31.5751 37.3248C32.241 36.6219 32.7135 36.6006 33.3723 37.2822C34.5107 38.4679 35.6921 39.611 36.8735 40.747C37.3962 41.244 37.4964 41.6771 36.9308 42.2309C31.5894 47.4707 26.2624 52.7247 20.9282 57.9787C20.8637 58.0426 20.7707 58.071 20.6919 58.1207V22.9686H20.6991Z" fill="#4D4040"/>
<path id="Vector_2" d="M158.701 39.3058C157.519 40.3637 156.36 41.45 155.149 42.4724C153.603 43.7788 151.906 44.8438 149.894 45.3337C147.123 46.0011 145.591 45.0852 145.226 42.3233C145.047 40.9672 144.725 41.1802 143.901 41.8476C142.555 42.941 141.152 43.9705 139.476 44.5527C137.149 45.3621 135.739 44.7302 135.008 42.4369C134.758 41.6559 134.536 41.6985 134.027 42.1458C133.24 42.8345 132.452 43.5303 131.636 44.1906C131.035 44.6805 130.44 45.2059 129.753 45.5467C128.45 46.1928 127.011 46.6117 125.708 45.6745C124.519 44.8154 124.863 43.4806 125.042 42.2736C125.128 41.6985 125.299 41.1305 125.435 40.5625C124.999 40.2785 124.705 40.6264 124.412 40.7684C122.07 41.9186 119.75 43.1185 117.402 44.2474C116.264 44.7941 115.533 45.6035 115.096 46.7892C113.478 51.2196 111.903 55.6784 109.361 59.7112C107.371 62.8636 104.958 65.519 101.177 66.5698C100.891 66.6479 100.698 66.8183 100.576 67.081H93.6881C93.416 66.4846 92.8002 66.4846 92.2918 66.3426C90.9386 65.9734 89.7429 65.3202 88.6975 64.3972C86.9362 62.8494 86.8216 61.1809 88.3324 59.3846C89.7572 57.6948 91.4756 56.3245 93.3372 55.153C99.0724 51.5533 104.908 48.124 111.001 45.1349C112.526 44.3823 112.626 44.2758 113.027 43.0262C112.139 43.0617 111.445 43.5445 110.686 43.7859C107.886 44.6734 106.118 43.3315 106.304 40.456C106.619 35.6777 111.531 31.794 116.328 32.5608C117.166 32.6957 117.96 32.7312 118.762 32.4472C119.299 32.2555 119.844 32.1632 120.287 32.6531C120.76 33.1785 120.638 33.7394 120.381 34.3003C119.428 36.3664 118.476 38.4254 117.538 40.4986C117.38 40.8536 116.994 41.2654 117.323 41.6204C117.66 41.9896 118.104 41.6488 118.462 41.4855C121.011 40.3495 123.552 39.1922 126.101 38.0491C126.61 37.8219 126.817 37.3746 127.032 36.9202C127.44 36.054 127.848 35.1949 128.271 34.3429C128.572 33.7394 129.03 33.4625 129.731 33.6897C130.39 33.9027 130.684 34.3358 130.677 35.0174C130.677 35.5357 130.476 35.9901 130.29 36.4516C129.524 38.3473 128.751 40.243 128.02 42.1458C127.87 42.5363 127.541 43.083 127.992 43.4025C128.436 43.722 128.865 43.2605 129.202 42.9978C131.965 40.8536 134.199 38.2053 136.498 35.6138C136.899 35.1665 137.278 34.7263 137.837 34.4707C138.417 34.2009 139.004 34.1796 139.541 34.5346C140.142 34.9322 140.113 35.5499 139.942 36.1321C139.426 37.829 138.868 39.5046 138.345 41.1944C138.245 41.521 137.98 41.8973 138.345 42.2026C138.681 42.4795 139.061 42.2878 139.383 42.1316C141.639 41.0737 143.622 39.604 145.598 38.1201C146.02 37.8006 146.085 37.261 146.257 36.7924C149.099 29.025 152.772 21.5913 155.851 13.9233C156.002 13.5541 156.281 13.2275 156.503 12.8867C157.973 12.8867 158.708 13.6133 158.708 15.0664C158.114 15.3007 158.006 15.8829 157.806 16.3728C155.465 22.0386 153.08 27.6831 150.832 33.3844C149.837 35.912 148.77 38.4396 148.269 41.1305C147.975 42.6925 148.77 43.3954 150.309 42.9765C150.961 42.799 151.577 42.4653 152.2 42.1742C153.882 41.3932 155.221 40.1365 156.603 38.9437C157.219 38.4112 157.849 38.0136 158.708 38.2266V39.3129L158.701 39.3058ZM97.7191 64.5676C100.805 64.7948 103.146 63.3535 104.994 61.0176C107.901 57.3256 109.848 53.1437 111.28 48.7062C111.416 48.2944 111.738 47.7974 111.294 47.4424C110.815 47.059 110.328 47.4637 109.913 47.7051C105.796 50.0836 101.571 52.2633 97.5545 54.8122C95.3993 56.1825 93.1582 57.4463 91.4398 59.3917C90.2799 60.7052 90.4016 61.9406 91.8193 62.9701C93.5663 64.241 95.564 64.596 97.7263 64.5676H97.7191ZM109.204 40.6051C109.218 41.6701 109.92 42.0535 111.008 41.4571C112.884 40.4276 114.345 38.9437 115.347 37.048C115.562 36.6433 115.705 36.2173 115.676 35.7487C115.619 34.776 115.118 34.3571 114.13 34.5701C112.032 35.0245 109.168 38.539 109.204 40.6051Z" fill="#4D4040"/>
<path id="Vector_3" d="M86.7071 38.2475C85.9553 38.1552 85.5901 38.6309 85.1748 38.9362C83.3347 40.2852 81.4516 41.5845 79.7762 43.1394C79.0674 43.7997 78.2654 44.3322 77.2201 44.2967C76.0029 44.2541 75.5232 43.5583 76.096 42.4933C76.6902 41.3857 77.4134 40.342 78.0793 39.2699C77.621 38.8936 77.4062 39.2699 77.1914 39.419C75.158 40.8958 73.146 42.3939 71.1269 43.8849C70.905 44.0482 70.7188 44.2541 70.4825 44.3961C69.7379 44.8434 68.9288 45.4682 68.0983 44.7866C67.2749 44.105 67.8691 43.2814 68.2128 42.5643C69.3512 40.1858 70.5183 37.8215 71.6783 35.4572C71.9145 34.9673 72.1365 34.4632 72.6019 34.1224C73.0959 33.7674 73.6115 33.7177 74.1341 34.0514C74.6497 34.378 74.6926 34.8537 74.4993 35.3649C74.0625 36.5506 73.6186 37.7363 73.146 39.0072C73.8692 39.1705 74.263 38.7303 74.6783 38.4463C76.1676 37.4594 77.6425 36.4583 79.318 35.8051C80.17 35.4714 81.0722 35.1093 81.9242 35.7767C82.812 36.4654 82.0817 37.2677 81.9528 38.3043C83.5853 37.3529 85.046 36.4867 86.5209 35.6418C87.3085 35.1874 88.089 34.6904 89.0413 34.6336C90.3157 34.5555 90.8241 35.1093 90.595 36.366C90.3587 37.6724 89.7286 38.851 89.299 40.0864C89.163 40.4698 88.941 40.8958 89.299 41.2366C89.7 41.62 90.1868 41.4283 90.5663 41.1798C92.206 40.1148 93.9387 39.1989 95.163 37.573C96.3588 35.9826 97.7192 34.6123 100.096 35.0951C100.948 35.2655 101.822 34.6052 102.774 34.6194C105.273 34.6691 106.805 36.4867 105.996 38.7871C104.843 42.0531 101.378 45.9013 96.2585 44.5168C95.2203 44.2328 94.2322 43.8494 93.7454 42.7986C93.4017 42.0531 92.9792 42.2022 92.4494 42.5572C91.1821 43.4163 89.7859 43.963 88.2537 44.1618C86.4995 44.389 85.5973 43.5299 85.8765 41.8117C86.0699 40.626 86.4135 39.4687 86.6999 38.2617L86.7071 38.2475ZM97.7693 42.7631C99.5378 42.7631 102.244 40.5053 102.982 38.4108C103.426 37.147 103.032 36.6216 101.664 36.6571C99.4591 36.7068 96.7597 39.2557 96.5736 41.4851C96.502 42.33 96.9172 42.756 97.7693 42.7631Z" fill="#4D4040"/>
</g>
</svg>
