<svg width="180" height="71" viewBox="0 0 180 71" fill="none" xmlns="http://www.w3.org/2000/svg">
<g id="Logos">
<path id="Vector" d="M20.6991 22.9685C23.7277 22.9614 26.7564 22.9685 29.7851 22.933C30.6371 22.9188 31.2672 23.2099 31.8543 23.7992C33.5226 25.489 35.2195 27.1433 36.9093 28.8118C38.7136 30.5868 38.3914 30.601 40.1599 28.8615C41.8855 27.1646 43.6111 25.4748 45.3151 23.7566C45.8665 23.2028 46.4607 22.9259 47.2555 22.933C49.8689 22.9614 52.4895 22.9685 55.1029 22.933C56.0981 22.9188 56.5134 23.2738 56.5062 24.2749C56.4919 35.1166 56.5062 45.9583 56.4919 56.8071C56.4919 57.155 56.6136 57.6165 56.227 57.8011C55.7401 58.0283 55.5038 57.5242 55.2389 57.2615C50.2341 52.327 45.2507 47.3712 40.2315 42.458C39.5012 41.7409 39.5012 41.2439 40.2459 40.5623C41.4201 39.4831 42.5442 38.3471 43.6612 37.204C44.2698 36.5792 44.7925 36.5508 45.3867 37.204C46.4249 38.34 47.4775 39.4618 48.5228 40.5836L48.9095 40.328V30.7501C48.3009 30.6862 48.0789 31.2258 47.7567 31.5453C45.1505 34.1013 42.5657 36.6786 39.9595 39.2417C38.2912 40.8818 38.642 40.8747 36.9379 39.192C34.4677 36.7567 32.0119 34.3143 29.5417 31.8719C29.198 31.5311 28.8328 31.2116 28.2385 30.672V40.5055C29.5202 39.5754 30.5369 38.4252 31.5751 37.3247C32.241 36.6218 32.7135 36.6005 33.3723 37.2821C34.5107 38.4678 35.6921 39.6109 36.8735 40.7469C37.3962 41.2439 37.4964 41.677 36.9308 42.2308C31.5894 47.4706 26.2624 52.7246 20.9282 57.9786C20.8637 58.0425 20.7707 58.0709 20.6919 58.1206V22.9685H20.6991Z" fill="#FAFAFA"/>
<path id="Vector_2" d="M158.701 39.3056C157.519 40.3635 156.36 41.4498 155.149 42.4722C153.603 43.7786 151.906 44.8436 149.894 45.3335C147.123 46.0009 145.591 45.085 145.226 42.3231C145.047 40.967 144.725 41.18 143.901 41.8474C142.555 42.9408 141.152 43.9703 139.476 44.5525C137.149 45.3619 135.739 44.73 135.008 42.4367C134.758 41.6557 134.536 41.6983 134.027 42.1456C133.24 42.8343 132.452 43.5301 131.636 44.1904C131.035 44.6803 130.44 45.2057 129.753 45.5465C128.45 46.1926 127.011 46.6115 125.708 45.6743C124.519 44.8152 124.863 43.4804 125.042 42.2734C125.128 41.6983 125.299 41.1303 125.435 40.5623C124.999 40.2783 124.705 40.6262 124.412 40.7682C122.07 41.9184 119.75 43.1183 117.402 44.2472C116.264 44.7939 115.533 45.6033 115.096 46.789C113.478 51.2194 111.903 55.6782 109.361 59.711C107.371 62.8634 104.958 65.5188 101.177 66.5696C100.891 66.6477 100.698 66.8181 100.576 67.0808H93.6881C93.416 66.4844 92.8002 66.4844 92.2918 66.3424C90.9386 65.9732 89.7429 65.32 88.6975 64.397C86.9362 62.8492 86.8216 61.1807 88.3324 59.3844C89.7572 57.6946 91.4756 56.3243 93.3372 55.1528C99.0724 51.5531 104.908 48.1238 111.001 45.1347C112.526 44.3821 112.626 44.2756 113.027 43.026C112.139 43.0615 111.445 43.5443 110.686 43.7857C107.886 44.6732 106.118 43.3313 106.304 40.4558C106.619 35.6775 111.531 31.7938 116.328 32.5606C117.166 32.6955 117.96 32.731 118.762 32.447C119.299 32.2553 119.844 32.163 120.287 32.6529C120.76 33.1783 120.638 33.7392 120.381 34.3001C119.428 36.3662 118.476 38.4252 117.538 40.4984C117.38 40.8534 116.994 41.2652 117.323 41.6202C117.66 41.9894 118.104 41.6486 118.462 41.4853C121.011 40.3493 123.552 39.192 126.101 38.0489C126.61 37.8217 126.817 37.3744 127.032 36.92C127.44 36.0538 127.848 35.1947 128.271 34.3427C128.572 33.7392 129.03 33.4623 129.731 33.6895C130.39 33.9025 130.684 34.3356 130.677 35.0172C130.677 35.5355 130.476 35.9899 130.29 36.4514C129.524 38.3471 128.751 40.2428 128.02 42.1456C127.87 42.5361 127.541 43.0828 127.992 43.4023C128.436 43.7218 128.865 43.2603 129.202 42.9976C131.965 40.8534 134.199 38.2051 136.498 35.6136C136.899 35.1663 137.278 34.7261 137.837 34.4705C138.417 34.2007 139.004 34.1794 139.541 34.5344C140.142 34.932 140.113 35.5497 139.942 36.1319C139.426 37.8288 138.868 39.5044 138.345 41.1942C138.245 41.5208 137.98 41.8971 138.345 42.2024C138.681 42.4793 139.061 42.2876 139.383 42.1314C141.639 41.0735 143.622 39.6038 145.598 38.1199C146.02 37.8004 146.085 37.2608 146.257 36.7922C149.099 29.0248 152.772 21.5911 155.851 13.9231C156.002 13.5539 156.281 13.2273 156.503 12.8865C157.973 12.8865 158.708 13.613 158.708 15.0662C158.114 15.3005 158.006 15.8827 157.806 16.3726C155.465 22.0384 153.08 27.6829 150.832 33.3842C149.837 35.9118 148.77 38.4394 148.269 41.1303C147.975 42.6923 148.77 43.3952 150.309 42.9763C150.961 42.7988 151.577 42.4651 152.2 42.174C153.882 41.393 155.221 40.1363 156.603 38.9435C157.219 38.411 157.849 38.0134 158.708 38.2264V39.3127L158.701 39.3056ZM97.7191 64.5674C100.805 64.7946 103.146 63.3533 104.994 61.0174C107.901 57.3254 109.848 53.1435 111.28 48.706C111.416 48.2942 111.738 47.7972 111.294 47.4422C110.815 47.0588 110.328 47.4635 109.913 47.7049C105.796 50.0834 101.571 52.2631 97.5545 54.812C95.3993 56.1823 93.1582 57.4461 91.4398 59.3915C90.2799 60.705 90.4016 61.9404 91.8193 62.9699C93.5663 64.2408 95.564 64.5958 97.7263 64.5674H97.7191ZM109.204 40.6049C109.218 41.6699 109.92 42.0533 111.008 41.4569C112.884 40.4274 114.345 38.9435 115.347 37.0478C115.562 36.6431 115.705 36.2171 115.676 35.7485C115.619 34.7758 115.118 34.3569 114.13 34.5699C112.032 35.0243 109.168 38.5388 109.204 40.6049Z" fill="#FAFAFA"/>
<path id="Vector_3" d="M86.7071 38.2477C85.9553 38.1554 85.5901 38.6311 85.1748 38.9364C83.3347 40.2854 81.4516 41.5847 79.7762 43.1396C79.0674 43.7999 78.2654 44.3324 77.2201 44.2969C76.0029 44.2543 75.5232 43.5585 76.096 42.4935C76.6902 41.3859 77.4134 40.3422 78.0793 39.2701C77.621 38.8938 77.4062 39.2701 77.1914 39.4192C75.158 40.896 73.146 42.3941 71.1269 43.8851C70.905 44.0484 70.7188 44.2543 70.4825 44.3963C69.7379 44.8436 68.9288 45.4684 68.0983 44.7868C67.2749 44.1052 67.8691 43.2816 68.2128 42.5645C69.3512 40.186 70.5183 37.8217 71.6783 35.4574C71.9145 34.9675 72.1365 34.4634 72.6019 34.1226C73.0959 33.7676 73.6115 33.7179 74.1341 34.0516C74.6497 34.3782 74.6926 34.8539 74.4993 35.3651C74.0625 36.5508 73.6186 37.7365 73.146 39.0074C73.8692 39.1707 74.263 38.7305 74.6783 38.4465C76.1676 37.4596 77.6425 36.4585 79.318 35.8053C80.17 35.4716 81.0722 35.1095 81.9242 35.7769C82.812 36.4656 82.0817 37.2679 81.9528 38.3045C83.5853 37.3531 85.046 36.4869 86.5209 35.642C87.3085 35.1876 88.089 34.6906 89.0413 34.6338C90.3157 34.5557 90.8241 35.1095 90.595 36.3662C90.3587 37.6726 89.7286 38.8512 89.299 40.0866C89.163 40.47 88.941 40.896 89.299 41.2368C89.7 41.6202 90.1868 41.4285 90.5663 41.18C92.206 40.115 93.9387 39.1991 95.163 37.5732C96.3588 35.9828 97.7192 34.6125 100.096 35.0953C100.948 35.2657 101.822 34.6054 102.774 34.6196C105.273 34.6693 106.805 36.4869 105.996 38.7873C104.843 42.0533 101.378 45.9015 96.2585 44.517C95.2203 44.233 94.2322 43.8496 93.7454 42.7988C93.4017 42.0533 92.9792 42.2024 92.4494 42.5574C91.1821 43.4165 89.7859 43.9632 88.2537 44.162C86.4995 44.3892 85.5973 43.5301 85.8765 41.8119C86.0699 40.6262 86.4135 39.4689 86.6999 38.2619L86.7071 38.2477ZM97.7693 42.7633C99.5378 42.7633 102.244 40.5055 102.982 38.411C103.426 37.1472 103.032 36.6218 101.664 36.6573C99.4591 36.707 96.7597 39.2559 96.5736 41.4853C96.502 42.3302 96.9172 42.7562 97.7693 42.7633Z" fill="#FAFAFA"/>
</g>
</svg>
