<svg width="180" height="71" viewBox="0 0 180 71" fill="none" xmlns="http://www.w3.org/2000/svg">
<g id="Logos">
<path id="Vector" d="M12.5076 40.0584C12.4574 35.0245 16.7176 30.7503 21.9588 30.8142C26.7202 30.871 31.2166 34.5559 31.2095 40.101C31.2095 45.3905 27.0495 49.3807 21.8299 49.3736C16.3238 49.3665 12.436 44.9219 12.5076 40.0584Z" fill="#4D4040"/>
<path id="Vector_2" d="M63.4438 47.563H59.5989V35.0883L59.4915 35.0457C59.3769 35.1948 59.2624 35.3439 59.155 35.5001C57.5798 37.8786 55.9974 40.2571 54.4365 42.6498C54.236 42.9551 54.0284 43.0616 53.6776 43.0403C53.0475 43.0048 52.31 43.2107 51.8231 42.948C51.3291 42.6853 51.0856 41.9753 50.7348 41.4499C49.403 39.4406 48.0713 37.4242 46.7467 35.4149C46.6536 35.2658 46.539 35.1309 46.3529 34.8753V47.5559H42.5223V28.8048C43.7681 28.8048 45.0068 28.7906 46.2383 28.8261C46.3815 28.8261 46.539 29.0604 46.6464 29.2166C48.6512 32.2412 50.6489 35.2729 52.6465 38.2975C52.7396 38.4324 52.8327 38.5673 52.9687 38.7519C53.248 38.3401 53.4986 37.9638 53.7563 37.5875C55.6179 34.7759 57.4795 31.9643 59.3483 29.1598C59.4557 29.0036 59.6705 28.819 59.8423 28.819C61.0237 28.7906 62.2123 28.8048 63.4438 28.8048V47.5772V47.563Z" fill="#4D4040"/>
<path id="Vector_3" d="M117.903 28.7339C121.146 28.7907 124.34 28.7197 127.511 28.954C129.86 29.1315 131.8 30.2817 132.531 32.6815C133.232 35.0032 133.032 37.2539 131.163 39.0644C130.103 40.0939 128.75 40.5838 127.297 40.6903C125.707 40.8039 124.11 40.7826 122.521 40.8181C122.285 40.8181 122.041 40.8181 121.741 40.8181V47.5489H117.903V28.7339ZM121.755 37.5734C121.841 37.5947 121.891 37.616 121.941 37.616C123.165 37.616 124.383 37.6302 125.607 37.616C126.008 37.616 126.416 37.545 126.81 37.4527C128.206 37.1048 128.85 36.1818 128.815 34.634C128.786 33.2921 128.041 32.291 126.695 32.1419C125.07 31.9644 123.423 31.9928 121.748 31.9289V37.5734H121.755Z" fill="#4D4040"/>
<path id="Vector_4" d="M145.412 35.72V34.2645H149.142V47.5486H145.404V46.1925C142.648 48.997 137.471 48.2941 135.273 45.6884C132.867 42.8413 133.061 38.2405 135.738 35.7129C138.273 33.3131 143.056 33.2421 145.404 35.7271L145.412 35.72ZM145.648 40.9172C145.648 38.6239 143.937 36.9838 141.559 36.998C139.168 37.0122 137.485 38.6452 137.485 40.9456C137.485 43.1963 139.175 44.8364 141.531 44.879C143.901 44.9216 145.648 43.2389 145.648 40.9172Z" fill="#4D4040"/>
<path id="Vector_5" d="M91.2962 33.6968C93.7449 33.853 95.9072 34.5488 97.5254 36.409C100.382 39.675 99.523 44.7515 95.7139 46.8531C92.764 48.479 89.6923 48.4577 86.7567 46.8176C84.2149 45.3905 83.1624 43.0546 83.4202 40.2217C83.6923 37.2823 85.3677 35.3156 88.1601 34.35C89.1553 34.0092 90.2437 33.9098 91.289 33.7039L91.2962 33.6968ZM91.2819 44.8225C93.7234 44.8154 95.4418 43.1682 95.406 40.8749C95.3702 38.5745 93.6661 36.9628 91.2819 36.9557C88.8761 36.9557 87.1649 38.61 87.172 40.9246C87.1792 43.2321 88.8689 44.8296 91.2819 44.8154V44.8225Z" fill="#4D4040"/>
<path id="Vector_6" d="M65.7637 40.9172C65.7637 37.3956 68.1766 34.5982 71.7709 33.9947C73.9834 33.6255 76.1314 33.7959 78.1075 34.9603C80.5061 36.3732 81.6446 38.4961 81.5228 41.2509C81.4011 43.956 80.0694 45.944 77.635 47.0942C74.7996 48.4361 71.9213 48.3367 69.1503 46.8457C66.9952 45.6884 65.7637 43.4519 65.7637 40.9172ZM73.6253 44.8222C76.0955 44.8222 77.7352 43.246 77.7352 40.8888C77.7352 38.5813 76.0597 36.9696 73.654 36.9554C71.2267 36.9412 69.5513 38.56 69.5513 40.9101C69.5513 43.2531 71.1909 44.8222 73.6253 44.8151V44.8222Z" fill="#4D4040"/>
<path id="Vector_7" d="M101.449 47.5486V34.229C102.63 34.229 103.79 34.229 104.95 34.2432C105.029 34.2432 105.151 34.4704 105.165 34.5982C105.194 34.9177 105.172 35.2372 105.172 35.7129C106.203 34.584 107.385 34.0799 108.724 33.9237C111.137 33.6397 113.478 34.3071 114.516 36.4584C114.896 37.2465 115.153 38.1695 115.182 39.0428C115.268 41.7621 115.211 44.4885 115.211 47.2078C115.211 47.3143 115.189 47.4208 115.182 47.5557H111.516C111.516 47.3498 111.516 47.1368 111.516 46.9238C111.495 44.5524 111.516 42.181 111.43 39.8096C111.387 38.5955 110.829 37.5873 109.583 37.1826C108.294 36.7566 107.041 36.8347 106.024 37.85C105.358 38.5103 105.179 39.3765 105.179 40.2853C105.179 42.4934 105.179 44.7015 105.179 46.9096V47.5486H101.449Z" fill="#4D4040"/>
<path id="Vector_8" d="M154.29 52.5188C154.634 51.8159 154.941 51.1769 155.257 50.5379C155.686 49.6646 156.109 48.7842 156.56 47.9251C156.717 47.6198 156.71 47.3713 156.567 47.0589C154.762 42.9764 152.98 38.8939 151.19 34.8043C151.118 34.641 151.054 34.4706 150.953 34.2292C152.228 34.2292 153.445 34.215 154.655 34.2505C154.798 34.2505 154.992 34.499 155.063 34.6765C156.223 37.4171 157.369 40.1577 158.514 42.8983C158.607 43.1184 158.7 43.3385 158.822 43.6438C158.965 43.3882 159.08 43.1965 159.18 42.9977C160.498 40.2713 161.822 37.5449 163.118 34.8043C163.319 34.3854 163.533 34.1937 164.028 34.215C165.073 34.2576 166.125 34.2292 167.292 34.2292C166.892 35.0528 166.541 35.7912 166.176 36.5225C163.605 41.7055 161.027 46.8885 158.464 52.0786C158.307 52.3981 158.135 52.5401 157.755 52.533C156.631 52.5046 155.5 52.5259 154.283 52.5259L154.29 52.5188Z" fill="#4D4040"/>
<path id="Vector_9" d="M33.7155 32.0922C31.5675 32.0993 29.8777 30.4592 29.8777 28.3576C29.8777 26.2702 31.5317 24.6159 33.6439 24.6017C35.8205 24.5875 37.4817 26.1921 37.4888 28.3079C37.496 30.4521 35.8707 32.0851 33.7227 32.0922H33.7155Z" fill="#4D4040"/>
</g>
</svg>
