<svg width="179" height="71" viewBox="0 0 179 71" fill="none" xmlns="http://www.w3.org/2000/svg">
<g id="Logos">
<g id="Group">
<g id="Group_2">
<g id="Group_3">
<path id="Vector" d="M62.2706 31.7014H65.0558V46.3558H63.3302V46.3771L55.5688 36.4868V46.3558H52.7836V31.7227H55.039L62.2706 40.7965V31.6943V31.7014Z" fill="#4D4040"/>
<path id="Vector_2" d="M67.6048 46.3559V31.7441H78.2088V34.3995H70.3829V38.3897H77.7863V40.9386H70.3829V46.3559H67.5977H67.6048Z" fill="#4D4040"/>
<path id="Vector_3" d="M84.6026 34.229H79.9199V31.7227H92.0633V34.229H87.3806V46.3558H84.5954V34.229H84.6026Z" fill="#4D4040"/>
<path id="Vector_4" d="M100.856 37.7648L104.78 31.7227H108.13V31.8434L102.245 40.3137V46.3558H99.4597V40.3137L93.7889 31.8434V31.7227H97.104L100.856 37.7648Z" fill="#4D4040"/>
<path id="Vector_5" d="M116.4 31.7227V43.8069H123.99V46.3558H113.615V31.7227H116.4Z" fill="#4D4040"/>
<path id="Vector_6" d="M137.272 43.5939H129.553L128.286 46.3558H125.271L131.894 31.7227H134.93L141.553 46.3558H138.517L137.272 43.5939ZM133.412 34.7899L130.67 41.0237H136.155L133.412 34.7899Z" fill="#4D4040"/>
<path id="Vector_7" d="M155.422 35.9687C155.422 37.0976 154.871 38.1839 153.503 38.7945C155.229 39.3199 155.866 41.1375 155.866 42.0534C155.866 45.3123 153.403 46.3631 150.346 46.3631H143.343V31.73H150.346C153.26 31.73 155.429 33.0222 155.429 35.9758L155.422 35.9687ZM146.086 37.6017H150.346C152.093 37.6017 152.666 36.8704 152.666 36.0326C152.666 35.3652 152.114 34.2363 150.346 34.2363H146.086V37.6017ZM146.086 43.7858H150.346C151.484 43.7858 153.11 43.4095 153.11 42.0321C153.11 40.6547 151.484 40.0228 150.346 40.0228H146.086V43.7858Z" fill="#4D4040"/>
<path id="Vector_8" d="M167.379 35.2516C166.871 34.4138 165.482 33.6186 163.878 33.6186C161.816 33.6186 160.821 34.4777 160.821 35.564C160.821 36.842 162.339 37.197 164.107 37.4029C167.186 37.7792 170.057 38.5744 170.057 42.0605C170.057 45.3194 167.143 46.7252 163.857 46.7252C160.842 46.7252 158.522 45.8093 157.427 43.1255L159.747 41.9327C160.398 43.5444 162.11 44.2544 163.9 44.2544C165.69 44.2544 167.293 43.6509 167.293 42.0605C167.293 40.6831 165.84 40.1151 163.878 39.9021C160.864 39.5471 158.079 38.7519 158.079 35.4717C158.079 32.4613 161.071 31.2259 163.792 31.2046C166.091 31.2046 168.475 31.8507 169.592 34.1085L167.387 35.2445L167.379 35.2516Z" fill="#4D4040"/>
</g>
<g id="Group_4">
<path id="Vector_9" d="M62.2706 31.7014H65.0558V46.3558H63.3302V46.3771L55.5688 36.4868V46.3558H52.7836V31.7227H55.039L62.2706 40.7965V31.6943V31.7014Z" fill="#4D4040"/>
<path id="Vector_10" d="M67.6048 46.3559V31.7441H78.2088V34.3995H70.3829V38.3897H77.7863V40.9386H70.3829V46.3559H67.5977H67.6048Z" fill="#4D4040"/>
<path id="Vector_11" d="M84.6026 34.229H79.9199V31.7227H92.0633V34.229H87.3806V46.3558H84.5954V34.229H84.6026Z" fill="#4D4040"/>
<path id="Vector_12" d="M100.856 37.7648L104.78 31.7227H108.13V31.8434L102.245 40.3137V46.3558H99.4597V40.3137L93.7889 31.8434V31.7227H97.104L100.856 37.7648Z" fill="#4D4040"/>
<path id="Vector_13" d="M116.4 31.7227V43.8069H123.99V46.3558H113.615V31.7227H116.4Z" fill="#4D4040"/>
<path id="Vector_14" d="M137.272 43.5939H129.553L128.286 46.3558H125.271L131.894 31.7227H134.93L141.553 46.3558H138.517L137.272 43.5939ZM133.412 34.7899L130.67 41.0237H136.155L133.412 34.7899Z" fill="#4D4040"/>
<path id="Vector_15" d="M155.422 35.9687C155.422 37.0976 154.871 38.1839 153.503 38.7945C155.229 39.3199 155.866 41.1375 155.866 42.0534C155.866 45.3123 153.403 46.3631 150.346 46.3631H143.343V31.73H150.346C153.26 31.73 155.429 33.0222 155.429 35.9758L155.422 35.9687ZM146.086 37.6017H150.346C152.093 37.6017 152.666 36.8704 152.666 36.0326C152.666 35.3652 152.114 34.2363 150.346 34.2363H146.086V37.6017ZM146.086 43.7858H150.346C151.484 43.7858 153.11 43.4095 153.11 42.0321C153.11 40.6547 151.484 40.0228 150.346 40.0228H146.086V43.7858Z" fill="#4D4040"/>
<path id="Vector_16" d="M167.379 35.2516C166.871 34.4138 165.482 33.6186 163.878 33.6186C161.816 33.6186 160.821 34.4777 160.821 35.564C160.821 36.842 162.339 37.197 164.107 37.4029C167.186 37.7792 170.057 38.5744 170.057 42.0605C170.057 45.3194 167.143 46.7252 163.857 46.7252C160.842 46.7252 158.522 45.8093 157.427 43.1255L159.747 41.9327C160.398 43.5444 162.11 44.2544 163.9 44.2544C165.69 44.2544 167.293 43.6509 167.293 42.0605C167.293 40.6831 165.84 40.1151 163.878 39.9021C160.864 39.5471 158.079 38.7519 158.079 35.4717C158.079 32.4613 161.071 31.2259 163.792 31.2046C166.091 31.2046 168.475 31.8507 169.592 34.1085L167.387 35.2445L167.379 35.2516Z" fill="#4D4040"/>
</g>
</g>
</g>
<g id="Group_5">
<path id="Vector_17" d="M39.6234 29.3229C39.1151 28.6413 38.5638 28.0023 37.9552 27.4059L35.0912 31.0979C34.6974 31.602 33.9384 31.602 33.5446 31.0979L27.1364 22.7696C26.9288 22.7625 26.7283 22.7554 26.5206 22.7554C25.776 22.7554 25.0385 22.8051 24.3225 22.9045L32.0195 32.9155C32.5136 33.5474 32.5064 34.4278 32.0195 35.0597C31.6687 35.5141 31.146 35.7413 30.6233 35.7413C30.1006 35.7413 29.5708 35.5141 29.2128 35.0597L20.5349 23.8914C19.7401 24.2038 18.974 24.573 18.2437 25.0061L24.0504 32.4895C24.5946 33.1853 24.5731 34.1651 24.0146 34.8396C23.9932 34.868 23.9645 34.8964 23.943 34.9177C23.5636 35.4076 22.9979 35.6561 22.4323 35.6561C21.8666 35.6561 21.301 35.4076 20.9215 34.9177L15.0933 27.413C14.4847 28.0094 13.9262 28.6484 13.4178 29.33L20.8571 38.8937L13.4178 48.4645C13.9262 49.1461 14.4847 49.7851 15.0861 50.3744L18.0289 46.583C18.4227 46.086 19.1816 46.086 19.5683 46.583L26.0839 55.0178C26.2271 55.0178 26.3703 55.0178 26.5206 55.0178C27.3226 55.0178 28.1173 54.961 28.8834 54.8474L21.0647 44.737C20.5922 44.1193 20.5993 43.2744 21.0647 42.6638C21.4084 42.2236 21.9239 42.0035 22.4251 42.0035C22.9263 42.0035 23.4418 42.2236 23.7784 42.6638L23.9359 42.8626L32.5136 53.8818C33.3155 53.5694 34.0744 53.1931 34.8048 52.76L28.9908 45.2837C28.4467 44.5808 28.461 43.6081 29.0266 42.9336C29.0481 42.9052 29.0696 42.8768 29.0911 42.8484C29.4706 42.3514 30.0362 42.11 30.609 42.11C31.1818 42.11 31.7331 42.3514 32.1126 42.8484L37.948 50.3531C38.5566 49.7638 39.1151 49.1248 39.6163 48.4432L32.1842 38.8724L39.6163 29.3016L39.6234 29.3229ZM28.3894 39.7173L27.1149 41.3645C26.9144 41.613 26.6567 41.6485 26.5206 41.6485C26.3846 41.6485 26.1268 41.6059 25.9264 41.3645L24.6519 39.7173C24.2724 39.2345 24.2724 38.5529 24.6519 38.0701L25.9264 36.43C26.1268 36.1744 26.3846 36.146 26.5206 36.146C26.6567 36.146 26.9216 36.1815 27.1149 36.43L28.3894 38.0701C28.7689 38.5529 28.7689 39.2345 28.3894 39.7173Z" fill="#4D4040"/>
<path id="Vector_18" d="M40.5471 28.5632C40.5113 28.5064 40.4683 28.4496 40.4254 28.3999C39.9242 27.7538 39.3729 27.1432 38.7786 26.5681L38.7356 26.5255C35.6497 23.5577 31.4611 21.7046 26.8429 21.6265C26.8071 21.6265 26.7641 21.6265 26.714 21.6265H26.5135C25.6328 21.6265 24.7665 21.6904 23.9287 21.8182C23.7426 21.8395 23.5493 21.875 23.3559 21.9105C22.2032 22.1164 21.0934 22.4359 20.0409 22.8548C20.0194 22.8619 19.9979 22.869 19.9764 22.8761C19.1387 23.2098 18.3296 23.6003 17.5707 24.0547C17.5206 24.076 17.4776 24.1115 17.4203 24.1399C16.289 24.8215 15.2437 25.6167 14.2986 26.5255L14.2556 26.5681C13.6613 27.1361 13.11 27.7467 12.6088 28.3999C12.5658 28.4567 12.5229 28.5135 12.4871 28.5632C10.2603 31.4813 8.94287 35.1023 8.94287 39.0428C8.94287 42.9833 10.2317 46.5404 12.4226 49.4372C12.4799 49.5224 12.5444 49.6076 12.6088 49.6928C13.0885 50.3034 13.6112 50.8998 14.1768 51.4465C14.2126 51.4891 14.2556 51.5246 14.2914 51.5601C17.4489 54.5918 21.7521 56.452 26.4849 56.4662H26.5207C27.4944 56.4662 28.4539 56.3881 29.3918 56.2248C29.5422 56.2035 29.6854 56.1822 29.8357 56.1467C30.9527 55.9408 32.0339 55.6213 33.0649 55.2095C33.1007 55.1953 33.1365 55.1882 33.1652 55.174C34.0029 54.8403 34.8048 54.4356 35.5709 53.9741C35.5852 53.967 35.6067 53.9528 35.621 53.9457C36.7523 53.2641 37.7977 52.4547 38.7499 51.5601C38.7857 51.5246 38.8287 51.482 38.8645 51.4465C39.423 50.8927 39.9528 50.3034 40.4326 49.6928C40.497 49.6147 40.5614 49.5295 40.6187 49.4372C42.8025 46.5333 44.0985 42.9407 44.0985 39.0357C44.0985 35.1023 42.781 31.4671 40.5543 28.5561L40.5471 28.5632ZM37.6115 50.1188L37.5972 50.133L37.5757 50.1614L37.5542 50.1827L37.5113 50.2253C36.6449 51.0489 35.6998 51.7731 34.6974 52.3766H34.6831C34.6831 52.3766 34.6544 52.3979 34.6401 52.4121C33.9671 52.8168 33.2439 53.1789 32.4921 53.4771L32.4563 53.4913C32.4563 53.4913 32.4133 53.5055 32.3919 53.5197C31.4539 53.896 30.4802 54.18 29.5064 54.3575H29.4849C29.3703 54.3859 29.2486 54.4072 29.1269 54.4214H29.0983C28.2534 54.5705 27.387 54.6415 26.5207 54.6415H26.492C22.375 54.6344 18.4872 53.0653 15.5516 50.2466L15.4943 50.1898H15.48L15.4585 50.1543L15.437 50.133C14.9215 49.6289 14.4561 49.1035 14.0265 48.5568V48.5355C13.9692 48.4787 13.9262 48.4148 13.8761 48.3438V48.3225C11.8212 45.6032 10.7472 42.3727 10.7472 38.9789C10.7472 35.5851 11.8498 32.2836 13.9334 29.5643L13.9549 29.5359L13.9764 29.5004C13.9764 29.5004 13.9978 29.472 14.0122 29.4507L14.048 29.401C14.499 28.8188 14.9931 28.265 15.5372 27.7538L15.5659 27.7254C16.4251 26.9018 17.363 26.1847 18.3654 25.5812L18.4156 25.5528C18.4156 25.5528 18.437 25.5386 18.4442 25.5386L18.48 25.5244L18.5086 25.5031C19.1817 25.1055 19.9048 24.7505 20.671 24.4452C20.6924 24.4452 20.7211 24.431 20.7497 24.4168C21.6948 24.0405 22.6972 23.7636 23.7211 23.5719C23.8786 23.5435 24.0433 23.5151 24.2295 23.4938C24.9956 23.3802 25.776 23.3234 26.5565 23.3234H26.8572C30.8668 23.3944 34.6616 24.9564 37.5327 27.7183L37.5471 27.7325L37.5757 27.7609C38.1055 28.2721 38.6068 28.8188 39.0507 29.401L39.0865 29.4507C39.0865 29.4507 39.1079 29.4791 39.1151 29.4933L39.1366 29.5288L39.1581 29.5572C41.2416 32.2836 42.3443 35.5354 42.3443 38.9718C42.3443 42.4082 41.2631 45.6032 39.2225 48.3154V48.3367C39.1652 48.4006 39.1223 48.4645 39.0722 48.5284V48.5497C38.6426 49.0964 38.17 49.6289 37.6545 50.1259L37.6115 50.1188Z" fill="#4D4040"/>
</g>
</g>
</svg>
