<?xml version="1.0" encoding="utf-8"?>
<!-- Generator: Adobe Illustrator 27.6.1, SVG Export Plug-In . SVG Version: 6.00 Build 0)  -->
<svg version="1.1" id="Layer_1" xmlns="http://www.w3.org/2000/svg" xmlns:xlink="http://www.w3.org/1999/xlink" x="0px" y="0px"
	 viewBox="0 0 250 100" style="enable-background:new 0 0 250 100;" xml:space="preserve">
<style type="text/css">
	.st0{fill:#4D4040;}
</style>
<path class="st0" d="M205.9,61c3.9,0,7.9,0,11.8,0c0.2,0,0.4,0.1,0.4,0.3c0,1.3,0,2.6,0,3.9c0,0.5-0.1,0.5-0.6,0.5
	c-7.6,0-15.1,0-22.7,0c-0.2,0-0.4,0-0.6,0c-0.4,0-0.5,0.1-0.5,0.5c0,1.6,1.1,2.7,2.8,2.7c7.3,0,14.7,0,22,0c0.7,0,0.7,0,0.7,0.7
	c0,1,0,2.1,0,3.1c0,0.4-0.1,0.5-0.5,0.5c-7.5,0-14.9,0-22.4,0c-3.1,0-5.8-1.9-6.9-4.9c-0.2-0.6-0.3-1.3-0.3-2c0-2.1,0-4.3,0-6.4
	c0.1-3,2.2-5.6,5.1-6.5c0.7-0.2,1.4-0.3,2.2-0.3c2.5,0,5-0.1,7.5,0c4.9,0.1,9.8,0,14.7,0c0.6,0,0.6,0,0.6,0.6c0,1.1,0,2.2,0,3.2
	c0,0.3-0.1,0.5-0.5,0.5c-7.3,0-14.7,0-22,0c-0.7,0-1.4,0.1-1.9,0.5c-0.8,0.6-1.3,1.8-1.1,2.8c0,0.1,0.1,0.2,0.2,0.2
	c0.1,0,0.2,0,0.3,0C198,61,201.9,61,205.9,61L205.9,61L205.9,61z"/>
<path class="st0" d="M173.8,53.3c3.8,0,7.6,0,11.4,0c0.3,0,0.4,0.1,0.4,0.4c0,1.2,0.1,2.3,0,3.5c0,0.4-0.2,0.5-0.5,0.5
	c-2,0-4,0-5.9,0c-4.3,0-8.7,0-13,0c-1.2,0-2.5,0-3.7,0.1c-1.5,0-2.6,1.1-2.6,2.6c0,2.1,0,4.2,0,6.3c0,1.6,1.1,2.6,2.8,2.6
	c5,0,10,0,15,0c0.2,0,0.4,0,0.5,0c0.5,0.1,0.7-0.1,1-0.4c0.6-0.8,1.2-1.5,1.8-2.3c0.1-0.1,0.3-0.2,0.2-0.4c-0.1-0.2-0.3-0.1-0.4-0.1
	c-5.8,0-11.7,0-17.5,0c-0.8,0-0.7,0-0.7-0.7c0-1.1,0-2.1,0-3.2c0-0.5,0-0.5,0.5-0.5c4.8,0,9.6,0.1,14.3,0.1c2.2,0,4.5,0,6.7,0
	c1.6,0,2.8,0.9,3.1,2.5c0.2,0.8,0,1.5-0.5,2.1c-0.8,1.1-1.7,2.1-2.5,3.2c-0.9,1.1-1.8,2.3-2.8,3.4c-0.1,0.2-0.3,0.3-0.5,0.3
	s-0.4,0-0.6,0c-6,0-12-0.1-18,0c-3,0.1-6.3-2.5-6.8-5.6c-0.1-0.4-0.1-0.8-0.1-1.2c0-2,0-3.9,0-5.9c0-2.4,1.1-4.3,3-5.7
	c1.4-1,2.9-1.5,4.6-1.5C166.5,53.3,170.2,53.3,173.8,53.3L173.8,53.3z"/>
<path class="st0" d="M33.3,53.4c0.7,0,1.3,0,2,0c0.4,0,0.6,0.1,0.8,0.5c1.9,3.2,3.8,6.3,5.6,9.5c0.9,1.6,1.9,3.2,2.9,4.8
	c0.3,0.5,0.5,0.9,1.1,1.1c0.8,0.2,1.3,0,1.7-0.6c0.5-0.7,0.9-1.4,1.3-2.2c2.3-3.8,4.6-7.6,6.8-11.5c0.2-0.4,0.5-0.8,0.7-1.2
	c0.1-0.2,0.3-0.3,0.5-0.3c1.5-0.1,3-0.1,4.4,0c0.3,0,0.2,0.2,0.1,0.4c-1,1.7-2,3.4-3.1,5.1c-2.3,3.8-4.6,7.7-6.9,11.6
	c-0.7,1.2-1.7,2.1-3,2.6c-0.3,0.1-0.5,0.1-0.8,0.2c-1,0.1-1.9,0.1-2.9,0C43,73,41.8,72,41,70.6c-2.6-4.3-5.1-8.6-7.7-12.8
	c-0.8-1.3-1.5-2.7-2.4-4c-0.2-0.2-0.1-0.3,0.2-0.3C31.8,53.4,32.6,53.4,33.3,53.4L33.3,53.4L33.3,53.4z"/>
<path class="st0" d="M152.6,73.2c-0.8,0-1.6,0-2.4,0c-0.2,0-0.3-0.1-0.4-0.2c-1.1-1.9-2.2-3.7-3.3-5.6c-1.7-2.9-3.4-5.8-5.1-8.7
	c-0.2-0.3-0.4-0.6-0.7-0.8c-0.7-0.5-1.8-0.2-2.2,0.5c-1.9,3.3-3.9,6.6-5.9,9.9c-0.9,1.5-1.9,3-2.7,4.6c-0.2,0.3-0.5,0.5-0.9,0.5
	c-1.4,0-2.7,0-4.1,0c-0.3,0-0.4-0.1-0.2-0.4c2.3-3.9,4.7-7.9,7.1-11.8c0.9-1.5,1.8-3,2.7-4.5c1.1-2,2.9-3.1,5.1-3.2
	c2-0.1,3.7,0.6,5,2.2c0.8,1.1,1.4,2.3,2.1,3.4c2.4,4,4.8,8.1,7.3,12.1c0.4,0.6,0.7,1.2,1.1,1.8c0.2,0.3-0.1,0.3-0.2,0.3
	c-0.6,0-1.2,0-1.8,0C152.8,73.2,152.7,73.2,152.6,73.2L152.6,73.2z"/>
<path class="st0" d="M86.6,73.2c-2.8,0-5.5,0-8.3,0c-2.1,0-3.7-0.9-5-2.4c-1.2-1.3-1.7-2.9-1.7-4.7c0-4.1,0-8.1,0-12.2
	c0-0.5,0-0.5,0.5-0.6c1.2-0.1,2.4,0,3.7,0c0.3,0,0.3,0.1,0.3,0.3c0,0.5,0,0.9,0,1.4c0,3.7,0,7.5,0,11.2c0,1.6,1.3,2.8,2.8,2.8
	c5.4,0,10.8,0,16.2,0c1,0,0.8,0,0.8,0.8c0,0.9,0,1.8,0,2.7c0,0.5-0.1,0.6-0.6,0.6C92.4,73.3,89.5,73.3,86.6,73.2L86.6,73.2z"/>
<path class="st0" d="M112.5,73.2c-2.8,0-5.6,0-8.4,0c-2,0-3.6-0.9-4.9-2.4c-1.2-1.3-1.6-2.8-1.6-4.6c0-3.9,0-7.9,0-11.8
	c0-0.2,0-0.4,0-0.7s0.1-0.4,0.3-0.4c1.3,0,2.6,0,3.9,0c0.3,0,0.3,0.2,0.3,0.3c0,0.6,0,1.1,0,1.7c0,3.7,0,7.5,0,11.2
	c0,1.2,1.2,2.5,2.4,2.5c1,0,1.9,0,2.9,0c4.6,0,9.3,0,13.9,0c0.6,0,0.6,0,0.6,0.6c0,1,0,2,0,3c0,0.5-0.1,0.5-0.6,0.5
	C118.4,73.2,115.5,73.2,112.5,73.2L112.5,73.2L112.5,73.2z"/>
<path class="st0" d="M87.1,33.1c0-0.3,0-0.6,0-0.8s0.1-0.3,0.3-0.3c0.9,0,1.9,0,2.8,0c0.3,0,0.4,0.1,0.3,0.4c0,0.8,0,1.5,0,2.2
	c0,3.4,0,6.8,0,10.2c0,0.5,0,1.1-0.2,1.6c-0.4,1.4-1.4,2.2-2.8,2.7c-0.6,0.2-1.2,0.3-1.8,0.3c-1.9,0-3.8,0-5.7,0
	c-0.4,0-0.5-0.1-0.5-0.5c0-0.6,0-1.1,0-1.7c0-0.5,0-0.5,0.5-0.5c1.6,0,3.3,0,4.9,0c1.3,0,2-0.7,2-2c0-0.3,0-0.6,0-0.9
	c0-0.1,0.1-0.3-0.1-0.3c-0.1-0.1-0.2,0.1-0.3,0.2c-0.7,0.5-1.4,0.8-2.2,1c-2.2,0.3-5.3-0.8-6.2-3.8c-0.7-2.3-0.6-4.6,0.9-6.7
	c0.9-1.3,2.2-1.9,3.7-2.1C84.5,31.6,85.8,32,87.1,33.1z M81.3,37.5c0,2.3,0.9,3.8,2.7,4c1.2,0.1,2.3-0.5,2.9-1.5
	c0.5-0.9,0.5-1.8,0.3-2.8c-0.4-2.5-2.9-3.1-4.5-2.1C81.7,35.8,81.3,36.9,81.3,37.5z"/>
<path class="st0" d="M35.2,33.2c0.4-0.3,0.8-0.6,1.1-0.8c2.4-1.3,6-0.4,7.2,2.3c1.2,2.6,1.2,5.1-0.4,7.6c-1.4,2.1-5,3.2-7.6,1.4
	c-0.1-0.1-0.2-0.2-0.3-0.2c-0.2,0.1-0.1,0.2-0.1,0.3c0,1.7,0,3.3,0,5c0,0.4-0.1,0.5-0.5,0.5c-0.9,0-1.7,0-2.6,0
	c-0.3,0-0.4-0.1-0.4-0.4c0-5.5,0-11,0-16.5c0-0.3,0.1-0.4,0.4-0.4c0.9,0,1.8,0,2.7,0c0.3,0,0.4,0.1,0.4,0.4
	C35.1,32.6,35.1,32.8,35.2,33.2L35.2,33.2z M40.9,38.2c0-0.4,0-0.8-0.1-1.2c-0.2-1-1-2.2-2.5-2.3c-1.3-0.1-2.4,0.4-3,1.5
	c-0.5,0.9-0.4,1.9-0.3,2.8c0.2,1.2,1,2.1,2.1,2.3c1.3,0.3,2.3,0,3.1-1.1C40.8,39.7,41,39,40.9,38.2L40.9,38.2z"/>
<path class="st0" d="M58.5,38c0,3.9-2.9,6.5-6.4,6.5c-3.9,0-6.7-2.7-6.6-6.4c0.1-3.7,2.6-6.3,6.6-6.3C55.7,31.8,58.5,34.4,58.5,38z
	 M55,38.1c0.1-0.6-0.1-1.2-0.4-1.8c-0.9-1.8-3.6-2-4.9-0.5c-0.9,1.1-0.9,3.2-0.2,4.5c1.2,1.8,3.8,1.5,4.7,0.3
	C54.8,39.8,55,39,55,38.1z"/>
<path class="st0" d="M92.6,38c0-3.5,2.8-6.3,6.5-6.3c3.8,0,6.5,2.7,6.5,6.3c0,3.9-2.8,6.4-6.5,6.5C95.4,44.5,92.6,42,92.6,38
	L92.6,38z M102.1,37.9c0-1.8-0.9-2.9-2.8-3.2c-1.2-0.2-2.5,0.6-2.9,1.7c-0.4,1-0.5,2.1,0,3.2c0.4,1,1.2,1.7,2.3,1.8
	c1.1,0.1,2.1-0.1,2.8-1C101.9,39.7,102.1,38.9,102.1,37.9z"/>
<path class="st0" d="M110.8,33.4c0.1,0,0.2-0.1,0.2-0.2c0.8-0.9,1.9-1.4,3.1-1.5s2.3,0.2,3.3,1c1.1,0.9,1.6,2.1,1.7,3.4
	c0.1,2.4,0,4.8,0,7.3c0,0.7,0,0.8-0.7,0.8c-0.8,0-1.6,0-2.4,0c-0.3,0-0.3-0.2-0.3-0.4c0-1.2,0-2.5,0-3.7c0-1,0-2,0-3
	c0-1.1-0.8-2-1.9-2.2s-2.2,0.4-2.7,1.3c-0.2,0.4-0.3,0.8-0.3,1.3c0,2.1,0,4.2,0,6.4c0,0.2-0.1,0.4-0.3,0.4c-0.9,0-1.9,0-2.9,0
	c-0.2,0-0.3-0.1-0.3-0.3c0-0.3,0-0.6,0-0.9c0-3.5,0-7.1,0-10.6c0-0.5,0-0.5,0.5-0.5c0.8,0,1.6,0,2.4,0c0.5,0,0.5,0,0.5,0.5
	c0,0.2,0,0.3,0,0.5C110.8,33.1,110.7,33.3,110.8,33.4L110.8,33.4z"/>
<path class="st0" d="M67.3,31.9c0.5,0,0.9,0,1.4,0c0.2,0,0.3,0.1,0.4,0.3c0.7,2.3,1.5,4.6,2.2,6.9c0,0.2,0.1,0.4,0.2,0.4
	c0.2,0,0.2-0.2,0.3-0.4c0.7-2.3,1.5-4.5,2.2-6.8c0.1-0.3,0.2-0.4,0.5-0.4c0.9,0,1.8,0,2.7,0c0.4,0,0.5,0,0.3,0.5
	c-0.5,1.4-1.1,2.8-1.6,4.3c-0.8,2.3-1.6,4.5-2.4,6.7c-0.7,1.8-1.3,3.6-1.9,5.5c-0.1,0.3-0.2,0.4-0.6,0.4c-0.8,0-1.6,0-2.3,0
	c-0.4,0-0.5-0.1-0.3-0.5c0.5-1.4,1-2.9,1.5-4.3c0.1-0.3,0.1-0.5,0-0.7c-1.1-3-2.2-6.1-3.4-9.2c-0.3-0.8-0.5-1.5-0.8-2.2
	c-0.1-0.3,0-0.4,0.3-0.4C66.4,31.9,66.8,31.9,67.3,31.9L67.3,31.9L67.3,31.9z"/>
<path class="st0" d="M68.6,63c0,2.9,0,5.9,0,8.8c0,0.3,0,0.7,0.1,1c0,0.3-0.1,0.4-0.4,0.4c-1.3,0-2.5,0-3.8,0
	c-0.3,0-0.3-0.1-0.3-0.4c0-0.9-0.1-1.8-0.1-2.7c0-5.4,0-10.9,0-16.3c0-0.5,0-0.5,0.5-0.5c1.2,0,2.4-0.1,3.7,0c0.3,0,0.4,0.1,0.4,0.4
	C68.6,56.8,68.6,59.9,68.6,63L68.6,63L68.6,63z"/>
<path class="st0" d="M63.9,35.5c0,2.8,0,5.5,0,8.3c0,0.3-0.1,0.4-0.4,0.4c-0.8,0-1.7,0-2.5,0c-0.4,0-0.5-0.1-0.5-0.5
	c0-4.6,0-9.2,0-13.8c0-1,0-1.9,0-2.9c0-0.3,0.1-0.4,0.4-0.4c0.8-0.1,1.7,0.1,2.5,0c0.4,0,0.5,0.2,0.5,0.5
	C63.9,29.9,63.9,32.7,63.9,35.5L63.9,35.5z"/>
<path class="st0" d="M134.8,73.3c-0.4,0-0.5-0.1-0.3-0.5c0.4-0.6,0.7-1.3,1.1-1.9c1.1-1.8,3.6-6.2,3.8-6.5s0.3-0.1,0.4,0.1
	c0.4,0.8,3.4,5.8,4.4,7.6c0.2,0.3,0.4,0.6,0.5,0.9c0.1,0.2,0,0.3-0.2,0.3C143.9,73.3,135.4,73.4,134.8,73.3L134.8,73.3z"/>
</svg>
