<?xml version="1.0" encoding="UTF-8"?><svg id="Layer_1" xmlns="http://www.w3.org/2000/svg" viewBox="0 0 250 100"><defs><style>.cls-1{fill:#fff;}.cls-2{fill:#7e7f82;}.cls-3{fill:#97999c;}.cls-4{fill:#929497;}.cls-5{fill:#a09aa9;}.cls-6{fill:#595a5c;}</style></defs><path class="cls-1" d="m66.25,45.03c-2.45-11.43-12.86-19.36-24.53-18.68-9.79.56-18.23,7.1-21.21,16.45-1.62,5.05-1.47,10.64.42,15.6,2.63,6.91,8.34,12.21,15.43,14.32,5.17,1.54,10.87,1.25,15.84-.84,7.3-3.06,12.61-9.54,14.14-17.31.61-3.15.59-6.39-.08-9.53Zm-34.88-8.09c1.11-.97,2.35-1.79,3.67-2.45.01,0,.03-.01.04-.02.02,0,.03-.02.05-.02.57-.31,1.17-.53,1.77-.76.03-.01.06-.02.09-.03,0,0,0,0,.01,0,.4-.14.81-.26,1.21-.38.01,0,.02,0,.04,0,.02,0,.04-.01.06-.02.31-.11.64-.16.96-.24.02,0,.03,0,.05-.01.01,0,.03,0,.04-.01.32-.08.65-.1.98-.16.02,0,.04,0,.05-.01.01,0,.03,0,.04,0,.3-.05.61-.08.92-.11.04-.01.08-.02.12-.03,0,0,0,0,0,0,.07-.01.14-.01.2,0,.07,0,.13,0,.19,0,.01,0,.03,0,.04,0,0,0,.02,0,.03,0,.07,0,.14,0,.22-.02,0,0,.02,0,.03,0,.05,0,.09-.01.14-.02.24-.02.48.01.72,0,0,0,.02,0,.03,0,.04,0,.08,0,.11,0,.06,0,.11,0,.17,0,.07,0,.13,0,.2,0,0,0,.01,0,.02,0,.1,0,.19,0,.29.03.08.01.16.02.24.02.02,0,.04,0,.06,0h.01c.18-.01.36.03.54.04.01,0,.03,0,.04,0,0,0,0,0,.01,0,.26,0,.51.07.77.09,0,0,.01,0,.02,0,.01,0,.02,0,.04,0,.17,0,.33.03.49.07.07.01.15.01.17.09.02.07-.05.11-.1.16-.03.03-.07.07-.11.1-.39.33-.78.66-1.17,1-.07.07-.2.11-.19.24h0s0,0,0,0c-.09-.18-.18-.36-.26-.54,0,0,0,0,0-.01,0,0,0,0,0,0-.03-.05-.07-.09-.11-.14-.07-.11-.13-.08-.17.02-.4.86-1.08,1.45-1.83,1.98-.84.59-1.74,1.08-2.69,1.47-.45.21-.9.4-1.37.55,0,0,0,0,0,0-.6.23-1.16.51-1.61,1-.21.24-.35.51-.5.78,0,0,0,0,0,0,0,0,0,0,0,0-.05.23-.12.46-.11.7,0,0,0,0-.01.01,0,0,.01,0,.02,0,0,.21.03.41.1.61l.15.3s0,0,0,0c0,0,0,0,0,0-.18.05-.26.23-.4.33-.04.03-.12.06-.03.13-.73.81-1.55,1.49-2.58,1.88-.06.02-.12.03-.19.05,0,0,0,0,0,0-.29.11-.58.15-.87.03-.18-.03-.34-.16-.4-.33,0,0,0,0,0-.01,0,0,0,0,0,0-.17-.26-.13-.54-.09-.82,0,0,0,0,0-.01l.14-.63s0-.01,0-.02c0,0,0,0,0,0-.32.04-.5.31-.73.49-.38.27-.67.64-1.01.94,0,0,0,0-.01,0-.4.5-.78,1.02-1.07,1.6,0,0,0,0-.01,0,0,0,.01,0,.02,0-.16.39-.29.79-.4,1.19,0,.01,0,.02,0,.03-.05.2-.07.4-.11.6h-.01s0,0,0,0l-.02.74s0,0,.01,0l.04.86c-.11-.13-.18,0-.24.04-.71.61-1.42,1.21-2.13,1.81-.21.18-.42.36-.63.54-.07.05-.13.14-.22.1-.07-.03-.04-.13-.04-.21,0-.16,0-.33,0-.49h0s0-.02,0-.04h0c.01-.25-.02-.51.03-.75,0,0,0,0,0,0,0-.01,0-.02,0-.04h0c.02-.19,0-.37.04-.55,0,0,0-.01,0-.02,0,0,0-.01,0-.02.02-.29.05-.57.1-.85,0,0,0-.01,0-.02,0,0,0-.02,0-.02h0c.04-.27.08-.55.13-.81,0,0,0-.02,0-.03,0,0,0-.01,0-.02.03-.15.06-.31.09-.46,0,0,0-.02,0-.03,0,0,0-.02,0-.03.03-.11.05-.22.08-.33,0-.01,0-.02.01-.04,0,0,0-.02,0-.02.09-.33.16-.68.28-1.01,0-.01,0-.02.01-.04,0-.02,0-.03.01-.05.1-.32.2-.63.32-.93,0-.01,0-.02.01-.03,0-.01,0-.02.01-.03.11-.32.26-.62.39-.93,0,0,0-.02.01-.02,0-.01,0-.02.01-.03.18-.39.37-.78.58-1.16,0,0,0,0,0,0,.01-.03.03-.05.04-.08.31-.58.67-1.13,1.05-1.66,0,0,0-.01.01-.02.02-.02.03-.05.05-.07.8-1.1,1.73-2.1,2.76-2.99Z"/><path class="cls-1" d="m46.25,32.97c-.01-.07-.1-.07-.17-.09-.16-.04-.33-.06-.49-.07-.01,0-.02,0-.04,0,0,0-.01,0-.02,0-.26-.03-.51-.09-.77-.09,0,0,0,0-.01,0-.01,0-.03,0-.04,0-.18-.02-.36-.05-.54-.04h-.01s-.04,0-.06,0c-.08,0-.16,0-.24-.02-.1-.03-.19-.04-.29-.03,0,0-.01,0-.02,0-.07,0-.14,0-.2,0-.06,0-.11,0-.17,0-.04,0-.07,0-.11,0,0,0-.02,0-.03,0-.24.01-.48-.02-.72,0-.05,0-.09,0-.14.02,0,0-.02,0-.03,0-.07.01-.14.02-.22.02,0,0-.02,0-.03,0-.01,0-.03,0-.04,0-.06,0-.13,0-.19,0-.07,0-.13,0-.2,0,0,0,0,0,0,0-.04,0-.08.02-.12.03-.31.03-.62.05-.92.11-.01,0-.03,0-.04,0-.02,0-.04,0-.05.01-.33.06-.66.08-.98.16-.01,0-.03,0-.04.01-.02,0-.03,0-.05.01-.32.08-.65.13-.96.24-.02,0-.04.01-.06.02-.01,0-.02,0-.04,0-.41.11-.81.24-1.21.38,0,0,0,0-.01,0-.03.01-.06.02-.09.03-.6.23-1.2.46-1.77.76-.02,0-.03.02-.05.02-.01,0-.03.01-.04.02-1.32.65-2.56,1.48-3.67,2.45-1.03.89-1.96,1.89-2.76,2.99-.02.02-.03.05-.05.07,0,0,0,.01-.01.02-.38.53-.74,1.09-1.05,1.66-.01.02-.03.05-.04.08,0,0,0,0,0,0-.21.38-.4.76-.58,1.16,0,.01-.01.02-.01.03,0,0,0,.02-.01.02-.13.31-.29.61-.39.93,0,.01,0,.02-.01.03,0,.01,0,.02-.01.03-.12.31-.22.62-.32.93,0,.02,0,.03-.01.05,0,.01,0,.02-.01.04-.12.33-.19.68-.28,1.01,0,0,0,.02,0,.02,0,.01,0,.02-.01.04-.03.11-.05.22-.08.33,0,0,0,.02,0,.03,0,0,0,.02,0,.03-.04.15-.06.31-.09.46,0,0,0,.01,0,.02,0,0,0,.02,0,.03-.05.27-.09.54-.13.81h0s0,.02,0,.03c0,0,0,.01,0,.02-.05.28-.08.57-.1.85,0,0,0,.01,0,.02,0,0,0,.01,0,.02-.04.18-.01.37-.04.55h0s0,.02,0,.04c0,0,0,0,0,0-.05.24-.02.5-.03.74h0s0,.03,0,.05h0c0,.16-.01.33,0,.49,0,.07-.03.18.04.21.09.04.15-.05.22-.1.22-.17.42-.36.63-.54.71-.61,1.42-1.21,2.13-1.81.06-.04.13-.17.24-.04.09.43.15.87.24,1.31.06.26.14.2.28.09.26-.22.51-.45.8-.63,0,0,.01,0,.02,0,.07.02.11.08.15.14.77,1,1.79,1.62,3,1.95.55.16,1.13.26,1.7.32-.18-.2-.33-.43-.45-.67-.2-.43-.13-.82.2-1.16.4-.42.92-.59,1.45-.73,1.11-.29,2.25-.32,3.39-.24.92.06,1.82.22,2.71.47.74.21,1.46.45,2.12.87.01,0,.02.02.04.03.03.03.07.07.1.1.03.04.07.08.11.11,0,0,0,0,0,0,.84.9,1.34,1.97,1.37,3.2.02.85-.22,1.67-.64,2.41-.77,1.35-1.9,2.33-3.24,3.08-1.36.76-2.87,1.23-4.42,1.4-2.78.3-5.36-.3-7.73-1.78-1.97-1.23-3.49-2.91-4.72-4.85-.57-.92-1.08-1.89-1.52-2.89-.05-.12-.07-.26-.12-.36.03.12.1.25-.03.38h0c-.04-.51,0-1,.03-1.5.07-1.38.28-2.75.64-4.08,1.63-6.01,5.98-10.9,11.77-13.21,1.74-.69,3.57-1.13,5.43-1.29,2.94-.27,5.79.11,8.57,1.1-.43.8-2.83,2.95-4.71,4.2-.05-.54-.17-1.07-.36-1.58h0c0-.14.11-.18.19-.24.39-.34.78-.67,1.17-1,.04-.03.08-.07.11-.1.05-.05.12-.09.1-.16Z"/><path class="cls-2" d="m44.11,50.05c-.84-.5-1.75-.78-2.68-1-1.23-.29-2.5-.41-3.76-.34-.89.05-1.77.17-2.6.56-.1.05-.2.1-.28.16-.67.45-.77,1.04-.28,1.68.1.13.21.26.34.42-.43,0-.82-.08-1.19-.16-1.02-.2-1.98-.55-2.8-1.21-.4-.32-.76-.67-1.02-1.11.11-.18.29-.26.46-.36.32-.13.62-.33.94-.48,1.44-.66,2.97-1.07,4.55-1.21.63-.06,1.25-.12,1.89-.09,1.86.07,3.71.4,5.48.96.46.14.91.3,1.39.46,0-.13-.07-.22-.13-.3-.19-.32-.41-.63-.65-.92-.09-.11-.22-.2-.21-.36.25.06.51.11.76.18.07.01.15.05.19,0,.06-.07-.03-.13-.07-.19-.37-.55-.83-1.03-1.33-1.46.26-.16.53-.03.79,0,2.62.34,5.01,1.27,7.1,2.9,2.76,2.17,4.54,4.96,5.29,8.4.24,1.15.32,2.33.23,3.49-.15,2.03-.79,3.91-1.99,5.57-.08.11-.19.2-.24.32-.27.4-.67.68-1.04.98-1.99,1.62-4.32,2.46-6.82,2.85-1.95.31-3.93.34-5.89.1-3.08-.38-6.03-1.49-8.59-3.24-.63-.42-1.24-.86-1.79-1.39-.02-.01-.02-.04,0-.06h0c.11-.05.19.03.27.09,1.31.98,2.8,1.71,4.38,2.13.53.13,1.07.24,1.61.32.12.05.26.02.38.05.03,0,.05,0,.07.01,1.23.15,2.46.06,3.67-.16,2.66-.47,5.04-1.58,7.06-3.39,1.38-1.22,2.48-2.66,3.06-4.44s.5-3.51-.32-5.23c-.17.77-.57,1.4-1.07,1.98-.51.57-1.1,1.05-1.76,1.43-.07.05-.16.13-.25.06-.07-.06-.03-.16,0-.24.16-.53.27-1.08.33-1.63.24-2.33-.66-4.14-2.52-5.51-.31-.23-.63-.43-.96-.61Z"/><path class="cls-6" d="m36.42,67.77c-.68-.07-1.36-.21-2.02-.41-1.24-.38-2.41-.92-3.5-1.64-.26-.17-.48-.4-.76-.53-.16-.02-.23-.18-.36-.25-2.72-2.42-4.59-5.4-5.65-8.87-.52-1.69-.8-3.44-.83-5.21,0-.13.01-.26.03-.47.13.3.24.53.34.76.98,2.15,2.23,4.11,3.96,5.74,1.83,1.73,3.97,2.89,6.49,3.3,2.95.48,5.71-.03,8.24-1.63,1.27-.8,2.3-1.81,2.9-3.21.72-1.69.45-3.26-.65-4.71-.09-.13-.2-.25-.3-.37.13-.11.2.02.28.08.65.55,1.17,1.23,1.52,2.02.34.75.52,1.55.53,2.37.01.84-.18,1.67-.54,2.42.08,0,.16-.03.22-.08.35-.2.68-.44.99-.7.09-.08.18-.21.34-.19-.08.63-.22,1.26-.41,1.88.4-.23.8-.49,1.17-.78.29-.23.53-.51.82-.75.12.05.12.18.15.28.47,1.69.13,3.26-.7,4.74-1.01,1.8-2.5,3.14-4.22,4.23-1.4.88-2.93,1.5-4.54,1.85-1.01.23-2.05.29-3.08.18h0c-.13-.07-.28,0-.4-.05Z"/><path class="cls-4" d="m61.91,55.26c-.09-1.93-.57-3.82-1.4-5.56-.55-1.13-1.23-2.19-2.05-3.15-.74-.87-1.58-1.61-2.47-2.32.08-.08.19-.07.28-.05,1.24.14,2.46.43,3.63.86.29.11.57.24.84.39.09.05.19.1.28.16.02.01.03.05.07.04-.02-.03-.03-.06-.01-.09-.8-1.04-1.77-1.91-2.78-2.73-1.21-.98-2.52-1.81-3.93-2.49-1.94-.96-4.03-1.58-6.18-1.85-.19-.03-.39,0-.57-.07-.01-.13.09-.17.17-.23,1.26-1.05,2.27-2.29,2.99-3.77.22-.45.4-.91.55-1.38.04-.13.07-.28.2-.36,2.26,1.09,4.28,2.6,5.97,4.45,4.48,4.92,6.16,11.77,4.49,18.21-.05.02-.05-.03-.08-.06Z"/><path class="cls-6" d="m54.27,65.94c0-.2.16-.31.26-.45.92-1.32,1.48-2.77,1.77-4.35.18-.98.2-1.96.13-2.94-.1-1.5-.49-2.95-1.09-4.34-.45-1.02-1-1.98-1.67-2.87-.71-.94-1.53-1.79-2.44-2.54-1.4-1.16-3.02-2.03-4.76-2.57-.92-.3-1.88-.49-2.85-.59-.18-.01-.34-.06-.53-.05-.61-.45-1.24-.89-1.94-1.21v-.07c.26,0,.51,0,.76,0,3.53-.06,6.8.8,9.64,2.95,2.95,2.23,4.8,5.18,5.48,8.82.59,3.1.13,6.04-1.59,8.73-.34.55-.71,1.05-1.19,1.47Z"/><path class="cls-6" d="m51.55,32.66c-.35,1.09-.8,2.12-1.44,3.08-.64.96-1.42,1.81-2.32,2.54-.05.04-.1.09-.15.13-.31.16-.57.4-.85.59-1.05.69-2.17,1.27-3.33,1.72-.03,0-.06.01-.09.02-.05-.07,0-.1.04-.13.66-.63,1.07-1.41,1.35-2.27.03-.11.11-.21.22-.24,2.06-.82,3.7-2.17,5.04-3.91.12-.16.24-.32.39-.52-.42,0-.74.2-1.09.26-.07,0-.16.06-.17-.07,1.27-1.49,2.24-3.23,2.82-5.1.03-.12,0-.28.17-.34.01,0,.02.02.01.03,0,.01,0,.02,0,.02-.02,1.34-.21,2.66-.56,3.95-.02.07-.03.16-.05.24Z"/><path class="cls-3" d="m43.55,46.73c.42.46.78.97,1.09,1.52.03.05.1.11.03.18-.05.05-.11-.01-.16-.03-1.37-.51-2.78-.9-4.22-1.15-.73-.13-1.46-.18-2.2-.24-.66-.04-1.33-.03-1.99.03-1.51.12-2.98.45-4.38,1.05-.43.19-.87.36-1.27.61-.05.03-.1.07-.16,0,1.21-.86,2.56-1.5,3.99-1.92,1.97-.59,3.97-.73,6.02-.57,1.04.08,2.07.24,3.08.47.07,0,.12.03.18.05Z"/><path class="cls-4" d="m44.16,32.67s-.04,0-.06,0c-.08,0-.16,0-.24-.02-.1-.03-.19-.04-.29-.03,0,0-.01,0-.02,0-.07,0-.14,0-.2,0-.06,0-.11,0-.17,0-.04,0-.07,0-.11,0,0-.02,0-.04-.02-.06,0,0,0,0,0-.01h.3s.02,0,.02,0c.14.05.3-.02.45.03.01,0,.02,0,.03.01h.3s0,.05,0,.07Z"/><path class="cls-6" d="m60.79,45.51c-1.19-.57-2.45-.93-3.74-1.14-.35-.05-.69-.13-1.05-.13-.45-.28-.9-.59-1.36-.86-1.5-.87-3.15-1.46-4.87-1.74-.04-.01-.07-.03-.11-.04.51-.09,2.27.17,3.49.51,1.13.31,2.23.74,3.27,1.28-.11-.33-.31-.55-.43-.81-.01-.07-.11-.13-.05-.2s.14,0,.2.03c.18.08.34.18.52.26,1.47.76,2.86,1.68,4.14,2.73q.07.09-.01.11Z"/><path class="cls-4" d="m43.18,32.62s-.07,0-.11,0c0,0-.02,0-.03,0-.24.01-.48-.02-.72,0-.05,0-.09,0-.14.02-.01,0-.04-.02-.06-.03.3-.11.61-.03.92-.05,0,0,0,0,0,.01.03.04.09.03.13.05Z"/><path class="cls-4" d="m25.69,46.39s0,.02,0,.03c0,0,0,.02,0,.03-.04.15-.06.31-.09.46,0,0,0,.01,0,.02,0,0,0,.02,0,.03-.01,0-.03,0-.04-.02h0c0-.18.03-.35.1-.51,0,0,0,0,0,0,.02,0,.03-.02.05-.03Z"/><path class="cls-4" d="m42.32,32.62s-.09,0-.14.02c0,0-.02,0-.03,0-.07.01-.14.02-.22.02,0,0-.02,0-.03,0-.01,0-.03,0-.04,0l.05-.05h.2s0,0,0,0c.06.01.13-.02.19.01Z"/><path class="cls-4" d="m45.59,32.81s-.02,0-.04,0c0,0-.01,0-.02,0-.26-.03-.51-.09-.77-.09,0,0,0,0-.01,0-.01,0-.03,0-.04,0,.02-.02.04-.04.05-.06.28,0,.54.07.81.1,0,0,0,0,0,0,0,.02.01.03.01.05Z"/><path class="cls-4" d="m44.76,32.66s0,.04-.01.06c-.01,0-.03,0-.04,0-.18-.02-.36-.05-.54-.04h-.01s-.04,0-.06,0c.02-.02.03-.04.04-.07,0,0,0,0,0,0,.21-.01.41.05.61.06Z"/><path class="cls-4" d="m41.17,38.74c.53-.26,1.09-.49,1.56-.87.09,0,.09.05.06.11-.43,1.78-1.78,2.95-3.61,3.12-.35.03-.7.07-1.06.04.05-.13.17-.12.27-.15.4-.11.79-.22,1.16-.41.69-.36,1.19-.88,1.48-1.61.02-.09.07-.18.13-.24Z"/><path class="cls-4" d="m41.17,38.74c-.22.85-.76,1.44-1.51,1.86-.48.27-1.01.4-1.54.55-.13-.38.01-.69.24-.98.26-.34.63-.55,1.01-.72.59-.27,1.19-.5,1.8-.7Z"/><path class="cls-4" d="m25.59,46.9s0,.01,0,.02c0,0,0,.02,0,.03-.05.27-.09.54-.13.81h0s0,.02,0,.03c0,0,0,.01,0,.02-.01,0-.03-.01-.05-.02,0,0,0,0,0,0,.01-.28.06-.57.15-.86h0s.03-.01.05-.02Z"/><path class="cls-4" d="m46.15,33.13s-.07.07-.11.1c-.39.33-.78.66-1.17,1-.07.07-.2.11-.19.24h0s0,0,0,0c-.09-.18-.18-.36-.26-.54,0,0,0,0,0-.01,0,0,0,0,0,0-.03-.05-.07-.09-.11-.14-.07-.11-.13-.08-.17.02-.4.86-1.08,1.45-1.83,1.98-.84.59-1.74,1.08-2.69,1.47-.45.21-.9.4-1.37.55,0,0,0,0,0,0-.6.23-1.16.51-1.61,1-.21.24-.35.51-.5.78,0,0,0,0,0,0,0,0,0,0,0,0-.05.23-.12.46-.11.7,0,0,0,0-.01.01,0,0,.01,0,.02,0,0,.21.03.41.1.61l.15.3s0,0,0,0c0,0,0,0,0,0-.18.05-.26.23-.4.33-.04.03-.12.06-.03.13-.73.81-1.55,1.49-2.58,1.88-.06.02-.12.03-.19.05,0,0,0,0,0,0-.29.11-.58.15-.87.03-.18-.03-.34-.16-.4-.33,0,0,0,0,0-.01,0,0,0,0,0,0-.17-.26-.13-.54-.09-.82,0,0,0,0,0-.01l.14-.63s0-.01,0-.02c0,0,0,0,0,0-.32.04-.5.31-.73.49-.38.27-.67.64-1.01.94,0,0,0,0-.01,0-.4.5-.78,1.02-1.07,1.6,0,0,0,0-.01,0,0,0,.01,0,.02,0-.16.39-.29.79-.4,1.19,0,.01,0,.02,0,.03-.05.2-.07.4-.11.6h-.01s0,0,0,0l-.02.74s0,0,.01,0l.04.86c-.11-.13-.18,0-.24.04-.71.61-1.42,1.21-2.13,1.81-.21.18-.42.36-.63.54-.07.05-.13.14-.22.1-.07-.03-.04-.13-.04-.21,0-.16,0-.33,0-.49h0s0-.02,0-.04h0c.01-.25-.02-.51.03-.75,0,0,0,0,0,0,0-.01,0-.02,0-.04h0c.02-.19,0-.37.04-.55,0,0,0-.01,0-.02,0,0,0-.01,0-.02.02-.29.05-.57.1-.85,0,0,0-.01,0-.02,0,0,0-.02,0-.02h0c.04-.27.08-.55.13-.81,0,0,0-.02,0-.03,0,0,0-.01,0-.02.03-.15.06-.31.09-.46,0,0,0-.02,0-.03,0,0,0-.02,0-.03.03-.11.05-.22.08-.33,0-.01,0-.02.01-.04,0,0,0-.02,0-.02.09-.33.16-.68.28-1.01,0-.01,0-.02.01-.04,0-.02,0-.03.01-.05.1-.32.2-.63.32-.93,0-.01,0-.02.01-.03,0-.01,0-.02.01-.03.11-.32.26-.62.39-.93,0,0,0-.02.01-.02,0-.01,0-.02.01-.03.18-.39.37-.78.58-1.16,0,0,0,0,0,0,.01-.03.03-.05.04-.08.31-.58.67-1.13,1.05-1.66,0,0,0-.01.01-.02.02-.02.03-.05.05-.07.8-1.1,1.73-2.1,2.76-2.99,1.11-.97,2.35-1.79,3.67-2.45.01,0,.03-.01.04-.02.02,0,.03-.02.05-.02.57-.31,1.17-.53,1.77-.76.03-.01.06-.02.09-.03,0,0,0,0,.01,0,.4-.14.81-.26,1.21-.38.01,0,.02,0,.04,0,.02,0,.04-.01.06-.02.31-.11.64-.16.96-.24.02,0,.03,0,.05-.01.01,0,.03,0,.04-.01.32-.08.65-.1.98-.16.02,0,.04,0,.05-.01.01,0,.03,0,.04,0,.3-.05.61-.08.92-.11.04-.01.08-.02.12-.03,0,0,0,0,0,0,.07-.01.14-.01.2,0,.07,0,.13,0,.19,0,.01,0,.03,0,.04,0,0,0,.02,0,.03,0,.07,0,.14,0,.22-.02,0,0,.02,0,.03,0,.05,0,.09-.01.14-.02.24-.02.48.01.72,0,0,0,.02,0,.03,0,.04,0,.08,0,.11,0,.06,0,.11,0,.17,0,.07,0,.13,0,.2,0,0,0,.01,0,.02,0,.1,0,.19,0,.29.03.08.01.16.02.24.02.02,0,.04,0,.06,0h.01c.18-.01.36.03.54.04.01,0,.03,0,.04,0,0,0,0,0,.01,0,.26,0,.51.07.77.09,0,0,.01,0,.02,0,.01,0,.02,0,.04,0,.17,0,.33.03.49.07.07.01.15.01.17.09.02.07-.05.11-.1.16Z"/><path class="cls-4" d="m28.51,48.28c-.24.02-.34.23-.51.36-.67.54-1.31,1.09-1.96,1.65-.22.19-.42.38-.65.55-.15.11-.21.07-.2-.11v-.63s.04-.05.07-.07h0s0,.03,0,.05h0c0,.16-.01.33,0,.49,0,.07-.03.18.04.21.09.04.15-.05.22-.1.22-.17.42-.36.63-.54.71-.61,1.42-1.21,2.13-1.81.06-.04.13-.17.24-.04Z"/><path class="cls-4" d="m25.45,47.76s0,.02,0,.02c0,0,0,.01,0,.02-.05.28-.08.57-.1.85,0,0,0,.01,0,.02,0,0,0,.01,0,.02-.01,0-.02,0-.04,0,0,0,0,0,0,0-.01-.31.02-.61.09-.91,0,0,0,0,.01,0,.02,0,.04-.01.05-.02Z"/><path class="cls-4" d="m25.29,49.25s0,.02,0,.04c0,0,0,0,0,0-.05.24-.02.5-.03.74h0s0,.03,0,.05h0s-.04.02-.07.03c0,0,0,0,0,0,.03-.27-.05-.55.05-.81,0,0,0,0,.01-.01.02-.02.03-.03.05-.04Z"/><path class="cls-4" d="m25.34,48.66s0,.01,0,.02c0,0,0,.01,0,.02-.04.18-.01.37-.04.55h0s0,.02,0,.04c0,0,0,0,0,0-.01,0-.03,0-.05,0,0,0,0,0,0,0,.02-.2-.05-.41.05-.6,0,0,0,0,0,0,.01-.01.03-.02.04-.04Z"/><path class="cls-4" d="m36.25,41.21c-.11.18-.3.29-.44.45-.09-.07,0-.09.03-.13.14-.1.22-.28.4-.33,0,0,0,0,0,0Z"/><path class="cls-4" d="m46.29,33.08c-.28.24-.55.49-.83.73-.26.22-.52.44-.78.66h0c0-.14.11-.18.19-.24.39-.34.78-.67,1.17-1,.04-.03.08-.07.11-.1.05-.05.12-.09.1-.16-.01-.07-.1-.07-.17-.09-.16-.04-.33-.06-.49-.07-.01,0-.02,0-.04,0,0-.01.02-.03.02-.05,0,0,0,0,0,0,.22,0,.43.06.64.1.18.03.2.11.07.23Z"/><path class="cls-4" d="m31.91,45.47c.05.11-.09.17-.07.27-.07-.31-.24-.42-.55-.36-.33.07-.63.24-.85.5-.06.07-.13.13-.2.19-.05-.07,0-.13.02-.19.13-.44.43-.75.8-1,.08-.06.18-.1.28-.13.43-.1.67.11.61.55,0,.06,0,.12-.03.18Z"/><path class="cls-4" d="m31.91,45.47c0-.07,0-.13,0-.2,0-.44-.24-.61-.65-.42-.47.22-.77.6-.98,1.07-.05,0-.07,0-.06-.06.15-.55.44-1,.92-1.33.12-.08.26-.13.39-.16.22-.05.45.09.5.31.07.26.03.55-.12.79Z"/><path class="cls-4" d="m37.5,41.95c-.59.16-1.09.09-1.56-.22-.03-.04-.08-.06-.14-.06-.09-.07,0-.09.03-.13.14-.1.22-.28.4-.33,0,0,0,0,0,0,.23.36.59.52.97.66.07.03.16.05.28.08Z"/><path class="cls-4" d="m56.66,42.66c-.19-.02-.32-.15-.49-.21-.07-.03-.13-.11-.2-.05-.05.05.03.11.01.18-.1-.09-.14-.22-.2-.35.3.12.6.24.87.43Z"/><path class="cls-4" d="m60.79,45.51c.05-.03,0-.07,0-.11l.29.16.16.2c-.19-.05-.32-.16-.45-.25Z"/><path class="cls-5" d="m49.17,41.52c.13-.02.28,0,.4.03-.16.09-.27.08-.4-.03Z"/><path class="cls-4" d="m29.79,64.93c.16.03.23.18.36.25v.06c-.15-.07-.27-.18-.36-.31Z"/><path class="cls-4" d="m61.91,55.26l.09.05c.01.1-.03.19-.09.31v-.36Z"/><path class="cls-4" d="m49.16,33.87c.03.07.11.05.17.07l-.27.11c-.02-.11.05-.14.1-.18Z"/><path class="cls-4" d="m30.23,45.85l.06.06s-.03.1-.05.15l-.11.14c.03-.17.03-.27.09-.35Z"/><path class="cls-4" d="m42.79,37.98s0-.09-.06-.11c.01-.04.06-.09.08-.07.06.06.03.13-.02.19Z"/><path class="cls-4" d="m26.1,44.9s0,.03-.01.05c0,.01,0,.02-.01.04-.12.33-.19.68-.28,1.01,0,0,0,.02,0,.02,0,.01,0,.02-.01.04-.01-.01-.02-.03-.03-.05.07-.36.14-.72.3-1.05,0,0,0,0,0-.01.02-.01.04-.03.05-.04Z"/><path class="cls-4" d="m41.48,32.67s0,0,0,0c-.04,0-.08.02-.12.03-.31.03-.62.05-.92.11-.01,0-.03,0-.04,0-.02,0-.04,0-.05.01.02-.02.05-.04.07-.07.32-.07.63-.11.96-.1,0,0,0,0,.01-.01.03-.02.06-.01.09,0,0,0,0,0,0,.01h0s0,0,0,.01Z"/><path class="cls-4" d="m26.45,43.91s0,.02-.01.03c0,.01,0,.02-.01.03-.12.31-.22.62-.32.93,0,.02,0,.03-.01.05,0,.01,0,.02-.01.04-.01,0-.02-.01-.03-.03.07-.35.19-.69.35-1.01,0,0,0,0,0,0,.02-.01.03-.02.05-.03Z"/><path class="cls-4" d="m40.41,32.76s-.01.04-.02.05c-.02,0-.04,0-.05.01-.33.06-.66.08-.98.16-.01,0-.03,0-.04.01-.02,0-.03,0-.05.01,0-.01.01-.02.02-.03,0,0,.02,0,.03-.01.36-.14.74-.13,1.1-.21Z"/><path class="cls-4" d="m26.87,42.92s-.01.02-.01.03c0,0,0,.02-.01.02-.13.31-.29.61-.39.93,0,.01,0,.02-.01.03,0,.01,0,.02-.01.03,0,0-.02-.02-.03-.03,0,0,0,0,0,0,.07-.34.25-.65.4-.96,0,0,.01-.01.02-.02.02-.01.03-.03.05-.04Z"/><path class="cls-4" d="m39.36,32.98s-.03,0-.04.01c-.02,0-.03,0-.05.01-.32.08-.65.13-.96.24-.02,0-.04.01-.06.02-.01,0-.02,0-.04,0,.02-.02.05-.04.08-.06.32-.15.67-.19,1.01-.25,0,0,0,0,.01,0,.02,0,.04.01.05.02Z"/><path class="cls-4" d="m27.49,41.68s-.03.05-.04.08c0,0,0,0,0,0-.21.38-.4.76-.58,1.16,0,.01-.01.02-.01.03-.01,0-.02,0-.03,0,0,0-.01,0-.02,0,.16-.43.36-.83.61-1.21,0,0,0,0,.01,0,.02-.02.05-.04.08-.06Z"/><path class="cls-4" d="m38.29,33.21s-.03.04-.04.05c-.01,0-.02,0-.04,0-.41.11-.81.24-1.21.38,0,0,0,0-.01,0-.03.01-.06.02-.09.03.02-.02.05-.04.07-.07h0s0,0,0,0c.42-.17.86-.3,1.31-.4Z"/><path class="cls-4" d="m28.61,39.93s-.03.05-.05.07c0,0,0,.01-.01.02-.38.53-.74,1.09-1.05,1.66-.01.02-.03.05-.04.08-.01,0-.03,0-.05,0,0,0,0-.02.01-.02.31-.62.68-1.2,1.1-1.74,0,0,0,0,0,0,.03-.02.06-.04.09-.07Z"/><path class="cls-4" d="m36.98,33.65s-.06.02-.09.03c-.6.23-1.2.46-1.77.76-.02,0-.03.02-.05.02-.01,0-.03.01-.04.02.02-.02.03-.04.05-.06,0,0,0,0,0,0,.59-.37,1.24-.58,1.88-.81h0s.01.02.01.03Z"/><path class="cls-3" d="m47.64,56.18c-.51.42-1.01.84-1.69,1.13.2-.39.34-.8.45-1.23.4-1.75.03-3.35-1-4.8-.26-.36-.6-.63-.9-.95-.05-.05-.1-.11-.19-.07-.09-.05-.13-.13-.2-.2.04-.05.09-.03.13,0,1.22.69,2.24,1.59,2.87,2.88.3.63.49,1.32.55,2.02.04.4.03.82-.01,1.22Z"/><path class="cls-4" d="m25.78,46.02s0,.02-.01.04c-.03.11-.05.22-.08.33,0,0,0,.02,0,.03,0,0,0,.02,0,.03-.01,0-.02-.01-.03-.02,0,0,0,0,0,0,0-.13.03-.27.1-.4.01,0,.03,0,.04.01Z"/><path class="cls-4" d="m41.93,32.61s0,0,0,0c0,.02,0,.03-.02.05-.01,0-.03,0-.04,0-.06,0-.13,0-.19,0-.07,0-.13,0-.2,0,0,0,0,0,0,0,0,0,0,0,0-.01,0,0,0,0,0,0h0c.05-.05.13,0,.18-.03,0,0,0,0,0,0,0,0,0,0,.01,0h.26Z"/><path class="cls-4" d="m35.1,34.42s0,0,0,.01c0,.01,0,.03-.01.04-.01,0-.03.01-.04.02-1.32.65-2.56,1.48-3.67,2.45-1.03.89-1.96,1.89-2.76,2.99-.02.02-.03.05-.05.07,0,0,0,.01-.01.02,0,0-.02-.01-.02-.02,0,0,0,0,0,0,.26-.4.56-.79.88-1.15,1.19-1.38,2.54-2.58,4.09-3.55.52-.32,1.03-.65,1.6-.87Z"/><path class="cls-4" d="m43.85,32.61c-.09-.01-.18,0-.28,0,0,0-.01,0-.02,0-.07,0-.14-.01-.21-.05,0,0,.02,0,.02,0,.15.01.31-.04.45.03.01,0,.02.01.03.02Z"/><path class="cls-4" d="m41.67,32.61c-.05.07-.13.04-.2.05h-.1c.09-.09.2-.03.3-.05Z"/><path class="cls-3" d="m36.82,67.82c1.65.07,3.3-.19,4.84-.76,1.5-.55,2.91-1.34,4.15-2.34,1.22-.99,2.27-2.12,2.97-3.55.38-.76.61-1.58.69-2.43.07-.76-.06-1.48-.27-2.2.02-.18.18-.26.28-.38.36-.48.63-.99.74-1.58.02-.08.05-.16.08-.23.23.46.41.94.54,1.43.18.69.28,1.4.22,2.12-.09,1.24-.47,2.45-1.09,3.53-.62,1.09-1.42,2.02-2.33,2.86-.81.72-1.7,1.35-2.66,1.85-1.15.63-2.38,1.09-3.66,1.4-.8.19-1.61.3-2.43.35-.4.02-.79.05-1.18.03-.29-.03-.6,0-.9-.1Z"/><g id="T3mvn6.tif"><path class="cls-1" d="m186.81,48.84c-.17.48-.35.95-.52,1.43-1.11,3.12-2.22,6.23-3.33,9.35-.09.25-.13.52-.5.53-.38,0-.47-.24-.57-.52-1.81-5.06-3.62-10.12-5.44-15.18-.17-.47-.37-.92-.58-1.38-.3-.66-.83-1.04-1.56-1.12-.2-.02-.38-.04-.37-.3,0-.3.23-.27.43-.27,2,0,4,0,6,0,.19,0,.42-.04.43.27,0,.3-.22.28-.41.3-.18.02-.37.05-.55.09-.67.18-.95.6-.78,1.28.29,1.16.74,2.28,1.14,3.4.91,2.57,1.82,5.13,2.74,7.7.06.17.09.36.23.5.17-.06.17-.22.21-.35.9-2.51,1.78-5.03,2.68-7.54.06-.18.1-.34.03-.54-.35-.94-.68-1.88-1.03-2.81-.37-.99-1-1.69-2.14-1.75-.19-.01-.28-.11-.27-.3,0-.29.21-.26.39-.26,1.59,0,3.17,0,4.76,0,.56,0,1.11,0,1.67,0,.17,0,.36,0,.37.24.01.24-.12.33-.34.33-.11,0-.23.01-.34.03-.99.18-1.26.56-1.07,1.54.2,1.04.62,2.02.96,3.01.93,2.73,1.88,5.44,2.82,8.17.03.09.07.18.11.28.17-.03.16-.16.19-.26,1.17-3.34,2.33-6.68,3.49-10.02.17-.49.3-.98.29-1.5-.01-.61-.26-.96-.85-1.13-.23-.07-.47-.1-.71-.13-.18-.02-.34-.04-.34-.28,0-.27.17-.29.37-.29,1.04,0,2.09,0,3.13,0,.54,0,1.09,0,1.63,0,.19,0,.38,0,.39.27,0,.23-.14.28-.33.3-.9.1-1.42.66-1.73,1.46-.62,1.58-1.13,3.2-1.68,4.8-1.3,3.8-2.59,7.61-3.89,11.42-.09.25-.14.52-.51.52-.39,0-.46-.27-.55-.54-1.26-3.47-2.53-6.94-3.79-10.41-.04-.12-.1-.23-.15-.35-.04,0-.08-.01-.11-.02Z"/><path class="cls-1" d="m91.3,50.37c-.09,3.65-1.56,6.57-4.67,8.59-.55.36-1.17.61-1.81.76-.3.07-.33.2-.22.45,1.2,2.58,3.15,4.17,6.01,4.59.1.01.2.02.3.03.19.02.32.09.31.32,0,.24-.16.28-.35.27-.89-.02-1.77-.13-2.62-.35-3.31-.87-6.2-2.45-8.45-5.08-.11-.13-.23-.25-.4-.3-2.52-.79-4.12-2.6-5.23-4.88-1.89-3.86-1.16-8.59,2.01-11.52,1.61-1.48,3.51-2.21,5.7-2.32,5.04-.27,8.96,3.75,9.42,8.33.04.37,0,.74,0,1.11Zm-14.9.03c-.01.83.06,1.65.18,2.47.25,1.68.75,3.26,1.9,4.56,1.11,1.27,2.52,1.88,4.21,1.59,2.39-.41,3.88-1.93,4.66-4.13,1.05-2.94,1.01-5.94.06-8.9-.46-1.45-1.28-2.68-2.66-3.44-2-1.11-5.45-1.01-7.14,2.23-.92,1.77-1.17,3.67-1.21,5.63Z"/><path class="cls-1" d="m145.49,50.52c0,.46,0,.81,0,1.16,0,1.64,0,3.28,0,4.92,0,.37.04.74.1,1.11.15.89.69,1.3,1.78,1.39.16.01.31.01.47.03.19.02.21.16.21.31,0,.15-.06.25-.22.26-.13.01-.26.02-.38.02-2.26,0-4.51,0-6.77,0-.11,0-.23,0-.34-.01-.2-.01-.31-.11-.3-.33.01-.21.14-.26.31-.27.2-.01.4-.01.6-.05,1.19-.21,1.58-.65,1.65-1.86.01-.18,0-.37,0-.56,0-4.08,0-8.16,0-12.24,0-.13,0-.26,0-.39-.03-1.42-.54-1.96-1.95-2.07-.13-.01-.26,0-.38-.02-.18-.02-.23-.13-.23-.3,0-.15.07-.24.23-.25.09,0,.17,0,.26,0,2.34,0,4.68,0,7.03,0,.04,0,.09,0,.13,0,.2,0,.38.01.37.29,0,.24-.16.26-.35.28-.28.03-.57.05-.85.11-.8.16-1.18.58-1.29,1.39-.06.41-.09.82-.09,1.24,0,1.41,0,2.82,0,4.24,0,.12-.08.29.08.34.11.04.19-.1.27-.18,1.76-1.59,3.52-3.17,5.28-4.76.41-.37.82-.76,1.13-1.22.39-.58.24-.93-.43-1.07-.2-.04-.39-.06-.59-.07-.21-.02-.46.03-.45-.3.01-.34.28-.26.48-.26,1.61,0,3.23,0,4.84,0,.4,0,.8,0,1.2,0,.18,0,.31.05.32.25.01.22-.11.31-.31.31-1.53.02-2.72.78-3.79,1.77-1.81,1.68-3.61,3.37-5.42,5.05-.27.25-.26.39,0,.64,2.57,2.54,5.12,5.09,7.69,7.63.4.4.85.76,1.28,1.14.72.64,1.57.91,2.51.94.21,0,.46-.04.47.29,0,.35-.27.32-.49.32-2.56,0-5.11,0-7.67,0-.19,0-.42.03-.44-.27-.02-.32.19-.32.41-.35.82-.14,1.09-.74.64-1.44-.2-.3-.42-.58-.67-.83-2.02-2.04-4.05-4.06-6.08-6.09-.05-.05-.1-.09-.24-.22Z"/><path class="cls-1" d="m220.94,41.38c1.31,0,2.63-.04,3.94.01,1.76.07,3.36.64,4.53,2,2.51,2.92.84,7.35-3.01,8.05-1.33.24-2.67.14-4-.07-.55-.09-.55-.09-.55.45,0,1.61,0,3.22,0,4.83,0,.16,0,.31,0,.47.03,1.31.51,1.83,1.82,1.96.1.01.2,0,.3.01.22,0,.45,0,.44.32-.01.32-.26.29-.47.3-1.73,0-3.46,0-5.18,0-.66,0-1.31,0-1.97,0-.2,0-.42,0-.43-.29-.01-.32.22-.32.44-.32.07,0,.14,0,.21,0,1.36-.1,1.89-.61,1.9-1.97.02-4.39.02-8.79,0-13.18,0-1.41-.53-1.91-1.95-2-.07,0-.14,0-.21,0-.2,0-.38-.02-.39-.28,0-.27.18-.29.38-.28.47,0,.94,0,1.41,0,.93,0,1.86,0,2.78,0h0Zm.91,5.05c0,1.1.01,2.19,0,3.29,0,.33.11.5.44.56.41.07.81.2,1.21.23,1.31.1,2.47-.19,3.27-1.34.59-.84.69-1.79.64-2.77-.13-2.82-2.42-4.5-5.15-3.79-.31.08-.42.22-.41.53.01,1.1,0,2.19,0,3.29Z"/><path class="cls-1" d="m107.83,48.83c0-1.4,0-2.8,0-4.19,0-.21,0-.43,0-.64-.04-1.48-.55-1.98-2.04-2.05-.07,0-.14,0-.21,0-.18,0-.3-.08-.3-.28,0-.2.1-.29.29-.28.06,0,.11,0,.17,0,1.86,0,3.71,0,5.57,0,.21,0,.47-.05.46.28,0,.33-.27.27-.47.28-.04,0-.09,0-.13,0-1.44.12-1.94.61-1.95,2.05-.02,2.98,0,5.96-.02,8.94,0,.97-.08,1.94-.39,2.87-.68,2.02-2.04,3.35-4.08,3.92-2.04.57-4.11.62-6.09-.22-2.41-1.03-3.67-2.96-3.84-5.52-.2-3.15-.04-6.3-.08-9.45,0-.43,0-.85-.08-1.28-.14-.71-.58-1.09-1.27-1.21-.27-.05-.54-.08-.81-.1-.21-.02-.42,0-.41-.3.01-.31.24-.26.44-.26.81,0,1.63,0,2.44,0,1.57,0,3.14,0,4.71,0,.21,0,.46-.05.45.29,0,.3-.24.26-.44.28-.07,0-.14,0-.21.01-1.4.14-1.9.65-1.9,2.06-.01,3.24-.03,6.48,0,9.71.02,2.21,1.49,4.28,3.43,4.86,3.66,1.09,6.47-1.29,6.7-4.67.11-1.69.02-3.39.02-5.09,0,0,.01,0,.02,0Z"/><path class="cls-1" d="m211.87,59.72c-1.09,0-2.17,0-3.26,0-.21,0-.49.08-.51-.28-.02-.36.25-.31.47-.33.21-.02.43-.05.63-.11.71-.2,1.03-.69.82-1.4-.4-1.31-1.02-2.54-1.55-3.8-.07-.17-.22-.2-.39-.2-2.14,0-4.29,0-6.43,0-.21,0-.35.07-.43.27-.45,1.05-.94,2.08-1.36,3.14-.54,1.36-.08,2.03,1.4,2.1.1,0,.2,0,.3.02.16.02.21.14.21.28,0,.14-.04.26-.19.29-.14.02-.28.03-.43.03-1.56,0-3.11,0-4.67,0-.13,0-.26,0-.38-.02-.17-.02-.25-.11-.25-.29,0-.16.06-.28.23-.3,1.05-.08,1.61-.8,2.02-1.65,1.04-2.15,1.92-4.36,2.87-6.54,1.38-3.18,2.74-6.37,4.11-9.55.11-.25.21-.43.55-.43.34,0,.44.19.54.44,2.17,5.12,4.34,10.24,6.51,15.37.14.34.32.67.48,1,.43.87,1.14,1.32,2.11,1.37.18,0,.39-.03.42.25.04.34-.18.37-.43.37-1.13,0-2.26,0-3.39,0Zm-6.96-14.34c-.08.11-.12.14-.13.17-.95,2.21-1.9,4.42-2.86,6.63-.14.32.03.32.26.32,1.75,0,3.51,0,5.26,0,.36,0,.36-.12.24-.4-.64-1.54-1.27-3.08-1.9-4.62-.28-.68-.56-1.36-.87-2.11Z"/><path class="cls-1" d="m172.31,44.17c0,.93,0,1.85,0,2.78,0,.2.01.41-.28.44-.3.02-.34-.16-.37-.4-.16-1.1-.46-2.14-1.09-3.08-1.16-1.72-3.36-2.19-4.93-1.7-1.21.38-1.93,1.24-2.12,2.5-.07.5.1.96.37,1.38.58.89,1.42,1.48,2.31,2,1.42.83,2.84,1.64,4.27,2.45.81.46,1.49,1.05,2.07,1.77,1.37,1.69,1.27,4.14-.2,5.82-1.09,1.25-2.49,1.81-4.1,1.96-1.44.13-2.81-.09-4.14-.66-.33-.14-.66-.27-1.02-.29-.54-.03-.75.1-.95.6-.02.04-.03.08-.04.12-.05.2-.17.29-.37.27-.24-.02-.24-.2-.24-.38,0-.93,0-1.85,0-2.78,0-.9,0-1.8,0-2.7,0-.18-.02-.38.26-.4.27-.01.29.15.31.36.28,2.61,2.03,4.36,4.68,4.71.86.11,1.68.07,2.47-.28,1.9-.84,2.38-2.96,1.03-4.54-.53-.61-1.16-1.1-1.86-1.5-1.45-.83-2.93-1.62-4.35-2.48-1.25-.76-2.24-1.78-2.62-3.25-.61-2.42.88-4.94,3.36-5.69,1.49-.45,2.96-.35,4.41.19.39.14.77.31,1.16.44.61.2,1.08,0,1.32-.59.09-.22.19-.34.43-.3.27.05.22.26.22.44,0,.93,0,1.85,0,2.78Z"/><path class="cls-1" d="m131.88,40.95c1.24-.11,2.53.36,3.8.94.81.38,1.09.26,1.45-.56.09-.21.16-.44.47-.38.28.06.23.3.25.48.13,1.76.25,3.52.37,5.29.01.21.15.48-.24.51-.35.03-.46-.13-.52-.46-.26-1.46-1-2.66-2.14-3.6-2.14-1.78-5.25-1.62-7.33.37-1.14,1.09-1.85,2.42-2.22,3.94-.56,2.28-.67,4.58.14,6.83.9,2.49,2.63,4.1,5.3,4.58,2.07.38,3.79-.31,5.28-1.72.56-.53,1.05-1.12,1.49-1.76.12-.18.22-.37.5-.2.29.17.17.34.05.53-1.2,1.93-2.75,3.49-4.99,4.07-3.07.8-5.88.11-8.33-1.94-4.72-3.96-4.43-11.96,1.63-15.64,1.49-.91,2.96-1.28,5.05-1.28Z"/><path class="cls-1" d="m116.54,41.37c1.17,0,2.34,0,3.51,0,.2,0,.5-.1.5.28,0,.34-.27.26-.47.29-.25.03-.51.06-.76.11-.76.17-1.14.57-1.24,1.33-.06.39-.09.79-.09,1.19,0,3.96,0,7.93,0,11.89,0,.4.03.8.09,1.19.13.9.66,1.32,1.75,1.42.14.01.29.01.43.02.18,0,.29.08.3.28,0,.23-.11.31-.31.31-.11,0-.23,0-.34,0-2.23,0-4.46,0-6.68,0-.13,0-.26,0-.39-.01-.18-.01-.3-.08-.3-.29,0-.22.11-.3.32-.31.23-.01.46-.02.68-.07,1.09-.2,1.48-.64,1.56-1.76.02-.23.01-.46.01-.68,0-4.05,0-8.1,0-12.15,0-.14,0-.29,0-.43-.02-1.41-.53-1.96-1.94-2.07-.09,0-.17,0-.26,0-.21,0-.37-.04-.36-.31,0-.25.18-.26.36-.26.2,0,.4,0,.6,0,1.01,0,2.03,0,3.04,0Z"/></g></svg>