<svg width="180" height="71" viewBox="0 0 180 71" fill="none" xmlns="http://www.w3.org/2000/svg">
<g id="Logos">
<path id="Vector" d="M47.0336 52.4618H50.6136V49.281H47.2698C44.4846 49.281 43.5037 47.7616 43.5037 45.1772V31.5807H50.9429V28.4922H43.5037V21.5342H40.0669V27.2923C40.0669 28.0733 39.5585 28.4922 38.907 28.4922H35.284V31.5807H39.8378V45.2198C39.8378 50.062 42.58 52.4547 47.0407 52.4547L47.0336 52.4618Z" fill="#4D4040"/>
<path id="Vector_2" d="M67.6616 53.0655C73.3323 53.0655 77.5638 49.8847 78.9099 45.4117H75.1008C73.9838 48.2233 70.9194 49.7427 67.7117 49.7427C62.7355 49.7427 59.6209 46.5619 59.4419 41.7694H79.1462V40.1577C79.1462 33.2423 74.7786 27.896 67.4324 27.896C60.8309 27.896 55.5826 32.8305 55.5826 40.4772C55.5826 47.6695 60.2796 53.0584 67.6687 53.0584L67.6616 53.0655ZM59.5278 38.546C59.9001 34.1227 63.387 31.2188 67.4324 31.2188C71.4778 31.2188 74.9146 33.7535 75.244 38.546H59.535H59.5278Z" fill="#4D4040"/>
<path id="Vector_3" d="M89.0485 52.4617H90.817V49.2383H89.7C88.5401 49.2383 87.9315 48.5496 87.9315 47.3497V17.8989H84.2584V47.3497C84.2584 50.6228 86.0269 52.4688 89.0485 52.4688V52.4617Z" fill="#4D4040"/>
<path id="Vector_4" d="M134.736 53.0655C140.357 53.0655 144.123 50.0267 144.123 45.504C144.123 35.5924 129.624 40.6618 129.624 34.5842C129.624 32.511 131.579 31.0342 134.6 31.0342C137.808 31.0342 139.526 32.5536 139.856 34.8114H143.386C143.013 30.4804 139.297 27.896 134.837 27.896C129.767 27.896 126.101 30.523 126.101 34.5771C126.101 44.0698 140.558 38.9578 140.558 45.6815C140.558 48.1239 138.56 49.8776 134.937 49.8776C131.314 49.8776 129.359 48.3582 128.944 45.4969H125.364C125.779 49.9699 129.037 53.0584 134.751 53.0584L134.736 53.0655Z" fill="#4D4040"/>
<path id="Vector_5" d="M107.772 53.1011C114.854 53.1011 120.595 47.408 120.595 40.385C120.595 33.3621 114.854 27.6689 107.772 27.6689C100.69 27.6689 94.9483 33.3621 94.9483 40.385C94.9483 47.408 100.69 53.1011 107.772 53.1011Z" fill="url(#paint0_linear_1276_37464)"/>
<path id="Vector_6" d="M107.772 52.7245C114.645 52.7245 120.216 47.1998 120.216 40.3847C120.216 33.5696 114.645 28.0449 107.772 28.0449C100.899 28.0449 95.3278 33.5696 95.3278 40.3847C95.3278 47.1998 100.899 52.7245 107.772 52.7245Z" stroke="url(#paint1_linear_1276_37464)" stroke-opacity="0.12" stroke-width="0.51"/>
</g>
<defs>
<linearGradient id="paint0_linear_1276_37464" x1="94.9555" y1="40.385" x2="120.595" y2="40.385" gradientUnits="userSpaceOnUse">
<stop stop-color="#4E3F3F"/>
<stop offset="1" stop-color="white" stop-opacity="0"/>
</linearGradient>
<linearGradient id="paint1_linear_1276_37464" x1="120.402" y1="40.3847" x2="95.1488" y2="40.3847" gradientUnits="userSpaceOnUse">
<stop stop-color="white"/>
<stop offset="1" stop-color="white" stop-opacity="0"/>
</linearGradient>
</defs>
</svg>
