<svg width="180" height="71" viewBox="0 0 180 71" fill="none" xmlns="http://www.w3.org/2000/svg">
<g id="Logos">
<path id="Vector" d="M47.0336 52.4619H50.6136V49.2811H47.2698C44.4846 49.2811 43.5037 47.7617 43.5037 45.1773V31.5808H50.9429V28.4923H43.5037V21.5343H40.0669V27.2924C40.0669 28.0734 39.5585 28.4923 38.907 28.4923H35.284V31.5808H39.8378V45.2199C39.8378 50.0621 42.58 52.4548 47.0407 52.4548L47.0336 52.4619Z" fill="#FAFAFA"/>
<path id="Vector_2" d="M67.6616 53.0654C73.3323 53.0654 77.5638 49.8846 78.9099 45.4116H75.1008C73.9838 48.2232 70.9194 49.7426 67.7117 49.7426C62.7355 49.7426 59.6209 46.5618 59.4419 41.7693H79.1462V40.1576C79.1462 33.2422 74.7786 27.8959 67.4324 27.8959C60.8309 27.8959 55.5826 32.8304 55.5826 40.4771C55.5826 47.6694 60.2796 53.0583 67.6687 53.0583L67.6616 53.0654ZM59.5278 38.5459C59.9001 34.1226 63.387 31.2187 67.4324 31.2187C71.4778 31.2187 74.9146 33.7534 75.244 38.5459H59.535H59.5278Z" fill="#FAFAFA"/>
<path id="Vector_3" d="M89.0485 52.4618H90.817V49.2384H89.7C88.5401 49.2384 87.9315 48.5497 87.9315 47.3498V17.899H84.2584V47.3498C84.2584 50.6229 86.0269 52.4689 89.0485 52.4689V52.4618Z" fill="#FAFAFA"/>
<path id="Vector_4" d="M134.736 53.0654C140.357 53.0654 144.123 50.0266 144.123 45.5039C144.123 35.5923 129.624 40.6617 129.624 34.5841C129.624 32.5109 131.579 31.0341 134.6 31.0341C137.808 31.0341 139.526 32.5535 139.856 34.8113H143.386C143.013 30.4803 139.297 27.8959 134.837 27.8959C129.767 27.8959 126.101 30.5229 126.101 34.577C126.101 44.0697 140.558 38.9577 140.558 45.6814C140.558 48.1238 138.56 49.8775 134.937 49.8775C131.314 49.8775 129.359 48.3581 128.944 45.4968H125.364C125.779 49.9698 129.037 53.0583 134.751 53.0583L134.736 53.0654Z" fill="#FAFAFA"/>
<path id="Vector_5" d="M107.772 53.1009C114.854 53.1009 120.595 47.4077 120.595 40.3848C120.595 33.3619 114.854 27.6687 107.772 27.6687C100.69 27.6687 94.9483 33.3619 94.9483 40.3848C94.9483 47.4077 100.69 53.1009 107.772 53.1009Z" fill="url(#paint0_linear_300_13077)"/>
<path id="Vector_6" d="M107.772 52.7246C114.645 52.7246 120.216 47.1999 120.216 40.3848C120.216 33.5698 114.645 28.045 107.772 28.045C100.899 28.045 95.3278 33.5698 95.3278 40.3848C95.3278 47.1999 100.899 52.7246 107.772 52.7246Z" stroke="url(#paint1_linear_300_13077)" stroke-opacity="0.12" stroke-width="0.51"/>
</g>
<defs>
<linearGradient id="paint0_linear_300_13077" x1="94.9555" y1="40.3848" x2="120.595" y2="40.3848" gradientUnits="userSpaceOnUse">
<stop stop-color="white"/>
<stop offset="1" stop-color="white" stop-opacity="0"/>
</linearGradient>
<linearGradient id="paint1_linear_300_13077" x1="120.402" y1="40.3848" x2="95.1488" y2="40.3848" gradientUnits="userSpaceOnUse">
<stop stop-color="white"/>
<stop offset="1" stop-color="white" stop-opacity="0"/>
</linearGradient>
</defs>
</svg>
