<svg xmlns="http://www.w3.org/2000/svg" xmlns:xlink="http://www.w3.org/1999/xlink" viewBox="0 0 230 305"><defs><style>.cls-1{fill:none;}.cls-2{isolation:isolate;}.cls-3{fill:#b8b3b3;}.cls-4{clip-path:url(#clip-path);}.cls-5{fill:url(#Naamloos_verloop_522);}.cls-6{opacity:0.5;}.cls-7{clip-path:url(#clip-path-2);}.cls-8{fill:#239ee2;}.cls-9{fill:#218fcc;}.cls-10{fill:#156aaf;}.cls-11{fill:#10579e;}.cls-12{opacity:0.36;}.cls-13{clip-path:url(#clip-path-3);}.cls-14{fill:#50b6e2;}.cls-15{fill:#3379a8;}.cls-16,.cls-17,.cls-18,.cls-19,.cls-20,.cls-21,.cls-22,.cls-23,.cls-24,.cls-25,.cls-26,.cls-27,.cls-28,.cls-29,.cls-30,.cls-31,.cls-32,.cls-33,.cls-34,.cls-35,.cls-36,.cls-37,.cls-38,.cls-39,.cls-40,.cls-41,.cls-42,.cls-43,.cls-44,.cls-45,.cls-46,.cls-47,.cls-48,.cls-49,.cls-50,.cls-51,.cls-52,.cls-53,.cls-54,.cls-55,.cls-56,.cls-57,.cls-58,.cls-59,.cls-60,.cls-61,.cls-62{opacity:0.35;}.cls-16{fill:url(#Naamloos_verloop_500);}.cls-17{fill:url(#Naamloos_verloop_500-2);}.cls-18{fill:url(#Naamloos_verloop_500-3);}.cls-19{fill:url(#Naamloos_verloop_500-4);}.cls-20{fill:url(#Naamloos_verloop_500-5);}.cls-21{fill:url(#Naamloos_verloop_500-6);}.cls-22{fill:url(#Naamloos_verloop_500-7);}.cls-23{fill:url(#Naamloos_verloop_500-8);}.cls-24{fill:url(#Naamloos_verloop_500-9);}.cls-25{fill:url(#Naamloos_verloop_500-10);}.cls-26{fill:url(#Naamloos_verloop_500-11);}.cls-27{fill:url(#Naamloos_verloop_500-12);}.cls-28{fill:url(#Naamloos_verloop_500-13);}.cls-29{fill:url(#Naamloos_verloop_500-14);}.cls-30{fill:url(#Naamloos_verloop_500-15);}.cls-31{fill:url(#Naamloos_verloop_500-16);}.cls-32{fill:url(#Naamloos_verloop_500-17);}.cls-33{fill:url(#Naamloos_verloop_500-18);}.cls-34{fill:url(#Naamloos_verloop_500-19);}.cls-35{fill:url(#Naamloos_verloop_500-20);}.cls-36{fill:url(#Naamloos_verloop_500-21);}.cls-37{fill:url(#Naamloos_verloop_500-22);}.cls-38{fill:url(#Naamloos_verloop_500-23);}.cls-39{fill:url(#Naamloos_verloop_500-24);}.cls-40{fill:url(#Naamloos_verloop_500-25);}.cls-41{fill:url(#Naamloos_verloop_500-26);}.cls-42{fill:url(#Naamloos_verloop_500-27);}.cls-43{fill:url(#Naamloos_verloop_500-28);}.cls-44{fill:url(#Naamloos_verloop_500-29);}.cls-45{fill:url(#Naamloos_verloop_500-30);}.cls-46{fill:url(#Naamloos_verloop_500-31);}.cls-47{fill:url(#Naamloos_verloop_500-32);}.cls-48{fill:url(#Naamloos_verloop_500-33);}.cls-49{fill:url(#Naamloos_verloop_500-34);}.cls-50{fill:url(#Naamloos_verloop_500-35);}.cls-51{fill:url(#Naamloos_verloop_500-36);}.cls-52{fill:url(#Naamloos_verloop_500-37);}.cls-53{fill:url(#Naamloos_verloop_500-38);}.cls-54{fill:url(#Naamloos_verloop_500-39);}.cls-55{fill:url(#Naamloos_verloop_500-40);}.cls-56{fill:url(#Naamloos_verloop_500-41);}.cls-57{fill:url(#Naamloos_verloop_500-42);}.cls-58{fill:url(#Naamloos_verloop_500-43);}.cls-59{fill:url(#Naamloos_verloop_500-44);}.cls-60{fill:url(#Naamloos_verloop_500-45);}.cls-61{fill:url(#Naamloos_verloop_500-46);}.cls-62{fill:url(#Naamloos_verloop_500-47);}.cls-63{fill:#5d48a5;}.cls-64{fill:#51419b;}.cls-65{fill:#323288;}.cls-66{fill:#2a287c;}.cls-67{fill:url(#Naamloos_verloop_123);}.cls-68{fill:#2e3082;}.cls-69{fill:url(#Naamloos_verloop_89);}.cls-70{fill:url(#Naamloos_verloop_73);}.cls-71{fill:url(#Naamloos_verloop_65);}.cls-72{fill:url(#Naamloos_verloop_53);}.cls-73{fill:url(#Naamloos_verloop_75);}.cls-74{fill:url(#Naamloos_verloop_54);}.cls-75{fill:url(#Naamloos_verloop_111);}.cls-76{fill:url(#Naamloos_verloop_111-2);}.cls-77{fill:url(#Naamloos_verloop_78);}.cls-78{fill:#0071bc;}.cls-79{fill:url(#Naamloos_verloop_102);}.cls-80{fill:url(#Naamloos_verloop_95);}.cls-81{fill:url(#Naamloos_verloop_98);}.cls-82{fill:url(#Naamloos_verloop_111-3);}.cls-83{fill:#d6e8f4;}.cls-84{mix-blend-mode:lighten;fill:url(#Naamloos_verloop_8);}.cls-84,.cls-85{opacity:0.4;}.cls-85{mix-blend-mode:soft-light;fill:url(#Naamloos_verloop_8-2);}.cls-86,.cls-87,.cls-90{mix-blend-mode:multiply;}.cls-86{opacity:0.18;fill:url(#Naamloos_verloop_12);}.cls-87,.cls-89{opacity:0.15;}.cls-87{fill:url(#Naamloos_verloop_16);}.cls-88{opacity:0.1;fill:url(#Naamloos_verloop_16-2);}.cls-89{fill:url(#Naamloos_verloop_16-3);}.cls-90{opacity:0.2;fill:url(#Naamloos_verloop_16-4);}.cls-91{fill:url(#Naamloos_verloop_119);}.cls-92{mix-blend-mode:overlay;opacity:0.49;fill:url(#Naamloos_verloop_6);}</style><clipPath id="clip-path"><path class="cls-1" d="M42,0H230V253H62a20,20,0,0,1-20-20Z"/></clipPath><linearGradient id="Naamloos_verloop_522" x1="145.61" y1="256.92" x2="128.85" y2="-1.81" gradientUnits="userSpaceOnUse"><stop offset="0" stop-color="#450e6d"/><stop offset="1" stop-color="#45278d"/></linearGradient><clipPath id="clip-path-2"><circle class="cls-1" cx="210.66" cy="43.4" r="53.81"/></clipPath><clipPath id="clip-path-3"><circle class="cls-1" cx="91.45" cy="218.08" r="72.54"/></clipPath><radialGradient id="Naamloos_verloop_500" cx="-1636.09" cy="1993.94" r="3.28" gradientTransform="matrix(-0.73, -0.23, 0.23, -0.73, -1595.54, 1120.06)" gradientUnits="userSpaceOnUse"><stop offset="0" stop-color="#e6e636"/><stop offset="0.07" stop-color="#e8e83c" stop-opacity="0.88"/><stop offset="0.2" stop-color="#ebeb45" stop-opacity="0.67"/><stop offset="0.33" stop-color="#eded4d" stop-opacity="0.5"/><stop offset="0.46" stop-color="#efef53" stop-opacity="0.37"/><stop offset="0.59" stop-color="#f1f157" stop-opacity="0.28"/><stop offset="0.71" stop-color="#f2f25a" stop-opacity="0.22"/><stop offset="0.82" stop-color="#f2f25b" stop-opacity="0.2"/><stop offset="0.85" stop-color="#f2f25b" stop-opacity="0.15"/><stop offset="0.9" stop-color="#f2f25b" stop-opacity="0.07"/><stop offset="0.95" stop-color="#f2f25b" stop-opacity="0.02"/><stop offset="1" stop-color="#f2f25b" stop-opacity="0"/></radialGradient><radialGradient id="Naamloos_verloop_500-2" cx="-1639.11" cy="1952.95" r="3.28" xlink:href="#Naamloos_verloop_500"/><radialGradient id="Naamloos_verloop_500-3" cx="-1666.8" cy="1983.81" r="3.28" xlink:href="#Naamloos_verloop_500"/><radialGradient id="Naamloos_verloop_500-4" cx="-1725.61" cy="2041.38" r="3.28" xlink:href="#Naamloos_verloop_500"/><radialGradient id="Naamloos_verloop_500-5" cx="-1665.06" cy="1906.12" r="3.28" xlink:href="#Naamloos_verloop_500"/><radialGradient id="Naamloos_verloop_500-6" cx="-1713.65" cy="1959.1" r="3.28" xlink:href="#Naamloos_verloop_500"/><radialGradient id="Naamloos_verloop_500-7" cx="-1813.61" cy="1866.69" r="1.84" xlink:href="#Naamloos_verloop_500"/><radialGradient id="Naamloos_verloop_500-8" cx="-1672.37" cy="1902.56" r="1.84" xlink:href="#Naamloos_verloop_500"/><radialGradient id="Naamloos_verloop_500-9" cx="-1626.94" cy="2012.32" r="3.42" xlink:href="#Naamloos_verloop_500"/><radialGradient id="Naamloos_verloop_500-10" cx="-1493.37" cy="-505.23" r="1.87" gradientTransform="matrix(0.16, 0.75, -0.75, 0.16, -47.75, 1224.42)" xlink:href="#Naamloos_verloop_500"/><radialGradient id="Naamloos_verloop_500-11" cx="-1452.79" cy="-486.7" r="1.87" gradientTransform="matrix(0.16, 0.75, -0.75, 0.16, -47.75, 1224.42)" xlink:href="#Naamloos_verloop_500"/><radialGradient id="Naamloos_verloop_500-12" cx="-1417.41" cy="-466.23" r="1.87" gradientTransform="matrix(0.16, 0.75, -0.75, 0.16, -47.75, 1224.42)" xlink:href="#Naamloos_verloop_500"/><radialGradient id="Naamloos_verloop_500-13" cx="-1432.16" cy="-471.53" r="1.87" gradientTransform="matrix(0.16, 0.75, -0.75, 0.16, -47.75, 1224.42)" xlink:href="#Naamloos_verloop_500"/><radialGradient id="Naamloos_verloop_500-14" cx="-1429.45" cy="-462.2" r="1.87" gradientTransform="matrix(0.16, 0.75, -0.75, 0.16, -47.75, 1224.42)" xlink:href="#Naamloos_verloop_500"/><radialGradient id="Naamloos_verloop_500-15" cx="-1849.2" cy="1873.43" r="3.28" xlink:href="#Naamloos_verloop_500"/><radialGradient id="Naamloos_verloop_500-16" cx="-1852.22" cy="1832.44" r="3.28" xlink:href="#Naamloos_verloop_500"/><radialGradient id="Naamloos_verloop_500-17" cx="-1879.92" cy="1863.3" r="3.28" xlink:href="#Naamloos_verloop_500"/><radialGradient id="Naamloos_verloop_500-18" cx="-1242.86" cy="-612.67" r="1.87" gradientTransform="matrix(0.16, 0.75, -0.75, 0.16, -47.75, 1224.42)" xlink:href="#Naamloos_verloop_500"/><radialGradient id="Naamloos_verloop_500-19" cx="-1498.86" cy="-503.08" r="3.42" gradientTransform="matrix(0.16, 0.75, -0.75, 0.16, -47.75, 1224.42)" xlink:href="#Naamloos_verloop_500"/><radialGradient id="Naamloos_verloop_500-20" cx="-1405.07" cy="-549.54" r="3.42" gradientTransform="matrix(0.16, 0.75, -0.75, 0.16, -47.75, 1224.42)" xlink:href="#Naamloos_verloop_500"/><radialGradient id="Naamloos_verloop_500-21" cx="2070.26" cy="707.16" r="3.28" gradientTransform="matrix(0.61, -0.47, 0.47, 0.61, -1477.28, 654.59)" xlink:href="#Naamloos_verloop_500"/><radialGradient id="Naamloos_verloop_500-22" cx="2039.55" cy="697.04" r="3.28" gradientTransform="matrix(0.61, -0.47, 0.47, 0.61, -1477.28, 654.59)" xlink:href="#Naamloos_verloop_500"/><radialGradient id="Naamloos_verloop_500-23" cx="2066.24" cy="726.87" r="1.84" gradientTransform="matrix(0.61, -0.47, 0.47, 0.61, -1477.28, 654.59)" xlink:href="#Naamloos_verloop_500"/><radialGradient id="Naamloos_verloop_500-24" cx="2079.41" cy="725.55" r="3.42" gradientTransform="matrix(0.61, -0.47, 0.47, 0.61, -1477.28, 654.59)" xlink:href="#Naamloos_verloop_500"/><radialGradient id="Naamloos_verloop_500-25" cx="-1048.04" cy="-1674.16" r="3.28" gradientTransform="matrix(-0.61, -0.47, -0.47, 0.61, -1273.07, 654.59)" xlink:href="#Naamloos_verloop_500"/><radialGradient id="Naamloos_verloop_500-26" cx="-1052.06" cy="-1654.45" r="1.84" gradientTransform="matrix(-0.61, -0.47, -0.47, 0.61, -1273.07, 654.59)" xlink:href="#Naamloos_verloop_500"/><radialGradient id="Naamloos_verloop_500-27" cx="-1038.9" cy="-1655.78" r="3.42" gradientTransform="matrix(-0.61, -0.47, -0.47, 0.61, -1273.07, 654.59)" xlink:href="#Naamloos_verloop_500"/><radialGradient id="Naamloos_verloop_500-28" cx="-2433.76" cy="567.45" r="3.28" gradientTransform="matrix(-0.64, 0.43, 0.43, 0.64, -1580.74, 829.5)" xlink:href="#Naamloos_verloop_500"/><radialGradient id="Naamloos_verloop_500-29" cx="-2424.61" cy="585.84" r="3.42" gradientTransform="matrix(-0.64, 0.43, 0.43, 0.64, -1580.74, 829.5)" xlink:href="#Naamloos_verloop_500"/><radialGradient id="Naamloos_verloop_500-30" cx="-2201.7" cy="3353.67" r="1.87" gradientTransform="matrix(-0.71, -0.29, 0.29, -0.71, -2448.19, 1864.5)" xlink:href="#Naamloos_verloop_500"/><radialGradient id="Naamloos_verloop_500-31" cx="-2207.19" cy="3355.82" r="3.42" gradientTransform="matrix(-0.71, -0.29, 0.29, -0.71, -2448.19, 1864.5)" xlink:href="#Naamloos_verloop_500"/><radialGradient id="Naamloos_verloop_500-32" cx="-1947.41" cy="-800.34" r="3.28" gradientTransform="matrix(-0.35, 0.69, -0.69, -0.35, -1025.4, 1295.85)" xlink:href="#Naamloos_verloop_500"/><radialGradient id="Naamloos_verloop_500-33" cx="-1978.13" cy="-810.46" r="3.28" gradientTransform="matrix(-0.35, 0.69, -0.69, -0.35, -1025.4, 1295.85)" xlink:href="#Naamloos_verloop_500"/><radialGradient id="Naamloos_verloop_500-34" cx="-1951.43" cy="-780.63" r="1.84" gradientTransform="matrix(-0.35, 0.69, -0.69, -0.35, -1025.4, 1295.85)" xlink:href="#Naamloos_verloop_500"/><radialGradient id="Naamloos_verloop_500-35" cx="-1938.26" cy="-781.96" r="3.42" gradientTransform="matrix(-0.35, 0.69, -0.69, -0.35, -1025.4, 1295.85)" xlink:href="#Naamloos_verloop_500"/><radialGradient id="Naamloos_verloop_500-36" cx="1085.54" cy="604.06" r="3.42" gradientTransform="matrix(0.77, -0.04, 0.04, 0.77, -663.48, -212.65)" xlink:href="#Naamloos_verloop_500"/><radialGradient id="Naamloos_verloop_500-37" cx="1938.87" cy="1255.59" r="3.28" gradientTransform="matrix(0.49, -0.59, 0.59, 0.49, -1588.71, 544.72)" xlink:href="#Naamloos_verloop_500"/><radialGradient id="Naamloos_verloop_500-38" cx="-2637.96" cy="2990.65" r="1.87" gradientTransform="matrix(-0.76, -0.14, 0.14, -0.76, -2285.37, 1930.8)" xlink:href="#Naamloos_verloop_500"/><radialGradient id="Naamloos_verloop_500-39" cx="-2727.37" cy="2863.07" r="1.87" gradientTransform="matrix(-0.76, -0.14, 0.14, -0.76, -2285.37, 1930.8)" xlink:href="#Naamloos_verloop_500"/><radialGradient id="Naamloos_verloop_500-40" cx="-2644.29" cy="2993.65" r="2.65" gradientTransform="matrix(-0.76, -0.14, 0.14, -0.76, -2285.37, 1930.8)" xlink:href="#Naamloos_verloop_500"/><radialGradient id="Naamloos_verloop_500-41" cx="-1120.75" cy="2437" r="3.28" gradientTransform="matrix(-0.59, -0.49, 0.49, -0.59, -1652.71, 1008.77)" xlink:href="#Naamloos_verloop_500"/><radialGradient id="Naamloos_verloop_500-42" cx="-2135.82" cy="-174.12" r="1.87" gradientTransform="matrix(-0.13, 0.76, -0.76, -0.13, -262, 1696.13)" xlink:href="#Naamloos_verloop_500"/><radialGradient id="Naamloos_verloop_500-43" cx="-2141.32" cy="-171.97" r="3.42" gradientTransform="matrix(-0.13, 0.76, -0.76, -0.13, -262, 1696.13)" xlink:href="#Naamloos_verloop_500"/><radialGradient id="Naamloos_verloop_500-44" cx="2068.85" cy="544.61" r="3.28" gradientTransform="matrix(0.68, -0.35, 0.35, 0.68, -1426.75, 479.62)" xlink:href="#Naamloos_verloop_500"/><radialGradient id="Naamloos_verloop_500-45" cx="-2083.54" cy="3454.33" r="1.87" gradientTransform="matrix(-0.64, -0.42, 0.42, -0.64, -2599.81, 1494.75)" xlink:href="#Naamloos_verloop_500"/><radialGradient id="Naamloos_verloop_500-46" cx="-2089.87" cy="3457.33" r="2.65" gradientTransform="matrix(-0.64, -0.42, 0.42, -0.64, -2599.81, 1494.75)" xlink:href="#Naamloos_verloop_500"/><radialGradient id="Naamloos_verloop_500-47" cx="-2661.44" cy="2933.52" r="3.42" gradientTransform="matrix(-0.76, -0.14, 0.14, -0.76, -2285.37, 1930.8)" xlink:href="#Naamloos_verloop_500"/><linearGradient id="Naamloos_verloop_123" x1="59.29" y1="252.34" x2="139.79" y2="166.59" gradientUnits="userSpaceOnUse"><stop offset="0" stop-color="#3a469b"/><stop offset="1" stop-color="#5b3e95"/></linearGradient><linearGradient id="Naamloos_verloop_89" x1="86.92" y1="82.63" x2="97.25" y2="0.5" gradientUnits="userSpaceOnUse"><stop offset="0" stop-color="#11d6f0"/><stop offset="1" stop-color="#01f1f9"/></linearGradient><linearGradient id="Naamloos_verloop_73" x1="227.61" y1="194.77" x2="157.59" y2="115.39" gradientUnits="userSpaceOnUse"><stop offset="0" stop-color="#087cc3"/><stop offset="1" stop-color="#29abe2"/></linearGradient><linearGradient id="Naamloos_verloop_65" x1="233.7" y1="220.98" x2="121.54" y2="41.52" gradientUnits="userSpaceOnUse"><stop offset="0" stop-color="#0071bc"/><stop offset="0.58" stop-color="#29abe2"/><stop offset="0.67" stop-color="#26b0e4"/><stop offset="0.78" stop-color="#1ebfe8"/><stop offset="0.9" stop-color="#10d7f0"/><stop offset="1" stop-color="#01f1f9"/></linearGradient><linearGradient id="Naamloos_verloop_53" x1="209.39" y1="199.26" x2="152.2" y2="257.76" gradientUnits="userSpaceOnUse"><stop offset="0" stop-color="#0c82c7"/><stop offset="1" stop-color="aqua"/></linearGradient><linearGradient id="Naamloos_verloop_75" x1="174.46" y1="141.88" x2="151.71" y2="13.13" gradientUnits="userSpaceOnUse"><stop offset="0" stop-color="#209fda"/><stop offset="1" stop-color="#43c2ff"/></linearGradient><linearGradient id="Naamloos_verloop_54" x1="136" y1="240.2" x2="208" y2="185.83" gradientUnits="userSpaceOnUse"><stop offset="0" stop-color="#43c2ff"/><stop offset="1" stop-color="#1a96d4"/></linearGradient><linearGradient id="Naamloos_verloop_111" x1="69.86" y1="225.47" x2="119.11" y2="256.97" gradientUnits="userSpaceOnUse"><stop offset="0" stop-color="#c2b49f"/><stop offset="0.17" stop-color="#c6b8a5"/><stop offset="0.39" stop-color="#d1c2b5"/><stop offset="0.4" stop-color="#d1c2b6"/><stop offset="1" stop-color="#a1939b"/></linearGradient><linearGradient id="Naamloos_verloop_111-2" x1="133.04" y1="181.25" x2="181.79" y2="230" xlink:href="#Naamloos_verloop_111"/><linearGradient id="Naamloos_verloop_78" x1="35.7" y1="155.33" x2="80.89" y2="112.58" gradientUnits="userSpaceOnUse"><stop offset="0" stop-color="#bfb5a0"/><stop offset="0.18" stop-color="#c1b8a6"/><stop offset="0.4" stop-color="#c7c1b5"/><stop offset="1" stop-color="#939099"/></linearGradient><linearGradient id="Naamloos_verloop_102" x1="87.61" y1="216.41" x2="130.36" y2="184.78" gradientUnits="userSpaceOnUse"><stop offset="0" stop-color="#504c80"/><stop offset="0.48" stop-color="#58568b"/><stop offset="1" stop-color="#5b5a8f"/></linearGradient><linearGradient id="Naamloos_verloop_95" x1="53.61" y1="150.85" x2="82.24" y2="120.98" gradientUnits="userSpaceOnUse"><stop offset="0" stop-color="#343970"/><stop offset="0" stop-color="#343970"/><stop offset="0.51" stop-color="#41457c"/><stop offset="1" stop-color="#454980"/></linearGradient><linearGradient id="Naamloos_verloop_98" x1="58.69" y1="147.83" x2="73.22" y2="128.89" gradientUnits="userSpaceOnUse"><stop offset="0.14" stop-color="#6091e1"/><stop offset="1" stop-color="#357dd3"/></linearGradient><linearGradient id="Naamloos_verloop_111-3" x1="108.36" y1="219.47" x2="140.11" y2="215.97" xlink:href="#Naamloos_verloop_111"/><linearGradient id="Naamloos_verloop_8" x1="72.03" y1="120.41" x2="81.41" y2="102.84" gradientUnits="userSpaceOnUse"><stop offset="0" stop-color="#f2f2f2" stop-opacity="0"/><stop offset="1" stop-color="#f2f2f2"/></linearGradient><linearGradient id="Naamloos_verloop_8-2" x1="107.56" y1="187.41" x2="149.37" y2="187.41" xlink:href="#Naamloos_verloop_8"/><linearGradient id="Naamloos_verloop_12" x1="58.28" y1="186.63" x2="103.42" y2="154.04" gradientUnits="userSpaceOnUse"><stop offset="0" stop-color="#59221d"/><stop offset="1" stop-color="#752a2d"/></linearGradient><linearGradient id="Naamloos_verloop_16" x1="102.25" y1="238.07" x2="75.5" y2="201.07" gradientUnits="userSpaceOnUse"><stop offset="0"/><stop offset="1" stop-opacity="0.5"/></linearGradient><linearGradient id="Naamloos_verloop_16-2" x1="146.44" y1="206.78" x2="120.9" y2="171.46" xlink:href="#Naamloos_verloop_16"/><linearGradient id="Naamloos_verloop_16-3" x1="127.67" y1="218.87" x2="101.43" y2="182.58" xlink:href="#Naamloos_verloop_16"/><linearGradient id="Naamloos_verloop_16-4" x1="124.89" y1="240.89" x2="108.57" y2="204.89" xlink:href="#Naamloos_verloop_16"/><linearGradient id="Naamloos_verloop_119" x1="32.01" y1="87.44" x2="39.13" y2="82.94" gradientUnits="userSpaceOnUse"><stop offset="0" stop-color="#2c3371"/><stop offset="0.21" stop-color="#313877"/><stop offset="0.4" stop-color="#3b4281"/><stop offset="1" stop-color="#20296b"/></linearGradient><linearGradient id="Naamloos_verloop_6" x1="58.69" y1="147.83" x2="73.22" y2="128.89" gradientUnits="userSpaceOnUse"><stop offset="0.14" stop-color="#61abdb"/><stop offset="1" stop-color="#239fb6"/></linearGradient></defs><g class="cls-2"><g id="monke"><path class="cls-3" d="M42,.05H230v253H62a20,20,0,0,1-20-20Z"/><g class="cls-4"><rect class="cls-5" x="42" y="-11.66" width="189.7" height="266.61"/><g class="cls-6"><g class="cls-7"><path class="cls-8" d="M188.16,92.59s18.67,7.94,24.7,8,24.8-8,24.8-8l14.75-10.06,3.44-9.48-26.42,1.34L199.07,83Z"/><path class="cls-9" d="M186.05,93.45s15.71-.67,20.3-4,11.59-11.59,25.18-12.93,26.14-1.24,26.14-1.24l1.54-8-49.32,1.34-16.47,13.6-11.77,6.51v2.77Z"/><path class="cls-10" d="M164.13,73.5s5.23,8.27,10.34,13,15.95,5.11,23.1-.76S210,69.38,225.41,68.62,261,70,261,70l6.89-21.91-2.17-7.27-40.7,10.89-41.39,7Z"/><path class="cls-11" d="M159.72,70.47s7.37,8.81,22.41,1.44,16.74-13.7,28.43-14.65,31.32,2.58,38-1.54S267,41.07,267,41.07l-3.35-7.75L192.28,47.58,173.8,51.8l-12.16,9.48Z"/><path class="cls-10" d="M151.28,51.68s4,16.87,5.57,18.21,10.53-15.38,30.26-16.69,48.45-.16,60.32-5.52,22.4-14.36,22.4-14.36L259.88,10l-8-3.63L207,20.49,166.81,32.17Z"/><path class="cls-9" d="M149.41,19s-8.27,29.3-4.24,33.52,16.85-10.92,29.3-14,30.25-1,54.38-11.3S256.24,6.7,256.24,6.7L244.94-5.56l-53.43,6.7Z"/><path class="cls-8" d="M145.17,14.17s5.55,13.4,30.25,6.12S196.68,2.87,222,1,257.2-1,257.2-1s-9.58-26.24-35.82-24.32S148.8-17.24,145.17,14.17Z"/></g></g><g class="cls-12"><g class="cls-13"><circle class="cls-14" cx="91.45" cy="218.08" r="72.54"/><path class="cls-15" d="M29.58,258.14s-4.1-37,9-37.9,1.68,9.34,8.81,11.91,12.43,12.6,20.53,2.45,16.42-9.2,14.35-22.88-2.58-18.41-13.19-24.56-4.16-28.57-18.33-25.43A30.36,30.36,0,0,0,31,175.63s-12.87,14.9-17.82,9.26-3.73-11-13.62-11.51-5.27.54-14,3S-23.16,184-23.16,184L-4.8,230.62Z"/><path class="cls-15" d="M118.4,185.47c-3.42-.65-9.73-4.1-11.6-1.24a73.45,73.45,0,0,0-4.14,6.34c-2.83,4.79-3.11,4.76-6.14,5.94s-7.26,3.26-5.16,6.29,5.69,2.36,5.46,7.34,2.1,5.9-.52,9.16-7.5,2.19-5.16,5.53,3.18,6,7.69,5.78,9.74-3.59,9.74-3.59,0-.91,1.45-5.69,6-6.36,7.79-6.83,4.14,1,6.18-2.3.77-3.27,2.3-8.61,4.62-1.77,3.53-7S123.27,186.38,118.4,185.47Z"/><path class="cls-15" d="M68.21,274.09c3.8,3.58,9,13.07,13.65,11s2.93-.9,10.39-4.66,7.79-3.49,12.6-2.52,11.81,1.78,11.62-3.75-5.28-7.62-1-13.72,2.14-9.16,8.1-11.16,11.26,3.32,11-2.81.86-10.15-5-13.54-15.23-3.37-15.23-3.37-.73,1.16-6.45,6-12.71,3.2-15.39,2.32-4.39-4.69-9.68-2.11-3.63,3.5-9.89,9-7.29-1.52-10.18,6S62.8,269,68.21,274.09Z"/></g></g><rect class="cls-5" x="42" y="-11.66" width="189.7" height="266.61"/><circle class="cls-16" cx="58.7" cy="28.77" r="2.73"/><circle class="cls-17" cx="51.6" cy="59.54" r="2.73"/><circle class="cls-18" cx="78.94" cy="43.18" r="2.73"/><circle class="cls-19" cx="135.2" cy="14.31" r="2.73"/><circle class="cls-20" cx="59.99" cy="99.81" r="2.73"/><circle class="cls-21" cx="107.71" cy="71.97" r="2.73"/><circle class="cls-22" cx="160.06" cy="162.55" r="1.54"/><circle class="cls-23" cx="64.56" cy="104.1" r="1.54"/><circle class="cls-24" cx="56.17" cy="13.19" r="2.86"/><circle class="cls-25" cx="86.48" cy="20.59" r="1.56"/><circle class="cls-26" cx="79.23" cy="54.09" r="1.56"/><circle class="cls-27" cx="69.67" cy="84" r="1.56"/><circle class="cls-28" cx="71.23" cy="72.06" r="1.56"/><circle class="cls-29" cx="64.67" cy="75.63" r="1.56"/><circle class="cls-30" cx="187.7" cy="165.68" r="2.73"/><circle class="cls-31" cx="180.6" cy="196.45" r="2.73"/><circle class="cls-32" cx="207.94" cy="180.1" r="2.73"/><circle class="cls-33" cx="208.23" cy="191" r="1.56"/><circle class="cls-34" cx="83.96" cy="16.83" r="2.86"/><circle class="cls-35" cx="134.22" cy="79.61" r="2.86"/><circle class="cls-36" cx="111.79" cy="106.39" r="2.73"/><circle class="cls-37" cx="88.39" cy="114.75" r="2.73"/><circle class="cls-38" cx="118.63" cy="120.24" r="1.54"/><circle class="cls-39" cx="126.01" cy="113.22" r="2.86"/><circle class="cls-40" cx="152.43" cy="134.04" r="2.73"/><circle class="cls-41" cx="145.59" cy="147.89" r="1.54"/><circle class="cls-42" cx="138.21" cy="140.87" r="2.86"/><circle class="cls-43" cx="213.06" cy="144.61" r="2.73"/><circle class="cls-44" cx="215.14" cy="160.25" r="2.86"/><circle class="cls-45" cx="102.61" cy="133.86" r="1.56"/><circle class="cls-46" cx="107.13" cy="133.93" r="2.86"/><circle class="cls-47" cx="199.07" cy="238.68" r="2.73"/><circle class="cls-48" cx="216.67" cy="221.14" r="2.73"/><circle class="cls-49" cx="186.97" cy="229.08" r="1.54"/><circle class="cls-50" cx="183.29" cy="238.57" r="2.86"/><circle class="cls-51" cx="191.53" cy="211.79" r="2.86"/><circle class="cls-52" cx="108.37" cy="24.99" r="2.73"/><circle class="cls-53" cx="126.27" cy="40.71" r="1.56"/><circle class="cls-54" cx="175.97" cy="149.61" r="1.56"/><circle class="cls-55" cx="131.47" cy="39.32" r="2.21"/><circle class="cls-56" cx="205.32" cy="116.88" r="2.73"/><circle class="cls-57" cx="157.9" cy="104.09" r="1.56"/><circle class="cls-58" cx="157" cy="99.65" r="2.86"/><circle class="cls-59" cx="176.45" cy="116.52" r="2.73"/><circle class="cls-60" cx="186.99" cy="137.88" r="1.56"/><circle class="cls-61" cx="192.32" cy="138.57" r="2.21"/><circle class="cls-62" cx="136" cy="87.14" r="2.86"/><g class="cls-7"><path class="cls-63" d="M188.16,92.59s18.67,7.94,24.7,8,24.8-8,24.8-8l14.75-10.06,3.44-9.48-26.42,1.34L199.07,83Z"/><path class="cls-64" d="M186.05,93.45s15.71-.67,20.3-4,11.59-11.59,25.18-12.93,26.14-1.24,26.14-1.24l1.54-8-49.32,1.34-16.47,13.6-11.77,6.51v2.77Z"/><path class="cls-65" d="M164.13,73.5s5.23,8.27,10.34,13,15.95,5.11,23.1-.76S210,69.38,225.41,68.62,261,70,261,70l6.89-21.91-2.17-7.27-40.7,10.89-41.39,7Z"/><path class="cls-66" d="M159.72,70.47s7.37,8.81,22.41,1.44,16.74-13.7,28.43-14.65,31.32,2.58,38-1.54S267,41.07,267,41.07l-3.35-7.75L192.28,47.58,173.8,51.8l-12.16,9.48Z"/><path class="cls-65" d="M151.28,51.68s4,16.87,5.57,18.21,10.53-15.38,30.26-16.69,48.45-.16,60.32-5.52,22.4-14.36,22.4-14.36L259.88,10l-8-3.63L207,20.49,166.81,32.17Z"/><path class="cls-64" d="M149.41,19s-8.27,29.3-4.24,33.52,16.85-10.92,29.3-14,30.25-1,54.38-11.3S256.24,6.7,256.24,6.7L244.94-5.56l-53.43,6.7Z"/><path class="cls-63" d="M145.17,14.17s5.55,13.4,30.25,6.12S196.68,2.87,222,1,257.2-1,257.2-1s-9.58-26.24-35.82-24.32S148.8-17.24,145.17,14.17Z"/></g><circle class="cls-67" cx="91.45" cy="218.08" r="72.54"/><g class="cls-12"><g class="cls-13"><path class="cls-68" d="M29.58,258.14s-4.1-37,9-37.9,1.68,9.34,8.81,11.91,12.43,12.6,20.53,2.45,16.42-9.2,14.35-22.88-2.58-18.41-13.19-24.56-4.16-28.57-18.33-25.43A30.36,30.36,0,0,0,31,175.63s-12.87,14.9-17.82,9.26-3.73-11-13.62-11.51-5.27.54-14,3S-23.16,184-23.16,184L-4.8,230.62Z"/><path class="cls-68" d="M118.4,185.47c-3.42-.65-9.73-4.1-11.6-1.24a73.45,73.45,0,0,0-4.14,6.34c-2.83,4.79-3.11,4.76-6.14,5.94s-7.26,3.26-5.16,6.29,5.69,2.36,5.46,7.34,2.1,5.9-.52,9.16-7.5,2.19-5.16,5.53,3.18,6,7.69,5.78,9.74-3.59,9.74-3.59,0-.91,1.45-5.69,6-6.36,7.79-6.83,4.14,1,6.18-2.3.77-3.27,2.3-8.61,4.62-1.77,3.53-7S123.27,186.38,118.4,185.47Z"/><path class="cls-68" d="M68.21,274.09c3.8,3.58,9,13.07,13.65,11s2.93-.9,10.39-4.66,7.79-3.49,12.6-2.52,11.81,1.78,11.62-3.75-5.28-7.62-1-13.72,2.14-9.16,8.1-11.16,11.26,3.32,11-2.81.86-10.15-5-13.54-15.23-3.37-15.23-3.37-.73,1.16-6.45,6-12.71,3.2-15.39,2.32-4.39-4.69-9.68-2.11-3.63,3.5-9.89,9-7.29-1.52-10.18,6S62.8,269,68.21,274.09Z"/></g></g></g><path class="cls-69" d="M91.93,91.83S81.11,66.51,83.45,39,93.85,0,93.85,0H106.4S87.29,24,94.79,80.76C96.66,87,91.93,91.83,91.93,91.83Z"/><path class="cls-70" d="M216.51,210.76s4.53-28.17,0-44-15.78-32.46-49.35-37.68C148.48,131.76,150,118.83,150,118.83s35.75-2.52,58,19.08,18.44,51.2,11.59,78.85C212.73,218.76,216.51,210.76,216.51,210.76Z"/><path class="cls-71" d="M147.73,221.45S171.8,253.75,191,241c9.11-6,10.3-20.8,6-36.86a85.34,85.34,0,0,0-47-54.89c-11.26-5.17-23.67-10.39-34.31-17.87A57.64,57.64,0,0,1,94.45,66c11.29-33.73,41-66,41-66l93.24,0s-50.94,29.09-75.57,56.94A56,56,0,0,0,142,76.11c-8.27,24.58-1.89,33.06,32.06,58.23,42.38,28.17,50.38,65.8,43.13,104S161,296,115.69,245.07C121.73,228.26,147.73,221.45,147.73,221.45Z"/><path class="cls-72" d="M143.73,227.26s21.75,34.44,46.5,23.94,11.62-58.87,11.62-58.87L210.1,195s9,41.81-5.44,57.38S177.48,269.39,160,262.64s-31.35-26-31.35-26S129.1,226.2,143.73,227.26Z"/><path class="cls-73" d="M176.73,144.76s-50.5-28.5-50-49.75,7.75-38,35.75-63S208,0,208,0h-50.7s-48.69,42.25-50.87,85.5c-.72,32.25,64.37,66.5,64.37,66.5Z"/><path class="cls-74" d="M138.09,234.38s22.4,31,46.27,27.13S209.48,234,210.48,218c-.25-17.9-9.63-42.65-16.5-51.88-7-10.65-25-20.36-25-20.36l7.75-1s22.2,11.36,32.75,39.65c10.11,31.31,7,46.6,4.75,55.35s-10.25,27.5-39,30.75-51.75-30.75-51.75-30.75l14.61-5.38"/><polygon class="cls-75" points="73.86 196.02 75.63 234.12 106.18 280.69 105.75 238 73.86 196.02"/><polygon class="cls-76" points="119.34 166.19 153.57 182.98 184.13 229.56 145.13 212.16 119.34 166.19"/><path class="cls-77" d="M35.06,87.14C76.31,91,94.92,122.27,94.92,122.27l15.18,26.3h0c2.23,3.39-6.84,13.28-20.26,22.08s-26.1,13.19-28.33,9.79h0L43.43,156S22.19,126.54,35.06,87.14Z"/><polygon class="cls-78" points="110.1 148.58 110.11 148.58 110.1 148.57 110.1 148.58"/><path class="cls-79" d="M89.84,170.66c13.41-8.8,22.48-18.68,20.27-22.08l38.12,66c3.34,5.09-.39,13.45-14.61,22.78s-23.36,9.42-26.7,4.33L61.55,180.49C63.87,183.8,76.48,179.42,89.84,170.66Z"/><polygon class="cls-78" points="110.1 148.58 110.11 148.58 110.1 148.57 110.1 148.58"/><path class="cls-80" d="M49,148.53a22,22,0,1,0,6.33-30.47A22,22,0,0,0,49,148.53Z"/><path class="cls-81" d="M54.19,145.13a15.81,15.81,0,1,0,4.55-21.89A15.8,15.8,0,0,0,54.19,145.13Z"/><polygon class="cls-82" points="96.7 181.07 96.7 181.07 96.7 181.07 96.7 181.08 132.92 220.6 145.25 255.09 145.25 255.09 118.53 230.04 96.7 181.08 96.7 181.07"/><path class="cls-83" d="M78.94,130.69A15.82,15.82,0,0,0,53,130a15.81,15.81,0,1,1,27.15,15.86A15.8,15.8,0,0,0,78.94,130.69Z"/><path class="cls-84" d="M106.86,154h0L91.11,126.67S73.29,96.77,33.94,90.85c.34-1.23.71-2.46,1.12-3.71C76.31,91,94.92,122.27,94.92,122.27l15.18,26.3h0c1,1.49-.22,4.23-3,7.58A2.74,2.74,0,0,0,106.86,154Z"/><polygon class="cls-78" points="105.82 152.56 105.82 152.57 105.82 152.56 105.82 152.56"/><path class="cls-85" d="M145.24,220.84l-37.68-65.26c2.45-3.08,3.46-5.59,2.55-7l38.12,66c1.93,2.94,1.5,6.95-1.93,11.62A7.49,7.49,0,0,0,145.24,220.84Z"/><path class="cls-86" d="M60,178.4s3,2.57,8.11,1.07,30.41-15.4,36.37-22.68,4.46-10.24,4.46-10.24l1.18,2s1.62,2.07-2.55,7c-4.69,5.89-12.14,11.39-16.29,14.13s-14,8.75-22.66,11.29c-5.8,1.66-7.06-.51-7.06-.51Z"/><polygon class="cls-87" points="73.92 197.18 74.01 199.18 105.83 245.79 105.77 240.18 73.92 197.18"/><polygon class="cls-88" points="120.64 166.83 147.39 213.17 149.75 214.22 121.54 167.27 120.64 166.83"/><polygon class="cls-89" points="96.7 181.07 132.92 220.6 134.22 224.24 97.28 182.38 96.7 181.07"/><path class="cls-90" d="M129.24,240.08l-10.71-10L98.2,184.44l17.89,47.44,7.47,11A52,52,0,0,0,129.24,240.08Z"/><path class="cls-91" d="M33.66,91.87s2.08.37,4.05.68c2,0,3-2.2,3-2.2L41.62,88l-7.35-9.25c-.24-.42-4.39-.24-5,1.68C29.46,82.19,33.66,91.87,33.66,91.87Z"/><path class="cls-92" d="M54.19,145.13a15.81,15.81,0,1,0,4.55-21.89A15.8,15.8,0,0,0,54.19,145.13Z"/></g></g></svg>