<svg xmlns="http://www.w3.org/2000/svg" xmlns:xlink="http://www.w3.org/1999/xlink" viewBox="0 0 230 305"><defs><style>.cls-1{fill:none;}.cls-2{isolation:isolate;}.cls-3{fill:url(#Naamloos_verloop_121);}.cls-4{clip-path:url(#clip-path);}.cls-10,.cls-5,.cls-7,.cls-8,.cls-9{opacity:0.5;}.cls-5{fill:url(#Naamloos_verloop_122);}.cls-6{fill:url(#Naamloos_verloop_122-2);}.cls-7{fill:url(#Naamloos_verloop_122-3);}.cls-8{fill:url(#Naamloos_verloop_122-4);}.cls-9{fill:url(#Naamloos_verloop_122-5);}.cls-10{fill:url(#Naamloos_verloop_122-6);}.cls-11{fill:url(#Naamloos_verloop_113);}.cls-12{fill:url(#Naamloos_verloop_110);}.cls-13{fill:url(#Naamloos_verloop_110-2);}.cls-14{fill:url(#Naamloos_verloop_113-2);}.cls-15{fill:url(#Naamloos_verloop_14);}.cls-16{fill:url(#Naamloos_verloop_92);}.cls-17{fill:url(#Naamloos_verloop_96);}.cls-18{fill:url(#Naamloos_verloop_92-2);}.cls-19{fill:url(#Naamloos_verloop_92-3);}.cls-20{fill:url(#Naamloos_verloop_96-2);}.cls-21{fill:url(#Naamloos_verloop_91);}.cls-22{fill:url(#Naamloos_verloop_115);}.cls-23{fill:url(#Naamloos_verloop_92-4);}.cls-24{fill:url(#Naamloos_verloop_91-2);}.cls-25{fill:url(#Naamloos_verloop_84);}.cls-26{fill:url(#Naamloos_verloop_71);}.cls-27{fill:#7d551f;}.cls-28{fill:url(#Naamloos_verloop_2);}.cls-29{fill:url(#Naamloos_verloop_2-2);}.cls-30{fill:url(#Naamloos_verloop_84-2);}.cls-31{fill:url(#Naamloos_verloop_71-2);}.cls-32{fill:url(#Naamloos_verloop_71-3);}.cls-33{fill:url(#Naamloos_verloop_76);}.cls-34{fill:#ac752c;}.cls-35{fill:url(#Naamloos_verloop_71-4);}.cls-36{fill:url(#Naamloos_verloop_84-3);}.cls-37{fill:url(#Naamloos_verloop_2-3);}.cls-38{fill:url(#Naamloos_verloop_2-4);}.cls-39{fill:url(#Naamloos_verloop_2-5);}.cls-40{fill:url(#Naamloos_verloop_2-6);}.cls-41{fill:url(#Naamloos_verloop_71-5);}.cls-42{fill:url(#Naamloos_verloop_84-4);}.cls-43{fill:url(#Naamloos_verloop_71-6);}.cls-44{fill:url(#Naamloos_verloop_84-5);}.cls-45{fill:url(#Naamloos_verloop_71-7);}.cls-46{fill:url(#Naamloos_verloop_76-2);}.cls-47{fill:url(#Naamloos_verloop_71-8);}.cls-48{fill:url(#Naamloos_verloop_84-6);}.cls-49{fill:url(#Naamloos_verloop_76-3);}.cls-50{fill:url(#Naamloos_verloop_71-9);}.cls-51{fill:url(#Naamloos_verloop_71-10);}.cls-52{fill:url(#Naamloos_verloop_84-7);}.cls-53{fill:url(#Naamloos_verloop_2-7);}.cls-54{fill:url(#Naamloos_verloop_2-8);}.cls-55{fill:url(#Naamloos_verloop_71-11);}.cls-56{fill:url(#Naamloos_verloop_76-4);}.cls-57{fill:url(#Naamloos_verloop_71-12);}.cls-58{fill:url(#Naamloos_verloop_88);}.cls-59{fill:url(#Naamloos_verloop_2-9);}.cls-60{fill:url(#Naamloos_verloop_2-10);}.cls-61{fill:url(#Naamloos_verloop_83);}.cls-62{fill:url(#Naamloos_verloop_84-8);}.cls-63{fill:url(#Naamloos_verloop_76-5);}.cls-64{fill:url(#Naamloos_verloop_71-13);}.cls-65{fill:url(#Naamloos_verloop_2-11);}.cls-66{fill:url(#Naamloos_verloop_2-12);}.cls-67{fill:url(#Naamloos_verloop_71-14);}.cls-68{fill:url(#Naamloos_verloop_84-9);}.cls-69{fill:url(#Naamloos_verloop_2-13);}.cls-70{fill:url(#Naamloos_verloop_2-14);}.cls-71{fill:url(#Naamloos_verloop_76-6);}.cls-72{fill:url(#Naamloos_verloop_71-15);}.cls-73{clip-path:url(#clip-path-2);}.cls-74{fill:url(#Naamloos_verloop_110-3);}.cls-75{fill:url(#Naamloos_verloop_109);}.cls-76{opacity:0.28;fill:url(#Naamloos_verloop_118);}.cls-77{fill:url(#Naamloos_verloop_109-2);}.cls-78{fill:url(#Naamloos_verloop_113-3);}.cls-100,.cls-101,.cls-102,.cls-103,.cls-106,.cls-107,.cls-108,.cls-109,.cls-79,.cls-80,.cls-81,.cls-82,.cls-83,.cls-84,.cls-85,.cls-92,.cls-97,.cls-98,.cls-99{mix-blend-mode:lighten;}.cls-79{opacity:0.19;fill:url(#Naamloos_verloop_114);}.cls-100,.cls-101,.cls-110,.cls-80,.cls-81,.cls-82,.cls-83,.cls-84,.cls-97,.cls-98,.cls-99{opacity:0.2;}.cls-80{fill:url(#Naamloos_verloop_114-2);}.cls-81{fill:url(#Naamloos_verloop_114-3);}.cls-82{fill:url(#Naamloos_verloop_114-4);}.cls-83{fill:url(#Naamloos_verloop_114-5);}.cls-84{fill:url(#Naamloos_verloop_117);}.cls-85{opacity:0.3;fill:url(#Naamloos_verloop_117-2);}.cls-86{fill:url(#Naamloos_verloop_110-4);}.cls-87{fill:url(#Naamloos_verloop_113-4);}.cls-88{fill:url(#Naamloos_verloop_109-3);}.cls-89{fill:url(#Naamloos_verloop_110-5);}.cls-90{fill:url(#Naamloos_verloop_113-5);}.cls-91{fill:url(#Naamloos_verloop_109-4);}.cls-102,.cls-103,.cls-92{opacity:0.14;}.cls-92{fill:url(#Naamloos_verloop_114-6);}.cls-93{fill:url(#Naamloos_verloop_113-6);}.cls-94{fill:url(#Naamloos_verloop_110-6);}.cls-95{fill:url(#Naamloos_verloop_109-5);}.cls-96{fill:url(#Naamloos_verloop_113-7);}.cls-97{fill:url(#Naamloos_verloop_114-7);}.cls-98{fill:url(#Naamloos_verloop_114-8);}.cls-99{fill:url(#Naamloos_verloop_114-9);}.cls-100{fill:url(#Naamloos_verloop_114-10);}.cls-101{fill:url(#Naamloos_verloop_114-11);}.cls-102{fill:url(#Naamloos_verloop_114-12);}.cls-103{fill:url(#Naamloos_verloop_114-13);}.cls-104{fill:url(#Naamloos_verloop_109-6);}.cls-105{fill:url(#Naamloos_verloop_113-8);}.cls-106,.cls-107,.cls-108,.cls-109{opacity:0.17;}.cls-106{fill:url(#Naamloos_verloop_114-14);}.cls-107{fill:url(#Naamloos_verloop_114-15);}.cls-108{fill:url(#Naamloos_verloop_114-16);}.cls-109{fill:url(#Naamloos_verloop_114-17);}.cls-110{fill:url(#Naamloos_verloop_124);}</style><linearGradient id="Naamloos_verloop_121" x1="136.82" y1="252.15" x2="135.32" y2="2.77" gradientUnits="userSpaceOnUse"><stop offset="0" stop-color="#4595c9"/><stop offset="1" stop-color="#a2ffff"/></linearGradient><clipPath id="clip-path"><path class="cls-1" d="M42,0H230V253H62a20,20,0,0,1-20-20Z"/></clipPath><linearGradient id="Naamloos_verloop_122" x1="86.67" y1="64.96" x2="57.42" y2="-26.16" gradientTransform="matrix(-1, 0, 0, 1, 150.32, 0)" gradientUnits="userSpaceOnUse"><stop offset="0" stop-color="#e6e6e6"/><stop offset="0.11" stop-color="#e9e9e9" stop-opacity="0.83"/><stop offset="0.26" stop-color="#ebebeb" stop-opacity="0.64"/><stop offset="0.41" stop-color="#eee" stop-opacity="0.48"/><stop offset="0.55" stop-color="#f0f0f0" stop-opacity="0.36"/><stop offset="0.7" stop-color="#f1f1f1" stop-opacity="0.27"/><stop offset="0.85" stop-color="#f2f2f2" stop-opacity="0.22"/><stop offset="1" stop-color="#f2f2f2" stop-opacity="0.2"/></linearGradient><linearGradient id="Naamloos_verloop_122-2" x1="67.97" y1="106.4" x2="38.72" y2="15.27" gradientTransform="matrix(1, 0, 0, 1, 0, 0)" xlink:href="#Naamloos_verloop_122"/><linearGradient id="Naamloos_verloop_122-3" x1="251.81" y1="121.38" x2="214.74" y2="5.88" gradientTransform="matrix(1, 0, 0, 1, 0, 0)" xlink:href="#Naamloos_verloop_122"/><linearGradient id="Naamloos_verloop_122-4" x1="121.31" y1="150.9" x2="111.56" y2="104.08" gradientTransform="matrix(1, 0, 0, 1, 0, 0)" xlink:href="#Naamloos_verloop_122"/><linearGradient id="Naamloos_verloop_122-5" x1="85.52" y1="170.88" x2="75.7" y2="123.72" gradientTransform="matrix(1, 0, 0, 1, 0, 0)" xlink:href="#Naamloos_verloop_122"/><linearGradient id="Naamloos_verloop_122-6" x1="220.32" y1="156.54" x2="208.85" y2="101.4" gradientTransform="matrix(1, 0, 0, 1, 0, 0)" xlink:href="#Naamloos_verloop_122"/><linearGradient id="Naamloos_verloop_113" x1="75.28" y1="-1.56" x2="36.28" y2="14.19" gradientUnits="userSpaceOnUse"><stop offset="0" stop-color="#859e1b"/><stop offset="0.29" stop-color="#759618"/><stop offset="0.65" stop-color="#699016"/><stop offset="1" stop-color="#658e15"/></linearGradient><linearGradient id="Naamloos_verloop_110" x1="92.18" y1="36.64" x2="52.24" y2="52.77" gradientUnits="userSpaceOnUse"><stop offset="0" stop-color="#50840c"/><stop offset="0.28" stop-color="#417c0c"/><stop offset="0.64" stop-color="#35750c"/><stop offset="1" stop-color="#31730c"/></linearGradient><linearGradient id="Naamloos_verloop_110-2" x1="235.42" y1="4.92" x2="225.05" y2="3.42" xlink:href="#Naamloos_verloop_110"/><linearGradient id="Naamloos_verloop_113-2" x1="31.97" y1="250.27" x2="75.17" y2="234.67" xlink:href="#Naamloos_verloop_113"/><linearGradient id="Naamloos_verloop_14" x1="71.59" y1="252.94" x2="77.78" y2="195.29" gradientUnits="userSpaceOnUse"><stop offset="0" stop-color="#316f0c"/><stop offset="0.01" stop-color="#316f0c"/><stop offset="1" stop-color="#31730c"/></linearGradient><linearGradient id="Naamloos_verloop_92" x1="1330.46" y1="-42.16" x2="1336.33" y2="-67.95" gradientTransform="matrix(-0.99, 0.12, 0.12, 0.99, 1486.92, 81.74)" gradientUnits="userSpaceOnUse"><stop offset="0" stop-color="#68a728"/><stop offset="1" stop-color="#378a00"/></linearGradient><linearGradient id="Naamloos_verloop_96" x1="125.82" y1="86.35" x2="116.42" y2="66.19" gradientTransform="translate(40.93 98.22) rotate(5.42)" gradientUnits="userSpaceOnUse"><stop offset="0" stop-color="#8eb12d"/><stop offset="1" stop-color="#447600"/></linearGradient><linearGradient id="Naamloos_verloop_92-2" x1="106.04" y1="90.34" x2="111.56" y2="66.08" gradientTransform="translate(40.93 98.22) rotate(5.42)" xlink:href="#Naamloos_verloop_92"/><linearGradient id="Naamloos_verloop_92-3" x1="1332.72" y1="-57.63" x2="1336.65" y2="-74.93" xlink:href="#Naamloos_verloop_92"/><linearGradient id="Naamloos_verloop_96-2" x1="121.23" y1="71.61" x2="114.93" y2="58.08" xlink:href="#Naamloos_verloop_96"/><linearGradient id="Naamloos_verloop_91" x1="102.38" y1="71.3" x2="109.76" y2="56" gradientTransform="translate(40.93 98.22) rotate(5.42)" gradientUnits="userSpaceOnUse"><stop offset="0" stop-color="#acc638"/><stop offset="1" stop-color="#378a00"/></linearGradient><linearGradient id="Naamloos_verloop_115" x1="94.61" y1="-98.73" x2="81.66" y2="-101.51" gradientTransform="translate(40.93 98.22) rotate(5.42)" gradientUnits="userSpaceOnUse"><stop offset="0" stop-color="#2f640c"/><stop offset="0.49" stop-color="#306f0c"/><stop offset="1" stop-color="#31730c"/></linearGradient><linearGradient id="Naamloos_verloop_92-4" x1="107.96" y1="74.28" x2="111.67" y2="58" gradientTransform="translate(40.93 98.22) rotate(5.42)" xlink:href="#Naamloos_verloop_92"/><linearGradient id="Naamloos_verloop_91-2" x1="1282" y1="-37.63" x2="1290.17" y2="-54.57" gradientTransform="matrix(-1, 0.08, 0.08, 1, 1442.92, 114.54)" xlink:href="#Naamloos_verloop_91"/><linearGradient id="Naamloos_verloop_84" x1="3009.3" y1="-890.56" x2="3067.23" y2="-898.48" gradientTransform="matrix(-0.9, 0.44, 0.44, 0.9, 3215.44, -483.2)" gradientUnits="userSpaceOnUse"><stop offset="0" stop-color="#ffb538"/><stop offset="1" stop-color="#ffc73e"/></linearGradient><linearGradient id="Naamloos_verloop_71" x1="927.65" y1="1540.69" x2="967.22" y2="1540.69" gradientTransform="matrix(0.68, 0.73, -0.54, 0.5, 284.22, -1414.38)" gradientUnits="userSpaceOnUse"><stop offset="0" stop-color="#ff9500"/><stop offset="1" stop-color="#ffbd00"/></linearGradient><linearGradient id="Naamloos_verloop_2" x1="59.16" y1="72.32" x2="215.53" y2="71.19" gradientUnits="userSpaceOnUse"><stop offset="0" stop-color="#ffe988"/><stop offset="0.25" stop-color="#ba801e"/><stop offset="0.5" stop-color="#fbec83"/><stop offset="0.75" stop-color="#ba801f"/><stop offset="1" stop-color="#ffe97f"/></linearGradient><linearGradient id="Naamloos_verloop_2-2" x1="66.09" y1="110.08" x2="200.53" y2="18.2" xlink:href="#Naamloos_verloop_2"/><linearGradient id="Naamloos_verloop_84-2" x1="89.76" y1="-86.46" x2="147.7" y2="-94.37" gradientTransform="translate(40.93 98.22) rotate(5.42)" xlink:href="#Naamloos_verloop_84"/><linearGradient id="Naamloos_verloop_71-2" x1="2540.46" y1="-1950.62" x2="2580.03" y2="-1950.62" gradientTransform="matrix(-0.38, 0.93, 0.68, 0.28, 2452.54, -1810.53)" xlink:href="#Naamloos_verloop_71"/><linearGradient id="Naamloos_verloop_71-3" x1="981.42" y1="279.02" x2="1061.28" y2="244.7" gradientTransform="matrix(-0.89, -0.46, -0.46, 0.89, 1189.63, 383.43)" xlink:href="#Naamloos_verloop_71"/><linearGradient id="Naamloos_verloop_76" x1="991.83" y1="274.8" x2="1050.99" y2="237.53" gradientTransform="matrix(-0.89, -0.46, -0.46, 0.89, 1189.63, 383.43)" gradientUnits="userSpaceOnUse"><stop offset="0" stop-color="#ffcd38"/><stop offset="1" stop-color="#ffd54f"/></linearGradient><linearGradient id="Naamloos_verloop_71-4" x1="-127.04" y1="-421.36" x2="-56.76" y2="-451.56" gradientTransform="translate(445.98 435.17) rotate(-34.39)" xlink:href="#Naamloos_verloop_71"/><linearGradient id="Naamloos_verloop_84-3" x1="-117.88" y1="-425.08" x2="-65.81" y2="-457.87" gradientTransform="translate(445.98 435.17) rotate(-34.39)" xlink:href="#Naamloos_verloop_84"/><linearGradient id="Naamloos_verloop_2-3" x1="86.84" y1="74.6" x2="112.91" y2="-9.53" gradientTransform="translate(40.93 98.22) rotate(5.42)" xlink:href="#Naamloos_verloop_2"/><linearGradient id="Naamloos_verloop_2-4" x1="86.64" y1="66.57" x2="108.36" y2="-13.61" gradientTransform="translate(40.93 98.22) rotate(5.42)" xlink:href="#Naamloos_verloop_2"/><linearGradient id="Naamloos_verloop_2-5" x1="79.28" y1="140.25" x2="150.53" y2="77.43" xlink:href="#Naamloos_verloop_2"/><linearGradient id="Naamloos_verloop_2-6" x1="-106.07" y1="-322.59" x2="-54.01" y2="-355.38" gradientTransform="translate(326.75 380.16) rotate(-24.63)" xlink:href="#Naamloos_verloop_2"/><linearGradient id="Naamloos_verloop_71-5" x1="-91.68" y1="-251.34" x2="-21.41" y2="-281.54" gradientTransform="translate(240.99 327.51) rotate(-17.28)" xlink:href="#Naamloos_verloop_71"/><linearGradient id="Naamloos_verloop_84-4" x1="-82.52" y1="-255.06" x2="-30.46" y2="-287.85" gradientTransform="translate(240.99 327.51) rotate(-17.28)" xlink:href="#Naamloos_verloop_84"/><linearGradient id="Naamloos_verloop_71-6" x1="1130.35" y1="101.38" x2="1212.75" y2="65.97" gradientTransform="matrix(-0.94, -0.33, -0.33, 0.94, 1308.32, 429.93)" xlink:href="#Naamloos_verloop_71"/><linearGradient id="Naamloos_verloop_84-5" x1="1141.09" y1="97.02" x2="1202.14" y2="58.58" gradientTransform="matrix(-0.94, -0.33, -0.33, 0.94, 1308.32, 429.93)" xlink:href="#Naamloos_verloop_84"/><linearGradient id="Naamloos_verloop_71-7" x1="1262.29" y1="-47.24" x2="1322.19" y2="-72.99" gradientTransform="matrix(-1, -0.09, -0.09, 1, 1462.37, 282.12)" xlink:href="#Naamloos_verloop_71"/><linearGradient id="Naamloos_verloop_76-2" x1="1270.1" y1="-50.41" x2="1314.48" y2="-78.36" gradientTransform="matrix(-1, -0.09, -0.09, 1, 1462.37, 282.12)" xlink:href="#Naamloos_verloop_76"/><linearGradient id="Naamloos_verloop_71-8" x1="382.24" y1="133.46" x2="448.94" y2="104.8" gradientTransform="matrix(0.81, 0.59, -0.59, 0.81, -158.75, -309.96)" xlink:href="#Naamloos_verloop_71"/><linearGradient id="Naamloos_verloop_84-6" x1="390.94" y1="129.93" x2="440.35" y2="98.81" gradientTransform="matrix(0.81, 0.59, -0.59, 0.81, -158.75, -309.96)" xlink:href="#Naamloos_verloop_84"/><linearGradient id="Naamloos_verloop_76-3" x1="-74.26" y1="-260.8" x2="-42.95" y2="-260.8" gradientTransform="translate(265.23 342.66) rotate(-18.34)" xlink:href="#Naamloos_verloop_76"/><linearGradient id="Naamloos_verloop_71-9" x1="-73.8" y1="-259.92" x2="-34.23" y2="-259.92" gradientTransform="translate(265.23 342.66) rotate(-18.34)" xlink:href="#Naamloos_verloop_71"/><linearGradient id="Naamloos_verloop_71-10" x1="-44.39" y1="-182.23" x2="20.22" y2="-210" gradientTransform="translate(146.81 255.66) rotate(-8.85)" xlink:href="#Naamloos_verloop_71"/><linearGradient id="Naamloos_verloop_84-7" x1="-35.97" y1="-185.65" x2="11.9" y2="-215.79" gradientTransform="translate(146.81 255.66) rotate(-8.85)" xlink:href="#Naamloos_verloop_84"/><linearGradient id="Naamloos_verloop_2-7" x1="158.75" y1="84.58" x2="275.25" y2="117.83" xlink:href="#Naamloos_verloop_2"/><linearGradient id="Naamloos_verloop_2-8" x1="233.89" y1="100.08" x2="87.14" y2="63.58" xlink:href="#Naamloos_verloop_2"/><linearGradient id="Naamloos_verloop_71-11" x1="61.61" y1="-45.51" x2="126.21" y2="-73.27" gradientTransform="translate(12.61 87.56) rotate(6.7)" xlink:href="#Naamloos_verloop_71"/><linearGradient id="Naamloos_verloop_76-4" x1="70.03" y1="-48.92" x2="117.89" y2="-79.07" gradientTransform="translate(12.61 87.56) rotate(6.7)" xlink:href="#Naamloos_verloop_76"/><linearGradient id="Naamloos_verloop_71-12" x1="1384.81" y1="-319.9" x2="1444.71" y2="-345.65" gradientTransform="matrix(-0.96, 0.27, 0.27, 0.96, 1630.43, 16.08)" xlink:href="#Naamloos_verloop_71"/><linearGradient id="Naamloos_verloop_88" x1="109.3" y1="-47.07" x2="180.56" y2="-35.2" gradientTransform="translate(40.93 98.22) rotate(5.42)" xlink:href="#Naamloos_verloop_84"/><linearGradient id="Naamloos_verloop_2-9" x1="195.47" y1="19.72" x2="137.91" y2="46.34" xlink:href="#Naamloos_verloop_2"/><linearGradient id="Naamloos_verloop_2-10" x1="194.88" y1="37.47" x2="119.69" y2="20.6" xlink:href="#Naamloos_verloop_2"/><linearGradient id="Naamloos_verloop_83" x1="378.29" y1="127.7" x2="442.9" y2="99.94" gradientTransform="matrix(0.8, 0.6, -0.6, 0.8, -149.88, -316.91)" xlink:href="#Naamloos_verloop_71"/><linearGradient id="Naamloos_verloop_84-8" x1="386.72" y1="124.29" x2="434.58" y2="94.14" gradientTransform="matrix(0.8, 0.6, -0.6, 0.8, -149.88, -316.91)" xlink:href="#Naamloos_verloop_84"/><linearGradient id="Naamloos_verloop_76-5" x1="56.26" y1="-32.97" x2="96.59" y2="-32.97" gradientTransform="translate(40.93 98.22) rotate(5.42)" xlink:href="#Naamloos_verloop_76"/><linearGradient id="Naamloos_verloop_71-13" x1="56.85" y1="-32.12" x2="107.83" y2="-32.12" gradientTransform="translate(40.93 98.22) rotate(5.42)" xlink:href="#Naamloos_verloop_71"/><linearGradient id="Naamloos_verloop_2-11" x1="140.88" y1="31.62" x2="91.64" y2="-65.02" gradientTransform="translate(40.93 98.22) rotate(5.42)" xlink:href="#Naamloos_verloop_2"/><linearGradient id="Naamloos_verloop_2-12" x1="137.4" y1="45.23" x2="105.8" y2="-58.52" gradientTransform="translate(40.93 98.22) rotate(5.42)" xlink:href="#Naamloos_verloop_2"/><linearGradient id="Naamloos_verloop_71-14" x1="1390.27" y1="-241.82" x2="1464.96" y2="-273.91" gradientTransform="matrix(-1, 0.09, 0.09, 1, 1610.46, 180.04)" xlink:href="#Naamloos_verloop_71"/><linearGradient id="Naamloos_verloop_84-9" x1="1400.01" y1="-245.76" x2="1455.34" y2="-280.61" gradientTransform="matrix(-1, 0.09, 0.09, 1, 1610.46, 180.04)" xlink:href="#Naamloos_verloop_84"/><linearGradient id="Naamloos_verloop_2-13" x1="113.65" y1="81.63" x2="139.71" y2="-12.69" xlink:href="#Naamloos_verloop_2"/><linearGradient id="Naamloos_verloop_2-14" x1="113.74" y1="100.11" x2="143.17" y2="-4.52" xlink:href="#Naamloos_verloop_2"/><linearGradient id="Naamloos_verloop_76-6" x1="1271.27" y1="-151.16" x2="1302.97" y2="-151.16" gradientTransform="matrix(-1, 0.05, 0.05, 1, 1453.38, 128.13)" xlink:href="#Naamloos_verloop_76"/><linearGradient id="Naamloos_verloop_71-15" x1="1271.73" y1="-150.89" x2="1311.8" y2="-150.89" gradientTransform="matrix(-1, 0.05, 0.05, 1, 1453.38, 128.13)" xlink:href="#Naamloos_verloop_71"/><clipPath id="clip-path-2"><rect class="cls-1" x="-11.25" width="241.25" height="89.97"/></clipPath><linearGradient id="Naamloos_verloop_110-3" x1="51.12" y1="43.29" x2="163.17" y2="-5.31" xlink:href="#Naamloos_verloop_110"/><linearGradient id="Naamloos_verloop_109" x1="251.85" y1="61.61" x2="141.23" y2="-13.77" gradientUnits="userSpaceOnUse"><stop offset="0" stop-color="#73990c"/><stop offset="0.08" stop-color="#7ea511"/><stop offset="0.24" stop-color="#90b919"/><stop offset="0.41" stop-color="#9bc51e"/><stop offset="0.57" stop-color="#9fc920"/><stop offset="1" stop-color="#8db120"/></linearGradient><linearGradient id="Naamloos_verloop_118" x1="170.09" y1="11.29" x2="191.59" y2="-3.46" gradientUnits="userSpaceOnUse"><stop offset="0" stop-color="#666"/><stop offset="0.09" stop-color="#595959"/><stop offset="0.31" stop-color="#3e3e3e"/><stop offset="0.54" stop-color="#2a2a2a"/><stop offset="0.77" stop-color="#1e1e1e"/><stop offset="1" stop-color="#1a1a1a"/></linearGradient><linearGradient id="Naamloos_verloop_109-2" x1="45.48" y1="42.11" x2="171.23" y2="-13.14" xlink:href="#Naamloos_verloop_109"/><linearGradient id="Naamloos_verloop_113-3" x1="242.84" y1="32.55" x2="186.4" y2="-18.45" xlink:href="#Naamloos_verloop_113"/><linearGradient id="Naamloos_verloop_114" x1="18.46" y1="49.96" x2="21.46" y2="35.34" gradientUnits="userSpaceOnUse"><stop offset="0" stop-color="#f2f2f2"/><stop offset="0.03" stop-color="#f0f0f0"/><stop offset="0.35" stop-color="#dcdcdc"/><stop offset="0.67" stop-color="#d0d0d0"/><stop offset="1" stop-color="#ccc"/></linearGradient><linearGradient id="Naamloos_verloop_114-2" x1="53.42" y1="39.32" x2="51.67" y2="16.51" xlink:href="#Naamloos_verloop_114"/><linearGradient id="Naamloos_verloop_114-3" x1="77.53" y1="32.79" x2="70.87" y2="0.91" xlink:href="#Naamloos_verloop_114"/><linearGradient id="Naamloos_verloop_114-4" x1="104.45" y1="19.32" x2="96.33" y2="-7.81" xlink:href="#Naamloos_verloop_114"/><linearGradient id="Naamloos_verloop_114-5" x1="138.78" y1="18.65" x2="128.45" y2="-15.84" xlink:href="#Naamloos_verloop_114"/><linearGradient id="Naamloos_verloop_117" x1="223.64" y1="60.85" x2="226.61" y2="29.01" gradientUnits="userSpaceOnUse"><stop offset="0" stop-color="#f2f2f2"/><stop offset="0.06" stop-color="#eee" stop-opacity="0.93"/><stop offset="0.21" stop-color="#e4e4e4" stop-opacity="0.77"/><stop offset="0.37" stop-color="#dbdbdb" stop-opacity="0.64"/><stop offset="0.52" stop-color="#d4d4d4" stop-opacity="0.53"/><stop offset="0.68" stop-color="#d0d0d0" stop-opacity="0.46"/><stop offset="0.84" stop-color="#cdcdcd" stop-opacity="0.41"/><stop offset="1" stop-color="#ccc" stop-opacity="0.4"/></linearGradient><linearGradient id="Naamloos_verloop_117-2" x1="204.11" y1="41.71" x2="207.1" y2="9.71" xlink:href="#Naamloos_verloop_117"/><linearGradient id="Naamloos_verloop_110-4" x1="98.82" y1="247.81" x2="148.87" y2="229.73" xlink:href="#Naamloos_verloop_110"/><linearGradient id="Naamloos_verloop_113-4" x1="107.31" y1="248.6" x2="143.28" y2="235.61" xlink:href="#Naamloos_verloop_113"/><linearGradient id="Naamloos_verloop_109-3" x1="102.33" y1="250.93" x2="138.27" y2="235.14" xlink:href="#Naamloos_verloop_109"/><linearGradient id="Naamloos_verloop_110-5" x1="-2161.53" y1="240.49" x2="-2111.48" y2="222.42" gradientTransform="matrix(-1, 0, 0, 1, -1930.03, 0)" xlink:href="#Naamloos_verloop_110"/><linearGradient id="Naamloos_verloop_113-5" x1="-2353.72" y1="1030.37" x2="-2317.75" y2="1017.38" gradientTransform="matrix(-0.83, 0.56, 0.56, 0.83, -2337.71, 707.67)" xlink:href="#Naamloos_verloop_113"/><linearGradient id="Naamloos_verloop_109-4" x1="-2147.1" y1="250.74" x2="-2111.49" y2="235.1" gradientTransform="matrix(-1, 0, 0, 1, -1930.03, 0)" xlink:href="#Naamloos_verloop_109"/><linearGradient id="Naamloos_verloop_114-6" x1="193.12" y1="250.44" x2="192.52" y2="242.6" xlink:href="#Naamloos_verloop_114"/><linearGradient id="Naamloos_verloop_113-6" x1="182.65" y1="290.32" x2="182.35" y2="241.86" xlink:href="#Naamloos_verloop_113"/><linearGradient id="Naamloos_verloop_110-6" x1="70.25" y1="253.79" x2="93.46" y2="243.73" xlink:href="#Naamloos_verloop_110"/><linearGradient id="Naamloos_verloop_109-5" x1="62.91" y1="255.66" x2="97.66" y2="240.39" xlink:href="#Naamloos_verloop_109"/><linearGradient id="Naamloos_verloop_113-7" x1="78.38" y1="246.82" x2="69.18" y2="238.5" xlink:href="#Naamloos_verloop_113"/><linearGradient id="Naamloos_verloop_114-7" x1="66.79" y1="262.6" x2="65.97" y2="251.95" xlink:href="#Naamloos_verloop_114"/><linearGradient id="Naamloos_verloop_114-8" x1="76.13" y1="256.21" x2="74.99" y2="241.35" xlink:href="#Naamloos_verloop_114"/><linearGradient id="Naamloos_verloop_114-9" x1="97.44" y1="248.8" x2="96.29" y2="233.8" xlink:href="#Naamloos_verloop_114"/><linearGradient id="Naamloos_verloop_114-10" x1="138.58" y1="247.55" x2="138.16" y2="242.07" xlink:href="#Naamloos_verloop_114"/><linearGradient id="Naamloos_verloop_114-11" x1="126.42" y1="250" x2="125.66" y2="240.11" xlink:href="#Naamloos_verloop_114"/><linearGradient id="Naamloos_verloop_114-12" x1="225.56" y1="250.08" x2="224.88" y2="241.23" xlink:href="#Naamloos_verloop_114"/><linearGradient id="Naamloos_verloop_114-13" x1="208.36" y1="249.82" x2="207.57" y2="239.5" xlink:href="#Naamloos_verloop_114"/><linearGradient id="Naamloos_verloop_109-6" x1="136.26" y1="274.36" x2="181.26" y2="258.11" xlink:href="#Naamloos_verloop_109"/><linearGradient id="Naamloos_verloop_113-8" x1="166.44" y1="272.07" x2="142.29" y2="250.25" xlink:href="#Naamloos_verloop_113"/><linearGradient id="Naamloos_verloop_114-14" x1="155.52" y1="261.88" x2="137.27" y2="267.5" xlink:href="#Naamloos_verloop_114"/><linearGradient id="Naamloos_verloop_114-15" x1="150.08" y1="242.17" x2="136.68" y2="246.39" xlink:href="#Naamloos_verloop_114"/><linearGradient id="Naamloos_verloop_114-16" x1="159.65" y1="255.44" x2="176.84" y2="258.88" xlink:href="#Naamloos_verloop_114"/><linearGradient id="Naamloos_verloop_114-17" x1="159.42" y1="243.47" x2="172.67" y2="244.47" xlink:href="#Naamloos_verloop_114"/><linearGradient id="Naamloos_verloop_124" x1="80.27" y1="37.41" x2="205.83" y2="37.41" gradientUnits="userSpaceOnUse"><stop offset="0"/><stop offset="1" stop-opacity="0.2"/></linearGradient></defs><g class="cls-2"><g id="logo_alignment" data-name="logo alignment"><path class="cls-3" d="M42,0H230V253H62a20,20,0,0,1-20-20Z"/><g class="cls-4"><path class="cls-5" d="M27.54,3.14c0-.44,0-.88,0-1.33A22.82,22.82,0,0,1,49.73-21H96.26A22.81,22.81,0,0,1,119.07,1.81v0a22.81,22.81,0,0,1,0,45.57v0A22.81,22.81,0,0,1,96.26,70.25H69.73A22.82,22.82,0,0,1,47.5,47.44H34.61v0A22.8,22.8,0,0,1,27.54,3.14Z"/><path class="cls-6" d="M104.07,44.57c0-.44,0-.88,0-1.32a22.8,22.8,0,0,0-22.22-22.8v0H35.35A22.82,22.82,0,0,0,12.54,43.25v0a22.81,22.81,0,0,0,0,45.57v0a22.81,22.81,0,0,0,22.81,22.81H61.89a22.81,22.81,0,0,0,22.22-22.8H97a22.81,22.81,0,0,0,7.06-44.29Z"/><path class="cls-7" d="M297.57,43c0-.56.05-1.12.05-1.69a28.89,28.89,0,0,0-28.17-28.89v0h-59a28.92,28.92,0,0,0-28.92,28.91v0a28.91,28.91,0,0,0,0,57.76v0a28.92,28.92,0,0,0,28.92,28.91l33.63,0a28.9,28.9,0,0,0,28.17-28.89h16.35v0A28.91,28.91,0,0,0,297.57,43Z"/><path class="cls-8" d="M147.64,129a15.39,15.39,0,0,0-15-15.38h-31.4a15.4,15.4,0,0,0,0,30.79h31.4A15.4,15.4,0,0,0,147.64,129Z"/><path class="cls-9" d="M123.53,148.8a12.56,12.56,0,0,0-12.25-12.56H50.88a12.57,12.57,0,1,0,0,25.14h60.4A12.56,12.56,0,0,0,123.53,148.8Z"/><path class="cls-10" d="M262.81,130.73c0-8.37-7.1-15.18-15.95-15.39H183.47c-9.05,0-16.38,6.9-16.38,15.4s7.33,15.39,16.38,15.39h63.39C255.71,145.9,262.81,139.1,262.81,130.73Z"/><polygon class="cls-11" points="42 0 42 23.75 84.55 0 42 0"/><path class="cls-12" d="M69.38,36.39S63,45.48,62.25,47.55a37.78,37.78,0,0,1,6.37,5.18s-5.62-2-7.31-1.83c-1.31,4.72-1.87,6.76-1.87,6.76L63.56,60s-3.56.31-4.31,1.24,1.13,7.86,1.87,8.43c6.76-3.94,16.58-7.54,18.23-10.61-1.34-2.89-2.61-5.81-2.61-5.81l4,2.4,5.78-8.12L88.88,42l8.47-11.66L94.13,19.54,75.68,22.79Z"/><polygon class="cls-13" points="217.45 0 230 0 230 8.26 223.13 6.82 218.25 3.88 214.98 0 217.45 0"/><path class="cls-14" d="M71.14,239.72a60.92,60.92,0,0,0-19.58-7.06c-11.11-1.88-15,3.46-23.27,1.32,3.6,2.66,8.55,4.53,11,5.74a31.08,31.08,0,0,0,4.14-2.63,15,15,0,0,1-.54,4.5,51.43,51.43,0,0,0,6.26,6.76l4-1.65-2.7,4.35-.75,4.5H66.15Z"/></g><path class="cls-15" d="M62.58,253s-5.9-14.81-2.55-23.19c5.82,1.39,9.66,1.95,9.66,1.95l-7.11-7.54s1.64-7.83,4.29-10.34A41.08,41.08,0,0,0,74,217.51l-4.3-8.66s7.67-7,12.7-12.6c3.91,12,4.75,26.58,4.75,26.58l-5,1.79,5,1.83c.83,4.47,1.25,12.2-1.54,26.55h-23"/><path class="cls-16" d="M159.05,173.05s6,19,3.22,27.25C156.19,197.81,146.9,179,146,171.38S148.17,155,148.17,155Z"/><path class="cls-17" d="M153.9,165.46c.32,0,.24,29.35-1.37,36.63-4.81-3.37-10-25.46-10-25.46l5.21-14.56,6.65-3Z"/><path class="cls-18" d="M139,176.52s-5.21,18-2.44,25.71c5.66-2.48,14-20.39,14.68-27.56s-2.4-15.4-2.4-15.4Z"/><path class="cls-19" d="M155.54,165.52s4,12.72,2.16,18.28c-4.08-1.67-10.31-14.3-10.91-19.4s1.45-11,1.45-11Z"/><path class="cls-20" d="M152.09,160.43c.21,0,.16,19.68-.92,24.57-3.23-2.26-6.7-17.08-6.7-17.08l3.49-9.77,4.46-2Z"/><path class="cls-21" d="M137.56,170.15s-5.9,6.94-4.77,13.11c2.9-1.08,6.18-2.54,8.2-5.62,2.23-4.33,6.43-17.12,6.43-17.12Z"/><path class="cls-22" d="M132.2,3l-1.66,8.37,17.65.68L145.78,3.6S136.42-3.88,132.2,3Z"/><path class="cls-23" d="M142.1,167.85s-3.49,12.05-1.63,17.24c3.8-1.66,9.39-13.67,9.84-18.49s-1.6-10.33-1.6-10.33Z"/><path class="cls-24" d="M160.39,165.78s6.39,7.8,5,14.6c-3.19-1.25-6.79-2.93-9-6.38-2.38-4.83-6.78-19.08-6.78-19.08Z"/><path class="cls-25" d="M95,62.63c10.21-1.38,32.21-19.44,33.91-25.08A8.11,8.11,0,0,0,124.3,35c-3.17-.21-7.52,4.74-16.47,9S81.69,51.13,74,51.06c-4,0-5.24,1.27-5.5,2.53h0S84.83,64,95,62.63Z"/><path class="cls-26" d="M68.85,55.85c5.58,5.64,15.92,15,31.16,13.9s28.74-18.63,31.07-24c1.35-3.08-.07-6.16-2.13-8.24-1.7,5.64-21.67,21.37-31.88,22.74s-28.57-6.7-28.57-6.7h0A3.86,3.86,0,0,0,68.85,55.85Z"/><path class="cls-27" d="M68,53.1a3.8,3.8,0,0,1,.77-1.35c.38-.27,1.27.2,1.62,1s.92,2.43.64,3.21-.5,1.16-1.52.55A3.63,3.63,0,0,1,68,53.1Z"/><path class="cls-28" d="M104.09,89c9.06-4.89,23.24-29.58,22.84-35.46a8.13,8.13,0,0,0-5.27-.78c-3,.93-5.35,7.09-12.22,14.25s-21.91,16-29.13,18.62c-3.77,1.39-4.45,3-4.24,4.32h0S95,93.85,104.09,89Z"/><path class="cls-29" d="M77.19,91.89c7.22,3.3,20.2,8.37,34.07,2s20.29-27.59,20.58-33.4c.17-3.36-2.25-5.73-4.91-7,.4,5.88-12.71,27.66-21.77,32.56S76.07,89.9,76.07,89.9h0A3.89,3.89,0,0,0,77.19,91.89Z"/><path class="cls-27" d="M75.39,89.63a4,4,0,0,1,.24-1.54c.26-.39,1.26-.26,1.87.36s1.72,2,1.73,2.78-.06,1.26-1.22,1A3.63,3.63,0,0,1,75.39,89.63Z"/><path class="cls-30" d="M170,28.36c-10,2.33-37-6.78-40.59-11.45a8.25,8.25,0,0,1,3.43-4.08c2.89-1.31,8.71,1.78,18.59,2.6s27-2.55,34.16-5.34c3.74-1.45,5.35-.66,6,.43h0S180,26,170,28.36Z"/><path class="cls-31" d="M192.07,12.75c-3.22,7.25-9.59,19.65-24.22,24s-33.48-7.24-37.54-11.4c-2.36-2.41-2.11-5.79-.93-8.47,3.59,4.67,27.84,12.31,37.87,10s24.34-16.38,24.34-16.38h0A3.8,3.8,0,0,1,192.07,12.75Z"/><path class="cls-27" d="M191.93,9.86s-.74-.87-1.2-1-1.11.64-1.17,1.51,0,2.6.55,3.23.88.9,1.61,0A3.63,3.63,0,0,0,191.93,9.86Z"/><path class="cls-32" d="M153.47,111.4a4.44,4.44,0,0,1,3.72-1h0a5.52,5.52,0,0,1,3,1.7,5.29,5.29,0,0,1,1.21,3s0,.08,0,.12v.33c0,.2,0,.33,0,.33h0c-.08.41-.17.82-.25,1.24a42.25,42.25,0,0,0-.48,11.56c.06.71.14,1.4.24,2.09l0,.17c0,.32.1.64.15,1s.14.79.23,1.17c.16.84.35,1.68.58,2.5l0,.11a42.51,42.51,0,0,0,2.24,6.3c.21.45.42.91.64,1.35.07.13.12.26.19.39.16.32.34.64.5,1l.35.62c.24.41.47.82.72,1.22.08.14.16.28.25.42l.07.12c.15.26.3.48.46.73s.32.5.49.75a40.91,40.91,0,0,0,2.84,3.71l.13.16.1.12c.36.41.73.81,1.1,1.21l.08.09a2.39,2.39,0,0,1,.22.23c.57.59,1.15,1.16,1.75,1.72s1.28,1.16,2,1.72l.12.1.1.07c.46.38.93.74,1.41,1.1l.48.35.48.34c.52.37,1.05.72,1.6,1.06l.59.38c.35.21.7.42,1.06.62.18.11.35.21.55.31s.27.15.41.22l.42.22.47.25c.53.27,1.07.53,1.61.78l.08,0c.5.23,1,.44,1.51.65h0c2,.94,7.12,2.61,10.21,4.69,1.42,1,2.43,2,2.56,3.08a3,3,0,0,1,0,.42h0a2.71,2.71,0,0,1-.09.41h0l0,0a5.67,5.67,0,0,1-2.33,2.87,14.43,14.43,0,0,1-5.06,2,42.48,42.48,0,0,1-42.54-61.25A14.91,14.91,0,0,1,153.47,111.4Z"/><path class="cls-33" d="M160.22,112.07a5.32,5.32,0,0,1,1.21,3s0,.08,0,.12v.32a1.88,1.88,0,0,1,0,.34h0c-.08.41-.17.82-.24,1.23-.12.66-.21,1.32-.31,2a1.49,1.49,0,0,0,0,.21l-.06.52c-.06.46-.11.91-.14,1.37,0,.26,0,.51,0,.78s-.06.83-.07,1.23,0,.56,0,.83,0,.8,0,1.2,0,.54,0,.81,0,.81.06,1.22l0,.51c0,.31,0,.62.07.93l.08.66c0,.21,0,.42.07.64s.06.52.1.79l0,.17c.05.32.1.64.16,1,0,.14.05.29.08.43s.08.47.14.74l.18.84.15.65c.09.33.16.67.25,1l0,.11c.09.36.2.72.31,1.07s.14.5.22.75.21.62.31.92l.31.9c0,.13.11.26.15.39l.19.5c.13.32.26.64.4,1s.24.55.35.81.3.65.45,1l.18.38c.07.13.12.26.19.39.16.32.34.64.5,1l.35.62c.24.42.47.83.72,1.23.08.14.16.28.25.41l.07.12.46.73.49.75c.2.28.4.57.6.84s.32.45.51.7.37.49.56.74l.18.23.41.51c.18.23.38.45.57.68l.13.16.11.12.41.46.68.75.08.09a2.39,2.39,0,0,1,.22.23l.23.23c.5.5,1,1,1.52,1.49s1,.95,1.6,1.41l.36.31.12.1.1.07c.46.38.93.74,1.41,1.1.15.11.31.24.48.35l.48.34.59.4c.33.23.67.45,1,.66l.59.38,1.06.62.55.31.41.22.42.22.33.17.14.08c.54.27,1.07.53,1.61.78l.09,0c.49.23,1,.44,1.5.65h0c2.05.94,7.12,2.61,10.22,4.69,1.41.95,2.42,2,2.55,3.08a3,3,0,0,1,0,.42h0a2.71,2.71,0,0,1-.09.41l-.93.1c-.48.05-1,.09-1.47.12a42.44,42.44,0,0,1-44.38-49.93c.1-.52.2-1,.32-1.55a42,42,0,0,1,4-10.84l0-.07A5.84,5.84,0,0,1,160.22,112.07Z"/><path class="cls-27" d="M199.73,171.74a2,2,0,0,1,0,.42h0a2.71,2.71,0,0,1-.09.41h0v0a5.67,5.67,0,0,1-2.33,2.87,6.89,6.89,0,0,0-.13-6.82C198.58,169.59,199.59,170.63,199.73,171.74Z"/><path class="cls-34" d="M199.72,171.73a3,3,0,0,1,0,.42h0a2.71,2.71,0,0,1-.09.41l-.93.1-.59.05a7.59,7.59,0,0,0-1-4.07C198.58,169.59,199.59,170.63,199.72,171.73Z"/><path class="cls-34" d="M127.84,100.5l-3.2,1.86L121,96.05a1.36,1.36,0,0,1,.5-1.87h0l.83-.49a1.36,1.36,0,0,1,1.87.5Z"/><path class="cls-27" d="M127.84,100.5l-1.6.93-4.37-7.5.42-.24a1.37,1.37,0,0,1,1.87.49Z"/><path class="cls-35" d="M132.21,101.54a37.39,37.39,0,0,1-30.71,58,12.8,12.8,0,0,1-4.63-1.22,5,5,0,0,1-2.35-2.26v0h0a2.06,2.06,0,0,1-.12-.35h0a1.47,1.47,0,0,1,0-.36c0-1,.77-2,1.91-3,2.48-2.14,6.73-4.13,8.43-5.17h0c.42-.23.84-.47,1.25-.72l.07,0c.45-.27.89-.55,1.32-.85l.39-.26.35-.24.33-.24c.16-.11.31-.21.45-.32l.86-.66.48-.39c.44-.35.86-.72,1.28-1.09l.38-.36.39-.35c.38-.37.75-.73,1.11-1.11l.08-.08.1-.1c.53-.55,1-1.12,1.53-1.7s.91-1.11,1.34-1.69l.17-.22.07-.09.82-1.17.08-.12.1-.15a37.1,37.1,0,0,0,2.09-3.55c.12-.23.24-.46.35-.7s.22-.45.32-.69l.06-.11c0-.13.11-.26.17-.39.17-.38.33-.76.49-1.14l.24-.58c.12-.31.23-.6.34-.91l.12-.35c.15-.41.29-.83.42-1.25a35.28,35.28,0,0,0,1.29-5.74l0-.1c.11-.74.2-1.49.25-2.24,0-.35,0-.7.07-1s0-.57,0-.85v-.16c0-.61,0-1.22,0-1.84a36.88,36.88,0,0,0-1.64-10.06c-.11-.35-.23-.7-.35-1h0s0-.11,0-.29a1.1,1.1,0,0,0,0-.18v-.22a4.63,4.63,0,0,1,.74-2.71,4.87,4.87,0,0,1,2.45-1.8h0a3.91,3.91,0,0,1,3.36.49A13,13,0,0,1,132.21,101.54Z"/><path class="cls-36" d="M125.06,97.24l0,.06a37,37,0,0,1,4.62,9c.15.43.3.87.44,1.32A37.33,37.33,0,0,1,96.63,156l-1.29,0h-.82a2.06,2.06,0,0,1-.12-.35h0a1.47,1.47,0,0,1,0-.36c0-1,.77-2,1.9-3,2.49-2.14,6.74-4.13,8.44-5.17h0c.42-.23.84-.47,1.25-.72l.07-.05c.44-.27.88-.55,1.32-.85l.12-.08.27-.18.34-.24.34-.24.45-.32.85-.66.48-.39c.28-.22.55-.45.81-.68l.47-.41.39-.35.39-.36c.38-.37.75-.73,1.11-1.11l.08-.08.1-.1.28-.3c.42-.46.84-.92,1.24-1.4s.8-1,1.18-1.47l.17-.22.17-.22.06-.09c.18-.24.35-.48.52-.73l.31-.44.08-.12.1-.15c.14-.22.29-.43.42-.66l.31-.48.13-.23c.14-.23.28-.46.41-.7l.37-.66c.15-.27.3-.53.44-.8l.35-.71.32-.68.06-.12.17-.39c.17-.37.33-.75.49-1.14l.24-.58c.12-.31.23-.6.34-.91l.12-.35.12-.36c.1-.3.21-.59.3-.9s.15-.49.21-.75.18-.58.25-.87l.11-.46c0-.12.07-.24.09-.35.07-.28.12-.55.18-.82s.12-.56.18-.84.08-.45.11-.68.11-.64.16-1l0-.11c0-.3.07-.61.11-.91s0-.39.06-.58,0-.5.07-.75,0-.44,0-.66l0-.39,0-.85v-.16c0-.23,0-.47,0-.7s0-.38,0-.57v-.58c0-.27,0-.55,0-.82l0-.45c0-.36,0-.71-.07-1.06s0-.48-.07-.72-.08-.7-.13-1-.07-.47-.11-.71-.11-.72-.18-1.08-.08-.45-.13-.67c-.08-.4-.17-.79-.27-1.18,0-.15-.07-.3-.1-.45s0-.12,0-.18c-.15-.56-.3-1.13-.47-1.69-.11-.35-.23-.7-.35-1h0s0-.11,0-.29,0-.12,0-.18v-.11a.37.37,0,0,1,0-.11,4.56,4.56,0,0,1,.75-2.71A5,5,0,0,1,125.06,97.24Z"/><path class="cls-27" d="M96.26,152.34a6,6,0,0,0,.61,6,5,5,0,0,1-2.35-2.26v0h0a2.06,2.06,0,0,1-.12-.35h0a2.2,2.2,0,0,1,0-.36C94.35,154.33,95.12,153.32,96.26,152.34Z"/><path class="cls-34" d="M96.26,152.34a6.59,6.59,0,0,0-.4,3.66h-.53l-.81,0c0-.12-.09-.24-.13-.36h0a2.22,2.22,0,0,1,0-.37C94.35,154.33,95.12,153.32,96.26,152.34Z"/><path class="cls-37" d="M141.87,107.55a42.47,42.47,0,0,1-19.61,71.94,14.3,14.3,0,0,1-5.44-.19,5.72,5.72,0,0,1-3.16-1.92l0,0h0a3.13,3.13,0,0,1-.22-.36h0a2,2,0,0,1-.13-.39c-.25-1.08.35-2.39,1.37-3.76,2.22-3,6.44-6.27,8.06-7.84h0c.4-.36.81-.74,1.2-1.12l.06-.06c.43-.42.85-.84,1.26-1.28l.37-.39.32-.34.31-.35c.15-.16.29-.31.42-.47l.78-1,.44-.55q.6-.75,1.14-1.53c.12-.16.24-.32.35-.49s.22-.33.33-.49c.34-.5.66-1,1-1.5l.06-.11.09-.13c.44-.75.87-1.51,1.26-2.27s.74-1.46,1.08-2.21a2.55,2.55,0,0,1,.13-.29l.05-.12c.21-.49.42-1,.62-1.5a.94.94,0,0,0,.06-.15l.07-.19a41.14,41.14,0,0,0,1.43-4.45c.08-.29.15-.58.22-.87s.13-.55.18-.84l0-.14.09-.47c.1-.47.18-.93.27-1.4l.12-.7c0-.37.1-.72.15-1.08,0-.14,0-.29,0-.43.07-.49.11-1,.15-1.49a40.27,40.27,0,0,0,0-6.68v-.12c-.07-.85-.16-1.7-.29-2.54-.05-.39-.11-.79-.18-1.19s-.11-.63-.18-1l0-.18c-.13-.68-.29-1.36-.47-2a42.18,42.18,0,0,0-4.32-10.74c-.21-.36-.43-.72-.65-1.08h0l-.12-.31c0-.06,0-.13-.07-.2l0-.11a.53.53,0,0,1,0-.12,5.15,5.15,0,0,1,.15-3.2,5.5,5.5,0,0,1,2.26-2.6h0a4.41,4.41,0,0,1,3.85-.29A14.78,14.78,0,0,1,141.87,107.55Z"/><path class="cls-38" d="M132.87,104.57l0,.05a42.58,42.58,0,0,1,7.38,8.89l.82,1.35A42.44,42.44,0,0,1,116,176.75c-.48.14-1,.27-1.43.38l-.9.22a2.16,2.16,0,0,1-.22-.36h0a1.9,1.9,0,0,1-.14-.4c-.24-1.07.36-2.39,1.38-3.76,2.22-3,6.44-6.26,8.06-7.83h0l1.21-1.12.06-.06c.43-.42.85-.84,1.26-1.28l.11-.12.25-.27.32-.35.31-.35c.15-.16.29-.31.42-.47l.79-.94c.15-.18.29-.37.43-.55l.73-1,.42-.57.34-.49c.12-.16.23-.33.34-.49q.5-.75,1-1.5l.07-.11.08-.14.23-.4c.37-.62.71-1.24,1-1.87s.64-1.27.94-1.91l.13-.3c0-.09.09-.19.13-.28l.05-.12c.14-.31.26-.62.39-.93l.24-.57a.94.94,0,0,1,.06-.15l.07-.2c.1-.27.21-.54.31-.83l.21-.61.09-.28c.1-.3.2-.59.29-.89s.16-.55.24-.82.19-.66.28-1l.22-.87.19-.85,0-.14.09-.47c.1-.46.19-.92.27-1.39l.12-.71c0-.37.1-.72.15-1.08,0-.14,0-.29,0-.43l0-.42c0-.36.08-.71.1-1.07s0-.59,0-.89.05-.69.06-1v-.53c0-.14,0-.29,0-.42v-1c0-.32,0-.65,0-1s0-.52,0-.78,0-.74-.07-1.11v-.11c0-.35-.07-.7-.1-1s0-.45-.08-.67-.07-.56-.11-.84-.07-.5-.11-.75-.05-.29-.07-.44c-.06-.31-.11-.63-.17-.95l0-.17c-.05-.26-.11-.52-.17-.78s-.1-.42-.15-.63l-.15-.64c-.07-.3-.16-.6-.24-.9l-.14-.49c-.11-.4-.23-.78-.35-1.17l-.26-.77c-.13-.38-.26-.76-.4-1.13l-.3-.77c-.15-.38-.31-.76-.47-1.15-.11-.24-.2-.48-.32-.71-.18-.42-.38-.83-.58-1.24-.08-.16-.15-.32-.23-.47s-.07-.13-.1-.19c-.3-.58-.62-1.17-.94-1.76-.21-.36-.43-.72-.65-1.08h0s0-.11-.12-.31l-.06-.19,0-.12a.53.53,0,0,1,0-.12,5.16,5.16,0,0,1,.15-3.2A5.67,5.67,0,0,1,132.87,104.57Z"/><path class="cls-27" d="M114.67,172.83a6.87,6.87,0,0,0,2.15,6.47,5.76,5.76,0,0,1-3.16-1.92v0h0a2.21,2.21,0,0,1-.23-.36h0a1.87,1.87,0,0,1-.13-.4C113,175.51,113.65,174.2,114.67,172.83Z"/><path class="cls-34" d="M114.67,172.83a7.6,7.6,0,0,0,.46,4.16l-.58.14-.9.22a2.74,2.74,0,0,1-.23-.36h0a2.67,2.67,0,0,1-.13-.4C113,175.51,113.65,174.2,114.67,172.83Z"/><path class="cls-34" d="M123.41,84.62l-3.47,1.29-2.55-6.84a1.37,1.37,0,0,1,.81-1.76h0l.9-.34a1.37,1.37,0,0,1,1.76.8Z"/><path class="cls-27" d="M123.41,84.62l-1.73.65-3-8.14.45-.17a1.37,1.37,0,0,1,1.76.81Z"/><path class="cls-39" d="M127.55,86.38a37.41,37.41,0,0,1-29.44,52.1,37,37,0,0,1-10.67-.16,12.73,12.73,0,0,1-4.36-2,5,5,0,0,1-1.92-2.62v0h0a2.38,2.38,0,0,1-.06-.37h0a1.53,1.53,0,0,1,0-.37c.16-1,1.1-1.82,2.39-2.6,2.81-1.69,7.34-2.93,9.18-3.66h0c.45-.16.9-.32,1.35-.5l.07,0c.49-.2,1-.4,1.46-.62l.42-.19.38-.18a3.14,3.14,0,0,0,.37-.18c.18-.08.34-.15.5-.24q.48-.24,1-.51a5.54,5.54,0,0,0,.53-.3c.5-.27,1-.56,1.45-.86.15-.09.3-.18.44-.28l.44-.29q.66-.44,1.29-.9l.09-.06.11-.08c.62-.46,1.22-.93,1.8-1.42s1.08-.94,1.61-1.44l.2-.19.08-.08c.35-.33.68-.66,1-1l.09-.1.13-.13a37.61,37.61,0,0,0,2.65-3.14c.16-.21.32-.42.47-.64s.29-.4.43-.62l.08-.1c.08-.12.16-.24.23-.36.24-.34.46-.69.69-1l.33-.53.49-.83.18-.33c.21-.38.42-.77.62-1.16a37.2,37.2,0,0,0,2.25-5.43l0-.1c.24-.72.45-1.44.63-2.17.09-.33.17-.68.25-1s.12-.55.17-.83l0-.15c.12-.6.23-1.2.31-1.82a37,37,0,0,0,.09-10.19c0-.37-.11-.73-.17-1.1h0s0-.11,0-.29a1,1,0,0,0,0-.18l0-.1s0-.07,0-.11a4.63,4.63,0,0,1,1.2-2.55,4.85,4.85,0,0,1,2.72-1.36h0a3.87,3.87,0,0,1,3.22,1A13,13,0,0,1,127.55,86.38Z"/><path class="cls-40" d="M121.22,80.94l0,.06a37.43,37.43,0,0,1,3,9.7q.11.67.21,1.38A37.32,37.32,0,0,1,83.25,134c-.43,0-.86-.1-1.28-.17l-.81-.12a2.38,2.38,0,0,1-.06-.37h0a1.53,1.53,0,0,1,0-.37c.16-.95,1.09-1.82,2.38-2.59,2.82-1.69,7.34-2.94,9.19-3.67h0c.45-.16.9-.32,1.35-.5l.07,0c.49-.2,1-.4,1.45-.62l.13-.06.3-.13.38-.18.37-.18c.17-.08.34-.15.5-.24l1-.5c.18-.1.36-.2.53-.31l.92-.53.53-.32.44-.29.44-.28c.44-.3.87-.59,1.29-.9l.09-.07.11-.08.33-.25c.5-.38,1-.77,1.46-1.17s1-.82,1.41-1.25l.21-.19.2-.19.08-.07.63-.63.38-.39.1-.1.13-.13.53-.58.38-.42.17-.2.52-.62.48-.59.56-.72.47-.63.43-.62.08-.11c.08-.11.16-.23.23-.35.24-.34.46-.69.69-1l.33-.53.49-.83.18-.33.17-.33c.15-.28.31-.55.45-.84s.23-.46.34-.7.27-.54.39-.82l.19-.43c0-.11.11-.23.15-.34s.21-.52.31-.77.21-.54.32-.8.15-.43.22-.65.22-.61.32-.92l0-.1c.09-.29.18-.59.26-.88s.12-.38.17-.57.13-.48.19-.72.11-.43.16-.64l.09-.38c.06-.28.13-.56.18-.84l0-.15.12-.69c0-.18.06-.37.09-.56l.1-.57c0-.28.07-.55.1-.82l0-.44c0-.36.08-.72.11-1.07s0-.48,0-.71,0-.71,0-1.06,0-.48,0-.73,0-.72,0-1.09,0-.45,0-.68c0-.41,0-.81-.06-1.21l0-.46c0-.06,0-.12,0-.19-.06-.57-.11-1.16-.18-1.74,0-.37-.11-.73-.17-1.1h0s0-.11,0-.29a1.09,1.09,0,0,0,0-.18l0-.1s0-.07,0-.11a4.7,4.7,0,0,1,1.2-2.55A5,5,0,0,1,121.22,80.94Z"/><path class="cls-27" d="M83.5,130.35a6,6,0,0,0-.41,6,5,5,0,0,1-1.93-2.63h0a2.58,2.58,0,0,1-.06-.37h0a2.22,2.22,0,0,1,0-.37C81.28,132,82.21,131.12,83.5,130.35Z"/><path class="cls-34" d="M83.5,130.35a6.71,6.71,0,0,0-1,3.54l-.52-.08c-.27,0-.54-.08-.8-.12a2.38,2.38,0,0,1-.06-.37h0a1.53,1.53,0,0,1,0-.37C81.28,132,82.21,131.12,83.5,130.35Z"/><path class="cls-34" d="M119.69,65.88l-3.61.83-1.65-7.11a1.37,1.37,0,0,1,1-1.65h0l.94-.21a1.35,1.35,0,0,1,1.64,1Z"/><path class="cls-27" d="M119.69,65.88l-1.8.42-2-8.46.47-.11a1.37,1.37,0,0,1,1.64,1Z"/><path class="cls-41" d="M123.56,68.15a37.35,37.35,0,0,1-35.85,47.9,36.71,36.71,0,0,1-10.57-1.52A12.91,12.91,0,0,1,73.07,112a5.06,5.06,0,0,1-1.57-2.85v0h0c0-.12,0-.25,0-.37h0a1.91,1.91,0,0,1,.07-.36c.28-.93,1.32-1.67,2.7-2.27,3-1.32,7.65-2,9.58-2.46h0l1.41-.32.08,0c.51-.13,1-.27,1.51-.42l.45-.14.4-.13.39-.13.53-.17,1-.38.57-.23c.53-.21,1-.43,1.55-.67l.47-.22.47-.23c.47-.23.94-.48,1.39-.73a.31.31,0,0,0,.1-.05l.13-.07c.66-.37,1.32-.77,2-1.18s1.2-.79,1.78-1.21l.23-.17.09-.06c.38-.29.76-.58,1.13-.88l.11-.09.14-.11a34.65,34.65,0,0,0,3-2.78c.19-.18.37-.37.55-.57s.34-.36.51-.56l.09-.09.27-.32c.28-.31.55-.63.82-1l.39-.48c.2-.26.4-.5.59-.76.08-.1.15-.21.22-.31.27-.34.52-.71.77-1.07a36.81,36.81,0,0,0,2.93-5.1l0-.09q.49-1,.9-2.07c.13-.32.26-.65.38-1s.19-.53.28-.8l0-.15c.2-.58.37-1.16.54-1.76a37.46,37.46,0,0,0,1.39-10.1c0-.37,0-.74,0-1.11h0a1.48,1.48,0,0,1,0-.29l0-.17,0-.1,0-.11A4.61,4.61,0,0,1,115.11,63,4.83,4.83,0,0,1,118,62h0a3.9,3.9,0,0,1,3.07,1.46A12.89,12.89,0,0,1,123.56,68.15Z"/><path class="cls-42" d="M118,61.94l0,.06a37.5,37.5,0,0,1,1.75,10c0,.45,0,.92,0,1.39a37.37,37.37,0,0,1-37.38,37.36,36.88,36.88,0,0,1-8.87-1.08c-.42-.1-.84-.21-1.25-.33l-.79-.23c0-.12,0-.25,0-.37h0a2.29,2.29,0,0,1,.07-.36c.28-.93,1.32-1.67,2.7-2.27,3-1.32,7.65-2,9.58-2.46h0c.47-.1.94-.2,1.41-.32l.08,0,1.51-.43.14,0,.31-.1.4-.12.39-.13.53-.18,1-.38.57-.23,1-.41.58-.26.47-.22.47-.23c.47-.23.94-.47,1.39-.72l.1-.06.12-.06.36-.21c.55-.31,1.08-.64,1.61-1s1-.7,1.55-1.06l.23-.16.23-.16.09-.07.7-.54.43-.34s.08,0,.11-.09l.14-.11.6-.5.43-.38L101,95l.61-.55.55-.53.64-.63.55-.57.51-.56.08-.1c.1-.1.19-.21.28-.32.28-.3.55-.62.81-.94l.4-.49c.2-.26.4-.5.59-.76.08-.1.15-.21.22-.31l.22-.3.55-.77.43-.66c.17-.25.33-.5.49-.77l.24-.39c.06-.11.14-.22.19-.32l.42-.73.41-.75.31-.61c.14-.29.29-.58.43-.88l0-.09.38-.84c.08-.18.16-.36.23-.54l.29-.69c.09-.23.16-.41.23-.62s.1-.24.14-.37.2-.53.29-.8l0-.15.21-.67c.06-.17.11-.36.16-.54l.16-.56c.08-.26.15-.53.21-.79l.11-.44c.09-.35.17-.69.24-1s.1-.47.14-.7.13-.7.19-1,.07-.47.11-.71.1-.72.13-1.08.06-.46.08-.69c0-.4.07-.8.1-1.2,0-.16,0-.31,0-.46a1.21,1.21,0,0,0,0-.19c0-.58,0-1.16,0-1.75,0-.37,0-.74,0-1.11h0s0-.11,0-.29,0-.11,0-.18l0-.09a.43.43,0,0,1,0-.11,4.69,4.69,0,0,1,1.52-2.38A5.06,5.06,0,0,1,118,61.94Z"/><path class="cls-27" d="M74.26,106.12A6,6,0,0,0,73.08,112a5.08,5.08,0,0,1-1.58-2.85v0h0a2.3,2.3,0,0,1,0-.37h0a1.35,1.35,0,0,1,.08-.36C71.84,107.46,72.88,106.72,74.26,106.12Z"/><path class="cls-34" d="M74.26,106.12a6.7,6.7,0,0,0-1.47,3.38l-.5-.14-.79-.23a2.29,2.29,0,0,1,0-.37h0a2.29,2.29,0,0,1,.07-.36C71.84,107.46,72.88,106.72,74.26,106.12Z"/><path class="cls-34" d="M163.1,88.88a1.59,1.59,0,0,1,2-1.14l1.09.29h0a1.61,1.61,0,0,1,1.14,2l-2.2,8.28-4.2-1.12Z"/><path class="cls-27" d="M163.1,88.87a1.61,1.61,0,0,1,2-1.14l.55.15L163,97.72l-2.1-.56Z"/><path class="cls-43" d="M159.38,94.21a4.53,4.53,0,0,1,3.64-1.6h0a5.67,5.67,0,0,1,3.33,1.27,5.46,5.46,0,0,1,1.69,2.85l0,.12,0,.12,0,.21c0,.21,0,.34,0,.34h0c0,.43-.05.86-.07,1.3a43.59,43.59,0,0,0,1.26,11.88c.17.71.35,1.4.56,2.09l0,.17c.1.32.21.64.31,1s.26.79.4,1.17c.3.83.62,1.65,1,2.46l.05.11a41.81,41.81,0,0,0,3.24,6.09c.27.43.56.87.85,1.28.09.12.17.25.25.37.22.31.44.6.66.92l.45.57c.31.39.6.77.92,1.14l.31.39.1.11c.19.24.38.44.58.68s.4.46.62.69a42.09,42.09,0,0,0,3.45,3.36l.16.14a1.31,1.31,0,0,1,.12.11c.43.37.86.72,1.3,1.07l.1.08.26.2c.67.52,1.35,1,2,1.49s1.48,1,2.25,1.46l.14.08.12.06c.52.32,1.06.62,1.6.91l.55.29.54.27c.59.3,1.18.58,1.79.84l.66.29L196,141l.61.22.45.17.47.16.52.18c.58.2,1.17.38,1.76.55l.09,0c.54.16,1.09.3,1.64.44h0c2.23.65,7.66,1.59,11.13,3.24,1.59.76,2.78,1.67,3.07,2.76a2.14,2.14,0,0,1,.07.43h0a1.63,1.63,0,0,1,0,.44h0v0a5.92,5.92,0,0,1-1.95,3.28,15.11,15.11,0,0,1-4.86,2.81A43.83,43.83,0,0,1,154.1,112a43.67,43.67,0,0,1,2.17-12.3A15.29,15.29,0,0,1,159.38,94.21Z"/><path class="cls-44" d="M166.37,93.87a5.5,5.5,0,0,1,1.69,2.84l0,.12,0,.12c0,.08,0,.15,0,.21,0,.21,0,.34,0,.34h0c0,.44-.05.87-.07,1.3,0,.69,0,1.38,0,2.06a1.7,1.7,0,0,0,0,.22c0,.18,0,.35,0,.54,0,.47,0,.94.07,1.41,0,.27,0,.53.06.8l.12,1.28c0,.28.07.56.1.84l.18,1.23c.05.27.09.55.14.83s.15.82.25,1.23l.11.51.21.94.17.66.17.65c.08.26.15.52.23.79l.05.17c.09.32.2.64.3,1l.15.44c.09.24.16.46.26.73s.2.55.31.82.16.43.25.64.27.67.41,1l.05.11c.15.35.32.7.48,1s.22.49.34.73l.45.9.46.87c.06.12.14.25.21.38l.27.47c.18.32.36.62.55.92l.48.78c.19.32.4.62.61.93l.24.36c.09.12.17.25.25.37.22.31.44.6.66.92l.45.58c.31.39.6.77.92,1.14l.31.38.1.12.58.67.62.69.73.77.63.64.68.66.22.21.49.46.69.61.16.14.12.11.5.41.8.66.1.08.26.2.27.2c.58.44,1.17.88,1.78,1.29s1.21.82,1.84,1.2l.41.26.14.08.11.07c.53.31,1.07.61,1.61.9l.54.29.55.27.66.32c.37.18.75.36,1.13.52l.66.29L196,141l.61.22.45.17.46.16.37.13.15,0c.59.2,1.18.38,1.77.55l.09,0,1.64.43h0c2.24.64,7.67,1.58,11.14,3.23,1.59.76,2.78,1.67,3.07,2.77a1.94,1.94,0,0,1,.07.42h0a3.25,3.25,0,0,1,0,.44l-.93.24-1.48.34A43.8,43.8,0,0,1,160.49,106c0-.56,0-1.1.09-1.64A43.94,43.94,0,0,1,163,92.68l0-.07A5.9,5.9,0,0,1,166.37,93.87Z"/><path class="cls-27" d="M215.72,148.79a2.14,2.14,0,0,1,.07.43h0a3.37,3.37,0,0,1,0,.44h0v0A5.86,5.86,0,0,1,213.8,153a7.08,7.08,0,0,0-1.16-6.94C214.23,146.77,215.42,147.68,215.72,148.79Z"/><path class="cls-34" d="M215.71,148.78a2.14,2.14,0,0,1,.07.43h0a2.16,2.16,0,0,1,0,.44l-.93.24-.6.14a7.77,7.77,0,0,0-1.59-4C214.23,146.77,215.42,147.68,215.71,148.78Z"/><path class="cls-34" d="M166.23,85.15A1.17,1.17,0,0,1,167.41,84h.83a1.18,1.18,0,0,1,1.15,1.19l-.1,6.22-3.15,0Z"/><path class="cls-27" d="M166.23,85.15A1.16,1.16,0,0,1,167.41,84h.41l-.1,7.4-1.58,0Z"/><path class="cls-45" d="M164.55,89.56a3.3,3.3,0,0,1,2.29-1.76h0a4.14,4.14,0,0,1,2.57.31,3.91,3.91,0,0,1,1.69,1.7.36.36,0,0,1,0,.09l0,.07c0,.06.05.1.07.15a1.45,1.45,0,0,1,.08.23h0c.06.31.12.62.19.93a31.5,31.5,0,0,0,3,8.15c.25.47.5.93.77,1.38l.07.11c.12.21.25.42.38.62s.32.51.49.75c.36.53.73,1.06,1.12,1.56l.06.07a31.18,31.18,0,0,0,3.36,3.72c.27.26.55.51.83.75l.24.22.63.53.42.33.85.64.29.21.09.07.52.37.56.38a31.44,31.44,0,0,0,3,1.76l.13.07.11,0c.37.19.74.36,1.11.53l.08,0,.22.09q.84.38,1.71.69c.6.23,1.22.44,1.84.63l.12,0,.09,0c.43.13.86.24,1.29.35l.44.11.43.1c.47.1.93.2,1.41.27a4.34,4.34,0,0,0,.52.09l.91.14.47,0,.35,0,.35,0,.4,0c.45,0,.89.06,1.34.08h1.31c1.7.06,5.69-.23,8.43.32a3.78,3.78,0,0,1,2.65,1.4,1.51,1.51,0,0,1,.13.29h0a1.67,1.67,0,0,1,.05.31h0v0a4.3,4.3,0,0,1-.79,2.66,11,11,0,0,1-2.93,2.84A31.87,31.87,0,0,1,164,103a31.67,31.67,0,0,1-.65-9.06A11.26,11.26,0,0,1,164.55,89.56Z"/><path class="cls-46" d="M169.42,88.09a3.88,3.88,0,0,1,1.69,1.71.56.56,0,0,1,0,.08l0,.08.06.14c.06.14.09.23.09.23h0q.08.47.18.93c.11.49.23,1,.35,1.45,0,.05,0,.1.05.15s.07.25.1.38c.1.33.19.66.3,1,.06.18.12.37.19.55s.2.59.31.88.14.39.22.57l.34.84c.08.19.16.37.25.56s.25.55.39.82l.16.35c.11.21.21.42.32.62l.24.44.23.42.3.52.07.11c.12.21.25.42.38.62l.18.28c.11.16.19.3.31.47l.37.53.29.4c.15.21.3.43.46.63l.06.07.52.65c.12.16.24.31.37.46l.48.55c.16.18.31.36.48.53s.14.15.21.23l.27.29.55.55.48.47c.19.19.39.36.59.54l.24.21.24.22.63.53.42.33c.28.22.56.44.85.64a3.15,3.15,0,0,0,.29.22l.09.06.52.38.56.37.65.41.56.34.6.35.19.11.43.23a6.63,6.63,0,0,0,.59.31l.14.07.1.06.42.2.69.32.08,0,.22.1.22.09c.49.21,1,.41,1.49.6s1,.36,1.51.52l.33.11.12,0,.09,0,1.29.35.44.11.43.09.52.11.89.17.52.09.91.13.47,0,.35,0,.35,0,.28,0h.12l1.34.08h.07l1.23,0h0c1.7.06,5.69-.24,8.43.31a3.76,3.76,0,0,1,2.65,1.41,1.17,1.17,0,0,1,.13.28h0a1.8,1.8,0,0,1,.06.32l-.62.33-1,.5a32.2,32.2,0,0,1-7.2,2.51,31.85,31.85,0,0,1-37.89-24.36c-.08-.39-.16-.78-.23-1.17a31.73,31.73,0,0,1-.35-8.65v-.06A4.31,4.31,0,0,1,169.42,88.09Z"/><path class="cls-27" d="M213.93,118.09a1.51,1.51,0,0,1,.13.29h0c0,.1,0,.21.05.31h0v0a4.3,4.3,0,0,1-.79,2.66,5.16,5.16,0,0,0-2-4.69A3.79,3.79,0,0,1,213.93,118.09Z"/><path class="cls-34" d="M213.92,118.09a1.43,1.43,0,0,1,.13.28h0a1.8,1.8,0,0,1,.06.32l-.61.33-.4.21a5.7,5.7,0,0,0-1.83-2.55A3.75,3.75,0,0,1,213.92,118.09Z"/><path class="cls-47" d="M131.64,31.38a35.11,35.11,0,0,1-7.19,7.11,35.46,35.46,0,0,1-54.4-16.33,12,12,0,0,1-.38-4.52A4.73,4.73,0,0,1,71,14.83v0h0a1.93,1.93,0,0,1,.28-.22h0a1.77,1.77,0,0,1,.31-.15,4.22,4.22,0,0,1,3.26.77c2.7,1.55,5.82,4.73,7.28,5.92h0c.34.3.68.6,1,.89l.06,0c.39.31.78.62,1.18.91l.36.27.32.23a3.62,3.62,0,0,0,.32.22l.43.31.86.56.5.3c.46.28.91.55,1.38.8a4.77,4.77,0,0,0,.44.24l.44.23c.45.23.89.44,1.34.65l.09.05.13,0c.66.3,1.33.58,2,.83s1.29.47,1.94.68l.25.08.1,0,1.31.37.13,0,.17,0a35.49,35.49,0,0,0,3.83.75c.24,0,.49.07.74.09l.72.08h.12l.4,0c.39,0,.78.06,1.18.09l.59,0,.92,0h.35c.42,0,.84,0,1.25,0a34.45,34.45,0,0,0,5.55-.65h.09c.7-.14,1.4-.3,2.09-.49q.48-.12,1-.27l.78-.23.14-.05c.55-.18,1.1-.37,1.65-.59a35.33,35.33,0,0,0,8.48-4.64c.28-.21.56-.42.83-.64h0l.25-.13.16-.07.09,0,.09,0a4.36,4.36,0,0,1,2.67-.19,4.54,4.54,0,0,1,2.38,1.62h0a3.66,3.66,0,0,1,.62,3.16A12.28,12.28,0,0,1,131.64,31.38Z"/><path class="cls-48" d="M133.23,23.63l0,0a34.94,34.94,0,0,1-6.64,7c-.34.28-.69.54-1,.82a35.48,35.48,0,0,1-49.61-7.42,35.34,35.34,0,0,1-4.18-7.38c-.16-.37-.32-.76-.46-1.14s-.18-.49-.27-.73l.28-.22h0a1.77,1.77,0,0,1,.31-.15,4.19,4.19,0,0,1,3.26.78c2.7,1.54,5.82,4.72,7.28,5.91h0c.34.31.69.6,1,.89l.06,0c.39.31.78.62,1.18.92l.11.08.25.18.32.23.32.23c.15.11.28.21.43.3l.86.56.5.31.87.5.51.3.44.23.44.23c.45.23.89.45,1.34.65a.31.31,0,0,0,.1.05l.12.06.36.15c.54.24,1.09.46,1.64.67s1.12.41,1.69.59l.25.09.25.08.1,0,.81.23.5.14.13,0,.17,0,.72.18.53.12.24,0,.76.14.71.13.85.13.75.1.71.07h.12l.4,0,1.18.09.6,0,.92,0h.71l.9,0,.74,0,.86-.06.44,0,.35,0,.79-.1.81-.11.64-.11.91-.16.1,0,.85-.19.54-.12.69-.18c.23-.05.41-.11.61-.17l.36-.09.77-.24.14-.05.63-.21.51-.19.51-.19.73-.29.39-.16c.32-.13.63-.27.93-.41l.62-.28.9-.45.61-.32q.45-.24.9-.51c.19-.11.38-.21.56-.33.33-.19.66-.4,1-.6l.37-.24.15-.1,1.36-.95c.29-.21.56-.43.84-.65h0l.24-.13.16-.07.09,0,.1,0a4.33,4.33,0,0,1,2.66-.19A4.76,4.76,0,0,1,133.23,23.63Z"/><path class="cls-27" d="M74.83,15.21a5.74,5.74,0,0,0-5.16,2.43A4.76,4.76,0,0,1,71,14.83v0h0l.28-.22h0a1.87,1.87,0,0,1,.32-.15A4.21,4.21,0,0,1,74.83,15.21Z"/><path class="cls-34" d="M74.83,15.21a6.39,6.39,0,0,0-3.4.79l-.18-.46c-.1-.24-.18-.49-.27-.73l.28-.22h0a1.87,1.87,0,0,1,.32-.15A4.19,4.19,0,0,1,74.83,15.21Z"/><path class="cls-49" d="M142.69,129.08c2.05-12.74-8.46-50-13.46-55.68a6.91,6.91,0,0,0-4.11,3.71c-1.26,3.55,2.17,11.81,3.4,25s-1.62,35-4.25,43.9c-1.37,4.64-.49,6.91.67,8h0S140.65,141.83,142.69,129.08Z"/><path class="cls-50" d="M127.29,155.09c7.42-2.81,20.08-8.75,24.08-27.14s-8.81-45.48-13.29-51.66a7.32,7.32,0,0,0-8.85-2.89c5,5.65,13.87,39.07,11.83,51.81S124.94,154,124.94,154h0A4,4,0,0,0,127.29,155.09Z"/><path class="cls-27" d="M124.28,154.33a6.75,6.75,0,0,1-1.08-1.77c-.14-.63.62-1.34,1.52-1.24s2.71.52,3.39,1.35,1,1.34,0,2.12A3.14,3.14,0,0,1,124.28,154.33Z"/><path class="cls-34" d="M118.69,43.49l-3.39.28-.55-6.7a1.25,1.25,0,0,1,1.15-1.35h0l.88-.08a1.27,1.27,0,0,1,1.36,1.16Z"/><path class="cls-27" d="M118.69,43.49l-1.69.14-.65-8,.44,0a1.26,1.26,0,0,1,1.36,1.15Z"/><path class="cls-51" d="M121.91,46.08A34.38,34.38,0,0,1,73.44,82a11.94,11.94,0,0,1-3.36-2.84,4.61,4.61,0,0,1-1-2.81v0h0c0-.11,0-.23,0-.34h0a1.75,1.75,0,0,1,.12-.32A4.09,4.09,0,0,1,71.94,74c2.91-.79,7.23-.76,9-1h0l1.32-.1.08,0c.48,0,.95-.11,1.43-.18l.43-.06.38-.06.37-.07c.18,0,.34-.05.5-.09.33-.06.65-.13,1-.21l.55-.13c.5-.12,1-.25,1.49-.4l.46-.13.46-.15L90.82,71l.09,0,.12,0c.66-.25,1.31-.52,1.94-.81s1.2-.56,1.79-.87a2.53,2.53,0,0,0,.23-.12l.09,0c.39-.21.77-.42,1.15-.65l.11-.06.14-.09a33.11,33.11,0,0,0,3.14-2.11q.28-.21.57-.45c.18-.15.36-.28.54-.44l.09-.07.3-.26c.29-.24.58-.49.86-.75l.43-.38.64-.62.24-.24c.29-.28.57-.58.84-.88a33.38,33.38,0,0,0,3.35-4.24l0-.08c.39-.57.76-1.16,1.1-1.76.16-.27.32-.56.47-.84s.25-.46.37-.7l.07-.12c.25-.5.49-1,.72-1.54a33.9,33.9,0,0,0,2.63-9c0-.33.09-.67.13-1h0s0-.1.07-.26l.06-.15,0-.09,0-.09a4.21,4.21,0,0,1,1.7-2,4.41,4.41,0,0,1,2.74-.52h0a3.56,3.56,0,0,1,2.59,1.73A12.17,12.17,0,0,1,121.91,46.08Z"/><path class="cls-52" d="M117.68,39.69v.05a34.79,34.79,0,0,1,.24,9.34c-.05.42-.1.85-.16,1.28A34.31,34.31,0,0,1,70.82,77.12l-1.09-.47L69,76.34c0-.12,0-.23,0-.34h0a1.75,1.75,0,0,1,.12-.32A4.05,4.05,0,0,1,72,74c2.91-.8,7.23-.76,9-1h0l1.32-.11h.08c.48,0,1-.11,1.43-.18l.13,0,.3,0,.38-.06.37-.06.5-.09,1-.21.55-.13.94-.25.55-.15.46-.14.46-.14c.46-.15.92-.31,1.37-.48l.09,0,.12,0,.35-.14c.54-.21,1.07-.43,1.59-.67s1-.49,1.56-.75l.23-.11.23-.12.09,0,.71-.4.44-.24a.67.67,0,0,1,.11-.07l.14-.09.62-.37.44-.28.2-.13.62-.42.57-.41.68-.49.57-.44.54-.44.09-.08.29-.25c.3-.24.58-.5.87-.75l.43-.39.64-.62.24-.24.24-.25c.2-.21.41-.41.6-.63s.32-.35.48-.54.37-.41.55-.63l.27-.33c.07-.09.16-.17.22-.26s.32-.4.47-.61l.48-.63.36-.51c.18-.24.35-.49.52-.74l0-.08c.16-.23.31-.47.46-.71s.19-.3.28-.46l.36-.59c.11-.19.2-.35.29-.53l.18-.31c.13-.23.25-.46.37-.69l.06-.13.29-.58c.07-.16.14-.32.22-.47l.22-.49.3-.7.15-.38c.13-.3.25-.61.36-.91s.16-.41.23-.62.21-.62.31-.92l.19-.64c.1-.32.19-.64.27-1a6.06,6.06,0,0,0,.16-.61c.09-.35.18-.72.25-1.08l.09-.41,0-.17c.1-.53.2-1.06.28-1.59.05-.34.09-.67.13-1h0l.08-.26.06-.16,0-.08a.36.36,0,0,1,0-.09,4.19,4.19,0,0,1,1.69-2A4.65,4.65,0,0,1,117.68,39.69Z"/><path class="cls-27" d="M72,74a5.58,5.58,0,0,0-1.87,5.19,4.62,4.62,0,0,1-1-2.8v0h0a2,2,0,0,1,0-.34h0a1.75,1.75,0,0,1,.12-.32A4.11,4.11,0,0,1,72,74Z"/><path class="cls-34" d="M72,74a6.26,6.26,0,0,0-1.79,2.87l-.44-.19L69,76.34c0-.12,0-.23,0-.35h0a1.66,1.66,0,0,1,.12-.31A4,4,0,0,1,72,74Z"/><path class="cls-34" d="M160.34,69.19a1.35,1.35,0,0,1,.92-1.68l.92-.26h0a1.35,1.35,0,0,1,1.67.93l2,6.93-3.52,1Z"/><path class="cls-27" d="M160.33,69.18a1.35,1.35,0,0,1,.93-1.67l.46-.13,2.37,8.24-1.76.5Z"/><path class="cls-53" d="M160,74.64a3.85,3.85,0,0,1,1.94-2.73h0a4.88,4.88,0,0,1,3-.52,4.6,4.6,0,0,1,2.45,1.33l.07.07.07.08.12.13a2.69,2.69,0,0,1,.18.23h0c.17.33.33.65.51,1a37.09,37.09,0,0,0,6,8q.65.66,1.32,1.26l.11.1.63.56c.27.23.53.46.8.67q.85.7,1.77,1.35l.09.06a35.21,35.21,0,0,0,5,3c.39.2.78.39,1.18.56l.33.16.88.37.58.22c.38.15.76.3,1.15.43l.4.14.12,0c.24.1.46.16.71.24s.49.16.74.23a36,36,0,0,0,4,.94l.18,0,.13,0,1.4.21h.11l.27,0c.71.08,1.42.14,2.13.19s1.5.07,2.26.07h.25c.51,0,1,0,1.55,0l.52,0,.51,0c.55,0,1.1-.09,1.65-.16l.61-.08,1-.16.54-.1.4-.08.4-.08.46-.1c.51-.11,1-.23,1.51-.36l.08,0c.46-.12.92-.25,1.37-.39h0c1.89-.5,6.22-2.17,9.44-2.48,1.48-.15,2.73,0,3.42.66a1.61,1.61,0,0,1,.24.28h0a1.68,1.68,0,0,1,.16.33h0v0a5,5,0,0,1,0,3.21,12.52,12.52,0,0,1-2.3,4.13,36.52,36.52,0,0,1-8.38,6.4,36.93,36.93,0,0,1-54-24.08A12.93,12.93,0,0,1,160,74.64Z"/><path class="cls-54" d="M164.86,71.37a4.61,4.61,0,0,1,2.45,1.32l.08.08.07.07.11.14a2.69,2.69,0,0,1,.18.23h0c.17.32.34.65.52,1,.28.5.58,1,.88,1.49l.1.15.24.39.66,1c.13.19.26.36.4.55s.42.58.64.87l.43.56.67.81.46.54c.23.26.46.53.71.78l.3.33.56.58.41.4.4.4.5.47.12.1c.21.2.42.38.63.56l.3.25.5.42.58.46.46.35c.24.18.48.37.73.54l.08.06.8.55.56.38.72.45.71.43.31.18.4.23c.26.15.53.28.8.42l.68.36.84.4.34.16.33.16.88.37.58.23c.38.15.76.29,1.15.42.13.06.27.1.4.15l.12,0,.71.23.74.24.87.23.72.19.79.19.25.05.55.12.76.14.17,0,.14,0,.54.08.86.13h.11a2.48,2.48,0,0,0,.27,0l.28,0c.62.07,1.23.13,1.85.17s1.23.06,1.85.06h.65c.52,0,1,0,1.55,0l.52,0,.52,0,.61,0c.35,0,.7-.07,1-.12l.61-.07,1-.16.54-.1.4-.08.4-.08.32-.07.14,0c.51-.11,1-.23,1.51-.36l.08,0c.46-.12.91-.26,1.37-.4h0c1.89-.5,6.22-2.17,9.44-2.48,1.48-.15,2.73,0,3.42.66a1.56,1.56,0,0,1,.23.28h0a2,2,0,0,1,.17.32c-.18.2-.37.39-.57.58s-.61.6-.92.89a36.89,36.89,0,0,1-57.34-9.06c-.23-.41-.44-.81-.65-1.22a36.91,36.91,0,0,1-3.3-9.48l0-.06A5,5,0,0,1,164.86,71.37Z"/><path class="cls-27" d="M224.31,89.66a2,2,0,0,1,.23.28h0a1.71,1.71,0,0,1,.17.33h0v0a5,5,0,0,1,0,3.21A6,6,0,0,0,220.88,89C222.36,88.85,223.6,89,224.31,89.66Z"/><path class="cls-34" d="M224.3,89.66a3,3,0,0,1,.23.27h0a2.59,2.59,0,0,1,.17.33l-.56.58c-.13.11-.25.24-.37.36A6.67,6.67,0,0,0,220.88,89C222.36,88.85,223.6,89,224.3,89.66Z"/><path class="cls-34" d="M131.71,23.78l-3.34-.65,1.27-6.59a1.26,1.26,0,0,1,1.47-1h0l.87.17a1.26,1.26,0,0,1,1,1.47Z"/><path class="cls-27" d="M131.71,23.78,130,23.46l1.51-7.84.43.08a1.26,1.26,0,0,1,1,1.48Z"/><path class="cls-55" d="M134.11,27.14A34.36,34.36,0,0,1,86.1,54a33.94,33.94,0,0,1-8.31-5.23,11.67,11.67,0,0,1-2.47-3.63,4.66,4.66,0,0,1-.26-3h0a3.05,3.05,0,0,1,.13-.32h0a1.79,1.79,0,0,1,.2-.28,4.09,4.09,0,0,1,3.11-.9c3,0,7.16,1.2,9,1.51h0c.43.1.87.18,1.3.26h.08c.47.08,1,.16,1.43.22l.43,0,.38,0,.38,0,.5,0,1,.05c.18,0,.38,0,.56,0,.52,0,1,0,1.55,0h1c.49,0,1,0,1.44-.1h.23c.7-.07,1.4-.15,2.09-.26s1.31-.22,2-.36l.25-.05.1,0,1.27-.31.13,0,.16,0a32.86,32.86,0,0,0,3.59-1.2l.67-.27.63-.28.11-.05.36-.17c.35-.15.69-.32,1-.49l.52-.25c.26-.15.52-.28.78-.42l.3-.18c.35-.19.7-.4,1-.61a33.38,33.38,0,0,0,4.36-3.19l.08-.06c.52-.45,1-.92,1.52-1.41l.69-.68.54-.57.09-.11c.38-.41.75-.84,1.11-1.28a33.74,33.74,0,0,0,4.94-8c.14-.31.27-.62.4-.94h0l.14-.23a1.47,1.47,0,0,0,.1-.13l.06-.08.06-.07A4.28,4.28,0,0,1,129,19.61a4.43,4.43,0,0,1,2.79.23h0a3.54,3.54,0,0,1,2,2.37A11.85,11.85,0,0,1,134.11,27.14Z"/><path class="cls-56" d="M131.75,19.84v.06A34.91,34.91,0,0,1,129.48,29c-.16.39-.33.79-.5,1.18A34.34,34.34,0,0,1,83.63,47.56a34,34,0,0,1-7-4.22c-.32-.24-.63-.49-.93-.74l-.58-.49c0-.11.08-.21.13-.32h0a1.71,1.71,0,0,1,.2-.27,4,4,0,0,1,3.11-.9c3,0,7.16,1.2,9,1.51h0c.43.09.87.18,1.3.25h.08c.47.08.95.15,1.43.21l.13,0,.3,0,.38.05.38,0,.5.05,1,.06.56,0,1,0h1.06l.48,0q.73,0,1.44-.09h.23l.38,0c.57-.05,1.14-.13,1.71-.21s1.14-.2,1.7-.31l.26,0,.25-.05.1,0,.79-.2.49-.12.12,0,.16-.05.69-.19.51-.16.22-.07c.24-.08.48-.15.71-.24l.66-.23.78-.29.67-.28.64-.28.11-.05.35-.16,1-.49.52-.26c.26-.15.52-.28.78-.42l.3-.18.29-.17.75-.45.6-.39c.24-.14.47-.3.71-.46l.35-.24.27-.19.62-.46.63-.48.49-.4.69-.57.08-.06.63-.57.39-.36.5-.48a5.81,5.81,0,0,0,.43-.43l.26-.25.54-.57.09-.11.43-.48c.12-.13.23-.26.34-.4l.35-.4c.16-.2.31-.4.47-.59l.25-.33c.21-.26.4-.52.59-.78l.38-.54.55-.81.36-.56c.18-.28.35-.56.52-.86s.22-.36.32-.54.36-.65.53-1l.19-.37c0-.06.06-.11.08-.16.23-.47.47-1,.69-1.45.14-.31.27-.62.4-.94h0a2.69,2.69,0,0,1,.15-.23s.06-.08.09-.13l.06-.08.07-.07A4.29,4.29,0,0,1,129,19.58,4.68,4.68,0,0,1,131.75,19.84Z"/><path class="cls-27" d="M78.51,40.61a5.57,5.57,0,0,0-3.19,4.51,4.66,4.66,0,0,1-.26-3h0a1.75,1.75,0,0,1,.12-.32h0a1.79,1.79,0,0,1,.2-.28A4.09,4.09,0,0,1,78.51,40.61Z"/><path class="cls-34" d="M78.51,40.61A6.16,6.16,0,0,0,76,42.9l-.37-.3-.58-.49c0-.11.08-.21.13-.32h0a2.69,2.69,0,0,1,.2-.27A4,4,0,0,1,78.51,40.61Z"/><path class="cls-34" d="M156.48,53.5a1.16,1.16,0,0,1,.71-1.49l.77-.27h0a1.16,1.16,0,0,1,1.49.7l2.09,5.87-3,1.06Z"/><path class="cls-27" d="M156.48,53.5a1.16,1.16,0,0,1,.71-1.49l.38-.14,2.48,7-1.48.53Z"/><path class="cls-57" d="M156.45,58.22A3.29,3.29,0,0,1,158,55.77h0a4.16,4.16,0,0,1,2.52-.61,3.87,3.87,0,0,1,2.18,1l.07.06.07.06.1.11a2,2,0,0,1,.17.19h0c.16.27.32.54.49.81a31.8,31.8,0,0,0,5.65,6.6c.39.35.79.69,1.19,1l.11.09.57.44.72.54c.52.37,1.06.73,1.6,1.07l.08,0a30.7,30.7,0,0,0,4.44,2.32c.35.14.7.29,1.05.41l.29.12.78.28.51.16c.34.11.67.21,1,.3l.34.1.11,0c.21.07.41.11.62.17l.66.16a30.68,30.68,0,0,0,3.45.59l.15,0H187c.41,0,.81.08,1.22.11h.33c.61,0,1.23.05,1.84.05s1.3,0,1.95-.06h.21c.45,0,.89-.07,1.34-.12l.44,0,.44-.06c.48-.06.95-.14,1.42-.23l.52-.1.9-.2.45-.11.35-.09.34-.09.38-.11c.44-.12.86-.25,1.29-.39l.06,0c.39-.13.78-.27,1.16-.42h0c1.6-.53,5.24-2.21,8-2.65a3.82,3.82,0,0,1,3,.39,2.39,2.39,0,0,1,.22.23h0c.06.09.11.18.16.27h0v0a4.31,4.31,0,0,1,.19,2.77,11,11,0,0,1-1.76,3.68,31.86,31.86,0,0,1-54.65-11.9A11,11,0,0,1,156.45,58.22Z"/><path class="cls-58" d="M160.5,55.14a4,4,0,0,1,2.18,1l.06.06.07.06.11.11.16.19h0l.5.81c.27.41.56.83.84,1.23l.09.13.23.32.62.82.37.45.6.72.41.46.61.66.43.44c.21.22.42.43.65.64l.27.26.52.47.38.33.36.31.46.39.11.08.57.45.27.19.45.34.53.36c.13.1.27.19.41.28l.66.43.08,0,.71.42.5.3.65.35.63.33.28.14.36.18.7.32.61.27.75.31.3.11.29.12.78.28.51.16,1,.31.34.1.11,0,.63.16.65.16.75.16.64.12.69.12.21,0,.49.07.66.08.15,0H187l.47,0,.75.07h.57c.53,0,1.07,0,1.6,0s1.07,0,1.6,0l.35,0h.21c.45,0,.89-.07,1.34-.12l.44,0,.44-.06.53-.08.89-.15.51-.1.91-.2.45-.11.34-.09.35-.09.26-.08.12,0c.44-.12.86-.25,1.29-.39l.06,0c.39-.13.78-.27,1.16-.42h0c1.6-.53,5.24-2.21,8-2.65a3.82,3.82,0,0,1,3,.39,2.39,2.39,0,0,1,.22.23h0c.06.09.11.18.16.27-.15.18-.3.36-.46.53s-.49.55-.75.81A31.8,31.8,0,0,1,162,64.82l-.62-1a32.22,32.22,0,0,1-3.35-8v0A4.33,4.33,0,0,1,160.5,55.14Z"/><path class="cls-27" d="M212.68,67.73a1.52,1.52,0,0,1,.22.22h0c.06.09.11.18.16.27h0v0a4.31,4.31,0,0,1,.19,2.77,5.17,5.17,0,0,0-3.56-3.68A3.77,3.77,0,0,1,212.68,67.73Z"/><path class="cls-34" d="M212.67,67.72a2.39,2.39,0,0,1,.22.23h0a2.4,2.4,0,0,1,.16.27l-.46.53c-.1.1-.19.22-.3.33a5.62,5.62,0,0,0-2.6-1.75A3.79,3.79,0,0,1,212.67,67.72Z"/><path class="cls-34" d="M145.82,16.35a1.18,1.18,0,0,1,.71-1.5l.77-.27h0a1.17,1.17,0,0,1,1.5.71l2.08,5.86-3,1.06Z"/><path class="cls-27" d="M145.82,16.34a1.16,1.16,0,0,1,.71-1.49l.38-.14,2.49,7-1.49.53Z"/><path class="cls-59" d="M145.79,21.07a3.32,3.32,0,0,1,1.53-2.46h0a4.17,4.17,0,0,1,2.52-.61A4,4,0,0,1,152,19l.07.06.07.06.1.11.17.19h0c.16.27.32.54.49.81a31.54,31.54,0,0,0,5.65,6.6c.39.36.79.69,1.2,1l.1.08.57.45.73.53c.52.38,1.05.73,1.59,1.07l.08.05a31.17,31.17,0,0,0,4.44,2.31q.53.23,1.05.42l.3.11.77.28.51.16,1,.31.34.1.11,0,.62.16c.22.06.44.12.66.16a31.11,31.11,0,0,0,3.45.6h.15l.12,0c.41,0,.82.08,1.22.1h.33c.62,0,1.23.05,1.84.05s1.3,0,1.95-.05h.22l1.33-.12.44,0a3.47,3.47,0,0,0,.45-.06c.47-.06.94-.14,1.41-.23l.52-.1.9-.19.46-.12a2.14,2.14,0,0,0,.34-.09l.34-.09.39-.11c.43-.12.85-.25,1.28-.39l.07,0,1.16-.41h0c1.61-.53,5.24-2.2,8-2.64a3.78,3.78,0,0,1,3,.39l.22.22h0a2.54,2.54,0,0,1,.16.28h0a4.32,4.32,0,0,1,.18,2.77,10.88,10.88,0,0,1-1.76,3.68,31.33,31.33,0,0,1-6.88,6,31.85,31.85,0,0,1-44-9.6,31.49,31.49,0,0,1-3.77-8.26A11,11,0,0,1,145.79,21.07Z"/><path class="cls-60" d="M149.84,18A4.07,4.07,0,0,1,152,19s0,0,.07.07l.06.05.11.12a1.62,1.62,0,0,1,.16.18h0l.5.81c.27.42.56.83.84,1.24l.09.12.24.32c.2.28.4.55.62.82s.24.3.37.46.39.48.59.71l.41.46c.2.22.41.44.61.67s.28.29.43.43.43.43.65.64l.28.26.51.48.38.32c.12.11.24.22.37.32l.45.38.11.08c.19.16.38.3.57.45l.27.2.45.33.53.37.42.28c.21.14.43.29.65.42l.08.05c.23.15.47.29.71.43l.51.29.64.35.63.34.28.14.36.17c.23.12.47.22.71.32l.6.28.75.3.3.12.3.11.77.28.51.16c.34.11.68.22,1,.31l.35.1.1,0,.63.17.65.16.76.15.63.13.69.11.22,0,.48.07.66.08.15,0h.12l.47,0,.75.06h.57c.53,0,1.07,0,1.6,0s1.07,0,1.6,0h.57l1.33-.12.44,0,.45-.06.52-.08.89-.15.52-.1.9-.19.46-.12.34-.09.34-.09.27-.07.11,0c.44-.12.86-.25,1.29-.39l.07,0,1.15-.41h0c1.6-.53,5.24-2.2,8-2.64a3.74,3.74,0,0,1,3,.39,1.52,1.52,0,0,1,.22.22h0a2.54,2.54,0,0,1,.16.28c-.15.17-.3.35-.46.52s-.49.55-.74.82a32.5,32.5,0,0,1-5.87,4.85,31.86,31.86,0,0,1-44-9.59c-.21-.35-.42-.68-.61-1a31.88,31.88,0,0,1-3.36-8v-.05A4.33,4.33,0,0,1,149.84,18Z"/><path class="cls-27" d="M202,30.57l.22.22h0a2.54,2.54,0,0,1,.16.28h0a4.25,4.25,0,0,1,.19,2.77A5.17,5.17,0,0,0,199,30.17,3.81,3.81,0,0,1,202,30.57Z"/><path class="cls-34" d="M202,30.57a1.52,1.52,0,0,1,.22.22h0a1.56,1.56,0,0,1,.16.28l-.45.52-.3.33A5.78,5.78,0,0,0,199,30.17,3.73,3.73,0,0,1,202,30.57Z"/><path class="cls-27" d="M136.53,14.71l-1.29-1.11,5.21-6,.33.29a1.26,1.26,0,0,1,.13,1.78Z"/><path class="cls-61" d="M136.94,18.82a34.17,34.17,0,0,1-7,6.85,34.36,34.36,0,0,1-48-7.45,33.91,33.91,0,0,1-4.61-8.67A11.85,11.85,0,0,1,77,5.17a4.68,4.68,0,0,1,1.26-2.72h0a2,2,0,0,1,.27-.22h0l.3-.14A4.09,4.09,0,0,1,82,2.85c2.61,1.51,5.62,4.61,7,5.77h0l1,.87.06,0c.38.31.75.61,1.14.9l.35.25.3.23.31.22.42.3.83.54.48.3c.44.28.88.54,1.34.78l.42.24.43.22c.42.22.85.44,1.29.64l.09,0,.12.06c.64.29,1.29.56,1.94.81s1.24.46,1.87.67l.24.08.1,0c.42.12.84.25,1.26.36l.13,0,.16,0A35.8,35.8,0,0,0,107,17l.72.1c.24,0,.45.06.69.07h.12l.38,0c.38,0,.76.06,1.15.08l.57,0,.89,0h.34c.4,0,.81,0,1.22,0a34.61,34.61,0,0,0,5.37-.6l.09,0c.68-.13,1.36-.28,2-.46.31-.07.63-.16.94-.25s.5-.14.75-.23l.14,0c.53-.17,1.06-.35,1.6-.56a34,34,0,0,0,8.24-4.45l.81-.61h0a2,2,0,0,1,.24-.13l.15-.07.09,0,.09,0a4.33,4.33,0,0,1,2.59-.17,4.52,4.52,0,0,1,2.3,1.59h0a3.61,3.61,0,0,1,.58,3.06A12,12,0,0,1,136.94,18.82Z"/><path class="cls-62" d="M138.52,11.31l0,0A34.16,34.16,0,0,1,132,18.09c-.33.27-.67.52-1,.79a34.36,34.36,0,0,1-48-7.46,34,34,0,0,1-4-7.16c-.15-.37-.3-.74-.44-1.11s-.17-.48-.25-.71a1.39,1.39,0,0,1,.27-.21h0a1.17,1.17,0,0,1,.3-.14A4.08,4.08,0,0,1,82,2.85c2.61,1.52,5.62,4.61,7,5.77h0c.33.3.66.59,1,.87l.06,0c.38.31.75.61,1.14.9l.11.08.24.18.31.23.3.21.42.3.83.54q.24.16.48.3l.84.5.5.29.42.23.43.23q.63.33,1.29.63l.09.05.12,0,.34.15c.53.24,1.06.46,1.6.67s1.08.39,1.62.58l.25.08.24.08.1,0,.78.23.49.13.12,0,.16,0,.7.17.51.12.24.05.73.15.69.12L107,17l.72.1.7.07h.11l.39,0,1.14.09.58,0,.89,0h.69c.29,0,.58,0,.87,0l.71,0,.84-.05.43,0,.34,0,.76-.09L117,17l.63-.11c.29,0,.59-.09.88-.15h.1l.82-.18.53-.12.67-.16.59-.16.35-.1.74-.22.14-.05.61-.2.49-.18.51-.18.7-.28.38-.15c.31-.12.61-.26.91-.39l.59-.27.88-.43.59-.31.87-.49.55-.31c.32-.19.64-.38.95-.58l.35-.23.15-.1c.44-.29.88-.6,1.32-.91.28-.2.54-.41.81-.62h0l.24-.13.15-.07.09,0,.1,0a4.22,4.22,0,0,1,2.58-.16A4.59,4.59,0,0,1,138.52,11.31Z"/><path class="cls-27" d="M82,2.85a5.55,5.55,0,0,0-5,2.32,4.63,4.63,0,0,1,1.27-2.72h0a1.39,1.39,0,0,1,.27-.21h0a1.68,1.68,0,0,1,.3-.15A4.1,4.1,0,0,1,82,2.85Z"/><path class="cls-34" d="M82,2.85a6.21,6.21,0,0,0-3.3.74l-.17-.45c-.09-.23-.17-.47-.26-.7a1.86,1.86,0,0,1,.28-.21h0a1.68,1.68,0,0,1,.3-.15A4.08,4.08,0,0,1,82,2.85Z"/><path class="cls-63" d="M130.53,92.6c8.68-10.32,14.48-47.45,11.31-54.5-2.73-.18-5.34.44-6.71,1.53-3.24,2.59-3.21,11.28-8.2,23.35s-19.11,30-26.59,36.73c-3.9,3.5-4,5.86-3.14,7.32h0S121.85,102.93,130.53,92.6Z"/><path class="cls-64" d="M99.47,109c10.2.64,28.16.74,41.93-13.72s11.84-43.6,9.54-50.89c-1.33-4.23-5.34-6-9.1-6.25,3.17,7-2.67,40.1-11.35,50.42S97.2,107,97.2,107h0A5,5,0,0,0,99.47,109Z"/><path class="cls-27" d="M96.26,107a5.23,5.23,0,0,1-.41-2c.14-.6,1.4-.91,2.42-.44s3,1.59,3.35,2.6.51,1.58-1,1.87A4.6,4.6,0,0,1,96.26,107Z"/><path class="cls-65" d="M162.88,131.76c-7-12-11.09-53.44-8.29-61a7.44,7.44,0,0,1,5.57,2.1c2.65,3.07,2.44,12.69,6.36,26.37s15.32,34.43,21.43,42.3c3.19,4.11,3.19,6.74,2.46,8.31h0S169.91,143.73,162.88,131.76Z"/><path class="cls-66" d="M188.48,151.78c-8.53.09-23.54-.91-34.74-17.77s-9-49-6.89-56.94c1.21-4.6,4.59-6.32,7.74-6.36-2.8,7.61,1.38,44.56,8.41,56.53s27.41,22.55,27.41,22.55h0A4.25,4.25,0,0,1,188.48,151.78Z"/><path class="cls-27" d="M191.2,149.84a7.34,7.34,0,0,0,.39-2.2c-.1-.67-1.15-1.1-2-.64s-2.51,1.58-2.86,2.68-.46,1.72.79,2.13S190.37,151.39,191.2,149.84Z"/><path class="cls-34" d="M143.58,18.14a1.46,1.46,0,0,1,1.21-1.67l1-.16h0a1.46,1.46,0,0,1,1.66,1.21l1.23,7.67-3.89.62Z"/><path class="cls-27" d="M143.57,18.13a1.46,1.46,0,0,1,1.21-1.66l.51-.08,1.45,9.11-1.94.31Z"/><path class="cls-67" d="M142.46,23.92a4.13,4.13,0,0,1,2.43-2.66h0a5.08,5.08,0,0,1,3.23-.17,4.89,4.89,0,0,1,2.44,1.73l.07.09.07.09c0,.06.07.11.1.16a2,2,0,0,1,.16.27h0c.14.37.28.73.43,1.1a39.33,39.33,0,0,0,5.41,9.38c.4.52.81,1,1.24,1.52l.11.12c.19.23.4.46.6.68s.51.56.76.82c.55.58,1.12,1.14,1.72,1.68l.08.07a38,38,0,0,0,4.92,3.84c.39.26.79.52,1.19.75a3.87,3.87,0,0,0,.34.21l.88.52.59.31c.39.21.78.42,1.18.61l.4.2.12.06c.25.13.48.23.73.35s.5.24.76.34a40.36,40.36,0,0,0,4.1,1.52l.18.05.15,0c.49.14,1,.28,1.47.4l.11,0,.29.07c.74.18,1.49.34,2.24.48s1.6.28,2.41.38l.14,0h.12l1.66.16.56,0a4.93,4.93,0,0,0,.55,0c.6,0,1.19,0,1.79,0h.66l1.14,0a5.85,5.85,0,0,0,.59,0l.44,0,.44,0,.5,0c.56,0,1.11-.12,1.66-.19h.09c.51-.07,1-.16,1.51-.25h0c2.09-.29,6.93-1.51,10.42-1.42,1.59,0,2.91.36,3.56,1.16a2.2,2.2,0,0,1,.21.32h0a2.92,2.92,0,0,1,.14.38h0v0a5.32,5.32,0,0,1-.41,3.44,13.45,13.45,0,0,1-3,4.11,39.72,39.72,0,0,1-64.28-27A13.81,13.81,0,0,1,142.46,23.92Z"/><path class="cls-68" d="M148.13,21.06a5,5,0,0,1,2.44,1.74l.07.09.07.09.1.16a2.45,2.45,0,0,1,.16.26h0c.14.37.28.74.43,1.11.24.57.49,1.14.74,1.7l.09.18.21.44c.18.39.38.77.58,1.15.1.22.23.43.34.64l.57,1c.14.22.27.44.4.66s.4.64.6.95l.42.64q.32.46.66.93l.27.38.53.7.38.48c.13.16.25.32.38.47s.31.39.48.58l.11.12c.19.23.4.46.59.68l.29.3.48.52.56.56.45.44.7.68.09.07.78.69c.18.16.36.32.55.47l.7.58.7.55.32.24.39.29.8.56.68.47c.28.19.56.36.85.54l.34.21a3.87,3.87,0,0,0,.34.21l.88.52.59.32c.39.21.78.41,1.18.6l.4.21.12.06.73.34.76.35.9.36.75.3.81.3.26.09.58.2.79.25.18.06.15,0,.56.16.9.25.12,0,.28.07.3.06q1,.24,2,.42c.65.12,1.31.23,2,.32l.43.06h.15l.12,0c.55.06,1.1.11,1.66.15l.56,0,.55,0,.67,0,1.12,0h.65l1.15,0a5.85,5.85,0,0,0,.59,0l.44,0,.44,0,.34,0,.16,0c.55,0,1.11-.11,1.66-.19h.09l1.51-.25h0c2.09-.29,6.93-1.51,10.41-1.42,1.6,0,2.92.35,3.56,1.16a1.66,1.66,0,0,1,.22.32h0a2.79,2.79,0,0,1,.14.37c-.23.18-.45.37-.69.54s-.72.56-1.09.83a39.68,39.68,0,0,1-60.07-17.17c-.18-.46-.36-.92-.53-1.38a39.79,39.79,0,0,1-2.29-10.56v-.07A5.4,5.4,0,0,1,148.13,21.06Z"/><path class="cls-27" d="M209.22,48.37a1.66,1.66,0,0,1,.22.32h0a2.92,2.92,0,0,1,.14.38h0v0a5.32,5.32,0,0,1-.41,3.44,6.43,6.43,0,0,0-3.52-5.33C207.25,47.24,208.56,47.56,209.22,48.37Z"/><path class="cls-34" d="M209.21,48.36a1.72,1.72,0,0,1,.22.33h0a2.79,2.79,0,0,1,.14.37c-.22.18-.45.37-.68.54l-.44.34a7.24,7.24,0,0,0-2.8-2.74C207.25,47.24,208.56,47.56,209.21,48.36Z"/><path class="cls-69" d="M128.48,62.73c5.3-11.45,5.3-49.32,2.1-56a6.77,6.77,0,0,0-4.86,2.4c-2.12,3-1.08,11.69-3.42,24.41s-10.81,32.51-15.64,40.17c-2.52,4-2.29,6.37-1.5,7.73h0S123.17,74.18,128.48,62.73Z"/><path class="cls-70" d="M107.08,83.11c7.74-.68,21.22-2.91,29.86-19.15s3.78-45.12,1.19-52.12c-1.49-4,2.35-7.17-7.55-5.07,3.2,6.64,2.69,40.44-2.61,51.89s-22.81,22.82-22.81,22.82h0A3.86,3.86,0,0,0,107.08,83.11Z"/><path class="cls-27" d="M104.45,81.6a6.82,6.82,0,0,1-.54-2c0-.62.94-1.09,1.76-.76s2.41,1.21,2.82,2.17.57,1.52-.52,2A3.08,3.08,0,0,1,104.45,81.6Z"/><path class="cls-71" d="M151.56,64.51C144.94,53.25,141.11,14.2,143.75,7A7,7,0,0,1,149,9c2.49,2.89,2.29,12,6,24.83s14.43,32.42,20.18,39.83c3,3.87,3,6.34,2.32,7.82h0S158.18,75.79,151.56,64.51Z"/><path class="cls-72" d="M175.67,83.37c-8,.08-22.17-.86-32.72-16.73S134.51,20.49,136.47,13c1.13-4.33-3.21-9,7.28-6-2.64,7.17,1.3,42,7.92,53.23s25.81,21.23,25.81,21.23h0A4,4,0,0,1,175.67,83.37Z"/><path class="cls-27" d="M178.23,81.55a6.85,6.85,0,0,0,.36-2.08c-.1-.63-1.08-1-1.89-.6s-2.36,1.49-2.69,2.52-.43,1.62.74,2A3.19,3.19,0,0,0,178.23,81.55Z"/><g class="cls-73"><path class="cls-74" d="M20,55.63a113.25,113.25,0,0,0,12-.38C31.25,51.78,30.5,47,30.5,47l4.59,7.19s25.5-8.41,26.72-8.88c0-1.22-2.62-12.47-2.62-12.47L64.91,38l.37-2.5,5,6.51,16-8.09L84.62,17l7.85,11.72s11.53-3,13.12-4.22,19-3.31,25.15-3.49,16.38-2.42,16.38-2.42L147,12.31l3.29,4.81,6.91-1.65,11.56,0L165-6.5,113.55,2.94,68.75,13,47.19,21.75,20,45.76Z"/><path class="cls-75" d="M112.45-8.94s16.68,7.75,23.72,8.09,16.47,6.5,21.76,8a99.5,99.5,0,0,0,9-8.09s-.19,12.54-2.5,13.67C169.49,18.19,195,50.94,197.06,56s2.51,6.47,2.51,6.47,5.64-8.62,6-12c.66,12.53.18,15.26.18,15.26L221.58,70s2.8-19.26,7.89-24.86c-2.64,10.26-2.77,26.56-2.77,26.56s21.35,4.17,27.25,9.69c4.55-2.29,5.46-1.6,5.46-1.6l-.64,6.17s18.36,10.23,21.69,15.85c-2.07-19.65-24.91-60.27-28.41-64.37s1.2-7.74-5.38-14.31S220.34,4.66,215.15,1.76s-17.56-17.92-33.57-19.58S125.3-19,121.28-18s-18.15,2.81-18.15,2.81-4.34,4.06-1.45,4.56S112.45-8.94,112.45-8.94Z"/><path class="cls-76" d="M169.33,18.59l-4.93-5.83s1-.28,1.67-4a3,3,0,0,1,4-2.64L179.86.36,188.53-4l5.22-.59,2.07,1.81s-8.9,3.7-11,6.19-8.78,10.07-8.78,10.07L173,13.2l.64,2.27Z"/><path class="cls-77" d="M1.43,53.8s19.68,3.26,24.75,1.07a46.63,46.63,0,0,1,2.63-9.53L33,53.2s20.86-7.65,26.75-11C57.77,35.8,54.84,23,54.84,23l9.58,18.17s14.75-5.63,16.67-8.8c-3-8-1.94-19.56-1.94-19.56L96.87,26.42s13.85-7.79,20.94-8.42,26.16,5.11,28.5,4.11c-3.64-10.53-8.22-21-8.22-21S152,6.17,157.69,18.26c5.33-3.05,10.67-5.63,10.67-5.63L165.4,7l6.9,3.55S185.15-3.65,193.75-4.59s20.42,2.86,20.42,2.86,4-1.89-.28-4.16-68.38-13-87.74-10.2S55.53,2.51,33,22.51,14.69,44.89,1.43,53.8Z"/><path class="cls-78" d="M257,48.63s-19.47-14.41-25.09-22.36S218.17,10.89,213.52,8.79,202,6,197.45-.85s-25.87-15.7-25.87-15.7,16.63-.39,21.15,1.11,18,8.82,21.57,12.75a52.23,52.23,0,0,0,15.7,11c5.69,2.55,22.75,16.15,22.94,21.07s.37,9.09,2.06,13A27.73,27.73,0,0,1,257,48.63Z"/><path class="cls-79" d="M21.75,55.59S24.11,32.61,25,30c-3.72,3.77-6.07,6.3-6.07,6.3l-6,19S19.76,55.75,21.75,55.59Z"/><path class="cls-80" d="M59.71,42.2s-2.29-8.44-2.84-10.71-2-8.51-2-8.51L52.67,9.33S47.61,12.18,47,12.54c-.81,4.51,1,34.89,1,34.89l6.26-2.61Z"/><path class="cls-81" d="M79.63,33.79S72.6,1.06,72.55,0L70.23,1l6,34.87,1.85-1.05Z"/><polygon class="cls-82" points="98.24 25.67 89.6 -6.42 99.22 -9.54 112.54 19.24 109.34 20.42 106.73 21.54 103.94 22.79 101.55 23.96 98.24 25.67"/><polyline class="cls-83" points="146.31 22.11 143.69 14.9 140.65 7.2 138.09 1.08 130.6 -16.47 127.76 -16.28 125.12 -15.93 132.56 19.93 138.24 21.11 140.65 21.58 142.78 21.95 144.21 22.15 145.22 22.23 145.77 22.22 146.41 22.07"/><path class="cls-84" d="M221.58,70l.62-3.64.58-3,1.07-4.4,1.06-4.1,1.21-3.58,1.54-3.48,1.17-1.9.64-.79,8.1-12.61L236.09,31l-1.41-1.47-1.46-1.64a112.86,112.86,0,0,0-21.48,39.42l5.12,1.36Z"/><path class="cls-85" d="M193.35,49.9s10.27-18.11,16.46-23.63,13-10.53,13-10.53l-.95-.89-1.6-1.42-1.42-1.18-1-.79-1.28-.92-1.22-.79L214,9l-1-.47s-16.89,15-19.39,18.55c4.37-3,8.2-6.53,12.54-7.84-10.85,9.31-18.3,23.17-18.3,23.17l2.4,3.27L193.3,50Z"/></g><path class="cls-86" d="M105.9,240.12s3.1-4.18,5.1-5.09c4,2.72,5.82,2.59,5.82,2.59L112.63,232s4.12-3.88,6.75-4.88c4.25,3,5,3.13,5,3.13L122,226s1.35-1.75,17.92-2.25A45.58,45.58,0,0,0,130,237.62c-3.1-.62-5.1-.87-5.1-.87l2.37,4L122,253H103.25Z"/><path class="cls-87" d="M139.92,239.82a50.64,50.64,0,0,0-16.29-5.88c-9.25-1.57-12.5,2.88-19.38,1.09,3,2.22,7.12,3.78,9.13,4.79a25.42,25.42,0,0,0,3.44-2.2,12.36,12.36,0,0,1-.44,3.75,42.87,42.87,0,0,0,5.21,5.63l3.29-1.38-2.25,3.63L122,253h13.77Z"/><path class="cls-88" d="M90.05,242.54s6.86-6,13.25-7.29,19.8,3.75,23.6,4.87,18.69,1.38,24.08-2.5c-2.48,6.82-5.48,8.88-8.85,11.5a14.19,14.19,0,0,0-4.74-4.68l1.55,5.62L130.69,253l-3-3.31L126.9,253H89.18S88.18,245.89,90.05,242.54Z"/><path class="cls-89" d="M224.43,232.81s-3.11-4.18-5.11-5.09c-4,2.72-5.82,2.59-5.82,2.59l4.2-5.62s-4.13-3.88-6.75-4.88c-4.25,3-5,3.13-5,3.13l2.37-4.25s-1.34-1.75-17.92-2.25a45.58,45.58,0,0,1,9.94,13.87c3.11-.62,5.11-.87,5.11-.87l-2.38,4,5.25,12.25h18.75Z"/><path class="cls-90" d="M155.47,243.7a50.77,50.77,0,0,1,10.15-14c6.76-6.5,11.95-4.66,16.62-10-1.23,3.52-3.75,7.13-4.84,9.09a25.68,25.68,0,0,1-4.09.13,12.51,12.51,0,0,0,2.49,2.85,42.42,42.42,0,0,1-1.14,7.58l-3.49.72,3.9,1.73,2.63,2.74-11.37,7.76Z"/><path class="cls-91" d="M230,242.7s-7.07-6.14-13.46-7.45-19.81,3.75-23.6,4.87-18.69,1.38-24.09-2.5c2.49,6.82,5.49,8.88,8.86,11.5a14.19,14.19,0,0,1,4.74-4.68l-1.55,5.62,8.25,2.94,3-3.31.79,3.31H230Z"/><path class="cls-92" d="M192.4,250.74l-.25-1.05s-.09-5.65-.59-9.27l1.38-.3L194.23,253h-1.29Z"/><path class="cls-93" d="M168.07,244.46a12.12,12.12,0,0,1,8.68-3.21c5.75,0,17.25,8.37,20.38,17,3.12,8.87.12,27.5,1.62,32.25-5.87-6.63-10.5-12-11-13.13a48.08,48.08,0,0,0,5.63-5.12l-7.75,2.12s-5-5.37-5.75-7.87c3.5-2.25,3.53-3.38,3.53-3.38l-5,.13s-3.5-4.38-4.75-5.25,1-4,1-4l-3.58,1.74S162.74,247.28,168.07,244.46Z"/><path class="cls-94" d="M71.28,262.86,73.53,261s8.39-3.47,11-4.35c.22-4.27,0-8.11,0-8.11l3.4,5.92a58.08,58.08,0,0,1,9-3.4c1.64-.33-15.56-11.61-15.56-11.61L75.13,246,64.61,258.19l4.82,5.37Z"/><path class="cls-95" d="M96.72,230.57c-3.13-1.5-13.81-2-20,0s-13.15,12.06-16,17.32-3.29,28.93-2.63,27.61a130.29,130.29,0,0,1,13.37-11.18,24.67,24.67,0,0,0-2.19-7.67s4.6,4.39,4.82,5.26c3.07-1.09,8.11-2.85,8.11-2.85l-.66-6.13,2,2.85-1.76-12.72s8.07,9.35,11.89,11.79c2.19-.88,3.68-1.92,10.47-1.92h8.32S113.16,238.46,96.72,230.57Z"/><path class="cls-96" d="M58.3,261.78s1.62-9,3.84-13.24,6.25-9.61,7.48-10.6,2.22-.66,3-1.73-.16-2.3,2.39-3.61,4.93-2.47,7.48-2.47,3.45-.49,6.49,0,8.41.79,8.41.79a10.31,10.31,0,0,0-4-1.21l-3.09-.34s-2.31-.14-3.72-.11-2.57.08-4.33.24a29.82,29.82,0,0,0-5.32,1,13,13,0,0,0-4.59,2.61,37.21,37.21,0,0,0-4.12,4c-1.14,1.17-3.2,4-3.2,4l-1.54,2.2-1.39,2.18-1.09,1.84-.35.65a13,13,0,0,0-.57,1.47,29.75,29.75,0,0,0-.79,3.36A87.77,87.77,0,0,0,58.3,261.78Z"/><path class="cls-97" d="M71.51,264.32a26.17,26.17,0,0,0-2.19-7.67c-1.61-2.95-7.37-7.71-7.37-7.71l-.68,1.57a20.32,20.32,0,0,1,8,15.49C70.63,265,71.51,264.32,71.51,264.32Z"/><path class="cls-98" d="M82.25,259.06l-.66-6.13s-3.14-11.83-9.94-16c-.68.25-.41.16-.41.16l-.35.12a4.39,4.39,0,0,0-2,1.42,34.47,34.47,0,0,1,7.23,22.55Z"/><path class="cls-99" d="M109.59,252.93s-12.17-20-22-23a11.16,11.16,0,0,0-1.25-.05l-.9.05-1.28.1S92.53,229.75,102,253c1.21,0,3.46,0,3.46,0h2.79Z"/><path class="cls-100" d="M137.39,244.44l-4.9-3.64,1.37,0h1.31s6.42,3.29,9,6.68l-2,1.59A16,16,0,0,0,137.39,244.44Z"/><path class="cls-101" d="M130.69,253l-3-3.31s-6-8.23-8.85-12.13l2.24.69s9.62,11.27,12.13,13.85Z"/><path class="cls-102" d="M226.3,253s2.63-8.15-.31-13.31l-1.8-1.16s3,5.71-.61,14.47Z"/><path class="cls-103" d="M212.28,253s-.75-14.76-7.47-16.5l-1.13.3s5.6,1.77,6.49,16.2Z"/><path class="cls-104" d="M135.08,250.19s2.94-10.44,11.12-14.38a43.25,43.25,0,0,1,7.23-1.87s11.76,2,15.35,8.12,3.09,8.75,4.47,14.56,2.13,15.75,1.19,15.94a14.15,14.15,0,0,0-3.19,1.88l3.6.75a26.18,26.18,0,0,0-6,9.79,60.65,60.65,0,0,1-7.17,13.32l-4,3.28s-.23-1.83-14.11-15.42c4-2.82,2.61-2.16,2.61-2.16l-5.39-3.38s-2.75-9.15-3.52-13.34l7.34-3.91L137,264.5l2.42-2.19h-2.65S134,258,135.08,250.19Z"/><path class="cls-105" d="M153.43,233.94l-.73.12-.91.19-.83.2s-.9.8.6,5.21,3.66,14.81,4.6,19.87,2.53,26.34,2.62,28.5.19,5.91.19,5.91l1-6.47s.05-4.13,0-8.91-.85-18.47-1-22.59-2.35-16.31-2.16-17.63.44-3.5,0-3.62c-.14,0-.58-.17-1.11-.3l-1.28-.3C153.86,234,153.43,233.94,153.43,233.94Z"/><path class="cls-106" d="M137.29,267.28l7.34-3.91,11.53-3.84.49,3.59-5.29,2,2.06-2s-8.06,2.52-8.62,2.8l-7,3.63Z"/><path class="cls-107" d="M151.44,239.28s-9.14,1.38-15.07,7.55c-.49,1.13-.81,1.95-.81,1.95s8-6,17.25-4.75c-.48-1.82-.6-2.24-.6-2.24Z"/><path class="cls-108" d="M158.91,256.73s9.74.2,14.92,2.8c-.22-1.24-.36-1.91-.36-1.91s-3.41-2.58-14.69-3C158.84,255.38,158.91,256.73,158.91,256.73Z"/><path class="cls-109" d="M157.52,245.18l-.38-2.68s6.52-1.46,12.11.38c.23.42.76,1.44.76,1.44S163,243.06,157.52,245.18Z"/><path class="cls-110" d="M80.27,36.91l6-3L84.62,17l7.85,11.72,3.55-1,1.76-.5,2.25-.67,1.74-.55,1.22-.41,1.44-.54.35-.15.3-.14.39-.22.27-.17.22-.11.52-.18.72-.2.69-.16.71-.15.89-.17,2.57-.45,1.76-.26,2.9-.4,2.64-.33,2.74-.31,1.71-.17,3.83-.34,1.94-.12,1.16,0L132,21l.68-.05,1.64-.16,1.36-.16,1.06.21,1.72.36,1.39.3,1.38.23,1,.18L143,22l.79.12a13.84,13.84,0,0,0,2,.12,3,3,0,0,0,.54-.11L145.21,19l1.91-.4L147,12.31l3.29,4.81,6-1.43a20.75,20.75,0,0,1,1.39,2.57c.85-.48,5.05-2.77,5.05-2.77l2.8-1.45,1.26,1.47,2.53,3.08,3.72,4.63.77,1,1.26,1.59,2,2.51,2,2.61-.38.3-1.08.8a36.7,36.7,0,0,1-3.75,2.32,26.83,26.83,0,0,0,4.06.5,30,30,0,0,0,4.14,0l4.76,6.3,3.31,4.49-1.26.56-1,.38-.92.33-.66.22-.73.22-.76.21-.79.19-.73.17-.92.18-1,.15-1.46.18.5.11.69.13.66.12.8.12.77.11.6.06.55.06.67.06h.11l.6.05.51,0,.67,0h3.21l.26,0,.34,0,.35,0,.34,0,.47,0,.36,0,.18,0,.41.58.31.44,1.44,2.12L196,54.09l9.56-3.6.27,6.42a41.17,41.17,0,0,1-4.74,3.15l-2,1.1-3,1.35-6.74-9.25s-9.47-3.47-10.34-4.84c1.69-.41,6.54-1.88,6.54-1.88l-7-9.92s-4.86.61-6.77-2.77l1.8-.79L163.69,19.6l-6.63,3.07-2.12-1.62-4.94.38-.09,2.7-3.43,1.1S138.12,23.59,136,23.4s-22,2.55-23.55,3-18.56,5.91-18.56,5.91l-3.66-.45s0,3.75-.51,4.17-6.6,3.11-6.6,3.11l-.82-.58L81.59,38l-.65-.52Z"/></g></g></svg>