<svg width="120" height="120" viewBox="0 0 120 120" fill="none" xmlns="http://www.w3.org/2000/svg">
<path d="M66.9084 45.8284C66.5739 45.8841 66.2394 45.8284 65.9606 45.6611C65.2916 45.2709 65.0686 44.4346 65.4589 43.7656C65.5146 43.7099 70.2534 35.6818 69.6959 30.2183C69.3614 27.0405 69.8632 24.699 71.3684 22.915C73.4869 20.2947 77.5009 18.7895 84.414 18.1205C95.6198 16.9497 98.6861 16.0577 98.7418 16.0577C99.4666 15.8347 100.247 16.2807 100.47 17.0055C100.693 17.7302 100.303 18.5107 99.5224 18.7337C99.4109 18.7895 96.2888 19.6815 84.6927 20.908C78.6717 21.5212 75.1594 22.7477 73.5427 24.699C72.5392 25.9255 72.2047 27.5423 72.4834 29.9953C73.1524 36.4066 68.1349 44.9364 67.9119 45.2709C67.6889 45.5496 67.2987 45.7726 66.9084 45.8284Z" fill="url(#paint0_linear_130_8029)"/>
<path d="M60.2182 61.773C60.497 62.0517 62.6155 65.5083 62.8942 67.125C63.173 68.7418 65.403 70.47 66.9082 69.4665C68.4693 68.463 66.1277 65.787 70.0302 61.9402C73.9328 58.0935 75.3265 59.32 75.5495 58.9297C75.3823 58.205 75.0478 57.9262 74.992 57.3687C74.8805 56.8112 73.654 57.4245 72.5947 58.0377C71.5355 58.651 68.2462 60.435 67.4657 62.219C66.6852 64.003 66.518 66.8463 66.3507 67.794C66.1835 68.7418 64.8455 68.5745 64.3995 67.794C63.9535 67.0135 62.95 64.5047 62.7827 63.8357C62.6155 63.1667 60.7757 61.2712 60.7757 61.2712L60.2182 61.773V61.773Z" fill="url(#paint1_linear_130_8029)"/>
<path d="M67.6888 45.3266C67.6888 45.3266 67.9676 43.1524 70.8666 42.0931C73.7656 41.0339 82.0724 38.9711 82.6857 38.3578C83.2989 37.7446 82.6857 35.7933 83.9122 35.5146C85.1944 35.2358 91.4384 37.2428 92.7765 37.8003C94.1145 38.3578 92.2189 39.6401 91.1039 39.9746C89.9332 40.3091 86.3652 40.5879 85.5289 41.2569C84.6927 41.9259 74.4346 50.2327 71.2568 50.8459C68.1348 51.4034 66.072 47.7239 67.6888 45.3266V45.3266Z" fill="url(#paint2_linear_130_8029)"/>
<path d="M73.3195 48.7274C73.3195 48.7274 80.7343 45.9399 81.682 44.6576C82.6855 43.3754 86.4765 46.3302 86.588 48.3929C86.6995 50.4557 83.3545 55.2502 78.6715 57.2572C73.9884 59.2085 72.1487 50.2884 73.3195 48.7274V48.7274Z" fill="url(#paint3_linear_130_8029)"/>
<path d="M79.4521 43.7098C79.4521 43.7098 79.7308 41.5355 82.6298 40.4763C85.5289 39.417 93.8357 37.3543 94.4489 36.741C95.0622 36.1278 94.4489 34.1765 95.6754 33.8978C96.9577 33.619 103.202 35.626 104.54 36.1835C105.878 36.741 103.982 38.0233 102.867 38.3578C101.696 38.6923 98.1285 38.971 97.2922 39.64C96.456 40.309 86.1979 48.6158 83.0201 49.2291C79.8981 49.7866 77.8353 46.1071 79.4521 43.7098V43.7098Z" fill="url(#paint4_linear_130_8029)"/>
<path d="M49.4026 52.1282C49.4026 52.1282 53.3609 47.7239 55.2564 43.7099C57.1519 39.6401 59.1589 37.9119 61.6677 36.6854C64.1764 35.4589 67.5215 35.1244 70.1417 36.9641C72.762 38.8039 73.5982 41.5357 75.9397 41.6472C78.2813 41.7587 82.5183 41.5357 84.0793 43.9329C85.6403 46.3302 87.7031 52.0167 87.4801 54.7485C87.2013 57.4803 87.7588 57.4803 88.3163 58.1493C88.8738 58.8183 89.8216 60.1563 88.1491 60.212C86.4766 60.212 78.8945 60.435 75.438 61.2713C71.9815 62.1075 66.3507 61.8288 63.8977 63.557C61.1659 65.2296 45.9461 57.0342 49.4026 52.1282V52.1282Z" fill="url(#paint5_linear_130_8029)"/>
<path d="M37.5277 62.442C37.5277 62.442 34.6844 64.895 33.9597 66.5675C33.2349 68.2401 34.8517 70.4701 35.5765 70.7488C36.3012 71.0276 41.0957 71.4178 41.709 71.4178C42.3222 71.3621 47.3398 74.3168 47.7858 74.6513C48.2318 74.9858 50.852 71.5851 55.8138 68.1843C60.7756 64.7835 66.4064 62.8323 67.1311 60.5465C67.8559 58.2607 66.7409 55.3617 64.3994 53.0202C62.0021 50.6787 59.2703 52.407 56.2598 52.4627C53.3051 52.5185 51.9671 50.5115 49.6256 51.961C47.3398 53.4105 43.939 53.4662 37.5277 62.442V62.442Z" fill="url(#paint6_linear_130_8029)"/>
<path d="M43.9392 70.1356C43.9392 70.1356 43.4932 67.9614 42.4897 66.9579C41.4862 65.9543 40.0924 62.8323 37.5837 62.4421C35.0749 62.0518 34.2944 63.3898 34.1829 64.0031C34.0714 64.6163 36.0784 64.9508 37.5837 67.0694C39.0889 69.1879 40.8729 69.9126 41.2074 71.4179C41.5419 72.9231 41.765 72.9789 42.7127 72.1426C43.6047 71.3621 43.995 71.1949 43.9392 70.1356V70.1356Z" fill="url(#paint7_linear_130_8029)"/>
<path d="M23.7017 75.0973C23.9805 75.7105 24.315 76.3238 24.7052 76.8256L24.8168 76.9371C25.3185 77.5503 25.7645 78.2751 26.099 78.9998C25.6262 79.1411 25.1223 79.1411 24.6495 78.9998C23.0885 78.6096 22.1407 76.8813 22.8097 75.7663C23.0885 75.4318 23.3672 75.2088 23.7017 75.0973V75.0973Z" fill="url(#paint8_linear_130_8029)"/>
<path d="M40.148 66.8462C40.148 67.4595 40.0365 67.9055 39.8135 68.24C39.1445 67.7382 38.587 67.125 38.0852 66.5117L37.9737 66.4002C37.5277 65.8427 37.0817 65.3967 36.5242 65.0065C36.6915 64.7277 36.9702 64.449 37.4162 64.3375C38.6427 63.9472 40.148 65.2852 40.148 66.8462V66.8462Z" fill="url(#paint9_linear_130_8029)"/>
<path d="M37.7509 69.9126C37.8066 70.5816 38.1969 71.1948 38.6986 71.5293C39.1019 71.7848 39.4759 72.0839 39.8136 72.4213C41.5976 74.7071 40.9286 78.2751 38.2526 80.3936C35.5766 82.5121 31.9528 82.3449 30.1688 80.0591C29.9458 79.7246 29.7228 79.2229 29.5556 78.7769C29.3326 78.1636 28.8308 77.6618 28.2176 77.4388C28.0503 77.3831 27.9388 77.3273 27.7716 77.2716C27.3256 77.0486 26.9911 76.7141 26.6566 76.3796C25.4858 74.8743 25.7645 72.5886 27.3813 71.3621C27.9022 70.9582 28.5152 70.69 29.1653 70.5816C29.9458 70.4701 30.5591 69.9683 30.8378 69.2435C31.0608 68.6303 31.5068 68.1285 32.0086 67.6825C33.6253 66.4003 35.8554 66.6233 37.0819 68.1285C37.3606 68.5188 37.5836 68.9648 37.6951 69.4108C37.6951 69.5781 37.7509 69.7453 37.7509 69.9126V69.9126Z" fill="url(#paint10_linear_130_8029)"/>
<path d="M32.9563 78.721C32.789 78.8325 32.789 79.0555 32.9005 79.2228L32.9563 79.2785C34.0713 80.3935 36.0225 80.3935 37.4163 79.2785C38.8101 78.1635 39.256 76.3238 38.4198 74.93C38.3083 74.7628 38.0853 74.707 37.9181 74.8185H37.8623L32.9563 78.721Z" fill="#4E3F3F"/>
<path d="M23.0328 91.6551C23.0328 91.6551 22.1408 92.0453 19.6877 94.7214C19.186 95.2789 18.6285 95.7249 18.071 96.1709C16.7887 97.1186 14.8932 98.6239 15.0047 98.9584C15.1162 99.3486 15.3392 99.7946 16.4542 98.9584C17.5692 98.0664 18.8515 97.0629 18.963 97.1744C19.0745 97.2301 17.3462 99.1814 16.956 99.6831C16.5657 100.185 16.5657 100.965 16.9002 101.021C17.2347 101.077 18.6842 100.018 19.186 99.2371C19.6877 98.4566 20.1337 97.8434 20.301 97.8434C20.4682 97.8434 18.74 100.854 18.6285 101.244C18.517 101.634 18.963 102.192 19.4647 101.802C19.9665 101.411 21.416 98.5124 21.639 98.4009C21.862 98.2894 21.1372 100.687 21.2487 101.077C21.3603 101.467 22.3638 101.411 22.531 100.519C22.6983 99.6274 23.3115 97.5089 23.5345 97.1744C23.7575 96.8956 24.1478 96.7841 24.8168 95.6134C25.4858 94.4426 26.6565 93.3834 26.6565 93.3834C26.6565 93.3834 23.5903 91.5993 23.0328 91.6551V91.6551Z" fill="url(#paint11_linear_130_8029)"/>
<path d="M21.7505 91.7666C21.7505 91.7666 22.6425 93.6622 23.2557 93.6064C23.8132 93.5507 30.782 88.9791 31.2838 87.4739C31.7855 85.9686 33.7925 81.8431 33.7925 81.8431L26.7122 80.2263L24.0362 87.9199C23.4787 89.5924 21.4717 90.7631 21.7505 91.7666V91.7666Z" fill="url(#paint12_linear_130_8029)"/>
<path d="M24.5381 90.5959C23.9806 90.2614 23.4231 89.9827 22.7541 89.8712C22.5868 89.8154 22.4753 89.8154 22.4195 89.8154C22.085 89.8154 21.5833 90.4287 21.416 90.5402C21.2488 90.6517 20.6355 91.3764 20.8585 91.7109C21.0815 92.0454 21.7505 92.6587 22.2523 92.8817C22.754 93.1047 24.4266 93.8295 24.5938 94.2197C24.7611 94.61 25.2071 94.833 26.0433 94.4427L27.2141 93.8295C27.5486 93.6622 27.8273 93.4392 27.6601 93.2162C27.4371 93.049 26.9911 92.2127 24.5381 90.5959V90.5959Z" fill="url(#paint13_linear_130_8029)"/>
<path d="M35.4092 80.0591C36.8587 79.8919 38.0852 78.9441 38.587 77.5504C37.8622 76.9929 37.3047 77.6619 36.58 78.2751C35.8552 78.8326 35.0747 79.2229 35.4092 80.0591Z" fill="url(#paint14_radial_130_8029)"/>
<path d="M37.3607 63.5571C36.636 63.7801 36.2457 64.2818 36.0784 64.6721C35.7997 64.5048 35.5767 64.3376 35.2979 64.2261C35.0749 64.1146 34.9077 64.0031 34.6847 63.9473C32.5662 63.0553 30.0017 62.8881 27.8832 63.6128L27.1584 62.7208L26.6009 64.2261C26.5451 64.2818 26.4894 64.2818 26.4336 64.3376C26.3221 64.3933 26.2664 64.4491 26.1549 64.5048L25.4301 63.9473L25.2071 63.7801C25.1514 63.8358 25.0956 63.8916 25.0399 63.8916C24.0921 64.7836 24.3151 66.1216 24.3709 66.3446C23.1443 68.2401 22.6983 70.7489 23.0886 73.0346C23.1444 73.2576 23.2001 73.4806 23.2001 73.7036C23.2675 74.0084 23.3607 74.3068 23.4789 74.5957H23.4231C22.9771 74.6514 22.4754 74.9302 22.0851 75.5434C21.2488 76.9372 22.4754 79.2229 24.4266 79.6689C25.2071 79.8362 25.8761 79.7804 26.3779 79.6132C26.3779 79.6132 26.3779 79.6689 26.4336 79.6689C26.6009 80.0592 26.8796 80.4494 27.1026 80.7839C28.7194 82.8467 31.5069 83.6272 34.2944 83.0697C34.6847 83.014 35.1307 82.9024 35.5209 82.7352C36.2457 82.5122 36.9147 82.1777 37.5837 81.7874C37.6394 81.7874 37.6394 81.7317 37.6952 81.7317C38.0297 81.5087 38.3642 81.2857 38.6987 81.0069L38.7545 80.9512C40.1482 79.8362 41.1517 78.4982 41.8207 77.1044C42.2229 76.2405 42.4863 75.3186 42.6012 74.3726C42.657 73.8709 42.657 73.3691 42.6012 72.8116C42.6012 72.6444 42.5455 72.5329 42.5455 72.3656C42.5455 72.1984 42.4897 72.0869 42.434 71.9196C42.3782 71.7524 42.3782 71.6409 42.3225 71.4736C42.3225 71.4179 42.2667 71.3064 42.2667 71.2506C42.2667 71.1949 42.211 71.1391 42.211 71.0276C42.211 70.9161 42.1552 70.9161 42.1552 70.8604C42.0995 70.7489 42.0437 70.5816 41.988 70.4701C41.9322 70.4144 41.9322 70.3586 41.8765 70.3029C41.8207 70.2471 41.8207 70.1914 41.765 70.1356C41.7092 70.0799 41.7092 70.0241 41.6535 69.9684C41.5977 69.9126 41.5977 69.8569 41.542 69.8011C41.4862 69.7454 41.4305 69.6896 41.4305 69.6339C41.1517 69.2994 40.873 68.9649 40.5385 68.6861L40.4827 68.6304C40.7615 68.1844 40.9845 67.5711 40.9845 66.7906C40.8172 64.7836 38.9217 63.0553 37.3607 63.5571V63.5571ZM23.7019 75.0974C23.9806 75.7107 24.3151 76.3239 24.7054 76.8257L24.8169 76.9372C25.3186 77.5504 25.7646 78.2752 26.0991 78.9999C25.6263 79.1412 25.1224 79.1412 24.6496 78.9999C23.0886 78.6097 22.1408 76.8814 22.8098 75.7664C23.0886 75.4319 23.3674 75.2089 23.7019 75.0974V75.0974ZM40.8172 75.8779C40.65 77.4947 39.758 79.1672 38.2527 80.3937C37.5279 81.0069 36.6359 81.3972 35.7439 81.6759C34.9634 81.8989 34.1272 81.9547 33.2909 81.8432C32.0644 81.6759 30.9494 81.0627 30.1689 80.0592C29.9459 79.7247 29.7229 79.2229 29.5557 78.7769C29.3327 78.1637 28.8309 77.6619 28.2176 77.4389C28.0504 77.3832 27.9389 77.3274 27.7716 77.2717C27.3256 77.0487 26.9911 76.7699 26.6566 76.3797C25.4859 74.8744 25.7646 72.5886 27.3814 71.3621C27.9023 70.9583 28.5153 70.6901 29.1654 70.5816C29.9459 70.4701 30.5592 69.9684 30.8379 69.2436C31.0609 68.6304 31.5069 68.1286 32.0087 67.6826C33.6254 66.4003 35.8555 66.6233 37.082 68.1286C37.4722 68.6304 37.751 69.2436 37.8067 69.9126C37.8625 70.4701 38.1412 70.9719 38.5315 71.3621C38.5872 71.4179 38.6987 71.4736 38.7545 71.5294C39.1578 71.7848 39.5317 72.084 39.8695 72.4214C40.0925 72.7001 40.3155 73.0346 40.4827 73.4249C40.7615 74.2054 40.873 75.0416 40.8172 75.8779ZM40.1482 66.8463C40.1482 67.4596 40.0367 67.9056 39.8137 68.2401C39.1447 67.7384 38.5872 67.1251 38.0855 66.5119L37.974 66.4003C37.5279 65.8428 37.082 65.3968 36.5245 65.0066C36.6917 64.7278 36.9704 64.4491 37.4164 64.3376C38.643 63.9473 40.1482 65.2853 40.1482 66.8463V66.8463Z" fill="url(#paint15_linear_130_8029)"/>
<path d="M32.566 75.6549C32.5103 75.4876 32.6218 75.3204 32.789 75.3204L33.5138 75.1531C33.681 75.0974 33.8483 75.2089 33.8483 75.3761C33.904 75.5434 33.7925 75.7106 33.6253 75.7106L32.9005 75.8779C32.789 75.9336 32.6218 75.8221 32.566 75.6549ZM34.35 74.9301C34.1828 74.8744 34.127 74.6514 34.2385 74.5399L34.573 73.8709C34.6288 73.7036 34.8518 73.6479 34.9633 73.7594C35.1305 73.8151 35.1863 74.0381 35.0748 74.1496L34.7403 74.8186C34.6845 74.9859 34.5173 75.0416 34.35 74.9301ZM30.2245 75.3204C29.7785 75.6549 29.1095 75.5991 28.775 75.2089L28.552 74.9301C28.2175 74.4841 28.329 73.8709 28.775 73.4806C29.221 73.1461 29.89 73.2019 30.2245 73.5921L30.4475 73.8709C30.782 74.3169 30.6705 74.9301 30.2245 75.3204Z" fill="#4E3F3F"/>
<path d="M28.7751 73.4806L29.4998 74.3726C29.6671 74.5956 30.0016 74.5956 30.2246 74.4284C30.4476 74.2611 30.4476 73.9266 30.2804 73.7036L30.1688 73.5921C29.8901 73.2019 29.2211 73.0904 28.7751 73.4806V73.4806Z" fill="#5D5360"/>
<path d="M29.3605 74.2844C29.5055 74.17 29.5304 73.9596 29.416 73.8146C29.3016 73.6695 29.0913 73.6447 28.9462 73.7591C28.8011 73.8734 28.7763 74.0838 28.8907 74.2288C29.005 74.3739 29.2154 74.3987 29.3605 74.2844Z" fill="white"/>
<path d="M35.2421 71.585C34.7961 71.9195 34.1271 71.8638 33.7926 71.4735L33.5696 71.1948C33.2351 70.7488 33.3466 70.1355 33.7926 69.7453C34.2386 69.4108 34.9076 69.4665 35.2421 69.8568L35.4651 70.1355C35.7996 70.5258 35.6881 71.1948 35.2421 71.585Z" fill="#4E3F3F"/>
<path d="M33.7927 69.7452L34.5175 70.6372C34.6847 70.8602 35.0192 70.8602 35.2422 70.693C35.4652 70.5257 35.4652 70.1912 35.298 69.9682L35.1865 69.8567C34.9077 69.4107 34.2387 69.355 33.7927 69.7452V69.7452Z" fill="#5D5360"/>
<path d="M34.4345 70.5162C34.5795 70.4018 34.6044 70.1915 34.49 70.0464C34.3756 69.9013 34.1653 69.8765 34.0202 69.9909C33.8752 70.1053 33.8503 70.3156 33.9647 70.4607C34.0791 70.6057 34.2894 70.6306 34.4345 70.5162Z" fill="white"/>
<path d="M35.6323 81.2856C35.6323 81.2856 33.5138 82.1776 31.8413 83.7944L22.6983 92.7702C22.085 93.8295 25.9318 96.2825 27.4928 95.7807C29.0538 95.279 38.0296 88.5889 38.9216 87.7527C39.8136 86.9164 40.7614 84.9094 41.2074 83.5714C41.6534 82.2334 37.6951 79.7804 35.6323 81.2856V81.2856Z" fill="url(#paint16_linear_130_8029)"/>
<path d="M49.5142 74.4841L39.2562 85.4669C38.4757 86.0801 34.9076 82.3449 35.7439 81.0069C36.5801 79.6689 42.2667 71.3063 42.2667 71.3063C42.2667 71.3063 44.6082 69.132 47.5072 68.7418C50.4062 68.3515 51.2982 72.1426 49.5142 74.4841V74.4841Z" fill="url(#paint17_linear_130_8029)"/>
<path d="M23.2 93.3276C23.2 93.3276 22.308 93.7179 19.855 96.3939C19.3532 96.9514 18.7957 97.3974 18.2382 97.8434C16.956 98.7912 15.0604 100.296 15.1719 100.631C15.2834 101.021 15.5065 101.467 16.6215 100.631C17.7365 99.7389 19.0187 98.7354 19.1302 98.8469C19.2417 98.9027 17.5135 100.854 17.1232 101.356C16.7329 101.857 16.733 102.638 17.0675 102.694C17.402 102.749 18.8515 101.69 19.3532 100.91C19.855 100.129 20.301 99.5159 20.4682 99.5159C20.6355 99.5159 18.9072 102.526 18.7957 102.917C18.6285 103.251 19.1302 103.864 19.632 103.474C20.1337 103.084 21.5832 100.185 21.8062 100.073C22.0292 99.9619 21.3045 102.359 21.416 102.749C21.5275 103.14 22.531 103.084 22.6982 102.192C22.8655 101.356 23.4788 99.1814 23.7018 98.8469C23.9248 98.5682 24.315 98.4567 24.984 97.2859C25.653 96.1151 26.8238 95.0559 26.8238 95.0559C26.8238 95.0559 23.7018 93.2161 23.2 93.3276V93.3276Z" fill="url(#paint18_linear_130_8029)"/>
<path d="M25.8203 92.2128C25.2628 91.8783 24.7053 91.5995 24.0363 91.488C23.869 91.4322 23.7575 91.4323 23.7018 91.4323C23.3673 91.4323 22.8655 92.0455 22.6983 92.157C22.531 92.2685 21.9178 92.9933 22.1408 93.3278C22.3638 93.6623 22.977 93.7738 23.423 94.0525C23.869 94.2755 25.7088 95.4463 25.876 95.8923C26.0433 96.2825 26.4893 96.5055 27.3256 96.1153L28.4963 95.502C28.8308 95.3348 29.1096 95.1118 28.9423 94.8888C28.7751 94.6658 28.2733 93.8853 25.8203 92.2128V92.2128Z" fill="url(#paint19_linear_130_8029)"/>
<path d="M88.1492 60.1005C88.1492 60.1005 88.7067 59.6545 88.4837 59.2085C88.2607 58.7625 86.6997 57.536 86.8112 56.198C86.9227 54.86 87.5917 54.191 86.4209 49.8424C85.2502 45.4939 83.9122 43.7099 83.2989 43.3754C82.6857 43.0409 80.3442 42.0374 79.0619 41.9816C77.7796 41.9259 75.6611 42.3161 73.9886 40.9781C72.3161 39.6401 71.4241 37.5774 69.9746 36.9641C68.5251 36.3509 67.4658 35.8491 66.6853 35.6819C65.8491 35.5146 64.0093 35.9606 63.5633 35.8491C63.1173 35.7376 64.3438 35.2358 64.8456 35.1243C65.3473 35.0128 66.7968 34.7898 68.6366 35.2916C70.4763 35.7376 72.0374 37.4101 72.7621 38.2464C73.4311 39.0826 74.7691 40.8109 75.8284 41.0339C76.8876 41.2569 78.2814 41.0896 78.7831 41.1454C79.2849 41.2011 80.7344 41.3684 82.1839 41.5914C83.5777 41.8144 84.5254 42.9851 85.1387 43.8214C85.7519 44.6577 86.8669 47.8354 87.2014 48.6717C87.5359 49.5079 88.0934 52.5185 88.1492 53.9122C88.2049 55.306 87.9262 56.1422 88.0935 56.644C88.2607 57.1457 89.2642 57.8705 89.543 58.3722C89.8217 58.874 90.1005 59.8775 89.543 60.212C88.9855 60.5465 88.0934 60.435 88.1492 60.1005V60.1005Z" fill="url(#paint20_linear_130_8029)"/>
<path d="M61.5004 65.118C61.5004 65.118 59.8837 59.5988 49.1239 52.63C48.7894 52.407 48.6221 52.3512 49.0681 51.7937L50.0159 50.623C50.1831 50.4 50.2389 50.2884 50.5734 50.5114C50.9079 50.7344 60.0509 56.7555 63.5074 64.003C63.8419 64.5605 63.3402 64.5048 63.1172 64.5605C62.9499 64.672 62.058 65.0065 61.8907 65.1738C61.7235 65.2853 61.5562 65.2295 61.5004 65.118V65.118Z" fill="url(#paint21_linear_130_8029)"/>
<path d="M62.3368 64.5047C62.3368 64.5047 63.9536 64.1702 65.7934 66.7905C67.6331 69.4108 71.2569 72.1983 75.3267 70.916C79.3964 69.6895 77.7797 66.1215 82.853 61.8287C87.9262 57.5359 90.3235 56.9784 90.9368 56.9784C91.6058 56.9784 91.55 56.8112 91.4385 56.4209C91.327 56.0307 90.8253 54.8042 90.7695 54.4697C90.7138 54.1352 90.1563 54.4139 89.766 54.6369C89.32 54.8599 86.3095 56.1422 84.9157 56.9227C83.522 57.7032 81.0689 59.7102 79.5637 61.2712C78.0584 62.7765 77.2779 65.9543 76.5532 66.8463C75.8284 67.6825 74.9922 68.7975 72.9294 69.4108C70.8109 70.0798 68.1906 67.5153 67.6331 66.4003C67.0756 65.2852 64.9013 63.78 63.9536 63.557C63.1173 63.3897 61.9466 63.78 62.3368 64.5047Z" fill="url(#paint22_linear_130_8029)"/>
<defs>
<linearGradient id="paint0_linear_130_8029" x1="63.0638" y1="41.423" x2="95.5094" y2="11.4639" gradientUnits="userSpaceOnUse">
<stop offset="0.055" stop-color="#A06552"/>
<stop offset="0.201" stop-color="#925848"/>
<stop offset="0.504" stop-color="#925848"/>
<stop offset="0.603" stop-color="#9B604E"/>
<stop offset="0.727" stop-color="#A06552"/>
<stop offset="1" stop-color="#956444"/>
</linearGradient>
<linearGradient id="paint1_linear_130_8029" x1="77.1574" y1="56.8998" x2="42.959" y2="78.7573" gradientUnits="userSpaceOnUse">
<stop stop-color="#EDB740"/>
<stop offset="0.05" stop-color="#F4C150"/>
<stop offset="0.112" stop-color="#FFD169"/>
<stop offset="0.13" stop-color="#FFDE7E"/>
<stop offset="0.149" stop-color="#FFE78D"/>
<stop offset="0.164" stop-color="#FFEA92"/>
<stop offset="0.202" stop-color="#F7DA7B"/>
<stop offset="0.268" stop-color="#ECC259"/>
<stop offset="0.33" stop-color="#E4B040"/>
<stop offset="0.387" stop-color="#DFA631"/>
<stop offset="0.434" stop-color="#DDA22C"/>
</linearGradient>
<linearGradient id="paint2_linear_130_8029" x1="84.1385" y1="48.7246" x2="68.4197" y2="27.2234" gradientUnits="userSpaceOnUse">
<stop offset="0.16" stop-color="#6B3E34"/>
<stop offset="0.321" stop-color="#7E4B3E"/>
<stop offset="0.505" stop-color="#8D5545"/>
<stop offset="0.657" stop-color="#925848"/>
<stop offset="0.688" stop-color="#9B604E"/>
<stop offset="0.727" stop-color="#A06552"/>
<stop offset="1" stop-color="#956444"/>
</linearGradient>
<linearGradient id="paint3_linear_130_8029" x1="86.2323" y1="55.3444" x2="62.772" y2="39.1083" gradientUnits="userSpaceOnUse">
<stop offset="0.055" stop-color="#A06552"/>
<stop offset="0.201" stop-color="#925848"/>
<stop offset="0.504" stop-color="#925848"/>
<stop offset="0.603" stop-color="#9B604E"/>
<stop offset="0.727" stop-color="#A06552"/>
<stop offset="1" stop-color="#956444"/>
</linearGradient>
<linearGradient id="paint4_linear_130_8029" x1="95.9046" y1="47.1056" x2="80.1858" y2="25.6043" gradientUnits="userSpaceOnUse">
<stop offset="0.055" stop-color="#A06552"/>
<stop offset="0.201" stop-color="#925848"/>
<stop offset="0.504" stop-color="#925848"/>
<stop offset="0.603" stop-color="#9B604E"/>
<stop offset="0.727" stop-color="#A06552"/>
<stop offset="1" stop-color="#956444"/>
</linearGradient>
<linearGradient id="paint5_linear_130_8029" x1="57.4306" y1="62.6338" x2="81.8532" y2="42.6635" gradientUnits="userSpaceOnUse">
<stop offset="0.349" stop-color="#F4E0C3"/>
<stop offset="0.536" stop-color="#FBEBC6"/>
<stop offset="0.735" stop-color="#FFF0C7"/>
<stop offset="0.864" stop-color="#F8E5C4"/>
<stop offset="1" stop-color="#F4E0C3"/>
</linearGradient>
<linearGradient id="paint6_linear_130_8029" x1="33.5315" y1="64.3353" x2="67.5738" y2="61.5316" gradientUnits="userSpaceOnUse">
<stop stop-color="#D8B891"/>
<stop offset="0.048" stop-color="#E0C39C"/>
<stop offset="0.173" stop-color="#F1DCB4"/>
<stop offset="0.288" stop-color="#FBEBC2"/>
<stop offset="0.383" stop-color="#FFF0C7"/>
<stop offset="0.563" stop-color="#F8E5C4"/>
<stop offset="0.753" stop-color="#F4E0C3"/>
</linearGradient>
<linearGradient id="paint7_linear_130_8029" x1="41.2571" y1="65.2708" x2="35.1468" y2="70.7639" gradientUnits="userSpaceOnUse">
<stop stop-color="#EDB740"/>
<stop offset="0.137" stop-color="#F4C150"/>
<stop offset="0.306" stop-color="#FFD169"/>
<stop offset="0.382" stop-color="#FFDE7E"/>
<stop offset="0.462" stop-color="#FFE78D"/>
<stop offset="0.529" stop-color="#FFEA92"/>
</linearGradient>
<linearGradient id="paint8_linear_130_8029" x1="25.5945" y1="76.4353" x2="22.5366" y2="79.0288" gradientUnits="userSpaceOnUse">
<stop stop-color="#E6BB90"/>
<stop offset="0.399" stop-color="#F2D4B4"/>
<stop offset="0.66" stop-color="#F4DBB3"/>
</linearGradient>
<linearGradient id="paint9_linear_130_8029" x1="37.9297" y1="66.7626" x2="39.7076" y2="65.3605" gradientUnits="userSpaceOnUse">
<stop stop-color="#E6BB90"/>
<stop offset="0.399" stop-color="#F2D4B4"/>
<stop offset="0.66" stop-color="#F4DBB3"/>
</linearGradient>
<linearGradient id="paint10_linear_130_8029" x1="27.1098" y1="72.1643" x2="42.6915" y2="77.1016" gradientUnits="userSpaceOnUse">
<stop stop-color="#E6BB90"/>
<stop offset="0.399" stop-color="#F2D4B4"/>
<stop offset="0.66" stop-color="#F4DBB3"/>
<stop offset="0.703" stop-color="#F3D9B1"/>
<stop offset="1" stop-color="#EED2AA"/>
</linearGradient>
<linearGradient id="paint11_linear_130_8029" x1="17.9037" y1="100.891" x2="27.6032" y2="87.4833" gradientUnits="userSpaceOnUse">
<stop offset="0.16" stop-color="#6B3E34"/>
<stop offset="0.321" stop-color="#7E4B3E"/>
<stop offset="0.505" stop-color="#8D5545"/>
<stop offset="0.657" stop-color="#925848"/>
<stop offset="0.688" stop-color="#9B604E"/>
<stop offset="0.727" stop-color="#A06552"/>
<stop offset="1" stop-color="#956444"/>
</linearGradient>
<linearGradient id="paint12_linear_130_8029" x1="32.5844" y1="80.781" x2="11.9925" y2="99.2924" gradientUnits="userSpaceOnUse">
<stop stop-color="#CEB18E"/>
<stop offset="0.177" stop-color="#D8C197"/>
<stop offset="0.306" stop-color="#E2CF9F"/>
<stop offset="0.371" stop-color="#EAD7AF"/>
<stop offset="0.457" stop-color="#F1DEBE"/>
<stop offset="0.529" stop-color="#F4E0C3"/>
<stop offset="0.538" stop-color="#F1DCBF"/>
<stop offset="0.643" stop-color="#D0B193"/>
<stop offset="0.745" stop-color="#B69071"/>
<stop offset="0.84" stop-color="#A47858"/>
<stop offset="0.928" stop-color="#996949"/>
<stop offset="1" stop-color="#956444"/>
</linearGradient>
<linearGradient id="paint13_linear_130_8029" x1="24.9467" y1="91.6964" x2="18.8175" y2="96.3756" gradientUnits="userSpaceOnUse">
<stop stop-color="#EDB740"/>
<stop offset="0.137" stop-color="#F4C150"/>
<stop offset="0.306" stop-color="#FFD169"/>
<stop offset="0.382" stop-color="#FFDE7E"/>
<stop offset="0.462" stop-color="#FFE78D"/>
<stop offset="0.529" stop-color="#FFEA92"/>
</linearGradient>
<radialGradient id="paint14_radial_130_8029" cx="0" cy="0" r="1" gradientUnits="userSpaceOnUse" gradientTransform="translate(36.2495 77.6771) rotate(-38.2591) scale(2.47022 2.47023)">
<stop stop-color="#E5646E"/>
<stop offset="0.45" stop-color="#DC4E6D"/>
<stop offset="1" stop-color="#E5646E"/>
</radialGradient>
<linearGradient id="paint15_linear_130_8029" x1="23.2196" y1="79.3216" x2="40.7397" y2="65.5056" gradientUnits="userSpaceOnUse">
<stop stop-color="#A06552"/>
<stop offset="0.201" stop-color="#925848"/>
<stop offset="0.504" stop-color="#925848"/>
<stop offset="0.603" stop-color="#9B604E"/>
<stop offset="0.727" stop-color="#A06552"/>
<stop offset="1" stop-color="#956444"/>
</linearGradient>
<linearGradient id="paint16_linear_130_8029" x1="36.7267" y1="84.6479" x2="13.7347" y2="102.438" gradientUnits="userSpaceOnUse">
<stop stop-color="#EAD2B2"/>
<stop offset="0.051" stop-color="#F1DCB9"/>
<stop offset="0.154" stop-color="#FBEBC3"/>
<stop offset="0.239" stop-color="#FFF0C7"/>
<stop offset="0.368" stop-color="#F8E5C4"/>
<stop offset="0.504" stop-color="#F4E0C3"/>
<stop offset="0.555" stop-color="#D6B49B"/>
<stop offset="0.604" stop-color="#BF927B"/>
<stop offset="0.65" stop-color="#AE7964"/>
<stop offset="0.692" stop-color="#A46A57"/>
<stop offset="0.727" stop-color="#A06552"/>
<stop offset="1" stop-color="#956444"/>
</linearGradient>
<linearGradient id="paint17_linear_130_8029" x1="38.3848" y1="84.9144" x2="56.3264" y2="54.6654" gradientUnits="userSpaceOnUse">
<stop stop-color="#EAD2B2"/>
<stop offset="0.051" stop-color="#F1DCB9"/>
<stop offset="0.154" stop-color="#FBEBC3"/>
<stop offset="0.239" stop-color="#FFF0C7"/>
<stop offset="0.368" stop-color="#F8E5C4"/>
<stop offset="0.504" stop-color="#F4E0C3"/>
</linearGradient>
<linearGradient id="paint18_linear_130_8029" x1="24.9751" y1="93.884" x2="18.1758" y2="102.258" gradientUnits="userSpaceOnUse">
<stop offset="0.074" stop-color="#91594A"/>
<stop offset="0.504" stop-color="#935848"/>
<stop offset="0.537" stop-color="#955A4A"/>
<stop offset="0.703" stop-color="#995E4F"/>
<stop offset="0.893" stop-color="#8C4E40"/>
<stop offset="1" stop-color="#894636"/>
</linearGradient>
<linearGradient id="paint19_linear_130_8029" x1="26.9481" y1="92.6944" x2="21.726" y2="97.3886" gradientUnits="userSpaceOnUse">
<stop stop-color="#EDB740"/>
<stop offset="0.137" stop-color="#F4C150"/>
<stop offset="0.306" stop-color="#FFD169"/>
<stop offset="0.382" stop-color="#FFDE7E"/>
<stop offset="0.462" stop-color="#FFE78D"/>
<stop offset="0.529" stop-color="#FFEA92"/>
</linearGradient>
<linearGradient id="paint20_linear_130_8029" x1="83.2409" y1="41.9465" x2="69.2788" y2="54.4981" gradientUnits="userSpaceOnUse">
<stop stop-color="#EDB740"/>
<stop offset="0.137" stop-color="#F4C150"/>
<stop offset="0.306" stop-color="#FFD169"/>
<stop offset="0.382" stop-color="#FFDE7E"/>
<stop offset="0.462" stop-color="#FFE78D"/>
<stop offset="0.529" stop-color="#FFEA92"/>
</linearGradient>
<linearGradient id="paint21_linear_130_8029" x1="62.1505" y1="55.767" x2="36.9246" y2="64.2327" gradientUnits="userSpaceOnUse">
<stop stop-color="#EDB740"/>
<stop offset="0.137" stop-color="#F4C150"/>
<stop offset="0.306" stop-color="#FFD169"/>
<stop offset="0.382" stop-color="#FFDE7E"/>
<stop offset="0.462" stop-color="#FFE78D"/>
<stop offset="0.529" stop-color="#FFEA92"/>
</linearGradient>
<linearGradient id="paint22_linear_130_8029" x1="90.721" y1="48.8556" x2="35.5092" y2="96.3928" gradientUnits="userSpaceOnUse">
<stop stop-color="#EDB740"/>
<stop offset="0.089" stop-color="#F4C150"/>
<stop offset="0.198" stop-color="#FFD169"/>
<stop offset="0.252" stop-color="#FFDE7E"/>
<stop offset="0.309" stop-color="#FFE78D"/>
<stop offset="0.356" stop-color="#FFEA92"/>
<stop offset="0.358" stop-color="#FEE88F"/>
<stop offset="0.38" stop-color="#F7D36D"/>
<stop offset="0.4" stop-color="#F1C354"/>
<stop offset="0.419" stop-color="#EEBA45"/>
<stop offset="0.434" stop-color="#EDB740"/>
</linearGradient>
</defs>
</svg>
