<svg width="120" height="120" viewBox="0 0 120 120" fill="none" xmlns="http://www.w3.org/2000/svg">
<path d="M93.2635 44.9693C90.0242 38.2908 84.8652 32.732 78.4266 29.0528C75.2673 27.2132 71.8281 25.8935 68.2689 25.0937C63.4699 24.0139 58.471 23.8939 53.6321 24.7337C53.0722 24.8537 52.4723 24.9337 51.9124 25.0937C35.1961 28.9328 23.3187 43.8096 23.3187 60.9659V61.0858C23.3587 72.2834 28.4775 82.8411 37.2356 89.7596C41.5547 93.1989 46.5936 95.6383 51.9924 96.8381C57.3912 98.0378 62.99 98.0378 68.3489 96.7981C69.1887 96.5981 70.0285 96.3982 70.8283 96.1182C73.5477 95.2784 76.1472 94.1586 78.5866 92.719C84.9452 88.9998 90.0642 83.481 93.2635 76.8424C93.7434 75.8026 94.2232 74.7629 94.6231 73.6831C94.8231 73.0832 95.063 72.4834 95.223 71.8435C95.423 71.2436 95.5829 70.6038 95.7429 70.0039C95.9029 69.444 96.0228 68.8442 96.1428 68.2443C96.6227 65.8448 96.8627 63.3653 96.8627 60.9259V60.8459C96.9027 55.3671 95.6629 49.9283 93.2635 44.9693ZM60.1107 78.962C59.9507 78.962 59.7507 78.962 59.5908 78.962C49.6729 78.682 41.8346 70.3638 42.1546 60.446C42.4345 50.928 50.0728 43.2897 59.5908 43.0098C59.7507 43.0098 59.9507 43.0098 60.1107 43.0098C70.0285 43.0098 78.1067 51.048 78.1067 61.0059C78.1067 70.8837 70.0285 78.962 60.1107 78.962Z" fill="url(#paint0_radial_153_423633)"/>
<path opacity="0.1" d="M20.6392 62.1656V62.0456C20.6392 40.9702 37.7155 23.8939 58.8309 23.8939C65.5095 23.8939 72.068 25.6535 77.8668 28.9728C84.5453 32.812 89.9042 38.5707 93.2634 45.4892C95.7429 50.6481 97.0626 56.2469 97.0626 61.9656V62.0456C97.1026 83.121 80.0263 100.237 58.9509 100.277C37.7955 100.277 20.6792 83.241 20.6392 62.1656Z" fill="black"/>
<path d="M78.0668 60.9258L96.8627 60.8858C96.8627 49.6882 91.7438 39.1305 82.9857 32.1721C81.546 31.0123 79.9863 29.9725 78.3867 29.0527L69.0287 45.3692C74.4276 48.4485 78.0668 54.2473 78.0668 60.9258Z" fill="url(#paint1_linear_153_423633)"/>
<path d="M42.1146 60.406C42.3146 53.9674 45.8338 48.4086 51.0726 45.3692L41.5947 29.0928C30.2372 35.6513 23.2787 47.8087 23.2787 60.9258V61.0458H42.1146C42.1146 60.8459 42.1146 60.6459 42.1146 60.406Z" fill="url(#paint2_linear_153_423633)"/>
<path d="M60.1107 78.9619C59.9507 78.9619 59.7507 78.9619 59.5908 78.9619C56.5114 78.882 53.6721 78.0021 51.1926 76.6024L41.8347 92.9189C44.994 94.7585 48.4332 96.0782 52.0324 96.878C61.1105 98.9176 70.6284 97.4779 78.6667 92.7989L69.1887 76.5225C66.4693 78.0421 63.39 78.9619 60.1107 78.9619Z" fill="url(#paint3_linear_153_423633)"/>
<g opacity="0.15">
<path d="M93.4233 84.9606C92.1036 87.0801 90.544 88.9997 88.7844 90.7593C87.9046 91.6391 86.9847 92.4789 86.025 93.2788C85.0652 94.0786 84.0654 94.7984 83.0256 95.5183C80.9461 96.878 78.7465 98.0777 76.427 98.9975C74.1075 99.9173 71.7081 100.597 69.2686 100.997C71.6281 100.277 73.9076 99.4374 76.1471 98.3976C77.2669 97.8778 78.3466 97.3579 79.4264 96.718C80.5062 96.1181 81.546 95.4783 82.5457 94.7984C83.5455 94.1186 84.5453 93.3987 85.5051 92.6389C86.4649 91.8791 87.3847 91.0792 88.3045 90.2794C90.1841 88.6398 91.8637 86.8402 93.4233 84.9606Z" fill="white"/>
</g>
<g opacity="0.15">
<path d="M85.7051 28.8129C88.2245 30.6125 90.4641 32.732 92.4636 35.0915C93.4634 36.2912 94.3832 37.531 95.223 38.8107C96.0628 40.1304 96.8227 41.4501 97.5025 42.8498C98.1824 44.2495 98.7822 45.6892 99.2621 47.1289C99.742 48.6086 100.182 50.0882 100.502 51.6079C101.142 54.6472 101.382 57.7266 101.222 60.8059C101.062 57.7666 100.582 54.7272 99.862 51.7679C99.5021 50.2882 99.0622 48.8485 98.5423 47.4088C97.5025 44.5694 96.1828 41.81 94.5831 39.2106C93.7833 37.9309 92.9035 36.6512 91.9837 35.4514C90.0641 33.0919 87.9846 30.8524 85.7051 28.8129Z" fill="white"/>
</g>
<g opacity="0.15">
<path d="M39.4751 25.4135C41.6346 23.9738 43.9141 22.8141 46.3536 21.8943C47.5533 21.4544 48.7931 21.0545 50.0328 20.7346C51.2725 20.4146 52.5523 20.1347 53.832 19.9347C55.1117 19.7348 56.3914 19.6148 57.7111 19.5348C58.9909 19.4948 60.3106 19.4948 61.5903 19.5748C64.1497 19.7348 66.7092 20.1747 69.1886 20.8945C66.6692 20.4946 64.1097 20.2547 61.5503 20.2147C58.9909 20.1747 56.4714 20.3746 53.952 20.7346C51.4325 21.0945 48.953 21.6943 46.5536 22.4942C44.1141 23.294 41.7546 24.2938 39.4751 25.4135Z" fill="white"/>
</g>
<g opacity="0.15">
<path d="M51.0326 101.037C48.7531 100.597 46.5536 99.9574 44.394 99.1576C42.2345 98.3178 40.155 97.278 38.1554 96.0783C34.1963 93.6388 30.6371 90.5595 27.7177 86.9202C26.9978 86.0004 26.318 85.0806 25.6381 84.1209C24.9983 83.1611 24.3984 82.1613 23.8385 81.1615C23.2787 80.1617 22.7588 79.0819 22.2789 78.0422C21.799 77.0024 21.3991 75.8826 21.0391 74.8029C20.6792 73.7231 20.3593 72.6034 20.0793 71.4436C19.7994 70.2839 19.5994 69.1641 19.3995 68.0444C19.0796 65.7648 18.9196 63.4454 18.9996 61.1259C19.1595 65.7249 20.0793 70.2439 21.639 74.5629C22.0389 75.6427 22.4788 76.6825 22.9587 77.7222C23.4386 78.762 23.9585 79.7618 24.5184 80.7616C25.0783 81.7614 25.6781 82.7212 26.318 83.681C26.9579 84.6407 27.6377 85.5205 28.3575 86.4403C29.0774 87.3202 29.8372 88.2 30.597 89.0398C31.3569 89.8796 32.1967 90.6394 33.0365 91.4393C33.8763 92.1991 34.7561 92.9189 35.6759 93.6388C36.5957 94.3586 37.5155 94.9985 38.4753 95.5984C42.3545 97.9978 46.5936 99.8374 51.0326 101.037Z" fill="white"/>
</g>
<g opacity="0.15">
<path d="M102.181 66.0847C102.301 67.6844 102.261 69.244 102.062 70.8437C101.982 71.6435 101.862 72.4033 101.702 73.2032C101.542 74.003 101.382 74.7628 101.182 75.5227C100.782 77.0823 100.262 78.562 99.662 80.0417C99.0622 81.5214 98.3023 82.9211 97.4625 84.2408C97.9824 82.7611 98.5423 81.2814 99.0221 79.8017C99.2621 79.0419 99.5021 78.3221 99.702 77.5622C99.902 76.8024 100.142 76.0825 100.342 75.3227C100.542 74.5629 100.742 73.803 100.902 73.0432C101.062 72.2834 101.222 71.5235 101.382 70.7637C101.662 69.164 101.942 67.6444 102.181 66.0847Z" fill="white"/>
</g>
<g opacity="0.15">
<path d="M55.4317 16.1356C58.751 15.5757 62.1502 15.4558 65.5095 15.7757C67.1891 15.9357 68.8688 16.1756 70.5084 16.5355C72.1481 16.8955 73.7877 17.3754 75.3873 17.8952C76.987 18.4551 78.5467 19.095 80.0664 19.8548C81.586 20.6147 83.0657 21.4545 84.4654 22.3743C87.3048 24.2139 89.8642 26.4134 92.1437 28.9328C89.6643 26.6933 86.9449 24.6938 84.1055 22.9741C82.6658 22.1343 81.2261 21.3345 79.7064 20.6147C78.1868 19.8948 76.6671 19.2949 75.1074 18.7351C73.5478 18.1752 71.9481 17.7353 70.3085 17.3354C68.6688 16.9355 67.0692 16.6555 65.3895 16.4556C62.1102 16.0556 58.751 15.9357 55.4317 16.1356Z" fill="white"/>
</g>
<g opacity="0.15">
<path d="M17 49.2884C17.5599 46.529 18.4397 43.8096 19.5994 41.2502C20.1993 39.9704 20.8392 38.6907 21.559 37.491C22.2789 36.2512 23.0787 35.0915 23.9185 33.9317C24.7583 32.772 25.6781 31.6922 26.5979 30.6525C27.5577 29.6127 28.5575 28.6129 29.6373 27.6531C31.7568 25.7735 34.0763 24.1339 36.5558 22.7742C34.2763 24.4138 32.1167 26.2134 30.1172 28.173C28.1176 30.1326 26.278 32.2121 24.6384 34.4516C22.9987 36.6911 21.519 39.0506 20.2393 41.5301C18.9596 44.0495 17.9198 46.649 17 49.2884Z" fill="white"/>
</g>
<g opacity="0.15">
<path d="M84.4653 98.8775C82.3858 100.317 80.1462 101.517 77.8267 102.557C75.5073 103.597 73.1078 104.396 70.6283 104.996C65.6694 106.196 60.5505 106.516 55.4716 105.956C54.1919 105.796 52.9522 105.596 51.7125 105.356C50.4727 105.116 49.233 104.796 47.9932 104.476C46.7535 104.116 45.5538 103.716 44.394 103.237C43.1943 102.797 42.0346 102.277 40.9148 101.717C39.7951 101.157 38.6753 100.557 37.5955 99.8773C36.5157 99.1975 35.476 98.5176 34.4362 97.7578C32.3967 96.2381 30.5171 94.5585 28.7974 92.7189C32.4766 96.1581 36.6757 98.9575 41.2347 101.077C42.3545 101.597 43.5142 102.077 44.714 102.517C45.8737 102.957 47.0735 103.317 48.2732 103.676C49.4729 104.036 50.6727 104.276 51.9124 104.516C53.1521 104.756 54.3919 104.916 55.6316 105.076C56.8713 105.196 58.1111 105.316 59.3508 105.356C60.5905 105.396 61.8303 105.356 63.11 105.316C64.3497 105.276 65.5894 105.156 66.8292 104.956C68.0689 104.796 69.3086 104.556 70.5084 104.316C75.4273 103.237 80.1463 101.437 84.4653 98.8775Z" fill="white"/>
</g>
<g opacity="0.15">
<path d="M32.7166 99.9573C31.5569 99.8774 30.4371 99.4375 29.4773 98.7976C29.2374 98.6376 28.9974 98.4777 28.7575 98.3177C28.6375 98.2377 28.5175 98.1577 28.3975 98.0378L28.0776 97.7578C27.9576 97.6778 27.8777 97.5579 27.7577 97.4779C27.6377 97.3979 27.5577 97.2779 27.4777 97.158L27.1978 96.838C27.0778 96.718 26.9979 96.6381 26.9179 96.5181L26.398 95.7982C26.318 95.6783 26.238 95.5583 26.158 95.4383L25.9181 95.0784C25.6382 94.5585 25.3582 94.0386 25.1583 93.5187C24.9183 92.9989 24.7583 92.439 24.5984 91.8791C24.4784 91.3192 24.3584 90.7593 24.2385 90.1995C24.4784 90.7193 24.6784 91.2392 24.9183 91.7591L25.2782 92.519C25.3982 92.7589 25.5182 93.0389 25.6382 93.2788C25.9181 93.7587 26.158 94.2786 26.478 94.7185C26.6379 94.9584 26.7579 95.1984 26.9579 95.3983L27.4777 96.0782C27.5577 96.1982 27.6377 96.2781 27.7577 96.3981L28.0376 96.718C28.1176 96.838 28.1976 96.918 28.3176 97.038C28.3976 97.118 28.5175 97.2379 28.5975 97.3179L28.8774 97.5979C28.9574 97.6778 29.0774 97.7978 29.1974 97.8778C29.3973 98.0378 29.5973 98.2377 29.8372 98.3977C30.6771 98.9975 31.6369 99.5974 32.7166 99.9573Z" fill="white"/>
</g>
<path opacity="0.25" d="M93.2635 44.9693C90.0242 38.2908 84.8653 32.732 78.4267 29.0528C75.2673 27.2132 71.8281 25.8935 68.2689 25.0937C63.4699 24.0139 58.471 23.8939 53.6321 24.7337C38.1154 29.4527 27.5577 43.7296 27.5577 59.9661V60.0861C27.5577 71.2836 32.7166 81.8413 41.4747 88.7998C45.7938 92.2391 50.8327 94.6785 56.2315 95.8783C61.0305 96.958 65.9894 97.078 70.8683 96.1982C73.5877 95.3584 76.1871 94.2386 78.6266 92.7989C84.9852 89.0797 90.1041 83.5609 93.3034 76.9224C93.7833 75.8826 94.2632 74.8428 94.6632 73.7631C94.8631 73.1632 95.1031 72.5633 95.263 71.9235C95.463 71.3236 95.6229 70.6838 95.7829 70.0839C95.9429 69.524 96.0628 68.9241 96.1828 68.3243C96.6627 65.9248 96.9027 63.4453 96.9027 61.0059V60.9259C96.9027 55.3671 95.6629 49.9283 93.2635 44.9693ZM60.1107 78.962C59.9507 78.962 59.7507 78.962 59.5908 78.962C49.6729 78.682 41.8346 70.3638 42.1546 60.446C42.4345 50.928 50.0728 43.2897 59.5908 43.0098C59.7507 43.0098 59.9507 43.0098 60.1107 43.0098C70.0285 43.0098 78.1068 51.048 78.1068 61.0059C78.1068 70.8837 70.0285 78.962 60.1107 78.962Z" fill="url(#paint4_radial_153_423633)"/>
<path opacity="0.1" d="M78.0668 60.9659C78.0668 70.8837 70.0285 78.962 60.0707 78.962C59.9107 78.962 59.7107 78.962 59.5508 78.962C69.4686 78.682 77.3069 70.4038 77.027 60.486C76.747 50.9281 69.0687 43.2497 59.5508 43.0098C59.7107 43.0098 59.9107 43.0098 60.0707 43.0098C70.0285 42.9698 78.0668 51.0081 78.0668 60.9659Z" fill="black"/>
<path opacity="0.2" d="M97.7024 27.4531C96.3827 26.0934 92.9834 25.1736 90.1441 24.5738C88.3844 24.2138 84.6253 23.614 82.0658 23.2141C82.2258 22.1743 81.9058 21.1745 81.146 20.6546C80.4662 20.2147 79.9063 20.2547 79.4264 20.4147C79.3864 20.0947 79.3464 19.8148 79.2664 19.4949C79.2264 19.2549 79.1465 19.055 79.1065 18.815C78.4266 16.5755 76.9069 14.5359 74.9474 13.3762L75.1473 12.2564L73.5876 12.8163C73.5477 12.8163 73.4677 12.7763 73.4277 12.7763C73.3477 12.7363 73.2277 12.7363 73.1078 12.6963L73.0678 11.7765V11.4966C72.9878 11.4966 72.9478 11.4566 72.8678 11.4566C71.5881 11.2966 70.7083 12.3364 70.5483 12.4964C68.2688 12.7763 66.1093 14.056 64.5896 15.8157C64.4296 15.9756 64.3097 16.1756 64.1497 16.3356C63.9498 16.5755 63.7898 16.8554 63.6298 17.0954L63.5898 17.0554C63.2299 16.7755 62.71 16.5355 61.9502 16.6555C60.8704 16.8154 60.1506 17.9352 59.9906 19.1349C57.5511 18.2951 54.1119 17.0954 52.3923 16.5755C49.6329 15.7757 46.2736 15.0158 44.434 15.5357C43.9141 15.4957 43.4742 15.6157 43.4742 15.9756C43.4342 16.7355 43.6342 19.7748 45.3538 22.5342C47.0734 25.2936 53.432 32.572 55.3516 34.6516C55.2716 35.3714 55.1917 36.2112 55.1517 37.0111C55.0717 38.5707 54.9117 46.329 53.632 49.6483C52.3523 52.9676 50.1528 57.9665 50.1528 57.9665C50.1528 57.9665 50.3127 58.3264 50.6726 58.8463C50.2727 58.3264 50.1528 57.9665 50.1528 57.9665L48.953 59.9661C47.7533 61.9656 46.5935 65.6048 46.3536 66.7246C46.1136 67.8843 43.3542 74.163 42.6344 75.5627C42.6744 75.6426 42.7544 75.7626 42.8743 75.9226C42.8743 75.9226 42.5944 76.4025 42.1945 77.8022C41.7946 79.2019 39.0352 89.8396 38.3153 93.5587C37.5955 97.2779 42.0745 97.3979 43.3942 96.5181C44.7139 95.5983 45.4338 93.1588 46.1936 91.5992C46.9534 90.0395 53.792 80.0017 53.792 80.0017C54.5118 79.9217 54.7118 79.6818 54.7118 79.6818L55.9115 77.0423L55.5516 79.3618C55.5516 79.3618 55.5916 79.4418 55.9515 79.6418C55.9515 79.6418 56.9513 88.2799 57.0313 92.0391C57.1112 95.7983 56.7113 98.2377 57.5511 99.7174C58.391 101.157 58.9508 102.837 61.2703 102.517C63.5498 102.237 64.0697 97.8778 64.5496 96.4781C65.0295 95.0784 67.309 83.121 67.309 83.121C67.589 83.201 67.7489 83.241 67.7489 83.241C67.7489 83.241 67.7889 79.6418 68.2288 75.2427C69.4686 70.0039 69.1886 66.6846 69.1886 66.6846C69.3086 66.3247 68.9487 64.5651 68.9087 64.2451C68.8687 62.9254 70.3483 58.7663 72.1879 54.8472C74.0275 50.928 78.5066 43.4896 80.1062 41.0902C80.1062 41.0502 80.1462 41.0102 80.1462 40.9302C82.7057 39.7305 91.3038 35.2914 93.9032 33.3319C96.5427 31.4123 97.8224 28.6529 98.0624 27.933C98.2623 27.853 98.0623 27.6531 97.7024 27.4531ZM63.7098 26.5733V26.6133C63.7098 26.5733 63.7098 26.5733 63.7098 26.5733ZM63.7098 26.7733C63.7098 26.8133 63.7098 26.8133 63.7098 26.8533C63.7098 26.8133 63.7098 26.8133 63.7098 26.7733ZM63.7898 27.7331C63.7898 27.6931 63.7898 27.6931 63.7898 27.6531C63.7898 27.6531 63.7898 27.6931 63.7898 27.7331ZM63.7098 27.3332V27.2932C63.7098 27.2932 63.7098 27.2932 63.7098 27.3332ZM63.7098 27.0932C63.7098 27.0532 63.7098 27.0532 63.7098 27.0132C63.7098 27.0532 63.7098 27.0532 63.7098 27.0932ZM64.4696 29.4527C64.4296 29.3727 64.3897 29.3327 64.3497 29.2527C64.3897 29.3327 64.4296 29.3727 64.4696 29.4527ZM64.3497 29.2527C64.3097 29.1728 64.2697 29.0928 64.2297 29.0128C64.2697 29.0928 64.3097 29.1728 64.3497 29.2527ZM64.2297 28.9728C64.1897 28.8928 64.1497 28.8528 64.1497 28.7728C64.1497 28.8528 64.1897 28.8928 64.2297 28.9728ZM64.1097 28.6929C64.0697 28.6529 64.0697 28.5729 64.0297 28.5329C64.0697 28.6129 64.0697 28.6529 64.1097 28.6929ZM63.9897 28.4529C63.9897 28.4129 63.9498 28.3729 63.9498 28.293C63.9498 28.3729 63.9897 28.4129 63.9897 28.4529ZM63.9098 28.213C63.9098 28.173 63.8698 28.133 63.8698 28.093C63.8698 28.133 63.9098 28.173 63.9098 28.213ZM63.8298 27.973C63.8298 27.933 63.7898 27.893 63.7898 27.853C63.8298 27.893 63.8298 27.933 63.8298 27.973ZM65.9893 31.0524C65.9493 31.0124 65.9093 30.9724 65.8293 30.9324C65.8693 31.0124 65.9493 31.0124 65.9893 31.0524ZM65.7494 30.8924C65.7094 30.8524 65.6294 30.8124 65.5894 30.7724C65.6694 30.8124 65.7094 30.8524 65.7494 30.8924ZM65.5494 30.6924C65.5094 30.6524 65.4694 30.6124 65.4294 30.5725C65.4294 30.6124 65.5094 30.6524 65.5494 30.6924ZM65.3095 30.4925C65.2695 30.4525 65.2295 30.4125 65.2295 30.4125C65.2295 30.4125 65.2695 30.4525 65.3095 30.4925ZM66.1893 31.2123C66.1493 31.1723 66.1493 31.1723 66.1093 31.1723C66.1493 31.1723 66.1493 31.2123 66.1893 31.2123ZM68.4288 32.2521H68.3888C68.4288 32.2521 68.4288 32.2521 68.4288 32.2521ZM68.1089 32.1721C68.0689 32.1721 68.0289 32.1321 68.0289 32.1321C68.0689 32.1321 68.1089 32.1321 68.1089 32.1721ZM67.7889 32.0521C67.7489 32.0521 67.7489 32.0521 67.7089 32.0121C67.7489 32.0121 67.7489 32.0521 67.7889 32.0521ZM69.8685 32.452C69.8685 32.452 69.8285 32.452 69.8685 32.452C69.8285 32.452 69.8685 32.452 69.8685 32.452ZM73.1078 31.8522C73.0678 31.8522 73.0678 31.8522 73.1078 31.8522C73.0678 31.8522 73.0678 31.8522 73.1078 31.8522ZM72.7878 31.9722H72.7478C72.7878 31.9722 72.7878 31.9722 72.7878 31.9722ZM72.5079 32.0921H72.4679C72.4679 32.0921 72.5079 32.0921 72.5079 32.0921ZM74.2675 31.0923C74.2275 31.1323 74.1475 31.1723 74.1076 31.2523C74.1475 31.1723 74.1875 31.1323 74.2675 31.0923ZM74.0275 31.2523C73.9875 31.2923 73.9476 31.3323 73.8676 31.3723C73.9476 31.3323 73.9875 31.2923 74.0275 31.2523ZM74.6274 30.7324C74.5874 30.7724 74.5874 30.7724 74.5474 30.8124C74.5874 30.8124 74.6274 30.7724 74.6274 30.7324ZM74.4675 30.9324C74.4275 30.9724 74.3875 31.0124 74.3075 31.0524C74.3475 31.0124 74.3875 30.9724 74.4675 30.9324ZM79.1864 23.8939C79.1464 24.2938 79.1065 24.6937 79.0665 25.0936C79.1065 24.6937 79.1464 24.2938 79.1864 23.8939ZM80.5861 21.2945C81.146 21.6544 81.4259 22.4142 81.346 23.1741C81.4259 22.3742 81.186 21.6544 80.5861 21.2945C80.1862 21.0145 79.7863 20.9745 79.4664 21.0545C79.7863 20.9745 80.1862 21.0145 80.5861 21.2945ZM72.5479 19.3749C73.1877 19.1749 73.8276 19.1349 74.5075 19.2549C73.8676 19.1349 73.1877 19.1749 72.5479 19.3749C71.828 19.6148 70.9882 19.4549 70.4283 18.935C71.0282 19.4549 71.828 19.6148 72.5479 19.3749ZM70.2284 18.775C69.7885 18.4151 69.2686 18.2151 68.7087 18.0952C69.2686 18.2151 69.7885 18.4551 70.2284 18.775ZM68.7087 18.0952C67.429 17.8152 66.1893 18.2151 65.3494 19.015C66.1893 18.2151 67.429 17.8152 68.7087 18.0952ZM63.4299 17.6953C63.4299 17.7352 63.4299 17.7352 63.4299 17.6953C63.3099 17.9752 63.1899 18.2551 63.0699 18.5351C63.1499 18.2551 63.2699 17.9752 63.4299 17.6953C63.1499 17.5353 62.79 17.4153 62.3101 17.4953C62.2301 17.4953 62.1901 17.5353 62.1102 17.5353C62.1901 17.4953 62.2301 17.4953 62.3101 17.4953C62.79 17.4153 63.1499 17.5353 63.4299 17.6953ZM54.2719 23.1741C53.8719 22.6542 53.552 22.2543 53.1921 21.8943C55.4716 22.2143 58.9508 22.8141 61.3103 23.7739C61.3103 23.8539 61.2703 23.9339 61.2703 24.0139C60.7504 26.6133 61.9502 29.2128 64.1897 31.0124C64.5096 31.2923 64.8696 31.5322 65.2295 31.7322C65.5894 31.9721 65.9893 32.1721 66.3892 32.3321C65.4294 32.0921 64.6696 31.9322 64.3097 31.8522C63.1899 31.6122 62.5101 30.1725 61.4703 28.9728C61.4303 28.9328 61.3903 28.8928 61.3103 28.8528C60.9504 28.4529 60.0706 27.6531 58.5909 27.0132C56.5114 26.2134 55.2716 24.4938 54.2719 23.1741ZM60.3905 64.765C60.3905 64.765 60.4305 64.765 60.3905 64.765C60.4305 64.765 60.3905 64.765 60.3905 64.765ZM59.6707 64.645C59.7507 64.645 59.8306 64.685 59.8706 64.685C59.8306 64.685 59.7507 64.645 59.6707 64.645ZM85.585 30.7324C84.1853 31.6122 82.3857 32.732 80.1862 32.772C77.9867 32.812 76.707 33.6118 76.707 33.6118C76.1471 33.9317 74.8674 35.1715 73.1877 34.4516C72.3879 34.0517 71.1482 33.6118 69.8285 33.2119C71.1082 33.3319 72.3879 33.2119 73.5477 32.8919C74.4675 32.652 75.3473 32.2521 76.1471 31.7322C76.587 31.4523 76.9869 31.0923 77.3468 30.7324C77.4668 30.6124 77.5468 30.5325 77.6268 30.4125C77.7067 30.2925 77.8267 30.1725 77.9067 30.0526C77.9867 29.9326 78.0667 29.8126 78.1467 29.6926C78.1867 29.6127 78.2267 29.5727 78.2667 29.4927C78.3066 29.4127 78.3466 29.3727 78.3866 29.2927C78.4266 29.2127 78.4666 29.1728 78.4666 29.0928C78.4666 29.0928 78.4666 29.0928 78.4666 29.0528C78.5466 28.9328 78.5865 28.8128 78.6265 28.6529C78.6665 28.5729 78.6666 28.5329 78.7066 28.4529C78.7465 28.3729 78.7465 28.3329 78.7865 28.253C78.8265 28.173 78.8265 28.133 78.8265 28.053V28.013C78.8265 27.933 78.8665 27.893 78.8665 27.8131C78.8665 27.8131 78.8665 27.8131 78.8665 27.7731C78.8665 27.6931 78.9065 27.6131 78.9065 27.5731C78.9865 27.2532 79.0265 26.9332 79.0265 26.6133C83.0256 27.0532 89.1843 29.5727 89.1843 29.5727C87.8645 29.4927 86.9847 29.8526 85.585 30.7324Z" fill="url(#paint5_linear_153_423633)"/>
<path d="M56.6314 79.2819C56.6314 79.2819 57.6312 87.92 57.7112 91.6792C57.7912 95.4384 57.3912 97.8778 58.2311 99.3575C59.0709 100.797 59.6308 102.477 61.9502 102.157C64.2298 101.877 64.7496 97.5179 65.2295 96.1182C65.7094 94.7185 67.9889 82.7611 67.9889 82.7611C67.9889 82.7611 62.3102 80.6016 61.2304 80.2417C60.1107 79.8417 57.7112 78.642 56.6314 79.2819Z" fill="url(#paint6_linear_153_423633)"/>
<path opacity="0.25" d="M56.7114 78.9619L68.0289 82.6011L67.9889 82.7611L67.789 83.6809C67.789 83.6809 59.9507 82.4412 56.7914 80.7215C56.7114 79.9617 56.6314 79.2419 56.6314 79.2419L56.7114 78.9619Z" fill="url(#paint7_linear_153_423633)"/>
<path d="M54.4718 79.6417C54.4718 79.6417 47.6333 89.6795 46.8735 91.2392C46.1137 92.7989 45.3938 95.2783 44.0741 96.1581C42.7544 97.0779 38.2754 96.918 38.9952 93.1988C39.7151 89.4796 42.4745 78.8419 42.8744 77.4422C43.2743 76.0425 43.5542 75.5626 43.5542 75.5626C43.5542 75.5626 52.9922 77.1223 54.4718 79.6417Z" fill="url(#paint8_linear_153_423633)"/>
<path opacity="0.25" d="M43.5542 75.5226L44.514 76.5624L46.4735 77.6021L49.7528 78.8819L54.4318 79.4817V79.6417L53.472 81.0814C53.472 81.0814 49.7928 80.6815 46.6335 79.3218C43.5142 77.9621 43.0743 76.7223 43.0743 76.7223C43.0743 76.7223 43.3942 75.8425 43.5542 75.5226Z" fill="url(#paint9_linear_153_423633)"/>
<path d="M89.8642 29.1727C89.8642 29.1727 83.3855 26.4933 79.3864 26.1733C79.7063 25.0536 79.9863 22.3741 79.9863 22.3741C79.9863 22.3741 87.9046 23.5339 90.744 24.1338C93.5833 24.7336 96.9826 25.6534 98.3023 27.0131C97.4225 27.9329 91.5038 30.0525 90.224 29.6926C88.9043 29.3326 89.8642 29.1727 89.8642 29.1727Z" fill="url(#paint10_linear_153_423633)"/>
<path opacity="0.2" d="M80.6261 26.3334C80.6261 26.3334 81.266 26.2934 81.666 26.0134C82.1059 25.7335 82.5857 24.6537 82.8257 23.8939C83.0656 23.1341 83.0256 22.7741 83.0256 22.7741L80.0263 22.3342L79.2665 26.0534L79.7464 26.1334L80.6261 26.3334Z" fill="url(#paint11_linear_153_423633)"/>
<path d="M77.3469 33.1319C77.3469 33.1319 78.6266 32.3321 80.8261 32.2921C83.0256 32.2521 84.8252 31.0923 86.2249 30.2525C87.6246 29.3727 88.4645 29.0128 89.9041 29.2128C91.3038 29.3727 92.2636 29.2927 92.8635 29.0928C93.4634 28.8928 94.3032 28.6929 94.6231 28.253C94.943 27.8131 95.6629 26.3734 96.5027 26.5333C97.3425 26.6933 99.0621 26.9732 98.8222 27.6531C98.5822 28.3329 97.2626 31.1323 94.6631 33.0519C92.0237 34.9715 83.4655 39.4105 80.9061 40.6503C79.2265 39.6105 77.3469 33.1319 77.3469 33.1319Z" fill="url(#paint12_linear_153_423633)"/>
<path d="M51.4725 21.1344C51.4725 21.1344 58.431 21.8143 62.1102 23.3739C62.3502 22.2542 63.3499 19.7347 63.3499 19.7347C63.3499 19.7347 55.8716 17.0553 53.0722 16.2555C50.2728 15.4557 46.8335 14.6558 45.0339 15.2557C45.3539 16.4954 49.5929 21.1344 50.9127 21.4144C52.2324 21.6943 51.4725 21.1344 51.4725 21.1344Z" fill="url(#paint13_linear_153_423633)"/>
<path opacity="0.2" d="M60.9505 22.9341C60.9505 22.9341 60.4306 22.6141 60.1506 22.1742C59.9107 21.7343 59.9907 20.5346 60.1506 19.7748C60.3106 19.0149 60.5106 18.735 60.5106 18.735L63.3899 19.7348L62.3102 23.374L61.8303 23.254L60.9505 22.9341Z" fill="url(#paint14_linear_153_423633)"/>
<path d="M62.0302 28.6529C62.0302 28.6529 61.1504 27.4131 59.1108 26.5733C57.1113 25.7335 55.8315 24.0139 54.8718 22.6942C53.872 21.3744 53.2321 20.7346 51.8324 20.3747C50.4727 20.0147 49.6329 19.5748 49.113 19.1749C48.6331 18.775 47.9133 18.2551 47.7933 17.7352C47.6733 17.2153 47.5134 15.6157 46.6735 15.4557C45.8337 15.2958 44.1541 14.8959 44.1141 15.6557C44.0741 16.4155 44.2741 19.4549 45.9937 22.2143C47.7133 24.9737 54.0719 32.2521 55.9915 34.3316C57.9111 33.9717 62.0302 28.6529 62.0302 28.6529Z" fill="url(#paint15_linear_153_423633)"/>
<path d="M59.7907 64.0451C59.7907 64.0451 57.0713 63.1653 54.6719 61.7656C52.2724 60.4059 50.8327 57.5665 50.8327 57.5665C50.8327 57.5665 53.0322 52.6076 54.312 49.2483C55.5917 45.8891 55.7516 38.1707 55.8316 36.6111C55.9116 35.0514 56.0715 33.2118 56.3915 32.6919C56.6714 32.172 60.6306 27.2531 61.9503 28.4928C62.9901 29.6526 63.6699 31.1323 64.7897 31.3722C65.9094 31.6122 71.4682 32.8119 73.7477 33.9717C75.6273 34.7715 77.067 33.0918 77.4669 33.0518C77.8668 33.0119 81.666 38.3707 80.7462 40.7302C79.1465 43.1297 74.6675 50.568 72.8279 54.4872C70.9883 58.4063 69.5486 62.5254 69.5486 63.8851C68.4689 64.8449 63.7099 64.8849 59.7907 64.0451Z" fill="url(#paint16_linear_153_423633)"/>
<path d="M65.5894 30.8124C65.5894 30.8124 64.9896 31.4122 64.9896 31.7322C64.9896 32.0121 67.1891 33.5718 68.4688 34.0517C69.7485 34.5316 72.268 33.7717 72.9878 33.6518C73.0678 33.2518 72.7879 32.532 72.7879 32.532L65.5894 30.8124Z" fill="#7A4A3D"/>
<path d="M69.8685 66.3246C69.8685 66.3246 70.1484 69.6838 68.9087 74.8827C68.5088 79.2818 68.4288 82.881 68.4288 82.881C68.4288 82.881 60.2306 81.0414 57.1912 79.5217C56.3114 79.1218 56.2315 78.9618 56.2315 78.9618L56.5914 76.6423L55.3916 79.2818C55.3916 79.2818 54.8317 79.8816 52.2723 79.5217C49.7529 79.1618 47.7933 78.7619 44.554 76.5623C44.554 76.5623 43.4342 75.4426 43.3542 75.1626C44.0741 73.763 46.8335 67.4843 47.0734 66.3246C47.3134 65.1648 48.4331 61.5256 49.6729 59.566C51.3925 60.2459 53.832 61.8455 53.832 61.8455L59.9107 64.165L63.3499 65.0848L67.9489 65.3648L69.5485 65.6047L69.8685 66.3246Z" fill="url(#paint17_linear_153_423633)"/>
<g opacity="0.21">
<path d="M63.9898 81.7613C62.5901 81.4014 61.1504 80.9615 59.9907 80.6016C61.2704 81.0415 62.6701 81.4414 63.9898 81.7613Z" fill="url(#paint18_linear_153_423633)"/>
<path d="M56.7514 79.3218C56.3515 79.1218 56.2315 79.0018 56.2315 79.0018C56.2315 79.0018 56.2715 79.0818 56.7514 79.3218Z" fill="url(#paint19_linear_153_423633)"/>
<path d="M55.0317 79.4818C55.3117 79.4018 55.3916 79.2819 55.3916 79.2819C55.3916 79.2819 55.2717 79.4018 55.0317 79.4818Z" fill="url(#paint20_linear_153_423633)"/>
<path d="M59.9906 80.6015C58.8709 80.2416 57.9111 79.8817 57.1912 79.5217C57.0313 79.4418 56.8713 79.3618 56.7513 79.3218C57.2712 79.6017 58.231 80.0416 59.9906 80.6015Z" fill="url(#paint21_linear_153_423633)"/>
<path d="M59.9907 80.6016C61.1104 80.9615 62.5901 81.4014 63.9898 81.7613C66.3893 82.4012 68.4288 82.8411 68.4288 82.8411C68.4288 82.8411 68.4288 82.3612 68.4688 81.4814C68.4688 81.6813 65.5895 81.2014 63.19 80.5216C60.8305 79.8417 58.551 78.8819 58.1511 78.3221C57.7112 77.7622 58.751 77.0423 58.551 76.0026C58.351 74.9628 59.0309 74.043 59.6308 73.3232C60.2306 72.6033 62.3102 71.8835 62.3102 71.8835C62.3102 71.8835 63.31 71.2436 62.6301 70.9637C61.9903 70.6837 60.9105 71.0836 59.9507 71.6035C58.9909 72.1234 57.2713 72.7633 56.3915 72.5633C55.5116 72.3634 55.0717 72.7233 55.0717 73.1632C55.0717 73.6031 55.5517 74.083 54.4319 75.6826C53.3121 77.2823 50.4727 77.0823 48.7931 77.0024C47.4334 76.9224 46.1137 77.1223 45.9537 77.4823C48.3932 78.882 50.1128 79.2019 52.2724 79.5218C53.792 79.7618 54.6319 79.6018 55.0318 79.4818C55.2717 79.3618 55.3917 79.2819 55.3917 79.2819L56.5914 76.6424L56.2315 78.9619C56.2315 78.9619 56.3515 79.0819 56.7514 79.2819C56.8714 79.3618 57.0313 79.4018 57.1913 79.4818C57.9111 79.8817 58.9109 80.2417 59.9907 80.6016Z" fill="url(#paint22_linear_153_423633)"/>
</g>
<path d="M53.472 60.6059C53.472 60.6059 57.9511 49.8883 58.431 47.2888C58.9109 44.6894 57.8711 44.4495 57.7111 43.2497C57.5512 42.05 58.311 36.4512 59.2708 35.6514C60.2706 34.8515 64.0697 35.4114 65.7494 36.2112C67.429 37.0111 67.549 37.491 67.9089 37.7309C68.2688 37.9709 69.1086 37.531 69.5885 37.5709C70.0684 37.6109 76.0271 38.8907 76.827 39.7705C77.4668 40.4903 75.8672 44.9293 74.6274 47.1689C74.3075 47.7687 73.7876 48.2886 73.2277 48.6485C71.6281 49.6083 71.1082 50.6481 70.9482 51.008C70.7483 51.4079 67.1491 63.1254 67.2291 64.3251C67.2691 65.5249 63.1099 66.5646 60.9904 65.9648C58.8309 65.3649 53.792 62.2056 53.472 60.6059Z" fill="url(#paint23_linear_153_423633)"/>
<path d="M64.0299 17.2153C63.7099 17.8152 63.51 18.455 63.35 19.1349C63.35 19.1749 63.35 19.2148 63.31 19.2548C63.15 20.0547 62.9101 20.8545 62.5502 21.6143C62.1902 21.4144 61.8703 21.0544 61.5904 20.5346C60.8705 19.1349 61.5904 17.2153 62.8701 17.0153C63.39 16.9353 63.7499 17.0553 64.0299 17.2153Z" fill="url(#paint24_linear_153_423633)"/>
<path d="M80.9862 24.5338C80.5463 24.9337 80.1064 25.0937 79.7065 25.1737C79.6665 24.3338 79.7465 23.534 79.9464 22.7342C79.9464 22.6942 79.9464 22.6542 79.9864 22.6142C80.1064 21.9344 80.1864 21.2545 80.1064 20.5747C80.4263 20.5347 80.8262 20.5747 81.2261 20.8146C82.3059 21.4945 82.2259 23.494 80.9862 24.5338Z" fill="url(#paint25_linear_153_423633)"/>
<path d="M77.107 24.6537C76.6271 25.1336 76.4272 25.7735 76.5072 26.4533C76.5871 26.9332 76.5871 27.4931 76.5072 27.893C75.9073 30.7724 72.708 32.532 69.3887 31.8122C66.0294 31.1323 63.7899 28.253 64.3898 25.3736C64.4698 24.9737 64.7097 24.4938 64.9897 24.0539C65.3096 23.494 65.3896 22.7741 65.1496 22.1743C65.1096 22.0143 65.0297 21.8543 65.0297 21.7344C64.9097 21.2545 64.9097 20.7746 65.0297 20.2947C65.4296 18.4151 67.3491 17.1754 69.3487 17.6153C69.9886 17.7352 70.5885 18.0552 71.1083 18.4551C71.7082 18.975 72.508 19.1349 73.2279 18.895C73.8677 18.695 74.5076 18.655 75.1874 18.775C77.187 19.1749 78.4667 21.0545 78.1068 22.9741C78.0268 23.454 77.8269 23.8939 77.5069 24.2938C77.347 24.4138 77.227 24.5338 77.107 24.6537Z" fill="url(#paint26_linear_153_423633)"/>
<path d="M67.2292 26.6533C67.0292 26.6133 66.8293 26.7333 66.7893 26.9332V26.9732C66.6693 28.5329 67.909 30.0526 69.6686 30.4125C71.4283 30.7724 73.1479 29.8926 73.6678 28.4129C73.7478 28.213 73.6278 28.013 73.4678 27.973H73.4278L67.2292 26.6533Z" fill="#4E3F3F"/>
<path d="M67.789 29.4127C68.8688 30.4125 70.3884 30.7324 71.7881 30.2525C71.7081 29.3327 70.8683 29.3727 69.9485 29.1728C69.0287 28.9728 68.2289 28.6129 67.789 29.4127Z" fill="url(#paint27_radial_153_423633)"/>
<path d="M81.746 20.2147C81.0661 19.7748 80.5062 19.8148 80.0263 19.9747C79.9863 19.6548 79.9464 19.3749 79.8664 19.0549C79.8264 18.815 79.7464 18.615 79.7064 18.3751C79.0266 16.1356 77.5069 14.096 75.5473 12.9363L75.7473 11.8165L74.1876 12.3764C74.1476 12.3764 74.0676 12.3364 74.0276 12.3364C73.9476 12.2964 73.8277 12.2964 73.7077 12.2564L73.6677 11.3366V11.0567C73.5878 11.0567 73.5478 11.0167 73.4678 11.0167C72.1881 10.8567 71.3082 11.8965 71.1483 12.0564C68.8688 12.3364 66.7092 13.6161 65.1896 15.3757C65.0296 15.5357 64.9096 15.7356 64.7497 15.8956C64.5497 16.1356 64.3897 16.4155 64.2298 16.6554L64.1898 16.6155C63.8299 16.3355 63.31 16.0956 62.5501 16.2155C60.9105 16.4955 59.9907 18.895 60.9105 20.6946C61.2704 21.4144 61.7503 21.8943 62.1902 22.1343C62.1902 22.1742 62.1502 22.1742 62.1502 22.2142C61.9903 22.6142 61.8303 23.0141 61.7503 23.454C61.2304 26.0534 62.4302 28.6528 64.6697 30.4524C64.9896 30.7324 65.3495 30.9723 65.7095 31.1723C66.3493 31.5722 67.0691 31.8921 67.789 32.1321C67.829 32.1321 67.829 32.1721 67.869 32.1721C68.2689 32.292 68.6688 32.412 69.0687 32.492H69.1487C70.8683 32.8519 72.588 32.7719 74.0677 32.372C74.9875 32.1321 75.8673 31.7322 76.6671 31.2123C77.107 30.9323 77.5069 30.5724 77.8668 30.2125C77.9868 30.0925 78.0668 30.0125 78.1467 29.8926C78.2267 29.7726 78.3467 29.6526 78.4267 29.5326C78.5066 29.4127 78.5867 29.2927 78.6667 29.1727C78.7066 29.0927 78.7466 29.0528 78.7866 28.9728C78.8266 28.8928 78.8666 28.8528 78.9066 28.7728C78.9466 28.6928 78.9866 28.6528 78.9866 28.5729C78.9866 28.5729 78.9866 28.5729 78.9866 28.5329C79.0665 28.4129 79.1065 28.2929 79.1465 28.1329C79.1865 28.053 79.1865 28.013 79.2265 27.933C79.2665 27.853 79.2665 27.813 79.3065 27.733C79.3465 27.6531 79.3465 27.6131 79.3465 27.5331V27.4931C79.3465 27.4131 79.3865 27.3731 79.3865 27.2931C79.3865 27.2931 79.3865 27.2931 79.3865 27.2531C79.3865 27.1732 79.4264 27.0932 79.4264 27.0532C79.5064 26.6133 79.5464 26.1734 79.5464 25.7735C79.5464 25.7335 79.5464 25.6935 79.5464 25.6935C80.0663 25.6535 80.6662 25.4135 81.3061 24.8937C83.0257 23.6939 83.1457 21.1345 81.746 20.2147ZM64.0298 17.2153C63.7099 17.8152 63.5099 18.4551 63.35 19.1349L63.31 19.2549C63.15 20.0547 62.9101 20.8545 62.5501 21.6144C62.1902 21.4144 61.8703 21.0545 61.5903 20.5346C60.8705 19.1349 61.5903 17.2153 62.8701 17.0154C63.39 16.9354 63.7499 17.0554 64.0298 17.2153ZM74.5075 30.8923C73.1478 31.8521 71.3082 32.2521 69.3886 31.8521C68.4688 31.6522 67.549 31.2923 66.7892 30.7324C66.1094 30.2525 65.5495 29.6526 65.1096 28.9728C64.4297 27.893 64.1898 26.6533 64.4297 25.4135C64.5097 25.0136 64.7497 24.5337 65.0296 24.0938C65.3495 23.534 65.4295 22.8141 65.1896 22.2142C65.1496 22.0543 65.0696 21.8943 65.0696 21.7743C64.9496 21.2944 64.9496 20.8145 65.0696 20.3346C65.4695 18.4551 67.3891 17.2153 69.3886 17.6552C70.0285 17.7752 70.6284 18.0951 71.1483 18.495C71.7481 19.0149 72.548 19.1749 73.2678 18.935C73.9077 18.735 74.5475 18.695 75.2274 18.815C77.2269 19.2149 78.5067 21.0945 78.1467 23.0141C78.0268 23.6539 77.7069 24.2138 77.267 24.6937C76.867 25.0936 76.6271 25.6535 76.6271 26.2134C76.6271 26.2934 76.6271 26.4133 76.6271 26.4933C76.707 26.9732 76.707 27.5331 76.6271 27.933C76.5471 28.2929 76.4271 28.6528 76.2672 29.0128C75.7473 29.7326 75.1874 30.4125 74.5075 30.8923ZM80.9861 24.5337C80.5062 24.9336 80.1063 25.0936 79.7064 25.1736C79.6664 24.3338 79.7464 23.534 79.9464 22.7341C79.9464 22.6941 79.9463 22.6541 79.9863 22.6142C80.1063 21.9343 80.1863 21.2544 80.1063 20.5746C80.4263 20.5346 80.8261 20.5746 81.2261 20.8145C82.3058 21.4944 82.2258 23.494 80.9861 24.5337Z" fill="url(#paint28_linear_153_423633)"/>
<path d="M69.3487 24.4138C69.4287 24.2939 69.6286 24.2539 69.7486 24.3338L70.3485 24.7738C70.4684 24.8537 70.5084 25.0537 70.4285 25.1737C70.3485 25.2936 70.1485 25.3336 70.0285 25.2536L69.4287 24.8137C69.2687 24.7338 69.2287 24.5338 69.3487 24.4138Z" fill="#4E3F3F"/>
<path d="M71.0683 25.3335C71.0283 25.1736 71.1483 25.0136 71.3082 24.9736L72.0281 24.8137C72.188 24.7737 72.348 24.8936 72.388 25.0536C72.428 25.2136 72.308 25.3735 72.148 25.4135L71.4282 25.5735C71.2282 25.5735 71.0683 25.4935 71.0683 25.3335Z" fill="#4E3F3F"/>
<path d="M68.109 22.3742C67.5491 22.2542 67.1492 21.7343 67.2692 21.1744L67.3491 20.8545C67.4691 20.2946 68.029 19.9747 68.5889 20.0947C69.1487 20.2146 69.5487 20.7345 69.4287 21.2944L69.3487 21.6143C69.2287 22.1342 68.6689 22.4941 68.109 22.3742Z" fill="#4E3F3F"/>
<path d="M68.5489 20.0947L68.3089 21.2545C68.2689 21.5344 68.4689 21.8144 68.7488 21.8543C69.0288 21.8943 69.2687 21.7344 69.3487 21.4544L69.3887 21.2945C69.5086 20.7346 69.1487 20.1747 68.5489 20.0947Z" fill="#5D5360"/>
<path d="M68.7861 20.8225C68.8217 20.6494 68.6928 20.4766 68.4981 20.4365C68.3034 20.3964 68.1167 20.5042 68.0811 20.6773C68.0454 20.8503 68.1744 21.0231 68.369 21.0632C68.5637 21.1033 68.7504 20.9955 68.7861 20.8225Z" fill="white"/>
<g opacity="0.1">
<path d="M70.9084 20.2947L70.8284 20.7745C70.4285 22.7341 68.6689 24.0538 66.6693 23.9339C66.0294 23.8939 65.4296 23.6939 64.9097 23.374C64.7897 23.294 64.6697 23.214 64.5498 23.134C64.2698 22.9341 64.0299 22.6941 63.8299 22.4142C63.1101 21.4944 62.8301 20.2947 63.0701 19.1349L63.1501 18.655C63.1501 18.575 63.2301 18.535 63.3101 18.535L70.8284 20.0947C70.8684 20.1747 70.9084 20.2547 70.9084 20.2947Z" fill="black"/>
<path d="M80.2664 22.2543L80.1864 22.7342C79.7864 24.6538 78.0668 25.9735 76.1472 25.8935C75.9473 25.8935 75.7074 25.8535 75.5074 25.8135C75.3474 25.7735 75.1874 25.7335 75.0275 25.6935C74.8675 25.6535 74.7076 25.5736 74.5876 25.4936C74.4276 25.4136 74.2677 25.3336 74.1077 25.2136C73.9877 25.1337 73.8677 25.0537 73.7478 24.9737C72.628 24.0539 72.1081 22.5742 72.428 21.1345L72.508 20.6546C72.508 20.5746 72.588 20.5347 72.668 20.5746L80.1864 22.1343C80.2264 22.0943 80.2664 22.1743 80.2664 22.2543Z" fill="black"/>
</g>
<path d="M76.4272 25.6134C76.3472 25.6134 76.2273 25.6134 76.1473 25.6134C75.4674 25.5735 74.8275 25.3735 74.2277 25.0136C74.1077 24.9336 73.9477 24.8536 73.8278 24.7736C73.2279 24.3337 72.748 23.7339 72.4681 23.054C72.2681 22.6141 72.1482 22.1342 72.1082 21.6543L70.8684 21.4144C70.0686 22.934 68.4689 23.8538 66.7493 23.7339C66.0695 23.6939 65.4296 23.4939 64.8297 23.134C64.7098 23.054 64.5898 22.974 64.4298 22.894C63.83 22.4541 63.3501 21.8543 63.0701 21.1744C62.7102 20.3746 62.6302 19.4548 62.7902 18.615L62.8702 18.1351C62.9101 18.0151 62.9501 17.8951 63.0701 17.8551C63.1901 17.7751 63.3101 17.7751 63.43 17.7751L70.9484 19.3348C71.0684 19.3748 71.1883 19.4148 71.2283 19.5348C71.2683 19.6147 71.3083 19.7347 71.3083 19.8547V19.8947L71.2684 20.0147L72.2281 20.2146L72.2681 20.0946C72.3081 19.8547 72.548 19.6947 72.828 19.7347L80.3464 21.2944C80.4663 21.3344 80.5863 21.3744 80.6263 21.4943C80.7063 21.6143 80.7063 21.7343 80.7063 21.8543L80.6263 22.3342C80.2264 24.1738 78.4268 25.6134 76.4272 25.6134ZM70.4685 20.5745L72.748 21.0544V21.3344C72.748 21.8143 72.868 22.2942 73.0279 22.7741C73.2679 23.3339 73.6678 23.8538 74.1877 24.2537C74.3077 24.3337 74.3877 24.4137 74.5076 24.4537C74.9875 24.7336 75.5474 24.9336 76.1473 24.9736C77.9469 25.0936 79.5865 23.8538 79.9864 22.0542L80.0264 21.7743L72.868 20.2946L72.748 20.8545L70.5085 20.3746L70.6285 19.8147L63.47 18.335L63.43 18.615C63.2701 19.3348 63.3501 20.0946 63.67 20.8145C63.9099 21.3744 64.3099 21.8943 64.8297 22.2942C64.9497 22.3741 65.0297 22.4541 65.1497 22.4941C65.6296 22.7741 66.1894 22.974 66.7893 23.014C68.309 23.134 69.7487 22.2542 70.3885 20.8545L70.4685 20.5745Z" fill="url(#paint29_linear_153_423633)"/>
<path d="M80.3064 21.4944L72.788 19.9347C72.708 19.9347 72.668 19.9747 72.628 20.0547L72.5481 20.4946L70.9484 20.1747L71.0284 19.7348C71.0284 19.6548 70.9884 19.6148 70.9084 19.5748L63.3901 18.0151C63.3101 18.0151 63.2701 18.0551 63.2301 18.1351L63.1501 18.615C62.9901 19.4148 63.0701 20.2546 63.3901 21.0145C63.67 21.6543 64.1099 22.2142 64.6298 22.6141C64.7498 22.6941 64.8697 22.7741 64.9897 22.8541C65.5096 23.174 66.1495 23.374 66.7493 23.414C68.469 23.5339 69.9886 22.5342 70.6685 21.0545L72.4281 21.4144C72.4281 21.9343 72.5481 22.4942 72.748 22.9741C73.028 23.6139 73.4679 24.1738 73.9877 24.5737C74.1077 24.6537 74.2277 24.7337 74.3477 24.8137C74.8676 25.1336 75.5074 25.3335 76.1073 25.3735C78.1069 25.4935 79.8665 24.1738 80.2664 22.2142L80.3464 21.7343C80.4264 21.5744 80.3864 21.4944 80.3064 21.4944Z" fill="url(#paint30_linear_153_423633)"/>
<path d="M75.9073 20.5746L73.2679 23.7739C73.0679 23.494 72.868 23.214 72.748 22.8941L74.8275 20.3746L75.9073 20.5746Z" fill="#F1F0F0"/>
<path d="M77.0271 20.8146L74.0277 24.4938C73.8678 24.3738 73.7478 24.2538 73.6278 24.1338L76.4672 20.6946L77.0271 20.8146Z" fill="#F1F0F0"/>
<path d="M66.5493 18.655L63.9099 21.8543C63.71 21.5744 63.51 21.2945 63.39 20.9745L65.4696 18.4551L66.5493 18.655Z" fill="#F1F0F0"/>
<path d="M67.6691 18.895L64.6697 22.5742C64.5098 22.4542 64.3898 22.3343 64.2698 22.2143L67.1092 18.775L67.6691 18.895Z" fill="#F1F0F0"/>
<path d="M50.8726 57.6066C50.8726 57.6066 52.2323 61.1658 59.8307 64.0852C63.07 64.805 66.1493 64.725 69.6286 63.8852C69.6685 64.2051 70.0285 65.9648 69.9085 66.3247C69.7485 66.6846 68.4688 67.5644 61.6703 66.8046C59.4308 66.5646 57.2313 65.9248 55.2317 64.925C50.4727 62.5255 49.7129 59.6061 49.7129 59.6061L50.8726 57.6066Z" fill="url(#paint31_linear_153_423633)"/>
<path opacity="0.2" d="M72.8679 33.5718V33.8117C73.1878 34.4516 72.7879 37.7309 71.3082 38.6107C70.2684 39.2505 69.3886 39.4505 68.9487 39.4905L68.9087 39.4505C68.8687 39.4105 68.7887 39.3705 68.7487 39.4105L68.7088 39.4505C68.6688 39.4505 68.6688 39.4905 68.6688 39.5305C68.3888 39.5305 66.8691 39.4105 65.8694 38.6107C65.1895 38.0508 65.2695 37.4909 65.3495 36.891C65.3895 36.5311 65.4694 36.1312 65.3895 35.6913C65.3495 35.3714 65.1895 34.9715 65.0296 34.5316C64.7096 33.6118 64.3097 32.492 64.6296 31.9321C64.7096 31.7722 64.7496 31.7322 64.9496 31.6122L65.0695 31.4122C64.8296 31.4922 64.5497 31.6522 64.4697 31.8521C64.1497 32.492 64.5497 33.6118 64.8696 34.6115C65.0295 35.0514 65.1495 35.4514 65.2295 35.7313C65.3095 36.1312 65.2295 36.4911 65.1895 36.851C65.1095 37.4909 64.9896 38.0908 65.7494 38.7306C66.8692 39.6504 68.5888 39.6904 68.6688 39.6904L68.7887 39.8504C68.7487 39.9304 68.7487 40.0104 68.7487 40.0903V40.1303C68.7487 40.1703 68.7887 40.1703 68.7887 40.2103C68.9087 40.4903 68.9887 40.7702 69.0287 41.0501C69.0287 41.0901 69.0287 41.1701 69.0287 41.2101C69.0287 41.2501 69.0287 41.2501 69.0287 41.2901C69.0287 41.3301 69.0287 41.3701 69.0287 41.3701C69.0287 41.45 69.0287 41.49 69.0287 41.57C69.0287 41.73 68.9887 41.89 68.9887 42.0899C68.9887 42.1299 68.9887 42.1699 68.9487 42.2099V42.2499C68.9487 42.2899 68.9487 42.2899 68.9087 42.3299V42.3698C68.9087 42.4098 68.9087 42.4498 68.8687 42.4898V42.5298C68.8687 42.5698 68.8687 42.5698 68.8287 42.6098C68.8287 42.6498 68.8287 42.6498 68.7887 42.6898C68.7487 42.8098 68.7088 42.8897 68.6288 43.0097C68.6288 43.0497 68.5888 43.0897 68.5488 43.1297V43.1697C68.5088 43.2097 68.4688 43.2896 68.4688 43.3296C68.4288 43.3696 68.3888 43.4496 68.3488 43.4896C68.3088 43.5296 68.3088 43.5696 68.2688 43.6096C68.2688 43.6096 68.2689 43.6496 68.2289 43.6496C68.2289 43.6496 68.2288 43.6896 68.1889 43.6896C68.1489 43.7296 68.1089 43.7695 68.1089 43.8095L68.0689 43.8495C68.0289 43.8895 68.0289 43.8895 67.9889 43.9295L67.9489 43.9695C67.9489 43.9695 67.9489 43.9695 67.9089 44.0095L67.8689 44.0495L67.8289 44.0895C67.789 44.1295 67.749 44.1295 67.709 44.1695C67.669 44.2094 67.629 44.2094 67.629 44.2494C67.509 44.3694 67.1491 44.5694 66.9491 44.7693C66.8692 44.8493 66.7892 44.9693 66.8292 45.0493V45.0893C66.8292 45.0893 66.8292 45.0893 66.8292 45.1292C66.8292 45.1692 66.8691 45.1692 66.8691 45.1692C66.9091 45.2092 66.9891 45.2492 67.0291 45.2892C67.1491 45.3292 67.3091 45.3692 67.429 45.3692C68.0289 45.2892 68.6288 45.0493 69.1087 44.6494C70.4684 43.5296 70.6683 41.49 69.5486 40.1303C69.4686 40.0504 69.3486 39.8904 69.1886 39.8504C69.1087 39.8104 69.0287 39.8104 68.9487 39.8104L68.9087 39.7704C69.3886 39.6904 70.2284 39.4905 71.2282 38.8506C72.9478 37.8108 73.3878 34.0117 72.8679 33.5718Z" fill="url(#paint32_linear_153_423633)"/>
<path d="M68.8688 39.5305C68.7888 39.5305 67.0692 39.4905 65.9494 38.5707C65.1896 37.9309 65.2696 37.331 65.3895 36.6911C65.4295 36.3312 65.5095 35.9713 65.4295 35.5714C65.3895 35.2515 65.2296 34.8515 65.0696 34.4516C64.7097 33.4518 64.3498 32.3321 64.6697 31.6922C64.7897 31.4923 65.0296 31.3323 65.2696 31.2523L65.1496 31.4523C64.9496 31.5722 64.9096 31.6122 64.8297 31.7722C64.5497 32.3321 64.9096 33.4918 65.2296 34.3716C65.3895 34.8115 65.5095 35.2115 65.5895 35.5314C65.6695 35.9713 65.6295 36.3312 65.5495 36.7311C65.4695 37.371 65.3895 37.8909 66.0694 38.4508C67.1491 39.3306 68.8688 39.3706 68.9088 39.3706C68.9088 39.3706 70.0685 39.3306 71.5082 38.4508C72.9879 37.5709 73.3878 34.2917 73.0679 33.6518V33.4119C73.5878 33.8917 73.1478 37.6509 71.5882 38.6107C70.0685 39.4905 68.9088 39.5305 68.8688 39.5305Z" fill="url(#paint33_linear_153_423633)"/>
<g opacity="0.1">
<path d="M65.1896 31.4123L65.1096 31.2523H65.1496L65.1896 31.4123Z" fill="#020202"/>
<path d="M68.9888 39.5305V39.3705H69.0688L69.1088 39.5305H68.9888ZM68.6289 39.5305H68.5489V39.3705H68.6289V39.5305ZM68.229 39.4905H68.149L68.1889 39.3306H68.2689L68.229 39.4905ZM69.3887 39.4505L69.3487 39.2906H69.4287L69.4687 39.4505H69.3887ZM67.829 39.4105H67.7491L67.789 39.2506H67.869L67.829 39.4105ZM69.7486 39.3705L69.7086 39.2106H69.7886L69.8286 39.3705H69.7486ZM67.4691 39.3306H67.3891L67.4291 39.1706H67.5091L67.4691 39.3306ZM70.1485 39.2506L70.1085 39.0906L70.1885 39.0506L70.2285 39.2106L70.1485 39.2506ZM67.0692 39.2106L66.9892 39.1706L67.0292 39.0106L67.1092 39.0506L67.0692 39.2106ZM70.5085 39.0906L70.4285 38.9306L70.4685 38.8907L70.5484 39.0506L70.5085 39.0906ZM66.7093 39.0506L66.6293 39.0106L66.7093 38.8507L66.7493 38.8907L66.7093 39.0506ZM70.8684 38.9306L70.7884 38.7707L70.8284 38.7307L70.9084 38.8907L70.8684 38.9306ZM66.3494 38.8507L66.3094 38.8107L66.3893 38.6507L66.4293 38.6907L66.3494 38.8507ZM71.2283 38.7707L71.1483 38.6107L71.1883 38.5707L71.2683 38.7307L71.2283 38.7707ZM66.0294 38.6507L65.9894 38.6107L66.1094 38.4907L66.1494 38.5307L66.0294 38.6507ZM71.5882 38.5707L71.5082 38.4108L71.5482 38.3708L71.6282 38.4907C71.6282 38.5307 71.5882 38.5707 71.5882 38.5707ZM65.7095 38.3708L65.6695 38.3308L65.7895 38.2108L65.8295 38.2508L65.7095 38.3708ZM71.9082 38.3308L71.7882 38.2108L71.8281 38.1708L71.9481 38.2908C71.9081 38.2908 71.9082 38.2908 71.9082 38.3308ZM65.4695 38.0508C65.4695 38.0108 65.4296 38.0108 65.4296 37.9709L65.5895 37.8909C65.5895 37.8909 65.5895 37.9309 65.6295 37.9309L65.4695 38.0508ZM72.1481 38.0108L72.0281 37.8909L72.0681 37.8509L72.1881 37.9309L72.1481 38.0108ZM72.388 37.6909L72.2281 37.6109L72.2681 37.5709L72.428 37.6509L72.388 37.6909ZM65.3096 37.6509C65.3096 37.6109 65.3096 37.6109 65.3096 37.5709L65.4695 37.5309C65.4695 37.5709 65.4695 37.5709 65.4695 37.6109L65.3096 37.6509ZM72.588 37.331L72.428 37.251L72.468 37.211L72.628 37.291L72.588 37.331ZM65.4695 37.251H65.3096V37.171H65.4695V37.251ZM72.748 36.9711L72.588 36.9311L72.628 36.8911L72.7879 36.9311L72.748 36.9711ZM65.5095 36.8511H65.4296H65.3496V36.7711L65.5095 36.8111V36.8511ZM72.868 36.6111L72.708 36.5712V36.4912L72.868 36.5312V36.6111ZM65.5495 36.4912L65.3896 36.4512V36.3712L65.5495 36.4112V36.4912ZM72.9879 36.2112L72.8279 36.1712V36.0913L72.9879 36.1313V36.2112ZM65.5895 36.0913H65.4296C65.4296 36.0513 65.4296 36.0513 65.4296 36.0113H65.5895C65.5895 36.0113 65.5895 36.0513 65.5895 36.0913ZM73.0679 35.8113L72.9079 35.7713V35.6913L73.0679 35.7313V35.8113ZM65.4296 35.6913V35.6114L65.5895 35.5714V35.6514L65.4296 35.6913ZM73.1479 35.4514L72.9879 35.4114V35.3314L73.1479 35.3714V35.4514ZM65.3496 35.3314V35.2514L65.5095 35.2115V35.2914L65.3496 35.3314ZM73.1879 35.0515H73.0279V34.9715H73.1879V35.0515ZM65.2296 34.9315V34.8915L65.3096 34.8515L65.3896 34.8115L65.3096 34.8515H65.3896V34.8915L65.2296 34.9315ZM73.2278 34.6516H73.0679V34.5716H73.2278V34.6516ZM65.1096 34.5716V34.5316L65.1896 34.4916L65.2696 34.4516L65.1896 34.4916H65.2696V34.5316L65.1096 34.5716ZM73.0679 34.2517V34.1717H73.2278V34.2517H73.0679ZM64.9896 34.2117V34.1717L65.0696 34.1317L65.1496 34.0917L65.0696 34.1317H65.1496V34.1717L64.9896 34.2117ZM73.0679 33.8917C73.0679 33.8517 73.0679 33.8517 73.0679 33.8118L73.2278 33.7718C73.2278 33.8118 73.2278 33.8118 73.2278 33.8517L73.0679 33.8917ZM64.8697 33.8118L64.8297 33.7318L64.9896 33.6918V33.7718L64.8697 33.8118ZM64.7497 33.4518V33.3719L64.9097 33.3319V33.4118L64.7497 33.4518ZM64.6297 33.0519V32.9719L64.7897 32.9319V33.0119L64.6297 33.0519ZM64.5497 32.692V32.612L64.7097 32.572V32.652L64.5497 32.692ZM64.5098 32.2921V32.2121H64.6697V32.2521L64.5098 32.2921ZM64.7097 31.8922L64.5497 31.8522C64.5497 31.8122 64.5497 31.8122 64.5497 31.7722L64.7097 31.8122C64.7497 31.8522 64.7497 31.8922 64.7097 31.8922ZM64.8697 31.6122L64.7497 31.4923L64.7897 31.4523L64.9097 31.5722C64.9097 31.5722 64.9097 31.5722 64.8697 31.6122Z" fill="#020202"/>
<path d="M72.9879 33.5318L73.1078 33.4518V33.4918L72.9879 33.5318Z" fill="#020202"/>
</g>
<path d="M68.9087 39.2505L68.8287 39.2905C68.7887 39.3305 68.7487 39.4105 68.7887 39.4505L69.1486 39.9704L69.2686 39.8904L69.3886 39.8104L69.0287 39.2905C69.0687 39.2105 68.9887 39.2105 68.9087 39.2505Z" fill="url(#paint34_linear_153_423633)"/>
<path d="M69.8285 39.8504C70.9483 41.2101 70.7483 43.2497 69.3886 44.3694C68.9087 44.7693 68.3489 45.0093 67.709 45.0893C67.589 45.0893 67.4291 45.0893 67.3091 45.0093C67.2291 44.9693 67.1491 44.9293 67.1091 44.8493C67.1091 44.8493 67.1091 44.8493 67.1091 44.8093V44.7693C67.1091 44.6893 67.1491 44.6094 67.2291 44.4894C67.4291 44.2894 67.749 44.0895 67.909 43.9695C67.9489 43.9295 67.9889 43.9295 67.9889 43.8895C68.0289 43.8495 68.0689 43.8495 68.1089 43.8095L68.1489 43.7695L68.1889 43.7295C68.1889 43.7295 68.1889 43.7295 68.2289 43.6896L68.2689 43.6496C68.3089 43.6096 68.3089 43.6096 68.3489 43.5696L68.3888 43.5296C68.4288 43.4896 68.4688 43.4496 68.4688 43.4096L68.5088 43.3696C68.5088 43.3696 68.5088 43.3296 68.5488 43.3296C68.5888 43.2896 68.5888 43.2497 68.6288 43.2097C68.6688 43.1697 68.7088 43.0897 68.7488 43.0497C68.7888 43.0097 68.8288 42.9297 68.8288 42.8897V42.8497C68.8687 42.8097 68.8687 42.7698 68.9087 42.7298C68.9487 42.6098 69.0287 42.5298 69.0687 42.4098C69.0687 42.3698 69.0687 42.3698 69.1087 42.3298C69.1087 42.2899 69.1087 42.2899 69.1487 42.2499V42.2099C69.1487 42.1699 69.1887 42.1299 69.1887 42.0899V42.0499C69.1887 42.0099 69.1887 42.0099 69.2287 41.9699V41.9299C69.2287 41.8899 69.2287 41.85 69.2686 41.81C69.3086 41.65 69.3087 41.49 69.3087 41.2901C69.3087 41.2101 69.3087 41.1701 69.3087 41.0901C69.3087 41.0501 69.3087 41.0501 69.3087 41.0101C69.3087 40.9701 69.3087 40.9701 69.3087 40.9302C69.3087 40.8902 69.3087 40.8102 69.3087 40.7702C69.2687 40.4903 69.1887 40.2103 69.0687 39.9304C69.0687 39.8904 69.0287 39.8904 69.0287 39.8504C69.0287 39.8504 69.0287 39.8504 69.0287 39.8104C69.0287 39.7304 69.0287 39.6504 69.0687 39.5705C69.1087 39.4905 69.1887 39.4505 69.2686 39.4105C69.3486 39.3705 69.4686 39.3705 69.5486 39.4105C69.6286 39.6104 69.7486 39.7304 69.8285 39.8504Z" fill="url(#paint35_linear_153_423633)"/>
<path d="M69.1887 39.5305C69.3886 39.7705 69.5486 40.0104 69.6686 40.2504C69.6686 40.2904 69.7086 40.3303 69.7086 40.3703C70.3884 42.01 69.6286 43.8896 68.0289 44.5694C67.789 44.6894 67.549 44.7294 67.3091 44.7694C67.2691 44.7694 67.2291 44.7694 67.1891 44.7694C67.1491 44.7694 67.1491 44.7694 67.1091 44.7694C67.1091 44.7694 67.1091 44.7694 67.1091 44.7294V44.6894C67.1091 44.6094 67.1491 44.5294 67.2291 44.4095C67.4291 44.2095 67.749 44.0095 67.909 43.8896C67.9489 43.8496 67.9889 43.8496 67.9889 43.8096C68.0289 43.7696 68.0689 43.7696 68.1089 43.7296H68.1489L68.1889 43.6896C68.1889 43.6896 68.1889 43.6896 68.2289 43.6496C68.2689 43.6096 68.2689 43.6096 68.2689 43.6096L68.3489 43.5296L68.3888 43.4897C68.4288 43.4497 68.4288 43.4497 68.4688 43.4097L68.5088 43.3697L68.5488 43.3297C68.5488 43.3297 68.5488 43.2897 68.5888 43.2897C68.6288 43.2497 68.6288 43.2097 68.6688 43.1697L68.7088 43.1297C68.7488 43.0897 68.7887 43.0498 68.7887 43.0098C68.8287 42.9698 68.8287 42.9298 68.8687 42.8898V42.8498V42.8098C68.8687 42.7698 68.9087 42.7698 68.9087 42.7298L68.9487 42.6898L68.9887 42.6098L69.0287 42.5699V42.5299L69.0687 42.4499L69.1087 42.4099L69.1487 42.3299L69.1887 42.2499L69.2287 42.1699V42.13C69.2287 42.09 69.2686 42.05 69.2686 42.01V41.97C69.2686 41.93 69.2687 41.93 69.3087 41.89V41.85V41.81C69.3087 41.77 69.3087 41.77 69.3087 41.73C69.3087 41.69 69.3087 41.69 69.3087 41.6501C69.3087 41.6101 69.3087 41.6101 69.3087 41.5701V41.5301V41.4901C69.3087 41.4501 69.3087 41.4501 69.3087 41.4101C69.3087 41.3701 69.3087 41.3701 69.3087 41.3301C69.3087 41.2901 69.3087 41.2901 69.3087 41.2901C69.3087 41.2501 69.3087 41.2501 69.3087 41.2102C69.3087 41.1702 69.3087 41.1702 69.3087 41.1302V41.0902C69.3087 41.0502 69.3087 41.0502 69.3087 41.0102C69.3087 40.9702 69.3087 40.9702 69.3087 40.9702V40.9302C69.3087 40.8902 69.3087 40.8902 69.3087 40.8502V40.8102V40.7703V40.7303V40.6503V40.6103C69.3087 40.5703 69.3087 40.5303 69.3087 40.5303V40.4903C69.3087 40.4503 69.3086 40.4503 69.2686 40.4103V40.3703C69.2686 40.3303 69.2687 40.3303 69.2287 40.2904V40.2504C69.2287 40.2104 69.1887 40.1704 69.1887 40.1704V40.1304C69.1887 40.0904 69.1487 40.0504 69.1487 40.0104C69.1487 39.9704 69.1087 39.9704 69.1087 39.9304C69.1087 39.9304 69.1087 39.9304 69.1087 39.8904C69.1087 39.8105 69.1087 39.7305 69.1487 39.6505C69.0287 39.6505 69.1087 39.5705 69.1887 39.5305Z" fill="url(#paint36_linear_153_423633)"/>
<path d="M67.2291 44.4894C67.1891 44.6893 67.1891 44.8493 67.3491 45.0093C67.2691 44.9693 67.1891 44.9293 67.1491 44.8493C67.1491 44.8493 67.1491 44.8493 67.1491 44.8093V44.7693C67.0691 44.6893 67.1491 44.5694 67.2291 44.4894Z" fill="url(#paint37_linear_153_423633)"/>
<path d="M38.9152 94.1186C38.9152 94.1186 38.6753 97.0379 39.995 98.4376C41.3147 99.8373 40.7948 101.677 40.115 103.477C39.4351 105.276 38.0354 108.995 38.1154 109.595C38.1954 110.195 38.8752 111.075 41.0348 110.995C43.1943 110.955 43.0743 106.996 43.2743 106.116C43.4742 105.236 44.8339 102.717 45.0339 102.037C45.2339 101.357 44.8339 99.7573 44.8339 98.8375C44.8339 97.9177 45.8737 93.4387 45.8737 93.4387C45.8737 93.4387 41.2747 91.5191 38.9152 94.1186Z" fill="url(#paint38_linear_153_423633)"/>
<path d="M60.4306 102.037C60.4306 102.037 58.8709 100.717 58.151 100.677C57.5512 100.797 58.231 104.156 58.271 104.956C58.311 105.756 58.9109 107.196 57.4712 108.156C56.0315 109.115 55.2317 110.475 54.5518 109.475C53.872 108.475 54.1919 104.956 54.3919 103.916C54.5518 102.877 54.7918 101.757 54.5918 100.557C54.3919 99.3574 53.2721 96.518 55.0317 95.9182C56.7913 95.3183 57.7911 94.5585 57.7911 94.5585C57.7911 94.5585 60.6305 98.8375 60.4306 102.037Z" fill="url(#paint39_linear_153_423633)"/>
<defs>
<radialGradient id="paint0_radial_153_423633" cx="0" cy="0" r="1" gradientUnits="userSpaceOnUse" gradientTransform="translate(60.0963 60.9511) scale(36.7996 36.7996)">
<stop offset="0.349" stop-color="#F6F6F6"/>
<stop offset="0.3662" stop-color="#F6F6F6"/>
<stop offset="0.7637" stop-color="#F6F6F6"/>
<stop offset="0.8082" stop-color="#EBEBEB"/>
<stop offset="0.884" stop-color="#DEDEDE"/>
<stop offset="0.9558" stop-color="#DADADA"/>
<stop offset="0.9797" stop-color="#D8D8D8"/>
<stop offset="0.9883" stop-color="#D1D1D1"/>
<stop offset="0.9944" stop-color="#C6C6C6"/>
<stop offset="0.9993" stop-color="#B5B5B5"/>
<stop offset="1" stop-color="#B2B2B2"/>
</radialGradient>
<linearGradient id="paint1_linear_153_423633" x1="102.353" y1="35.9482" x2="70.6934" y2="55.3344" gradientUnits="userSpaceOnUse">
<stop offset="0.349" stop-color="#BE1622"/>
<stop offset="0.3778" stop-color="#C41A27"/>
<stop offset="0.4998" stop-color="#D62636"/>
<stop offset="0.6264" stop-color="#E12E3F"/>
<stop offset="0.7637" stop-color="#E53042"/>
<stop offset="0.8144" stop-color="#E02D3E"/>
<stop offset="0.9206" stop-color="#DC2A3A"/>
<stop offset="0.9571" stop-color="#C51B28"/>
<stop offset="0.9994" stop-color="#C51D29"/>
<stop offset="1" stop-color="#C51D29"/>
</linearGradient>
<linearGradient id="paint2_linear_153_423633" x1="58.5214" y1="61.0398" x2="25.1187" y2="40.6076" gradientUnits="userSpaceOnUse">
<stop offset="0.349" stop-color="#BE1622"/>
<stop offset="0.38" stop-color="#C41A27"/>
<stop offset="0.5113" stop-color="#D62636"/>
<stop offset="0.6475" stop-color="#E12E3F"/>
<stop offset="0.7953" stop-color="#E53042"/>
<stop offset="0.8277" stop-color="#D62636"/>
<stop offset="0.8698" stop-color="#C91E2B"/>
<stop offset="0.9097" stop-color="#C51B28"/>
<stop offset="0.9701" stop-color="#C51D29"/>
<stop offset="0.9709" stop-color="#C51D29"/>
</linearGradient>
<linearGradient id="paint3_linear_153_423633" x1="60.2455" y1="62.3155" x2="60.1757" y2="98.159" gradientUnits="userSpaceOnUse">
<stop offset="0.349" stop-color="#BE1622"/>
<stop offset="0.3778" stop-color="#C41A27"/>
<stop offset="0.4998" stop-color="#D62636"/>
<stop offset="0.6264" stop-color="#E12E3F"/>
<stop offset="0.7637" stop-color="#E53042"/>
<stop offset="0.7941" stop-color="#E02D3E"/>
<stop offset="0.8579" stop-color="#DC2A3A"/>
<stop offset="1" stop-color="#C51D29"/>
</linearGradient>
<radialGradient id="paint4_radial_153_423633" cx="0" cy="0" r="1" gradientUnits="userSpaceOnUse" gradientTransform="translate(62.2123 60.4772) scale(35.4966 35.4966)">
<stop stop-color="#F6F6F6"/>
<stop offset="0.0312248" stop-color="#F6F6F6"/>
<stop offset="0.7544" stop-color="#F6F6F6"/>
<stop offset="1" stop-color="#F6F6F6" stop-opacity="0"/>
</radialGradient>
<linearGradient id="paint5_linear_153_423633" x1="38.3035" y1="57.105" x2="98.1866" y2="57.105" gradientUnits="userSpaceOnUse">
<stop stop-color="#4E3F3F"/>
<stop offset="0.4403" stop-color="#4E3F3F" stop-opacity="0.7"/>
<stop offset="0.9079" stop-color="#4E3F3F" stop-opacity="0"/>
</linearGradient>
<linearGradient id="paint6_linear_153_423633" x1="55.252" y1="93.2781" x2="70.0433" y2="84.2216" gradientUnits="userSpaceOnUse">
<stop offset="0.0274063" stop-color="#A16552"/>
<stop offset="0.201" stop-color="#935848"/>
<stop offset="0.504" stop-color="#935848"/>
<stop offset="0.6028" stop-color="#9C604E"/>
<stop offset="0.7268" stop-color="#A16552"/>
<stop offset="1" stop-color="#966444"/>
</linearGradient>
<linearGradient id="paint7_linear_153_423633" x1="62.6513" y1="84.677" x2="61.9085" y2="76.7412" gradientUnits="userSpaceOnUse">
<stop stop-color="#4E3F3F"/>
<stop offset="0.4403" stop-color="#4E3F3F" stop-opacity="0.7"/>
<stop offset="0.9079" stop-color="#4E3F3F" stop-opacity="0"/>
</linearGradient>
<linearGradient id="paint8_linear_153_423633" x1="47.6928" y1="97.9353" x2="44.9932" y2="69.0983" gradientUnits="userSpaceOnUse">
<stop offset="0.0274063" stop-color="#A16552"/>
<stop offset="0.201" stop-color="#935848"/>
<stop offset="0.504" stop-color="#935848"/>
<stop offset="0.6028" stop-color="#9C604E"/>
<stop offset="0.7268" stop-color="#A16552"/>
<stop offset="1" stop-color="#966444"/>
</linearGradient>
<linearGradient id="paint9_linear_153_423633" x1="49.1207" y1="82.0271" x2="48.2897" y2="73.1497" gradientUnits="userSpaceOnUse">
<stop stop-color="#4E3F3F"/>
<stop offset="0.4403" stop-color="#4E3F3F" stop-opacity="0.7"/>
<stop offset="0.9079" stop-color="#4E3F3F" stop-opacity="0"/>
</linearGradient>
<linearGradient id="paint10_linear_153_423633" x1="81.9181" y1="29.1275" x2="95.5908" y2="20.7558" gradientUnits="userSpaceOnUse">
<stop offset="0.0274063" stop-color="#A16552"/>
<stop offset="0.201" stop-color="#935848"/>
<stop offset="0.504" stop-color="#935848"/>
<stop offset="0.6028" stop-color="#9C604E"/>
<stop offset="0.7268" stop-color="#A16552"/>
<stop offset="1" stop-color="#966444"/>
</linearGradient>
<linearGradient id="paint11_linear_153_423633" x1="79.9982" y1="23.7522" x2="88.9044" y2="29.4867" gradientUnits="userSpaceOnUse">
<stop stop-color="#4E3F3F"/>
<stop offset="0.4403" stop-color="#4E3F3F" stop-opacity="0.7"/>
<stop offset="0.9079" stop-color="#4E3F3F" stop-opacity="0"/>
</linearGradient>
<linearGradient id="paint12_linear_153_423633" x1="79.4458" y1="37.096" x2="98.967" y2="25.1435" gradientUnits="userSpaceOnUse">
<stop offset="0.0274063" stop-color="#A16552"/>
<stop offset="0.201" stop-color="#935848"/>
<stop offset="0.504" stop-color="#935848"/>
<stop offset="0.6028" stop-color="#9C604E"/>
<stop offset="0.7268" stop-color="#A16552"/>
<stop offset="1" stop-color="#966444"/>
</linearGradient>
<linearGradient id="paint13_linear_153_423633" x1="58.5931" y1="24.7098" x2="50.4491" y2="10.8999" gradientUnits="userSpaceOnUse">
<stop offset="0.0274063" stop-color="#A16552"/>
<stop offset="0.201" stop-color="#935848"/>
<stop offset="0.504" stop-color="#935848"/>
<stop offset="0.6028" stop-color="#9C604E"/>
<stop offset="0.7268" stop-color="#A16552"/>
<stop offset="1" stop-color="#966444"/>
</linearGradient>
<linearGradient id="paint14_linear_153_423633" x1="62.8114" y1="20.8645" x2="52.2553" y2="21.7479" gradientUnits="userSpaceOnUse">
<stop stop-color="#4E3F3F"/>
<stop offset="0.4403" stop-color="#4E3F3F" stop-opacity="0.7"/>
<stop offset="0.9079" stop-color="#4E3F3F" stop-opacity="0"/>
</linearGradient>
<linearGradient id="paint15_linear_153_423633" x1="58.5126" y1="31.6656" x2="44.7555" y2="13.3694" gradientUnits="userSpaceOnUse">
<stop offset="0.0356411" stop-color="#A16552"/>
<stop offset="0.201" stop-color="#935848"/>
<stop offset="0.504" stop-color="#935848"/>
<stop offset="0.6028" stop-color="#9C604E"/>
<stop offset="0.7268" stop-color="#A16552"/>
<stop offset="1" stop-color="#966444"/>
</linearGradient>
<linearGradient id="paint16_linear_153_423633" x1="69.3426" y1="34.0617" x2="60.3158" y2="65.0688" gradientUnits="userSpaceOnUse">
<stop stop-color="#A16552"/>
<stop offset="0.201" stop-color="#935848"/>
<stop offset="0.504" stop-color="#935848"/>
<stop offset="0.6028" stop-color="#9C604E"/>
<stop offset="0.7268" stop-color="#A16552"/>
<stop offset="1" stop-color="#966444"/>
</linearGradient>
<linearGradient id="paint17_linear_153_423633" x1="55.7042" y1="79.8833" x2="59.9799" y2="56.6278" gradientUnits="userSpaceOnUse">
<stop stop-color="#012A4A"/>
<stop offset="0.4141" stop-color="#012A4A"/>
<stop offset="0.4524" stop-color="#012D4F"/>
<stop offset="0.6029" stop-color="#01375E"/>
<stop offset="0.7268" stop-color="#013A63"/>
<stop offset="1" stop-color="#013A63"/>
</linearGradient>
<linearGradient id="paint18_linear_153_423633" x1="67.7557" y1="76.3382" x2="43.0963" y2="97.0465" gradientUnits="userSpaceOnUse">
<stop stop-color="#4E3F3F"/>
<stop offset="0.4403" stop-color="#4E3F3F" stop-opacity="0.7"/>
<stop offset="0.9079" stop-color="#4E3F3F" stop-opacity="0"/>
</linearGradient>
<linearGradient id="paint19_linear_153_423633" x1="64.4712" y1="72.4271" x2="39.8118" y2="93.1352" gradientUnits="userSpaceOnUse">
<stop stop-color="#4E3F3F"/>
<stop offset="0.4403" stop-color="#4E3F3F" stop-opacity="0.7"/>
<stop offset="0.9079" stop-color="#4E3F3F" stop-opacity="0"/>
</linearGradient>
<linearGradient id="paint20_linear_153_423633" x1="64.0606" y1="71.9386" x2="39.4014" y2="92.6459" gradientUnits="userSpaceOnUse">
<stop stop-color="#4E3F3F"/>
<stop offset="0.4403" stop-color="#4E3F3F" stop-opacity="0.7"/>
<stop offset="0.9079" stop-color="#4E3F3F" stop-opacity="0"/>
</linearGradient>
<linearGradient id="paint21_linear_153_423633" x1="65.6529" y1="73.8342" x2="40.9936" y2="94.5425" gradientUnits="userSpaceOnUse">
<stop stop-color="#4E3F3F"/>
<stop offset="0.4403" stop-color="#4E3F3F" stop-opacity="0.7"/>
<stop offset="0.9079" stop-color="#4E3F3F" stop-opacity="0"/>
</linearGradient>
<linearGradient id="paint22_linear_153_423633" x1="65.2636" y1="73.3707" x2="40.6042" y2="94.079" gradientUnits="userSpaceOnUse">
<stop stop-color="#4E3F3F"/>
<stop offset="0.4403" stop-color="#4E3F3F" stop-opacity="0.7"/>
<stop offset="0.9079" stop-color="#4E3F3F" stop-opacity="0"/>
</linearGradient>
<linearGradient id="paint23_linear_153_423633" x1="63.3553" y1="37.4166" x2="68.0418" y2="70.5877" gradientUnits="userSpaceOnUse">
<stop stop-color="#E7BC91"/>
<stop offset="0.3993" stop-color="#F3D5B5"/>
<stop offset="0.6602" stop-color="#F5DCB4"/>
<stop offset="0.7034" stop-color="#F4DAB2"/>
<stop offset="1" stop-color="#EFD3AB"/>
</linearGradient>
<linearGradient id="paint24_linear_153_423633" x1="64.202" y1="19.5288" x2="60.2319" y2="18.8579" gradientUnits="userSpaceOnUse">
<stop stop-color="#E7BC91"/>
<stop offset="0.3993" stop-color="#F3D5B5"/>
<stop offset="0.6602" stop-color="#F5DCB4"/>
<stop offset="1" stop-color="#F5DCB4"/>
</linearGradient>
<linearGradient id="paint25_linear_153_423633" x1="79.6096" y1="22.7463" x2="81.8363" y2="23.2049" gradientUnits="userSpaceOnUse">
<stop stop-color="#E7BC91"/>
<stop offset="0.3993" stop-color="#F3D5B5"/>
<stop offset="0.6602" stop-color="#F5DCB4"/>
<stop offset="1" stop-color="#F5DCB4"/>
</linearGradient>
<linearGradient id="paint26_linear_153_423633" x1="68.4624" y1="17.9303" x2="74.7489" y2="33.0904" gradientUnits="userSpaceOnUse">
<stop stop-color="#E7BC91"/>
<stop offset="0.3993" stop-color="#F3D5B5"/>
<stop offset="0.6602" stop-color="#F5DCB4"/>
<stop offset="0.7034" stop-color="#F4DAB2"/>
<stop offset="1" stop-color="#EFD3AB"/>
</linearGradient>
<radialGradient id="paint27_radial_153_423633" cx="0" cy="0" r="1" gradientUnits="userSpaceOnUse" gradientTransform="translate(70.1403 28.5154) rotate(11.6369) scale(2.48059)">
<stop stop-color="#E6646E"/>
<stop offset="0.4503" stop-color="#DD4E6D"/>
<stop offset="1" stop-color="#E6646E"/>
</radialGradient>
<linearGradient id="paint28_linear_153_423633" x1="60.4491" y1="19.5718" x2="82.3924" y2="24.0909" gradientUnits="userSpaceOnUse">
<stop stop-color="#A16552"/>
<stop offset="0.201" stop-color="#935848"/>
<stop offset="0.504" stop-color="#935848"/>
<stop offset="0.6028" stop-color="#9C604E"/>
<stop offset="0.7268" stop-color="#A16552"/>
<stop offset="1" stop-color="#966444"/>
</linearGradient>
<linearGradient id="paint29_linear_153_423633" x1="62.4793" y1="20.1531" x2="80.2973" y2="23.8223" gradientUnits="userSpaceOnUse">
<stop stop-color="#FFE988"/>
<stop offset="0.25" stop-color="#BA801E"/>
<stop offset="0.5" stop-color="#FBEC83"/>
<stop offset="0.75" stop-color="#BA801F"/>
<stop offset="1" stop-color="#FFE97F"/>
</linearGradient>
<linearGradient id="paint30_linear_153_423633" x1="62.7796" y1="20.2213" x2="79.9505" y2="23.7575" gradientUnits="userSpaceOnUse">
<stop stop-color="#331E21"/>
<stop offset="0.4916" stop-color="#2B2727"/>
<stop offset="1" stop-color="#3F3937"/>
</linearGradient>
<linearGradient id="paint31_linear_153_423633" x1="49.3656" y1="60.8178" x2="70.093" y2="65.0864" gradientUnits="userSpaceOnUse">
<stop stop-color="#E6E6E6"/>
<stop offset="0.4141" stop-color="#E6E6E6"/>
<stop offset="0.5363" stop-color="#EDEDED"/>
<stop offset="0.7268" stop-color="#F2F2F2"/>
<stop offset="1" stop-color="white"/>
</linearGradient>
<linearGradient id="paint32_linear_153_423633" x1="64.3562" y1="38.3041" x2="73.0812" y2="38.3041" gradientUnits="userSpaceOnUse">
<stop stop-color="#4E3F3F"/>
<stop offset="0.4403" stop-color="#4E3F3F" stop-opacity="0.7"/>
<stop offset="0.9079" stop-color="#4E3F3F" stop-opacity="0"/>
</linearGradient>
<linearGradient id="paint33_linear_153_423633" x1="64.8903" y1="37.1422" x2="72.3585" y2="32.3229" gradientUnits="userSpaceOnUse">
<stop stop-color="#FFE988"/>
<stop offset="0.25" stop-color="#BA801E"/>
<stop offset="0.5" stop-color="#FBEC83"/>
<stop offset="0.75" stop-color="#BA801F"/>
<stop offset="1" stop-color="#FFE97F"/>
</linearGradient>
<linearGradient id="paint34_linear_153_423633" x1="68.7839" y1="39.0085" x2="69.6267" y2="40.4435" gradientUnits="userSpaceOnUse">
<stop stop-color="#FFE988"/>
<stop offset="0.25" stop-color="#BA801E"/>
<stop offset="0.5" stop-color="#FBEC83"/>
<stop offset="0.75" stop-color="#BA801F"/>
<stop offset="1" stop-color="#FFE97F"/>
</linearGradient>
<linearGradient id="paint35_linear_153_423633" x1="66.5991" y1="44.2073" x2="70.6397" y2="40.767" gradientUnits="userSpaceOnUse">
<stop stop-color="#FFE988"/>
<stop offset="0.25" stop-color="#BA801E"/>
<stop offset="0.5" stop-color="#FBEC83"/>
<stop offset="0.75" stop-color="#BA801F"/>
<stop offset="1" stop-color="#FFE97F"/>
</linearGradient>
<linearGradient id="paint36_linear_153_423633" x1="68.0775" y1="44.8985" x2="69.6228" y2="39.765" gradientUnits="userSpaceOnUse">
<stop stop-color="#FFE988"/>
<stop offset="0.25" stop-color="#BA801E"/>
<stop offset="0.5" stop-color="#FBEC83"/>
<stop offset="0.75" stop-color="#BA801F"/>
<stop offset="1" stop-color="#FFE97F"/>
</linearGradient>
<linearGradient id="paint37_linear_153_423633" x1="66.9127" y1="44.8958" x2="68.0448" y2="44.3651" gradientUnits="userSpaceOnUse">
<stop stop-color="#FFE988"/>
<stop offset="0.25" stop-color="#BA801E"/>
<stop offset="0.5" stop-color="#FBEC83"/>
<stop offset="0.75" stop-color="#BA801F"/>
<stop offset="1" stop-color="#FFE97F"/>
</linearGradient>
<linearGradient id="paint38_linear_153_423633" x1="42.9947" y1="112.409" x2="40.6576" y2="87.4443" gradientUnits="userSpaceOnUse">
<stop stop-color="#4E3F3F"/>
<stop offset="0.4403" stop-color="#4E3F3F" stop-opacity="0.7"/>
<stop offset="0.9079" stop-color="#4E3F3F" stop-opacity="0"/>
</linearGradient>
<linearGradient id="paint39_linear_153_423633" x1="57.8816" y1="110.84" x2="55.943" y2="90.1321" gradientUnits="userSpaceOnUse">
<stop stop-color="#4E3F3F"/>
<stop offset="0.4403" stop-color="#4E3F3F" stop-opacity="0.7"/>
<stop offset="0.9079" stop-color="#4E3F3F" stop-opacity="0"/>
</linearGradient>
</defs>
</svg>
