<svg width="7" height="7" viewBox="0 0 7 7" fill="none" xmlns="http://www.w3.org/2000/svg">
<path opacity="0.6" d="M3.24625 6.01125H3.7275V5.55625C4.08333 5.51542 4.36042 5.40604 4.55875 5.22813C4.75708 5.05021 4.85625 4.8125 4.85625 4.515C4.85625 4.2175 4.77167 3.97542 4.6025 3.78875C4.43333 3.60208 4.1475 3.42417 3.745 3.255C3.40667 3.115 3.16167 2.98958 3.01 2.87875C2.85833 2.76792 2.7825 2.61917 2.7825 2.4325C2.7825 2.25167 2.84812 2.10875 2.97937 2.00375C3.11062 1.89875 3.29 1.84625 3.5175 1.84625C3.6925 1.84625 3.84417 1.88708 3.9725 1.96875C4.10083 2.05042 4.20875 2.17292 4.29625 2.33625L4.71625 2.135C4.61708 1.93083 4.48583 1.77042 4.3225 1.65375C4.15917 1.53708 3.96667 1.46708 3.745 1.44375V0.9975H3.26375V1.44375C2.96625 1.48458 2.73146 1.59396 2.55938 1.77188C2.38729 1.94979 2.30125 2.17 2.30125 2.4325C2.30125 2.71833 2.38875 2.94583 2.56375 3.115C2.73875 3.28417 3.00125 3.44167 3.35125 3.5875C3.74208 3.75083 4.01042 3.89813 4.15625 4.02938C4.30208 4.16062 4.375 4.3225 4.375 4.515C4.375 4.70167 4.29771 4.85187 4.14313 4.96562C3.98854 5.07937 3.79458 5.13625 3.56125 5.13625C3.33375 5.13625 3.13104 5.07208 2.95312 4.94375C2.77521 4.81542 2.65125 4.64042 2.58125 4.41875L2.135 4.5675C2.2575 4.83583 2.40771 5.04729 2.58563 5.20188C2.76354 5.35646 2.98375 5.46875 3.24625 5.53875V6.01125ZM3.5 7C3.02167 7 2.56958 6.90812 2.14375 6.72437C1.71792 6.54062 1.34604 6.28979 1.02812 5.97187C0.710208 5.65396 0.459375 5.28208 0.275625 4.85625C0.091875 4.43042 0 3.97833 0 3.5C0 3.01583 0.091875 2.56083 0.275625 2.135C0.459375 1.70917 0.710208 1.33875 1.02812 1.02375C1.34604 0.70875 1.71792 0.459375 2.14375 0.275625C2.56958 0.091875 3.02167 0 3.5 0C3.98417 0 4.43917 0.091875 4.865 0.275625C5.29083 0.459375 5.66125 0.70875 5.97625 1.02375C6.29125 1.33875 6.54062 1.70917 6.72437 2.135C6.90812 2.56083 7 3.01583 7 3.5C7 3.97833 6.90812 4.43042 6.72437 4.85625C6.54062 5.28208 6.29125 5.65396 5.97625 5.97187C5.66125 6.28979 5.29083 6.54062 4.865 6.72437C4.43917 6.90812 3.98417 7 3.5 7Z" fill="#FAFAFA"/>
</svg>
