<svg width="17" height="20" viewBox="0 0 17 20" fill="none" xmlns="http://www.w3.org/2000/svg">
<g opacity="0.89" clip-path="url(#clip0_2295_60695)">
<path d="M9.08919 0.172541C8.8208 -0.0568625 8.41822 -0.0568625 8.14983 0.172541C6.55757 1.52676 1.46338 6.32942 1.46338 12.3482C1.46338 19.4819 7.41177 19.9999 8.61951 19.9999C9.82725 19.9999 15.7756 19.4819 15.7756 12.3482C15.7731 6.32942 10.6814 1.52676 9.08919 0.172541ZM11.7989 12.987H9.73177V15.1429C9.73177 15.5623 9.37564 15.9027 8.93693 15.9027H8.30209C7.86338 15.9027 7.50725 15.5623 7.50725 15.1429V12.987H5.44015C5.00144 12.987 4.64531 12.6466 4.64531 12.2273V11.5983C4.64531 11.179 5.00144 10.8385 5.44015 10.8385H7.50725V8.68265C7.50725 8.26332 7.86338 7.92291 8.30209 7.92291H8.93693C9.37564 7.92291 9.73177 8.26332 9.73177 8.68265V10.8385H11.7989C12.2376 10.8385 12.5937 11.179 12.5937 11.5983V12.2273C12.5937 12.6466 12.2376 12.987 11.7989 12.987Z" fill="#4D4040"/>
<g opacity="0.5" filter="url(#filter0_d_2295_60695)">
<path d="M8.29935 15.9002H8.93419C9.3729 15.9002 9.72903 15.5598 9.72903 15.1404V12.9845H11.7961C12.2348 12.9845 12.591 12.6441 12.591 12.2248V11.5958C12.591 11.1765 12.2348 10.836 11.7961 10.836H9.72903V8.68015C9.72903 8.26081 9.3729 7.92041 8.93419 7.92041H8.29935C7.86064 7.92041 7.50451 8.26081 7.50451 8.68015V10.836H5.43742C4.99871 10.836 4.64258 11.1765 4.64258 11.5958V12.2248C4.64258 12.6441 4.99871 12.9845 5.43742 12.9845H7.50451V15.1404C7.50451 15.5598 7.86064 15.9002 8.29935 15.9002Z" fill="white"/>
</g>
</g>
<defs>
<filter id="filter0_d_2295_60695" x="-2.64715" y="0.630685" width="22.5277" height="22.5592" filterUnits="userSpaceOnUse" color-interpolation-filters="sRGB">
<feFlood flood-opacity="0" result="BackgroundImageFix"/>
<feColorMatrix in="SourceAlpha" type="matrix" values="0 0 0 0 0 0 0 0 0 0 0 0 0 0 0 0 0 0 127 0" result="hardAlpha"/>
<feOffset/>
<feGaussianBlur stdDeviation="3.64486"/>
<feColorMatrix type="matrix" values="0 0 0 0 1 0 0 0 0 1 0 0 0 0 1 0 0 0 1 0"/>
<feBlend mode="normal" in2="BackgroundImageFix" result="effect1_dropShadow_2295_60695"/>
<feBlend mode="normal" in="SourceGraphic" in2="effect1_dropShadow_2295_60695" result="shape"/>
</filter>
<clipPath id="clip0_2295_60695">
<rect width="16" height="20" fill="white" transform="translate(0.562988)"/>
</clipPath>
</defs>
</svg>
