<?xml version="1.0" encoding="UTF-8"?><svg id="Laag_1" xmlns="http://www.w3.org/2000/svg" xmlns:xlink="http://www.w3.org/1999/xlink" viewBox="0 0 500 500"><defs><style>.cls-1,.cls-2,.cls-3,.cls-4,.cls-5,.cls-6,.cls-7,.cls-8{fill:none;}.cls-9{fill:#6b5c5c;}.cls-9,.cls-10{opacity:.1;}.cls-2,.cls-3,.cls-4,.cls-5,.cls-6,.cls-7,.cls-8{stroke:#c0c1b6;stroke-miterlimit:10;}.cls-2,.cls-8{stroke-width:3px;}.cls-11{fill:url(#Naamloos_verloop_2);}.cls-12{fill:url(#Naamloos_verloop_3);}.cls-13{fill:url(#Naamloos_verloop_6);}.cls-14{fill:url(#Naamloos_verloop_7);}.cls-15{clip-path:url(#clippath);}.cls-16{fill:#f3c73c;}.cls-17{fill:#fff;}.cls-18{fill:#ffea8c;}.cls-19{fill:#ffca28;}.cls-20{fill:#ffd770;}.cls-21{fill:#ffd54f;}.cls-22{fill:#ffb300;}.cls-23{fill:#faf4e6;}.cls-24{fill:#ffd039;}.cls-25{fill:#f0b90b;}.cls-26{fill:#fdfbf5;}.cls-27{fill:#7d551f;}.cls-28{fill:#a16552;}.cls-29{fill:#9f6552;}.cls-30{fill:#b48b08;}.cls-31{fill:#8e9324;}.cls-32{fill:#8c8914;}.cls-33{fill:#ac752c;}.cls-34{fill:#b2956b;}.cls-35{fill:#c0c1b6;}.cls-36{fill:#d3a522;}.cls-37{fill:#d3b86a;}.cls-38{fill:#6d5047;}.cls-39{fill:#2b8f5f;}.cls-40{fill:#5c5c02;}.cls-41{fill:#3d3532;}.cls-42{fill:#828282;}.cls-43{fill:#4d522a;}.cls-44{fill:url(#Naamloos_verloop_7-3);}.cls-45{fill:url(#Naamloos_verloop_7-2);}.cls-46{fill:url(#Naamloos_verloop_7-4);}.cls-47{fill:url(#Naamloos_verloop_3-6);}.cls-48{fill:url(#Naamloos_verloop_3-3);}.cls-49{fill:url(#Naamloos_verloop_3-5);}.cls-50{fill:url(#Naamloos_verloop_3-2);}.cls-51{fill:url(#Naamloos_verloop_3-4);}.cls-52{fill:url(#Naamloos_verloop_89-2);}.cls-53{fill:url(#Naamloos_verloop_89-3);}.cls-54{fill:url(#Naamloos_verloop_18-2);}.cls-55{fill:url(#Naamloos_verloop_42-2);}.cls-56{fill:url(#Naamloos_verloop_38-2);}.cls-57{fill:url(#Naamloos_verloop_37-4);}.cls-58{fill:url(#Naamloos_verloop_37-3);}.cls-59{fill:url(#Naamloos_verloop_37-2);}.cls-60{fill:url(#Naamloos_verloop_30-9);}.cls-61{fill:url(#Naamloos_verloop_30-8);}.cls-62{fill:url(#Naamloos_verloop_30-5);}.cls-63{fill:url(#Naamloos_verloop_30-3);}.cls-64{fill:url(#Naamloos_verloop_30-6);}.cls-65{fill:url(#Naamloos_verloop_30-7);}.cls-66{fill:url(#Naamloos_verloop_30-4);}.cls-67{fill:url(#Naamloos_verloop_30-2);}.cls-68{fill:url(#Naamloos_verloop_52-2);}.cls-69{fill:url(#Naamloos_verloop_52-5);}.cls-70{fill:url(#Naamloos_verloop_52-3);}.cls-71{fill:url(#Naamloos_verloop_52-4);}.cls-72{fill:url(#Naamloos_verloop_43);opacity:.2;}.cls-3,.cls-5{stroke-width:5px;}.cls-73{clip-path:url(#clippath-1);}.cls-4,.cls-5,.cls-74,.cls-8{opacity:.15;}.cls-4,.cls-7{stroke-width:8px;}.cls-75{fill:#4e3f3f;isolation:isolate;opacity:.35;}.cls-6{stroke-width:2px;}.cls-76{opacity:.33;}.cls-77{opacity:.3;}.cls-78{fill:url(#Naamloos_verloop_52);}.cls-79{fill:url(#Naamloos_verloop_51);}.cls-80{fill:url(#Naamloos_verloop_42);}.cls-81{fill:url(#Naamloos_verloop_45);}.cls-82{fill:url(#Naamloos_verloop_44);}.cls-83{fill:url(#Naamloos_verloop_30);}.cls-84{fill:url(#Naamloos_verloop_38);}.cls-85{fill:url(#Naamloos_verloop_37);}.cls-86{fill:url(#Naamloos_verloop_18);}.cls-87{fill:url(#Naamloos_verloop_15);}.cls-88{fill:url(#Naamloos_verloop_89);}.cls-89{fill:url(#Naamloos_verloop_95);}.cls-90{fill:url(#Naamloos_verloop_92);}.cls-91{fill:url(#Naamloos_verloop_70);}</style><linearGradient id="Naamloos_verloop_2" x1="60.16" y1="426.66" x2="379.49" y2="426.66" gradientUnits="userSpaceOnUse"><stop offset="0" stop-color="#ada10c"/><stop offset="1" stop-color="#d2be07"/></linearGradient><linearGradient id="Naamloos_verloop_3" x1="104.66" y1="327.13" x2="176.84" y2="327.13" gradientUnits="userSpaceOnUse"><stop offset=".12" stop-color="#935848"/><stop offset=".5" stop-color="#935848"/><stop offset=".6" stop-color="#9b604e"/><stop offset=".73" stop-color="#a16552"/><stop offset="1" stop-color="#966444"/></linearGradient><linearGradient id="Naamloos_verloop_30" x1="214.35" y1="303.51" x2="126.86" y2="228.27" gradientUnits="userSpaceOnUse"><stop offset=".2" stop-color="#162944"/><stop offset=".54" stop-color="#202f57"/><stop offset=".82" stop-color="#2b366b"/></linearGradient><clipPath id="clippath"><polygon class="cls-1" points="146.83 200.44 142.35 200.58 135.38 214.84 135.18 280.43 179.51 294.69 172.84 291.45 146.83 200.44"/></clipPath><linearGradient id="Naamloos_verloop_30-2" x1="127.4" y1="291.67" x2="236.83" y2="290.41" xlink:href="#Naamloos_verloop_30"/><radialGradient id="Naamloos_verloop_6" cx="188.07" cy="112.54" fx="188.07" fy="112.54" r="287.01" gradientUnits="userSpaceOnUse"><stop offset=".14" stop-color="#92594b"/><stop offset=".24" stop-color="#91584a"/><stop offset=".26" stop-color="#905749"/><stop offset=".55" stop-color="#814b3f"/><stop offset=".79" stop-color="#7c483c"/></radialGradient><linearGradient id="Naamloos_verloop_38" x1="189.32" y1="246.67" x2="189.18" y2="206.03" gradientUnits="userSpaceOnUse"><stop offset="0" stop-color="#e7bc91"/><stop offset=".4" stop-color="#f3d5b5"/><stop offset=".66" stop-color="#f5dcb4"/><stop offset=".7" stop-color="#f3dab2"/><stop offset="1" stop-color="#efd3ab"/></linearGradient><linearGradient id="Naamloos_verloop_70" x1="156.33" y1="219.29" x2="207.99" y2="219.29" gradientUnits="userSpaceOnUse"><stop offset="0" stop-color="#e6e6e6"/><stop offset=".31" stop-color="#ddd"/><stop offset=".32" stop-color="#ddd"/><stop offset=".54" stop-color="#ececec"/><stop offset=".73" stop-color="#f2f2f2"/><stop offset=".88" stop-color="#f9f9f9"/><stop offset="1" stop-color="#fff"/></linearGradient><linearGradient id="Naamloos_verloop_30-3" x1="209.84" y1="281.44" x2="202.69" y2="216.75" xlink:href="#Naamloos_verloop_30"/><linearGradient id="Naamloos_verloop_30-4" x1="167.61" y1="227.15" x2="190.78" y2="276.01" xlink:href="#Naamloos_verloop_30"/><linearGradient id="Naamloos_verloop_7" x1="177.86" y1="241.52" x2="182.64" y2="232.41" gradientTransform="translate(-60.8 -1.78) scale(1.3 1)" gradientUnits="userSpaceOnUse"><stop offset="0" stop-color="#ffe988"/><stop offset=".25" stop-color="#ba801e"/><stop offset=".5" stop-color="#fbec83"/><stop offset=".75" stop-color="#ba801f"/><stop offset="1" stop-color="#ffe97f"/></linearGradient><linearGradient id="Naamloos_verloop_7-2" x1="176.86" y1="252.58" x2="181.63" y2="243.47" gradientTransform="translate(-59.19 -1.71) scale(1.3 1)" xlink:href="#Naamloos_verloop_7"/><linearGradient id="Naamloos_verloop_3-2" x1="277.05" y1="374.34" x2="298.59" y2="402.67" xlink:href="#Naamloos_verloop_3"/><linearGradient id="Naamloos_verloop_52" x1="253.7" y1="414.51" x2="292" y2="392.81" gradientUnits="userSpaceOnUse"><stop offset=".1" stop-color="#0973a3"/><stop offset=".18" stop-color="#167da7"/><stop offset=".3" stop-color="#2589ad"/><stop offset=".4" stop-color="#2b8daf"/><stop offset=".55" stop-color="#1d82aa"/><stop offset=".77" stop-color="#0e76a4"/><stop offset=".96" stop-color="#0973a3"/></linearGradient><linearGradient id="Naamloos_verloop_52-2" x1="240.14" y1="433.72" x2="192.14" y2="183.16" xlink:href="#Naamloos_verloop_52"/><linearGradient id="Naamloos_verloop_52-3" x1="210.25" y1="318.85" x2="203.22" y2="283.24" gradientTransform="translate(21.14 -14.58) rotate(4.34)" xlink:href="#Naamloos_verloop_52"/><linearGradient id="Naamloos_verloop_30-5" x1="295.34" y1="236.69" x2="218.06" y2="214.9" xlink:href="#Naamloos_verloop_30"/><linearGradient id="Naamloos_verloop_52-4" x1="162.86" y1="253.58" x2="147.28" y2="180.31" xlink:href="#Naamloos_verloop_52"/><linearGradient id="Naamloos_verloop_30-6" x1="148.5" y1="196.07" x2="180.29" y2="263.09" xlink:href="#Naamloos_verloop_30"/><linearGradient id="Naamloos_verloop_30-7" x1="221.38" y1="191.27" x2="158.82" y2="265.57" xlink:href="#Naamloos_verloop_30"/><linearGradient id="Naamloos_verloop_43" x1="241.21" y1="362.73" x2="145.47" y2="442.65" gradientUnits="userSpaceOnUse"><stop offset="0" stop-color="#282525"/><stop offset=".44" stop-color="#282525" stop-opacity=".7"/><stop offset=".62" stop-color="#282525" stop-opacity=".39"/><stop offset=".91" stop-color="#282525" stop-opacity="0"/></linearGradient><linearGradient id="Naamloos_verloop_3-3" x1="15.24" y1="348.64" x2="-68.9" y2="352.03" gradientTransform="translate(77.65 34.06) rotate(-16.29)" xlink:href="#Naamloos_verloop_3"/><linearGradient id="Naamloos_verloop_3-4" x1="176.77" y1="336.81" x2="273.93" y2="336.81" xlink:href="#Naamloos_verloop_3"/><linearGradient id="Naamloos_verloop_3-5" x1="-76.79" y1="372.41" x2="-102.69" y2="295.17" gradientTransform="translate(77.65 34.06) rotate(-16.29)" xlink:href="#Naamloos_verloop_3"/><linearGradient id="Naamloos_verloop_3-6" x1="44.89" y1="337.14" x2="-30.65" y2="381.02" gradientTransform="translate(77.65 34.06) rotate(-16.29)" xlink:href="#Naamloos_verloop_3"/><linearGradient id="Naamloos_verloop_30-8" x1="204.56" y1="316.36" x2="253.24" y2="258.49" xlink:href="#Naamloos_verloop_30"/><clipPath id="clippath-1"><polygon class="cls-1" points="228.55 294.26 226.21 224.96 235.01 205.07 255.45 191.92 274.54 204.32 279.91 301.88 228.55 294.26"/></clipPath><linearGradient id="Naamloos_verloop_30-9" x1="217.16" y1="298.02" x2="348.9" y2="296.5" xlink:href="#Naamloos_verloop_30"/><linearGradient id="Naamloos_verloop_52-5" x1="216.08" y1="253.35" x2="220.43" y2="177.01" xlink:href="#Naamloos_verloop_52"/><linearGradient id="Naamloos_verloop_7-3" x1="149.63" y1="260.18" x2="159.12" y2="242.06" gradientTransform="translate(4.4 .37)" xlink:href="#Naamloos_verloop_7"/><linearGradient id="Naamloos_verloop_7-4" x1="206.91" y1="264.57" x2="216.4" y2="246.45" gradientTransform="translate(-58.65 -7.93) scale(1.3 1)" xlink:href="#Naamloos_verloop_7"/><linearGradient id="Naamloos_verloop_18" x1="191.41" y1="62.33" x2="210.16" y2="62.33" gradientTransform="translate(10.3 116.65) rotate(-11.49)" gradientUnits="userSpaceOnUse"><stop offset="0" stop-color="#e7bc91"/><stop offset=".4" stop-color="#f3d5b5"/><stop offset=".66" stop-color="#f5dcb4"/><stop offset="1" stop-color="#f5dcb4"/></linearGradient><linearGradient id="Naamloos_verloop_18-2" x1="106.58" y1="62.33" x2="83.35" y2="62.12" xlink:href="#Naamloos_verloop_18"/><linearGradient id="Naamloos_verloop_38-2" x1="149.77" y1="50.86" x2="149.15" y2="117.81" gradientTransform="translate(10.3 116.65) rotate(-11.49)" xlink:href="#Naamloos_verloop_38"/><radialGradient id="Naamloos_verloop_45" cx="149.15" cy="106.29" fx="149.15" fy="106.29" r="22.49" gradientTransform="translate(10.3 116.65) rotate(-11.49)" gradientUnits="userSpaceOnUse"><stop offset=".49" stop-color="#3a2e2e"/><stop offset=".81" stop-color="#4c3b3b"/><stop offset="1" stop-color="#4e3f3f"/></radialGradient><radialGradient id="Naamloos_verloop_51" cx="149.88" cy="102.93" fx="149.88" fy="102.93" r="14.09" gradientTransform="translate(335.14 213.91) rotate(169.33) scale(1 .53)" gradientUnits="userSpaceOnUse"><stop offset="0" stop-color="#e6646e"/><stop offset=".45" stop-color="#dd4e6d"/><stop offset="1" stop-color="#e6646e"/></radialGradient><linearGradient id="Naamloos_verloop_44" x1="98.9" y1="49.69" x2="207.11" y2="85.97" gradientTransform="translate(10.3 116.65) rotate(-11.49)" gradientUnits="userSpaceOnUse"><stop offset="0" stop-color="#a16552"/><stop offset=".2" stop-color="#935848"/><stop offset=".5" stop-color="#935848"/><stop offset=".6" stop-color="#9b604e"/><stop offset=".73" stop-color="#a16552"/><stop offset="1" stop-color="#966444"/></linearGradient><linearGradient id="Naamloos_verloop_37" x1="147.86" y1="84.03" x2="141.97" y2="81.1" gradientTransform="translate(183.63 2.59) rotate(65.45)" gradientUnits="userSpaceOnUse"><stop offset=".49" stop-color="#3a2e2e"/><stop offset=".81" stop-color="#4c3b3b"/><stop offset="1" stop-color="#4e3f3f"/></linearGradient><linearGradient id="Naamloos_verloop_37-2" x1="151.25" y1="84.08" x2="157.33" y2="81.11" gradientTransform="translate(71.9 27.6) rotate(24.55)" xlink:href="#Naamloos_verloop_37"/><linearGradient id="Naamloos_verloop_37-3" x1="131.96" y1="60.84" x2="135.27" y2="73.29" gradientTransform="translate(10.3 116.65) rotate(-11.49)" xlink:href="#Naamloos_verloop_37"/><radialGradient id="Naamloos_verloop_42" cx="137" cy="61.62" fx="137" fy="61.62" r="6.63" gradientTransform="translate(10.3 116.65) rotate(-11.49)" gradientUnits="userSpaceOnUse"><stop offset="0" stop-color="#5d5360"/><stop offset="1" stop-color="#5d5360" stop-opacity=".4"/></radialGradient><linearGradient id="Naamloos_verloop_15" x1="106.18" y1="154.32" x2="205.57" y2="143.97" gradientTransform="translate(-24.19 48.34) rotate(-14.73)" gradientUnits="userSpaceOnUse"><stop offset="0" stop-color="#4e3f3f"/><stop offset=".14" stop-color="#4e3f3f" stop-opacity=".7"/><stop offset=".46" stop-color="#4e3f3f" stop-opacity=".4"/><stop offset=".73" stop-color="#4e3f3f" stop-opacity=".2"/><stop offset=".84" stop-color="#4e3f3f" stop-opacity=".09"/><stop offset="1" stop-color="#4e3f3f" stop-opacity="0"/></linearGradient><linearGradient id="Naamloos_verloop_37-4" x1="164.02" y1="60.66" x2="167.33" y2="73.11" gradientTransform="translate(10.3 116.65) rotate(-11.49)" xlink:href="#Naamloos_verloop_37"/><radialGradient id="Naamloos_verloop_42-2" cx="169.05" cy="61.45" fx="169.05" fy="61.45" r="6.63" xlink:href="#Naamloos_verloop_42"/><linearGradient id="Naamloos_verloop_89" x1="131.19" y1="90.87" x2="217.66" y2="102.65" gradientTransform="translate(-29.1 64.58) rotate(-14.26)" gradientUnits="userSpaceOnUse"><stop offset=".08" stop-color="#88756e"/><stop offset=".28" stop-color="#927f76"/><stop offset=".67" stop-color="#a18e81"/><stop offset=".98" stop-color="#a69485"/></linearGradient><linearGradient id="Naamloos_verloop_89-2" x1="199.33" y1="100.29" x2="220.07" y2="103.12" xlink:href="#Naamloos_verloop_89"/><linearGradient id="Naamloos_verloop_89-3" x1="128.52" y1="95.73" x2="297.13" y2="120.48" xlink:href="#Naamloos_verloop_89"/><linearGradient id="Naamloos_verloop_95" x1="162.58" y1="121.63" x2="162.07" y2="150.95" gradientTransform="translate(-24.19 48.34) rotate(-14.73)" gradientUnits="userSpaceOnUse"><stop offset="0" stop-color="#685a56"/><stop offset=".11" stop-color="#584c47"/><stop offset=".25" stop-color="#49403a"/><stop offset=".37" stop-color="#443c36"/></linearGradient><linearGradient id="Naamloos_verloop_92" x1="161.4" y1="113.3" x2="162.81" y2="137.54" gradientTransform="translate(-24.19 48.34) rotate(-14.73)" gradientUnits="userSpaceOnUse"><stop offset=".08" stop-color="#a49385"/><stop offset=".3" stop-color="#af9b8b"/><stop offset=".67" stop-color="#bea594"/><stop offset=".98" stop-color="#c4a997"/></linearGradient></defs><path class="cls-32" d="M244.6,366.1c-1.94-11.33-5.67-21.74-12.32-28.67,0,0-6.96,3.58-10.78,35.95-1.6-11.31-2.82-20.02-2.82-20.02l-8.42,32.93-3.48-42.7-1.6,32.87-5.25-11.25-3.25,15.46-22.28-25.09-3.17,51.21,48.23-5.56,5.87-.68,7.31-.84,13.64-1.57,12.09-1.39c.35-.59,1.13-.94,1.83-.39l.19,.15h.03c4.67-18.13,7.22-39.29-.54-53.06,0,0-5.9,1.34-15.27,22.63Z"/><path class="cls-31" d="M382.06,435.74c-7.62-30.84-50.57-43.73-60.8-45.27-.56-.08-56.53-8.4-115.2-7.18-41.95,.87-76.13,12.89-98.34,21.97-3.08-.03-5.53,.15-7.28,.54-3.86,.85-6.5,2.29-9.56,3.96-3.87,2.11-8.68,4.73-18.3,7.13-8.91,2.22-14.89,7.39-16.4,14.19-1.87,8.39,3.07,17.87,13.91,26.69,21.18,19.55,54.62,23.42,116.98,24.32,3.24,.05,6.51,.07,9.81,.07,35.49,0,74.24-2.65,105.51-7.28,28.78-4.26,65.41-12.27,76.52-26.24,3.21-4.04,4.27-8.38,3.15-12.9Z"/><path class="cls-36" d="M343.07,466.61c.3-3.26,2.48-9.8,2.48-9.8l-87.56,.39-133.18-31.18-44.32-11.48c-2.23,.79-4.82,1.59-7.92,2.36-8.91,2.22-14.89,7.39-16.4,14.19-1.87,8.39,3.07,17.87,13.91,26.69,21.18,19.55,54.62,23.42,116.98,24.32,3.24,.05,6.51,.07,9.81,.07,35.49,0,74.24-2.65,105.51-7.28,12.98-1.92,27.56-4.61,40.68-8.26Z"/><path class="cls-11" d="M187.11,473.08c-64.26-.92-96.13-5.09-116.2-24.65s-10.28-25.43,14.76-36.39,66.39-30.62,120.45-31.75,107.23,6.02,114.69,7.14,50.9,12.93,58.33,43.03-110.17,43.79-192.04,42.62Z"/><g><path class="cls-43" d="M370.13,424.01c.04-5.04,3.17-9.54,7.87-11.34,5.65-1.48,11.63-.98,16.95,1.42-2.63,3.63-6.21,6.47-10.35,8.2-4.67,1.47-9.58,2.05-14.47,1.71Z"/><path class="cls-43" d="M364.41,424.01s-2.3-17.06,8.24-19.98c5.71-1.7,11.66-2.44,17.61-2.19,0,0-1.9,12.65-10.61,16.91-4.81,2.45-9.94,4.22-15.24,5.25Z"/><path class="cls-40" d="M351.07,387.38c-5.61,7.94-5.61,18.56,0,26.5,3.65,4.32,8.2,7.77,13.34,10.13,2.36-5.8,2.63-12.25,.77-18.23-3.17-10.21-14.11-18.41-14.11-18.41Z"/><path class="cls-40" d="M370.13,424.01s-2.7-11.99,1.35-18.23c2.39-3.76,5.91-6.67,10.06-8.31,.7,4.41,.7,8.9,0,13.3-2.33,7.73-11.41,13.23-11.41,13.23Z"/><path class="cls-40" d="M356.61,423.4c-1.68-3.65-10.5-10.21-14.58-9.19s-1.9,4.56,2.59,7c3.88,1.27,7.91,2,11.99,2.19Z"/></g><path class="cls-24" d="M325.38,417.4c2.96-16.12,4.21-25.6-4.56-29.97h0c-5.62-.85-37.15-5.1-75.46-6.68-9.31-.32-18.48-.54-26.78-.59-4.12,0-8.27,.03-12.43,.12-7.89,.35-31.36,2.05-46.28,10.08-18.6,10.01-28.76,30.17-42.7,36.94-10.63,5.16-39.07,10.2-45.11,22.19,20.13,18.64,51.99,22.68,115.06,23.58,52.18,.75,118.85-4.54,158.44-16.27,4.31-11.19-23.35-22.1-20.17-39.41Z"/><path class="cls-10" d="M182.85,388.05s-24.11-.16-34.45,12.28-18.97,16.83-14.83,31.19c4.14,14.36,48.1,24.71,94.23,17.12,46.13-7.59,60.27-3.79,78.2-20,17.93-16.21,11.31-27.56,4.27-31.37s-26.58-8.01-49.05-6.77c-22.47,1.24-78.37-2.44-78.37-2.44Z"/><path class="cls-77" d="M85.25,413.04s2.48-.62,4.37,.59,.42,1.6,2.41,1.66,3.65-.49,5.87,0,4.4,.75,6,.46,3.07,.59,4.37-1.04,2.32-4.24,3.26-5.05,2.94-2.02,4.14-2.28,5.28-3.03,6.03-3.26,3.35-1.79,3.52-2.01-.33,1.2-1.63,2.11-3.55,1.53-3.88,1.83-4.17,2.45-4.79,3.16-2.87,2.84-3.59,3.72-3.33,3.68-4.14,4.01-2.61,.13-4.01,.39-3.49,1.21-4.47,1.66-4.79,.1-6.16,.46-5.38,.29-5.9-1.08-1.99-4.9-1.4-5.32Z"/><path class="cls-34" d="M117.35,442.82c3.73-.27,4.55-1.79,12.66-.29s12.02,1.73,4.52,6.65-12.89,7.54-15.9,5.24-11.24-10.89-1.28-11.6Z"/><path class="cls-10" d="M114.39,450.09s2.46,2.35,3.27,2.97,1.37,1.27,3.29,1.37,5.35-.95,6.39-1.5,10.22-6.03,10.22-6.03c0,0-2.32,2.71-3.73,3.77s-6.91,4.28-8.48,4.8-3.29,.68-5.18,.42-2.61-1.34-2.9-1.96-2.88-3.85-2.88-3.85Z"/><path class="cls-34" d="M301.61,403.04c.55-.8,.52-1.86,2.87-1.45s3.33,.54,3.46,1.45,.52,2.54-.91,2.67-4.17-.13-4.76-.59-.97-1.63-.65-2.09Z"/><path class="cls-34" d="M290.26,394.95c.8-.69,2.28-3.26,5.8-2.61s4.3,1.04,4.24,2.28,.46,3.65-1.17,4.11-6.13,2.41-7.24,1.96-4.22-3.5-1.63-5.74Z"/><path class="cls-10" d="M301.51,403.74c.03-.24,.55,.96,1.14,1.12s1.72,.48,2.68,.44,1.63-.37,2.04-.37,.59-.05,.64-.01,.11,.4-.06,.67-.54,.4-1.09,.57-1.69-.07-2.15-.1-1.71-.31-2.38-.55-.86-1.42-.82-1.78Z"/><path class="cls-10" d="M289.36,397.7s.93,.92,1.5,1.13,.54-.34,1.6,0,.36,.77,1.84,.67,3.91-.66,4.43-.89,1.44-.83,1.55-1.53,.13,.91-.12,1.42-1.86,.86-2.33,1.12-3.18,.96-3.8,1.29-2.25,.21-2.79,0-1.74-2.12-1.78-2.54-.11-.66-.11-.66Z"/><g><path class="cls-12" d="M141.82,282.57s-30.19,67.77-36,79.62,11.96,15.38,11.96,15.38c0,0,28.28-35.69,40.75-55.73,12.47-20.04,17.29-18.75,18.24-27.14s-7.86-17.18-12.18-17.94-22.77,5.82-22.77,5.82Z"/><g><g><path class="cls-22" d="M139.93,384.62c-3.97,15.99-20.15,25.74-36.13,21.77-.83-.21-1.65-.45-2.46-.72-14.52-4.94-23.07-20.26-19.31-35.41,3.97-15.99,20.15-25.74,36.13-21.77,3.41,.84,6.64,2.28,9.54,4.24,10.06,6.81,15.32,19.41,12.23,31.89Z"/><path class="cls-21" d="M141.28,381.48c-4.04,16.28-20.52,26.21-36.8,22.17-.85-.21-1.69-.46-2.5-.74-14.78-5.03-23.5-20.63-19.67-36.06,4.04-16.28,20.52-26.21,36.8-22.17,3.47,.86,6.76,2.32,9.72,4.32,10.25,6.94,15.6,19.77,12.45,32.48Z"/><path class="cls-23" d="M137.02,380.43c-3.46,13.93-17.56,22.43-31.49,18.97-.73-.18-1.44-.39-2.14-.63-12.65-4.3-20.11-17.65-16.83-30.86,3.46-13.93,17.56-22.43,31.49-18.97,2.97,.73,5.78,1.98,8.32,3.7,8.77,5.94,13.35,16.92,10.65,27.79Z"/><path class="cls-19" d="M108.87,376.83s.86-2.64-1.85-6.44c-3.87-5.44-4.2-6.51-.29-4.84s6.03,5.82,6.03,5.82"/><path class="cls-33" d="M98.45,382.13l.3-1.75-3.45-.59c-.36-.06-.7,.18-.76,.54l-.08,.45c-.06,.36,.18,.7,.54,.76,0,0,0,0,0,0l3.45,.59Z"/><path class="cls-27" d="M98.45,382.13l.15-.87-4.1-.7-.04,.23c-.06,.36,.18,.7,.54,.76,0,0,0,0,0,0l3.45,.59Z"/><path class="cls-22" d="M114.88,379.98c-.44-.8-.98-1.46-1.61-2.11-.61-.62-1.3-1.16-1.96-1.72-.59-.49-1.1-1.01-1.79-1.34-.04,.04-.09,.08-.13,.12s-.09,.08-.14,.11c-.1,.09-.21,.17-.31,.26-.01,.01-.03,.02-.04,.03-.04,.04-.09,.07-.14,.11s-.1,.07-.15,.11c-.11,.08-.22,.16-.33,.24-.33,.24-.67,.46-1.02,.68-.06,.04-.12,.07-.17,.11-.09,.06-.19,.11-.28,.17-.07,.04-.14,.08-.2,.12s-.14,.08-.2,.11c-.01,0-.03,.02-.04,.02-.1,.06-.21,.11-.31,.17-.03,.01-.05,.03-.07,.04-.04,.02-.08,.05-.13,.07l-.13,.06c-.11,.05-.21,.11-.32,.16-.15,.07-.31,.14-.46,.21-.12,.05-.25,.11-.38,.16-.02,0-.05,.02-.07,.03-.1,.04-.21,.08-.31,.12,0,0,0,0,0,0-.17,.06-.34,.13-.51,.18-.35,.12-.71,.23-1.07,.33-.66,.18-1.33,.33-2,.43-.29,.05-.58,.08-.88,.11h0c-.15,.01-.3,.03-.45,.04-.13,.01-.26,.02-.39,.03-.18,0-.35,.02-.53,.02h0s-.05,0-.14,.03c-.02,0-.05,.02-.08,.02-.02,0-.03,.01-.05,.02s-.03,.01-.05,.02c-.44,.14-.82,.42-1.09,.79,0,.01-.02,.02-.02,.04-.17,.25-.28,.54-.33,.84-.03,.17-.05,.35-.04,.52h0c0,.13,.02,.25,.05,.37,.11,.42,.38,.77,.73,1.05,.7,.57,1.73,.9,2.35,1.06,5.41,1.25,11.1-.09,15.4-3.61-.06-.11-.11-.21-.17-.32Z"/><path class="cls-21" d="M111.31,376.14c-.59-.49-1.1-1.01-1.79-1.34-.04,.04-.09,.08-.13,.12s-.09,.08-.14,.11-.09,.08-.14,.11c-.06,.05-.12,.1-.17,.14-.01,.01-.03,.02-.04,.03-.04,.04-.09,.07-.14,.11s-.1,.07-.15,.11-.1,.07-.15,.11-.12,.09-.17,.13c-.1,.07-.2,.14-.31,.21-.02,.01-.04,.03-.06,.04-.05,.03-.1,.07-.14,.1-.11,.07-.22,.14-.33,.21-.06,.04-.12,.08-.18,.12s-.12,.07-.17,.11c-.09,.06-.19,.11-.28,.17-.07,.04-.14,.08-.2,.12s-.14,.08-.2,.11c-.01,0-.03,.02-.04,.02-.1,.06-.21,.11-.31,.17-.03,.01-.05,.03-.07,.04l-.13,.07-.13,.06c-.11,.05-.21,.11-.32,.16-.1,.04-.19,.09-.29,.13-.06,.03-.11,.05-.17,.08-.12,.05-.25,.11-.38,.16-.02,0-.05,.02-.07,.03-.1,.04-.21,.08-.31,.12,0,0,0,0,0,0-.08,.03-.16,.06-.25,.09s-.17,.06-.26,.1c-.12,.04-.25,.08-.38,.12l-.2,.06c-.16,.05-.33,.1-.49,.15-.11,.03-.22,.06-.33,.09-.17,.04-.33,.08-.49,.12-.11,.02-.22,.05-.34,.07-.17,.03-.34,.07-.51,.1-.11,.02-.22,.04-.32,.06-.19,.03-.38,.06-.57,.08l-.22,.03s-.06,0-.08,.01h0c-.15,.01-.3,.03-.45,.04-.13,.01-.26,.02-.39,.03-.18,0-.35,.02-.53,.02h0s-.05,0-.14,.03c-.02,0-.05,.02-.08,.02-.02,0-.03,.01-.05,.02s-.03,.01-.05,.02c-.44,.14-.82,.42-1.09,.79,0,.01-.02,.02-.02,.04-.17,.25-.28,.54-.33,.84-.03,.17-.05,.35-.04,.52h.03c1.58,.41,3.2,.6,4.83,.56,.22,0,.44-.01,.66-.03,3.87-.22,7.56-1.7,10.51-4.21,.1-.09,.2-.18,.3-.26-.5-.47-1.04-.9-1.57-1.34Z"/><path class="cls-20" d="M115.66,379.78l-3.09-2.03-3.69-2.42s.03-.02,.04-.03c.06-.05,.12-.1,.17-.14,.05-.04,.09-.08,.14-.11s.09-.08,.14-.11c.12-.1,.24-.2,.35-.3,.08-.07,.15-.14,.22-.2,.15-.14,.29-.27,.43-.42,.05-.05,.1-.1,.15-.14,.01-.01,.03-.03,.04-.04,.08-.09,.16-.17,.25-.26s.17-.19,.26-.28c.1-.11,.19-.22,.28-.33,.08-.09,.16-.18,.24-.28s.16-.2,.25-.3c.03-.03,.05-.07,.08-.1,.05-.07,.11-.13,.16-.2,0,0,0,0,.01-.01,.07-.1,.15-.2,.22-.3,.02-.02,.04-.04,.05-.07l.04-.06c.05-.07,.1-.14,.15-.21,.04-.06,.08-.12,.12-.17s.08-.12,.12-.18l.03-.04s.05-.08,.07-.11,.05-.08,.07-.12c.16-.25,.31-.51,.46-.77,.07-.13,.15-.26,.22-.39,.1-.19,.2-.38,.29-.58l.03-.06s.01-.03,.02-.05c.11-.22,.21-.45,.31-.68,.03-.08,.07-.16,.1-.23s.06-.15,.09-.23c.04-.09,.07-.18,.11-.28,.02-.05,.04-.11,.06-.17,.04-.1,.07-.2,.11-.31,.03-.09,.06-.19,.09-.28,.05-.17,.1-.33,.15-.5,.03-.08,.05-.17,.07-.26l.02-.1s.02-.06,.02-.1c.02-.06,.03-.13,.05-.19l.05-.22c.06-.25,.11-.49,.16-.74v-.04c.05-.23,.09-.45,.12-.68h0c.18-.94,.36-3.18,.91-4.65,.25-.68,.57-1.19,1.01-1.35,.05-.02,.11-.04,.17-.05h0c.06,0,.12,0,.18,0h0s0,0,0,0c.54,.04,1.01,.32,1.41,.67,.8,.72,1.27,1.76,1.32,1.87,2.45,6.84,.53,14.48-4.86,19.34h0Z"/><path class="cls-18" d="M112.58,377.75c4.14-3.51,6.63-8.85,6.29-14.69-.08-1.43-.34-2.84-.76-4.21-.06-.19-.13-.39-.19-.59-.04-.12-.09-.25-.13-.37-.06,0-.12,0-.18,0h0c-.06,0-.11,.02-.17,.04-.44,.16-.77,.67-1.01,1.35-.55,1.47-.73,3.71-.91,4.64h0c-.03,.24-.07,.47-.12,.69v.04c-.06,.25-.11,.49-.17,.74l-.02,.07-.04,.15c-.02,.06-.03,.13-.05,.19,0,.03-.01,.07-.02,.1l-.02,.1c-.02,.09-.04,.17-.07,.26-.05,.17-.1,.33-.15,.5-.03,.09-.06,.19-.09,.28-.03,.1-.07,.21-.11,.31-.02,.05-.04,.11-.06,.17-.03,.09-.07,.19-.11,.28-.03,.08-.06,.16-.09,.23s-.06,.16-.1,.23c-.1,.23-.2,.46-.31,.68,0,.02-.02,.03-.02,.05l-.03,.06c-.09,.2-.19,.39-.29,.58-.07,.13-.14,.26-.22,.39-.15,.26-.3,.52-.46,.77-.02,.04-.05,.08-.07,.12s-.05,.08-.07,.11l-.03,.04c-.04,.06-.08,.12-.12,.18s-.08,.12-.12,.17c-.05,.07-.1,.14-.15,.21l-.04,.06s-.03,.05-.05,.07c-.07,.1-.15,.2-.22,.3,0,0,0,.01-.01,.01-.05,.07-.1,.14-.16,.2-.02,.03-.05,.06-.08,.1-.08,.1-.16,.2-.25,.3s-.16,.19-.24,.28c-.09,.11-.19,.22-.28,.33-.08,.09-.17,.18-.26,.28s-.17,.17-.25,.26c-.02,.02-.03,.03-.04,.04-.05,.05-.1,.1-.15,.14-.14,.14-.28,.28-.43,.42-.08,.07-.15,.14-.22,.2-.12,.1-.23,.2-.35,.3-.04,.04-.09,.08-.14,.11s-.09,.08-.14,.11c-.06,.05-.12,.1-.17,.14-.01,.01-.03,.02-.04,.03l3.69,2.42Z"/><path class="cls-19" d="M108.89,375.33s3.3,2.27,4.38,4.07c1.71,2.84,2.41,3.75-.61,10.28-.11,.24-.21,.48-.3,.73-.41,1.11-1.25,3.96,4.89-1.61,7.39-6.7,.3-10.86,.3-10.86-2.61-1.51-5.57-2.34-8.65-2.61Z"/><path class="cls-18" d="M118.81,345.83c3.47,.86,6.76,2.32,9.71,4.32,10.07,6.82,15.42,19.34,12.59,31.84,.05-.17,.09-.35,.14-.53,3.15-12.7-2.2-25.53-12.44-32.46-2.96-2-6.25-3.46-9.71-4.32-16.27-4.04-32.74,5.88-36.78,22.16-.05,.2-.09,.39-.14,.59,4.27-15.94,20.55-25.59,36.63-21.6Z"/><path class="cls-22" d="M117.81,349.92c2.97,.73,5.78,1.98,8.32,3.7,8.63,5.84,13.2,16.56,10.78,27.26,.04-.15,.08-.3,.12-.45,2.7-10.87-1.89-21.85-10.65-27.79-2.53-1.71-5.35-2.97-8.32-3.7-13.93-3.46-28.03,5.04-31.49,18.97-.04,.17-.08,.34-.12,.51,3.66-13.65,17.59-21.91,31.36-18.49Z"/></g><g class="cls-76"><path class="cls-26" d="M140.47,364.15l-50.94,30.69c1.36,1.47,2.87,2.81,4.52,3.99l47.84-28.82c-.28-2.01-.76-3.97-1.42-5.86Z"/><path class="cls-26" d="M128.82,349c-.19-.13-.39-.26-.58-.38l-46.73,28.15c.48,5.55,2.48,10.81,5.69,15.23l51.85-31.24c-2.31-4.69-5.81-8.78-10.23-11.76Z"/></g></g><path class="cls-29" d="M429.86,365.29c3.15-1.48,6.24-3.53,9.24-6.16,2.71-2.37,2.98-6.48,.61-9.19-2.37-2.71-6.48-2.98-9.19-.61-7.03,6.15-13.38,7.31-21.23,3.88-7.88-3.44-15.93-11.01-23.72-18.33-11.53-10.84-22.43-21.08-34.84-20.67-6.12,.2-11.78,3.04-16.81,8.44-7.62,8.18-16.44,14.37-25.52,17.9-8.7,3.39-16.84,4.02-23.54,1.82-13.04-4.28-17.3-18.36-18.58-29.41-.41-3.57-3.64-6.13-7.22-5.72-3.57,.41-6.13,3.64-5.72,7.22,1.24,10.67,4.3,19.58,9.1,26.46,4.68,6.71,10.86,11.36,18.34,13.82,9.6,3.15,20.78,2.44,32.33-2.06,10.9-4.24,21.38-11.56,30.32-21.16,2.62-2.81,5.14-4.22,7.71-4.3,7.01-.23,16.4,8.6,25.49,17.14,8.59,8.08,17.48,16.43,27.43,20.78,8.99,3.93,17.62,3.97,25.78,.15Z"/><path class="cls-29" d="M315.15,337.42c.89-.48,1.77-1,2.65-1.53-.88,.53-1.76,1.05-2.65,1.53Z"/><path class="cls-29" d="M261.65,307.46c.41,.12,.8,.28,1.17,.47-.37-.19-.76-.35-1.17-.47Z"/><path class="cls-29" d="M259.07,307.25c.67-.08,1.33-.05,1.96,.07-.63-.12-1.29-.15-1.96-.07-.37,.04-.73,.12-1.07,.22,.35-.1,.7-.18,1.07-.22Z"/><path class="cls-29" d="M333.93,322.65c.63-.67,1.27-1.31,1.92-1.9-.65,.59-1.29,1.23-1.92,1.9-3.81,4.09-7.92,7.68-12.21,10.69,4.29-3.01,8.4-6.6,12.21-10.69Z"/><path class="cls-29" d="M255.82,308.58c-.27,.21-.52,.43-.75,.67,.23-.24,.48-.47,.75-.67Z"/><path class="cls-29" d="M253.33,313.29c.02-.32,.07-.63,.14-.93,0-.03,0-.05,.01-.08-.07,.33-.13,.67-.15,1.01Z"/><path class="cls-29" d="M255.95,308.48c.26-.2,.54-.37,.83-.53-.29,.15-.57,.33-.83,.53Z"/><path class="cls-29" d="M256.93,307.88c.3-.15,.61-.28,.94-.38-.33,.1-.64,.23-.94,.38Z"/><path class="cls-29" d="M418.93,355.05c-.43,.04-.87,.06-1.31,.07,.44,0,.88-.03,1.31-.07Z"/><path class="cls-29" d="M253.83,311.17c-.13,.31-.24,.64-.32,.97,0-.04,.02-.07,.03-.1,.06-.24,.14-.47,.23-.7,.02-.05,.03-.11,.06-.17Z"/><path class="cls-29" d="M418.93,355.05c1.3-.12,2.59-.42,3.87-.88-1.28,.46-2.57,.75-3.87,.88Z"/><path class="cls-29" d="M385.66,334.96s-.06-.06-.09-.08c-1.44-1.36-2.87-2.7-4.3-4.02,1.43,1.32,2.86,2.66,4.3,4.02,.03,.03,.06,.06,.09,.08Z"/><path class="cls-29" d="M435.24,347.74s.05,0,.08,0c-.03,0-.05,0-.08,0Z"/><path class="cls-29" d="M388.41,337.54c.52,.49,1.04,.97,1.57,1.46-.52-.48-1.05-.97-1.57-1.46Z"/><path class="cls-29" d="M367.41,319.62c1.07,.69,2.15,1.43,3.21,2.22-1.07-.79-2.14-1.53-3.21-2.22Z"/><path class="cls-29" d="M360.89,316.17c-2.93-1.2-5.92-1.9-9-1.96,3.08,.06,6.07,.77,9,1.96Z"/><path class="cls-29" d="M360.89,316.17c1.83,.75,3.64,1.69,5.44,2.78-1.8-1.09-3.61-2.03-5.44-2.78Z"/><path class="cls-29" d="M372.76,323.47c1.06,.84,2.13,1.72,3.19,2.63-1.06-.91-2.13-1.79-3.19-2.63Z"/><path class="cls-29" d="M441.32,354.17s0,.07,0,.1c0,.02,0,.04,0,.06,0-.05,0-.11,0-.16Z"/><path class="cls-29" d="M441.25,355.2c-.02,.13-.05,.26-.08,.39-.02,.09-.03,.18-.05,.27,.06-.22,.1-.44,.13-.67Z"/><path class="cls-29" d="M441.12,355.87s-.01,.03-.02,.05c0,.01,0,.03,0,.04,0-.03,.02-.06,.02-.09Z"/><path class="cls-29" d="M441.27,355.08s0,.01,0,.02c0,.01,0,.03,0,.04,0-.02,0-.04,0-.06Z"/><path class="cls-29" d="M441.32,354.45c0,.08-.01,.16-.02,.24,0,.07,0,.14-.01,.2,.02-.15,.03-.3,.03-.45Z"/><path class="cls-29" d="M254.37,310.15c.19-.29,.41-.57,.65-.83-.24,.26-.46,.53-.65,.83Z"/><path class="cls-75" d="M440.86,356.65c.1-.24,.18-.48,.24-.73,.03-.11,.04-.22,.07-.33,.03-.16,.07-.33,.09-.49,.02-.13,.02-.27,.03-.4,.01-.14,.02-.28,.02-.42,0-.15,0-.29-.02-.44,0-.13-.02-.25-.03-.38-.02-.16-.04-.31-.07-.47-.02-.12-.05-.23-.08-.34-.04-.16-.08-.32-.14-.48-.03-.1-.08-.2-.12-.31-.06-.16-.13-.33-.21-.49-.04-.09-.09-.17-.14-.26-.09-.17-.18-.34-.29-.5,0,0,0,0,0-.01-.22,.27-.47,.54-.74,.78-3.01,2.63-6.09,4.68-9.24,6.16-8.16,3.82-16.79,3.78-25.78-.15-9.94-4.34-18.83-12.7-27.43-20.78-9.09-8.54-18.53-15.76-25.53-15.53-2.57,.09-5.09,1.49-7.71,4.3-8.94,9.6-19.43,16.92-30.32,21.16-11.55,4.5-22.73,5.21-32.33,2.06-7.49-2.46-13.66-7.11-18.34-13.82-4.24-6.07-7.08-15.33-8.55-24.37-.13,.22-.26,.43-.36,.67,0,0,0,0,0,0-.04,.08-.06,.17-.1,.26-.09,.23-.17,.46-.23,.7-.03,.1-.05,.21-.08,.31-.07,.31-.12,.62-.14,.95-.02,.38-.02,.77,.03,1.16,1.24,10.67,4.3,19.58,9.1,26.46,4.68,6.71,10.86,11.36,18.34,13.82,9.6,3.15,20.78,2.44,32.33-2.06,10.9-4.24,21.38-11.56,30.32-21.16,2.62-2.81,5.14-4.22,7.71-4.3,7.01-.23,16.4,8.6,25.49,17.14,8.59,8.08,17.48,16.43,27.43,20.78,8.99,3.93,17.62,3.97,25.78,.15,3.15-1.48,6.24-3.53,9.24-6.16,.8-.7,1.38-1.56,1.75-2.49Z"/><path class="cls-29" d="M440.86,356.64c.09-.21,.16-.43,.22-.65-.06,.22-.14,.44-.22,.65Z"/><path class="cls-29" d="M441.26,353.29c0,.05,0,.11,.01,.16,0,.04,.02,.09,.02,.13,0-.1-.02-.2-.04-.29Z"/><path class="cls-29" d="M441.3,353.65c0,.06,0,.12,0,.18,0,.09,.02,.17,.02,.26,0-.15-.02-.29-.03-.44Z"/><path class="cls-29" d="M440.35,350.81c.06,.1,.11,.2,.17,.3,.03,.06,.07,.11,.1,.17-.08-.16-.17-.32-.27-.47Z"/><path class="cls-29" d="M440.22,350.61s0,0,0,0c-.15-.23-.32-.46-.51-.67-.59-.68-1.29-1.2-2.05-1.57,.76,.37,1.46,.89,2.05,1.57,.18,.21,.34,.43,.49,.65,0,0,0,0,0,0,0,0,0,0,0,.01Z"/><path class="cls-29" d="M440.74,351.54c.05,.1,.08,.21,.12,.31,.03,.07,.06,.13,.09,.2-.06-.17-.13-.34-.2-.51Z"/><path class="cls-29" d="M253.88,311.07c.1-.23,.22-.46,.35-.67,0,0,0,.01,0,.02,.05-.08,.09-.18,.14-.26-.19,.29-.35,.6-.49,.91Z"/><path class="cls-29" d="M440.64,351.34s0,.02,.01,.03c0,.01,.02,.03,.02,.04-.01-.02-.02-.04-.03-.07Z"/><path class="cls-29" d="M440.95,352.05s.02,.07,.03,.11c.02,.05,.04,.09,.05,.13-.03-.08-.05-.16-.08-.24Z"/><path class="cls-29" d="M441.22,353.11c-.04-.22-.09-.43-.15-.64,.02,.06,.02,.11,.04,.17,.03,.11,.06,.23,.08,.34,0,.04,.02,.08,.03,.13Z"/><polygon class="cls-83" points="146.83 200.44 142.35 200.58 135.38 214.84 135.18 280.43 179.51 294.69 172.84 291.45 146.83 200.44"/><g class="cls-15"><g class="cls-74"><path class="cls-7" d="M128.79,268.33s11.88-9.02,45.68,0"/><path class="cls-7" d="M128.79,240.34s19.8-5.51,35.43,6.56"/><path class="cls-7" d="M136.33,205.01s16.82,16.79,22.51,24.4"/></g><g class="cls-74"><path class="cls-3" d="M128.79,268.33s11.88-9.02,45.68,0"/><path class="cls-3" d="M128.79,240.34s19.8-5.51,35.43,6.56"/><path class="cls-3" d="M136.33,205.01s16.82,16.79,22.51,24.4"/></g><g class="cls-74"><path class="cls-2" d="M128.79,268.33s11.88-9.02,45.68,0"/><path class="cls-2" d="M128.79,240.34s19.8-5.51,35.43,6.56"/><path class="cls-2" d="M136.33,205.01s16.82,16.79,22.51,24.4"/></g></g><path class="cls-67" d="M165.92,276.41c-13.17-3.73-28.27,2-30.05,3.38-1.78,1.38-3.29,4.68-2.76,6.95s.76,7.57,.76,7.57c0,0,.49,1.91,1.32,2.51l1.65-1.82c.65-1.1,3-2.22,10.98-.3,12.73,3.07,22.95,5.89,23.85,7.03,.9,1.14-1.9,3.79-1.47,4.56s4.02,2.38,8.36-1.39c4.33-3.76,7.28-13.6,7.38-17.44,.1-3.84-6.84-7.33-20.01-11.06Z"/><g class="cls-74"><path class="cls-1" d="M164.22,287.78c.42-4.73,.59-9.83,.36-11.69-12.83-3.01-26.99,2.37-28.71,3.7-1.78,1.38-3.29,4.68-2.76,6.95,.05,.2,.09,.44,.14,.68,1.66-.84,3.52-1.5,5.32-1.78,7.9-1.24,16.66-.48,25.66,2.13Z"/><path class="cls-1" d="M170.16,289.76c.27,.1,.54,.19,.82,.29,6.76,2.64,10.5,4.81,12.63,6.71,1.42-3.58,2.26-7.27,2.32-9.29,.09-3.34-5.16-6.41-15.19-9.61,.05,2.97-.15,6.91-.37,9.63-.07,.81-.14,1.55-.21,2.26Z"/><path class="cls-1" d="M163.5,293.65c-8.45-2.59-16.62-3.38-23.89-2.25-2.64,.41-5.05,1.97-5.61,2.62-.03,.18-.01,.48,.03,.82,.36,1.08,1.33,3.3,2.64,1.48,0,0-1.58-4.68,11.14-1.61,3.8,.92,7.38,1.81,10.55,2.64,1.82-.16,3.59-.47,4.41-.85,.26-.57,.5-1.58,.72-2.86Z"/><path class="cls-1" d="M180.49,302.62c-.33-1.79-4.1-4.13-11.18-6.94-.5,2.4-1.05,3.65-1.55,4.37,2.2,.72,3.61,1.31,3.91,1.69,.9,1.14-1.9,3.79-1.47,4.56,.42,.77,4.02,2.38,8.36-1.39,.69-.6,1.34-1.37,1.96-2.23,0-.02-.01-.05-.01-.07Z"/><path class="cls-35" d="M168.74,295.45c-1.76-.69-3.5-1.27-5.24-1.8-.22,1.28-.46,2.28-.72,2.86-.82,.38-2.59,.69-4.41,.85,3.83,1.01,7.06,1.92,9.39,2.69,.5-.72,1.05-1.97,1.55-4.37-.19-.08-.37-.15-.57-.23Z"/><path class="cls-35" d="M170.16,289.76c.07-.71,.14-1.46,.21-2.26,.22-2.72,.42-6.66,.37-9.63-1.5-.48-3.11-.96-4.82-1.45-.44-.13-.89-.21-1.34-.32,.23,1.85,.06,6.96-.36,11.69,1.97,.57,3.96,1.22,5.95,1.98Z"/><path class="cls-35" d="M170.16,289.76c-.25,2.51-.55,4.44-.86,5.92,7.09,2.81,10.85,5.15,11.18,6.94,0,.02,.01,.05,.01,.07,1.21-1.69,2.26-3.79,3.1-5.93-2.13-1.9-5.87-4.07-12.63-6.71-.27-.11-.54-.19-.82-.29Z"/><path class="cls-35" d="M139.62,291.4c7.27-1.14,15.44-.34,23.89,2.25,.28-1.64,.52-3.71,.72-5.87-9-2.61-17.76-3.37-25.66-2.13-1.79,.28-3.66,.94-5.32,1.78,.44,2.5,.63,6.89,.63,6.89,0,0,.06,.22,.16,.53-.04-.34-.05-.64-.03-.82,.56-.65,2.96-2.21,5.61-2.62Z"/><path class="cls-35" d="M170.16,289.76c-1.99-.75-3.97-1.4-5.95-1.98-.19,2.16-.43,4.24-.72,5.87,1.74,.53,3.48,1.11,5.24,1.8,.2,.08,.38,.15,.57,.23,.31-1.48,.6-3.41,.86-5.92Z"/></g><g class="cls-74"><path class="cls-1" d="M165.13,289.07c.49-4.82,.71-10.35,.5-12.72-13.1-3.57-28,2.08-29.77,3.44-1.78,1.38-3.29,4.68-2.76,6.95,.11,.46,.21,1.06,.29,1.71,1.64-.88,3.55-1.57,5.34-1.85,8.1-1.27,17.13-.4,26.4,2.46Z"/><path class="cls-1" d="M169.07,290.4c.51,.19,1.02,.35,1.53,.55,7.03,2.75,10.66,4.92,12.6,6.78,1.66-3.87,2.66-8.06,2.72-10.26,.09-3.45-5.52-6.61-16.21-9.93,.07,2.72-.09,6.58-.36,9.86-.09,1.1-.19,2.08-.29,2.99Z"/><path class="cls-1" d="M164.65,292.98c-8.9-2.85-17.54-3.73-25.21-2.53-2.3,.36-4.51,1.54-5.65,2.43,.05,.86,.08,1.44,.08,1.44,0,0,1.12,4.35,2.8,2.01,0,0-1.58-4.68,11.14-1.61,4.83,1.16,9.3,2.29,13.04,3.31,1.15-.2,2.16-.47,2.71-.82,.4-.62,.77-2.19,1.08-4.23Z"/><path class="cls-1" d="M169.11,294.55c-.2-.08-.39-.14-.59-.21-.6,3.38-1.26,4.74-1.8,5.38,2.79,.87,4.59,1.58,4.94,2.02,.9,1.14-1.9,3.79-1.47,4.56,.42,.77,4.02,2.38,8.36-1.39,.97-.84,1.86-1.99,2.67-3.3-.63-1.26-2.88-3.46-12.11-7.07Z"/><path class="cls-35" d="M164.65,292.98c-.31,2.04-.68,3.61-1.08,4.23-.56,.35-1.56,.61-2.71,.82,2.26,.61,4.24,1.18,5.88,1.7,.53-.64,1.2-1.99,1.8-5.38-1.3-.49-2.59-.95-3.88-1.36Z"/><path class="cls-35" d="M169.07,290.4c.1-.91,.2-1.89,.29-2.99,.27-3.28,.43-7.14,.36-9.86-1.21-.37-2.47-.75-3.8-1.13-.09-.03-.19-.04-.28-.07,.21,2.37-.01,7.9-.5,12.72,1.31,.4,2.62,.85,3.94,1.33Z"/><path class="cls-35" d="M169.07,290.4c-.17,1.55-.35,2.85-.55,3.94,.2,.07,.39,.13,.59,.21,9.23,3.6,11.47,5.8,12.11,7.07,.74-1.19,1.41-2.51,1.99-3.88-1.94-1.86-5.57-4.04-12.6-6.78-.51-.2-1.02-.36-1.53-.55Z"/><path class="cls-35" d="M139.44,290.44c7.67-1.2,16.31-.32,25.21,2.53,.18-1.18,.35-2.51,.49-3.91-9.27-2.86-18.3-3.73-26.4-2.46-1.79,.28-3.7,.97-5.34,1.85,.19,1.47,.32,3.22,.39,4.43,1.13-.9,3.34-2.07,5.65-2.43Z"/><path class="cls-35" d="M169.07,290.4c-1.32-.48-2.63-.93-3.94-1.33-.14,1.4-.31,2.73-.49,3.91,1.29,.41,2.58,.87,3.88,1.36,.19-1.09,.38-2.39,.55-3.94Z"/></g><g class="cls-74"><path class="cls-1" d="M165.75,292.31c-9.34-3.1-18.43-4.08-26.48-2.82-2.11,.33-4.17,1.29-5.55,2.23,.11,1.45,.16,2.6,.16,2.6,0,0,1.12,4.35,2.8,2.01,0,0-1.58-4.68,11.14-1.61,5.72,1.38,10.92,2.7,15,3.85,.59-.18,1.11-.39,1.47-.65,.56-.47,1.06-2.71,1.46-5.61Z"/><path class="cls-1" d="M170.23,291.85c7.4,2.89,10.87,5.12,12.55,6.86,1.92-4.13,3.08-8.84,3.14-11.23,.1-3.56-5.88-6.82-17.26-10.25,.1,3.26-.09,8.97-.68,13.82,.75,.27,1.49,.51,2.24,.81Z"/><path class="cls-1" d="M165.99,290.33c.55-4.9,.83-10.84,.66-13.7-.25-.07-.49-.14-.74-.22-13.17-3.73-28.27,2-30.05,3.38-1.78,1.38-3.29,4.68-2.76,6.95,.17,.71,.31,1.72,.41,2.76,1.55-.89,3.47-1.64,5.39-1.94,8.28-1.3,17.56-.34,27.08,2.77Z"/><path class="cls-1" d="M169.48,293.65c-.59-.23-1.18-.42-1.77-.64-.48,3.09-1.17,5.56-2.09,6.36,3.43,1.03,5.64,1.86,6.04,2.36,.9,1.14-1.9,3.79-1.47,4.56,.42,.77,4.02,2.38,8.36-1.39,1.2-1.04,2.29-2.56,3.24-4.28-1.08-1.5-3.98-3.74-12.31-6.99Z"/><path class="cls-35" d="M167.99,291.04c.59-4.85,.78-10.56,.68-13.82-.65-.2-1.33-.39-2.01-.59,.17,2.86-.11,8.8-.66,13.7,.66,.22,1.33,.47,1.99,.71Z"/><path class="cls-35" d="M165.75,292.31c-.4,2.9-.9,5.13-1.46,5.61-.36,.26-.88,.47-1.47,.65,1,.28,1.95,.55,2.81,.81,.92-.8,1.61-3.27,2.09-6.36-.66-.24-1.31-.49-1.97-.71Z"/><path class="cls-35" d="M167.99,291.04c-.08,.68-.17,1.34-.27,1.97,.59,.21,1.18,.41,1.77,.64,8.33,3.25,11.23,5.49,12.31,6.99,.35-.62,.68-1.27,.99-1.93-1.68-1.73-5.15-3.97-12.55-6.86-.75-.29-1.5-.54-2.24-.81Z"/><path class="cls-35" d="M165.75,292.31c.09-.63,.17-1.29,.25-1.97-9.52-3.11-18.81-4.07-27.08-2.77-1.92,.3-3.84,1.06-5.39,1.94,.08,.75,.14,1.51,.19,2.21,1.38-.94,3.44-1.9,5.55-2.23,8.06-1.26,17.15-.28,26.48,2.82Z"/><path class="cls-35" d="M167.99,291.04c-.66-.24-1.33-.49-1.99-.71-.08,.68-.16,1.34-.25,1.97,.65,.22,1.31,.47,1.97,.71,.1-.63,.19-1.29,.27-1.97Z"/></g><path class="cls-13" d="M211.02,183.59l-52.99,22.92,.82,22.89,21.37,7.03,26.33-25.06s5.65-21.49,5.77-21.94-1.29-5.85-1.29-5.85Z"/><path class="cls-84" d="M163.53,226.9c.61-1.25,1.54-2.32,2.7-3.08,3.53-2.29,11.67-6.95,19.73-6.95,10.7,0,23.72,1.88,29.07,7.52,4.18,4.4-10.33,14.87-16.9,19.25-1.9,1.27-4.27,1.62-6.47,.97l-23.38-6.93c-4.57-1.36-6.84-6.49-4.75-10.78h0Z"/><path class="cls-91" d="M159.19,209.87s11.61,18.88,48.8-11.63c-6,15.62-17.84,33.12-17.84,33.12l-30.09,8.98s-3.72-23.49-3.73-24.43,2.86-6.04,2.86-6.04Z"/><path class="cls-63" d="M211.02,183.59s-6.99,28.58-29.48,44.18c-24.75,13.57-22.69-23.45-22.69-23.45l-13.4-3.45,10.68,56.52,5.49,4.99,22.2,57.56,49.37-5.05,5.81-71.96,16.45-51-44.43-8.33Z"/><path class="cls-4" d="M155.51,235.59s43.58-1.89,70.85-8.71"/><path class="cls-5" d="M155.51,235.58s43.49-1.89,70.7-8.69"/><path class="cls-8" d="M155.51,235.73s45.01-1.95,73.17-8.99"/><path class="cls-66" d="M170.47,230.67s-.34,6.51,.92,18.63,7,4.7,7,4.7c0,0-1.97-21-1.55-24.15-4.18,.81-6.36,.81-6.36,.81Z"/><circle class="cls-14" cx="173.33" cy="234.51" r="1.93" transform="translate(-32.12 27.56) rotate(-8.32)"/><circle class="cls-45" cx="173.65" cy="245.64" r="1.93" transform="translate(-33.73 27.73) rotate(-8.32)"/><path class="cls-50" d="M275.18,413.8s29.4-19.22,30.99-21.71,3.51-8.59,2.15-14.7-6.56-13.57-9.73-14.93-11.53,0-11.53,0l-16.96,32,5.09,19.34Z"/><path class="cls-78" d="M262.06,424.99l2.71-2.15s1.02,.9,2.04,1.07,3.39-2.21,3.28-3.22,.23-2.94,.9-1.81,4.18-1.13,4.18-3.05-.9-30.08-.9-30.08l-12.21,39.24Z"/><path class="cls-68" d="M288.4,266.86c-2.56-11.55-4.27-10.54-13.22-11.81-8.95-1.28-45.89-12.06-49.28-13.82h0c-7.58-5.28-23.29-3.58-36.64-3.77-16.12-.22-34.09,2.27-34.34,6.18-.25,3.91,1.78,8.34,3.81,16.12,2.03,7.78,13.29,33.33,18.5,43.12,5.21,9.8,3.18,27.17,3.18,27.17h.17s-12.33,35.57-12.33,35.57l-10.86,31.38-4.24,11.37,12.38,15.95,20.02,1.53,26.63-6.45,7.46,8.82,26.29,3.39,16.12-6.62s3.73-8.93,4.52-14.25,18.89-38.79,18.89-38.79c0,0,8.59-23.75,9.39-33.93,.79-10.18,1.47-19.68,1.24-24.65,0,0,.89,1.94,1.47-5.09,.58-7.03-6.62-29.88-9.18-41.43Z"/><path class="cls-70" d="M168.99,291.17s-.11,1.85,.82,6.87,6.27,12.74,6.47,18.32,1.82,5.95,3.4,5.69,29.47-3.33,40.6,.7c11.13,4.04,16.07-3.78,16.86-11.32s1.29-27.64-1.37-28.53-46.45,2.45-55.02,2.99-11.76,5.27-11.76,5.27Z"/><path class="cls-41" d="M302.66,395.06s3.62-14.17,.91-20.62-10.29-11.5-10.74-12.59-.45-1.21,2.37-1.77,5.54,1.02,12.89,2.37,9.39,7.35,9.61,10.18-1.58,18.66-5.54,30.76c-3.96,12.1-3.39,16.62-5.09,19s-8.59,6.56-13.91,6.56-13.08-2.6-14.59-9.5l-1.5-6.89,25.59-17.5Z"/><path class="cls-38" d="M295.24,400.13l-16.79,11.48c.16,1.5,.54,2.65,1.31,2.77,2.38,.38,12.09,2.79,13.96-2.57,1.16-3.31,1.47-8.31,1.52-11.68Z"/><polygon class="cls-39" points="233.18 314.88 255.95 297.43 273.44 209.87 265.28 298.79 260.87 299.64 263.59 304.05 258.54 312.28 233.18 314.88"/><path class="cls-62" d="M274.54,204.32l-1.11,5.55-4.03,44.01c2.42,.56,4.42,.98,5.78,1.17,4.19,.6,6.8,.69,8.64,1.82l2.57,3.8-11.85-56.34Z"/><polygon class="cls-42" points="271.48 231.25 268.96 231.75 267.1 241.61 270.6 240.85 271.48 231.25"/><path class="cls-71" d="M167.12,252l-5.15-12.51-2.69-9.14-.19-40.82s-8.32-.38-11.24,2.51-3.07,25.52,.97,41.62c3.25,12.94,7.22,20.56,8.65,23.04,.3,.52,.94,.73,1.5,.5l7.29-3.1c.81-.35,1.2-1.28,.86-2.1Z"/><g><path class="cls-64" d="M159.87,202.89s-1.16,20.92,10.61,27.78c-5.6,.76-5.95-3.32-7.73-3.58s-4.39-16.09-12.23-10.22c-3.57-2.94,1.59-15.83,1.59-15.83l7.76,1.84Z"/><path class="cls-65" d="M170.47,230.67s15.96-2.82,26.18-19.15,12.23-24.38,12.23-24.38l2.19-7.15,12.26,9.53s-3.44,19.57-2.87,23.79-.39,2.81-4.7,1.4-11.8-2.68-15.33,0-9.42,9.57-14.52,13.02-11.64,4.48-15.45,2.94Z"/></g><polygon class="cls-72" points="231.64 351.26 221.24 346.96 212.19 355.56 213.72 375.12 200.32 407.35 199.71 411.69 180.8 413.45 168.46 406.29 161.9 419.62 165.54 424.32 185.56 425.84 198.15 422.79 212.19 419.4 209.82 407.35 231.64 351.26"/><path class="cls-48" d="M179.59,364.82s-3.38,2.78-7.24,3.79-6.44,.48-7.59,1.38,4.39,4.61,4.39,4.61c0,0,9.5-5.75,10.13-7.35s.31-2.43,.31-2.43Z"/><g><g><path class="cls-30" d="M175.13,382.87c7.05,14.66,.89,32.27-13.78,39.32-.77,.37-1.54,.7-2.33,1-14.15,5.39-30.31-.88-37-14.77-7.05-14.66-.89-32.27,13.78-39.32,3.12-1.51,6.48-2.45,9.93-2.78,11.95-1.16,23.88,5.12,29.39,16.56Z"/><path class="cls-25" d="M174.17,379.63c7.18,14.93,.9,32.86-14.03,40.05-.78,.38-1.57,.71-2.37,1.01-14.41,5.49-30.87-.89-37.68-15.05-7.18-14.93-.9-32.86,14.03-40.05,3.18-1.53,6.6-2.49,10.12-2.83,12.17-1.18,24.32,5.21,29.93,16.86Z"/><path class="cls-17" d="M170.27,381.51c6.15,12.78,.77,28.12-12.01,34.27-.67,.32-1.34,.61-2.03,.87-12.33,4.7-26.42-.76-32.24-12.87-6.15-12.78-.77-28.12,12.01-34.27,2.72-1.31,5.65-2.13,8.66-2.43,10.41-1.01,20.81,4.46,25.61,14.43Z"/><path class="cls-16" d="M134.61,366.66c3.18-1.53,6.6-2.49,10.11-2.83,11.96-1.16,23.91,5,29.63,16.29-.07-.16-.15-.32-.23-.49-5.6-11.65-17.75-18.03-29.91-16.86-3.51,.34-6.93,1.3-10.11,2.83-14.92,7.18-21.2,25.1-14.02,40.03,.09,.18,.18,.36,.27,.54-6.79-14.82-.49-32.41,14.26-39.51Z"/><path class="cls-30" d="M136.43,370.4c2.72-1.31,5.65-2.13,8.66-2.43,10.24-.99,20.47,4.28,25.37,13.95-.06-.14-.13-.28-.19-.42-4.8-9.97-15.2-15.44-25.61-14.43-3.01,.29-5.94,1.11-8.66,2.43-12.78,6.15-18.15,21.49-12.01,34.27,.07,.15,.15,.31,.23,.46-5.82-12.69-.42-27.75,12.21-33.83Z"/></g><g><polygon class="cls-25" points="139.38 386.11 143.68 386.52 146.12 382.94 141.81 382.54 139.38 386.11"/><polygon class="cls-25" points="135.3 398.75 131.01 398.34 136.07 409.13 147.75 410.2 145.88 406.22 138.51 405.53 135.3 398.75"/><polygon class="cls-25" points="132.11 391.95 134.55 388.37 130.24 387.97 127.81 391.54 129.67 395.5 133.97 395.91 132.11 391.95"/><polygon class="cls-25" points="155.24 381.09 157.1 385.05 159.55 381.47 157.69 377.51 153.37 377.11 150.94 380.68 155.24 381.09"/><polygon class="cls-25" points="158.45 387.87 161.63 394.68 157.45 400.78 159.32 404.76 165.95 395.1 160.88 384.3 158.45 387.87"/><polygon class="cls-25" points="140.26 402.99 144.55 403.38 142.69 399.42 138.39 399.01 140.26 402.99"/><polygon class="cls-25" points="148.96 406.51 150.82 410.47 155.12 410.88 157.57 407.31 155.71 403.35 153.26 406.92 148.96 406.51"/><polygon class="cls-25" points="156.68 390.42 154.26 393.99 156.12 397.95 158.55 394.4 156.68 390.42"/><polygon class="cls-25" points="140.48 379.71 147.87 380.4 150.3 376.83 138.62 375.75 132.01 385.42 136.31 385.83 140.48 379.71"/><polygon class="cls-25" points="153.49 383.63 153.51 383.62 149.19 383.22 145.01 389.35 137.65 388.64 135.2 392.22 137.07 396.2 144.46 396.87 147.66 403.69 151.95 404.08 154.38 400.53 151.18 393.71 155.38 387.6 153.49 383.63"/></g><g class="cls-76"><path class="cls-26" d="M162.64,366.95l-19.42,55.44c1.96,.26,3.95,.33,5.95,.19l18.24-52.07c-1.48-1.35-3.07-2.54-4.77-3.56Z"/><path class="cls-26" d="M144.24,362.77c-.23,.02-.46,.05-.68,.07l-17.82,50.85c3.86,3.93,8.7,6.66,13.92,8.01l19.77-56.43c-4.71-2.12-9.95-3.01-15.19-2.51Z"/></g></g><path class="cls-51" d="M180.81,363.12s12.49-16.79,21.68-28.64,28.53-36.74,32.28-39.29,1.93-4.39,1.93-4.39l36.73,5.28s1.96,10.28-1.96,16.2-20.99,28.05-30.35,34.69-45.49,35.86-45.49,35.86l-18.87-7.87,4.04-11.83Z"/><path class="cls-49" d="M93.08,376.18s-3.83-.82-5.8-.25-5.09,1.1-6.19,6.7,3.33,14.41,4.2,16.48,4.94,5.11,7.35,4.59c2.41-.52,8.67-2.39,10.39-4.37,1.72-1.99-.04-4.97-.88-5.14s.73-.99,.71-2.73-1.53-4.03-2.06-4.01-1.53-.55-1.07-.63,.81-3.14-.19-4.44-2.18-1.25-2.24-1.31l-.06-.06s1.05-.48,.98-1.04,.77-2.21-5.13-3.8Z"/><path class="cls-47" d="M180.81,363.12s-1.83,3.01-4.14,4.39-8.89,7.07-11.26,10.24-2.25,8.43-3.85,11.02-7.66,9.66-8.74,11.63-1.44,3.95-.47,4.85-.24,2.43,.8,3.54,2.28,1.34,3.81,.54-.19,1.35,2.77,1.43c2.97,.08,5.12-1.85,5.71-.61s.35,3.2,6.62-1.93,11.25-7.06,14.23-15.82,9.34-9.56,9.34-9.56l-14.83-19.7Z"/><polygon class="cls-61" points="228.55 294.26 226.21 224.96 235.01 205.07 255.45 191.92 274.54 204.32 279.91 301.88 228.55 294.26"/><g class="cls-73"><g class="cls-74"><path class="cls-7" d="M265.74,283.65s-.27-77.28-9.37-94.13"/><path class="cls-7" d="M225.28,269.35s34.45-8.3,54.11-4.34"/><path class="cls-7" d="M223.36,252.61s19.64-20.34,57.94-17.53"/><path class="cls-7" d="M224.19,233.77c.54-.19,21.83-39.07,58.45-30.34"/></g><g class="cls-74"><path class="cls-3" d="M265.74,283.65s-.27-77.28-9.37-94.13"/><path class="cls-3" d="M225.28,269.35s34.45-8.3,54.11-4.34"/><path class="cls-3" d="M223.36,252.61s19.64-20.34,57.94-17.53"/><path class="cls-3" d="M224.19,233.77c.54-.19,21.83-39.07,58.45-30.34"/></g><g class="cls-74"><path class="cls-6" d="M265.74,283.65s-.27-77.28-9.37-94.13"/><path class="cls-6" d="M225.28,269.35s34.45-8.3,54.11-4.34"/><path class="cls-6" d="M223.36,252.61s19.64-20.34,57.94-17.53"/><path class="cls-6" d="M224.19,233.77c.54-.19,21.83-39.07,58.45-30.34"/></g></g><path class="cls-60" d="M263.53,279.65c-15.85-4.49-34.03,2.41-36.18,4.07-2.14,1.66-3.97,5.64-3.32,8.37s.92,9.12,.92,9.12c0,0,.6,2.3,1.59,3.03l1.98-2.19c.78-1.33,3.62-2.68,13.22-.36,15.32,3.69,27.62,7.09,28.71,8.46,1.09,1.37-2.29,4.57-1.78,5.49s4.84,2.86,10.06-1.67c5.22-4.53,8.76-16.37,8.88-20.99,.12-4.62-8.24-8.82-24.09-13.31Z"/><g class="cls-74"><path class="cls-1" d="M261.48,293.34c.51-5.69,.71-11.84,.43-14.07-15.45-3.62-32.49,2.85-34.56,4.45-2.14,1.66-3.97,5.64-3.32,8.37,.06,.24,.11,.53,.16,.82,2-1.02,4.24-1.81,6.4-2.15,9.51-1.49,20.06-.57,30.89,2.57Z"/><path class="cls-1" d="M268.64,295.72c.33,.12,.65,.22,.98,.35,8.13,3.18,12.64,5.79,15.2,8.08,1.71-4.32,2.72-8.75,2.79-11.18,.11-4.02-6.21-7.72-18.28-11.57,.06,3.58-.18,8.32-.44,11.59-.08,.97-.16,1.87-.25,2.73Z"/><path class="cls-1" d="M260.62,300.4c-10.17-3.12-20.01-4.07-28.76-2.7-3.18,.5-6.08,2.38-6.75,3.16-.03,.22-.02,.58,.03,.99,.44,1.3,1.6,3.98,3.18,1.78,0,0-1.91-5.63,13.42-1.94,4.58,1.1,8.88,2.18,12.7,3.18,2.19-.19,4.33-.56,5.31-1.02,.31-.69,.6-1.91,.87-3.44Z"/><path class="cls-1" d="M281.07,311.2c-.39-2.16-4.93-4.97-13.46-8.36-.61,2.89-1.26,4.39-1.87,5.26,2.65,.87,4.34,1.57,4.71,2.04,1.09,1.37-2.29,4.57-1.78,5.49,.51,.92,4.84,2.86,10.06-1.67,.83-.72,1.61-1.64,2.35-2.68,0-.03-.01-.06-.02-.09Z"/><path class="cls-35" d="M266.92,302.57c-2.11-.83-4.21-1.52-6.3-2.16-.26,1.54-.56,2.75-.87,3.44-.99,.46-3.12,.83-5.31,1.02,4.61,1.21,8.5,2.32,11.3,3.23,.61-.87,1.27-2.37,1.87-5.26-.23-.09-.45-.18-.69-.27Z"/><path class="cls-35" d="M268.64,295.72c.09-.86,.17-1.75,.25-2.73,.27-3.27,.51-8.01,.44-11.59-1.81-.58-3.74-1.16-5.81-1.74-.53-.15-1.08-.26-1.61-.38,.28,2.23,.08,8.38-.43,14.07,2.38,.69,4.76,1.47,7.16,2.38Z"/><path class="cls-35" d="M268.64,295.72c-.31,3.02-.66,5.34-1.03,7.12,8.53,3.38,13.07,6.2,13.46,8.36,0,.02,.01,.06,.02,.09,1.46-2.04,2.72-4.56,3.74-7.13-2.56-2.29-7.07-4.9-15.2-8.08-.33-.13-.65-.23-.98-.35Z"/><path class="cls-35" d="M231.86,297.7c8.75-1.37,18.59-.41,28.76,2.7,.34-1.97,.63-4.47,.86-7.07-10.83-3.14-21.38-4.06-30.89-2.57-2.16,.34-4.4,1.13-6.4,2.15,.53,3.01,.75,8.3,.75,8.3,0,0,.07,.26,.2,.64-.05-.4-.07-.77-.03-.99,.67-.78,3.57-2.66,6.75-3.16Z"/><path class="cls-35" d="M268.64,295.72c-2.4-.91-4.78-1.69-7.16-2.38-.23,2.6-.52,5.1-.86,7.07,2.09,.64,4.19,1.34,6.3,2.16,.24,.09,.46,.18,.69,.27,.37-1.78,.72-4.11,1.03-7.12Z"/></g><g class="cls-74"><path class="cls-1" d="M262.59,294.88c.59-5.8,.85-12.46,.6-15.31-15.77-4.3-33.71,2.5-35.84,4.15-2.14,1.66-3.97,5.64-3.32,8.37,.13,.56,.25,1.28,.35,2.05,1.98-1.05,4.27-1.88,6.43-2.22,9.75-1.53,20.62-.48,31.78,2.96Z"/><path class="cls-1" d="M267.33,296.49c.62,.23,1.23,.42,1.85,.66,8.46,3.31,12.84,5.92,15.17,8.17,2-4.66,3.2-9.7,3.27-12.35,.11-4.15-6.65-7.96-19.51-11.95,.08,3.28-.11,7.92-.43,11.87-.11,1.33-.22,2.5-.35,3.6Z"/><path class="cls-1" d="M262,299.59c-10.72-3.43-21.11-4.5-30.35-3.05-2.77,.43-5.43,1.85-6.8,2.93,.06,1.03,.09,1.74,.09,1.74,0,0,1.35,5.24,3.37,2.42,0,0-1.91-5.63,13.42-1.94,5.82,1.4,11.19,2.76,15.69,3.98,1.38-.24,2.6-.56,3.27-.98,.48-.74,.93-2.64,1.3-5.09Z"/><path class="cls-1" d="M267.37,301.49c-.24-.09-.47-.16-.7-.25-.72,4.07-1.52,5.7-2.17,6.47,3.36,1.05,5.52,1.9,5.95,2.44,1.09,1.37-2.29,4.57-1.78,5.49,.51,.92,4.84,2.86,10.06-1.67,1.16-1.01,2.24-2.39,3.21-3.97-.76-1.52-3.47-4.17-14.57-8.51Z"/><path class="cls-35" d="M262,299.59c-.38,2.45-.82,4.35-1.3,5.09-.67,.42-1.88,.74-3.27,.98,2.72,.74,5.1,1.42,7.07,2.04,.64-.77,1.45-2.4,2.17-6.47-1.56-.6-3.12-1.14-4.67-1.64Z"/><path class="cls-35" d="M267.33,296.49c.12-1.1,.24-2.28,.35-3.6,.32-3.95,.51-8.59,.43-11.87-1.46-.45-2.97-.9-4.58-1.36-.11-.03-.23-.05-.34-.08,.25,2.86-.01,9.51-.6,15.31,1.58,.49,3.15,1.02,4.74,1.6Z"/><path class="cls-35" d="M267.33,296.49c-.21,1.86-.43,3.44-.66,4.74,.24,.09,.47,.16,.7,.25,11.11,4.34,13.81,6.99,14.57,8.51,.89-1.43,1.7-3.03,2.4-4.67-2.34-2.24-6.71-4.86-15.17-8.17-.62-.24-1.23-.44-1.85-.66Z"/><path class="cls-35" d="M231.65,296.54c9.23-1.45,19.63-.38,30.35,3.05,.22-1.42,.42-3.03,.59-4.71-11.16-3.44-22.03-4.49-31.78-2.96-2.15,.34-4.45,1.17-6.43,2.22,.23,1.77,.39,3.88,.48,5.33,1.36-1.08,4.02-2.49,6.8-2.93Z"/><path class="cls-35" d="M267.33,296.49c-1.58-.58-3.16-1.12-4.74-1.6-.17,1.68-.37,3.29-.59,4.71,1.55,.5,3.11,1.04,4.67,1.64,.23-1.31,.45-2.88,.66-4.74Z"/></g><g class="cls-74"><path class="cls-1" d="M263.32,298.78c-11.24-3.73-22.18-4.92-31.88-3.4-2.54,.4-5.02,1.56-6.68,2.69,.13,1.75,.19,3.13,.19,3.13,0,0,1.35,5.24,3.37,2.42,0,0-1.91-5.63,13.42-1.94,6.88,1.66,13.14,3.25,18.06,4.63,.71-.22,1.34-.47,1.77-.79,.67-.57,1.27-3.26,1.76-6.75Z"/><path class="cls-1" d="M268.72,298.24c8.91,3.48,13.08,6.17,15.11,8.25,2.31-4.97,3.71-10.64,3.79-13.52,.11-4.29-7.08-8.21-20.78-12.34,.12,3.92-.11,10.8-.82,16.64,.9,.32,1.8,.62,2.7,.97Z"/><path class="cls-1" d="M263.62,296.41c.66-5.9,1-13.05,.8-16.5-.3-.09-.59-.17-.89-.26-15.85-4.49-34.03,2.41-36.18,4.07-2.14,1.66-3.97,5.64-3.32,8.37,.2,.85,.37,2.07,.5,3.33,1.87-1.07,4.17-1.98,6.49-2.34,9.96-1.56,21.14-.41,32.6,3.33Z"/><path class="cls-1" d="M267.82,300.4c-.71-.28-1.42-.51-2.13-.77-.58,3.73-1.4,6.7-2.52,7.66,4.13,1.24,6.79,2.24,7.27,2.84,1.09,1.37-2.29,4.57-1.78,5.49,.51,.92,4.84,2.86,10.06-1.67,1.45-1.26,2.76-3.08,3.91-5.15-1.3-1.8-4.79-4.5-14.82-8.41Z"/><path class="cls-35" d="M266.02,297.26c.71-5.84,.94-12.72,.82-16.64-.78-.24-1.6-.47-2.42-.71,.2,3.44-.14,10.6-.8,16.5,.8,.26,1.6,.57,2.4,.85Z"/><path class="cls-35" d="M263.32,298.78c-.48,3.49-1.08,6.18-1.76,6.75-.43,.31-1.06,.57-1.77,.79,1.21,.34,2.34,.67,3.38,.98,1.11-.97,1.93-3.93,2.52-7.66-.79-.29-1.58-.59-2.37-.85Z"/><path class="cls-35" d="M266.02,297.26c-.1,.81-.21,1.61-.33,2.37,.71,.26,1.42,.49,2.13,.77,10.02,3.91,13.52,6.61,14.82,8.41,.42-.75,.82-1.52,1.19-2.33-2.03-2.09-6.2-4.77-15.11-8.25-.9-.35-1.8-.65-2.7-.97Z"/><path class="cls-35" d="M263.32,298.78c.1-.76,.2-1.55,.3-2.37-11.46-3.74-22.64-4.89-32.6-3.33-2.31,.36-4.62,1.27-6.49,2.34,.09,.9,.17,1.82,.23,2.66,1.66-1.13,4.14-2.29,6.68-2.69,9.7-1.52,20.64-.34,31.88,3.4Z"/><path class="cls-35" d="M266.02,297.26c-.8-.29-1.6-.59-2.4-.85-.09,.82-.19,1.62-.3,2.37,.79,.26,1.58,.56,2.37,.85,.12-.76,.23-1.56,.33-2.37Z"/></g><path class="cls-69" d="M228.53,186.61s-1.83,12.1-5.62,35.83c.17,5.15-.22,21.57,0,28.02-.72,4.05-10.76,3.23-12.09,1.36-.8-4.15-1.43-8.4-1.7-12.41-1.15-16.96,2.42-51.12,4.09-55.69,1.28-1.45,3.11-1.05,5.19-.66s9.68,1.84,9.68,1.84c0,0,.97,.96,.45,1.72Z"/><ellipse class="cls-44" cx="159.46" cy="250.2" rx="2.96" ry="3.83" transform="translate(-34.56 25.74) rotate(-8.33)"/><ellipse class="cls-46" cx="216.64" cy="246.26" rx="3.83" ry="3.83" transform="translate(-33.37 33.96) rotate(-8.32)"/><g><g><path class="cls-28" d="M220.25,145.26c-1.38,2.73-3.06,4.49-4.82,5.56-1.75-3.81-3.05-7.82-3.86-11.94l-.14-.71c-.71-3.41-1.86-6.72-3.44-9.83,1.38-.88,3.25-1.46,5.72-1.04,6.52,1.11,10.18,10.74,6.54,17.95Z"/><path class="cls-86" d="M220.25,145.26c-1.38,2.73-3.06,4.49-4.82,5.56-1.75-3.81-3.05-7.82-3.86-11.94l-.14-.71c-.71-3.41-1.86-6.72-3.44-9.83,1.38-.88,3.25-1.46,5.72-1.04,6.52,1.11,10.18,10.74,6.54,17.95Z"/><path class="cls-28" d="M126.1,145.01c-.23,3.47,0,6.95,.67,10.35l.14,.71c.86,4.11,1.24,8.3,1.11,12.5-2.03-.29-4.26-1.26-6.61-3.24-6.16-5.21-6.56-15.51-.98-19.09,2.11-1.35,4.06-1.55,5.67-1.28,0,.01,0,.03,0,.04Z"/><path class="cls-54" d="M126.1,145.01c-.23,3.47,0,6.95,.67,10.35l.14,.71c.86,4.11,1.24,8.3,1.11,12.5-2.03-.29-4.26-1.26-6.61-3.24-6.16-5.21-6.56-15.51-.98-19.09,2.11-1.35,4.06-1.55,5.67-1.28,0,.01,0,.03,0,.04Z"/><path class="cls-28" d="M202.32,153.61c-1.24,3.16-.97,6.7,.71,9.64,1.29,2.21,2.55,4.74,2.96,6.74,2.96,14.61-8.47,29.24-25.53,32.7-17.06,3.47-33.3-5.54-36.27-20.15-.41-2-.23-4.82,.09-7.36,.41-3.36-.73-6.72-3.1-9.15-2.29-2.37-3.86-5.34-4.52-8.57-1.97-9.69,4.68-19.23,14.85-21.29,3.29-.68,6.69-.49,9.89,.54,3.75,1.23,7.87,.39,10.84-2.2,2.54-2.19,5.6-3.69,8.89-4.35,10.17-2.07,20.03,4.11,22,13.8,.5,2.42,.46,4.92-.11,7.33-.18,.79-.42,1.57-.71,2.32Z"/><path class="cls-56" d="M202.32,153.61c-1.24,3.16-.97,6.7,.71,9.64,1.29,2.21,2.55,4.74,2.96,6.74,2.96,14.61-8.47,29.24-25.53,32.7-17.06,3.47-33.3-5.54-36.27-20.15-.41-2-.23-4.82,.09-7.36,.41-3.36-.73-6.72-3.1-9.15-2.29-2.37-3.86-5.34-4.52-8.57-1.97-9.69,4.68-19.23,14.85-21.29,3.29-.68,6.69-.49,9.89,.54,3.75,1.23,7.87,.39,10.84-2.2,2.54-2.19,5.6-3.69,8.89-4.35,10.17-2.07,20.03,4.11,22,13.8,.5,2.42,.46,4.92-.11,7.33-.18,.79-.42,1.57-.71,2.32Z"/><path class="cls-81" d="M160.02,182.73c-.98,.2-1.61,1.15-1.42,2.13,.02,.08,.04,.16,.06,.23,2.69,7.6,11.34,12.14,20.32,10.31,8.98-1.82,15.18-9.38,14.68-17.43-.07-1-.93-1.75-1.93-1.68-.08,0-.16,.02-.24,.03l-31.48,6.4Z"/><path class="cls-79" d="M168.23,194.56c7.01,2.62,14.9,1.01,20.33-4.13-2.17-4.16-6.04-2.31-10.86-1.33-4.82,.98-9.09,.79-9.46,5.46Z"/><path class="cls-82" d="M215.14,123.61c-3.94-.68-6.69,.66-8.49,2.25-.8-1.37-1.66-2.69-2.59-3.96-.68-.93-1.4-1.85-2.15-2.74-7.67-9.1-18.81-15.68-30.33-17.08l-1.39-5.77-6.14,5.62-.86,.08c-.53,.06-1.04,.13-1.57,.21l-1.91-4.19-.56-1.21c-.35,.07-.69,.14-1.01,.25-6.39,1.85-8.43,8.41-8.73,9.53-10.06,5.78-17.74,16.2-21.25,27.56-.35,1.11-.65,2.23-.91,3.36-.36,1.54-.64,3.1-.84,4.66l-.29-.09c-2.24-.67-5.18-.73-8.41,1.34-7.09,4.54-6.58,17.63,1.25,24.25,3.19,2.69,6.23,3.91,8.95,4.17,0,.15,0,.3,0,.45-.03,2.22,.17,4.44,.62,6.61,3.06,15.07,16.82,25.78,33.9,28.24,4.01,.58,8.08,.7,12.11,.36,2.1-.17,4.18-.46,6.25-.87l.49-.1c25-5.08,41.91-25.69,37.78-46.04-.44-2.17-1.11-4.29-2.01-6.32-.06-.14-.12-.28-.19-.41,2.41-1.32,4.73-3.61,6.62-7.33,4.62-9.17-.03-21.41-8.31-22.83Zm-89.03,21.41c-.23,3.47,0,6.95,.67,10.35l.14,.71c.86,4.11,1.24,8.3,1.11,12.5-2.03-.29-4.26-1.26-6.61-3.24-6.16-5.21-6.56-15.51-.98-19.09,2.11-1.35,4.06-1.55,5.67-1.28,0,.01,0,.03,0,.04Zm76.94,6.27c-.18,.79-.42,1.57-.72,2.32-1.24,3.16-.97,6.7,.71,9.64,1.29,2.21,2.55,4.74,2.96,6.74,2.96,14.61-8.47,29.24-25.53,32.7-17.06,3.47-33.3-5.54-36.27-20.15-.41-2-.23-4.82,.09-7.36,.41-3.36-.73-6.72-3.1-9.15-2.29-2.37-3.86-5.34-4.52-8.57-1.97-9.69,4.68-19.23,14.85-21.29,3.29-.68,6.69-.49,9.89,.54,3.75,1.23,7.87,.39,10.84-2.2,2.54-2.19,5.6-3.69,8.89-4.35,10.17-2.07,20.03,4.11,22,13.8,.5,2.42,.46,4.92-.1,7.33Zm17.21-6.03c-1.38,2.73-3.06,4.49-4.82,5.56-1.75-3.81-3.05-7.82-3.86-11.94l-.14-.71c-.71-3.41-1.86-6.72-3.44-9.83,1.38-.88,3.25-1.46,5.72-1.04,6.52,1.11,10.18,10.74,6.54,17.95h0Z"/><rect class="cls-85" x="167.23" y="165.26" width="3.03" height="6.88" rx="1.47" ry="1.47" transform="translate(-33.74 294.94) rotate(-76.94)"/><rect class="cls-59" x="174.56" y="165.31" width="6.88" height="3.03" rx="1.47" ry="1.47" transform="translate(-64.08 136.64) rotate(-36.04)"/><path class="cls-58" d="M155.45,160.95h0c-2.92,.59-5.75-1.17-6.31-3.94l-.34-1.67c-.56-2.77,1.35-5.5,4.27-6.09h0c2.92-.59,5.75,1.17,6.31,3.94l.34,1.67c.56,2.77-1.36,5.5-4.27,6.09Z"/><path class="cls-80" d="M153.08,149.25l1.19,5.85c.36,1.45,1.83,2.33,3.28,1.96,1.35-.34,2.23-1.66,2.01-3.04l-.17-.82c-.57-2.79-3.4-4.54-6.31-3.95Z"/><ellipse class="cls-17" cx="153.76" cy="152.59" rx="1.8" ry="1.71" transform="translate(-27.31 33.67) rotate(-11.49)"/><path class="cls-87" d="M176.58,127.82c6.52-2.86,14.98-9.65,16.12-12.42,1.15-3.08-10.84-3.43-10.84-3.43l-31.76,1.06-1.29,.93c1.02-2.32,2.09-4.48,3.16-6.41,.63-1.14,1.25-2.19,1.86-3.16,2.44-3.86,4.65-6.25,5.86-6.37l-.56-1.21c-.35,.07-.69,.15-1.01,.25-6.39,1.85-8.43,8.41-8.73,9.53-10.06,5.78-17.74,16.19-21.25,27.56-.34,1.11-.65,2.23-.91,3.36-.36,1.54-.64,3.1-.84,4.66l-.29-.09c-2.24-.67-5.18-.73-8.41,1.34-7.08,4.54-6.58,17.63,1.25,24.25,3.19,2.68,6.21,3.89,8.94,4.16,0,.15,0,.3,0,.45-.03,2.22,.18,4.43,.62,6.61,3.06,15.07,16.82,25.78,33.91,28.24,4.01,.58,8.08,.7,12.11,.36,0,0-11.31-3.47-19.52-12.81-7.47-8.5-10.92-24.02-12.05-39.95-.29-6.55-.44-11.06-.44-11.06,0,0,0,0,0-.01,0-.69,.44-1.31,1.09-1.53,17.41-5.92,33.95-9.31,54.36-10.18,2.16-.23,4.4-.47,6.3-1.51,1.91-1.05,3.43-3.12,3.13-5.28-10.19,1.43-20.53,1.91-30.82,2.66Zm-31.96,4.59c-.49,.13-.98,.27-1.47,.44,.17-1.11,.37-2.21,.6-3.31,.03,0,9.43-2.81,14.32-1.42,1.37,.39,2.72,.76,4.1,1.05-5.91,.73-11.78,1.73-17.56,3.25Z"/><path class="cls-57" d="M186.83,154.39h0c-2.92,.59-5.75-1.17-6.31-3.94l-.34-1.67c-.56-2.77,1.35-5.5,4.27-6.09h0c2.92-.59,5.75,1.17,6.31,3.94l.34,1.67c.56,2.77-1.36,5.5-4.27,6.09Z"/><path class="cls-55" d="M184.45,142.69l1.19,5.85c.36,1.45,1.83,2.33,3.28,1.96,1.35-.34,2.23-1.66,2.01-3.04l-.17-.82c-.57-2.79-3.4-4.54-6.31-3.95Z"/><ellipse class="cls-17" cx="185.13" cy="146.04" rx="1.8" ry="1.71" transform="translate(-25.37 39.79) rotate(-11.49)"/></g><path class="cls-88" d="M180.89,93.69c-20.92-1.39-21.86-.6-21.9-.51-.08-.06-1.3-.41-20.11,9.02-17.1,10.17-15.53,38.95-14.63,39.48s6.32,.39,6.32,.39l35.33-12.13,37.13-2.55s5.08-1.99,5.72-2.83c.64-.84-8.32-28.12-27.85-30.87Z"/><g><path class="cls-52" d="M188.87,96.37c6.78,9.7,11.37,24.32,13.25,31.08l.9-.06s5.08-1.99,5.72-2.83c.55-.71-5.88-20.61-19.87-28.19Z"/><path class="cls-53" d="M124.24,141.68c.9,.52,6.32,.39,6.32,.39l2.26-.78c-1.32-9.13-.1-26.6,.58-34.61-11.26,12.31-9.95,34.53-9.16,34.99Z"/></g><path class="cls-89" d="M166.06,130.72s-15.04,4.46-21.82,7.2c-6.78,2.74-14.96,4.79-15.54,4.85s-1.26-2.91-1.26-2.91l21.12-12.66,15.82-4.16,16.89-1.82,22.75,2.65s.44,2.43,.41,3.44c-.03,1.02-22.83,.46-38.37,3.41Z"/><path class="cls-90" d="M128.7,142.77s-.32-1.12,2.35-2.85c2.67-1.72,21.31-13.98,32.51-16.33,11.86-2.97,34.37,.93,36.57,1.09s3.27,2.26,3.27,2.26c0,0,.7,.78,1.6,.62s1.55-1.37,.82-3.56c-.81-1.48-1.64-1.89-3.12-2.15-1.23-.21-14.72-4.4-29.7-3.27-6.55,.49-13.01,1.85-19.2,4.05-15,6.71-24.72,14.08-26.44,15.08-2.08,1.22-1.49,4.02-1.12,4.6s1.93,1.75,2.45,.45Z"/></g></g><path class="cls-24" d="M250,449.39s-32.11-20.33-48.74-20.44-34.13-12.82-41.52-13.22c0,0-13.48-3.35-18.65-7.25s-31.8-7.56-40-5.75-10.57,6.78-27.78,11.07-20.89,19.76-1.25,35.7,83.81,22.39,108.86,20.05,91.01-.07,69.09-20.15Z"/><path class="cls-37" d="M67.27,415.33c3.73-.27,4.55-1.79,12.66-.29s12.02,1.73,4.52,6.65-12.89,7.54-15.9,5.24-11.24-10.89-1.28-11.6Z"/><path class="cls-10" d="M64.31,422.6s2.46,2.35,3.27,2.97,1.37,1.27,3.29,1.37,5.35-.95,6.39-1.5,10.22-6.03,10.22-6.03c0,0-2.32,2.71-3.73,3.77s-6.91,4.28-8.48,4.8-3.29,.68-5.18,.42-2.61-1.34-2.9-1.96-2.88-3.85-2.88-3.85Z"/><path class="cls-37" d="M218.18,441.3c.55-.8,.52-1.86,2.87-1.45s3.33,.54,3.46,1.45,.52,2.54-.91,2.67-4.17-.13-4.76-.59-.97-1.63-.65-2.09Z"/><path class="cls-37" d="M204.02,445.28c.8-.69,2.28-3.26,5.8-2.61s4.3,1.04,4.24,2.28,.46,3.65-1.17,4.11-6.13,2.41-7.24,1.96-4.22-3.5-1.63-5.74Z"/><path class="cls-10" d="M218.09,442c.03-.24,.55,.96,1.14,1.12s1.72,.48,2.68,.44,1.63-.37,2.04-.37,.59-.05,.64-.01,.11,.4-.06,.67-.54,.4-1.09,.57-1.69-.07-2.15-.1-1.71-.31-2.38-.55-.86-1.42-.82-1.78Z"/><path class="cls-10" d="M203.12,448.03s.93,.92,1.5,1.13,.54-.34,1.6,0,.36,.77,1.84,.67,3.91-.66,4.43-.89,1.44-.83,1.55-1.53,.13,.91-.12,1.42-1.86,.86-2.33,1.12-3.18,.96-3.8,1.29-2.25,.21-2.79,0-1.74-2.12-1.78-2.54-.11-.66-.11-.66Z"/><path class="cls-9" d="M174.65,445.67c-13.7-8.8-7.83-14.74-23.67-19.01s-19.31,13.92-40.86,14.32c-20.18,.37-44.33-1.02-47.32-1.2,2.15,3.16,5.2,6.43,9.26,9.72,20.13,18.64,51.99,22.68,115.06,23.58,7.47,.11,15.25,.09,23.2-.06-1.86-1.56-22.58-18.95-35.66-27.35Z"/></svg>