<?xml version="1.0" encoding="UTF-8"?><svg id="Laag_1" xmlns="http://www.w3.org/2000/svg" xmlns:xlink="http://www.w3.org/1999/xlink" viewBox="0 0 500 500"><defs><style>.cls-1{fill:#5290ba;}.cls-2{fill:url(#_езымянный_градиент_36-14);}.cls-3{fill:#ffb300;}.cls-4{fill:#ffd770;}.cls-5{fill:url(#_езымянный_градиент_36-15);}.cls-6{fill:#fff;}.cls-7{fill:#ac752c;}.cls-8{fill:url(#_езымянный_градиент_36-9);}.cls-9{fill:#935544;}.cls-10{fill:url(#_езымянный_градиент_36-20);}.cls-11,.cls-12{fill:#364751;}.cls-11,.cls-13,.cls-14{opacity:.1;}.cls-15{fill:url(#_езымянный_градиент_36-2);}.cls-16{fill:#faf4e6;}.cls-17{fill:url(#_езымянный_градиент_36-17);}.cls-18{fill:url(#_езымянный_градиент_36-5);}.cls-19{fill:url(#_езымянный_градиент_36-19);}.cls-20{fill:#e6646e;}.cls-21{fill:url(#_езымянный_градиент_36-23);}.cls-22{fill:#e8d995;}.cls-23{fill:url(#_езымянный_градиент_36-10);}.cls-24{fill:url(#Naamloos_verloop_7-4);}.cls-25{fill:url(#_езымянный_градиент_36-4);}.cls-26{opacity:.33;}.cls-27{fill:url(#_езымянный_градиент_36-21);}.cls-28{fill:url(#_езымянный_градиент_36-22);}.cls-29{fill:#935747;}.cls-30{fill:#fdfbf5;}.cls-31{fill:url(#_езымянный_градиент_36-6);}.cls-32{fill:url(#_езымянный_градиент_36-11);}.cls-33{fill:url(#Naamloos_verloop_7-2);}.cls-34{fill:url(#Naamloos_verloop_7-5);}.cls-35{fill:#a0a7aa;}.cls-36{fill:#171819;}.cls-37{fill:#78abce;}.cls-38{fill:url(#_езымянный_градиент_36-12);}.cls-39,.cls-40{isolation:isolate;opacity:.35;}.cls-39,.cls-41{fill:#4e3f3f;}.cls-42{fill:url(#_езымянный_градиент_36-26);}.cls-43{fill:url(#_езымянный_градиент_36-18);}.cls-44{fill:#ad5545;}.cls-45{fill:#5d5360;}.cls-46{fill:#cd776b;}.cls-47{fill:#ffd54f;}.cls-48{fill:url(#_езымянный_градиент_36-24);}.cls-49{fill:#a3644f;}.cls-50{fill:url(#_езымянный_градиент_36-7);}.cls-51{fill:url(#Naamloos_verloop_7-3);}.cls-52{fill:#7d551f;}.cls-53{fill:url(#_езымянный_градиент_36);}.cls-54{fill:url(#_езымянный_градиент_36-25);}.cls-55{fill:#a16552;}.cls-56{opacity:.14;}.cls-57{fill:url(#Naamloos_verloop_7);}.cls-58{fill:#cd897a;}.cls-59{fill:url(#_езымянный_градиент_36-16);}.cls-60{fill:#2d2d2d;}.cls-61{fill:#f5dcb4;}.cls-62{fill:#23201e;}.cls-63{fill:url(#_езымянный_градиент_36-13);}.cls-64{fill:#cecece;}.cls-65{fill:#63a2d6;}.cls-66{fill:url(#_езымянный_градиент_36-3);}.cls-67{fill:#3a2825;}.cls-68{fill:#492e27;}.cls-14{fill:#212121;}.cls-69{fill:#ffca28;}.cls-70{fill:#ffea8c;}.cls-71{fill:url(#_езымянный_градиент_36-8);}</style><linearGradient id="_езымянный_градиент_36" x1="-812.18" y1="377.92" x2="-817.54" y2="515.93" gradientTransform="translate(-589.36) rotate(-180) scale(1 -1)" gradientUnits="userSpaceOnUse"><stop offset="0" stop-color="#f6d3ca"/><stop offset="1" stop-color="#cc826e"/></linearGradient><linearGradient id="_езымянный_градиент_36-2" x1="-897.98" y1="374.59" x2="-903.34" y2="512.6" xlink:href="#_езымянный_градиент_36"/><linearGradient id="_езымянный_градиент_36-3" x1="-736.76" y1="380.85" x2="-742.12" y2="518.86" xlink:href="#_езымянный_градиент_36"/><linearGradient id="_езымянный_градиент_36-4" x1="-853.96" y1="376.3" x2="-859.32" y2="514.31" xlink:href="#_езымянный_градиент_36"/><linearGradient id="_езымянный_градиент_36-5" x1="-907.88" y1="374.21" x2="-913.24" y2="512.21" xlink:href="#_езымянный_градиент_36"/><linearGradient id="_езымянный_градиент_36-6" x1="-873.34" y1="375.55" x2="-878.7" y2="513.55" xlink:href="#_езымянный_градиент_36"/><linearGradient id="_езымянный_градиент_36-7" x1="-941.69" y1="372.89" x2="-947.05" y2="510.9" xlink:href="#_езымянный_градиент_36"/><linearGradient id="_езымянный_градиент_36-8" x1="-920.03" y1="373.74" x2="-925.38" y2="511.74" xlink:href="#_езымянный_градиент_36"/><linearGradient id="_езымянный_градиент_36-9" x1="-933.69" y1="373.21" x2="-939.05" y2="511.21" xlink:href="#_езымянный_градиент_36"/><linearGradient id="_езымянный_градиент_36-10" x1="-912.15" y1="374.04" x2="-917.51" y2="512.04" xlink:href="#_езымянный_градиент_36"/><linearGradient id="_езымянный_градиент_36-11" x1="-826.81" y1="377.36" x2="-832.17" y2="515.36" xlink:href="#_езымянный_градиент_36"/><linearGradient id="_езымянный_градиент_36-12" x1="-800.65" y1="378.37" x2="-806.01" y2="516.38" xlink:href="#_езымянный_градиент_36"/><linearGradient id="_езымянный_градиент_36-13" x1="-795.41" y1="378.58" x2="-800.77" y2="516.58" xlink:href="#_езымянный_градиент_36"/><linearGradient id="_езымянный_градиент_36-14" x1="-750.73" y1="380.31" x2="-756.09" y2="518.31" xlink:href="#_езымянный_градиент_36"/><linearGradient id="_езымянный_градиент_36-15" x1="-749.64" y1="380.35" x2="-755" y2="518.36" xlink:href="#_езымянный_градиент_36"/><linearGradient id="_езымянный_градиент_36-16" x1="-756.91" y1="380.07" x2="-762.27" y2="518.07" xlink:href="#_езымянный_градиент_36"/><linearGradient id="_езымянный_градиент_36-17" x1="-724.2" y1="381.34" x2="-729.56" y2="519.34" xlink:href="#_езымянный_градиент_36"/><linearGradient id="_езымянный_градиент_36-18" x1="-789.02" y1="378.82" x2="-794.38" y2="516.83" xlink:href="#_езымянный_градиент_36"/><linearGradient id="_езымянный_градиент_36-19" x1="-757.64" y1="380.04" x2="-763" y2="518.05" xlink:href="#_езымянный_градиент_36"/><linearGradient id="_езымянный_градиент_36-20" x1="-882.14" y1="375.21" x2="-887.5" y2="513.21" xlink:href="#_езымянный_градиент_36"/><linearGradient id="_езымянный_градиент_36-21" x1="-842.07" y1="376.76" x2="-847.43" y2="514.77" xlink:href="#_езымянный_градиент_36"/><linearGradient id="_езымянный_градиент_36-22" x1="-909.44" y1="374.15" x2="-914.8" y2="512.15" xlink:href="#_езымянный_градиент_36"/><linearGradient id="_езымянный_градиент_36-23" x1="-766.55" y1="379.7" x2="-771.91" y2="517.7" xlink:href="#_езымянный_градиент_36"/><linearGradient id="_езымянный_градиент_36-24" x1="-856.69" y1="376.2" x2="-862.05" y2="514.2" xlink:href="#_езымянный_градиент_36"/><linearGradient id="_езымянный_градиент_36-25" x1="-834.38" y1="377.06" x2="-839.74" y2="515.07" xlink:href="#_езымянный_градиент_36"/><linearGradient id="_езымянный_градиент_36-26" x1="-803.98" y1="378.24" x2="-809.33" y2="516.25" xlink:href="#_езымянный_градиент_36"/><linearGradient id="Naamloos_verloop_7" x1="238.32" y1="113.86" x2="256.54" y2="109.46" gradientTransform="matrix(1, 0, 0, 1, 0, 0)" gradientUnits="userSpaceOnUse"><stop offset="0" stop-color="#ffe988"/><stop offset=".25" stop-color="#ba801e"/><stop offset=".5" stop-color="#fbec83"/><stop offset=".75" stop-color="#ba801f"/><stop offset="1" stop-color="#ffe97f"/></linearGradient><linearGradient id="Naamloos_verloop_7-2" x1="232.1" y1="137.17" x2="250.32" y2="132.76" xlink:href="#Naamloos_verloop_7"/><linearGradient id="Naamloos_verloop_7-3" x1="229.91" y1="161.97" x2="248.13" y2="157.56" xlink:href="#Naamloos_verloop_7"/><linearGradient id="Naamloos_verloop_7-4" x1="229.29" y1="187.44" x2="247.5" y2="183.03" xlink:href="#Naamloos_verloop_7"/><linearGradient id="Naamloos_verloop_7-5" x1="229.29" y1="208.38" x2="247.5" y2="203.98" xlink:href="#Naamloos_verloop_7"/></defs><ellipse class="cls-35" cx="244.55" cy="449.75" rx="113.77" ry="42.93"/><ellipse class="cls-49" cx="244.55" cy="451.75" rx="116.77" ry="45.93"/><g><polygon class="cls-53" points="253.07 441.8 276.11 429.97 237.64 429.97 234.9 429.97 197.07 429.97 174.04 441.8 211.86 441.8 214.61 441.8 253.07 441.8"/><path class="cls-15" d="M313.75,415.68c-1.51-.44-3.05-.86-4.61-1.27l-2.47,1.27h7.08Z"/><path class="cls-66" d="M158.63,469.14h-15.6c2.07,1.54,4.39,3.03,6.92,4.46l4.63-2.38,4.05-2.08Z"/><path class="cls-25" d="M262.71,415.68h41.21l3.38-1.74c-17.99-4.5-39.56-7.12-62.75-7.12-.82,0-1.64,0-2.46,.01l-17.21,8.84h37.83Z"/><path class="cls-18" d="M347.63,456.08h-37.83l-12.14,6.24-10.89,5.6h60.89c4.57-3.69,7.8-7.66,9.43-11.83h-9.47Z"/><path class="cls-31" d="M304.28,416.91h-41.21l-4.21,2.16-18.82,9.67h79.04l12.72-6.54c-4.25-1.91-8.94-3.69-14-5.3h-13.52Z"/><path class="cls-50" d="M357.52,454.86c.29-.92,.5-1.84,.64-2.77l-5.39,2.77h4.76Z"/><path class="cls-71" d="M321.82,428.74h21.95c-3.08-2.07-6.61-4.03-10.53-5.87l-2.15,1.1-9.27,4.76Z"/><path class="cls-8" d="M337.61,441.8h18.76c-1.2-2.41-2.92-4.75-5.14-7l-1.98,1.02-11.64,5.98Z"/><polygon class="cls-23" points="332.47 443.03 294.01 443.03 294.01 443.03 356.93 443.03 356.93 443.03 335.22 443.03 332.47 443.03"/><polygon class="cls-32" points="291.26 443.03 253.44 443.03 253.43 443.03 250.69 443.03 212.22 443.03 189.19 454.86 227.65 454.86 268.23 454.86 291.26 443.03"/><path class="cls-38" d="M256.2,482.2h-79.04l-2.67,1.37c17.22,5.08,38.42,8.34,61.55,8.98l7.32-3.76,12.83-6.59Z"/><path class="cls-63" d="M183.67,415.68h38.46l17.14-8.81c-24,.41-46.05,3.63-63.92,8.81h8.31Z"/><path class="cls-2" d="M171.29,441.8l23.03-11.83h-50.75c-5.06,3.67-8.75,7.64-10.83,11.83h38.55Z"/><path class="cls-5" d="M178.53,416.91h-7.22c-10.43,3.31-19.25,7.32-25.98,11.83h10.17l23.03-11.83Z"/><path class="cls-59" d="M209.47,443.03h-77.3c-.91,2.19-1.39,4.44-1.39,6.73,0,1.73,.28,3.43,.8,5.11h54.85l23.03-11.83Z"/><path class="cls-17" d="M132.02,456.09c.61,1.56,1.45,3.1,2.5,4.6l8.96-4.6h-11.46Z"/><path class="cls-43" d="M179.55,480.98h37.83l23.03-11.83h-.23l-22.96,11.79h-50.86s.08,.03,.12,.04h13.06Z"/><path class="cls-19" d="M170.08,482.21c.88,.29,1.78,.57,2.68,.85l1.65-.85h-4.33Z"/><polygon class="cls-10" points="293.65 441.8 296.4 441.8 334.86 441.8 334.91 441.77 256.2 441.77 279.18 429.97 278.86 429.97 263.01 438.11 255.83 441.8 293.65 441.8"/><polygon class="cls-27" points="268.59 456.08 265.84 456.08 228.01 456.08 220.29 460.05 204.98 467.92 242.81 467.92 245.55 467.92 284.01 467.92 287.19 466.28 307.05 456.08 268.59 456.08"/><path class="cls-28" d="M317.77,472.83l-15.85,8.14h20.7c9.52-3.39,17.48-7.39,23.46-11.83h-21.13l-7.18,3.69Z"/><path class="cls-21" d="M163.76,467.92h38.47l23.03-11.83h-79.04l-10.96,5.63c1.64,2.14,3.72,4.21,6.19,6.2h22.31Z"/><polygon class="cls-48" points="284.37 469.14 281.63 469.14 243.17 469.14 220.13 480.98 258.59 480.98 261.34 480.98 299.17 480.98 312.67 474.04 322.2 469.14 284.37 469.14"/><path class="cls-54" d="M258.95,482.2l-14.52,7.46-5.76,2.96c.32,0,.64,0,.96,.01l20.31-10.43h-.99Z"/><polygon class="cls-42" points="219.74 416.91 181.28 416.91 172.1 421.63 181.21 416.94 260.25 416.94 260.32 416.91 222.49 416.91 219.74 416.91"/><polygon class="cls-44" points="303.92 415.68 307.3 413.94 307.3 413.94 303.92 415.68 303.92 415.68"/><path class="cls-44" d="M239.27,406.88l-17.14,8.81h2.75l17.21-8.84c-.94,0-1.88,.02-2.82,.04Z"/><path class="cls-44" d="M306.67,415.68l2.47-1.27c-.61-.16-1.22-.31-1.84-.47l-3.38,1.74h2.75Z"/><path class="cls-44" d="M180.92,415.68h-5.57c-1.37,.4-2.72,.81-4.04,1.23h7.22l-23.03,11.83h0l25.42-13.06Z"/><polygon class="cls-44" points="181.28 416.91 181.28 416.91 158.25 428.74 158.25 428.74 172.1 421.63 181.28 416.91"/><polygon class="cls-44" points="240.03 428.74 240.04 428.74 258.86 419.07 240.03 428.74"/><polygon class="cls-44" points="237.29 428.74 256.01 419.12 237.28 428.74 237.29 428.74"/><polygon class="cls-44" points="180.92 415.68 155.5 428.74 158.24 428.74 158.25 428.74 158.25 428.74 181.28 416.91 181.28 416.91 219.74 416.91 222.49 416.91 260.32 416.91 262.71 415.68 224.88 415.68 222.13 415.68 222.13 415.68 183.67 415.68 180.92 415.68"/><polygon class="cls-44" points="331.1 423.98 321.82 428.74 321.82 428.74 331.1 423.98"/><polygon class="cls-44" points="319.08 428.74 331.8 422.2 331.8 422.2 319.07 428.74 319.08 428.74"/><path class="cls-44" d="M303.92,415.68h-41.21l-2.39,1.23-.07,.04h0l-4.24,2.18-18.73,9.62h2.75l18.82-9.67,4.21-2.16h54.73c-1.32-.42-2.67-.83-4.04-1.23h-9.83Z"/><path class="cls-44" d="M321.82,428.74l9.27-4.76,2.15-1.1c-.48-.22-.96-.45-1.45-.67l-12.72,6.53h2.75Z"/><rect class="cls-44" x="172.61" y="435.88" width="25.89" height="0" transform="translate(-178.66 132.94) rotate(-27.19)"/><path class="cls-44" d="M155.86,429.97h38.46l-23.03,11.83h0l25.35-13.02h-38.47l.07-.03h-12.91c-.6,.4-1.19,.81-1.76,1.23h12.29Z"/><polygon class="cls-44" points="263.01 438.11 255.83 441.8 255.83 441.8 263.01 438.11"/><polygon class="cls-44" points="237.22 428.77 196.64 428.77 171.29 441.8 174.03 441.8 197.07 429.97 197.07 429.97 234.9 429.97 237.64 429.97 276.11 429.97 253.07 441.8 253.08 441.8 278.5 428.74 237.29 428.74 237.28 428.74 237.22 428.77"/><polygon class="cls-44" points="349.25 435.82 337.61 441.8 337.61 441.8 349.25 435.82"/><rect class="cls-44" x="334.86" y="441.79" width=".06" height="0" transform="translate(-164.83 201.77) rotate(-27.18)"/><path class="cls-44" d="M321.82,428.74h-43.33l-25.42,13.06h2.75l7.18-3.69,15.85-8.14h.32l.05-.03h66.27c-.56-.4-1.14-.81-1.73-1.2h-21.95Z"/><path class="cls-44" d="M334.91,441.77l-.05,.03h2.75l11.64-5.98,1.98-1.02c-.27-.27-.54-.55-.83-.82l-15.16,7.79h-.33Z"/><polygon class="cls-44" points="148.61 454.86 186.44 454.86 186.44 454.86 131.59 454.86 131.59 454.86 145.86 454.86 148.61 454.86"/><path class="cls-44" d="M171.65,443.03h37.82l2.39-1.23h-79.12c-.2,.41-.39,.82-.56,1.23h39.47Z"/><polygon class="cls-44" points="214.61 441.8 211.86 441.8 209.47 443.03 186.44 454.86 186.44 454.86 227.65 454.86 227.65 454.86 189.19 454.86 212.22 443.03 250.69 443.03 253.43 443.03 253.44 443.03 291.26 443.03 268.23 454.86 268.23 454.86 293.65 441.8 255.83 441.8 255.83 441.8 253.08 441.8 253.07 441.8 214.61 441.8"/><path class="cls-44" d="M337.61,441.8h-43.96l-25.42,13.06h2.74l23.03-11.83h62.93c-.17-.41-.36-.82-.56-1.23h-18.76Z"/><path class="cls-44" d="M350.02,454.86h2.75l5.39-2.77c.07-.49,.11-.99,.14-1.48l-8.28,4.25Z"/><polygon class="cls-44" points="146.22 456.09 135.26 461.72 135.26 461.72 146.22 456.09 146.22 456.09"/><path class="cls-44" d="M145.86,454.86h-14.28c.13,.41,.27,.82,.43,1.23h11.46l-8.96,4.6h0l11.35-5.83Z"/><polygon class="cls-44" points="228.01 456.08 220.29 460.05 228.01 456.08 228.01 456.08"/><path class="cls-44" d="M146.22,456.09h79.04l-23.03,11.83h0l25.42-13.06h-81.79l-11.35,5.83c.24,.34,.49,.69,.75,1.03l10.96-5.63h0Z"/><polygon class="cls-44" points="309.8 456.08 297.66 462.32 309.8 456.08 309.8 456.08"/><polygon class="cls-44" points="227.65 454.86 227.65 454.86 202.23 467.92 204.98 467.92 220.29 460.05 228.01 456.08 228.01 456.08 265.84 456.08 268.59 456.08 307.05 456.08 287.19 466.28 309.44 454.86 270.97 454.86 270.98 454.86 268.23 454.86 268.23 454.86 227.65 454.86"/><path class="cls-44" d="M350.02,454.86h-40.58l-22.24,11.43-3.18,1.63h2.75l10.89-5.6,12.14-6.24h47.29c.16-.41,.3-.82,.43-1.23h-7.51Z"/><path class="cls-44" d="M154.58,471.22l6.44-3.31h-19.57c.51,.41,1.04,.82,1.58,1.23h15.6l-4.05,2.08Z"/><path class="cls-44" d="M161.22,469.11h79.04l-.08,.04h.23l-23.03,11.83h0l25.42-13.06h-81.79l-6.44,3.31-4.63,2.38c.4,.22,.81,.45,1.22,.67l10.06-5.17Z"/><polygon class="cls-44" points="324.95 469.14 317.77 472.83 324.95 469.14 324.95 469.14"/><polygon class="cls-44" points="242.81 467.92 217.38 480.98 220.13 480.98 243.17 469.14 281.63 469.14 284.37 469.14 322.2 469.14 312.67 474.04 324.59 467.92 286.76 467.92 284.02 467.92 284.01 467.92 245.55 467.92 242.81 467.92"/><path class="cls-44" d="M324.59,467.92l-11.92,6.12-13.51,6.94h2.75l15.85-8.14,7.18-3.69h21.13c.54-.41,1.07-.81,1.58-1.23h-23.07Z"/><path class="cls-44" d="M176.81,480.98h-10.32c1.18,.42,2.37,.83,3.59,1.23h4.33l-1.65,.85h0l4.04-2.08Z"/><polygon class="cls-44" points="258.95 482.2 244.43 489.66 258.95 482.2 258.95 482.2"/><path class="cls-44" d="M215,482.2h41.21l-12.83,6.59,15.22-7.82h-81.78l-4.04,2.08c.57,.18,1.15,.35,1.73,.52l2.67-1.37h37.83Z"/><path class="cls-44" d="M299.17,480.98h-40.58l-15.22,7.82-7.32,3.76c.87,.02,1.75,.05,2.63,.06l5.76-2.96,14.52-7.46h60.09c1.21-.4,2.4-.81,3.57-1.23h-23.45Z"/><path class="cls-46" d="M259.95,482.2h-.01l-20.31,10.44c1.63,.03,3.27,.04,4.92,.04,28.49,0,54.54-3.95,74.49-10.48h-59.09Z"/><polygon class="cls-58" points="172.1 421.63 158.25 428.74 158.24 428.74 158.18 428.77 196.64 428.77 237.22 428.77 237.28 428.74 256.01 419.12 260.25 416.94 260.25 416.94 181.21 416.94 172.1 421.63"/><path class="cls-58" d="M240.19,469.14l.08-.04h-79.04l-10.06,5.17c4.46,2.41,9.56,4.65,15.21,6.66h50.86l22.96-11.79Z"/><path class="cls-58" d="M294.01,443.03l-23.03,11.83h79.04l8.28-4.25c.01-.28,.03-.57,.03-.85,0-2.29-.48-4.53-1.39-6.72h-62.93Z"/><path class="cls-58" d="M279.23,429.94l-.05,.03-22.98,11.81h79.04l15.16-7.79c-1.45-1.38-3.09-2.73-4.9-4.04h-66.27Z"/></g><ellipse class="cls-14" cx="243.62" cy="439.4" rx="23.72" ry="71.88" transform="translate(-214.7 645.23) rotate(-85.18)"/><g><path class="cls-36" d="M188.28,432.87s-.3,.66-.27,3.78,6.06,4.04,10.63,4.64c4.57,.6,12.22-1.16,17.39-4.21,5.17-3.05,7.15-6.23,12.65-8.21,5.5-1.99,8.51-2.32,10.91-3.25s3.59-.6,3.86-2.19-.99-4.7-.99-4.7l-30.71,7.43-23.47,6.71Z"/><path class="cls-36" d="M299.39,436.35s-.36,6.56-1.35,11.36c-.99,4.8-4.14,6.56-7.15,7.52s-6.53,1.06-10.5,.66-5.4-2.91-6.39-5.07-.87-9.38-.87-9.38l26.26-5.1Z"/><path class="cls-64" d="M191.7,426.02s-2.54,1.96-3.16,5.14c-.62,3.18-.34,3.44,2.44,5.03,2.77,1.59,8.96,2.65,16.91,1.15,7.95-1.5,11.57-6.54,14.49-8.13s12.37-5.56,15.9-6.18c3.53-.62,5.12-1.06,4.68-6.27s-.79-8.04-1.41-10.6c-.62-2.56-.44-2.65-2.03-2.83s-23.86,8.83-23.86,8.83l-17.12,13.87h-6.82Z"/><path class="cls-64" d="M274.76,417.11s-2.04,11.53-1.78,15.61-.19,12.56,.88,14.86,3.42,3.97,11.12,4.59c7.7,.62,10-2.03,11.5-4.42s3-7.15,2.91-11.66c-.09-4.5-1.77-10.25-3.27-13.6-1.5-3.36-3.02-8.14-4.2-8.62s-14.33,1.28-17.16,3.23Z"/><path class="cls-55" d="M214.42,320.84c-.28,1.63-.62,3.87,1.24,8.34,1.85,4.47,.88,9.15,.97,17.98,.09,8.83,3.8,34.18,4.86,42.66s-.44,14.84-1.5,18.02-3.97,2.83-4.68,3.44,1.15,6.36,5.03,8.39c3.89,2.03,4.95,1.24,7.86-.71,2.91-1.94,8.21-4.59,9.63-7.15,1.41-2.56,2.03-5.12,1.68-8.48s.62-27.91,1.41-34.27c.79-6.36,5.92-9.01,5.65-19.26-.26-10.25-3.44-19.87-3.18-22.7s.88-9.89,.88-9.89l-29.85,3.62Z"/><path class="cls-55" d="M258.23,321.92s4.5,11.46,6.45,15.97c1.94,4.5,1.85,5.48,2.03,11.04,.18,5.56,2.3,16.52,4.24,25.08,1.94,8.57,5.34,23.54,4.9,29.72-.53,6.14-1.72,8.37-1.26,12.08,.46,3.71,.73,5.37,.26,7.49s-.45,3.25,1.03,3.97,16.39,.79,17.58-.4-.26-3.91-.53-6.62-2.65-14.04-2.32-18.02,2.32-17.42,3.31-26.7c.99-9.27,.13-27.43-1.72-34.12s-2.45-13.18-2.65-15.9-28.29-9.98-31.33-3.6Z"/><path class="cls-60" d="M239.59,404.66c-.1-1.93,.17,5.48-1.5,8.92-1.68,3.44-5.92,4.76-9.1,7.28-3.18,2.52-9.01,4.46-10.69,5.52s-2.82,4.24-4.11,1.85c-1.28-2.38-.49-3-2.96-1.85s-6.09,4.15-11.39,4.68c-5.3,.53-8.3-1.32-8.74-2.74s0-2.91,6.27-5.65c6.27-2.74,7.33-3.97,8.48-6.27s9.45-5.12,9.45-5.12c0,0,4.24,0,4.68,3.36s1.06,5.2,3,5.65,9.72-4.86,11.22-6.27,5.55-6.19,5.39-9.36Z"/><path class="cls-60" d="M274.63,425.74s-.44,9.15,1.22,14.58c1.66,5.43,5.37,5.63,9.67,5.37s8.35-4.97,9.27-9.01,.6-8.43,0-10.94-1.92-6.05-1.92-6.05c0,0,1.13,5.39,.07,5.99s-1.92-1.59-4.37-2.45-7.82-1.39-9.34-.53-2.78,2.72-3.25,2.91-1.35,.13-1.35,.13Z"/><polygon class="cls-9" points="235.75 117.73 231.6 103.46 224.71 91.98 225.64 83.19 259.16 81.91 256.9 95.25 243.3 120.38 235.75 117.73"/><path class="cls-55" d="M336.76,140c-.06-2.61-.54-5.35-1.44-8.21-.81-2.57-3.55-4-6.12-3.19-2.57,.81-4,3.55-3.19,6.12,2.1,6.68,.98,11.39-3.75,15.75-4.74,4.37-12.37,7.61-19.75,10.75-10.93,4.65-21.25,9.03-24.71,17.68-1.71,4.26-1.47,9,.72,14.09,3.31,7.7,4.9,15.63,4.59,22.93-.3,7-2.33,12.78-5.86,16.71-6.88,7.66-17.83,6.33-25.8,3.87-2.58-.79-5.31,.65-6.11,3.23-.8,2.58,.65,5.31,3.23,6.11,7.7,2.37,14.74,2.96,20.92,1.74,6.02-1.19,11.08-4.02,15.03-8.42,5.06-5.64,7.95-13.53,8.35-22.82,.38-8.76-1.48-18.17-5.37-27.21-1.14-2.65-1.34-4.8-.63-6.59,1.96-4.88,10.86-8.67,19.47-12.33,8.14-3.46,16.56-7.04,22.55-12.56,5.41-4.98,8.05-10.9,7.89-17.65Z"/><g class="cls-40"><path class="cls-41" d="M246.04,244.01c6.66,1.72,13.88,2.57,19.33,1.5,6.02-1.19,11.08-4.02,15.03-8.42,5.06-5.64,7.95-13.53,8.35-22.82,.38-8.76-1.48-18.17-5.37-27.21-1.14-2.65-1.34-4.8-.63-6.59,1.96-4.88,9.76-9.18,18.37-12.84,8.14-3.46,16.56-7.04,22.55-12.56,5.41-4.98,8.05-10.9,7.89-17.65-.06-2.61-.54-5.35-1.44-8.21-.08-.26-.19-.51-.31-.75,1.64-.3,3.28,.27,4.39,1.42-1.24-1.29-3.16-1.85-4.98-1.27-2.57,.81-4,3.55-3.19,6.12,2.1,6.68,.98,11.39-3.75,15.75-4.74,4.37-12.37,7.61-19.75,10.75-10.93,4.65-21.25,9.03-24.71,17.68-1.71,4.26-1.47,9,.72,14.09,3.31,7.7,4.9,15.63,4.59,22.93-.3,7-2.33,12.78-5.86,16.71-6.88,7.66-17.83,6.33-25.8,3.87-2.58-.79-5.31,.65-6.11,3.23-.71,2.31,.37,4.74,2.45,5.79-.71-.36-1.31-.89-1.76-1.52Z"/><path class="cls-41" d="M334.99,130.98c.06,.12,.12,.24,.18,.37-.05-.13-.11-.25-.18-.37Z"/><path class="cls-41" d="M335.18,131.39c.05,.13,.11,.27,.15,.41-.04-.14-.09-.28-.15-.41Z"/><path class="cls-41" d="M334.76,130.59c.07,.11,.14,.22,.2,.34-.06-.12-.13-.23-.2-.34Z"/><path class="cls-41" d="M248.57,245.84c-.12-.04-.24-.08-.36-.13,.12,.05,.23,.09,.36,.13Z"/><path class="cls-41" d="M248.15,245.69c-.12-.05-.23-.1-.34-.15,.11,.05,.22,.11,.34,.15Z"/><path class="cls-41" d="M334.49,130.23c.08,.1,.16,.21,.23,.32-.07-.11-.15-.22-.23-.32Z"/><path class="cls-41" d="M334.2,129.89c.09,.1,.18,.2,.27,.31-.09-.11-.18-.21-.27-.31Z"/></g><path class="cls-55" d="M213.01,215.93s-6.76-14.66-8.01-20.42c-1.25-5.76-.38-12.39-.38-12.39l.72-1.46-1.6-2.35-13.01-1.31-9.09,1.93-.31,2.52,1.03,1.54s10.43,29.42,12.8,35.97c2.37,6.55,6.46,10.4,6.46,10.4l6.27-9.32,5.12-5.11Z"/><path class="cls-68" d="M296.47,406.08c.26-4.77,.83-36.43,.42-48.62-.42-12.19-3.61-37.5-3.61-37.5,0-1.24-.3-11.98-1.18-17.19-.88-5.21-.84-35.9-.4-37.93,.44-2.03,2.3-3.44,1.68-5.39-.62-1.94,.15-2.72-.13-4.06s-2.38-7.2-1.9-11.09c.49-3.89-.09-10.29-.84-13.38s.79-4.74-.31-7.05-5.66-14.59-5.66-14.59l-73.88,4.31s-4.18,4.73-6.1,8.42c-1.92,3.68-3.25,2.42-3.25,8.92s1.79,5.43,2.85,9.8c1.06,4.37-.4,22.32-.53,27.03-.13,4.7,4.53,17.63,5.53,33.13,.99,15.5-1.99,16.5,1.19,19.28,0,0,2.05,13.98,2.65,26.1,.6,12.12,4.57,29.61,3.58,43.92-3.18,14.91-3.18,13.42-2.38,14.16s25.85,4.72,28.82,1.74c.39-6.76,3.35-26.43,3.56-40.14,.21-13.71,1.21-37.18-.38-55.26,.41-8.85,.72-28.26,.72-28.26,0,0,4.77,15.99,5.74,20.4,.97,4.42,2.03,14.04,2.21,15.9,.02,.18,.07,.36,.15,.54,.75,2.8,4.2,15.83,6.08,24.6,2.12,9.88,7.29,42.21,7.95,53.74,.66,11.53-.79,10.6,0,12.85s22.13,3.58,27.43,1.06c1.06-2.25-.26-.66,0-5.43Z"/><path class="cls-67" d="M210.67,213.59s-.17,.13,0,.64,2.78,4.04,5.1,5.59,9.66,4.55,10.79,5.61,3.28,2.35,6,3.18,6.98,.33,13.13-.96,17.58-5.06,22.13-6.34,9.36-5.02,11.53-6.77,2.91-2.51,3.75-3.04,1.37-.66,1.5-1.46-.46-1.76-.46-1.76l-45.96,7.9-23.27-3.31-4.24,.73"/><path class="cls-22" d="M219.94,222s-.64-.25-.77-2.37,.64-3.86,.64-3.86l-2.03-.42s-.32,1.29-.38,3.33,.32,2.24,.32,2.24c0,0,1.86,2.09,2.22,1.09Z"/><path class="cls-22" d="M254.66,225.27c-1.88-2.54-3.05-7.9-3.05-7.9,0,0-2.09-2.05-2.02,.86s2.59,7.75,2.59,7.75c0,0,.23,.31,.77,.26s2.14-.61,1.72-.98Z"/><path class="cls-65" d="M200.07,126.58c-1.46-4.11-6.23-16.63-7.28-15.57-1.05,1.06-.87,6.49-1.07,9.14-.2,2.65-4.04,8.61-3.25,14.91,.79,6.29-2.05,11.2-3.38,14.97s-1.59,8.15-1.66,10.07c-.07,1.92-2.72,1.92-3.25,7.22-.53,5.3,1.93,5.04,1.93,5.04,0-4.17,2.97-2.98,5.36-4.02,2.38-1.04,5.97-1.31,8.88-.46,2.91,.85,6.43,3.62,8.21,4.81,1.79,1.19,2.35,.35,2.35,.35l1.43-15.85s-6.82-26.5-8.28-30.61Z"/><path class="cls-11" d="M206.5,172.92s-.12-4.05,0-10.89c.12-6.83,1.12-9.68,1.18-12.07s-1.66-3.11-3.05-5.37-2.98-6.49-4.24-7.82-.13,3.71,1.32,7.22,3.05,4.5,2.65,8.21-.93,4.7-2.38,3.05-3.78-3.11-2.85-1.79,3.84,6.08,3.58,6.68-2.81-.08-3.79,0,1.01,.97,1.54,1.81,2.65,3.21,1.72,5.04-3.05,.77-5.3-.36-5.37-1.66-8.41-1.66-5.96,.33-6.76,1.52,1.32,.2,3.91,0,7.22-.61,10.14,1.35,3.05,1.3,4.37,3.35,6.78,3.44,6.37,1.69"/><path class="cls-1" d="M204.62,183.13s1.75-2.75-6.59-2.89c-8.33-.14-15.08-.01-15.83,.57s.54,2.76,.15,3.18-2.87,.86-4.91-2.28c-2.04-3.14-2.22-9.97-1.65-12.46,.57-2.49,5.42-3.58,14.13-3.81,8.71-.22,17.05,5.98,17.92,7.16,.87,1.18,1.25,3.56,.55,4.94-.71,1.37-1.72,4.75-1.72,4.75,0,0-1.41,2.62-2.05,.83Z"/><path class="cls-65" d="M285.7,149.48c1.06-5.92,4-43.17,4.06-46.68s-1.01-5.84-3.32-6.33c-2.31-.49-8.01,.17-10.66-2.28s-10.14-4.77-12.06-5.56c-1.92-.79-12.62,9.11-15.67,10.63s-7.65,3.21-7.65,3.21l-4.44,13.98-1.99-13.51s-4.31-5.17-4.7-5.56c-.4-.4-5.96-5.5-7.55-4.57s-6.29,4.9-8.35,5.9-5.56,1.46-8.68,2.32c-3.11,.86-10.78,7.4-11.75,9.61-.97,2.21,2.47,10.95,3.53,16.16,1.06,5.21,4.95,13.87,6.45,15.81,1.5,1.94,3.97,8.3,3.8,14.22-.18,5.92-.26,31.49,.71,37.39,.97,5.89,2.03,5.45,2.38,7.66,.35,2.21,.86,1.65-.18,2.65-1.49,1.43-3.53,2.47-1.59,5.74,1.94,3.27,.44,2.38,3.27,3.62,2.83,1.24,8.92,2.03,13.6,3.8,4.68,1.77,10.69,4.06,21.02,1.85,10.33-2.21,13.96-5.3,18.2-6.18,4.24-.88,7.24-.59,12.45-.87,5.21-.28,6.62-2.75,8.83-4.78,2.21-2.03,4.15-4.5,2.38-7.77-1.77-3.27-3.53,.79-3.71-3.8-.18-4.59,.79-10.81,0-16.4-.79-5.59-1.5-7.36-.53-14.51,.97-7.15,1.06-9.8,2.12-15.72Z"/><path class="cls-37" d="M236.15,115.91s-.8-11.03-1.86-12.84-2.47-4.42-3.44-5.61-2-3.23-4.67-2.7-3.11,2.96-3.15,4.73,1.62,3.11,4.17,9.41c2.55,6.29,3.12,9.14,2.85,14.09s-.64,9.27,.26,15.37c.89,6.1,5.66-19.19,5.84-22.45"/><g><path class="cls-37" d="M235.44,186.85c0-14.04,.44-48.14,3.8-58.47,3.36-10.33,10.56-29.24,10.56-29.24,0,0,1.05-1.41-2.52-2.82-3.58-1.41-5.7,2.03-6.36,3.4-.66,1.37-4.02,14.04-4.95,16.74-.93,2.69-4.57,12.72-6.7,28.62-1.41,10.55-1.86,29.98-2.01,41.85l8.18,.1v-.17Z"/><path class="cls-37" d="M236.49,215.93c-.25-4.23-.61-10.92-.83-17.79-3.41,.65-6.48,.56-8.39,.32l.75,17.01,.15,3.36c2.39,.78,5.17,1.45,8.6,1.58,0,0-.12-1.71-.28-4.48Z"/><path class="cls-37" d="M235.65,198.14c-.12-3.78-.21-7.62-.21-11.12l-8.18-.1c-.07,6.01-.07,10.08-.07,10.08l.06,1.47c1.91,.23,4.98,.32,8.39-.32Z"/></g><path class="cls-1" d="M224.94,107.41s-1.12-4.42-1.51-6.3,.02-4.63,1.51-5.39,2.82,.21,3.7,1.07,5.6,6.2,5.6,6.2c0,0-1.68-4.07-4.33-7.54s-4.01-4.83-4.21-6.62,.69-3.99,.69-3.99l-1.42-.62s-2.38,7.35-3.25,8.58,1.26,11.04,2.32,13.67c.89,2.06,.89,.94,.89,.94Z"/><path class="cls-1" d="M261.97,81.61l-5,2.75s.13,.82-.17,1.7l-4.95,4.25c-2.4,1.63-5.23,3.45-6.96,4.37-3.09,1.63-3.97,5.04-3.97,5.04,0,0,3.22-6.44,8.88-1.37,.99,1.27,1.36,4.42,2.89,8.13,5.41-5.83,12.43-15.19,13.44-16.96-2.88-2.21-4.15-7.91-4.15-7.91Z"/><path class="cls-65" d="M286.44,96.47c-.31-.07-.69-.11-1.11-.15,.08-.02,.17-.02,.28-.01,.18,.01,.47,.07,.83,.16h0Zm30.97,74.47c0-1.77-.62-4.15-1.16-8.21-.54-4.06-1.58-5.48-.34-7.68,1.24-2.21-1.24-2.65-1.94-5.03-.71-2.38-4.68-11.48-4.24-14.31,.44-2.83-.35-3.44-1.25-4.86s-1.49-2.03-.78-3.97c.71-1.94,1.32-3.09,0-6.54s-6.36-14.49-8.92-17.49c-2.15-2.52-8.83-5.35-11.87-6.25,.32,.11,.6,.26,.87,.45l-.87-.45s-4.67,7.13-4.86,15.61c-.16,7.03-.07,13.29-.31,17.11,.02,0,.03,.02,.05,.03,3.12,1.68,.33,3.36,0,6.18-.33,2.83-.5,6.71,.03,9.63,.53,2.91-1.1,5.3,1.44,7.95,.87,.9,1.31,1.46,1.62,1.7v.05c-.05,.3-.08,.59-.12,.89,1.93,2.51,5.1,4.64,5.02,6.37-.09,1.85,.71,2.38,.71,2.38,.84-.52,7.07-.09,10.16,.53,3.09,.62,9.07,1.59,12.45,4.24s2.3,6.89,3.55,6.45c1.43-1.77,.77-3,.77-4.77Z"/><path class="cls-11" d="M291.88,163.61c1.41-.89,4.97-2.65,8.74-3.04,3.78-.4,7.55,.53,6.36-.13-1.19-.66-6.29-1.52-9.24-.53-2.95,.99-6.19,2.38-6.79,1.85-.6-.54,.46-.59,2.21-2.2,1.75-1.61,5.21-2.7,4.48-2.9s-4.64,.6-6.62,2.45c-1.99,1.85-1.82-.36-3.18-2.45-1.36-2.09-.48-2.1-.12-2.7,.36-.6,1.68-3.51-.66-1.03-1.54,1.63-1.61,2.34-2.2,1.87-.04,.31-.08,.63-.12,.94,1.93,2.51,5.1,4.64,5.02,6.37-.09,1.85,.71,2.38,.71,2.38,.11-.07,.33-.12,.61-.16,.17-.24,.42-.49,.8-.73Z"/><g class="cls-13"><path class="cls-12" d="M280.4,208.63c-4.46,.15-7.2,1.84-12.32,1.58-5.12-.26-6.27,.04-12.01,2.52s-7.86,2.12-15.99,2.91c-8.13,.79-10.86,.35-16.91-1.41-6.05-1.77-13.55-2.18-13.56-1.85,0,.26,.02,.5,.06,.75,.27,.17,.73,.35,1.66,.75,2.83,1.24,8.92,2.03,13.6,3.8,4.68,1.77,10.69,4.06,21.02,1.85,10.33-2.21,13.96-5.3,18.2-6.18s7.24-.59,12.45-.87c4.14-.22,5.88-1.83,7.53-3.5-.5-.22-1.55-.41-3.74-.34Z"/></g><path class="cls-1" d="M286.63,174.23c-2.27-1.18-2.93-4.16-1.3-6.13,.98-1.18,2.22-2.41,3.68-3.37,4.07-2.65,6.23-5.15,7.75-6.03,1.52-.88,4.59-4.2,10.36-2.15,5.77,2.05,7.73,5.52,9.48,6.81,1.74,1.29,2.18,5.06,2.6,7.23,.42,2.17,2.45,7.77-2.08,10.69-4.53,2.91-23.77-3.65-23.96-3.7-.11-.03-3.6-1.83-6.53-3.35Z"/><path class="cls-55" d="M286.69,169.14s2.26,.23,3.39,.02,2.92-2.8,4.37-4.03c1.45-1.24,5.22-3.66,13.32-2.28,4.73,.96,4.03,2.1,5.15,3.97s2.67,3.37,3.05,4.59,1.08,5.62-.3,7.79-2.43,2.15-5.48,3.48c-3.05,1.33-4.14,3.21-5.81,3.97s-14.18,.82-23.64-.43c.62-6.59,5.96-17.07,5.96-17.07Z"/><g><g><path class="cls-3" d="M278.51,138.58c5.87,10.16,2.38,23.15-7.78,29.02-.53,.31-1.07,.59-1.62,.84-9.88,4.64-21.84,1.01-27.4-8.62-5.87-10.16-2.38-23.15,7.78-29.02,2.16-1.25,4.53-2.11,6.99-2.54,8.53-1.48,17.45,2.39,22.03,10.31Z"/><path class="cls-47" d="M277.64,136.31c5.97,10.35,2.43,23.58-7.92,29.55-.54,.31-1.09,.6-1.65,.86-10.07,4.73-22.24,1.03-27.91-8.78-5.97-10.35-2.43-23.58,7.92-29.55,2.2-1.28,4.61-2.15,7.12-2.59,8.68-1.51,17.77,2.43,22.43,10.5Z"/><path class="cls-16" d="M274.94,137.87c5.11,8.85,2.08,20.18-6.78,25.29-.46,.27-.93,.51-1.41,.73-8.61,4.04-19.03,.88-23.88-7.51-5.11-8.85-2.08-20.18,6.78-25.29,1.88-1.09,3.95-1.84,6.09-2.21,7.43-1.29,15.21,2.08,19.2,8.99Z"/><path class="cls-69" d="M258.73,149.93s-.86-1.78-4.13-2.39c-4.67-.88-5.37-1.26-2.54-2.34s5.97,0,5.97,0"/><path class="cls-7" d="M256,157.8l-.71-1.04-2.06,1.4c-.21,.15-.27,.44-.12,.65l.18,.27c.15,.21,.44,.27,.65,.12h0l2.06-1.4Z"/><path class="cls-52" d="M256,157.8l-.35-.52-2.45,1.66,.09,.14c.15,.21,.44,.27,.65,.12h0l2.06-1.4Z"/><path class="cls-3" d="M263.36,148.58c-.62-.19-1.22-.27-1.87-.29-.62-.02-1.24,.04-1.86,.09-.54,.04-1.07,.02-1.58,.2,0,.04,0,.08-.01,.13s-.01,.08-.01,.13c0,.09-.02,.19-.03,.29,0,.01,0,.02,0,.04,0,.04-.01,.08-.02,.12s-.01,.09-.02,.13c-.01,.1-.03,.19-.05,.29-.05,.28-.11,.57-.18,.85-.01,.05-.02,.09-.04,.14-.02,.08-.04,.15-.06,.23-.02,.06-.03,.11-.05,.16s-.03,.11-.05,.16c0,.01,0,.02-.01,.03-.03,.08-.05,.16-.08,.24,0,.02-.01,.04-.02,.06,0,.03-.02,.06-.03,.1l-.03,.1c-.03,.08-.06,.16-.09,.24-.04,.11-.09,.22-.13,.33-.04,.09-.07,.18-.11,.27,0,.02-.01,.03-.02,.05-.03,.07-.07,.14-.1,.21h0c-.05,.12-.11,.24-.17,.35-.12,.24-.25,.47-.38,.7-.25,.42-.52,.82-.81,1.21-.13,.17-.26,.33-.39,.49h0c-.07,.08-.14,.16-.21,.24-.06,.07-.12,.14-.19,.21-.09,.09-.17,.18-.26,.27h0s-.02,.03-.06,.08c0,.02-.02,.03-.03,.05l-.02,.03s-.01,.02-.02,.03c-.15,.29-.21,.62-.17,.95,0,0,0,.02,0,.03,.04,.21,.12,.42,.25,.6,.07,.1,.15,.2,.24,.29h0c.06,.07,.13,.12,.21,.17,.26,.16,.57,.21,.89,.18,.64-.05,1.33-.39,1.73-.62,3.39-2.03,5.65-5.53,6.11-9.46-.08-.03-.16-.05-.25-.08Z"/><path class="cls-47" d="M259.64,148.38c-.54,.04-1.07,.02-1.58,.2,0,.04,0,.08-.01,.13s-.01,.08-.01,.13-.01,.08-.02,.13c0,.05-.01,.11-.02,.16,0,.01,0,.02,0,.04,0,.04-.01,.08-.02,.12s-.01,.09-.02,.13-.02,.09-.02,.13-.02,.1-.02,.15c-.02,.09-.03,.17-.05,.26v.05s-.03,.08-.03,.12c-.02,.09-.04,.18-.06,.27-.01,.05-.02,.1-.04,.15s-.02,.09-.04,.14c-.02,.08-.04,.15-.06,.23-.02,.05-.03,.11-.05,.16s-.03,.11-.05,.16c0,.01,0,.02-.01,.03-.03,.08-.05,.16-.08,.24,0,.02-.01,.04-.02,.06l-.03,.1-.03,.1c-.03,.08-.06,.16-.09,.24-.03,.07-.06,.14-.08,.21-.02,.04-.03,.08-.05,.12-.04,.09-.07,.18-.11,.27,0,.02-.01,.03-.02,.05-.03,.07-.07,.14-.1,.21h0c-.03,.06-.05,.12-.08,.17s-.06,.12-.09,.18c-.04,.08-.09,.17-.13,.25l-.07,.13c-.06,.11-.12,.21-.18,.32-.04,.07-.08,.14-.13,.21-.07,.1-.13,.21-.2,.3-.05,.07-.09,.13-.14,.2-.07,.1-.14,.2-.22,.3-.05,.06-.09,.13-.14,.19-.08,.11-.17,.22-.26,.32l-.1,.12s-.03,.03-.04,.05h0c-.07,.08-.14,.16-.21,.24-.06,.07-.12,.14-.19,.21-.09,.09-.17,.18-.26,.27h0s-.02,.03-.06,.08c0,.02-.02,.03-.03,.05l-.02,.03s-.01,.02-.02,.03c-.15,.29-.21,.62-.17,.95,0,0,0,.02,0,.03,.04,.21,.12,.42,.25,.6,.07,.1,.15,.2,.24,.29h.02c1.01-.58,1.94-1.29,2.75-2.11,.11-.11,.22-.23,.33-.34,1.88-2.03,3.04-4.61,3.31-7.35,0-.09,.02-.19,.02-.28-.49,0-.98,.05-1.47,.09Z"/><path class="cls-4" d="M263.66,148.09l-2.58,.48-3.09,.58s0-.02,0-.04c0-.05,.01-.11,.02-.16,0-.04,0-.08,.02-.13s.01-.08,.01-.13c.01-.11,.02-.22,.03-.33,0-.07,0-.14,.01-.21,0-.14,.01-.28,.02-.43,0-.05,0-.1,0-.15,0-.01,0-.03,0-.04,0-.09,0-.17,0-.26s0-.18,0-.27c0-.1-.01-.21-.02-.31,0-.09,0-.17-.02-.26s-.02-.18-.02-.28c0-.03,0-.06,0-.09,0-.06-.01-.12-.02-.18,0,0,0,0,0-.01-.01-.09-.02-.18-.04-.27,0-.02,0-.04,0-.06v-.05c-.02-.06-.03-.12-.04-.18,0-.05-.02-.1-.02-.15s-.02-.1-.03-.15v-.04s-.02-.06-.03-.09-.01-.06-.02-.1c-.04-.21-.09-.42-.14-.62-.03-.1-.06-.21-.08-.31-.04-.15-.09-.29-.13-.44v-.05s-.02-.02-.03-.04c-.06-.17-.12-.34-.18-.5-.02-.06-.04-.11-.07-.17s-.05-.11-.07-.17c-.03-.07-.05-.13-.08-.2-.02-.04-.03-.08-.05-.12-.03-.07-.06-.14-.1-.21-.03-.06-.06-.13-.09-.19-.06-.11-.11-.22-.17-.33-.03-.06-.06-.11-.09-.17l-.03-.06s-.02-.04-.04-.06c-.02-.04-.05-.08-.07-.12l-.08-.14c-.09-.16-.19-.31-.28-.46v-.02c-.1-.14-.2-.27-.29-.41h0c-.37-.57-1.38-1.81-1.83-2.84-.21-.47-.3-.9-.15-1.19,.02-.04,.04-.07,.06-.11h0s.06-.06,.09-.09h0c.3-.25,.68-.34,1.05-.35,.76-.03,1.52,.28,1.6,.31,4.64,2.29,7.43,7.16,7.07,12.32h0Z"/><path class="cls-70" d="M261.08,148.57c.39-3.85-.97-7.82-4.03-10.64-.75-.69-1.58-1.29-2.47-1.78-.13-.07-.26-.14-.39-.21-.08-.04-.17-.08-.25-.12-.03,.03-.06,.06-.09,.09h0s-.05,.07-.06,.11c-.15,.3-.06,.72,.15,1.19,.45,1.03,1.46,2.26,1.83,2.83h0c.1,.14,.19,.28,.28,.41v.02c.11,.15,.21,.3,.3,.46l.02,.04,.06,.1s.05,.08,.07,.12c.01,.02,.03,.04,.04,.06l.03,.06c.03,.05,.06,.11,.09,.17,.06,.11,.11,.22,.17,.33,.03,.06,.06,.13,.09,.19,.03,.07,.07,.14,.1,.21,.02,.04,.03,.08,.05,.12,.03,.07,.06,.13,.08,.2,.02,.06,.04,.11,.07,.17s.05,.11,.07,.17c.06,.17,.12,.33,.18,.5,0,.01,0,.02,.01,.04v.05c.06,.15,.11,.29,.15,.44,.03,.1,.06,.21,.08,.31,.05,.21,.1,.41,.14,.62,0,.03,.01,.06,.02,.1s.01,.06,.02,.09v.04c.02,.05,.03,.1,.03,.15s.02,.1,.02,.15c0,.06,.02,.12,.03,.18v.05s.01,.04,.01,.06c.01,.09,.02,.18,.04,.27,0,0,0,0,0,.01,0,.06,.01,.12,.02,.18,0,.03,0,.06,0,.09,0,.09,.02,.19,.02,.28s.01,.17,.02,.26c0,.1,.01,.21,.02,.31,0,.09,0,.18,0,.27s0,.17,0,.26c0,.02,0,.03,0,.04,0,.05,0,.1,0,.15,0,.14,0,.28-.02,.43,0,.07,0,.14-.01,.21,0,.11-.02,.22-.03,.33,0,.04,0,.08-.01,.13s-.01,.08-.02,.13c0,.05-.01,.11-.02,.16,0,.01,0,.02,0,.04l3.09-.58Z"/><path class="cls-69" d="M257.99,149.15s2.81-.47,4.26-.08c2.28,.61,3.09,.73,4.76,5.57,.06,.18,.13,.35,.2,.52,.34,.77,1.32,2.65,1.71-3.24,.48-7.09-5.21-5.72-5.21-5.72-2.08,.52-4.01,1.55-5.73,2.94Z"/><path class="cls-70" d="M248.5,129.12c2.2-1.27,4.61-2.15,7.12-2.58,8.54-1.48,17.46,2.3,22.19,10.11-.06-.11-.12-.23-.19-.34-4.66-8.07-13.74-12-22.42-10.5-2.51,.44-4.91,1.31-7.12,2.58-10.34,5.97-13.89,19.2-7.91,29.54,.07,.13,.15,.25,.22,.37-5.69-10.29-2.11-23.28,8.11-29.18Z"/><path class="cls-3" d="M250.01,131.72c1.88-1.09,3.95-1.84,6.09-2.21,7.31-1.27,14.95,1.97,19,8.65-.05-.1-.11-.19-.16-.29-3.99-6.91-11.77-10.28-19.2-8.99-2.15,.37-4.21,1.12-6.09,2.21-8.85,5.11-11.89,16.43-6.78,25.29,.06,.11,.13,.21,.19,.32-4.87-8.81-1.8-19.93,6.95-24.98Z"/></g><g class="cls-26"><path class="cls-30" d="M268.66,127.81l-10.96,40.91c1.42,.08,2.86,.02,4.29-.19l10.3-38.42c-1.13-.89-2.35-1.66-3.62-2.3Z"/><path class="cls-30" d="M255.21,125.8c-.16,.03-.33,.06-.49,.09l-10.05,37.53c2.99,2.61,6.62,4.32,10.44,5l11.16-41.64c-3.5-1.27-7.32-1.63-11.06-.98Z"/></g></g><path class="cls-55" d="M285.2,166.7s-.09-.14-.2-.31c-.81-1.21-3.94-5.49-8.44-5.58-5.14-.11-9.05,.97-10.88,1.41s-17.1,1.54-17.1,1.54l-3.21-.06s-2.22,.28-2.29,1.9,2.49,2.69,4.3,3.22,6.38,1.3,7.15,2.15,.2,4.59,.5,5.32,4.9,10.08,12.13,11.13c7.23,1.05,17.64-1.77,17.64-1.77,0,0,7.71-7.21,4.97-12.24-2.75-5.02-4.56-6.71-4.56-6.71Z"/><path class="cls-29" d="M265.88,187.13s-6.14-1.49-7.37-2.53-1.63-3.04-1.63-3.04l1.9-.15,7.09,5.72Z"/><path class="cls-29" d="M258.67,181.94s-2.6,.49-3.86-1.28-1.88-3.01-1.61-3.91,2.45-.26,2.45-.26l3.02,5.44Z"/><path class="cls-29" d="M251.78,169.88s-2.18,.72-2.02,2.41,.83,4.06,2.04,4.31,3.81,.23,3.81,.23c0,0,.42-4.26,.22-5.24s-2.56-2.08-2.56-2.08l-1.51,.37Z"/><circle class="cls-57" cx="240.46" cy="113.34" r="1.77"/><circle class="cls-33" cx="234.24" cy="136.65" r="1.77"/><circle class="cls-51" cx="232.05" cy="161.45" r="1.77"/><circle class="cls-24" cx="231.42" cy="186.92" r="1.77"/><circle class="cls-34" cx="231.42" cy="207.86" r="1.77"/><g class="cls-56"><path class="cls-62" d="M244.54,328.04c.53,6.49,2.37,22.24,2.37,22.25,.25-12.52,.37-27.32-.72-39.62,.41-8.85,.72-28.26,.72-28.26,0,0-2.91,15.82-3.43,21.12-.52,5.3,.52,18.02,1.05,24.51Z"/><path class="cls-62" d="M261.84,330.99c-3.44-9.31-.74-9.97-4.95-21.08-4.22-11.11,.24-11.34-2.16-23.74-2.4-12.4-1.58-8.47-4.78-14.63-3.21-6.16-7.13-13.91-6.92-6.57,.2,7.35,3.9,17.45,3.9,17.45,0,0,4.77,15.99,5.74,20.4,.97,4.42,2.03,14.04,2.21,15.9,.02,.18,.07,.36,.15,.54,.75,2.8,4.2,15.83,6.08,24.6,.86,3.99,2.21,11.63,3.56,20.09-.17-11.87-.79-27.47-2.82-32.96Z"/></g><g><path class="cls-55" d="M210.77,36.9c-.7,2.44-1.07,4.97-1.1,7.51v.53c0,3.08-.41,6.13-1.13,9.11-1.41-.52-2.86-1.55-4.23-3.33-3.62-4.67-2.32-12.11,2.22-13.81,1.72-.64,3.14-.49,4.25-.04,0,.01,0,.02,0,.03Z"/><path class="cls-61" d="M210.77,36.9c-.7,2.44-1.07,4.97-1.1,7.51v.53c0,3.08-.41,6.13-1.13,9.11-1.41-.52-2.86-1.55-4.23-3.33-3.62-4.67-2.32-12.11,2.22-13.81,1.72-.64,3.14-.49,4.25-.04,0,.01,0,.02,0,.03Z"/><path class="cls-55" d="M278.1,51.5c-1.41,1.74-2.88,2.75-4.3,3.23-.66-3-1-6.06-.93-9.13v-.53c.02-2.55-.3-5.1-.95-7.56,1.12-.42,2.55-.55,4.25,.13,4.49,1.8,5.64,9.26,1.93,13.86Z"/><path class="cls-61" d="M278.1,51.5c-1.41,1.74-2.88,2.75-4.3,3.23-.66-3-1-6.06-.93-9.13v-.53c.02-2.55-.3-5.1-.95-7.56,1.12-.42,2.55-.55,4.25,.13,4.49,1.8,5.64,9.26,1.93,13.86Z"/><path class="cls-55" d="M263.99,54.73c-1.35,2.07-1.75,4.64-.97,7.01,.58,1.78,1.1,3.78,1.08,5.27-.11,10.9-10.53,19.63-23.27,19.49-12.74-.13-22.98-9.08-22.86-19.97,.02-1.49,.57-3.49,1.19-5.25,.82-2.34,.48-4.93-.82-7.02-.31-.5-.59-1.03-.84-1.57-.74-1.65-1.11-3.44-1.09-5.25,.08-7.24,6.3-13.04,13.9-12.96,2.46,.02,4.86,.67,6.99,1.9,2.5,1.45,5.57,1.48,8.1,.08,2.15-1.18,4.57-1.78,7.03-1.75,7.6,.08,13.7,6.01,13.63,13.25-.02,1.81-.42,3.59-1.19,5.22-.25,.54-.55,1.06-.87,1.55Z"/><path class="cls-61" d="M263.99,54.73c-1.35,2.07-1.75,4.64-.97,7.01,.58,1.78,1.1,3.78,1.08,5.27-.11,10.9-10.53,19.63-23.27,19.49-12.74-.13-22.98-9.08-22.86-19.97,.02-1.49,.57-3.49,1.19-5.25,.82-2.34,.48-4.93-.82-7.02-.31-.5-.59-1.03-.84-1.57-.74-1.65-1.11-3.44-1.09-5.25,.08-7.24,6.3-13.04,13.9-12.96,2.46,.02,4.86,.67,6.99,1.9,2.5,1.45,5.57,1.48,8.1,.08,2.15-1.18,4.57-1.78,7.03-1.75,7.6,.08,13.7,6.01,13.63,13.25-.02,1.81-.42,3.59-1.19,5.22-.25,.54-.55,1.06-.87,1.55Z"/><path class="cls-41" d="M229.27,69.09c-.73,0-1.33,.58-1.34,1.31,0,.06,0,.12,0,.17,.75,5.85,6.24,10.42,12.96,10.49,6.71,.07,12.3-4.39,13.17-10.22,.1-.73-.4-1.4-1.13-1.5-.06,0-.11-.01-.17-.01l-23.5-.25Z"/><path class="cls-20" d="M233.33,78.81c4.61,2.95,10.5,3.01,15.18,.16-.92-3.31-3.97-2.58-7.56-2.62s-6.63-.83-7.62,2.46Z"/><path class="cls-55" d="M277.76,35.23c-2.71-1.09-4.89-.55-6.42,.31-.36-1.1-.78-2.18-1.25-3.23-.34-.78-.72-1.54-1.12-2.29-4.1-7.69-11.06-14.1-19.09-16.87l-.11-4.34-5.25,3.08c-.21-.03-.42-.05-.63-.07-.39-.04-.77-.07-1.16-.09l-.73-3.29-.21-.96c-.26,0-.51,0-.76,.02-4.86,.34-7.32,4.73-7.7,5.48-8.09,2.6-15.17,8.87-19.43,16.46-.42,.74-.81,1.5-1.17,2.26-.49,1.05-.93,2.12-1.32,3.21-.06-.04-.13-.08-.19-.11-1.5-.83-3.6-1.32-6.22-.33-5.76,2.17-7.41,11.61-2.82,17.55,1.87,2.42,3.85,3.75,5.77,4.36-.03,.11-.05,.22-.08,.32-.36,1.58-.55,3.2-.57,4.82-.12,11.25,8.08,21.02,19.93,25.4,2.78,1.03,5.67,1.73,8.61,2.11,1.53,.2,3.06,.31,4.6,.34h.37c18.67,.2,33.93-11.96,34.08-27.16,.02-1.62-.14-3.24-.47-4.83-.02-.11-.05-.22-.07-.32,1.93-.57,3.94-1.86,5.86-4.24,4.71-5.84,3.26-15.31-2.45-17.59Zm-66.99,1.68c-.7,2.44-1.07,4.97-1.1,7.51v.53c0,3.08-.41,6.13-1.13,9.11-1.41-.52-2.86-1.55-4.23-3.33-3.62-4.67-2.32-12.11,2.22-13.81,1.72-.64,3.14-.49,4.25-.04,0,.01,0,.02,0,.03Zm54.1,16.27c-.25,.54-.54,1.06-.87,1.55-1.35,2.07-1.75,4.64-.97,7.01,.58,1.78,1.1,3.78,1.08,5.27-.11,10.9-10.53,19.63-23.27,19.49-12.74-.13-22.98-9.08-22.87-19.97,.02-1.49,.57-3.49,1.19-5.25,.82-2.34,.48-4.93-.82-7.02-.31-.5-.59-1.03-.84-1.57-.74-1.65-1.11-3.44-1.09-5.25,.08-7.24,6.3-13.04,13.9-12.96,2.46,.02,4.86,.67,6.99,1.9,2.5,1.45,5.57,1.48,8.1,.08,2.15-1.18,4.57-1.78,7.03-1.75,7.6,.08,13.7,6.01,13.63,13.25-.02,1.81-.42,3.59-1.19,5.22Zm13.24-1.68c-1.41,1.74-2.88,2.75-4.3,3.23-.66-3-1-6.06-.93-9.13v-.53c.02-2.55-.3-5.1-.95-7.56,1.12-.42,2.55-.55,4.25,.13,4.49,1.8,5.64,9.26,1.93,13.86h0Z"/><rect class="cls-41" x="236.55" y="57.87" width="2.22" height="5.03" rx="1.11" ry="1.11" transform="translate(82 249.85) rotate(-64.85)"/><rect class="cls-41" x="242.05" y="59.36" width="5.03" height="2.22" rx="1.11" ry="1.11" transform="translate(-3.49 104.49) rotate(-23.95)"/><path class="cls-41" d="M229.33,52.8h0c-2.18-.02-3.93-1.72-3.91-3.79v-1.25c.03-2.07,1.82-3.73,4-3.7h0c2.18,.02,3.93,1.72,3.91,3.79v1.25c-.03,2.07-1.82,3.73-4,3.7Z"/><path class="cls-45" d="M229.42,44.07l-.05,4.37c-.01,1.03,.87,1.88,1.96,1.89,1.09,.01,1.98-.82,2-1.85v-.62c.03-2.07-1.72-3.76-3.91-3.79Z"/><ellipse class="cls-6" cx="229.4" cy="46.56" rx="1.25" ry="1.32" transform="translate(180.44 275.46) rotate(-89.4)"/><path class="cls-41" d="M253.04,53.05h0c-2.18-.02-3.93-1.72-3.91-3.79v-1.25c.03-2.07,1.82-3.73,4-3.7h0c2.18,.02,3.93,1.72,3.91,3.79v1.25c-.03,2.07-1.82,3.73-4,3.7Z"/><path class="cls-45" d="M253.13,44.31l-.05,4.37c-.01,1.03,.87,1.88,1.96,1.89s1.98-.82,2-1.85v-.62c.03-2.07-1.72-3.76-3.91-3.79Z"/><ellipse class="cls-6" cx="253.1" cy="46.81" rx="1.25" ry="1.32" transform="translate(203.65 299.41) rotate(-89.4)"/><path class="cls-39" d="M242,8.43c-.88-.1-2.83,1.28-5.18,3.66-.58,.59-1.19,1.25-1.82,1.97-4.6,5.28-9.95,13.62-11.84,22.23-3.18,14.44-4.58,31.22,.66,40.59,4.44,7.94,12.01,12.15,12.01,12.15-2.94-.38-5.83-1.09-8.61-2.12-11.85-4.38-20.05-14.15-19.93-25.4,.02-1.62,.21-3.24,.57-4.82,.02-.11,.05-.22,.08-.32-1.92-.6-3.9-1.94-5.77-4.36-4.59-5.94-2.94-15.38,2.82-17.54,2.62-.99,4.72-.49,6.22,.33,.07,.04,.13,.07,.19,.11,.38-1.09,.82-2.16,1.32-3.21,.36-.77,.75-1.52,1.17-2.26,4.26-7.6,11.34-13.87,19.43-16.46,.39-.75,2.85-5.14,7.7-5.48,.25-.02,.5-.03,.76-.02l.22,.96Z"/></g></g></svg>