<?xml version="1.0" encoding="utf-8"?>
<!-- Generator: Adobe Illustrator 27.0.0, SVG Export Plug-In . SVG Version: 6.00 Build 0)  -->
<svg version="1.1" id="Capa_1" xmlns="http://www.w3.org/2000/svg" xmlns:xlink="http://www.w3.org/1999/xlink" x="0px" y="0px"
	 viewBox="0 0 500 500" style="enable-background:new 0 0 500 500;" xml:space="preserve">
<style type="text/css">
	.st0{fill:#7FCDEE;}
	.st1{fill:#B2E1F5;}
	.st2{opacity:0.8;}
	.st3{fill:#F3FBFE;}
	.st4{fill:#E1F4FD;}
	.st5{fill:#EFEFEF;}
	.st6{fill:#DBDBDB;}
	.st7{fill:#FFB300;}
	.st8{fill:#D89000;}
	.st9{fill:#2C2323;}
	.st10{fill:#4E3F3F;}
	.st11{opacity:0.25;fill:url(#SVGID_1_);enable-background:new    ;}
	.st12{fill:url(#SVGID_00000093158871521993379560000006927196123747958177_);}
	.st13{fill:url(#SVGID_00000058575604219857862270000008420191069124415896_);}
	.st14{fill:url(#SVGID_00000010295434320559447750000004088072106752381346_);}
	.st15{fill:url(#SVGID_00000083774476742480936050000012583938538769359023_);}
	.st16{fill:url(#SVGID_00000080195401693720982870000003037770235178272947_);}
	.st17{opacity:0.15;fill:#FFFFFF;enable-background:new    ;}
	.st18{fill:#3B2F2F;}
	.st19{opacity:0.1;}
	.st20{fill:url(#SVGID_00000042720182553580789890000012214269244181107088_);}
	.st21{fill:url(#SVGID_00000134238506267707607500000014289919778847689122_);}
	.st22{fill:#C7C8C9;}
	.st23{fill:#999999;}
	.st24{fill:#C6C6C6;}
	.st25{fill:#AAAAAA;}
	.st26{fill:#939393;}
	.st27{fill:#7F7F7F;}
	.st28{fill:#8C5648;}
	.st29{fill:#D1D1D1;}
	.st30{fill:#63CE63;}
	.st31{fill:#EE3224;}
	.st32{fill:#A16552;}
	.st33{fill:#F5DCB4;}
	.st34{fill:#E6646E;}
	.st35{fill:#5D5360;}
	.st36{fill:#FFFFFF;}
	.st37{opacity:0.35;fill:#4E3F3F;enable-background:new    ;}
	.st38{fill:#7C7B7B;}
	.st39{fill:#B48B08;}
	.st40{fill:#F0B90B;}
	.st41{fill:#F3C73C;}
	.st42{opacity:0.33;}
	.st43{fill:#FDFBF5;}
	.st44{opacity:0.6;}
</style>
<g>
	<g id="Laag_2">
		<ellipse class="st0" cx="250" cy="432.5" rx="160.5" ry="50"/>
		<ellipse class="st1" cx="250" cy="429.8" rx="154.1" ry="44.6"/>
		<g class="st2">
			<g>
				<path class="st3" d="M96.8,365.1c0,0-16.9-2.5-17.7,14.9s18.2,10.6,18.2,10.6s0.5,22.9,28.2,12.9c0,0,14.5,23.4,46.6,5.2
					c0,0,38.1,14.1,35.6-20.3c0,0,14.1,7,14.3-11c0.2-18-22.3-11.7-22.3-11.7s-1.7-24.4-25.3-13.4c0,0,0.1-19.2-24.7-11.6
					s-23.4,16.2-23.4,16.2S111.2,335.8,96.8,365.1L96.8,365.1z"/>
				<path class="st4" d="M96.8,365.1c0,0-16.9-2.5-17.7,14.9s18.2,10.6,18.2,10.6s0.5,22.9,28.2,12.9c0,0,14.5,23.4,46.6,5.2
					c0,0,38.1,14.1,35.6-20.3c0,0,14.1,7,14.3-11c0.2-18-22.3-11.7-22.3-11.7s18.4,1.9,15.8,13.5c-2.6,11.6-15.6,5.9-15.6,5.9
					c4.2,23.1-17.9,12.9-17.9,12.9c-31.7,24.3-53.8-6-53.8-6s-16.2,1.3-30.8-7.2S96.7,365.1,96.8,365.1L96.8,365.1z"/>
				<path class="st4" d="M199.5,365.7c-14.1-0.8-20,3.5-22.5,6.7c2-5,3.8-14.4-9.7-17.3c-18.8-4-23.1,3.8-24.9,8.3
					c0,0-3.4-6.7-15.8-3.7c-9.6,2.3-7.6,10.3-6.1,13.9c-2.2-4.1-9-13.5-23.7-8.5c0,0-9.9,0.8-8.7,12.5c1.2,11.7,16,10.4,16,10.4
					s2.8,13.7,24,3.9c0,0,6,16.6,22.1,17.5c29.1,1.6,24.9-4.2,23.2-5.8c1.7,1.4,7.7,5.4,8.5-5.7c0,0,7.9,9.9,18,1.1
					c0,0,8-5.2-0.1-13.9c0,0,15.3,7.2,15.6-5.9C215.4,379.2,221.7,366.9,199.5,365.7L199.5,365.7z"/>
				<path class="st4" d="M96.5,365.1c0,0-25.1,26.3,11.1,22.9C107.6,388,81.8,389.2,96.5,365.1z"/>
				<path class="st4" d="M106.3,379.7c0,0-2.6,11,7.3,14.6c9.2,3.4,14.4,1.6,14.4,1.6s3.7,7.1,22,10.8c0,0-18.8-7.5-20.8-20.1
					C129.1,386.6,111.2,399.6,106.3,379.7z"/>
				<path class="st4" d="M170.5,397.5c0,0,6.9,21.4,11.4,4.1c0,0,22.1,6.1,17.9-16.6c0,0-3.7,21.6-18.2,12.2
					C181.5,397.3,178.7,406.1,170.5,397.5L170.5,397.5z"/>
				<path class="st4" d="M189.6,370.7c0,0,30.2-7.2,27.8,6.6c-2.4,13.8-21.2,2.4-21.2,2.4s14.5,5.4,14.5-3.6
					S189.6,370.7,189.6,370.7L189.6,370.7z"/>
				<path class="st3" d="M141.9,354.4c0,0,16.6-5.4,21.1,9.2C163.1,363.6,157.2,354.2,141.9,354.4z"/>
				<path class="st3" d="M119.4,359.9c0,0,13.1-8.5,20.8,6.4C140.2,366.3,133.3,356.2,119.4,359.9z"/>
				<path class="st3" d="M117.3,364c0,0,11.7-7.6,20.5,4.5C137.8,368.6,126.6,360.8,117.3,364z"/>
				<path class="st3" d="M102.4,360.3c0,0,14.2-2.6,15.1,13.9C117.5,374.2,114.8,364.7,102.4,360.3z"/>
				<path class="st3" d="M169.6,358.7c0,0,10,7.1,5.8,17C175.4,375.7,176.8,369.8,169.6,358.7z"/>
				<path class="st3" d="M180.1,374.8c0,0-1.9-7.4,14.4-8.1C194.4,366.7,182.9,368.9,180.1,374.8z"/>
			</g>
			<g>
				<path class="st3" d="M189.5,372.7c0,0-15.1-2.5-9.3,14s146.6,14.9,141.9-1.2c-4.6-16.1-13.3-5.9-13.3-5.9s5.3-8.7-9.9-6.9
					c0,0-1.3-14.7-16.2-13c-14.9,1.8-12.9,9.3-12.9,9.3s-0.1-6.2-4.4-4.7c0,0,8-14.9-15.6-12.5c0,0,3-21.5-21.3-19.5
					c-24.2,2-23.8,21.5-23.8,21.5S180.8,350.9,189.5,372.7L189.5,372.7z"/>
				<path class="st4" d="M322.2,386.5l-27-5.1l-21.6,0.5l-18.6-8.7l-58.1,4.9l-18,0.4c-0.3,2-0.1,4.7,1.1,8.3
					C185.7,402.9,321,401.7,322.2,386.5L322.2,386.5z"/>
				<path class="st4" d="M238.7,385.1c15.2,3.6,21.4-3.4,21.4-3.4c12.5,12,25,4.5,25,4.5s3.7,8.7,17.2,8.7c11-1.9,18.6-4.4,19.8-7.7
					l0,0c-4.4-9.9-14.8-6.5-14.8-6.5c-0.6-8.3-11-3.7-11-3.7c-8.7-16-27.7-1.6-27.7-1.6C266,360,248,361,248,361
					c-21.3-24-37.8,2.6-37.8,2.6c-5.5-7.9-15.1-6.5-21.3-4.5c-1.7,2.8-2,7.1,0.6,13.6c0,0-15.1-2.5-9.3,14
					C206.4,401,238.7,385.1,238.7,385.1L238.7,385.1z"/>
				<path class="st3" d="M215.5,363.5c0,0,4.9-9.7,15.1-9.3s14.4,10,14.4,10s10-2.8,15.6,2.7c0,0-12.8-3.4-16,0.4
					c0,0-6.1-11-14.4-10C221.9,358.3,215.5,363.5,215.5,363.5z"/>
				<path class="st3" d="M207.2,366.1c0,0-2.3-6.4-16.3-4.4C190.9,361.7,201,361.7,207.2,366.1L207.2,366.1z"/>
				<path class="st3" d="M294.6,380.3c0,0,3.8-4.7,8.3-2.1s3.2,6.5,3.2,6.5s-0.8-2.8-4.7-4.7C297.5,378.1,294.6,380.3,294.6,380.3z"
					/>
				<path class="st3" d="M309.3,383.6c0,0,7.1-4.9,12.8,3.7C322.1,387.2,317.2,382.1,309.3,383.6z"/>
				<path class="st4" d="M186.6,382.7c0,0,8.1,10.3,24,8c15.9-2.3,21.9-9,21.9-9s-9.1,4.5-22.2,5.4S186.6,382.7,186.6,382.7
					L186.6,382.7z"/>
				<path class="st4" d="M253.1,376c0,0,0.8,6.2,7.9,8.6c7,2.4,11.1-1.5,11.1-1.5s-6.3,0.6-11.2-2.4C256,377.7,253.2,376,253.1,376
					L253.1,376z"/>
				<path class="st4" d="M292.5,381.9c0,0-0.5,11.3,8,12.6s15.3-2.9,15.3-2.9s-9,2.5-15-0.5C294.8,388.2,292.4,381.9,292.5,381.9
					L292.5,381.9z"/>
			</g>
			<g>
				<path class="st3" d="M221.7,403.5c0,0-21.9,4.5-0.4,10.6c21.6,6.1,22.9-5.8,22.9-5.8s11.3,20.2,32.1,0.3c0,0-2.8,6,10,4.1
					c0,0,22.4,19.2,48.1-4.3c0,0,7.6,8.6,13.2,1.6c0,0,5.9,6.7,10.7-0.2c0,0,13.2,14.8,27.4-0.6c0,0,14.7,8.2,20.2-0.4
					c0,0,11.3,1.1,12.5-4.6c0,0,7,5.3,7.4-1.8s-6.5-3.1-6.5-3.1s4.8-7.3-3.3-6.7c0,0,8.8-2.9,3-12.8c-5.8-9.9-15.5-3.2-15.5-3.2
					s5.3-14.1-11.4-9.6c0,0,7.6-10.1-2.9-20.5c-10.5-10.3-24.6-1-24.6-1s-1.6-5.4-8.9-2.3c0,0-1.2-12.7-16.4-11.1
					c-15.1,1.6-18,10.6-18,10.6s-14.2-16.3-38.4-9.5s-24.6,31.9-24.6,31.9s-10.1-7.3-23.5,7.6c-13.4,14.9-3.4,20.5-3.4,20.5
					S215.5,387.7,221.7,403.5L221.7,403.5z"/>
				<g>
					<path class="st4" d="M231.5,393.2l-1.9-1.7C230.5,392.7,231.5,393.2,231.5,393.2z"/>
					<path class="st4" d="M418.5,404c0,0,7,5.3,7.4-1.8s-6.5-3.1-6.5-3.1s4.8-7.3-3.3-6.7l-2.1,2.2l-14.5-5.8L290.1,396l-58.6-2.7
						c0,0-16-5.6-9.8,10.2c0,0-21.9,4.5-0.4,10.6c21.6,6.1,22.9-5.8,22.9-5.8s11.3,20.2,32.1,0.3c0,0-2.8,6,10,4.1
						c0,0,22.4,19.2,48.1-4.3c0,0,7.6,8.6,13.2,1.6c0,0,5.9,6.7,10.7-0.2c0,0,13.2,14.8,27.4-0.6c0,0,14.7,8.2,20.2-0.4
						C405.9,408.7,417.2,409.8,418.5,404L418.5,404z"/>
				</g>
				<path class="st4" d="M231.5,393.2c0,0-6.5-0.2-7.9,3s2.5,9,2.5,9s-7.9-0.7-8.4,3.4c-0.5,4.1,22.4,6.8,25.6-6.7
					c0,0,19.4,16.1,34-0.4c0,0,32.7,21,57.4-1.3c0,0,9.9,11.4,23.8,3.8c0,0,18.4,12,25.4-4.7c0,0,20.5,13.7,30.2,1.2
					c0,0,6.9-4.5-0.1-5.9c0,0,6-18.6-13.2-14.6c0,0-2.8-13.1-24.5-12.6c-21.7,0.5-26.4,15.2-26.4,15.2s15.4-31.7-10-30.8
					s-18.7,26.9-18.7,26.9s-5.2-35.7-34.6-28.3C257,357.7,266,378,266,378S240.2,360.6,231.5,393.2L231.5,393.2z"/>
				<path class="st3" d="M266,378c0,0,2.7-22.9,28.7-25.2C294.7,352.8,274.9,358.2,266,378z"/>
				<path class="st3" d="M266,378c0,0-27.1-7.6-31.6,15.3C234.4,393.3,241.4,377.1,266,378z"/>
				<path class="st3" d="M336.1,381.5c0,0-0.3-10.2-15.7-6.1s-10,12.8-10,12.8s2.2-8.1,10.6-9.5
					C329.5,377.2,332.5,377.4,336.1,381.5L336.1,381.5z"/>
				<path class="st3" d="M353.7,371.3c0,0,1.9-20.4-22.2-13.1C331.5,358.1,349.6,356,353.7,371.3z"/>
				<path class="st3" d="M376.5,380c0,0,12.9-10,24.2,0c11.4,10-0.8,19-0.8,19s8.8-13-1.5-17.4C388.1,377.4,376.5,380,376.5,380
					L376.5,380z"/>
				<path class="st4" d="M266.4,396.3c0,0,0.2,8.5,11,6.7c10.8-1.8,12-11.9,12-11.9S278.7,409.3,266.4,396.3L266.4,396.3z"/>
				<path class="st4" d="M233,396.8c0,0-7.9,2.1-3.1,8.1c4.8,5.9,26.5-8.6,26.5-8.6s-15.6,8.3-21.8,6.4
					C228.4,400.8,233,396.8,233,396.8L233,396.8z"/>
				<path class="st4" d="M297.5,401.3c0,0,19.5,10.2,35.9-6.7C333.4,394.6,322,421.3,297.5,401.3z"/>
				<path class="st4" d="M360.9,395.1c0,0,22.2,10.5,31.9-1.8C392.8,393.4,379.1,414,360.9,395.1z"/>
			</g>
		</g>
	</g>
	<g id="Laag_1">
		<g>
			<g>
				<g>
					<path class="st5" d="M343.9,169.4c1,1,1.6,1.9,1.6,2.6c-0.1,4.7-6.5,36.5-6.5,36.9c9.4,0.8,23.5,4.6,34.3,4.8
						c0.6,0.1,0.6-0.1,0.8-0.9c1.2-3.3,2.4-6.7,3.4-10.2c3.6-12.7,5.6-27.3,2.8-39.4c-1.9-9.1-7.4-15.6-14.8-22.1
						c-0.9-0.8-1.9-1.6-2.9-2.4c-0.3-0.2-0.5-0.4-0.8-0.6c-6.1-4.9-10.9-8.7-17.5-12.8c-1.2-1.3-1.8,1.3-2.8,2
						c-3.5,4.6-6.9,9-10.1,13.8c-2.8,4.3-4.4,8.9-6.2,13.6c2.1,1.5,13.5,10.6,14.8,11.6C341.6,167.3,343,168.4,343.9,169.4
						L343.9,169.4z"/>
					<path class="st6" d="M336.3,207.3c7.3,0.6,20.9,4.7,29.8,5.8c3.2-0.1,5.9-0.1,7.9,0l0,0c0-0.1,0.1-0.2,0.1-0.4
						c0.1-0.3,0.2-0.6,0.3-0.9c0.1-0.2,0.2-0.4,0.2-0.7c0.2-0.6,0.4-1.2,0.6-1.8c0.1-0.2,0.1-0.4,0.2-0.7c0.1-0.3,0.2-0.6,0.3-0.9
						c0.1-0.2,0.1-0.4,0.2-0.6c0.1-0.5,0.3-0.9,0.5-1.4c0.1-0.4,0.2-0.8,0.4-1.2c0.1-0.3,0.2-0.6,0.3-0.9s0.2-0.6,0.3-0.9
						c0.1-0.3,0.2-0.6,0.2-0.8s0.1-0.6,0.2-0.8c0-0.1,0.1-0.3,0.1-0.4c0.1-0.2,0.1-0.5,0.2-0.7c0.1-0.5,0.2-0.9,0.4-1.4
						c0.6-2.4,1.1-4.9,1.6-7.4c-8.2-8.9-19.2-14.6-23.3-16.8c0.2-4.5-2.1-9.2-4.8-13c-1-1.5-2.1-2.8-3.2-4c-0.1-0.1-0.1-0.1-0.2-0.2
						c-7.3-7.9-3.3-20.1,2.6-27.4c-0.5-0.4-7-5-7.2-5.1c0,0.1-19.5,28-20.4,30.1c2.6,1.9,10.8,7,16.3,11.2c0.2,0.1,0.3,0.2,0.5,0.4
						c0,0,0,0,0.1,0.1c0.1,0.1,0.1,0.1,0.2,0.1c2.7,2.1,4.5,3.9,4.7,5C345.5,171.8,336.3,206.9,336.3,207.3L336.3,207.3z"/>
				</g>
				<path class="st7" d="M348.7,157.3c0.1,0.1,0.1,0.1,0.2,0.2c1,1.2,2.1,2.5,3.2,4c5.5-6.1,10-13,13.4-20.4
					c-0.9-0.8-1.9-1.6-2.9-2.4c-0.3-0.2-0.5-0.4-0.8-0.6C358.2,144.9,353.8,151.3,348.7,157.3L348.7,157.3z"/>
				<path class="st8" d="M340.1,166.2c0.2,0.1,0.7,0.5,0.8,0.6c1.2,0.9,2.2,1.8,3,2.6c2.9-2.4,5.7-5.1,8.2-7.9c-1-1.5-2.1-2.8-3.2-4
					c-0.1-0.1-0.1-0.1-0.2-0.2C346,160.4,343.2,163.4,340.1,166.2L340.1,166.2L340.1,166.2z"/>
			</g>
			<g>
				<path class="st5" d="M294.4,127.4c1.3,2.4,2.8,4.8,4.4,7c7.4,10.1,16.7,18.9,27.2,25.7c1.7,1.1,3.8,0.9,5.3-0.5
					c6.7-6.3,11.8-17.2,15-26.9c0.5-1.6,1-3.1,1.4-4.5c0.6-2.1,0-4.3-1.5-5.9c-9.7-9.7-21.3-15.9-31.9-19.2
					c-5.8-1.8-11.3-2.7-16-2.7c-5.6,3.1-8.1,10.1-7.5,16.5C291.4,120.7,292.6,124.1,294.4,127.4L294.4,127.4z"/>
				<path class="st6" d="M289.8,132c1.3,2.4,2.8,4.8,4.4,7c7.4,10.1,16,17.4,27.5,22.4c5,2.2,8.1-0.4,9.6-1.7
					c6.7-6.3,11.8-17.2,15-26.9c-1.3,0.8-2.8,1.2-4.3,1.2c-3.1,0-6-1.6-8.6-3.3c-9.4-6.4-16.2-16.4-19-27.5
					c-5.8-1.8-11.3-2.7-16-2.7c-5.6,3.1-8.1,10.1-7.5,16.5C291.3,120.7,288,128.7,289.8,132L289.8,132z"/>
			</g>
			<g>
				<path class="st9" d="M383.9,223.5c-11.1,23.5-39.2,33.6-62.8,22.5c-1.2-0.6-2.4-1.2-3.6-1.9c-21-12.2-29.4-38.6-18.9-60.9
					c11.1-23.5,39.2-33.6,62.8-22.5c5,2.4,9.6,5.6,13.5,9.6C388.3,184,392.5,205.2,383.9,223.5z"/>
				<path class="st10" d="M386.9,219.1c-11.3,24-40,34.2-63.9,22.9c-1.2-0.6-2.5-1.2-3.6-1.9c-21.3-12.4-30-39.3-19.2-62
					c11.3-24,40-34.2,63.9-22.9c5.1,2.4,9.8,5.7,13.7,9.7C391.5,178.8,395.8,200.4,386.9,219.1z"/>
				
					<radialGradient id="SVGID_1_" cx="232.3958" cy="972.0629" r="198.21" gradientTransform="matrix(0.8011 0.5645 0.5645 -0.8011 -417.1933 882.8443)" gradientUnits="userSpaceOnUse">
					<stop  offset="0" style="stop-color:#FFE988"/>
					<stop  offset="0.25" style="stop-color:#BA801E"/>
					<stop  offset="0.5" style="stop-color:#FBEC83"/>
					<stop  offset="0.75" style="stop-color:#BA801F"/>
					<stop  offset="1" style="stop-color:#FFE97F"/>
				</radialGradient>
				<circle class="st11" cx="343.5" cy="198.6" r="41"/>
				<g>
					
						<linearGradient id="SVGID_00000083774311182928415060000007315628871123053459_" gradientUnits="userSpaceOnUse" x1="435.152" y1="111.5723" x2="441.902" y2="119.3523" gradientTransform="matrix(0.9684 0.2495 -0.2495 0.9684 -32.3312 -39.3832)">
						<stop  offset="0" style="stop-color:#FFE988"/>
						<stop  offset="0.25" style="stop-color:#BA801E"/>
						<stop  offset="0.5" style="stop-color:#FBEC83"/>
						<stop  offset="0.75" style="stop-color:#BA801F"/>
						<stop  offset="1" style="stop-color:#FFE97F"/>
					</linearGradient>
					<path style="fill:url(#SVGID_00000083774311182928415060000007315628871123053459_);" d="M366,188.6l-3.1-0.6l1.3-6.1
						c0.1-0.6,0.8-1,1.4-0.9l0.8,0.2c0.6,0.1,1,0.8,0.9,1.4L366,188.6L366,188.6z"/>
					
						<linearGradient id="SVGID_00000121263993763132078250000005412991346500956069_" gradientUnits="userSpaceOnUse" x1="435.6482" y1="111.1457" x2="442.3882" y2="118.9156" gradientTransform="matrix(0.9684 0.2495 -0.2495 0.9684 -32.3312 -39.3832)">
						<stop  offset="0" style="stop-color:#FFE988"/>
						<stop  offset="0.25" style="stop-color:#BA801E"/>
						<stop  offset="0.5" style="stop-color:#FBEC83"/>
						<stop  offset="0.75" style="stop-color:#BA801F"/>
						<stop  offset="1" style="stop-color:#FFE97F"/>
					</linearGradient>
					<path style="fill:url(#SVGID_00000121263993763132078250000005412991346500956069_);" d="M366,188.6l-1.5-0.3l1.6-7.2l0.4,0.1
						c0.6,0.1,1,0.8,0.9,1.4L366,188.6L366,188.6z"/>
					
						<linearGradient id="SVGID_00000003807390393994878760000015757617198379285129_" gradientUnits="userSpaceOnUse" x1="394.5449" y1="135.8371" x2="480.7949" y2="142.4171" gradientTransform="matrix(0.9684 0.2495 -0.2495 0.9684 -32.3312 -39.3832)">
						<stop  offset="0" style="stop-color:#FFE988"/>
						<stop  offset="0.25" style="stop-color:#BA801E"/>
						<stop  offset="0.5" style="stop-color:#FBEC83"/>
						<stop  offset="0.75" style="stop-color:#BA801F"/>
						<stop  offset="1" style="stop-color:#FFE97F"/>
					</linearGradient>
					<path style="fill:url(#SVGID_00000003807390393994878760000015757617198379285129_);" d="M368.1,191.8
						c-0.5,2.9-1.4,5.8-2.7,8.7c-7.5,15.9-26.5,22.6-42.4,15.1c-2.8-1.3-5.4-3.1-7.6-5c-0.2-0.2-1.6-1.6-2.2-3.4
						c-0.3-0.9-0.5-1.9-0.2-2.8v0c0-0.1,0.1-0.2,0.1-0.3c0-0.1,0.1-0.2,0.2-0.2c0.6-0.6,1.6-0.8,2.9-0.8c2.8,0.1,6.6,1.3,8.3,1.6h0
						c0.4,0.1,0.8,0.2,1.2,0.3h0c0.4,0.1,0.9,0.2,1.3,0.2c0.1,0,0.3,0,0.4,0.1c0.1,0,0.2,0,0.4,0c0.1,0,0.2,0,0.3,0
						c0.2,0,0.3,0.1,0.5,0.1c0.3,0,0.6,0.1,0.9,0.1c0.2,0,0.3,0,0.5,0c0.5,0,1,0.1,1.4,0.1c0.1,0,0.3,0,0.5,0c0.1,0,0.3,0,0.5,0
						c0.4,0,0.9,0,1.3-0.1c0,0,0.1,0,0.1,0h0.1c0.6,0,1.3-0.1,2-0.2c0.6-0.1,1.2-0.2,1.8-0.3c0.1,0,0.1,0,0.2-0.1h0.1
						c0.4-0.1,0.8-0.2,1.2-0.3c0,0,0.1,0,0.1,0c0.1,0,0.1,0,0.2-0.1c1.1-0.3,2.2-0.6,3.3-1c0.2-0.1,0.4-0.1,0.6-0.2
						c0.2-0.1,0.4-0.2,0.6-0.2c0,0,0.1,0,0.1,0c0.1-0.1,0.2-0.1,0.3-0.1l1-0.4l0.5-0.2c0.2-0.1,0.5-0.2,0.7-0.4
						c0.1-0.1,0.2-0.1,0.3-0.2c0.3-0.2,0.7-0.4,1-0.6c1.4-0.8,2.8-1.8,4.1-2.9c0,0,0-0.1,0.1-0.1c0.5-0.4,1-0.8,1.5-1.3
						c0.2-0.2,0.5-0.4,0.6-0.6c0.2-0.2,0.4-0.3,0.5-0.5c0,0,0.1-0.1,0.1-0.1c0.4-0.4,0.7-0.8,1-1.2c1.9-2.1,3.5-4.6,4.8-7.2l0.4-0.9
						c0,0,0-0.1,0.1-0.2c0-0.1,0-0.1,0.1-0.1c0,0,0-0.1,0-0.1s0-0.1,0-0.1c0.4-0.4,1-1,2-1.3c0.7-0.2,1.6-0.1,2.6,0.3
						c1,0.4,1.5,1.3,1.8,2.2C368.4,188.8,368.3,190.7,368.1,191.8L368.1,191.8z"/>
					
						<linearGradient id="SVGID_00000029724560220211450880000016301753710207577255_" gradientUnits="userSpaceOnUse" x1="392.1696" y1="139.5405" x2="450.5796" y2="132.9605" gradientTransform="matrix(0.9684 0.2495 -0.2495 0.9684 -32.3312 -39.3832)">
						<stop  offset="0" style="stop-color:#FFE988"/>
						<stop  offset="0.25" style="stop-color:#BA801E"/>
						<stop  offset="0.5" style="stop-color:#FBEC83"/>
						<stop  offset="0.75" style="stop-color:#BA801F"/>
						<stop  offset="1" style="stop-color:#FFE97F"/>
					</linearGradient>
					<path style="fill:url(#SVGID_00000029724560220211450880000016301753710207577255_);" d="M366.1,185L366.1,185
						c-0.4,2.9-1.1,5.7-2.3,8.4c-0.1,0.4-0.3,0.7-0.5,1.1c-7.5,15.9-26.5,22.6-42.4,15.1c-2.4-1.1-4.5-2.5-6.5-4.1
						c-0.3-0.2-0.6-0.5-0.9-0.7c-0.2-0.2-0.4-0.3-0.5-0.4c0-0.1,0.1-0.2,0.1-0.3c0-0.1,0.1-0.2,0.2-0.2c0.6-0.6,1.6-0.8,2.9-0.8
						c2.8,0.1,6.6,1.3,8.3,1.6h0c0.4,0.1,0.8,0.2,1.2,0.3h0c0.4,0.1,0.9,0.2,1.3,0.2l0.1,0c0.1,0,0.2,0,0.3,0c0.1,0,0.2,0,0.4,0
						c0.1,0,0.2,0,0.3,0c0.2,0,0.3,0.1,0.5,0.1c0.3,0,0.6,0.1,0.9,0.1c0.2,0,0.3,0,0.5,0c0.3,0,0.6,0,0.9,0c0.2,0,0.4,0,0.5,0
						c0.1,0,0.3,0,0.5,0c0.1,0,0.3,0,0.5,0c0.4,0,0.9,0,1.3-0.1c0,0,0.1,0,0.1,0h0.1c0.1,0,0.2,0,0.4,0c0.5,0,1.1-0.1,1.6-0.2
						s1-0.2,1.6-0.2c0.1,0,0.1,0,0.2-0.1c0.1,0,0.1,0,0.2-0.1h0.1l0.7-0.2c0.2-0.1,0.3-0.1,0.5-0.1c0,0,0.1,0,0.1,0
						c0.1,0,0.1,0,0.2-0.1l0.6-0.2l0.5-0.1c0.1,0,0.2-0.1,0.2-0.1c0.2-0.1,0.4-0.1,0.7-0.2c0.2-0.1,0.4-0.1,0.6-0.2
						c0.2-0.1,0.5-0.2,0.7-0.2c0.2-0.1,0.4-0.1,0.6-0.2c0.2-0.1,0.4-0.2,0.6-0.2c0,0,0.1,0,0.1,0c0.1-0.1,0.2-0.1,0.3-0.1l1-0.4
						l0.5-0.2c0.2-0.1,0.5-0.2,0.7-0.4c0.1-0.1,0.2-0.1,0.3-0.2c0.1-0.1,0.2-0.1,0.3-0.2c0.2-0.1,0.5-0.2,0.7-0.4l0.6-0.3
						c0.2-0.1,0.4-0.3,0.6-0.4c0.1-0.1,0.2-0.1,0.4-0.2c0.1-0.1,0.2-0.1,0.2-0.2c0.2-0.1,0.4-0.3,0.6-0.4c0.2-0.1,0.4-0.3,0.6-0.4
						c0.1-0.1,0.3-0.2,0.5-0.3l0.6-0.5c0,0,0-0.1,0.1-0.1c0.2-0.2,0.4-0.3,0.6-0.5c0.1-0.1,0.3-0.2,0.4-0.3c0.1-0.1,0.3-0.3,0.5-0.4
						c0.1-0.1,0.3-0.2,0.4-0.4c0.1-0.1,0.2-0.2,0.2-0.2c0.2-0.2,0.4-0.3,0.5-0.5c0,0,0.1-0.1,0.1-0.1c0.1-0.1,0.3-0.3,0.4-0.4
						c0.1-0.1,0.2-0.2,0.3-0.4s0.2-0.2,0.3-0.4c0.2-0.2,0.3-0.4,0.5-0.5l0.2-0.3c0.2-0.2,0.4-0.5,0.6-0.7c0.1-0.2,0.2-0.3,0.4-0.5
						l0.5-0.7c0.1-0.2,0.2-0.3,0.3-0.5c0.2-0.2,0.3-0.5,0.5-0.8c0.1-0.2,0.2-0.3,0.3-0.5c0.2-0.3,0.4-0.6,0.5-0.9
						c0.1-0.1,0.1-0.2,0.2-0.4c0-0.1,0-0.1,0.1-0.1c0.2-0.4,0.5-0.9,0.7-1.3l0.4-0.9c0,0,0-0.1,0.1-0.2c0-0.1,0-0.1,0.1-0.1
						c0,0,0-0.1,0-0.1s0-0.1,0-0.1c0.4-0.4,1-1,2-1.3C364.2,184.6,365.1,184.6,366.1,185L366.1,185z"/>
					
						<linearGradient id="SVGID_00000102502067266220267630000017653639465415030410_" gradientUnits="userSpaceOnUse" x1="393.49" y1="146.2656" x2="397.42" y2="150.3456" gradientTransform="matrix(0.9684 0.2495 -0.2495 0.9684 -32.3312 -39.3832)">
						<stop  offset="0" style="stop-color:#FFE988"/>
						<stop  offset="0.25" style="stop-color:#BA801E"/>
						<stop  offset="0.5" style="stop-color:#FBEC83"/>
						<stop  offset="0.75" style="stop-color:#BA801F"/>
						<stop  offset="1" style="stop-color:#FFE97F"/>
					</linearGradient>
					<path style="fill:url(#SVGID_00000102502067266220267630000017653639465415030410_);" d="M316.3,203c-1.7,0.9-2.8,2.2-3.1,4.1
						c-0.3-0.9-0.5-1.9-0.2-2.8v0c0-0.1,0.1-0.2,0.1-0.3c0-0.1,0.1-0.2,0.2-0.2C314,203.1,315.1,203,316.3,203L316.3,203z"/>
				</g>
				<path class="st17" d="M363.2,156.9c5.1,2.4,9.7,5.7,13.7,9.7c13.5,13.7,17.9,34.8,9.6,53.2c0.1-0.3,0.2-0.5,0.4-0.8
					c8.8-18.7,4.5-40.2-9.2-54.2c-4-4-8.6-7.3-13.7-9.7c-24-11.3-52.6-1.1-63.9,22.9c-0.1,0.3-0.3,0.6-0.4,0.9
					C311.3,155.5,339.6,145.6,363.2,156.9L363.2,156.9z"/>
				<path class="st18" d="M360.4,162.9c4.4,2.1,8.3,4.9,11.7,8.3c11.5,11.7,15.3,29.8,8.2,45.6c0.1-0.2,0.2-0.4,0.3-0.7
					c7.6-16,3.9-34.4-7.8-46.4c-3.4-3.4-7.4-6.3-11.7-8.3c-20.5-9.7-45-0.9-54.7,19.6c-0.1,0.2-0.2,0.5-0.3,0.8
					C316,161.8,340.1,153.3,360.4,162.9L360.4,162.9z"/>
				<g class="st19">
					
						<linearGradient id="SVGID_00000004542444406624806780000004733468402310086024_" gradientUnits="userSpaceOnUse" x1="333.6885" y1="487.3918" x2="404.862" y2="487.3918" gradientTransform="matrix(0.9063 0.4226 0.4226 -0.9063 -192.7776 496.4166)">
						<stop  offset="0" style="stop-color:#FFE988"/>
						<stop  offset="0.25" style="stop-color:#BA801E"/>
						<stop  offset="0.5" style="stop-color:#FBEC83"/>
						<stop  offset="0.75" style="stop-color:#BA801F"/>
						<stop  offset="1" style="stop-color:#FFE97F"/>
					</linearGradient>
					<path style="fill:url(#SVGID_00000004542444406624806780000004733468402310086024_);" d="M391.1,192l-88.5,31.7
						c1.6,2.7,3.6,5.2,5.8,7.6l83.1-29.7C391.7,198.3,391.5,195.1,391.1,192L391.1,192z"/>
					
						<linearGradient id="SVGID_00000176034811915238260260000017819120912051151032_" gradientUnits="userSpaceOnUse" x1="314.6532" y1="500.9982" x2="397.0648" y2="500.9982" gradientTransform="matrix(0.9063 0.4226 0.4226 -0.9063 -192.7776 496.4166)">
						<stop  offset="0" style="stop-color:#FFE988"/>
						<stop  offset="0.25" style="stop-color:#BA801E"/>
						<stop  offset="0.5" style="stop-color:#FBEC83"/>
						<stop  offset="0.75" style="stop-color:#BA801F"/>
						<stop  offset="1" style="stop-color:#FFE97F"/>
					</linearGradient>
					<path style="fill:url(#SVGID_00000176034811915238260260000017819120912051151032_);" d="M377.8,164.9
						c-0.3-0.3-0.5-0.5-0.8-0.8l-81.2,29.1c-1,8.8,0.5,17.5,4.1,25.4l90.1-32.2C387.8,178.3,383.7,170.9,377.8,164.9L377.8,164.9z"
						/>
				</g>
			</g>
			<path class="st6" d="M160.2,340.7c0.8,0.1,1.6,0.2,2.4,0.3c16.4,1.7,39.7-5.3,57.4-48.5c9.9-24.2,13.6-48.7,13.7-49.7
				c0.6-3.9-2.1-7.4-5.9-8h0c-3.8-0.6-7.4,2.1-8,5.9c-0.1,0.4-3.6,24.1-12.9,46.6c-5.3,12.9-11.3,22.8-18,29.6
				c-7.6,7.8-15.8,11.1-24.9,10.1c-20.6-2.1-25-15.4-30.4-36.8c-4.5-17.6-9.6-37.5-30.9-45.6c-3.6-1.4-7.7,0.5-9.1,4.1
				s0.5,7.7,4.1,9.1c14.5,5.5,18.1,19.6,22.2,35.9c2.6,10.3,5.3,20.9,11.2,29.6C137.8,333.1,147.3,338.8,160.2,340.7L160.2,340.7z"
				/>
			<g>
				<path class="st22" d="M233.3,244.9c0.2-1.4,0.4-2.2,0.4-2.2l-13.9-2c0,0-0.1,0.7-0.3,1.9L233.3,244.9z"/>
				<path class="st22" d="M154.1,339.4l3.6-13.6c1.1,0.3,2.2,0.5,3.4,0.7l-2.4,13.9C157.2,340.2,155.6,339.8,154.1,339.4
					L154.1,339.4z M174.7,326c1-0.3,2-0.7,3-1.1l5.7,12.9c-1.5,0.7-3.1,1.2-4.6,1.7L174.7,326L174.7,326z M132.9,325.8l11.1-8.7
					c0.7,0.9,1.4,1.7,2.1,2.4l-9.9,10C135.1,328.3,134,327.1,132.9,325.8z M189.3,316.4c0.8-0.9,1.6-1.8,2.4-2.7l10.8,9.1
					c-1,1.2-2,2.3-3.1,3.4L189.3,316.4L189.3,316.4z M122.8,304.3l13.5-4c0.4,1.3,0.8,2.5,1.2,3.7l-13.3,4.5
					C123.7,307.2,123.2,305.8,122.8,304.3L122.8,304.3z M200.5,300.6c0.6-1.1,1.2-2.3,1.8-3.4l12.6,6.4c-0.7,1.3-1.4,2.6-2,3.8
					L200.5,300.6L200.5,300.6z M117.3,283.8l13.5-4c0.4,1.3,0.8,2.6,1.1,4.1l-13.6,3.6C118,286.2,117.6,285,117.3,283.8z
					 M208.8,282.2c0.4-1.2,0.9-2.5,1.4-3.7l13.3,4.6c-0.5,1.4-1,2.7-1.4,4L208.8,282.2L208.8,282.2z M109.7,266.8l11.3-8.4
					c0.9,1.3,1.8,2.6,2.7,4l-12.1,7.1C111,268.6,110.3,267.6,109.7,266.8L109.7,266.8z M215,262.7c0.3-1.3,0.7-2.6,1-3.9l13.7,3.4
					c-0.3,1.4-0.7,2.8-1.1,4.1L215,262.7L215,262.7z"/>
				<path class="st22" d="M99.2,258.4l5.7-12.9c-0.8-0.3-1.5-0.7-2.3-0.9l-5,13.2C98.2,257.9,98.7,258.1,99.2,258.4L99.2,258.4z"/>
			</g>
			<path class="st22" d="M173.9,189.4c0.4,7,1.1,14.8,6.1,20.3c5.7,6.3,14.9,7.2,22.9,7.4c22.1,0.4,44-1.5,65.8-3.4
				c2.4-0.2,4.8-0.4,6.7-1.6c3.5-2,4.8-6.4,5.5-10.5c3.7-19.5,2.3-40.1,1-60.4c-1.4-20.5-2.7-41-4.6-61.5c-0.1-0.7-0.1-1.6-0.2-2.5
				c-0.3-4.3-0.9-10.3-2.6-13.5c-6.9-12.4-28.4-8.8-39.1-8.9c-16.2-0.2-36.3,2.3-52.4,3c-2.9,0.1-5.9,0.3-8.1,1.9
				c-0.7,0.5-1.2,1-1.7,1.7c-1.6,2.2-2.1,5.3-2.5,8.2C165.6,108.3,171.6,149.5,173.9,189.4L173.9,189.4z"/>
			<path class="st5" d="M226.8,427.3c-3.2-1.5-7.6-0.6-12.6-3.2c-8.7-4.7-15.1,5-22,1.7c-0.5-4.1-1.4-8.2-1.4-12.3
				c-0.1-28.5,0.2-82.9,1.1-92.2c0.1-0.5,0.1-0.9,0.1-1.3c0.5-3.3,1.4-7.7,2.7-13c0.4-1.6,0.8-3.2,1.2-5c7.9-31.1,24-81.6,24-81.6
				c10.4,5,38,18.1,55,26.3c-0.8,1.9-1.6,3.8-2.3,5.7c-7.6,19-13.8,40-19.4,60.3c-0.4,1.6-0.9,3.1-1.3,4.7
				c-1.4,5.2-2.8,10.4-4.1,15.4c-6.7,25-12.9,46.7-17,72.2c-0.9,5.3-1.6,10.5-2.4,15.8c-0.1,0.4-0.1,0.8-0.3,1.2
				C227.8,423.7,226.9,425.9,226.8,427.3L226.8,427.3L226.8,427.3z"/>
			<path class="st5" d="M267.3,424.2c14.1-4.2,26.8-10.8,41.4-12.8c-1.3-24.2,6.1-57.7,9.8-72.8c0-0.1,0.1-0.3,0.1-0.4
				c1.1-10.2,1.8-20.4,2-30.6c0-2.2,0.1-4.4,0.1-6.6c0.1-19.5-1.3-38.9-4.2-58.2c-2.3,0.5-4.5,1-6.8,1.5
				c-16.4,3.6-33.3,7.5-45.8,18.2c0.8,14.4,0.9,32.1,4.5,58c0.3,2,0.6,4.1,0.9,6.3c0.8,5.3,1.8,10.9,2.9,16.8
				C264.1,370.9,262.9,381.6,267.3,424.2L267.3,424.2z"/>
			<path class="st6" d="M267.3,424.2c14.1-4.2,26.8-10.8,41.4-12.8c-1.3-24.2,6.1-57.7,9.8-72.8c-3.9,3.1-9.7,4-14.5,2.3
				c-6.7-2.4-11.3-8.8-13.2-15.7c-0.9-3.4-1.3-6.9-1.3-10.4c0-2.2,0.1-4.5,0.4-6.7c0.1-1.4,0.3-2.7,0.5-4.1
				c2.8-20.9,9.4-41.2,19.4-59.7c-16.4,3.6-33.3,7.5-45.8,18.2c0.8,14.4,0.9,32.1,4.5,58c0.3,2,0.6,4.1,0.9,6.3
				c0.8,5.3,1.8,10.9,2.9,16.8C264.1,370.9,262.9,381.6,267.3,424.2z"/>
			<path class="st7" d="M289.3,314.8c9.9-4.2,20.5-6.7,31.2-7.2c0-2.2,0.1-4.4,0.1-6.6c-10.6,0.5-21.1,3-30.9,7.1
				C289.5,310.3,289.3,312.6,289.3,314.8L289.3,314.8z"/>
			<path class="st8" d="M268.2,320.6c0.3,2,0.6,4.1,0.9,6.3c6.1-4.9,13-9,20.2-12.1c0-2.2,0.1-4.5,0.4-6.7
				C282,311.3,274.8,315.5,268.2,320.6z"/>
			<path class="st6" d="M226.8,427.3c-3.2-1.5-7.6-0.6-12.6-3.2c-8.7-4.7-15.1,5-22,1.7c-0.5-4.1-1.4-8.2-1.4-12.3
				c-0.1-28.5,0.2-82.9,1.1-92.2c1.6,3.8,4.1,7.1,7.4,9.5c6.1,4.5,14.6,5.4,21.6,2.4c7-3,12-9.4,16.1-15.8c1.1-1.8,2.2-3.6,3.3-5.5
				c0.9-1.6,1.9-3.3,2.7-5c2.1-4.1,4.1-8.3,5.8-12.6c1.7-4.2,3.2-8.8,2.4-13.3c-1.4-7.8-8.3-12.3-15.1-16.2
				c-11.3-6.5-18.9-5.2-28.3-5.2c11.6-46.7,27.1-6.6,42.7-9.2c7.4-1.3,15.5-1.2,22,2.1c-7.6,19-13.8,40-19.4,60.3
				c-0.4,1.6-0.9,3.1-1.3,4.7c-1.4,5.2-2.8,10.4-4.1,15.4c-6.7,25-12.9,46.7-17,72.2c-0.9,5.3-1.6,10.5-2.4,15.8
				c-0.1,0.4-0.1,0.8-0.3,1.2C227.8,423.7,227,425.9,226.8,427.3L226.8,427.3L226.8,427.3z"/>
			<path class="st5" d="M206.1,250c1.5,3,34.7,3.5,59.8,37.9c5.6-0.1,17.7,1.1,20.5-3.3c17-26.9,31.7-36.6,32.4-40.7
				c0.4-2.2-0.4-5.4-1.9-8.9c-3.3-8-9.9-17.8-13.4-21.2c-5.1-4.9-14-2.8-21.4-2.6c-18.1,0.4-39.1,2-57.1,2.4
				c-3.7,0.1-7.6,0.3-10.6,2.1c-3.5,2.2-6.5,12-7.3,15.6c-0.4,2-1.1,5.4-1.5,8.8C205.1,244,205,247.9,206.1,250L206.1,250z"/>
			<path class="st5" d="M233.4,428.3l-65.8,3.7c-1.1-2.2-1.5-4.6-1.5-7c0-0.3,0-0.6,0-1c0.4-6,3.7-11.8,8.3-15.4
				c6-4.7,13.6-6.1,20.8-6.2c7.3-0.1,14.6,1.2,21.5,3.6c1.8,0.6,3.5,1.3,5.2,2.1c2.7,1.2,5.4,2.6,7.9,4.2
				C229.9,412.3,233.4,427.2,233.4,428.3L233.4,428.3z"/>
			<path class="st6" d="M233.4,428.3l-66.2,3.7c-1.1-2.2-1.5-6.6-1-9.6c10.9-0.2,21.6-0.3,32.5-0.5c5.3-0.1,11.2-0.4,15.1-4.5
				c3.4-3.6,4.1-6.4,3-11.5c1.8,0.6,3.5,1.3,5.2,2.1c2.7,1.2,5.4,2.6,7.9,4.2C229.9,412.3,233.4,427.2,233.4,428.3L233.4,428.3z"/>
			<g>
				<path class="st6" d="M233.4,428.3c0,0-21.1,12.4-66.2,3.7"/>
				<path class="st23" d="M202.7,438.4c-9.8,0.4-21.8-0.3-36.2-3.1c-1.8-0.4-3-2.1-2.7-4s2.1-3,4-2.7c43.1,8.3,63.7-3.2,63.9-3.3
					c1.6-0.9,3.7-0.4,4.6,1.2c0.9,1.6,0.4,3.7-1.2,4.6C234.5,431.6,224,437.6,202.7,438.4L202.7,438.4z"/>
			</g>
			<path class="st5" d="M264.6,425l66.4,2c1.1-2.1,1.5-4.3,1.5-6.5c0-0.3,0-0.6,0-0.9c-0.4-5.5-3.8-10.9-8.4-14.1
				c-6-4.2-13.7-5.4-21-5.3c-7.4,0.1-14.7,1.4-21.7,3.8c-1.8,0.6-3.5,1.3-5.3,2c-2.7,1.2-5.4,2.5-8,4
				C268.1,410.2,264.6,424,264.6,425L264.6,425z"/>
			<path class="st5" d="M173.3,61.3c5.4,6.2,16.3,11.5,21.2,13.4c9.5,3.6,19.6,5.7,29.7,6.6c15,1.3,30.1,0,44.9-2.2
				c2.7-0.4,5.5-0.9,8-1.9c-0.3-4.3-0.9-10.3-2.6-13.5c-6.9-12.4-28.4-8.8-39.1-8.9c-16.2-0.2-36.3,2.3-52.4,3
				c-2.9,0.1-5.9,0.3-8.1,1.9C174.3,60.1,173.7,60.7,173.3,61.3L173.3,61.3z"/>
			<path class="st6" d="M205.5,240.2c0.4,0.5,0.9,1,1.3,1.4c12.4,11,101.5,8.8,109.1-4.3c0.4-0.7,0.7-1.5,0.9-2.2
				c-3.3-8-9.9-17.8-13.4-21.2c-5.1-4.9-14-2.8-21.4-2.6c-18.1,0.4-39.1,2-57.1,2.4c-3.7,0.1-7.6,0.3-10.6,2.1
				c-3.5,2.2-6.5,12-7.3,15.6C206.6,233.4,205.9,236.8,205.5,240.2L205.5,240.2z"/>
			<path class="st5" d="M201.5,218.9c0.1,1.1,0.1,2.2,0.3,3.3c0.5,3.6,1.7,7,4.5,9.4c3.5,3.1,13.1,5.1,25.3,6.2
				c30.9,2.7,78.3-1.1,83.8-10.5c1.3-2.2,1.4-4.9,1.5-7.5c0-0.4,0-0.9,0-1.3c0-0.9,0-1.8,0-2.7c0.5-30.7,1.6-50.3,2.2-83.1
				c0.4-19.3-8-30.7-16.5-36.6c-5.1-3.6-10.3-4.6-13.7-5.1c-23.3-3.4-29-4.3-52.5-2.1c-6.1,0.6-31,6.6-34.7,11.3
				c-0.1,0.2-0.3,0.4-0.4,0.6c-2.7,3.9-2.7,9-2.6,13.8c0.1,2.8,0.1,5.7,0.2,8.5c0.8,32.1,1.7,63.7,2.5,94.7
				C201.4,218.1,201.5,218.5,201.5,218.9L201.5,218.9z"/>
			<path class="st6" d="M201.5,218.9c0,0.6,0.1,1.1,0.1,1.6c0,0.1,0,0.2,0,0.4c0,0.4,0.1,0.9,0.2,1.3l0,0c0.5,3.6,1.7,7,4.5,9.4
				c3.5,3.1,13.1,5.1,25.3,6.2c-4.5-3.3-8.3-7.7-11.1-12.6c-0.6-1.1-1.2-2.1-1.7-3.3c-0.1-0.3-0.2-0.5-0.4-0.8
				c-4.8-11.3-5-24.1-3.2-36.3s6.1-48.7-16-46.6c0.8,32.1,1.3,48.3,2.1,79.4C201.4,218.1,201.5,218.5,201.5,218.9L201.5,218.9z"/>
			<g>
				<path class="st24" d="M286.3,223.7c0.3-13,0.6-26,0.9-39c-2,0.1-3.3-0.1-5.3,0c-0.4,13.2-0.8,26.3-1.2,39.5
					C282.5,223.9,284.5,224,286.3,223.7L286.3,223.7z"/>
				<path class="st24" d="M218.9,222c0.5,1.1,1.1,2.2,1.7,3.3c35.7,4.4,75.6,2.4,96.3-6.7c0-0.9,0-1.8,0-2.7
					c-2.4,1.4-5.3,2.1-8.1,2.7c-7.5,1.6-15,2.9-22.5,3.9c-1.9,0.2-3.8,0.4-5.6,0.6C260.2,225.2,239.4,224.8,218.9,222L218.9,222z"/>
				<path class="st25" d="M201.5,218.9c0,0.6,0.1,1.1,0.1,1.6c0,0.1,0,0.2,0,0.4c0,0.4,0.1,0.9,0.2,1.3l0,0c6,1.2,12.3,2.2,18.7,3
					c-0.6-1.1-1.2-2.1-1.7-3.3C213,221.1,207.2,220.1,201.5,218.9L201.5,218.9z"/>
			</g>
			<path class="st25" d="M311.4,107.7c3.3,7.3,3,15.7,0.8,23.4c-2.1,7.7-6,14.7-9.9,21.7c1.9,3,3,4.4,4.9,7.4
				c3.5-4.7,6.6-9.3,9-14.3c2-4,3.6-8.2,4.8-12.9c2.6-10.3,2.1-21.7-3.2-31c-3.5-6.1-8.7-10.5-14.8-12.6c-3.2-1.1-6.7-1.5-10.4-1.2
				c-0.4,2.1,0.1,1.5,0.8,3.5C303,94,308.1,100.4,311.4,107.7L311.4,107.7z"/>
			<path class="st26" d="M311.4,107.7c3.3,7.3,3,15.7,0.8,23.4c-2.1,7.7-6,14.7-9.9,21.7c1.9,3,3,4.4,4.9,7.4
				c3.5-4.7,6.6-9.3,9-14.3c-1.1-3.4-1.3-7.3-1.1-10.9c0.4-6,1.8-12,1.5-18c-0.5-7.5-3.7-14.6-8.1-20.7c-1.7-2.4-3.6-4.6-5.6-6.8
				c-3.2-1.1-10.9-2.8-16.2,1.1c2.2,0.3,4.9,0.7,6.6,1.3C303.4,94.7,308.1,100.4,311.4,107.7L311.4,107.7z"/>
			<path class="st6" d="M264.6,425l66.9,2c1.1-2.1,1.5-6.2,1-8.9c-11,0.1-21.8,0.2-32.8,0.2c-5.4,0-11.3-0.1-15.2-3.8
				c-3.4-3.2-4.2-5.9-3.1-10.5c-1.8,0.6-3.5,1.3-5.3,2c-2.7,1.2-5.4,2.5-8,4C268.1,410.1,264.6,424,264.6,425L264.6,425z"/>
			<path class="st24" d="M281.2,189.6c9-0.5,17.2-2.3,22-4.8l0.1-0.1l0.1-0.1c5.8-3.7,6.1-10.6,6.3-16.1c0.1-1.6,0.1-3,0.3-4.4
				l0-0.2v-0.2c0-1.8,0.2-3.7,0.4-5.8c0.5-5.1,1.2-11-1.6-16.2l-0.1-0.2l-0.1-0.1c-2.2-3.4-5.3-4.9-9.3-4.7c-1.5,0.1-3,0.4-4.6,0.7
				c-2,0.4-4.2,0.8-6.8,1c-0.6,0-1.2,0.1-1.8,0.1c-1.8,0-3.5,0-5.1,0c-4.7,0-8.4,0-11.3,0.2c-4.8,0.3-10.2,1-12.7,5.9
				c-1.8,3.4-1.7,8-1.6,15.6c0.1,4,0.1,8.9-0.1,14.9v0.1c0,3.1,0.3,7.5,3.5,10.5c1.7,1.9,4.8,3.1,9.4,3.8
				C271.9,189.8,276.4,189.9,281.2,189.6L281.2,189.6z"/>
			<path class="st6" d="M310.5,143.3c3.2,5.9,0.7,13.5,0.7,20.1c-0.8,6.5,0.5,14.2-4.8,17.6c-9.8,5.1-35.6,6.1-39.5,1.4
				c-2-1.8-2.4-4.9-2.4-7.6c1-34.5-6-32.5,26.8-32.6C301.9,142.1,306.7,137.6,310.5,143.3L310.5,143.3z"/>
			
				<ellipse transform="matrix(8.028412e-03 -1 1 8.028412e-03 73.5175 290.0356)" class="st8" cx="182.9" cy="108" rx="14.8" ry="7.3"/>
			<path class="st26" d="M214.9,106.6c3.5,4.1,14.1,7.5,29.5,8.7c0.9,0.1,1.8,0.1,2.6,0.2c2.1-1.6,6.7-2.6,11.2-2.4
				c6.7,0.3,9.5,1.4,11.2,2.2c14.8-1.1,26.3-4,30.3-7.8c0.9-0.9,1.4-1.8,1.5-2.7c0.3-5.4-14.9-10.2-35.4-11.5
				c-3.2-0.2-6.6-0.3-10-0.4c-4.4-0.1-8.6,0.1-12.5,0.3c-18.2,1.1-29.5,5-29.8,10.2C213.6,104.5,214,105.5,214.9,106.6L214.9,106.6z
				"/>
			<path class="st27" d="M214.9,106.6c3.5,4.1,14.1,7.5,29.5,8.7c0.9,0.1,1.8,0.1,2.6,0.2c1.9-1.4,6.6-3,11.1-2.9
				c4.7,0.1,8.2,1,11.4,2.8c14.8-1.1,26.3-4,30.3-7.8c-3.4-3.2-12.4-6-24.2-7.5c-2.2-0.3-4.4-0.5-6.8-0.7c0,0,0,0-0.1,0
				c-0.9-0.1-1.9-0.2-2.8-0.2c-3.2-0.2-6.6-0.3-10-0.4c-3.4,0-6.6,0-9.6,0.1c0,0,0,0-0.1,0c-0.4,0-0.9,0-1.3,0.1
				c-0.5,0-1,0.1-1.6,0.1C228.5,99.9,218.2,102.7,214.9,106.6L214.9,106.6z"/>
			<path class="st28" d="M244.1,106.7l32-0.7c0.2-0.1,1.6,5.6,2.3,8.3c-2.8,0.4-5.7,0.7-8.8,0.9c-1.7-0.9-4.5-2-11.2-2.2
				c-4.5-0.2-9.1,0.8-11.2,2.4c-0.9-0.1-1.8-0.1-2.6-0.2c-2.4-0.2-4.7-0.4-6.8-0.7L244.1,106.7L244.1,106.7z"/>
			
				<ellipse transform="matrix(8.028412e-03 -1 1 8.028412e-03 71.8466 288.5327)" class="st29" cx="181.4" cy="108.1" rx="10.5" ry="5.2"/>
			
				<ellipse transform="matrix(0.9984 -5.669279e-02 5.669279e-02 0.9984 -8.0797 17.2519)" class="st24" cx="300" cy="151" rx="4.7" ry="5.8"/>
			
				<ellipse transform="matrix(0.9984 -5.669279e-02 5.669279e-02 0.9984 -8.0739 17.32)" class="st30" cx="301.2" cy="151" rx="3.5" ry="5"/>
			
				<ellipse transform="matrix(0.9984 -5.669279e-02 5.669279e-02 0.9984 -9.0689 17.2748)" class="st24" cx="299.9" cy="168.5" rx="4.7" ry="5.8"/>
			
				<ellipse transform="matrix(0.9984 -5.669279e-02 5.669279e-02 0.9984 -9.0631 17.3435)" class="st31" cx="301.1" cy="168.4" rx="3.5" ry="5"/>
			<g>
				<path class="st32" d="M222.6,49.9c-0.9,2.8-1.5,5.7-1.7,8.7l0,0.6c-0.2,3.6-0.8,7.1-1.8,10.5c-1.6-0.7-3.2-1.9-4.7-4.1
					c-3.9-5.6-2-14.2,3.3-15.9C219.7,49.1,221.3,49.3,222.6,49.9L222.6,49.9L222.6,49.9z"/>
				<path class="st33" d="M222.6,49.9c-0.9,2.8-1.5,5.7-1.7,8.7l0,0.6c-0.2,3.6-0.8,7.1-1.8,10.5c-1.6-0.7-3.2-1.9-4.7-4.1
					c-3.9-5.6-2-14.2,3.3-15.9C219.7,49.1,221.3,49.3,222.6,49.9L222.6,49.9L222.6,49.9z"/>
				<path class="st32" d="M299.8,70.4c-1.7,1.9-3.5,3-5.1,3.5c-0.6-3.5-0.8-7.1-0.6-10.6l0-0.6c0.2-3-0.1-5.9-0.7-8.8
					c1.3-0.4,3-0.5,4.9,0.4C303.5,56.6,304.4,65.3,299.8,70.4L299.8,70.4z"/>
				<path class="st33" d="M299.8,70.4c-1.7,1.9-3.5,3-5.1,3.5c-0.6-3.5-0.8-7.1-0.6-10.6l0-0.6c0.2-3-0.1-5.9-0.7-8.8
					c1.3-0.4,3-0.5,4.9,0.4C303.5,56.6,304.4,65.3,299.8,70.4L299.8,70.4z"/>
				<path class="st32" d="M283.3,73.4c-1.7,2.3-2.3,5.3-1.5,8.1c0.6,2.1,1.1,4.4,1,6.2c-0.7,12.6-13.3,22.2-28,21.3
					c-14.8-0.8-26.1-11.8-25.4-24.4c0.1-1.7,0.9-4,1.7-6c1.1-2.7,0.8-5.7-0.6-8.2c-0.3-0.6-0.6-1.2-0.9-1.9c-0.8-1.9-1.1-4.1-1-6.2
					c0.5-8.4,8-14.8,16.8-14.3c2.8,0.2,5.6,1,8,2.6c2.8,1.8,6.4,2,9.4,0.5c2.5-1.2,5.4-1.8,8.2-1.7c8.8,0.5,15.6,7.7,15.1,16.1
					c-0.1,2.1-0.7,4.1-1.7,6C284.1,72.3,283.7,72.9,283.3,73.4L283.3,73.4z"/>
				<path class="st33" d="M283.3,73.4c-1.7,2.3-2.3,5.3-1.5,8.1c0.6,2.1,1.1,4.4,1,6.2c-0.7,12.6-13.3,22.2-28,21.3
					c-14.8-0.8-26.1-11.8-25.4-24.4c0.1-1.7,0.9-4,1.7-6c1.1-2.7,0.8-5.7-0.6-8.2c-0.3-0.6-0.6-1.2-0.9-1.9c-0.8-1.9-1.1-4.1-1-6.2
					c0.5-8.4,8-14.8,16.8-14.3c2.8,0.2,5.6,1,8,2.6c2.8,1.8,6.4,2,9.4,0.5c2.5-1.2,5.4-1.8,8.2-1.7c8.8,0.5,15.6,7.7,15.1,16.1
					c-0.1,2.1-0.7,4.1-1.7,6C284.1,72.3,283.7,72.9,283.3,73.4L283.3,73.4z"/>
				<path class="st10" d="M242.3,88.2c-0.8-0.1-1.6,0.6-1.6,1.4c0,0.1,0,0.1,0,0.2c0.6,6.8,6.7,12.4,14.4,12.9
					c7.8,0.4,14.5-4.4,15.8-11.1c0.2-0.8-0.4-1.6-1.2-1.8c-0.1,0-0.1,0-0.2,0L242.3,88.2L242.3,88.2z"/>
				<path class="st34" d="M246.5,99.7c5.2,3.7,12,4.1,17.6,1c-0.9-3.9-4.5-3.2-8.6-3.4C251.3,97,247.8,95.9,246.5,99.7L246.5,99.7z"
					/>
				<path class="st32" d="M300.3,51.6c-3.1-1.4-5.6-0.9-7.5,0c-0.4-1.3-0.8-2.6-1.3-3.8c-0.4-0.9-0.8-1.8-1.2-2.7
					c-4.3-9.1-12-16.9-21.2-20.6l0.1-5l-6.2,3.3c-0.2,0-0.5-0.1-0.7-0.1c-0.4-0.1-0.9-0.1-1.3-0.2l-0.7-3.9l-0.2-1.1
					c-0.3,0-0.6,0-0.9,0c-5.6,0.1-8.7,5.1-9.2,5.9c-9.5,2.6-18.1,9.5-23.4,18c-0.5,0.8-1,1.7-1.5,2.6c-0.6,1.2-1.2,2.4-1.7,3.6
					l-0.2-0.1c-1.7-1-4.1-1.7-7.2-0.7c-6.8,2.2-9.2,13.1-4.2,20.2c2,2.9,4.3,4.6,6.5,5.4c0,0.1-0.1,0.2-0.1,0.4
					c-0.5,1.8-0.8,3.7-0.9,5.6c-0.7,13,8.2,24.8,21.7,30.5c3.2,1.3,6.5,2.3,9.9,2.9c1.8,0.3,3.5,0.5,5.3,0.7l0.4,0
					c21.6,1.2,40-12.1,41-29.7c0.1-1.9,0-3.8-0.3-5.6c0-0.1,0-0.2-0.1-0.4c2.3-0.6,4.7-1.9,7-4.6C308,65.6,306.8,54.5,300.3,51.6
					L300.3,51.6z M222.6,49.9c-0.9,2.8-1.5,5.7-1.7,8.7l0,0.6c-0.2,3.6-0.8,7.1-1.8,10.5c-1.6-0.7-3.2-1.9-4.7-4.1
					c-3.9-5.6-2-14.2,3.3-15.9C219.7,49.1,221.3,49.3,222.6,49.9L222.6,49.9L222.6,49.9z M284.4,71.7c-0.3,0.6-0.7,1.2-1.1,1.8
					c-1.7,2.3-2.3,5.3-1.5,8.1c0.6,2.1,1.1,4.4,1,6.2c-0.7,12.6-13.3,22.2-28,21.3c-14.8-0.8-26.1-11.8-25.4-24.4
					c0.1-1.7,0.9-4,1.7-6c1.1-2.7,0.8-5.7-0.6-8.2c-0.3-0.6-0.6-1.2-0.9-1.9c-0.8-1.9-1.1-4.1-1-6.2c0.5-8.4,8-14.8,16.8-14.3
					c2.8,0.2,5.6,1,8,2.6c2.8,1.8,6.4,2,9.4,0.5c2.5-1.2,5.4-1.8,8.2-1.7c8.8,0.5,15.6,7.7,15.1,16.1
					C285.9,67.8,285.4,69.8,284.4,71.7L284.4,71.7z M299.9,70.4c-1.7,1.9-3.5,3-5.2,3.5c-0.6-3.5-0.8-7.1-0.6-10.6l0-0.6
					c0.2-3-0.1-5.9-0.7-8.8c1.3-0.4,3-0.5,4.9,0.4C303.5,56.6,304.4,65.3,299.9,70.4L299.9,70.4L299.9,70.4z"/>
				<path class="st10" d="M249.9,77.2L249.9,77.2c0.3-0.6,1.1-0.9,1.7-0.5l2.9,1.5c0.6,0.3,0.9,1.1,0.5,1.7l0,0
					c-0.3,0.6-1.1,0.9-1.7,0.5l-2.9-1.5C249.8,78.6,249.6,77.8,249.9,77.2z"/>
				<path class="st10" d="M257.8,80.1L257.8,80.1c-0.2-0.7,0.1-1.4,0.7-1.7l3-1.2c0.7-0.2,1.4,0.1,1.7,0.7l0,0
					c0.2,0.7-0.1,1.4-0.7,1.7l-3,1.2C258.8,81.1,258,80.8,257.8,80.1z"/>
				<path class="st10" d="M243.2,69.3L243.2,69.3c-2.5-0.1-4.5-2.2-4.3-4.6l0.1-1.5c0.1-2.4,2.3-4.2,4.8-4.1l0,0
					c2.5,0.1,4.5,2.2,4.3,4.6l-0.1,1.4C247.9,67.7,245.8,69.5,243.2,69.3z"/>
				<path class="st35" d="M243.8,59.2l-0.3,5.1c-0.1,1.2,0.9,2.2,2.2,2.3c1.3,0.1,2.4-0.8,2.4-2l0-0.7
					C248.3,61.4,246.3,59.4,243.8,59.2L243.8,59.2z"/>
				
					<ellipse transform="matrix(5.669279e-02 -0.9984 0.9984 5.669279e-02 163.8398 305.6269)" class="st36" cx="243.7" cy="66.1" rx="1.4" ry="1.5"/>
				<path class="st10" d="M270.7,70.9L270.7,70.9c-2.5-0.1-4.5-2.2-4.3-4.6l0.1-1.4c0.1-2.4,2.3-4.2,4.8-4.1l0,0
					c2.5,0.1,4.5,2.2,4.3,4.6l-0.1,1.4C275.4,69.2,273.2,71.1,270.7,70.9z"/>
				<path class="st35" d="M271.3,60.8l-0.3,5.1c-0.1,1.2,0.9,2.2,2.2,2.3s2.4-0.8,2.4-2l0-0.7C275.8,63,273.8,60.9,271.3,60.8
					L271.3,60.8z"/>
				
					<ellipse transform="matrix(5.669279e-02 -0.9984 0.9984 5.669279e-02 188.1974 334.5121)" class="st36" cx="271.1" cy="67.7" rx="1.5" ry="1.5"/>
				<path class="st37" d="M260.3,18.6c-1-0.2-3.4,1.3-6.2,4c-0.7,0.6-1.4,1.4-2.2,2.2c-5.6,5.9-12.3,15.3-14.9,25.1
					c-4.5,16.6-7,35.9-1.4,47.1c4.7,9.4,13.3,14.7,13.3,14.7c-3.4-0.6-6.7-1.6-9.9-2.9c-13.5-5.7-22.5-17.5-21.7-30.5
					c0.1-1.9,0.4-3.8,0.9-5.6c0-0.1,0.1-0.2,0.1-0.4c-2.2-0.8-4.4-2.4-6.5-5.4c-5-7.1-2.6-18,4.2-20.2c3.1-1,5.5-0.3,7.2,0.7
					l0.2,0.1c0.5-1.2,1.1-2.5,1.7-3.6c0.5-0.9,0.9-1.7,1.5-2.6c5.3-8.6,13.9-15.5,23.4-18c0.5-0.9,3.6-5.8,9.2-5.9
					c0.3,0,0.6,0,0.9,0L260.3,18.6L260.3,18.6z"/>
			</g>
			<path class="st24" d="M276.6,178.4c1.7,0,3-0.1,4-0.3c3.2-0.7,2.5-2.6,2.6-6.1c0.1-7,0.2-22,0.2-22.6c0.2-2.9-5.5-2.7-8-1.5
				c-1,1.1-1.2,1.9-1.2,2.8c0,1.1,0.3,2.4,0.1,4.6C274.6,171.5,272.8,178.6,276.6,178.4L276.6,178.4z"/>
			<path class="st38" d="M276.6,178.4c1.7,0,3-0.1,4-0.3c0-0.8,0-1.7,0-2.7c0.1-7,0.2-22,0.2-22.6c0.1-2.4-3.7-2.7-6.5-2
				c0,1.1,0.3,2.4,0.1,4.6C274.6,171.5,272.8,178.6,276.6,178.4L276.6,178.4z"/>
			<path class="st25" d="M187.6,108.4c7.4-13.6,24.6-2.6,28.2,0.1c17.9,13.7,26.9,27.9,38.9,47c3.5,5.4,10.7,3.1,5.8-6.4
				c-0.4-0.7-0.7-1.4-1.1-2.1c-8.4-15.6-18.7-28.3-31.9-40.3c-4.4-4-9.1-7.8-14.6-10.2c-1.9-0.9-5.9-2.1-10.4-2.5
				c-8.4-0.9-18.8,0.8-22.1,11.4C178.4,111.6,184.6,114.1,187.6,108.4L187.6,108.4z"/>
			<path class="st7" d="M243.1,306.9c-0.9,1.7-1.8,3.4-2.7,5c-14.4-5.6-30.2-7.3-45.6-4.9c0.4-1.6,0.8-3.2,1.2-5
				C211.7,298.2,228.6,300.1,243.1,306.9L243.1,306.9z"/>
			<path class="st8" d="M252,317.4c-3.8-2.1-7.6-4-11.7-5.5c0.9-1.6,1.9-3.3,2.7-5c3.6,1.6,7,3.6,10.2,5.8
				C252.9,314.2,252.5,315.8,252,317.4L252,317.4z"/>
			<g>
				<g>
					<path class="st39" d="M262.1,210.4c-7.8,25.7-35,40.2-60.7,32.3c-1.3-0.4-2.7-0.9-3.9-1.4c-23.2-9.3-35.8-34.9-28.4-59.3
						c7.8-25.7,35-40.2,60.7-32.3c5.5,1.7,10.6,4.3,15.2,7.7C260.8,169.4,268.2,190.4,262.1,210.4z"/>
					<path class="st40" d="M264.6,205.4c-8,26.2-35.6,40.9-61.8,32.9c-1.4-0.4-2.7-0.9-4-1.4c-23.6-9.4-36.5-35.6-28.9-60.4
						c8-26.2,35.6-40.9,61.8-32.9c5.6,1.7,10.8,4.4,15.4,7.9C263.2,163.7,270.8,185,264.6,205.4z"/>
					<path class="st36" d="M257.8,203.3c-6.8,22.4-30.5,35-52.9,28.2c-1.2-0.4-2.3-0.8-3.4-1.2c-20.2-8.1-31.2-30.4-24.8-51.7
						c6.8-22.4,30.5-35,52.9-28.2c4.8,1.4,9.2,3.7,13.2,6.7C256.6,167.6,263.1,185.9,257.8,203.3L257.8,203.3z"/>
					<path class="st41" d="M231.1,145.5c5.6,1.7,10.8,4.4,15.4,7.9c15.8,12,23.4,32.8,17.8,52.9c0.1-0.3,0.2-0.6,0.3-0.8
						c6.2-20.4-1.4-41.7-17.5-53.9c-4.6-3.5-9.9-6.2-15.4-7.9c-26.1-8-53.8,6.8-61.8,32.9c-0.1,0.3-0.2,0.6-0.3,0.9
						C177.9,151.9,205.2,137.6,231.1,145.5L231.1,145.5z"/>
					<path class="st39" d="M229.1,152c4.8,1.4,9.2,3.7,13.2,6.7c13.5,10.2,20.1,28.1,15.2,45.3c0.1-0.2,0.2-0.5,0.2-0.7
						c5.3-17.5-1.2-35.7-15-46.1c-4-3-8.4-5.3-13.2-6.7c-22.4-6.8-46.1,5.8-52.9,28.2c-0.1,0.3-0.2,0.5-0.2,0.8
						C183.6,157.6,207,145.3,229.1,152L229.1,152z"/>
				</g>
				<g>
					<polygon class="st40" points="215.1,174.4 219.9,179.7 226.9,178.1 222.1,172.8 					"/>
					<polygon class="st40" points="196.1,185.2 191.3,179.9 185.4,198.7 198.4,213 200.6,206.1 192.4,197 					"/>
					<polygon class="st40" points="199.8,173.4 206.7,171.8 201.9,166.4 195,168.1 192.8,175 197.6,180.3 					"/>
					<polygon class="st40" points="240,186 237.8,192.9 244.8,191.3 247,184.4 242.2,179.1 235.2,180.7 					"/>
					<polygon class="st40" points="236.3,197.9 232.6,209.7 220.7,212.4 218.5,219.3 237.3,215 243.2,196.2 					"/>
					<polygon class="st40" points="197.3,195.9 202.1,201.2 204.3,194.3 199.5,189 					"/>
					<polygon class="st40" points="204,209.9 201.8,216.8 206.6,222.1 213.5,220.5 215.7,213.6 208.7,215.2 					"/>
					<polygon class="st40" points="231.3,199 224.4,200.6 222.2,207.5 229.1,205.9 					"/>
					<polygon class="st40" points="223.6,167.9 231.8,177 238.8,175.4 225.8,161 206.9,165.3 211.7,170.6 					"/>
					<polygon class="st40" points="235,187.2 235.1,187.2 230.3,181.9 218.3,184.6 210.2,175.5 203.2,177.1 201.1,184.1 
						209.3,193.1 205.5,205 210.3,210.3 217.2,208.7 221,196.8 232.9,194.1 					"/>
				</g>
				<g class="st42">
					<path class="st43" d="M264.8,177.1l-85.5,45.6c2.1,2.5,4.4,4.8,7,6.9l80.3-42.8C266.3,183.5,265.7,180.3,264.8,177.1
						L264.8,177.1z"/>
					<path class="st43" d="M247.1,151.5c-0.3-0.2-0.6-0.4-0.9-0.7l-78.4,41.8c0.3,9.1,3.1,17.8,7.9,25.3l87.1-46.4
						C259.4,163.7,254.1,156.7,247.1,151.5L247.1,151.5z"/>
				</g>
			</g>
			<path class="st26" d="M215.7,108.5c17.9,13.7,26.9,27.9,38.9,47c3.5,5.4,10.7,3.1,5.8-6.4c-0.4-0.7-0.7-1.4-1.1-2.1
				c-4.2-1.7-8.1-4.6-11.3-7.9c-5.5-5.6-9.6-12.4-14.5-18.5c-7.1-8.6-16-15.7-26-20.6c-2-1-4.2-2.1-5.1-4.2
				c-0.2-0.6-0.2-1.3-0.1-1.9c-8.4-0.9-18.8,0.8-22.1,11.4c-0.2,0.7-0.3,1.4-0.4,2C201.6,95.5,212.2,105.8,215.7,108.5L215.7,108.5z
				"/>
			<g>
				<path class="st6" d="M183.2,205.8c0.3,0.9,0.8,1.7,1.4,2.4c1.2,1.4,3.1,2.4,4.9,2.1c0.9-0.1,5.2-1.1,9.5-0.1
					c3.4,0.8,8-2.8,4.9-4.4c-0.1,0-3.3-1.6-3.3-1.7c-1.2-0.6-1.8-1-3.1-1.4c-4.6-1.5-10.1-0.6-14.8,0.7
					C182.8,204.3,182.9,205.1,183.2,205.8L183.2,205.8z"/>
				<g>
					<g>
						<g>
							<path class="st6" d="M185.1,241.4c2.5,0.9,5.1,1.5,7.6,1.7c5.8,0.5,13.2-25.1,7.9-27.6c-10-4.7-8.3-8.6-16.9-13.1
								c-0.1,0-0.1-0.1-0.2-0.1c-5.8,7.7-13,20.1-11.7,29.8C172.6,235.1,178.4,239.1,185.1,241.4L185.1,241.4z"/>
							<path class="st6" d="M214.7,219.1c-2.5-1-5.1-1.2-7.8-1.7c-4.4-0.8-7.8-2.6-12.6-5.6c-1.8,1.7-1.2,6,0.3,7.7
								c1.3,1.5,3.2,2.2,5.1,2.9c5.5,1.9,11.3,3.1,17.2,3.3C217,225.8,220.7,221.4,214.7,219.1L214.7,219.1z"/>
							<path class="st6" d="M219.8,234c0.1-0.3,1.8-4-3.5-6.1c-2.5-1-5.1-1.2-7.8-1.7c-4.4-0.8-8.2-3.9-12.7-4.1
								c-1.8,1.7-1.2,4.5,0.4,6.2c1.3,1.5,3.2,2.2,5.1,2.9c5.5,1.9,11.3,3.1,17.2,3.3C218.7,234.6,219.7,234.3,219.8,234L219.8,234z
								"/>
							<path class="st6" d="M212.4,235.1c-2.3-0.8-4.6-1.1-7-1.5c-4-0.7-7.4-3.5-11.4-3.7c-1.6,1.6-1.1,4.1,0.3,5.6
								c1.2,1.3,2.9,2,4.6,2.6c5,1.8,10.2,2.8,15.5,3C214.5,241,218.6,237.1,212.4,235.1L212.4,235.1z"/>
							<path class="st6" d="M207.9,241.2c-2.1-0.8-4.3-1-6.6-1.4c-3.7-0.7-7-3.3-10.7-3.5c-1.5,1.4-1,3.8,0.3,5.2
								c1.1,1.2,2.7,1.9,4.3,2.5c4.7,1.6,9.6,2.6,14.5,2.8C209.9,246.8,213.7,243.4,207.9,241.2L207.9,241.2z"/>
						</g>
						<path class="st24" d="M185.1,241.4c1.7-2,3.1-4.3,4.2-6.8c2.3-5.4,2.9-11.6,1.5-17.3c-1.3-5.4-4.1-10.2-7.1-14.9
							c-0.1,0-0.1-0.1-0.2-0.1c-5.8,7.7-13,20.1-11.7,29.8C172.5,235.1,178.4,239.1,185.1,241.4L185.1,241.4z"/>
					</g>
					<path class="st5" d="M124.8,182.4c1.9,19.9,21.9,42.2,46.4,56.6c6.3,2,9.1-4.7,12.5-9.7c5.2-8.5,8.7-19.3,1.8-26.5
						c-0.3,0.1-13.3-9.4-15.5-16.8c-2.8-7.9,2.3-16.3,7.9-22.2c1.2-1.3,2.4-2.4,3.2-3.1c-0.2-0.3-0.4-0.9-0.6-1.4
						c-5.3-11-12.5-21.1-21.4-29.3c-2.5-1.9-2.1-3.2-4.4-0.7C140.4,143,124.9,164.7,124.8,182.4L124.8,182.4z"/>
					<path class="st6" d="M124.8,182.4c1.9,19.9,21.9,42.2,46.4,56.6c6.3,2,9.1-4.8,12.7-9.9c-22.2-7.8-40.3-31.1-38.1-54.9
						c0.1-1.6,0.4-3.2,0.8-4.8c0.6-2.2,1.4-4.3,2.4-6.2c5-9.7,14.9-16.3,26.1-13.7c-4.4-7.1-9.8-13.8-15.9-19.3
						c-0.9-0.9-1.9-1.7-2.9-2.5c-0.2,0.2-0.5,0.4-0.9,0.8C140.8,142.2,124.8,164.6,124.8,182.4L124.8,182.4z"/>
					<path class="st5" d="M152.3,130.9c4.9,11.1,12.9,22.5,21.9,30.6c2.2,2,5.6,2.2,8,0.4c0.2-0.2,0.5-0.4,0.7-0.5
						c12-9.1,21.2-21.8,26-36c2.5-7.4,3.3-16.8-2.7-21.8c-2.4-2-5.4-2.8-8.5-2.8c-3.2-0.1-6.5,0.6-9.6,1.6l-0.2,0.1
						c-12.5,4-25.1,9.3-33.9,18.6C151.5,123.7,150.8,127.6,152.3,130.9L152.3,130.9z"/>
					<path class="st6" d="M152.3,130.9c4.9,11.1,12.9,22.5,21.9,30.6c2.2,2,5.6,2.2,8,0.4c0.2-0.2,0.5-0.4,0.7-0.5
						c-10-5.1-16.6-16.5-15.6-27.8c0.8-9.7,6.7-18.4,14.4-24.3c4.8-3.7,10.3-6.5,16.1-8.5c-3.2-0.1-6.5,0.6-9.6,1.6l-0.2,0.1
						c-12.5,4-25.1,9.3-33.9,18.6C151.5,123.7,150.8,127.6,152.3,130.9L152.3,130.9z"/>
				</g>
				<path class="st7" d="M146.6,169.4L146.6,169.4c6.7,5.6,14.4,9.9,22.7,12.4c-0.1-2.3,0.4-4.5,1.1-6.6c-7.8-2.6-15.1-6.8-21.4-12
					C147.9,165.2,147.1,167.3,146.6,169.4L146.6,169.4z"/>
				<path class="st8" d="M133.7,155.6c3.7,5.1,8,9.8,12.9,13.8c0.6-2.2,1.4-4.3,2.4-6.2l0,0c-4.5-3.8-8.5-8.1-11.9-12.9
					c-0.1,0.2-0.3,0.4-0.4,0.7c-0.1,0.2-0.2,0.4-0.4,0.6c-0.3,0.5-0.6,1-0.9,1.5c-0.2,0.3-0.4,0.6-0.6,0.9
					C134.4,154.5,134,155.1,133.7,155.6L133.7,155.6z"/>
			</g>
			<g>
				<path class="st6" d="M264.6,425c0,0,20.9,12.8,66.9,2"/>
				<path class="st23" d="M297.1,434.8c-22.7,0-33.6-6.5-34.3-6.9c-1.6-1-2.1-3.1-1.1-4.7c1-1.6,3-2.1,4.6-1.1
					c0.2,0.1,20.6,11.9,64.3,1.6c1.8-0.4,3.6,0.7,4.1,2.5c0.4,1.8-0.7,3.6-2.5,4.1C318.3,433.6,306.7,434.8,297.1,434.8L297.1,434.8
					z"/>
			</g>
		</g>
		<g class="st44">
			<g>
				<path class="st3" d="M413.4,405c0,0,17.5-2.6,18.3,15.4c0.8,18-18.8,11-18.8,11s-0.5,23.6-29.1,13.3c0,0-14.9,24.1-48.1,5.4
					c0,0-39.3,14.6-36.7-21c0,0-14.6,7.3-14.8-11.3c-0.2-18.6,23.1-12.1,23.1-12.1s1.8-25.2,26.1-13.8c0,0-0.1-19.8,25.5-12
					c25.6,7.8,24.2,16.7,24.2,16.7S398.5,374.7,413.4,405L413.4,405z"/>
				<path class="st4" d="M413.4,405c0,0,17.5-2.6,18.3,15.4c0.8,18-18.8,11-18.8,11s-0.5,23.6-29.1,13.3c0,0-14.9,24.1-48.1,5.4
					c0,0-39.3,14.6-36.7-21c0,0-14.6,7.3-14.8-11.3c-0.2-18.6,23.1-12.1,23.1-12.1s-19,1.9-16.4,13.9c2.7,12,16.1,6,16.1,6
					c-4.3,23.9,18.5,13.3,18.5,13.3c32.8,25.1,55.6-6.2,55.6-6.2s16.8,1.4,31.8-7.5C428,416.4,413.4,405,413.4,405L413.4,405z"/>
				<path class="st4" d="M307.2,405.7c14.6-0.8,20.7,3.6,23.2,6.9c-2.1-5.2-3.9-14.9,10.1-17.9c19.4-4.1,23.8,3.9,25.8,8.6
					c0,0,3.5-6.9,16.4-3.9c9.9,2.3,7.8,10.6,6.3,14.3c2.2-4.2,9.3-14,24.5-8.8c0,0,10.3,0.8,9,13c-1.3,12.1-16.5,10.8-16.5,10.8
					s-2.9,14.2-24.8,4c0,0-6.2,17.1-22.8,18.1c-30,1.7-25.8-4.3-24-6c-1.8,1.5-7.9,5.6-8.8-5.9c0,0-8.1,10.2-18.6,1.1
					c0,0-8.3-5.3,0.1-14.4c0,0-15.9,7.4-16.1-6C290.8,419.6,284.3,406.9,307.2,405.7L307.2,405.7z"/>
				<path class="st4" d="M413.7,405c0,0,25.9,27.2-11.5,23.6C402.2,428.6,428.9,429.9,413.7,405z"/>
				<path class="st4" d="M403.5,420.1c0,0,2.7,11.4-7.5,15.1c-9.5,3.5-14.9,1.6-14.9,1.6s-3.9,7.3-22.8,11.2c0,0,19.4-7.8,21.5-20.8
					C379.9,427.2,398.5,440.7,403.5,420.1z"/>
				<path class="st4" d="M337.2,438.5c0,0-7.1,22.1-11.8,4.2c0,0-22.8,6.4-18.5-17.1c0,0,3.8,22.4,18.8,12.6
					C325.8,438.3,328.7,447.4,337.2,438.5L337.2,438.5z"/>
				<path class="st4" d="M317.5,410.8c0,0-31.2-7.4-28.7,6.8s21.9,2.4,21.9,2.4s-15,5.6-15-3.7C295.6,407,317.5,410.8,317.5,410.8
					L317.5,410.8z"/>
				<path class="st3" d="M366.7,393.9c0,0-17.2-5.6-21.8,9.6C344.9,403.5,350.9,393.8,366.7,393.9z"/>
				<path class="st3" d="M390,399.7c0,0-13.5-8.7-21.5,6.6C368.5,406.3,375.6,395.8,390,399.7z"/>
				<path class="st3" d="M392.2,403.9c0,0-12-7.8-21.2,4.7C371,408.6,382.6,400.6,392.2,403.9z"/>
				<path class="st3" d="M407.5,400c0,0-14.7-2.7-15.6,14.4C391.9,414.4,394.7,404.6,407.5,400z"/>
				<path class="st3" d="M338.1,398.4c0,0-10.3,7.3-6,17.5C332.1,416,330.7,409.9,338.1,398.4z"/>
				<path class="st3" d="M327.3,415.1c0,0,2-7.6-14.8-8.4C312.5,406.7,324.4,408.9,327.3,415.1z"/>
			</g>
			<g>
				<path class="st3" d="M317.5,422.4c0,0,15.5-2.6,9.6,14.5c-5.9,17.1-151.5,15.4-146.7-1.2c4.8-16.6,13.7-6.1,13.7-6.1
					s-5.5-9,10.2-7.2c0,0,1.4-15.2,16.8-13.4s13.3,9.6,13.3,9.6s0.1-6.4,4.5-4.8c0,0-8.3-15.4,16.1-12.9c0,0-3.1-22.2,22-20.2
					c25,2,24.6,22.2,24.6,22.2S326.6,399.8,317.5,422.4L317.5,422.4z"/>
				<path class="st4" d="M180.4,436.6l27.8-5.3l22.4,0.5l19.2-9l60,5.1l18.6,0.4c0.4,2.1,0.1,4.9-1.2,8.5
					C321.4,453.6,181.7,452.3,180.4,436.6L180.4,436.6z"/>
				<path class="st4" d="M266.7,435.1c-15.7,3.8-22.1-3.5-22.1-3.5c-12.9,12.4-25.9,4.6-25.9,4.6s-3.8,9-17.8,9
					c-11.4-1.9-19.2-4.6-20.4-8l0,0c4.5-10.2,15.3-6.7,15.3-6.7c0.6-8.6,11.4-3.8,11.4-3.8c8.9-16.5,28.6-1.6,28.6-1.6
					c2.7-16,21.3-14.9,21.3-14.9c22-24.8,39,2.7,39,2.7c5.7-8.1,15.6-6.7,22-4.6c1.7,2.9,2,7.4-0.6,14.1c0,0,15.5-2.6,9.6,14.5
					C300.1,451.6,266.7,435.2,266.7,435.1L266.7,435.1z"/>
				<path class="st3" d="M290.7,412.8c0,0-5.1-10-15.6-9.6c-10.5,0.4-14.9,10.3-14.9,10.3s-10.3-2.9-16.1,2.8c0,0,13.2-3.5,16.5,0.4
					c0,0,6.4-11.4,14.9-10.3C284.1,407.4,290.7,412.8,290.7,412.8L290.7,412.8z"/>
				<path class="st3" d="M299.2,415.5c0,0,2.4-6.6,16.8-4.6C316.1,411,305.7,411,299.2,415.5z"/>
				<path class="st3" d="M209,430.2c0,0-4-4.8-8.5-2.2c-4.6,2.6-3.3,6.7-3.3,6.7s0.9-2.9,4.9-4.9C206,427.9,209,430.2,209,430.2
					L209,430.2z"/>
				<path class="st3" d="M193.7,433.5c0,0-7.3-5.1-13.2,3.8C180.6,437.3,185.6,432.1,193.7,433.5z"/>
				<path class="st4" d="M320.6,432.7c0,0-8.4,10.7-24.8,8.3c-16.5-2.4-22.6-9.3-22.6-9.3s9.4,4.6,22.9,5.5
					C309.6,438.1,320.6,432.7,320.6,432.7z"/>
				<path class="st4" d="M251.8,425.7c0,0-0.8,6.4-8.1,8.9c-7.3,2.5-11.5-1.6-11.5-1.6s6.5,0.6,11.6-2.5
					C248.8,427.5,251.8,425.7,251.8,425.7z"/>
				<path class="st4" d="M211.2,431.9c0,0,0.5,11.7-8.3,13c-8.9,1.3-15.8-3-15.8-3s9.3,2.5,15.5-0.5
					C208.7,438.4,211.2,431.9,211.2,431.9L211.2,431.9z"/>
			</g>
			<g>
				<path class="st3" d="M284.3,444.7c0,0,22.6,4.7,0.4,11c-22.3,6.3-23.7-6-23.7-6s-11.7,20.9-33.2,0.3c0,0,2.9,6.2-10.4,4.2
					c0,0-23.1,19.9-49.7-4.5c0,0-7.8,8.9-13.6,1.7c0,0-6.1,6.9-11-0.2c0,0-13.6,15.2-28.3-0.6c0,0-15.2,8.4-20.9-0.5
					c0,0-11.7,1.1-12.9-4.8c0,0-7.3,5.5-7.7-1.9c-0.4-7.4,6.7-3.2,6.7-3.2s-4.9-7.5,3.4-6.9c0,0-9.1-3-3.1-13.2
					c6-10.2,16-3.3,16-3.3s-5.5-14.5,11.8-9.9c0,0-7.8-10.5,3-21.1c10.8-10.6,25.5-1,25.5-1s1.7-5.6,9.2-2.3c0,0,1.3-13.1,16.9-11.5
					s18.6,11,18.6,11S196,365,221,372s25.4,33,25.4,33s10.5-7.5,24.3,7.9s3.5,21.1,3.5,21.1S290.7,428.3,284.3,444.7L284.3,444.7z"
					/>
				<g>
					<path class="st4" d="M274.2,434.1l1.9-1.8C275.1,433.5,274.2,434.1,274.2,434.1z"/>
					<path class="st4" d="M81,445.2c0,0-7.3,5.5-7.7-1.9c-0.4-7.4,6.7-3.2,6.7-3.2s-4.9-7.5,3.4-6.9l2.2,2.3l15-6l113,7.3l60.6-2.8
						c0,0,16.5-5.7,10.1,10.6c0,0,22.6,4.7,0.4,11c-22.3,6.3-23.7-6-23.7-6s-11.7,20.9-33.2,0.3c0,0,2.9,6.2-10.4,4.2
						c0,0-23.1,19.9-49.7-4.5c0,0-7.8,8.9-13.6,1.7c0,0-6.1,6.9-11-0.2c0,0-13.6,15.2-28.3-0.6c0,0-15.2,8.4-20.9-0.5
						C93.9,450.1,82.2,451.2,81,445.2L81,445.2z"/>
				</g>
				<path class="st4" d="M274.2,434.1c0,0,6.7-0.3,8.1,3.1c1.4,3.4-2.6,9.3-2.6,9.3s8.1-0.7,8.7,3.5c0.5,4.2-23.1,7.1-26.5-6.9
					c0,0-20,16.6-35.1-0.4c0,0-33.8,21.7-59.3-1.3c0,0-10.2,11.8-24.6,3.9c0,0-19,12.4-26.2-4.9c0,0-21.2,14.1-31.2,1.2
					c0,0-7.2-4.7,0.1-6c0,0-6.2-19.2,13.7-15.1c0,0,2.9-13.5,25.3-13.1s27.2,15.7,27.2,15.7s-15.9-32.7,10.4-31.9
					s19.4,27.7,19.4,27.7s5.4-36.9,35.7-29.3c30.4,7.6,21.2,28.6,21.2,28.6S265.2,400.4,274.2,434.1L274.2,434.1z"/>
				<path class="st3" d="M238.5,418.4c0,0-2.8-23.7-29.7-26.1C208.8,392.3,229.3,397.9,238.5,418.4z"/>
				<path class="st3" d="M238.5,418.4c0,0,28-7.9,32.6,15.9C271.1,434.2,263.9,417.4,238.5,418.4z"/>
				<path class="st3" d="M166.1,421.9c0,0,0.3-10.5,16.2-6.3c15.9,4.2,10.3,13.2,10.3,13.2s-2.2-8.4-11-9.8
					C172.9,417.5,169.8,417.8,166.1,421.9L166.1,421.9z"/>
				<path class="st3" d="M147.9,411.4c0,0-2-21.1,23-13.6C170.9,397.8,152.2,395.6,147.9,411.4z"/>
				<path class="st3" d="M124.3,420.4c0,0-13.3-10.3-25.1,0c-11.7,10.3,0.8,19.7,0.8,19.7s-9.1-13.5,1.6-18S124.3,420.4,124.3,420.4
					L124.3,420.4z"/>
				<path class="st4" d="M238.1,437.2c0,0-0.2,8.8-11.4,6.9s-12.4-12.3-12.4-12.3S225.4,450.7,238.1,437.2z"/>
				<path class="st4" d="M272.6,437.8c0,0,8.1,2.2,3.2,8.3s-27.4-8.9-27.4-8.9s16.1,8.6,22.5,6.6S272.6,437.8,272.6,437.8
					L272.6,437.8z"/>
				<path class="st4" d="M205.9,442.5c0,0-20.2,10.5-37.1-7C168.8,435.5,180.6,463.1,205.9,442.5z"/>
				<path class="st4" d="M140.5,436c0,0-23,10.9-32.9-1.8C107.5,434.2,121.6,455.6,140.5,436z"/>
			</g>
		</g>
	</g>
</g>
</svg>
