<?xml version="1.0" encoding="UTF-8"?><svg id="Laag_1" xmlns="http://www.w3.org/2000/svg" xmlns:xlink="http://www.w3.org/1999/xlink" viewBox="0 0 500 500"><defs><style>.cls-1{fill:none;}.cls-2{fill:url(#Naamloos_verloop_5);}.cls-3{fill:url(#Naamloos_verloop_7);}.cls-4{clip-path:url(#clippath);}.cls-5{fill:url(#Naamloos_verloop_43-2);}.cls-5,.cls-6,.cls-7{opacity:.2;}.cls-6{fill:url(#Naamloos_verloop_43-3);}.cls-8{opacity:.1;}.cls-9{fill:#f49c1c;}.cls-10{fill:#f5dcb4;}.cls-11{fill:#f3c73c;}.cls-12{fill:#ff9;}.cls-13{fill:#fff;}.cls-14{fill:#ffea8c;}.cls-15{fill:#ffca28;}.cls-16{fill:#ffca00;}.cls-17{fill:#ffd770;}.cls-18{fill:#ffd54f;}.cls-19{fill:#ffb300;}.cls-20{fill:#faf4e6;}.cls-21{fill:#fa0;}.cls-22{fill:#ffbc50;}.cls-23{fill:#fcee21;}.cls-24{fill:#f0b90b;}.cls-25{fill:#e6646e;}.cls-26{fill:#fdfbf5;}.cls-27{fill:#90d1c5;}.cls-28{fill:#82502e;}.cls-29{fill:#684829;}.cls-30{fill:#7d551f;}.cls-31{fill:#a16552;}.cls-32{fill:#a06137;}.cls-33{fill:#9f6552;}.cls-34{fill:#a0a0a0;}.cls-35{fill:#a08b80;}.cls-36{fill:#c1ada0;}.cls-37{fill:#b7b7b7;}.cls-38{fill:#b48b08;}.cls-39{fill:#c1c1c1;}.cls-40{fill:#33241b;}.cls-41{fill:#8c8c8c;}.cls-42{fill:#ac752c;}.cls-43{fill:#af9184;}.cls-44{fill:#c1a49a;}.cls-45{fill:#d3c2b6;}.cls-46{fill:#e0bbb1;}.cls-47{fill:#212121;}.cls-48{fill:#419186;}.cls-49{fill:#724e30;}.cls-50{fill:#967569;}.cls-51{fill:#89705c;}.cls-52{fill:#6d5047;}.cls-53{fill:#493215;}.cls-54{fill:#38260d;}.cls-55{fill:#3d3532;}.cls-56{fill:#5b3c23;}.cls-57{fill:#57bcaf;}.cls-58{fill:#845e42;}.cls-59{fill:#5e3c26;}.cls-60{fill:#5d5360;}.cls-61,.cls-62{fill:#4e3f3f;}.cls-63{fill:url(#Naamloos_verloop_5-2);}.cls-64{fill:url(#Naamloos_verloop_7-3);}.cls-65{fill:url(#Naamloos_verloop_7-2);}.cls-66{fill:url(#Naamloos_verloop_7-4);}.cls-67{fill:url(#Naamloos_verloop_79-2);}.cls-68{fill:url(#Naamloos_verloop_79-4);}.cls-69{fill:url(#Naamloos_verloop_79-3);}.cls-70{fill:url(#Naamloos_verloop_27-4);}.cls-71{fill:url(#Naamloos_verloop_27-3);}.cls-72{fill:url(#Naamloos_verloop_27-2);}.cls-73{fill:url(#Naamloos_verloop_11-2);}.cls-74{fill:url(#Naamloos_verloop_44-2);}.cls-75{fill:url(#Naamloos_verloop_33-5);}.cls-76{fill:url(#Naamloos_verloop_33-2);}.cls-77{fill:url(#Naamloos_verloop_33-3);}.cls-78{fill:url(#Naamloos_verloop_33-4);}.cls-79{fill:url(#Naamloos_verloop_32-5);}.cls-80{fill:url(#Naamloos_verloop_32-2);}.cls-81{fill:url(#Naamloos_verloop_32-3);}.cls-82{fill:url(#Naamloos_verloop_32-4);}.cls-83{fill:url(#Naamloos_verloop_35-2);}.cls-84{fill:url(#Naamloos_verloop_36-3);}.cls-85{fill:url(#Naamloos_verloop_36-2);}.cls-86{fill:url(#Naamloos_verloop_36-5);}.cls-87{fill:url(#Naamloos_verloop_36-8);}.cls-88{fill:url(#Naamloos_verloop_36-9);}.cls-89{fill:url(#Naamloos_verloop_36-7);}.cls-90{fill:url(#Naamloos_verloop_36-4);}.cls-91{fill:url(#Naamloos_verloop_36-6);}.cls-92{fill:url(#Naamloos_verloop_31-2);}.cls-93{fill:url(#Naamloos_verloop_51-2);}.cls-94{fill:url(#Naamloos_verloop_54-2);}.cls-7{fill:url(#Naamloos_verloop_43);}.cls-95{clip-path:url(#clippath-1);}.cls-62,.cls-96{isolation:isolate;opacity:.35;}.cls-97{fill:#d3ede9;opacity:.15;}.cls-98{fill:#fbb03b;}.cls-98,.cls-99{opacity:.33;}.cls-100{fill:url(#Naamloos_verloop_4);opacity:.35;}.cls-101{fill:url(#Naamloos_verloop_36-10);}.cls-102{fill:url(#Naamloos_verloop_54);}.cls-103{fill:url(#Naamloos_verloop_51);}.cls-104{fill:url(#Naamloos_verloop_44);}.cls-105{fill:url(#Naamloos_verloop_32);}.cls-106{fill:url(#Naamloos_verloop_31);}.cls-107{fill:url(#Naamloos_verloop_33);}.cls-108{fill:url(#Naamloos_verloop_36);}.cls-109{fill:url(#Naamloos_verloop_35);}.cls-110{fill:url(#Naamloos_verloop_27);}.cls-111{fill:url(#Naamloos_verloop_25);}.cls-112{fill:url(#Naamloos_verloop_22);}.cls-113{fill:url(#Naamloos_verloop_11);}.cls-114{fill:url(#Naamloos_verloop_13);}.cls-115{fill:url(#Naamloos_verloop_70);}.cls-116{fill:url(#Naamloos_verloop_79);}.cls-117{fill:url(#Sfumatura_senza_nome_40);}</style><clipPath id="clippath"><path class="cls-1" d="M181.19-62.54c-66.76-.96-99.87-5.28-120.72-25.61-20.85-20.33-10.68-26.42,15.33-37.81,26.02-11.38,68.97-31.82,125.14-32.98,15.74-.33,48.45-15.67,63.02-14.97,37.42,1.79,113.42,9.64,119,10.48,3.3,.5,18.64,3.53,35.07,9.19,43.48-11.21,19.26,24.04-.8,31.79-.67,.26-1.37,.46-2.06,.67-2.91,.86-11.18,3.82-12.79,4.21-13.3,3.26-15.96,8.67-23.44,20.15-16.1,24.72-121.75,35.97-197.77,34.88Z"/></clipPath><linearGradient id="Naamloos_verloop_5" x1="-260.59" y1="327.29" x2="162.23" y2="-137.5" gradientUnits="userSpaceOnUse"><stop offset="0" stop-color="#89705c"/><stop offset=".58" stop-color="#96795f"/><stop offset=".75" stop-color="#a07f61"/><stop offset="1" stop-color="#b78d67"/></linearGradient><clipPath id="clippath-1"><path class="cls-1" d="M181.19,476.69c-66.76-.96-99.87-5.28-120.72-25.61-20.85-20.33-10.68-26.42,15.33-37.81,26.02-11.38,68.97-31.82,125.14-32.98,15.74-.33,48.45-15.67,63.02-14.97,37.42,1.79,113.42,9.64,119,10.48,3.3,.5,18.64,3.53,35.07,9.19,43.48-11.21,19.26,24.04-.8,31.79-.67,.26-1.37,.46-2.06,.67-2.91,.86-11.18,3.82-12.79,4.21-13.3,3.26-15.96,8.67-23.44,20.15-16.1,24.72-121.75,35.97-197.77,34.88Z"/></clipPath><linearGradient id="Naamloos_verloop_13" x1="543.52" y1="353.03" x2="328.64" y2="430.99" gradientUnits="userSpaceOnUse"><stop offset=".31" stop-color="#705a4b"/><stop offset=".68" stop-color="#96795f"/><stop offset=".81" stop-color="#a07f61"/><stop offset="1" stop-color="#b78d67"/></linearGradient><linearGradient id="Naamloos_verloop_5-2" x1="-260.59" y1="866.52" x2="162.23" y2="401.73" xlink:href="#Naamloos_verloop_5"/><linearGradient id="Naamloos_verloop_22" x1="-1173.73" y1="876.87" x2="-1162.93" y2="876.87" gradientTransform="translate(-8306.01 6732.08) rotate(-180) scale(7.38)" gradientUnits="userSpaceOnUse"><stop offset="0" stop-color="#eee"/><stop offset="1" stop-color="#dce3ea"/></linearGradient><linearGradient id="Naamloos_verloop_51" x1="358.07" y1="265.73" x2="352.96" y2="281.85" gradientUnits="userSpaceOnUse"><stop offset="0" stop-color="#f1b505"/><stop offset="1" stop-color="#d89c05"/></linearGradient><linearGradient id="Naamloos_verloop_51-2" x1="358.24" y1="220.72" x2="353.13" y2="236.83" xlink:href="#Naamloos_verloop_51"/><linearGradient id="Naamloos_verloop_32" x1="206.28" y1="191.02" x2="238.4" y2="183.19" gradientUnits="userSpaceOnUse"><stop offset=".2" stop-color="#cc5323"/><stop offset=".38" stop-color="#d56628"/><stop offset=".76" stop-color="#ef9935"/><stop offset=".82" stop-color="#f4a338"/></linearGradient><linearGradient id="Sfumatura_senza_nome_40" x1="131.78" y1="485.84" x2="131.78" y2="324.24" gradientUnits="userSpaceOnUse"><stop offset="0" stop-color="#ffffea"/><stop offset="1" stop-color="#edcab1"/></linearGradient><linearGradient id="Naamloos_verloop_32-2" x1="170.66" y1="254.27" x2="175.57" y2="138.03" xlink:href="#Naamloos_verloop_32"/><linearGradient id="Naamloos_verloop_79" x1="178.75" y1="202.25" x2="180.37" y2="199.46" gradientUnits="userSpaceOnUse"><stop offset="0" stop-color="#0a061d"/><stop offset=".72" stop-color="#12223e"/><stop offset=".79" stop-color="#0e1631"/><stop offset=".91" stop-color="#0b0a22"/><stop offset="1" stop-color="#0a061d"/></linearGradient><linearGradient id="Naamloos_verloop_79-2" x1="176.38" y1="221.88" x2="178" y2="219.09" xlink:href="#Naamloos_verloop_79"/><linearGradient id="Naamloos_verloop_79-3" x1="173.42" y1="241.2" x2="175.04" y2="238.41" xlink:href="#Naamloos_verloop_79"/><linearGradient id="Naamloos_verloop_79-4" x1="118.68" y1="-180.85" x2="120.22" y2="-183.5" gradientTransform="translate(-.18 62.57) rotate(90)" xlink:href="#Naamloos_verloop_79"/><linearGradient id="Naamloos_verloop_33" x1="182.64" y1="163.52" x2="166.96" y2="279.45" gradientUnits="userSpaceOnUse"><stop offset=".2" stop-color="#cc5323"/><stop offset=".42" stop-color="#d46626"/><stop offset=".82" stop-color="#e8932e"/></linearGradient><linearGradient id="Naamloos_verloop_7" x1="182.34" y1="172.42" x2="184.8" y2="168.78" gradientUnits="userSpaceOnUse"><stop offset="0" stop-color="#ffe988"/><stop offset=".25" stop-color="#ba801e"/><stop offset=".5" stop-color="#fbec83"/><stop offset=".75" stop-color="#ba801f"/><stop offset="1" stop-color="#ffe97f"/></linearGradient><linearGradient id="Naamloos_verloop_44" x1="-1004.99" y1="328.35" x2="-1010.3" y2="434.98" gradientTransform="translate(-891.24) rotate(-180) scale(1 -1)" gradientUnits="userSpaceOnUse"><stop offset="0" stop-color="#a16552"/><stop offset=".2" stop-color="#935848"/><stop offset=".5" stop-color="#935848"/><stop offset=".6" stop-color="#9b604e"/><stop offset=".73" stop-color="#a16552"/><stop offset="1" stop-color="#966444"/></linearGradient><linearGradient id="Naamloos_verloop_44-2" x1="-1072.59" y1="324.99" x2="-1077.89" y2="431.62" xlink:href="#Naamloos_verloop_44"/><linearGradient id="Naamloos_verloop_32-3" x1="175.69" y1="197.32" x2="88.41" y2="166.2" xlink:href="#Naamloos_verloop_32"/><linearGradient id="Naamloos_verloop_27" x1="156.35" y1="174.03" x2="156.35" y2="405.33" gradientUnits="userSpaceOnUse"><stop offset=".1" stop-color="#ccc3b6"/><stop offset=".26" stop-color="#d7cbba"/><stop offset=".41" stop-color="#ddcfbc"/><stop offset=".48" stop-color="#d8cab8"/><stop offset=".73" stop-color="#c9bcac"/><stop offset=".94" stop-color="#c4b8a9"/></linearGradient><linearGradient id="Naamloos_verloop_43" x1="163.02" y1="348.61" x2="189.02" y2="288.39" gradientUnits="userSpaceOnUse"><stop offset="0" stop-color="#282525"/><stop offset=".44" stop-color="#282525" stop-opacity=".7"/><stop offset=".62" stop-color="#282525" stop-opacity=".39"/><stop offset=".91" stop-color="#282525" stop-opacity="0"/></linearGradient><linearGradient id="Naamloos_verloop_27-2" x1="131.52" y1="618.35" x2="161.3" y2="618.35" gradientTransform="translate(104.9 -239.43) rotate(6.33)" xlink:href="#Naamloos_verloop_27"/><linearGradient id="Naamloos_verloop_27-3" x1="66.14" y1="542.69" x2="93.95" y2="542.69" gradientTransform="translate(82.48 -147.07) rotate(4.95)" xlink:href="#Naamloos_verloop_27"/><linearGradient id="Naamloos_verloop_43-2" x1="190.12" y1="327.41" x2="225.81" y2="191.72" xlink:href="#Naamloos_verloop_43"/><linearGradient id="Naamloos_verloop_27-4" x1="169.43" y1="249.2" x2="173.64" y2="199.85" xlink:href="#Naamloos_verloop_27"/><linearGradient id="Naamloos_verloop_43-3" x1="101.48" y1="339.66" x2="137.33" y2="203.36" xlink:href="#Naamloos_verloop_43"/><linearGradient id="Naamloos_verloop_31" x1="197.32" y1="184.75" x2="210.08" y2="144.97" gradientUnits="userSpaceOnUse"><stop offset=".1" stop-color="#c4b7a5"/><stop offset=".41" stop-color="#ddcfbc"/><stop offset=".45" stop-color="#d8cab8"/><stop offset=".61" stop-color="#c9bcac"/><stop offset=".74" stop-color="#c4b8a9"/><stop offset=".83" stop-color="#c2b6a6"/><stop offset=".89" stop-color="#beaf9d"/><stop offset=".92" stop-color="#baa893"/></linearGradient><linearGradient id="Naamloos_verloop_31-2" x1="154.03" y1="178.91" x2="146.62" y2="138.25" xlink:href="#Naamloos_verloop_31"/><linearGradient id="Naamloos_verloop_7-2" x1="150.54" y1="182.58" x2="154.66" y2="172.7" xlink:href="#Naamloos_verloop_7"/><linearGradient id="Naamloos_verloop_7-3" x1="184.56" y1="163.88" x2="187.02" y2="160.24" xlink:href="#Naamloos_verloop_7"/><linearGradient id="Naamloos_verloop_25" x1="178.21" y1="137.49" x2="171.96" y2="159.24" gradientUnits="userSpaceOnUse"><stop offset=".15" stop-color="#6b3930"/><stop offset=".47" stop-color="#764338"/><stop offset=".79" stop-color="#7c483c"/></linearGradient><linearGradient id="Naamloos_verloop_70" x1="180.62" y1="146.32" x2="184.87" y2="164.64" gradientUnits="userSpaceOnUse"><stop offset="0" stop-color="#e6e6e6"/><stop offset=".31" stop-color="#ddd"/><stop offset=".32" stop-color="#ddd"/><stop offset=".54" stop-color="#ececec"/><stop offset=".73" stop-color="#f2f2f2"/><stop offset=".88" stop-color="#f9f9f9"/><stop offset="1" stop-color="#fff"/></linearGradient><linearGradient id="Naamloos_verloop_33-2" x1="187.05" y1="165.38" x2="127.85" y2="119.86" xlink:href="#Naamloos_verloop_33"/><linearGradient id="Naamloos_verloop_33-3" x1="162.26" y1="123" x2="163.77" y2="151.54" xlink:href="#Naamloos_verloop_33"/><linearGradient id="Naamloos_verloop_33-4" x1="175.95" y1="169.72" x2="221.38" y2="125.8" xlink:href="#Naamloos_verloop_33"/><linearGradient id="Naamloos_verloop_33-5" x1="191.66" y1="121.44" x2="193.17" y2="149.98" xlink:href="#Naamloos_verloop_33"/><linearGradient id="Naamloos_verloop_11" x1="154.11" y1="252.1" x2="154.11" y2="252.1" gradientUnits="userSpaceOnUse"><stop offset="0" stop-color="#4e3f3f"/><stop offset=".44" stop-color="#4e3f3f" stop-opacity=".7"/><stop offset=".74" stop-color="#4e3f3f" stop-opacity=".2"/><stop offset=".91" stop-color="#4e3f3f" stop-opacity="0"/></linearGradient><linearGradient id="Naamloos_verloop_11-2" x1="150.54" y1="251.22" x2="150.54" y2="251.22" xlink:href="#Naamloos_verloop_11"/><linearGradient id="Naamloos_verloop_7-4" x1="198.2" y1="186.07" x2="203.48" y2="175.99" xlink:href="#Naamloos_verloop_7"/><linearGradient id="Naamloos_verloop_32-4" x1="594.88" y1="168.06" x2="512.98" y2="179.13" gradientTransform="translate(747.12 -99.6) rotate(165.49) scale(1 -1)" xlink:href="#Naamloos_verloop_32"/><linearGradient id="Naamloos_verloop_54" x1="684.12" y1="130.14" x2="631.54" y2="124.8" gradientTransform="translate(765.28 -168.9) rotate(155.11) scale(1 -1)" gradientUnits="userSpaceOnUse"><stop offset="0" stop-color="#a16552"/><stop offset=".26" stop-color="#935848"/><stop offset=".64" stop-color="#935848"/><stop offset=".71" stop-color="#8f5344"/><stop offset=".84" stop-color="#8c4e40"/><stop offset="1" stop-color="#894636"/></linearGradient><linearGradient id="Naamloos_verloop_36" x1="-32.09" y1="93.42" x2="-11.69" y2="112.08" gradientTransform="translate(125.11 91.84) rotate(-176.89) scale(1 -1)" gradientUnits="userSpaceOnUse"><stop offset=".2" stop-color="#cc9425"/><stop offset=".4" stop-color="#d8a72c"/><stop offset=".72" stop-color="#f2cf3b"/></linearGradient><linearGradient id="Naamloos_verloop_36-2" x1="-13.51" y1="121.33" x2="6.88" y2="139.99" gradientTransform="translate(160.46 85.83) rotate(-22.43)" xlink:href="#Naamloos_verloop_36"/><linearGradient id="Naamloos_verloop_36-3" x1="239.12" y1="221.03" x2="180.13" y2="216.74" gradientTransform="matrix(1, 0, 0, 1, 0, 0)" xlink:href="#Naamloos_verloop_36"/><linearGradient id="Naamloos_verloop_36-4" x1="191.4" y1="232.5" x2="194.97" y2="224.46" gradientTransform="matrix(1, 0, 0, 1, 0, 0)" xlink:href="#Naamloos_verloop_36"/><linearGradient id="Naamloos_verloop_36-5" x1="182.28" y1="225.42" x2="193.24" y2="221.14" gradientTransform="matrix(1, 0, 0, 1, 0, 0)" xlink:href="#Naamloos_verloop_36"/><linearGradient id="Naamloos_verloop_36-6" x1="181.5" y1="219.14" x2="190.08" y2="216.33" gradientTransform="matrix(1, 0, 0, 1, 0, 0)" xlink:href="#Naamloos_verloop_36"/><radialGradient id="Naamloos_verloop_4" cx="179.72" cy="85.17" fx="179.72" fy="85.17" r="51.29" gradientUnits="userSpaceOnUse"><stop offset="0" stop-color="#ffa638"/><stop offset=".09" stop-color="#ffa638" stop-opacity=".96"/><stop offset=".24" stop-color="#ffa638" stop-opacity=".84"/><stop offset=".44" stop-color="#ffa638" stop-opacity=".65"/><stop offset=".69" stop-color="#ffa638" stop-opacity=".38"/><stop offset=".96" stop-color="#ffa638" stop-opacity=".05"/><stop offset="1" stop-color="#ffa638" stop-opacity="0"/></radialGradient><linearGradient id="Naamloos_verloop_32-5" x1="137.78" y1="203.04" x2="48.17" y2="215.16" xlink:href="#Naamloos_verloop_32"/><linearGradient id="Naamloos_verloop_54-2" x1="164.35" y1="217.76" x2="102.51" y2="211.48" gradientTransform="matrix(1, 0, 0, 1, 0, 0)" xlink:href="#Naamloos_verloop_54"/><linearGradient id="Naamloos_verloop_35" x1="237.38" y1="225.03" x2="215.69" y2="221.5" gradientUnits="userSpaceOnUse"><stop offset="0" stop-color="#e7bc91"/><stop offset=".2" stop-color="#f5dcb4"/><stop offset=".3" stop-color="#f3dab2"/><stop offset="1" stop-color="#efd3ab"/></linearGradient><linearGradient id="Naamloos_verloop_36-7" x1="211.29" y1="202.32" x2="152.31" y2="198.03" gradientTransform="translate(248.14 -42.24) rotate(160.68) scale(1 -1)" xlink:href="#Naamloos_verloop_36"/><linearGradient id="Naamloos_verloop_36-8" x1="163.58" y1="213.78" x2="167.15" y2="205.74" gradientTransform="translate(248.14 -42.24) rotate(160.68) scale(1 -1)" xlink:href="#Naamloos_verloop_36"/><linearGradient id="Naamloos_verloop_36-9" x1="154.45" y1="206.7" x2="165.41" y2="202.43" gradientTransform="translate(248.14 -42.24) rotate(160.68) scale(1 -1)" xlink:href="#Naamloos_verloop_36"/><linearGradient id="Naamloos_verloop_36-10" x1="153.68" y1="200.43" x2="162.26" y2="197.61" gradientTransform="translate(248.14 -42.24) rotate(160.68) scale(1 -1)" xlink:href="#Naamloos_verloop_36"/><linearGradient id="Naamloos_verloop_35-2" x1="209.56" y1="206.31" x2="187.86" y2="202.78" gradientTransform="translate(248.14 -42.24) rotate(160.68) scale(1 -1)" xlink:href="#Naamloos_verloop_35"/></defs><g class="cls-4"><path class="cls-2" d="M-235.68-86.47l-101.81-.83-77.67,17.75-82.24,11.68-17.77,1.55V334.99H254.18l206.72-137.37,17.14-287.18,2.58-25.15-86.54-11.99-25.4-10.78c-58.48-24.82-121.96-35.56-185.35-31.36l-122.21,8.1c-72.38,4.8-143.75,19.6-212.06,44l-84.74,30.27Z"/></g><path class="cls-51" d="M445.36,389.42c-2.33-7.25-11.47-8.96-27.17-5.08-16.6-5.63-31.55-8.53-34.7-9-6.45-.97-82.55-8.76-119.36-10.51-8.15-.38-20.45,3.51-33.47,7.63-11.15,3.53-22.68,7.19-29.79,7.33-53.54,1.11-94.55,19.2-121.68,31.17-1.66,.73-3.25,1.43-4.79,2.11-16.12,7.05-26.8,12.33-28.4,21.12-1.14,6.27,2.57,13.18,12.03,22.4,21.99,21.44,57.22,25.66,123.11,26.61,3.39,.05,6.81,.07,10.26,.07,37.72,0,78.74-2.87,111.67-7.87,44.3-6.73,70.82-16.38,78.82-28.67,.52-.8,1.02-1.57,1.5-2.32,6.23-9.65,8.81-13.64,19.83-16.34,.94-.23,3.1-.96,6.55-2.14,2.49-.85,5.07-1.73,6.4-2.12l.18-.05c.69-.2,1.4-.42,2.15-.71,12.92-4.99,30.46-22.41,26.86-33.62Z"/><path class="cls-48" d="M438.58,394.02l-256.58,82.75-4.16,6.37c1.1,.02,2.19,.04,3.3,.05,3.39,.05,6.81,.07,10.26,.07,37.72,0,78.74-2.87,111.67-7.87,44.3-6.73,70.82-16.38,78.82-28.67,.52-.8,1.02-1.58,1.5-2.32,6.23-9.65,8.81-13.64,19.83-16.34,.94-.23,3.1-.96,6.55-2.14,2.49-.85,5.07-1.73,6.4-2.12l.18-.05c.69-.2,1.4-.42,2.15-.71,11.64-4.5,29.27-20.75,27.17-32.38-4.17,.62-7.09,3.35-7.09,3.35Z"/><g class="cls-95"><path class="cls-114" d="M229.63,369.96s47.47-10.7,76.73-12.58c29.27-1.88,191.18-53.93,191.18-53.93l12.89,158.53-139.61-13.83-141.19-78.2Z"/><path class="cls-63" d="M-235.68,452.77l-101.81-.83-77.67,17.75-82.24,11.68-17.77,1.55v391.31H254.18l206.72-137.37,17.14-287.18,2.58-25.15-86.54-11.99-25.4-10.78c-58.48-24.82-121.96-35.56-185.35-31.36l-122.21,8.1c-72.38,4.8-143.75,19.6-212.06,44l-84.74,30.27Z"/><path class="cls-57" d="M103.68,498.52s136.05-32.7,166.82-60c30.77-27.3,113.68-27.49,146.07-43.72,32.4-16.23,94.09-36.49,94.09-36.49l10.21,97.71s-150.57,17.36-154.83,23.81c-4.26,6.44-51.44,40.8-51.44,40.8l-210.92-22.11Z"/><path class="cls-97" d="M488.82,365.49c-16.31,6.67-80.36,38.46-100.52,46-20.16,7.54-48.82,11.44-56.51,12.98-7.69,1.54-31.28,17.18-43.85,26.16-12.56,8.97-49.49,27.77-49.49,27.77,0,0-32.57,16.34-33.85,16.09-1.28-.25,13.1,6.92,13.1,6.92,0,0,19.98-17.95,23.57-19.98,3.6-2.03,23.07-6.18,34.61-14.47,11.54-8.29,18.46-11.71,31.03-21.71,12.56-10,34.1-9.49,45.39-9.28,11.28,.21,29.23-14.05,37.86-20.72,8.62-6.67,70.35-32.57,81.66-38.21,11.31-5.64,33.31-18.21,17-11.54Zm-115.6,55.56c-4.08,3.68-14.5,9.32-21.34,9.74s-17.78-.34-10.86-1.62c6.3-1.17,10.43-3.85,18.63-6.15s17.64-5.64,13.56-1.97Z"/><g><polygon class="cls-29" points="262.13 395.75 262.13 392.83 264.32 391.15 286.67 383.46 420.81 397.43 391.04 410.02 262.13 395.75"/><path class="cls-56" d="M262.13,395.75v-2.91l2.19-1.68s1.34-1.03,2.61,0,1.01,.77,2.13,.94,1.62,.97,2.99,1.13,2.91,.5,3.33,.58,2.99,2,3.25,1.94,3.5,0,3.5,0c0,0-1.45-.45,.6,0s2.64,.06,3.46,.3,12.27,.39,13.04,.7,4.7,1.25,5.13,1.42,4.1,.85,5.08,1.28,9.08,.9,9.27,.92,3,.36,4.46,.45,12.37,.6,12.37,.6c0,0,5.95,.34,5.94,.34s2.8,1.03,4.17,1.28,2.48-.34,3.5,0,5.9-.3,6.41,.07,.26,.31,2.05,.04,1.2-1.99,1.2-1.99l2.14-2.05s-1.51,1.97-1.23,2.22,.37,2.03,.37,2.03l.85,1.39s4.02,.38,4.36,.53,3.6,1.01,3.85,.84,5.21,0,5.21,0l7.48,.51s1.24,.69,2.69-.51,2.1-.09,3.53,.34,1.39,1.12,2.78,1.24,7.03-.64,7.03-.64l1.11,.17-7.94,2.8-2.15,1.71s-7.43-.66-7.69-.83-3.59-.99-4.79-.88-11.75-1-13.23-1.17-11.99-1.88-11.99-1.88c0,0-2.39-.93-3.68-.85s-49.47-6.39-49.47-6.39c0,0-22.93-1.41-24.3-2.3s-10.6-1.42-10.6-1.42l-1.03-.27Z"/></g><polygon class="cls-46" points="247.49 475.62 252.73 475.62 532.4 355.83 532.4 354.83 247.49 475.62"/><polygon class="cls-43" points="254.29 474.95 269.95 475.15 532.4 358.69 532.4 355.83 254.29 474.95"/><path class="cls-27" d="M284.27,447.36c2.29,.11,1.19,1.69,3.16-1.44s.77-4.67,3.33-3.9,.82,1.48,3.05,2.22,5.97,1.67,5.97,1.67l-9.02,4.31-6.49-2.87Z"/><g><polygon class="cls-44" points="17.46 465.52 357.42 353.98 358.81 359.37 43.24 465.16 17.46 465.52"/><polygon class="cls-46" points="43.24 465.16 50.39 465.06 358.81 360.15 358.81 359.37 43.24 465.16"/><polygon class="cls-43" points="50.39 465.06 43.69 475.1 358.81 362.39 358.81 360.15 50.39 465.06"/></g><g><polygon class="cls-29" points="196.22 420.54 196.22 417.63 198.41 415.95 220.75 408.26 354.9 422.22 325.13 434.82 196.22 420.54"/><path class="cls-56" d="M196.22,420.54v-2.91l2.19-1.68s1.34-1.03,2.61,0,1.01,.77,2.13,.94,1.62,.97,2.99,1.13,2.91,.5,3.33,.58,2.99,2,3.25,1.94,3.5,0,3.5,0c0,0-1.45-.45,.6,0s2.64,.06,3.46,.3,12.27,.39,13.04,.7,4.7,1.25,5.13,1.42,4.1,.85,5.08,1.28,9.08,.9,9.27,.92,3,.36,4.46,.45,12.37,.6,12.37,.6c0,0,5.95,.34,5.94,.34s2.8,1.03,4.17,1.28,2.48-.34,3.5,0,5.9-.3,6.41,.07,.26,.31,2.05,.04,1.2-1.99,1.2-1.99l2.14-2.05s-1.51,1.97-1.23,2.22,.37,2.03,.37,2.03l.85,1.39s4.02,.38,4.36,.53,3.6,1.01,3.85,.84,5.21,0,5.21,0l7.48,.51s1.24,.69,2.69-.51c1.45-1.2,2.1-.09,3.53,.34s1.39,1.12,2.78,1.24,7.03-.64,7.03-.64l1.11,.17-7.94,2.8-2.15,1.71s-7.43-.66-7.69-.83-3.59-.99-4.79-.88-11.75-1-13.23-1.17-11.99-1.88-11.99-1.88c0,0-2.39-.93-3.68-.85s-49.47-6.39-49.47-6.39c0,0-22.93-1.41-24.3-2.3s-10.6-1.42-10.6-1.42l-1.03-.27Z"/></g><path class="cls-58" d="M301.91,416.72s-1.79,2.56-.9,4.49,2.05,2.55,5.35,2.58,5.1-1.29,9.07-.46c3.97,.83,9.23,1.79,11.47,2.69s4.74,2.12,8.33,2.82c3.59,.71,14.33-2.3,14.33-2.3l6.81-4.94-54.48-4.87Z"/><polygon class="cls-44" points="219.14 479.64 530.96 347.77 532.4 354.83 242.84 477.63 219.14 479.64"/><path class="cls-97" d="M461.08,399.6c-7.89,1.79-38.01,15.39-42.24,17.66-4.23,2.27-31.67,20.8-41.14,25.4-9.47,4.59-19.25,9.25-33.87,10.11-14.62,.86-23.85,9.14-34.87,19.36-11.03,10.22-26.92,25.93-38.46,35.68l22.05,4.65-12.6-2.66,7.73-6.87s12.38-17.86,24.65-25.73c12.27-7.86,14.32-14.33,20.22-15.71,5.9-1.38,4.62,.87,2.05,8.33-2.56,7.47-8.72,15.2-17.18,24.28-8.46,9.08-15.39,13.96-15.39,13.96l-4.03,5.55,5.28,1.12s14.13-6.67,26.18-23.05c12.05-16.38,15.9-22.59,18.98-28.23,3.08-5.64,14.1-5.38,29.25-10.68,15.15-5.29,25.11-10.09,37.79-23.15,12.68-13.06,15.01-12.33,28.34-17.97,13.33-5.64,58.98-14.44,58.98-14.44l1.03-9.15s-34.87,9.74-42.77,11.54Z"/><path class="cls-27" d="M259.8,445.55s.53-3.36,1.13-3.27,.43,1.23,1.98,1.03,1.95,.77,3.4-.43,1.93-2.74,3.31-1.62,.96,1.81,1.13,2.66,.18,1.75,2.48,1.64,3.24-.9,5.12,0,8.19,1.97,9.31,2.05,6.13,.45,6.13,.45l-9.89,2.16-22.37-2.74-1.76-1.94Z"/><path class="cls-27" d="M262.13,438.94c-.27-.77,.78-1.37,.78-1.37,0,0,.33,.6,.5,1.37s-.5,1.22-.5,1.22l-.78-1.22Z"/><path class="cls-27" d="M268.43,436.98c.44-1.62,2.32-2.5,2.41-1.21s.34,.86,0,1.81-.64,1.55-1.22,.95-1.19-1.55-1.19-1.55Z"/><polygon class="cls-29" points="116.87 448.93 117.8 444.09 137.8 436.53 293.81 448.06 282.16 452.99 266.06 461.03 116.87 448.93"/><path class="cls-56" d="M117.8,444.09l-.93,4.84,.93,.7,148.26,11.4,9.52-4.75s-16.36,.95-19.18,.48-7.18-.55-8.89-1.06-5.37-1.2-7.77-1.28-4.96-.26-7.27-.26,.09-.09-4.36-.09-5.21-.09-7.27,0c-2.05,.09-2.39,.17-3.68,.09s-3.5-.85-5.21-1.2-1.11-.63-4.79-.78-4.19,.07-5.47,0,.51,.07-3.93,0-6.07-.1-7.35,0-1.45-.36-4.1,0-4.19,.5-5.56,.38-1.97-.38-1.97-.38l-.09-1.18,1.2-1.28s-3.08,.26-3.33,.43-5.06,.68-6.03,.68-3.97-.09-4.31-.09h-8.55c-1.37,0-7.47-.43-7.84-.43s-14.86-2.18-16.33-2.69-6.03-.71-6.86-1.15-1.92-1.86-1.73-1.92-1.03-1.03-1.47-.45-1.09,.96-1.09,.96l-.45,.19s-.71,.58-1.92,.13-2.18-1.28-2.18-1.28Z"/><path class="cls-58" d="M293.81,448.06l-61.66-4.56s-1.69,1.23,0,2.52,3.91-.04,3.4,2.04,1.2,3.47,4.87,3.33,7.67-.85,13.79,.78c6.12,1.64,27.95,.81,27.95,.81l11.64-4.92Z"/><path class="cls-57" d="M357.34,421.54c0,.35-5.45,10.14-9.32,14.33s.77,4.87,4.1,4.87,22.82-1.4,31.77-6.24,7.51-9.55,4.04-10.4c-4.81-.97-11.46-.54-17.91-2.51-6.45-1.97-12.77-6.78-12.69-.06Z"/><path class="cls-57" d="M386.62,423.82l17.95-7.87s-9.07,9.08-11.03,11.31c-1.96,2.24-3.59,2.61-3.59,2.61l-3.33-6.05Z"/><path class="cls-27" d="M344.18,437.7s1.13,1.09,2.38,2.45c1.25,1.36-2.04,2.17,3.39,.93s5.43-2.04,7.61-1.38,4.74-.81,3.8-1.42-3.35,.25-4.86,.25-1.89,.12-3.86-.52-1.04-1.32-3.07-.98,1.01,1.3-.18,1.5-1.71,.03-2.18-.69,.81-1.97,.81-1.97c0,0-.43-.3-2.14,.51s-2.54,.5-1.71,1.32Z"/><path class="cls-27" d="M387.05,423.98s-3.18-1.22-6.8-1.15-4.7-.55-8.46-1.24c-3.76-.69-6.07-1.5-7.27-2.18s-1.71-1.47-3.25-1.78-3.25-.69-4.06,1.19c-.81,1.88,.15,2.84-.51,4.02s-1.68,1.2-1.8,1.84-.06,1.63,1.49,.49,1.72-1.05,2.11-2.57,.17-3.48,.73-2.63,.65,.69,.95,1.63,.98,1.71,1.58,.81,.17-2.39,1.15-1.97,1.78,.05,2.49,.9-.59,.94,2.05,1.26c2.64,.32,2.77,.05,3.71,.1s2.38,.39,3.05,.48,1.01,.13,2.25,.51,2.07,.12,2.69,.22,1.12-.11,1.69-.21,2.28-.18,2.71-.01,2.53,.94,2.72,1.07,1.72,.05,1.98-.11,1.75-2.09,0-1.34-.88,.06-1.19,.66Z"/><path class="cls-27" d="M353.4,428.26c-.8,.24-1.19,.87-1.45,1.46s-.74,.9-.38,1.19,.55,.22,.85,.24,.88-.43,1.52-.43,1.99-.38,2.72-.06,1.03,.12,1.97,.49,3.96-.49,4.73-.49,1.96-.1,3.11-.1,2.37-2.05,3.33-2.05,2.85-.48,3.3-.26,1.8-.54,1.09-.71-2.08-.13-2.23,0-1.85-.35-2.49-.11-2.24,.24-2.47,.27-2.18,.74-2.18,.99,.47,.12-.65,.61-.8,.3-1.76,.41-1.09-.02-2.26,.04-.6,.1-1.37-.04-.74-.28-1.7-.31-1.47,.03-1.99,0-1.22-.67-.77-.83,.65-.8-.96-.32Z"/><path class="cls-27" d="M370.22,419.7c-.99,.02-1.83-1.31-1.67-1.38s1.26-.35,1.48,0,.06,.48,.41,.8,.6,.7,.38,.72,.74-.17-.6-.14Z"/><path class="cls-27" d="M355.25,417.37c-.64-.44-.04-1.46,.26-1.16s.51,.34,.6,.51-.37,.88-.5,.91,.16,.09-.35-.26Z"/></g><g><g><g><path class="cls-46" d="M261.44,357.13c-1.29-17.58-14.46-30.73-31.29-28.41-19.41,2.68-34.57,24.07-31.17,46.25,2,13.05,9.81,21.66,19.55,24.57l7.56-2.48,7.24,2.62c1.44-.38,2.88-.87,4.32-1.48,15.07-6.41,25.02-24.21,23.78-41.07Z"/><path class="cls-44" d="M260.18,357.49c-1.26-16.75-13.85-29.16-29.82-26.83-18.28,2.66-32.49,22.86-29.35,43.73,2.03,13.5,10.65,22.05,21.08,23.98l4.01-1.32,4.14,1.5c2.4-.33,4.84-.98,7.25-1.99,14.38-6.02,23.91-22.98,22.7-39.07Z"/><path class="cls-46" d="M209.8,371.88c2.05,14.71,14.57,22.02,26.88,17.25,11.19-4.33,18.73-17.45,17.69-29.99-1.07-12.94-10.96-22.11-23.09-19.92-13.42,2.42-23.61,17.39-21.49,32.65Z"/><path class="cls-43" d="M211.81,371.31c1.85,13.52,13.31,20.35,24.68,16.04,10.41-3.95,17.44-16.12,16.46-27.79-1.01-12.01-10.23-20.43-21.44-18.31-12.31,2.32-21.6,16.07-19.69,30.06Z"/><path class="cls-44" d="M221.65,368.5c.95,7.63,7.28,11.81,13.84,9.57,6.23-2.12,10.53-9.35,9.87-16.35s-6.25-11.83-12.76-10.34c-6.87,1.58-11.92,9.33-10.95,17.11Z"/><path class="cls-46" d="M229.85,365.47c.57,4.98,4.58,7.82,8.84,6.43,4.12-1.34,7-6.17,6.55-10.88s-4.14-7.83-8.38-6.76c-4.39,1.1-7.59,6.16-7.02,11.21Z"/></g><path class="cls-50" d="M236.9,330.53s-10.38,.41-16.95,4.89c-6.57,4.48-18.64,17.51-17.48,33.91,.92,13.05,5.31,24.6,19.58,29.06l4.05-1.33,8.44,3.05c18.53-3.21,2.37-69.58,2.37-69.58Z"/><g><path class="cls-46" d="M210.75,375.17c2.89,20.81,20.72,30.24,37.68,23.01,14.87-6.35,24.86-23.99,23.85-40.69-1.06-17.4-13.82-30.41-30.36-28.11-19.07,2.66-34.22,23.83-31.16,45.79Z"/><path class="cls-44" d="M212.75,374.59c2.68,19.65,19.44,28.71,35.52,21.96,14.19-5.96,23.76-22.77,22.76-38.71-1.03-16.58-13.25-28.86-28.94-26.55-17.97,2.64-32.16,22.63-29.34,43.3Z"/><path class="cls-46" d="M221.4,372.11c1.82,14.56,14.03,21.8,26.17,17.09,11.04-4.29,18.6-17.28,17.74-29.7s-10.49-21.88-22.42-19.71c-13.2,2.4-23.38,17.22-21.49,32.33Z"/><path class="cls-43" d="M223.39,371.54c1.64,13.39,12.81,20.15,24.02,15.88,10.26-3.91,17.32-15.97,16.5-27.53s-9.79-20.22-20.82-18.12c-12.1,2.3-21.4,15.92-19.7,29.77Z"/><path class="cls-44" d="M233.07,368.75c.83,7.55,7,11.69,13.46,9.48s10.45-9.26,9.89-16.19c-.57-7.05-5.99-11.71-12.4-10.23-6.76,1.56-11.81,9.24-10.96,16.94Z"/><path class="cls-46" d="M241.16,365.75c.49,4.94,4.4,7.74,8.6,6.37s6.94-6.11,6.57-10.77-3.97-7.75-8.14-6.7c-4.32,1.09-7.52,6.1-7.02,11.1Z"/></g></g><g><polygon class="cls-35" points="168.47 265.05 354.5 242.33 457.06 244.04 455.01 257.48 296.05 290.81 171.71 275.41 168.47 265.05"/><polygon class="cls-54" points="209.28 272.24 354.5 250.4 452.73 251.98 304.52 297.09 204.52 283.25 209.28 272.24"/><polygon class="cls-39" points="362.22 208.13 441.87 214.58 441.19 255.79 360.58 266.09 362.22 208.13"/><polygon class="cls-37" points="274.88 274.14 274.09 215.25 362.22 208.13 363.64 269.51 303.98 281.81 274.88 274.14"/><g><path class="cls-112" d="M276.28,299.5l79.23,5.49v-93.72s-79.7,5.49-79.7,5.49l.47,82.74Z"/><path class="cls-34" d="M336.01,282.24l2.81-6.43-19.69-15.01-2.81,6.43,16.78,15.34,2.91-.33Z"/><ellipse class="cls-41" cx="316.13" cy="263.25" rx="8.91" ry="11.77"/><path class="cls-34" d="M312.85,252.32l3.38-.42h2.25s0-20.83,0-20.83h-5.63s0,21.25,0,21.25Z"/><path class="cls-37" d="M316.23,231.07h-5.63s0,30.02,0,30.02h5.63s0-30.02,0-30.02Z"/><path class="cls-34" d="M293.86,276.1l2.81,6.43,19.64-15.01-2.81-6.43-19.64,15.01Z"/><path class="cls-37" d="M292.83,273.8l2.81,6.43,19.64-15.01-2.81-6.43-19.64,15.01Z"/><path class="cls-37" d="M333.1,282.57l2.81-6.43-19.69-15.01-2.81,6.43,19.69,15.01Z"/><ellipse class="cls-34" cx="313.41" cy="263.1" rx="8.91" ry="11.77"/><ellipse class="cls-47" cx="313.41" cy="263.1" rx="4.03" ry="5.35"/><path class="cls-34" d="M324.95,265.22s-1.78,.56-2.81,.38l13.78,10.51,2.91-.33c-2.34-2.25-13.55-10.23-13.88-10.55h0Z"/></g><g id="_6"><path class="cls-32" d="M196.81,248.38l10.82,79.6s24.53,15.33,57.82,0l13.71-79.6h-82.36Z"/><path class="cls-28" d="M251,311.77c-15.1,18.45-35.33,14.55-43.98,11.71l.61,4.5s24.53,15.33,57.82,0l13.71-79.6h-17.47c1.61,20.04,1.35,48.67-10.7,63.4Z"/><ellipse class="cls-28" cx="237.99" cy="248.38" rx="41.18" ry="11.1"/><path class="cls-59" d="M279.17,248.38c0-3.74-6.86-7.05-17.38-9.06-.16,1.36-.48,2.71-1.02,4.05-2.16,5.64-5.11,10.81-8.69,15.44,15.81-1.55,27.09-5.64,27.09-10.43Z"/><path class="cls-40" d="M204.22,254.73c7.44,2.87,19.79,4.75,33.77,4.75s26.32-1.88,33.77-4.75c-7.44-2.87-19.79-4.75-33.77-4.75s-26.32,1.88-33.77,4.75Z"/></g><rect class="cls-103" x="353.82" y="265.46" width="3.39" height="16.66"/><polygon class="cls-56" points="303.32 290.88 453.85 255.79 431.54 357.67 317.11 398.11 303.32 290.88"/><path class="cls-53" d="M323.81,384.74c.24,.31,2.33,.48,2.46,.56s-1.2,.9,.17,1.11,.81,.3,1.92,.73,2.74,1.75,3.03,1.28,2.78-1.41,3.16-1.79,2.01-2.44,1.75-1.54-1.54,3.85-1.54,3.85c0,0,10.09-5.53,12.91-6.23s5.77-1.59,6.92-1.68,7.74-2.56,9.96-3.16,12.29-5.04,13.02-5.43,4.5-3.78,4.8-3.85,4.27,.9,4.79,.61,7.52-3.16,9.79-3.63c2.27-.47,4.44-1.45,5.94-1.67s4.44-1.54,5.64-2.05,5.51-1.92,6.45-2.35,3.8-1.03,4.91-2.27,2.65-1.03,5.64-2.35,4.19-3.5,4.19-3.5c0,0,.54-1.2,1.19-1.07s2.06-.64,2.06-.64l-.73,4.57-12.93,8.12-87.97,30.43-5.21-2.48s-4.44-2.99-4.19-3.08,1.86-2.49,1.86-2.49Z"/><path class="cls-53" d="M318.26,321.3s2.38,1.39,3.03,1.28,19.35-3.6,19.35-3.6c0,0,.1-1.16,1.99-1.28s3.56,.7,5.24,0c1.68-.7,1.94-.93,5.03-1.39s2.84-.46,5.68-1.05c2.84-.58,10.7-2.7,12.57-3.21s4.39-2.14,6.81-2.25c2.42-.12,3.31-.46,6.28-.46h2.97s-.13,.7,4.64-.7c4.77-1.39,7.61-2.14,9.68-2.87s3.61-2.43,4.26-2.16,4.8-2.81,6.59-1.68,7.73,.38,8.12,0,1.29-.61,1.29-.61l4.77-1.39s12.51-3.72,15.22-5.12,4.64-1.16,4.64-1.16l-1.15,4.42s-1.95-.84-2.46-1.3-9.18,3.03-12.07,4.08-6.89,1.05-8.44,1.69-4.26,.68-5.55,1.06-4.13,.62-5.42,.85-2.45,.65-4.26,1.31c-1.81,.67-1.29,.9-4.77,1.71s-6.32,1.16-9.8,2.32c-3.48,1.16-5.29,1.51-6.58,1.74s-2.06-.47-3.1,0-2.32-.49-4.39,.51-4,1.12-4.64,1.58-4.13,1.55-8.39,2.17-12.64,2.13-14.06,2.83-3.1,2.09-6.06,2.09-3.35,1.18-8.39,1.87c-5.03,.69-13.55,.65-14.71,1.25s-3.35,5.02-3.35,5.02l-.58-7.55Z"/><path class="cls-53" d="M320.09,340.71s1.3,1.99,1.91,1.99,2.57-1.13,3.02-1,5.48-.56,8.16-1.52,8.66-2.06,8.66-2.06l1.39-.46s4.85-.52,8.23-1.39c3.38-.87,1.82-2.25,7.54-2.25s9.27-2.51,9.96-2.69,5.11-1.65,6.33-1.91,2.43-1.65,5.81-1.65,5.46-.78,7.45-1.08,1.39-1.6,3.9-.82,1.56,1.3,3.99,.82,4.16-.56,5.11-1.95,.87-2.08,2.34-2.43,.61-.74,4.16-1.24c3.55-.5,3.73-.67,5.63-.93s6.84-.09,8.14-.52,6.93-3.81,7.54-3.99,2.99-.69,4.14-1.13,8.28-1.56,8.38-2.43-1.38,5.89-1.38,5.89c0,0-1.18-2.53-3.32-2.27s-6.76,2.34-10.2,3.9-4.03,2.21-7.73,2.79c-3.7,.58-9.1,.52-9.55,.58s-2.53,.32-2.99,.58-2.47,1.78-2.47,1.78c0,0-2.99,2.57-2.86,3.03s-.58,2.42-1.43,2.12-4.16-.76-4.42-.89-2.66-.91-2.66-.91c0,0-2.4-.45-4.61,.45s-6.69,1.88-6.69,1.88c0,0-2.27,.39-2.66,.52s-6.04,1.88-6.5,2.01-8.64,1.69-9.16,1.88-5.91,1.3-6.11,1.3-1.23,.45-2.01,.65-11.78,3.44-17.16,4.14-5.71,.09-9.18,1.56-8.32,3.73-8.32,3.73l-.35-6.16Z"/><path class="cls-53" d="M321.38,369.05s4.63-.8,6.38-1.09,5.76-.96,6.46-1.39,6.64-1.71,7.34-2.23,1.48-1.65,4.02-2.3,9.87-2.27,10.3-2.37,5.15-1.4,6.11-1.71,4.54-2.12,4.54-2.12c0,0,5.24-1.64,6.11-1.64h3.93c.44,0,3.52-2.23,3.72-2.43s1.52-1.62,2.13-1.32,8.82-2.23,9.08-2.33,5.07-1.82,5.68-2.03,5.15-2.33,6.03-2.33,6.38-1.52,6.64-1.52,2.73-1.11,3.5-1.42,1.91-.91,2.35-1.01,3.97-2.13,5.35-2.53,2.95-1.62,3.91-1.62h3.76c1.4,0,1.68,.1,3.29-.51s3.9-1.47,4.48-1.92,1.14-.71,1.14-.71l-.61,3.34s-3.1,1.01-3.52,1.01-.85-.51-2.42,.2-4.8,2.26-5.33,2.09-2.45-.65-2.45-.65h-1.83s-1.48,1.49-2.71,2.1-5.41,1.52-6.46,2.03-7.36,2.63-8.62,3.04-2.72,1.53-3.82,1.73-2.32,.88-5.55,2.11-3.58,1.43-6.11,2.24-3.76,.91-4.45,1.22-1.52,.3-2.73,1.01-4.52,2.94-5.31,3.04-3.76-.61-5.03-.1-3.36,1.52-4.58,2.13-.44,.51-2.1,1.01-3.67,.51-5.59,1.42-3.93,1.24-5.68,1.84-6.9,1.71-6.9,1.71c0,0-3.49,.95-4.28,1.54s-.61,.87-3.14,1.39c-2.53,.52-6.11,1.43-6.38,1.53s-4.98,1.92-5.94,2.53-4.28,1.52-4.28,1.52l-.44-4.49Z"/><path class="cls-53" d="M316.3,312.7s1.47-2.91,2.84-4.27c1.37-1.37,.17-3.08,1.28-3.08s8.72-.34,11.62-1.37c2.91-1.03,12.74-4.13,15.21-4.67s10.94-3.31,12.99-3.46,3.68,.61,6.58-.67,2.84-2.31,6.29-2.99,16.62-4.02,17.64-4.02,5.3-.68,6.33-1.54,6.14-3.61,8.8-2.91,8.98,1.17,10.95-.86,5.73-3.44,7.35-3.85,16.67-3.66,18.63-4.08c1.97-.43,4.27-1.24,5.04-1.18s1.06,3.17,1.81,3.5,2.3-8.11,2.3-8.11l-136.28,34.32,.6,9.25Z"/><polygon class="cls-49" points="315.93 397.6 198.52 381.7 170.53 274.89 306.48 289.33 315.93 397.6"/><path class="cls-56" d="M199.57,374.66c.37,.35,1.52,1.24,2.29,1.59s3.12,2.35,3.38,2.35,1.41-1.2,1.41-1.2c0,0-1.07,1.67-.47,1.71s1.71,.38,3.29,.38,11.94,1.37,12.51,1.5,2.6-1.11,2.6-1.11c0,0,1.48,1.71,1.95,1.84s7.09,.64,7.61,.73,11.71,1.07,12.78,1.32,5.98,.81,6.62,.9,3.8,.9,5.73,.43,4.79-.64,5.68-.04,2.78,1.45,3.85,1.5,27.18,2.48,28.04,2.82,8.21,1.11,8.63,.51-.19-2.56-.19-2.56c0,0,.55,.97,1.1,.74s1.57-.54,1.32,0,.51,1.57,1.24,1.4,1.87-.68,2.25-.97,.88-.99,.88-.99l1.53,2.43-8.21,6.67-94.36-12.52-10.28-4.39-1.16-5.01Z"/><path class="cls-56" d="M186.15,336.25s3.54,.26,5.1,.12,2.86-.36,4.92,.46,6.19,1.69,6.45,1.7,1.46,.38,2.42,.06,6.68-.81,6.94-.79,9.54,.23,9.54,.23c0,0,.16,.7,4.67,1.58s5.96,1.26,7.51,1.81,3.18,.76,5.25,1.24,4.23,.36,6.21,.66,8.72,.55,9.42,.23,3.47-.23,4.84,.34,6.72,1.05,7.07,1.06,11.52,3.1,13.58,3.49,6.56,.5,7.94,.71,5.29-.04,6.36,.15,10.92-.47,12.41-.75c1.49-.28,.73,2.69,.73,2.69,0,0,.1-.43-3.63-.09-3.73,.34-9.94-.41-11.32-.28s-4.25,.3-7.09-.02-8.52-1.73-9.9-1.94-8.67-2.86-8.67-2.86c0,0-6.41,.35-6.67,.43s-5.14-.21-5.14-.21c0,0-5.31-.29-5.65-.65s-4.82-.97-4.82-.97c0,0-10.79-1.12-12.34-1.24s-7.89-2.61-7.89-2.61c0,0-4.6-.86-5.14-.87s-6.42-.41-7.03,0-7.12,1.19-7.12,1.19c0,0-4.48-.92-5.08-.91s-4.7,.03-5.03-.12-7.38-.72-7.38-.72l-1.42-3.14Z"/><path class="cls-56" d="M181.47,313.94s3.06,.89,4.61,.63c1.55-.26,3.19-.25,5,.05s7.68,1.06,8.54,1.06,3.72-.85,5.44-.51,5,.68,6.38,1.28c1.38,.6,6.9,1.37,7.51,1.37s5.95-1.03,7.76-.43,5.61,1.54,6.12,1.71,6.63,1.28,6.98,1.19c.35-.08,4.06,.69,6.99,.69s5.09-.86,5.78-.69,4.74,.69,5.09,.69,10.52,.34,11.13,1.28c.6,.94,4.4,1.62,5.69,1.97,1.29,.34,8.54,2.14,9.66,2.14s6.04,.26,6.81,0c.78-.26,9.79-.68,9.79-.68l3.21,.35,.79,4.53s-1.12-2.74-3.19-2.74-5.09,.43-7.59,.6-4.57,.17-6.64,.17-5.09,.51-7.42-.17c-2.33-.68-7.68-2.56-8.8-3.33-1.12-.77-4.31-1.2-6.64-1.03-2.33,.17-6.21,.17-6.81-.43-.6-.6-.86-1.32-3.41-1.38-2.54-.07-7.38,.15-9.36,0s-8.11,.1-9.32-.41c-1.21-.51-4.56-1.46-8.36-1.54-3.8-.08-5.01,0-7.17,0-2.16,0-4.49-1.11-5.87-1.71-1.38-.6-3.54-.85-6.81-.85s-3.8-1.03-5.52-.85c-1.73,.17-1.73,.51-5.18,.51s-4.92-.51-7.51-.6-6.58,1.27-6.58,1.27l-1.7-.85,.57-3.28Z"/><path class="cls-56" d="M195.11,358.35s2.87,.89,4.33,.63c1.46-.26,3-.25,4.7,.05s7.22,1.06,8.03,1.06,3.5-.85,5.11-.51,4.7,.68,6,1.28c1.3,.6,6.49,1.37,7.05,1.37s5.6-1.03,7.3-.43,5.27,1.54,5.76,1.71,6.23,1.28,6.56,1.19c.33-.08,3.82,.69,6.57,.69s4.78-.86,5.43-.69,4.46,.69,4.78,.69,9.89,.34,10.46,1.28c.57,.94,4.14,1.62,5.35,1.97,1.22,.34,8.03,2.14,9.08,2.14s5.68,.26,6.41,0c.73-.26,9.21-.68,9.21-.68l3.02,.35,.75,4.53s-1.05-2.74-2.99-2.74-4.78,.43-7.14,.6c-2.35,.17-4.3,.17-6.24,.17s-4.78,.51-6.97-.17c-2.19-.68-7.22-2.56-8.27-3.33-1.05-.77-4.05-1.2-6.24-1.03-2.19,.17-5.84,.17-6.41-.43-.57-.6-.81-1.32-3.2-1.38-2.39-.07-6.93,.15-8.8,0-1.87-.15-7.62,.1-8.76-.41-1.14-.51-4.28-1.46-7.86-1.54-3.57-.08-4.71,0-6.74,0-2.03,0-4.22-1.11-5.51-1.71-1.3-.6-3.32-.85-6.41-.85s-3.57-1.03-5.19-.85c-1.62,.17-1.62,.51-4.87,.51s-4.62-.51-7.05-.6-6.19,1.27-6.19,1.27l-1.6-.85,.53-3.28Z"/><path class="cls-56" d="M177.33,296.19s.23-1.87,1.4-1.7,.74-.94,1.51-.85,5.64-.34,8.03,.85c2.39,1.2,9.06,2.03,10.43,1.7s10.4,.12,12.94,1.01c2.53,.88,6.55,1.31,7.66,1.78s6.5-.15,8.63,.33,9.4,1.26,10.94,1.26,2.19,0,2.19,0c0,0,3.37,.34,6.96,.85s8.12,1.16,8.63,2.03,2.82,2.16,3.33,1.17,.34-1.79,3.25-1.17,3.5,.79,5.56,.79,10.17,.28,12.39,.74,7.35,.5,9.15,1.21,6.07,.36,6.5,2.16,2.91,1.37,2.52,2.74,1.15,2.31,1.15,2.31l1.45-7.2-125.82-14.84,1.2,4.85Z"/><polygon class="cls-36" points="457.06 244.04 454.9 247.23 306.7 276.86 306.7 287.44 307.78 307.02 456.65 268.7 460.26 257.82 457.06 244.04"/><polygon class="cls-45" points="168.47 265.05 165.71 268.97 165.71 285.04 168.47 290.43 307.78 307.02 310.31 303.42 310.31 281.96 306.7 276.86 168.47 265.05"/><polygon class="cls-45" points="300.73 306.18 313.81 400.1 317.11 401.44 307.78 307.02 300.73 306.18"/><polygon class="cls-36" points="317.11 401.44 324.93 398.11 317.12 304.62 307.78 307.02 317.11 401.44"/><polygon class="cls-45" points="171.71 290.81 198.93 383.17 199.96 384.07 202.14 384.07 176.89 291.43 171.71 290.81"/><polygon class="cls-36" points="455.01 269.13 433.7 359.68 430.05 360.67 450.65 270.25 455.01 269.13"/><polygon class="cls-45" points="202.14 384.07 313.81 400.1 314.19 387.99 306.46 391.59 205.66 379.72 199.39 375.48 202.14 384.07"/><polygon class="cls-36" points="324.93 398.11 430.05 360.67 431.94 352.37 424.96 356.97 332.44 390.74 323.24 386.72 324.93 398.11"/><g><circle class="cls-43" cx="302.81" cy="299.31" r="3.46"/><circle class="cls-44" cx="302.98" cy="298.51" r="2.67"/><ellipse class="cls-46" cx="304.42" cy="298.52" rx="1.34" ry="1" transform="translate(-31.97 560.48) rotate(-82.35)"/></g><g><circle class="cls-43" cx="302.81" cy="283.65" r="3.46"/><circle class="cls-44" cx="302.98" cy="282.85" r="2.67"/><ellipse class="cls-46" cx="303.98" cy="281.81" rx="1" ry="1.34" transform="translate(-109.6 254.08) rotate(-39)"/></g><g><path class="cls-43" d="M312.33,282.36c0,1.94,1.53,3.2,3.21,2.81,1.49-.35,2.52-1.89,2.45-3.45s-1.17-2.73-2.6-2.73c-1.61,0-3.06,1.48-3.06,3.36Z"/><path class="cls-44" d="M313.83,283.04c.85,.96,2.24,.87,3.09-.1,.78-.89,.84-2.26,.17-3.15s-2-1.08-2.95-.27c-1.03,.89-1.19,2.52-.31,3.52Z"/><path class="cls-46" d="M315.75,280.92c.37,.47,.92,.57,1.22,.25s.25-.91-.1-1.37-.89-.61-1.21-.31-.29,.95,.09,1.43Z"/></g><g><path class="cls-43" d="M312.6,299.22c0,1.94,1.53,3.2,3.21,2.81,1.49-.35,2.52-1.89,2.45-3.45-.07-1.52-1.17-2.73-2.6-2.73-1.61,0-3.06,1.48-3.06,3.36Z"/><path class="cls-44" d="M314.09,299.89c.85,.96,2.24,.87,3.09-.1,.78-.89,.84-2.26,.17-3.15s-2-1.08-2.95-.27c-1.03,.89-1.19,2.52-.31,3.52Z"/><path class="cls-46" d="M316.01,297.77c.37,.47,.92,.57,1.22,.25s.25-.91-.1-1.37-.89-.61-1.21-.31-.29,.95,.09,1.43Z"/></g><g><path class="cls-43" d="M452.56,264.27c0,1.94,1.53,3.2,3.21,2.81,1.49-.35,2.52-1.89,2.45-3.45s-1.17-2.73-2.6-2.73c-1.61,0-3.06,1.48-3.06,3.36Z"/><path class="cls-44" d="M454.06,264.94c.85,.96,2.24,.87,3.09-.1,.78-.89,.84-2.26,.17-3.15s-2-1.08-2.95-.27c-1.03,.89-1.19,2.52-.31,3.52Z"/><path class="cls-46" d="M455.97,262.82c.37,.47,.92,.57,1.22,.25s.25-.91-.1-1.37-.89-.61-1.21-.31-.29,.95,.09,1.43Z"/></g><g><path class="cls-43" d="M452.83,252.9c0,1.94,1.53,3.2,3.21,2.81,1.49-.35,2.52-1.89,2.45-3.45-.07-1.52-1.17-2.73-2.6-2.73-1.61,0-3.06,1.48-3.06,3.36Z"/><path class="cls-44" d="M453.68,252.56c.25,1.26,1.5,1.88,2.72,1.47,1.12-.38,1.86-1.53,1.73-2.64s-1.18-1.94-2.41-1.72c-1.34,.25-2.3,1.57-2.04,2.89Z"/><path class="cls-46" d="M456.41,251.69c.09,.59,.51,.96,.93,.83s.67-.67,.6-1.23-.46-.98-.89-.88-.73,.67-.64,1.28Z"/></g><g><circle class="cls-43" cx="171.71" cy="284.57" r="2.96"/><circle class="cls-44" cx="171.85" cy="283.88" r="2.29"/><ellipse class="cls-46" cx="173.09" cy="283.89" rx="1.14" ry=".85" transform="translate(-131.32 417.64) rotate(-82.35)"/></g><g><circle class="cls-43" cx="171.71" cy="271.18" r="2.96"/><circle class="cls-44" cx="171.85" cy="270.49" r="2.29"/><ellipse class="cls-46" cx="172.71" cy="269.6" rx=".85" ry="1.14" transform="translate(-131.17 168.76) rotate(-39)"/></g><rect class="cls-93" x="353.99" y="220.44" width="3.39" height="16.66"/><path d="M199.93,301.97c-9.66-11.09-11.96-29.07-5.72-44.75,.82-2.06,1.78-4.07,2.87-5.98l1.27,.72c-1.05,1.85-1.99,3.8-2.78,5.8-6.04,15.19-3.84,32.57,5.47,43.25l-1.1,.96Z"/><path class="cls-16" d="M201.05,298.92s-3.69,.46-3.69,4.62c0,0,12,9.69,23.54,10.15,0,0,1.38-2.31,1.38-5.08,0,0-11.08-3.23-21.23-9.69Z"/><ellipse class="cls-21" cx="220.41" cy="311.07" rx="3.03" ry="2.09" transform="translate(-138.9 438.5) rotate(-74.21)"/><path d="M223.94,312.39c-1.13,0-2.26-.06-3.39-.17-.4-.04-.69-.4-.65-.8,.04-.4,.4-.69,.8-.65,24.79,2.45,44.22-23.94,47.02-43.57l-2.87-.72c-.39-.1-.63-.49-.53-.89,.1-.39,.49-.63,.89-.53l3.5,.88c.36,.09,.59,.43,.55,.8-1.3,10.4-7.13,22.31-15.21,31.08-8.73,9.48-19.31,14.56-30.09,14.56Z"/></g><path class="cls-35" d="M323.24,398.83s-.73-3.82-1.58-11.04c-.85-7.23-1.07-17.27,.79-19.38,.26,3.12,2.48,29.71,2.48,29.71l-1.69,.72Z"/><path class="cls-36" d="M439.62,330.99l-5.14-1.82h0c-.32-.16-.71-.26-1.18-.27-3.24-.08-83.7,24.75-86.27,24.66-2.56-.1-13.59,5.22-18.72,9.07-5.13,3.85-6.15,11.33-6.15,11.33l2.02,22.06c.28,3.11,2.56,5.51,5.38,6.14l6.34,2.26,9.77-6.59c8.66-3.36,17.5-7.47,21.12-9.25,7.71-3.79,66.7-22.97,66.92-24.47,.2-1.36,2.99-22.16,3-27.72l2.91-1.96v-3.44Z"/><path class="cls-45" d="M330,398.12l-2.02-22.06s1.03-7.48,6.15-11.33c5.13-3.85,16.15-9.17,18.72-9.07s83.03-24.73,86.27-24.66,2.61,4.13,3.32,6.29-2.68,27.43-2.9,28.93-59.21,20.68-66.92,24.47c-5.58,2.74-23.48,10.99-34.13,13.56-4.09,.99-8.1-1.92-8.49-6.12Z"/><g><g><path class="cls-46" d="M400.19,375.72c2.59,17.65,16.83,25.71,30.15,19.64,11.68-5.32,19.35-20.22,18.32-34.37-1.07-14.76-11.36-25.84-24.43-23.96-15.07,2.17-26.77,20.06-24.04,38.69Z"/><path class="cls-44" d="M401.77,375.24c2.4,16.66,15.8,24.4,28.43,18.75,11.15-4.99,18.49-19.19,17.49-32.7-1.04-14.06-10.88-24.52-23.28-22.63-14.2,2.16-25.16,19.06-22.63,36.58Z"/><path class="cls-46" d="M408.59,373.16c1.65,12.35,11.41,18.53,20.96,14.59,8.68-3.59,14.48-14.57,13.63-25.09-.88-10.86-8.61-18.6-18.02-16.81-10.42,1.98-18.28,14.5-16.57,27.32Z"/><path class="cls-43" d="M410.15,372.69c1.49,11.35,10.42,17.13,19.24,13.56,8.07-3.27,13.49-13.46,12.68-23.25s-8.03-17.18-16.74-15.45c-9.55,1.9-16.73,13.4-15.19,25.15Z"/><path class="cls-44" d="M417.78,370.37c.76,6.4,5.7,9.94,10.79,8.09,4.83-1.75,8.15-7.8,7.61-13.68-.55-5.98-4.9-9.95-9.96-8.72-5.33,1.3-9.23,7.79-8.45,14.31Z"/><path class="cls-46" d="M424.14,367.86c.46,4.18,3.59,6.58,6.9,5.43s5.41-5.15,5.05-9.1c-.37-4-3.25-6.59-6.54-5.71s-5.87,5.14-5.41,9.38Z"/></g><path class="cls-50" d="M429.48,338.57s-8.07,.31-13.15,4.04c-5.09,3.73-14.42,14.62-13.45,28.39,.93,13.27,5.8,24.7,23.42,26.03,16.92,1.28,3.18-58.46,3.18-58.46Z"/><g><path class="cls-46" d="M409.34,375.92c2.33,17.48,16.22,25.46,29.37,19.45,11.53-5.27,19.23-20.04,18.37-34.05-.89-14.61-10.86-25.57-23.71-23.71-14.81,2.16-26.5,19.87-24.04,38.3Z"/><path class="cls-44" d="M410.89,375.45c2.16,16.5,15.22,24.17,27.69,18.57,11.01-4.95,18.37-19.02,17.54-32.4s-10.41-24.27-22.6-22.39c-13.95,2.15-24.9,18.87-22.63,36.22Z"/><path class="cls-46" d="M417.61,373.4c1.48,12.23,10.99,18.35,20.4,14.44,8.56-3.56,14.39-14.43,13.67-24.86-.74-10.75-8.24-18.4-17.5-16.63-10.25,1.96-18.1,14.36-16.57,27.05Z"/><path class="cls-43" d="M419.14,372.93c1.33,11.24,10.03,16.96,18.73,13.42,7.96-3.24,13.4-13.34,12.71-23.04-.71-9.98-7.69-17.01-16.25-15.29-9.4,1.88-16.57,13.27-15.19,24.9Z"/><path class="cls-44" d="M426.66,370.63c.68,6.34,5.48,9.84,10.5,8.01s8.09-7.73,7.63-13.55-4.7-9.85-9.67-8.63c-5.24,1.29-9.14,7.71-8.45,14.17Z"/><path class="cls-46" d="M432.93,368.14c.4,4.14,3.45,6.52,6.71,5.38s5.37-5.1,5.06-9.02-3.12-6.52-6.35-5.65-5.82,5.09-5.41,9.29Z"/></g></g><g><g><path class="cls-46" d="M391.3,381.35c-1.28-17.41-14.33-30.44-31-28.14-19.23,2.65-34.25,23.85-30.88,45.82,2.13,13.87,10.88,22.68,21.51,24.88l4.99-2.11s5.22,.84,8.68,1.38c1.05-.32,2.09-.7,3.14-1.14,14.93-6.35,24.79-23.99,23.56-40.69Z"/><path class="cls-44" d="M390.05,381.7c-1.25-16.59-13.73-28.89-29.55-26.58-18.11,2.64-32.19,22.65-29.07,43.32,2.14,14.21,11.64,22.88,22.84,24.04l1.65-.7s1.84,.29,4.05,.65c2.51-.3,5.06-.97,7.59-2.03,14.25-5.96,23.69-22.77,22.49-38.71Z"/><path class="cls-46" d="M340.14,395.96c2.03,14.57,14.44,21.81,26.63,17.09,11.09-4.29,18.55-17.28,17.53-29.71-1.06-12.82-10.86-21.9-22.87-19.74-13.29,2.4-23.39,17.22-21.29,32.35Z"/><path class="cls-43" d="M342.13,395.39c1.83,13.39,13.19,20.16,24.45,15.89,10.31-3.91,17.28-15.97,16.31-27.53-1-11.9-10.14-20.24-21.24-18.14-12.19,2.3-21.4,15.93-19.51,29.78Z"/><path class="cls-44" d="M351.87,392.61c.94,7.56,7.21,11.7,13.71,9.49,6.17-2.1,10.43-9.26,9.78-16.2-.66-7.06-6.19-11.72-12.64-10.24-6.8,1.56-11.81,9.25-10.85,16.95Z"/><path class="cls-46" d="M360,389.61c.56,4.94,4.54,7.75,8.76,6.37,4.08-1.33,6.93-6.11,6.49-10.78-.44-4.72-4.1-7.76-8.3-6.7-4.35,1.09-7.52,6.11-6.95,11.1Z"/></g><path class="cls-50" d="M355.92,421.79s7.3,1.17,10.36,1.65c15.72-6.79,.7-68.44,.7-68.44,0,0-10.29,.41-16.79,4.84-6.51,4.44-18.47,17.35-17.32,33.59,.95,13.4,5.58,25.19,20.97,29.24l2.08-.88Z"/><g><path class="cls-46" d="M341.07,399.22c2.87,20.62,20.53,29.96,37.33,22.79,14.74-6.29,24.63-23.77,23.63-40.31-1.05-17.24-13.7-30.13-30.08-27.84-18.89,2.63-33.9,23.61-30.87,45.36Z"/><path class="cls-44" d="M343.06,398.65c2.66,19.46,19.26,28.45,35.19,21.76,14.06-5.91,23.54-22.56,22.55-38.35-1.02-16.43-13.12-28.59-28.67-26.3-17.8,2.62-31.86,22.42-29.07,42.89Z"/><path class="cls-46" d="M351.63,396.18c1.81,14.43,13.9,21.6,25.93,16.93,10.94-4.25,18.43-17.12,17.57-29.43-.88-12.69-10.39-21.68-22.21-19.53-13.07,2.38-23.17,17.06-21.29,32.03Z"/><path class="cls-43" d="M353.6,395.62c1.63,13.26,12.69,19.97,23.8,15.74,10.17-3.87,17.16-15.83,16.35-27.27-.84-11.78-9.7-20.03-20.63-17.96-11.99,2.28-21.2,15.77-19.52,29.49Z"/><path class="cls-44" d="M363.19,392.86c.83,7.48,6.93,11.58,13.34,9.39,6.09-2.08,10.36-9.17,9.8-16.04s-5.93-11.6-12.28-10.13c-6.69,1.55-11.7,9.16-10.86,16.78Z"/><path class="cls-46" d="M371.2,389.89c.49,4.89,4.36,7.67,8.52,6.31,4.02-1.31,6.88-6.05,6.51-10.67s-3.93-7.68-8.07-6.63-7.45,6.05-6.96,11Z"/></g></g></g><path class="cls-8" d="M110.36,423.9s-19.71-.11-28.16,8.69c-8.46,8.8-15.51,11.91-12.12,22.07,3.38,10.16,39.32,17.48,77.03,12.11,37.71-5.37,49.27-2.68,63.93-14.16,14.66-11.47,9.24-19.5,3.49-22.2s-21.73-5.67-40.1-4.79c-18.37,.88-64.07-1.73-64.07-1.73Z"/><g><g><path class="cls-33" d="M68.21,395.48c-3.18,.84-6.68,1.27-10.5,1.29-3.44,.01-6.3-2.48-6.38-5.56-.08-3.09,2.64-5.6,6.08-5.61,8.93-.04,14.16-2.9,17.48-9.57,3.33-6.69,4.1-16.13,4.85-25.26,1.11-13.52,2.16-26.29,11.18-33.08,4.45-3.35,10.27-4.73,17.31-4.12,10.66,.93,20.89-.1,29.58-2.98,8.33-2.76,14.47-6.98,17.77-12.2,6.42-10.16,.31-21.63-5.94-29.46-2.02-2.53-1.4-6.01,1.38-7.78,2.79-1.76,6.68-1.14,8.7,1.39,6.04,7.56,9.64,15.03,10.71,22.19,1.04,6.98-.3,13.47-3.98,19.31-4.73,7.48-13.07,13.37-24.12,17.04-10.43,3.46-22.56,4.71-35.07,3.61-3.67-.32-6.35,.21-8.22,1.61-5.09,3.83-6,14.85-6.87,25.5-.83,10.08-1.69,20.5-5.88,28.94-3.79,7.63-9.85,12.56-18.07,14.74Z"/><g class="cls-96"><path class="cls-61" d="M156.48,260.43c4.82,6.65,8.82,14.22,9.76,20.54,1.04,6.98-.3,13.47-3.98,19.31-4.73,7.48-13.07,13.37-24.12,17.04-10.43,3.46-22.56,4.71-35.07,3.61-3.67-.32-6.35,.21-8.22,1.61-5.09,3.83-7.07,13.83-7.95,24.49-.83,10.08-1.69,20.5-5.88,28.94-3.79,7.63-9.85,12.56-18.07,14.74-3.18,.84-6.68,1.27-10.5,1.29-.35,0-.69-.03-1.03-.08,.31,1.89,1.67,3.48,3.52,4.29-2.07-.91-3.53-2.8-3.59-4.99-.08-3.09,2.64-5.6,6.08-5.61,8.93-.04,14.16-2.9,17.48-9.57,3.33-6.69,4.1-16.13,4.85-25.26,1.11-13.52,2.16-26.29,11.18-33.08,4.45-3.35,10.27-4.73,17.31-4.12,10.66,.93,20.89-.1,29.58-2.98,8.33-2.76,14.47-6.98,17.77-12.2,6.42-10.16,.31-21.63-5.94-29.46-2.02-2.53-1.4-6.01,1.38-7.78,2.49-1.58,5.87-1.24,8,.66-.73-.65-1.61-1.12-2.55-1.39Z"/><path class="cls-61" d="M56.59,396.68c.17,.03,.34,.05,.52,.06-.17-.01-.35-.04-.52-.06Z"/><path class="cls-61" d="M57.15,396.75c.18,.01,.37,.02,.55,.02-.19,0-.37,0-.55-.02Z"/><path class="cls-61" d="M56.02,396.57c.16,.04,.33,.07,.5,.1-.17-.03-.33-.06-.5-.1Z"/><path class="cls-61" d="M159.73,262.55c-.1-.12-.2-.23-.3-.34,.1,.11,.2,.22,.3,.34Z"/><path class="cls-61" d="M159.38,262.15c-.1-.11-.21-.21-.32-.31,.11,.1,.22,.21,.32,.31Z"/><path class="cls-61" d="M55.47,396.41c.16,.05,.32,.1,.48,.14-.16-.04-.33-.09-.48-.14Z"/><path class="cls-61" d="M54.94,396.2c.16,.07,.32,.13,.48,.19-.16-.06-.33-.12-.48-.19Z"/></g></g><g><path class="cls-105" d="M220.55,155.87s2.54,.11,3.92,2.82c1.38,2.7,7.26,15.33,8.37,18.77,1.1,3.44,5.78,14.31,7.09,16.85s4.06,8.81,4.33,15.24c-.07,1.89,0,3.89,0,3.89,0,0-16.32-3.84-21.51-2.92-.85-2.31-3.4-2.33-6.22-2.91s-7.82-4.08-7.97-7.52c-.15-3.44,2.58-16.37,2.58-16.37l7.59-19.6,1.82-8.25Z"/><path class="cls-117" d="M131.74,247.73c.04-.08,.07-.15,.08-.2,0,0-.03,.07-.08,.2Z"/><g><path class="cls-80" d="M217.14,153.87c-2.38-1.44-19.77-10.91-22.45-12.46s-35-4.05-35-4.05c0,0-18.8,7.55-21.93,8.78-3.12,1.24-6.46,3.27-6.9,3.35s-1.03,.38-.87,.69,5.09,23.55,7.2,29.93c2.12,6.38-5.19,42.41-6.63,48.69-1.44,6.28-5.66,12.25-6.07,15.65-.41,3.4-.62,5.76,4.12,5.35,4.74-.41,8.13-1.96,10.29-1.54,2.16,.41,19.15,5.15,22.75,5.35,2.57,.15,9.6,.5,14.18,.77,1.83,.11,3.29,.2,3.89,.26,2.1,.21,7.46-.62,10.13-1.65s7.93-1.03,11.32-3.19c3.4-2.16,5.15-3.81,4.84-5.76-.31-1.96,1.41-2.06,.03-7.41-1.37-5.35-.96-10.19-1.17-12.56-.21-2.37,1.44-18.92,2.16-22.02,.55-2.36,3.13-12.31,5.38-19.5,.7-2.25,1.37-4.23,1.93-5.63,2.37-5.87,6.38-17.7,7-19.25s-1.83-2.37-4.21-3.81Z"/><circle class="cls-116" cx="179.31" cy="201.3" r="1.11"/><circle class="cls-67" cx="176.94" cy="220.92" r="1.11"/><circle class="cls-69" cx="173.98" cy="240.24" r="1.11"/><ellipse class="cls-68" cx="181.58" cy="181.77" rx="1.11" ry=".86" transform="translate(-33.41 322.45) rotate(-78.23)"/><path class="cls-107" d="M165.97,253.84s3.43-3.29,4.04-9.53c.62-6.24,1.85-13.24,2.47-15.23s2.26-16.2,2.68-18.8c.41-2.61,2.4-20.31,3.36-23.33s.53-6.86,1.19-8.92,2.07-10.77,2.53-13.04c2.11-2.88,4.78-5.7,4.78-5.7,0,0-.55,7.34-1.24,10.71s-3.12,9.54-3.55,14.96c-.43,5.42-.5,12.62-1.05,15.75s-2.06,16.78-2.33,18.91c-.27,2.13-1.71,18.87-2.37,21.68-.65,2.81-2.32,12.11-3.07,12.95-1.84-.1-7.47-.4-7.47-.4Z"/><circle class="cls-3" cx="183.03" cy="171.4" r="1.11"/><polygon class="cls-104" points="105.69 375.32 102.81 413.52 123.23 412.68 131.28 375.32 105.69 375.32"/><path class="cls-74" d="M172.14,371.24c.1,.36,0,43.37,0,43.37l19.17-1.92,5.92-43.13-25.09,1.68Z"/><path class="cls-81" d="M130.38,149.8s-.58-.1-1.98,.93c-1.4,1.03-6.88,8.03-7.57,10.18-.7,2.15-1.46,3.75-2.1,6.15s-8.86,16.71-8.86,16.71c0,0-3.5,5.33-3.38,7.78,.12,2.45-.3,12.35-.3,12.35h12.36l9.32,3.76,3.73,2.48,2.33-2.48,4.43-8.19,.7-1.97,.47-11.56-1.63-8.53-3.55-14.62-3.96-12.99Z"/><path class="cls-110" d="M210.08,191.88c-.52-2.23,1.13-12.74,1.13-12.74,0,0-7.6-5.17-30.43-7.9-22.83-2.74-37.92,.12-37.92,.12-1.36,1.29-4.05,16.57-4.05,16.57-.8,6.53-11.18,24.49-12.09,28.59-.91,4.1-6.23,26.74-8.36,30.13-2.13,3.38-1.37,14.7-1.02,17.21,.22,1.59-1.2,11.98-2.26,19.32-3.7,19.95-8.22,43.62-9.31,46.17-1.92,4.48-4.11,16.93-4.27,20.46s2.37,41.22,2.37,41.22c0,0,22.83,1.87,24.59,1,1.76-.87,14.93-38.57,16.07-39.98,1.14-1.41,22.67-68.57,22.69-68.61,.12,.95,.16,2.18,.01,3.97-1.16,14.51-2.6,39.08-.75,55.87-.06,1.23-.02,31.88,.74,33.64,1.75,5.3,3.53,6.61,3.53,6.61h0s22.52,.12,23.96-.52c1.44-.64,3.84-5.93,3.68-7.69-.02-.23,4.32-32.05,4.44-34.87,1.32-14.63,4.77-52.18,6.23-59.97,1.82-9.73,.47-26.46,.7-28.4,.23-1.94-.23-12.08-1.14-18.69-.91-6.61,.91-19.72,.23-22.11s1.75-17.17,1.23-19.4Z"/><path class="cls-7" d="M176.11,383.3c-.21-.22-.41-.43-.56-.63-6.09-8.7-5.39-59.38-.95-90.13,.99-6.89,1.33-12.35,1.25-16.66-.1-5.39-7.79-6.2-8.99-.95h0c-1.38,6.88,.81,5.39,.42,11.85,0,0,0,.01,0,.02,0,.1-.01,.2-.02,.3,0,.02,0,.05,0,.07,0,.09-.01,.17-.02,.26,0,0,0,0,0,0-1.16,14.51-2.6,39.08-.75,55.86-.06,1.23-.02,31.88,.74,33.64,1.13,3.43,2.28,5.19,2.95,6,2.24,.24,4.6,.43,5.95,.37Z"/><path class="cls-72" d="M169.45,381.18c.14-.02,27,.67,27.53,1.21s-1.43,4.13-1.43,4.13c0,0,1.9,3.66,1.65,4.66-.25,1-3.78,3.93-3.78,3.93,0,0,2.12,4.22,1.68,5.63-.44,1.4-16.32,2.14-23.99-.95-.8-1.54-.85-4.35-.85-4.35,0,0-2.28-2.31-2.15-3.44,.13-1.13,.41-5.12,.41-5.12,0,0-1.36-5.4,.93-5.69Z"/><path class="cls-55" d="M192.34,416.25s16.22,10.74,19.91,15.49c3.69,4.74,4.07,6.67,4.07,11.37s-6.04,6.34-11.99,6.86-21.48-1.14-28.86-4.19c-7.38-3.05-5.98-4.07-5.22-10.44s-.86-23.79-.05-25.58-1.34-8.15-.58-10.69,10.05-1.15,11.83,0,1.54,8.66,2.61,10.69,7.86-1.56,7.86-1.56l1.23-8.99s2.8-1.23,2.42,1.99-3.24,15.06-3.24,15.06Z"/><path class="cls-52" d="M211.21,429.99c.44,1.34-4.94,3.12-6.85,3.72-1.91,.6-9.42-7.23-14-9.55s-5.97-2.83-6.3-7.41-.96-12.35-2.74-13.87,3.93-3.18,7.76-2.55c3.83,.64,5.6-.25,5.15,2.42s-1.53,12.35-.64,13.05,10.69,7.98,13.24,10.23c2.55,2.25,4.07,3.09,4.37,3.97Z"/><path class="cls-52" d="M216.32,441.57s-2.29,2.63-6.96,3.52c-4.67,.89-10.47,1.74-16.48,1.06s-9.23-1.2-11.52-2.17-.34-3.86-2.8-4.87c-2.46-1.02-8.47-2.62-8.47-2.62,0,0-.87,.69-1.12,3.35-.25,2.66-.25,3.25,1.78,4.53,2.04,1.27,6.96,3.22,6.96,3.22,0,0,.76-1.1,1.02-.51s-.51,1.01,.25,1.14,12.47,2.68,17.73,2.93,11.54-.42,14-1.1,4.33-1.8,5.6-3.53,1.53-4.53,0-4.96Z"/><path class="cls-71" d="M104.09,389.4s24.51,1.19,25.15,1.98c.64,.79-.58,3.04-.59,3.22s.96,2.07,.86,3.63c-.1,1.56-3.02,4.56-3.02,4.56,0,0-.45,6.32-1.31,7.21-.86,.89-17.49,2.03-23.45-1.5-.7-1.39,1.33-4.95,1.33-4.95,0,0-1.65-3.15-1.56-4.17s2.86-4.09,2.7-4.53c-.16-.44-1.48-3.69-1.34-4.4,.14-.71,1.23-1.05,1.23-1.05Z"/><path class="cls-5" d="M208.65,207.33s-8.21,13.87-8.39,21.58c-.18,7.71,4.74,10.01,2.25,16.1-2.49,6.09-8.37,7.26-7.21,12.15,1.16,4.89-1.44,1.09-2.3,7.44-.86,6.35-1.54,6.27,3,12.55,4.54,6.28,7.02,1.11,6.03,11.84-.99,10.73-1.6,22.95-3.08,28.3-1.1,4,1.93,16.11,3.84,23.56,1.29-14.34,4.79-52.5,6.27-60.36,1.82-9.73,.47-26.46,.7-28.4,.23-1.94-.23-12.08-1.14-18.69-.91-6.61,.91-19.72,.23-22.11-.17-.58-.15-1.89-.03-3.57l-.16-.38Z"/><path class="cls-70" d="M198.92,215.11s-14.43-8.54-53.61-5.95c-3.45,8.5-4.94,33.87-4.94,33.87,0,0,30.35,11.65,57.7,6.18,4.16-12.1,.84-34.1,.84-34.1Z"/><path class="cls-6" d="M124.19,267.85c5.37-4.63,6.85-4.79,2.82-6.16-4.03-1.37-4.89-3.23-2.56-10.85,2.33-7.62,7.35-28,7.29-28.74l-6.54,.88c-1.99,8.29-5.28,21.18-6.85,23.66-2.13,3.38-1.37,14.7-1.02,17.21,.22,1.59-1.2,11.98-2.26,19.32-3.7,19.95-8.22,43.62-9.31,46.17-1.92,4.48-4.11,16.93-4.27,20.46,3.13-6.2,7.14-10.88,11.83-25.65,4.69-14.76,5.49-51.68,10.86-56.31Z"/><path class="cls-55" d="M102.05,422.32s-17.38,8.74-21.61,13.02c-4.23,4.27-4.83,6.14-5.39,10.81-.56,4.67,5.24,7.01,11.09,8.23s21.47,1.42,29.16-.74c7.69-2.16,6.42-3.33,6.42-9.74,0-6.41,3.68-23.52,3.08-25.39s2.3-7.93,1.85-10.55c-.45-2.62-9.84-2.33-11.75-1.4s-2.55,8.42-3.86,10.31-7.62-2.48-7.62-2.48l-.16-9.07s-2.63-1.55-2.64,1.68,1.43,15.34,1.43,15.34Z"/><path class="cls-52" d="M81.69,433.72c-.6,1.28,4.53,3.68,6.36,4.51s10.21-6.07,15.03-7.82c4.82-1.76,6.27-2.1,7.13-6.61,.86-4.51,2.42-12.15,4.37-13.45s-3.53-3.63-7.41-3.45c-3.88,.18-5.53-.92-5.41,1.79s.05,12.44-.91,13.03-11.56,6.66-14.36,8.59-4.41,2.58-4.81,3.42Z"/><path class="cls-52" d="M75.24,444.62s1.96,2.88,6.49,4.32c4.53,1.44,10.19,2.97,16.24,3.01s9.31-.09,11.7-.79c2.39-.69,.79-3.79,3.36-4.51s8.72-1.59,8.72-1.59c0,0,.78,.79,.72,3.46s-.13,3.26-2.31,4.28-7.29,2.38-7.29,2.38c0,0-.63-1.19-.95-.63s.39,1.06-.39,1.1-12.7,1.18-17.96,.81c-5.25-.37-11.41-1.79-13.77-2.75-2.36-.97-4.08-2.3-5.14-4.17-1.06-1.87-.98-4.68,.59-4.92Z"/><path class="cls-106" d="M203.21,184.7c.41-.08,.73-.39,.82-.79,1.08-4.84,7.33-33.04,7.28-33.92-.05-.96-.21-.91-.98-1.48s-5.51-3.51-5.97-3.38-.99,.28-1.09,1.03-4.96,29.29-6.63,35.13c-.09,.32-.08,.66,.07,.96,1.67,2,4.22,2.57,6.49,2.44Z"/><path class="cls-92" d="M156.26,180.53c.94-.09,1.62-.95,1.5-1.89-.98-7.57-4.92-37.72-5.62-38.98-.79-1.44-5.32,1.34-7.17,1.96-1.85,.62-2.37,1.65-2.37,2.26,0,.53,4.86,28.12,6.16,35.54,.18,1.03,1.13,1.74,2.17,1.64l5.32-.53Z"/><circle class="cls-65" cx="153.06" cy="176.54" r="2.04"/><circle class="cls-64" cx="185.24" cy="162.87" r="1.11"/><path class="cls-111" d="M163.7,135.35l5.8,1.28,22.05,.26-.87,4.58,.29,1.08c.38,1.4,.24,2.88-.39,4.19l-1.4,2.91c-.54,1.12-1.37,2.06-2.42,2.73l-.29,.19c-2.24,1.43-4.82,2.24-7.47,2.33l-.99,.04c-1.36,.05-2.7-.37-3.79-1.2l-4.08-3.09c-1.51-1.14-2.69-2.68-3.41-4.43l-1.14-2.17-1.63-4.58-.26-4.11Z"/><path class="cls-115" d="M190.68,141.46s.75,3.13-.5,6.1c-1.25,2.98-3.14,4.69-3.97,5.16s-4.46,2.02-7.06,2.04-3.14,.36-7.9-3.45c-3.91-3.24-4.52-5.11-4.52-5.11l2.12,3.78,3.74,3.31,4.96,4.87,2.17,2.37s1.83,4.23,1.97,5.2l.57-.75,2.78-4.01,5.78-6.6,2.87-4.37,.43-5.28-1.51-3.72-1.68-.89-.24,1.37Z"/><path class="cls-76" d="M168.85,149.99s5.9,3.47,8.54,7.17c2.54,3.64,2.68,3.71,1.92,3.09s-5.83-5.32-6.69-6-5.65-2.57-6.06-2.87,2.28-1.38,2.28-1.38Z"/><path class="cls-77" d="M163.7,135.35s.23,5.15,2.76,10.21c1.61,3.01,2.67,4.74,2.39,4.44s-4.04,4.22-6.15,4.63-2.08,.78-2.22,.31-1.51-8.47-2.09-9.79c-.58-1.32-.14-5.75,1.3-7.77s2.15-3.05,2.15-3.05c0,0,1.64,.93,1.86,1.03Z"/><path class="cls-78" d="M189.85,154.93s-6.39,6.25-7.6,10.06c2.81-2.88,7.53-7.57,8.16-7.98s.13-2.08,.13-2.08h-.69Z"/><path class="cls-75" d="M192.6,136.89s.89-.56,2.64,4.42c1.53,4.34,1.54,7.71,1.42,10.02-.04,.72-.06,1.44-.06,2.16,0,1.82-.11,4.09-1.03,4.93-1.37,.24-5.27-3.29-5.72-3.49,.89-1.13,3.81-5.43,3.43-8.99-.38-3.56-2.46-5.23-2.46-5.23l.65-3.4,1.13-.41Z"/><path class="cls-113" d="M154.12,252.1h0s-.02,0-.02,0h.02Z"/><polygon class="cls-73" points="150.54 251.22 150.55 251.22 150.54 251.22 150.54 251.22"/><circle class="cls-66" cx="201.22" cy="180.31" r="2.04"/></g><path class="cls-82" d="M220.67,213.4c-1.81-.94-2.34-3.32-1.03-4.89,.78-.94,1.77-1.93,2.94-2.69,3.24-2.12,4.97-4.11,6.18-4.81s3.66-3.35,8.26-1.72c4.6,1.63,6.17,4.4,7.56,5.44s1.74,4.04,2.07,5.77,1.95,6.2-1.66,8.52c-3.62,2.32-18.96-2.91-19.12-2.95-.09-.02-2.87-1.46-5.21-2.67Z"/><path class="cls-102" d="M217.03,213.64s2.11,.22,3.15,.02,2.72-2.6,4.06-3.75c1.34-1.15,4.85-3.4,12.38-2.12,4.4,.89,3.75,1.95,4.78,3.69s2.48,3.13,2.83,4.27,1,5.22-.28,7.24c-1.28,2.01-2.26,2-5.1,3.24-2.84,1.24-3.85,2.99-5.4,3.69s-13.18,.76-21.98-.4c.58-6.12,5.54-15.87,5.54-15.87Z"/><path class="cls-108" d="M137.4,196s3.89-4.23,6.61-5.64c2.73-1.41,4.7-3.22,5.02-4.11s1.15-1.79,1.73-1.49,2.24,2.56,1.3,4.72-1.47,2.26-1.47,2.26c0,0-10.5,6.02-13.19,4.27Z"/><path class="cls-85" d="M211.15,206.9s-5.07-2.71-8.11-3.13c-3.04-.42-5.5-1.48-6.1-2.22s-1.67-1.31-2.12-.84-1.27,3.16,.34,4.88c1.61,1.72,2.13,1.64,2.13,1.64,0,0,11.9,2.21,13.86-.34Z"/><g><g><path class="cls-38" d="M207.68,188.84c3.93,9.82-.84,20.97-10.66,24.9-.51,.21-1.03,.39-1.55,.54-9.42,2.87-19.62-1.9-23.34-11.21-3.93-9.82,.84-20.97,10.66-24.9,2.09-.84,4.31-1.3,6.56-1.37,7.8-.22,15.26,4.37,18.33,12.03Z"/><path class="cls-24" d="M207.2,186.7c4,10-.86,21.35-10.86,25.35-.52,.21-1.05,.39-1.58,.55-9.59,2.93-19.98-1.93-23.77-11.41-4-10,.86-21.35,10.86-25.35,2.13-.86,4.39-1.33,6.68-1.39,7.94-.23,15.55,4.45,18.67,12.25Z"/><path class="cls-13" d="M204.59,187.74c3.43,8.56-.73,18.27-9.29,21.7-.45,.18-.9,.34-1.35,.47-8.2,2.5-17.1-1.66-20.34-9.76-3.43-8.56,.73-18.27,9.29-21.7,1.82-.73,3.76-1.14,5.72-1.19,6.8-.2,13.3,3.81,15.98,10.48Z"/><path class="cls-11" d="M182.12,176.55c2.13-.85,4.39-1.33,6.68-1.39,7.81-.23,15.29,4.29,18.5,11.86-.04-.11-.08-.22-.13-.33-3.12-7.8-10.72-12.47-18.66-12.24-2.29,.07-4.55,.54-6.68,1.39-9.99,4-14.85,15.35-10.85,25.34,.05,.12,.1,.24,.15,.36-3.75-9.91,1.11-21.04,10.98-25Z"/><path class="cls-38" d="M183.13,179.06c1.82-.73,3.76-1.14,5.72-1.19,6.68-.19,13.09,3.68,15.84,10.16-.04-.09-.07-.19-.11-.28-2.67-6.68-9.18-10.68-15.98-10.48-1.96,.06-3.9,.46-5.72,1.19-8.56,3.43-12.72,13.14-9.29,21.7,.04,.1,.08,.21,.13,.31-3.21-8.48,.95-18.01,9.4-21.4Z"/></g><g><polygon class="cls-24" points="184.35 189.37 187.12 189.82 188.87 187.61 186.09 187.16 184.35 189.37"/><polygon class="cls-24" points="181.16 197.39 178.39 196.93 181.2 204.15 188.73 205.36 187.69 202.7 182.94 201.93 181.16 197.39"/><polygon class="cls-24" points="179.38 192.84 181.13 190.63 178.35 190.18 176.61 192.38 177.65 195.03 180.42 195.49 179.38 192.84"/><polygon class="cls-24" points="194.86 186.81 195.89 189.46 197.64 187.25 196.61 184.6 193.83 184.15 192.09 186.35 194.86 186.81"/><polygon class="cls-24" points="196.65 191.35 198.41 195.9 195.43 199.68 196.47 202.34 201.19 196.36 198.38 189.14 196.65 191.35"/><polygon class="cls-24" points="184.19 200.36 186.95 200.8 185.92 198.15 183.15 197.7 184.19 200.36"/><polygon class="cls-24" points="189.67 203.02 190.71 205.67 193.48 206.13 195.22 203.91 194.19 201.27 192.44 203.48 189.67 203.02"/><polygon class="cls-24" points="195.39 192.93 193.66 195.14 194.69 197.79 196.42 195.59 195.39 192.93"/><polygon class="cls-24" points="185.35 185.27 190.11 186.04 191.85 183.83 184.32 182.62 179.61 188.6 182.37 189.06 185.35 185.27"/><polygon class="cls-24" points="193.62 188.38 193.63 188.38 190.85 187.93 187.86 191.72 183.12 190.94 181.38 193.15 182.42 195.81 187.18 196.57 188.95 201.13 191.72 201.57 193.45 199.38 191.68 194.82 194.67 191.04 193.62 188.38"/></g><g class="cls-99"><path class="cls-26" d="M200.28,177.97l-15.03,35.1c1.26,.25,2.55,.38,3.85,.38l14.12-32.96c-.9-.94-1.88-1.78-2.94-2.52Z"/><path class="cls-26" d="M188.53,174.45c-.15,0-.3,.01-.45,.02l-13.79,32.19c2.33,2.71,5.35,4.7,8.68,5.8l15.3-35.72c-2.96-1.58-6.32-2.39-9.74-2.29Z"/></g></g><path class="cls-84" d="M226.73,218.35c-1.06-3.62-4.12-6.09-6.79-5.88s-5.26-2.46-5.26-2.46h0c-1.29-1.6-3.78-4.06-7.07-4.13-4.78-.1-8.41,.91-10.12,1.31-1.71,.41-15.9,1.43-15.9,1.43l-2.98-.05s-2.06,.26-2.13,1.77,2.32,2.5,4,2.99c1.68,.49,5.93,1.21,6.65,1.99,.72,.79,.18,4.27,.46,4.94,.28,.67,4.56,9.37,11.28,10.35,3.43,.5,7.61,.06,10.9-.49,0,0,0,0,0,0,2.73-.39,6.35,.44,9.14,1.24,2.79,.8,5.96,2.56,7.49,.4,1.23-2.61,1.38-9.8,.33-13.42Z"/><path class="cls-90" d="M197.68,230.36s-5.71-1.39-6.85-2.35-1.51-2.83-1.51-2.83l1.77-.14,6.59,5.32Z"/><path class="cls-86" d="M190.98,225.53s-2.42,.45-3.59-1.19-1.75-2.8-1.5-3.63,2.28-.24,2.28-.24l2.81,5.06Z"/><g><g><path class="cls-19" d="M176.66,187.48c-2.03,9.76-11.59,16.02-21.35,13.99-.51-.11-1.01-.23-1.5-.38-8.89-2.65-14.41-11.72-12.49-20.97,2.03-9.76,11.59-16.02,21.35-13.99,2.08,.43,4.07,1.23,5.87,2.35,6.24,3.89,9.71,11.39,8.12,19Z"/><path class="cls-18" d="M177.41,185.55c-2.07,9.94-11.81,16.32-21.74,14.24-.52-.11-1.03-.24-1.53-.39-9.05-2.7-14.68-11.94-12.72-21.36,2.07-9.94,11.81-16.32,21.74-14.24,2.12,.44,4.14,1.25,5.97,2.39,6.35,3.96,9.89,11.6,8.27,19.35Z"/><path class="cls-20" d="M174.81,185.01c-1.77,8.5-10.1,13.96-18.61,12.19-.44-.09-.88-.2-1.31-.33-7.75-2.31-12.56-10.21-10.88-18.27,1.77-8.5,10.1-13.96,18.61-12.19,1.81,.38,3.54,1.07,5.11,2.05,5.44,3.39,8.46,9.92,7.08,16.56Z"/><path class="cls-15" d="M157.71,183.48s.46-1.62-1.26-3.85c-2.46-3.2-2.69-3.84-.29-2.92s3.78,3.38,3.78,3.38"/><path class="cls-42" d="M151.53,186.92l.14-1.06-2.1-.28c-.22-.03-.42,.12-.45,.34l-.04,.28c-.03,.22,.12,.42,.34,.45,0,0,0,0,0,0l2.1,.28Z"/><path class="cls-30" d="M151.53,186.92l.07-.53-2.49-.33-.02,.14c-.03,.22,.12,.42,.34,.45,0,0,0,0,0,0l2.1,.28Z"/><path class="cls-19" d="M161.41,185.24c-.28-.47-.62-.86-1.02-1.24-.38-.36-.81-.67-1.22-1-.37-.28-.69-.59-1.12-.77-.03,.02-.05,.05-.08,.07s-.05,.05-.08,.07c-.06,.06-.12,.11-.18,.16,0,0-.02,.01-.02,.02-.03,.02-.05,.05-.08,.07s-.06,.05-.09,.07c-.06,.05-.13,.1-.19,.15-.19,.15-.39,.3-.6,.44-.03,.02-.07,.05-.1,.07-.05,.04-.11,.07-.17,.11-.04,.03-.08,.05-.12,.08s-.08,.05-.12,.07c0,0-.02,.01-.03,.02-.06,.04-.12,.07-.19,.11-.02,0-.03,.02-.04,.02-.02,.02-.05,.03-.07,.04l-.08,.04c-.06,.03-.13,.07-.19,.1-.09,.05-.18,.09-.27,.14-.07,.03-.15,.07-.22,.1-.01,0-.03,.01-.04,.02-.06,.03-.12,.05-.18,.08,0,0,0,0,0,0-.1,.04-.2,.08-.3,.12-.21,.08-.42,.16-.64,.23-.39,.13-.79,.23-1.2,.3-.17,.04-.35,.06-.53,.09h0c-.09,.01-.18,.02-.27,.04-.08,0-.16,.02-.24,.03-.11,.01-.21,.02-.32,.02h0s-.03,0-.08,.02c-.01,0-.03,.01-.05,.02,0,0-.02,0-.03,.01s-.02,0-.03,.01c-.26,.1-.49,.27-.64,.5,0,0,0,.01-.01,.02-.1,.16-.16,.33-.18,.52-.02,.1-.02,.21-.01,.32h0c0,.08,.02,.15,.04,.23,.07,.25,.25,.46,.46,.62,.44,.33,1.06,.51,1.44,.59,3.3,.63,6.71-.31,9.23-2.54-.04-.06-.07-.13-.11-.19Z"/><path class="cls-18" d="M159.17,183.01c-.37-.28-.69-.59-1.12-.77-.03,.02-.05,.05-.08,.07s-.05,.05-.08,.07-.05,.05-.08,.07c-.03,.03-.07,.06-.1,.09,0,0-.02,.01-.02,.02-.03,.02-.05,.05-.08,.07s-.06,.05-.09,.07-.06,.05-.09,.07-.07,.06-.1,.08c-.06,.05-.12,.09-.18,.14-.01,0-.02,.02-.03,.02-.03,.02-.06,.04-.09,.06-.06,.05-.13,.09-.19,.14-.04,.02-.07,.05-.11,.07s-.07,.05-.1,.07c-.06,.04-.11,.07-.17,.11-.04,.03-.08,.05-.12,.08s-.08,.05-.12,.07c0,0-.02,.01-.03,.02-.06,.04-.12,.07-.19,.11-.02,0-.03,.02-.04,.02l-.07,.04-.08,.04c-.06,.03-.13,.07-.19,.1-.06,.03-.12,.06-.17,.09-.03,.02-.07,.03-.1,.05-.07,.03-.15,.07-.22,.1-.01,0-.03,.01-.04,.02-.06,.03-.12,.05-.18,.08,0,0,0,0,0,0-.05,.02-.1,.04-.15,.06s-.1,.04-.16,.06c-.07,.03-.15,.05-.22,.08l-.12,.04c-.1,.04-.2,.07-.29,.1-.07,.02-.13,.04-.2,.06-.1,.03-.2,.06-.3,.08-.07,.02-.13,.03-.2,.05-.1,.02-.2,.05-.31,.07-.07,.01-.13,.03-.2,.04-.11,.02-.23,.04-.34,.06l-.13,.02s-.03,0-.05,0h0c-.09,.01-.18,.02-.27,.04-.08,0-.16,.02-.24,.03-.11,.01-.21,.02-.32,.02h0s-.03,0-.08,.02c-.01,0-.03,.01-.05,.02,0,0-.02,0-.03,.01s-.02,0-.03,.01c-.26,.1-.49,.27-.64,.5,0,0,0,.01-.01,.02-.1,.16-.16,.33-.18,.52-.02,.1-.02,.21-.01,.32h.02c.96,.21,1.95,.29,2.93,.23,.13,0,.27-.02,.4-.03,2.33-.22,4.53-1.2,6.26-2.78,.06-.05,.12-.11,.17-.17-.32-.27-.65-.52-.98-.78Z"/><path class="cls-17" d="M161.88,185.11l-1.91-1.16-2.29-1.38s.02-.01,.02-.02c.03-.03,.07-.06,.1-.09,.03-.02,.05-.05,.08-.07s.05-.05,.08-.07c.07-.06,.14-.13,.21-.19,.04-.04,.09-.09,.13-.13,.08-.09,.17-.17,.25-.26,.03-.03,.06-.06,.08-.09,0,0,.02-.02,.03-.03,.05-.05,.09-.11,.14-.16s.1-.12,.15-.17c.06-.07,.11-.14,.16-.2,.05-.06,.09-.12,.14-.17s.09-.13,.14-.19c.02-.02,.03-.04,.04-.06,.03-.04,.06-.08,.09-.12,0,0,0,0,0,0,.04-.06,.09-.12,.13-.19,0-.01,.02-.03,.03-.04l.02-.04s.05-.09,.08-.13c.02-.04,.05-.07,.07-.11s.05-.07,.07-.11l.02-.03s.03-.05,.04-.07,.03-.05,.04-.07c.09-.16,.18-.32,.26-.48,.04-.08,.08-.16,.12-.24,.06-.12,.11-.23,.16-.36l.02-.04s0-.02,.01-.03c.06-.14,.12-.28,.17-.42,.02-.05,.04-.1,.05-.14s.03-.09,.05-.14c.02-.06,.04-.11,.06-.17,.01-.03,.02-.07,.03-.1,.02-.06,.04-.12,.06-.19,.02-.06,.03-.11,.05-.17,.03-.1,.05-.2,.08-.3,.01-.05,.03-.1,.04-.16v-.06s.02-.04,.02-.06c0-.04,.02-.08,.03-.12l.03-.13c.03-.15,.06-.3,.08-.45v-.02c.03-.14,.04-.28,.06-.41h0c.09-.57,.15-1.93,.44-2.83,.13-.41,.32-.73,.58-.84,.03-.01,.07-.02,.1-.03h0s.07,0,.11,0h0s0,0,0,0c.33,.01,.62,.17,.87,.37,.5,.42,.81,1.04,.84,1.1,1.64,4.08,.65,8.74-2.5,11.81h0Z"/><path class="cls-14" d="M159.97,183.95c2.42-2.22,3.81-5.5,3.47-9.03-.08-.86-.27-1.71-.55-2.53-.04-.12-.09-.24-.13-.35-.03-.07-.06-.15-.09-.22-.04,0-.07,0-.11,0h0s-.07,.02-.1,.03c-.26,.11-.45,.43-.58,.84-.3,.9-.35,2.26-.44,2.83h0c-.02,.15-.03,.28-.05,.42v.02c-.03,.15-.05,.3-.08,.45v.04s-.03,.09-.03,.09c0,.04-.02,.08-.03,.12,0,.02,0,.04-.01,.06v.06c-.02,.05-.03,.11-.05,.16-.03,.1-.05,.2-.08,.3-.02,.06-.03,.11-.05,.17-.02,.06-.04,.13-.06,.19-.01,.03-.02,.07-.03,.1-.02,.06-.04,.11-.06,.17-.02,.05-.03,.1-.05,.14s-.03,.1-.05,.14c-.05,.14-.11,.28-.17,.42,0,.01,0,.02-.01,.03l-.02,.04c-.05,.12-.11,.24-.16,.36-.04,.08-.08,.16-.12,.24-.08,.16-.17,.32-.26,.48-.01,.03-.03,.05-.04,.07s-.03,.05-.04,.07l-.02,.03s-.04,.07-.07,.11-.05,.07-.07,.11c-.03,.04-.05,.09-.08,.13l-.02,.04s-.02,.03-.03,.04c-.04,.06-.09,.13-.13,.19,0,0,0,0,0,0-.03,.04-.06,.08-.09,.12-.01,.02-.03,.04-.04,.06-.05,.06-.09,.13-.14,.19s-.09,.12-.14,.17c-.05,.07-.11,.14-.16,.2-.05,.06-.1,.11-.15,.17s-.1,.11-.14,.16c0,.01-.02,.02-.03,.03-.03,.03-.06,.06-.08,.09-.08,.09-.17,.18-.25,.26-.04,.04-.09,.09-.13,.13-.07,.07-.13,.13-.21,.19-.03,.02-.05,.05-.08,.07s-.05,.05-.08,.07c-.03,.03-.07,.06-.1,.09,0,0-.02,.01-.02,.02l2.29,1.38Z"/><path class="cls-15" d="M157.68,182.57s2.04,1.29,2.74,2.36c1.1,1.68,1.54,2.21-.13,6.23-.06,.15-.12,.29-.17,.45-.22,.68-.67,2.42,2.92-1.08,4.31-4.22-.07-6.57-.07-6.57-1.61-.85-3.42-1.29-5.29-1.38Z"/><path class="cls-14" d="M163.01,164.51c2.12,.44,4.14,1.25,5.97,2.39,6.25,3.89,9.76,11.34,8.34,18.96,.02-.11,.05-.21,.07-.32,1.62-7.75-1.91-15.38-8.27-19.34-1.83-1.14-3.86-1.95-5.97-2.39-9.93-2.07-19.66,4.3-21.73,14.24-.03,.12-.05,.24-.07,.36,2.22-9.74,11.84-15.94,21.66-13.9Z"/><path class="cls-19" d="M162.5,167c1.81,.38,3.54,1.07,5.11,2.05,5.35,3.33,8.36,9.71,7.14,16.24,.02-.09,.04-.18,.06-.27,1.38-6.64-1.64-13.17-7.08-16.56-1.57-.98-3.3-1.67-5.11-2.05-8.5-1.77-16.83,3.69-18.61,12.19-.02,.1-.04,.21-.06,.31,1.9-8.34,10.14-13.65,18.54-11.9Z"/></g><g class="cls-99"><path class="cls-26" d="M176.52,175.09l-30.1,19.72c.86,.86,1.8,1.63,2.82,2.31l28.27-18.52c-.21-1.21-.55-2.38-.99-3.51Z"/><path class="cls-26" d="M169.14,166.2c-.12-.07-.24-.15-.36-.22l-27.61,18.09c.42,3.35,1.75,6.48,3.79,9.08l30.64-20.07c-1.5-2.79-3.72-5.17-6.45-6.88Z"/></g></g><path class="cls-91" d="M184.58,214.32s-2.03,.67-1.88,2.24,.77,3.78,1.9,4,3.54,.22,3.54,.22c0,0,.39-3.96,.21-4.87s-2.38-1.93-2.38-1.93l-1.4,.35Z"/><g><g><path class="cls-31" d="M151.22,95.46c-.57,2.26-.85,4.59-.81,6.92v.48c.1,2.82-.2,5.63-.77,8.39-1.31-.44-2.67-1.35-3.97-2.94-3.45-4.19-2.45-11.05,1.66-12.73,1.56-.64,2.87-.53,3.9-.15,0,0,0,.02,0,.02Z"/><path class="cls-10" d="M151.22,95.46c-.57,2.26-.85,4.59-.81,6.92v.48c.1,2.82-.2,5.63-.77,8.39-1.31-.44-2.67-1.35-3.97-2.94-3.45-4.19-2.45-11.05,1.66-12.73,1.56-.64,2.87-.53,3.9-.15,0,0,0,.02,0,.02Z"/><path class="cls-31" d="M213.41,107.04c-1.24,1.64-2.57,2.6-3.86,3.09-.68-2.74-1.08-5.53-1.1-8.36v-.48c-.06-2.34-.43-4.67-1.09-6.92,1.02-.42,2.33-.57,3.91,0,4.17,1.53,5.43,8.34,2.14,12.66Z"/><path class="cls-10" d="M213.41,107.04c-1.24,1.64-2.57,2.6-3.86,3.09-.68-2.74-1.08-5.53-1.1-8.36v-.48c-.06-2.34-.43-4.67-1.09-6.92,1.02-.42,2.33-.57,3.91,0,4.17,1.53,5.43,8.34,2.14,12.66Z"/><path class="cls-31" d="M200.55,110.38c-1.18,1.94-1.48,4.31-.7,6.46,.58,1.62,1.11,3.44,1.14,4.81,.19,10.01-9.14,18.3-20.83,18.52-11.7,.22-21.33-7.71-21.52-17.71-.03-1.37,.43-3.21,.95-4.85,.69-2.17,.31-4.54-.95-6.42-.3-.45-.57-.93-.81-1.42-.72-1.49-1.11-3.13-1.14-4.79-.13-6.64,5.43-12.14,12.41-12.27,2.25-.05,4.48,.49,6.47,1.55,2.33,1.27,5.15,1.21,7.43-.14,1.94-1.14,4.15-1.76,6.4-1.8,6.98-.13,12.74,5.15,12.87,11.79,.03,1.66-.29,3.31-.95,4.83-.22,.5-.47,.99-.76,1.45Z"/><path class="cls-10" d="M200.55,110.38c-1.18,1.94-1.48,4.31-.7,6.46,.58,1.62,1.11,3.44,1.14,4.81,.19,10.01-9.14,18.3-20.83,18.52-11.7,.22-21.33-7.71-21.52-17.71-.03-1.37,.43-3.21,.95-4.85,.69-2.17,.31-4.54-.95-6.42-.3-.45-.57-.93-.81-1.42-.72-1.49-1.11-3.13-1.14-4.79-.13-6.64,5.43-12.14,12.41-12.27,2.25-.05,4.48,.49,6.47,1.55,2.33,1.27,5.15,1.21,7.43-.14,1.94-1.14,4.15-1.76,6.4-1.8,6.98-.13,12.74,5.15,12.87,11.79,.03,1.66-.29,3.31-.95,4.83-.22,.5-.47,.99-.76,1.45Z"/><path class="cls-61" d="M169.07,124.5c-.67,.01-1.21,.57-1.19,1.24,0,.05,0,.11,.01,.16,.85,5.35,6.01,9.4,12.17,9.28s11.17-4.36,11.81-9.74c.07-.67-.41-1.27-1.08-1.34-.05,0-.11,0-.16,0l-21.57,.41Z"/><path class="cls-25" d="M173.05,133.31c4.31,2.58,9.72,2.48,13.93-.27-.93-3.01-3.71-2.26-7.01-2.2s-6.11-.58-6.92,2.46Z"/><path class="cls-31" d="M212.65,92.11c-2.52-.93-4.5-.37-5.88,.46-.36-1-.77-1.98-1.23-2.93-.34-.7-.7-1.39-1.09-2.07-3.97-6.95-10.53-12.64-17.97-14.96l-.22-3.98-4.73,2.97c-.19-.02-.38-.04-.58-.05-.35-.02-.71-.04-1.06-.05l-.76-3-.22-.87c-.24,0-.47,.02-.7,.04-4.45,.45-6.59,4.54-6.92,5.24-7.35,2.6-13.69,8.55-17.39,15.64-.36,.69-.7,1.4-1.01,2.11-.43,.97-.8,1.97-1.12,2.98-.06-.03-.12-.07-.18-.1-1.4-.72-3.34-1.11-5.72-.14-5.23,2.15-6.49,10.85-2.12,16.18,1.78,2.17,3.64,3.34,5.41,3.84-.02,.1-.04,.2-.06,.3-.29,1.46-.42,2.95-.39,4.44,.2,10.33,7.98,19.07,18.98,22.78,2.58,.87,5.25,1.44,7.96,1.7,1.41,.14,2.82,.21,4.23,.19h.34c17.14-.33,30.81-11.91,30.55-25.86-.03-1.49-.22-2.97-.56-4.42-.02-.1-.05-.2-.07-.3,1.75-.57,3.56-1.81,5.26-4.05,4.17-5.48,2.58-14.14-2.73-16.08Zm-61.43,3.35c-.57,2.26-.85,4.59-.81,6.92v.48c.1,2.82-.2,5.63-.77,8.39-1.31-.44-2.67-1.35-3.97-2.94-3.45-4.19-2.45-11.05,1.66-12.73,1.56-.64,2.87-.53,3.9-.15,0,0,0,.02,0,.02Zm50.09,13.47c-.22,.5-.47,.98-.76,1.45-1.18,1.94-1.48,4.31-.7,6.46,.58,1.62,1.11,3.44,1.14,4.81,.19,10.01-9.14,18.3-20.83,18.52-11.7,.22-21.34-7.71-21.53-17.71-.03-1.37,.43-3.21,.95-4.85,.69-2.17,.31-4.54-.95-6.42-.3-.45-.57-.93-.81-1.42-.72-1.49-1.11-3.13-1.14-4.79-.13-6.64,5.43-12.14,12.41-12.27,2.25-.05,4.48,.49,6.47,1.55,2.33,1.27,5.15,1.21,7.43-.14,1.94-1.14,4.15-1.76,6.4-1.8,6.98-.13,12.74,5.15,12.87,11.79,.03,1.66-.29,3.31-.95,4.83Zm12.1-1.9c-1.25,1.64-2.57,2.6-3.86,3.09-.68-2.74-1.08-5.53-1.1-8.36v-.48c-.06-2.34-.43-4.67-1.09-6.92,1.02-.42,2.33-.57,3.91,0,4.17,1.53,5.43,8.34,2.14,12.66h0Z"/><rect class="cls-61" x="175.51" y="113.98" width="2.04" height="4.62" rx="1.02" ry="1.02" transform="translate(-.42 231.93) rotate(-66.54)"/><rect class="cls-61" x="180.56" y="115.15" width="4.62" height="2.04" rx="1.02" ry="1.02" transform="translate(-32.26 90.57) rotate(-25.64)"/><path class="cls-61" d="M168.69,109.55h0c-2,.04-3.66-1.47-3.69-3.37l-.02-1.15c-.04-1.9,1.56-3.47,3.56-3.51h0c2-.04,3.66,1.47,3.69,3.37l.02,1.15c.04,1.9-1.56,3.47-3.56,3.51Z"/><path class="cls-60" d="M168.53,101.53l.08,4.01c.02,.95,.85,1.7,1.85,1.68,1-.02,1.8-.8,1.78-1.75v-.57c-.05-1.9-1.7-3.41-3.7-3.37Z"/><ellipse class="cls-13" cx="168.58" cy="103.82" rx="1.21" ry="1.15" transform="translate(-1.95 3.23) rotate(-1.09)"/><path class="cls-61" d="M190.45,109.14h0c-2,.04-3.66-1.47-3.69-3.37l-.02-1.15c-.04-1.9,1.56-3.47,3.56-3.51h0c2-.04,3.66,1.47,3.69,3.37l.02,1.15c.04,1.9-1.56,3.47-3.56,3.51Z"/><path class="cls-60" d="M190.3,101.12l.08,4.01c.02,.95,.85,1.7,1.85,1.68s1.8-.8,1.78-1.75v-.57c-.05-1.9-1.7-3.41-3.7-3.37Z"/><ellipse class="cls-13" cx="190.34" cy="103.41" rx="1.21" ry="1.15" transform="translate(-1.93 3.64) rotate(-1.09)"/><path class="cls-62" d="M179.11,68.48c-.81-.07-2.57,1.25-4.65,3.5-.52,.56-1.06,1.18-1.61,1.86-4.08,4.97-8.76,12.77-10.27,20.72-2.53,13.34-3.36,28.77,1.7,37.23,4.29,7.17,11.35,10.83,11.35,10.83-2.71-.27-5.38-.84-7.96-1.71-10.99-3.7-18.78-12.44-18.98-22.77-.03-1.49,.1-2.98,.39-4.44,.02-.1,.04-.2,.06-.3-1.77-.5-3.63-1.67-5.41-3.84-4.37-5.33-3.11-14.03,2.11-16.18,2.38-.98,4.32-.58,5.72,.14,.06,.03,.12,.06,.18,.1,.32-1.01,.7-2.01,1.12-2.98,.31-.71,.65-1.42,1.01-2.11,3.7-7.09,10.04-13.04,17.39-15.64,.33-.7,2.48-4.79,6.92-5.24,.23-.02,.46-.04,.7-.04l.22,.87Z"/><path class="cls-23" d="M208.57,86.19c-4.02-3.75-26.3-1.6-30.02-1.22-3.46-.27-26.2-1.86-30,2.03-2.07,2.12,1.73,4.62,6.02,6.58,4.9,2.24,10.19,3.37,15.52,3.39l8.82,.03h0s0,0,0,0l8.69-.27c5.85-.18,11.59-1.69,16.75-4.53,3.53-1.94,6.18-4.2,4.22-6.03Z"/><path class="cls-23" d="M178.74,54.07c-28.82,.22-28,31.78-28,31.78,0,0-.87,4.9,28.76,4.27,29.63-.63,27.91-4.08,27.91-4.08,0,0-1.06-32.18-28.67-31.97Z"/><path class="cls-98" d="M207.33,84.95c-2.5,.99-10.47,2.21-20.41,2.43-29.63,.63-28.76-4.27-28.76-4.27,0,0-.52-20.15,13.98-28.36-22.08,4.59-21.4,31.1-21.4,31.1,0,0-.87,4.9,28.76,4.27,29.63-.63,27.91-4.08,27.91-4.08,0,0-.07-1.08-.07-1.09Z"/><path class="cls-98" d="M206.13,90.99c-5.25,2.88-11.09,4.42-17.03,4.6l-8.84,.27h0s0,0,0,0l-8.96-.03c-5.42-.02-10.8-1.17-15.78-3.45-3.65-1.67-6.95-3.73-6.7-5.61-.1,.08-.19,.16-.27,.24-2.07,2.12,1.73,4.62,6.02,6.58,4.9,2.24,10.19,3.37,15.52,3.39l8.82,.03h0s0,0,0,0l8.69-.27c5.85-.18,11.59-1.69,16.75-4.53,1.14-.63,2.18-1.28,3.01-1.95-.4,.24-.81,.48-1.24,.72Z"/><path class="cls-12" d="M196.33,62.79c3.25,3.39,4.92,7.15,3.74,8.4-1.18,1.25-2.64-2.81-5.89-6.2s-7.06-4.83-5.87-6.08,4.78,.49,8.03,3.88Z"/></g><g><circle class="cls-36" cx="178.88" cy="83.82" r="9.79"/><circle class="cls-22" cx="178.88" cy="83.82" r="8.41"/><g><path class="cls-9" d="M178.08,80.32l.08,11.88c.26,.02,.52,.03,.78,.03,.22,0,.43-.01,.64-.03l-.08-11.89h-1.42Z"/><path class="cls-9" d="M180.98,80.3l.08,11.65c.49-.13,.97-.31,1.42-.52l-.08-11.13h-1.42Z"/><path class="cls-9" d="M175.01,80.34l.08,10.99c.45,.23,.93,.42,1.43,.56l-.08-11.56h-1.42Z"/><path class="cls-9" d="M172.01,80.08l.06,8.68c.41,.57,.89,1.08,1.43,1.53l-.07-10.22h-1.42Z"/><path class="cls-9" d="M185.48,89.03l-.07-9.75h-1.42s.08,11.16,.08,11.16c.52-.41,1-.89,1.41-1.41Z"/></g><circle class="cls-100" cx="179.72" cy="85.17" r="51.29"/><path class="cls-45" d="M187.84,79.89c-1.53-3.47-5-5.88-9.03-5.85-4.03,.03-7.47,2.49-8.95,5.98l.14,.07c5.67,2.64,12.23,2.57,17.83-.19h0Z"/></g></g><path class="cls-79" d="M131.6,203.94s-2.84-3.35-6.64-4.63c-3.81-1.28-6.06-2.83-7.46-3.22s-4.54-2.41-8.74,.43c-4.2,2.84-5.05,6.02-6.18,7.42s-.7,4.51-.58,6.33-.35,6.73,3.88,8.13c4.23,1.39,18.28-7.85,18.42-7.93s7.29-6.52,7.29-6.52Z"/><path class="cls-94" d="M140.82,201.15s-10.12,3.37-11.29,3.66-4.02-1.37-5.94-1.91-6.58-1.18-13.69,3.72c-4.08,3-2.91,3.78-3.15,6.05-.23,2.28-1.05,4.39-.87,5.72s1.46,5.83,3.73,7.28,3.26,.98,6.76,.9,5.36,1.21,7.28,1.21c7.13,0,15.86-8.74,24.32-14.11-3.5-6-7.15-12.53-7.15-12.53Z"/><path class="cls-109" d="M207.66,227.12c-.65-1.32-2.82-5.41-2.95-8.57s.34-4.58,2.35-4.57,4.89,.66,7.1,.5,3.42-1.82,4.49-2.11,2.01-.23,2.98-.19,3.02,1.14,4.42,3.38,1.94,6.44,1.81,9.49-.7,5.96-1.31,7.3-3.36,.84-4.39,.3-4.22-1.88-6.74-2.75-6.4,.02-7.77-2.78Z"/><path class="cls-61" d="M220.81,212.14s.19-.21,.57-.22,1.26-.13,2.2,.55,2.3,1.62,3.2,3.73,1.21,4.24,1.33,5.93-.24,6.41-.44,7.46-.53,2.27-.7,2.71-.65,1.06-1.06,1.22-1.02-.01-1.18-.33c.46-.27,1.07-.97,1.38-1.84s.82-3.25,.95-5.85-.08-5.23-.44-7.02-1.46-3.18-2.09-3.94-1.68-1.54-2.2-1.79-1.53-.61-1.53-.61Z"/><path class="cls-13" d="M169.52,181.07c5.61,.39,5.92,.7,6.31,6.31,.39-5.61,.7-5.92,6.31-6.31-5.61-.39-5.92-.7-6.31-6.31-.39,5.61-.7,5.92-6.31,6.31Z"/><path class="cls-13" d="M202.25,198.03c5.61,.39,5.92,.7,6.31,6.31,.39-5.61,.7-5.92,6.31-6.31-5.61-.39-5.92-.7-6.31-6.31-.39,5.61-.7,5.92-6.31,6.31Z"/><path class="cls-13" d="M168.47,204.84c3.41,.24,3.6,.43,3.84,3.84,.24-3.41,.43-3.6,3.84-3.84-3.41-.24-3.6-.43-3.84-3.84-.24,3.41-.43,3.6-3.84,3.84Z"/><path class="cls-89" d="M126.48,211.97c-.2-3.76,1.88-7.11,4.46-7.8s4.15-4.06,4.15-4.06h0c.68-1.94,2.22-5.09,5.3-6.24,4.48-1.68,8.24-1.93,9.98-2.11,1.75-.18,15.47-3.91,15.47-3.91l2.8-1.04s2.03-.44,2.6,.96-1.36,3.12-2.78,4.14c-1.43,1.02-5.19,3.1-5.61,4.08-.42,.98,1.24,4.09,1.2,4.82-.04,.73-1.2,10.35-7.22,13.5-3.07,1.6-7.16,2.58-10.45,3.15,0,0,0,0,0,0-2.71,.53-5.85,2.51-8.21,4.19-2.37,1.68-4.77,4.39-6.94,2.86-2.03-2.06-4.55-8.79-4.75-12.56Z"/><path class="cls-87" d="M157.87,213.68s4.93-3.2,5.69-4.48,.49-3.17,.49-3.17l-1.72,.46-4.46,7.2Z"/><path class="cls-88" d="M162.6,206.91s2.43-.37,2.99-2.31,.72-3.22,.21-3.93-2.23,.53-2.23,.53l-.98,5.7Z"/><path class="cls-101" d="M164.93,194.21s2.14-.04,2.51,1.49,.52,3.82-.47,4.41-3.27,1.38-3.27,1.38c0,0-1.68-3.61-1.81-4.53s1.6-2.61,1.6-2.61l1.44-.13Z"/><path class="cls-83" d="M147.38,213.92c.18-1.46,.87-6.04-.05-9.06s-1.83-4.21-3.73-3.54-4.4,2.24-6.54,2.82-3.83-.58-4.94-.51-1.97,.45-2.88,.8-2.47,2.07-3.05,4.66,.3,6.72,1.43,9.55c1.13,2.83,2.64,5.39,3.65,6.46s3.45-.32,4.24-1.17,3.36-3.17,5.45-4.82,6.04-2.1,6.42-5.2Z"/><path class="cls-61" d="M130.01,204.14s-.25-.14-.61-.02-1.23,.3-1.89,1.25-1.63,2.29-1.79,4.58,.26,4.4,.71,6.04,2.35,5.97,2.88,6.9,1.25,1.97,1.56,2.33,.97,.78,1.4,.8,.96-.35,1-.71c-.53-.1-1.33-.56-1.91-1.28s-1.85-2.8-2.83-5.21-1.65-4.96-1.91-6.77,.32-3.49,.67-4.41,1.07-2.01,1.48-2.42,1.24-1.09,1.24-1.09Z"/><path class="cls-13" d="M139.69,169.22c5.61,.39,5.92,.7,6.31,6.31,.39-5.61,.7-5.92,6.31-6.31-5.61-.39-5.92-.7-6.31-6.31-.39,5.61-.7,5.92-6.31,6.31Z"/></g></g></svg>