<?xml version="1.0" encoding="UTF-8"?><svg id="Laag_1" xmlns="http://www.w3.org/2000/svg" xmlns:xlink="http://www.w3.org/1999/xlink" viewBox="0 0 500 500"><defs><style>.cls-1{fill:#b7b7b7;}.cls-2{fill:url(#linear-gradient-75);}.cls-3{fill:#d6d7d8;}.cls-4{fill:url(#linear-gradient-2);}.cls-5{fill:#ffb300;}.cls-6{fill:#ffd770;}.cls-7{fill:url(#linear-gradient-51);}.cls-8{fill:url(#linear-gradient-21);opacity:.65;}.cls-9,.cls-10{fill:#fff;}.cls-11{fill:#ac752c;}.cls-12{fill:url(#linear-gradient-87);}.cls-13{fill:url(#linear-gradient-80);}.cls-14{fill:#faf4e6;}.cls-15{fill:url(#linear-gradient-43);}.cls-16{fill:#a70011;}.cls-17{fill:#81172d;opacity:.3;}.cls-18{fill:url(#linear-gradient-15);}.cls-19{fill:url(#linear-gradient-58);}.cls-20{fill:url(#linear-gradient-69);}.cls-21{fill:url(#linear-gradient-81);}.cls-22{fill:#e6646e;}.cls-23{fill:url(#linear-gradient-18);}.cls-24{fill:url(#linear-gradient-56);}.cls-25{fill:url(#linear-gradient-40);}.cls-26{fill:url(#linear-gradient-52);}.cls-27{fill:url(#linear-gradient-28);}.cls-28{fill:#a0a0a0;}.cls-29{fill:url(#linear-gradient-14);}.cls-30{fill:url(#linear-gradient-36);}.cls-31{fill:url(#linear-gradient-78);}.cls-32{fill:url(#linear-gradient-20);}.cls-33{fill:url(#linear-gradient-6);}.cls-34{fill:url(#linear-gradient-53);}.cls-35{fill:#8c8c8c;}.cls-36{opacity:.33;}.cls-37{fill:url(#linear-gradient-60);}.cls-38{fill:#825346;}.cls-39{fill:url(#linear-gradient-84);}.cls-40{fill:url(#Naamloos_verloop_51);}.cls-41{fill:url(#linear-gradient-35);}.cls-42{fill:url(#linear-gradient-48);}.cls-43{opacity:.15;}.cls-43,.cls-44{isolation:isolate;}.cls-43,.cls-44,.cls-45{fill:#4e3f3f;}.cls-46{fill:url(#linear-gradient-32);}.cls-47{fill:#fdfbf5;}.cls-48{fill:url(#linear-gradient-11);}.cls-49{fill:url(#linear-gradient-50);}.cls-50{fill:url(#linear-gradient-63);}.cls-51{fill:url(#linear-gradient-67);}.cls-52{fill:url(#linear-gradient-86);}.cls-53{fill:url(#linear-gradient-39);}.cls-54{fill:url(#linear-gradient-10);}.cls-55{fill:url(#linear-gradient-59);}.cls-56{fill:#b48b08;}.cls-57{fill:#f1f0f0;}.cls-58{fill:url(#Naamloos_verloop_51-2);}.cls-44{opacity:.35;}.cls-59{fill:url(#linear-gradient-49);}.cls-60{fill:url(#linear-gradient-37);}.cls-61{fill:url(#linear-gradient-82);}.cls-62{fill:url(#linear-gradient-16);}.cls-63{fill:url(#linear-gradient-31);}.cls-64{fill:#5d5360;}.cls-65{fill:url(#Naamloos_verloop_31);}.cls-66{fill:url(#linear-gradient-85);}.cls-67{fill:url(#linear-gradient-61);}.cls-68{fill:url(#linear-gradient-68);}.cls-69{fill:#c19b68;}.cls-70{fill:#f0b90b;}.cls-71{fill:url(#linear-gradient-62);}.cls-72{fill:url(#linear-gradient-41);}.cls-73{fill:#ffd54f;}.cls-74{fill:url(#linear-gradient-76);}.cls-75{fill:#91061a;}.cls-76{fill:#8c2f13;opacity:.26;}.cls-77{fill:url(#linear-gradient-72);}.cls-10{opacity:.29;}.cls-78{fill:url(#linear-gradient-25);}.cls-79{fill:#7d551f;}.cls-80{fill:url(#linear-gradient-5);}.cls-81{fill:url(#linear-gradient-64);}.cls-82{fill:#212121;}.cls-83{fill:url(#linear-gradient-83);}.cls-84{fill:url(#linear-gradient-54);}.cls-85{fill:url(#linear-gradient-45);}.cls-86{opacity:.1;}.cls-87{fill:url(#linear-gradient-55);}.cls-88{fill:url(#linear-gradient-17);}.cls-88,.cls-89{opacity:.41;}.cls-90{fill:url(#linear-gradient-34);}.cls-91{fill:url(#linear-gradient-65);}.cls-92{fill:url(#linear-gradient-70);}.cls-93{fill:#a16552;}.cls-94{fill:#436abf;}.cls-95{fill:url(#linear-gradient-79);}.cls-96{fill:url(#Naamloos_verloop_7);}.cls-97{fill:url(#linear-gradient-88);}.cls-98{fill:url(#linear-gradient-7);}.cls-89{fill:url(#linear-gradient-9);}.cls-99{fill:url(#linear-gradient-66);}.cls-100{fill:#f5dcb4;}.cls-101{fill:url(#linear-gradient-24);}.cls-102{fill:url(#linear-gradient-73);}.cls-103{fill:url(#linear-gradient-22);}.cls-104{fill:url(#linear-gradient-74);}.cls-105{fill:url(#linear-gradient-42);}.cls-106{fill:url(#linear-gradient-3);}.cls-107{fill:#f3c73c;}.cls-108{fill:url(#Naamloos_verloop_22);}.cls-109{fill:url(#linear-gradient);}.cls-110{fill:url(#linear-gradient-27);}.cls-111{fill:url(#linear-gradient-33);}.cls-112{fill:url(#linear-gradient-38);}.cls-113{fill:url(#linear-gradient-29);}.cls-114{fill:url(#linear-gradient-30);}.cls-115{fill:#3860a8;}.cls-116{fill:url(#linear-gradient-23);}.cls-117{fill:url(#linear-gradient-19);}.cls-118{fill:url(#linear-gradient-71);}.cls-119{fill:url(#linear-gradient-4);}.cls-120{fill:url(#linear-gradient-77);}.cls-121{fill:#c4c4c4;}.cls-122{fill:#ffca28;}.cls-123{fill:url(#linear-gradient-8);}.cls-124{fill:url(#linear-gradient-44);}.cls-125{fill:#ffea8c;}.cls-126{fill:url(#linear-gradient-57);}.cls-127{fill:url(#linear-gradient-47);}.cls-128{fill:url(#linear-gradient-46);}.cls-129{fill:url(#linear-gradient-12);}.cls-130{fill:url(#linear-gradient-13);}.cls-131{fill:url(#linear-gradient-26);}</style><linearGradient id="linear-gradient" x1="291.69" y1="472.59" x2="291.69" y2="-434.66" gradientTransform="matrix(1, 0, 0, 1, 0, 0)" gradientUnits="userSpaceOnUse"><stop offset="0" stop-color="#b8f7f6"/><stop offset=".53" stop-color="#46e1fa"/><stop offset="1" stop-color="#047be7"/></linearGradient><linearGradient id="linear-gradient-2" x1="313.08" y1="141.28" x2="285.44" y2="485.24" gradientTransform="matrix(1, 0, 0, 1, 0, 0)" gradientUnits="userSpaceOnUse"><stop offset="0" stop-color="#feea9f" stop-opacity="0"/><stop offset=".29" stop-color="#feea9f"/><stop offset="1" stop-color="#feb85c"/></linearGradient><linearGradient id="linear-gradient-3" x1="139.76" x2="139.76" y2="-434.68" xlink:href="#linear-gradient"/><linearGradient id="linear-gradient-4" x1="162.94" y1="129.21" x2="135.3" y2="473.17" xlink:href="#linear-gradient-2"/><linearGradient id="linear-gradient-5" x1="227.14" x2="227.14" y2="-434.66" xlink:href="#linear-gradient"/><linearGradient id="linear-gradient-6" x1="244.89" y1="135.8" x2="217.25" y2="479.76" xlink:href="#linear-gradient-2"/><linearGradient id="linear-gradient-7" x1="129.75" x2="129.75" xlink:href="#linear-gradient"/><linearGradient id="linear-gradient-8" x1="151.24" y1="128.27" x2="123.6" y2="472.23" xlink:href="#linear-gradient-2"/><linearGradient id="linear-gradient-9" x1="-217.25" y1="395.23" x2="144.94" y2="395.23" gradientTransform="matrix(1, 0, 0, 1, 0, 0)" gradientUnits="userSpaceOnUse"><stop offset="0" stop-color="#f48a5b"/><stop offset=".54" stop-color="#f9a267" stop-opacity=".46"/><stop offset="1" stop-color="#ffb872" stop-opacity="0"/></linearGradient><linearGradient id="linear-gradient-10" x1="333.99" x2="333.99" xlink:href="#linear-gradient"/><linearGradient id="linear-gradient-11" x1="350.13" y1="144.26" x2="322.49" y2="488.22" xlink:href="#linear-gradient-2"/><linearGradient id="linear-gradient-12" x1="145.04" x2="145.04" xlink:href="#linear-gradient"/><linearGradient id="linear-gradient-13" x1="167.61" y1="129.59" x2="139.97" y2="473.55" xlink:href="#linear-gradient-2"/><linearGradient id="linear-gradient-14" x1="168.41" y1="119.7" x2="140.8" y2="463.2" xlink:href="#linear-gradient-2"/><linearGradient id="linear-gradient-15" x1="129.69" x2="129.69" xlink:href="#linear-gradient"/><linearGradient id="linear-gradient-16" x1="151.19" y1="128.27" x2="123.55" y2="472.23" xlink:href="#linear-gradient-2"/><linearGradient id="linear-gradient-17" y1="395.73" y2="395.73" xlink:href="#linear-gradient-9"/><linearGradient id="linear-gradient-18" x1="151.98" y1="118.38" x2="124.38" y2="461.88" xlink:href="#linear-gradient-2"/><linearGradient id="linear-gradient-19" x1="408.73" x2="408.73" xlink:href="#linear-gradient"/><linearGradient id="linear-gradient-20" x1="430.76" y1="150.74" x2="403.12" y2="494.69" xlink:href="#linear-gradient-2"/><linearGradient id="linear-gradient-21" x1="414.4" y1="343.55" x2="407.76" y2="438.8" xlink:href="#linear-gradient-9"/><linearGradient id="linear-gradient-22" x1="165.82" x2="165.82" xlink:href="#linear-gradient"/><linearGradient id="linear-gradient-23" x1="188.89" y1="131.3" x2="161.25" y2="475.26" xlink:href="#linear-gradient-2"/><linearGradient id="linear-gradient-24" x1="193.62" x2="193.62" xlink:href="#linear-gradient"/><linearGradient id="linear-gradient-25" x1="215.95" y1="133.47" x2="188.31" y2="477.43" xlink:href="#linear-gradient-2"/><linearGradient id="linear-gradient-26" x1="216.75" y1="123.59" x2="189.15" y2="467.08" xlink:href="#linear-gradient-2"/><linearGradient id="linear-gradient-27" x1="464.61" y1="153.46" x2="436.97" y2="497.41" xlink:href="#linear-gradient-2"/><linearGradient id="linear-gradient-28" x1="371.84" y1="146" x2="344.2" y2="489.96" xlink:href="#linear-gradient-2"/><linearGradient id="linear-gradient-29" x1="377.88" y1="146.49" x2="350.24" y2="490.44" xlink:href="#linear-gradient-2"/><linearGradient id="linear-gradient-30" x1="332.9" y1="142.87" x2="305.26" y2="486.83" xlink:href="#linear-gradient-2"/><linearGradient id="linear-gradient-31" x1="455.06" y1="152.69" x2="427.42" y2="496.65" xlink:href="#linear-gradient-2"/><linearGradient id="linear-gradient-32" x1="441.38" y1="151.59" x2="413.74" y2="495.55" xlink:href="#linear-gradient-2"/><linearGradient id="linear-gradient-33" x1="293.37" y1="139.69" x2="265.73" y2="483.65" xlink:href="#linear-gradient-2"/><linearGradient id="linear-gradient-34" x1="282.77" y1="138.84" x2="255.13" y2="482.8" xlink:href="#linear-gradient-2"/><linearGradient id="linear-gradient-35" x1="310.54" y1="141.07" x2="282.9" y2="485.03" xlink:href="#linear-gradient-2"/><linearGradient id="linear-gradient-36" x1="391.24" y1="147.56" x2="363.6" y2="491.52" xlink:href="#linear-gradient-2"/><linearGradient id="linear-gradient-37" x1="490.72" y1="155.55" x2="463.09" y2="499.51" xlink:href="#linear-gradient-2"/><linearGradient id="linear-gradient-38" x1="320.83" y1="141.9" x2="293.19" y2="485.86" xlink:href="#linear-gradient-2"/><linearGradient id="linear-gradient-39" x1="425.88" y1="150.34" x2="398.24" y2="494.3" xlink:href="#linear-gradient-2"/><linearGradient id="linear-gradient-40" x1="356.87" y1="144.8" x2="329.23" y2="488.76" xlink:href="#linear-gradient-2"/><linearGradient id="linear-gradient-41" x1="259.6" y1="136.98" x2="231.96" y2="480.94" xlink:href="#linear-gradient-2"/><linearGradient id="linear-gradient-42" x1="245.27" y1="135.83" x2="217.63" y2="479.79" xlink:href="#linear-gradient-2"/><linearGradient id="linear-gradient-43" x1="257.49" y1="136.81" x2="229.85" y2="480.77" xlink:href="#linear-gradient-2"/><linearGradient id="linear-gradient-44" x1="8.29" y1="-4.6" x2="84.97" y2="-4.6" gradientTransform="translate(35.75 134.81) rotate(-14.41)" gradientUnits="userSpaceOnUse"><stop offset="0" stop-color="#efdabf"/><stop offset="1" stop-color="#fdecd8"/></linearGradient><linearGradient id="linear-gradient-45" x1="111.99" y1=".53" x2="194.1" y2=".53" xlink:href="#linear-gradient-44"/><linearGradient id="linear-gradient-46" x1="-25.97" y1="-4.99" x2="68.53" y2="-4.99" gradientTransform="translate(35.75 134.81) rotate(-14.41)" gradientUnits="userSpaceOnUse"><stop offset="0" stop-color="#ff6687"/><stop offset="1" stop-color="#e41b66"/></linearGradient><linearGradient id="linear-gradient-47" x1="67.23" y1="-1.64" x2="135.15" y2="-1.64" xlink:href="#linear-gradient-46"/><linearGradient id="linear-gradient-48" x1="136.16" y1="-2.55" x2="249.67" y2="-2.55" xlink:href="#linear-gradient-46"/><linearGradient id="linear-gradient-49" x1="127.32" y1="-352.27" x2="300.55" y2="-114.87" gradientTransform="translate(1.9 466.43) rotate(-.02)" gradientUnits="userSpaceOnUse"><stop offset="0" stop-color="#7d407c"/><stop offset="1" stop-color="#4c1f3c"/></linearGradient><linearGradient id="linear-gradient-50" x1="93.73" y1="-222.09" x2="266.98" y2="15.32" gradientTransform="translate(39.15 324.81)" xlink:href="#linear-gradient-49"/><linearGradient id="linear-gradient-51" x1="139.64" y1="79.27" x2="213.26" y2="155.91" gradientTransform="translate(321.39 147.6) rotate(166.84)" xlink:href="#linear-gradient-49"/><linearGradient id="linear-gradient-52" x1="143.8" y1="75.28" x2="217.42" y2="151.92" gradientTransform="translate(350.39 85.9) rotate(147.06)" xlink:href="#linear-gradient-49"/><linearGradient id="linear-gradient-53" x1="43.13" y1="25.35" x2="297.64" y2="374.13" gradientTransform="translate(35.75 134.81) rotate(-14.41)" xlink:href="#linear-gradient-49"/><linearGradient id="linear-gradient-54" x1="-25.15" y1="-18.23" x2="62.17" y2="-18.23" xlink:href="#linear-gradient-44"/><linearGradient id="linear-gradient-55" x1="146.47" y1="-24.02" x2="249.23" y2="-24.02" xlink:href="#linear-gradient-44"/><linearGradient id="linear-gradient-56" x1="112.34" y1="-25.84" x2="215.29" y2="-25.84" xlink:href="#linear-gradient-46"/><linearGradient id="linear-gradient-57" x1="15.58" y1="-25.66" x2="107.57" y2="-25.66" xlink:href="#linear-gradient-46"/><linearGradient id="linear-gradient-58" x1="76.47" y1="-27.68" x2="156.5" y2="-27.68" xlink:href="#linear-gradient-44"/><linearGradient id="linear-gradient-59" x1="188.5" y1="307.99" x2="335.98" y2="342.36" gradientTransform="translate(8.75 73.65) rotate(-10.17)" gradientUnits="userSpaceOnUse"><stop offset="0" stop-color="#bb463d"/><stop offset="1" stop-color="#e57351"/></linearGradient><linearGradient id="linear-gradient-60" x1="189.4" y1="304.21" x2="337.52" y2="338.73" gradientTransform="translate(8.75 73.65) rotate(-10.17)" gradientUnits="userSpaceOnUse"><stop offset="0" stop-color="#ef936f"/><stop offset="1" stop-color="#f48a64"/></linearGradient><linearGradient id="linear-gradient-61" x1="334.47" y1="326.18" x2="337.59" y2="326.91" gradientTransform="translate(8.75 73.65) rotate(-10.17)" gradientUnits="userSpaceOnUse"><stop offset="0" stop-color="#ef936f"/><stop offset="1" stop-color="#fcc190"/></linearGradient><linearGradient id="linear-gradient-62" x1="118.7" y1="328.74" x2="170.2" y2="340.74" xlink:href="#linear-gradient-59"/><linearGradient id="linear-gradient-63" x1="131.47" y1="324.51" x2="152.23" y2="347.37" gradientTransform="translate(8.75 73.65) rotate(-10.17)" gradientUnits="userSpaceOnUse"><stop offset="0" stop-color="#bb463d"/><stop offset="1" stop-color="#932927"/></linearGradient><linearGradient id="linear-gradient-64" x1="194.21" y1="294.5" x2="200.09" y2="295.87" xlink:href="#linear-gradient-59"/><linearGradient id="linear-gradient-65" x1="198.17" y1="294.95" x2="202.41" y2="295.94" xlink:href="#linear-gradient-60"/><linearGradient id="linear-gradient-66" x1="155.82" y1="273.68" x2="359.49" y2="321.15" xlink:href="#linear-gradient-59"/><linearGradient id="linear-gradient-67" x1="159.67" y1="271.28" x2="360.79" y2="318.15" xlink:href="#linear-gradient-60"/><linearGradient id="linear-gradient-68" x1="336.36" y1="382.67" x2="340.86" y2="387.62" xlink:href="#linear-gradient-63"/><linearGradient id="linear-gradient-69" x1="228.44" y1="363.68" x2="298.85" y2="380.09" xlink:href="#linear-gradient-59"/><linearGradient id="linear-gradient-70" x1="248.37" y1="356.48" x2="274.82" y2="385.62" xlink:href="#linear-gradient-63"/><linearGradient id="linear-gradient-71" x1="92.24" y1="260.35" x2="339.77" y2="318.03" gradientTransform="translate(8.75 73.65) rotate(-10.17)" gradientUnits="userSpaceOnUse"><stop offset="0" stop-color="#bbeae1"/><stop offset="1" stop-color="#c9fef5"/></linearGradient><linearGradient id="linear-gradient-72" x1="93.46" y1="258.38" x2="339.82" y2="315.79" gradientTransform="translate(8.75 73.65) rotate(-10.17)" gradientUnits="userSpaceOnUse"><stop offset="0" stop-color="#c9fef5"/><stop offset="1" stop-color="#e9fffb"/></linearGradient><linearGradient id="linear-gradient-73" x1="111.45" y1="276.45" x2="269.97" y2="276.45" gradientTransform="translate(8.75 73.65) rotate(-10.17)" gradientUnits="userSpaceOnUse"><stop offset="0" stop-color="#4071b5"/><stop offset="1" stop-color="#0a99e4"/></linearGradient><linearGradient id="linear-gradient-74" x1="131.66" y1="273.72" x2="295.06" y2="273.72" xlink:href="#linear-gradient-73"/><linearGradient id="linear-gradient-75" x1="152.51" y1="271.19" x2="320.94" y2="271.19" xlink:href="#linear-gradient-73"/><linearGradient id="linear-gradient-76" x1="255.02" y1="351.64" y2="351.64" xlink:href="#linear-gradient-73"/><linearGradient id="linear-gradient-77" x1="285.1" y1="341.35" x2="295.64" y2="341.35" xlink:href="#linear-gradient-73"/><linearGradient id="linear-gradient-78" x1="310.22" y1="331.76" x2="320.96" y2="331.76" xlink:href="#linear-gradient-73"/><linearGradient id="linear-gradient-79" x1="106.79" y1="297.48" x2="122.91" y2="301.24" xlink:href="#linear-gradient-59"/><linearGradient id="linear-gradient-80" x1="110.41" y1="302.21" x2="124.18" y2="305.42" xlink:href="#linear-gradient-60"/><linearGradient id="linear-gradient-81" x1="79.74" y1="284.39" x2="278.19" y2="330.64" xlink:href="#linear-gradient-59"/><linearGradient id="linear-gradient-82" x1="84.92" y1="281.82" x2="281.98" y2="327.75" xlink:href="#linear-gradient-60"/><linearGradient id="linear-gradient-83" x1="251.29" y1="415.47" x2="255.77" y2="420.4" xlink:href="#linear-gradient-63"/><linearGradient id="linear-gradient-84" x1="96.63" y1="335.41" x2="255.85" y2="372.52" xlink:href="#linear-gradient-59"/><linearGradient id="linear-gradient-85" x1="97.81" y1="330.5" x2="258.49" y2="367.95" xlink:href="#linear-gradient-60"/><linearGradient id="linear-gradient-86" x1="255.1" y1="353.64" x2="258.49" y2="354.43" xlink:href="#linear-gradient-61"/><linearGradient id="Naamloos_verloop_7" x1="-61.25" y1="298.44" x2="-10.08" y2="308.97" gradientTransform="translate(116.6 -28.01) rotate(-24.32)" gradientUnits="userSpaceOnUse"><stop offset="0" stop-color="#ffe988"/><stop offset=".25" stop-color="#ba801e"/><stop offset=".5" stop-color="#fbec83"/><stop offset=".75" stop-color="#ba801f"/><stop offset="1" stop-color="#ffe97f"/></linearGradient><linearGradient id="Naamloos_verloop_31" x1="206.11" y1="396.29" x2="256.46" y2="396.29" gradientTransform="translate(-103.47 -72.42) rotate(-12.68)" gradientUnits="userSpaceOnUse"><stop offset="0" stop-color="#331e21"/><stop offset=".49" stop-color="#2b2727"/><stop offset="1" stop-color="#3f3937"/></linearGradient><linearGradient id="linear-gradient-87" x1="285.32" y1="237.51" x2="280.03" y2="288.73" gradientTransform="matrix(1, 0, 0, 1, 0, 0)" gradientUnits="userSpaceOnUse"><stop offset="0" stop-color="#965a4a"/><stop offset=".2" stop-color="#935848"/><stop offset=".5" stop-color="#935848"/><stop offset=".6" stop-color="#9b604e"/><stop offset=".73" stop-color="#a16552"/><stop offset="1" stop-color="#966444"/></linearGradient><linearGradient id="linear-gradient-88" x1="284.87" y1="272.43" x2="284.66" y2="236.37" gradientTransform="translate(105.37 -84.92) rotate(18.88)" xlink:href="#linear-gradient-87"/><linearGradient id="Naamloos_verloop_22" x1="-699.18" y1="853.02" x2="-691.83" y2="853.02" gradientTransform="translate(4929.22 6583.6) scale(6.54 -7.38)" gradientUnits="userSpaceOnUse"><stop offset="0" stop-color="#eee"/><stop offset="1" stop-color="#dce3ea"/></linearGradient><linearGradient id="Naamloos_verloop_51" x1="4998.33" y1="-2484.13" x2="4999.69" y2="-2484.13" gradientTransform="translate(18737.4 -36637.34) rotate(90.01) scale(7.38 -7.38)" gradientUnits="userSpaceOnUse"><stop offset="0" stop-color="#f1b505"/><stop offset="1" stop-color="#d89c05"/></linearGradient><linearGradient id="Naamloos_verloop_51-2" x1="5002.91" x2="5004.27" xlink:href="#Naamloos_verloop_51"/></defs><path class="cls-69" d="M488.13,327.38c0-16.75-2.91-28.89-17.41-37.69-14.54-8.82-40.04-13.88-85.26-16.94h-.2c-37.75,0-78.08,4.12-107.87,11.05-38.18,8.87-57.54,21.35-57.54,37.1,0,12.28,8.07,24.11,22.95,33.92-50.08,5.02-89.36,22.34-115.87,34.04-1.88,.83-3.69,1.62-5.43,2.39-18.05,7.9-30.01,13.79-31.75,23.3-1.23,6.78,2.9,14.37,13.41,24.61,24.78,24.16,64.7,28.92,139.41,29.99,3.62,.05,7.33,.08,11.11,.08,79.91,0,193.2-11.68,215.23-39.4,3.68-4.63,4.9-9.61,3.62-14.78-6.14-24.84-31.72-39.19-48.58-46.11,34.77-9.98,64.17-21.24,64.17-41.55Z"/><path class="cls-69" d="M423.96,368.93c34.77-9.98,64.17-21.24,64.17-41.55,0-16.75-2.91-28.89-17.41-37.69-1.22-.74-2.53-1.45-3.91-2.14l-18.78,7.08-21.68,46.3-15.12,24.77,25.1,9.07c-4.35-2.34-8.59-4.28-12.38-5.84Z"/><g><path class="cls-109" d="M448.58,436.19c-51.61-1.11-93.33-1.86-99.26-1.53-9.83,.53,17.39-12.43,118.57-28.33-8-20.44-30.3-32.93-47.32-39.53-5.29,1.07-10.58,2.14-15.88,3.17-20.37,3.97-41.02,7.16-61.91,9.38-33.63,3.58-67.68,4.79-101.62,3.68-1.77-.04-3.53-.11-5.29-.19-6.72-.27-13.44-.6-20.14-1.06-1.41-.1-2.33-.69-2.79-1.43-2.57-.74-4.93-1.88-6.22-3.68-.94-1.31-1.03-2.81-.65-4.23,.31-1.17,1.32-2.47,.95-3.68-.64-2.1-4.78-2.76-7.27-3.07-4.2-.51-8.44-.04-12.63,.28-1.43,.11-2.85,.22-4.28,.33-24.72,7.71-44.97,17.04-60.14,23.68-2.07,.91-4.04,1.78-5.93,2.63,16.93,2.83,27.04,5,28.06,5.22,18.07,2.89,35.71,6.36,52.68,10.51l19.14-5.96,6.37-1.64-.52,3.81-107.02,36.7c24.16,16.1,61.23,19.94,127.13,20.88,70.89,1.02,164.44-7.4,205.96-25.96Z"/><path class="cls-4" d="M448.58,436.19c-51.61-1.11-93.33-1.86-99.26-1.53-9.83,.53,17.39-12.43,118.57-28.33-8-20.44-30.3-32.93-47.32-39.53-5.29,1.07-10.58,2.14-15.88,3.17-20.37,3.97-41.02,7.16-61.91,9.38-33.63,3.58-67.68,4.79-101.62,3.68-1.77-.04-3.53-.11-5.29-.19-6.72-.27-13.44-.6-20.14-1.06-1.41-.1-2.33-.69-2.79-1.43-2.57-.74-4.93-1.88-6.22-3.68-.94-1.31-1.03-2.81-.65-4.23,.31-1.17,1.32-2.47,.95-3.68-.64-2.1-4.78-2.76-7.27-3.07-4.2-.51-8.44-.04-12.63,.28-1.43,.11-2.85,.22-4.28,.33-24.72,7.71-44.97,17.04-60.14,23.68-2.07,.91-4.04,1.78-5.93,2.63,16.93,2.83,27.04,5,28.06,5.22,18.07,2.89,35.71,6.36,52.68,10.51l19.14-5.96,6.37-1.64-.52,3.81-107.02,36.7c24.16,16.1,61.23,19.94,127.13,20.88,70.89,1.02,164.44-7.4,205.96-25.96Z"/><path class="cls-106" d="M96.22,422.61c2.08,3.08,5.05,6.51,9.04,10.4,1.08,1.06,2.21,2.06,3.35,3.04l74.68-23.26c-19.05,2.49-49.94,6.26-87.07,9.82Z"/><path class="cls-119" d="M96.22,422.61c2.08,3.08,5.05,6.51,9.04,10.4,1.08,1.06,2.21,2.06,3.35,3.04l74.68-23.26c-19.05,2.49-49.94,6.26-87.07,9.82Z"/><path class="cls-80" d="M227.82,358.39c4.3-.55,8.66-1.42,12.77-2.57,2.26-.63,4.85-1.39,7.1-2.44-14.59,1.22-28.3,3.52-41.08,6.47,1.31,.3,2.74,.4,4.07,.42,5.82,.08,11.47-1.16,17.15-1.88Z"/><path class="cls-33" d="M227.82,358.39c4.3-.55,8.66-1.42,12.77-2.57,2.26-.63,4.85-1.39,7.1-2.44-14.59,1.22-28.3,3.52-41.08,6.47,1.31,.3,2.74,.4,4.07,.42,5.82,.08,11.47-1.16,17.15-1.88Z"/><path class="cls-98" d="M116.78,392.62c-.72,.33-1.43,.65-2.12,.97,10.16,1.25,20.24,2.66,30.19,4.26-1.03-.22-11.14-2.39-28.06-5.22Z"/><path class="cls-123" d="M116.78,392.62c-.72,.33-1.43,.65-2.12,.97,10.16,1.25,20.24,2.66,30.19,4.26-1.03-.22-11.14-2.39-28.06-5.22Z"/><path class="cls-89" d="M116.78,392.62c-.72,.33-1.43,.65-2.12,.97,10.16,1.25,20.24,2.66,30.19,4.26-1.03-.22-11.14-2.39-28.06-5.22Z"/><path class="cls-54" d="M199.75,365.7c2.5,.3,6.63,.97,7.27,3.07,.37,1.21-.64,2.51-.95,3.68-.38,1.43-.29,2.92,.65,4.23,1.29,1.79,3.65,2.94,6.22,3.68,.46,.74,1.38,1.34,2.79,1.43,6.7,.46,13.42,.79,20.14,1.06,1.76,.08,3.53,.15,5.29,.19,33.94,1.12,67.99-.09,101.62-3.68,20.89-2.22,41.54-5.41,61.91-9.38,5.3-1.03,10.59-2.1,15.88-3.17-2.19-.85-4.3-1.61-6.27-2.27,9.06-2.51,18.07-5.09,26.49-7.89-3.34,.12-6.78-.02-9.83-.91-4.47-1.31-5.99-4.17-5.11-7.43,.18-.68,.9-.95,1.64-.92-.03-.32,.14-.64,.61-.92,5.17-3.03,12.31-3.65,18.77-3.91,6.6-.27,13.19,.09,19.79-.06,1.97-.04,3.97-.13,6-.22,2.19-1.51,4.13-3.09,5.8-4.74-.63-.06-1.26-.11-1.89-.19-2.7-.35-6.24-1.02-7.52-2.96-.46-.7-.2-1.35,.66-1.79,1.88-.97,4-1.57,6.22-2,2.8-.98,5.62-1.94,8.55-2.62,.42-1.48,.66-3,.66-4.59,0-2.09-.04-4.1-.15-6.04-9.9-.24-19.81-.63-29.71-.82-10.59-.21-21.23,.43-31.8-.13-4.73-.25-9.57-.67-14.09-1.75-3.47-.83-7.26-2.13-8.99-4.57-1.52-2.14-1.17-4.77,1.44-6.38,2.99-1.85,7.44-2.29,11.23-2.57,7.83-.59,15.52,.19,23.33,.22,15.6,.04,30.95,2.1,46.4,3.25-1.54-4.57-4.03-8.61-7.99-12.17-6.2,.49-12.58,.45-18.68,.42-11.4-.05-22.79-.37-34.2-.36-22.09,.02-44.34-.03-66.1-3.09-1.3-.18-1.84-1.57-.81-2.19,6.17-3.68,14.58-4.52,22.36-4.78,7.39-.25,14.77,.15,22.15,.3,10.05,.21,20.07,.73,30.11,1.09,10.03,.36,19.99,.27,30-.12-9.14-3.5-21.48-6.3-38.12-8.5-1.6,.02-3.2,.03-4.8,.06-23.21,.44-46.32,2.21-69.36,4.17-17.14,1.46-34.29,2.85-51.41,4.4-5.95,.54-11.94,1.01-17.94,1.03-2.17,0-4.93,.05-7.49-.26-6.69,1.77-12.91,3.73-18.49,5.87,2.17,.12,4.3,.3,6.32,.49,17.73,1.67,34.69,6.25,52.57,7.28,5.58,.32,11.19,.28,16.76-.09,6.1-.4,12.1-1.34,18.22-1.63,11.33-.54,22.55,.93,32.2,5.34,1.35,.62,1.09,2.04-.44,2.39-6.22,1.42-12.77,1.65-19.24,1.95-6.97,.31-13.43,1.07-20.1,2.57-5.52,1.24-10.97,2.63-16.59,3.61-5.32,.93-10.6,1.25-16.05,1.47-9.63,.39-19.22,1.32-28.88,1.12-8.75-.18-17.9-1.24-24.65-5.53-5.7-3.63-8.83-8.71-14.88-11.88-4.65,2.83-8.31,5.91-10.78,9.24,1.58,.15,3.15,.32,4.71,.54,2.43,.34,7.07,.93,7.78,3.06,.71,2.12-2.92,2.92-5.12,3.19-3.54,.42-7.16,.63-10.77,.83-.14,.82-.22,1.66-.22,2.5,0,2.53,.38,5.02,1.11,7.46,1-.22,1.99-.44,2.98-.69,.7-.17,1.25-.03,1.65,.25,2.83-.45,5.68-.82,8.63-.8,2.82,.02,5.65,.18,8.45,.42,4.54,.4,13.21,.92,14.81,4.76,.26,.63-.32,1.49-1.28,1.61-3.94,.49-7.92,.2-11.88,.54-4.22,.37-8.29,1.38-12.34,2.28-2.03,.45-4.11,.86-6.2,1.22,1.24,1.74,2.68,3.44,4.28,5.1,4.38,.24,8.69,.78,12.63,2.21,4.3,1.57,9.12,5.03,6.56,8.72-.49,.7-1.15,1.32-1.92,1.88,.7,.39,1.4,.78,2.12,1.16-1.6,.11-3.18,.23-4.76,.36-2.24,1.04-4.83,1.8-7.1,2.44-4.11,1.15-8.46,2.02-12.77,2.57-5.68,.72-11.32,1.96-17.15,1.88-1.33-.02-2.76-.11-4.07-.42-8.33,1.92-16.25,4.11-23.76,6.46,1.43-.11,2.85-.22,4.28-.33,4.19-.32,8.43-.79,12.63-.28Zm217.37-10.36c-1.11,1.59-3.22,2.77-5.14,3.83-2.69,1.48-5.55,2.72-8.67,3.69-6.73,2.09-13.97,2.98-21.04,4.28-8.25,1.51-16.46,2.89-25.01,3.09-6.49,.15-13.47,.64-19.71-.95-2.64-.67-5.39-1.74-6.41-3.73-.99-1.93,.13-3.92,2.23-5.23,2.5-1.55,5.95-2.03,9.16-2.17,4.02-.17,8.09-.06,12.12-.14,5.82-.12,11.62-.32,17.43-.55,4.87-.7,9.67-1.65,14.39-2.73,7.01-1.59,14.1-4.23,21.48-4.76,4.3-.31,12.05,1.24,9.17,5.38Zm-72.78-11.05c10.27-.04,20.53,.34,30.81,.22,3.18-.04,6.36-.06,9.51,.21,1.66,.14,3.76,.2,5.15,.97,3.65,2.02-2.34,4.21-4.43,4.86-8.72,2.69-18.76,3.19-28.16,3.39-8.23,.19-17.69-.21-23.83-4.63-.55-.4-.61-.86-.41-1.27-2.75-3.48,8.63-3.75,11.36-3.76Zm84.88-18.09c11.24-2.36,23.46-3.4,33.11,2.28,.78,.46,.63,1.38,0,1.85-2.4,1.8-5.64,2.53-8.85,3.3-3.85,.92-7.62,1.92-11.31,3.15-5.49,1.84-10.91,3.98-16.78,5.14-4.2,.83-8.63,1.26-12.99,1.27-8.57,.03-18.22-1.79-21.37-8.13-.33-.66,.1-1.15,.77-1.4,.13-.56,.68-1.05,1.72-1.02,12.31,.36,24.16-4.02,35.71-6.45Zm-106.61-8.29c.19-.28,.51-.52,1-.66,7.72-2.19,15.68-4.27,24.06-4.61,4.53-.18,8.85,.42,13.26,1,4.42,.58,8.83,1.22,13.19,2.01,4.38,.79,8.75,1.71,12.87,3.05,2.78,.9,6.03,2.16,7.4,4.22,.45,.68,.21,1.36-.66,1.79-4.31,2.13-9.71,2.21-14.75,1.87-5.46-.37-10.8-.89-16.28-1.11-13.74-.56-27.15-2.79-40.51-5.01-2.1-.35-1.45-2.46,.42-2.54Zm-50.18,2.71c25.19-4.83,47.54,9.67,72.51,8.06,.62-.04,1.07,.12,1.36,.37,3.52-.17,7.04-.28,10.54,.1,3.59,.39,9.64,2.07,7.86,5.44-1.36,2.57-5.99,3.72-9.33,4.43-6.22,1.34-12.58,2.04-19.1,1.8-6.31-.23-12.53-1.21-18.5-2.66-3.67-.9-7.19-1.94-10.95-2.64-7.59-1.43-15.3-2.65-22.58-4.79-5.53-1.62-12.46-4.08-13.18-8.84-.08-.56,.64-1.13,1.35-1.26Zm51.97,36.27c-3.63,.8-7.69,.5-11.43,.57-5.79,.11-10.9,2.69-16.17,4.14-6.6,1.82-13.5,1.42-20.43,1.65-4.96,.17-11.16,.28-14.88-2.5-4.03-3.02-2.63-7.86-1.72-11.52,.11-.43,.42-.69,.82-.83,1.93-2.89,8.11-2.79,11.93-2.63,3,.12,5.98,.3,8.93,.73,4.01,.58,7.98,1.46,12.12,1.47,3.8,0,7.55-.77,11.32-1.05,2.93-.22,5.79-.04,8.66,.37,4.47,.63,10.53,1.69,13.4,4.46,2.23,2.15,.86,4.39-2.56,5.15Zm-77.04-19.86c-1.57-.69-.79-2.19,.59-2.42,.09-.17,.23-.33,.46-.48,5.61-3.74,14.06-1.28,20.44-.72,4.88,.43,10.24,.54,14.68,2.21,1.94,.73,3.6,1.97,3.6,3.63,0,1.59-1.63,2.55-3.66,2.93-5.04,.95-10.74-.11-15.8-.49-3.2-.24-6.33-.18-9.46-.83-3.9-.81-7.42-2.31-10.85-3.82Zm-27.38,26.13c1.6-2.36,9.04-2.09,11.79-2.04,7.15,.14,14.29,.82,21.34,1.62,4.49,.51,9.63,.8,13.87,2.08,2.71,.81,5.21,1.81,8.15,2.18,3.39,.42,6.99,.12,10.41-.02,7.13-.28,14.02,.1,21.11,.63,4.55,.34,9.15,.31,13.68,.72,3.95,.36,8.37,1.11,10.57,3.72,.52,.61,.18,1.43-.66,1.79-3.45,1.49-7.76,1.67-11.7,1.74-4.25,.08-8.45,.07-12.7,.3-5.12,.28-10.29,.6-15.28,1.49-4.82,.86-9.4,2.02-14.38,2.41-9.95,.78-19.54-1.14-29.41-1.31-3.85-.07-7.7-.04-11.53-.36-3.28-.27-6.92-.69-9.63-2.14-2.37-1.26-2.98-3.21-2.95-5.22,.03-2.03,.66-4.2-2.59-5.06-1.79-.47-1.47-2.22-.1-2.54Z"/><path class="cls-48" d="M199.75,365.7c2.5,.3,6.63,.97,7.27,3.07,.37,1.21-.64,2.51-.95,3.68-.38,1.43-.29,2.92,.65,4.23,1.29,1.79,3.65,2.94,6.22,3.68,.46,.74,1.38,1.34,2.79,1.43,6.7,.46,13.42,.79,20.14,1.06,1.76,.08,3.53,.15,5.29,.19,33.94,1.12,67.99-.09,101.62-3.68,20.89-2.22,41.54-5.41,61.91-9.38,5.3-1.03,10.59-2.1,15.88-3.17-2.19-.85-4.3-1.61-6.27-2.27,9.06-2.51,18.07-5.09,26.49-7.89-3.34,.12-6.78-.02-9.83-.91-4.47-1.31-5.99-4.17-5.11-7.43,.18-.68,.9-.95,1.64-.92-.03-.32,.14-.64,.61-.92,5.17-3.03,12.31-3.65,18.77-3.91,6.6-.27,13.19,.09,19.79-.06,1.97-.04,3.97-.13,6-.22,2.19-1.51,4.13-3.09,5.8-4.74-.63-.06-1.26-.11-1.89-.19-2.7-.35-6.24-1.02-7.52-2.96-.46-.7-.2-1.35,.66-1.79,1.88-.97,4-1.57,6.22-2,2.8-.98,5.62-1.94,8.55-2.62,.42-1.48,.66-3,.66-4.59,0-2.09-.04-4.1-.15-6.04-9.9-.24-19.81-.63-29.71-.82-10.59-.21-21.23,.43-31.8-.13-4.73-.25-9.57-.67-14.09-1.75-3.47-.83-7.26-2.13-8.99-4.57-1.52-2.14-1.17-4.77,1.44-6.38,2.99-1.85,7.44-2.29,11.23-2.57,7.83-.59,15.52,.19,23.33,.22,15.6,.04,30.95,2.1,46.4,3.25-1.54-4.57-4.03-8.61-7.99-12.17-6.2,.49-12.58,.45-18.68,.42-11.4-.05-22.79-.37-34.2-.36-22.09,.02-44.34-.03-66.1-3.09-1.3-.18-1.84-1.57-.81-2.19,6.17-3.68,14.58-4.52,22.36-4.78,7.39-.25,14.77,.15,22.15,.3,10.05,.21,20.07,.73,30.11,1.09,10.03,.36,19.99,.27,30-.12-9.14-3.5-21.48-6.3-38.12-8.5-1.6,.02-3.2,.03-4.8,.06-23.21,.44-46.32,2.21-69.36,4.17-17.14,1.46-34.29,2.85-51.41,4.4-5.95,.54-11.94,1.01-17.94,1.03-2.17,0-4.93,.05-7.49-.26-6.69,1.77-12.91,3.73-18.49,5.87,2.17,.12,4.3,.3,6.32,.49,17.73,1.67,34.69,6.25,52.57,7.28,5.58,.32,11.19,.28,16.76-.09,6.1-.4,12.1-1.34,18.22-1.63,11.33-.54,22.55,.93,32.2,5.34,1.35,.62,1.09,2.04-.44,2.39-6.22,1.42-12.77,1.65-19.24,1.95-6.97,.31-13.43,1.07-20.1,2.57-5.52,1.24-10.97,2.63-16.59,3.61-5.32,.93-10.6,1.25-16.05,1.47-9.63,.39-19.22,1.32-28.88,1.12-8.75-.18-17.9-1.24-24.65-5.53-5.7-3.63-8.83-8.71-14.88-11.88-4.65,2.83-8.31,5.91-10.78,9.24,1.58,.15,3.15,.32,4.71,.54,2.43,.34,7.07,.93,7.78,3.06,.71,2.12-2.92,2.92-5.12,3.19-3.54,.42-7.16,.63-10.77,.83-.14,.82-.22,1.66-.22,2.5,0,2.53,.38,5.02,1.11,7.46,1-.22,1.99-.44,2.98-.69,.7-.17,1.25-.03,1.65,.25,2.83-.45,5.68-.82,8.63-.8,2.82,.02,5.65,.18,8.45,.42,4.54,.4,13.21,.92,14.81,4.76,.26,.63-.32,1.49-1.28,1.61-3.94,.49-7.92,.2-11.88,.54-4.22,.37-8.29,1.38-12.34,2.28-2.03,.45-4.11,.86-6.2,1.22,1.24,1.74,2.68,3.44,4.28,5.1,4.38,.24,8.69,.78,12.63,2.21,4.3,1.57,9.12,5.03,6.56,8.72-.49,.7-1.15,1.32-1.92,1.88,.7,.39,1.4,.78,2.12,1.16-1.6,.11-3.18,.23-4.76,.36-2.24,1.04-4.83,1.8-7.1,2.44-4.11,1.15-8.46,2.02-12.77,2.57-5.68,.72-11.32,1.96-17.15,1.88-1.33-.02-2.76-.11-4.07-.42-8.33,1.92-16.25,4.11-23.76,6.46,1.43-.11,2.85-.22,4.28-.33,4.19-.32,8.43-.79,12.63-.28Zm217.37-10.36c-1.11,1.59-3.22,2.77-5.14,3.83-2.69,1.48-5.55,2.72-8.67,3.69-6.73,2.09-13.97,2.98-21.04,4.28-8.25,1.51-16.46,2.89-25.01,3.09-6.49,.15-13.47,.64-19.71-.95-2.64-.67-5.39-1.74-6.41-3.73-.99-1.93,.13-3.92,2.23-5.23,2.5-1.55,5.95-2.03,9.16-2.17,4.02-.17,8.09-.06,12.12-.14,5.82-.12,11.62-.32,17.43-.55,4.87-.7,9.67-1.65,14.39-2.73,7.01-1.59,14.1-4.23,21.48-4.76,4.3-.31,12.05,1.24,9.17,5.38Zm-72.78-11.05c10.27-.04,20.53,.34,30.81,.22,3.18-.04,6.36-.06,9.51,.21,1.66,.14,3.76,.2,5.15,.97,3.65,2.02-2.34,4.21-4.43,4.86-8.72,2.69-18.76,3.19-28.16,3.39-8.23,.19-17.69-.21-23.83-4.63-.55-.4-.61-.86-.41-1.27-2.75-3.48,8.63-3.75,11.36-3.76Zm84.88-18.09c11.24-2.36,23.46-3.4,33.11,2.28,.78,.46,.63,1.38,0,1.85-2.4,1.8-5.64,2.53-8.85,3.3-3.85,.92-7.62,1.92-11.31,3.15-5.49,1.84-10.91,3.98-16.78,5.14-4.2,.83-8.63,1.26-12.99,1.27-8.57,.03-18.22-1.79-21.37-8.13-.33-.66,.1-1.15,.77-1.4,.13-.56,.68-1.05,1.72-1.02,12.31,.36,24.16-4.02,35.71-6.45Zm-106.61-8.29c.19-.28,.51-.52,1-.66,7.72-2.19,15.68-4.27,24.06-4.61,4.53-.18,8.85,.42,13.26,1,4.42,.58,8.83,1.22,13.19,2.01,4.38,.79,8.75,1.71,12.87,3.05,2.78,.9,6.03,2.16,7.4,4.22,.45,.68,.21,1.36-.66,1.79-4.31,2.13-9.71,2.21-14.75,1.87-5.46-.37-10.8-.89-16.28-1.11-13.74-.56-27.15-2.79-40.51-5.01-2.1-.35-1.45-2.46,.42-2.54Zm-50.18,2.71c25.19-4.83,47.54,9.67,72.51,8.06,.62-.04,1.07,.12,1.36,.37,3.52-.17,7.04-.28,10.54,.1,3.59,.39,9.64,2.07,7.86,5.44-1.36,2.57-5.99,3.72-9.33,4.43-6.22,1.34-12.58,2.04-19.1,1.8-6.31-.23-12.53-1.21-18.5-2.66-3.67-.9-7.19-1.94-10.95-2.64-7.59-1.43-15.3-2.65-22.58-4.79-5.53-1.62-12.46-4.08-13.18-8.84-.08-.56,.64-1.13,1.35-1.26Zm51.97,36.27c-3.63,.8-7.69,.5-11.43,.57-5.79,.11-10.9,2.69-16.17,4.14-6.6,1.82-13.5,1.42-20.43,1.65-4.96,.17-11.16,.28-14.88-2.5-4.03-3.02-2.63-7.86-1.72-11.52,.11-.43,.42-.69,.82-.83,1.93-2.89,8.11-2.79,11.93-2.63,3,.12,5.98,.3,8.93,.73,4.01,.58,7.98,1.46,12.12,1.47,3.8,0,7.55-.77,11.32-1.05,2.93-.22,5.79-.04,8.66,.37,4.47,.63,10.53,1.69,13.4,4.46,2.23,2.15,.86,4.39-2.56,5.15Zm-77.04-19.86c-1.57-.69-.79-2.19,.59-2.42,.09-.17,.23-.33,.46-.48,5.61-3.74,14.06-1.28,20.44-.72,4.88,.43,10.24,.54,14.68,2.21,1.94,.73,3.6,1.97,3.6,3.63,0,1.59-1.63,2.55-3.66,2.93-5.04,.95-10.74-.11-15.8-.49-3.2-.24-6.33-.18-9.46-.83-3.9-.81-7.42-2.31-10.85-3.82Zm-27.38,26.13c1.6-2.36,9.04-2.09,11.79-2.04,7.15,.14,14.29,.82,21.34,1.62,4.49,.51,9.63,.8,13.87,2.08,2.71,.81,5.21,1.81,8.15,2.18,3.39,.42,6.99,.12,10.41-.02,7.13-.28,14.02,.1,21.11,.63,4.55,.34,9.15,.31,13.68,.72,3.95,.36,8.37,1.11,10.57,3.72,.52,.61,.18,1.43-.66,1.79-3.45,1.49-7.76,1.67-11.7,1.74-4.25,.08-8.45,.07-12.7,.3-5.12,.28-10.29,.6-15.28,1.49-4.82,.86-9.4,2.02-14.38,2.41-9.95,.78-19.54-1.14-29.41-1.31-3.85-.07-7.7-.04-11.53-.36-3.28-.27-6.92-.69-9.63-2.14-2.37-1.26-2.98-3.21-2.95-5.22,.03-2.03,.66-4.2-2.59-5.06-1.79-.47-1.47-2.22-.1-2.54Z"/><path class="cls-10" d="M199.75,365.7c2.5,.3,6.63,.97,7.27,3.07,.37,1.21-.64,2.51-.95,3.68-.38,1.43-.29,2.92,.65,4.23,1.29,1.79,3.65,2.94,6.22,3.68,.46,.74,1.38,1.34,2.79,1.43,6.7,.46,13.42,.79,20.14,1.06,1.76,.08,3.53,.15,5.29,.19,33.94,1.12,67.99-.09,101.62-3.68,20.89-2.22,41.54-5.41,61.91-9.38,5.3-1.03,10.59-2.1,15.88-3.17-2.19-.85-4.3-1.61-6.27-2.27,9.06-2.51,18.07-5.09,26.49-7.89-3.34,.12-6.78-.02-9.83-.91-4.47-1.31-5.99-4.17-5.11-7.43,.18-.68,.9-.95,1.64-.92-.03-.32,.14-.64,.61-.92,5.17-3.03,12.31-3.65,18.77-3.91,6.6-.27,13.19,.09,19.79-.06,1.97-.04,3.97-.13,6-.22,2.19-1.51,4.13-3.09,5.8-4.74-.63-.06-1.26-.11-1.89-.19-2.7-.35-6.24-1.02-7.52-2.96-.46-.7-.2-1.35,.66-1.79,1.88-.97,4-1.57,6.22-2,2.8-.98,5.62-1.94,8.55-2.62,.42-1.48,.66-3,.66-4.59,0-2.09-.04-4.1-.15-6.04-9.9-.24-19.81-.63-29.71-.82-10.59-.21-21.23,.43-31.8-.13-4.73-.25-9.57-.67-14.09-1.75-3.47-.83-7.26-2.13-8.99-4.57-1.52-2.14-1.17-4.77,1.44-6.38,2.99-1.85,7.44-2.29,11.23-2.57,7.83-.59,15.52,.19,23.33,.22,15.6,.04,30.95,2.1,46.4,3.25-1.54-4.57-4.03-8.61-7.99-12.17-6.2,.49-12.58,.45-18.68,.42-11.4-.05-22.79-.37-34.2-.36-22.09,.02-44.34-.03-66.1-3.09-1.3-.18-1.84-1.57-.81-2.19,6.17-3.68,14.58-4.52,22.36-4.78,7.39-.25,14.77,.15,22.15,.3,10.05,.21,20.07,.73,30.11,1.09,10.03,.36,19.99,.27,30-.12-9.14-3.5-21.48-6.3-38.12-8.5-1.6,.02-3.2,.03-4.8,.06-23.21,.44-46.32,2.21-69.36,4.17-17.14,1.46-34.29,2.85-51.41,4.4-5.95,.54-11.94,1.01-17.94,1.03-2.17,0-4.93,.05-7.49-.26-6.69,1.77-12.91,3.73-18.49,5.87,2.17,.12,4.3,.3,6.32,.49,17.73,1.67,34.69,6.25,52.57,7.28,5.58,.32,11.19,.28,16.76-.09,6.1-.4,12.1-1.34,18.22-1.63,11.33-.54,22.55,.93,32.2,5.34,1.35,.62,1.09,2.04-.44,2.39-6.22,1.42-12.77,1.65-19.24,1.95-6.97,.31-13.43,1.07-20.1,2.57-5.52,1.24-10.97,2.63-16.59,3.61-5.32,.93-10.6,1.25-16.05,1.47-9.63,.39-19.22,1.32-28.88,1.12-8.75-.18-17.9-1.24-24.65-5.53-5.7-3.63-8.83-8.71-14.88-11.88-4.65,2.83-8.31,5.91-10.78,9.24,1.58,.15,3.15,.32,4.71,.54,2.43,.34,7.07,.93,7.78,3.06,.71,2.12-2.92,2.92-5.12,3.19-3.54,.42-7.16,.63-10.77,.83-.14,.82-.22,1.66-.22,2.5,0,2.53,.38,5.02,1.11,7.46,1-.22,1.99-.44,2.98-.69,.7-.17,1.25-.03,1.65,.25,2.83-.45,5.68-.82,8.63-.8,2.82,.02,5.65,.18,8.45,.42,4.54,.4,13.21,.92,14.81,4.76,.26,.63-.32,1.49-1.28,1.61-3.94,.49-7.92,.2-11.88,.54-4.22,.37-8.29,1.38-12.34,2.28-2.03,.45-4.11,.86-6.2,1.22,1.24,1.74,2.68,3.44,4.28,5.1,4.38,.24,8.69,.78,12.63,2.21,4.3,1.57,9.12,5.03,6.56,8.72-.49,.7-1.15,1.32-1.92,1.88,.7,.39,1.4,.78,2.12,1.16-1.6,.11-3.18,.23-4.76,.36-2.24,1.04-4.83,1.8-7.1,2.44-4.11,1.15-8.46,2.02-12.77,2.57-5.68,.72-11.32,1.96-17.15,1.88-1.33-.02-2.76-.11-4.07-.42-8.33,1.92-16.25,4.11-23.76,6.46,1.43-.11,2.85-.22,4.28-.33,4.19-.32,8.43-.79,12.63-.28Zm217.37-10.36c-1.11,1.59-3.22,2.77-5.14,3.83-2.69,1.48-5.55,2.72-8.67,3.69-6.73,2.09-13.97,2.98-21.04,4.28-8.25,1.51-16.46,2.89-25.01,3.09-6.49,.15-13.47,.64-19.71-.95-2.64-.67-5.39-1.74-6.41-3.73-.99-1.93,.13-3.92,2.23-5.23,2.5-1.55,5.95-2.03,9.16-2.17,4.02-.17,8.09-.06,12.12-.14,5.82-.12,11.62-.32,17.43-.55,4.87-.7,9.67-1.65,14.39-2.73,7.01-1.59,14.1-4.23,21.48-4.76,4.3-.31,12.05,1.24,9.17,5.38Zm-72.78-11.05c10.27-.04,20.53,.34,30.81,.22,3.18-.04,6.36-.06,9.51,.21,1.66,.14,3.76,.2,5.15,.97,3.65,2.02-2.34,4.21-4.43,4.86-8.72,2.69-18.76,3.19-28.16,3.39-8.23,.19-17.69-.21-23.83-4.63-.55-.4-.61-.86-.41-1.27-2.75-3.48,8.63-3.75,11.36-3.76Zm84.88-18.09c11.24-2.36,23.46-3.4,33.11,2.28,.78,.46,.63,1.38,0,1.85-2.4,1.8-5.64,2.53-8.85,3.3-3.85,.92-7.62,1.92-11.31,3.15-5.49,1.84-10.91,3.98-16.78,5.14-4.2,.83-8.63,1.26-12.99,1.27-8.57,.03-18.22-1.79-21.37-8.13-.33-.66,.1-1.15,.77-1.4,.13-.56,.68-1.05,1.72-1.02,12.31,.36,24.16-4.02,35.71-6.45Zm-106.61-8.29c.19-.28,.51-.52,1-.66,7.72-2.19,15.68-4.27,24.06-4.61,4.53-.18,8.85,.42,13.26,1,4.42,.58,8.83,1.22,13.19,2.01,4.38,.79,8.75,1.71,12.87,3.05,2.78,.9,6.03,2.16,7.4,4.22,.45,.68,.21,1.36-.66,1.79-4.31,2.13-9.71,2.21-14.75,1.87-5.46-.37-10.8-.89-16.28-1.11-13.74-.56-27.15-2.79-40.51-5.01-2.1-.35-1.45-2.46,.42-2.54Zm-50.18,2.71c25.19-4.83,47.54,9.67,72.51,8.06,.62-.04,1.07,.12,1.36,.37,3.52-.17,7.04-.28,10.54,.1,3.59,.39,9.64,2.07,7.86,5.44-1.36,2.57-5.99,3.72-9.33,4.43-6.22,1.34-12.58,2.04-19.1,1.8-6.31-.23-12.53-1.21-18.5-2.66-3.67-.9-7.19-1.94-10.95-2.64-7.59-1.43-15.3-2.65-22.58-4.79-5.53-1.62-12.46-4.08-13.18-8.84-.08-.56,.64-1.13,1.35-1.26Zm51.97,36.27c-3.63,.8-7.69,.5-11.43,.57-5.79,.11-10.9,2.69-16.17,4.14-6.6,1.82-13.5,1.42-20.43,1.65-4.96,.17-11.16,.28-14.88-2.5-4.03-3.02-2.63-7.86-1.72-11.52,.11-.43,.42-.69,.82-.83,1.93-2.89,8.11-2.79,11.93-2.63,3,.12,5.98,.3,8.93,.73,4.01,.58,7.98,1.46,12.12,1.47,3.8,0,7.55-.77,11.32-1.05,2.93-.22,5.79-.04,8.66,.37,4.47,.63,10.53,1.69,13.4,4.46,2.23,2.15,.86,4.39-2.56,5.15Zm-77.04-19.86c-1.57-.69-.79-2.19,.59-2.42,.09-.17,.23-.33,.46-.48,5.61-3.74,14.06-1.28,20.44-.72,4.88,.43,10.24,.54,14.68,2.21,1.94,.73,3.6,1.97,3.6,3.63,0,1.59-1.63,2.55-3.66,2.93-5.04,.95-10.74-.11-15.8-.49-3.2-.24-6.33-.18-9.46-.83-3.9-.81-7.42-2.31-10.85-3.82Zm-27.38,26.13c1.6-2.36,9.04-2.09,11.79-2.04,7.15,.14,14.29,.82,21.34,1.62,4.49,.51,9.63,.8,13.87,2.08,2.71,.81,5.21,1.81,8.15,2.18,3.39,.42,6.99,.12,10.41-.02,7.13-.28,14.02,.1,21.11,.63,4.55,.34,9.15,.31,13.68,.72,3.95,.36,8.37,1.11,10.57,3.72,.52,.61,.18,1.43-.66,1.79-3.45,1.49-7.76,1.67-11.7,1.74-4.25,.08-8.45,.07-12.7,.3-5.12,.28-10.29,.6-15.28,1.49-4.82,.86-9.4,2.02-14.38,2.41-9.95,.78-19.54-1.14-29.41-1.31-3.85-.07-7.7-.04-11.53-.36-3.28-.27-6.92-.69-9.63-2.14-2.37-1.26-2.98-3.21-2.95-5.22,.03-2.03,.66-4.2-2.59-5.06-1.79-.47-1.47-2.22-.1-2.54Z"/><path class="cls-129" d="M197.52,408.35c-16.97-4.15-34.61-7.62-52.68-10.51l.1,.02c-10.08-1.56-20.26-2.95-30.5-4.18-18.93,8.77-27.25,15.51-18.22,28.92,37.13-3.56,68.03-7.33,87.07-9.82l14.23-4.43Z"/><path class="cls-130" d="M197.52,408.35c-16.97-4.15-34.61-7.62-52.68-10.51l.1,.02c-10.08-1.56-20.26-2.95-30.5-4.18-18.93,8.77-27.25,15.51-18.22,28.92,37.13-3.56,68.03-7.33,87.07-9.82l14.23-4.43Z"/><path class="cls-29" d="M197.52,408.35c-16.97-4.15-34.61-7.62-52.68-10.51l.1,.02c-10.08-1.56-20.26-2.95-30.5-4.18-18.93,8.77-27.25,15.51-18.22,28.92,37.13-3.56,68.03-7.33,87.07-9.82l14.23-4.43Z"/><path class="cls-18" d="M144.84,397.85c-9.95-1.59-20.02-3.01-30.19-4.26-.07,.03-.14,.07-.22,.1,10.23,1.23,20.42,2.61,30.5,4.18l-.1-.02Z"/><path class="cls-62" d="M144.84,397.85c-9.95-1.59-20.02-3.01-30.19-4.26-.07,.03-.14,.07-.22,.1,10.23,1.23,20.42,2.61,30.5,4.18l-.1-.02Z"/><path class="cls-88" d="M144.84,397.85c-9.95-1.59-20.02-3.01-30.19-4.26-.07,.03-.14,.07-.22,.1,10.23,1.23,20.42,2.61,30.5,4.18l-.1-.02Z"/><path class="cls-23" d="M144.84,397.85c-9.95-1.59-20.02-3.01-30.19-4.26-.07,.03-.14,.07-.22,.1,10.23,1.23,20.42,2.61,30.5,4.18l-.1-.02Z"/><path class="cls-117" d="M349.32,434.65c5.94-.32,47.66,.43,99.26,1.53,15.16-6.78,23.4-14.91,21.05-24.42-.46-1.87-1.06-3.68-1.74-5.44-101.18,15.9-128.39,28.86-118.57,28.33Z"/><path class="cls-32" d="M349.32,434.65c5.94-.32,47.66,.43,99.26,1.53,15.16-6.78,23.4-14.91,21.05-24.42-.46-1.87-1.06-3.68-1.74-5.44-101.18,15.9-128.39,28.86-118.57,28.33Z"/><path class="cls-8" d="M349.32,434.65c5.94-.32,47.66,.43,99.26,1.53,15.16-6.78,23.4-14.91,21.05-24.42-.46-1.87-1.06-3.68-1.74-5.44-101.18,15.9-128.39,28.86-118.57,28.33Z"/><path class="cls-103" d="M223.03,400.75l-6.37,1.64-19.14,5.96c2.15,.53,4.3,1.06,6.43,1.61,0,0-7.5,1.11-20.66,2.82l-74.68,23.26c2.17,1.87,4.46,3.6,6.88,5.22l107.02-36.7,.52-3.81Z"/><path class="cls-116" d="M223.03,400.75l-6.37,1.64-19.14,5.96c2.15,.53,4.3,1.06,6.43,1.61,0,0-7.5,1.11-20.66,2.82l-74.68,23.26c2.17,1.87,4.46,3.6,6.88,5.22l107.02-36.7,.52-3.81Z"/><path class="cls-76" d="M223.03,400.75l-6.37,1.64-19.14,5.96c2.15,.53,4.3,1.06,6.43,1.61,0,0-7.5,1.11-20.66,2.82l-74.68,23.26c2.17,1.87,4.46,3.6,6.88,5.22l107.02-36.7,.52-3.81Z"/><path class="cls-101" d="M203.95,409.96c-2.13-.55-4.28-1.08-6.43-1.61l-14.23,4.43c13.15-1.72,20.66-2.82,20.66-2.82Z"/><path class="cls-78" d="M203.95,409.96c-2.13-.55-4.28-1.08-6.43-1.61l-14.23,4.43c13.15-1.72,20.66-2.82,20.66-2.82Z"/><path class="cls-131" d="M203.95,409.96c-2.13-.55-4.28-1.08-6.43-1.61l-14.23,4.43c13.15-1.72,20.66-2.82,20.66-2.82Z"/><path class="cls-76" d="M203.95,409.96c-2.13-.55-4.28-1.08-6.43-1.61l-14.23,4.43c13.15-1.72,20.66-2.82,20.66-2.82Z"/><path class="cls-110" d="M446.87,342.55c-6.46,.26-13.6,.88-18.77,3.91-.47,.28-.64,.6-.61,.92-.74-.02-1.45,.24-1.64,.92-.88,3.26,.64,6.13,5.11,7.43,3.05,.89,6.49,1.03,9.83,.91,12.6-4.18,23.85-8.84,31.86-14.37-2.03,.09-4.03,.17-6,.22-6.6,.15-13.19-.21-19.79,.06Z"/><path class="cls-27" d="M322.18,320.45c13.36,2.22,26.77,4.46,40.51,5.01,5.48,.22,10.83,.73,16.28,1.11,5.04,.35,10.44,.26,14.75-1.87,.87-.43,1.11-1.11,.66-1.79-1.37-2.06-4.62-3.31-7.4-4.22-4.12-1.34-8.49-2.26-12.87-3.05-4.36-.79-8.77-1.43-13.19-2.01-4.42-.58-8.73-1.18-13.26-1-8.38,.34-16.34,2.42-24.06,4.61-.49,.14-.81,.39-1,.66-1.88,.08-2.53,2.19-.42,2.54Z"/><path class="cls-113" d="M333.39,349.32c6.14,4.42,15.61,4.81,23.83,4.63,9.4-.21,19.44-.7,28.16-3.39,2.09-.64,8.07-2.84,4.43-4.86-1.39-.77-3.49-.83-5.15-.97-3.16-.27-6.34-.25-9.51-.21-10.28,.12-20.54-.26-30.81-.22-2.73,0-14.11,.28-11.36,3.76-.2,.41-.14,.87,.41,1.27Z"/><path class="cls-114" d="M284.25,330.72c7.28,2.14,14.99,3.36,22.58,4.79,3.76,.71,7.27,1.75,10.95,2.64,5.97,1.46,12.18,2.44,18.5,2.66,6.52,.23,12.87-.47,19.1-1.8,3.34-.72,7.98-1.87,9.33-4.43,1.78-3.36-4.28-5.05-7.86-5.44-3.5-.38-7.02-.27-10.54-.1-.29-.25-.74-.41-1.36-.37-24.97,1.62-47.33-12.89-72.51-8.06-.71,.14-1.43,.7-1.35,1.26,.72,4.76,7.65,7.21,13.18,8.84Z"/><path class="cls-63" d="M413.06,301.11c-3.79,.29-8.23,.72-11.23,2.57-2.6,1.61-2.96,4.24-1.44,6.38,1.73,2.44,5.52,3.74,8.99,4.57,4.52,1.08,9.36,1.5,14.09,1.75,10.57,.56,21.22-.08,31.8,.13,9.9,.19,19.8,.59,29.71,.82-.26-4.66-.88-8.9-2.19-12.76-15.45-1.15-30.8-3.21-46.4-3.25-7.81-.04-15.51-.81-23.33-.22Z"/><path class="cls-46" d="M391.79,333.67c-.66,.25-1.1,.74-.77,1.4,3.15,6.34,12.8,8.16,21.37,8.13,4.36-.02,8.79-.44,12.99-1.27,5.87-1.16,11.29-3.31,16.78-5.14,3.68-1.23,7.46-2.23,11.31-3.15,3.22-.77,6.45-1.51,8.85-3.3,.63-.48,.78-1.39,0-1.85-9.66-5.68-21.87-4.64-33.11-2.28-11.55,2.43-23.4,6.81-35.71,6.45-1.03-.03-1.59,.46-1.72,1.02Z"/><path class="cls-111" d="M220.07,365.7c3.25,.86,2.62,3.03,2.59,5.06-.03,2.01,.58,3.96,2.95,5.22,2.71,1.45,6.35,1.87,9.63,2.14,3.83,.32,7.68,.29,11.53,.36,9.87,.17,19.46,2.09,29.41,1.31,4.98-.39,9.56-1.55,14.38-2.41,4.99-.89,10.16-1.22,15.28-1.49,4.24-.23,8.45-.22,12.7-.3,3.94-.08,8.24-.25,11.7-1.74,.84-.36,1.18-1.18,.66-1.79-2.2-2.61-6.62-3.35-10.57-3.72-4.53-.42-9.13-.39-13.68-.72-7.09-.52-13.97-.91-21.11-.63-3.41,.14-7.02,.44-10.41,.02-2.94-.37-5.44-1.36-8.15-2.18-4.24-1.28-9.37-1.57-13.87-2.08-7.05-.8-14.2-1.49-21.34-1.62-2.75-.05-10.19-.33-11.79,2.04-1.37,.32-1.7,2.06,.1,2.54Z"/><path class="cls-90" d="M267.66,341.69c5.06,.38,10.76,1.44,15.8,.49,2.03-.38,3.66-1.34,3.66-2.93,0-1.65-1.66-2.9-3.6-3.63-4.44-1.67-9.8-1.78-14.68-2.21-6.37-.56-14.82-3.02-20.44,.72-.23,.15-.37,.32-.46,.48-1.37,.22-2.16,1.73-.59,2.42,3.44,1.5,6.95,3.01,10.85,3.82,3.13,.65,6.26,.59,9.46,.83Z"/><path class="cls-41" d="M304.89,346.91c-3.77,.28-7.52,1.06-11.32,1.05-4.13,0-8.1-.89-12.12-1.47-2.95-.42-5.93-.6-8.93-.73-3.82-.16-10-.26-11.93,2.63-.4,.14-.71,.4-.82,.83-.91,3.67-2.31,8.51,1.72,11.52,3.72,2.78,9.92,2.66,14.88,2.5,6.93-.23,13.83,.17,20.43-1.65,5.27-1.45,10.38-4.03,16.17-4.14,3.74-.07,7.81,.23,11.43-.57,3.42-.75,4.78-3,2.56-5.15-2.86-2.77-8.93-3.83-13.4-4.46-2.88-.41-5.73-.58-8.66-.37Z"/><path class="cls-30" d="M407.95,349.96c-7.38,.54-14.47,3.17-21.48,4.76-4.72,1.07-9.52,2.03-14.39,2.73-5.81,.23-11.61,.43-17.43,.55-4.03,.08-8.1-.03-12.12,.14-3.22,.14-6.66,.62-9.16,2.17-2.1,1.3-3.22,3.3-2.23,5.23,1.02,1.99,3.78,3.05,6.41,3.73,6.24,1.6,13.22,1.1,19.71,.95,8.55-.2,16.76-1.57,25.01-3.09,7.07-1.3,14.31-2.19,21.04-4.28,3.12-.97,5.98-2.21,8.67-3.69,1.93-1.06,4.04-2.24,5.14-3.83,2.88-4.14-4.87-5.7-9.17-5.38Z"/><path class="cls-60" d="M469.7,332.58c-.86,.45-1.12,1.09-.66,1.79,1.28,1.95,4.83,2.61,7.52,2.96,.63,.08,1.26,.13,1.89,.19,2.96-2.94,5.04-6.11,6.02-9.56-2.94,.68-5.76,1.64-8.55,2.62-2.21,.42-4.34,1.02-6.22,2Z"/><path class="cls-112" d="M276.77,314.96c9.66,.19,19.26-.74,28.88-1.12,5.45-.22,10.73-.54,16.05-1.47,5.62-.98,11.08-2.37,16.59-3.61,6.67-1.5,13.13-2.25,20.1-2.57,6.47-.29,13.03-.53,19.24-1.95,1.53-.35,1.79-1.78,.44-2.39-9.65-4.41-20.87-5.88-32.2-5.34-6.12,.29-12.12,1.23-18.22,1.63-5.57,.37-11.18,.41-16.76,.09-17.88-1.03-34.84-5.61-52.57-7.28-2.02-.19-4.15-.37-6.32-.49-5.62,2.16-10.6,4.52-14.78,7.07,6.06,3.17,9.18,8.26,14.88,11.88,6.75,4.29,15.9,5.36,24.65,5.53Z"/><path class="cls-53" d="M429.63,283.81c-10.04-.37-20.06-.88-30.11-1.09-7.38-.16-14.76-.55-22.15-.3-7.78,.26-16.19,1.1-22.36,4.78-1.03,.62-.49,2.01,.81,2.19,21.76,3.06,44.01,3.12,66.1,3.09,11.41-.01,22.8,.31,34.2,.36,6.1,.02,12.49,.07,18.68-.42-3.67-3.3-8.59-6.19-15.17-8.71-10.01,.39-19.97,.48-30,.12Z"/><path class="cls-25" d="M278,284.86c6-.02,11.99-.49,17.94-1.03,17.12-1.56,34.28-2.95,51.41-4.4,23.04-1.96,46.15-3.73,69.36-4.17,1.6-.03,3.2-.04,4.8-.06-10.34-1.37-22.34-2.51-36.26-3.45-37.44,0-81.84,4.16-114.74,12.85,2.56,.31,5.32,.27,7.49,.26Z"/><path class="cls-72" d="M252.24,349.98c2.56-3.69-2.26-7.16-6.56-8.72-3.94-1.43-8.24-1.98-12.63-2.21,4.47,4.63,10.3,8.94,17.27,12.82,.77-.56,1.43-1.18,1.92-1.88Z"/><path class="cls-105" d="M238.95,310.38c-.72-2.13-5.35-2.73-7.78-3.06-1.56-.22-3.13-.39-4.71-.54-1.79,2.41-2.95,4.94-3.39,7.61,3.61-.2,7.23-.41,10.77-.83,2.19-.26,5.83-1.07,5.12-3.19Z"/><path class="cls-15" d="M247.31,330.45c3.95-.34,7.94-.05,11.88-.54,.97-.12,1.54-.98,1.28-1.61-1.59-3.84-10.27-4.36-14.81-4.76-2.8-.25-5.63-.4-8.45-.42-2.95-.02-5.8,.35-8.63,.8-.39-.28-.95-.42-1.65-.25-.99,.24-1.98,.47-2.98,.69,.98,3.3,2.61,6.5,4.82,9.59,2.09-.36,4.17-.77,6.2-1.22,4.05-.89,8.11-1.91,12.34-2.28Z"/></g><path class="cls-76" d="M402.67,389.37c.77,.2,1.54,.4,2.32,.6-.3,.75-.59,1.5-.89,2.25-18.25,4.78-35.81,9.16-53.25,16.52,2.14-.06,4.27-.21,6.41-.26,.1,0,.05,.11,0,.15,4.33-.22,8.6-.82,12.89-1.39,.02,0,0-.03,.02-.03,2.64-.39,4.82-.7,7.61-.92,2.78-.22,5.96-.51,8.9-.88,1.81-.23,3.86-.72,5.72-.93,.7-.08,1.43,.16,2.13,.14-.03,.68-.05,1.34-.08,2.01-24.36,4.33-48.57,11.23-73.1,14.38-41.5,5.07-66.52,6.68-104.98,26.28-.91-.05-1.82-.11-2.73-.16-1.15-.7-2.29-1.42-3.44-2.12,.13-.06,.21-.12,.38-.18-1.68,.03-2.37,.04-4.33,.04-.73,0-2.3,.03-3.7,.02-1.4-.01,.09,.01-2.72-.03-4.27-.06-12.08-.4-17.56-.23-5.48,.17-9.96,.12-16.65,.22-.8,.01-10.42,.23-12.48,.23-1.68,.67-2.68,1.34-4.09,2.02-1.15,.05-2.33,.12-3.49,.16,1.16-.26,1.14-.55,0,0-1.57-.62-3.13-1.27-4.7-1.9,3.91-2.05,7.84-4.07,11.77-6.09,6.04-4.31,12.27-8.15,18.87-11.54,.91-7.82,2.68-15.46,4.52-23.11-4.24,.61-8.55,.93-12.82,1.36-.7-.18-1.39-.37-2.08-.56,.49-.74,.98-1.49,1.46-2.23,4.75-.44,9.5-.9,14.24-1.45,.07-.27,.14-.53,.22-.8,1.18-.14,2.36-.48,3.54-.62-.17,.13-.37,.71-.3,.84,.07,.14,.02,.11,.03,.04,.05-.26,.19-.62,.27-.89,.8-.09,1.54,.12,2.33,.07-.04,.15-.08,.29-.12,.44,24-3.93,48-3.44,72.2-1.92,34.18-8.06,67.94-14.05,102.11-23.56,1.28,.2,2.56,.4,3.85,.59-.05,.73-.11,1.47-.17,2.21-19.73,5.28-39.89,8.55-59.26,15.14,21.41,1.14,39.86,7.43,61.5,6.84,12.93-4.8,26.3-7.45,39.66-10.74Zm-133.78,10.93c17.65,2.14,35.14,4.05,52.91,4.8,.97,.49,1.96,.95,2.95,1.42-.05,.21-.1,.41-.14,.62,2.43,.4,4.89,.77,7.35,.97,1,.08,1.95,.11,2.93,.16,.04,0,.09-.01,.12,0,.03,.01,0,0,0,0,2.43,1.3,4.62,.45,7.21,.29,4.72-1.73,9.39-3.64,14.01-5.6-19.44,.53-40.77-5.14-60.29-7.99-8.92,2.3-18.01,3.69-27.06,5.32Zm35.78,17.98c-3.08-.24-6.44-.62-9.46-.76-12.68-.58-24.99-.22-37.37,2.49,0,1.78,.06,3.55,.17,5.33,15.82-4.4,31.73-5.95,48.08-6.82-.46-.06-.94-.2-1.41-.23Zm-52.88,3.4c-12.31,4.22-23.37,8.94-32.27,18.71,10.91-4.95,21.93-9.47,33.25-13.38-.39-1.76-.71-3.54-.98-5.32Zm-32.74-14.81c.71-.22,1.67-.43,2.42-.64-12.86-1.78-25.52-2.85-38.53-2.63,.72-.13,1.44-.26,2.16-.41-1.04,.18-2.09,.33-3.13,.48-1.56,6.82-2.82,13.64-3.35,20.63,13.27-6.57,26.24-12.98,40.43-17.43Zm9.98-2.32c4.26-.79,8.52-1.46,12.82-2.01,1.46-.44,2.92-.88,4.38-1.31-15.91-.6-31.72-.95-47.62,.19,10.21,.56,20.3,1.67,30.41,3.13Zm30.21-3.85h0Z"/><g><g><path class="cls-124" d="M94.58,67.3c-18.29,31.14-34.99,63.77-42.63,97.21,7.18-3.03,14.44-6.08,22.17-7.54,12.48-2.36,25.61-.32,38.48,1.77-6.15-29.28-11.86-59.64-6.75-88.78,.27-1.56,.51-3.42-.49-4.62-1.08-1.3-2.9-.98-4.34-.48-3.15,1.08-6.21,2.47-6.43,2.43Z"/><path class="cls-85" d="M133.56,65.47c10.77,9.77,19.1,22.7,25.62,36.35,6.51,13.66,11.32,28.12,15.43,42.6,13.82-18.23,35.28-28.39,56.81-28.07-16.78-23.51-41.96-41.77-69.07-49.14-9.64-2.59-19.71-3.78-28.79-1.75Z"/><path class="cls-128" d="M13.31,151.78c6.92-.49,13.95-.98,20.84,.57,6.89,1.54,13.75,5.46,17.57,11.88,7.48-21.34,16.54-43.16,27.19-64.52,3.92-7.85,8.05-15.62,12.66-23.07-15.69,10.72-29.85,24-43.49,37.37-12.4,12.16-24.45,24.54-34.76,37.77Z"/><path class="cls-127" d="M174.34,144.33c-4.67-4.41-10.9-6.13-16.81-6.06-5.9,.06-11.6,1.74-17.22,3.39-3.36,.99-6.73,1.97-9.98,3.3-6.76,2.78-12.92,7.09-17.69,12.13-5.96-11.05-8.04-24-7.27-36.38,.77-12.38,4.24-24.27,8.74-35.48,3.28-8.16,7.27-16.22,12.6-22.32,6.41,2.61,12.91,5.3,18.58,9.77,6.24,4.92,11.17,11.77,15.2,19.02,8.86,15.91,13.82,34.27,13.84,52.63Z"/><path class="cls-42" d="M231.09,116.29c-8.35-8.93-16.8-18.13-26.3-26.17-9.5-8.04-20.16-14.95-31.65-18.44-4.81-1.46-9.8-2.33-14.29-4.93,10.5-4.77,22.66-3.48,34.31-2.6,15.17,1.14,30.38,1.61,45.36,4.18,14.98,2.57,29.88,7.28,41.95,15.63-6.89-.24-12.27,5.87-17.8,10.35-9.76,7.92-22.78,11.13-31.58,21.99Z"/></g><path class="cls-17" d="M238.51,68.33c-14.98-2.57-30.19-3.04-45.36-4.18-11.43-.86-23.33-2.1-33.69,2.35-8.75-2.07-17.73-2.85-25.91-1.02,.24,.22,.47,.44,.7,.66-2.49-1.15-5.03-2.2-7.54-3.22-5.33,6.1-9.32,14.16-12.6,22.32-4.28,10.65-7.62,21.92-8.6,33.64-2.02-16.41-2.49-32.84,.32-48.89,.27-1.56,.51-3.42-.49-4.62-1.08-1.3-2.9-.98-4.34-.48-3.15,1.08-6.21,2.47-6.43,2.43-2.36,4.02-4.7,8.07-6.99,12.14-14.12,10.19-27.04,22.33-39.52,34.56-12.4,12.16-24.45,24.54-34.76,37.77,6.92-.49,13.95-.98,20.84,.57,6.89,1.54,13.75,5.46,17.57,11.88,.29-.82,.59-1.64,.88-2.46-.22,.92-.44,1.83-.65,2.75,7.18-3.03,14.44-6.08,22.17-7.54,12.48-2.36,25.61-.32,38.48,1.77-.21-.99-.42-1.99-.62-2.98,.22,.44,.44,.88,.68,1.32,4.76-5.04,10.92-9.35,17.69-12.13,3.24-1.33,6.61-2.32,9.98-3.3,5.63-1.65,11.32-3.33,17.22-3.39,5.91-.06,12.13,1.65,16.81,6.06,0-.29-.01-.58-.02-.87,.09,.32,.19,.65,.28,.97,13.82-18.23,35.28-28.39,56.81-28.07-.06-.08-.12-.16-.18-.24,8.79-10.71,21.72-13.93,31.42-21.81,5.53-4.48,10.91-10.59,17.8-10.35-12.07-8.34-26.97-13.06-41.95-15.63Z"/><g><rect class="cls-59" x="121.53" y="77.57" width="1.87" height="54.91" transform="translate(-30.28 156.97) rotate(-59.4)"/><rect class="cls-49" x="127.94" y="69.76" width="1.87" height="54.91" transform="translate(-31.95 111.16) rotate(-41.98)"/><rect class="cls-7" x="151.25" y="64.88" width="1.87" height="54.91" transform="translate(279.37 216.88) rotate(-166.84)"/><rect class="cls-26" x="161.56" y="67.28" width="1.87" height="54.91" transform="translate(247.37 262.6) rotate(-147.06)"/><path class="cls-34" d="M220.66,404.76h0c-1.76,.45-3.55-.61-4.01-2.37L125.63,43.55c-.45-1.76-.54-3.19,1.22-3.64h0c1.76-.45,2.36,.92,2.81,2.68l93.37,358.17c.45,1.76-.61,3.55-2.37,4.01Z"/></g><g><path class="cls-84" d="M84.17,73.45c-14.37,2.76-27.52,10.87-38.35,21.42-10.83,10.56-19.42,23.4-26.07,36.38-3.31,6.5-6.24,13.34-5.6,20.49,12.27-7.11,24.99-15.52,39.75-16.17,2.23-24.3,14.24-48.37,30.28-62.12Z"/><path class="cls-87" d="M163.46,43.29c12.42-10.11,30.49-5.52,46.09-.34,26.86,9.1,54.47,20.26,70.36,40.63-10.17-.43-20.66,.57-30.77,3.38-1.6,.44-3.27,.94-4.88,.54-1.36-.34-2.53-1.28-3.65-2.2-22.79-18.58-49.16-39.79-77.15-42Z"/><path class="cls-24" d="M131.83,50.29c18.83-10.32,41.75-11.02,62.79-3.24,21.06,7.83,39.85,23.25,51.71,42.24-20.27-6.35-43.19-5.31-62.17,5.47-17.27-13.2-34.7-26.98-52.09-40.64-.64-.5-1.32-1.07-1.56-1.91-.24-.84,.45-1.46,1.31-1.92Z"/><path class="cls-126" d="M127.01,57.72c-17.12-5.43-34.05,4.18-46.98,16.57-8.29,7.92-15.72,17.14-20.9,27.72-5.18,10.61-8.03,22.58-6.84,34.48,16.63-13.34,38.01-20.87,59.72-19,.69-6.63,1.37-13.29,2.04-19.98,1.59-15.78,3.98-33.43,12.97-39.79Z"/><path class="cls-19" d="M111.21,119.43c-5.87-14.12-3.59-30.2,.67-44.26,1.95-6.42,4.35-12.76,8.14-17.82,3.79-5.06,9.16-8.74,15.14-8.82,2.77-.04,5.58,.69,8.3,1.71,9.19,3.47,17.49,10.29,24.56,18.2,7.07,7.91,13.04,16.93,18.9,25.85-13.64,.9-27.38,1.85-40.54,5.44-13.16,3.58-25.81,9.97-35.17,19.7Z"/></g></g><g><g><path class="cls-55" d="M395.56,333.82c.32,1.93,.64,3.87,.97,5.8-50.75,6.47-100,17.78-150.83,21.05-.38-1.93-.76-3.86-1.13-5.79,50.96-4.04,100.17-14.57,150.99-21.06Z"/><path class="cls-37" d="M395.56,333.82c.68-.64,1.35-1.28,2.02-1.93-50.7,6.21-100.1,16.9-150.86,20.45-.72,.85-1.45,1.69-2.16,2.54,50.96-4.04,100.17-14.57,150.99-21.06Z"/><path class="cls-67" d="M395.56,333.82c.32,1.93,.64,3.87,.97,5.8,.68-.63,1.35-1.26,2.03-1.89-.33-1.95-.65-3.89-.97-5.84-.68,.64-1.35,1.28-2.02,1.93Z"/></g><g><path class="cls-71" d="M181.61,391.36c15.93-10.11,32.32-19.22,49.1-27.84,1.68,.98,3.34,1.97,4.97,3.03-15.86,7.79-31.63,15.65-47.01,24.36-2.36,.14-4.71,.29-7.07,.45Z"/><path class="cls-50" d="M235.68,366.55c-.2,1.22-.41,2.43-.62,3.64-16.95,8.18-33.81,16.44-50.08,25.91-.22-.85-.44-1.71-.66-2.56,16.71-9.83,33.97-18.46,51.36-26.99Z"/></g><g><path class="cls-81" d="M253.78,299.76c-1.93,19.4-2.41,38.77-2.72,58.24,1.73,.35,3.46,.7,5.19,1.05-.07-18.8-.09-37.54,1.01-56.32-1.17-.98-2.32-1.97-3.47-2.97Z"/><path class="cls-91" d="M257.25,302.73c.53,1.08,1.06,2.17,1.58,3.25-.73,16.42-.44,32.77-.07,49.19-1.08,.05-2.16,.09-3.24,.14,.11-17.57,.43-35.06,1.73-52.58Z"/></g><g><path class="cls-99" d="M212.58,243.48c-1.2,2.14-2.39,4.29-3.59,6.43,57.14,86.65,111.69,105.04,201.13,148.09-.71-1.96-1.4-3.91-2.12-5.86-87.7-46.62-138.85-59.96-195.42-148.66Z"/><path class="cls-51" d="M212.58,243.48c.95-.18,1.9-.36,2.86-.54,56.13,86.74,108.07,102.11,195.8,146.03-1.09,1.05-2.16,2.11-3.24,3.17-87.7-46.62-138.85-59.96-195.42-148.66Z"/><path class="cls-68" d="M408,392.14c.71,1.95,1.41,3.91,2.12,5.86,.79-.83,1.58-1.65,2.38-2.48-.42-2.18-.84-4.37-1.25-6.55-1.09,1.05-2.16,2.11-3.24,3.17Z"/></g><g><path class="cls-20" d="M295.07,411.85c24.85-12.04,45.76-27.53,69.72-40.02,1.46,.97,2.91,1.96,4.36,2.95-24.59,14.14-43,28.31-69.83,39.54-1.41-.85-2.83-1.66-4.26-2.47Z"/><path class="cls-92" d="M299.33,414.31c26.82-11.24,45.24-25.41,69.83-39.54,.21,.75,.43,1.5,.64,2.25-24.31,14.62-41.55,28.31-68.68,38.84-.59-.52-1.18-1.04-1.78-1.55Z"/></g><g><path class="cls-118" d="M142.74,253.14c23.14-2.07,47.24-2.68,71.73-.13,7.77,45.81,38.06,84.28,82.04,93.5,37.58,7.88,60.94-4.51,95.17-8.55-.42,.18,0,1.25,.32,2.01-30.35,8.11-41.62,29.05-74.38,37.46-32.76,8.4-64.12,14.08-99.36-10.4-35.24-24.48-57.26-74.08-75.51-113.89Z"/><path class="cls-77" d="M391.67,337.97c-4.95,.83-5.76,2.1-9.89,3.99-4.13,1.89-10.25,5.22-14.52,7.65-4.28,2.43-8.17,5.15-12.27,7.56-4.1,2.41-8.04,5.75-11.83,8.09-3.78,2.34-3.84,2.59-8.55,4.4-4.71,1.81-7.18,5.7-14.24,6.95-7.06,1.25-7.14,3.39-18.04,3.81-25.73,1-52.95,7.07-79.58-12.54-37.93-27.93-57.56-74.69-79.1-117.36,2.76-.98,7.14-.19,10.47-.25,3.33-.06,5.97,.05,9.39,.03,3.42-.02,7.84-.06,11.29-.13,3.45-.07,5.99-.12,9.47-.2,3.48-.09,7.77-.38,11.3-.28,3.53,.09,5.78,.22,9.47,.48,3.69,.26,7.03,.3,11.88,1.75,3.72,44.43,38.66,83.44,78.47,92.19,39.13,8.61,60.72-2.97,96.29-6.13Z"/><path class="cls-102" d="M336.02,369.19c-4.61,3.54-9.36,5.08-14.33,7.25-4.98,2.17-11.12,2.44-16.82,2.81-16.43,5.69-53.9-1.21-68.01-11.18-48.45-34.24-57.76-68.15-83.29-118.25,2.84,.28,6.52,.84,8.54,0,26.26,48.98,28.29,77.91,80.23,112.18,18.71,12.34,69.27,18.06,93.69,7.2Z"/><path class="cls-104" d="M358.94,354.82c-2.43,5.73-2.75,1.85-9.11,5.67-19.27,11.57-81.93,8.96-95.96-1.13-52.13-37.49-52.62-58.45-79.79-109.61,3.66,.47,6.44,.61,8.61-.24,27.34,48.7,23.96,69.55,76.25,104.35,19.27,12.82,76.25,14.44,99.99,.97Z"/><path class="cls-2" d="M382.82,341.39c-5.99,4.48-2.68,2-11.85,5.68-29.3,11.76-72.88,19.45-102.56,2.3-49.38-28.53-52.41-50.99-73.24-100.19,2.62,.46,5.63,1.25,8.03,.33,25.5,47.83,26.61,66.07,76.5,96.21,22.01,13.3,70.52,5.57,103.12-4.33Z"/><path class="cls-74" d="M322.17,376.64c.11,.34,.22,.68,.33,1.02,4.47-2.34,9.05-5.13,13.67-7.14-.09-.76-.08-.58-.15-1.33-4.67,2.39-9.32,4.82-13.85,7.45Z"/><path class="cls-120" d="M349.83,360.49c.38,.56,.95,.72,.91,1.45,2.89-2.09,6.07-3.45,8.97-5.55,.3-.22-.58-1.35-.77-1.57-3.1,1.77-6.09,3.75-9.11,5.67Z"/><path class="cls-31" d="M382.82,341.39c.08,.45,.18,.9,.26,1.36-3.27,1.61-6.56,3.17-9.79,4.84-.15-.38-.3-.76-.45-1.13,3.32-1.69,6.65-3.38,9.98-5.07Z"/></g><g><path class="cls-75" d="M367.45,433.78s1.28-.4,1.22,1.82-.44,1.65-1.77,1.59-4.8-1.36-8.4-2.57-5.28-3.56-10.99-4.83-6.91-7.79-6.91-7.79l7.92-.48,12.95,9.1,5.98,3.16Z"/><path class="cls-93" d="M381.31,338.15s3.03-.32,6.58,2.52,4.7,14.13,.51,20.68-27.1,34.97-31.41,38.99c-4.31,4.02-5.55,6.64-5.37,8.56s.91,3.18,.91,3.18c0,0,10.6,14.67,12.12,15.94s3.55,3.55,2.72,6.06c-1.16,1.92-8.95-1.78-11.61-3.42s-7.02-4.96-11.89-7.31-9.41-2.62-11.3-4.8c-1.89-2.18-5.22-4.84-1.91-9.13,3.32-4.29,13.75-17.25,16.01-21.26s11.23-19,11.23-19l15.12-20.05,8.3-10.96Z"/><path class="cls-44" d="M381.31,338.15s3.03-.32,6.58,2.52,4.7,14.13,.51,20.68-27.1,34.97-31.41,38.99c-4.31,4.02-5.55,6.64-5.37,8.56s.91,3.18,.91,3.18c0,0,10.6,14.67,12.12,15.94s3.55,3.55,2.72,6.06c-1.16,1.92-8.95-1.78-11.61-3.42s-7.02-4.96-11.89-7.31-9.41-2.62-11.3-4.8c-1.89-2.18-5.22-4.84-1.91-9.13,3.32-4.29,13.75-17.25,16.01-21.26s11.23-19,11.23-19l15.12-20.05,8.3-10.96Z"/><path class="cls-115" d="M355.43,338.77s16.08-.75,21.38-1.44c5.31-.69,5.37-.69,4.99,0s-9.22,14.72-10.67,17.75c-1.46,3.03-7.08,4.99-8.21,5.18s-13.34-11.29-13.34-11.29l5.86-10.19Z"/><path class="cls-16" d="M353.36,433.97s.72,1.01,.34,3.09-2.78,1.52-5.37,1.07-8.4-2.53-13.2-4.17-5.94-3.73-9.85-4.23-16.55-3.1-19.2-3.16c-2.65-.06-5.12-.69-3.16-3.92,1.96-3.22,8.09-.78,11.37-.29s20.66,3.39,24.57,4.91c3.92,1.52,14.51,6.7,14.51,6.7Z"/><path class="cls-93" d="M354.99,339.6s7.81,.15,11.93,2.76c4.13,2.61,5.9,12.13,2.19,19.62-3.71,7.5-26.78,33.27-30.91,38.07s-5.14,7.75-4.72,9.77,1.35,3.28,1.35,3.28c0,0,13.05,14.4,14.82,15.58,1.77,1.18,4.21,3.37,3.62,6.15-1.01,2.19-9.77-.84-12.8-2.27s-8.09-4.46-13.56-6.4-10.36-1.68-12.63-3.79-6.15-4.55-3.12-9.52c3.03-4.97,12.63-20.04,14.57-24.59s9.74-21.62,9.74-21.62l13.76-23.19,5.75-3.85Z"/><path class="cls-94" d="M289.27,335.88s1.33,0,4.61-.51,8.27,2.78,13.9,4.86,19.08,.06,24.7-1.14c5.62-1.2,12.25-1.55,15.92-.87,2.77,.51,5.54,.25,6.73,.09,.25-.03,.43,.23,.31,.45-1.9,3.59-12.91,23.86-21.19,28.69-7.83,1.89-22.87,4.42-30.19,6.82-7.33,2.4-18.7,.38-30.7-1.52-12-1.89-20.59-11.5-20.59-11.5,0,0,8.97-9.22,14.78-13.01s21.73-12.38,21.73-12.38Z"/><path class="cls-115" d="M340.85,361.36c-.08,0-23.29,.97-27.92,2.53-4.64,1.57-18.78,5.17-29.14,3.3-10.36-1.87-20.93-8.66-20.93-8.66,1.05-1.68,12.34-6.49,21.01-12.46,8.67-5.98,6.81-10.29,6.81-10.29-.99,.09-1.42,.09-1.42,.09,0,0-15.92,8.59-21.73,12.38-5.81,3.79-14.78,13.01-14.78,13.01,0,0,8.59,9.6,20.59,11.5,12,1.89,23.37,3.92,30.7,1.52,7.33-2.4,22.36-4.93,30.19-6.82,2.09-1.22,4.36-3.43,6.6-6.1Z"/><path class="cls-93" d="M225.47,291.91s8.84,0,20.09,12.51c11.24,12.51,16.68,16.55,24.51,20.09,7.83,3.54,16.93,7.71,19.2,11.37s-34.36,24.38-36.51,25.39-18.94-6.82-22.16-9.73-10.07-8.72-13.35-17.94c-3.27-9.22-1.78-24.26-3.54-27.92-1.76-3.66-10.11-5.43-11.49-6.95s-.51-3.03,5.62-3.92,17.63-2.91,17.63-2.91Z"/><path class="cls-44" d="M254.51,361.78l-.99-.91,2.48-1.37c-2.69-.94-21.11-7.61-26.6-9.03-5.91-1.53,1.27,7.82,1.27,7.82l15.68,9.6,9.21-5.88,.02-.05-1.06-.18Z"/><path class="cls-38" d="M225.71,288.7s-.57,1.87-.24,3.22-17.73,4.13-20.38,4.08-2.38,.21-2.38,.21c0,0,.33-2.35,.53-4.76s22.47-2.76,22.47-2.76Z"/><g><path class="cls-93" d="M183.29,257.41c-.12,2.01,.02,4.02,.43,5.99l.09,.41c.53,2.37,.73,4.8,.69,7.22-1.18-.16-2.47-.71-3.83-1.85-3.59-2.99-3.85-8.95-.64-11.04,1.21-.79,2.34-.91,3.28-.76v.02Z"/><path class="cls-100" d="M183.29,257.41c-.12,2.01,.02,4.02,.43,5.99l.09,.41c.53,2.37,.73,4.8,.69,7.22-1.18-.16-2.47-.71-3.83-1.85-3.59-2.99-3.85-8.95-.64-11.04,1.21-.79,2.34-.91,3.28-.76v.02Z"/><path class="cls-93" d="M237.75,257.2c-.79,1.59-1.75,2.61-2.77,3.23-1.02-2.2-1.81-4.51-2.27-6.89l-.09-.41c-.42-1.97-1.1-3.88-2.03-5.67,.8-.52,1.88-.86,3.31-.62,3.78,.63,5.93,6.19,3.85,10.37Z"/><path class="cls-100" d="M237.75,257.2c-.79,1.59-1.75,2.61-2.77,3.23-1.02-2.2-1.81-4.51-2.27-6.89l-.09-.41c-.42-1.97-1.1-3.88-2.03-5.67,.8-.52,1.88-.86,3.31-.62,3.78,.63,5.93,6.19,3.85,10.37Z"/><path class="cls-93" d="M227.41,262.1c-.69,1.83-.56,3.88,.44,5.57,.75,1.27,1.49,2.73,1.74,3.89,1.77,8.43-4.78,16.94-14.64,19.01-9.86,2.07-19.28-3.09-21.05-11.52-.24-1.15-.15-2.79,.03-4.26,.24-1.95-.47-3.89-1.83-5.28-.33-.34-.63-.69-.91-1.07-.85-1.15-1.44-2.47-1.73-3.87-1.17-5.6,2.64-11.14,8.52-12.37,1.9-.4,3.87-.31,5.72,.27,2.17,.7,4.55,.2,6.26-1.31,1.46-1.28,3.23-2.16,5.13-2.55,5.88-1.23,11.6,2.3,12.78,7.9,.3,1.4,.29,2.84-.03,4.24-.11,.46-.24,.91-.41,1.35Z"/><path class="cls-100" d="M227.41,262.1c-.69,1.83-.56,3.88,.44,5.57,.75,1.27,1.49,2.73,1.74,3.89,1.77,8.43-4.78,16.94-14.64,19.01-9.86,2.07-19.28-3.09-21.05-11.52-.24-1.15-.15-2.79,.03-4.26,.24-1.95-.47-3.89-1.83-5.28-.33-.34-.63-.69-.91-1.07-.85-1.15-1.44-2.47-1.73-3.87-1.17-5.6,2.64-11.14,8.52-12.37,1.9-.4,3.87-.31,5.72,.27,2.17,.7,4.55,.2,6.26-1.31,1.46-1.28,3.23-2.16,5.13-2.55,5.88-1.23,11.6,2.3,12.78,7.9,.3,1.4,.29,2.84-.03,4.24-.11,.46-.24,.91-.41,1.35Z"/><path class="cls-45" d="M203.05,279.09c-.57,.12-.93,.67-.81,1.24,0,.04,.02,.09,.04,.13,1.58,4.39,6.59,6.98,11.79,5.89s8.74-5.48,8.43-10.13c-.05-.58-.55-1.01-1.13-.96-.05,0-.09,.01-.14,.02l-18.18,3.82Z"/><path class="cls-22" d="M207.84,285.91c4.06,1.49,8.62,.53,11.74-2.46-1.27-2.39-3.5-1.31-6.28-.73s-5.26,.49-5.46,3.19Z"/><path class="cls-93" d="M234.71,244.7c-2.28-.38-3.87,.41-4.9,1.33-.47-.79-.97-1.55-1.52-2.28-.4-.54-.82-1.06-1.25-1.58-4.47-5.24-10.94-9-17.61-9.77l-.83-3.33-3.53,3.27c-.17,.02-.33,.03-.5,.05-.3,.04-.61,.08-.91,.13l-1.12-2.42-.33-.7c-.2,.04-.4,.09-.59,.15-3.69,1.09-4.85,4.9-5.01,5.54-5.8,3.38-10.2,9.43-12.19,16.02-.2,.64-.37,1.29-.51,1.95-.2,.89-.36,1.79-.47,2.7-.06-.02-.11-.04-.17-.05-1.3-.38-3-.4-4.86,.8-4.08,2.66-3.74,10.22,.81,14.02,1.86,1.55,3.61,2.24,5.2,2.38,0,.09,0,.18,0,.26-.01,1.28,.12,2.56,.38,3.82,1.83,8.71,9.82,14.85,19.71,16.21,2.32,.32,4.67,.37,7.01,.16,1.21-.11,2.42-.28,3.61-.52l.28-.06c14.44-3.03,24.15-15.02,21.68-26.77-.26-1.26-.66-2.48-1.19-3.65-.04-.08-.07-.16-.11-.24,1.39-.77,2.72-2.11,3.8-4.27,2.64-5.31-.09-12.37-4.89-13.16Zm-51.42,12.71c-.12,2.01,.02,4.02,.43,5.99l.09,.41c.53,2.37,.73,4.8,.69,7.22-1.18-.16-2.47-.71-3.83-1.85-3.59-2.99-3.85-8.95-.64-11.04,1.21-.79,2.34-.91,3.28-.76v.02Zm44.53,3.34c-.1,.46-.24,.91-.41,1.35-.69,1.83-.56,3.88,.44,5.57,.75,1.27,1.49,2.73,1.74,3.89,1.77,8.43-4.78,16.94-14.64,19.01s-19.28-3.09-21.05-11.52c-.24-1.15-.15-2.79,.03-4.26,.24-1.95-.47-3.89-1.83-5.28-.33-.34-.63-.69-.91-1.07-.85-1.15-1.44-2.47-1.73-3.87-1.17-5.6,2.64-11.14,8.52-12.37,1.9-.4,3.87-.31,5.72,.27,2.17,.7,4.55,.2,6.26-1.31,1.46-1.28,3.23-2.16,5.13-2.55,5.88-1.23,11.6,2.3,12.78,7.9,.3,1.4,.29,2.84-.03,4.24Zm9.93-3.55c-.79,1.59-1.76,2.61-2.77,3.23-1.02-2.2-1.81-4.51-2.27-6.89l-.09-.41c-.42-1.97-1.1-3.88-2.03-5.67,.8-.52,1.88-.86,3.31-.62,3.78,.63,5.93,6.19,3.85,10.37h0Z"/><rect class="cls-45" x="207.17" y="268.96" width="1.75" height="3.98" rx=".88" ry=".88" transform="translate(-102.01 414.35) rotate(-77.3)"/><rect class="cls-45" x="211.4" y="268.96" width="3.98" height="1.75" rx=".88" ry=".88" transform="translate(-118.49 179.29) rotate(-36.4)"/><path class="cls-45" d="M200.33,266.51h0c-1.69,.35-3.33-.66-3.66-2.26l-.2-.97c-.34-1.6,.76-3.18,2.45-3.54h0c1.69-.35,3.33,.66,3.67,2.26l.2,.97c.34,1.6-.76,3.18-2.45,3.54Z"/><path class="cls-64" d="M198.91,259.76l.71,3.38c.17,.8,.99,1.3,1.83,1.13s1.39-.97,1.22-1.77l-.1-.48c-.34-1.6-1.98-2.61-3.67-2.26Z"/><ellipse class="cls-9" cx="199.32" cy="261.69" rx="1.04" ry=".99" transform="translate(-49.5 46.52) rotate(-11.85)"/><path class="cls-45" d="M218.67,262.67h0c-1.69,.35-3.33-.66-3.66-2.26l-.2-.97c-.34-1.6,.76-3.18,2.45-3.54h0c1.69-.35,3.33,.66,3.67,2.26l.2,.97c.34,1.6-.76,3.18-2.45,3.54Z"/><path class="cls-64" d="M217.25,255.91l.71,3.38c.17,.8,.99,1.3,1.83,1.13s1.39-.97,1.22-1.77l-.1-.48c-.34-1.6-1.98-2.61-3.67-2.26Z"/><ellipse class="cls-9" cx="217.65" cy="257.84" rx="1.04" ry=".99" transform="translate(-48.32 50.2) rotate(-11.85)"/><path class="cls-44" d="M202.54,230.11c-.7,.08-1.97,1.47-3.37,3.71-.35,.56-.71,1.17-1.07,1.83-2.65,4.86-5.36,12.21-5.35,19.17,0,11.69,1.78,24.88,7.43,31.21,4.78,5.37,11.34,7.34,11.34,7.34-2.33,.21-4.69,.15-7.01-.16-9.89-1.36-17.89-7.5-19.71-16.21-.26-1.26-.39-2.54-.38-3.82,0-.09,0-.18,0-.26-1.58-.14-3.34-.83-5.2-2.38-4.55-3.8-4.89-11.37-.81-14.02,1.86-1.21,3.56-1.19,4.86-.8,.06,.02,.11,.03,.17,.05,.11-.91,.27-1.81,.47-2.7,.15-.65,.32-1.3,.51-1.95,1.99-6.59,6.39-12.64,12.19-16.02,.17-.65,1.33-4.45,5.01-5.54,.19-.06,.38-.11,.59-.15l.33,.7Z"/></g><path class="cls-100" d="M234.21,294.94s-6.6,3.46-9.8,4.59-8.13-.04-8.89,2.27,3.86,6.4,3.61,13.98c-.25,7.58,8.19,4.93,10.73,7.71s30.21,8.97,38.29,15.54c8.09,6.57,18.27-4.33,17.66-6.4s-12.23-6.68-15.52-8.45-17.94-12.89-20.09-15.54-3.03-5.37-4.17-7.01-9.11-6.83-11.85-6.7Z"/><path class="cls-16" d="M346.31,434.7s2.69-5.43,3.92-6.16-3.41-3.79-5.5-6.32c-2.08-2.53-2.71-2.05-3.22-1.85s-7.71,8.46-8.21,9.42,11.56,6.71,13.01,4.91Z"/><path class="cls-75" d="M357.8,432.21s4.75-4.01,6.13-4.94-3.42-5.48-4.68-7.06-6.51,6.88-8.34,7.71,6.89,4.3,6.89,4.3Z"/><path class="cls-93" d="M296.7,381.43c-.43-2.17-4.57-6.41-6.02-7.57-1.45-1.15-11.39-5.28-14.61-5.9-3.22-.62-5.3-.99-11.19-2.94-4.94-1.63-35.82-13.86-45.66-17.77-.78-6.09-2.5-16.74-2.59-20.61-.13-5.29,.49-19.18-2.91-23.35-3.4-4.17-11.9-6.29-11.9-6.29,0,0-7.67,7.17-10.83,14.75-3.16,7.58,3,16.81,5.41,26.41,2.42,9.6,8.86,20.01,9.68,23.21,.8,3.11,1.25,4.64,5.89,5.24,4.95,2.19,13.76,5.82,19.32,6.54,8.07,1.04,26.76,2.56,31.79,2.56s9.49,2.56,13.48,4.74,8.24,6.58,9.86,6.8c1.62,.22,2.29-.63,2.38-1.58,1.52,1.23,4.22,1.14,3.92-.66,1,.5,2.81-.39,2.17-1.85,1.28,.57,2.24,.46,1.81-1.71Z"/><g><path class="cls-11" d="M216.64,316.18c.08-.59,.62-1,1.21-.92l.75,.1h0c.59,.08,1,.62,.92,1.21l-.77,5.67-2.88-.39,.77-5.67Z"/><path class="cls-79" d="M216.64,316.17c.08-.59,.62-1,1.21-.92l.37,.05-.92,6.74-1.44-.2,.77-5.68Z"/><path class="cls-5" d="M214.62,320.02c.57-.76,1.32-1.31,2.28-1.36h0c1.01-.04,1.76,.21,2.31,.57,.62,.43,1.09,1.04,1.35,1.74,.01,.03,.02,.05,.03,.08l.03,.08s.03,.09,.04,.14c.04,.14,.06,.22,.06,.22h0c.02,.29,.04,.58,.06,.87,.25,2.66,.86,5.28,1.82,7.77,.17,.46,.35,.9,.55,1.34l.05,.11c.09,.2,.19,.41,.28,.61,.12,.25,.24,.5,.37,.74,.26,.53,.55,1.04,.85,1.55l.04,.07c.78,1.32,1.67,2.58,2.66,3.76,.22,.27,.45,.53,.68,.78,.06,.07,.13,.15,.19,.22,.17,.19,.34,.36,.52,.55l.35,.35c.23,.23,.46,.46,.7,.68,.08,.08,.16,.16,.24,.23l.07,.07c.14,.14,.29,.26,.44,.4s.31,.28,.47,.41c.82,.7,1.68,1.34,2.57,1.94l.12,.08s.06,.04,.09,.06c.31,.21,.63,.41,.95,.6l.07,.04c.06,.03,.13,.08,.19,.11,.49,.29,.98,.56,1.48,.82,.53,.27,1.07,.54,1.62,.78l.1,.04s.05,.02,.08,.03c.38,.16,.75,.32,1.14,.47,.13,.05,.26,.1,.39,.14s.25,.09,.39,.14c.41,.15,.83,.28,1.25,.41,.15,.05,.31,.1,.46,.14,.27,.08,.54,.15,.82,.22,.14,.04,.28,.07,.42,.1,.1,.03,.21,.05,.31,.07l.32,.07,.36,.08c.4,.08,.81,.15,1.22,.22h.06c.37,.07,.75,.12,1.12,.16h.01c1.54,.24,5.21,.41,7.65,1.22,1.12,.37,1.98,.87,2.27,1.58,.04,.09,.06,.18,.08,.28h0c.01,.1,.02,.19,.02,.29h0v.02c-.04,.88-.46,1.67-1.02,2.34-1.13,1.34-2.81,2.18-2.99,2.27-2.6,1.04-5.34,1.7-8.13,1.96-16.1,1.51-30.38-10.31-31.89-26.42-.26-2.79-.13-5.59,.41-8.34,.22-1.03,.7-2.72,1.61-3.89Z"/><path class="cls-73" d="M219.23,319.21c.62,.43,1.09,1.04,1.35,1.74,.01,.03,.02,.05,.03,.08l.03,.08s.03,.09,.04,.14c.04,.14,.06,.22,.06,.22h0c.02,.29,.04,.58,.06,.87,.05,.46,.11,.91,.16,1.36,0,.05,.01,.1,.02,.14,.02,.12,.04,.24,.06,.36,.05,.31,.1,.62,.16,.93,.03,.18,.07,.35,.11,.53,.06,.28,.12,.56,.18,.83,.05,.19,.09,.37,.14,.55,.07,.27,.15,.53,.22,.8,.05,.18,.11,.36,.16,.54,.08,.27,.17,.53,.27,.8l.11,.33c.07,.2,.14,.41,.22,.61l.17,.42c.06,.14,.11,.28,.17,.41,.07,.17,.14,.34,.21,.51l.05,.11c.09,.2,.19,.41,.28,.61,.04,.09,.09,.19,.14,.28,.07,.16,.14,.29,.23,.47s.18,.35,.27,.52c.07,.14,.15,.27,.22,.4,.12,.21,.23,.42,.35,.63l.04,.07c.13,.22,.27,.44,.4,.65,.09,.15,.19,.3,.29,.45,.12,.19,.25,.38,.38,.56s.25,.36,.38,.54c.05,.08,.12,.15,.17,.23l.22,.29c.14,.19,.29,.38,.44,.56,.13,.16,.26,.33,.38,.48,.16,.19,.32,.37,.48,.56l.19,.22c.06,.07,.13,.15,.19,.22,.17,.19,.34,.36,.52,.55l.35,.35c.23,.23,.46,.46,.7,.68,.08,.08,.16,.16,.24,.23l.07,.07,.44,.4,.47,.41c.18,.15,.37,.3,.55,.45,.15,.12,.3,.24,.47,.37s.34,.26,.51,.39l.16,.12,.36,.26c.17,.12,.34,.23,.51,.35l.12,.08s.06,.04,.09,.06l.36,.23c.19,.13,.39,.25,.59,.37l.07,.04c.06,.03,.13,.08,.19,.11l.19,.11c.42,.24,.85,.48,1.29,.71s.88,.44,1.32,.64c.1,.05,.19,.09,.29,.14l.1,.04s.05,.02,.08,.03c.38,.16,.75,.32,1.14,.47,.13,.05,.26,.1,.39,.14l.39,.14c.16,.05,.31,.11,.46,.16,.26,.09,.52,.17,.79,.25,.15,.05,.31,.1,.46,.14l.82,.22c.14,.04,.28,.07,.42,.1l.31,.07,.32,.07,.25,.05,.11,.02c.4,.08,.81,.15,1.22,.22h.06c.37,.07,.75,.12,1.12,.16h.01c1.54,.24,5.21,.41,7.65,1.22,1.12,.37,1.98,.87,2.27,1.58,.04,.09,.06,.18,.08,.28h0c.01,.1,.02,.19,.02,.29-.2,.08-.4,.16-.6,.24-.31,.12-.63,.24-.95,.35-2.21,.77-4.51,1.27-6.84,1.49-16.11,1.51-30.39-10.32-31.9-26.42-.03-.37-.06-.73-.08-1.09-.15-2.66,.06-5.33,.63-7.94v-.05c1.02-.04,1.77,.21,2.33,.55Z"/><path class="cls-79" d="M256.54,351.51c.04,.09,.06,.18,.08,.28h0c.01,.1,.02,.19,.02,.29h0v.02c-.04,.88-.46,1.67-1.02,2.34,.4-1.74-.14-3.22-1.35-4.51,1.12,.37,1.98,.87,2.28,1.58Z"/><path class="cls-11" d="M256.53,351.51c.04,.09,.06,.18,.08,.28h0c.01,.1,.02,.2,.02,.29-.19,.08-.39,.16-.59,.24-.13,.05-.25,.1-.38,.14-.19-.92-.67-1.76-1.39-2.53,1.12,.37,1.98,.87,2.27,1.58Z"/></g><path class="cls-43" d="M229.28,351.24c-4.13-1.63,0,0,0,0l-6.43-7.27h0c-3.42-5.08-7.45-9.72-11.98-13.83l-11.6-10.52-7.44,5.3c1.13,3.34,2.59,6.81,3.73,10.35l36.12,37.92c5.34,.67,14.8,1.52,22.18,2.04l-24.58-23.99Z"/></g><g><g><path class="cls-95" d="M168.86,291.83c-1.14,36.32,1.72,76.34,7,112.2,1.25-.05,2.5-.11,3.74-.16-5.07-34.79-8.16-68.66-6.5-103.88-1.53-.95-2.73-7.18-4.24-8.15Z"/><path class="cls-13" d="M179.61,403.86c.79-.65,1.57-1.31,2.35-1.97-4.74-33.14-6.93-65.82-5.96-99.31-.98-.85-1.96-1.7-2.9-2.6-1.66,35.22,1.44,69.09,6.5,103.88Z"/></g><g><path class="cls-21" d="M137.35,249.71c1.61-2.02,3.21-4.04,4.82-6.06,57.62,87.53,99.11,138.15,188.81,194.58-.1,2.45-.21,4.9-.31,7.35-91.31-56.3-134.93-107.23-193.32-195.87Z"/><path class="cls-61" d="M142.17,243.64c1.2,.13,2.4,.26,3.61,.39,57.58,86.54,99.33,136.12,188.49,191.57-1.1,.87-2.19,1.74-3.28,2.62-89.7-56.43-131.19-107.06-188.81-194.58Z"/><path class="cls-83" d="M330.67,445.58c.11-2.45,.21-4.9,.31-7.35,1.09-.87,2.19-1.74,3.28-2.62,.12,2.36,.23,4.71,.35,7.07-1.31,.97-2.63,1.93-3.94,2.9Z"/></g><g><path class="cls-39" d="M158.66,398.75c.61,2.04,1.21,4.08,1.82,6.12,54.86-12.43,109.13-12.42,162.32-24.02-.21-1.38-.41-2.77-.62-4.15-52.63,11.63-108.37,10.28-163.52,22.05Z"/><path class="cls-66" d="M158.66,398.75c.7-.94,1.41-1.88,2.1-2.83,55.98-13.19,109.73-11.85,163.95-23.18-.84,1.32-1.7,2.63-2.53,3.96-52.63,11.63-108.37,10.28-163.52,22.05Z"/><path class="cls-52" d="M324.71,372.73c-.84,1.32-1.7,2.63-2.53,3.96,.21,1.39,.41,2.77,.62,4.15,.93-1.14,1.89-2.26,2.82-3.39-.31-1.57-.61-3.15-.91-4.72Z"/></g></g><g class="cls-86"><path d="M205.89,259.62l.3,1.32c1.25,5.56-1.8,11.19-7.14,13.18-1.68,.63-3.49,.84-5.27,.63-.41-.05-.81-.11-1.21-.2-.94-.22-1.85-.55-2.71-.99-2.99-1.55-5.14-4.34-5.88-7.62l-.3-1.32c-.05-.2,.08-.4,.28-.44h0l21.48-4.83c.2-.05,.4,.08,.44,.28h0Z"/><path d="M232.65,253.6l.3,1.32c1.23,5.45-1.68,10.98-6.86,13.06-.57,.23-1.15,.41-1.74,.55-.47,.11-.94,.18-1.42,.22-.46,.05-.92,.07-1.38,.05-.53-.01-1.07-.07-1.59-.16-.4-.07-.8-.16-1.19-.27-4.02-1.13-7.1-4.38-8.02-8.46l-.3-1.32c-.04-.2,.08-.4,.28-.44h0l21.48-4.83c.2-.05,.4,.08,.44,.28h0Z"/></g><g><path class="cls-96" d="M226.6,266.97c-.26,.12-.52,.22-.78,.32-1.82,.68-3.8,.92-5.73,.69-.43-.05-.88-.12-1.31-.22-2.08-.47-4.01-1.48-5.59-2.92-1.05-.95-1.91-2.06-2.57-3.3l-3.59,.81c-.25,4.9-3.4,9.25-8.04,10.97-1.82,.68-3.8,.92-5.73,.69-.43-.05-.87-.12-1.31-.22-2.08-.47-4.01-1.48-5.59-2.92-1.89-1.72-3.19-3.94-3.75-6.43l-.3-1.33c-.08-.34-.02-.7,.17-.99,.19-.3,.48-.5,.82-.58l21.56-4.85c.34-.08,.7-.02,1,.17,.26,.17,.45,.41,.55,.7l.03,.12,.08,.36,2.71-.61-.08-.36c-.16-.71,.29-1.41,1-1.58l21.56-4.85c.34-.08,.7-.02,.99,.17,.3,.19,.5,.48,.58,.82l.3,1.34c1.29,5.73-1.69,11.6-6.98,13.99Zm-21.46-6.13l6.54-1.47,.32,.7c.59,1.29,1.42,2.43,2.47,3.38,1.34,1.22,2.97,2.07,4.73,2.47,.36,.08,.73,.14,1.1,.19,1.64,.19,3.32,0,4.86-.58,4.89-1.81,7.72-7.03,6.57-12.12l-.17-.77-20.43,4.6,.37,1.65-6.4,1.44-.37-1.65-20.43,4.6,.17,.77c.47,2.11,1.57,3.99,3.17,5.45,1.34,1.22,2.97,2.07,4.73,2.47,.36,.08,.73,.14,1.1,.18,1.64,.19,3.32,0,4.86-.58,4.14-1.53,6.88-5.53,6.82-9.95v-.77Z"/><path class="cls-65" d="M231.91,251.58l-21.56,4.85c-.2,.05-.33,.24-.28,.44l.29,1.28-4.55,1.02-.29-1.28h0c-.05-.2-.24-.33-.44-.28l-21.56,4.85c-.2,.05-.33,.24-.28,.44l.3,1.33c.51,2.29,1.72,4.36,3.46,5.94,1.46,1.33,3.24,2.26,5.16,2.69,.4,.09,.8,.16,1.21,.2,1.79,.21,3.6,0,5.29-.64,4.6-1.71,7.5-6.11,7.44-10.85l5.04-1.13c.64,1.39,1.55,2.64,2.69,3.68,1.46,1.33,3.24,2.26,5.16,2.69,.4,.09,.8,.16,1.21,.2,1.79,.21,3.6,0,5.29-.64,5.36-1.99,8.42-7.64,7.16-13.21l-.3-1.33h0c-.05-.2-.24-.33-.44-.28Z"/><path class="cls-57" d="M219.36,254.4l-3.09,11.44c-.89-.46-1.71-1.03-2.44-1.7l2.45-9.05,3.09-.7Z"/><path class="cls-57" d="M222.54,253.69l-3.55,13.15c-.51-.12-1.02-.27-1.51-.46l3.33-12.3,1.74-.39Z"/><path class="cls-57" d="M192.53,260.44l-3.09,11.44c-.89-.46-1.71-1.03-2.44-1.7l2.45-9.05,3.09-.7Z"/><path class="cls-57" d="M195.71,259.72l-3.55,13.15c-.51-.12-1.02-.27-1.51-.46l3.33-12.3,1.74-.39Z"/></g><path class="cls-93" d="M233.87,294.92s9.45-.34,18.31,.82c8.86,1.16,16.19,1.89,19.47,1.71s4.45-.7,5.77-5.13c1.33-4.43,2.84-14.67,2.9-18.33,1.17-4.63,7.29,.96,9.1,2.36-.07,3.37,.7,7.56,2.02,16.48,1.32,8.92,1.37,14.17-1.05,16.38s-11.11,3.11-14.31,3.88-15.41,1.65-23.19-2.11-19.04-16.06-19.04-16.06Z"/><path class="cls-44" d="M291.46,292.83c-.2-1.39-.38-2.72-.54-4.01h0s-.81,14.44-2.03,16.58-5.35,3.29-9.64,4.16c-4.29,.87-10.09,.61-13.45,.61-3.36,0-6.43,.52-6.43,.52-6.02-.75-10.76-3.25-10.76-3.25l1.06,1.64c1.12,.75,2.21,1.4,3.24,1.9,3.34,1.61,7.49,2.37,11.4,2.65h0c5.2,.37,9.96-.1,11.79-.54,3.2-.77,11.89-1.67,14.31-3.88s2.36-7.46,1.05-16.38Z"/><path class="cls-12" d="M282.11,277.54c-1.25-.92-1.89-2.44-1.76-3.98s.09-4.28-1.08-7.92c-1.84-5.71-6-19.97-.87-25.81s7.35-3.14,7.06-1.83-2.81,2.61-2.81,4.82,1.52,9.66,4.65,14.59,3.48,3.87,3.29,8.42-.77,11.51-2.22,13.16c-.96,1.09-4.15,.11-6.26-1.45Z"/><path class="cls-97" d="M285.14,263.86c-.04-.21,.19-3.66,.13-4.62s1.57-5.08,2.81-6.1,3.31-4.38,3.97-4.48,3.91-.5,2.92,2.56-3.38,5.97-3.71,7.28-.05,2.9-1.12,4.4-4.7,2.7-5.01,.98Z"/></g><polygon class="cls-76" points="308.58 312.28 297.77 315.88 411.67 322.44 454.15 308.8 446.02 307.04 308.58 312.28"/><g><polygon class="cls-121" points="308.58 314.52 407.61 318.89 407.62 251.62 308.59 255.97 308.58 314.52"/><polygon points="316.05 261.62 316.05 308.87 402.07 313.44 401.88 257.27 316.05 261.62"/><path class="cls-3" d="M346.74,311.36l8.52,3.35v-58.85l-8.52,3.32v52.18Z"/><path class="cls-108" d="M402.07,313.44l-47.81,3.73v-63.76l48.1,3.74-.29,56.3Z"/><g><path class="cls-28" d="M369.3,299.42l-1.7-4.37,11.88-10.21,1.7,4.37-10.13,10.43-1.75-.22Z"/><ellipse class="cls-35" cx="381.3" cy="286.5" rx="5.37" ry="8.01"/><path class="cls-28" d="M382.67,279.51l-2.04-.29h-1.36v-14.17h3.4v14.46Z"/><path class="cls-1" d="M380.63,265.05l4.23-.02v20.42l-4.23,.02v-20.42Z"/><path class="cls-28" d="M394.73,295.25l-1.08,2.81-2.32,.1-10.16-8.75,1.7-4.37,11.85,10.21Z"/><path class="cls-1" d="M395.36,293.68l-1.7,4.37-11.85-10.21,1.7-4.37,11.85,10.21Z"/><path class="cls-1" d="M371.06,299.65l-1.7-4.37,11.88-10.21,1.7,4.37-11.88,10.21Z"/><ellipse class="cls-28" cx="382.94" cy="286.4" rx="5.37" ry="8.01"/><ellipse class="cls-82" cx="382.94" cy="286.4" rx="2.43" ry="3.64"/><path class="cls-28" d="M375.98,287.84s1.07,.38,1.7,.26l-8.32,7.15-1.75-.22c1.41-1.53,8.18-6.96,8.37-7.18h0Z"/></g><path class="cls-40" d="M401.2,273.74v-9.99h2.3v9.99h-2.3Z"/><ellipse class="cls-82" cx="351.12" cy="277.05" rx="1.67" ry="2.36"/><ellipse class="cls-82" cx="351.06" cy="285.76" rx="1.67" ry="2.36"/><ellipse class="cls-82" cx="351.06" cy="294.19" rx="1.67" ry="2.36"/><path class="cls-58" d="M401.2,307.53v-9.96h2.3v9.96h-2.3Z"/><polygon class="cls-28" points="407.61 318.89 446.66 308.93 446.66 257.27 407.62 251.62 407.61 318.89"/></g><g><g><path class="cls-5" d="M335.82,283.88c-3.69,6.25-11.75,8.32-17.99,4.62-.33-.19-.64-.4-.95-.62-5.5-3.91-7.18-11.46-3.68-17.38,3.69-6.25,11.75-8.32,17.99-4.62,1.33,.78,2.51,1.8,3.49,2.99,3.39,4.14,4.01,10.12,1.13,15Z"/><path class="cls-73" d="M336.79,282.73c-3.76,6.36-11.96,8.47-18.32,4.71-.33-.2-.65-.41-.96-.63-5.6-3.99-7.31-11.67-3.75-17.7,3.76-6.36,11.96-8.47,18.32-4.71,1.36,.8,2.56,1.83,3.56,3.05,3.45,4.22,4.09,10.31,1.15,15.27Z"/><path class="cls-14" d="M335.12,281.74c-3.22,5.44-10.24,7.25-15.68,4.03-.28-.17-.56-.35-.82-.54-4.79-3.41-6.26-9.99-3.21-15.14,3.22-5.44,10.24-7.25,15.68-4.03,1.16,.68,2.19,1.57,3.04,2.61,2.95,3.61,3.5,8.82,.99,13.07Z"/><path class="cls-122" d="M323.7,276.68s.69-1.01,.03-2.95c-.94-2.78-.95-3.28,.49-2.08,1.44,1.2,1.81,3.22,1.81,3.22"/><path class="cls-11" d="M318.64,277.6l.35-.7-1.38-.69c-.14-.07-.32-.01-.39,.13l-.09,.18c-.07,.14-.01,.32,.13,.39h0l1.38,.68Z"/><path class="cls-79" d="M318.64,277.6l.17-.35-1.64-.81-.05,.09c-.07,.14-.01,.32,.13,.39h0l1.38,.68Z"/><path class="cls-5" d="M325.84,278.76c-.09-.39-.23-.74-.41-1.09-.18-.34-.4-.65-.61-.97-.19-.28-.34-.57-.59-.79-.02,.01-.05,.02-.07,.03l-.07,.03c-.05,.02-.11,.05-.17,.07h-.02s-.05,.03-.07,.04-.05,.02-.08,.03c-.06,.02-.11,.04-.17,.06-.17,.06-.34,.11-.51,.16-.03,0-.06,.02-.09,.02-.05,.01-.09,.02-.14,.04-.04,0-.07,.02-.1,.02s-.07,.02-.1,.02h-.02c-.05,.02-.1,.03-.15,.04h-.04s-.04,.02-.06,.02h-.06c-.05,.02-.1,.03-.15,.04-.07,.01-.15,.02-.22,.03-.06,0-.12,.01-.18,.02h-.03s-.1,.01-.15,.01h0c-.08,0-.16,.01-.24,.01-.16,0-.33,0-.49,0-.3,0-.6-.03-.9-.07-.13-.02-.26-.04-.38-.06h0c-.06-.01-.13-.03-.19-.04-.06-.01-.11-.02-.17-.04-.08-.02-.15-.04-.23-.06h0s-.02,0-.06,0c-.01,0-.02,0-.04,0,0,0-.01,0-.02,0s-.02,0-.02,0c-.2,0-.4,.07-.56,.2h-.01c-.1,.1-.19,.21-.25,.33-.03,.07-.06,.14-.08,.21h0c-.02,.05-.02,.11-.03,.16,0,.19,.06,.37,.17,.54,.23,.33,.61,.6,.86,.74,2.13,1.21,4.69,1.36,6.95,.42-.01-.05-.02-.1-.03-.16Z"/><path class="cls-73" d="M324.82,276.69c-.19-.28-.34-.57-.59-.79-.02,.01-.05,.02-.07,.03l-.07,.03s-.05,.02-.07,.03c-.03,.01-.06,.03-.09,.04h-.02s-.05,.03-.07,.04-.05,.02-.08,.03-.05,.02-.08,.03-.06,.02-.09,.03c-.05,.02-.1,.03-.16,.05h-.03s-.05,.03-.07,.03c-.05,.02-.11,.03-.16,.05-.03,0-.06,.02-.09,.03s-.06,.02-.09,.02c-.05,.01-.09,.02-.14,.04-.03,0-.07,.02-.1,.02s-.07,.02-.1,.02h-.02c-.05,.02-.1,.03-.15,.04h-.04l-.06,.02h-.06c-.05,.02-.1,.03-.15,.04-.05,0-.09,.01-.14,.02-.03,0-.05,0-.08,.01-.06,0-.12,.01-.18,.02h-.03s-.1,.01-.15,.01h0s-.08,0-.11,0-.08,0-.12,0c-.06,0-.12,0-.17,0h-.09c-.08,0-.15,0-.23,0-.05,0-.1,0-.15,0-.08,0-.15,0-.22-.01-.05,0-.1,0-.15-.01-.08,0-.15-.01-.23-.02-.05,0-.1-.01-.14-.02-.08-.01-.17-.02-.25-.04l-.1-.02h-.04c-.06-.02-.13-.03-.19-.05-.06-.01-.11-.02-.17-.04-.08-.02-.15-.04-.23-.06h0s-.02,0-.06,0c-.01,0-.02,0-.04,0,0,0-.01,0-.02,0s-.02,0-.02,0c-.2,0-.4,.07-.56,.2h-.01c-.1,.1-.19,.21-.25,.33-.03,.07-.06,.14-.08,.21h.01c.61,.38,1.28,.66,1.97,.85,.09,.03,.19,.05,.28,.07,1.66,.4,3.4,.24,4.97-.45,.05-.02,.11-.05,.16-.07-.15-.26-.33-.51-.49-.76Z"/><path class="cls-6" d="M326.19,278.78l-1.05-1.25-1.25-1.49h.02s.06-.03,.09-.05c.02-.01,.05-.02,.07-.03s.05-.02,.07-.03c.06-.03,.12-.05,.19-.08,.04-.02,.08-.04,.12-.06,.08-.04,.16-.08,.23-.12,.03-.01,.05-.03,.08-.04h.02s.09-.07,.14-.09,.1-.06,.14-.08c.05-.03,.11-.07,.16-.1,.05-.03,.09-.06,.13-.09s.09-.06,.14-.1c.02-.01,.03-.02,.04-.03,.03-.02,.06-.04,.09-.07h0s.09-.07,.13-.1c.01,0,.02-.01,.03-.02l.02-.02s.06-.05,.09-.07c.02-.02,.05-.04,.07-.06s.05-.04,.07-.06l.02-.02,.04-.04s.03-.03,.05-.04c.1-.09,.2-.18,.29-.27,.05-.05,.09-.09,.14-.14,.07-.07,.13-.14,.2-.21l.02-.02s.01-.01,.02-.02c.07-.08,.15-.17,.22-.25,.02-.03,.05-.06,.07-.09s.05-.06,.07-.09c.03-.03,.05-.07,.08-.1,.02-.02,.03-.04,.05-.06,.03-.04,.06-.08,.08-.12,.03-.03,.05-.07,.08-.11,.04-.06,.08-.13,.13-.19,.02-.03,.04-.06,.06-.1l.02-.04s.02-.02,.02-.04c.01-.02,.03-.05,.05-.07l.05-.09c.06-.1,.11-.19,.16-.29h0c.05-.1,.09-.2,.13-.29h0c.19-.37,.55-1.29,.97-1.85,.19-.25,.39-.43,.6-.44,.03,0,.05,0,.08,0h0s.05,.01,.08,.02h0c.22,.09,.39,.26,.51,.46,.25,.4,.31,.9,.32,.96,.17,3.19-1.6,6.18-4.49,7.55h0Z"/><path class="cls-125" d="M325.15,277.53c2.19-.96,3.92-2.9,4.51-5.4,.14-.61,.22-1.24,.21-1.87,0-.09,0-.18,0-.27,0-.06,0-.12,0-.17-.02,0-.05-.02-.08-.02h0s-.05,0-.08,0c-.2,.01-.41,.19-.6,.44-.42,.55-.78,1.47-.97,1.84h0c-.04,.1-.09,.19-.13,.28h0c-.05,.11-.1,.21-.16,.31l-.02,.03-.03,.06s-.03,.05-.05,.07c0,.01-.01,.03-.02,.04l-.02,.04s-.04,.07-.06,.1c-.04,.06-.08,.13-.13,.19-.02,.04-.05,.07-.08,.11-.03,.04-.06,.08-.08,.12l-.05,.06s-.05,.07-.08,.1c-.02,.03-.05,.06-.07,.09s-.05,.06-.07,.09c-.07,.08-.14,.17-.22,.25,0,0-.01,.01-.02,.02l-.02,.02c-.06,.07-.13,.14-.2,.21-.05,.05-.09,.09-.14,.14-.1,.09-.19,.18-.29,.27-.02,.01-.03,.03-.05,.04s-.03,.03-.04,.04l-.02,.02s-.05,.04-.07,.06-.05,.04-.07,.06c-.03,.02-.06,.05-.09,.07l-.02,.02s-.02,.01-.03,.02c-.04,.03-.09,.07-.13,.1h0s-.06,.05-.09,.07c-.01,.01-.03,.02-.04,.03-.05,.03-.1,.06-.14,.1s-.09,.06-.13,.09c-.05,.03-.11,.07-.16,.1-.05,.03-.09,.06-.14,.08s-.09,.05-.14,.08h-.02s-.05,.04-.08,.06c-.08,.04-.16,.08-.23,.12-.04,.02-.08,.04-.12,.06-.06,.03-.12,.06-.19,.08-.02,.01-.05,.02-.07,.03s-.05,.02-.07,.03c-.03,.01-.06,.03-.09,.04h-.02l1.25,1.5Z"/><path class="cls-122" d="M323.9,276.04s1.1,1.37,1.34,2.27c.36,1.41,.54,1.89-1.55,4.26-.08,.09-.15,.18-.22,.27-.31,.42-1.03,1.51,2.27-.06,3.96-1.89,1.5-4.54,1.5-4.54-.91-.97-2.06-1.69-3.32-2.19Z"/><path class="cls-125" d="M331.8,264.85c1.35,.8,2.56,1.83,3.55,3.05,3.39,4.15,4.06,10.11,1.29,15.02,.04-.07,.08-.14,.12-.2,2.93-4.96,2.29-11.05-1.15-15.27-1-1.22-2.2-2.25-3.55-3.05-6.36-3.76-14.56-1.65-18.31,4.71-.05,.08-.09,.15-.13,.23,3.81-6.19,11.9-8.2,18.18-4.49Z"/><path class="cls-5" d="M330.87,266.45c1.16,.68,2.19,1.57,3.04,2.61,2.9,3.55,3.48,8.65,1.11,12.86,.04-.06,.07-.12,.11-.17,2.51-4.25,1.96-9.46-.99-13.07-.85-1.04-1.88-1.93-3.04-2.61-5.44-3.22-12.46-1.41-15.68,4.03-.04,.07-.08,.13-.11,.2,3.27-5.3,10.19-7.02,15.57-3.84Z"/></g><g class="cls-36"><path class="cls-47" d="M338.63,275.31l-25.37,6.52c.39,.79,.86,1.55,1.4,2.25l23.82-6.12c.14-.88,.18-1.77,.14-2.65Z"/><path class="cls-47" d="M335.63,267.45c-.06-.08-.13-.16-.2-.23l-23.27,5.98c-.5,2.4-.32,4.88,.48,7.14l25.82-6.64c-.38-2.27-1.35-4.44-2.83-6.25Z"/></g></g><g><g><path class="cls-56" d="M327.96,242.31c.08,8.8-6.98,16-15.78,16.08-.46,0-.92-.01-1.37-.05-8.17-.62-14.63-7.4-14.71-15.74-.08-8.8,6.98-16,15.78-16.08,1.87-.02,3.74,.29,5.5,.92,6.11,2.18,10.51,7.99,10.58,14.86Z"/><path class="cls-70" d="M328.23,240.51c.08,8.96-7.11,16.29-16.07,16.37-.47,0-.93-.01-1.39-.05-8.32-.63-14.9-7.53-14.98-16.03-.08-8.96,7.11-16.29,16.07-16.37,1.91-.02,3.8,.3,5.6,.94,6.23,2.22,10.71,8.14,10.77,15.13Z"/><path class="cls-9" d="M325.89,240.53c.07,7.67-6.09,13.94-13.75,14.01-.4,0-.8-.01-1.19-.04-7.12-.54-12.75-6.45-12.82-13.71-.07-7.67,6.09-13.94,13.75-14.01,1.63-.02,3.26,.25,4.79,.8,5.33,1.9,9.16,6.97,9.22,12.95Z"/><path class="cls-107" d="M311.86,225.07c1.91-.02,3.8,.3,5.6,.94,6.12,2.18,10.55,7.95,10.76,14.78,0-.1,0-.19,0-.29-.07-6.99-4.54-12.91-10.77-15.13-1.8-.64-3.69-.96-5.6-.94-8.95,.08-16.15,7.41-16.06,16.37,0,.11,0,.22,0,.32,.08-8.81,7.21-15.98,16.06-16.06Z"/><path class="cls-56" d="M311.89,227.32c1.63-.02,3.26,.25,4.79,.8,5.24,1.87,9.04,6.8,9.21,12.66,0-.08,0-.17,0-.25-.06-5.98-3.89-11.05-9.22-12.95-1.54-.55-3.16-.82-4.79-.8-7.67,.07-13.82,6.35-13.75,14.01,0,.09,0,.19,0,.28,.07-7.55,6.17-13.68,13.75-13.75Z"/></g><g><polygon class="cls-70" points="309.72 235.68 311.73 236.87 313.75 235.68 311.73 234.49 309.72 235.68"/><polygon class="cls-70" points="304.82 240.93 302.81 239.74 302.81 246.19 308.28 249.39 308.28 247.02 304.83 244.99 304.82 240.93"/><polygon class="cls-70" points="304.82 236.87 306.83 235.68 304.82 234.49 302.81 235.68 302.81 238.05 304.82 239.23 304.82 236.87"/><polygon class="cls-70" points="318.64 236.87 318.64 239.23 320.65 238.05 320.65 235.68 318.64 234.49 316.63 235.68 318.64 236.87"/><polygon class="cls-70" points="318.65 240.93 318.64 244.99 315.19 247.02 315.19 249.39 320.66 246.19 320.66 239.74 318.65 240.93"/><polygon class="cls-70" points="306.27 244.15 308.28 245.32 308.28 242.96 306.27 241.77 306.27 244.15"/><polygon class="cls-70" points="309.72 247.87 309.72 250.23 311.73 251.42 313.75 250.23 313.75 247.87 311.73 249.06 309.72 247.87"/><polygon class="cls-70" points="317.19 241.77 315.19 242.96 315.19 245.32 317.19 244.15 317.19 241.77"/><polygon class="cls-70" points="311.73 232.8 315.19 234.84 317.19 233.65 311.73 230.43 306.27 233.65 308.28 234.84 311.73 232.8"/><polygon class="cls-70" points="317.19 237.71 317.2 237.71 315.18 236.52 311.73 238.56 308.29 236.52 306.27 237.71 306.27 240.09 309.73 242.12 309.73 246.19 311.74 247.36 313.75 246.19 313.75 242.12 317.21 240.09 317.19 237.71"/></g><g class="cls-36"><path class="cls-47" d="M325.51,231.65l-22.25,22.67c.9,.58,1.86,1.07,2.87,1.46l20.9-21.29c-.41-1-.92-1.95-1.51-2.84Z"/><path class="cls-47" d="M317.46,225.37c-.12-.04-.23-.08-.35-.12l-20.41,20.79c.99,2.81,2.73,5.26,4.97,7.12l22.65-23.07c-1.82-2.12-4.18-3.76-6.86-4.72Z"/></g></g></svg>