<?xml version="1.0" encoding="UTF-8"?><svg id="Laag_1" xmlns="http://www.w3.org/2000/svg" xmlns:xlink="http://www.w3.org/1999/xlink" viewBox="0 0 500 500"><defs><style>.cls-1{fill:url(#linear-gradient-75);}.cls-2{fill:url(#linear-gradient-2);}.cls-3{fill:url(#linear-gradient-51);}.cls-4,.cls-5{fill:#fff;}.cls-6{fill:url(#linear-gradient-87);}.cls-7{fill:url(#linear-gradient-93);}.cls-8{fill:url(#linear-gradient-92);}.cls-9{fill:url(#linear-gradient-80);}.cls-10{fill:#faf4e6;}.cls-11{fill:url(#linear-gradient-109);}.cls-12{fill:url(#linear-gradient-43);}.cls-13{fill:#a70011;}.cls-14{fill:#81172d;opacity:.3;}.cls-15{fill:url(#linear-gradient-15);}.cls-16{fill:url(#linear-gradient-58);}.cls-17{fill:url(#linear-gradient-69);}.cls-18{fill:url(#linear-gradient-81);}.cls-19{fill:#e6646e;}.cls-20{fill:url(#linear-gradient-18);}.cls-21{fill:#845730;}.cls-22{fill:url(#linear-gradient-40);}.cls-23{fill:url(#linear-gradient-28);}.cls-24{fill:url(#linear-gradient-14);}.cls-25{fill:url(#linear-gradient-36);}.cls-26{fill:url(#linear-gradient-78);}.cls-27{fill:url(#linear-gradient-20);}.cls-28{fill:url(#linear-gradient-6);}.cls-29{fill:url(#linear-gradient-53);}.cls-30{fill:url(#linear-gradient-91);}.cls-31{fill:url(#linear-gradient-60);}.cls-32{fill:#825346;}.cls-33{fill:url(#linear-gradient-52);}.cls-33,.cls-34,.cls-35{opacity:.29;}.cls-36{fill:url(#linear-gradient-108);}.cls-37{fill:url(#linear-gradient-84);}.cls-38{fill:url(#linear-gradient-104);}.cls-39{fill:url(#linear-gradient-35);}.cls-40{fill:url(#linear-gradient-32);}.cls-41{fill:url(#linear-gradient-97);}.cls-42{fill:url(#linear-gradient-11);}.cls-43{fill:url(#linear-gradient-50);}.cls-44{fill:url(#linear-gradient-106);}.cls-45{fill:url(#linear-gradient-111);}.cls-46{fill:url(#linear-gradient-63);}.cls-47{fill:url(#linear-gradient-67);}.cls-48{fill:url(#linear-gradient-95);}.cls-49{fill:url(#linear-gradient-86);}.cls-50{fill:url(#linear-gradient-39);}.cls-51{fill:url(#linear-gradient-110);}.cls-52{fill:url(#linear-gradient-10);}.cls-53{fill:url(#linear-gradient-59);}.cls-54{fill:#f1f0f0;}.cls-55{isolation:isolate;opacity:.35;}.cls-55,.cls-56{fill:#4e3f3f;}.cls-57{fill:url(#linear-gradient-49);}.cls-58{fill:url(#linear-gradient-37);}.cls-59{fill:url(#linear-gradient-82);}.cls-60{fill:#b77834;}.cls-61{fill:url(#linear-gradient-16);}.cls-62{fill:url(#linear-gradient-31);}.cls-63{fill:#5d5360;}.cls-64{fill:url(#Naamloos_verloop_31);}.cls-65{fill:url(#linear-gradient-85);}.cls-66{fill:url(#linear-gradient-112);}.cls-67{fill:url(#linear-gradient-61);}.cls-68{fill:url(#linear-gradient-114);}.cls-69{fill:url(#linear-gradient-68);}.cls-70{fill:#c19b68;}.cls-71{fill:url(#linear-gradient-103);}.cls-72{fill:url(#linear-gradient-107);}.cls-73{fill:url(#linear-gradient-41);}.cls-74{fill:#ffd54f;}.cls-75{fill:url(#linear-gradient-76);}.cls-76{fill:url(#linear-gradient-98);}.cls-77{fill:#91061a;}.cls-78{fill:#8c2f13;opacity:.26;}.cls-79{fill:url(#linear-gradient-21);}.cls-80{fill:url(#linear-gradient-72);}.cls-81{fill:url(#linear-gradient-25);}.cls-34{fill:url(#linear-gradient-56);}.cls-82{fill:url(#linear-gradient-89);}.cls-83{fill:url(#linear-gradient-5);}.cls-84{fill:url(#linear-gradient-64);}.cls-85{fill:url(#linear-gradient-102);}.cls-86{fill:url(#linear-gradient-83);}.cls-87{fill:url(#linear-gradient-54);}.cls-88{fill:url(#linear-gradient-45);}.cls-89{opacity:.1;}.cls-90{fill:url(#linear-gradient-113);}.cls-91{fill:url(#linear-gradient-55);}.cls-92{fill:url(#linear-gradient-17);}.cls-92,.cls-93{opacity:.41;}.cls-94{fill:url(#linear-gradient-34);}.cls-95{fill:url(#linear-gradient-65);}.cls-96{fill:url(#linear-gradient-70);}.cls-97{fill:#f9ab6d;}.cls-98{fill:#a16552;}.cls-99{fill:#436abf;}.cls-100{fill:url(#linear-gradient-79);}.cls-101{fill:url(#Naamloos_verloop_7);}.cls-102{fill:url(#linear-gradient-88);}.cls-103{fill:url(#linear-gradient-7);}.cls-104{fill:url(#linear-gradient-66);}.cls-105{fill:url(#linear-gradient-96);}.cls-106{fill:#f5dcb4;}.cls-107{fill:url(#linear-gradient-24);}.cls-108{fill:url(#linear-gradient-73);}.cls-109{fill:url(#linear-gradient-100);}.cls-110{fill:url(#linear-gradient-105);}.cls-111{fill:url(#linear-gradient-9);}.cls-112{fill:url(#linear-gradient-22);}.cls-5{opacity:.59;}.cls-113{fill:url(#linear-gradient-74);}.cls-114{fill:url(#linear-gradient-42);}.cls-115{fill:url(#linear-gradient-99);}.cls-116{fill:url(#linear-gradient-3);}.cls-93{fill:url(#linear-gradient-62);}.cls-35{fill:url(#linear-gradient-48);}.cls-117{fill:url(#linear-gradient);}.cls-118{fill:url(#linear-gradient-27);}.cls-119{fill:url(#linear-gradient-33);}.cls-120{fill:url(#linear-gradient-38);}.cls-121{fill:url(#linear-gradient-94);}.cls-122{fill:url(#linear-gradient-29);}.cls-123{fill:url(#linear-gradient-30);}.cls-124{fill:#3860a8;}.cls-125{fill:url(#linear-gradient-23);}.cls-126{fill:url(#linear-gradient-19);}.cls-127{fill:url(#linear-gradient-71);}.cls-128{fill:url(#linear-gradient-4);}.cls-129{fill:url(#linear-gradient-77);}.cls-130{fill:url(#linear-gradient-8);}.cls-131{fill:url(#linear-gradient-90);}.cls-132{fill:url(#linear-gradient-44);}.cls-133{fill:url(#linear-gradient-57);}.cls-134{fill:url(#linear-gradient-47);}.cls-135{fill:url(#linear-gradient-46);}.cls-136{fill:url(#linear-gradient-12);}.cls-137{fill:url(#linear-gradient-13);}.cls-138{fill:url(#linear-gradient-26);}.cls-139{fill:url(#linear-gradient-101);}</style><linearGradient id="linear-gradient" x1="209.81" y1="530.26" x2="209.81" y2="-376.98" gradientTransform="matrix(1, 0, 0, 1, 0, 0)" gradientUnits="userSpaceOnUse"><stop offset="0" stop-color="#b8f7f6"/><stop offset=".53" stop-color="#46e1fa"/><stop offset="1" stop-color="#047be7"/></linearGradient><linearGradient id="linear-gradient-2" x1="224.51" y1="190.28" x2="196.87" y2="534.24" gradientTransform="matrix(1, 0, 0, 1, 0, 0)" gradientUnits="userSpaceOnUse"><stop offset="0" stop-color="#feea9f" stop-opacity="0"/><stop offset=".29" stop-color="#feea9f"/><stop offset="1" stop-color="#feb85c"/></linearGradient><linearGradient id="linear-gradient-3" x1="273.15" x2="273.15" xlink:href="#linear-gradient"/><linearGradient id="linear-gradient-4" x1="288.12" y1="195.39" x2="260.48" y2="539.35" xlink:href="#linear-gradient-2"/><linearGradient id="linear-gradient-5" x1="302.29" x2="302.29" xlink:href="#linear-gradient"/><linearGradient id="linear-gradient-6" x1="317.59" y1="197.76" x2="289.95" y2="541.72" xlink:href="#linear-gradient-2"/><linearGradient id="linear-gradient-7" x1="279.32" x2="279.32" xlink:href="#linear-gradient"/><linearGradient id="linear-gradient-8" x1="293.58" y1="195.83" x2="265.94" y2="539.79" xlink:href="#linear-gradient-2"/><linearGradient id="linear-gradient-9" x1="144.29" x2="144.29" y2="-376.98" xlink:href="#linear-gradient"/><linearGradient id="linear-gradient-10" x1="161.94" y1="185.25" x2="134.3" y2="529.21" xlink:href="#linear-gradient-2"/><linearGradient id="linear-gradient-11" x1="368.7" x2="368.7" xlink:href="#linear-gradient"/><linearGradient id="linear-gradient-12" x1="382.54" y1="202.98" x2="354.9" y2="546.94" xlink:href="#linear-gradient-2"/><linearGradient id="linear-gradient-13" x1="302.76" x2="302.76" xlink:href="#linear-gradient"/><linearGradient id="linear-gradient-14" x1="321.27" y1="198.05" x2="293.63" y2="542.01" xlink:href="#linear-gradient-2"/><linearGradient id="linear-gradient-15" x1="159.07" x2="159.07" xlink:href="#linear-gradient"/><linearGradient id="linear-gradient-16" x1="180.58" y1="186.75" x2="152.94" y2="530.71" xlink:href="#linear-gradient-2"/><linearGradient id="linear-gradient-17" x1="-197.83" y1="454.48" x2="164.36" y2="454.48" gradientTransform="matrix(1, 0, 0, 1, 0, 0)" gradientUnits="userSpaceOnUse"><stop offset="0" stop-color="#f48a5b"/><stop offset=".54" stop-color="#f9a267" stop-opacity=".46"/><stop offset="1" stop-color="#ffb872" stop-opacity="0"/></linearGradient><linearGradient id="linear-gradient-18" x1="373.97" x2="373.97" xlink:href="#linear-gradient"/><linearGradient id="linear-gradient-19" x1="387.36" y1="203.36" x2="359.72" y2="547.32" xlink:href="#linear-gradient-2"/><linearGradient id="linear-gradient-20" x1="373.97" y1="380.43" x2="373.97" y2="105.57" gradientTransform="matrix(1, 0, 0, 1, 0, 0)" gradientUnits="userSpaceOnUse"><stop offset="0" stop-color="#27e5dc" stop-opacity="0"/><stop offset=".24" stop-color="#27e5dc" stop-opacity=".7"/><stop offset=".38" stop-color="#29dbe7" stop-opacity=".84"/><stop offset=".54" stop-color="#2cd1f5"/><stop offset="1" stop-color="#0a99e4"/></linearGradient><linearGradient id="linear-gradient-21" x1="291.58" x2="291.58" xlink:href="#linear-gradient"/><linearGradient id="linear-gradient-22" x1="305.29" y1="196.77" x2="277.65" y2="540.73" xlink:href="#linear-gradient-2"/><linearGradient id="linear-gradient-23" x1="291.58" x2="291.58" xlink:href="#linear-gradient-20"/><linearGradient id="linear-gradient-24" x1="430.84" x2="430.84" xlink:href="#linear-gradient"/><linearGradient id="linear-gradient-25" x1="443.63" y1="207.89" x2="415.99" y2="551.85" xlink:href="#linear-gradient-2"/><linearGradient id="linear-gradient-26" x1="430.84" x2="430.84" xlink:href="#linear-gradient-20"/><linearGradient id="linear-gradient-27" x1="270.07" x2="270.07" y2="-376.98" xlink:href="#linear-gradient"/><linearGradient id="linear-gradient-28" x1="282.77" y1="194.96" x2="255.13" y2="538.92" xlink:href="#linear-gradient-2"/><linearGradient id="linear-gradient-29" x1="270.07" x2="270.07" xlink:href="#linear-gradient-20"/><linearGradient id="linear-gradient-30" x1="332.81" x2="332.81" y2="-376.98" xlink:href="#linear-gradient"/><linearGradient id="linear-gradient-31" x1="345.16" y1="199.97" x2="317.52" y2="543.93" xlink:href="#linear-gradient-2"/><linearGradient id="linear-gradient-32" x1="332.81" x2="332.81" xlink:href="#linear-gradient-20"/><linearGradient id="linear-gradient-33" x1="359.93" x2="359.93" xlink:href="#linear-gradient"/><linearGradient id="linear-gradient-34" x1="372.63" y1="202.18" x2="344.99" y2="546.14" xlink:href="#linear-gradient-2"/><linearGradient id="linear-gradient-35" x1="359.93" x2="359.93" xlink:href="#linear-gradient-20"/><linearGradient id="linear-gradient-36" x1="225.89" x2="225.89" xlink:href="#linear-gradient"/><linearGradient id="linear-gradient-37" x1="239.85" y1="191.51" x2="212.21" y2="535.47" xlink:href="#linear-gradient-2"/><linearGradient id="linear-gradient-38" x1="225.89" x2="225.89" xlink:href="#linear-gradient-20"/><linearGradient id="linear-gradient-39" x1="182.15" x2="182.15" y2="-376.98" xlink:href="#linear-gradient"/><linearGradient id="linear-gradient-40" x1="196.76" y1="188.05" x2="169.12" y2="532.01" xlink:href="#linear-gradient-2"/><linearGradient id="linear-gradient-41" x1="182.15" x2="182.15" xlink:href="#linear-gradient-20"/><linearGradient id="linear-gradient-42" x1="168.54" x2="168.54" xlink:href="#linear-gradient"/><linearGradient id="linear-gradient-43" x1="186.06" y1="187.19" x2="158.42" y2="531.15" xlink:href="#linear-gradient-2"/><linearGradient id="linear-gradient-44" x1="333.58" x2="333.58" xlink:href="#linear-gradient"/><linearGradient id="linear-gradient-45" x1="349.75" y1="200.34" x2="322.11" y2="544.3" xlink:href="#linear-gradient-2"/><linearGradient id="linear-gradient-46" x1="299.2" x2="299.2" xlink:href="#linear-gradient"/><linearGradient id="linear-gradient-47" x1="313.71" y1="197.45" x2="286.07" y2="541.41" xlink:href="#linear-gradient-2"/><linearGradient id="linear-gradient-48" x1="299.2" y1="396.57" x2="299.2" y2="270.51" gradientTransform="matrix(1, 0, 0, 1, 0, 0)" gradientUnits="userSpaceOnUse"><stop offset="0" stop-color="#fff"/><stop offset=".28" stop-color="#fff" stop-opacity=".99"/><stop offset=".41" stop-color="#fff" stop-opacity=".96"/><stop offset=".52" stop-color="#fff" stop-opacity=".91"/><stop offset=".61" stop-color="#fff" stop-opacity=".84"/><stop offset=".69" stop-color="#fff" stop-opacity=".74"/><stop offset=".77" stop-color="#fff" stop-opacity=".62"/><stop offset=".84" stop-color="#fff" stop-opacity=".48"/><stop offset=".9" stop-color="#fff" stop-opacity=".32"/><stop offset=".96" stop-color="#fff" stop-opacity=".14"/><stop offset="1" stop-color="#fff" stop-opacity="0"/></linearGradient><linearGradient id="linear-gradient-49" x1="190.77" x2="190.77" y2="-376.98" xlink:href="#linear-gradient"/><linearGradient id="linear-gradient-50" x1="205.17" y1="188.72" x2="177.53" y2="532.68" xlink:href="#linear-gradient-2"/><linearGradient id="linear-gradient-51" x1="190.77" x2="190.77" xlink:href="#linear-gradient-20"/><linearGradient id="linear-gradient-52" x1="190.77" y1="396.57" x2="190.77" y2="270.51" xlink:href="#linear-gradient-48"/><linearGradient id="linear-gradient-53" x1="329.22" x2="329.22" y2="-376.98" xlink:href="#linear-gradient"/><linearGradient id="linear-gradient-54" x1="343.15" y1="199.81" x2="315.51" y2="543.77" xlink:href="#linear-gradient-2"/><linearGradient id="linear-gradient-55" x1="329.22" x2="329.22" xlink:href="#linear-gradient-20"/><linearGradient id="linear-gradient-56" x1="329.22" y1="396.57" x2="329.22" y2="270.51" xlink:href="#linear-gradient-48"/><linearGradient id="linear-gradient-57" x1="170.4" x2="170.4" xlink:href="#linear-gradient"/><linearGradient id="linear-gradient-58" x1="192.01" y1="187.67" x2="164.37" y2="531.63" xlink:href="#linear-gradient-2"/><linearGradient id="linear-gradient-59" x1="192.8" y1="177.78" x2="165.2" y2="521.27" xlink:href="#linear-gradient-2"/><linearGradient id="linear-gradient-60" x1="161.65" x2="161.65" xlink:href="#linear-gradient"/><linearGradient id="linear-gradient-61" x1="183.2" y1="186.96" x2="155.56" y2="530.92" xlink:href="#linear-gradient-2"/><linearGradient id="linear-gradient-62" y1="455.12" y2="455.12" xlink:href="#linear-gradient-17"/><linearGradient id="linear-gradient-63" x1="184" y1="177.07" x2="156.39" y2="520.57" xlink:href="#linear-gradient-2"/><linearGradient id="linear-gradient-64" x1="160.18" x2="160.18" xlink:href="#linear-gradient"/><linearGradient id="linear-gradient-65" x1="179.38" y1="186.65" x2="151.74" y2="530.61" xlink:href="#linear-gradient-2"/><linearGradient id="linear-gradient-66" x1="228.15" x2="228.15" y2="-376.98" xlink:href="#linear-gradient"/><linearGradient id="linear-gradient-67" x1="245.04" y1="191.93" x2="217.4" y2="535.89" xlink:href="#linear-gradient-2"/><linearGradient id="linear-gradient-68" x1="208.64" x2="208.64" y2="-376.98" xlink:href="#linear-gradient"/><linearGradient id="linear-gradient-69" x1="226.23" y1="190.42" x2="198.59" y2="534.38" xlink:href="#linear-gradient-2"/><linearGradient id="linear-gradient-70" x1="152.19" y1="14.84" x2="228.88" y2="14.84" gradientTransform="translate(-98.46 151.79) rotate(-14.41)" gradientUnits="userSpaceOnUse"><stop offset="0" stop-color="#efdabf"/><stop offset="1" stop-color="#fdecd8"/></linearGradient><linearGradient id="linear-gradient-71" x1="255.9" y1="19.98" x2="338.01" y2="19.98" xlink:href="#linear-gradient-70"/><linearGradient id="linear-gradient-72" x1="117.94" y1="14.46" x2="212.44" y2="14.46" gradientTransform="translate(-98.46 151.79) rotate(-14.41)" gradientUnits="userSpaceOnUse"><stop offset="0" stop-color="#ff6687"/><stop offset="1" stop-color="#e41b66"/></linearGradient><linearGradient id="linear-gradient-73" x1="211.14" y1="17.81" x2="279.06" y2="17.81" xlink:href="#linear-gradient-72"/><linearGradient id="linear-gradient-74" x1="280.07" y1="16.89" x2="393.58" y2="16.89" xlink:href="#linear-gradient-72"/><linearGradient id="linear-gradient-75" x1="596.62" y1="-78.78" x2="769.86" y2="158.62" gradientTransform="translate(-457.49 193.1) rotate(-.02)" gradientUnits="userSpaceOnUse"><stop offset="0" stop-color="#7d407c"/><stop offset="1" stop-color="#4c1f3c"/></linearGradient><linearGradient id="linear-gradient-76" x1="461.83" y1="-77.06" x2="635.07" y2="160.35" gradientTransform="translate(-318.92 179.74)" xlink:href="#linear-gradient-75"/><linearGradient id="linear-gradient-77" x1="149.64" y1="79.27" x2="223.26" y2="155.91" gradientTransform="translate(341.13 145.33) rotate(166.84)" xlink:href="#linear-gradient-75"/><linearGradient id="linear-gradient-78" x1="153.8" y1="75.28" x2="227.42" y2="151.92" gradientTransform="translate(368.78 80.47) rotate(147.06)" xlink:href="#linear-gradient-75"/><linearGradient id="linear-gradient-79" x1="187.04" y1="44.79" x2="441.55" y2="393.58" gradientTransform="translate(-98.46 151.79) rotate(-14.41)" xlink:href="#linear-gradient-75"/><linearGradient id="linear-gradient-80" x1="118.76" y1="1.21" x2="206.08" y2="1.21" xlink:href="#linear-gradient-70"/><linearGradient id="linear-gradient-81" x1="290.38" y1="-4.57" x2="393.14" y2="-4.57" xlink:href="#linear-gradient-70"/><linearGradient id="linear-gradient-82" x1="256.25" y1="-6.4" x2="359.2" y2="-6.4" xlink:href="#linear-gradient-72"/><linearGradient id="linear-gradient-83" x1="159.49" y1="-6.22" x2="251.48" y2="-6.22" xlink:href="#linear-gradient-72"/><linearGradient id="linear-gradient-84" x1="220.38" y1="-8.23" x2="300.41" y2="-8.23" xlink:href="#linear-gradient-70"/><linearGradient id="linear-gradient-85" x1="293.52" y1="318.22" x2="440.99" y2="352.59" gradientTransform="translate(-86.42 82.12) rotate(-10.17)" gradientUnits="userSpaceOnUse"><stop offset="0" stop-color="#bb463d"/><stop offset="1" stop-color="#e57351"/></linearGradient><linearGradient id="linear-gradient-86" x1="294.41" y1="314.44" x2="442.53" y2="348.96" gradientTransform="translate(-86.42 82.12) rotate(-10.17)" gradientUnits="userSpaceOnUse"><stop offset="0" stop-color="#ef936f"/><stop offset="1" stop-color="#f48a64"/></linearGradient><linearGradient id="linear-gradient-87" x1="439.48" y1="336.41" x2="442.6" y2="337.14" gradientTransform="translate(-86.42 82.12) rotate(-10.17)" gradientUnits="userSpaceOnUse"><stop offset="0" stop-color="#ef936f"/><stop offset="1" stop-color="#fcc190"/></linearGradient><linearGradient id="linear-gradient-88" x1="223.72" y1="338.97" x2="275.22" y2="350.97" xlink:href="#linear-gradient-85"/><linearGradient id="linear-gradient-89" x1="236.49" y1="334.74" x2="257.25" y2="357.6" gradientTransform="translate(-86.42 82.12) rotate(-10.17)" gradientUnits="userSpaceOnUse"><stop offset="0" stop-color="#bb463d"/><stop offset="1" stop-color="#932927"/></linearGradient><linearGradient id="linear-gradient-90" x1="299.23" y1="304.73" x2="305.11" y2="306.1" xlink:href="#linear-gradient-85"/><linearGradient id="linear-gradient-91" x1="303.19" y1="305.18" x2="307.42" y2="306.17" xlink:href="#linear-gradient-86"/><linearGradient id="linear-gradient-92" x1="260.84" y1="283.92" x2="464.51" y2="331.38" xlink:href="#linear-gradient-85"/><linearGradient id="linear-gradient-93" x1="264.69" y1="281.51" x2="465.81" y2="328.38" xlink:href="#linear-gradient-86"/><linearGradient id="linear-gradient-94" x1="441.38" y1="392.9" x2="445.88" y2="397.85" xlink:href="#linear-gradient-89"/><linearGradient id="linear-gradient-95" x1="333.46" y1="373.91" x2="403.87" y2="390.32" xlink:href="#linear-gradient-85"/><linearGradient id="linear-gradient-96" x1="353.39" y1="366.71" x2="379.84" y2="395.85" xlink:href="#linear-gradient-89"/><linearGradient id="linear-gradient-97" x1="197.26" y1="270.58" x2="444.78" y2="328.26" gradientTransform="translate(-86.42 82.12) rotate(-10.17)" gradientUnits="userSpaceOnUse"><stop offset="0" stop-color="#bbeae1"/><stop offset="1" stop-color="#c9fef5"/></linearGradient><linearGradient id="linear-gradient-98" x1="198.48" y1="268.61" x2="444.84" y2="326.02" gradientTransform="translate(-86.42 82.12) rotate(-10.17)" gradientUnits="userSpaceOnUse"><stop offset="0" stop-color="#c9fef5"/><stop offset="1" stop-color="#e9fffb"/></linearGradient><linearGradient id="linear-gradient-99" x1="216.47" y1="286.68" x2="374.99" y2="286.68" gradientTransform="translate(-86.42 82.12) rotate(-10.17)" gradientUnits="userSpaceOnUse"><stop offset="0" stop-color="#4071b5"/><stop offset="1" stop-color="#0a99e4"/></linearGradient><linearGradient id="linear-gradient-100" x1="236.67" y1="283.95" x2="400.08" y2="283.95" xlink:href="#linear-gradient-99"/><linearGradient id="linear-gradient-101" x1="257.53" y1="281.43" x2="425.96" y2="281.43" xlink:href="#linear-gradient-99"/><linearGradient id="linear-gradient-102" x1="360.03" y1="361.87" y2="361.87" xlink:href="#linear-gradient-99"/><linearGradient id="linear-gradient-103" x1="390.11" y1="351.58" x2="400.65" y2="351.58" xlink:href="#linear-gradient-99"/><linearGradient id="linear-gradient-104" x1="415.24" y1="342" x2="425.98" y2="342" xlink:href="#linear-gradient-99"/><linearGradient id="linear-gradient-105" x1="316.28" y1="398.88" x2="311.79" y2="214.85" gradientTransform="matrix(1, 0, 0, 1, 0, 0)" gradientUnits="userSpaceOnUse"><stop offset="0" stop-color="#a16552"/><stop offset=".2" stop-color="#935848"/><stop offset=".35" stop-color="#9b604e"/><stop offset=".54" stop-color="#a16552"/><stop offset=".55" stop-color="#985c4b"/><stop offset=".57" stop-color="#935848"/><stop offset=".64" stop-color="#9b604e"/><stop offset=".73" stop-color="#a16552"/><stop offset="1" stop-color="#966444"/></linearGradient><linearGradient id="linear-gradient-106" x1="302.93" y1="291.42" x2="302.75" y2="260.6" gradientTransform="matrix(1, 0, 0, 1, 0, 0)" gradientUnits="userSpaceOnUse"><stop offset="0" stop-color="#965a4a"/><stop offset=".2" stop-color="#935848"/><stop offset=".5" stop-color="#935848"/><stop offset=".6" stop-color="#9b604e"/><stop offset=".73" stop-color="#a16552"/><stop offset="1" stop-color="#966444"/></linearGradient><linearGradient id="linear-gradient-107" x1="211.8" y1="307.71" x2="227.92" y2="311.47" xlink:href="#linear-gradient-85"/><linearGradient id="linear-gradient-108" x1="215.42" y1="312.44" x2="229.19" y2="315.65" xlink:href="#linear-gradient-86"/><linearGradient id="linear-gradient-109" x1="184.75" y1="294.62" x2="383.2" y2="340.87" xlink:href="#linear-gradient-85"/><linearGradient id="linear-gradient-110" x1="189.94" y1="292.05" x2="387" y2="337.98" xlink:href="#linear-gradient-86"/><linearGradient id="linear-gradient-111" x1="356.31" y1="425.71" x2="360.78" y2="430.63" xlink:href="#linear-gradient-89"/><linearGradient id="linear-gradient-112" x1="201.64" y1="345.64" x2="360.87" y2="382.75" xlink:href="#linear-gradient-85"/><linearGradient id="linear-gradient-113" x1="202.82" y1="340.73" x2="363.51" y2="378.18" xlink:href="#linear-gradient-86"/><linearGradient id="linear-gradient-114" x1="360.12" y1="363.87" x2="363.51" y2="364.66" xlink:href="#linear-gradient-87"/><linearGradient id="Naamloos_verloop_7" x1="169.9" y1="350.39" x2="221.07" y2="360.92" gradientTransform="translate(-105.43 19.83) rotate(-24.32)" gradientUnits="userSpaceOnUse"><stop offset="0" stop-color="#ffe988"/><stop offset=".25" stop-color="#ba801e"/><stop offset=".5" stop-color="#fbec83"/><stop offset=".75" stop-color="#ba801f"/><stop offset="1" stop-color="#ffe97f"/></linearGradient><linearGradient id="Naamloos_verloop_31" x1="334.23" y1="411.64" x2="384.57" y2="411.64" gradientTransform="translate(-221.83 -59.27) rotate(-12.68)" gradientUnits="userSpaceOnUse"><stop offset="0" stop-color="#331e21"/><stop offset=".49" stop-color="#2b2727"/><stop offset="1" stop-color="#3f3937"/></linearGradient></defs><path class="cls-70" d="M482.54,415.04c-8.93-36.16-59.41-51.3-71.42-53.11-.66-.1-66.76-9.92-136.09-8.48-60.72,1.26-107.27,21.79-138.07,35.38-1.89,.83-3.71,1.63-5.46,2.4-18.05,7.9-30.01,13.79-31.75,23.3-1.23,6.78,2.9,14.37,13.41,24.61,24.78,24.16,64.7,28.92,139.41,29.99,3.62,.05,7.33,.08,11.11,.08,79.91,0,193.2-11.68,215.23-39.4,3.68-4.63,4.9-9.61,3.62-14.78Z"/><g><path class="cls-117" d="M208.84,373.41c1.68,.02,3.35-.07,5.01-.23h-8.07c1.02,.15,2.07,.21,3.07,.23Z"/><path class="cls-2" d="M208.84,373.41c1.68,.02,3.35-.07,5.01-.23h-8.07c1.02,.15,2.07,.21,3.07,.23Z"/><path class="cls-116" d="M218.24,378.84c3.25,.86,2.62,3.03,2.59,5.06-.03,2.01,.58,3.96,2.95,5.22,2.71,1.45,6.35,1.87,9.63,2.14,3.83,.32,7.68,.29,11.53,.36,9.87,.17,19.46,2.09,29.41,1.31,4.98-.39,9.56-1.55,14.38-2.41,4.99-.89,10.16-1.22,15.28-1.49,4.24-.23,8.45-.22,12.7-.3,3.94-.08,8.24-.25,11.7-1.74,.84-.36,1.18-1.18,.66-1.79-2.2-2.61-6.62-3.35-10.57-3.72-4.53-.42-9.13-.39-13.68-.72-7.09-.52-13.97-.91-21.11-.63-3.41,.14-7.02,.44-10.41,.02-2.94-.37-5.44-1.36-8.15-2.18-4.24-1.28-9.37-1.57-13.87-2.08-7.05-.8-14.2-1.49-21.34-1.62-2.75-.05-10.19-.33-11.79,2.04-1.37,.32-1.7,2.06,.1,2.54Z"/><path class="cls-128" d="M218.24,378.84c3.25,.86,2.62,3.03,2.59,5.06-.03,2.01,.58,3.96,2.95,5.22,2.71,1.45,6.35,1.87,9.63,2.14,3.83,.32,7.68,.29,11.53,.36,9.87,.17,19.46,2.09,29.41,1.31,4.98-.39,9.56-1.55,14.38-2.41,4.99-.89,10.16-1.22,15.28-1.49,4.24-.23,8.45-.22,12.7-.3,3.94-.08,8.24-.25,11.7-1.74,.84-.36,1.18-1.18,.66-1.79-2.2-2.61-6.62-3.35-10.57-3.72-4.53-.42-9.13-.39-13.68-.72-7.09-.52-13.97-.91-21.11-.63-3.41,.14-7.02,.44-10.41,.02-2.94-.37-5.44-1.36-8.15-2.18-4.24-1.28-9.37-1.57-13.87-2.08-7.05-.8-14.2-1.49-21.34-1.62-2.75-.05-10.19-.33-11.79,2.04-1.37,.32-1.7,2.06,.1,2.54Z"/><path class="cls-83" d="M178.88,382.68c41.26,8.49-37.65,14.54-33.4,22.42,.83,1.53,37.74,.19,77.79-1.65l3.38-1.05,6.37-1.64-.31,2.25c38.48-1.82,77.46-3.95,88.34-4.33,22.38-.78,123.06-14.67,131.18-15.42,2.33-.22,4.67-.42,7.01-.63-3.94-3.1-8.16-5.83-12.4-8.21-14.74,2.7-29.32,5.83-44,8.69-20.37,3.97-41.02,7.15-61.91,9.38-33.63,3.58-67.68,4.79-101.62,3.68-1.77-.04-3.53-.11-5.29-.19-6.72-.27-13.44-.6-20.14-1.06-1.41-.1-2.33-.69-2.79-1.43-2.57-.74-4.93-1.88-6.22-3.68-.94-1.31-1.03-2.81-.65-4.23,.31-1.17,1.32-2.47,.95-3.68-.64-2.1-4.78-2.76-7.27-3.07-4.2-.51-8.44-.04-12.63,.28-5.62,.43-11.23,.86-16.84,1.31-5.64,.44-11.27,.89-16.91,1.33-1.87,.8-3.68,1.58-5.45,2.35,9.18-.66,28.71-2.28,32.8-1.43Z"/><path class="cls-28" d="M178.88,382.68c41.26,8.49-37.65,14.54-33.4,22.42,.83,1.53,37.74,.19,77.79-1.65l3.38-1.05,6.37-1.64-.31,2.25c38.48-1.82,77.46-3.95,88.34-4.33,22.38-.78,123.06-14.67,131.18-15.42,2.33-.22,4.67-.42,7.01-.63-3.94-3.1-8.16-5.83-12.4-8.21-14.74,2.7-29.32,5.83-44,8.69-20.37,3.97-41.02,7.15-61.91,9.38-33.63,3.58-67.68,4.79-101.62,3.68-1.77-.04-3.53-.11-5.29-.19-6.72-.27-13.44-.6-20.14-1.06-1.41-.1-2.33-.69-2.79-1.43-2.57-.74-4.93-1.88-6.22-3.68-.94-1.31-1.03-2.81-.65-4.23,.31-1.17,1.32-2.47,.95-3.68-.64-2.1-4.78-2.76-7.27-3.07-4.2-.51-8.44-.04-12.63,.28-5.62,.43-11.23,.86-16.84,1.31-5.64,.44-11.27,.89-16.91,1.33-1.87,.8-3.68,1.58-5.45,2.35,9.18-.66,28.71-2.28,32.8-1.43Z"/><path class="cls-103" d="M259.66,373.89c3.72,2.78,9.92,2.66,14.88,2.5,6.93-.23,13.83,.17,20.43-1.65,1.62-.45,3.23-1,4.84-1.55h-40.95c.24,.25,.51,.49,.81,.71Z"/><path class="cls-130" d="M259.66,373.89c3.72,2.78,9.92,2.66,14.88,2.5,6.93-.23,13.83,.17,20.43-1.65,1.62-.45,3.23-1,4.84-1.55h-40.95c.24,.25,.51,.49,.81,.71Z"/><path class="cls-111" d="M121.53,411.17c-38.61-9.88,81.02-20.62,62.55-25.11-9.65-2.34-40.67,2.38-48.76,3.18-.39,.04-.77,.07-1.16,.11-.49,.21-.98,.43-1.45,.64-29.6,12.95-41.17,19.89-17.45,43.02,1.08,1.06,2.21,2.06,3.35,3.04l65.95-20.54c-27.26,.33-49.64-.91-63.03-4.34Z"/><path class="cls-52" d="M121.53,411.17c-38.61-9.88,81.02-20.62,62.55-25.11-9.65-2.34-40.67,2.38-48.76,3.18-.39,.04-.77,.07-1.16,.11-.49,.21-.98,.43-1.45,.64-29.6,12.95-41.17,19.89-17.45,43.02,1.08,1.06,2.21,2.06,3.35,3.04l65.95-20.54c-27.26,.33-49.64-.91-63.03-4.34Z"/><path class="cls-42" d="M331.54,373.45c-2.1,1.3-3.22,3.3-2.23,5.23,1.02,1.99,3.78,3.05,6.41,3.73,6.24,1.6,13.22,1.1,19.71,.95,8.55-.2,16.76-1.57,25.01-3.09,7.07-1.3,14.31-2.19,21.04-4.28,2.48-.77,4.79-1.72,6.99-2.82h-76.44c-.16,.09-.33,.17-.49,.27Z"/><path class="cls-136" d="M331.54,373.45c-2.1,1.3-3.22,3.3-2.23,5.23,1.02,1.99,3.78,3.05,6.41,3.73,6.24,1.6,13.22,1.1,19.71,.95,8.55-.2,16.76-1.57,25.01-3.09,7.07-1.3,14.31-2.19,21.04-4.28,2.48-.77,4.79-1.72,6.99-2.82h-76.44c-.16,.09-.33,.17-.49,.27Z"/><path class="cls-137" d="M479.63,411.76c-2.31-9.36-7.57-17.22-14.22-23.75-31.4,3.11-60.39,6.65-84.24,10.15-55.97,8.2-124.84,15.16-179.43,16.95l-76.25,26.15c7.89,5.26,17.18,9.21,28.39,12.18,6.18,1.17,9.79,1.95,10.38,2.08,5.77,.92,11.5,1.9,17.17,2.95,19.12,2.3,42.4,3.26,71.19,3.68,96.78,1.39,235.8-14.8,227.01-50.38Z"/><path class="cls-24" d="M479.63,411.76c-2.31-9.36-7.57-17.22-14.22-23.75-31.4,3.11-60.39,6.65-84.24,10.15-55.97,8.2-124.84,15.16-179.43,16.95l-76.25,26.15c7.89,5.26,17.18,9.21,28.39,12.18,6.18,1.17,9.79,1.95,10.38,2.08,5.77,.92,11.5,1.9,17.17,2.95,19.12,2.3,42.4,3.26,71.19,3.68,96.78,1.39,235.8-14.8,227.01-50.38Z"/><path class="cls-15" d="M153.88,453.45c1.65,.44,3.34,.85,5.07,1.25,1.77,.27,3.54,.55,5.31,.83-.59-.13-4.2-.9-10.38-2.08Z"/><path class="cls-61" d="M153.88,453.45c1.65,.44,3.34,.85,5.07,1.25,1.77,.27,3.54,.55,5.31,.83-.59-.13-4.2-.9-10.38-2.08Z"/><path class="cls-92" d="M153.88,453.45c1.65,.44,3.34,.85,5.07,1.25,1.77,.27,3.54,.55,5.31,.83-.59-.13-4.2-.9-10.38-2.08Z"/><path class="cls-20" d="M415.29,368.48c2.88-4.14-4.87-5.7-9.17-5.38-7.38,.54-14.47,3.17-21.48,4.76-4.72,1.07-9.52,2.03-14.39,2.73-5.81,.23-11.61,.43-17.43,.55-4.03,.08-8.1-.03-12.12,.14-3.01,.13-6.22,.57-8.67,1.91h76.44c.57-.28,1.13-.57,1.68-.87,1.93-1.06,4.04-2.24,5.14-3.83Z"/><path class="cls-126" d="M415.29,368.48c2.88-4.14-4.87-5.7-9.17-5.38-7.38,.54-14.47,3.17-21.48,4.76-4.72,1.07-9.52,2.03-14.39,2.73-5.81,.23-11.61,.43-17.43,.55-4.03,.08-8.1-.03-12.12,.14-3.01,.13-6.22,.57-8.67,1.91h76.44c.57-.28,1.13-.57,1.68-.87,1.93-1.06,4.04-2.24,5.14-3.83Z"/><path class="cls-27" d="M415.29,368.48c2.88-4.14-4.87-5.7-9.17-5.38-7.38,.54-14.47,3.17-21.48,4.76-4.72,1.07-9.52,2.03-14.39,2.73-5.81,.23-11.61,.43-17.43,.55-4.03,.08-8.1-.03-12.12,.14-3.01,.13-6.22,.57-8.67,1.91h76.44c.57-.28,1.13-.57,1.68-.87,1.93-1.06,4.04-2.24,5.14-3.83Z"/><path class="cls-79" d="M322.56,370.03c3.42-.75,4.78-3,2.56-5.15-2.86-2.77-8.93-3.83-13.4-4.46-2.88-.41-5.73-.58-8.66-.37-3.77,.28-7.52,1.06-11.32,1.05-4.13,0-8.1-.89-12.12-1.47-2.95-.42-5.93-.6-8.93-.73-3.82-.16-10-.26-11.93,2.63-.4,.14-.71,.4-.82,.83-.84,3.39-2.1,7.79,.91,10.81h40.95c3.64-1.25,7.32-2.51,11.33-2.58,3.74-.07,7.81,.23,11.43-.57Z"/><path class="cls-112" d="M322.56,370.03c3.42-.75,4.78-3,2.56-5.15-2.86-2.77-8.93-3.83-13.4-4.46-2.88-.41-5.73-.58-8.66-.37-3.77,.28-7.52,1.06-11.32,1.05-4.13,0-8.1-.89-12.12-1.47-2.95-.42-5.93-.6-8.93-.73-3.82-.16-10-.26-11.93,2.63-.4,.14-.71,.4-.82,.83-.84,3.39-2.1,7.79,.91,10.81h40.95c3.64-1.25,7.32-2.51,11.33-2.58,3.74-.07,7.81,.23,11.43-.57Z"/><path class="cls-125" d="M322.56,370.03c3.42-.75,4.78-3,2.56-5.15-2.86-2.77-8.93-3.83-13.4-4.46-2.88-.41-5.73-.58-8.66-.37-3.77,.28-7.52,1.06-11.32,1.05-4.13,0-8.1-.89-12.12-1.47-2.95-.42-5.93-.6-8.93-.73-3.82-.16-10-.26-11.93,2.63-.4,.14-.71,.4-.82,.83-.84,3.39-2.1,7.79,.91,10.81h40.95c3.64-1.25,7.32-2.51,11.33-2.58,3.74-.07,7.81,.23,11.43-.57Z"/><path class="cls-107" d="M429.14,368.87c2.68,.78,5.65,.98,8.6,.94-4.93-2.24-9.66-4.03-13.8-5.4,.48,1.97,2.16,3.58,5.2,4.47Z"/><path class="cls-81" d="M429.14,368.87c2.68,.78,5.65,.98,8.6,.94-4.93-2.24-9.66-4.03-13.8-5.4,.48,1.97,2.16,3.58,5.2,4.47Z"/><path class="cls-138" d="M429.14,368.87c2.68,.78,5.65,.98,8.6,.94-4.93-2.24-9.66-4.03-13.8-5.4,.48,1.97,2.16,3.58,5.2,4.47Z"/><path class="cls-118" d="M265.83,354.83c5.06,.38,10.76,1.44,15.8,.49,2.03-.38,3.66-1.34,3.66-2.93,0-.02,0-.04,0-.06-3.38,.02-6.78,.06-10.18,.13-6.93,.14-13.67,.56-20.24,1.18,.5,.13,1.01,.25,1.52,.36,3.13,.65,6.26,.59,9.46,.83Z"/><path class="cls-23" d="M265.83,354.83c5.06,.38,10.76,1.44,15.8,.49,2.03-.38,3.66-1.34,3.66-2.93,0-.02,0-.04,0-.06-3.38,.02-6.78,.06-10.18,.13-6.93,.14-13.67,.56-20.24,1.18,.5,.13,1.01,.25,1.52,.36,3.13,.65,6.26,.59,9.46,.83Z"/><path class="cls-122" d="M265.83,354.83c5.06,.38,10.76,1.44,15.8,.49,2.03-.38,3.66-1.34,3.66-2.93,0-.02,0-.04,0-.06-3.38,.02-6.78,.06-10.18,.13-6.93,.14-13.67,.56-20.24,1.18,.5,.13,1.01,.25,1.52,.36,3.13,.65,6.26,.59,9.46,.83Z"/><path class="cls-123" d="M339.77,353.95c-4.52-.28-9.16-.53-13.9-.74,2.83,.39,5.7,.66,8.59,.76,1.78,.06,3.56,.05,5.32-.02Z"/><path class="cls-62" d="M339.77,353.95c-4.52-.28-9.16-.53-13.9-.74,2.83,.39,5.7,.66,8.59,.76,1.78,.06,3.56,.05,5.32-.02Z"/><path class="cls-40" d="M339.77,353.95c-4.52-.28-9.16-.53-13.9-.74,2.83,.39,5.7,.66,8.59,.76,1.78,.06,3.56,.05,5.32-.02Z"/><path class="cls-119" d="M331.56,362.46c6.14,4.42,15.61,4.81,23.83,4.63,9.4-.21,19.44-.7,28.16-3.39,2.09-.64,8.07-2.84,4.43-4.86-1.39-.77-3.49-.83-5.15-.97-3.16-.27-6.34-.25-9.51-.21-10.28,.12-20.54-.26-30.81-.22-2.73,0-14.11,.28-11.36,3.76-.2,.41-.14,.87,.41,1.27Z"/><path class="cls-94" d="M331.56,362.46c6.14,4.42,15.61,4.81,23.83,4.63,9.4-.21,19.44-.7,28.16-3.39,2.09-.64,8.07-2.84,4.43-4.86-1.39-.77-3.49-.83-5.15-.97-3.16-.27-6.34-.25-9.51-.21-10.28,.12-20.54-.26-30.81-.22-2.73,0-14.11,.28-11.36,3.76-.2,.41-.14,.87,.41,1.27Z"/><path class="cls-39" d="M331.56,362.46c6.14,4.42,15.61,4.81,23.83,4.63,9.4-.21,19.44-.7,28.16-3.39,2.09-.64,8.07-2.84,4.43-4.86-1.39-.77-3.49-.83-5.15-.97-3.16-.27-6.34-.25-9.51-.21-10.28,.12-20.54-.26-30.81-.22-2.73,0-14.11,.28-11.36,3.76-.2,.41-.14,.87,.41,1.27Z"/><path class="cls-25" d="M207.95,363.67c-1.82,1.34-4.48,1.96-6.15,3.45-1.6,1.44-1.53,3.35,.26,4.71,.99,.75,2.31,1.14,3.71,1.35h8.07c4.08-.38,8.1-1.14,12.14-1.66,4.3-.55,8.66-1.42,12.77-2.57,4.2-1.17,9.53-2.78,11.65-5.84,2.37-3.43-1.61-6.66-5.63-8.36-13.39,1.75-25.97,4.35-37.68,7.44,.14,.02,.29,.04,.43,.06,1.47,.24,1.5,.61,.42,1.41Z"/><path class="cls-58" d="M207.95,363.67c-1.82,1.34-4.48,1.96-6.15,3.45-1.6,1.44-1.53,3.35,.26,4.71,.99,.75,2.31,1.14,3.71,1.35h8.07c4.08-.38,8.1-1.14,12.14-1.66,4.3-.55,8.66-1.42,12.77-2.57,4.2-1.17,9.53-2.78,11.65-5.84,2.37-3.43-1.61-6.66-5.63-8.36-13.39,1.75-25.97,4.35-37.68,7.44,.14,.02,.29,.04,.43,.06,1.47,.24,1.5,.61,.42,1.41Z"/><path class="cls-120" d="M207.95,363.67c-1.82,1.34-4.48,1.96-6.15,3.45-1.6,1.44-1.53,3.35,.26,4.71,.99,.75,2.31,1.14,3.71,1.35h8.07c4.08-.38,8.1-1.14,12.14-1.66,4.3-.55,8.66-1.42,12.77-2.57,4.2-1.17,9.53-2.78,11.65-5.84,2.37-3.43-1.61-6.66-5.63-8.36-13.39,1.75-25.97,4.35-37.68,7.44,.14,.02,.29,.04,.43,.06,1.47,.24,1.5,.61,.42,1.41Z"/><path class="cls-50" d="M186.97,368.19c-3.3,1.09-6.51,2.21-9.63,3.34,4.13-.27,8.21-1.06,9.63-3.34Z"/><path class="cls-22" d="M186.97,368.19c-3.3,1.09-6.51,2.21-9.63,3.34,4.13-.27,8.21-1.06,9.63-3.34Z"/><path class="cls-73" d="M186.97,368.19c-3.3,1.09-6.51,2.21-9.63,3.34,4.13-.27,8.21-1.06,9.63-3.34Z"/><path class="cls-114" d="M184.08,386.06c18.47,4.48-101.16,15.22-62.55,25.11,13.38,3.42,35.76,4.67,63.03,4.34l38.71-12.06c-40.05,1.85-76.97,3.18-77.79,1.65-4.25-7.89,74.66-13.93,33.4-22.42-4.09-.84-23.62,.78-32.8,1.43-4.26,1.85-8.23,3.62-11.92,5.24,.39-.04,.77-.07,1.16-.11,8.09-.8,39.11-5.52,48.76-3.18Z"/><path class="cls-12" d="M184.08,386.06c18.47,4.48-101.16,15.22-62.55,25.11,13.38,3.42,35.76,4.67,63.03,4.34l38.71-12.06c-40.05,1.85-76.97,3.18-77.79,1.65-4.25-7.89,74.66-13.93,33.4-22.42-4.09-.84-23.62,.78-32.8,1.43-4.26,1.85-8.23,3.62-11.92,5.24,.39-.04,.77-.07,1.16-.11,8.09-.8,39.11-5.52,48.76-3.18Z"/><path class="cls-5" d="M184.08,386.06c18.47,4.48-101.16,15.22-62.55,25.11,13.38,3.42,35.76,4.67,63.03,4.34l38.71-12.06c-40.05,1.85-76.97,3.18-77.79,1.65-4.25-7.89,74.66-13.93,33.4-22.42-4.09-.84-23.62,.78-32.8,1.43-4.26,1.85-8.23,3.62-11.92,5.24,.39-.04,.77-.07,1.16-.11,8.09-.8,39.11-5.52,48.76-3.18Z"/><path class="cls-132" d="M321.07,398.68c-10.88,.38-49.87,2.5-88.34,4.33l-.21,1.55-30.77,10.55c54.59-1.79,123.47-8.74,179.43-16.95,23.85-3.5,52.83-7.04,84.24-10.15-1.94-1.91-4.01-3.7-6.15-5.38-2.34,.21-4.68,.41-7.01,.63-8.12,.75-108.8,14.64-131.18,15.42Z"/><path class="cls-88" d="M321.07,398.68c-10.88,.38-49.87,2.5-88.34,4.33l-.21,1.55-30.77,10.55c54.59-1.79,123.47-8.74,179.43-16.95,23.85-3.5,52.83-7.04,84.24-10.15-1.94-1.91-4.01-3.7-6.15-5.38-2.34,.21-4.68,.41-7.01,.63-8.12,.75-108.8,14.64-131.18,15.42Z"/><path class="cls-5" d="M321.07,398.68c-10.88,.38-49.87,2.5-88.34,4.33l-.21,1.55-30.77,10.55c54.59-1.79,123.47-8.74,179.43-16.95,23.85-3.5,52.83-7.04,84.24-10.15-1.94-1.91-4.01-3.7-6.15-5.38-2.34,.21-4.68,.41-7.01,.63-8.12,.75-108.8,14.64-131.18,15.42Z"/><path class="cls-135" d="M185.29,379.12c4.19-.32,8.43-.79,12.63-.28,2.5,.3,6.63,.97,7.27,3.07,.37,1.21-.64,2.51-.95,3.68-.38,1.43-.29,2.92,.65,4.23,1.29,1.8,3.65,2.94,6.22,3.68,.46,.74,1.38,1.34,2.79,1.43,6.7,.46,13.42,.79,20.14,1.06,1.76,.08,3.53,.15,5.29,.19,33.94,1.12,67.99-.09,101.62-3.68,20.89-2.22,41.54-5.41,61.91-9.38,14.68-2.86,29.26-5.99,44-8.69-.76-.42-1.52-.84-2.27-1.24h-36.12c-2.2,1.1-4.5,2.05-6.99,2.82-6.73,2.09-13.97,2.98-21.04,4.28-8.25,1.51-16.46,2.89-25.01,3.09-6.49,.15-13.47,.64-19.71-.95-2.64-.67-5.39-1.74-6.41-3.73-.99-1.93,.13-3.92,2.23-5.23,.16-.1,.33-.18,.49-.27h-32.23c-1.62,.56-3.22,1.11-4.84,1.55-6.6,1.82-13.5,1.42-20.43,1.65-4.96,.17-11.16,.28-14.88-2.5-.3-.23-.57-.47-.81-.71h-45c-1.66,.15-3.32,.25-5.01,.23-.99-.01-2.05-.07-3.07-.23h-32.95c-7.66,2.87-14.77,5.79-21.29,8.57,5.64-.45,11.27-.89,16.91-1.33,5.61-.44,11.23-.88,16.84-1.31Zm32.85-2.82c1.6-2.36,9.04-2.09,11.79-2.04,7.15,.14,14.29,.82,21.34,1.62,4.49,.51,9.63,.8,13.87,2.08,2.71,.81,5.21,1.81,8.15,2.18,3.39,.42,6.99,.12,10.41-.02,7.13-.28,14.02,.1,21.11,.63,4.55,.34,9.15,.31,13.68,.72,3.95,.36,8.37,1.11,10.57,3.72,.52,.61,.18,1.43-.66,1.79-3.45,1.49-7.76,1.67-11.7,1.74-4.25,.08-8.45,.07-12.7,.3-5.12,.28-10.29,.6-15.28,1.49-4.82,.86-9.4,2.02-14.38,2.41-9.95,.78-19.54-1.14-29.41-1.31-3.85-.07-7.7-.04-11.53-.36-3.28-.27-6.92-.69-9.63-2.14-2.37-1.26-2.98-3.21-2.95-5.22,.03-2.03,.66-4.2-2.59-5.06-1.79-.47-1.47-2.22-.1-2.54Z"/><path class="cls-134" d="M185.29,379.12c4.19-.32,8.43-.79,12.63-.28,2.5,.3,6.63,.97,7.27,3.07,.37,1.21-.64,2.51-.95,3.68-.38,1.43-.29,2.92,.65,4.23,1.29,1.8,3.65,2.94,6.22,3.68,.46,.74,1.38,1.34,2.79,1.43,6.7,.46,13.42,.79,20.14,1.06,1.76,.08,3.53,.15,5.29,.19,33.94,1.12,67.99-.09,101.62-3.68,20.89-2.22,41.54-5.41,61.91-9.38,14.68-2.86,29.26-5.99,44-8.69-.76-.42-1.52-.84-2.27-1.24h-36.12c-2.2,1.1-4.5,2.05-6.99,2.82-6.73,2.09-13.97,2.98-21.04,4.28-8.25,1.51-16.46,2.89-25.01,3.09-6.49,.15-13.47,.64-19.71-.95-2.64-.67-5.39-1.74-6.41-3.73-.99-1.93,.13-3.92,2.23-5.23,.16-.1,.33-.18,.49-.27h-32.23c-1.62,.56-3.22,1.11-4.84,1.55-6.6,1.82-13.5,1.42-20.43,1.65-4.96,.17-11.16,.28-14.88-2.5-.3-.23-.57-.47-.81-.71h-45c-1.66,.15-3.32,.25-5.01,.23-.99-.01-2.05-.07-3.07-.23h-32.95c-7.66,2.87-14.77,5.79-21.29,8.57,5.64-.45,11.27-.89,16.91-1.33,5.61-.44,11.23-.88,16.84-1.31Zm32.85-2.82c1.6-2.36,9.04-2.09,11.79-2.04,7.15,.14,14.29,.82,21.34,1.62,4.49,.51,9.63,.8,13.87,2.08,2.71,.81,5.21,1.81,8.15,2.18,3.39,.42,6.99,.12,10.41-.02,7.13-.28,14.02,.1,21.11,.63,4.55,.34,9.15,.31,13.68,.72,3.95,.36,8.37,1.11,10.57,3.72,.52,.61,.18,1.43-.66,1.79-3.45,1.49-7.76,1.67-11.7,1.74-4.25,.08-8.45,.07-12.7,.3-5.12,.28-10.29,.6-15.28,1.49-4.82,.86-9.4,2.02-14.38,2.41-9.95,.78-19.54-1.14-29.41-1.31-3.85-.07-7.7-.04-11.53-.36-3.28-.27-6.92-.69-9.63-2.14-2.37-1.26-2.98-3.21-2.95-5.22,.03-2.03,.66-4.2-2.59-5.06-1.79-.47-1.47-2.22-.1-2.54Z"/><path class="cls-35" d="M185.29,379.12c4.19-.32,8.43-.79,12.63-.28,2.5,.3,6.63,.97,7.27,3.07,.37,1.21-.64,2.51-.95,3.68-.38,1.43-.29,2.92,.65,4.23,1.29,1.8,3.65,2.94,6.22,3.68,.46,.74,1.38,1.34,2.79,1.43,6.7,.46,13.42,.79,20.14,1.06,1.76,.08,3.53,.15,5.29,.19,33.94,1.12,67.99-.09,101.62-3.68,20.89-2.22,41.54-5.41,61.91-9.38,14.68-2.86,29.26-5.99,44-8.69-.76-.42-1.52-.84-2.27-1.24h-36.12c-2.2,1.1-4.5,2.05-6.99,2.82-6.73,2.09-13.97,2.98-21.04,4.28-8.25,1.51-16.46,2.89-25.01,3.09-6.49,.15-13.47,.64-19.71-.95-2.64-.67-5.39-1.74-6.41-3.73-.99-1.93,.13-3.92,2.23-5.23,.16-.1,.33-.18,.49-.27h-32.23c-1.62,.56-3.22,1.11-4.84,1.55-6.6,1.82-13.5,1.42-20.43,1.65-4.96,.17-11.16,.28-14.88-2.5-.3-.23-.57-.47-.81-.71h-45c-1.66,.15-3.32,.25-5.01,.23-.99-.01-2.05-.07-3.07-.23h-32.95c-7.66,2.87-14.77,5.79-21.29,8.57,5.64-.45,11.27-.89,16.91-1.33,5.61-.44,11.23-.88,16.84-1.31Zm32.85-2.82c1.6-2.36,9.04-2.09,11.79-2.04,7.15,.14,14.29,.82,21.34,1.62,4.49,.51,9.63,.8,13.87,2.08,2.71,.81,5.21,1.81,8.15,2.18,3.39,.42,6.99,.12,10.41-.02,7.13-.28,14.02,.1,21.11,.63,4.55,.34,9.15,.31,13.68,.72,3.95,.36,8.37,1.11,10.57,3.72,.52,.61,.18,1.43-.66,1.79-3.45,1.49-7.76,1.67-11.7,1.74-4.25,.08-8.45,.07-12.7,.3-5.12,.28-10.29,.6-15.28,1.49-4.82,.86-9.4,2.02-14.38,2.41-9.95,.78-19.54-1.14-29.41-1.31-3.85-.07-7.7-.04-11.53-.36-3.28-.27-6.92-.69-9.63-2.14-2.37-1.26-2.98-3.21-2.95-5.22,.03-2.03,.66-4.2-2.59-5.06-1.79-.47-1.47-2.22-.1-2.54Z"/><path class="cls-57" d="M202.07,371.83c-1.8-1.36-1.87-3.27-.26-4.71,1.67-1.5,4.32-2.11,6.15-3.45,1.08-.8,1.05-1.17-.42-1.41-.14-.02-.29-.04-.43-.06-7.02,1.85-13.74,3.87-20.13,5.98-1.42,2.27-5.51,3.06-9.63,3.34-1.53,.55-3.03,1.1-4.51,1.66h32.95c-1.4-.21-2.72-.6-3.71-1.35Z"/><path class="cls-43" d="M202.07,371.83c-1.8-1.36-1.87-3.27-.26-4.71,1.67-1.5,4.32-2.11,6.15-3.45,1.08-.8,1.05-1.17-.42-1.41-.14-.02-.29-.04-.43-.06-7.02,1.85-13.74,3.87-20.13,5.98-1.42,2.27-5.51,3.06-9.63,3.34-1.53,.55-3.03,1.1-4.51,1.66h32.95c-1.4-.21-2.72-.6-3.71-1.35Z"/><path class="cls-3" d="M202.07,371.83c-1.8-1.36-1.87-3.27-.26-4.71,1.67-1.5,4.32-2.11,6.15-3.45,1.08-.8,1.05-1.17-.42-1.41-.14-.02-.29-.04-.43-.06-7.02,1.85-13.74,3.87-20.13,5.98-1.42,2.27-5.51,3.06-9.63,3.34-1.53,.55-3.03,1.1-4.51,1.66h32.95c-1.4-.21-2.72-.6-3.71-1.35Z"/><path class="cls-33" d="M202.07,371.83c-1.8-1.36-1.87-3.27-.26-4.71,1.67-1.5,4.32-2.11,6.15-3.45,1.08-.8,1.05-1.17-.42-1.41-.14-.02-.29-.04-.43-.06-7.02,1.85-13.74,3.87-20.13,5.98-1.42,2.27-5.51,3.06-9.63,3.34-1.53,.55-3.03,1.1-4.51,1.66h32.95c-1.4-.21-2.72-.6-3.71-1.35Z"/><path class="cls-29" d="M250.41,363.12c-2.12,3.06-7.46,4.67-11.65,5.84-4.11,1.15-8.46,2.02-12.77,2.57-4.04,.51-8.06,1.28-12.14,1.66h45c-3.01-3.03-1.75-7.42-.91-10.81,.11-.43,.42-.69,.82-.83,1.93-2.89,8.11-2.79,11.93-2.63,3,.12,5.98,.3,8.93,.73,4.01,.58,7.98,1.46,12.12,1.47,3.8,0,7.55-.77,11.32-1.05,2.93-.22,5.79-.04,8.66,.37,4.47,.63,10.53,1.69,13.4,4.46,2.23,2.15,.86,4.39-2.56,5.15-3.63,.8-7.69,.5-11.43,.57-4.01,.08-7.69,1.34-11.33,2.58h32.23c2.45-1.33,5.66-1.78,8.67-1.91,4.02-.17,8.09-.06,12.12-.14,5.82-.12,11.62-.32,17.43-.55,4.87-.7,9.67-1.65,14.39-2.73,7.01-1.59,14.1-4.23,21.48-4.76,4.3-.31,12.05,1.24,9.17,5.38-1.11,1.59-3.22,2.77-5.14,3.83-.55,.3-1.12,.59-1.68,.87h36.12c-2.3-1.22-4.59-2.34-6.85-3.37-2.95,.05-5.92-.15-8.6-.94-3.05-.89-4.72-2.5-5.2-4.47-6.19-2.05-11.06-3.17-13.26-3.5-5.72-.86-34.18-4.72-70.91-6.96-1.76,.07-3.53,.08-5.32,.02-2.89-.1-5.75-.37-8.59-.76-12.98-.6-26.69-.95-40.58-.87,0,.02,0,.04,0,.06,0,1.59-1.63,2.55-3.66,2.93-5.04,.95-10.74-.11-15.8-.49-3.2-.24-6.33-.18-9.46-.83-.51-.11-1.02-.23-1.52-.36-3.41,.32-6.77,.7-10.08,1.13,4.03,1.7,8.01,4.93,5.63,8.36Zm92.1-5.69c10.27-.04,20.53,.34,30.81,.22,3.18-.04,6.36-.06,9.51,.21,1.66,.14,3.76,.2,5.15,.97,3.65,2.02-2.34,4.21-4.43,4.86-8.72,2.69-18.76,3.19-28.16,3.39-8.23,.19-17.69-.21-23.83-4.63-.55-.4-.61-.86-.41-1.27-2.75-3.48,8.63-3.75,11.36-3.76Z"/><path class="cls-87" d="M250.41,363.12c-2.12,3.06-7.46,4.67-11.65,5.84-4.11,1.15-8.46,2.02-12.77,2.57-4.04,.51-8.06,1.28-12.14,1.66h45c-3.01-3.03-1.75-7.42-.91-10.81,.11-.43,.42-.69,.82-.83,1.93-2.89,8.11-2.79,11.93-2.63,3,.12,5.98,.3,8.93,.73,4.01,.58,7.98,1.46,12.12,1.47,3.8,0,7.55-.77,11.32-1.05,2.93-.22,5.79-.04,8.66,.37,4.47,.63,10.53,1.69,13.4,4.46,2.23,2.15,.86,4.39-2.56,5.15-3.63,.8-7.69,.5-11.43,.57-4.01,.08-7.69,1.34-11.33,2.58h32.23c2.45-1.33,5.66-1.78,8.67-1.91,4.02-.17,8.09-.06,12.12-.14,5.82-.12,11.62-.32,17.43-.55,4.87-.7,9.67-1.65,14.39-2.73,7.01-1.59,14.1-4.23,21.48-4.76,4.3-.31,12.05,1.24,9.17,5.38-1.11,1.59-3.22,2.77-5.14,3.83-.55,.3-1.12,.59-1.68,.87h36.12c-2.3-1.22-4.59-2.34-6.85-3.37-2.95,.05-5.92-.15-8.6-.94-3.05-.89-4.72-2.5-5.2-4.47-6.19-2.05-11.06-3.17-13.26-3.5-5.72-.86-34.18-4.72-70.91-6.96-1.76,.07-3.53,.08-5.32,.02-2.89-.1-5.75-.37-8.59-.76-12.98-.6-26.69-.95-40.58-.87,0,.02,0,.04,0,.06,0,1.59-1.63,2.55-3.66,2.93-5.04,.95-10.74-.11-15.8-.49-3.2-.24-6.33-.18-9.46-.83-.51-.11-1.02-.23-1.52-.36-3.41,.32-6.77,.7-10.08,1.13,4.03,1.7,8.01,4.93,5.63,8.36Zm92.1-5.69c10.27-.04,20.53,.34,30.81,.22,3.18-.04,6.36-.06,9.51,.21,1.66,.14,3.76,.2,5.15,.97,3.65,2.02-2.34,4.21-4.43,4.86-8.72,2.69-18.76,3.19-28.16,3.39-8.23,.19-17.69-.21-23.83-4.63-.55-.4-.61-.86-.41-1.27-2.75-3.48,8.63-3.75,11.36-3.76Z"/><path class="cls-91" d="M250.41,363.12c-2.12,3.06-7.46,4.67-11.65,5.84-4.11,1.15-8.46,2.02-12.77,2.57-4.04,.51-8.06,1.28-12.14,1.66h45c-3.01-3.03-1.75-7.42-.91-10.81,.11-.43,.42-.69,.82-.83,1.93-2.89,8.11-2.79,11.93-2.63,3,.12,5.98,.3,8.93,.73,4.01,.58,7.98,1.46,12.12,1.47,3.8,0,7.55-.77,11.32-1.05,2.93-.22,5.79-.04,8.66,.37,4.47,.63,10.53,1.69,13.4,4.46,2.23,2.15,.86,4.39-2.56,5.15-3.63,.8-7.69,.5-11.43,.57-4.01,.08-7.69,1.34-11.33,2.58h32.23c2.45-1.33,5.66-1.78,8.67-1.91,4.02-.17,8.09-.06,12.12-.14,5.82-.12,11.62-.32,17.43-.55,4.87-.7,9.67-1.65,14.39-2.73,7.01-1.59,14.1-4.23,21.48-4.76,4.3-.31,12.05,1.24,9.17,5.38-1.11,1.59-3.22,2.77-5.14,3.83-.55,.3-1.12,.59-1.68,.87h36.12c-2.3-1.22-4.59-2.34-6.85-3.37-2.95,.05-5.92-.15-8.6-.94-3.05-.89-4.72-2.5-5.2-4.47-6.19-2.05-11.06-3.17-13.26-3.5-5.72-.86-34.18-4.72-70.91-6.96-1.76,.07-3.53,.08-5.32,.02-2.89-.1-5.75-.37-8.59-.76-12.98-.6-26.69-.95-40.58-.87,0,.02,0,.04,0,.06,0,1.59-1.63,2.55-3.66,2.93-5.04,.95-10.74-.11-15.8-.49-3.2-.24-6.33-.18-9.46-.83-.51-.11-1.02-.23-1.52-.36-3.41,.32-6.77,.7-10.08,1.13,4.03,1.7,8.01,4.93,5.63,8.36Zm92.1-5.69c10.27-.04,20.53,.34,30.81,.22,3.18-.04,6.36-.06,9.51,.21,1.66,.14,3.76,.2,5.15,.97,3.65,2.02-2.34,4.21-4.43,4.86-8.72,2.69-18.76,3.19-28.16,3.39-8.23,.19-17.69-.21-23.83-4.63-.55-.4-.61-.86-.41-1.27-2.75-3.48,8.63-3.75,11.36-3.76Z"/><path class="cls-34" d="M250.41,363.12c-2.12,3.06-7.46,4.67-11.65,5.84-4.11,1.15-8.46,2.02-12.77,2.57-4.04,.51-8.06,1.28-12.14,1.66h45c-3.01-3.03-1.75-7.42-.91-10.81,.11-.43,.42-.69,.82-.83,1.93-2.89,8.11-2.79,11.93-2.63,3,.12,5.98,.3,8.93,.73,4.01,.58,7.98,1.46,12.12,1.47,3.8,0,7.55-.77,11.32-1.05,2.93-.22,5.79-.04,8.66,.37,4.47,.63,10.53,1.69,13.4,4.46,2.23,2.15,.86,4.39-2.56,5.15-3.63,.8-7.69,.5-11.43,.57-4.01,.08-7.69,1.34-11.33,2.58h32.23c2.45-1.33,5.66-1.78,8.67-1.91,4.02-.17,8.09-.06,12.12-.14,5.82-.12,11.62-.32,17.43-.55,4.87-.7,9.67-1.65,14.39-2.73,7.01-1.59,14.1-4.23,21.48-4.76,4.3-.31,12.05,1.24,9.17,5.38-1.11,1.59-3.22,2.77-5.14,3.83-.55,.3-1.12,.59-1.68,.87h36.12c-2.3-1.22-4.59-2.34-6.85-3.37-2.95,.05-5.92-.15-8.6-.94-3.05-.89-4.72-2.5-5.2-4.47-6.19-2.05-11.06-3.17-13.26-3.5-5.72-.86-34.18-4.72-70.91-6.96-1.76,.07-3.53,.08-5.32,.02-2.89-.1-5.75-.37-8.59-.76-12.98-.6-26.69-.95-40.58-.87,0,.02,0,.04,0,.06,0,1.59-1.63,2.55-3.66,2.93-5.04,.95-10.74-.11-15.8-.49-3.2-.24-6.33-.18-9.46-.83-.51-.11-1.02-.23-1.52-.36-3.41,.32-6.77,.7-10.08,1.13,4.03,1.7,8.01,4.93,5.63,8.36Zm92.1-5.69c10.27-.04,20.53,.34,30.81,.22,3.18-.04,6.36-.06,9.51,.21,1.66,.14,3.76,.2,5.15,.97,3.65,2.02-2.34,4.21-4.43,4.86-8.72,2.69-18.76,3.19-28.16,3.39-8.23,.19-17.69-.21-23.83-4.63-.55-.4-.61-.86-.41-1.27-2.75-3.48,8.63-3.75,11.36-3.76Z"/><path class="cls-133" d="M164.36,455.54c-1.66-.26-3.33-.51-5-.76,6.68,1.5,14,2.71,22.07,3.68-5.67-1.04-11.4-2.02-17.17-2.95l.1,.02Z"/><path class="cls-16" d="M164.36,455.54c-1.66-.26-3.33-.51-5-.76,6.68,1.5,14,2.71,22.07,3.68-5.67-1.04-11.4-2.02-17.17-2.95l.1,.02Z"/><path class="cls-53" d="M164.36,455.54c-1.66-.26-3.33-.51-5-.76,6.68,1.5,14,2.71,22.07,3.68-5.67-1.04-11.4-2.02-17.17-2.95l.1,.02Z"/><path class="cls-31" d="M164.26,455.52c-1.77-.28-3.54-.56-5.31-.83,.14,.03,.27,.06,.41,.09,1.67,.25,3.33,.5,5,.76l-.1-.02Z"/><path class="cls-67" d="M164.26,455.52c-1.77-.28-3.54-.56-5.31-.83,.14,.03,.27,.06,.41,.09,1.67,.25,3.33,.5,5,.76l-.1-.02Z"/><path class="cls-93" d="M164.26,455.52c-1.77-.28-3.54-.56-5.31-.83,.14,.03,.27,.06,.41,.09,1.67,.25,3.33,.5,5,.76l-.1-.02Z"/><path class="cls-46" d="M164.26,455.52c-1.77-.28-3.54-.56-5.31-.83,.14,.03,.27,.06,.41,.09,1.67,.25,3.33,.5,5,.76l-.1-.02Z"/><path class="cls-84" d="M184.56,415.51l-65.95,20.54c2.17,1.87,4.46,3.6,6.88,5.22l76.25-26.15c-5.91,.19-11.64,.33-17.18,.39Z"/><path class="cls-95" d="M184.56,415.51l-65.95,20.54c2.17,1.87,4.46,3.6,6.88,5.22l76.25-26.15c-5.91,.19-11.64,.33-17.18,.39Z"/><path class="cls-78" d="M184.56,415.51l-65.95,20.54c2.17,1.87,4.46,3.6,6.88,5.22l76.25-26.15c-5.91,.19-11.64,.33-17.18,.39Z"/><path class="cls-104" d="M233.03,400.75l-6.37,1.64-3.38,1.05c3.14-.14,6.29-.29,9.45-.44l.31-2.25Z"/><path class="cls-47" d="M233.03,400.75l-6.37,1.64-3.38,1.05c3.14-.14,6.29-.29,9.45-.44l.31-2.25Z"/><path class="cls-78" d="M233.03,400.75l-6.37,1.64-3.38,1.05c3.14-.14,6.29-.29,9.45-.44l.31-2.25Z"/><path class="cls-69" d="M232.72,403.01c-3.16,.15-6.31,.3-9.45,.44l-38.71,12.06c5.54-.07,11.27-.2,17.18-.39l30.77-10.55,.21-1.55Z"/><path class="cls-17" d="M232.72,403.01c-3.16,.15-6.31,.3-9.45,.44l-38.71,12.06c5.54-.07,11.27-.2,17.18-.39l30.77-10.55,.21-1.55Z"/><path class="cls-5" d="M232.72,403.01c-3.16,.15-6.31,.3-9.45,.44l-38.71,12.06c5.54-.07,11.27-.2,17.18-.39l30.77-10.55,.21-1.55Z"/><path class="cls-78" d="M232.72,403.01c-3.16,.15-6.31,.3-9.45,.44l-38.71,12.06c5.54-.07,11.27-.2,17.18-.39l30.77-10.55,.21-1.55Z"/></g><path class="cls-78" d="M412.67,389.37c.77,.2,1.54,.4,2.32,.6-.3,.75-.59,1.5-.89,2.25-18.25,4.78-35.81,9.16-53.25,16.52,2.14-.06,4.27-.21,6.41-.26,.1,0,.05,.11,0,.15,4.33-.22,8.6-.82,12.89-1.39,.02,0,0-.03,.02-.03,2.64-.39,4.82-.7,7.61-.92,2.78-.22,5.96-.51,8.9-.88,1.81-.23,3.86-.72,5.72-.93,.7-.08,1.43,.16,2.13,.14-.03,.68-.05,1.34-.08,2.01-24.36,4.33-48.57,11.23-73.1,14.38-41.5,5.07-66.52,6.68-104.98,26.28-.91-.05-1.82-.11-2.73-.16-1.15-.7-2.29-1.42-3.44-2.12,.13-.06,.21-.12,.38-.18-1.68,.03-2.37,.04-4.33,.04-.73,0-2.3,.03-3.7,.02-1.4-.01,.09,.01-2.72-.03-4.27-.06-12.08-.4-17.56-.23-5.48,.17-9.96,.12-16.65,.22-.8,.01-10.42,.23-12.48,.23-1.68,.67-2.68,1.34-4.09,2.02-1.15,.05-2.33,.12-3.49,.16,1.16-.26,1.14-.55,0,0-1.57-.62-3.13-1.27-4.7-1.9,3.91-2.05,7.84-4.07,11.77-6.09,6.04-4.31,12.27-8.15,18.87-11.54,.91-7.82,2.68-15.46,4.52-23.11-4.24,.61-8.55,.93-12.82,1.36-.7-.18-1.39-.37-2.08-.56,.49-.74,.98-1.49,1.46-2.23,4.75-.44,9.5-.9,14.24-1.45,.07-.27,.14-.53,.22-.8,1.18-.14,2.36-.48,3.54-.62-.17,.13-.37,.71-.3,.84,.07,.14,.02,.11,.03,.04,.05-.26,.19-.62,.27-.89,.8-.09,1.54,.12,2.33,.07-.04,.15-.08,.29-.12,.44,24-3.93,48-3.44,72.2-1.92,34.18-8.06,67.94-14.05,102.11-23.56,1.28,.2,2.56,.4,3.85,.59-.05,.73-.11,1.47-.17,2.21-19.73,5.28-39.89,8.55-59.26,15.14,21.41,1.14,39.86,7.43,61.5,6.84,12.93-4.8,26.3-7.45,39.66-10.74Zm-133.78,10.93c17.65,2.14,35.14,4.05,52.91,4.8,.97,.49,1.96,.95,2.95,1.42-.05,.21-.1,.41-.14,.62,2.43,.4,4.89,.77,7.35,.97,1,.08,1.95,.11,2.93,.16,.04,0,.09-.01,.12,0,.03,.01,0,0,0,0,2.43,1.3,4.62,.45,7.21,.29,4.72-1.73,9.39-3.64,14.01-5.6-19.44,.53-40.77-5.14-60.29-7.99-8.92,2.3-18.01,3.69-27.06,5.32Zm35.78,17.98c-3.08-.24-6.44-.62-9.46-.76-12.68-.58-24.99-.22-37.37,2.49,0,1.78,.06,3.55,.17,5.33,15.82-4.4,31.73-5.95,48.08-6.82-.46-.06-.94-.2-1.41-.23Zm-52.88,3.4c-12.31,4.22-23.37,8.94-32.27,18.71,10.91-4.95,21.93-9.47,33.25-13.38-.39-1.76-.71-3.54-.98-5.32Zm-32.74-14.81c.71-.22,1.67-.43,2.42-.64-12.86-1.78-25.52-2.85-38.53-2.63,.72-.13,1.44-.26,2.16-.41-1.04,.18-2.09,.33-3.13,.48-1.56,6.82-2.82,13.64-3.35,20.63,13.27-6.57,26.24-12.98,40.43-17.43Zm9.98-2.32c4.26-.79,8.52-1.46,12.82-2.01,1.46-.44,2.92-.88,4.38-1.31-15.91-.6-31.72-.95-47.62,.19,10.21,.56,20.3,1.67,30.41,3.13Zm30.21-3.85h0Z"/><g><g><path class="cls-96" d="M104.58,67.3c-18.29,31.14-34.99,63.77-42.63,97.21,7.18-3.03,14.44-6.08,22.17-7.54,12.48-2.36,25.61-.32,38.48,1.77-6.15-29.28-11.86-59.64-6.75-88.78,.27-1.56,.51-3.42-.49-4.62-1.08-1.3-2.9-.98-4.34-.48-3.15,1.08-6.21,2.47-6.43,2.43Z"/><path class="cls-127" d="M143.56,65.47c10.77,9.77,19.1,22.7,25.62,36.35,6.51,13.66,11.32,28.12,15.43,42.6,13.82-18.23,35.28-28.39,56.81-28.07-16.78-23.51-41.96-41.77-69.07-49.14-9.64-2.59-19.71-3.78-28.79-1.75Z"/><path class="cls-80" d="M23.31,151.78c6.92-.49,13.95-.98,20.84,.57,6.89,1.54,13.75,5.46,17.57,11.88,7.48-21.34,16.54-43.16,27.19-64.52,3.92-7.85,8.05-15.62,12.66-23.07-15.69,10.72-29.85,24-43.49,37.37-12.4,12.16-24.45,24.54-34.76,37.77Z"/><path class="cls-108" d="M184.34,144.33c-4.67-4.41-10.9-6.13-16.81-6.06-5.9,.06-11.6,1.74-17.22,3.39-3.36,.99-6.73,1.97-9.98,3.3-6.76,2.78-12.92,7.09-17.69,12.13-5.96-11.05-8.04-24-7.27-36.38,.77-12.38,4.24-24.27,8.74-35.48,3.28-8.16,7.27-16.22,12.6-22.32,6.41,2.61,12.91,5.3,18.58,9.77,6.24,4.92,11.17,11.77,15.2,19.02,8.86,15.91,13.82,34.27,13.84,52.63Z"/><path class="cls-113" d="M241.09,116.29c-8.35-8.93-16.8-18.13-26.3-26.17-9.5-8.04-20.16-14.95-31.65-18.44-4.81-1.46-9.8-2.33-14.29-4.93,10.5-4.77,22.66-3.48,34.31-2.6,15.17,1.14,30.38,1.61,45.36,4.18,14.98,2.57,29.88,7.28,41.95,15.63-6.89-.24-12.27,5.87-17.8,10.35-9.76,7.92-22.78,11.13-31.58,21.99Z"/></g><path class="cls-14" d="M248.51,68.33c-14.98-2.57-30.19-3.04-45.36-4.18-11.43-.86-23.33-2.1-33.69,2.35-8.75-2.07-17.73-2.85-25.91-1.02,.24,.22,.47,.44,.7,.66-2.49-1.15-5.03-2.2-7.54-3.22-5.33,6.1-9.32,14.16-12.6,22.32-4.28,10.65-7.62,21.92-8.6,33.64-2.02-16.41-2.49-32.84,.32-48.89,.27-1.56,.51-3.42-.49-4.62-1.08-1.3-2.9-.98-4.34-.48-3.15,1.08-6.21,2.47-6.43,2.43-2.36,4.02-4.7,8.07-6.99,12.14-14.12,10.19-27.04,22.33-39.52,34.56-12.4,12.16-24.45,24.54-34.76,37.77,6.92-.49,13.95-.98,20.84,.57,6.89,1.54,13.75,5.46,17.57,11.88,.29-.82,.59-1.64,.88-2.46-.22,.92-.44,1.83-.65,2.75,7.18-3.03,14.44-6.08,22.17-7.54,12.48-2.36,25.61-.32,38.48,1.77-.21-.99-.42-1.99-.62-2.98,.22,.44,.44,.88,.68,1.32,4.76-5.04,10.92-9.35,17.69-12.13,3.24-1.33,6.61-2.32,9.98-3.3,5.63-1.65,11.32-3.33,17.22-3.39,5.91-.06,12.13,1.65,16.81,6.06,0-.29-.01-.58-.02-.87,.09,.32,.19,.65,.28,.97,13.82-18.23,35.28-28.39,56.81-28.07-.06-.08-.12-.16-.18-.24,8.79-10.71,21.72-13.93,31.42-21.81,5.53-4.48,10.91-10.59,17.8-10.35-12.07-8.34-26.97-13.06-41.95-15.63Z"/><g><rect class="cls-1" x="131.53" y="77.57" width="1.87" height="54.91" transform="translate(-25.37 165.58) rotate(-59.4)"/><rect class="cls-75" x="137.94" y="69.76" width="1.87" height="54.91" transform="translate(-29.39 117.84) rotate(-41.98)"/><rect class="cls-129" x="161.25" y="64.88" width="1.87" height="54.91" transform="translate(299.1 219.15) rotate(-166.84)"/><rect class="cls-26" x="171.56" y="67.28" width="1.87" height="54.91" transform="translate(265.76 268.04) rotate(-147.06)"/><path class="cls-100" d="M230.66,404.76h0c-1.76,.45-3.55-.61-4.01-2.37L135.63,43.55c-.45-1.76-.54-3.19,1.22-3.64h0c1.76-.45,2.36,.92,2.81,2.68l93.37,358.17c.45,1.76-.61,3.55-2.37,4.01Z"/></g><g><path class="cls-9" d="M94.17,73.45c-14.37,2.76-27.52,10.87-38.35,21.42-10.83,10.56-19.42,23.4-26.07,36.38-3.31,6.5-6.24,13.34-5.6,20.49,12.27-7.11,24.99-15.52,39.75-16.17,2.23-24.3,14.24-48.37,30.28-62.12Z"/><path class="cls-18" d="M173.46,43.29c12.42-10.11,30.49-5.52,46.09-.34,26.86,9.1,54.47,20.26,70.36,40.63-10.17-.43-20.66,.57-30.77,3.38-1.6,.44-3.27,.94-4.88,.54-1.36-.34-2.53-1.28-3.65-2.2-22.79-18.58-49.16-39.79-77.15-42Z"/><path class="cls-59" d="M141.83,50.29c18.83-10.32,41.75-11.02,62.79-3.24,21.06,7.83,39.85,23.25,51.71,42.24-20.27-6.35-43.19-5.31-62.17,5.47-17.27-13.2-34.7-26.98-52.09-40.64-.64-.5-1.32-1.07-1.56-1.91-.24-.84,.45-1.46,1.31-1.92Z"/><path class="cls-86" d="M137.01,57.72c-17.12-5.43-34.05,4.18-46.98,16.57-8.29,7.92-15.72,17.14-20.9,27.72-5.18,10.61-8.03,22.58-6.84,34.48,16.63-13.34,38.01-20.87,59.72-19,.69-6.63,1.37-13.29,2.04-19.98,1.59-15.78,3.98-33.43,12.97-39.79Z"/><path class="cls-37" d="M121.21,119.43c-5.87-14.12-3.59-30.2,.67-44.26,1.95-6.42,4.35-12.76,8.14-17.82,3.79-5.06,9.16-8.74,15.14-8.82,2.77-.04,5.58,.69,8.3,1.71,9.19,3.47,17.49,10.29,24.56,18.2,7.07,7.91,13.04,16.93,18.9,25.85-13.64,.9-27.38,1.85-40.54,5.44-13.16,3.58-25.81,9.97-35.17,19.7Z"/></g></g><g><g><path class="cls-65" d="M405.56,333.82c.32,1.93,.64,3.87,.97,5.8-50.75,6.47-100,17.78-150.83,21.05-.38-1.93-.76-3.86-1.13-5.79,50.96-4.04,100.17-14.57,150.99-21.06Z"/><path class="cls-49" d="M405.56,333.82c.68-.64,1.35-1.28,2.02-1.93-50.7,6.21-100.1,16.9-150.86,20.45-.72,.85-1.45,1.69-2.16,2.54,50.96-4.04,100.17-14.57,150.99-21.06Z"/><path class="cls-6" d="M405.56,333.82c.32,1.93,.64,3.87,.97,5.8,.68-.63,1.35-1.26,2.03-1.89-.33-1.95-.65-3.89-.97-5.84-.68,.64-1.35,1.28-2.02,1.93Z"/></g><g><path class="cls-102" d="M191.61,391.36c15.93-10.11,32.32-19.22,49.1-27.84,1.68,.98,3.34,1.97,4.97,3.03-15.86,7.79-31.63,15.65-47.01,24.36-2.36,.14-4.71,.29-7.07,.45Z"/><path class="cls-82" d="M245.68,366.55c-.2,1.22-.41,2.43-.62,3.64-16.95,8.18-33.81,16.44-50.08,25.91-.22-.85-.44-1.71-.66-2.56,16.71-9.83,33.97-18.46,51.36-26.99Z"/></g><g><path class="cls-131" d="M263.78,299.76c-1.93,19.4-2.41,38.77-2.72,58.24,1.73,.35,3.46,.7,5.19,1.05-.07-18.8-.09-37.54,1.01-56.32-1.17-.98-2.32-1.97-3.47-2.97Z"/><path class="cls-30" d="M267.25,302.73c.53,1.08,1.06,2.17,1.58,3.25-.73,16.42-.44,32.77-.07,49.19-1.08,.05-2.16,.09-3.24,.14,.11-17.57,.43-35.06,1.73-52.58Z"/></g><g><path class="cls-8" d="M222.58,243.48c-1.2,2.14-2.39,4.29-3.59,6.43,57.14,86.65,111.69,105.04,201.13,148.09-.71-1.96-1.4-3.91-2.12-5.86-87.7-46.62-138.85-59.96-195.42-148.66Z"/><path class="cls-7" d="M222.58,243.48c.95-.18,1.9-.36,2.86-.54,56.13,86.74,108.07,102.11,195.8,146.03-1.09,1.05-2.16,2.11-3.24,3.17-87.7-46.62-138.85-59.96-195.42-148.66Z"/><path class="cls-121" d="M418,392.14c.71,1.95,1.41,3.91,2.12,5.86,.79-.83,1.58-1.65,2.38-2.48-.42-2.18-.84-4.37-1.25-6.55-1.09,1.05-2.16,2.11-3.24,3.17Z"/></g><g><path class="cls-48" d="M305.07,411.85c24.85-12.04,45.76-27.53,69.72-40.02,1.46,.97,2.91,1.96,4.36,2.95-24.59,14.14-43,28.31-69.83,39.54-1.41-.85-2.83-1.66-4.26-2.47Z"/><path class="cls-105" d="M309.33,414.31c26.82-11.24,45.24-25.41,69.83-39.54,.21,.75,.43,1.5,.64,2.25-24.31,14.62-41.55,28.31-68.68,38.84-.59-.52-1.18-1.04-1.78-1.55Z"/></g><g><path class="cls-41" d="M152.74,253.14c23.14-2.07,47.24-2.68,71.73-.13,7.77,45.81,38.06,84.28,82.04,93.5,37.58,7.88,60.94-4.51,95.17-8.55-.42,.18,0,1.25,.32,2.01-30.35,8.11-41.62,29.05-74.38,37.46-32.76,8.4-64.12,14.08-99.36-10.4-35.24-24.48-57.26-74.08-75.51-113.89Z"/><path class="cls-76" d="M401.67,337.97c-4.95,.83-5.76,2.1-9.89,3.99-4.13,1.89-10.25,5.22-14.52,7.65-4.28,2.43-8.17,5.15-12.27,7.56-4.1,2.41-8.04,5.75-11.83,8.09-3.78,2.34-3.84,2.59-8.55,4.4-4.71,1.81-7.18,5.7-14.24,6.95-7.06,1.25-7.14,3.39-18.04,3.81-25.73,1-52.95,7.07-79.58-12.54-37.93-27.93-57.56-74.69-79.1-117.36,2.76-.98,7.14-.19,10.47-.25,3.33-.06,5.97,.05,9.39,.03,3.42-.02,7.84-.06,11.29-.13,3.45-.07,5.99-.12,9.47-.2,3.48-.09,7.77-.38,11.3-.28,3.53,.09,5.78,.22,9.47,.48,3.69,.26,7.03,.3,11.88,1.75,3.72,44.43,38.66,83.44,78.47,92.19,39.13,8.61,60.72-2.97,96.29-6.13Z"/><path class="cls-115" d="M346.02,369.19c-4.61,3.54-9.36,5.08-14.33,7.25-4.98,2.17-11.12,2.44-16.82,2.81-16.43,5.69-53.9-1.21-68.01-11.18-48.45-34.24-57.76-68.15-83.29-118.25,2.84,.28,6.52,.84,8.54,0,26.26,48.98,28.29,77.91,80.23,112.18,18.71,12.34,69.27,18.06,93.69,7.2Z"/><path class="cls-109" d="M368.94,354.82c-2.43,5.73-2.75,1.85-9.11,5.67-19.27,11.57-81.93,8.96-95.96-1.13-52.13-37.49-52.62-58.45-79.79-109.61,3.66,.47,6.44,.61,8.61-.24,27.34,48.7,23.96,69.55,76.25,104.35,19.27,12.82,76.25,14.44,99.99,.97Z"/><path class="cls-139" d="M392.82,341.39c-5.99,4.48-2.68,2-11.85,5.68-29.3,11.76-72.88,19.45-102.56,2.3-49.38-28.53-52.41-50.99-73.24-100.19,2.62,.46,5.63,1.25,8.03,.33,25.5,47.83,26.61,66.07,76.5,96.21,22.01,13.3,70.52,5.57,103.12-4.33Z"/><path class="cls-85" d="M332.17,376.64c.11,.34,.22,.68,.33,1.02,4.47-2.34,9.05-5.13,13.67-7.14-.09-.76-.08-.58-.15-1.33-4.67,2.39-9.32,4.82-13.85,7.45Z"/><path class="cls-71" d="M359.83,360.49c.38,.56,.95,.72,.91,1.45,2.89-2.09,6.07-3.45,8.97-5.55,.3-.22-.58-1.35-.77-1.57-3.1,1.77-6.09,3.75-9.11,5.67Z"/><path class="cls-38" d="M392.82,341.39c.08,.45,.18,.9,.26,1.36-3.27,1.61-6.56,3.17-9.79,4.84-.15-.38-.3-.76-.45-1.13,3.32-1.69,6.65-3.38,9.98-5.07Z"/></g><g><path class="cls-98" d="M252.88,299s9.16,2.35,17.33,5.97c8.17,3.62,14.99,6.4,18.19,7.16s4.46,.59,6.99-3.28,6.74-10.11,7.33-14.99c.59-4.88,6.4,0,7.75,1.85s-.51,8.67-1.77,17.6c-1.26,8.93-2.7,13.98-5.64,15.41s-11.54-.17-14.82-.34-15.24-2.78-21.64-8.59c-6.4-5.81-13.71-20.79-13.71-20.79Z"/><path class="cls-110" d="M301.41,298.38s-.1-4.88-.09-7.65c0-2.77-.76-5.13,.97-8.98s11.48-15.42,18.08-11.12c6.6,4.3,6.54,8.76,3.06,14.39s-7.33,8.05-8.14,8.8-3.71,3.69-4.45,5.87-8.42,.69-9.43-1.32Z"/><g><g><circle class="cls-74" cx="325.32" cy="266.48" r="6.97"/><circle class="cls-10" cx="325.32" cy="266.48" r="5.16"/></g><g><circle class="cls-74" cx="314.94" cy="265.11" r="6.97"/><circle class="cls-10" cx="314.94" cy="265.11" r="5.16"/></g><path class="cls-60" d="M327.28,292.42l-27.77-7.98c-1.13-.32-1.78-1.5-1.45-2.63l5.5-19.14c.32-1.13,1.5-1.78,2.63-1.45l27.77,7.98c1.13,.32,1.78,1.5,1.45,2.63l-5.5,19.14c-.32,1.13-1.5,1.78-2.63,1.45Z"/><g><rect class="cls-21" x="300.75" y="281.96" width="1.31" height="1.65" transform="translate(-53.62 494.38) rotate(-73.97)"/><path class="cls-21" d="M322.2,289.44l-3.36-.97,.36-1.26,3.36,.97-.36,1.26Zm-6.73-1.93l-3.36-.97,.36-1.26,3.36,.97-.36,1.26Zm-6.73-1.93l-3.36-.97,.36-1.26,3.36,.97-.36,1.26Z"/><rect class="cls-21" x="325.88" y="289.18" width="1.31" height="1.65" transform="translate(-42.37 523.76) rotate(-73.97)"/></g><path class="cls-21" d="M319.66,281.52l12.26,3.52c.39,.11,.8-.11,.91-.5l1.83-6.38c.11-.39-.11-.8-.5-.91l-12.26-3.52c-1.18-.34-2.41,.34-2.75,1.52l-1.01,3.53c-.34,1.17,.34,2.4,1.52,2.74Z"/><circle class="cls-97" cx="322.66" cy="278.09" r="2.62"/><g><rect class="cls-21" x="306.21" y="262.98" width="1.31" height="1.65" transform="translate(-31.43 485.88) rotate(-73.97)"/><path class="cls-21" d="M327.66,270.46l-3.36-.97,.36-1.26,3.36,.97-.36,1.26Zm-6.73-1.93l-3.36-.97,.36-1.26,3.36,.97-.36,1.26Zm-6.73-1.93l-3.36-.97,.36-1.26,3.36,.97-.36,1.26Z"/><rect class="cls-21" x="331.34" y="270.2" width="1.31" height="1.65" transform="translate(-20.18 515.26) rotate(-73.97)"/></g></g><path class="cls-44" d="M301.31,290.91c-.09-.16-.86-3.01-1.17-3.78s-.13-4.54,.58-5.71,1.47-4.45,1.97-4.72,3.02-1.48,3.07,1.26c.04,2.74-1.08,5.77-.99,6.91s.76,2.36,.31,3.87-3.06,3.48-3.78,2.18Z"/><path class="cls-55" d="M309.32,309.31s-4.87,13.62-6.64,15.33c-1.77,1.71-6.06,1.64-10.42,1.26-4.36-.38-9.85-2.27-13.08-3.22-3.22-.95-6.32-1.33-6.32-1.33l3.91,4.21c4.88,1.83,9.58,2.72,11.46,2.82,3.28,.17,11.88,1.77,14.82,.34,2.95-1.43,4.38-6.49,5.64-15.41,.2-1.39,.41-2.72,.62-4h0Z"/><path class="cls-77" d="M377.45,433.78s1.28-.4,1.22,1.82-.44,1.65-1.77,1.59-4.8-1.36-8.4-2.57-5.28-3.56-10.99-4.83-6.91-7.79-6.91-7.79l7.92-.48,12.95,9.1,5.98,3.16Z"/><path class="cls-98" d="M391.31,338.15s3.03-.32,6.58,2.52,4.7,14.13,.51,20.68-27.1,34.97-31.41,38.99c-4.31,4.02-5.55,6.64-5.37,8.56s.91,3.18,.91,3.18c0,0,10.6,14.67,12.12,15.94s3.55,3.55,2.72,6.06c-1.16,1.92-8.95-1.78-11.61-3.42s-7.02-4.96-11.89-7.31-9.41-2.62-11.3-4.8c-1.89-2.18-5.22-4.84-1.91-9.13,3.32-4.29,13.75-17.25,16.01-21.26s11.23-19,11.23-19l15.12-20.05,8.3-10.96Z"/><path class="cls-55" d="M391.31,338.15s3.03-.32,6.58,2.52,4.7,14.13,.51,20.68-27.1,34.97-31.41,38.99c-4.31,4.02-5.55,6.64-5.37,8.56s.91,3.18,.91,3.18c0,0,10.6,14.67,12.12,15.94s3.55,3.55,2.72,6.06c-1.16,1.92-8.95-1.78-11.61-3.42s-7.02-4.96-11.89-7.31-9.41-2.62-11.3-4.8c-1.89-2.18-5.22-4.84-1.91-9.13,3.32-4.29,13.75-17.25,16.01-21.26s11.23-19,11.23-19l15.12-20.05,8.3-10.96Z"/><path class="cls-124" d="M365.43,338.77s16.08-.75,21.38-1.44c5.31-.69,5.37-.69,4.99,0s-9.22,14.72-10.67,17.75c-1.46,3.03-7.08,4.99-8.21,5.18s-13.34-11.29-13.34-11.29l5.86-10.19Z"/><path class="cls-13" d="M363.36,433.97s.72,1.01,.34,3.09-2.78,1.52-5.37,1.07-8.4-2.53-13.2-4.17-5.94-3.73-9.85-4.23-16.55-3.1-19.2-3.16c-2.65-.06-5.12-.69-3.16-3.92,1.96-3.22,8.09-.78,11.37-.29s20.66,3.39,24.57,4.91c3.92,1.52,14.51,6.7,14.51,6.7Z"/><path class="cls-98" d="M364.99,339.6s7.81,.15,11.93,2.76c4.13,2.61,5.9,12.13,2.19,19.62-3.71,7.5-26.78,33.27-30.91,38.07s-5.14,7.75-4.72,9.77,1.35,3.28,1.35,3.28c0,0,13.05,14.4,14.82,15.58,1.77,1.18,4.21,3.37,3.62,6.15-1.01,2.19-9.77-.84-12.8-2.27s-8.09-4.46-13.56-6.4-10.36-1.68-12.63-3.79-6.15-4.55-3.12-9.52c3.03-4.97,12.63-20.04,14.57-24.59s9.74-21.62,9.74-21.62l13.76-23.19,5.75-3.85Z"/><path class="cls-99" d="M299.27,335.88s1.33,0,4.61-.51,8.27,2.78,13.9,4.86,19.08,.06,24.7-1.14c5.62-1.2,12.25-1.55,15.92-.87,2.77,.51,5.54,.25,6.73,.09,.25-.03,.43,.23,.31,.45-1.9,3.59-12.91,23.86-21.19,28.69-7.83,1.89-22.87,4.42-30.19,6.82-7.33,2.4-18.7,.38-30.7-1.52-12-1.89-20.59-11.5-20.59-11.5,0,0,8.97-9.22,14.78-13.01s21.73-12.38,21.73-12.38Z"/><path class="cls-124" d="M350.85,361.36c-.08,0-23.29,.97-27.92,2.53-4.64,1.57-18.78,5.17-29.14,3.3-10.36-1.87-20.93-8.66-20.93-8.66,1.05-1.68,12.34-6.49,21.01-12.46,8.67-5.98,6.81-10.29,6.81-10.29-.99,.09-1.42,.09-1.42,.09,0,0-15.92,8.59-21.73,12.38-5.81,3.79-14.78,13.01-14.78,13.01,0,0,8.59,9.6,20.59,11.5,12,1.89,23.37,3.92,30.7,1.52,7.33-2.4,22.36-4.93,30.19-6.82,2.09-1.22,4.36-3.43,6.6-6.1Z"/><path class="cls-98" d="M235.47,291.91s8.84,0,20.09,12.51c11.24,12.51,16.68,16.55,24.51,20.09,7.83,3.54,16.93,7.71,19.2,11.37s-34.36,24.38-36.51,25.39-18.94-6.82-22.16-9.73c-3.23-2.91-10.07-8.72-13.35-17.94-3.27-9.22-1.78-24.26-3.54-27.92s-10.11-5.43-11.49-6.95-.51-3.03,5.62-3.92,17.63-2.91,17.63-2.91Z"/><path class="cls-55" d="M264.51,361.78l-.99-.91,2.48-1.37c-2.69-.94-21.11-7.61-26.6-9.03-5.91-1.53,1.27,7.82,1.27,7.82l15.68,9.6,9.21-5.88,.02-.05-1.06-.18Z"/><path class="cls-32" d="M235.71,288.7s-.57,1.87-.24,3.22-17.73,4.13-20.38,4.08-2.38,.21-2.38,.21c0,0,.33-2.35,.53-4.76s22.47-2.76,22.47-2.76Z"/><g><path class="cls-98" d="M193.29,257.41c-.12,2.01,.02,4.02,.43,5.99l.09,.41c.53,2.37,.73,4.8,.69,7.22-1.18-.16-2.47-.71-3.83-1.85-3.59-2.99-3.85-8.95-.64-11.04,1.21-.79,2.34-.91,3.28-.76v.02Z"/><path class="cls-106" d="M193.29,257.41c-.12,2.01,.02,4.02,.43,5.99l.09,.41c.53,2.37,.73,4.8,.69,7.22-1.18-.16-2.47-.71-3.83-1.85-3.59-2.99-3.85-8.95-.64-11.04,1.21-.79,2.34-.91,3.28-.76v.02Z"/><path class="cls-98" d="M247.75,257.2c-.79,1.59-1.75,2.61-2.77,3.23-1.02-2.2-1.81-4.51-2.27-6.89l-.09-.41c-.42-1.97-1.1-3.88-2.03-5.67,.8-.52,1.88-.86,3.31-.62,3.78,.63,5.93,6.19,3.85,10.37Z"/><path class="cls-106" d="M247.75,257.2c-.79,1.59-1.75,2.61-2.77,3.23-1.02-2.2-1.81-4.51-2.27-6.89l-.09-.41c-.42-1.97-1.1-3.88-2.03-5.67,.8-.52,1.88-.86,3.31-.62,3.78,.63,5.93,6.19,3.85,10.37Z"/><path class="cls-98" d="M237.41,262.1c-.69,1.83-.56,3.88,.44,5.57,.75,1.27,1.49,2.73,1.74,3.89,1.77,8.43-4.78,16.94-14.64,19.01-9.86,2.07-19.28-3.09-21.05-11.52-.24-1.15-.15-2.79,.03-4.26,.24-1.95-.47-3.89-1.83-5.28-.33-.34-.63-.69-.91-1.07-.85-1.15-1.44-2.47-1.73-3.87-1.17-5.6,2.64-11.14,8.52-12.37,1.9-.4,3.87-.31,5.72,.27,2.17,.7,4.55,.2,6.26-1.31,1.46-1.28,3.23-2.16,5.13-2.55,5.88-1.23,11.6,2.3,12.78,7.9,.3,1.4,.29,2.84-.03,4.24-.11,.46-.24,.91-.41,1.35Z"/><path class="cls-106" d="M237.41,262.1c-.69,1.83-.56,3.88,.44,5.57,.75,1.27,1.49,2.73,1.74,3.89,1.77,8.43-4.78,16.94-14.64,19.01-9.86,2.07-19.28-3.09-21.05-11.52-.24-1.15-.15-2.79,.03-4.26,.24-1.95-.47-3.89-1.83-5.28-.33-.34-.63-.69-.91-1.07-.85-1.15-1.44-2.47-1.73-3.87-1.17-5.6,2.64-11.14,8.52-12.37,1.9-.4,3.87-.31,5.72,.27,2.17,.7,4.55,.2,6.26-1.31,1.46-1.28,3.23-2.16,5.13-2.55,5.88-1.23,11.6,2.3,12.78,7.9,.3,1.4,.29,2.84-.03,4.24-.11,.46-.24,.91-.41,1.35Z"/><path class="cls-56" d="M213.05,279.09c-.57,.12-.93,.67-.81,1.24,0,.04,.02,.09,.04,.13,1.58,4.39,6.59,6.98,11.79,5.89s8.74-5.48,8.43-10.13c-.05-.58-.55-1.01-1.13-.96-.05,0-.09,.01-.14,.02l-18.18,3.82Z"/><path class="cls-19" d="M217.84,285.91c4.06,1.49,8.62,.53,11.74-2.46-1.27-2.39-3.5-1.31-6.28-.73s-5.26,.49-5.46,3.19Z"/><path class="cls-98" d="M244.71,244.7c-2.28-.38-3.87,.41-4.9,1.33-.47-.79-.97-1.55-1.52-2.28-.4-.54-.82-1.06-1.25-1.58-4.47-5.24-10.94-9-17.61-9.77l-.83-3.33-3.53,3.27c-.17,.02-.33,.03-.5,.05-.3,.04-.61,.08-.91,.13l-1.12-2.42-.33-.7c-.2,.04-.4,.09-.59,.15-3.69,1.09-4.85,4.9-5.01,5.54-5.8,3.38-10.2,9.43-12.19,16.02-.2,.64-.37,1.29-.51,1.95-.2,.89-.36,1.79-.47,2.7-.06-.02-.11-.04-.17-.05-1.3-.38-3-.4-4.86,.8-4.08,2.66-3.74,10.22,.81,14.02,1.86,1.55,3.61,2.24,5.2,2.38,0,.09,0,.18,0,.26-.01,1.28,.12,2.56,.38,3.82,1.83,8.71,9.82,14.85,19.71,16.21,2.32,.32,4.67,.37,7.01,.16,1.21-.11,2.42-.28,3.61-.52l.28-.06c14.44-3.03,24.15-15.02,21.68-26.77-.26-1.26-.66-2.48-1.19-3.65-.04-.08-.07-.16-.11-.24,1.39-.77,2.72-2.11,3.8-4.27,2.64-5.31-.09-12.37-4.89-13.16Zm-51.42,12.71c-.12,2.01,.02,4.02,.43,5.99l.09,.41c.53,2.37,.73,4.8,.69,7.22-1.18-.16-2.47-.71-3.83-1.85-3.59-2.99-3.85-8.95-.64-11.04,1.21-.79,2.34-.91,3.28-.76v.02Zm44.53,3.34c-.1,.46-.24,.91-.41,1.35-.69,1.83-.56,3.88,.44,5.57,.75,1.27,1.49,2.73,1.74,3.89,1.77,8.43-4.78,16.94-14.64,19.01s-19.28-3.09-21.05-11.52c-.24-1.15-.15-2.79,.03-4.26,.24-1.95-.47-3.89-1.83-5.28-.33-.34-.63-.69-.91-1.07-.85-1.15-1.44-2.47-1.73-3.87-1.17-5.6,2.64-11.14,8.52-12.37,1.9-.4,3.87-.31,5.72,.27,2.17,.7,4.55,.2,6.26-1.31,1.46-1.28,3.23-2.16,5.13-2.55,5.88-1.23,11.6,2.3,12.78,7.9,.3,1.4,.29,2.84-.03,4.24Zm9.93-3.55c-.79,1.59-1.76,2.61-2.77,3.23-1.02-2.2-1.81-4.51-2.27-6.89l-.09-.41c-.42-1.97-1.1-3.88-2.03-5.67,.8-.52,1.88-.86,3.31-.62,3.78,.63,5.93,6.19,3.85,10.37h0Z"/><rect class="cls-56" x="217.17" y="268.96" width="1.75" height="3.98" rx=".88" ry=".88" transform="translate(-94.21 424.11) rotate(-77.3)"/><rect class="cls-56" x="221.4" y="268.96" width="3.98" height="1.75" rx=".88" ry=".88" transform="translate(-116.54 185.23) rotate(-36.4)"/><path class="cls-56" d="M210.33,266.51h0c-1.69,.35-3.33-.66-3.66-2.26l-.2-.97c-.34-1.6,.76-3.18,2.45-3.54h0c1.69-.35,3.33,.66,3.67,2.26l.2,.97c.34,1.6-.76,3.18-2.45,3.54Z"/><path class="cls-63" d="M208.91,259.76l.71,3.38c.17,.8,.99,1.3,1.83,1.13s1.39-.97,1.22-1.77l-.1-.48c-.34-1.6-1.98-2.61-3.67-2.26Z"/><ellipse class="cls-4" cx="209.32" cy="261.69" rx="1.04" ry=".99" transform="translate(-49.29 48.57) rotate(-11.85)"/><path class="cls-56" d="M228.67,262.67h0c-1.69,.35-3.33-.66-3.66-2.26l-.2-.97c-.34-1.6,.76-3.18,2.45-3.54h0c1.69-.35,3.33,.66,3.67,2.26l.2,.97c.34,1.6-.76,3.18-2.45,3.54Z"/><path class="cls-63" d="M227.25,255.91l.71,3.38c.17,.8,.99,1.3,1.83,1.13s1.39-.97,1.22-1.77l-.1-.48c-.34-1.6-1.98-2.61-3.67-2.26Z"/><ellipse class="cls-4" cx="227.65" cy="257.84" rx="1.04" ry=".99" transform="translate(-48.11 52.26) rotate(-11.85)"/><path class="cls-55" d="M212.54,230.11c-.7,.08-1.97,1.47-3.37,3.71-.35,.56-.71,1.17-1.07,1.83-2.65,4.86-5.36,12.21-5.35,19.17,0,11.69,1.78,24.88,7.43,31.21,4.78,5.37,11.34,7.34,11.34,7.34-2.33,.21-4.69,.15-7.01-.16-9.89-1.36-17.89-7.5-19.71-16.21-.26-1.26-.39-2.54-.38-3.82,0-.09,0-.18,0-.26-1.58-.14-3.34-.83-5.2-2.38-4.55-3.8-4.89-11.37-.81-14.02,1.86-1.21,3.56-1.19,4.86-.8,.06,.02,.11,.03,.17,.05,.11-.91,.27-1.81,.47-2.7,.15-.65,.32-1.3,.51-1.95,1.99-6.59,6.39-12.64,12.19-16.02,.17-.65,1.33-4.45,5.01-5.54,.19-.06,.38-.11,.59-.15l.33,.7Z"/></g><path class="cls-106" d="M244.21,294.94s-6.6,3.46-9.8,4.59-8.13-.04-8.89,2.27,3.86,6.4,3.61,13.98c-.25,7.58,8.19,4.93,10.73,7.71s30.21,8.97,38.29,15.54c8.09,6.57,18.27-4.33,17.66-6.4s-12.23-6.68-15.52-8.45-17.94-12.89-20.09-15.54-3.03-5.37-4.17-7.01-9.11-6.83-11.85-6.7Z"/><path class="cls-13" d="M356.31,434.7s2.69-5.43,3.92-6.16-3.41-3.79-5.5-6.32c-2.08-2.53-2.71-2.05-3.22-1.85s-7.71,8.46-8.21,9.42,11.56,6.71,13.01,4.91Z"/><path class="cls-77" d="M367.8,432.21s4.75-4.01,6.13-4.94-3.42-5.48-4.68-7.06-6.51,6.88-8.34,7.71,6.89,4.3,6.89,4.3Z"/><path class="cls-98" d="M306.7,381.43c-.43-2.17-4.57-6.41-6.02-7.57-1.45-1.15-11.39-5.28-14.61-5.9-3.22-.62-5.3-.99-11.19-2.94-4.94-1.63-35.82-13.86-45.66-17.77-.78-6.09-2.5-16.74-2.59-20.61-.13-5.29,.49-19.18-2.91-23.35-3.4-4.17-11.9-6.29-11.9-6.29,0,0-7.67,7.17-10.83,14.75-3.16,7.58,3,16.81,5.41,26.41,2.42,9.6,8.86,20.01,9.68,23.21,.8,3.11,1.25,4.64,5.89,5.24,4.95,2.19,13.76,5.82,19.32,6.54,8.07,1.04,26.76,2.56,31.79,2.56s9.49,2.56,13.48,4.74,8.24,6.58,9.86,6.8c1.62,.22,2.29-.63,2.38-1.58,1.52,1.23,4.22,1.14,3.92-.66,1,.5,2.81-.39,2.17-1.85,1.28,.57,2.24,.46,1.81-1.71Z"/><path class="cls-55" d="M227.69,336.33l-18.42-16.72-7.44,5.3c1.13,3.34,2.59,6.81,3.73,10.35l36.12,37.92c5.34,.67,14.8,1.52,22.18,2.04l-24.58-23.99h0c-4.13-1.63-7.7-3.05-10.06-3.98-.39-2.99-.99-7.08-1.53-10.92Z"/></g><g><g><path class="cls-72" d="M178.86,291.83c-1.14,36.32,1.72,76.34,7,112.2,1.25-.05,2.5-.11,3.74-.16-5.07-34.79-8.16-68.66-6.5-103.88-1.53-.95-2.73-7.18-4.24-8.15Z"/><path class="cls-36" d="M189.61,403.86c.79-.65,1.57-1.31,2.35-1.97-4.74-33.14-6.93-65.82-5.96-99.31-.98-.85-1.96-1.7-2.9-2.6-1.66,35.22,1.44,69.09,6.5,103.88Z"/></g><g><path class="cls-11" d="M147.35,249.71c1.61-2.02,3.21-4.04,4.82-6.06,57.62,87.53,99.11,138.15,188.81,194.58-.1,2.45-.21,4.9-.31,7.35-91.31-56.3-134.93-107.23-193.32-195.87Z"/><path class="cls-51" d="M152.17,243.64c1.2,.13,2.4,.26,3.61,.39,57.58,86.54,99.33,136.12,188.49,191.57-1.1,.87-2.19,1.74-3.28,2.62-89.7-56.43-131.19-107.06-188.81-194.58Z"/><path class="cls-45" d="M340.67,445.58c.11-2.45,.21-4.9,.31-7.35,1.09-.87,2.19-1.74,3.28-2.62,.12,2.36,.23,4.71,.35,7.07-1.31,.97-2.63,1.93-3.94,2.9Z"/></g><g><path class="cls-66" d="M168.66,398.75c.61,2.04,1.21,4.08,1.82,6.12,54.86-12.43,109.13-12.42,162.32-24.02-.21-1.38-.41-2.77-.62-4.15-52.63,11.63-108.37,10.28-163.52,22.05Z"/><path class="cls-90" d="M168.66,398.75c.7-.94,1.41-1.88,2.1-2.83,55.98-13.19,109.73-11.85,163.95-23.18-.84,1.32-1.7,2.63-2.53,3.96-52.63,11.63-108.37,10.28-163.52,22.05Z"/><path class="cls-68" d="M334.71,372.73c-.84,1.32-1.7,2.63-2.53,3.96,.21,1.39,.41,2.77,.62,4.15,.93-1.14,1.89-2.26,2.82-3.39-.31-1.57-.61-3.15-.91-4.72Z"/></g></g><g class="cls-89"><path d="M215.89,259.62l.3,1.32c1.25,5.56-1.8,11.19-7.14,13.18-1.68,.63-3.49,.84-5.27,.63-.41-.05-.81-.11-1.21-.2-.94-.22-1.85-.55-2.71-.99-2.99-1.55-5.14-4.34-5.88-7.62l-.3-1.32c-.05-.2,.08-.4,.28-.44h0l21.48-4.83c.2-.05,.4,.08,.44,.28h0Z"/><path d="M242.65,253.6l.3,1.32c1.23,5.45-1.68,10.98-6.86,13.06-.57,.23-1.15,.41-1.74,.55-.47,.11-.94,.18-1.42,.22-.46,.05-.92,.07-1.38,.05-.53-.01-1.07-.07-1.59-.16-.4-.07-.8-.16-1.19-.27-4.02-1.13-7.1-4.38-8.02-8.46l-.3-1.32c-.04-.2,.08-.4,.28-.44h0l21.48-4.83c.2-.05,.4,.08,.44,.28h0Z"/></g><g><path class="cls-101" d="M236.6,266.97c-.26,.12-.52,.22-.78,.32-1.82,.68-3.8,.92-5.73,.69-.43-.05-.88-.12-1.31-.22-2.08-.47-4.01-1.48-5.59-2.92-1.05-.95-1.91-2.06-2.57-3.3l-3.59,.81c-.25,4.9-3.4,9.25-8.04,10.97-1.82,.68-3.8,.92-5.73,.69-.43-.05-.87-.12-1.31-.22-2.08-.47-4.01-1.48-5.59-2.92-1.89-1.72-3.19-3.94-3.75-6.43l-.3-1.33c-.08-.34-.02-.7,.17-.99,.19-.3,.48-.5,.82-.58l21.56-4.85c.34-.08,.7-.02,1,.17,.26,.17,.45,.41,.55,.7l.03,.12,.08,.36,2.71-.61-.08-.36c-.16-.71,.29-1.41,1-1.58l21.56-4.85c.34-.08,.7-.02,.99,.17,.3,.19,.5,.48,.58,.82l.3,1.34c1.29,5.73-1.69,11.6-6.98,13.99Zm-21.46-6.13l6.54-1.47,.32,.7c.59,1.29,1.42,2.43,2.47,3.38,1.34,1.22,2.97,2.07,4.73,2.47,.36,.08,.73,.14,1.1,.19,1.64,.19,3.32,0,4.86-.58,4.89-1.81,7.72-7.03,6.57-12.12l-.17-.77-20.43,4.6,.37,1.65-6.4,1.44-.37-1.65-20.43,4.6,.17,.77c.47,2.11,1.57,3.99,3.17,5.45,1.34,1.22,2.97,2.07,4.73,2.47,.36,.08,.73,.14,1.1,.18,1.64,.19,3.32,0,4.86-.58,4.14-1.53,6.88-5.53,6.82-9.95v-.77Z"/><path class="cls-64" d="M241.91,251.58l-21.56,4.85c-.2,.05-.33,.24-.28,.44l.29,1.28-4.55,1.02-.29-1.28h0c-.05-.2-.24-.33-.44-.28l-21.56,4.85c-.2,.05-.33,.24-.28,.44l.3,1.33c.51,2.29,1.72,4.36,3.46,5.94,1.46,1.33,3.24,2.26,5.16,2.69,.4,.09,.8,.16,1.21,.2,1.79,.21,3.6,0,5.29-.64,4.6-1.71,7.5-6.11,7.44-10.85l5.04-1.13c.64,1.39,1.55,2.64,2.69,3.68,1.46,1.33,3.24,2.26,5.16,2.69,.4,.09,.8,.16,1.21,.2,1.79,.21,3.6,0,5.29-.64,5.36-1.99,8.42-7.64,7.16-13.21l-.3-1.33h0c-.05-.2-.24-.33-.44-.28Z"/><path class="cls-54" d="M229.36,254.4l-3.09,11.44c-.89-.46-1.71-1.03-2.44-1.7l2.45-9.05,3.09-.7Z"/><path class="cls-54" d="M232.54,253.69l-3.55,13.15c-.51-.12-1.02-.27-1.51-.46l3.33-12.3,1.74-.39Z"/><path class="cls-54" d="M202.53,260.44l-3.09,11.44c-.89-.46-1.71-1.03-2.44-1.7l2.45-9.05,3.09-.7Z"/><path class="cls-54" d="M205.71,259.72l-3.55,13.15c-.51-.12-1.02-.27-1.51-.46l3.33-12.3,1.74-.39Z"/></g></g></svg>