<?xml version="1.0" encoding="UTF-8"?><svg xmlns="http://www.w3.org/2000/svg" xmlns:xlink="http://www.w3.org/1999/xlink" viewBox="0 0 500 500"><defs><style>.cls-1{fill:#8ba5b0;}.cls-2{fill:#ffb300;}.cls-3{fill:#ffd770;}.cls-4{fill:#262626;}.cls-5{fill:#959593;}.cls-6,.cls-7{fill:#fff;}.cls-8{fill:#ac752c;}.cls-9{fill:#faf4e6;}.cls-10{fill:#f9cd6b;}.cls-11{fill:#fabe76;}.cls-12{fill:#b96e14;}.cls-13,.cls-14{isolation:isolate;}.cls-15{opacity:.33;}.cls-16{opacity:.2;}.cls-17{fill:#698e59;}.cls-18,.cls-19{fill:#407035;}.cls-20{fill:#fdfbf5;}.cls-19{opacity:.4;}.cls-21{fill:#f9a948;}.cls-22{fill:#603813;}.cls-23{fill:#ff97b4;}.cls-24{fill:#333;}.cls-25{fill:#e6e6e6;}.cls-26{fill:#f7931e;}.cls-27{fill:#42210b;}.cls-14{opacity:.35;}.cls-14,.cls-28{fill:#4e3f3f;}.cls-29{fill:#5d5360;}.cls-30{fill:#ffd54f;}.cls-31{fill:#f7931a;}.cls-32{fill:#3a1616;}.cls-33{fill:#7d551f;}.cls-34{clip-path:url(#clippath);}.cls-7{opacity:.22;}.cls-35{fill:none;}.cls-36{fill:#a16552;}.cls-37{fill:#ccc;}.cls-38{fill:#f5dcb4;}.cls-39{fill:#c7c7c4;}.cls-40{fill:#22b322;}.cls-41{fill:#794c3e;}.cls-42{fill:#1a1a1a;}.cls-43{fill:#353535;opacity:.1;}.cls-44{fill:#e1f4fd;}.cls-45{fill:url(#Naamloos_verloop_9);mix-blend-mode:multiply;opacity:.19;}.cls-46{fill:#f3fbfe;}.cls-47{fill:#f2f2f2;}.cls-48{fill:#dddddc;}.cls-49{fill:#9b6151;}.cls-50{fill:#ffca28;}.cls-51{fill:#ffea8c;}</style><linearGradient id="Naamloos_verloop_9" x1="161.49" y1="464.85" x2="147.06" y2="423.84" gradientTransform="matrix(1, 0, 0, 1, 0, 0)" gradientUnits="userSpaceOnUse"><stop offset="0" stop-color="#575756"/><stop offset="1" stop-color="#3c3c3b"/></linearGradient><clipPath id="clippath"><path class="cls-35" d="M145.59,165.68l-.13,.2,1.88-3.05c-2.14-3.3-5.08-8.09-5.08-8.09h-.41c-.37,0-3.16,4.86-5.06,7.88l2.96,3.92-1.2,18.28c2.24,4.22,5.28,9.46,7.72,13.6,1.21-3.39,2.95-8.44,4.45-13.4-1.47-5.73-3.89-14.71-5.14-19.34Z"/></clipPath></defs><g class="cls-13"><g id="Laag_1"><ellipse class="cls-5" cx="174" cy="449.12" rx="135.17" ry="42.11"/><g><path class="cls-48" d="M157.58,475.21H89.06c22.76,5.72,52.45,9.18,84.94,9.18,2.25,0,4.49-.02,6.71-.05l-5.53-2.18-17.6-6.95Z"/><path class="cls-48" d="M44.44,448.83c.15,.82,.4,1.63,.72,2.43h5.43l-6.15-2.43Z"/><path class="cls-48" d="M275.56,428.37h11.59c-7.67-3.95-17.74-7.46-29.63-10.37h-8.24l26.27,10.37Z"/><path class="cls-48" d="M91.61,467.44l-9.3-3.67h-24.09c6.82,3.89,15.9,7.4,26.76,10.37h23.61l-16.97-6.7Z"/><path class="cls-48" d="M299.5,456.36c1.19-1.32,2.15-2.66,2.85-4.03h-13.07l10.22,4.03Z"/><path class="cls-48" d="M257.15,440.89h-43.14l26.27,10.37h62.56c.6-1.47,.92-2.96,.92-4.47,0-2-.55-3.97-1.59-5.89h-45.02Z"/><path class="cls-48" d="M82.72,462.7h43.14l-13.45-5.31-12.82-5.06H45.66c1.86,3.65,5.54,7.13,10.76,10.37h26.31Z"/><path class="cls-48" d="M275.16,429.45h-43.87l26.27,10.37h43.96c-2.37-3.67-6.58-7.15-12.35-10.37h-14.01Z"/><path class="cls-48" d="M76.3,424.59l-3.45-1.36c-4.47,1.61-8.49,3.33-12.01,5.14h25.03l-9.58-3.78Z"/><path class="cls-48" d="M243.44,416.93h9.48c-20.38-4.53-45.53-7.35-72.9-7.72l19.55,7.72h43.87Z"/><path class="cls-48" d="M54.41,434.5l-2.07-.82c-2.53,1.97-4.5,4.02-5.86,6.13h21.39l-13.46-5.31Z"/><path class="cls-48" d="M96.87,451.25h47l-26.27-10.37H45.84c-1.04,1.92-1.59,3.89-1.59,5.89,0,.25,.02,.5,.03,.74l9.45,3.73h43.14Z"/><path class="cls-48" d="M71.01,439.81h90.14l-8.52-3.36-17.75-7H58.83c-1.99,1.11-3.8,2.25-5.41,3.42l4.16,1.64,13.43,5.3Z"/><path class="cls-48" d="M150.16,416.93h46.27l-19.63-7.75c-.93,0-1.87-.01-2.8-.01-26.45,0-51.05,2.3-71.56,6.24l3.86,1.52h43.87Z"/><path class="cls-48" d="M100.34,415.82c-1.79,.36-3.54,.73-5.26,1.11h8.08l-2.82-1.11Z"/><path class="cls-48" d="M135.29,428.37h43.87l-21.17-8.35-5.1-2.01h-62.42c-5.77,1.41-11.12,2.96-15.97,4.64l14.51,5.73h46.27Z"/><path class="cls-48" d="M224.99,463.77h-46.27l26.27,10.37h58.04c6.44-1.76,12.26-3.71,17.35-5.82l-11.52-4.55h-43.87Z"/><polygon class="cls-48" points="210.87 440.89 167.01 440.89 163.87 440.89 163.87 440.89 120.73 440.89 147 451.25 193.27 451.25 237.14 451.25 210.87 440.89"/><path class="cls-48" d="M196,452.33l26.27,10.37h69.32c2.81-1.74,5.18-3.56,7.05-5.43l-12.5-4.93h-90.14Z"/><path class="cls-48" d="M207.71,475.21h-47l14.91,5.88,8.08,3.19c26.37-.57,50.55-3.41,70.19-7.87l-3.05-1.2h-43.14Z"/><polygon class="cls-48" points="185.01 429.45 181.88 429.45 138.02 429.45 164.28 439.81 208.15 439.81 211.28 439.81 254.42 439.81 228.16 429.45 185.01 429.45"/><path class="cls-48" d="M255.87,475.96c1.03-.24,2.06-.49,3.06-.74h-4.94l1.88,.74Z"/><polygon class="cls-48" points="175.99 462.7 219.13 462.7 201.47 455.73 192.86 452.33 149.72 452.33 146.59 452.33 102.73 452.33 124.59 460.96 129 462.7 172.86 462.7 175.99 462.7"/><polygon class="cls-48" points="272.43 428.37 246.16 418.01 202.3 418.01 199.16 418.01 156.02 418.01 159.03 419.19 182.29 428.37 272.43 428.37"/><polygon class="cls-48" points="175.58 463.77 131.72 463.77 128.59 463.77 85.45 463.77 96.89 468.28 111.72 474.14 154.86 474.14 157.99 474.14 201.85 474.14 175.58 463.77"/><path class="cls-48" d="M277.05,465.76l4.85,1.91c2.89-1.25,5.53-2.55,7.89-3.91h-17.79l5.05,1.99Z"/><polygon class="cls-39" points="106.3 416.93 102.44 415.41 102.44 415.41 106.29 416.93 106.3 416.93"/><path class="cls-39" d="M199.57,416.93h0l-19.55-7.72c-1.07-.01-2.14-.02-3.22-.03l19.63,7.75h3.13Z"/><path class="cls-39" d="M106.29,416.93l-3.86-1.52c-.7,.13-1.4,.27-2.09,.41l2.82,1.11h3.13Z"/><rect class="cls-39" x="259.3" y="409.07" width="0" height="28.24" transform="translate(-229.53 509.05) rotate(-68.47)"/><path class="cls-39" d="M275.57,428.37h0l-26.27-10.37h8.24c-1.51-.37-3.05-.73-4.61-1.07h-6.35l28.99,11.44Z"/><polygon class="cls-39" points="157.99 420.02 179.15 428.37 179.16 428.37 157.99 420.02"/><polygon class="cls-39" points="228.57 428.37 275.57 428.37 246.57 416.93 243.44 416.93 199.57 416.93 199.57 416.93 196.44 416.93 153.3 416.93 156.02 418.01 199.16 418.01 202.3 418.01 246.16 418.01 246.16 418.01 272.43 428.37 272.43 428.37 182.29 428.37 159.03 419.19 182.29 428.37 225.43 428.37 228.57 428.37"/><polygon class="cls-39" points="89.01 428.37 74.5 422.64 74.5 422.65 89.01 428.37 89.01 428.37"/><polygon class="cls-39" points="85.88 428.37 85.88 428.37 76.3 424.59 85.88 428.37"/><path class="cls-39" d="M105.89,418.01h47l5.1,2.01,21.17,8.35h3.13l-23.26-9.18-3.01-1.19-2.72-1.07h-58.22c-1.57,.35-3.1,.71-4.61,1.07h15.42Z"/><path class="cls-39" d="M85.88,428.37h3.13l-14.51-5.72c-.56,.19-1.11,.39-1.65,.58l3.45,1.36,9.58,3.78Z"/><rect class="cls-39" x="241.29" y="420.51" width="0" height="28.24" transform="translate(-251.57 499.53) rotate(-68.46)"/><path class="cls-39" d="M228.57,428.37l28.99,11.44h0l-26.27-10.37h57.88c-.65-.36-1.32-.72-2.01-1.07h-58.6Z"/><polygon class="cls-39" points="152.62 436.45 161.14 439.81 161.15 439.81 152.62 436.45"/><polygon class="cls-39" points="138.02 429.45 181.88 429.45 185.01 429.45 228.16 429.45 228.16 429.45 254.42 439.81 257.55 439.81 228.57 428.37 225.43 428.37 182.29 428.37 135.29 428.37 164.28 439.81 164.28 439.81 138.02 429.45"/><polygon class="cls-39" points="67.87 439.81 67.87 439.81 54.41 434.5 67.87 439.81"/><polygon class="cls-39" points="71.01 439.81 71.01 439.81 57.58 434.51 71.01 439.81"/><path class="cls-39" d="M91.74,429.45h43.14l17.75,7,8.52,3.36h3.13l-28.99-11.44H60.84c-.69,.35-1.36,.71-2.01,1.07h32.9Z"/><path class="cls-39" d="M67.87,439.81h3.13l-13.43-5.3-4.16-1.64c-.37,.27-.73,.54-1.08,.81l2.07,.82,13.46,5.31Z"/><polygon class="cls-39" points="240.28 451.26 283.42 451.26 286.55 451.26 302.84 451.26 302.84 451.25 240.28 451.25 240.28 451.26"/><path class="cls-39" d="M257.56,439.81h-46.27l2.73,1.08h88.15c-.2-.36-.41-.72-.64-1.08h-43.96Z"/><polygon class="cls-39" points="120.73 440.89 163.87 440.89 163.87 440.89 167.01 440.89 210.87 440.89 237.14 451.25 193.27 451.25 193.28 451.26 240.28 451.26 240.28 451.25 214.01 440.89 211.28 439.81 208.15 439.81 164.28 439.81 164.28 439.81 161.15 439.81 161.14 439.81 118 439.81 147 451.25 147 451.25 120.73 440.89"/><path class="cls-39" d="M73.73,440.89h43.86l26.27,10.37h3.13l-28.99-11.44H46.48c-.23,.36-.45,.72-.64,1.08h27.9Z"/><path class="cls-39" d="M53.73,451.25h0l-9.45-3.73c.03,.44,.08,.87,.16,1.3l6.15,2.43h3.13Z"/><rect class="cls-39" x="292.39" y="448.08" width="0" height="13.44" transform="translate(-237.98 559.85) rotate(-68.47)"/><path class="cls-39" d="M299.5,456.36h0l-10.22-4.03h13.07c.18-.36,.34-.71,.49-1.07h-16.28l12.94,5.11Z"/><polygon class="cls-39" points="192.86 452.33 201.47 455.73 192.86 452.33 192.86 452.33"/><path class="cls-39" d="M286.55,451.26h-93.28l28.99,11.44h0l-26.27-10.37h90.14l12.5,4.93c.3-.3,.58-.6,.86-.9l-12.94-5.11Z"/><polygon class="cls-39" points="99.59 452.33 112.41 457.39 99.59 452.33 99.59 452.33"/><polygon class="cls-39" points="146.59 452.33 149.72 452.33 192.86 452.33 192.86 452.33 201.47 455.73 219.13 462.7 222.27 462.7 193.28 451.26 193.27 451.25 147 451.25 147 451.25 143.87 451.25 100 451.25 124.59 460.96 102.73 452.33 146.59 452.33"/><path class="cls-39" d="M56.45,452.33h43.14l12.82,5.06,13.45,5.31h3.13l-4.41-1.74-24.59-9.7H45.17c.15,.36,.31,.72,.49,1.07h10.79Z"/><path class="cls-39" d="M277.05,465.76l-5.05-1.99h17.79c.62-.35,1.22-.71,1.8-1.07h-22.32l7.77,3.07Z"/><path class="cls-39" d="M269.27,462.7h-93.28l29,11.44h0l-26.27-10.37h90.14l11.52,4.55c.51-.21,1.02-.42,1.51-.64l-4.85-1.91-7.77-3.07Z"/><polygon class="cls-39" points="82.31 463.77 91.61 467.44 82.31 463.77 82.31 463.77"/><polygon class="cls-39" points="128.59 463.77 131.72 463.77 175.58 463.77 201.85 474.14 204.99 474.14 175.99 462.7 172.86 462.7 129 462.7 129 462.7 125.86 462.7 82.72 462.7 96.89 468.28 85.45 463.77 128.59 463.77"/><path class="cls-39" d="M82.31,463.77l9.3,3.67,16.97,6.7h3.13l-14.83-5.85-14.17-5.59h-26.31c.58,.36,1.18,.72,1.8,1.07h24.09Z"/><path class="cls-39" d="M255.87,475.96h0l-1.88-.74h4.94c1.39-.35,2.76-.71,4.1-1.08h-11.77l4.61,1.82Z"/><polygon class="cls-39" points="157.58 475.21 157.58 475.21 175.18 482.16 157.58 475.21"/><path class="cls-39" d="M251.26,474.14h-93.27l17.63,6.96-14.91-5.88h90.14l3.05,1.2c.66-.15,1.32-.3,1.97-.46l-4.61-1.82Z"/><path class="cls-39" d="M183.7,484.28l-8.08-3.19-17.63-6.96H84.97c1.34,.37,2.7,.73,4.09,1.07h68.52l17.6,6.95,5.53,2.18c1-.01,2-.03,3-.06Z"/></g><g><g><path class="cls-43" d="M265.16,440.9c0,1.13-4.94,2.04-11.04,2.04s-11.04-.92-11.04-2.04,4.94-2.05,11.04-2.05,11.04,.91,11.04,2.05Z"/><path class="cls-43" d="M262.04,440.49c0,.9-3.54,1.63-7.92,1.63s-7.92-.73-7.92-1.63,3.55-1.63,7.92-1.63,7.92,.73,7.92,1.63Z"/><path class="cls-17" d="M248.96,439.99c.21-2.3-2.04-8.05-11.04-8.24,0,0,10.03-2.17,13.01,3.55,0,0-1.36-9.26-14.33-9.99,0,0,13.85-.89,16.35,8.08,.66,2.36,.85,3.47,.85,3.47,0,0-1.81-13.25,1.18-13.75,0,0-.72,8.9,1.49,10.28,0,0-.28-6.28,5.3-6.64,0,0-4.41,4.6-3.47,9.75,0,0-.39-3.43,5.51-5.23,0,0-5.12,4.29-4.91,9.23,0,0-10.12,1.37-9.94-.51Z"/><path class="cls-18" d="M258.9,440.5c-2.12,.3-4.25,.53-6.39,.57-.54,0-1.07,0-1.61-.04-.54-.05-1.08-.11-1.6-.36-.13-.07-.25-.16-.36-.29-.04-.07-.09-.15-.1-.23,0-.09-.02-.17-.01-.23v-.4l-.04-.38c-.07-.51-.21-1.02-.42-1.5-.2-.48-.45-.95-.75-1.38-.29-.44-.64-.83-1-1.2-.19-.18-.38-.36-.58-.53l-.63-.48c-.21-.16-.44-.27-.67-.42-.22-.14-.45-.26-.7-.37-.24-.11-.47-.23-.72-.33l-.75-.26c-.49-.19-1.02-.27-1.53-.41-.52-.1-1.04-.16-1.56-.24l-1.58-.09-1.64-.1,1.6-.32c1.2-.24,2.4-.36,3.61-.41,1.21-.04,2.43,.03,3.63,.24,1.2,.22,2.39,.57,3.45,1.2,.27,.15,.52,.33,.77,.52,.25,.19,.47,.4,.69,.62,.21,.23,.42,.46,.59,.71,.19,.24,.33,.52,.49,.79l-.36,.12c-.07-.36-.16-.74-.29-1.1-.11-.37-.28-.72-.42-1.08-.18-.34-.33-.7-.54-1.03-.19-.33-.4-.66-.63-.97l-.34-.47-.39-.44-.39-.44c-.13-.14-.28-.26-.42-.4-.29-.26-.56-.54-.88-.75-.32-.22-.62-.47-.95-.68l-1.01-.58c-.33-.21-.71-.33-1.06-.5-.36-.15-.71-.34-1.08-.44l-1.11-.36c-.37-.14-.76-.18-1.14-.28l-1.15-.25-2.33-.28,2.34,.21,1.16,.21c.38,.08,.78,.12,1.15,.24l1.14,.33c.38,.09,.74,.27,1.11,.41,.36,.16,.74,.28,1.08,.48l1.04,.58c.34,.2,.65,.45,.98,.68,.34,.21,.62,.5,.92,.76,.15,.13,.3,.26,.44,.4l.4,.44,.4,.44,.36,.48c.25,.31,.46,.65,.67,.99,.22,.33,.38,.7,.57,1.05,.16,.37,.33,.73,.45,1.11,.14,.38,.24,.76,.32,1.17l.21,1.06-.57-.94c-.15-.25-.29-.51-.47-.74-.16-.24-.36-.45-.56-.67-.21-.2-.42-.4-.65-.57-.23-.18-.47-.34-.73-.49-1.01-.59-2.16-.93-3.32-1.14-1.16-.2-2.36-.25-3.54-.21-1.18,.04-2.38,.16-3.53,.38l-.04-.42,1.62,.1c.53,.08,1.07,.15,1.6,.25,.52,.14,1.06,.22,1.57,.42l.77,.27c.25,.1,.49,.23,.74,.34,.25,.11,.49,.23,.72,.39,.23,.15,.47,.27,.69,.44l.65,.5c.21,.18,.4,.37,.6,.56,.38,.39,.73,.81,1.03,1.27,.31,.45,.56,.94,.76,1.45,.2,.51,.35,1.04,.41,1.59l.04,.42v.4c-.02,.15,0,.21,.05,.3,.06,.08,.16,.15,.26,.21,.45,.22,.98,.3,1.51,.35,.53,.05,1.06,.08,1.59,.08,2.13,.02,4.27-.15,6.39-.39Z"/><path class="cls-18" d="M263.81,431.27s-.11,.12-.32,.34c-.2,.21-.47,.54-.8,.92-.32,.38-.69,.84-1.05,1.35-.19,.25-.36,.52-.55,.79-.19,.27-.35,.56-.53,.84-.16,.29-.33,.58-.47,.87-.13,.3-.3,.58-.4,.87-.1,.29-.25,.56-.32,.84-.08,.27-.18,.53-.22,.77-.05,.24-.1,.47-.14,.67-.04,.2-.04,.38-.06,.52-.03,.29-.05,.46-.05,.46,0,0-.01-.17-.03-.46,0-.15-.03-.33-.02-.54,.01-.21,.03-.44,.06-.7,.02-.26,.1-.52,.16-.81,.05-.29,.17-.58,.26-.89,.1-.31,.25-.61,.38-.92,.14-.3,.31-.6,.48-.9,.19-.28,.36-.58,.56-.85,.19-.27,.39-.54,.6-.78,.4-.5,.82-.92,1.18-1.28,.73-.71,1.3-1.09,1.3-1.09Z"/><path class="cls-18" d="M258.22,435.99c.05,.17,.09,.33,.13,.5h-.11c-.05-.34-.02-.69,.06-1.03,.07-.35,.22-.67,.37-.99l.28-.45,.33-.41c.24-.25,.48-.51,.77-.72,.27-.23,.57-.41,.86-.59,.15-.09,.31-.16,.46-.24,.16-.08,.31-.15,.47-.22l.48-.18c.16-.05,.32-.12,.49-.16,.33-.08,.66-.17,1-.23-.31,.15-.62,.28-.93,.43l-.9,.45-.43,.25c-.14,.09-.29,.16-.43,.25-.27,.19-.56,.36-.8,.58-.12,.11-.26,.2-.37,.32-.12,.12-.24,.22-.35,.34l-.32,.37-.28,.4c-.17,.28-.33,.57-.43,.87-.11,.31-.2,.63-.21,.96h-.11c-.01-.16-.02-.33-.02-.5Z"/><path class="cls-18" d="M261.77,426.75s-.39,.51-.9,1.31c-.26,.4-.54,.87-.82,1.39-.28,.52-.56,1.08-.8,1.66-.11,.29-.25,.58-.33,.87-.09,.29-.2,.58-.27,.86-.07,.28-.16,.56-.2,.82-.05,.26-.11,.51-.12,.75-.02,.23-.05,.45-.07,.64,0,.19,0,.36-.01,.5-.01,.28-.02,.44-.02,.44,0,0-.02-.16-.07-.44-.02-.14-.04-.31-.07-.5,0-.2-.01-.42-.01-.66-.01-.24,.03-.5,.05-.78,.02-.28,.07-.57,.14-.86,.06-.3,.14-.6,.24-.9,.08-.31,.22-.6,.33-.91,.26-.59,.55-1.17,.87-1.68,.31-.52,.66-.96,.96-1.34,.61-.75,1.1-1.16,1.1-1.16Z"/><path class="cls-18" d="M256.11,433.07c.12,.11,.25,.2,.38,.28l-.07,.04c-.04-.4-.05-.8-.01-1.2,.03-.4,.08-.8,.17-1.19,.04-.2,.1-.39,.16-.59,.05-.19,.12-.39,.21-.57,.08-.19,.16-.38,.27-.55,.11-.17,.19-.37,.32-.52,.13-.16,.25-.33,.38-.48l.45-.43c.15-.14,.33-.24,.5-.36,.16-.13,.35-.21,.54-.29,.19-.07,.37-.18,.57-.22l.59-.14c.19-.05,.4-.05,.6-.07,.2-.01,.4-.02,.6-.02-.19,.05-.39,.1-.58,.14-.19,.04-.39,.07-.56,.15l-.55,.2c-.18,.06-.34,.18-.51,.26l-.25,.14-.23,.17c-.15,.12-.31,.22-.44,.35l-.4,.4c-.12,.14-.23,.3-.34,.45-.12,.15-.2,.32-.3,.48-.1,.16-.18,.34-.26,.51-.08,.17-.16,.35-.22,.53-.07,.18-.13,.36-.18,.55-.12,.37-.21,.75-.28,1.13-.06,.38-.13,.77-.15,1.16v.09l-.07-.05c-.13-.11-.24-.22-.33-.36Z"/><path class="cls-18" d="M254.97,423.22s.02,.63,.05,1.57c.01,.47,.03,1.02,.05,1.61,.02,.59,.04,1.21,.08,1.84,.03,.62,.09,1.24,.15,1.82,.08,.58,.14,1.12,.26,1.57,.07,.22,.1,.44,.17,.61,.07,.17,.11,.34,.18,.45,.13,.24,.21,.38,.21,.38,0,0-.1-.12-.28-.33-.09-.11-.16-.26-.26-.43-.11-.17-.17-.38-.26-.6-.09-.22-.14-.48-.23-.74-.07-.27-.13-.55-.18-.84-.04-.29-.1-.6-.12-.91-.03-.31-.06-.63-.08-.94-.04-.63-.04-1.27-.03-1.86,.01-.59,.06-1.14,.09-1.62,.09-.94,.2-1.57,.2-1.57Z"/><path class="cls-18" d="M253.64,436.1l.2,.74-.09,.02c-.23-1.18-.37-2.37-.51-3.56-.11-1.19-.19-2.39-.2-3.59,0-1.2,.03-2.41,.22-3.61,.05-.3,.11-.6,.18-.89,.07-.29,.16-.59,.28-.87,.11-.28,.28-.55,.47-.79,.21-.23,.48-.41,.78-.45h0l-.02,.13v-.12h.01c-.29,.09-.52,.28-.69,.52-.16,.24-.28,.51-.36,.79-.09,.28-.16,.56-.21,.85-.06,.29-.09,.58-.12,.88-.12,1.18-.13,2.37-.12,3.56,.02,1.19,.07,2.38,.14,3.57,.05,1.19,.15,2.38,.23,3.58l-.09,.02-.11-.76Z"/><path class="cls-18" d="M236.6,425.3s1.4-.17,3.51-.04c1.05,.07,2.29,.2,3.58,.49,1.29,.29,2.66,.71,3.94,1.33,.64,.31,1.25,.69,1.82,1.09,.56,.43,1.1,.87,1.54,1.37,.24,.24,.43,.51,.63,.76,.18,.27,.36,.53,.51,.8,.3,.54,.53,1.07,.7,1.57,.08,.26,.16,.5,.22,.73,.05,.23,.1,.46,.14,.67,.09,.42,.17,.78,.24,1.08,.13,.6,.2,.94,.2,.94,0,0-.1-.34-.28-.92-.09-.29-.19-.65-.31-1.06-.11-.42-.26-.87-.44-1.36-.19-.48-.44-.99-.74-1.49-.32-.5-.7-.99-1.14-1.46-.43-.48-.96-.89-1.5-1.3-.56-.38-1.15-.74-1.78-1.03-1.24-.62-2.57-1.05-3.83-1.35-1.27-.3-2.48-.5-3.52-.61-2.08-.23-3.49-.21-3.49-.21Z"/></g><path class="cls-19" d="M248.96,439.99c-.18,1.88,9.94,.51,9.94,.51-.21-4.93,4.91-9.23,4.91-9.23-1.97,.79-3.16,2.86-4.03,4.4-.87,1.53-1.47,1.95-1.6,1.18-.13-.71-.12-1.37,0-1.97,.09-4.46,3.6-8.12,3.6-8.12-.02,0-.04,0-.07,0-1.42,.76-2.98,2.78-3.3,4.19-.5,2.21-1.74,6.63-3.44,5.46-1.7-1.18-1.15-7.08-1.15-8.99,0-1.47,.62-3.4,.91-4.23-2.07,.94-1.46,8.83-1.11,12.17,.11,.5,.21,.92,.29,1.23,.55,2.12-1.51,4.36-1.15,1.95,.37-2.42-2.2-8.4-6.37-11.09-2.64-1.7-6.84-2.07-9.59-2.12,12.77,.82,14.12,9.98,14.12,9.98-.09-.17-.19-.34-.29-.5,.88,1.95-.01,2.95-1.22,1.01-1.15-1.85-4.09-2.99-7.7-3.59,5.85,1.46,7.42,5.83,7.24,7.76Z"/></g></g><g id="Laag_2"><ellipse class="cls-45" cx="153.79" cy="442.96" rx="67.38" ry="15.16"/><g><path class="cls-4" d="M171.65,159.6s10.39,4.44,13.65,8.6,12.71,23.6,12.71,23.6l-10.92,10.72-17.2-29.6,1.75-13.31Z"/><g><path class="cls-36" d="M153.75,290.2c-.35-2.65-1.14-5.39-2.37-8.2-1.11-2.53-4.06-3.69-6.59-2.58-2.53,1.11-3.69,4.06-2.58,6.59,2.88,6.57,2.26,11.5-2.08,16.46-4.35,4.98-11.76,9.12-18.93,13.13-10.62,5.94-20.65,11.55-23.22,20.74-1.27,4.53-.5,9.33,2.29,14.27,4.23,7.48,6.72,15.38,7.2,22.85,.47,7.16-.96,13.27-4.12,17.67-6.16,8.56-17.46,8.42-25.86,6.8-2.71-.52-5.34,1.25-5.86,3.96-.53,2.71,1.25,5.34,3.96,5.86,8.11,1.57,15.34,1.39,21.5-.54,6-1.88,10.84-5.32,14.38-10.24,4.54-6.3,6.61-14.66,5.99-24.17-.58-8.97-3.52-18.35-8.48-27.13-1.45-2.57-1.9-4.75-1.37-6.65,1.45-5.19,10.1-10.03,18.47-14.71,7.91-4.43,16.09-9,21.58-15.28,4.96-5.68,6.99-11.99,6.08-18.86Z"/><path class="cls-14" d="M75.59,407.77c-1.12-.22-2.08-.79-2.78-1.59,6.97,1.02,14.42,1.09,19.86-.61,6-1.88,10.84-5.32,14.38-10.24,4.54-6.3,6.61-14.66,5.99-24.17-.58-8.97-3.52-18.35-8.48-27.13-1.45-2.57-1.9-4.75-1.37-6.65,1.45-5.19,8.93-10.43,17.3-15.11,7.91-4.43,16.09-9,21.58-15.28,4.96-5.68,6.99-11.99,6.08-18.86-.35-2.65-1.14-5.39-2.37-8.2-.11-.26-.25-.5-.4-.73,2.38-.71,4.98,.45,6,2.79,1.23,2.81,2.02,5.55,2.37,8.2,.91,6.86-1.13,13.18-6.08,18.86-5.49,6.28-13.67,10.86-21.58,15.28-8.37,4.68-17.02,9.52-18.47,14.71-.53,1.9-.09,4.08,1.37,6.65,4.96,8.78,7.89,18.16,8.48,27.13,.62,9.51-1.45,17.86-5.99,24.17-3.54,4.92-8.38,8.36-14.38,10.24-6.16,1.93-13.4,2.11-21.5,.54Z"/><rect class="cls-41" x="131.31" y="148.94" width="19.48" height="8.35" transform="translate(282.1 306.24) rotate(-180)"/><path class="cls-47" d="M122.55,153.72l1.74-.97,2.41-7.24,12.52,9.24h3.04l8.68-3.73,3.99,4.39,1.93,.74c-.58,3.77-2.29,14.39-4.31,22.4-1.66,6.56-4.53,14.96-6.28,19.88-2.79-4.72-6.34-10.88-8.61-15.31-3.67-7.16-12.86-25.03-15.11-29.4Z"/><path class="cls-25" d="M135.79,171.97c0-1.42-1.37-3.49-2.13-4.09-.76-.6-7.36-12.82-7.36-12.82l15.08,6.72,12.38-6.72s-3.79,15.95-2.11,16.91c.52,.3,1.65-.94,2.95-2.78-.61,3.16-1.31,6.43-2.05,9.36-1.66,6.56-4.53,14.96-6.28,19.88-2.79-4.72-6.34-10.88-8.61-15.31-1.09-2.13-2.68-5.22-4.42-8.61,3.76,.78,2.55-1.32,2.55-2.54Z"/><path class="cls-24" d="M150.44,205.39s-13.46-17.9-19.51-27.99c-6.05-10.09-11.18-22.66-11.18-22.66,0,0-13.8,5.14-14.38,6.66-.59,1.52-3.51,16.56,1.37,35.03,4.88,18.47,16,53.12,15.41,58.07-.58,4.95-3.32,16.51-3.32,16.51,0,0,7.41,4.19,12.68,5.14,5.27,.95,9.06,0,9.06,0l13.18-19.99s-.39-15.36-1.56-28.5c-1.17-13.14-1.76-22.28-1.76-22.28Z"/><path class="cls-24" d="M152.19,227.67c-1.17-13.14-1.76-22.28-1.76-22.28,0,0-1.7-2.26-4.16-5.63,2.28-4.25,6.65-12.47,9.43-18.17,3.9-8,5.73-25.32,5.73-25.32,0,0,9.88,3.38,10.66,4.36,.78,.98,1.17,5.55,1.17,5.55,1.76,14.66,2.34,27.99,1.17,38.65-1.17,10.66-1.93,31.04-.28,38.27,1.65,7.24,7.5,22.79,7.5,22.79,0,0-5.27,5.9-11.71,8-6.44,2.09-13.46,2.28-13.46,2.28l-5.77-15.38,3.04-4.61s-.39-15.36-1.56-28.5Z"/><path class="cls-4" d="M109.64,423.12s1.36-46.29,1.94-52.19c.58-5.9,5.03-23.87,6-29.11,.97-5.24-2.11-38.43-2.31-41.66-.19-3.24-1.94-12-1.94-12,0,0,3.08-11.03,7.31-16.53,2.25,1.19,7.48,3.81,11.47,4.54,5.23,.95,8.99,0,8.99,0l13.08-19.99-3.02,4.61,5.73,15.38s6.97-.19,13.36-2.28c4.95-1.62,9.2-5.53,10.86-7.2,1.64,5.25,5.3,17.18,5.6,20.05,.39,3.71-.89,33.66-1.95,40.52-1.06,6.85-2.33,14.57-2.52,18.18-.19,3.62-1.74,60.26-1.26,65.21,.48,4.95,8.04,19.61,7.74,20.09-.29,.48-2.89,2.28-2.89,2.28,0,0-.88-1.71-1.66-1.71s-10.74,1.33-15.68,2.67c-4.94,1.33-11.13,2.95-11.13,2.95,0,0-.29-13.8-.39-15.9-.1-2.09-3.2-32.65-3.78-39.79-.58-7.14,1.26-15.1,1.55-16.34,.29-1.24,.39-11.23,1.06-12.28,.68-1.05,1.36-8.13,1.36-8.13,0,0-1.54-11.16-1.93-18.01-.39-6.85-2.02-36.78-2.6-36.59-.58,.19-1.45,1.05-1.94,4.28-.48,3.24-7.66,44.14-8.53,49.28-.87,5.14-1.55,8.66-2.42,12.09-.87,3.43-1.84,16.09-2.61,25.89-.77,9.81-2.32,26.94-1.94,32.08,.39,5.14-.29,19.42,.48,20.85,.77,1.43-2.9,2.57-2.9,2.57,0,0,0-2.86-3.87-5.62-3.87-2.76-18.39,4-18.39,4,0,0-1.94-6.09-1.94-7.62s1.06-4.57,1.06-4.57Z"/><path class="cls-24" d="M186.91,430.73c.29-.48-7.26-15.14-7.74-20.09-.48-4.95,1.06-61.59,1.26-65.21,.19-3.62,1.45-11.33,2.52-18.18,1.07-6.86,2.34-36.81,1.95-40.52-.28-2.65-3.41-13.01-5.18-18.72,.57-.52,1.05-.98,1.4-1.33,1.64,5.25,5.3,17.18,5.6,20.05,.39,3.71-.89,33.66-1.95,40.52-1.06,6.85-2.33,14.57-2.52,18.18-.19,3.62-1.74,60.26-1.26,65.21,.48,4.95,8.04,19.61,7.74,20.09-.29,.48-2.89,2.28-2.89,2.28,0,0-.24-.45-.57-.9,.71-.53,1.5-1.14,1.65-1.39Z"/><path class="cls-24" d="M133.87,434.35c-.77-1.43-.1-15.71-.48-20.85-.39-5.14,1.16-22.28,1.94-32.08,.77-9.8,1.74-22.47,2.61-25.89,.87-3.43,1.55-6.95,2.42-12.09,.87-5.14,8.05-46.04,8.53-49.28,.49-3.24,1.36-4.09,1.94-4.28,.09-.03,.17,.9,.24,2.51-.13,.5-.26,1.08-.36,1.78-.48,3.24-7.66,44.14-8.53,49.28-.87,5.14-1.55,8.66-2.42,12.09-.87,3.43-1.84,16.09-2.61,25.89-.77,9.81-2.32,26.94-1.94,32.08,.39,5.14-.29,19.42,.48,20.85,.77,1.43-2.9,2.57-2.9,2.57,0,0,0-.27-.11-.73,.84-.47,1.6-1.12,1.2-1.84Z"/><path class="cls-40" d="M130.71,276.16c-3.29-.61-7.43-2.54-9.99-3.85,.16-.23,.32-.46,.49-.68,2.21,1.19,7.35,3.81,11.28,4.54,1.33,.25,2.57,.36,3.67,.4-1.47,.05-3.34-.01-5.46-.4Z"/><path class="cls-40" d="M149.55,262.55l4.21-6.38-3.04,4.61,5.73,15.27c-1.12,.09-1.79,.11-1.79,.11l-5.11-13.61Z"/><path class="cls-23" d="M156.95,276.16l-.04-.11c2.42-.19,7.01-.73,11.32-2.18,4.84-1.62,8.99-5.53,10.62-7.2,.12,.41,.26,.86,.41,1.33-2.06,1.9-5.44,4.59-9.25,5.87-6.25,2.09-13.06,2.28-13.06,2.28Z"/><path class="cls-22" d="M184.2,431.32c.52,.83,1.09,1.71,1.43,2.11,.73,.86,12.85,3.57,14.59,4.57,1.74,1,4.57,5.07,4.57,5.07,0,0-9.73,2.86-16.7,1.67-7.11-1.21-6.17-1.53-13-2.31-6.82-.79-16.12,1.5-16.05-.71,.04-1.05,.38-3.3,.74-5.36,2.25-.59,5.83-1.54,8.92-2.37,4.69-1.27,13.92-2.53,15.48-2.65Z"/><path class="cls-32" d="M159.06,441.71c0-.18,.02-.39,.04-.63l.14,1.07c-.11-.12-.19-.27-.18-.45Z"/><path class="cls-32" d="M159.08,440.88h.05c0,.07-.01,.13-.02,.2l-.03-.2Z"/><path class="cls-27" d="M169.52,442.3v2.37s-1.38,.14-5.37,0c-3.99-.14-4.65-.57-4.65-.57l-.25-1.95c.91,1.01,5.45,.34,10.27,.15Z"/><path class="cls-22" d="M129.13,431.31c3.87,2.76,3.87,5.62,3.87,5.62,0,0,.02,0,.04-.01,.29,2.44,.54,5.01,.39,5.58-.29,1.15-2.25,4.07-5.59,6.22-3.34,2.14-17.35-6.07-17.35-7.21,0-.76,.26-4.12,.43-6.27,1.69-.77,14.59-6.49,18.21-3.91Z"/><path class="cls-25" d="M141.85,154.75c-.54,0-6.2,10.28-6.78,10.23-.59-.05-5.41-5-7.76-7.9-2.34-2.9-2.98-4.48-2.98-4.48l2.34-7.47s4.36,3.58,7.36,5.79c3,2.22,7.82,3.82,7.82,3.82Z"/><path class="cls-25" d="M142.26,154.75s6.86,11.19,7.25,11.14c.39-.05,2.63-4.76,3.8-7.23,1.17-2.48,1.76-3.59,1.76-3.59l-3.83-4.87s-4.85,2.79-6.23,3.38c-1.37,.59-2.76,1.19-2.76,1.19Z"/><path class="cls-26" d="M141.85,154.75h.41s2.94,4.79,5.08,8.09l-1.88,3.05s-1.27-.81-2.83-.48c-1.56,.33-2.88,1.14-2.88,1.14l-2.96-3.92c1.9-3.02,4.69-7.88,5.06-7.88Z"/><path class="cls-26" d="M146.27,198.43c-2.44-4.14-5.48-9.38-7.72-13.6l1.2-18.28s1.32-.81,2.88-1.14c1.56-.33,2.83,.48,2.83,.48l.13-.2c1.25,4.63,3.66,13.61,5.14,19.34-1.51,4.96-3.25,10.01-4.45,13.4Z"/><path class="cls-10" d="M145.59,165.68l-.13,.2,1.88-3.05c-2.14-3.3-5.08-8.09-5.08-8.09h-.41c-.37,0-3.16,4.86-5.06,7.88l2.96,3.92-1.2,18.28c2.24,4.22,5.28,9.46,7.72,13.6,1.21-3.39,2.95-8.44,4.45-13.4-1.47-5.73-3.89-14.71-5.14-19.34Z"/><g class="cls-34"><g><g><path class="cls-8" d="M145.57,167.15l-.28,.24-.47-.55c-.05-.06-.04-.14,.01-.19h0l.07-.06c.06-.05,.14-.04,.19,.01l.47,.55Z"/><path class="cls-33" d="M145.57,167.15l-.14,.12-.56-.65,.04-.03c.06-.05,.14-.04,.19,.01l.47,.55Z"/><path class="cls-2" d="M146.02,167.17c.25,.25,.45,.54,.62,.86,.95,1.81,.25,4.05-1.56,5.01-.31,.17-.65,.28-1,.35-.03,0-.26,.03-.47-.03-.11-.03-.2-.09-.27-.18h0s-.01-.02-.02-.03h0s0-.02-.01-.03c-.02-.09,.04-.21,.13-.32,.2-.25,.58-.53,.73-.66h0s.07-.06,.11-.09h0s.08-.08,.11-.11l.03-.03,.03-.03s.02-.02,.03-.03c.01-.01,.03-.03,.04-.04,.02-.03,.05-.05,.07-.08,.01-.02,.03-.03,.04-.05,.04-.04,.07-.09,.1-.13,.01-.01,.02-.03,.03-.04l.03-.04s.06-.08,.09-.13h0v-.02c.05-.06,.09-.13,.13-.19,.04-.06,.07-.13,.1-.19v-.02h.02c.02-.05,.04-.1,.06-.14h0v-.03c.06-.13,.11-.25,.15-.38,0-.02,.01-.05,.02-.08s.01-.05,.02-.07h0v-.05s.03-.08,.04-.12v-.06s.02-.06,.03-.09v-.04s.02-.09,.02-.13c.02-.19,.03-.39,.02-.58h0c0-.08,0-.16-.02-.23,0-.03,0-.07-.01-.1,0-.03,0-.06-.01-.08v-.02c-.01-.06-.02-.12-.04-.18-.07-.33-.19-.65-.34-.95-.02-.03-.04-.06-.05-.1h0s0-.01,0-.03v-.02h0v-.02c-.02-.09-.02-.19,.02-.28,.03-.08,.1-.16,.21-.22h0c.11-.06,.22-.06,.34-.01,.18,.06,.34,.21,.44,.3Z"/><path class="cls-30" d="M145.24,166.88h0c.24,.24,.45,.51,.62,.8,.02,.04,.04,.08,.07,.12,.95,1.81,.25,4.05-1.56,5.01-.26,.14-.54,.24-.83,.31-.04,.01-.08,.02-.13,.03-.03,0-.05,.01-.08,.02,0-.01-.01-.02-.02-.03h0s0-.02-.01-.03c-.02-.09,.04-.21,.13-.32,.2-.25,.58-.53,.73-.66h0s.07-.06,.11-.09h0s.08-.08,.11-.11h.01l.02-.03,.03-.03,.03-.03s.03-.03,.04-.04l.07-.08s.03-.03,.04-.05c.02-.03,.04-.05,.07-.08,.01-.02,.03-.03,.04-.05l.03-.04,.03-.04s.06-.08,.09-.13h0v-.02l.03-.03c.03-.05,.07-.11,.1-.16s.06-.11,.09-.16v-.03l.03-.02h0s.02-.06,.04-.09l.02-.05h0v-.03s.03-.05,.04-.07l.02-.05v-.02s.03-.05,.04-.08l.02-.07s.02-.06,.03-.09l.02-.08,.02-.07h0v-.05s.03-.08,.04-.12v-.06s.02-.06,.03-.09v-.07s.02-.06,.02-.09c0-.02,0-.05,0-.08,0-.03,0-.06,0-.09v-.17s0-.06,0-.09c0-.02,0-.05,0-.07,0-.03,0-.06,0-.1h0s0-.07,0-.1c0-.02,0-.04,0-.06v-.07s-.01-.04-.01-.07v-.04s-.01-.06-.02-.08v-.08s-.02-.04-.03-.06v-.06s-.02-.05-.03-.08v-.04s-.03-.07-.04-.1l-.02-.07s-.02-.07-.03-.1l-.02-.07s-.02-.07-.04-.1c0-.02-.02-.04-.02-.06-.01-.04-.03-.07-.05-.11l-.02-.04v-.02c-.03-.05-.06-.1-.08-.16-.02-.03-.04-.06-.05-.1h0s0-.01,0-.03v-.02h0v-.02c-.02-.09-.02-.19,.02-.28,.04-.08,.1-.15,.21-.22Z"/><path class="cls-33" d="M143.43,172.78c-.04,.22,0,.41,.17,.57-.11-.03-.2-.09-.27-.18h0s-.01-.02-.02-.03h0s0-.02-.01-.03c-.02-.1,.04-.21,.13-.33Z"/><path class="cls-8" d="M143.43,172.78c-.02,.13-.02,.25,.03,.36h-.05s-.05,.02-.08,.03c0-.01-.01-.02-.02-.03h0s0-.02-.01-.03c-.02-.1,.04-.21,.13-.32Z"/></g><g><path class="cls-8" d="M143.83,176.36l-.18-.32,.63-.36c.07-.04,.15-.01,.19,.05h0l.05,.08c.04,.07,.01,.15-.05,.19l-.63,.36Z"/><path class="cls-33" d="M143.83,176.36l-.09-.16,.75-.43,.02,.04c.04,.07,.01,.15-.05,.19l-.63,.36Z"/><path class="cls-2" d="M143.72,176.79c-.3,.19-.62,.34-.96,.44-1.96,.58-4.03-.54-4.61-2.5-.1-.34-.15-.69-.15-1.05,0-.03,.02-.26,.13-.46,.05-.1,.12-.18,.23-.23h0s.02,0,.04-.01h0s.02,0,.04,0c.1,0,.2,.08,.29,.19,.21,.25,.4,.67,.5,.84h0s.05,.08,.07,.13h0c.03,.05,.05,.1,.08,.14l.03,.04,.02,.03s.02,.02,.02,.03c.01,.02,.02,.03,.03,.05,.02,.03,.04,.06,.06,.09,.01,.02,.03,.03,.04,.05,.03,.04,.07,.09,.11,.13,.01,.01,.02,.03,.03,.04l.04,.04s.07,.08,.11,.11h0v.02c.06,.05,.12,.1,.18,.15,.05,.05,.11,.09,.17,.14l.02,.02h0s.08,.06,.12,.09h.01v.02c.13,.08,.24,.15,.36,.21,.02,.01,.05,.02,.07,.04s.04,.02,.07,.03h.01l.04,.02s.07,.03,.11,.05l.06,.02s.06,.02,.09,.03h.04s.08,.04,.12,.06c.19,.06,.38,.11,.57,.13h.01c.07,.01,.15,.02,.22,.03,.03,0,.07,0,.1,0,.03,0,.06,0,.08,0h.02c.06,0,.12,0,.18,0,.34,0,.67-.06,1-.15,.04-.01,.07-.02,.1-.03h0s.01,0,.03,0h.04c.1,0,.19,.02,.27,.07,.07,.05,.13,.12,.18,.25h0c.04,.12,.01,.23-.05,.33-.09,.16-.27,.3-.38,.37Z"/><path class="cls-30" d="M144.15,176.09h0c-.28,.19-.58,.34-.9,.45-.04,.01-.09,.03-.13,.04-1.96,.58-4.03-.54-4.61-2.5-.08-.28-.13-.58-.15-.87,0-.04,0-.09,0-.13,0-.03,0-.05,0-.08,.01,0,.02,0,.04-.01h0s.02,0,.04,0c.1,0,.2,.08,.29,.19,.21,.25,.4,.67,.5,.84h0s.05,.08,.07,.13h0c.03,.05,.05,.1,.08,.14h0l.02,.04,.02,.03,.02,.03s.02,.03,.03,.05l.06,.09s.03,.03,.04,.05c.02,.03,.04,.05,.07,.08,.01,.02,.03,.03,.04,.05l.03,.04,.04,.04s.07,.08,.11,.11h0v.02l.04,.03s.09,.08,.14,.13,.1,.08,.14,.12l.02,.02,.02,.02h0s.05,.04,.07,.06l.04,.03h.01v.02s.06,.03,.08,.04l.05,.03h.02s.05,.04,.07,.06l.07,.04s.05,.03,.08,.04l.07,.04,.07,.03h.01l.04,.02s.07,.03,.11,.05l.06,.02s.06,.02,.09,.03h.04l.04,.02s.06,.02,.09,.03c.02,0,.05,.02,.07,.02,.03,0,.06,.02,.09,.03h.04l.04,.02,.08,.02s.06,.01,.08,.02c.02,0,.04,0,.07,.01,.03,0,.06,.01,.1,.02h.01s.06,.01,.09,.01c.02,0,.04,0,.06,0h.07s.04,.01,.07,.01h.04s.06,0,.08,0h.08s.04,0,.06,0h.06s.05,0,.08,0h.04s.07,0,.11,0h.07s.07-.01,.1-.02h.07s.07-.02,.11-.03c.02,0,.04,0,.07-.01,.04,0,.08-.02,.12-.02h.06c.06-.03,.11-.04,.17-.06,.04-.01,.07-.02,.1-.03h0s.01,0,.03,0h.04c.1,0,.19,.02,.27,.07,.07,.05,.13,.13,.17,.25Z"/><path class="cls-33" d="M138.72,173.17c-.21-.08-.41-.08-.59,.05,.05-.1,.12-.18,.23-.23h0s.02,0,.04-.01h0s.02,0,.04,0c.1,0,.2,.08,.29,.19Z"/><path class="cls-8" d="M138.72,173.17c-.12-.05-.25-.07-.36-.04v-.05s0-.05,0-.08c.01,0,.02,0,.04-.01h0s.02,0,.04,0c.1,0,.2,.08,.29,.19Z"/></g><g><path class="cls-8" d="M142.69,166.94l-.37-.03,.05-.72c0-.07,.07-.13,.15-.13h.1c.07,.01,.13,.08,.13,.15l-.05,.72Z"/><path class="cls-33" d="M142.69,166.94h-.18l.06-.87h.05c.07,0,.13,.07,.13,.15l-.05,.72Z"/><path class="cls-2" d="M142.99,167.27c0,.35-.06,.71-.17,1.04-.61,1.96-2.69,3.05-4.64,2.44-.34-.11-.66-.26-.96-.46-.02-.02-.21-.16-.31-.36-.05-.1-.08-.21-.07-.32h0s0-.03,0-.04h0s.01-.02,.02-.03c.05-.08,.17-.12,.32-.14,.32-.04,.78,.04,.98,.05h0s.1,0,.14,.01h0c.05,0,.1,0,.16,0h.09s.03,0,.04,0c.02,0,.04,0,.05,0,.04,0,.07,0,.11,0,.02,0,.04,0,.06,0,.06,0,.11-.01,.17-.02,.02,0,.03,0,.05,0h.05c.05-.02,.1-.03,.15-.04h.02c.07-.02,.15-.04,.22-.06,.07-.02,.14-.04,.21-.06h.04s.09-.04,.13-.06h.03c.13-.06,.25-.12,.37-.19,.02-.01,.05-.02,.07-.04s.04-.02,.06-.04h.01l.04-.03s.07-.04,.1-.07l.05-.03s.05-.04,.08-.06l.03-.02s.07-.05,.1-.08c.15-.12,.3-.25,.43-.4h0c.05-.06,.1-.12,.15-.18,.02-.03,.04-.05,.06-.08,.02-.02,.03-.04,.05-.07h0c.04-.06,.07-.11,.1-.16,.18-.28,.33-.59,.43-.92,.01-.04,.02-.07,.03-.11h0s0-.01,.01-.03v-.02h.01v-.02c.06-.08,.13-.14,.22-.18,.08-.03,.18-.04,.3-.01h0c.12,.03,.2,.12,.25,.23,.08,.17,.1,.39,.1,.52Z"/><path class="cls-30" d="M142.64,166.52h0c0,.34-.04,.68-.13,1.01-.01,.04-.02,.09-.04,.13-.61,1.96-2.69,3.05-4.64,2.44-.28-.09-.55-.21-.81-.36-.04-.02-.07-.04-.11-.07-.02-.01-.05-.03-.07-.04,0-.01,0-.02,0-.04h0s.01-.02,.02-.03c.05-.08,.17-.12,.32-.14,.32-.04,.78,.04,.98,.05h0s.1,0,.14,.01h0c.05,0,.1,0,.16,0h.13s.04,0,.05,0h.11s.04,0,.06-.01c.03,0,.07,0,.1-.01,.02,0,.04,0,.06,0h.1c.05-.02,.1-.03,.15-.04h.06c.06-.03,.12-.04,.18-.06s.12-.04,.18-.05h.03l.03-.02h.01s.05-.02,.08-.03l.05-.02h.03s.05-.03,.07-.04l.05-.02h.02s.05-.03,.07-.05l.07-.03s.05-.03,.08-.04l.07-.04,.06-.04h.01l.04-.03s.07-.04,.1-.07l.05-.03s.05-.04,.08-.06l.03-.02,.03-.02s.05-.04,.07-.06c.02-.02,.04-.03,.06-.05,.02-.02,.05-.04,.07-.06l.03-.03,.03-.02,.06-.06s.04-.04,.06-.06c.02-.02,.03-.03,.05-.05,.02-.02,.05-.05,.07-.07h0s.04-.05,.06-.08c.01-.01,.03-.03,.04-.04l.05-.06s.03-.03,.04-.05l.02-.03s.03-.04,.05-.07h0l.04-.07s.02-.03,.03-.05l.03-.05s.03-.05,.04-.07l.02-.04s.04-.06,.05-.09l.03-.06s.03-.06,.05-.09l.03-.06s.03-.07,.04-.1c0-.02,.02-.04,.03-.06,.02-.04,.03-.07,.04-.11l.02-.04v-.02c.03-.05,.04-.11,.06-.16,.01-.04,.02-.07,.03-.11h0s0-.01,.01-.03v-.02h.01v-.02c.06-.08,.13-.14,.22-.18,.08-.03,.18-.04,.3,0Z"/><path class="cls-33" d="M137.2,169.41c-.18,.13-.29,.3-.29,.52-.05-.1-.08-.21-.07-.32h0s0-.03,0-.04h0s.01-.02,.02-.03c.06-.08,.18-.12,.32-.14Z"/><path class="cls-8" d="M137.2,169.41c-.11,.08-.19,.17-.24,.28l-.04-.03s-.05-.03-.07-.04c0-.01,0-.02,0-.04h0s.01-.02,.02-.03c.05-.08,.17-.12,.32-.14Z"/></g><g><path class="cls-8" d="M139.06,158.77l-.21,.3-.59-.42c-.06-.04-.07-.13-.03-.19h0l.06-.08c.04-.06,.13-.07,.19-.03l.59,.42Z"/><path class="cls-33" d="M139.06,158.77l-.11,.15-.7-.5,.03-.04c.04-.06,.13-.07,.19-.03l.59,.42Z"/><path class="cls-2" d="M139.49,158.69c.3,.19,.57,.42,.8,.69,1.35,1.54,1.19,3.88-.35,5.23-.27,.23-.57,.43-.89,.58-.02,0-.25,.09-.47,.08-.11,0-.22-.04-.3-.11h0s-.02-.02-.03-.03h0s-.01-.02-.02-.03c-.04-.09-.01-.21,.05-.35,.14-.29,.44-.65,.55-.81h0s.06-.08,.08-.12h0s.06-.09,.09-.14l.02-.04,.02-.04s.01-.02,.02-.04c0-.02,.02-.03,.03-.05,.02-.03,.03-.06,.05-.09,0-.02,.02-.04,.03-.05,.03-.05,.05-.1,.07-.15,0-.02,.01-.03,.02-.05l.02-.05s.04-.1,.06-.15h0v-.02c.03-.07,.05-.14,.07-.22,.02-.07,.04-.14,.05-.21v-.03h0c0-.06,.02-.1,.03-.15h0v-.03c.03-.13,.04-.27,.05-.41,0-.03,0-.05,0-.08s0-.05,0-.08h0s0-.04,0-.05c0-.04,0-.08,0-.12v-.06s0-.06,0-.1v-.04s-.01-.09-.02-.13c-.02-.19-.06-.38-.11-.57h0c-.02-.08-.04-.15-.07-.22-.01-.03-.02-.07-.04-.1-.01-.03-.02-.05-.03-.08h0c-.02-.07-.05-.13-.08-.18-.15-.31-.33-.59-.56-.84-.02-.03-.05-.05-.07-.08h0s0,0-.02-.02v-.02h-.01v-.02c-.05-.09-.06-.18-.05-.28,.01-.08,.06-.17,.15-.26h0c.09-.09,.2-.11,.32-.09,.19,.02,.38,.12,.5,.19Z"/><path class="cls-30" d="M138.67,158.59h0c.29,.18,.55,.39,.78,.64,.03,.03,.06,.07,.09,.1,1.35,1.54,1.19,3.88-.35,5.23-.22,.2-.47,.36-.73,.5-.04,.02-.08,.04-.12,.06-.02,.01-.05,.02-.07,.03,0,0-.02-.02-.03-.03h0s-.01-.02-.02-.03c-.04-.09-.01-.21,.05-.35,.14-.29,.44-.65,.55-.81h0s.06-.08,.08-.12h0s.06-.09,.09-.14h0l.02-.04,.02-.04,.02-.04s.02-.03,.03-.05l.05-.09s.02-.04,.03-.05c.02-.03,.03-.06,.05-.09,0-.02,.02-.04,.03-.06l.02-.05,.02-.05s.04-.1,.06-.15h0v-.02l.02-.04c.02-.06,.04-.12,.06-.18s.03-.12,.05-.18v-.05h.02s.01-.07,.02-.1v-.05h.01v-.03s.01-.05,.01-.08v-.08s.02-.05,.02-.08v-.08s.01-.06,.01-.09v-.15h0s0-.04,0-.05c0-.04,0-.08,0-.12v-.06s0-.06,0-.1v-.07s-.01-.06-.02-.09c0-.02,0-.05-.01-.08,0-.03,0-.06-.01-.09v-.08l-.03-.08s-.01-.06-.02-.08c0-.02-.01-.04-.02-.07,0-.03-.02-.06-.02-.09h0s-.02-.07-.03-.1c0-.02-.01-.04-.02-.06l-.02-.07s-.02-.04-.02-.06v-.04s-.03-.05-.04-.08h0l-.03-.08s-.02-.03-.02-.05l-.02-.05s-.02-.05-.04-.07l-.02-.04s-.03-.06-.05-.09l-.04-.06s-.04-.06-.05-.09l-.04-.06s-.04-.06-.06-.09c-.01-.02-.03-.04-.04-.06-.02-.03-.05-.06-.07-.1l-.03-.04h-.01c-.04-.06-.07-.1-.11-.15-.02-.03-.05-.05-.07-.08h0s0,0-.02-.02v-.02h-.01v-.02c-.05-.09-.06-.18-.05-.28,.02-.08,.06-.17,.15-.26Z"/><path class="cls-33" d="M138.29,164.75c.01,.22,.1,.4,.3,.52-.11,0-.22-.04-.3-.11h0s-.02-.02-.03-.03h0s-.01-.02-.02-.03c-.04-.09-.01-.21,.05-.35Z"/><path class="cls-8" d="M138.29,164.75c0,.13,.04,.25,.11,.35l-.05,.02s-.05,.02-.07,.03c0,0-.02-.02-.03-.03h0s-.01-.02-.02-.03c-.04-.09-.01-.21,.05-.35Z"/></g><g><path class="cls-8" d="M147.79,163.4l-.07-.36,.71-.14c.07-.01,.15,.03,.16,.11h0l.02,.09c.01,.07-.03,.15-.11,.16l-.71,.14Z"/><path class="cls-33" d="M147.79,163.4l-.04-.18,.84-.17v.05c.02,.07-.02,.15-.1,.16l-.71,.14Z"/><path class="cls-2" d="M147.56,163.78c-.34,.09-.7,.13-1.05,.12-2.05-.06-3.66-1.76-3.6-3.81,0-.35,.07-.71,.18-1.04,0-.02,.1-.24,.26-.4,.08-.08,.18-.14,.29-.15h0s.02,0,.04,0h0s.02,0,.04,0c.09,.03,.16,.14,.22,.27,.12,.3,.17,.76,.22,.96h0s.02,.1,.03,.14h0c.01,.06,.02,.11,.04,.16v.04l.02,.04s0,.03,.01,.04c0,.02,0,.04,.02,.05,.01,.03,.02,.07,.03,.1,0,.02,.01,.04,.02,.06,.02,.05,.04,.1,.06,.15,0,.02,.01,.03,.02,.05l.02,.05s.04,.09,.07,.14h0v.02c.04,.07,.08,.13,.12,.2,.04,.06,.08,.12,.12,.18l.02,.02h0s.05,.09,.08,.12h0v.03c.09,.11,.18,.21,.28,.31,.02,.02,.04,.04,.06,.06s.03,.04,.05,.05h0l.03,.04s.06,.06,.09,.08l.05,.04s.05,.04,.07,.06l.03,.02s.07,.05,.1,.08c.16,.11,.32,.22,.5,.3h0c.07,.04,.13,.07,.2,.1,.03,.01,.06,.03,.1,.04,.03,.01,.05,.02,.08,.03h.01c.06,.03,.11,.05,.17,.06,.32,.1,.66,.16,1,.17,.04,0,.07,0,.11,0h0s.01,0,.03,0h.04c.09,.04,.17,.09,.23,.17,.05,.07,.09,.16,.09,.29h0c0,.12-.06,.22-.15,.3-.14,.12-.35,.2-.48,.24Z"/><path class="cls-30" d="M148.19,163.24h0c-.32,.1-.66,.14-1,.15-.05,0-.09,0-.14,0-2.05-.06-3.66-1.76-3.6-3.81,0-.3,.05-.59,.13-.88,.01-.04,.02-.08,.04-.12,0-.03,.02-.05,.02-.08,.01,0,.02,0,.04,0h0s.02,0,.04,0c.09,.03,.16,.14,.22,.27,.12,.3,.17,.76,.22,.96h0s.02,.1,.03,.14h0c.01,.06,.02,.11,.04,.16h0v.04l.02,.04v.04s.02,.04,.03,.05l.03,.1s.01,.04,.02,.06c.01,.03,.02,.07,.04,.1,0,.02,.02,.04,.02,.06l.02,.05,.02,.05s.04,.09,.07,.14h0v.02l.03,.04c.03,.05,.06,.11,.09,.16s.07,.11,.1,.16l.02,.02,.02,.02h0s.03,.06,.05,.08l.03,.04h0v.03s.04,.04,.06,.06l.04,.04,.02,.02s.04,.04,.05,.06l.05,.06s.04,.04,.06,.07l.06,.06,.05,.05h0l.03,.04s.06,.06,.09,.08l.05,.04s.05,.04,.07,.06l.03,.02,.03,.02s.05,.04,.08,.06c.02,.01,.04,.03,.06,.04,.02,.02,.05,.03,.07,.05l.04,.03,.03,.02,.07,.04s.05,.03,.07,.04c.02,.01,.04,.02,.06,.03,.03,.02,.06,.03,.09,.05h0s.05,.03,.08,.04c.02,0,.04,.02,.05,.02l.07,.03s.04,.02,.06,.03l.04,.02s.05,.02,.08,.03h.01l.07,.03s.04,.01,.05,.02l.05,.02s.05,.02,.08,.02h.04s.07,.03,.1,.04l.07,.02s.07,.01,.1,.02h.07s.07,.02,.11,.03c.02,0,.04,0,.07,0,.04,0,.08,0,.12,.01h.06c.06,0,.12,.01,.17,.02,.04,0,.07,0,.11,0h0s.01,0,.03,0h.04c.09,.04,.17,.09,.23,.17,.05,.07,.09,.16,.09,.29Z"/><path class="cls-33" d="M143.93,158.78c-.17-.14-.36-.2-.58-.13,.08-.08,.18-.14,.29-.15h0s.02,0,.04,0h0s.02,0,.04,0c.09,.03,.16,.14,.22,.27Z"/><path class="cls-8" d="M143.93,158.78c-.1-.08-.21-.14-.33-.15l.02-.05s.02-.05,.02-.08c.01,0,.02,0,.04,0h0s.02,0,.04,0c.09,.03,.16,.14,.22,.27Z"/></g><g><path class="cls-8" d="M147.2,188.08l.21,.3-.6,.41c-.06,.04-.15,.03-.19-.04h0l-.05-.08c-.04-.06-.03-.15,.04-.19l.6-.41Z"/><path class="cls-33" d="M147.2,188.08l.1,.15-.71,.49-.03-.04c-.04-.06-.03-.15,.04-.19l.6-.41Z"/><path class="cls-2" d="M147.27,187.64c.28-.22,.59-.39,.92-.52,1.91-.75,4.06,.19,4.8,2.1,.13,.33,.21,.68,.24,1.03,0,.03,0,.26-.09,.47-.04,.1-.11,.19-.21,.25h0s-.02,.01-.03,.02h0s-.02,0-.04,0c-.1,0-.2-.06-.31-.17-.23-.23-.46-.64-.57-.8h0s-.05-.08-.08-.12h0s-.06-.09-.09-.13l-.03-.04-.03-.03s-.02-.02-.03-.03c-.01-.01-.02-.03-.04-.04-.02-.03-.05-.05-.07-.08-.01-.02-.03-.03-.04-.04-.04-.04-.08-.08-.12-.12-.01-.01-.02-.02-.04-.04l-.04-.04s-.08-.07-.12-.1h0v-.02c-.07-.05-.13-.09-.19-.14-.06-.04-.12-.08-.18-.12l-.02-.02h0s-.08-.06-.12-.08h-.01l-.02-.02c-.12-.07-.24-.13-.37-.18-.02-.01-.05-.02-.07-.03s-.05-.02-.07-.03h-.01l-.04-.02s-.08-.03-.12-.04l-.06-.02s-.06-.02-.09-.03h-.04s-.08-.03-.13-.04c-.19-.04-.38-.07-.58-.09h-.01c-.07,0-.15,0-.22,0-.03,0-.07,0-.1,0-.03,0-.06,0-.08,0h-.02c-.06,0-.12,0-.18,.01-.34,.03-.67,.11-.98,.24-.03,.01-.07,.03-.1,.04h0s-.01,0-.03,0h-.04c-.09,.02-.19,0-.27-.05-.07-.04-.14-.11-.2-.23h0c-.05-.11-.03-.23,.02-.34,.08-.17,.24-.32,.35-.4Z"/><path class="cls-30" d="M146.89,188.37h0c.26-.22,.55-.39,.86-.53,.04-.02,.08-.04,.13-.05,1.91-.75,4.06,.2,4.8,2.1,.11,.28,.18,.56,.22,.86,0,.04,.01,.09,.01,.13,0,.03,0,.05,0,.08-.01,0-.02,.01-.03,.01h0s-.02,0-.04,0c-.1,0-.2-.06-.31-.17-.23-.23-.46-.64-.57-.8h0s-.05-.08-.08-.12h0s-.06-.09-.09-.13h0l-.02-.04-.03-.03-.03-.03s-.02-.03-.04-.04l-.07-.08s-.03-.03-.04-.04c-.02-.03-.05-.05-.07-.07-.01-.01-.03-.03-.04-.04l-.04-.04-.04-.04s-.08-.07-.12-.1h0v-.02l-.04-.03s-.1-.08-.15-.11-.1-.07-.15-.11l-.02-.02-.02-.02h0s-.05-.04-.08-.05l-.05-.03h-.01l-.02-.02s-.04-.03-.07-.04l-.05-.03h-.02s-.05-.04-.07-.05l-.07-.03s-.05-.02-.08-.04l-.07-.03-.07-.03h-.01l-.04-.02s-.08-.03-.12-.04l-.06-.02s-.06-.02-.09-.03h-.04l-.04-.02s-.06-.02-.09-.02c-.02,0-.05-.01-.08-.02-.03,0-.06-.01-.09-.02h-.08l-.08-.03s-.06,0-.08-.01c-.02,0-.05,0-.07,0-.03,0-.06,0-.1,0h-.01s-.06,0-.09,0c-.02,0-.04,0-.06,0h-.07s-.04,0-.07,0c-.01,0-.03,0-.04,0-.03,0-.06,0-.08,0h-.08s-.04,0-.06,.01h-.06s-.05,.01-.08,.01h-.04s-.07,.02-.11,.02h-.07s-.07,.03-.1,.03l-.07,.02s-.07,.02-.1,.03c-.02,0-.04,.01-.07,.02-.04,.01-.08,.02-.11,.03h-.04l-.02,.02c-.05,.02-.11,.04-.16,.06-.03,.01-.07,.03-.1,.04h0s-.01,0-.03,0h-.04c-.09,.02-.19,0-.27-.05-.07-.04-.14-.11-.19-.23Z"/><path class="cls-33" d="M152.56,190.82c.21,.06,.41,.04,.59-.1-.04,.1-.11,.19-.21,.25h0s-.02,.01-.03,.02h0s-.02,0-.04,0c-.1,0-.2-.06-.31-.17Z"/><path class="cls-8" d="M152.56,190.82c.13,.04,.25,.04,.37,.01v.05s.01,.05,.01,.08c-.01,0-.02,.01-.03,.01h0s-.02,0-.04,0c-.1,0-.2-.06-.31-.17Z"/></g><g><path class="cls-8" d="M138.27,184.31l.02,.37-.72,.04c-.07,0-.14-.05-.14-.13h0v-.1c0-.08,.05-.14,.12-.14l.72-.04Z"/><path class="cls-33" d="M138.27,184.31v.18l-.85,.05v-.05c0-.08,.05-.14,.13-.14l.72-.04Z"/><path class="cls-2" d="M138.56,183.97c.35-.04,.71-.03,1.06,.03,2.02,.36,3.36,2.28,3.01,4.3-.06,.35-.17,.69-.33,1.01-.01,.02-.14,.23-.32,.35-.09,.06-.19,.11-.31,.1h0s-.02,0-.04,0h0s-.02,0-.03-.01c-.09-.04-.14-.16-.18-.3-.08-.32-.06-.78-.08-.98h0s0-.1,0-.14h0c0-.06,0-.11-.02-.16v-.09s-.01-.03-.02-.04c0-.02,0-.04,0-.05,0-.04-.01-.07-.02-.11,0-.02,0-.04-.01-.06-.01-.05-.02-.11-.04-.16,0-.02,0-.03-.01-.05v-.05s-.04-.1-.06-.15h0v-.02c-.03-.07-.06-.14-.09-.21-.03-.07-.06-.13-.09-.2v-.02h-.02c-.02-.05-.04-.09-.07-.14h0v-.03c-.08-.12-.15-.23-.23-.34-.01-.02-.03-.04-.05-.06s-.03-.04-.05-.06h0l-.03-.04s-.05-.06-.08-.1l-.04-.05s-.04-.05-.06-.07l-.03-.03s-.06-.06-.09-.09c-.14-.14-.29-.26-.45-.37h0c-.06-.05-.12-.09-.19-.13-.03-.02-.06-.04-.09-.05-.02-.01-.05-.03-.07-.04h-.01c-.05-.04-.11-.06-.16-.09-.31-.15-.63-.25-.96-.31-.04,0-.07-.01-.11-.02h0s-.01,0-.03,0h-.03v-.02c-.1-.04-.17-.11-.22-.19-.04-.07-.06-.17-.05-.3h0c.02-.12,.09-.21,.2-.28,.16-.1,.38-.15,.51-.16Z"/><path class="cls-30" d="M137.86,184.41h0c.33-.05,.67-.05,1.01,0,.05,0,.09,.01,.14,.02,2.02,.36,3.36,2.28,3.01,4.3-.05,.29-.14,.58-.26,.85-.02,.04-.04,.08-.05,.12-.01,.02-.02,.05-.04,.07-.01,0-.02,0-.04,0h0s-.02,0-.03-.01c-.09-.04-.14-.16-.18-.3-.08-.32-.06-.78-.08-.98h0s0-.1,0-.14h0c0-.06,0-.11-.02-.16h0v-.09l-.02-.04s0-.04,0-.05l-.02-.11s0-.04-.01-.06c0-.03-.02-.07-.02-.1,0-.02,0-.04-.01-.06v-.05l-.03-.05s-.03-.1-.05-.15h0v-.02l-.02-.04c-.02-.06-.04-.12-.07-.17s-.05-.11-.08-.17v-.03l-.02-.02h0s-.03-.06-.04-.09l-.03-.05h0v-.03s-.03-.04-.05-.07l-.03-.05v-.02s-.04-.05-.06-.07l-.04-.06s-.03-.05-.05-.07l-.05-.06-.05-.06h0l-.03-.04s-.05-.06-.08-.1l-.04-.05s-.04-.05-.06-.07l-.03-.03-.03-.03s-.04-.04-.07-.07c-.02-.02-.04-.04-.06-.05-.02-.02-.04-.04-.07-.06l-.03-.03-.03-.02-.06-.05s-.04-.04-.07-.05c-.02-.01-.04-.03-.05-.04-.03-.02-.05-.04-.08-.06h0s-.05-.04-.08-.06c-.02-.01-.03-.02-.05-.03l-.06-.04s-.04-.02-.06-.03l-.03-.02s-.05-.03-.07-.04h-.01l-.06-.04s-.03-.02-.05-.03l-.05-.03s-.05-.02-.07-.03l-.04-.02s-.07-.03-.1-.04l-.07-.03s-.07-.02-.1-.04l-.07-.02s-.07-.02-.1-.03c-.02,0-.04-.01-.07-.02-.04-.01-.08-.02-.12-.03h-.04l-.02-.02c-.06-.01-.11-.02-.17-.03-.04,0-.07-.01-.11-.02h0s-.01,0-.03,0h-.03v-.02c-.1-.04-.17-.11-.22-.19-.04-.07-.06-.17-.05-.3Z"/><path class="cls-33" d="M141.42,189.45c.15,.17,.33,.25,.56,.22-.09,.06-.19,.11-.31,.1h0s-.02,0-.04,0h0s-.02,0-.03-.01c-.09-.04-.14-.16-.18-.3Z"/><path class="cls-8" d="M141.42,189.45c.09,.1,.19,.17,.3,.2l-.02,.05s-.02,.05-.04,.07c-.01,0-.02,0-.04,0h0s-.02,0-.03-.01c-.09-.04-.14-.16-.18-.3Z"/></g><g><path class="cls-8" d="M149.58,194.36l-.14-.34,.67-.28c.07-.03,.15,0,.18,.07h0l.04,.09c.03,.07,0,.15-.07,.18l-.67,.28Z"/><path class="cls-33" d="M149.58,194.36l-.07-.17,.79-.34,.02,.04c.03,.07,0,.15-.07,.18l-.67,.28Z"/><path class="cls-2" d="M149.43,194.77c-.32,.16-.66,.27-1,.33-2.02,.36-3.94-.99-4.3-3.01-.06-.35-.07-.71-.03-1.06,0-.03,.05-.26,.18-.44,.06-.09,.14-.17,.25-.2h0s.02,0,.04,0h0s.02,0,.04,0c.1,.01,.19,.1,.27,.22,.18,.27,.32,.71,.41,.89h0s.04,.09,.06,.13h0c.02,.05,.04,.1,.07,.15l.02,.04,.02,.04s.01,.02,.02,.04c0,.02,.02,.03,.03,.05,.02,.03,.04,.06,.05,.09,.01,.02,.02,.04,.03,.05,.03,.05,.06,.09,.09,.14,0,.01,.02,.03,.03,.04l.03,.04s.06,.08,.1,.12h0v.02c.06,.06,.11,.12,.16,.17,.05,.05,.1,.1,.15,.15l.02,.02h0s.07,.07,.11,.1h.01v.02c.12,.09,.22,.17,.34,.25,.02,.02,.04,.03,.07,.04s.04,.03,.06,.04h.01l.04,.03s.07,.04,.11,.06l.05,.03s.06,.03,.08,.04l.03,.02s.08,.04,.12,.06c.18,.08,.36,.15,.55,.2h0c.07,.02,.14,.04,.22,.05,.03,0,.07,.01,.1,.02,.03,0,.06,0,.08,.01h.02c.06,.01,.12,.02,.18,.02,.34,.03,.68,.02,1.01-.04,.04,0,.07-.01,.11-.02h0s.01,0,.03,0c0,0,.01,0,.02,0h.02c.1,0,.19,.05,.26,.11,.06,.06,.12,.14,.15,.26h0c.03,.12-.02,.23-.09,.33-.11,.15-.3,.27-.42,.33Z"/><path class="cls-30" d="M149.94,194.12h0c-.3,.16-.62,.28-.95,.35-.04,0-.09,.02-.14,.03-2.02,.36-3.94-.99-4.3-3.01-.05-.29-.07-.59-.05-.89,0-.04,0-.09,.01-.13,0-.03,0-.05,0-.08,.01,0,.02,0,.04,0h0s.02,0,.04,0c.1,.01,.19,.1,.27,.22,.18,.27,.32,.71,.41,.89h0s.04,.09,.06,.13h0c.02,.05,.04,.1,.07,.15h0v.04l.03,.04,.02,.04s.02,.03,.03,.05l.05,.09s.02,.04,.03,.05c.02,.03,.04,.06,.06,.09,.01,.02,.02,.03,.03,.05l.03,.04,.03,.04s.06,.08,.1,.12h0v.02l.04,.03s.08,.09,.12,.14,.09,.09,.13,.13l.02,.02,.02,.02h0s.04,.05,.06,.07l.04,.04h.01v.02s.05,.03,.07,.05l.04,.04,.02,.02s.04,.03,.06,.05l.06,.04s.05,.04,.07,.05l.07,.04,.06,.04h.01l.04,.03s.07,.04,.11,.06l.05,.03s.06,.03,.08,.04l.03,.02,.03,.02s.06,.03,.08,.04c.02,0,.05,.02,.07,.03,.03,.01,.06,.02,.08,.04l.04,.02h.03l.08,.04s.05,.02,.08,.03c.02,0,.04,.01,.07,.02,.03,0,.06,.02,.09,.03h0s.06,.02,.09,.03c.02,0,.04,0,.06,.01l.07,.02s.04,0,.06,.01h.04s.06,.02,.08,.02h.08s.04,.02,.06,.02h.06s.05,.01,.08,.01h.04s.07,0,.11,0h.07s.07,0,.11,0h.07s.07,0,.11,0c.02,0,.05,0,.07,0,.04,0,.08,0,.12-.01h.06c.06-.02,.11-.02,.17-.03,.04,0,.07-.01,.11-.02h0s.01,0,.03,0c0,0,.01,0,.02,0h.02c.1,0,.19,.05,.26,.11,.06,.06,.12,.14,.15,.26Z"/><path class="cls-33" d="M144.87,190.61c-.2-.1-.4-.12-.6-.01,.06-.09,.14-.17,.25-.2h0s.02,0,.04,0h0s.02,0,.04,0c.1,.01,.19,.1,.27,.22Z"/><path class="cls-8" d="M144.87,190.61c-.12-.06-.24-.09-.36-.09v-.05s.01-.05,.01-.08c.01,0,.02,0,.04,0h0s.02,0,.04,0c.1,.01,.19,.1,.27,.22Z"/></g><g><path class="cls-8" d="M151.97,175.46l-.37-.03,.05-.72c0-.07,.07-.13,.15-.13h.1c.07,.01,.13,.08,.13,.15l-.05,.72Z"/><path class="cls-33" d="M151.97,175.46h-.18l.06-.87h.05c.07,0,.13,.07,.13,.15l-.05,.72Z"/><path class="cls-2" d="M152.27,175.79c0,.35-.06,.71-.17,1.04-.61,1.96-2.69,3.05-4.64,2.44-.34-.11-.66-.26-.96-.46-.02-.02-.21-.16-.31-.36-.05-.1-.08-.21-.07-.32h0s0-.03,0-.04h0s.01-.02,.02-.03c.05-.08,.17-.12,.32-.14,.32-.04,.78,.04,.98,.05h0s.1,0,.14,.01h0c.05,0,.1,0,.16,0h.09s.03,0,.04,0c.02,0,.04,0,.05,0,.04,0,.07,0,.11,0,.02,0,.04,0,.06,0,.06,0,.11-.01,.17-.02,.02,0,.03,0,.05,0h.05c.05-.02,.1-.03,.15-.04h.02c.07-.02,.15-.04,.22-.06,.07-.02,.14-.04,.21-.06h.04s.09-.04,.13-.06h.03c.13-.06,.25-.12,.37-.19,.02-.01,.05-.02,.07-.04s.04-.02,.06-.04h.01l.04-.03s.07-.04,.1-.07l.05-.03s.05-.04,.08-.06l.03-.02s.07-.05,.1-.08c.15-.12,.3-.25,.43-.4h0c.05-.06,.1-.12,.15-.18,.02-.03,.04-.05,.06-.08,.02-.02,.03-.04,.05-.07h0c.04-.06,.07-.11,.1-.16,.18-.28,.33-.59,.43-.92,.01-.04,.02-.07,.03-.11h0s0-.01,.01-.03v-.02h.01v-.02c.06-.08,.13-.14,.22-.18,.08-.03,.18-.04,.3-.01h0c.12,.03,.2,.12,.25,.23,.08,.17,.1,.39,.1,.52Z"/><path class="cls-30" d="M151.93,175.04h0c0,.34-.04,.68-.13,1.01-.01,.04-.02,.09-.04,.13-.61,1.96-2.69,3.05-4.64,2.44-.28-.09-.55-.21-.81-.36-.04-.02-.07-.04-.11-.07-.02-.01-.05-.03-.07-.04,0-.01,0-.02,0-.04h0s.01-.02,.02-.03c.05-.08,.17-.12,.32-.14,.32-.04,.78,.04,.98,.05h0s.1,0,.14,.01h0c.05,0,.1,0,.16,0h.13s.04,0,.05,0h.11s.04,0,.06-.01c.03,0,.07,0,.1-.01,.02,0,.04,0,.06,0h.1c.05-.02,.1-.03,.15-.04h.06c.06-.03,.12-.04,.18-.06s.12-.04,.18-.05h.03l.03-.02h.01s.05-.02,.08-.03l.05-.02h.03s.05-.03,.07-.04l.05-.02h.02s.05-.03,.07-.05l.07-.03s.05-.03,.08-.04l.07-.04,.06-.04h.01l.04-.03s.07-.04,.1-.07l.05-.03s.05-.04,.08-.06l.03-.02,.03-.02s.05-.04,.07-.06c.02-.02,.04-.03,.06-.05,.02-.02,.05-.04,.07-.06l.03-.03,.03-.02,.06-.06s.04-.04,.06-.06c.02-.02,.03-.03,.05-.05,.02-.02,.05-.05,.07-.07h0s.04-.05,.06-.08c.01-.01,.03-.03,.04-.04l.05-.06s.03-.03,.04-.05l.02-.03s.03-.04,.05-.07h0l.04-.07s.02-.03,.03-.05l.03-.05s.03-.05,.04-.07l.02-.04s.04-.06,.05-.09l.03-.06s.03-.06,.05-.09l.03-.06s.03-.07,.04-.1c0-.02,.02-.04,.03-.06,.02-.04,.03-.07,.04-.11l.02-.04v-.02c.03-.05,.04-.11,.06-.16,.01-.04,.02-.07,.03-.11h0s0-.01,.01-.03v-.02h.01v-.02c.06-.08,.13-.14,.22-.18,.08-.03,.18-.04,.3,0Z"/><path class="cls-33" d="M146.48,177.93c-.18,.13-.29,.3-.29,.52-.05-.1-.08-.21-.07-.32h0s0-.03,0-.04h0s.01-.02,.02-.03c.06-.08,.18-.12,.32-.14Z"/><path class="cls-8" d="M146.48,177.93c-.11,.08-.19,.17-.24,.28l-.04-.03s-.05-.03-.07-.04c0-.01,0-.02,0-.04h0s.01-.02,.02-.03c.05-.08,.17-.12,.32-.14Z"/></g></g><g><path class="cls-8" d="M141.98,180.56l.02,.37-.72,.04c-.07,0-.14-.05-.14-.13h0v-.1c0-.08,.05-.14,.12-.14l.72-.04Z"/><path class="cls-33" d="M141.98,180.56v.18l-.85,.05v-.05c0-.08,.05-.14,.13-.14l.72-.04Z"/><path class="cls-2" d="M142.27,180.22c.35-.04,.71-.03,1.06,.03,2.02,.36,3.36,2.28,3.01,4.3-.06,.35-.17,.69-.33,1.01-.01,.02-.14,.23-.32,.35-.09,.06-.19,.11-.31,.1h0s-.02,0-.04,0h0s-.02,0-.03-.01c-.09-.04-.14-.16-.18-.3-.08-.32-.06-.78-.08-.98h0s0-.1,0-.14h0c0-.06,0-.11-.02-.16v-.09s-.01-.03-.02-.04c0-.02,0-.04,0-.05,0-.04-.01-.07-.02-.11,0-.02,0-.04-.01-.06-.01-.05-.02-.11-.04-.16,0-.02,0-.03-.01-.05v-.05s-.04-.1-.06-.15h0v-.02c-.03-.07-.06-.14-.09-.21-.03-.07-.06-.13-.09-.2v-.02h-.02c-.02-.05-.04-.09-.07-.14h0v-.03c-.08-.12-.15-.23-.23-.34-.01-.02-.03-.04-.05-.06s-.03-.04-.05-.06h0l-.03-.04s-.05-.06-.08-.1l-.04-.05s-.04-.05-.06-.07l-.03-.03s-.06-.06-.09-.09c-.14-.14-.29-.26-.45-.37h0c-.06-.05-.12-.09-.19-.13-.03-.02-.06-.04-.09-.05-.02-.01-.05-.03-.07-.04h-.01c-.05-.04-.11-.06-.16-.09-.31-.15-.63-.25-.96-.31-.04,0-.07-.01-.11-.02h0s-.01,0-.03,0h-.03v-.02c-.1-.04-.17-.11-.22-.19-.04-.07-.06-.17-.05-.3h0c.02-.12,.09-.21,.2-.28,.16-.1,.38-.15,.51-.16Z"/><path class="cls-30" d="M141.57,180.66h0c.33-.05,.67-.05,1.01,0,.05,0,.09,.01,.14,.02,2.02,.36,3.36,2.28,3.01,4.3-.05,.29-.14,.58-.26,.85-.02,.04-.04,.08-.05,.12-.01,.02-.02,.05-.04,.07-.01,0-.02,0-.04,0h0s-.02,0-.03-.01c-.09-.04-.14-.16-.18-.3-.08-.32-.06-.78-.08-.98h0s0-.1,0-.14h0c0-.06,0-.11-.02-.16h0v-.09l-.02-.04s0-.04,0-.05l-.02-.11s0-.04-.01-.06c0-.03-.02-.07-.02-.1,0-.02,0-.04-.01-.06v-.05l-.03-.05s-.03-.1-.05-.15h0v-.02l-.02-.04c-.02-.06-.04-.12-.07-.17s-.05-.11-.08-.17v-.03l-.02-.02h0s-.03-.06-.04-.09l-.03-.05h0v-.03s-.03-.04-.05-.07l-.03-.05v-.02s-.04-.05-.06-.07l-.04-.06s-.03-.05-.05-.07l-.05-.06-.05-.06h0l-.03-.04s-.05-.06-.08-.1l-.04-.05s-.04-.05-.06-.07l-.03-.03-.03-.03s-.04-.04-.07-.07c-.02-.02-.04-.04-.06-.05-.02-.02-.04-.04-.07-.06l-.03-.03-.03-.02-.06-.05s-.04-.04-.07-.05c-.02-.01-.04-.03-.05-.04-.03-.02-.05-.04-.08-.06h0s-.05-.04-.08-.06c-.02-.01-.03-.02-.05-.03l-.06-.04s-.04-.02-.06-.03l-.03-.02s-.05-.03-.07-.04h-.01l-.06-.04s-.03-.02-.05-.03l-.05-.03s-.05-.02-.07-.03l-.04-.02s-.07-.03-.1-.04l-.07-.03s-.07-.02-.1-.04l-.07-.02s-.07-.02-.1-.03c-.02,0-.04-.01-.07-.02-.04-.01-.08-.02-.12-.03h-.04l-.02-.02c-.06-.01-.11-.02-.17-.03-.04,0-.07-.01-.11-.02h0s-.01,0-.03,0h-.03v-.02c-.1-.04-.17-.11-.22-.19-.04-.07-.06-.17-.05-.3Z"/><path class="cls-33" d="M145.13,185.7c.15,.17,.33,.25,.56,.22-.09,.06-.19,.11-.31,.1h0s-.02,0-.04,0h0s-.02,0-.03-.01c-.09-.04-.14-.16-.18-.3Z"/><path class="cls-8" d="M145.13,185.7c.09,.1,.19,.17,.3,.2l-.02,.05s-.02,.05-.04,.07c-.01,0-.02,0-.04,0h0s-.02,0-.03-.01c-.09-.04-.14-.16-.18-.3Z"/></g></g><path class="cls-7" d="M144.64,167.58c2.05,8.18,4.72,18.52,2.7,20.9-2.02,2.38-6.27-1.56-6.89-3.87-.62-2.31-.05-17.13,.68-18.07s2.79-.36,3,0,.52,1.03,.52,1.03Z"/><path class="cls-7" d="M142.26,156.57s3.13,3.65,2.91,5.21-1.08,1.49-2.91,1.64c-1.82,.15-2.33,.52-2.91,0-.59-.52-.07-1.59,.36-2.77s2.56-4.38,2.56-4.38"/><path class="cls-4" d="M122.05,152.75s11.41,22.18,15.61,30.37c4.2,8.19,12.78,22.28,12.78,22.28,0,0-15.41-12.38-23.7-22.75-8.29-10.38-14.83-25.42-14.83-25.42,0,0,4.19-1.38,5.95-2.17,1.76-.79,4.2-2.31,4.2-2.31Z"/><path class="cls-4" d="M152.55,178.55c2.5-9.9,4.52-23.8,4.52-23.8l3.12,.76c3.12,.76,8.49,2,8.49,2,0,0-3.71,16.28-8.29,24.47-3.26,5.83-9.79,13.78-13.28,17.87-.27-.45-.55-.93-.84-1.42,1.75-4.92,4.62-13.32,6.28-19.88Z"/><path class="cls-42" d="M142.19,211.88c0,1.46,1.21,2.64,2.71,2.64s2.71-1.18,2.71-2.64-1.21-2.64-2.71-2.64-2.71,1.18-2.71,2.64Z"/><path class="cls-42" d="M143.57,231.15c0,1.46,1.21,2.64,2.71,2.64s2.71-1.18,2.71-2.64-1.21-2.64-2.71-2.64-2.71,1.18-2.71,2.64Z"/><path class="cls-42" d="M144.94,250.42c0,1.46,1.21,2.64,2.71,2.64s2.71-1.18,2.71-2.64-1.21-2.64-2.71-2.64-2.71,1.18-2.71,2.64Z"/><path class="cls-37" d="M127.32,157.08c-2.34-2.9-2.98-4.48-2.98-4.48l.03-.08c2.39,1.39,10.15,5.69,10.28,2.86,.13-2.84-6.2-8.25-8.11-9.81l.14-.43s4.36,3.58,7.36,5.79c3,2.22,7.82,3.82,7.82,3.82-.54,0-6.2,10.28-6.78,10.23-.59-.05-5.41-5-7.76-7.9Z"/><path class="cls-37" d="M145.02,153.56c1.25-.54,5.36-2.88,6.1-3.3-1.56,1.84-3.96,5.08-3.78,7.36,.14,1.77,3.78,.31,7.18-1.45-.29,.58-.68,1.4-1.2,2.49-1.17,2.48-3.41,7.19-3.8,7.23-.39,.05-7.25-11.14-7.25-11.14,0,0,1.39-.6,2.76-1.19Z"/><path class="cls-42" d="M147.11,199.85c-.27-.45-.55-.93-.84-1.42,1.75-4.92,4.62-13.32,6.28-19.88,2.5-9.9,4.52-23.8,4.52-23.8,0,0,0,0,.83,.2-.82,5.52-2.66,19.79,.11,20.15,2.35,.31,7.43-10.69,10.4-17.65,.17,.04,.27,.06,.27,.06,0,0-3.71,16.28-8.29,24.47-3.26,5.83-9.79,13.78-13.28,17.87Z"/><path class="cls-42" d="M113.64,156.63c3.25,6.64,14.25,28.48,17.53,26.5,3.12-1.89-6.21-22.18-9.91-29.9,.48-.28,.79-.48,.79-.48,0,0,11.41,22.18,15.61,30.37,4.2,8.19,12.78,22.28,12.78,22.28,0,0-15.41-12.38-23.7-22.75-8.29-10.38-14.83-25.42-14.83-25.42,0,0,.75-.25,1.74-.59Z"/><path class="cls-4" d="M131.51,276.16c-5.27-.95-12.68-5.14-12.68-5.14,0,0,2.73-11.56,3.32-16.51,.47-3.99-6.68-27.34-12.02-45.91,2.14-6.41,3.5-10.48,3.5-10.48,0,0,19.34,37.97,20.48,49.64,1.14,11.67,2.38,18.45,6.34,17.78,3.96-.67,13.27-10.94,13.27-10.94h0c.03,.99,.04,1.55,.04,1.55l-13.18,19.99s-3.79,.95-9.06,0Z"/><path class="cls-4" d="M153.76,256.17s-.01-.57-.04-1.55c0,0,16.3,11.36,17.67,1.55,1.37-9.8,0-21.45,0-21.45l1.83-3.39c.06,4.91,.34,9.18,.93,11.77,1.65,7.24,7.5,22.79,7.5,22.79,0,0-5.27,5.9-11.71,8-6.44,2.09-13.46,2.28-13.46,2.28l-5.77-15.38,3.04-4.61Z"/><path class="cls-42" d="M115.55,279.74c1.2-2.89,2.71-5.93,4.4-8.12,2.26,1.19,7.54,3.81,11.56,4.54,5.27,.95,9.06,0,9.06,0l13.18-19.99-3.04,4.61,5.77,15.38s7.02-.19,13.46-2.28c4.99-1.62,9.27-5.53,10.94-7.2,.82,2.61,2.14,6.86,3.3,10.83-4.87,1.88-16.04,6.1-21.49,7.47-7.09,1.79-11.98,0-11.98,0l-1.73-11.6-8.46,12.4s-5.26,.55-15.78-2.13c-3.91-1-6.93-2.45-9.19-3.89Z"/><path class="cls-42" d="M152.64,289.87c-.58,.19-1.45,1.05-1.94,4.28-.02,.11-.04,.28-.08,.5,.42-3.49,1.38-6.61,3.57-5.29,4.41,2.68,9.19,11.01,10.13,20.23,.94,9.22,1.66,37.89,1.66,40.56,0,2.68-2.72,32.14-1.82,49.1,.91,16.96,5.46,30.23,11.35,33.26h0c-2.55,.43-5.14,.94-7.02,1.44-4.94,1.33-11.13,2.95-11.13,2.95,0,0-.29-13.8-.39-15.9-.1-2.09-3.2-32.65-3.78-39.79-.58-7.14,1.26-15.1,1.55-16.34,.29-1.24,.39-11.23,1.06-12.28,.68-1.05,1.36-8.13,1.36-8.13,0,0-1.54-11.16-1.93-18.01-.39-6.85-2.02-36.78-2.6-36.59Z"/><path class="cls-42" d="M132.78,436.92s0-2.86-3.87-5.62c-3.87-2.76-18.39,4-18.39,4,0,0-1.94-6.09-1.94-7.62s1.06-4.57,1.06-4.57c0,0,1.36-46.29,1.94-52.19,.58-5.9,5.03-23.87,6-29.11,.97-5.24-2.11-38.43-2.31-41.66-.19-3.24-1.94-12-1.94-12,0,0,3.08-11.03,7.31-16.53,1.76,.93,5.33,2.73,8.72,3.82l.12,1.14s-6.28,15.84-6.89,26.81c-.6,10.96,4.66,41.41,2.54,47.36-2.12,5.95-8.8,71.12-6.35,75.88,2.45,4.76,4.54,2.38,9.08,0,2.38-1.25,5.34,2.73,7.62,6.8,.05,.44,.12,.76,.21,.91,.77,1.43-2.9,2.57-2.9,2.57Z"/><path class="cls-25" d="M122.54,274.68l2.88,4.7s-.21,7.6-11.93,9.94l-1.98-3.19,11.04-11.45Z"/><path class="cls-24" d="M112.98,160.63c5.66,10.69,4.88,25.73,2.73,31.82-2.15,6.09-12,31.99-12,31.99,0,0,.21,1.9,.25,3.24,.04,1.33-.25,3.24-.25,3.24,0,0,3.32,2.05,3.1,3.97-.22,1.93-.37,3.78-.37,3.78,0,0,8.71,18.36,10.54,22.65,1.83,4.28,6.22,12.92,6.22,12.92,0,0,1.17,5.43-2.71,9.14-3.88,3.71-9.22,3.86-9.22,3.86,0,0-23.27-34.26-26.49-39.26-3.22-5-4.24-9.14-4.24-9.85s13.46-48.86,15.36-55.57c1.9-6.71,3.36-21.69,13.41-23.52,3.42-.62,3.66,1.6,3.66,1.6Z"/><path class="cls-4" d="M107.13,265.56c0-8.03-14.86-26.64-14.18-33.34,.58-5.68,18.47-35.61,23.86-44.52-.28,1.88-.66,3.5-1.1,4.74-2.15,6.09-12,31.99-12,31.99,0,0,.21,1.9,.25,3.24,.04,1.33-.25,3.24-.25,3.24,0,0,3.32,2.05,3.1,3.97-.22,1.93-.37,3.78-.37,3.78,0,0,8.71,18.36,10.54,22.65,1.83,4.28,6.22,12.92,6.22,12.92,0,0,1.17,5.43-2.71,9.14-3.88,3.71-9.22,3.86-9.22,3.86,0,0-8.09-11.82-15.06-22.35,5.47,2.18,10.91,3.94,10.91,.68Z"/><path class="cls-27" d="M168.72,433.97c4.69-1.27,13.92-2.53,15.48-2.65,.34,.54,.7,1.1,1.01,1.53-2.43,.47-7.23,1.67-8.57,4.07-1.82,3.25,12.56,5.72,16.04,5.23,2.05-.29,6.71-1.03,10.21-1.6,1.06,1.28,1.92,2.51,1.92,2.51,0,0-9.73,2.86-16.7,1.67-7.11-1.21-6.17-1.53-13-2.31-6.82-.79-16.12,1.5-16.05-.71,.04-1.05,.38-3.3,.74-5.36,2.25-.59,5.83-1.54,8.92-2.37Z"/><path class="cls-27" d="M120.84,447.64c-4.91-1.99-10.35-5.44-10.35-6.15,0-.76,.26-4.12,.43-6.27,1.69-.77,14.59-6.49,18.21-3.91,3.87,2.76,3.87,5.62,3.87,5.62,0,0,.02,0,.04-.01,.16,1.33,.3,2.68,.37,3.73-1.11-2.51-3.04-4.96-6.4-5.38-7.26-.89-8.39,7.37-7.56,9.75,.22,.63,.74,1.58,1.39,2.62Z"/><g><path class="cls-36" d="M115.06,112.6c-.4,2.07-.53,4.17-.38,6.27l.03,.43c.22,2.54,.1,5.08-.28,7.6-1.2-.33-2.47-1.08-3.72-2.45-3.31-3.6-2.76-9.82,.85-11.55,1.37-.65,2.56-.62,3.51-.34v.02Z"/><path class="cls-38" d="M115.06,112.6c-.4,2.07-.53,4.17-.38,6.27l.03,.43c.22,2.54,.1,5.08-.28,7.6-1.2-.33-2.47-1.08-3.72-2.45-3.31-3.6-2.76-9.82,.85-11.55,1.37-.65,2.56-.62,3.51-.34v.02Z"/><path class="cls-36" d="M171.62,119.89c-1.04,1.54-2.18,2.47-3.32,2.97-.75-2.43-1.25-4.93-1.41-7.47l-.03-.43c-.17-2.11-.61-4.18-1.32-6.17,.9-.43,2.07-.63,3.52-.19,3.83,1.17,5.3,7.24,2.57,11.29Z"/><path class="cls-38" d="M171.62,119.89c-1.04,1.54-2.18,2.47-3.32,2.97-.75-2.43-1.25-4.93-1.41-7.47l-.03-.43c-.17-2.11-.61-4.18-1.32-6.17,.9-.43,2.07-.63,3.52-.19,3.83,1.17,5.3,7.24,2.57,11.29Z"/><path class="cls-36" d="M160.21,123.55c-.97,1.8-1.11,3.95-.31,5.85,.61,1.43,1.17,3.04,1.27,4.27,.67,9-7.3,16.93-17.82,17.72-10.52,.79-19.59-5.87-20.26-14.86-.09-1.23,.23-2.92,.61-4.41,.51-1.99,.05-4.1-1.18-5.74-.3-.39-.56-.81-.8-1.24-.73-1.31-1.16-2.76-1.27-4.25-.45-5.97,4.27-11.2,10.55-11.67,2.03-.16,4.06,.21,5.9,1.07,2.16,1.02,4.7,.83,6.68-.5,1.69-1.13,3.65-1.79,5.67-1.94,6.28-.47,11.73,3.99,12.17,9.97,.11,1.49-.1,2.99-.62,4.39-.17,.46-.38,.91-.61,1.34Z"/><path class="cls-38" d="M160.21,123.55c-.97,1.8-1.11,3.95-.31,5.85,.61,1.43,1.17,3.04,1.27,4.27,.67,9-7.3,16.93-17.82,17.72-10.52,.79-19.59-5.87-20.26-14.86-.09-1.23,.23-2.92,.61-4.41,.51-1.99,.05-4.1-1.18-5.74-.3-.39-.56-.81-.8-1.24-.73-1.31-1.16-2.76-1.27-4.25-.45-5.97,4.27-11.2,10.55-11.67,2.03-.16,4.06,.21,5.9,1.07,2.16,1.02,4.7,.83,6.68-.5,1.69-1.13,3.65-1.79,5.67-1.94,6.28-.47,11.73,3.99,12.17,9.97,.11,1.49-.1,2.99-.62,4.39-.17,.46-.38,.91-.61,1.34Z"/><path class="cls-36" d="M170.19,106.49c-2.31-.71-4.07-.11-5.27,.71-.38-.88-.8-1.74-1.26-2.58-.34-.62-.7-1.22-1.09-1.81-3.92-6.05-10.11-10.85-16.93-12.57l-.4-3.57-4.11,2.91c-.17,0-.35-.01-.52-.02-.32,0-.64,0-.96,0l-.83-2.66-.24-.78c-.21,.02-.42,.04-.63,.07-3.98,.63-5.71,4.42-5.97,5.06-6.49,2.71-11.89,8.38-14.87,14.95-.29,.64-.56,1.29-.8,1.95-.33,.9-.62,1.81-.86,2.74-.05-.03-.11-.05-.17-.08-1.3-.58-3.06-.83-5.15,.16-4.6,2.2-5.29,10.1-1.09,14.67,1.71,1.86,3.44,2.82,5.07,3.19-.01,.09-.03,.18-.04,.27-.19,1.33-.23,2.68-.13,4.02,.7,9.29,8.15,16.77,18.23,19.55,2.37,.65,4.8,1.03,7.25,1.13,1.27,.06,2.55,.04,3.82-.04l.3-.02c15.41-1.16,27.14-12.26,26.2-24.81-.1-1.34-.34-2.66-.73-3.95-.03-.09-.05-.18-.08-.26,1.55-.6,3.12-1.81,4.53-3.91,3.47-5.15,1.61-12.86-3.26-14.34Zm-55.13,6.11c-.4,2.07-.53,4.17-.38,6.27l.03,.43c.22,2.54,.1,5.08-.28,7.6-1.2-.33-2.47-1.08-3.72-2.45-3.31-3.6-2.76-9.82,.85-11.55,1.37-.65,2.56-.62,3.51-.34v.02Zm45.76,9.61c-.17,.46-.37,.91-.61,1.34-.97,1.8-1.11,3.95-.31,5.85,.61,1.43,1.17,3.04,1.27,4.27,.67,9-7.3,16.93-17.82,17.72-10.52,.79-19.59-5.87-20.27-14.86-.09-1.23,.23-2.92,.61-4.41,.51-1.99,.05-4.1-1.18-5.74-.3-.39-.56-.81-.8-1.24-.73-1.31-1.16-2.76-1.27-4.25-.45-5.97,4.27-11.2,10.55-11.67,2.03-.16,4.06,.21,5.9,1.07,2.16,1.02,4.7,.83,6.68-.5,1.69-1.13,3.65-1.79,5.67-1.94,6.28-.47,11.73,3.99,12.17,9.97,.11,1.49-.1,2.99-.62,4.39Zm10.8-2.32c-1.04,1.54-2.18,2.47-3.32,2.97-.75-2.43-1.25-4.93-1.41-7.47l-.03-.43c-.17-2.11-.61-4.18-1.32-6.17,.9-.43,2.07-.63,3.52-.19,3.83,1.17,5.3,7.24,2.57,11.29h0Z"/><rect class="cls-28" x="137.97" y="127.99" width="1.83" height="4.17" rx=".92" ry=".92" transform="translate(-31.24 215.32) rotate(-69.74)"/><rect class="cls-28" x="142.51" y="128.73" width="4.17" height="1.83" rx=".92" ry=".92" transform="translate(-44.6 85.82) rotate(-28.84)"/><path class="cls-28" d="M131.49,124.4h0c-1.8,.14-3.37-1.14-3.49-2.85l-.08-1.03c-.13-1.71,1.23-3.2,3.03-3.34h0c1.8-.14,3.37,1.14,3.49,2.85l.08,1.03c.13,1.71-1.23,3.2-3.03,3.34Z"/><path class="cls-29" d="M130.95,117.19l.27,3.61c.06,.85,.85,1.49,1.75,1.42s1.58-.82,1.52-1.67l-.04-.51c-.13-1.71-1.69-2.98-3.49-2.85Z"/><ellipse class="cls-6" cx="132.28" cy="119.28" rx="1.09" ry="1.03" transform="translate(-8.55 10.22) rotate(-4.29)"/><path class="cls-28" d="M151.06,122.94h0c-1.8,.14-3.37-1.14-3.49-2.85l-.08-1.03c-.13-1.71,1.23-3.2,3.03-3.34h0c1.8-.14,3.37,1.14,3.49,2.85l.08,1.03c.13,1.71-1.23,3.2-3.03,3.34Z"/><path class="cls-29" d="M150.52,115.72l.27,3.61c.06,.85,.85,1.49,1.75,1.42s1.58-.82,1.52-1.67l-.04-.51c-.13-1.71-1.69-2.98-3.49-2.85Z"/><ellipse class="cls-6" cx="151.85" cy="117.81" rx="1.09" ry="1.03" transform="translate(-8.38 11.68) rotate(-4.29)"/><path class="cls-14" d="M159.87,143.74c-.62,0-1.72,.62-3.02,1.45-3.24,3.43-8.02,5.78-13.5,6.19h0c5.48-.41,10.26-2.76,13.5-6.19-2.69,1.72-6.27,4.4-8.43,4.76-2.77,.47-12.48-.82-16.63-1.58-1.1-1.08-2.18-2.32-3.14-3.74-4.99-7.36-5.01-21.29-3.41-33.43,.96-7.23,4.78-14.49,8.2-19.17,.46-.63,.92-1.22,1.36-1.75,1.76-2.13,3.28-3.4,4.01-3.39l-.25-.77c-.21,.01-.42,.04-.63,.07-3.98,.62-5.7,4.42-5.97,5.06-6.49,2.71-11.89,8.38-14.87,14.95-.29,.64-.56,1.29-.8,1.95-.33,.9-.62,1.81-.86,2.74-.05-.03-.11-.05-.17-.08-1.3-.58-3.06-.83-5.15,.16-4.6,2.19-5.29,10.09-1.09,14.67,1.72,1.86,3.44,2.82,5.07,3.19-.01,.09-.03,.18-.04,.27-.19,1.33-.23,2.68-.13,4.02,.7,9.29,8.15,16.77,18.23,19.55,2.37,.65,4.8,1.03,7.25,1.14,0,0-1-.46-2.47-1.38l8.8,1.07c.63-.09,1.26-.19,1.88-.31,2.22-1.04,7.73-3.65,7.84-3.77,.1-.11,4.24-1.96,6.24-2.85,.32-.27,.63-.55,.93-.83-.39-1.01-1.05-2.03-2.75-2.01Z"/><path class="cls-28" d="M142.82,142.32c-6.11,0-10.89-2.42-11.19-2.58-.62-.32-.86-1.08-.54-1.7,.32-.62,1.09-.86,1.7-.54,.15,.07,9.8,4.91,18.52,.22,.61-.33,1.38-.1,1.71,.51,.33,.61,.1,1.38-.51,1.71-3.3,1.77-6.66,2.37-9.69,2.37Z"/></g><polygon class="cls-4" points="150.44 205.39 153.72 254.62 152.64 255.78 148.98 204.21 150.44 205.39"/></g><path class="cls-24" d="M169.77,158.58s.19-.3,.7,0,.57,.16,1.18,1.02,5.05,5.34,10.01,10.8,10.09,12.47,14.65,18.83c4.56,6.36,6.34,12.23,6.92,18.58s-8.71,7.89-10.67,6.72-11.74-6.8-21.52-19.51c-9.78-12.71-11-16.42-11.7-16.87s-1.14-1.03-.98-1.09,2.32-.39,4.89-3.55,5.18-7.35,5.75-10.32,.76-4.6,.76-4.6Z"/><path class="cls-4" d="M192.56,214.52c1.96,1.17,11.25-.36,10.67-6.72-.12-1.31-.29-2.6-.53-3.87-.2,1.24-.63,2.56-1.5,3.46-2.12,2.2-6.36,2.2-13.37-3.19-7.01-5.39-11.25-14.09-14.83-18.66-3.31-4.21-8.49-11.54-9.27-12.65-.16,.2-.31,.41-.47,.6-2.57,3.16-4.73,3.49-4.89,3.55-.17,.06,.29,.64,.98,1.09,.69,.45,1.92,4.16,11.7,16.87,9.78,12.71,19.56,18.34,21.52,19.51Z"/><g><path class="cls-36" d="M147.26,151.09s2.2,.81,11.7-4.95c2.33-1.68,3.14,1.2,2.76,2.17s-2.49,2.76-2.76,3.5-9.73,1.78-11.7-.72Z"/><path class="cls-49" d="M145.33,171.84l-5.06-5.77-.33-.03-1.57-4.5h0c.22-.83,.88-3.35,.87-4.05-.02-.84-1.82-2.09-1.82-2.09l-1.3,.09s-1.92,.29-2.02,1.71,.1,3.49,1.08,3.87c.3,.12,.71,.23,1.13,.33h0c-.35,.71-.01,1.83,.78,3.48,.36,.74,1.01,1.14,1.61,1.36,.06,.55,.25,1.68,.89,2.44,.87,1.03,5.75,3.16,5.75,3.16Z"/><path class="cls-37" d="M156.63,173.69c4.39-10.18,10.47-16.73,11.13-16.33s-1.34,9.05-10.37,17.57l-1.01,.52,.26-1.77Z"/><path class="cls-36" d="M164.31,157.66s-.05-.13-.12-.29c-.5-1.12-2.48-5.12-6.2-5.85-4.25-.83-7.65-.49-9.23-.39s-14.41-1.19-14.41-1.19l-2.65-.51s-1.88-.09-2.18,1.25,1.68,2.59,3.11,3.29,5.1,1.99,5.62,2.81-.5,3.84-.35,4.48,2.62,9.07,8.47,10.98c5.85,1.91,14.89,1.08,14.89,1.08,0,0,7.44-4.88,5.88-9.44-1.56-4.56-2.82-6.22-2.82-6.22Z"/><path class="cls-25" d="M161.94,175.77c1.56-1.23,6.47-9.47,7.69-12.45,1.12-2.75,.42-4.38,.3-4.63l-2.17-1.32s-1.79,5.06-4.2,8.81c-2.41,3.75-6.81,8.84-6.88,8.69s-.05-1.17-.05-1.17c0,0-1.26,2.42-.72,2.62,.26,.09,1.54,.42,2.84,.74,.2-.01,1.73-.13,3.19-1.29Z"/></g></g><g><g><path class="cls-46" d="M215.75,111.68s-27.74-5.73-.45-13.44c27.29-7.71,29.04,7.35,29.04,7.35,0,0,14.35-25.58,40.64-.36,0,0-3.56-7.62,12.71-5.18,0,0,28.28-24.36,60.85,5.46,0,0,9.58-10.84,16.66-2.03,0,0,7.45-8.49,13.49,.3,0,0,16.71-18.67,34.61,.76,0,0,18.55-10.33,25.58,.56,0,0,14.34-1.41,15.85,5.89l1.19,6.18s6.03,9.2-4.16,8.46c0,0,11.17,3.71,3.8,16.18-7.37,12.47-19.64,4.07-19.64,4.07,0,0,6.7,17.8-14.45,12.14,0,0,9.58,12.84-3.68,25.87-13.26,13.03-31.17,1.22-31.17,1.22,0,0-2.05,6.88-11.31,2.87,0,0-1.56,16.06-20.73,14.08-19.16-1.98-22.72-13.47-22.72-13.47,0,0-17.93,20.58-48.54,12.02-30.61-8.56-31.13-40.41-31.13-40.41,0,0-12.83,9.24-29.72-9.65-16.89-18.88-4.28-25.88-4.28-25.88,0,0-20.2,7.03-12.42-12.97Z"/><g><path class="cls-44" d="M228.17,124.66l-2.38,2.16c1.17-1.49,2.38-2.16,2.38-2.16Z"/><path class="cls-44" d="M464.72,110.97l1.19,6.18s6.03,9.2-4.16,8.46l-2.7-2.83-18.32,7.38-138.39-8.96-74.16,3.44s-20.2,7.03-12.42-12.97c0,0-27.74-5.73-.45-13.44,27.29-7.71,29.04,7.35,29.04,7.35,0,0,14.35-25.58,40.64-.36,0,0-3.56-7.62,12.71-5.18,0,0,28.28-24.36,60.85,5.46,0,0,9.58-10.84,16.66-2.03,0,0,7.45-8.49,13.49,.3,0,0,16.71-18.67,34.61,.76,0,0,18.55-10.33,25.58,.56,0,0,14.34-1.41,15.85,5.89Z"/></g><path class="cls-44" d="M228.17,124.66s-8.18,.31-9.95-3.8c-1.76-4.11,3.21-11.42,3.21-11.42,0,0-9.97,.89-10.65-4.31-.68-5.2,28.35-8.64,32.42,8.49,0,0,24.53-20.38,42.97,.49,0,0,41.34-26.6,72.59,1.59,0,0,12.54-14.47,30.12-4.82,0,0,23.31-15.23,32.11,5.99,0,0,25.95-17.31,38.2-1.48,0,0,8.77,5.75-.16,7.41,0,0,7.64,23.51-16.71,18.53,0,0-3.56,16.6-31.04,16-27.48-.6-33.37-19.26-33.37-19.26,0,0,19.5,40.08-12.71,39-32.21-1.08-23.71-33.97-23.71-33.97,0,0-6.55,45.16-43.77,35.83-37.22-9.34-25.91-35.03-25.91-35.03,0,0-32.67,22.02-43.65-19.23Z"/><path class="cls-46" d="M271.82,143.89s3.44,28.98,36.36,31.92c0,0-25.05-6.85-36.36-31.92Z"/><path class="cls-46" d="M271.82,143.89s-34.3,9.62-39.97-19.4c0,0,8.81,20.57,39.97,19.4Z"/><path class="cls-46" d="M382.8,152.43s2.4,25.81-28.16,16.61c0,0,22.92,2.72,28.16-16.61Z"/><path class="cls-46" d="M411.65,141.35s16.33,12.63,30.69-.03c14.36-12.66-.95-24.11-.95-24.11,0,0,11.13,16.51-1.96,21.98-13.09,5.48-27.77,2.15-27.77,2.15Z"/><path class="cls-44" d="M272.33,120.8s.23-10.73,13.9-8.5c13.66,2.23,15.23,15.06,15.23,15.06,0,0-13.58-23.07-29.13-6.56Z"/><path class="cls-44" d="M230.1,120.13s-9.95-2.72-3.93-10.22c6.02-7.5,33.56,10.87,33.56,10.87,0,0-19.78-10.55-27.61-8.14-7.83,2.41-2.02,7.49-2.02,7.49Z"/><path class="cls-44" d="M311.75,114.38s24.74-12.92,45.39,8.53c0,0-14.45-33.79-45.39-8.53Z"/><path class="cls-44" d="M391.87,122.25s28.13-13.33,40.34,2.21c0,0-17.21-26.13-40.34-2.21Z"/></g><g><path class="cls-46" d="M208.27,98.68s-27.74,5.73-.45,13.44c27.29,7.71,29.04-7.35,29.04-7.35,0,0,14.35,25.58,40.64,.36,0,0-3.56,7.62,12.71,5.18,0,0,28.28,24.36,60.85-5.46,0,0,9.58,10.84,16.66,2.03,0,0,7.45,8.49,13.49-.3,0,0,16.71,18.67,34.61-.76,0,0,18.55,10.33,25.58-.56,0,0,14.34,1.41,15.85-5.89,0,0,8.91,6.73,9.41-2.28,.5-9.01-8.22-3.9-8.22-3.9,0,0,6.03-9.2-4.16-8.46,0,0,11.17-3.71,3.8-16.18-7.37-12.47-19.64-4.07-19.64-4.07,0,0,6.7-17.8-14.45-12.14,0,0,9.58-12.84-3.68-25.87-13.26-13.03-31.17-1.22-31.17-1.22,0,0-2.05-6.88-11.31-2.87,0,0-1.56-16.06-20.73-14.08-19.16,1.98-22.72,13.47-22.72,13.47,0,0-17.93-20.58-48.54-12.02-30.61,8.56-31.13,40.41-31.13,40.41,0,0-12.83-9.24-29.72,9.65-16.89,18.88-4.28,25.88-4.28,25.88,0,0-20.2-7.03-12.42,12.97Z"/><g><path class="cls-44" d="M220.69,85.7l-2.38-2.16c1.17,1.49,2.38,2.16,2.38,2.16Z"/><path class="cls-44" d="M457.23,99.39s8.91,6.73,9.41-2.28c.49-9.01-8.22-3.9-8.22-3.9,0,0,6.03-9.2-4.16-8.46l-2.7,2.83-18.32-7.38-138.39,8.96-74.16-3.44s-20.2-7.03-12.42,12.97c0,0-27.74,5.73-.45,13.44,27.29,7.71,29.04-7.35,29.04-7.35,0,0,14.35,25.58,40.64,.36,0,0-3.56,7.62,12.71,5.18,0,0,28.28,24.36,60.85-5.46,0,0,9.58,10.84,16.66,2.03,0,0,7.45,8.49,13.49-.3,0,0,16.71,18.67,34.61-.76,0,0,18.55,10.33,25.58-.56,0,0,14.34,1.41,15.85-5.89Z"/></g><path class="cls-44" d="M220.69,85.7s-8.18-.31-9.95,3.8c-1.76,4.11,3.21,11.42,3.21,11.42,0,0-9.97-.89-10.65,4.31-.68,5.2,28.35,8.64,32.42-8.49,0,0,24.53,20.38,42.97-.49,0,0,41.34,26.6,72.59-1.59,0,0,12.54,14.47,30.12,4.82,0,0,23.31,15.23,32.11-5.99,0,0,25.95,17.31,38.2,1.48,0,0,8.77-5.75-.16-7.41,0,0,7.64-23.51-16.71-18.53,0,0-3.56-16.6-31.04-16-27.48,.6-33.37,19.26-33.37,19.26,0,0,19.5-40.08-12.71-39-32.21,1.08-23.71,33.97-23.71,33.97,0,0-6.55-45.16-43.77-35.83-37.22,9.34-25.91,35.03-25.91,35.03,0,0-32.67-22.02-43.65,19.23Z"/><path class="cls-46" d="M264.34,66.47s3.44-28.98,36.36-31.92c0,0-25.05,6.85-36.36,31.92Z"/><path class="cls-46" d="M264.34,66.47s-34.3-9.62-39.97,19.4c0,0,8.81-20.57,39.97-19.4Z"/><path class="cls-46" d="M352.99,70.83s-.33-12.89-19.83-7.68c-19.5,5.21-12.59,16.17-12.59,16.17,0,0,2.74-10.24,13.45-12.05,10.71-1.82,14.42-1.53,18.98,3.56Z"/><path class="cls-46" d="M375.32,57.93s2.4-25.81-28.16-16.61c0,0,22.92-2.72,28.16,16.61Z"/><path class="cls-46" d="M404.16,69.01s16.33-12.63,30.69,.03c14.36,12.66-.95,24.11-.95,24.11,0,0,11.13-16.51-1.96-21.98-13.09-5.48-27.77-2.15-27.77-2.15Z"/><path class="cls-44" d="M264.84,89.56s.23,10.73,13.9,8.5c13.66-2.23,15.23-15.06,15.23-15.06,0,0-13.58,23.07-29.13,6.56Z"/><path class="cls-44" d="M222.61,90.23s-9.95,2.72-3.93,10.22c6.02,7.5,33.56-10.87,33.56-10.87,0,0-19.78,10.55-27.61,8.14-7.83-2.41-2.02-7.49-2.02-7.49Z"/><path class="cls-44" d="M304.26,95.98s24.74,12.92,45.39-8.53c0,0-14.45,33.79-45.39,8.53Z"/><path class="cls-44" d="M384.38,88.12s28.13,13.33,40.34-2.21c0,0-17.21,26.13-40.34,2.21Z"/></g><path class="cls-44" d="M466.64,97.11s17.11,13.11,.02,21.41c-17.08,8.3-25.28-13.24-25.28-13.24l17.48-8.87,7.77,.7Z"/></g><g><g><path class="cls-2" d="M318.55,108.56c0,21.92-17.77,39.69-39.69,39.69-1.14,0-2.28-.05-3.4-.15-20.33-1.72-36.28-18.77-36.28-39.54,0-21.92,17.77-39.69,39.69-39.69,4.67,0,9.3,.81,13.68,2.42,15.18,5.57,26,20.16,26,37.27Z"/><path class="cls-30" d="M319.28,104.07c0,22.32-18.1,40.42-40.42,40.42-1.17,0-2.32-.05-3.47-.15-20.7-1.76-36.95-19.11-36.95-40.27,0-22.32,18.1-40.42,40.42-40.42,4.75,0,9.47,.83,13.93,2.47,15.46,5.68,26.48,20.53,26.48,37.95Z"/><path class="cls-9" d="M313.44,104.07c0,19.1-15.49,34.59-34.59,34.59-1,0-1.99-.04-2.97-.13-17.71-1.5-31.62-16.35-31.62-34.46,0-19.1,15.49-34.59,34.59-34.59,4.07,0,8.1,.71,11.92,2.11,13.23,4.86,22.66,17.57,22.66,32.47Z"/><path class="cls-50" d="M275.94,108.45s.26-3.68-4.45-7.73c-6.73-5.78-7.51-7.06-1.92-6.15,5.58,.91,9.65,5.58,9.65,5.58"/><path class="cls-8" d="M264.19,118.63l-.17-2.35-4.64,.34c-.48,.04-.84,.45-.81,.93l.04,.61c.04,.48,.45,.84,.93,.81h0l4.64-.34Z"/><path class="cls-33" d="M264.19,118.63l-.09-1.18-5.52,.4,.02,.31c.04,.48,.45,.84,.93,.81h0l4.64-.34Z"/><path class="cls-2" d="M284.71,110.58c-.82-.89-1.73-1.57-2.76-2.21-.98-.61-2.05-1.09-3.08-1.59-.92-.45-1.75-.96-2.75-1.15-.05,.06-.09,.13-.14,.19s-.1,.13-.14,.19c-.1,.15-.21,.29-.32,.43-.01,.02-.03,.04-.04,.05-.05,.06-.09,.12-.14,.18s-.1,.13-.15,.19c-.11,.14-.23,.28-.34,.42-.35,.41-.71,.81-1.09,1.21-.06,.07-.13,.13-.19,.19-.1,.1-.21,.21-.31,.31-.08,.08-.15,.15-.23,.22s-.15,.14-.23,.21c-.01,.01-.03,.03-.05,.05-.12,.11-.23,.21-.35,.32-.03,.02-.05,.05-.08,.07-.04,.04-.09,.09-.14,.12l-.15,.12c-.12,.1-.24,.21-.36,.3-.17,.14-.35,.28-.53,.42-.14,.11-.29,.22-.43,.32-.03,.02-.05,.04-.08,.06-.12,.09-.24,.17-.36,.25h-.01c-.19,.14-.39,.28-.6,.41-.41,.27-.84,.53-1.28,.77-.79,.45-1.61,.85-2.45,1.19-.36,.15-.72,.3-1.09,.43h0c-.19,.07-.37,.13-.56,.2-.16,.05-.33,.11-.5,.16-.23,.07-.45,.13-.68,.2h0s-.06,.03-.17,.08c-.03,.02-.06,.04-.1,.05-.02,.01-.03,.02-.05,.03s-.04,.03-.06,.04c-.52,.33-.92,.8-1.16,1.37,0,.02-.01,.03-.02,.05-.14,.38-.19,.79-.15,1.19,.01,.23,.05,.46,.11,.69h0c.04,.17,.1,.32,.18,.47,.27,.51,.74,.87,1.28,1.13,1.09,.51,2.52,.61,3.37,.61,7.39-.12,14.31-3.67,18.72-9.6-.11-.12-.21-.24-.33-.36Z"/><path class="cls-30" d="M278.87,106.78c-.92-.45-1.75-.96-2.75-1.15-.05,.06-.09,.13-.14,.19s-.1,.13-.14,.19-.1,.13-.14,.19c-.06,.08-.12,.16-.18,.24-.01,.02-.03,.04-.04,.05-.05,.06-.09,.12-.14,.18s-.1,.13-.15,.19-.11,.13-.16,.19-.12,.15-.18,.22c-.11,.13-.22,.25-.33,.37-.02,.02-.04,.05-.06,.07-.05,.06-.1,.12-.15,.18-.12,.13-.23,.25-.35,.38-.07,.07-.13,.14-.2,.21s-.13,.13-.19,.19c-.1,.1-.21,.21-.31,.31-.08,.07-.15,.15-.23,.22s-.15,.14-.23,.21c-.01,.01-.03,.03-.05,.05-.12,.11-.23,.21-.35,.32-.03,.02-.05,.05-.08,.07l-.14,.12-.15,.12c-.12,.1-.24,.21-.36,.3-.11,.09-.22,.17-.33,.26-.06,.05-.13,.1-.2,.15-.14,.11-.29,.22-.43,.32-.03,.02-.05,.04-.08,.06-.12,.09-.24,.17-.36,.25h-.01c-.1,.07-.19,.14-.29,.2s-.21,.14-.31,.21c-.15,.1-.3,.19-.45,.28l-.24,.14c-.19,.12-.39,.23-.59,.35-.14,.07-.27,.15-.4,.22-.2,.11-.4,.21-.6,.31-.14,.07-.27,.13-.41,.2-.21,.1-.42,.2-.63,.29-.14,.06-.27,.12-.4,.18-.24,.1-.47,.19-.71,.28l-.27,.1s-.07,.03-.1,.04h0c-.19,.07-.37,.13-.56,.2-.16,.05-.33,.11-.5,.16-.23,.07-.45,.13-.68,.2h0s-.06,.03-.17,.08c-.03,.02-.06,.04-.1,.05-.02,.01-.03,.02-.05,.03s-.04,.03-.06,.04c-.52,.33-.92,.8-1.16,1.37,0,.02-.01,.03-.02,.05-.14,.38-.19,.79-.15,1.19,.01,.23,.05,.46,.11,.69h.04c2.17,.02,4.33-.26,6.42-.83,.28-.08,.57-.16,.85-.25,4.93-1.52,9.22-4.61,12.23-8.8,.1-.14,.2-.29,.3-.44-.8-.44-1.64-.83-2.45-1.23Z"/><path class="cls-3" d="M285.66,110.08l-4.63-1.63-5.54-1.95s.03-.04,.04-.05c.06-.08,.12-.16,.18-.24,.05-.06,.1-.13,.14-.19s.1-.13,.14-.19c.12-.16,.24-.33,.36-.5,.08-.11,.15-.22,.22-.33,.14-.22,.29-.45,.42-.67,.05-.08,.1-.15,.14-.23,.01-.02,.03-.05,.04-.07,.08-.14,.15-.27,.24-.41s.16-.3,.24-.44c.09-.17,.18-.34,.26-.52,.07-.14,.15-.29,.21-.43s.15-.31,.22-.47c.02-.05,.05-.1,.07-.15,.05-.1,.09-.21,.14-.31,0,0,0-.01,.01-.02,.06-.15,.13-.3,.19-.46,.01-.03,.03-.07,.04-.1l.03-.09c.04-.11,.08-.22,.12-.32,.03-.09,.07-.18,.1-.26s.07-.18,.1-.27l.02-.07c.02-.05,.04-.11,.05-.17s.04-.11,.06-.17c.12-.38,.24-.76,.35-1.14,.05-.19,.1-.39,.15-.58,.07-.28,.14-.56,.19-.84l.02-.09s0-.05,.01-.07c.07-.32,.12-.65,.18-.98,.02-.11,.03-.22,.05-.33s.03-.22,.05-.33c.02-.13,.03-.26,.05-.39,0-.08,.02-.16,.03-.24,.02-.14,.03-.29,.04-.43,.01-.13,.02-.26,.03-.39,.01-.23,.03-.46,.04-.69,0-.12,0-.23,0-.35v-.13s0-.09,0-.13c0-.09,0-.18,0-.26v-.3c0-.34-.01-.67-.03-1v-.05c-.02-.3-.04-.61-.07-.92h0c-.06-1.27-.55-4.22-.32-6.3,.1-.95,.36-1.72,.87-2.07,.06-.05,.13-.08,.2-.11h0c.08-.03,.15-.05,.23-.06h.01c.71-.12,1.41,.08,2.03,.42,1.26,.67,2.2,1.87,2.3,2,5.36,8.04,5.33,18.52-.08,26.53h0Z"/><path class="cls-51" d="M281.02,108.45c4.22-5.86,5.73-13.56,3.42-20.98-.57-1.82-1.35-3.56-2.33-5.2-.14-.23-.29-.47-.44-.7-.09-.15-.19-.29-.29-.43-.08,.01-.16,.03-.23,.06h0c-.07,.03-.14,.07-.2,.11-.52,.34-.77,1.12-.87,2.07-.23,2.08,.25,5.03,.32,6.29h0c.03,.32,.05,.63,.07,.93v.05c.02,.34,.03,.67,.03,1v.3c0,.09,0,.18,0,.26,0,.04,0,.09,0,.13v.13c0,.12,0,.24,0,.35-.01,.23-.02,.46-.04,.69,0,.13-.02,.26-.03,.39-.01,.14-.03,.29-.04,.43,0,.08-.02,.16-.03,.24-.01,.13-.03,.26-.05,.39-.02,.11-.03,.22-.05,.33s-.03,.22-.05,.33c-.05,.33-.11,.66-.18,.98,0,.02,0,.05-.01,.07l-.02,.09c-.06,.28-.12,.56-.19,.84-.05,.19-.1,.39-.15,.58-.11,.39-.22,.76-.35,1.14-.02,.06-.03,.12-.06,.17s-.04,.11-.05,.17l-.02,.07c-.03,.09-.06,.18-.1,.27s-.07,.18-.1,.26c-.04,.11-.08,.21-.12,.32l-.03,.09s-.03,.07-.04,.1c-.06,.15-.13,.31-.19,.46,0,0,0,.02-.01,.02-.04,.1-.09,.21-.14,.31-.02,.05-.04,.1-.07,.15-.08,.15-.15,.32-.22,.47s-.14,.29-.21,.43c-.09,.17-.17,.34-.26,.52-.08,.14-.16,.29-.24,.44s-.16,.27-.24,.41c-.01,.03-.03,.05-.04,.07-.05,.08-.09,.15-.14,.23-.13,.23-.28,.45-.42,.67-.08,.11-.15,.22-.22,.33-.12,.17-.23,.34-.36,.5-.05,.06-.1,.13-.14,.19s-.1,.13-.14,.19c-.06,.08-.12,.16-.18,.24-.01,.02-.03,.04-.04,.05l5.54,1.94Z"/><path class="cls-50" d="M275.48,106.5s4.98,1.87,6.96,3.85c3.12,3.12,4.31,4.08,2.5,13.47-.07,.34-.12,.69-.16,1.03-.18,1.56-.35,5.52,5.8-3.64,7.39-11.02-3.09-14.12-3.09-14.12-3.85-1.11-7.95-1.23-12.01-.59Z"/><path class="cls-51" d="M278.84,65.23c4.75,0,9.47,.83,13.93,2.47,15.19,5.58,26.11,20.04,26.46,37.08,0-.24,0-.48,0-.72,0-17.41-11.02-32.26-26.47-37.93-4.46-1.64-9.18-2.47-13.93-2.47-22.31,0-40.4,18.09-40.4,40.4,0,.27,0,.54,0,.81,.41-21.96,18.33-39.63,40.39-39.63Z"/><path class="cls-2" d="M278.86,70.83c4.07,0,8.1,.71,11.92,2.11,13.01,4.78,22.35,17.15,22.65,31.75,0-.21,0-.41,0-.62,0-14.91-9.44-27.62-22.66-32.47-3.82-1.4-7.86-2.12-11.92-2.11-19.1,0-34.59,15.49-34.59,34.59,0,.23,0,.46,0,.69,.35-18.8,15.7-33.93,34.58-33.93Z"/></g><g class="cls-15"><path class="cls-20" d="M312.69,81.94l-55.95,55.95c2.23,1.46,4.61,2.7,7.11,3.71l52.55-52.55c-1-2.5-2.25-4.88-3.71-7.11Z"/><path class="cls-20" d="M292.79,66.12c-.29-.11-.58-.21-.87-.31l-51.32,51.32c2.4,7.02,6.67,13.17,12.22,17.85l56.95-56.95c-4.49-5.32-10.32-9.47-16.98-11.91Z"/></g></g><g><path class="cls-44" d="M193.47,83.54c1.94,1.31,6.58,.02,5.29-2.81,3.48-1.68,3.74-9.29-1.42-9.55-1.53-3.48-16.31-6.19-16.54,1.42-4.1,.77-6.55,9.03-1.52,8.52,2.45,4.52,9.66,3.11,9.61,1.88,1.62,3.03,4.59,.55,4.59,.55Z"/><path class="cls-46" d="M197.34,71.18c-1.53-3.48-16.31-6.19-16.54,1.42-3.82,.72-6.2,7.92-2.45,8.49-.03-2.17,.23-7.88,4.03-5.69,.26-3.32,1.29-6.55,6.19-5.97,4.9,.58,6.32,5.03,6.32,5.03,3.42-1.68,5.9-1.19,5.82,4.14,1.33-2.86,.52-7.24-3.37-7.43Z"/></g><g><path class="cls-44" d="M164.29,96.42c-1.29,.88-4.39,.02-3.53-1.88-2.32-1.12-2.49-6.19,.95-6.36,1.02-2.32,10.87-4.13,11.03,.95,2.73,.52,4.37,6.02,1.01,5.68-1.63,3.01-6.44,2.07-6.4,1.25-1.08,2.02-3.06,.37-3.06,.37Z"/><path class="cls-46" d="M161.71,88.18c1.02-2.32,10.87-4.13,11.03,.95,2.54,.48,4.13,5.28,1.63,5.66,.02-1.44-.16-5.25-2.69-3.79-.17-2.21-.86-4.36-4.13-3.98-3.27,.39-4.21,3.35-4.21,3.35-2.28-1.12-3.93-.79-3.88,2.76-.89-1.91-.35-4.82,2.25-4.95Z"/></g><g><path class="cls-31" d="M437.32,107.35c0,21.76-17.64,39.41-39.41,39.41-1.14,0-2.27-.05-3.38-.15-20.18-1.71-36.03-18.63-36.03-39.26,0-21.76,17.64-39.41,39.41-39.41,4.64,0,9.23,.81,13.59,2.41,15.07,5.53,25.82,20.02,25.82,37Z"/><path class="cls-21" d="M438.04,102.9c0,22.16-17.97,40.13-40.13,40.13-1.16,0-2.31-.05-3.44-.15-20.55-1.74-36.69-18.98-36.69-39.98,0-22.16,17.97-40.13,40.13-40.13,4.72,0,9.4,.82,13.84,2.45,15.35,5.64,26.29,20.38,26.29,37.68Z"/><g id="Layer_1"><g id="_1421344023328"><path class="cls-31" d="M431.22,111.2c-4.59,18.4-23.22,29.59-41.62,25-18.39-4.59-29.59-23.22-25-41.62,4.58-18.4,23.22-29.6,41.61-25.01,18.4,4.59,29.59,23.22,25.01,41.62h0Z"/><path class="cls-6" d="M414.6,97.6c.75-5-3.06-7.69-8.27-9.48l1.69-6.77-4.12-1.03-1.64,6.6c-1.08-.27-2.2-.53-3.3-.78l1.66-6.64-4.12-1.03-1.69,6.77c-.9-.2-1.78-.41-2.63-.62v-.02l-5.68-1.42-1.1,4.4s3.06,.7,2.99,.74c1.67,.42,1.97,1.52,1.92,2.4l-1.92,7.72c.11,.03,.26,.07,.43,.14-.14-.03-.28-.07-.44-.11l-2.7,10.81c-.2,.51-.72,1.27-1.89,.98,.04,.06-3-.75-3-.75l-2.05,4.72,5.37,1.34c1,.25,1.98,.51,2.94,.76l-1.71,6.85,4.12,1.03,1.69-6.78c1.13,.31,2.22,.59,3.29,.85l-1.68,6.75,4.12,1.03,1.71-6.84c7.03,1.33,12.32,.79,14.54-5.57,1.79-5.12-.09-8.07-3.79-10,2.69-.62,4.72-2.39,5.27-6.05h0Zm-9.42,13.21c-1.27,5.12-9.9,2.35-12.69,1.66l2.26-9.08c2.8,.7,11.76,2.08,10.43,7.42h0Zm1.28-13.29c-1.16,4.66-8.34,2.29-10.67,1.71l2.05-8.23c2.33,.58,9.82,1.66,8.61,6.52h0Z"/></g></g><path class="cls-11" d="M397.89,64.33c4.72,0,9.4,.82,13.83,2.45,15.09,5.54,25.92,19.89,26.27,36.82,0-.24,0-.48,0-.72,0-17.29-10.94-32.03-26.28-37.66-4.43-1.62-9.11-2.45-13.83-2.45-22.15,0-40.11,17.96-40.11,40.11,0,.27,0,.54,0,.8,.41-21.8,18.2-39.35,40.1-39.35Z"/><path class="cls-12" d="M397.91,69.89c4.04,0,8.05,.7,11.84,2.1,12.92,4.74,22.19,17.03,22.49,31.52,0-.2,0-.41,0-.61,0-14.8-9.37-27.42-22.5-32.24-3.79-1.39-7.8-2.1-11.84-2.1-18.96,0-34.34,15.38-34.34,34.34,0,.23,0,.46,0,.69,.35-18.66,15.58-33.69,34.33-33.69Z"/><g class="cls-16"><path class="cls-20" d="M431.5,80.92l-55.56,55.56c2.21,1.45,4.57,2.68,7.06,3.68l52.18-52.18c-1-2.48-2.23-4.85-3.68-7.06Z"/><path class="cls-20" d="M411.75,65.21c-.29-.11-.58-.21-.87-.31l-50.96,50.96c2.38,6.97,6.62,13.07,12.14,17.72l56.54-56.54c-4.45-5.28-10.25-9.4-16.86-11.83Z"/></g></g><rect class="cls-1" x="324.97" y="94.79" width="27.12" height="8.85" rx="4.42" ry="4.42"/><rect class="cls-1" x="324.97" y="108.58" width="27.12" height="8.85" rx="4.42" ry="4.42"/></g></g></svg>