<?xml version="1.0" encoding="UTF-8"?><svg xmlns="http://www.w3.org/2000/svg" xmlns:xlink="http://www.w3.org/1999/xlink" viewBox="0 0 500 500"><defs><style>.cls-1{fill:#ffb300;}.cls-2{fill:#ffd770;}.cls-3{fill:#262626;}.cls-4{fill:#959593;}.cls-5,.cls-6{fill:#fff;}.cls-7{fill:#ac752c;}.cls-8{fill:#faf4e6;}.cls-9{fill:#f9cd6b;}.cls-10{fill:#fabe76;}.cls-11{fill:#b96e14;}.cls-12{fill:#e6646e;}.cls-13,.cls-14{isolation:isolate;}.cls-15{opacity:.33;}.cls-16{opacity:.2;}.cls-17{fill:#698e59;}.cls-18,.cls-19{fill:#407035;}.cls-20{fill:#fdfbf5;}.cls-19{opacity:.4;}.cls-21{fill:#f9a948;}.cls-22{fill:#603813;}.cls-23{fill:#ff97b4;}.cls-24{fill:#5b3c23;}.cls-25{fill:#333;}.cls-26{fill:#e6e6e6;}.cls-27{fill:#42210b;}.cls-14{opacity:.35;}.cls-14,.cls-28{fill:#4e3f3f;}.cls-29{fill:#724e30;}.cls-30{fill:#5d5360;}.cls-31{fill:#ffd54f;}.cls-32{fill:#684829;}.cls-33{fill:#f7931a;}.cls-34{fill:#aa6a59;}.cls-35{fill:#3a1616;}.cls-36{fill:#7d551f;}.cls-37{clip-path:url(#clippath);}.cls-6{opacity:.22;}.cls-38{fill:none;}.cls-39{fill:#a16552;}.cls-40{fill:#ccc;}.cls-41{fill:#f5dcb4;}.cls-42{fill:#c7c7c4;}.cls-43{fill:#22b322;}.cls-44{fill:#794c3e;}.cls-45{fill:#1a1a1a;}.cls-46{fill:#353535;opacity:.1;}.cls-47{fill:#f7d892;}.cls-48{fill:url(#Naamloos_verloop_9);mix-blend-mode:multiply;opacity:.19;}.cls-49{fill:#f2f2f2;}.cls-50{fill:#dddddc;}.cls-51{fill:#ffca28;}.cls-52{fill:#ffea8c;}.cls-53{fill:#452f0c;}</style><linearGradient id="Naamloos_verloop_9" x1="239.15" y1="459.17" x2="222.01" y2="410.48" gradientTransform="matrix(1, 0, 0, 1, 0, 0)" gradientUnits="userSpaceOnUse"><stop offset="0" stop-color="#575756"/><stop offset="1" stop-color="#3c3c3b"/></linearGradient><clipPath id="clippath"><path class="cls-38" d="M220.26,103.95l-.15,.24,2.23-3.62c-2.54-3.92-6.03-9.6-6.03-9.6h-.48c-.44,0-3.75,5.77-6,9.36l3.51,4.66-1.43,21.7c2.66,5.01,6.26,11.23,9.16,16.15,1.43-4.03,3.5-10.02,5.29-15.91-1.75-6.81-4.61-17.47-6.1-22.97Z"/></clipPath></defs><g class="cls-13"><g id="Laag_2"><ellipse class="cls-4" cx="250" cy="440.5" rx="160.5" ry="50"/><g><path class="cls-50" d="M133.77,411.28l-3.88-1.53c-5.31,1.91-10.08,3.95-14.25,6.1h29.72l-11.59-4.57Z"/><path class="cls-50" d="M162.54,400.96c-2.12,.42-4.21,.86-6.25,1.32h9.59l-3.34-1.32Z"/><path class="cls-50" d="M204.03,415.86h52.09l-24.76-9.77-6.43-2.54h-74.11c-6.86,1.67-13.2,3.52-18.96,5.51l17.23,6.8h54.94Z"/><path class="cls-50" d="M230.5,471.47h-81.35c27.02,6.79,62.28,10.9,100.85,10.9,2.67,0,5.33-.02,7.96-.06l-5.31-2.1-22.15-8.74Z"/><path class="cls-50" d="M127.71,429.44h107.02l-9.56-3.77-21.63-8.54H113.25c-2.37,1.32-4.52,2.67-6.43,4.07l5.29,2.09,15.6,6.15Z"/><path class="cls-50" d="M158.41,443.03h55.8l-31.19-12.31H97.82c-1.24,2.28-1.89,4.62-1.89,7,0,.3,.02,.59,.04,.88l11.22,4.43h51.22Z"/><path class="cls-50" d="M96.17,440.15c.18,.97,.47,1.93,.86,2.88h6.44l-7.3-2.88Z"/><path class="cls-50" d="M141.62,456.61h51.22l-16.73-6.6-14.46-5.71H97.61c2.21,4.34,6.58,8.47,12.77,12.31h31.23Z"/><path class="cls-50" d="M152.77,462.48l-11.64-4.59h-28.61c8.09,4.62,18.88,8.79,31.77,12.31h28.03l-19.55-7.71Z"/><path class="cls-50" d="M108.39,423.29l-2.85-1.12c-3,2.34-5.34,4.77-6.96,7.28h25.4l-15.59-6.15Z"/><polygon class="cls-50" points="251.88 457.89 199.8 457.89 196.08 457.89 144.85 457.89 159 463.47 176.04 470.2 227.27 470.2 230.99 470.2 283.07 470.2 251.88 457.89"/><path class="cls-50" d="M370.11,417.14h-52.08l31.19,12.31h52.2c-2.82-4.36-7.82-8.49-14.66-12.31h-16.64Z"/><path class="cls-50" d="M290.03,471.47h-55.8l18.14,7.16,9.16,3.61c31.32-.67,60.03-4.05,83.35-9.34l-3.62-1.43h-51.22Z"/><path class="cls-50" d="M399.01,449.09c1.42-1.56,2.55-3.16,3.38-4.79h-15.52l12.14,4.79Z"/><path class="cls-50" d="M370.59,415.86h13.77c-9.11-4.69-21.06-8.86-35.18-12.31h-9.78l31.19,12.31Z"/><path class="cls-50" d="M347.21,472.36c1.23-.29,2.44-.58,3.63-.88h-5.87l2.23,.88Z"/><path class="cls-50" d="M310.55,457.89h-54.94l31.19,12.31h68.92c7.65-2.09,14.55-4.41,20.6-6.91l-13.68-5.4h-52.09Z"/><path class="cls-50" d="M373.07,460.54l5.04,1.99c3.43-1.49,6.56-3.03,9.37-4.64h-21.12l6.72,2.65Z"/><path class="cls-50" d="M276.12,444.31l31.19,12.31h82.3c3.34-2.07,6.15-4.22,8.38-6.45l-14.84-5.86h-107.03Z"/><path class="cls-50" d="M348.73,430.72h-51.22l31.19,12.31h74.28c.71-1.74,1.09-3.51,1.09-5.31,0-2.38-.65-4.72-1.89-7h-53.45Z"/><polygon class="cls-50" points="252.36 456.61 303.59 456.61 282.52 448.3 272.4 444.3 221.17 444.3 217.45 444.3 165.37 444.3 189.75 453.92 196.56 456.61 248.65 456.61 252.36 456.61"/><polygon class="cls-50" points="263.08 417.14 259.36 417.14 207.27 417.14 238.46 429.44 290.55 429.44 294.27 429.44 345.49 429.44 314.3 417.14 263.08 417.14"/><polygon class="cls-50" points="366.87 415.86 335.68 403.55 283.6 403.55 279.87 403.55 228.65 403.55 232.66 405.13 259.84 415.86 366.87 415.86"/><polygon class="cls-50" points="293.78 430.72 241.69 430.72 237.97 430.72 237.97 430.72 186.75 430.72 217.94 443.03 272.88 443.03 324.97 443.03 293.78 430.72"/><path class="cls-50" d="M332.45,402.27h11.26c-24.2-5.38-54.06-8.73-86.56-9.16l23.21,9.16h52.09Z"/><path class="cls-50" d="M221.7,402.27h54.94l-23.31-9.2c-1.11,0-2.22-.01-3.33-.01-31.41,0-60.61,2.73-84.97,7.4l4.58,1.81h52.09Z"/><polygon class="cls-42" points="169.61 402.27 165.03 400.47 165.03 400.47 169.61 402.27 169.61 402.27"/><path class="cls-42" d="M280.36,402.27h0l-23.21-9.16c-1.27-.02-2.54-.03-3.82-.04l23.31,9.2h3.72Z"/><path class="cls-42" d="M169.61,402.27l-4.58-1.81c-.83,.16-1.66,.32-2.49,.49l3.34,1.32h3.72Z"/><rect class="cls-42" x="351.28" y="392.94" width="0" height="33.53" transform="translate(-158.77 586.08) rotate(-68.47)"/><path class="cls-42" d="M370.59,415.86h0l-31.19-12.31h9.78c-1.79-.44-3.62-.86-5.48-1.28h-7.54l34.43,13.59Z"/><polygon class="cls-42" points="231.36 406.09 256.12 415.86 256.12 415.86 231.36 406.09"/><polygon class="cls-42" points="314.79 415.86 370.59 415.86 336.17 402.27 332.45 402.27 280.36 402.27 280.36 402.27 276.64 402.27 225.42 402.27 228.65 403.55 279.87 403.55 283.6 403.55 335.68 403.55 335.68 403.55 366.87 415.86 366.87 415.86 259.84 415.86 232.66 405.13 259.84 415.86 311.07 415.86 314.79 415.86"/><polygon class="cls-42" points="145.36 415.86 145.37 415.86 133.77 411.28 145.36 415.86"/><polygon class="cls-42" points="149.09 415.86 131.86 409.06 131.86 409.06 149.08 415.86 149.09 415.86"/><path class="cls-42" d="M169.12,403.55h55.81l6.43,2.54,24.76,9.77h3.72l-27.18-10.73-4.01-1.58-3.23-1.28h-69.12c-1.86,.41-3.68,.84-5.48,1.28h18.3Z"/><path class="cls-42" d="M145.37,415.86h3.72l-17.23-6.8c-.66,.23-1.32,.46-1.96,.69l3.88,1.53,11.59,4.57Z"/><rect class="cls-42" x="329.89" y="406.53" width="0" height="33.53" transform="translate(-184.94 574.77) rotate(-68.46)"/><path class="cls-42" d="M314.79,415.86l34.42,13.58h0l-31.19-12.31h68.72c-.77-.43-1.57-.85-2.38-1.28h-69.58Z"/><polygon class="cls-42" points="225.18 425.67 234.73 429.44 234.74 429.44 225.18 425.67"/><polygon class="cls-42" points="207.27 417.14 259.36 417.14 263.08 417.14 314.3 417.14 314.3 417.14 345.49 429.44 349.21 429.44 314.79 415.86 311.07 415.86 259.84 415.86 204.04 415.86 238.46 429.44 238.46 429.44 207.27 417.14"/><polygon class="cls-42" points="123.99 429.44 123.99 429.44 108.39 423.29 123.99 429.44"/><polygon class="cls-42" points="127.71 429.44 127.71 429.44 112.11 423.29 127.71 429.44"/><path class="cls-42" d="M152.32,417.14h51.22l21.63,8.54,9.56,3.77h3.72l-34.42-13.58H115.64c-.82,.42-1.62,.85-2.39,1.28h39.07Z"/><path class="cls-42" d="M123.99,429.44h3.72l-15.59-6.15-5.29-2.09c-.44,.32-.86,.64-1.28,.96l2.85,1.12,15.6,6.15Z"/><polygon class="cls-42" points="328.7 443.03 379.92 443.03 383.64 443.03 402.97 443.03 402.97 443.03 328.69 443.03 328.7 443.03"/><path class="cls-42" d="M349.21,429.44h-54.94l3.24,1.28h104.67c-.23-.43-.49-.85-.76-1.28h-52.2Z"/><polygon class="cls-42" points="186.75 430.72 237.97 430.72 237.97 430.72 241.69 430.72 293.78 430.72 324.97 443.03 272.88 443.03 272.89 443.03 328.7 443.03 328.69 443.03 297.51 430.72 294.27 429.44 290.55 429.44 238.46 429.44 238.46 429.44 234.74 429.44 234.73 429.44 183.51 429.44 217.94 443.03 217.94 443.03 186.75 430.72"/><path class="cls-42" d="M130.95,430.72h52.08l31.19,12.31h3.72l-34.43-13.59H98.59c-.27,.42-.53,.85-.76,1.28h33.12Z"/><path class="cls-42" d="M107.19,443.03h0l-11.22-4.43c.03,.52,.1,1.03,.19,1.54l7.3,2.88h3.72Z"/><polygon class="cls-42" points="383.15 444.31 397.99 450.16 397.99 450.16 383.15 444.31 383.15 444.31"/><path class="cls-42" d="M399.01,449.09h0l-12.14-4.79h15.52c.22-.42,.41-.85,.58-1.28h-19.33l15.37,6.06Z"/><polygon class="cls-42" points="272.4 444.3 282.52 448.3 272.4 444.3 272.4 444.3"/><path class="cls-42" d="M383.64,443.03h-110.75l34.42,13.58h0l-31.19-12.31h107.03l14.84,5.86c.35-.35,.69-.71,1.02-1.07l-15.37-6.06Z"/><polygon class="cls-42" points="161.65 444.3 176.11 450.01 161.65 444.3 161.65 444.3"/><polygon class="cls-42" points="217.45 444.3 221.17 444.3 272.4 444.3 272.4 444.3 282.52 448.3 303.59 456.61 307.31 456.61 272.89 443.03 272.88 443.03 217.94 443.03 217.94 443.03 214.22 443.03 162.14 443.03 189.75 453.92 165.37 444.3 217.45 444.3"/><path class="cls-42" d="M110.43,444.3h51.22l14.46,5.71,16.73,6.6h3.72l-6.81-2.69-27.61-10.9H97.03c.17,.43,.37,.85,.58,1.28h12.82Z"/><path class="cls-42" d="M373.07,460.54l-6.72-2.65h21.12c.74-.42,1.45-.85,2.14-1.28h-26.5l9.95,3.93Z"/><path class="cls-42" d="M363.12,456.61h-110.76l34.43,13.59h0l-31.19-12.31h107.03l13.68,5.4c.61-.25,1.21-.5,1.8-.76l-5.04-1.99-9.95-3.93Z"/><polygon class="cls-42" points="141.13 457.89 152.77 462.48 141.13 457.89 141.13 457.89"/><polygon class="cls-42" points="196.08 457.89 199.8 457.89 251.88 457.89 283.07 470.2 286.79 470.2 252.36 456.61 248.65 456.61 196.56 456.61 196.56 456.61 192.84 456.61 141.62 456.61 159 463.47 144.85 457.89 196.08 457.89"/><path class="cls-42" d="M141.13,457.89l11.64,4.59,19.55,7.71h3.72l-17.05-6.73-17.38-6.86h-31.23c.69,.43,1.4,.85,2.14,1.28h28.61Z"/><path class="cls-42" d="M347.21,472.36h0l-2.23-.88h5.87c1.65-.42,3.27-.84,4.87-1.28h-13.97l5.47,2.16Z"/><polygon class="cls-42" points="230.5 471.47 230.5 471.47 252.65 480.22 230.5 471.47"/><path class="cls-42" d="M341.74,470.2h-110.75l21.37,8.43-18.14-7.16h107.03l3.62,1.43c.79-.18,1.57-.36,2.34-.54l-5.47-2.16Z"/><path class="cls-42" d="M261.52,482.25l-9.16-3.61-21.37-8.43h-86.7c1.59,.43,3.21,.86,4.86,1.28h81.35l22.15,8.74,5.31,2.1c1.19-.02,2.37-.04,3.56-.07Z"/></g><g><g><path class="cls-46" d="M358.24,430.74c0,1.34-5.87,2.43-13.11,2.43s-13.11-1.09-13.11-2.43,5.87-2.43,13.11-2.43,13.11,1.09,13.11,2.43Z"/><path class="cls-46" d="M354.53,430.24c0,1.07-4.21,1.93-9.4,1.93s-9.4-.87-9.4-1.93,4.21-1.93,9.4-1.93,9.4,.87,9.4,1.93Z"/><path class="cls-17" d="M339,429.65c.26-2.73-2.42-9.56-13.11-9.79,0,0,11.91-2.58,15.45,4.22,0,0-1.62-11-17.02-11.87,0,0,16.44-1.06,19.42,9.59,.78,2.8,1.01,4.12,1.01,4.12,0,0-2.15-15.73,1.41-16.32,0,0-.85,10.57,1.77,12.21,0,0-.33-7.46,6.29-7.88,0,0-5.23,5.46-4.12,11.58,0,0-.47-4.08,6.55-6.21,0,0-6.08,5.1-5.83,10.96,0,0-12.02,1.63-11.81-.61Z"/><path class="cls-18" d="M350.81,430.26c-2.51,.35-5.04,.63-7.59,.68-.64,0-1.28,0-1.91-.05-.64-.06-1.28-.13-1.9-.43-.15-.08-.3-.19-.42-.34-.05-.09-.1-.18-.12-.27,0-.11-.02-.2-.02-.27v-.48l-.04-.45c-.08-.61-.25-1.21-.5-1.78-.24-.57-.53-1.13-.89-1.63-.34-.52-.76-.99-1.19-1.43-.23-.21-.45-.43-.69-.63l-.74-.56c-.25-.18-.53-.33-.79-.49-.26-.17-.54-.31-.83-.44-.28-.13-.56-.27-.85-.39l-.89-.31c-.58-.23-1.21-.32-1.81-.48-.61-.11-1.24-.19-1.86-.28l-1.88-.11-1.95-.11,1.9-.38c1.42-.28,2.85-.43,4.29-.48,1.44-.04,2.88,.03,4.31,.28,1.42,.26,2.83,.68,4.09,1.43,.32,.18,.62,.39,.91,.61,.29,.22,.56,.47,.82,.73,.25,.27,.5,.54,.7,.85,.23,.29,.4,.62,.58,.93l-.43,.14c-.08-.43-.19-.88-.35-1.31-.13-.44-.33-.85-.5-1.28-.21-.41-.39-.83-.64-1.22-.23-.4-.47-.79-.75-1.15l-.4-.56-.46-.52-.46-.52c-.16-.16-.34-.31-.5-.47-.34-.31-.66-.64-1.05-.9-.37-.27-.73-.56-1.12-.81l-1.2-.69c-.39-.24-.84-.39-1.25-.59-.42-.18-.84-.4-1.29-.52l-1.32-.43c-.44-.17-.9-.22-1.35-.33l-1.36-.29-2.77-.33,2.78,.24,1.38,.25c.46,.1,.93,.14,1.37,.29l1.35,.39c.46,.11,.88,.32,1.31,.49,.43,.19,.88,.33,1.29,.57l1.23,.69c.4,.24,.77,.54,1.16,.8,.4,.26,.73,.59,1.09,.9,.18,.16,.36,.31,.53,.47l.48,.52,.48,.52,.43,.56c.3,.37,.55,.77,.8,1.17,.26,.39,.45,.83,.68,1.24,.19,.43,.39,.87,.53,1.32,.16,.45,.28,.9,.38,1.39l.25,1.26-.67-1.12c-.18-.29-.34-.6-.55-.87-.19-.29-.43-.54-.66-.79-.25-.24-.5-.48-.78-.68-.27-.21-.56-.41-.86-.58-1.2-.7-2.56-1.11-3.94-1.35-1.38-.24-2.8-.3-4.21-.25-1.41,.04-2.82,.18-4.2,.45l-.05-.49,1.92,.12c.63,.1,1.27,.18,1.9,.3,.62,.17,1.26,.26,1.86,.5l.91,.32c.3,.12,.59,.27,.88,.41,.3,.13,.58,.28,.85,.46,.27,.17,.56,.32,.82,.52l.77,.59c.25,.21,.47,.44,.71,.67,.45,.46,.87,.96,1.22,1.51,.36,.54,.66,1.12,.9,1.72,.24,.6,.41,1.23,.49,1.88l.04,.5v.48c-.02,.18,0,.25,.06,.36,.08,.1,.19,.18,.31,.25,.53,.26,1.17,.35,1.79,.42,.63,.06,1.26,.09,1.89,.1,2.53,.02,5.07-.18,7.59-.46Z"/><path class="cls-18" d="M356.64,419.3s-.14,.15-.37,.4c-.24,.25-.56,.64-.95,1.09-.38,.46-.82,1-1.25,1.6-.23,.29-.43,.62-.65,.94-.22,.32-.42,.66-.63,.99-.19,.34-.39,.68-.56,1.03-.15,.35-.35,.68-.47,1.03-.12,.35-.29,.67-.37,.99-.09,.32-.21,.63-.26,.92-.05,.29-.11,.55-.17,.79-.04,.24-.05,.45-.07,.62-.04,.35-.06,.55-.06,.55,0,0-.01-.2-.04-.55,0-.18-.03-.39-.02-.64,.02-.24,.04-.52,.07-.83,.03-.31,.12-.62,.19-.97,.06-.35,.2-.69,.31-1.05,.11-.37,.29-.72,.45-1.09,.17-.36,.37-.71,.56-1.07,.22-.34,.43-.69,.66-1.01,.23-.32,.46-.64,.71-.93,.47-.59,.98-1.09,1.4-1.52,.87-.84,1.54-1.29,1.54-1.29Z"/><path class="cls-18" d="M350,424.91c.06,.2,.11,.4,.16,.6l-.13,.02c-.06-.42-.03-.84,.07-1.24,.08-.41,.26-.8,.44-1.17l.33-.53,.39-.49c.29-.3,.57-.61,.91-.85,.32-.27,.67-.48,1.02-.7,.17-.11,.37-.19,.55-.29,.18-.09,.37-.18,.56-.26l.58-.21c.19-.06,.38-.14,.58-.19,.4-.09,.79-.2,1.19-.28-.36,.18-.74,.34-1.1,.5l-1.07,.54-.51,.3c-.17,.1-.35,.19-.51,.3-.32,.23-.66,.43-.95,.69-.15,.13-.31,.24-.44,.38-.14,.14-.29,.27-.42,.41l-.38,.44-.33,.47c-.2,.33-.39,.67-.51,1.04-.13,.36-.23,.75-.25,1.14l-.13,.02c-.01-.2-.02-.41-.02-.62Z"/><path class="cls-18" d="M354.21,413.93s-.46,.61-1.07,1.55c-.31,.47-.64,1.04-.98,1.65-.34,.61-.67,1.28-.95,1.97-.13,.35-.3,.68-.4,1.03-.11,.35-.24,.68-.32,1.02-.09,.34-.19,.66-.24,.98-.05,.31-.13,.61-.15,.89-.02,.28-.06,.53-.09,.76,0,.23,0,.43-.01,.59-.01,.33-.02,.52-.02,.52,0,0-.03-.19-.08-.52-.02-.17-.05-.37-.08-.6,0-.23-.02-.5-.01-.78-.01-.29,.03-.6,.06-.93,.02-.33,.08-.67,.16-1.03,.07-.36,.17-.71,.29-1.07,.1-.37,.26-.72,.39-1.08,.3-.71,.65-1.39,1.04-2,.37-.61,.78-1.14,1.14-1.59,.72-.89,1.31-1.38,1.31-1.38Z"/><path class="cls-18" d="M347.5,421.44c.14,.13,.3,.24,.45,.33l-.08,.05c-.05-.47-.06-.95-.01-1.42,.03-.48,.1-.95,.2-1.42,.05-.24,.12-.47,.19-.69,.06-.23,.15-.46,.25-.68,.1-.22,.19-.45,.32-.65,.13-.21,.22-.43,.38-.62,.15-.19,.3-.39,.45-.57l.53-.51c.18-.17,.4-.28,.59-.43,.19-.15,.42-.25,.64-.34,.23-.09,.44-.21,.67-.27l.7-.17c.23-.06,.47-.06,.71-.08,.24-.01,.47-.02,.71-.03-.23,.06-.46,.11-.69,.16-.23,.05-.46,.08-.67,.18l-.65,.23c-.22,.08-.4,.21-.61,.31l-.3,.16-.27,.2c-.17,.14-.37,.26-.53,.42l-.47,.48c-.14,.17-.27,.36-.41,.54-.14,.17-.24,.38-.36,.57-.12,.19-.21,.4-.31,.6-.1,.2-.19,.41-.26,.63-.08,.21-.16,.43-.22,.65-.14,.44-.25,.89-.33,1.34-.07,.46-.15,.92-.18,1.38v.11l-.08-.06c-.16-.13-.28-.27-.39-.42Z"/><path class="cls-18" d="M346.14,409.74s.03,.75,.06,1.87c.02,.56,.03,1.21,.06,1.91,.03,.7,.04,1.44,.1,2.18,.03,.74,.11,1.48,.18,2.17,.09,.68,.17,1.33,.31,1.86,.08,.26,.12,.52,.2,.72,.08,.21,.13,.4,.21,.54,.16,.29,.25,.45,.25,.45,0,0-.12-.14-.33-.4-.11-.13-.19-.31-.31-.52-.13-.2-.2-.45-.31-.72-.11-.27-.17-.57-.27-.88-.08-.32-.15-.65-.22-1-.05-.35-.12-.71-.15-1.08-.04-.37-.08-.75-.09-1.12-.04-.75-.05-1.5-.03-2.21,.01-.7,.07-1.36,.11-1.92,.1-1.12,.24-1.86,.24-1.86Z"/><path class="cls-18" d="M344.56,425.03l.24,.88-.11,.02c-.27-1.4-.44-2.81-.6-4.23-.14-1.42-.23-2.84-.24-4.27,0-1.43,.03-2.86,.27-4.28,.06-.35,.13-.71,.22-1.06,.09-.35,.19-.7,.33-1.03,.13-.34,.33-.65,.56-.94,.25-.27,.57-.49,.93-.53h.01l-.02,.15v-.14h.01c-.35,.11-.61,.34-.82,.61-.19,.29-.34,.6-.43,.94-.11,.33-.19,.67-.25,1.01-.07,.34-.11,.69-.15,1.04-.14,1.4-.16,2.81-.14,4.22,.02,1.41,.08,2.83,.16,4.24,.06,1.42,.18,2.83,.27,4.25l-.11,.02-.13-.9Z"/><path class="cls-18" d="M324.32,412.21s1.66-.2,4.17-.04c1.25,.08,2.71,.23,4.25,.58,1.54,.34,3.16,.84,4.68,1.58,.76,.37,1.48,.82,2.17,1.3,.66,.51,1.3,1.03,1.83,1.63,.28,.28,.51,.61,.75,.9,.21,.32,.42,.63,.6,.94,.35,.64,.63,1.27,.84,1.87,.09,.3,.19,.59,.26,.87,.06,.28,.12,.54,.17,.79,.11,.5,.2,.93,.28,1.29,.15,.71,.23,1.12,.23,1.12,0,0-.12-.4-.33-1.1-.1-.35-.23-.77-.37-1.26-.14-.49-.3-1.03-.52-1.61-.22-.57-.52-1.17-.88-1.77-.38-.59-.83-1.18-1.36-1.73-.51-.57-1.14-1.06-1.78-1.54-.67-.45-1.37-.88-2.11-1.22-1.47-.73-3.05-1.25-4.55-1.6-1.51-.36-2.94-.6-4.18-.73-2.47-.28-4.15-.25-4.15-.25Z"/></g><path class="cls-19" d="M339,429.65c-.21,2.23,11.81,.61,11.81,.61-.25-5.86,5.83-10.96,5.83-10.96-2.34,.94-3.76,3.4-4.79,5.22-1.03,1.82-1.74,2.31-1.9,1.4-.15-.84-.14-1.62,0-2.34,.1-5.29,4.27-9.64,4.27-9.64-.03,0-.05,0-.08,0-1.68,.9-3.54,3.3-3.92,4.98-.6,2.63-2.07,7.88-4.08,6.48-2.01-1.4-1.36-8.4-1.36-10.68,0-1.74,.73-4.04,1.08-5.02-2.46,1.11-1.74,10.48-1.32,14.45,.14,.59,.25,1.09,.35,1.45,.65,2.52-1.8,5.18-1.36,2.31,.44-2.87-2.61-9.98-7.56-13.16-3.13-2.01-8.13-2.46-11.38-2.52,15.16,.98,16.76,11.85,16.76,11.85-.11-.21-.22-.4-.34-.59,1.05,2.32-.02,3.51-1.45,1.21-1.37-2.2-4.86-3.55-9.14-4.26,6.95,1.73,8.81,6.93,8.59,9.22Z"/></g><ellipse class="cls-48" cx="230" cy="433.18" rx="80" ry="18"/><g><g><path class="cls-39" d="M229.95,251.8c-.42-3.15-1.36-6.4-2.82-9.74-1.32-3.01-4.82-4.38-7.83-3.06-3.01,1.32-4.38,4.82-3.06,7.83,3.42,7.81,2.68,13.65-2.47,19.54-5.16,5.91-13.97,10.83-22.48,15.59-12.61,7.05-24.52,13.71-27.57,24.63-1.51,5.38-.59,11.08,2.72,16.95,5.02,8.88,7.98,18.26,8.55,27.14,.56,8.5-1.14,15.76-4.89,20.98-7.31,10.16-20.73,10-30.7,8.07-3.22-.62-6.34,1.48-6.96,4.7-.62,3.22,1.48,6.34,4.7,6.96,9.63,1.86,18.22,1.65,25.53-.64,7.13-2.23,12.87-6.32,17.08-12.16,5.39-7.49,7.84-17.41,7.11-28.7-.69-10.65-4.18-21.79-10.07-32.21-1.73-3.05-2.26-5.63-1.62-7.89,1.73-6.16,12-11.91,21.93-17.46,9.39-5.25,19.11-10.69,25.62-18.15,5.89-6.74,8.3-14.24,7.22-22.39Z"/><path class="cls-14" d="M137.15,391.39c-1.33-.26-2.46-.94-3.3-1.88,8.28,1.21,17.12,1.29,23.58-.73,7.13-2.23,12.87-6.32,17.08-12.16,5.39-7.49,7.84-17.41,7.11-28.7-.69-10.65-4.18-21.79-10.07-32.21-1.73-3.05-2.26-5.63-1.62-7.89,1.73-6.16,10.6-12.39,20.54-17.94,9.39-5.25,19.11-10.69,25.62-18.15,5.89-6.74,8.3-14.24,7.22-22.39-.42-3.15-1.36-6.4-2.82-9.74-.13-.31-.3-.59-.47-.86,2.83-.84,5.91,.54,7.12,3.31,1.46,3.34,2.4,6.59,2.82,9.74,1.08,8.15-1.34,15.65-7.22,22.39-6.52,7.46-16.23,12.89-25.62,18.15-9.93,5.56-20.21,11.3-21.93,17.46-.63,2.26-.1,4.84,1.62,7.89,5.89,10.42,9.37,21.56,10.07,32.21,.74,11.29-1.72,21.21-7.11,28.7-4.2,5.84-9.95,9.93-17.08,12.16-7.32,2.29-15.91,2.5-25.53,.64Z"/><rect class="cls-44" x="203.31" y="84.08" width="23.13" height="9.91" transform="translate(429.75 178.07) rotate(-180)"/><path class="cls-40" d="M325.06,151.36c-6.34-9.07-13.6-14.25-14.17-13.73s3.13,8.58,13.68,15.1l1.1,.31-.61-1.68Z"/><path class="cls-25" d="M249.55,103.55s.54-5.42-.16-6.72c-.17-.32-.8-.22-1.9-.96h0s11.24,5.18,12.15,7.87c.91,2.69,.84,14.4,1.63,17.75,.79,3.36,14.94,35.98,15.62,36.1s1.66-1.31,2.53-.93c.87,.38,.45,2.61,.45,2.61,0,0,3.21-.81,6.86-2.69,3.65-1.88,20.56-16.79,20.56-16.79,0,0,.45-.84,.91-.76s.83,.26,.83,.26c0,0-.58,1.85,1.21,4.53,1.8,2.67,8.25,9.74,10.02,10.63,1.78,.89,3.42,.61,3.42,.61,0,0,2.59,2.19,2.3,2.48-.29,.29-4.88,1.54-6.35,2.49-1.47,.94-19.12,19.18-26.86,24.98-7.74,5.8-19.61,11.05-20.92,10.81s-18.59-21.52-23.99-34.2c-2.16-5.07-4.16-8.74-5.8-11.34,.13-.46,.27-.91,.4-1.35,3.7-12.21,5.92-27.9,7.07-45.39Z"/><path class="cls-26" d="M320.28,154.46c-1.78-.89-8.23-7.96-10.02-10.63-1.65-2.46-1.3-4.2-1.23-4.47l1.86-1.72s2.76,4.59,5.88,7.77c3.11,3.18,8.44,7.28,8.47,7.11s-.18-1.15-.18-1.15c0,0,1.72,2.12,1.23,2.42-.23,.14-1.42,.72-2.62,1.3-.2,.03-1.72,.22-3.38-.61Z"/><path class="cls-39" d="M341.49,124.76c-.23,.01-.45,.03-.66,.07-3.51,.58-15.62,2.09-15.92,1.05-.29-1.04,.89-2.64,1.97-3.7,1.08-1.06,2.75-4.08,2.81-6.52,.06-2.45-2.46-5.26-2.98-5.31-.52-.05-1.56,2.91-2.38,4.49-.82,1.58-3.21,2.79-3.96,4.16-.74,1.38-3.11,3.88-3.97,5.15-.86,1.27-2.66,10.94-2.89,12.84-.15,1.3-.92,2.16-1.4,2.57,1.1,1.62,2.8,3.97,4.63,5.85,1.46,1.49,3.39,3.17,5.05,4.53,.99-.71,2.61-1.68,4.51-2.05,2.83-.55,13.33-2.21,16.71-2.84l-1.54-20.28Z"/><path class="cls-14" d="M342.84,142.41c-1.44,.14-2.42,.24-2.42,.24-.3-.11-4.2-1.32-8.44-.7-4.24,.62-8.23,2.44-9.79,2.62-1.56,.18-4.54-1.04-4.54-1.04l-1.54,1.15c.22,.24,.43,.49,.65,.72,1.46,1.49,3.39,3.17,5.05,4.53,.99-.71,2.61-1.68,4.51-2.05,2.83-.55,13.33-2.21,16.71-2.84l-.2-2.63Z"/><path class="cls-3" d="M247.88,161.63c-2.16-5.07-4.16-8.74-5.8-11.34,.13-.46,.27-.91,.4-1.35,1.94-6.42,3.47-13.8,4.66-21.89,5.61,11.95,19.89,42.14,20.97,42.31,1.34,.22,3.76-.93,3.74,.67-.02,1.59-.73,3.89-.73,3.89,0,0,16.3-5.99,22.15-9.25,4.34-2.43,14.81-12.25,19.93-17.15,2.58,2.97,5.88,6.35,7.08,6.95,1.78,.89,3.42,.61,3.42,.61,0,0,2.59,2.19,2.3,2.48-.29,.29-4.88,1.54-6.35,2.49-1.47,.94-19.12,19.18-26.86,24.98-7.74,5.8-19.61,11.05-20.92,10.81s-18.59-21.52-23.99-34.2Z"/><path class="cls-49" d="M192.91,89.75l2.07-1.16,2.86-8.59,14.87,10.97h3.61l10.31-4.43,4.73,5.22,2.3,.88c-.69,4.48-2.72,17.08-5.12,26.59-1.97,7.79-5.38,17.76-7.45,23.61-3.31-5.6-7.53-12.92-10.23-18.18-4.36-8.5-15.27-29.72-17.94-34.9Z"/><path class="cls-26" d="M208.63,111.42c0-1.68-1.63-4.15-2.53-4.86-.91-.71-8.73-15.23-8.73-15.23l17.9,7.98,14.7-7.98s-4.5,18.93-2.51,20.08c.62,.36,1.96-1.11,3.51-3.3-.73,3.75-1.56,7.64-2.43,11.11-1.97,7.79-5.38,17.76-7.45,23.61-3.31-5.6-7.53-12.92-10.23-18.18-1.3-2.53-3.18-6.19-5.25-10.22,4.46,.93,3.03-1.56,3.03-3.01Z"/><path class="cls-25" d="M226.02,151.1s-15.98-21.25-23.17-33.23c-7.18-11.98-13.27-26.9-13.27-26.9,0,0-16.38,6.1-17.08,7.91-.69,1.81-4.17,19.67,1.62,41.6,5.79,21.93,19,63.08,18.3,68.95-.69,5.88-3.94,19.6-3.94,19.6,0,0,8.8,4.97,15.06,6.1,6.25,1.13,10.76,0,10.76,0l15.65-23.74s-.46-18.24-1.85-33.84c-1.39-15.6-2.09-26.45-2.09-26.45Z"/><path class="cls-25" d="M228.11,177.56c-1.39-15.6-2.09-26.45-2.09-26.45,0,0-2.02-2.69-4.94-6.68,2.7-5.04,7.89-14.8,11.2-21.58,4.63-9.5,6.8-30.07,6.8-30.07,0,0,11.73,4.01,12.66,5.17,.93,1.16,1.39,6.58,1.39,6.58,2.08,17.41,2.78,33.23,1.39,45.89-1.39,12.66-2.29,36.85-.33,45.44,1.96,8.59,8.91,27.06,8.91,27.06,0,0-6.26,7.01-13.9,9.49-7.64,2.49-15.99,2.71-15.99,2.71l-6.85-18.26,3.61-5.48s-.46-18.24-1.85-33.84Z"/><path class="cls-3" d="M177.58,409.62s1.61-54.96,2.3-61.97c.69-7.01,5.98-28.35,7.13-34.56,1.15-6.22-2.51-45.62-2.74-49.47-.23-3.84-2.3-14.24-2.3-14.24,0,0,3.65-13.09,8.67-19.63,2.67,1.42,8.88,4.52,13.62,5.39,6.21,1.13,10.68,0,10.68,0l15.53-23.74-3.58,5.48,6.8,18.26s8.28-.23,15.86-2.71c5.88-1.93,10.92-6.56,12.89-8.55,1.95,6.24,6.29,20.4,6.65,23.81,.46,4.41-1.05,39.97-2.32,48.11-1.26,8.14-2.76,17.3-2.99,21.59-.23,4.29-2.07,71.55-1.49,77.43,.57,5.88,9.54,23.29,9.2,23.85-.34,.57-3.43,2.71-3.43,2.71,0,0-1.05-2.03-1.97-2.03s-12.76,1.58-18.62,3.17c-5.86,1.58-13.22,3.5-13.22,3.5,0,0-.35-16.39-.46-18.88-.12-2.49-3.79-38.77-4.48-47.25-.69-8.48,1.49-17.93,1.84-19.4,.35-1.47,.46-13.34,1.26-14.58,.81-1.24,1.61-9.65,1.61-9.65,0,0-1.83-13.25-2.29-21.39-.46-8.14-2.4-43.67-3.09-43.45-.69,.23-1.72,1.24-2.3,5.09-.57,3.84-9.1,52.41-10.13,58.51-1.03,6.1-1.84,10.29-2.87,14.36-1.04,4.07-2.18,19.1-3.1,30.75-.92,11.64-2.76,31.99-2.3,38.09,.46,6.1-.35,23.06,.57,24.75,.92,1.7-3.45,3.05-3.45,3.05,0,0,0-3.39-4.6-6.67-4.6-3.28-21.84,4.75-21.84,4.75,0,0-2.3-7.23-2.3-9.04s1.26-5.43,1.26-5.43Z"/><path class="cls-25" d="M269.33,418.66c.35-.57-8.62-17.97-9.2-23.85-.57-5.88,1.26-73.14,1.49-77.43,.23-4.29,1.73-13.45,2.99-21.59,1.27-8.14,2.78-43.7,2.32-48.11-.33-3.15-4.05-15.45-6.16-22.23,.68-.61,1.24-1.16,1.66-1.58,1.95,6.24,6.29,20.4,6.65,23.81,.46,4.41-1.05,39.97-2.32,48.11-1.26,8.14-2.76,17.3-2.99,21.59-.23,4.29-2.07,71.55-1.49,77.43,.57,5.88,9.54,23.29,9.2,23.85-.34,.57-3.43,2.71-3.43,2.71,0,0-.28-.54-.68-1.06,.85-.63,1.78-1.35,1.96-1.65Z"/><path class="cls-25" d="M206.34,422.96c-.92-1.69-.11-18.65-.57-24.75-.46-6.1,1.38-26.45,2.3-38.09,.92-11.64,2.07-26.68,3.1-30.75,1.03-4.07,1.84-8.25,2.87-14.36,1.04-6.1,9.56-54.67,10.13-58.51,.58-3.84,1.61-4.86,2.3-5.09,.11-.04,.21,1.07,.29,2.98-.16,.59-.31,1.28-.43,2.11-.57,3.84-9.1,52.41-10.13,58.51-1.03,6.1-1.84,10.29-2.87,14.36-1.04,4.07-2.18,19.1-3.1,30.75-.92,11.64-2.76,31.99-2.3,38.09,.46,6.1-.35,23.06,.57,24.75,.92,1.7-3.45,3.05-3.45,3.05,0,0,0-.32-.13-.86,1-.55,1.9-1.33,1.43-2.19Z"/><path class="cls-43" d="M202.59,235.13c-3.91-.72-8.82-3.02-11.86-4.58,.19-.28,.38-.55,.58-.81,2.62,1.42,8.73,4.52,13.4,5.39,1.58,.29,3.05,.43,4.36,.48-1.75,.07-3.96-.01-6.48-.48Z"/><path class="cls-43" d="M224.96,218.97l5-7.58-3.61,5.48,6.81,18.13c-1.33,.1-2.13,.13-2.13,.13l-6.07-16.16Z"/><path class="cls-23" d="M233.76,235.13l-.05-.13c2.88-.23,8.32-.87,13.45-2.59,5.75-1.93,10.68-6.56,12.61-8.55,.15,.48,.31,1.02,.48,1.58-2.45,2.26-6.45,5.45-10.98,6.97-7.42,2.49-15.51,2.71-15.51,2.71Z"/><path class="cls-22" d="M266.11,419.36c.62,.98,1.3,2.03,1.7,2.5,.86,1.02,15.26,4.24,17.33,5.43,2.07,1.19,5.43,6.02,5.43,6.02,0,0-11.55,3.39-19.83,1.98-8.44-1.44-7.33-1.81-15.43-2.75-8.1-.93-19.14,1.78-19.05-.85,.04-1.25,.45-3.92,.87-6.37,2.67-.7,6.92-1.83,10.59-2.82,5.57-1.5,16.53-3.01,18.38-3.15Z"/><path class="cls-35" d="M236.26,431.69c0-.21,.03-.47,.05-.75l.17,1.27c-.13-.15-.22-.32-.22-.53Z"/><path class="cls-35" d="M236.28,430.71h.05c0,.08-.02,.16-.02,.24l-.03-.24Z"/><path class="cls-27" d="M248.67,432.4v2.82s-1.64,.17-6.38,0c-4.74-.17-5.52-.68-5.52-.68l-.3-2.31c1.08,1.2,6.47,.41,12.2,.17Z"/><path class="cls-22" d="M200.72,419.34c4.6,3.28,4.6,6.67,4.6,6.67,0,0,.02,0,.05-.02,.34,2.9,.64,5.95,.47,6.62-.35,1.36-2.67,4.84-6.64,7.38-3.96,2.54-20.6-7.21-20.6-8.56,0-.9,.31-4.89,.51-7.45,2.01-.91,17.32-7.71,21.62-4.65Z"/><path class="cls-26" d="M215.83,90.97c-.64,0-7.36,12.21-8.05,12.15-.7-.06-6.43-5.93-9.21-9.38-2.78-3.45-3.53-5.32-3.53-5.32l2.77-8.87s5.17,4.24,8.74,6.87c3.57,2.63,9.28,4.54,9.28,4.54Z"/><path class="cls-26" d="M216.31,90.97s8.15,13.28,8.61,13.22c.46-.06,3.13-5.65,4.52-8.59,1.39-2.94,2.09-4.27,2.09-4.27l-4.54-5.78s-5.76,3.31-7.39,4.01c-1.63,.7-3.28,1.41-3.28,1.41Z"/><path class="cls-9" d="M220.26,103.95l-.15,.24,2.23-3.62c-2.54-3.92-6.03-9.6-6.03-9.6h-.48c-.44,0-3.75,5.77-6,9.36l3.51,4.66-1.43,21.7c2.66,5.01,6.26,11.23,9.16,16.15,1.43-4.03,3.5-10.02,5.29-15.91-1.75-6.81-4.61-17.47-6.1-22.97Z"/><path class="cls-3" d="M192.31,88.59s13.55,26.34,18.53,36.06c4.98,9.72,15.18,26.45,15.18,26.45,0,0-18.3-14.69-28.15-27.02-9.85-12.32-17.61-30.18-17.61-30.18,0,0,4.98-1.64,7.07-2.57,2.09-.93,4.98-2.74,4.98-2.74Z"/><path class="cls-3" d="M228.53,119.23c2.97-11.76,5.37-28.26,5.37-28.26l3.71,.9c3.71,.9,10.08,2.37,10.08,2.37,0,0-4.4,19.33-9.85,29.05-3.87,6.92-11.62,16.36-15.77,21.22-.32-.54-.66-1.1-1-1.69,2.08-5.84,5.49-15.81,7.45-23.61Z"/><path class="cls-45" d="M216.23,158.81c0,1.73,1.44,3.14,3.21,3.14,1.78,0,3.21-1.4,3.21-3.14s-1.44-3.14-3.21-3.14-3.21,1.4-3.21,3.14Z"/><path class="cls-45" d="M217.86,181.69c0,1.73,1.44,3.14,3.21,3.14s3.21-1.4,3.21-3.14-1.44-3.14-3.21-3.14-3.21,1.4-3.21,3.14Z"/><path class="cls-45" d="M219.5,204.57c0,1.73,1.44,3.14,3.21,3.14s3.21-1.4,3.21-3.14-1.44-3.14-3.21-3.14-3.21,1.4-3.21,3.14Z"/><path class="cls-40" d="M198.57,93.74c-2.78-3.45-3.53-5.32-3.53-5.32l.03-.1c2.84,1.66,12.05,6.76,12.21,3.4,.15-3.38-7.36-9.8-9.63-11.65l.16-.52s5.17,4.24,8.74,6.87c3.57,2.63,9.28,4.54,9.28,4.54-.64,0-7.36,12.21-8.05,12.15-.7-.06-6.43-5.93-9.21-9.38Z"/><path class="cls-40" d="M219.59,89.56c1.48-.64,6.37-3.42,7.24-3.92-1.85,2.18-4.71,6.03-4.49,8.73,.17,2.11,4.49,.37,8.52-1.72-.34,.69-.81,1.66-1.42,2.95-1.39,2.94-4.05,8.53-4.52,8.59-.46,.06-8.61-13.22-8.61-13.22,0,0,1.65-.71,3.28-1.41Z"/><path class="cls-45" d="M222.07,144.52c-.32-.54-.66-1.1-1-1.69,2.08-5.84,5.49-15.81,7.45-23.61,2.97-11.76,5.37-28.26,5.37-28.26,0,0,0,0,.99,.24-.97,6.56-3.16,23.49,.13,23.92,2.79,.36,8.82-12.69,12.35-20.96,.2,.05,.32,.07,.32,.07,0,0-4.4,19.33-9.85,29.05-3.87,6.92-11.62,16.36-15.77,21.22Z"/><path class="cls-45" d="M182.33,93.21c3.85,7.88,16.92,33.82,20.81,31.46,3.7-2.25-7.37-26.34-11.76-35.51,.57-.34,.93-.57,.93-.57,0,0,13.55,26.34,18.53,36.06,4.98,9.72,15.18,26.45,15.18,26.45,0,0-18.3-14.69-28.15-27.02-9.85-12.32-17.61-30.18-17.61-30.18,0,0,.89-.29,2.07-.7Z"/><path class="cls-3" d="M203.55,235.13c-6.25-1.13-15.06-6.1-15.06-6.1,0,0,3.24-13.72,3.94-19.6,.56-4.74-7.93-32.46-14.27-54.51,2.54-7.61,4.16-12.44,4.16-12.44,0,0,22.96,45.08,24.32,58.95,1.36,13.86,2.83,21.91,7.52,21.12,4.7-.79,15.76-13,15.76-13h0c.03,1.17,.04,1.85,.04,1.85l-15.65,23.74s-4.5,1.13-10.76,0Z"/><path class="cls-3" d="M229.96,211.4s-.01-.67-.04-1.85c0,0,19.35,13.48,20.98,1.85,1.63-11.64,0-25.47,0-25.47l2.18-4.03c.08,5.83,.41,10.9,1.11,13.97,1.96,8.59,8.91,27.06,8.91,27.06,0,0-6.26,7.01-13.9,9.49-7.64,2.49-15.99,2.71-15.99,2.71l-6.85-18.26,3.61-5.48Z"/><path class="cls-45" d="M184.6,239.38c1.43-3.43,3.22-7.05,5.22-9.64,2.69,1.42,8.95,4.52,13.73,5.39,6.25,1.13,10.76,0,10.76,0l15.65-23.74-3.61,5.48,6.85,18.26s8.34-.23,15.99-2.71c5.93-1.93,11-6.56,12.99-8.55,.97,3.09,2.54,8.14,3.92,12.85-5.78,2.23-19.05,7.24-25.52,8.87-8.42,2.12-14.23,0-14.23,0l-2.06-13.78-10.05,14.72s-6.25,.65-18.74-2.53c-4.65-1.18-8.23-2.91-10.91-4.62Z"/><path class="cls-45" d="M228.63,251.41c-.69,.23-1.72,1.24-2.3,5.09-.02,.13-.05,.33-.1,.59,.5-4.15,1.64-7.85,4.24-6.28,5.24,3.18,10.92,13.07,12.03,24.03,1.11,10.95,1.97,44.99,1.97,48.16,0,3.18-3.23,38.16-2.16,58.3,1.08,20.14,6.48,35.89,13.48,39.5h0c-3.02,.51-6.11,1.11-8.33,1.71-5.86,1.58-13.22,3.5-13.22,3.5,0,0-.35-16.39-.46-18.88-.12-2.49-3.79-38.77-4.48-47.25-.69-8.48,1.49-17.93,1.84-19.4,.35-1.47,.46-13.34,1.26-14.58,.81-1.24,1.61-9.65,1.61-9.65,0,0-1.83-13.25-2.29-21.39-.46-8.14-2.4-43.67-3.09-43.45Z"/><path class="cls-45" d="M205.05,426.01s0-3.39-4.6-6.67c-4.6-3.28-21.84,4.75-21.84,4.75,0,0-2.3-7.23-2.3-9.04s1.26-5.43,1.26-5.43c0,0,1.61-54.96,2.3-61.97,.69-7.01,5.98-28.35,7.13-34.56,1.15-6.22-2.51-45.62-2.74-49.47-.23-3.84-2.3-14.24-2.3-14.24,0,0,3.65-13.09,8.67-19.63,2.09,1.11,6.33,3.24,10.35,4.53l.15,1.35s-7.46,18.81-8.18,31.83c-.72,13.02,5.53,49.17,3.01,56.24-2.51,7.07-10.45,84.44-7.54,90.09,2.9,5.65,5.39,2.83,10.78,0,2.83-1.48,6.34,3.24,9.05,8.07,.06,.52,.14,.9,.24,1.08,.92,1.7-3.45,3.05-3.45,3.05Z"/><path class="cls-27" d="M247.73,422.51c5.57-1.5,16.53-3.01,18.38-3.15,.4,.64,.83,1.3,1.19,1.82-2.88,.55-8.59,1.98-10.18,4.83-2.16,3.86,14.91,6.79,19.04,6.21,2.43-.34,7.97-1.23,12.12-1.9,1.26,1.51,2.28,2.98,2.28,2.98,0,0-11.55,3.39-19.83,1.98-8.44-1.44-7.33-1.81-15.43-2.75-8.1-.93-19.14,1.78-19.05-.85,.04-1.25,.45-3.92,.87-6.37,2.67-.7,6.92-1.83,10.59-2.82Z"/><path class="cls-27" d="M190.87,438.74c-5.83-2.36-12.29-6.46-12.29-7.3,0-.9,.31-4.89,.51-7.45,2.01-.91,17.32-7.71,21.62-4.65,4.6,3.28,4.6,6.67,4.6,6.67,0,0,.02,0,.05-.02,.18,1.57,.35,3.18,.44,4.43-1.32-2.99-3.61-5.89-7.6-6.38-8.62-1.06-9.96,8.75-8.98,11.58,.26,.75,.88,1.88,1.65,3.11Z"/><g><path class="cls-39" d="M184.01,40.92c-.48,2.45-.63,4.96-.45,7.45l.04,.52c.26,3.01,.12,6.03-.33,9.02-1.43-.39-2.93-1.28-4.42-2.9-3.93-4.27-3.28-11.66,1.01-13.71,1.63-.77,3.04-.74,4.16-.4,0,.01,0,.02,0,.03Z"/><path class="cls-41" d="M184.01,40.92c-.48,2.45-.63,4.96-.45,7.45l.04,.52c.26,3.01,.12,6.03-.33,9.02-1.43-.39-2.93-1.28-4.42-2.9-3.93-4.27-3.28-11.66,1.01-13.71,1.63-.77,3.04-.74,4.16-.4,0,.01,0,.02,0,.03Z"/><path class="cls-39" d="M251.17,49.58c-1.23,1.83-2.59,2.93-3.94,3.53-.89-2.88-1.49-5.85-1.68-8.87l-.04-.52c-.2-2.5-.73-4.96-1.57-7.33,1.06-.51,2.45-.75,4.18-.23,4.55,1.39,6.3,8.59,3.05,13.41Z"/><path class="cls-41" d="M251.17,49.58c-1.23,1.83-2.59,2.93-3.94,3.53-.89-2.88-1.49-5.85-1.68-8.87l-.04-.52c-.2-2.5-.73-4.96-1.57-7.33,1.06-.51,2.45-.75,4.18-.23,4.55,1.39,6.3,8.59,3.05,13.41Z"/><path class="cls-39" d="M237.63,53.92c-1.15,2.14-1.32,4.69-.37,6.94,.72,1.69,1.39,3.61,1.5,5.07,.8,10.68-8.67,20.1-21.16,21.04-12.49,.94-23.26-6.96-24.06-17.65-.11-1.46,.27-3.46,.73-5.24,.61-2.36,.06-4.87-1.4-6.81-.35-.47-.67-.96-.95-1.47-.86-1.55-1.37-3.28-1.51-5.05-.53-7.09,5.08-13.3,12.53-13.86,2.41-.19,4.82,.25,7.01,1.28,2.57,1.21,5.58,.99,7.94-.59,2.01-1.34,4.33-2.13,6.74-2.3,7.45-.56,13.92,4.74,14.46,11.83,.14,1.77-.11,3.55-.73,5.22-.2,.55-.45,1.08-.73,1.6Z"/><path class="cls-41" d="M237.63,53.92c-1.15,2.14-1.32,4.69-.37,6.94,.72,1.69,1.39,3.61,1.5,5.07,.8,10.68-8.67,20.1-21.16,21.04-12.49,.94-23.26-6.96-24.06-17.65-.11-1.46,.27-3.46,.73-5.24,.61-2.36,.06-4.87-1.4-6.81-.35-.47-.67-.96-.95-1.47-.86-1.55-1.37-3.28-1.51-5.05-.53-7.09,5.08-13.3,12.53-13.86,2.41-.19,4.82,.25,7.01,1.28,2.57,1.21,5.58,.99,7.94-.59,2.01-1.34,4.33-2.13,6.74-2.3,7.45-.56,13.92,4.74,14.46,11.83,.14,1.77-.11,3.55-.73,5.22-.2,.55-.45,1.08-.73,1.6Z"/><path class="cls-28" d="M204.82,70.89c-.72,.05-1.26,.68-1.2,1.4,0,.06,.01,.11,.02,.17,1.23,5.66,6.99,9.68,13.57,9.19,6.58-.49,11.67-5.33,12.05-11.11,.04-.72-.51-1.33-1.23-1.37-.06,0-.11,0-.17,0l-23.03,1.73Z"/><path class="cls-12" d="M209.61,80.07c4.76,2.5,10.54,2.07,14.88-1.12-1.17-3.16-4.1-2.19-7.62-1.93s-6.56-.26-7.25,3.04Z"/><path class="cls-39" d="M249.47,33.67c-2.75-.84-4.84-.13-6.26,.84-.45-1.05-.94-2.07-1.5-3.06-.4-.73-.83-1.45-1.29-2.15-4.66-7.19-12.01-12.89-20.11-14.92l-.48-4.24-4.88,3.45c-.21,0-.41-.01-.62-.02-.38,0-.76,0-1.14,0l-.99-3.16-.29-.92c-.25,.02-.5,.05-.75,.08-4.73,.74-6.78,5.24-7.09,6.01-7.7,3.22-14.12,9.95-17.65,17.75-.35,.76-.66,1.53-.95,2.32-.4,1.07-.74,2.15-1.02,3.25-.06-.03-.13-.06-.2-.09-1.54-.68-3.63-.99-6.12,.2-5.46,2.61-6.29,11.99-1.3,17.42,2.04,2.21,4.09,3.35,6.02,3.78-.02,.11-.03,.22-.05,.32-.22,1.58-.28,3.18-.16,4.77,.83,11.03,9.67,19.91,21.65,23.21,2.81,.77,5.7,1.22,8.61,1.35,1.51,.07,3.03,.05,4.54-.05l.36-.03c18.3-1.37,32.22-14.56,31.11-29.45-.12-1.59-.41-3.16-.86-4.69-.03-.1-.06-.21-.1-.31,1.84-.72,3.7-2.15,5.38-4.64,4.13-6.11,1.91-15.26-3.87-17.02Zm-65.46,7.25c-.48,2.45-.63,4.96-.45,7.45l.04,.52c.26,3.01,.12,6.03-.33,9.02-1.43-.39-2.93-1.28-4.42-2.9-3.93-4.27-3.28-11.66,1.01-13.71,1.63-.77,3.04-.74,4.16-.4,0,.01,0,.02,0,.03Zm54.34,11.41c-.2,.55-.44,1.08-.72,1.6-1.15,2.14-1.32,4.69-.37,6.94,.72,1.69,1.39,3.61,1.5,5.07,.8,10.68-8.67,20.1-21.16,21.04-12.49,.94-23.26-6.96-24.07-17.65-.11-1.46,.27-3.46,.73-5.24,.61-2.36,.06-4.87-1.4-6.81-.35-.47-.67-.96-.95-1.47-.86-1.55-1.37-3.28-1.51-5.05-.53-7.09,5.08-13.3,12.53-13.86,2.41-.19,4.82,.25,7.01,1.28,2.57,1.21,5.58,.99,7.94-.59,2.01-1.34,4.33-2.13,6.74-2.3,7.45-.56,13.92,4.74,14.46,11.83,.14,1.77-.11,3.55-.73,5.22Zm12.82-2.75c-1.24,1.83-2.59,2.93-3.94,3.53-.89-2.88-1.49-5.85-1.68-8.87l-.04-.52c-.2-2.5-.73-4.96-1.57-7.33,1.06-.51,2.45-.75,4.18-.23,4.55,1.39,6.3,8.59,3.05,13.41h0Z"/><rect class="cls-28" x="211.22" y="59.2" width="2.18" height="4.95" rx="1.09" ry="1.09" transform="translate(80.93 239.48) rotate(-69.74)"/><rect class="cls-28" x="216.6" y="60.08" width="4.95" height="2.18" rx="1.09" ry="1.09" transform="translate(-2.33 113.25) rotate(-28.84)"/><path class="cls-28" d="M203.52,54.94h0c-2.14,.16-4-1.35-4.15-3.38l-.09-1.22c-.15-2.03,1.46-3.8,3.6-3.96h0c2.14-.16,4,1.35,4.15,3.38l.09,1.22c.15,2.03-1.46,3.8-3.6,3.96Z"/><path class="cls-30" d="M202.88,46.37l.32,4.28c.08,1.01,1,1.77,2.07,1.69,1.07-.08,1.88-.97,1.8-1.98l-.05-.61c-.15-2.03-2.01-3.54-4.15-3.38Z"/><ellipse class="cls-5" cx="203.06" cy="48.82" rx="1.29" ry="1.23" transform="translate(-3.08 15.32) rotate(-4.29)"/><path class="cls-28" d="M226.76,53.2h0c-2.14,.16-4-1.35-4.15-3.38l-.09-1.22c-.15-2.03,1.46-3.8,3.6-3.96h0c2.14-.16,4,1.35,4.15,3.38l.09,1.22c.15,2.03-1.46,3.8-3.6,3.96Z"/><path class="cls-30" d="M226.11,44.63l.32,4.28c.08,1.01,1,1.77,2.07,1.69s1.88-.97,1.8-1.98l-.05-.61c-.15-2.03-2.01-3.54-4.15-3.38Z"/><ellipse class="cls-5" cx="226.3" cy="47.08" rx="1.29" ry="1.23" transform="translate(-2.89 17.05) rotate(-4.29)"/><path class="cls-14" d="M212.21,10.42c-.87-.02-2.67,1.49-4.76,4.02-.52,.63-1.06,1.33-1.61,2.08-4.06,5.56-8.6,14.18-9.74,22.76-1.9,14.41-1.87,30.96,4.04,39.69,5.02,7.4,12.78,10.9,12.78,10.9-2.91-.12-5.8-.58-8.61-1.35-11.97-3.3-20.82-12.18-21.65-23.21-.12-1.59-.07-3.19,.16-4.77,.01-.11,.03-.22,.05-.32-1.93-.43-3.98-1.57-6.02-3.78-4.99-5.43-4.17-14.81,1.29-17.42,2.48-1.18,4.58-.88,6.12-.2,.07,.03,.14,.06,.2,.09,.28-1.1,.63-2.19,1.02-3.25,.29-.78,.61-1.55,.95-2.32,3.53-7.8,9.95-14.53,17.65-17.75,.31-.77,2.36-5.27,7.09-6.01,.24-.04,.49-.07,.75-.08l.29,.92Z"/></g><polygon class="cls-3" points="226.02 151.1 229.92 209.55 228.64 210.93 224.29 149.7 226.02 151.1"/><g class="cls-37"><g><g><path class="cls-7" d="M220.24,105.69l-.33,.29-.56-.65c-.06-.07-.05-.17,.02-.23h0l.09-.07c.07-.06,.17-.05,.23,.02l.56,.65Z"/><path class="cls-36" d="M220.24,105.69l-.17,.14-.67-.77,.04-.04c.07-.06,.17-.05,.23,.02l.56,.65Z"/><path class="cls-1" d="M220.77,105.72c.29,.3,.54,.65,.73,1.02,1.13,2.15,.3,4.81-1.85,5.94-.37,.2-.77,.34-1.19,.42-.03,0-.31,.04-.56-.04-.12-.04-.24-.1-.32-.21h0s-.02-.03-.02-.04h0s0-.03-.01-.04c-.02-.11,.05-.25,.16-.38,.24-.3,.69-.62,.86-.78h0s.09-.07,.13-.11h0s.09-.09,.14-.13l.04-.04,.03-.03s.02-.02,.03-.04c.02-.02,.03-.03,.05-.05,.03-.03,.06-.06,.08-.09,.02-.02,.03-.04,.05-.06,.04-.05,.08-.1,.12-.15,.01-.02,.03-.03,.04-.05s.02-.03,.04-.05c.04-.05,.07-.1,.11-.15h0v-.02c.06-.08,.11-.15,.15-.23,.04-.07,.08-.15,.12-.22v-.03h.02c.02-.06,.05-.11,.07-.16v-.03c.08-.15,.13-.3,.18-.46,0-.03,.02-.06,.03-.09s.02-.06,.02-.09h0s0-.05,.01-.06c.01-.05,.02-.1,.03-.14l.02-.07s.01-.07,.02-.11v-.04c.01-.05,.02-.1,.03-.15,.03-.23,.04-.46,.03-.69h0c0-.1,0-.19-.02-.28,0-.04,0-.08-.01-.12,0-.03,0-.07-.01-.1v-.02c-.01-.07-.03-.14-.04-.21-.08-.39-.22-.77-.41-1.13-.02-.04-.04-.08-.06-.11h0s0-.01-.01-.03v-.02h0v-.02c-.03-.11-.02-.23,.03-.33,.04-.09,.11-.18,.24-.26h0c.13-.07,.27-.07,.4-.02,.21,.07,.41,.25,.52,.36Z"/><path class="cls-31" d="M219.85,105.38h0c.29,.29,.53,.61,.73,.95,.03,.05,.05,.09,.08,.14,1.13,2.15,.3,4.81-1.86,5.94-.31,.16-.64,.29-.98,.37-.05,.01-.1,.02-.15,.03-.03,0-.06,.01-.09,.02,0-.01-.02-.02-.02-.04h0s0-.03-.01-.04c-.02-.11,.05-.25,.16-.38,.24-.3,.69-.62,.86-.78h0s.09-.07,.13-.11h0s.09-.09,.14-.13h.01l.03-.04,.03-.03,.03-.04s.03-.03,.05-.05l.08-.09s.03-.04,.05-.06c.03-.03,.05-.06,.08-.1,.02-.02,.03-.04,.05-.06l.04-.05s.02-.03,.04-.05c.04-.05,.07-.1,.11-.15h0v-.02l.03-.04c.04-.06,.08-.13,.11-.19s.07-.13,.1-.2l.02-.03v-.03h.02s.03-.07,.04-.11l.03-.06v-.03s.04-.06,.05-.09l.02-.06v-.03s.03-.06,.04-.09,.02-.06,.03-.08c.01-.03,.02-.07,.03-.1l.03-.09,.02-.09h0s0-.05,.01-.06c.01-.05,.02-.1,.03-.14l.02-.07s.01-.07,.02-.11v-.09s.02-.07,.03-.11c0-.03,0-.06,0-.09,0-.04,0-.07,0-.11v-.05s0-.03,0-.04c0-.03,0-.07,0-.1s0-.07,0-.1c0-.03,0-.05,0-.08,0-.04,0-.08,0-.12h0s0-.08,0-.12c0-.02,0-.05,0-.07,0-.03,0-.06,0-.09s0-.05,0-.08v-.05s-.01-.07-.02-.1v-.02s-.01-.05-.02-.08c0-.02,0-.04-.01-.07v-.07s-.03-.06-.04-.09v-.05s-.03-.08-.04-.12c0-.03-.02-.05-.02-.08-.01-.04-.02-.08-.04-.12l-.03-.08s-.03-.08-.05-.12c0-.03-.02-.05-.03-.08-.02-.04-.04-.09-.06-.13l-.02-.05v-.02c-.04-.06-.07-.12-.1-.19-.02-.04-.04-.08-.06-.11h0s0-.01-.01-.03v-.02h0v-.02c-.03-.11-.02-.23,.03-.33,.04-.09,.12-.18,.25-.26Z"/><path class="cls-36" d="M217.7,112.38c-.05,.26,0,.49,.2,.68-.12-.04-.24-.1-.32-.21h0s-.02-.03-.02-.04h0s0-.03-.01-.04c-.02-.11,.05-.25,.16-.39Z"/><path class="cls-7" d="M217.7,112.38c-.03,.16-.02,.3,.03,.43-.02,0-.04,0-.06,.01-.03,0-.06,.01-.09,.02,0-.01-.02-.03-.02-.04h0s0-.03-.01-.04c-.02-.11,.05-.25,.16-.38Z"/></g><g><path class="cls-7" d="M218.17,116.63l-.22-.38,.75-.43c.08-.04,.18-.02,.22,.06h0l.06,.1c.04,.08,.02,.18-.06,.22l-.75,.43Z"/><path class="cls-36" d="M218.17,116.63l-.11-.19,.89-.5,.03,.05c.04,.08,.02,.18-.06,.22l-.75,.43Z"/><path class="cls-1" d="M218.04,117.14c-.35,.23-.74,.4-1.14,.52-2.33,.69-4.78-.64-5.47-2.97-.12-.4-.18-.82-.18-1.24,0-.03,.02-.31,.15-.54,.06-.12,.15-.22,.27-.27h0s.03-.01,.04-.02h0s.03,0,.04,0c.11,0,.23,.09,.35,.23,.25,.3,.48,.8,.6,1h0c.03,.05,.05,.1,.08,.15h0c.03,.06,.06,.11,.1,.17l.03,.05,.03,.04s.02,.03,.03,.04c.01,.02,.02,.04,.04,.05,.02,.03,.05,.07,.08,.1,.01,.02,.03,.04,.05,.06,.04,.05,.08,.1,.13,.15,.01,.02,.03,.03,.04,.05s.03,.03,.04,.05c.04,.05,.08,.09,.13,.13h0v.02c.08,.06,.14,.12,.21,.18,.06,.06,.13,.11,.2,.16l.03,.02h.01s.09,.07,.14,.11h.01l.02,.02c.13,.09,.27,.17,.41,.25,.03,.02,.05,.03,.08,.04s.05,.03,.08,.04h.01s.03,.02,.05,.03c.04,.02,.09,.04,.13,.06l.07,.03s.07,.03,.11,.04h.04s.1,.05,.15,.07c.22,.07,.45,.12,.67,.16h.01c.09,.02,.18,.03,.26,.03,.04,0,.08,0,.12,0,.03,0,.07,0,.1,0h.02c.07,0,.14,0,.22,0,.4,0,.8-.07,1.19-.18,.04-.01,.08-.03,.12-.04h0s.01,0,.03,0h.03s0,0,.01,0c.11,0,.22,.03,.32,.09,.08,.06,.16,.15,.21,.29h0c.05,.14,.01,.27-.06,.4-.11,.19-.32,.35-.45,.44Z"/><path class="cls-31" d="M218.56,116.3h0c-.33,.23-.69,.41-1.07,.54-.05,.02-.1,.03-.16,.05-2.33,.69-4.78-.64-5.47-2.97-.1-.34-.16-.69-.17-1.04,0-.05,0-.1,0-.15,0-.03,0-.06,0-.1,.01,0,.03-.01,.04-.01h0s.03,0,.04,0c.11,0,.23,.09,.35,.23,.25,.3,.48,.8,.6,1h0c.03,.05,.05,.1,.08,.15h0c.03,.06,.06,.11,.1,.17h0l.02,.05,.03,.04,.03,.04s.02,.04,.04,.05l.08,.1s.03,.04,.05,.06c.03,.03,.05,.06,.08,.1,.02,.02,.03,.04,.05,.06l.04,.05s.03,.03,.04,.05c.04,.05,.08,.09,.13,.13h0v.02l.05,.03c.05,.05,.11,.1,.16,.15s.11,.09,.17,.14l.03,.02,.03,.02h.01s.06,.05,.08,.07l.05,.04h.01l.02,.02s.05,.03,.08,.05l.06,.04,.03,.02s.05,.03,.08,.05,.05,.03,.08,.04c.03,.02,.06,.04,.09,.05l.08,.04,.08,.04h.01s.03,.02,.05,.03c.04,.02,.09,.04,.13,.06l.07,.03s.07,.03,.11,.04h.04l.04,.03s.07,.02,.11,.04c.03,0,.06,.02,.09,.03,.03,.01,.07,.02,.1,.03h.05s.03,.02,.04,.02c.03,0,.06,.02,.1,.02s.07,.01,.1,.02c.03,0,.05,.01,.08,.01,.04,0,.08,.01,.11,.02h.01s.07,.01,.11,.02c.02,0,.05,0,.07,0,.03,0,.06,0,.09,0s.05,0,.08,0h.05s.07,0,.1,0h.02s.06,0,.08,0c.02,0,.04,0,.07,0h.07s.06,0,.1,0h.05s.08,0,.13-.01c.03,0,.06,0,.08,0,.04,0,.08,0,.12-.01h.08s.08-.02,.13-.03c.03,0,.05,0,.08-.01,.05,0,.09-.02,.14-.03h.05l.02-.02c.07-.02,.13-.03,.2-.05,.04-.01,.08-.03,.12-.04h0s.01,0,.03,0h.03s0,0,.01,0c.11,0,.22,.03,.32,.09,.08,.06,.16,.15,.21,.29Z"/><path class="cls-36" d="M212.1,112.84c-.25-.1-.48-.09-.7,.06,.06-.12,.15-.22,.27-.27h0s.03-.01,.04-.02h0s.03,0,.04,0c.12,0,.23,.09,.35,.23Z"/><path class="cls-7" d="M212.1,112.84c-.15-.06-.29-.08-.43-.05,0-.02,0-.04,0-.06,0-.03,0-.06,0-.1,.01,0,.03-.01,.04-.01h0s.03,0,.04,0c.12,0,.23,.09,.35,.23Z"/></g><g><path class="cls-7" d="M216.82,105.44l-.44-.03,.06-.86c0-.09,.08-.16,.17-.15h.11c.09,.01,.16,.09,.15,.18l-.06,.86Z"/><path class="cls-36" d="M216.82,105.44l-.22-.02,.07-1.02h.06c.09,.01,.16,.09,.15,.18l-.06,.86Z"/><path class="cls-1" d="M217.18,105.84c0,.42-.07,.84-.2,1.24-.72,2.32-3.19,3.62-5.51,2.9-.4-.12-.78-.31-1.14-.54-.02-.02-.25-.19-.37-.43-.06-.12-.1-.24-.08-.38h0s0-.03,.01-.04h0s.01-.03,.02-.04c.06-.09,.21-.14,.38-.16,.38-.04,.93,.05,1.16,.06h0c.06,0,.11,0,.17,.01h0c.06,0,.12,0,.19,0h.1s.03,0,.05,0c.02,0,.04,0,.07,0,.04,0,.08,0,.13,0,.02,0,.05,0,.07,0,.07,0,.13-.01,.2-.02,.02,0,.04,0,.06,0s.04,0,.06,0c.06,0,.12-.02,.18-.03h.03c.09-.02,.18-.05,.26-.07,.08-.02,.16-.05,.24-.07h.04c.05-.03,.11-.05,.16-.07h.04c.15-.07,.3-.14,.44-.22,.03-.01,.05-.03,.08-.05s.05-.03,.08-.05h.01s.03-.02,.04-.03c.04-.02,.08-.05,.12-.08l.06-.04s.06-.04,.09-.07l.04-.03s.08-.06,.12-.09c.18-.14,.35-.3,.51-.47h0c.06-.07,.12-.14,.17-.21,.03-.03,.05-.06,.08-.1,.02-.03,.04-.05,.06-.08h.01c.04-.07,.08-.13,.12-.19,.22-.34,.39-.7,.51-1.09,.01-.04,.02-.08,.04-.13h0s0-.01,.02-.03v-.02h.02v-.02c.07-.1,.16-.17,.26-.21,.09-.04,.21-.05,.36-.01h0c.14,.04,.23,.14,.29,.27,.1,.2,.12,.46,.12,.62Z"/><path class="cls-31" d="M216.77,104.94h0c0,.41-.05,.81-.15,1.2-.01,.05-.03,.1-.05,.16-.72,2.32-3.19,3.62-5.51,2.9-.34-.1-.66-.25-.96-.43-.04-.03-.09-.05-.13-.08-.03-.02-.05-.04-.08-.05,0-.01,0-.03,.01-.04h0s.01-.03,.02-.04c.06-.09,.21-.14,.38-.16,.38-.04,.93,.05,1.16,.06h0c.06,0,.11,0,.17,.01h0c.06,0,.12,0,.19,0h.15s.04,0,.07,0h.13s.05-.01,.07-.01c.04,0,.08,0,.12-.01,.02,0,.05,0,.07,0h.06s.04-.01,.06-.02c.06,0,.12-.02,.18-.03h.03l.05-.02c.07-.02,.14-.03,.21-.05s.14-.04,.21-.06h.03l.03-.02h.01s.07-.03,.1-.04l.06-.02h.04s.06-.04,.09-.05l.06-.03h.03s.06-.04,.09-.05,.05-.03,.08-.04c.03-.02,.06-.03,.1-.05l.08-.05,.08-.05h.01s.03-.02,.04-.03c.04-.02,.08-.05,.12-.08l.06-.04s.06-.04,.09-.07l.04-.03,.04-.03s.06-.04,.09-.07c.02-.02,.05-.04,.07-.06,.03-.02,.06-.05,.08-.07l.04-.04s.02-.02,.03-.03c.02-.02,.05-.05,.07-.07s.05-.05,.07-.07c.02-.02,.04-.04,.06-.06,.03-.03,.05-.05,.08-.08h0s.05-.06,.07-.09c.02-.02,.03-.03,.05-.05,.02-.02,.04-.05,.06-.07s.03-.04,.05-.06l.03-.04s.04-.05,.06-.08h.01s.03-.06,.05-.08c.01-.02,.02-.04,.04-.06l.04-.06s.03-.05,.05-.08l.03-.05s.04-.07,.06-.11c.01-.02,.03-.05,.04-.07,.02-.04,.04-.07,.06-.11l.04-.08s.04-.08,.05-.12c.01-.02,.02-.05,.03-.07,.02-.04,.04-.09,.05-.13l.02-.05v-.02c.03-.06,.05-.13,.07-.2,.01-.04,.02-.08,.04-.13h0s0-.01,.02-.03v-.02h.02v-.02c.07-.1,.16-.17,.26-.21,.09-.03,.21-.05,.36,0Z"/><path class="cls-36" d="M210.3,108.38c-.22,.15-.34,.35-.34,.62-.06-.12-.1-.24-.08-.38h0s0-.03,.01-.04h0s.01-.03,.02-.04c.07-.1,.21-.14,.38-.16Z"/><path class="cls-7" d="M210.3,108.38c-.13,.09-.23,.2-.28,.33-.02-.01-.03-.02-.05-.03-.03-.02-.05-.04-.08-.05,0-.01,0-.03,.01-.04h0s.01-.03,.02-.04c.06-.1,.21-.14,.38-.16Z"/></g><g><path class="cls-7" d="M212.51,95.75l-.25,.35-.7-.5c-.07-.05-.09-.15-.04-.23h0l.07-.09c.05-.07,.15-.09,.23-.04l.7,.5Z"/><path class="cls-36" d="M212.51,95.75l-.13,.18-.83-.6,.03-.05c.05-.07,.15-.09,.23-.04l.7,.5Z"/><path class="cls-1" d="M213.03,95.65c.35,.23,.68,.5,.95,.82,1.6,1.83,1.41,4.61-.42,6.21-.32,.28-.67,.51-1.05,.68-.03,.01-.29,.11-.56,.09-.13,0-.26-.04-.36-.13h0s-.02-.02-.03-.03h0s-.02-.02-.02-.04c-.05-.1-.01-.25,.06-.41,.16-.35,.53-.77,.66-.96h0s.07-.09,.1-.14h0c.03-.06,.07-.11,.1-.16l.03-.05,.03-.04s.02-.03,.02-.04c.01-.02,.02-.04,.03-.06,.02-.04,.04-.07,.06-.11,.01-.02,.02-.04,.03-.06,.03-.06,.06-.12,.09-.18,0-.02,.02-.04,.02-.06s.02-.04,.02-.06c.02-.06,.05-.11,.07-.17h0v-.03c.04-.08,.06-.17,.09-.26,.02-.08,.04-.16,.06-.25v-.03h.01c.01-.07,.02-.12,.03-.18v-.04c.03-.16,.05-.32,.06-.48,0-.03,0-.06,0-.09s0-.06,0-.09v-.02s0-.03,0-.05c0-.05,0-.1,0-.15v-.07s0-.08,0-.11v-.04c0-.05-.01-.1-.02-.15-.03-.23-.07-.46-.14-.68h0c-.02-.1-.05-.18-.08-.27-.01-.04-.03-.08-.04-.12-.01-.03-.02-.06-.04-.09v-.02c-.03-.07-.06-.13-.1-.2-.17-.36-.39-.7-.66-1-.03-.03-.06-.06-.09-.1h0s0-.01-.02-.03v-.02h-.02v-.02c-.06-.1-.07-.22-.06-.33,.02-.1,.07-.21,.18-.31h0c.11-.1,.24-.13,.38-.11,.22,.02,.46,.14,.59,.23Z"/><path class="cls-31" d="M212.05,95.53h0c.34,.21,.66,.46,.93,.76,.04,.04,.07,.08,.11,.12,1.6,1.83,1.41,4.61-.42,6.21-.27,.23-.56,.43-.87,.59-.05,.02-.09,.05-.14,.07-.03,.01-.06,.03-.09,.04-.01,0-.02-.02-.03-.03h0s-.02-.02-.02-.04c-.05-.1-.01-.25,.06-.41,.16-.35,.53-.77,.66-.96h0s.07-.09,.1-.14h0c.03-.06,.07-.11,.1-.16h0l.02-.05,.03-.04,.02-.04s.02-.04,.03-.06l.06-.11s.02-.04,.03-.06c.02-.04,.04-.07,.05-.11,.01-.02,.02-.04,.03-.07l.02-.06s.02-.04,.02-.06c.02-.06,.05-.11,.07-.17h0v-.03l.02-.05c.02-.07,.05-.14,.07-.21s.04-.14,.06-.21v-.03l.02-.03h0s.01-.08,.02-.12v-.06l.02-.02v-.02s.01-.06,.02-.09v-.1s.02-.06,.02-.1,0-.06,0-.09c0-.04,0-.07,0-.11v-.2s0-.03,0-.05c0-.05,0-.1,0-.15v-.07s0-.08,0-.11v-.09s-.01-.07-.02-.11c0-.03,0-.06-.01-.09,0-.04,0-.07-.02-.11v-.05s-.01-.03-.02-.04c0-.03-.01-.06-.02-.1s-.01-.07-.02-.1c0-.03-.01-.05-.02-.08,0-.04-.02-.07-.03-.11h0s-.02-.08-.03-.12c0-.02-.01-.04-.02-.07,0-.03-.02-.06-.03-.08s-.02-.05-.03-.07l-.02-.04s-.02-.06-.04-.09v-.02s-.03-.05-.04-.08c0-.02-.02-.04-.03-.06l-.03-.06s-.03-.06-.04-.09l-.02-.05s-.04-.07-.06-.11c-.01-.02-.03-.05-.04-.07-.02-.04-.04-.07-.06-.11l-.05-.07s-.05-.07-.07-.11c-.02-.02-.03-.04-.05-.07-.03-.04-.06-.08-.08-.11l-.03-.04v-.02c-.06-.05-.1-.11-.15-.16-.03-.03-.06-.06-.09-.1h0s0-.01-.02-.03v-.02h-.02v-.02c-.06-.1-.07-.22-.06-.33,.02-.1,.07-.21,.18-.31Z"/><path class="cls-36" d="M211.6,102.84c.02,.27,.12,.48,.35,.61-.13,0-.26-.04-.36-.13h0s-.02-.02-.03-.03h0s-.02-.02-.02-.04c-.05-.11-.01-.25,.06-.41Z"/><path class="cls-7" d="M211.6,102.84c0,.16,.05,.3,.13,.41-.02,0-.04,.02-.06,.03-.03,.01-.06,.03-.09,.04-.01,0-.02-.02-.03-.03h0s-.02-.02-.02-.04c-.05-.1-.01-.25,.06-.41Z"/></g><g><path class="cls-7" d="M222.88,101.24l-.09-.43,.84-.17c.09-.02,.17,.04,.19,.13h0l.02,.11c.02,.09-.04,.17-.13,.19l-.84,.17Z"/><path class="cls-36" d="M222.88,101.24l-.04-.21,1-.2v.06c.03,.09-.03,.17-.11,.19l-.84,.17Z"/><path class="cls-1" d="M222.6,101.69c-.41,.11-.83,.16-1.25,.14-2.43-.07-4.35-2.09-4.28-4.53,.01-.42,.08-.84,.21-1.24,.01-.03,.12-.29,.31-.47,.09-.09,.21-.16,.34-.18h0s.03,0,.04,0h0s.03,0,.04,0c.11,.04,.19,.16,.26,.32,.15,.36,.21,.91,.26,1.14h0c.01,.06,.02,.11,.03,.17h0c.01,.07,.03,.13,.04,.19v.05l.03,.05s0,.03,.01,.05c0,.02,.01,.04,.02,.06,.01,.04,.03,.08,.04,.12,0,.02,.02,.05,.03,.07,.02,.06,.05,.12,.07,.18,0,.02,.02,.04,.02,.06s.02,.04,.03,.06c.03,.06,.05,.11,.08,.17h0v.03c.05,.08,.09,.16,.14,.23,.04,.07,.09,.14,.14,.21l.02,.03h0c.03,.06,.07,.1,.1,.15h.01v.03c.11,.13,.22,.25,.33,.37,.02,.02,.04,.04,.07,.07s.04,.04,.06,.06h.01s.02,.03,.04,.04c.04,.03,.07,.07,.11,.1l.06,.05s.06,.05,.09,.07l.04,.03s.08,.06,.12,.09c.19,.14,.38,.26,.59,.36h.01c.08,.05,.16,.08,.24,.12,.04,.02,.08,.03,.11,.05,.03,.01,.06,.02,.09,.04h.02c.07,.03,.14,.05,.21,.08,.38,.12,.78,.19,1.18,.2,.04,0,.09,0,.13,0h0s.01,0,.03,0h.04c.11,.04,.2,.11,.27,.2,.06,.08,.1,.19,.11,.34h0c0,.15-.07,.26-.18,.36-.17,.15-.42,.24-.57,.28Z"/><path class="cls-31" d="M223.35,101.05h0c-.39,.11-.78,.17-1.18,.17-.05,0-.11,0-.16,0-2.43-.07-4.35-2.09-4.28-4.53,.01-.35,.06-.7,.16-1.04,.01-.05,.03-.1,.04-.15,0-.03,.02-.06,.03-.09,.01,0,.03,0,.04,0h0s.03,0,.04,0c.11,.04,.19,.16,.26,.32,.15,.36,.21,.91,.26,1.14h0c.01,.06,.02,.11,.03,.17h0c.01,.07,.03,.13,.04,.19v.05l.03,.05v.05s.03,.04,.03,.06l.04,.12s.02,.05,.03,.07c.01,.04,.03,.08,.05,.12,0,.02,.02,.05,.03,.07l.02,.06s.02,.04,.03,.06c.03,.06,.05,.11,.08,.17h0v.03l.03,.04c.03,.07,.07,.13,.11,.19s.08,.13,.12,.19l.02,.03,.02,.03h0s.04,.07,.06,.09l.04,.05h.01v.03s.05,.05,.07,.07l.04,.05,.02,.02s.04,.05,.06,.07,.04,.04,.06,.07c.02,.03,.05,.05,.07,.08l.07,.07,.06,.06h.01s.02,.03,.04,.04c.04,.03,.07,.07,.11,.1l.06,.05s.06,.05,.09,.07l.04,.03,.04,.03s.06,.05,.09,.07c.02,.02,.05,.04,.08,.05,.03,.02,.06,.04,.09,.06l.05,.03s.02,.02,.04,.02c.03,.02,.06,.03,.08,.05s.06,.03,.09,.05c.02,.01,.05,.03,.07,.04,.03,.02,.07,.04,.1,.05h.01s.07,.04,.1,.05c.02,.01,.04,.02,.06,.03,.03,.01,.05,.02,.08,.04s.05,.02,.07,.03l.04,.02s.06,.02,.09,.04h.02s.05,.02,.08,.03c.02,0,.04,.01,.06,.02l.07,.02s.06,.02,.09,.03h.05s.08,.04,.12,.05c.03,0,.05,.01,.08,.02,.04,0,.08,.02,.12,.03l.08,.02s.08,.01,.13,.02c.03,0,.05,0,.08,.01,.05,0,.09,.01,.14,.02h.08c.07,.01,.14,.02,.21,.02,.04,0,.09,0,.13,0h0s.01,0,.03,0h.04c.11,.04,.2,.11,.27,.2,.06,.08,.1,.19,.11,.34Z"/><path class="cls-36" d="M218.29,95.75c-.21-.17-.43-.24-.69-.16,.09-.09,.21-.16,.34-.18h0s.03,0,.04,0h0s.03,0,.04,0c.11,.04,.19,.16,.26,.33Z"/><path class="cls-7" d="M218.29,95.75c-.12-.1-.25-.16-.39-.18,0-.02,.01-.04,.02-.06,0-.03,.02-.06,.03-.09,.01,0,.03,0,.04,0h0s.03,0,.04,0c.11,.04,.19,.16,.26,.32Z"/></g><g><path class="cls-7" d="M222.17,130.54l.25,.36-.71,.49c-.07,.05-.17,.03-.22-.04h0l-.06-.09c-.05-.07-.03-.17,.04-.22l.71-.49Z"/><path class="cls-36" d="M222.17,130.54l.12,.18-.84,.58-.03-.05c-.05-.07-.03-.17,.04-.22l.71-.49Z"/><path class="cls-1" d="M222.26,130.02c.33-.26,.7-.47,1.09-.62,2.27-.89,4.82,.23,5.7,2.5,.15,.39,.25,.8,.29,1.22,0,.03,0,.31-.1,.55-.05,.12-.13,.23-.25,.3h0s-.03,.01-.04,.02h0s-.03,0-.04,0c-.11,0-.24-.07-.36-.2-.27-.27-.54-.76-.68-.95h0s-.06-.1-.1-.14h0c-.04-.06-.07-.11-.11-.16l-.03-.04-.03-.04s-.02-.03-.03-.04c-.01-.02-.03-.03-.04-.05-.03-.03-.06-.06-.09-.09-.02-.02-.03-.04-.05-.05-.05-.05-.09-.1-.14-.14-.01-.01-.03-.03-.04-.04s-.03-.03-.05-.04c-.05-.04-.09-.08-.14-.12h0v-.02c-.08-.06-.15-.11-.23-.16-.07-.05-.14-.1-.21-.14l-.03-.02h-.01s-.1-.07-.14-.09h-.01l-.02-.02c-.14-.08-.29-.15-.43-.21-.03-.01-.06-.02-.09-.04s-.05-.02-.08-.03h-.01s-.03-.02-.05-.02c-.05-.02-.09-.03-.14-.05l-.07-.02s-.07-.02-.11-.03h-.04s-.1-.04-.15-.05c-.23-.05-.45-.09-.69-.1h-.01c-.09,0-.18-.01-.27-.01-.04,0-.08,0-.12,0-.03,0-.07,0-.1,0h-.02c-.07,0-.14,0-.22,.02-.4,.04-.79,.13-1.17,.28-.04,.02-.08,.03-.12,.05h0s-.01,0-.03,0h-.05c-.11,.02-.23,0-.33-.06-.09-.05-.17-.13-.23-.27h0c-.06-.13-.04-.27,.03-.4,.1-.2,.29-.38,.41-.48Z"/><path class="cls-31" d="M221.81,130.9h0c.31-.26,.66-.47,1.02-.63,.05-.02,.1-.04,.15-.06,2.26-.89,4.82,.23,5.7,2.5,.13,.33,.22,.67,.26,1.02,0,.05,.01,.1,.02,.15,0,.03,0,.06,0,.1-.01,0-.03,.01-.04,.02h0s-.03,0-.04,0c-.11,0-.24-.07-.36-.2-.27-.27-.54-.76-.68-.95h0s-.06-.1-.1-.14h0c-.04-.06-.07-.11-.11-.16h-.01l-.02-.04-.03-.04-.03-.04s-.03-.03-.04-.05l-.09-.09s-.03-.04-.05-.05c-.03-.03-.06-.06-.09-.09-.02-.02-.03-.03-.05-.05l-.04-.04s-.03-.03-.05-.04c-.05-.04-.09-.08-.14-.12h0v-.02l-.05-.03c-.06-.05-.12-.09-.18-.13s-.12-.08-.18-.13l-.03-.02-.03-.02h-.01s-.06-.04-.09-.06l-.06-.03h-.01l-.02-.02s-.05-.03-.08-.04l-.06-.03h-.03s-.06-.04-.09-.06-.05-.03-.08-.04c-.03-.01-.07-.03-.1-.04l-.09-.04-.08-.03h-.01s-.03-.02-.05-.02c-.05-.02-.09-.03-.14-.05l-.07-.02s-.07-.02-.11-.03h-.04l-.04-.02s-.07-.02-.11-.03c-.03,0-.06-.01-.09-.02-.04,0-.07-.02-.11-.02h-.05s-.03-.02-.04-.02c-.03,0-.07,0-.1-.01s-.07,0-.1-.01c-.03,0-.05,0-.08,0-.04,0-.08,0-.11-.01h-.01s-.07,0-.11,0c-.02,0-.05,0-.07,0-.03,0-.06,0-.09,0s-.05,0-.08,0c-.02,0-.03,0-.05,0-.03,0-.07,0-.1,0h-.02s-.05,0-.08,0c-.02,0-.04,0-.07,0h-.07s-.06,.01-.1,.02h-.05s-.08,.02-.12,.03c-.03,0-.06,0-.08,.01-.04,0-.08,.02-.12,.02l-.08,.02s-.08,.02-.12,.03c-.03,0-.05,.01-.08,.02-.05,.01-.09,.03-.14,.04l-.05,.02h-.02c-.06,.03-.13,.05-.19,.08-.04,.02-.08,.03-.12,.05h0s-.01,0-.03,0h-.05c-.11,.02-.23,0-.33-.06-.08-.05-.17-.14-.23-.27Z"/><path class="cls-36" d="M228.54,133.8c.25,.08,.49,.05,.7-.12-.05,.12-.13,.23-.25,.3h0s-.03,.01-.04,.02h0s-.03,0-.04,0c-.12,0-.24-.07-.37-.2Z"/><path class="cls-7" d="M228.54,133.8c.15,.05,.3,.05,.43,.02,0,.02,0,.04,0,.06,0,.03,0,.06,0,.1-.01,0-.03,.01-.04,.02h0s-.03,0-.04,0c-.11,0-.24-.07-.37-.2Z"/></g><g><path class="cls-7" d="M211.57,126.07l.02,.44-.86,.05c-.09,0-.16-.06-.17-.15h0v-.11c-.01-.09,.06-.17,.15-.17l.86-.05Z"/><path class="cls-36" d="M211.57,126.07v.22l-1.01,.06v-.06c0-.09,.06-.17,.15-.17l.86-.05Z"/><path class="cls-1" d="M211.92,125.67c.42-.05,.84-.03,1.25,.04,2.39,.42,3.99,2.71,3.57,5.1-.07,.42-.21,.82-.39,1.19-.02,.03-.16,.27-.38,.42-.11,.08-.23,.13-.36,.12h0s-.03,0-.04,0h0s-.03,0-.04-.02c-.1-.05-.17-.19-.21-.36-.09-.38-.07-.93-.09-1.16h0c0-.06,0-.12,0-.17h0c0-.07-.01-.13-.02-.19v-.1s-.02-.03-.02-.05c0-.02,0-.04,0-.06,0-.04-.01-.08-.02-.13,0-.02,0-.05-.02-.07-.01-.07-.03-.13-.05-.19,0-.02-.01-.04-.02-.06s-.01-.04-.02-.06c-.02-.06-.04-.12-.06-.18h0v-.03c-.03-.09-.07-.17-.1-.25-.03-.08-.07-.16-.1-.23v-.03h-.02c-.03-.06-.05-.11-.08-.16h0v-.03c-.09-.14-.18-.28-.27-.41-.02-.03-.04-.05-.06-.07s-.03-.05-.05-.07h0s-.02-.04-.03-.05c-.03-.04-.06-.08-.09-.11l-.05-.06s-.05-.06-.08-.08l-.03-.03s-.07-.07-.11-.11c-.17-.16-.34-.31-.53-.44h0c-.07-.06-.15-.11-.22-.15-.03-.02-.07-.04-.11-.06-.03-.02-.06-.03-.09-.05h-.02c-.06-.04-.13-.08-.19-.11-.36-.17-.75-.3-1.14-.37-.04,0-.09-.01-.13-.02h0s-.01,0-.03-.01h-.03v-.02c-.11-.05-.2-.13-.26-.22-.05-.09-.08-.2-.06-.35h0c.02-.15,.11-.25,.23-.33,.19-.12,.45-.17,.6-.19Z"/><path class="cls-31" d="M211.08,126.19h0c.4-.05,.8-.05,1.2,0,.05,0,.11,.02,.16,.02,2.39,.42,3.99,2.71,3.57,5.1-.06,.35-.16,.69-.31,1.01-.02,.05-.04,.09-.06,.14-.01,.03-.03,.06-.04,.09-.01,0-.03,0-.04,0h0s-.03,0-.04-.02c-.1-.05-.17-.19-.21-.36-.09-.38-.07-.93-.09-1.16h0c0-.06,0-.12,0-.17h0c0-.07-.01-.13-.02-.19v-.1l-.02-.05s0-.04,0-.06l-.02-.13s0-.05-.02-.07c0-.04-.02-.08-.03-.12,0-.02-.01-.05-.02-.07l-.02-.06s-.01-.04-.02-.06c-.02-.06-.04-.12-.06-.18h0v-.03l-.02-.05c-.03-.07-.05-.14-.08-.21s-.06-.14-.09-.2v-.03l-.03-.03h0s-.03-.07-.05-.1l-.03-.06h0v-.03s-.04-.05-.06-.08l-.03-.06-.02-.03s-.03-.05-.05-.08-.03-.05-.05-.07c-.02-.03-.04-.06-.06-.09l-.06-.07-.05-.07h0s-.02-.04-.03-.05c-.03-.04-.06-.08-.09-.11l-.05-.06s-.05-.06-.08-.08l-.03-.03-.03-.03s-.05-.05-.08-.08c-.02-.02-.04-.04-.07-.06-.03-.02-.05-.05-.08-.07l-.04-.04s-.02-.02-.03-.03c-.03-.02-.05-.04-.08-.06s-.05-.04-.08-.06c-.02-.02-.04-.03-.06-.05-.03-.02-.06-.05-.09-.07h0s-.06-.05-.09-.07c-.02-.01-.04-.03-.06-.04-.02-.02-.05-.03-.07-.05s-.04-.03-.07-.04l-.04-.02s-.06-.03-.09-.05h-.02s-.05-.03-.07-.05c-.02-.01-.04-.02-.06-.03l-.06-.03s-.06-.03-.09-.04l-.05-.02s-.08-.03-.12-.05c-.03-.01-.05-.02-.08-.03-.04-.01-.08-.03-.12-.04l-.08-.03s-.08-.03-.12-.04c-.03,0-.05-.02-.08-.02-.05-.01-.09-.02-.14-.04h-.05l-.02-.02c-.07-.01-.13-.03-.2-.04-.04,0-.09-.01-.13-.02h0s-.01,0-.03-.01h-.03v-.02c-.11-.05-.2-.13-.26-.22-.05-.09-.07-.2-.05-.35Z"/><path class="cls-36" d="M215.31,132.17c.18,.2,.39,.3,.66,.26-.11,.08-.23,.13-.36,.12h0s-.03,0-.04,0h0s-.03,0-.04-.02c-.1-.05-.17-.19-.21-.36Z"/><path class="cls-7" d="M215.31,132.17c.11,.12,.23,.2,.36,.24,0,.02-.02,.04-.03,.06-.01,.03-.03,.06-.04,.09-.01,0-.03,0-.04,0h0s-.03,0-.04-.02c-.1-.05-.17-.19-.21-.36Z"/></g><g><path class="cls-7" d="M225.01,138l-.17-.4,.79-.34c.08-.03,.18,0,.21,.09h0l.04,.1c.03,.08,0,.18-.09,.21l-.79,.34Z"/><path class="cls-36" d="M225.01,138l-.09-.2,.94-.4,.02,.05c.03,.08,0,.18-.09,.21l-.79,.34Z"/><path class="cls-1" d="M224.82,138.49c-.38,.19-.78,.32-1.19,.39-2.4,.42-4.68-1.18-5.1-3.57-.07-.41-.09-.84-.04-1.26,0-.03,.06-.31,.21-.52,.07-.11,.17-.2,.3-.24h0s.03,0,.04-.01h0s.03,0,.04,0c.11,.01,.22,.12,.32,.27,.21,.32,.39,.85,.48,1.06h0c.02,.05,.04,.11,.07,.16h0c.03,.06,.05,.12,.08,.18l.03,.05,.02,.04s.01,.03,.02,.04c.01,.02,.02,.04,.03,.06,.02,.04,.04,.07,.06,.11,.01,.02,.03,.04,.04,.06,.03,.06,.07,.11,.11,.17,.01,.02,.02,.03,.04,.05s.02,.03,.04,.05c.04,.05,.07,.1,.11,.15h0v.02c.07,.07,.13,.14,.19,.2,.06,.06,.12,.12,.18,.18l.02,.02h0s.08,.09,.12,.12h.01l.02,.02c.12,.11,.25,.2,.38,.3,.03,.02,.05,.03,.08,.05s.05,.03,.08,.05h.01s.03,.03,.04,.03c.04,.03,.08,.05,.13,.07l.06,.04s.07,.04,.1,.05l.04,.02s.09,.05,.14,.07c.21,.1,.43,.17,.65,.23h.01c.09,.03,.17,.05,.26,.07,.04,0,.08,.02,.12,.02,.03,0,.07,.01,.1,.02h.02c.07,.01,.14,.02,.22,.03,.4,.04,.8,.02,1.2-.05,.04,0,.09-.02,.13-.03h0s.01,0,.03,0c0,0,.01,0,.02,0h.02c.11,.01,.22,.06,.31,.13,.07,.07,.14,.16,.17,.31h0c.03,.14-.02,.27-.11,.39-.13,.18-.36,.31-.5,.39Z"/><path class="cls-31" d="M225.43,137.72h0c-.35,.19-.73,.33-1.13,.41-.05,.01-.11,.02-.16,.03-2.39,.42-4.68-1.18-5.1-3.57-.06-.35-.08-.7-.06-1.05,0-.05,0-.1,.01-.15,0-.03,0-.06,.01-.1,.01,0,.03,0,.04,0h0s.03,0,.04,0c.11,.01,.22,.12,.32,.27,.21,.32,.39,.85,.48,1.06h0c.02,.05,.04,.11,.07,.16h0c.03,.06,.05,.12,.08,.18v.02l.03,.03,.02,.04,.02,.04s.02,.04,.03,.06l.06,.11s.03,.04,.04,.06c.02,.04,.04,.07,.07,.1,.01,.02,.03,.04,.04,.06l.04,.05s.02,.03,.04,.05c.04,.05,.07,.1,.11,.15h0v.02l.04,.04c.05,.06,.1,.11,.15,.17s.1,.11,.15,.16l.02,.02,.02,.02h0s.05,.06,.08,.08l.05,.04h.01l.02,.02s.05,.04,.07,.06l.05,.04,.02,.02s.05,.04,.08,.06,.05,.04,.07,.05c.03,.02,.06,.04,.09,.06l.08,.05,.08,.05h.01s.03,.03,.04,.03c.04,.03,.08,.05,.13,.07l.06,.04s.07,.04,.1,.05l.04,.02,.04,.02s.07,.03,.1,.05c.03,.01,.06,.02,.08,.04,.03,.01,.07,.03,.1,.04l.05,.02s.03,.01,.04,.02c.03,.01,.06,.02,.09,.03s.06,.02,.1,.03c.03,0,.05,.02,.08,.02,.04,.01,.07,.02,.11,.03h.01s.07,.02,.1,.03c.02,0,.04,.01,.07,.02,.03,0,.06,.01,.09,.02s.05,0,.08,.01h.05s.07,.02,.1,.03h.02s.05,.01,.08,.01c.02,0,.04,0,.07,0h.07s.06,.01,.1,.02h.05s.08,0,.13,.01c.03,0,.06,0,.08,0,.04,0,.08,0,.13,0h.09s.09,0,.13,0c.03,0,.05,0,.08,0,.05,0,.09,0,.14-.01h.08c.07-.02,.14-.03,.2-.04,.04,0,.09-.02,.13-.03h0s.01,0,.03,0c0,0,.01,0,.02,0h.02c.11,.01,.22,.06,.31,.13,.07,.07,.14,.17,.17,.31Z"/><path class="cls-36" d="M219.41,133.55c-.23-.12-.47-.14-.71-.02,.07-.11,.17-.2,.3-.24h0s.03,0,.04-.01h0s.03,0,.04,0c.12,.01,.22,.12,.32,.27Z"/><path class="cls-7" d="M219.41,133.55c-.14-.07-.28-.11-.42-.1,0-.02,0-.04,0-.06,0-.03,0-.06,.01-.1,.01,0,.03,0,.04,0h0s.03,0,.04,0c.11,.01,.22,.12,.32,.27Z"/></g><g><path class="cls-7" d="M227.84,115.56l-.44-.03,.06-.86c0-.09,.08-.16,.17-.15h.11c.09,.01,.16,.09,.15,.18l-.06,.86Z"/><path class="cls-36" d="M227.84,115.56l-.22-.02,.07-1.02h.06c.09,.01,.16,.09,.15,.18l-.06,.86Z"/><path class="cls-1" d="M228.2,115.95c0,.42-.07,.84-.2,1.24-.72,2.32-3.19,3.62-5.51,2.9-.4-.12-.78-.31-1.14-.54-.02-.02-.25-.19-.37-.43-.06-.12-.1-.24-.08-.38h0s0-.03,.01-.04h0s.01-.03,.02-.04c.06-.09,.21-.14,.38-.16,.38-.04,.93,.05,1.16,.06h0c.06,0,.11,0,.17,.01h0c.06,0,.12,0,.19,0h.1s.03,0,.05,0c.02,0,.04,0,.07,0,.04,0,.08,0,.13,0,.02,0,.05,0,.07,0,.07,0,.13-.01,.2-.02,.02,0,.04,0,.06,0s.04,0,.06,0c.06,0,.12-.02,.18-.03h.03c.09-.02,.18-.05,.26-.07,.08-.02,.16-.05,.24-.07h.04c.05-.03,.11-.05,.16-.07h.04c.15-.07,.3-.14,.44-.22,.03-.01,.05-.03,.08-.05s.05-.03,.08-.05h.01s.03-.02,.04-.03c.04-.02,.08-.05,.12-.08l.06-.04s.06-.04,.09-.07l.04-.03s.08-.06,.12-.09c.18-.14,.35-.3,.51-.47h0c.06-.07,.12-.14,.17-.21,.03-.03,.05-.06,.08-.1,.02-.03,.04-.05,.06-.08h.01c.04-.07,.08-.13,.12-.19,.22-.34,.39-.7,.51-1.09,.01-.04,.02-.08,.04-.13h0s0-.01,.02-.03v-.02h.02v-.02c.07-.1,.16-.17,.26-.21,.09-.04,.21-.05,.36-.01h0c.14,.04,.23,.14,.29,.27,.1,.2,.12,.46,.12,.62Z"/><path class="cls-31" d="M227.79,115.06h0c0,.41-.05,.81-.15,1.2-.01,.05-.03,.1-.05,.16-.72,2.32-3.19,3.62-5.51,2.9-.34-.1-.66-.25-.96-.43-.04-.03-.09-.05-.13-.08-.03-.02-.05-.04-.08-.05,0-.01,0-.03,.01-.04h0s.01-.03,.02-.04c.06-.09,.21-.14,.38-.16,.38-.04,.93,.05,1.16,.06h0c.06,0,.11,0,.17,.01h0c.06,0,.12,0,.19,0h.15s.04,0,.07,0h.13s.05-.01,.07-.01c.04,0,.08,0,.12-.01,.02,0,.05,0,.07,0h.06s.04-.01,.06-.02c.06,0,.12-.02,.18-.03h.03l.05-.02c.07-.02,.14-.03,.21-.05s.14-.04,.21-.06h.03l.03-.02h.01s.07-.03,.1-.04l.06-.02h.04s.06-.04,.09-.05l.06-.03h.03s.06-.04,.09-.05,.05-.03,.08-.04c.03-.02,.06-.03,.1-.05l.08-.05,.08-.05h.01s.03-.02,.04-.03c.04-.02,.08-.05,.12-.08l.06-.04s.06-.04,.09-.07l.04-.03,.04-.03s.06-.04,.09-.07c.02-.02,.05-.04,.07-.06,.03-.02,.06-.05,.08-.07l.04-.04s.02-.02,.03-.03c.02-.02,.05-.05,.07-.07s.05-.05,.07-.07c.02-.02,.04-.04,.06-.06,.03-.03,.05-.05,.08-.08h0s.05-.06,.07-.09c.02-.02,.03-.03,.05-.05,.02-.02,.04-.05,.06-.07s.03-.04,.05-.06l.03-.04s.04-.05,.06-.08h.01s.03-.06,.05-.08c.01-.02,.02-.04,.04-.06l.04-.06s.03-.05,.05-.08l.03-.05s.04-.07,.06-.11c.01-.02,.03-.05,.04-.07,.02-.04,.04-.07,.06-.11l.04-.08s.04-.08,.05-.12c.01-.02,.02-.05,.03-.07,.02-.04,.04-.09,.05-.13l.02-.05v-.02c.03-.06,.05-.13,.07-.2,.01-.04,.02-.08,.04-.13h0s0-.01,.02-.03v-.02h.02v-.02c.07-.1,.16-.17,.26-.21,.09-.03,.21-.05,.36,0Z"/><path class="cls-36" d="M221.32,118.5c-.22,.15-.34,.35-.34,.62-.06-.12-.1-.24-.08-.38h0s0-.03,.01-.04h0s.01-.03,.02-.04c.07-.1,.21-.14,.38-.16Z"/><path class="cls-7" d="M221.32,118.5c-.13,.09-.23,.2-.28,.33-.02-.01-.03-.02-.05-.03-.03-.02-.05-.04-.08-.05,0-.01,0-.03,.01-.04h0s.01-.03,.02-.04c.06-.1,.21-.14,.38-.16Z"/></g></g><g><path class="cls-7" d="M215.98,121.62l.02,.44-.86,.05c-.09,0-.16-.06-.17-.15h0v-.11c-.01-.09,.06-.17,.15-.17l.86-.05Z"/><path class="cls-36" d="M215.98,121.62v.22l-1.01,.06v-.06c0-.09,.06-.17,.15-.17l.86-.05Z"/><path class="cls-1" d="M216.32,121.22c.42-.05,.84-.03,1.25,.04,2.39,.42,3.99,2.71,3.57,5.1-.07,.42-.21,.82-.39,1.19-.02,.03-.16,.27-.38,.42-.11,.08-.23,.13-.36,.12h0s-.03,0-.04,0h0s-.03,0-.04-.02c-.1-.05-.17-.19-.21-.36-.09-.38-.07-.93-.09-1.16h0c0-.06,0-.12,0-.17h0c0-.07-.01-.13-.02-.19v-.1s-.02-.03-.02-.05c0-.02,0-.04,0-.06,0-.04-.01-.08-.02-.13,0-.02,0-.05-.02-.07-.01-.07-.03-.13-.05-.19,0-.02-.01-.04-.02-.06s-.01-.04-.02-.06c-.02-.06-.04-.12-.06-.18h0v-.03c-.03-.09-.07-.17-.1-.25-.03-.08-.07-.16-.1-.23v-.03h-.02c-.03-.06-.05-.11-.08-.16h0v-.03c-.09-.14-.18-.28-.27-.41-.02-.03-.04-.05-.06-.07s-.03-.05-.05-.07h0s-.02-.04-.03-.05c-.03-.04-.06-.08-.09-.11l-.05-.06s-.05-.06-.08-.08l-.03-.03s-.07-.07-.11-.11c-.17-.16-.34-.31-.53-.44h0c-.07-.06-.15-.11-.22-.15-.03-.02-.07-.04-.11-.06-.03-.02-.06-.03-.09-.05h-.02c-.06-.04-.13-.08-.19-.11-.36-.17-.75-.3-1.14-.37-.04,0-.09-.01-.13-.02h0s-.01,0-.03-.01h-.03v-.02c-.11-.05-.2-.13-.26-.22-.05-.09-.08-.2-.06-.35h0c.02-.15,.11-.25,.23-.33,.19-.12,.45-.17,.6-.19Z"/><path class="cls-31" d="M215.49,121.74h0c.4-.05,.8-.05,1.2,0,.05,0,.11,.02,.16,.02,2.39,.42,3.99,2.71,3.57,5.1-.06,.35-.16,.69-.31,1.01-.02,.05-.04,.09-.06,.14-.01,.03-.03,.06-.04,.09-.01,0-.03,0-.04,0h0s-.03,0-.04-.02c-.1-.05-.17-.19-.21-.36-.09-.38-.07-.93-.09-1.16h0c0-.06,0-.12,0-.17h0c0-.07-.01-.13-.02-.19v-.1l-.02-.05s0-.04,0-.06l-.02-.13s0-.05-.02-.07c0-.04-.02-.08-.03-.12,0-.02-.01-.05-.02-.07l-.02-.06s-.01-.04-.02-.06c-.02-.06-.04-.12-.06-.18h0v-.03l-.02-.05c-.03-.07-.05-.14-.08-.21s-.06-.14-.09-.2v-.03l-.03-.03h0s-.03-.07-.05-.1l-.03-.06h0v-.03s-.04-.05-.06-.08l-.03-.06-.02-.03s-.03-.05-.05-.08-.03-.05-.05-.07c-.02-.03-.04-.06-.06-.09l-.06-.07-.05-.07h0s-.02-.04-.03-.05c-.03-.04-.06-.08-.09-.11l-.05-.06s-.05-.06-.08-.08l-.03-.03-.03-.03s-.05-.05-.08-.08c-.02-.02-.04-.04-.07-.06-.03-.02-.05-.05-.08-.07l-.04-.04s-.02-.02-.03-.03c-.03-.02-.05-.04-.08-.06s-.05-.04-.08-.06c-.02-.02-.04-.03-.06-.05-.03-.02-.06-.05-.09-.07h0s-.06-.05-.09-.07c-.02-.01-.04-.03-.06-.04-.02-.02-.05-.03-.07-.05s-.04-.03-.07-.04l-.04-.02s-.06-.03-.09-.05h-.02s-.05-.03-.07-.05c-.02-.01-.04-.02-.06-.03l-.06-.03s-.06-.03-.09-.04l-.05-.02s-.08-.03-.12-.05c-.03-.01-.05-.02-.08-.03-.04-.01-.08-.03-.12-.04l-.08-.03s-.08-.03-.12-.04c-.03,0-.05-.02-.08-.02-.05-.01-.09-.02-.14-.04h-.05l-.02-.02c-.07-.01-.13-.03-.2-.04-.04,0-.09-.01-.13-.02h0s-.01,0-.03-.01h-.03v-.02c-.11-.05-.2-.13-.26-.22-.05-.09-.07-.2-.05-.35Z"/><path class="cls-36" d="M219.72,127.72c.18,.2,.39,.3,.66,.26-.11,.08-.23,.13-.36,.12h0s-.03,0-.04,0h0s-.03,0-.04-.02c-.1-.05-.17-.19-.21-.36Z"/><path class="cls-7" d="M219.72,127.72c.11,.12,.23,.2,.36,.24,0,.02-.02,.04-.03,.06-.01,.03-.03,.06-.04,.09-.01,0-.03,0-.04,0h0s-.03,0-.04-.02c-.1-.05-.17-.19-.21-.36Z"/></g></g><path class="cls-6" d="M219.13,106.21c2.44,9.72,5.61,21.99,3.21,24.82-2.4,2.83-7.45-1.86-8.18-4.59-.73-2.74-.06-20.34,.8-21.45,.87-1.11,3.31-.43,3.56,0s.61,1.22,.61,1.22Z"/><path class="cls-6" d="M216.31,93.14s3.72,4.33,3.45,6.18-1.29,1.77-3.45,1.94c-2.16,.18-2.76,.62-3.46,0-.7-.62-.09-1.89,.42-3.28s3.03-5.2,3.03-5.2"/><g><path class="cls-25" d="M162.13,196.1c1.27-2.82,7.82-23.49,12-36.77,.28-9.7,.36-18.98,.16-25.08-.42-13.21-.25-36.7-.25-36.7,0,0-9.18,5.05-10.02,7.98-.84,2.94-15.93,66.25-15.93,66.25,0,0-5.66,1.26-5.66,1.89v4.4s-3.35,3.87-4.4,6.17"/><path class="cls-25" d="M140.6,187.57s-3.91-9.13-4.04-11.85,.41-7.47,2.99-8.83,7.07-5.7,10.19-4.28,4.6-1.99,9.5-.28,6.45,6.59,6.45,6.59l-6.98,23.84-18.1-5.19Z"/><path class="cls-3" d="M152.49,181.71c.77-3-1.77-4.01-3.1-4.13-1.34-.12,6.82-1.91,6.82-1.91,0,0,12.06-33.99,17.37-38.38,1.77-1.94,8.9-4.26,8.62,5.45-4.17,13.29-14.14,46.46-15.41,49.28,0,0-12.74,7.85-15.4,7.97s-10.08-6.26-11.12-8.46-2.23-7.28-2.23-7.28l5.94-6.31,8.53,3.77Z"/><g><path class="cls-39" d="M180.64,176.85c1.08-1.35,1.25-3.16,.79-4.52,.01-.01,.02-.02,.04-.03-.03-.05-.07-.1-.1-.15-.3-.76-.79-1.34-1.44-1.58-.86-.69-1.89-1.21-2.94-1.57-3.67-1.25-7.57-.83-11.33,.33,.88-6.58,1.41-10.61-2.04-16.71-1.06-1.86-2.77-3.98-4.1-4.86l-.04-.03c-2.35-1.51-5.14,1.24-3.78,3.67,.49,.87,.91,1.76,1.11,2.74,1.7,8.05-1.16,17.37-1.16,17.37,0,0-2.03,.37-4.6,.62-5.26,.52-9.05,5.25-8.36,10.49,.7,5.3,1.98,10.17,3.39,11.24,1.04,.79,6.01,3.65,7.17,4.26,5.58,2.93,7.6,5.23,11.42,3.73,4.49-1.76,9.78-3.19,12.48-5.94,2.66-2.71-1.58-3.49-1.58-3.49,0,0,2.76-1.49,2.9-1.79,1.28-2.65-.26-3.83-1.64-4.24,1.32-.85,2.41-2.04,3.15-3.42,.7-2.95-1.37-4.06-5.23-4,2.41-.17,4.54-.45,5.88-2.11Z"/><g><path class="cls-14" d="M165.47,170.71c3.35,1.58,13.78-.28,13.78-.28,.24,0,.46,.05,.67,.13-.86-.69-1.89-1.21-2.94-1.57-3.67-1.25-7.57-.83-11.33,.33-.06,.45-.12,.91-.18,1.38Z"/><path class="cls-14" d="M181.43,172.34s.02-.02,.04-.03c-.03-.05-.07-.1-.1-.15,.02,.06,.05,.12,.07,.19Z"/></g><path class="cls-34" d="M166.35,175.06c-.1,.53-.02,1.77,.19,2.27,.53,1.28,1.62,1.8,3,2.02,.89,.14,2.3,.1,3.19-.07,2.27-.44,4.6-.26,6.66-1.3,1.45-.73,2.16-2.21,2.51-3.8,.14-.63,.16-1.31-.13-1.88-.35-.68-1.14-1.66-1.9-1.78-.76-.12-2.79,.45-3.55,.56-2.97,.45-4.67,1.03-7.53,1.97-1.05,.35-2.22,.92-2.43,2.01Z"/><path class="cls-34" d="M166.53,182.52c-.09,.49,.05,1,.23,1.47,.48,1.2,1.4,2.34,2.64,2.55,.8,.13,1.65,.03,2.45-.1,2.25-.39,4.23,.24,6.1-.74,1.31-.68,2.3-2.51,2.62-3.99,.12-.59,.14-1.23-.12-1.76-.32-.64-1-1.02-1.68-1.13-.68-.12-1.47-.16-2.16-.05-2.69,.42-5.3,1-7.88,1.88-.95,.32-2.01,.86-2.2,1.88Z"/><path class="cls-34" d="M165.46,189.65c-.09,.47,.05,.95,.23,1.39,.46,1.14,1.35,2.22,2.54,2.42,.77,.13,1.3,.06,2.07-.09,1.97-.39,3.87-.46,5.75-1.26,1.79-.76,2.77-1.28,3.07-2.69,.12-.56,0-1.72-.25-2.22-.31-.61-.96-.96-1.62-1.07s-1.33,0-1.99,.1c-2.59,.4-5.19,.81-7.67,1.65-.91,.31-1.93,.82-2.12,1.78Z"/><path class="cls-34" d="M166.18,196.03c-.21,.72,.11,1.36,.51,1.9,.97,1.31,2.21,2.05,3.99,1.55,.97-.27,2.66-.9,3.42-1.34,1.61-.95,2.49-1.15,3.39-2.11,.54-.57,.91-1.41,1.02-2.24,.17-1.42-.61-1.85-1.62-1.69-1.56,.17-3.74,.4-6.78,1.26-1.49,.42-3.52,1.23-3.93,2.67Z"/></g></g></g><polygon class="cls-24" points="325.87 98.2 337.1 231.45 349.32 227.53 339.4 97.25 325.87 98.2"/><polygon class="cls-53" points="337.1 231.45 333.43 228.13 325.87 128.67 325.87 126.76 325.04 123.68 324.27 114.98 324.27 111.41 323.04 108.6 322.19 101.15 326.83 101.56 327.23 106.95 329.33 107.18 329.82 106.6 329.46 107.75 327.36 108.02 328.39 114.71 328.34 120.07 329.28 128.09 330.5 139.56 338.52 231.37 337.1 231.45"/><path class="cls-39" d="M323.15,116.25c1.72-2.16,3.37-5.98,5.39-5.22s2.9,5.1,0,8.87c-2.9,3.77-5.75,7.64-5.75,7.64l.36-11.29Z"/></g><g><path class="cls-32" d="M283.26,107.28l102.61-7.98c2.01-.16,3.47-1.87,3.39-3.94l-3.14-75.28c-.1-2.37-2.22-4.44-4.59-4.46l-111.18-1.07c-1.52-.01-2.63,1.08-2.47,2.43l10.1,86.29c.28,2.43,2.64,4.22,5.27,4.01Z"/><path class="cls-29" d="M281.79,103.68s-3.47-9.98-3.09-11.92,3.06-5.73,2.09-7.53-3.02-3.18-3.85-8.25-1.94-15.83-2.28-19.1,.7-2.84-.02-6.78-3.53-5.33-3.1-9.09,.61-14.45-.07-16.66-1.83-6.62-.55-6.95,5.34-1.65,8.24-.98,34.92,.82,38.02,.39,24.5,.07,27.89,.06,21.08-.9,23.98-.43,6.52-.3,8.78,.91,2.8-.66,4.92,.12,2.86,4.49,2.35,6.69,.48,8.19,.6,9.3-1.09,3.12-1.55,3.99,.79,2.08,1.22,3.02,1.31,7.44,1.42,10.19,.3,4.88-.2,6.04,.1,8.45,.36,10,.28,6.7,.37,8.87,.84,7.75,.92,9.8,.04,3.48-.17,5.95-.22,4.54-.9,5.33-.34,1.64-5.28,1.59-5.93-.91-11.19,0-7.55,1.76-14.73,1.92c-7.3,.16-11.87,.9-16.18,.87-4.35-.03-11.84,1.27-15.12,1.48s-9.65,.52-14.11,.5-15.13,2.21-17.02,2.06-11.07,.8-11.79-1.36Z"/><path class="cls-24" d="M269.39,29.8s12.71,.32,13.87,.26,20.57-.04,24.54-.45c3.93-.4,27.57,.23,30.39,.18s23.98,.15,27.1-.31c3.1-.46,21.19-1,21.19-1l.06,1.55s-3.14-.23-4.42-.4-12.67,.3-16.18,.81-18.09,.1-20.48,.31-5.26,.34-9.55,.36-11.63-1.15-15.15-.8-11.14-.2-14.54,.26-20.47,.08-22.22,.38-14.42,.52-14.42,.52l-.2-1.68Z"/><path class="cls-24" d="M271.56,48.36s4.17-1.12,6.81-.49c2.63,.62,46.67,.61,48.27,.49s8.55-.53,13.19-.23c4.59,.3,27.79,.64,29.79,.08s17.65-.7,17.65-.7l.08,1.89s-16.39-.48-17.28-.2-27.39,.46-28.21,.34-6.64,1.23-8.66,.96-12.77-.65-16.99-.91-23.37,.04-27.09-.18-8.63-1.14-10.24-.62-7.14,1.13-7.14,1.13l-.18-1.57Z"/><path class="cls-24" d="M273.92,68.45s17.85,.03,21.08,.04c3.21,.02,19.66-.38,24.36-1.21s11.24-.2,15.69,0c4.41,.19,10.78,.69,15.74,.64,4.9-.05,20.72-.04,22.2-.1s9.71-2.17,11.23-2.3,3.82,.18,3.82,.18l.08,1.99s-2.53-.77-3.44-.82-9.59,1.95-11.64,2.17-19.36,.33-22.31,.21-13.91-.7-16.07-.68-12.81,.04-15.85,.23-23.52,1.77-25.26,1.41-19.45-.38-19.45-.38l-.16-1.38Z"/><path class="cls-24" d="M276.06,86.77s6.14,0,8.35,.18,5.69-.15,7.35-.34,9.43-.33,11.07-.14,14.64-.13,17.64-.06,13.55-.88,16.67-1.02,15.89,.67,17.64,.42,7.13-1.04,8.27-1.16,3.87,.74,4.3,.75,1.35,.03,1.55-.03,.94-.56,.94-.56c0,0,.94-.13,1.15,.03s2.62,.3,2.62,.3l15.21-.38,.05,1.11s-10.53-.26-12.6,.04-2.7,.5-4.39,.32-2.9-.28-4.03-.24-5.91,.12-7.41,.31-3.31,.36-10.34,.2-10.81-.91-15.05-.13-12.52,.69-15.67,.77-15.4,0-17.36,.22-9.32,.06-10.25,.04-5.99,0-7.26,.34-8.3,.29-8.3,.29l-.14-1.23Z"/></g><path class="cls-39" d="M332.65,123.92s7.24-6.05,11.87-7.72c4.63-1.67,5.24,1.32,5.19,2.25-.05,.93-2.22,5.12-2.03,6.07,.18,.95,7.01,2.96,6.23,4.76-.78,1.8-4.39,4.38-4.46,4.82-.07,.44,1.39,3.09,.57,4.16-.82,1.07-3.89,2.68-3.89,2.68,0,0-1.3,4.91-3.23,6.09-1.93,1.18-7.45-1.69-7.46-2.76,0-1.07,4.37-3.8,4.37-3.8,0,0-3.74-.67-3.47-2.93,.34-2.89,5.07-3.49,5.07-3.49,0,0-3.03-.12-3.88-1.44-.85-1.32,2.09-5.38,2.09-5.38,0,0-2.57,1.02-4.36,.48-1.78-.54-4.28-2.45-2.62-3.8Z"/><path class="cls-14" d="M342.23,126.06l6.3-4.38s-1.28,2.87-.6,3.16l-5.7,1.23Z"/><path class="cls-14" d="M343.9,134.12l5.76,.78s-.49-.95,.8-1.84l-6.56,1.06Z"/><polygon class="cls-14" points="346.8 140.57 341.82 140.55 345.91 141.68 346.13 140.93 346.8 140.57"/><g><g><g><path class="cls-1" d="M326.02,59.63c.49,14.91-8.48,27.57-20.5,28.55-.64,.05-1.28,.07-1.92,.05-11.79-.27-22.1-11.9-23.02-27.24-.98-16.5,9.28-29.85,22.35-29.55,2.71,.06,5.39,.72,7.93,1.94,8.59,4.14,14.77,14.42,15.16,26.24Z"/><path class="cls-31" d="M326.31,56.53c.5,15.23-8.64,28.1-20.9,29.05-.66,.05-1.31,.06-1.96,.05-12.04-.33-22.58-12.27-23.51-27.97-1.01-16.88,9.48-30.48,22.83-30.07,2.76,.08,5.5,.77,8.09,2.04,8.76,4.3,15.06,14.84,15.45,26.91Z"/><path class="cls-8" d="M323.22,56.61c.45,13.12-7.44,24.18-17.99,24.92-.56,.04-1.12,.05-1.68,.03-10.29-.36-19.22-10.62-19.99-23.98-.83-14.33,8.05-25.92,19.41-25.67,2.36,.05,4.7,.62,6.92,1.69,7.53,3.62,12.98,12.64,13.34,23.02Z"/><path class="cls-51" d="M302.58,60.25s.03-2.65-2.84-5.51c-4.16-4.16-4.67-5.09-1.34-4.46,3.29,.62,5.79,3.96,5.79,3.96"/><path class="cls-7" d="M296.11,67.81l-.19-1.69-2.73,.36c-.28,.04-.48,.35-.44,.7l.05,.44c.04,.35,.3,.6,.58,.56h0l2.72-.37Z"/><path class="cls-36" d="M296.11,67.81l-.09-.84-3.24,.43,.03,.22c.04,.35,.3,.6,.58,.56h0l2.72-.37Z"/><path class="cls-1" d="M307.64,61.62c-.49-.61-1.03-1.09-1.63-1.52-.58-.42-1.2-.74-1.81-1.09-.54-.31-1.03-.66-1.61-.78-.02,.05-.05,.09-.07,.14s-.05,.09-.08,.14c-.05,.11-.11,.21-.17,.32,0,.01-.01,.03-.02,.04-.02,.04-.05,.09-.08,.13s-.06,.09-.08,.14c-.06,.1-.12,.21-.18,.31-.19,.3-.38,.6-.59,.88-.03,.05-.07,.1-.1,.14-.05,.08-.11,.15-.17,.23-.04,.06-.08,.11-.12,.16s-.08,.1-.12,.16c0,.01-.02,.02-.03,.03-.06,.08-.13,.16-.19,.23-.02,.02-.03,.04-.05,.05-.02,.03-.05,.06-.08,.09l-.08,.09c-.07,.07-.13,.15-.2,.23-.09,.1-.19,.21-.29,.31-.08,.08-.16,.16-.24,.24-.02,.01-.03,.03-.05,.04-.07,.06-.13,.13-.2,.19h0c-.11,.11-.22,.21-.33,.31-.23,.2-.47,.4-.72,.58-.45,.34-.91,.64-1.39,.91-.2,.12-.41,.23-.63,.33h0c-.11,.05-.21,.1-.32,.15-.09,.04-.19,.09-.29,.13-.13,.06-.26,.11-.39,.16h0s-.04,.02-.1,.06c-.02,.01-.04,.03-.06,.04-.01,0-.02,.02-.03,.03s-.02,.02-.03,.03c-.29,.25-.52,.6-.63,1.02,0,.01,0,.03,0,.04-.07,.28-.08,.58-.05,.87,.02,.17,.05,.33,.09,.49h0c.03,.12,.07,.23,.12,.33,.18,.36,.47,.61,.79,.78,.66,.34,1.5,.37,2,.35,4.27-.28,8.11-2.97,10.42-7.26-.06-.08-.13-.17-.2-.25Z"/><path class="cls-31" d="M304.2,59.01c-.54-.31-1.03-.66-1.61-.78-.02,.05-.05,.09-.07,.14s-.05,.09-.08,.14-.05,.09-.08,.14c-.03,.06-.06,.12-.1,.18,0,.01-.01,.03-.02,.04-.02,.04-.05,.09-.08,.13s-.06,.09-.08,.14-.06,.09-.09,.14-.07,.11-.1,.16c-.06,.09-.12,.18-.18,.27-.01,.02-.02,.03-.03,.05-.03,.04-.06,.09-.08,.13-.06,.09-.13,.19-.19,.28-.04,.05-.07,.1-.11,.15s-.07,.1-.1,.14c-.06,.08-.11,.15-.17,.23-.04,.05-.08,.11-.12,.16s-.08,.1-.12,.16c0,.01-.02,.02-.03,.03-.06,.08-.13,.16-.19,.23-.02,.02-.03,.04-.05,.05l-.08,.09-.08,.09c-.07,.07-.13,.15-.2,.23-.06,.07-.12,.13-.18,.19-.04,.04-.07,.08-.11,.11-.08,.08-.16,.16-.24,.24-.02,.01-.03,.03-.05,.04-.07,.06-.13,.13-.2,.19h0c-.05,.06-.11,.1-.16,.15s-.11,.1-.17,.16c-.08,.07-.17,.14-.25,.21l-.14,.11c-.11,.09-.22,.17-.33,.26-.08,.06-.15,.11-.23,.16-.11,.08-.23,.16-.34,.24-.08,.05-.16,.1-.23,.15-.12,.08-.24,.15-.36,.22-.08,.04-.15,.09-.23,.14-.14,.08-.27,.15-.41,.22l-.16,.08s-.04,.02-.06,.03h0c-.11,.05-.21,.1-.32,.15-.09,.04-.19,.09-.29,.13-.13,.06-.26,.11-.39,.16h0s-.04,.02-.1,.06c-.02,.01-.04,.03-.06,.04-.01,0-.02,.02-.03,.03s-.02,.02-.03,.03c-.29,.25-.52,.6-.63,1.02,0,.01,0,.03,0,.04-.07,.28-.08,.58-.05,.87,.02,.17,.05,.33,.09,.49h.02c1.28-.04,2.53-.3,3.73-.76,.16-.06,.32-.13,.49-.2,2.8-1.21,5.16-3.5,6.74-6.54,.05-.1,.11-.21,.16-.32-.47-.3-.96-.57-1.44-.84Z"/><path class="cls-2" d="M308.16,61.24l-2.67-1.08-3.23-1.3s.01-.03,.02-.04c.03-.06,.06-.12,.1-.18,.03-.05,.05-.09,.08-.14s.05-.09,.07-.14c.06-.12,.13-.24,.19-.37,.04-.08,.08-.16,.12-.24,.08-.16,.15-.32,.22-.49,.03-.06,.05-.11,.07-.17,0-.02,.01-.03,.02-.05,.04-.1,.08-.2,.12-.3s.08-.21,.13-.32c.05-.12,.09-.25,.13-.37,.04-.1,.07-.21,.11-.31s.07-.23,.11-.34c.01-.04,.02-.07,.03-.11,.02-.08,.05-.15,.07-.22v-.02c.04-.11,.07-.22,.1-.34,0-.03,.02-.05,.02-.08l.02-.06c.02-.08,.04-.16,.06-.23,.02-.06,.03-.13,.05-.19s.03-.13,.05-.19v-.05s.03-.08,.04-.12,.02-.08,.03-.13c.06-.27,.11-.55,.16-.83,.02-.14,.05-.28,.07-.42,.03-.2,.06-.4,.08-.61v-.06s.01-.03,.01-.05c.03-.23,.05-.47,.07-.71,0-.08,.01-.16,.02-.24s0-.16,.02-.24c0-.09,.01-.19,.01-.28,0-.06,0-.11,0-.17,0-.1,0-.21,0-.31,0-.09,0-.19,0-.28,0-.17,0-.33,0-.5,0-.08,0-.17,0-.26v-.09s0-.06,0-.1c0-.06,0-.13,0-.19v-.22c-.02-.24-.04-.48-.06-.73v-.04c-.02-.22-.05-.44-.07-.66h0c-.08-.92-.45-3.07-.39-4.58,.03-.69,.15-1.26,.44-1.51,.03-.03,.07-.06,.11-.08h0s.09-.03,.13-.04h0c.41-.09,.81,.07,1.18,.31,.74,.49,1.32,1.36,1.38,1.45,3.28,5.78,3.57,13.25,.78,19.01h0Z"/><path class="cls-52" d="M305.48,60.16c2.21-4.24,2.82-9.76,1.28-15.1-.38-1.32-.88-2.58-1.5-3.77-.09-.17-.18-.34-.27-.51-.06-.11-.12-.21-.18-.32-.04,.01-.09,.02-.13,.04h0s-.08,.05-.11,.08c-.29,.25-.41,.81-.44,1.51-.07,1.51,.31,3.66,.39,4.57h0c.03,.23,.05,.45,.07,.67v.04c.02,.24,.04,.48,.05,.73v.22c.01,.06,.02,.13,.01,.19,0,.03,0,.06,0,.1v.09c0,.09,.01,.17,.01,.26,0,.17,0,.34,0,.5,0,.09,0,.19,0,.28,0,.1,0,.21,0,.31,0,.06,0,.11,0,.17,0,.1,0,.19-.01,.28,0,.08-.01,.16-.02,.24s-.01,.16-.02,.24c-.02,.24-.04,.47-.07,.71,0,.02,0,.03,0,.05v.06c-.03,.2-.06,.41-.09,.61-.02,.14-.05,.28-.07,.42-.05,.28-.1,.55-.16,.83,0,.04-.02,.08-.03,.13s-.02,.08-.03,.12v.05c-.03,.06-.04,.13-.06,.19s-.03,.13-.05,.19c-.02,.08-.04,.15-.06,.23l-.02,.06s-.01,.05-.02,.08c-.03,.11-.06,.22-.09,.34v.02c-.03,.08-.05,.15-.07,.22,0,.04-.02,.07-.03,.11-.04,.11-.07,.23-.11,.34s-.07,.21-.11,.31c-.04,.12-.09,.25-.13,.37-.04,.1-.08,.21-.13,.32s-.08,.2-.12,.3c0,.02-.01,.04-.02,.05-.02,.06-.05,.11-.07,.17-.07,.17-.14,.33-.22,.49-.04,.08-.08,.16-.12,.24-.06,.12-.12,.25-.19,.37-.02,.05-.05,.09-.07,.14s-.05,.09-.08,.14c-.03,.06-.06,.12-.1,.18,0,.01-.01,.03-.02,.04l3.24,1.3Z"/><path class="cls-51" d="M302.25,58.86s2.91,1.26,4.1,2.63c1.86,2.15,2.56,2.8,1.83,9.45-.03,.24-.05,.49-.06,.73-.05,1.1-.03,3.87,3.12-2.71,3.77-7.86-2.15-9.87-2.15-9.87-2.21-.73-4.54-.76-6.85-.24Z"/><path class="cls-52" d="M302.8,28.74c2.76,.07,5.49,.76,8.08,2.02,8.61,4.2,14.84,14.45,15.41,26.25,0-.17,0-.33-.01-.5-.39-12.07-6.69-22.61-15.44-26.9-2.59-1.27-5.33-1.96-8.09-2.04-13.35-.4-23.83,13.18-22.82,30.06,.01,.2,.03,.4,.04,.6-.73-16.59,9.65-29.86,22.83-29.5Z"/><path class="cls-1" d="M303.01,32.89c2.36,.04,4.7,.61,6.91,1.68,7.4,3.55,12.79,12.32,13.3,22.47,0-.14,0-.28-.01-.43-.36-10.38-5.81-19.4-13.34-23.02-2.22-1.07-4.56-1.64-6.92-1.69-11.35-.25-20.23,11.34-19.41,25.67,0,.17,.02,.34,.03,.51-.59-14.1,8.2-25.42,19.42-25.19Z"/></g><g class="cls-15"><path class="cls-20" d="M322.27,41.15l-29.84,40.72c1.37,.95,2.8,1.73,4.3,2.34l27.7-38.06c-.59-1.75-1.32-3.42-2.16-4.99Z"/><path class="cls-20" d="M310.86,29.62c-.17-.08-.34-.16-.5-.24l-28.5,37.94c1.78,5.1,4.63,9.44,8.15,12.61l30.6-41.56c-2.59-3.83-5.93-6.88-9.74-8.75Z"/></g></g><g><path class="cls-33" d="M381.86,57.21c0,13.26-7.42,24.44-16.91,25.2-.51,.04-1.01,.05-1.51,.03-9.22-.35-16.93-10.7-17.21-24.22-.3-14.49,8.03-26.22,18.21-25.97,2.12,.05,4.2,.63,6.16,1.7,6.64,3.66,11.26,12.76,11.26,23.25Z"/><path class="cls-21" d="M382.16,54.46c0,13.53-7.56,24.91-17.23,25.64-.52,.04-1.03,.04-1.54,.02-9.41-.4-17.28-11.02-17.58-24.84-.31-14.83,8.19-26.76,18.59-26.43,2.16,.06,4.29,.67,6.28,1.79,6.77,3.78,11.47,13.12,11.47,23.83Z"/><g id="Layer_1"><g id="_1421344023328"><path class="cls-33" d="M379.29,59.66c-1.92,11.36-9.92,18.74-18.14,16.46-8.54-2.37-14.11-14.2-12.13-26.39,1.99-12.26,10.73-19.54,19.21-16.31,8.17,3.1,12.99,14.83,11.06,26.25h0Z"/><path class="cls-5" d="M372.08,51.35c.31-3.16-1.38-4.86-3.71-5.99l.72-4.34-1.86-.67-.7,4.25c-.49-.17-1-.34-1.5-.5l.71-4.29-1.89-.68-.73,4.4c-.41-.13-.82-.26-1.21-.4h0l-2.64-.95-.47,2.88s1.43,.45,1.4,.48c.78,.27,.92,.99,.91,1.55l-.82,5.01c.05,.02,.12,.04,.2,.09-.06-.02-.13-.04-.2-.07l-1.15,7c-.09,.33-.32,.83-.87,.66,.02,.04-1.4-.44-1.4-.44l-.91,3.08,2.5,.76c.46,.14,.92,.29,1.36,.43l-.73,4.4,1.89,.56,.72-4.34c.51,.17,1.01,.33,1.5,.48l-.71,4.3,1.87,.55,.72-4.34c3.14,.69,5.47,.25,6.42-3.75,.77-3.23-.07-5.06-1.71-6.23,1.19-.42,2.07-1.56,2.3-3.87h0Zm-4.11,8.43c-.54,3.24-4.43,1.64-5.7,1.25l.96-5.83c1.27,.42,5.3,1.19,4.74,4.58h0Zm.5-8.43c-.49,2.97-3.73,1.53-4.79,1.17l.88-5.3c1.06,.37,4.43,1.03,3.92,4.13h0Z"/></g></g><path class="cls-10" d="M364.41,29.88c2.16,.06,4.28,.66,6.28,1.77,6.66,3.7,11.31,12.77,11.46,23.25,0-.15,0-.29,0-.44,0-10.71-4.7-20.04-11.47-23.82-2-1.11-4.12-1.72-6.28-1.78-10.39-.33-18.9,11.6-18.58,26.42,0,.18,0,.35,.02,.53-.11-14.57,8.31-26.22,18.58-25.92Z"/><path class="cls-11" d="M364.45,33.53c1.84,.04,3.66,.54,5.37,1.47,5.72,3.13,9.75,10.9,9.89,19.9,0-.13,0-.25,0-.38-.01-9.21-4.08-17.19-9.9-20.39-1.71-.94-3.53-1.44-5.38-1.48-8.85-.21-16.07,9.97-15.82,22.57,0,.15,0,.3,.01,.45-.07-12.39,7.07-22.34,15.82-22.15Z"/><g class="cls-16"><path class="cls-20" d="M379.37,40.81l-24.5,35.89c1.04,.85,2.14,1.56,3.29,2.1l22.78-33.56c-.42-1.55-.95-3.03-1.57-4.42Z"/><path class="cls-20" d="M370.69,30.63c-.13-.07-.26-.14-.39-.21l-23.27,33.38c1.24,4.5,3.34,8.35,6,11.17l25.09-36.62c-1.94-3.38-4.49-6.08-7.44-7.72Z"/></g></g><path class="cls-47" d="M340.64,55.92l-8.86,.21c-1.38,.03-2.54-1.19-2.58-2.72l-.02-.5c-.05-1.54,1.04-2.81,2.42-2.82l8.9-.11c1.33-.02,2.43,1.19,2.46,2.69v.49c.05,1.5-.99,2.74-2.32,2.77Z"/><path class="cls-47" d="M340.86,65.08l-8.81,.37c-1.37,.06-2.52-1.13-2.57-2.65l-.02-.49c-.05-1.53,1.03-2.8,2.41-2.84l8.84-.27c1.32-.04,2.41,1.13,2.45,2.62v.48c.04,1.48-.99,2.73-2.3,2.78Z"/></g></g></g></svg>