<?xml version="1.0" encoding="utf-8"?>
<!-- Generator: Adobe Illustrator 27.0.0, SVG Export Plug-In . SVG Version: 6.00 Build 0)  -->
<svg version="1.1" id="Capa_1" xmlns="http://www.w3.org/2000/svg" xmlns:xlink="http://www.w3.org/1999/xlink" x="0px" y="0px"
	 viewBox="0 0 500 500" style="enable-background:new 0 0 500 500;" xml:space="preserve">
<style type="text/css">
	.st0{fill:url(#SVGID_1_);}
	.st1{opacity:0.15;clip-path:url(#SVGID_00000035511273869969234880000012930932568129003441_);}
	.st2{fill:none;stroke:#C0C1B6;stroke-width:8;stroke-miterlimit:10;}
	.st3{fill:none;stroke:#C0C1B6;stroke-width:5;stroke-miterlimit:10;}
	.st4{fill:none;stroke:#C0C1B6;stroke-width:3;stroke-miterlimit:10;}
	.st5{fill:#8C8914;}
	.st6{fill:#8E9324;}
	.st7{fill:#D3A522;}
	.st8{fill:url(#SVGID_00000072272334009661942980000016386695870156749744_);}
	.st9{fill:#4D522A;}
	.st10{fill:#5C5C02;}
	.st11{fill:#FFD039;}
	.st12{opacity:0.1;enable-background:new    ;}
	.st13{opacity:0.3;enable-background:new    ;}
	.st14{fill:#B2956B;}
	.st15{fill:url(#SVGID_00000043429606769647266640000002660861408160763556_);}
	.st16{fill:#FFB300;}
	.st17{fill:#FFD54F;}
	.st18{fill:#FAF4E6;}
	.st19{fill:#FFCA28;}
	.st20{fill:#AC752C;}
	.st21{fill:#7D551F;}
	.st22{fill:#FFD770;}
	.st23{fill:#FFEA8C;}
	.st24{opacity:0.33;}
	.st25{fill:#FDFBF5;}
	.st26{fill:#9F6552;}
	.st27{opacity:0.35;fill:#4E3F3F;enable-background:new    ;}
	.st28{fill:url(#SVGID_00000158025321088700427400000016998766482280119976_);}
	.st29{opacity:0.15;}
	.st30{fill:#C0C1B6;}
	.st31{fill:url(#SVGID_00000144321794134419748670000012239487032267001527_);}
	.st32{fill:url(#SVGID_00000066494275990448336700000001956190900625708455_);}
	.st33{fill:url(#SVGID_00000097481957916259505940000014704676873686785469_);}
	.st34{fill:url(#SVGID_00000160896664310953207390000015854384538848443288_);}
	.st35{opacity:0.15;fill:none;stroke:#C0C1B6;stroke-width:8;stroke-miterlimit:10;enable-background:new    ;}
	.st36{opacity:0.15;fill:none;stroke:#C0C1B6;stroke-width:5;stroke-miterlimit:10;enable-background:new    ;}
	.st37{opacity:0.15;fill:none;stroke:#C0C1B6;stroke-width:3;stroke-miterlimit:10;enable-background:new    ;}
	.st38{fill:url(#SVGID_00000131350286412016445490000005206768597610775483_);}
	.st39{fill:url(#SVGID_00000160186742820106528830000017179920861096973970_);}
	.st40{fill:url(#SVGID_00000106127016265001740990000006437730466208675973_);}
	.st41{fill:url(#SVGID_00000047772880836277603230000016160941834169921671_);}
	.st42{fill:url(#SVGID_00000150805487256560212960000013969625482942861709_);}
	.st43{fill:url(#SVGID_00000086664081052945405030000010357395970367549604_);}
	.st44{fill:url(#SVGID_00000181781565629275347490000006248330992520858538_);}
	.st45{fill:#3D3532;}
	.st46{fill:#6D5047;}
	.st47{fill:#2B8F5F;}
	.st48{fill:url(#SVGID_00000148662076377438355670000005362924854398115482_);}
	.st49{fill:#828282;}
	.st50{fill:url(#SVGID_00000177448871376696638810000011536429828978775711_);}
	.st51{fill:url(#SVGID_00000134968968930895016220000014327828497821645759_);}
	.st52{fill:url(#SVGID_00000145037834859706133720000002378772455047353510_);}
	.st53{opacity:0.2;fill:url(#SVGID_00000140013449485358855170000007806427064443268764_);enable-background:new    ;}
	.st54{fill:url(#SVGID_00000071528752035515895640000017787528421920296858_);}
	.st55{fill:#5B3CA6;}
	.st56{fill:#AB71F6;}
	.st57{fill:#9262DD;}
	.st58{fill:url(#SVGID_00000158740733358666503040000013729973267261981834_);}
	.st59{fill:url(#SVGID_00000042736311210746265810000006933950068725327550_);}
	.st60{fill:none;stroke:url(#SVGID_00000025439860011961377460000008939930588590394779_);stroke-width:1.19;stroke-opacity:0.12;}
	.st61{fill:#FFFFFF;}
	.st62{fill:url(#SVGID_00000000926653034787067530000011853286686816245897_);}
	.st63{fill:url(#SVGID_00000016036955591248228230000004555104757372813982_);}
	.st64{fill:url(#SVGID_00000114045948754151047360000009562170826023194552_);}
	.st65{fill:url(#SVGID_00000062903059940634485000000008456498472473312694_);}
	.st66{fill:url(#SVGID_00000059995485154457134890000013635501403356096418_);}
	.st67{fill:url(#SVGID_00000000941771845854505140000015459877226356701119_);}
	.st68{fill:url(#SVGID_00000076596873819276318090000003565876437986084251_);}
	.st69{fill:url(#SVGID_00000137104899366995141750000017288407085586779783_);}
	.st70{fill:#A16552;}
	.st71{fill:url(#SVGID_00000062152320049894832650000014548769318286411928_);}
	.st72{fill:url(#SVGID_00000011731006362132638430000006349670154585265085_);}
	.st73{fill:url(#SVGID_00000062179247852604613050000003063330167758612147_);}
	.st74{fill:url(#SVGID_00000158009300767870201350000010194174741875679412_);}
	.st75{fill:url(#SVGID_00000125593106223919451220000000179433307369346459_);}
	.st76{fill:url(#SVGID_00000005957557277704077150000001209648584939736716_);}
	.st77{fill:url(#SVGID_00000090998195279327217850000015474487271229390749_);}
	.st78{fill:url(#SVGID_00000119833844478945630770000014779671323036450999_);}
	.st79{fill:url(#SVGID_00000123428155825482616600000015336176711229820849_);}
	.st80{fill:url(#SVGID_00000120545491106043584820000007944186559047496630_);}
	.st81{fill:url(#SVGID_00000048468071911068210000000007027105084969199519_);}
	.st82{fill:url(#SVGID_00000024720900591745132820000007360304530768265103_);}
	.st83{fill:url(#SVGID_00000031900984392528964030000007303026237830696107_);}
	.st84{fill:url(#SVGID_00000102522117364337025960000000376823871890795150_);}
	.st85{fill:url(#SVGID_00000085960530407632514430000017710652982159532220_);}
	.st86{fill:url(#SVGID_00000010288469977786853690000004523835582230595774_);}
	.st87{fill:url(#SVGID_00000000207935678131335170000001269320362717136784_);}
	.st88{fill:url(#SVGID_00000141416206863484285270000003691155268069841837_);}
	.st89{fill:#D3B86A;}
	.st90{opacity:0.1;fill:#6B5C5C;enable-background:new    ;}
	.st91{opacity:0.15;clip-path:url(#SVGID_00000158030737587800697240000014124858178161234872_);}
	.st92{fill:none;stroke:#C0C1B6;stroke-width:2;stroke-miterlimit:10;}
</style>
<linearGradient id="SVGID_1_" gradientUnits="userSpaceOnUse" x1="214.3507" y1="228.9197" x2="126.8607" y2="304.1597" gradientTransform="matrix(1 0 0 -1 0 502)">
	<stop  offset="0.2" style="stop-color:#162944"/>
	<stop  offset="0.54" style="stop-color:#202F57"/>
	<stop  offset="0.82" style="stop-color:#2B366B"/>
</linearGradient>
<path class="st0" d="M146.8,170l-4.5,0.1l-7,14.3l-0.2,65.6l44.3,14.3l-6.7-3.2L146.8,170z"/>
<g>
	<defs>
		<path id="SVGID_00000179641395260503869150000009409679611325953966_" d="M146.8,170l-4.5,0.1l-7,14.3l-0.2,65.6l44.3,14.3
			l-6.7-3.2L146.8,170z"/>
	</defs>
	<clipPath id="SVGID_00000122720771260773815990000016958976829440204459_">
		<use xlink:href="#SVGID_00000179641395260503869150000009409679611325953966_"  style="overflow:visible;"/>
	</clipPath>
	<g style="opacity:0.15;clip-path:url(#SVGID_00000122720771260773815990000016958976829440204459_);">
		<path class="st2" d="M128.8,237.9c0,0,11.9-9,45.7,0"/>
		<path class="st2" d="M128.8,209.9c0,0,19.8-5.5,35.4,6.6"/>
		<path class="st2" d="M136.3,174.6c0,0,16.8,16.8,22.5,24.4"/>
	</g>
	<g style="opacity:0.15;clip-path:url(#SVGID_00000122720771260773815990000016958976829440204459_);">
		<path class="st3" d="M128.8,237.9c0,0,11.9-9,45.7,0"/>
		<path class="st3" d="M128.8,209.9c0,0,19.8-5.5,35.4,6.6"/>
		<path class="st3" d="M136.3,174.6c0,0,16.8,16.8,22.5,24.4"/>
	</g>
	<g style="opacity:0.15;clip-path:url(#SVGID_00000122720771260773815990000016958976829440204459_);">
		<path class="st4" d="M128.8,237.9c0,0,11.9-9,45.7,0"/>
		<path class="st4" d="M128.8,209.9c0,0,19.8-5.5,35.4,6.6"/>
		<path class="st4" d="M136.3,174.6c0,0,16.8,16.8,22.5,24.4"/>
	</g>
</g>
<path class="st5" d="M244.6,335.7c-1.9-11.3-5.7-21.7-12.3-28.7c0,0-7,3.6-10.8,36c-1.6-11.3-2.8-20-2.8-20l-8.4,32.9l-3.5-42.7
	l-1.6,32.9l-5.2-11.2l-3.2,15.5l-22.3-25.1l-3.2,51.2l48.2-5.6l5.9-0.7l7.3-0.8l13.6-1.6l12.1-1.4c0.4-0.6,1.1-0.9,1.8-0.4l0.2,0.1
	h0c4.7-18.1,7.2-39.3-0.5-53.1C259.9,313,254,314.4,244.6,335.7L244.6,335.7z"/>
<path class="st6" d="M382.1,405.3c-7.6-30.8-50.6-43.7-60.8-45.3c-0.6-0.1-56.5-8.4-115.2-7.2c-41.9,0.9-76.1,12.9-98.3,22
	c-3.1,0-5.5,0.2-7.3,0.5c-3.9,0.9-6.5,2.3-9.6,4c-3.9,2.1-8.7,4.7-18.3,7.1c-8.9,2.2-14.9,7.4-16.4,14.2
	c-1.9,8.4,3.1,17.9,13.9,26.7c21.2,19.6,54.6,23.4,117,24.3c3.2,0,6.5,0.1,9.8,0.1c35.5,0,74.2-2.7,105.5-7.3
	c28.8-4.3,65.4-12.3,76.5-26.2C382.1,414.2,383.2,409.8,382.1,405.3L382.1,405.3z"/>
<path class="st7" d="M343.1,436.2c0.3-3.3,2.5-9.8,2.5-9.8l-87.6,0.4l-133.2-31.2l-44.3-11.5c-2.2,0.8-4.8,1.6-7.9,2.4
	c-8.9,2.2-14.9,7.4-16.4,14.2c-1.9,8.4,3.1,17.9,13.9,26.7c21.2,19.5,54.6,23.4,117,24.3c3.2,0,6.5,0.1,9.8,0.1
	c35.5,0,74.2-2.7,105.5-7.3C315.4,442.5,329.9,439.8,343.1,436.2L343.1,436.2z"/>
<linearGradient id="SVGID_00000160889491230040952480000008858533691981458089_" gradientUnits="userSpaceOnUse" x1="60.1552" y1="105.7709" x2="379.4755" y2="105.7709" gradientTransform="matrix(1 0 0 -1 0 502)">
	<stop  offset="0" style="stop-color:#ADA10C"/>
	<stop  offset="1" style="stop-color:#D2BE07"/>
</linearGradient>
<path style="fill:url(#SVGID_00000160889491230040952480000008858533691981458089_);" d="M187.1,442.6
	c-64.3-0.9-96.1-5.1-116.2-24.6s-10.3-25.4,14.8-36.4c25-11,66.4-30.6,120.5-31.8c54.1-1.1,107.2,6,114.7,7.1s50.9,12.9,58.3,43
	C386.6,430.1,269,443.8,187.1,442.6L187.1,442.6z"/>
<path class="st9" d="M370.1,393.6c0-5,3.2-9.5,7.9-11.3c5.6-1.5,11.6-1,17,1.4c-2.6,3.6-6.2,6.5-10.4,8.2
	C379.9,393.3,375,393.9,370.1,393.6L370.1,393.6z"/>
<path class="st9" d="M364.4,393.6c0,0-2.3-17.1,8.2-20c5.7-1.7,11.7-2.4,17.6-2.2c0,0-1.9,12.6-10.6,16.9
	C374.8,390.8,369.7,392.5,364.4,393.6L364.4,393.6z"/>
<path class="st10" d="M351.1,356.9c-5.6,7.9-5.6,18.6,0,26.5c3.6,4.3,8.2,7.8,13.3,10.1c2.4-5.8,2.6-12.2,0.8-18.2
	C362,365.1,351.1,356.9,351.1,356.9L351.1,356.9z"/>
<path class="st10" d="M370.1,393.6c0,0-2.7-12,1.4-18.2c2.4-3.8,5.9-6.7,10.1-8.3c0.7,4.4,0.7,8.9,0,13.3
	C379.2,388.1,370.1,393.6,370.1,393.6L370.1,393.6z"/>
<path class="st10" d="M356.6,393c-1.7-3.6-10.5-10.2-14.6-9.2c-4.1,1-1.9,4.6,2.6,7C348.5,392,352.5,392.8,356.6,393z"/>
<path class="st11" d="M325.4,387c3-16.1,4.2-25.6-4.6-30c-5.6-0.9-37.1-5.1-75.5-6.7c-9.3-0.3-18.5-0.5-26.8-0.6
	c-4.1,0-8.3,0-12.4,0.1c-7.9,0.4-31.4,2-46.3,10.1c-18.6,10-28.8,30.2-42.7,36.9c-10.6,5.2-39.1,10.2-45.1,22.2
	c20.1,18.6,52,22.7,115.1,23.6c52.2,0.8,118.9-4.5,158.4-16.3C349.9,415.2,322.2,404.3,325.4,387L325.4,387z"/>
<path class="st12" d="M182.9,357.6c0,0-24.1-0.2-34.5,12.3c-10.3,12.4-19,16.8-14.8,31.2c4.1,14.4,48.1,24.7,94.2,17.1
	c46.1-7.6,60.3-3.8,78.2-20c17.9-16.2,11.3-27.6,4.3-31.4c-7-3.8-26.6-8-49-6.8S182.9,357.6,182.9,357.6L182.9,357.6z"/>
<path class="st13" d="M85.2,382.6c0,0,2.5-0.6,4.4,0.6s0.4,1.6,2.4,1.7s3.7-0.5,5.9,0c2.2,0.5,4.4,0.8,6,0.5s3.1,0.6,4.4-1
	c1.3-1.6,2.3-4.2,3.3-5s2.9-2,4.1-2.3c1.2-0.3,5.3-3,6-3.3c0.8-0.2,3.4-1.8,3.5-2c0.2-0.2-0.3,1.2-1.6,2.1c-1.3,0.9-3.5,1.5-3.9,1.8
	c-0.3,0.3-4.2,2.5-4.8,3.2c-0.6,0.7-2.9,2.8-3.6,3.7s-3.3,3.7-4.1,4c-0.8,0.3-2.6,0.1-4,0.4c-1.4,0.3-3.5,1.2-4.5,1.7
	c-1,0.5-4.8,0.1-6.2,0.5c-1.4,0.4-5.4,0.3-5.9-1.1C86.1,386.6,84.7,383,85.2,382.6L85.2,382.6z"/>
<path class="st14" d="M117.3,412.4c3.7-0.3,4.6-1.8,12.7-0.3c8.1,1.5,12,1.7,4.5,6.6c-7.5,4.9-12.9,7.5-15.9,5.2
	C115.6,421.7,107.4,413.1,117.3,412.4L117.3,412.4z"/>
<path class="st12" d="M114.4,419.7c0,0,2.5,2.3,3.3,3c0.8,0.6,1.4,1.3,3.3,1.4c1.9,0.1,5.4-1,6.4-1.5c1-0.6,10.2-6,10.2-6
	s-2.3,2.7-3.7,3.8s-6.9,4.3-8.5,4.8c-1.6,0.5-3.3,0.7-5.2,0.4s-2.6-1.3-2.9-2C117,422.9,114.4,419.7,114.4,419.7L114.4,419.7z"/>
<path class="st14" d="M301.6,372.6c0.6-0.8,0.5-1.9,2.9-1.5c2.3,0.4,3.3,0.5,3.5,1.5s0.5,2.5-0.9,2.7c-1.4,0.1-4.2-0.1-4.8-0.6
	C301.7,374.2,301.3,373,301.6,372.6L301.6,372.6z"/>
<path class="st14" d="M290.3,364.5c0.8-0.7,2.3-3.3,5.8-2.6s4.3,1,4.2,2.3s0.5,3.6-1.2,4.1c-1.6,0.5-6.1,2.4-7.2,2
	C290.8,369.8,287.7,366.8,290.3,364.5L290.3,364.5z"/>
<path class="st12" d="M301.5,373.3c0-0.2,0.5,1,1.1,1.1s1.7,0.5,2.7,0.4c1,0,1.6-0.4,2-0.4s0.6-0.1,0.6,0c0,0,0.1,0.4-0.1,0.7
	c-0.2,0.3-0.5,0.4-1.1,0.6c-0.5,0.2-1.7-0.1-2.1-0.1c-0.5,0-1.7-0.3-2.4-0.5C301.7,374.8,301.5,373.6,301.5,373.3L301.5,373.3z"/>
<path class="st12" d="M289.4,367.3c0,0,0.9,0.9,1.5,1.1c0.6,0.2,0.5-0.3,1.6,0c1.1,0.3,0.4,0.8,1.8,0.7c1.5-0.1,3.9-0.7,4.4-0.9
	c0.5-0.2,1.4-0.8,1.5-1.5c0.1-0.7,0.1,0.9-0.1,1.4s-1.9,0.9-2.3,1.1c-0.5,0.3-3.2,1-3.8,1.3s-2.2,0.2-2.8,0
	c-0.5-0.2-1.7-2.1-1.8-2.5C289.4,367.5,289.4,367.3,289.4,367.3L289.4,367.3z"/>
<linearGradient id="SVGID_00000177453471712308751770000018268692462562910848_" gradientUnits="userSpaceOnUse" x1="104.6528" y1="205.2946" x2="176.8421" y2="205.2946" gradientTransform="matrix(1 0 0 -1 0 502)">
	<stop  offset="0.12" style="stop-color:#935848"/>
	<stop  offset="0.5" style="stop-color:#935848"/>
	<stop  offset="0.6" style="stop-color:#9B604E"/>
	<stop  offset="0.73" style="stop-color:#A16552"/>
	<stop  offset="1" style="stop-color:#966444"/>
</linearGradient>
<path style="fill:url(#SVGID_00000177453471712308751770000018268692462562910848_);" d="M141.8,252.1c0,0-30.2,67.8-36,79.6
	c-5.8,11.9,12,15.4,12,15.4s28.3-35.7,40.8-55.7c12.5-20,17.3-18.8,18.2-27.1c0.9-8.4-7.9-17.2-12.2-17.9
	C160.3,245.6,141.8,252.2,141.8,252.1L141.8,252.1z"/>
<path class="st16" d="M139.9,354.2c-4,16-20.1,25.7-36.1,21.8c-0.8-0.2-1.7-0.5-2.5-0.7C86.8,370.3,78.3,355,82,339.8
	c4-16,20.2-25.7,36.1-21.8c3.4,0.8,6.6,2.3,9.5,4.2C137.8,329.1,143,341.7,139.9,354.2L139.9,354.2z"/>
<path class="st17" d="M141.3,351c-4,16.3-20.5,26.2-36.8,22.2c-0.9-0.2-1.7-0.5-2.5-0.7c-14.8-5-23.5-20.6-19.7-36.1
	c4-16.3,20.5-26.2,36.8-22.2c3.5,0.9,6.8,2.3,9.7,4.3C139.1,325.5,144.4,338.3,141.3,351z"/>
<path class="st18" d="M137,350c-3.5,13.9-17.6,22.4-31.5,19c-0.7-0.2-1.4-0.4-2.1-0.6c-12.6-4.3-20.1-17.6-16.8-30.9
	c3.5-13.9,17.6-22.4,31.5-19c3,0.7,5.8,2,8.3,3.7C135.1,328.1,139.7,339.1,137,350z"/>
<path class="st19" d="M108.9,346.4c0,0,0.9-2.6-1.9-6.4c-3.9-5.4-4.2-6.5-0.3-4.8c3.9,1.7,6,5.8,6,5.8"/>
<path class="st20" d="M98.5,351.7l0.3-1.8l-3.4-0.6c-0.4-0.1-0.7,0.2-0.8,0.5l-0.1,0.5c-0.1,0.4,0.2,0.7,0.5,0.8L98.5,351.7z"/>
<path class="st21" d="M98.5,351.7l0.2-0.9l-4.1-0.7l0,0.2c-0.1,0.4,0.2,0.7,0.5,0.8L98.5,351.7L98.5,351.7z"/>
<path class="st16" d="M114.9,349.5c-0.4-0.8-1-1.5-1.6-2.1c-0.6-0.6-1.3-1.2-2-1.7c-0.6-0.5-1.1-1-1.8-1.3c0,0-0.1,0.1-0.1,0.1
	c0,0-0.1,0.1-0.1,0.1c-0.1,0.1-0.2,0.2-0.3,0.3c0,0,0,0,0,0c0,0-0.1,0.1-0.1,0.1c-0.1,0-0.1,0.1-0.2,0.1c-0.1,0.1-0.2,0.2-0.3,0.2
	c-0.3,0.2-0.7,0.5-1,0.7c-0.1,0-0.1,0.1-0.2,0.1c-0.1,0.1-0.2,0.1-0.3,0.2c-0.1,0-0.1,0.1-0.2,0.1c-0.1,0-0.1,0.1-0.2,0.1
	c0,0,0,0,0,0c-0.1,0.1-0.2,0.1-0.3,0.2c0,0,0,0-0.1,0c0,0-0.1,0-0.1,0.1l-0.1,0.1c-0.1,0.1-0.2,0.1-0.3,0.2
	c-0.2,0.1-0.3,0.1-0.5,0.2c-0.1,0-0.2,0.1-0.4,0.2c0,0-0.1,0-0.1,0c-0.1,0-0.2,0.1-0.3,0.1c-0.2,0.1-0.3,0.1-0.5,0.2
	c-0.3,0.1-0.7,0.2-1.1,0.3c-0.7,0.2-1.3,0.3-2,0.4c-0.3,0.1-0.6,0.1-0.9,0.1c-0.2,0-0.3,0-0.5,0c-0.1,0-0.3,0-0.4,0
	c-0.2,0-0.3,0-0.5,0c0,0,0,0-0.1,0c0,0-0.1,0-0.1,0c0,0,0,0,0,0c0,0,0,0-0.1,0c-0.4,0.1-0.8,0.4-1.1,0.8c0,0,0,0,0,0
	c-0.2,0.2-0.3,0.5-0.3,0.8c0,0.2,0,0.3,0,0.5c0,0.1,0,0.2,0,0.4c0.1,0.4,0.4,0.8,0.7,1c0.7,0.6,1.7,0.9,2.3,1.1
	c5.4,1.2,11.1-0.1,15.4-3.6C115,349.8,115,349.7,114.9,349.5L114.9,349.5z"/>
<path class="st17" d="M111.3,345.7c-0.6-0.5-1.1-1-1.8-1.3c0,0-0.1,0.1-0.1,0.1c0,0-0.1,0.1-0.1,0.1s-0.1,0.1-0.1,0.1
	c-0.1,0-0.1,0.1-0.2,0.1c0,0,0,0,0,0c0,0-0.1,0.1-0.1,0.1c-0.1,0-0.1,0.1-0.2,0.1s-0.1,0.1-0.2,0.1c0,0-0.1,0.1-0.2,0.1
	c-0.1,0.1-0.2,0.1-0.3,0.2c0,0,0,0-0.1,0c0,0-0.1,0.1-0.1,0.1c-0.1,0.1-0.2,0.1-0.3,0.2c-0.1,0-0.1,0.1-0.2,0.1
	c-0.1,0-0.1,0.1-0.2,0.1c-0.1,0.1-0.2,0.1-0.3,0.2c-0.1,0-0.1,0.1-0.2,0.1c-0.1,0-0.1,0.1-0.2,0.1c0,0,0,0,0,0
	c-0.1,0.1-0.2,0.1-0.3,0.2c0,0-0.1,0-0.1,0l-0.1,0.1l-0.1,0.1c-0.1,0-0.2,0.1-0.3,0.2c-0.1,0-0.2,0.1-0.3,0.1
	c-0.1,0-0.1,0.1-0.2,0.1c-0.1,0-0.2,0.1-0.4,0.2c0,0-0.1,0-0.1,0c-0.1,0-0.2,0.1-0.3,0.1c-0.1,0-0.2,0.1-0.2,0.1
	c-0.1,0-0.2,0.1-0.3,0.1c-0.1,0-0.2,0.1-0.4,0.1l-0.2,0.1c-0.2,0.1-0.3,0.1-0.5,0.1c-0.1,0-0.2,0.1-0.3,0.1c-0.2,0-0.3,0.1-0.5,0.1
	c-0.1,0-0.2,0-0.3,0.1c-0.2,0-0.3,0.1-0.5,0.1c-0.1,0-0.2,0-0.3,0.1c-0.2,0-0.4,0.1-0.6,0.1l-0.2,0c0,0-0.1,0-0.1,0
	c-0.2,0-0.3,0-0.4,0c-0.1,0-0.3,0-0.4,0c-0.2,0-0.3,0-0.5,0c0,0-0.1,0-0.1,0c0,0,0,0-0.1,0c0,0,0,0-0.1,0c0,0,0,0,0,0
	c-0.4,0.1-0.8,0.4-1.1,0.8c0,0,0,0,0,0c-0.2,0.2-0.3,0.5-0.3,0.8c0,0.2-0.1,0.4,0,0.5h0c1.6,0.4,3.2,0.6,4.8,0.6c0.2,0,0.4,0,0.7,0
	c3.9-0.2,7.6-1.7,10.5-4.2c0.1-0.1,0.2-0.2,0.3-0.3C112.4,346.6,111.9,346.2,111.3,345.7L111.3,345.7z"/>
<path class="st22" d="M115.7,349.3l-3.1-2l-3.7-2.4c0,0,0,0,0,0c0.1,0,0.1-0.1,0.2-0.1c0.1,0,0.1-0.1,0.1-0.1c0,0,0.1-0.1,0.1-0.1
	c0.1-0.1,0.2-0.2,0.3-0.3c0.1-0.1,0.2-0.1,0.2-0.2c0.1-0.1,0.3-0.3,0.4-0.4c0,0,0.1-0.1,0.1-0.1c0,0,0,0,0,0
	c0.1-0.1,0.2-0.2,0.2-0.3c0.1-0.1,0.2-0.2,0.3-0.3c0.1-0.1,0.2-0.2,0.3-0.3c0.1-0.1,0.2-0.2,0.2-0.3c0.1-0.1,0.2-0.2,0.2-0.3
	c0,0,0.1-0.1,0.1-0.1c0.1-0.1,0.1-0.1,0.2-0.2h0c0.1-0.1,0.2-0.2,0.2-0.3c0,0,0,0,0.1-0.1l0-0.1c0-0.1,0.1-0.1,0.2-0.2
	c0-0.1,0.1-0.1,0.1-0.2c0-0.1,0.1-0.1,0.1-0.2l0,0c0,0,0.1-0.1,0.1-0.1c0,0,0.1-0.1,0.1-0.1c0.2-0.2,0.3-0.5,0.5-0.8
	c0.1-0.1,0.2-0.3,0.2-0.4c0.1-0.2,0.2-0.4,0.3-0.6l0-0.1c0,0,0,0,0-0.1c0.1-0.2,0.2-0.4,0.3-0.7c0-0.1,0.1-0.2,0.1-0.2
	c0-0.1,0.1-0.1,0.1-0.2c0-0.1,0.1-0.2,0.1-0.3c0-0.1,0-0.1,0.1-0.2c0-0.1,0.1-0.2,0.1-0.3c0-0.1,0.1-0.2,0.1-0.3
	c0.1-0.2,0.1-0.3,0.2-0.5c0-0.1,0.1-0.2,0.1-0.3l0-0.1c0,0,0-0.1,0-0.1c0-0.1,0-0.1,0.1-0.2l0-0.2c0.1-0.2,0.1-0.5,0.2-0.7v0
	c0-0.2,0.1-0.5,0.1-0.7c0.2-0.9,0.4-3.2,0.9-4.7c0.2-0.7,0.6-1.2,1-1.3c0,0,0.1,0,0.2-0.1c0.1,0,0.1,0,0.2,0c0.5,0,1,0.3,1.4,0.7
	c0.8,0.7,1.3,1.8,1.3,1.9C122.9,336.8,121,344.5,115.7,349.3L115.7,349.3z"/>
<path class="st23" d="M112.6,347.3c4.1-3.5,6.6-8.9,6.3-14.7c-0.1-1.4-0.3-2.8-0.8-4.2c-0.1-0.2-0.1-0.4-0.2-0.6
	c0-0.1-0.1-0.2-0.1-0.4c-0.1,0-0.1,0-0.2,0s-0.1,0-0.2,0c-0.4,0.2-0.8,0.7-1,1.4c-0.6,1.5-0.7,3.7-0.9,4.6c0,0.2-0.1,0.5-0.1,0.7v0
	c-0.1,0.2-0.1,0.5-0.2,0.7l0,0.1l0,0.1c0,0.1,0,0.1,0,0.2c0,0,0,0.1,0,0.1l0,0.1c0,0.1,0,0.2-0.1,0.3c-0.1,0.2-0.1,0.3-0.2,0.5
	c0,0.1-0.1,0.2-0.1,0.3c0,0.1-0.1,0.2-0.1,0.3c0,0,0,0.1-0.1,0.2c0,0.1-0.1,0.2-0.1,0.3c0,0.1-0.1,0.2-0.1,0.2s-0.1,0.2-0.1,0.2
	c-0.1,0.2-0.2,0.5-0.3,0.7c0,0,0,0,0,0l0,0.1c-0.1,0.2-0.2,0.4-0.3,0.6c-0.1,0.1-0.1,0.3-0.2,0.4c-0.2,0.3-0.3,0.5-0.5,0.8
	c0,0-0.1,0.1-0.1,0.1c0,0-0.1,0.1-0.1,0.1l0,0c0,0.1-0.1,0.1-0.1,0.2s-0.1,0.1-0.1,0.2c0,0.1-0.1,0.1-0.1,0.2l0,0.1
	c0,0,0,0.1-0.1,0.1c-0.1,0.1-0.2,0.2-0.2,0.3c0,0,0,0,0,0c0,0.1-0.1,0.1-0.2,0.2c0,0-0.1,0.1-0.1,0.1c-0.1,0.1-0.2,0.2-0.2,0.3
	c-0.1,0.1-0.2,0.2-0.2,0.3c-0.1,0.1-0.2,0.2-0.3,0.3c-0.1,0.1-0.2,0.2-0.3,0.3c-0.1,0.1-0.2,0.2-0.2,0.3c0,0,0,0,0,0
	c0,0-0.1,0.1-0.2,0.1c-0.1,0.1-0.3,0.3-0.4,0.4c-0.1,0.1-0.1,0.1-0.2,0.2c-0.1,0.1-0.2,0.2-0.4,0.3c0,0-0.1,0.1-0.1,0.1
	c0,0-0.1,0.1-0.1,0.1c-0.1,0-0.1,0.1-0.2,0.1c0,0,0,0,0,0L112.6,347.3L112.6,347.3z"/>
<path class="st19" d="M108.9,344.9c0,0,3.3,2.3,4.4,4.1c1.7,2.8,2.4,3.8-0.6,10.3c-0.1,0.2-0.2,0.5-0.3,0.7c-0.4,1.1-1.2,4,4.9-1.6
	c7.4-6.7,0.3-10.9,0.3-10.9C114.9,346,112,345.2,108.9,344.9L108.9,344.9z"/>
<path class="st23" d="M118.8,315.4c3.5,0.9,6.8,2.3,9.7,4.3c10.1,6.8,15.4,19.3,12.6,31.8c0.1-0.2,0.1-0.4,0.1-0.5
	c3.1-12.7-2.2-25.5-12.4-32.5c-3-2-6.2-3.5-9.7-4.3c-16.3-4-32.7,5.9-36.8,22.2c-0.1,0.2-0.1,0.4-0.1,0.6
	C86.4,321,102.7,311.4,118.8,315.4z"/>
<path class="st16" d="M117.8,319.5c3,0.7,5.8,2,8.3,3.7c8.6,5.8,13.2,16.6,10.8,27.3c0-0.2,0.1-0.3,0.1-0.5
	c2.7-10.9-1.9-21.9-10.7-27.8c-2.5-1.7-5.3-3-8.3-3.7c-13.9-3.5-28,5-31.5,19c0,0.2-0.1,0.3-0.1,0.5
	C90.1,324.3,104,316.1,117.8,319.5L117.8,319.5z"/>
<g class="st24">
	<path class="st25" d="M140.5,333.7l-50.9,30.7c1.4,1.5,2.9,2.8,4.5,4l47.8-28.8C141.6,337.6,141.1,335.6,140.5,333.7z"/>
	<path class="st25" d="M128.8,318.6c-0.2-0.1-0.4-0.3-0.6-0.4l-46.7,28.1c0.5,5.6,2.5,10.8,5.7,15.2l51.9-31.2
		C136.7,325.6,133.2,321.5,128.8,318.6z"/>
</g>
<path class="st26" d="M429.9,334.9c3.2-1.5,6.2-3.5,9.2-6.2c2.7-2.4,3-6.5,0.6-9.2c-2.4-2.7-6.5-3-9.2-0.6c-7,6.1-13.4,7.3-21.2,3.9
	c-7.9-3.4-15.9-11-23.7-18.3c-11.5-10.8-22.4-21.1-34.8-20.7c-6.1,0.2-11.8,3-16.8,8.4c-7.6,8.2-16.4,14.4-25.5,17.9
	c-8.7,3.4-16.8,4-23.5,1.8c-13-4.3-17.3-18.4-18.6-29.4c-0.4-3.6-3.6-6.1-7.2-5.7c-3.6,0.4-6.1,3.6-5.7,7.2
	c1.2,10.7,4.3,19.6,9.1,26.5c4.7,6.7,10.9,11.4,18.3,13.8c9.6,3.1,20.8,2.4,32.3-2.1c10.9-4.2,21.4-11.6,30.3-21.2
	c2.6-2.8,5.1-4.2,7.7-4.3c7-0.2,16.4,8.6,25.5,17.1c8.6,8.1,17.5,16.4,27.4,20.8C413,338.6,421.7,338.7,429.9,334.9L429.9,334.9z"/>
<path class="st26" d="M315.1,307c0.9-0.5,1.8-1,2.6-1.5C316.9,306,316,306.5,315.1,307z"/>
<path class="st26" d="M261.6,277c0.4,0.1,0.8,0.3,1.2,0.5C262.5,277.3,262.1,277.1,261.6,277z"/>
<path class="st26" d="M259.1,276.8c0.7-0.1,1.3,0,2,0.1C260.4,276.8,259.7,276.7,259.1,276.8c-0.4,0-0.7,0.1-1.1,0.2
	C258.4,276.9,258.7,276.9,259.1,276.8z"/>
<path class="st26" d="M333.9,292.2c0.6-0.7,1.3-1.3,1.9-1.9C335.2,290.9,334.6,291.5,333.9,292.2c-3.8,4.1-7.9,7.7-12.2,10.7
	C326,299.9,330.1,296.3,333.9,292.2z"/>
<path class="st26" d="M255.8,278.1c-0.3,0.2-0.5,0.4-0.8,0.7C255.3,278.6,255.6,278.4,255.8,278.1z"/>
<path class="st26" d="M253.3,282.9c0-0.3,0.1-0.6,0.1-0.9c0,0,0-0.1,0-0.1C253.4,282.2,253.4,282.5,253.3,282.9L253.3,282.9z"/>
<path class="st26" d="M255.9,278c0.3-0.2,0.5-0.4,0.8-0.5C256.5,277.7,256.2,277.9,255.9,278L255.9,278z"/>
<path class="st26" d="M256.9,277.5c0.3-0.2,0.6-0.3,0.9-0.4C257.5,277.2,257.2,277.3,256.9,277.5z"/>
<path class="st26" d="M418.9,324.6c-0.4,0-0.9,0.1-1.3,0.1C418.1,324.7,418.5,324.6,418.9,324.6z"/>
<path class="st26" d="M253.8,280.7c-0.1,0.3-0.2,0.6-0.3,1c0,0,0-0.1,0-0.1c0.1-0.2,0.1-0.5,0.2-0.7
	C253.8,280.9,253.8,280.8,253.8,280.7z"/>
<path class="st26" d="M418.9,324.6c1.3-0.1,2.6-0.4,3.9-0.9C421.5,324.2,420.2,324.5,418.9,324.6z"/>
<path class="st26" d="M385.7,304.5L385.7,304.5c-1.5-1.4-3-2.8-4.4-4.1C382.7,301.8,384.1,303.1,385.7,304.5L385.7,304.5z"/>
<path class="st26" d="M388.4,307.1c0.5,0.5,1,1,1.6,1.5C389.5,308.1,388.9,307.6,388.4,307.1z"/>
<path class="st26" d="M367.4,289.2c1.1,0.7,2.1,1.4,3.2,2.2C369.5,290.6,368.5,289.9,367.4,289.2z"/>
<path class="st26" d="M360.9,285.7c-2.9-1.2-5.9-1.9-9-2C355,283.8,358,284.5,360.9,285.7z"/>
<path class="st26" d="M360.9,285.7c1.8,0.8,3.6,1.7,5.4,2.8C364.5,287.4,362.7,286.5,360.9,285.7z"/>
<path class="st26" d="M372.8,293c1.1,0.8,2.1,1.7,3.2,2.6C374.9,294.8,373.8,293.9,372.8,293z"/>
<path class="st26" d="M441.2,324.8c0,0.1,0,0.3-0.1,0.4c0,0.1,0,0.2-0.1,0.3C441.2,325.2,441.2,325,441.2,324.8L441.2,324.8z"/>
<path class="st26" d="M441.1,325.4C441.1,325.4,441.1,325.5,441.1,325.4C441.1,325.5,441.1,325.5,441.1,325.4
	C441.1,325.5,441.1,325.5,441.1,325.4L441.1,325.4z"/>
<path class="st26" d="M441.3,324c0,0.1,0,0.2,0,0.2c0,0.1,0,0.1,0,0.2C441.3,324.3,441.3,324.2,441.3,324L441.3,324z"/>
<path class="st26" d="M254.4,279.7c0.2-0.3,0.4-0.6,0.7-0.8C254.8,279.1,254.6,279.4,254.4,279.7z"/>
<path class="st27" d="M440.9,326.2c0.1-0.2,0.2-0.5,0.2-0.7c0-0.1,0-0.2,0.1-0.3c0-0.2,0.1-0.3,0.1-0.5c0-0.1,0-0.3,0-0.4
	c0-0.1,0-0.3,0-0.4c0-0.1,0-0.3,0-0.4c0-0.1,0-0.2,0-0.4c0-0.2,0-0.3-0.1-0.5c0-0.1-0.1-0.2-0.1-0.3c0-0.2-0.1-0.3-0.1-0.5
	c0-0.1-0.1-0.2-0.1-0.3c-0.1-0.2-0.1-0.3-0.2-0.5c0-0.1-0.1-0.2-0.1-0.3c-0.1-0.2-0.2-0.3-0.3-0.5c-0.2,0.3-0.5,0.5-0.7,0.8
	c-3,2.6-6.1,4.7-9.2,6.2c-8.2,3.8-16.8,3.8-25.8-0.1c-9.9-4.3-18.8-12.7-27.4-20.8c-9.1-8.5-18.5-15.8-25.5-15.5
	c-2.6,0.1-5.1,1.5-7.7,4.3c-8.9,9.6-19.4,16.9-30.3,21.2c-11.5,4.5-22.7,5.2-32.3,2.1c-7.5-2.5-13.7-7.1-18.3-13.8
	c-4.2-6.1-7.1-15.3-8.5-24.4c-0.1,0.2-0.3,0.4-0.4,0.7c0,0.1-0.1,0.2-0.1,0.3c-0.1,0.2-0.2,0.5-0.2,0.7c0,0.1,0,0.2-0.1,0.3
	c-0.1,0.3-0.1,0.6-0.1,1c0,0.4,0,0.8,0,1.2c1.2,10.7,4.3,19.6,9.1,26.5c4.7,6.7,10.9,11.4,18.3,13.8c9.6,3.2,20.8,2.4,32.3-2.1
	c10.9-4.2,21.4-11.6,30.3-21.2c2.6-2.8,5.1-4.2,7.7-4.3c7-0.2,16.4,8.6,25.5,17.1c8.6,8.1,17.5,16.4,27.4,20.8
	c9,3.9,17.6,4,25.8,0.1c3.1-1.5,6.2-3.5,9.2-6.2C439.9,328,440.5,327.1,440.9,326.2L440.9,326.2z"/>
<path class="st26" d="M440.9,326.2c0.1-0.2,0.2-0.4,0.2-0.6C441,325.8,440.9,326,440.9,326.2z"/>
<path class="st26" d="M441.3,322.9c0,0,0,0.1,0,0.2c0,0,0,0.1,0,0.1C441.3,323,441.3,322.9,441.3,322.9L441.3,322.9z"/>
<path class="st26" d="M441.3,323.2c0,0.1,0,0.1,0,0.2c0,0.1,0,0.2,0,0.3C441.3,323.5,441.3,323.4,441.3,323.2L441.3,323.2z"/>
<path class="st26" d="M440.4,320.4c0.1,0.1,0.1,0.2,0.2,0.3c0,0.1,0.1,0.1,0.1,0.2C440.5,320.7,440.5,320.5,440.4,320.4L440.4,320.4
	z"/>
<path class="st26" d="M440.2,320.2c-0.1-0.2-0.3-0.4-0.5-0.7c-0.6-0.7-1.3-1.2-2-1.6c0.8,0.4,1.5,0.9,2,1.6
	C439.9,319.7,440,319.9,440.2,320.2L440.2,320.2z"/>
<path class="st26" d="M440.7,321.1c0.1,0.1,0.1,0.2,0.1,0.3c0,0.1,0.1,0.1,0.1,0.2C440.9,321.4,440.8,321.3,440.7,321.1L440.7,321.1
	z"/>
<path class="st26" d="M253.9,280.6c0.1-0.2,0.2-0.5,0.4-0.7v0c0.1-0.1,0.1-0.2,0.1-0.3C254.2,280,254,280.3,253.9,280.6L253.9,280.6
	z"/>
<path class="st26" d="M440.6,320.9L440.6,320.9C440.6,320.9,440.7,321,440.6,320.9C440.7,321,440.7,320.9,440.6,320.9z"/>
<path class="st26" d="M441,321.6c0,0,0,0.1,0,0.1c0,0,0,0.1,0,0.1C441,321.8,441,321.7,441,321.6z"/>
<path class="st26" d="M441.2,322.7c0-0.2-0.1-0.4-0.1-0.6c0,0.1,0,0.1,0,0.2c0,0.1,0.1,0.2,0.1,0.3
	C441.2,322.6,441.2,322.6,441.2,322.7z"/>
<linearGradient id="SVGID_00000026868766958538256790000006663951654637139624_" gradientUnits="userSpaceOnUse" x1="127.3999" y1="240.7651" x2="236.8299" y2="242.0351" gradientTransform="matrix(1 0 0 -1 0 502)">
	<stop  offset="0.2" style="stop-color:#162944"/>
	<stop  offset="0.54" style="stop-color:#202F57"/>
	<stop  offset="0.82" style="stop-color:#2B366B"/>
</linearGradient>
<path style="fill:url(#SVGID_00000026868766958538256790000006663951654637139624_);" d="M165.9,246c-13.2-3.7-28.3,2-30.1,3.4
	s-3.3,4.7-2.8,6.9c0.5,2.3,0.8,7.6,0.8,7.6s0.5,1.9,1.3,2.5l1.6-1.8c0.7-1.1,3-2.2,11-0.3c12.7,3.1,22.9,5.9,23.8,7
	c0.9,1.1-1.9,3.8-1.5,4.6c0.4,0.8,4,2.4,8.4-1.4c4.3-3.8,7.3-13.6,7.4-17.4C186,253.2,179.1,249.7,165.9,246L165.9,246z"/>
<g class="st29">
	<path class="st30" d="M168.7,265c-1.8-0.7-3.5-1.3-5.2-1.8c-0.2,1.3-0.5,2.3-0.7,2.9c-0.8,0.4-2.6,0.7-4.4,0.8
		c3.8,1,7.1,1.9,9.4,2.7c0.5-0.7,1.1-2,1.6-4.4C169.1,265.2,168.9,265.1,168.7,265z"/>
	<path class="st30" d="M170.2,259.3c0.1-0.7,0.1-1.5,0.2-2.3c0.2-2.7,0.4-6.7,0.4-9.6c-1.5-0.5-3.1-1-4.8-1.4
		c-0.4-0.1-0.9-0.2-1.3-0.3c0.2,1.8,0.1,7-0.4,11.7C166.2,257.9,168.2,258.6,170.2,259.3L170.2,259.3z"/>
	<path class="st30" d="M170.2,259.3c-0.2,2.5-0.6,4.4-0.9,5.9c7.1,2.8,10.9,5.2,11.2,6.9c0,0,0,0.1,0,0.1c1.2-1.7,2.3-3.8,3.1-5.9
		c-2.1-1.9-5.9-4.1-12.6-6.7C170.7,259.5,170.4,259.4,170.2,259.3L170.2,259.3z"/>
	<path class="st30" d="M139.6,261c7.3-1.1,15.4-0.3,23.9,2.2c0.3-1.6,0.5-3.7,0.7-5.9c-9-2.6-17.8-3.4-25.7-2.1
		c-1.8,0.3-3.7,0.9-5.3,1.8c0.4,2.5,0.6,6.9,0.6,6.9s0.1,0.2,0.2,0.5c0-0.3,0-0.6,0-0.8C134.6,263,137,261.4,139.6,261L139.6,261z"
		/>
	<path class="st30" d="M170.2,259.3c-2-0.8-4-1.4-5.9-2c-0.2,2.2-0.4,4.2-0.7,5.9c1.7,0.5,3.5,1.1,5.2,1.8c0.2,0.1,0.4,0.1,0.6,0.2
		C169.6,263.8,169.9,261.8,170.2,259.3L170.2,259.3z"/>
</g>
<g class="st29">
	<path class="st30" d="M164.6,262.6c-0.3,2-0.7,3.6-1.1,4.2c-0.6,0.4-1.6,0.6-2.7,0.8c2.3,0.6,4.2,1.2,5.9,1.7
		c0.5-0.6,1.2-2,1.8-5.4C167.2,263.4,165.9,263,164.6,262.6L164.6,262.6z"/>
	<path class="st30" d="M169.1,260c0.1-0.9,0.2-1.9,0.3-3c0.3-3.3,0.4-7.1,0.4-9.9c-1.2-0.4-2.5-0.8-3.8-1.1c-0.1,0-0.2,0-0.3-0.1
		c0.2,2.4,0,7.9-0.5,12.7C166.5,259,167.8,259.5,169.1,260L169.1,260z"/>
	<path class="st30" d="M169.1,260c-0.2,1.5-0.4,2.9-0.6,3.9c0.2,0.1,0.4,0.1,0.6,0.2c9.2,3.6,11.5,5.8,12.1,7.1
		c0.7-1.2,1.4-2.5,2-3.9c-1.9-1.9-5.6-4-12.6-6.8C170.1,260.3,169.6,260.2,169.1,260L169.1,260z"/>
	<path class="st30" d="M139.4,260c7.7-1.2,16.3-0.3,25.2,2.5c0.2-1.2,0.4-2.5,0.5-3.9c-9.3-2.9-18.3-3.7-26.4-2.5
		c-1.8,0.3-3.7,1-5.3,1.9c0.2,1.5,0.3,3.2,0.4,4.4C134.9,261.6,137.1,260.4,139.4,260L139.4,260z"/>
	<path class="st30" d="M169.1,260c-1.3-0.5-2.6-0.9-3.9-1.3c-0.1,1.4-0.3,2.7-0.5,3.9c1.3,0.4,2.6,0.9,3.9,1.4
		C168.7,262.8,168.9,261.5,169.1,260L169.1,260z"/>
</g>
<g class="st29">
	<path class="st30" d="M168,260.6c0.6-4.9,0.8-10.6,0.7-13.8c-0.7-0.2-1.3-0.4-2-0.6c0.2,2.9-0.1,8.8-0.7,13.7
		C166.7,260.1,167.3,260.4,168,260.6L168,260.6z"/>
	<path class="st30" d="M165.8,261.9c-0.4,2.9-0.9,5.1-1.5,5.6c-0.4,0.3-0.9,0.5-1.5,0.7c1,0.3,1.9,0.5,2.8,0.8
		c0.9-0.8,1.6-3.3,2.1-6.4C167.1,262.3,166.4,262.1,165.8,261.9z"/>
	<path class="st30" d="M168,260.6c-0.1,0.7-0.2,1.3-0.3,2c0.6,0.2,1.2,0.4,1.8,0.6c8.3,3.2,11.2,5.5,12.3,7c0.4-0.6,0.7-1.3,1-1.9
		c-1.7-1.7-5.1-4-12.6-6.9C169.5,261.1,168.7,260.9,168,260.6L168,260.6z"/>
	<path class="st30" d="M165.8,261.9c0.1-0.6,0.2-1.3,0.2-2c-9.5-3.1-18.8-4.1-27.1-2.8c-1.9,0.3-3.8,1.1-5.4,1.9
		c0.1,0.8,0.1,1.5,0.2,2.2c1.4-0.9,3.4-1.9,5.6-2.2C147.3,257.8,156.4,258.8,165.8,261.9L165.8,261.9z"/>
	<path class="st30" d="M168,260.6c-0.7-0.2-1.3-0.5-2-0.7c-0.1,0.7-0.2,1.3-0.2,2c0.6,0.2,1.3,0.5,2,0.7
		C167.8,262,167.9,261.3,168,260.6z"/>
</g>
<radialGradient id="SVGID_00000141429745861683052520000010857616226279425157_" cx="105.6307" cy="530.899" r="1" gradientTransform="matrix(287.01 0 0 -287.01 -30128.9902 152455.4219)" gradientUnits="userSpaceOnUse">
	<stop  offset="0.14" style="stop-color:#92594B"/>
	<stop  offset="0.24" style="stop-color:#91584A"/>
	<stop  offset="0.26" style="stop-color:#905749"/>
	<stop  offset="0.55" style="stop-color:#814B3F"/>
	<stop  offset="0.79" style="stop-color:#7C483C"/>
</radialGradient>
<path style="fill:url(#SVGID_00000141429745861683052520000010857616226279425157_);" d="M211,153.2l-53,22.9l0.8,22.9l21.4,7
	l26.3-25.1c0,0,5.6-21.5,5.8-21.9C212.4,158.5,211,153.1,211,153.2L211,153.2z"/>
<linearGradient id="SVGID_00000146484868129821788620000017119294584069172115_" gradientUnits="userSpaceOnUse" x1="189.325" y1="285.761" x2="189.185" y2="326.401" gradientTransform="matrix(1 0 0 -1 0 502)">
	<stop  offset="0" style="stop-color:#E7BC91"/>
	<stop  offset="0.4" style="stop-color:#F3D5B5"/>
	<stop  offset="0.66" style="stop-color:#F5DCB4"/>
	<stop  offset="0.7" style="stop-color:#F3DAB2"/>
	<stop  offset="1" style="stop-color:#EFD3AB"/>
</linearGradient>
<path style="fill:url(#SVGID_00000146484868129821788620000017119294584069172115_);" d="M163.5,196.5c0.6-1.2,1.5-2.3,2.7-3.1
	c3.5-2.3,11.7-7,19.7-7c10.7,0,23.7,1.9,29.1,7.5c4.2,4.4-10.3,14.9-16.9,19.2c-1.9,1.3-4.3,1.6-6.5,1l-23.4-6.9
	C163.7,205.9,161.4,200.8,163.5,196.5L163.5,196.5z"/>
<linearGradient id="SVGID_00000065056402270091483510000003795681904728211333_" gradientUnits="userSpaceOnUse" x1="156.33" y1="313.139" x2="207.99" y2="313.139" gradientTransform="matrix(1 0 0 -1 0 502)">
	<stop  offset="0" style="stop-color:#E6E6E6"/>
	<stop  offset="0.31" style="stop-color:#DDDDDD"/>
	<stop  offset="0.32" style="stop-color:#DDDDDD"/>
	<stop  offset="0.54" style="stop-color:#ECECEC"/>
	<stop  offset="0.73" style="stop-color:#F2F2F2"/>
	<stop  offset="0.88" style="stop-color:#F9F9F9"/>
	<stop  offset="1" style="stop-color:#FFFFFF"/>
</linearGradient>
<path style="fill:url(#SVGID_00000065056402270091483510000003795681904728211333_);" d="M159.2,179.4c0,0,11.6,18.9,48.8-11.6
	c-6,15.6-17.8,33.1-17.8,33.1l-30.1,9c0,0-3.7-23.5-3.7-24.4S159.2,179.4,159.2,179.4L159.2,179.4z"/>
<linearGradient id="SVGID_00000182495872852387557610000011261866261562022079_" gradientUnits="userSpaceOnUse" x1="209.8505" y1="251.0012" x2="202.7005" y2="315.6812" gradientTransform="matrix(1 0 0 -1 0 502)">
	<stop  offset="0.2" style="stop-color:#162944"/>
	<stop  offset="0.54" style="stop-color:#202F57"/>
	<stop  offset="0.82" style="stop-color:#2B366B"/>
</linearGradient>
<path style="fill:url(#SVGID_00000182495872852387557610000011261866261562022079_);" d="M211,153.1c0,0-7,28.6-29.5,44.2
	c-24.8,13.6-22.7-23.4-22.7-23.4l-13.4-3.5l10.7,56.5l5.5,5l22.2,57.6l49.4-5l5.8-72l16.4-51L211,153.1L211,153.1z"/>
<path class="st35" d="M155.5,205.1c0,0,43.6-1.9,70.8-8.7"/>
<path class="st36" d="M155.5,205.1c0,0,43.5-1.9,70.7-8.7"/>
<path class="st37" d="M155.5,205.3c0,0,45-1.9,73.2-9"/>
<linearGradient id="SVGID_00000011753298643724500700000002287304081028797621_" gradientUnits="userSpaceOnUse" x1="167.6093" y1="305.2796" x2="190.7793" y2="256.4196" gradientTransform="matrix(1 0 0 -1 0 502)">
	<stop  offset="0.2" style="stop-color:#162944"/>
	<stop  offset="0.54" style="stop-color:#202F57"/>
	<stop  offset="0.82" style="stop-color:#2B366B"/>
</linearGradient>
<path style="fill:url(#SVGID_00000011753298643724500700000002287304081028797621_);" d="M170.5,200.2c0,0-0.3,6.5,0.9,18.6
	c1.3,12.1,7,4.7,7,4.7s-2-21-1.6-24.2C172.7,200.2,170.5,200.2,170.5,200.2L170.5,200.2z"/>
<linearGradient id="SVGID_00000044857807796514781670000017562674741734947206_" gradientUnits="userSpaceOnUse" x1="171.93" y1="292.2013" x2="174.465" y2="302.6653" gradientTransform="matrix(1 0 0 -1 0 502)">
	<stop  offset="0" style="stop-color:#FFE988"/>
	<stop  offset="0.25" style="stop-color:#BA801E"/>
	<stop  offset="0.5" style="stop-color:#FBEC83"/>
	<stop  offset="0.75" style="stop-color:#BA801F"/>
	<stop  offset="1" style="stop-color:#FFE97F"/>
</linearGradient>
<path style="fill:url(#SVGID_00000044857807796514781670000017562674741734947206_);" d="M173.6,206c1.1-0.2,1.8-1.1,1.6-2.2
	c-0.2-1.1-1.1-1.8-2.2-1.6c-1.1,0.2-1.8,1.1-1.6,2.2C171.6,205.4,172.5,206.1,173.6,206z"/>
<linearGradient id="SVGID_00000028286666871385463300000007988160184032786852_" gradientUnits="userSpaceOnUse" x1="172.2493" y1="281.0552" x2="174.7843" y2="291.5192" gradientTransform="matrix(1 0 0 -1 0 502)">
	<stop  offset="0" style="stop-color:#FFE988"/>
	<stop  offset="0.25" style="stop-color:#BA801E"/>
	<stop  offset="0.5" style="stop-color:#FBEC83"/>
	<stop  offset="0.75" style="stop-color:#BA801F"/>
	<stop  offset="1" style="stop-color:#FFE97F"/>
</linearGradient>
<path style="fill:url(#SVGID_00000028286666871385463300000007988160184032786852_);" d="M173.9,217.1c1.1-0.2,1.8-1.1,1.6-2.2
	c-0.2-1.1-1.1-1.8-2.2-1.6c-1.1,0.2-1.8,1.1-1.6,2.2C171.9,216.6,172.9,217.3,173.9,217.1z"/>
<linearGradient id="SVGID_00000132055264353617006260000012310112178585726367_" gradientUnits="userSpaceOnUse" x1="277.0505" y1="158.0896" x2="298.5905" y2="129.7596" gradientTransform="matrix(1 0 0 -1 0 502)">
	<stop  offset="0.12" style="stop-color:#935848"/>
	<stop  offset="0.5" style="stop-color:#935848"/>
	<stop  offset="0.6" style="stop-color:#9B604E"/>
	<stop  offset="0.73" style="stop-color:#A16552"/>
	<stop  offset="1" style="stop-color:#966444"/>
</linearGradient>
<path style="fill:url(#SVGID_00000132055264353617006260000012310112178585726367_);" d="M275.2,383.4c0,0,29.4-19.2,31-21.7
	s3.5-8.6,2.2-14.7c-1.4-6.1-6.6-13.6-9.7-14.9c-3.2-1.4-11.5,0-11.5,0l-17,32L275.2,383.4L275.2,383.4z"/>
<linearGradient id="SVGID_00000052819513787750508330000016002828303303518867_" gradientUnits="userSpaceOnUse" x1="253.6979" y1="117.9254" x2="291.9979" y2="139.6354" gradientTransform="matrix(1 0 0 -1 0 502)">
	<stop  offset="0.1" style="stop-color:#0973A3"/>
	<stop  offset="0.18" style="stop-color:#167DA7"/>
	<stop  offset="0.3" style="stop-color:#2589AD"/>
	<stop  offset="0.4" style="stop-color:#2B8DAF"/>
	<stop  offset="0.55" style="stop-color:#1D82AA"/>
	<stop  offset="0.77" style="stop-color:#0E76A4"/>
	<stop  offset="0.96" style="stop-color:#0973A3"/>
</linearGradient>
<path style="fill:url(#SVGID_00000052819513787750508330000016002828303303518867_);" d="M262.1,394.6l2.7-2.1c0,0,1,0.9,2,1.1
	c1,0.2,3.4-2.2,3.3-3.2c-0.1-1,0.2-2.9,0.9-1.8c0.7,1.1,4.2-1.1,4.2-3.1c0-1.9-0.9-30.1-0.9-30.1L262.1,394.6z"/>
<linearGradient id="SVGID_00000172399414645834736480000007639985238492433068_" gradientUnits="userSpaceOnUse" x1="240.1312" y1="98.7183" x2="192.1312" y2="349.2683" gradientTransform="matrix(1 0 0 -1 0 502)">
	<stop  offset="0.1" style="stop-color:#0973A3"/>
	<stop  offset="0.18" style="stop-color:#167DA7"/>
	<stop  offset="0.3" style="stop-color:#2589AD"/>
	<stop  offset="0.4" style="stop-color:#2B8DAF"/>
	<stop  offset="0.55" style="stop-color:#1D82AA"/>
	<stop  offset="0.77" style="stop-color:#0E76A4"/>
	<stop  offset="0.96" style="stop-color:#0973A3"/>
</linearGradient>
<path style="fill:url(#SVGID_00000172399414645834736480000007639985238492433068_);" d="M288.4,236.4c-2.6-11.5-4.3-10.5-13.2-11.8
	c-8.9-1.3-45.9-12.1-49.3-13.8c-7.6-5.3-23.3-3.6-36.6-3.8c-16.1-0.2-34.1,2.3-34.3,6.2c-0.2,3.9,1.8,8.3,3.8,16.1
	s13.3,33.3,18.5,43.1c5.2,9.8,3.2,27.2,3.2,27.2h0.2l-12.3,35.6l-10.9,31.4l-4.2,11.4l12.4,16l20,1.5l26.6-6.5l7.5,8.8l26.3,3.4
	l16.1-6.6c0,0,3.7-8.9,4.5-14.2c0.8-5.3,18.9-38.8,18.9-38.8s8.6-23.8,9.4-33.9c0.8-10.2,1.5-19.7,1.2-24.6c0,0,0.9,1.9,1.5-5.1
	C298.1,270.8,290.9,248,288.4,236.4L288.4,236.4z"/>
<linearGradient id="SVGID_00000169553292889070770790000011681442065437355905_" gradientUnits="userSpaceOnUse" x1="206.6671" y1="213.1625" x2="202.3531" y2="249.2125" gradientTransform="matrix(1 0 0 -1 0 502)">
	<stop  offset="0.1" style="stop-color:#0973A3"/>
	<stop  offset="0.18" style="stop-color:#167DA7"/>
	<stop  offset="0.3" style="stop-color:#2589AD"/>
	<stop  offset="0.4" style="stop-color:#2B8DAF"/>
	<stop  offset="0.55" style="stop-color:#1D82AA"/>
	<stop  offset="0.77" style="stop-color:#0E76A4"/>
	<stop  offset="0.96" style="stop-color:#0973A3"/>
</linearGradient>
<path style="fill:url(#SVGID_00000169553292889070770790000011681442065437355905_);" d="M169,260.7c0,0-0.1,1.8,0.8,6.9
	c0.9,5,6.3,12.7,6.5,18.3c0.2,5.6,1.8,6,3.4,5.7c1.6-0.3,29.5-3.3,40.6,0.7c11.1,4,16.1-3.8,16.9-11.3c0.8-7.5,1.3-27.6-1.4-28.5
	c-2.7-0.9-46.4,2.5-55,3S169,260.7,169,260.7L169,260.7z"/>
<path class="st45" d="M302.7,364.6c0,0,3.6-14.2,0.9-20.6c-2.7-6.5-10.3-11.5-10.7-12.6c-0.4-1.1-0.4-1.2,2.4-1.8
	c2.8-0.6,5.5,1,12.9,2.4c7.4,1.4,9.4,7.3,9.6,10.2c0.2,2.8-1.6,18.7-5.5,30.8c-4,12.1-3.4,16.6-5.1,19c-1.7,2.4-8.6,6.6-13.9,6.6
	s-13.1-2.6-14.6-9.5l-1.5-6.9L302.7,364.6L302.7,364.6z"/>
<path class="st46" d="M295.2,369.7l-16.8,11.5c0.2,1.5,0.5,2.7,1.3,2.8c2.4,0.4,12.1,2.8,14-2.6
	C294.9,378.1,295.2,373.1,295.2,369.7L295.2,369.7z"/>
<path class="st47" d="M233.2,284.4L256,267l17.5-87.6l-8.2,88.9l-4.4,0.8l2.7,4.4l-5.1,8.2L233.2,284.4z"/>
<linearGradient id="SVGID_00000007396923843298117860000018246309444658563513_" gradientUnits="userSpaceOnUse" x1="295.3402" y1="295.7397" x2="218.0602" y2="317.5298" gradientTransform="matrix(1 0 0 -1 0 502)">
	<stop  offset="0.2" style="stop-color:#162944"/>
	<stop  offset="0.54" style="stop-color:#202F57"/>
	<stop  offset="0.82" style="stop-color:#2B366B"/>
</linearGradient>
<path style="fill:url(#SVGID_00000007396923843298117860000018246309444658563513_);" d="M274.5,173.9l-1.1,5.5l-4,44
	c2.4,0.6,4.4,1,5.8,1.2c4.2,0.6,6.8,0.7,8.6,1.8l2.6,3.8L274.5,173.9L274.5,173.9z"/>
<path class="st49" d="M271.5,200.8l-2.5,0.5l-1.9,9.9l3.5-0.8L271.5,200.8z"/>
<linearGradient id="SVGID_00000143606202857778953270000005883058224814116759_" gradientUnits="userSpaceOnUse" x1="162.8554" y1="278.849" x2="147.2754" y2="352.129" gradientTransform="matrix(1 0 0 -1 0 502)">
	<stop  offset="0.1" style="stop-color:#0973A3"/>
	<stop  offset="0.18" style="stop-color:#167DA7"/>
	<stop  offset="0.3" style="stop-color:#2589AD"/>
	<stop  offset="0.4" style="stop-color:#2B8DAF"/>
	<stop  offset="0.55" style="stop-color:#1D82AA"/>
	<stop  offset="0.77" style="stop-color:#0E76A4"/>
	<stop  offset="0.96" style="stop-color:#0973A3"/>
</linearGradient>
<path style="fill:url(#SVGID_00000143606202857778953270000005883058224814116759_);" d="M167.1,221.6l-5.1-12.5l-2.7-9.1l-0.2-40.8
	c0,0-8.3-0.4-11.2,2.5c-2.9,2.9-3.1,25.5,1,41.6c3.2,12.9,7.2,20.6,8.6,23c0.3,0.5,0.9,0.7,1.5,0.5l7.3-3.1
	C167.1,223.3,167.5,222.4,167.1,221.6L167.1,221.6z"/>
<linearGradient id="SVGID_00000021111464847374275930000007881665880554556863_" gradientUnits="userSpaceOnUse" x1="148.5061" y1="336.3619" x2="180.2961" y2="269.3419" gradientTransform="matrix(1 0 0 -1 0 502)">
	<stop  offset="0.2" style="stop-color:#162944"/>
	<stop  offset="0.54" style="stop-color:#202F57"/>
	<stop  offset="0.82" style="stop-color:#2B366B"/>
</linearGradient>
<path style="fill:url(#SVGID_00000021111464847374275930000007881665880554556863_);" d="M159.9,172.5c0,0-1.2,20.9,10.6,27.8
	c-5.6,0.8-5.9-3.3-7.7-3.6c-1.8-0.3-4.4-16.1-12.2-10.2c-3.6-2.9,1.6-15.8,1.6-15.8L159.9,172.5L159.9,172.5z"/>
<linearGradient id="SVGID_00000049211363626983196310000000957392651512124334_" gradientUnits="userSpaceOnUse" x1="221.3745" y1="341.1636" x2="158.8145" y2="266.8636" gradientTransform="matrix(1 0 0 -1 0 502)">
	<stop  offset="0.2" style="stop-color:#162944"/>
	<stop  offset="0.54" style="stop-color:#202F57"/>
	<stop  offset="0.82" style="stop-color:#2B366B"/>
</linearGradient>
<path style="fill:url(#SVGID_00000049211363626983196310000000957392651512124334_);" d="M170.5,200.2c0,0,16-2.8,26.2-19.1
	c10.2-16.3,12.2-24.4,12.2-24.4l2.2-7.1l12.3,9.5c0,0-3.4,19.6-2.9,23.8c0.6,4.2-0.4,2.8-4.7,1.4c-4.3-1.4-11.8-2.7-15.3,0
	c-3.5,2.7-9.4,9.6-14.5,13C180.8,200.8,174.3,201.8,170.5,200.2L170.5,200.2z"/>
<linearGradient id="SVGID_00000111165939564698906510000009385689110889590693_" gradientUnits="userSpaceOnUse" x1="241.2121" y1="169.7027" x2="145.4721" y2="89.7927" gradientTransform="matrix(1 0 0 -1 0 502)">
	<stop  offset="0" style="stop-color:#282525"/>
	<stop  offset="0.44" style="stop-color:#282525;stop-opacity:0.7"/>
	<stop  offset="0.62" style="stop-color:#282525;stop-opacity:0.39"/>
	<stop  offset="0.91" style="stop-color:#282525;stop-opacity:0"/>
</linearGradient>
<path style="opacity:0.2;fill:url(#SVGID_00000111165939564698906510000009385689110889590693_);enable-background:new    ;" d="
	M231.6,320.8l-10.4-4.3l-9.1,8.6l1.5,19.6l-13.4,32.2l-0.6,4.3l-18.9,1.8l-12.3-7.2l-6.6,13.3l3.6,4.7l20,1.5l12.6-3l14-3.4l-2.4-12
	L231.6,320.8z"/>
<linearGradient id="SVGID_00000094599887654693558760000009930309800199762347_" gradientUnits="userSpaceOnUse" x1="190.0642" y1="167.9994" x2="110.2522" y2="141.1444" gradientTransform="matrix(1 0 0 -1 0 502)">
	<stop  offset="0.12" style="stop-color:#935848"/>
	<stop  offset="0.5" style="stop-color:#935848"/>
	<stop  offset="0.6" style="stop-color:#9B604E"/>
	<stop  offset="0.73" style="stop-color:#A16552"/>
	<stop  offset="1" style="stop-color:#966444"/>
</linearGradient>
<path style="fill:url(#SVGID_00000094599887654693558760000009930309800199762347_);" d="M179.6,334.4c0,0-3.4,2.8-7.2,3.8
	s-6.4,0.5-7.6,1.4c-1.2,0.9,4.4,4.6,4.4,4.6s9.5-5.8,10.1-7.3C179.9,335.2,179.6,334.4,179.6,334.4L179.6,334.4z"/>
<path class="st55" d="M176.2,360c3,16.2-7.7,31.7-23.8,34.7c-0.8,0.2-1.7,0.3-2.5,0.4c-15.2,1.5-29.3-8.9-32.2-24.2
	c-3-16.2,7.7-31.7,23.8-34.7c3.4-0.6,7-0.7,10.4-0.1C163.9,338.1,173.8,347.4,176.2,360L176.2,360z"/>
<path class="st56" d="M176.1,356.6c3.1,16.5-7.8,32.3-24.3,35.3c-0.9,0.2-1.7,0.3-2.6,0.4c-15.5,1.5-29.9-9-32.8-24.6
	c-3.1-16.5,7.8-32.3,24.3-35.3c3.5-0.7,7.1-0.7,10.6-0.1C163.6,334.3,173.7,343.8,176.1,356.6L176.1,356.6z"/>
<path class="st57" d="M141,333.5c3.5-0.7,7.1-0.7,10.6-0.1c12,2,22,11.2,24.6,23.7c0-0.2-0.1-0.4-0.1-0.5
	c-2.4-12.8-12.5-22.3-24.7-24.3c-3.5-0.6-7.1-0.6-10.6,0.1c-16.4,3.1-27.3,18.9-24.2,35.3c0,0.2,0.1,0.4,0.1,0.6
	C113.9,352,124.7,336.5,141,333.5L141,333.5z"/>
<path class="st55" d="M141.8,337.6c3-0.6,6.1-0.6,9.1-0.1c10.2,1.7,18.8,9.6,21,20.3c0-0.1-0.1-0.3-0.1-0.5
	c-2-11-10.7-19.1-21.2-20.8c-3-0.5-6.1-0.5-9.1,0.1c-14.1,2.6-23.4,16.2-20.8,30.2c0,0.2,0.1,0.3,0.1,0.5
	C118.6,353.5,127.8,340.2,141.8,337.6L141.8,337.6z"/>
<linearGradient id="SVGID_00000109744100828031328660000008309858144751025050_" gradientUnits="userSpaceOnUse" x1="146.35" y1="164.965" x2="146.35" y2="113.896" gradientTransform="matrix(1 0 0 -1 0 502)">
	<stop  offset="0" style="stop-color:#130C3F"/>
	<stop  offset="1" style="stop-color:#15197B"/>
</linearGradient>
<path style="fill:url(#SVGID_00000109744100828031328660000008309858144751025050_);" d="M146.4,388.1c14.3,0,26-11.4,26-25.5
	c0-14.1-11.6-25.5-26-25.5c-14.3,0-26,11.4-26,25.5C120.4,376.7,132,388.1,146.4,388.1z"/>
<linearGradient id="SVGID_00000168832863855958632740000007684831840163880327_" gradientUnits="userSpaceOnUse" x1="120.378" y1="139.4305" x2="172.322" y2="139.4305" gradientTransform="matrix(1 0 0 -1 0 502)">
	<stop  offset="0" style="stop-color:#AE73FA"/>
	<stop  offset="1" style="stop-color:#AE73FA;stop-opacity:0"/>
</linearGradient>
<path style="fill:url(#SVGID_00000168832863855958632740000007684831840163880327_);" d="M146.4,388.1c14.3,0,26-11.4,26-25.5
	c0-14.1-11.6-25.5-26-25.5c-14.3,0-26,11.4-26,25.5C120.4,376.7,132,388.1,146.4,388.1z"/>
<linearGradient id="SVGID_00000096778957658993963140000017873816531662933648_" gradientUnits="userSpaceOnUse" x1="172.44" y1="139.4305" x2="120.26" y2="139.4305" gradientTransform="matrix(1 0 0 -1 0 502)">
	<stop  offset="0" style="stop-color:#AE73FA"/>
	<stop  offset="1" style="stop-color:#AE73FA;stop-opacity:0"/>
</linearGradient>
<path style="fill:none;stroke:url(#SVGID_00000096778957658993963140000017873816531662933648_);stroke-width:1.19;stroke-opacity:0.12;" d="
	M146.4,387.8c14.2,0,25.7-11.3,25.7-25.3c0-14-11.5-25.3-25.7-25.3s-25.7,11.3-25.7,25.3C120.6,376.5,132.2,387.8,146.4,387.8z"/>
<path class="st61" d="M137.5,377.6l-3.2-10.8l0.3-6.1l1.1-1.5l-1.8-4.9l4.3-3.7l10.9,0.1l1.8-2.5l6.6,0.4l-2.2,5.6l5.5,9.2l-1.1,5.5
	l-5.2,0.9l-0.7,1.7l-5.2,3.3L137.5,377.6L137.5,377.6z M137.1,366.5l2.4,7.9l8.1-1.9l4.1-2.6l1-2.3l4.8-0.9l0.6-2.7l-5.6-9.5
	l1.3-3.4l-1.3-0.1l-1.7,2.5l-11.3-0.1l-2.1,1.8l1.6,4.5l-1.5,2L137.1,366.5L137.1,366.5z"/>
<g class="st29">
	<path class="st25" d="M168.2,341.2l-33.6,48.9c1.8,0.8,3.8,1.4,5.7,1.8l31.5-45.9C170.8,344.2,169.6,342.6,168.2,341.2L168.2,341.2
		z"/>
	<path class="st25" d="M151.4,332.3c-0.2,0-0.5-0.1-0.7-0.1L119.9,377c2.7,4.8,6.7,8.8,11.5,11.5l34.2-49.8
		C161.5,335.4,156.6,333.1,151.4,332.3L151.4,332.3z"/>
</g>
<linearGradient id="SVGID_00000094614951466101649680000016847468851275803548_" gradientUnits="userSpaceOnUse" x1="176.761" y1="195.616" x2="273.921" y2="195.616" gradientTransform="matrix(1 0 0 -1 0 502)">
	<stop  offset="0.12" style="stop-color:#935848"/>
	<stop  offset="0.5" style="stop-color:#935848"/>
	<stop  offset="0.6" style="stop-color:#9B604E"/>
	<stop  offset="0.73" style="stop-color:#A16552"/>
	<stop  offset="1" style="stop-color:#966444"/>
</linearGradient>
<path style="fill:url(#SVGID_00000094614951466101649680000016847468851275803548_);" d="M180.8,332.7c0,0,12.5-16.8,21.7-28.6
	c9.2-11.9,28.5-36.7,32.3-39.3s1.9-4.4,1.9-4.4l36.7,5.3c0,0,2,10.3-2,16.2c-3.9,5.9-21,28-30.4,34.7c-9.4,6.6-45.5,35.9-45.5,35.9
	l-18.9-7.9L180.8,332.7L180.8,332.7z"/>
<linearGradient id="SVGID_00000053528351392538244160000001082858093688814727_" gradientUnits="userSpaceOnUse" x1="108.3998" y1="119.3921" x2="61.8735" y2="186.2661" gradientTransform="matrix(1 0 0 -1 0 502)">
	<stop  offset="0.12" style="stop-color:#935848"/>
	<stop  offset="0.5" style="stop-color:#935848"/>
	<stop  offset="0.6" style="stop-color:#9B604E"/>
	<stop  offset="0.73" style="stop-color:#A16552"/>
	<stop  offset="1" style="stop-color:#966444"/>
</linearGradient>
<path style="fill:url(#SVGID_00000053528351392538244160000001082858093688814727_);" d="M93.1,345.7c0,0-3.8-0.8-5.8-0.2
	c-2,0.6-5.1,1.1-6.2,6.7c-1.1,5.6,3.3,14.4,4.2,16.5c0.9,2.1,4.9,5.1,7.4,4.6c2.4-0.5,8.7-2.4,10.4-4.4c1.7-2,0-5-0.9-5.1
	c-0.8-0.2,0.7-1,0.7-2.7c0-1.7-1.5-4-2.1-4c-0.5,0-1.5-0.5-1.1-0.6c0.5-0.1,0.8-3.1-0.2-4.4c-1-1.3-2.2-1.2-2.2-1.3l-0.1-0.1
	c0,0,1-0.5,1-1S99,347.3,93.1,345.7L93.1,345.7z"/>
<linearGradient id="SVGID_00000145056989613168527820000004099359621111747476_" gradientUnits="userSpaceOnUse" x1="215.2998" y1="187.3594" x2="155.1008" y2="124.0514" gradientTransform="matrix(1 0 0 -1 0 502)">
	<stop  offset="0.12" style="stop-color:#935848"/>
	<stop  offset="0.5" style="stop-color:#935848"/>
	<stop  offset="0.6" style="stop-color:#9B604E"/>
	<stop  offset="0.73" style="stop-color:#A16552"/>
	<stop  offset="1" style="stop-color:#966444"/>
</linearGradient>
<path style="fill:url(#SVGID_00000145056989613168527820000004099359621111747476_);" d="M180.8,332.7c0,0-1.8,3-4.1,4.4
	c-2.3,1.4-8.9,7.1-11.3,10.2c-2.4,3.2-2.2,8.4-3.8,11c-1.6,2.6-7.7,9.7-8.7,11.6s-1.4,4-0.5,4.9s-0.2,2.4,0.8,3.5
	c1,1.1,2.3,1.3,3.8,0.5c1.5-0.8-0.2,1.4,2.8,1.4c3,0.1,5.1-1.9,5.7-0.6c0.6,1.2,0.4,3.2,6.6-1.9c6.3-5.1,11.2-7.1,14.2-15.8
	c3-8.8,9.3-9.6,9.3-9.6L180.8,332.7L180.8,332.7z"/>
<linearGradient id="SVGID_00000052810364267067982880000004572655701199550593_" gradientUnits="userSpaceOnUse" x1="204.5608" y1="216.0693" x2="253.2408" y2="273.9393" gradientTransform="matrix(1 0 0 -1 0 502)">
	<stop  offset="0.2" style="stop-color:#162944"/>
	<stop  offset="0.54" style="stop-color:#202F57"/>
	<stop  offset="0.82" style="stop-color:#2B366B"/>
</linearGradient>
<path style="fill:url(#SVGID_00000052810364267067982880000004572655701199550593_);" d="M228.6,263.8l-2.3-69.3l8.8-19.9l20.4-13.1
	l19.1,12.4l5.4,97.6L228.6,263.8z"/>
<linearGradient id="SVGID_00000036942734811861807480000015791509117637167029_" gradientUnits="userSpaceOnUse" x1="217.161" y1="234.4118" x2="348.901" y2="235.9318" gradientTransform="matrix(1 0 0 -1 0 502)">
	<stop  offset="0.2" style="stop-color:#162944"/>
	<stop  offset="0.54" style="stop-color:#202F57"/>
	<stop  offset="0.82" style="stop-color:#2B366B"/>
</linearGradient>
<path style="fill:url(#SVGID_00000036942734811861807480000015791509117637167029_);" d="M263.5,249.2c-15.9-4.5-34,2.4-36.2,4.1
	c-2.1,1.7-4,5.6-3.3,8.4c0.6,2.7,0.9,9.1,0.9,9.1s0.6,2.3,1.6,3l2-2.2c0.8-1.3,3.6-2.7,13.2-0.4c15.3,3.7,27.6,7.1,28.7,8.5
	s-2.3,4.6-1.8,5.5c0.5,0.9,4.8,2.9,10.1-1.7s8.8-16.4,8.9-21C287.7,257.9,279.4,253.7,263.5,249.2L263.5,249.2z"/>
<g class="st29">
	<path class="st30" d="M266.9,272.1c-2.1-0.8-4.2-1.5-6.3-2.2c-0.3,1.5-0.6,2.8-0.9,3.4c-1,0.5-3.1,0.8-5.3,1
		c4.6,1.2,8.5,2.3,11.3,3.2c0.6-0.9,1.3-2.4,1.9-5.3C267.4,272.3,267.2,272.2,266.9,272.1z"/>
	<path class="st30" d="M268.6,265.3c0.1-0.9,0.2-1.8,0.2-2.7c0.3-3.3,0.5-8,0.4-11.6c-1.8-0.6-3.7-1.2-5.8-1.7
		c-0.5-0.1-1.1-0.3-1.6-0.4c0.3,2.2,0.1,8.4-0.4,14.1C263.9,263.6,266.2,264.4,268.6,265.3L268.6,265.3z"/>
	<path class="st30" d="M268.6,265.3c-0.3,3-0.7,5.3-1,7.1c8.5,3.4,13.1,6.2,13.5,8.4c0,0,0,0.1,0,0.1c1.5-2,2.7-4.6,3.7-7.1
		c-2.6-2.3-7.1-4.9-15.2-8.1C269.3,265.5,269,265.4,268.6,265.3L268.6,265.3z"/>
	<path class="st30" d="M231.9,267.3c8.8-1.4,18.6-0.4,28.8,2.7c0.3-2,0.6-4.5,0.9-7.1c-10.8-3.1-21.4-4.1-30.9-2.6
		c-2.2,0.3-4.4,1.1-6.4,2.1c0.5,3,0.8,8.3,0.8,8.3s0.1,0.3,0.2,0.6c-0.1-0.4-0.1-0.8,0-1C225.8,269.7,228.7,267.8,231.9,267.3
		L231.9,267.3z"/>
	<path class="st30" d="M268.6,265.3c-2.4-0.9-4.8-1.7-7.2-2.4c-0.2,2.6-0.5,5.1-0.9,7.1c2.1,0.6,4.2,1.3,6.3,2.2
		c0.2,0.1,0.5,0.2,0.7,0.3C268,270.6,268.3,268.3,268.6,265.3L268.6,265.3z"/>
</g>
<g class="st29">
	<path class="st30" d="M262,269.2c-0.4,2.4-0.8,4.4-1.3,5.1c-0.7,0.4-1.9,0.7-3.3,1c2.7,0.7,5.1,1.4,7.1,2c0.6-0.8,1.4-2.4,2.2-6.5
		C265.1,270.2,263.6,269.7,262,269.2z"/>
	<path class="st30" d="M267.3,266.1c0.1-1.1,0.2-2.3,0.4-3.6c0.3-3.9,0.5-8.6,0.4-11.9c-1.5-0.4-3-0.9-4.6-1.4
		c-0.1,0-0.2-0.1-0.3-0.1c0.2,2.9,0,9.5-0.6,15.3C264.2,265,265.7,265.5,267.3,266.1L267.3,266.1z"/>
	<path class="st30" d="M267.3,266.1c-0.2,1.9-0.4,3.4-0.7,4.7c0.2,0.1,0.5,0.2,0.7,0.2c11.1,4.3,13.8,7,14.6,8.5
		c0.9-1.4,1.7-3,2.4-4.7c-2.3-2.2-6.7-4.9-15.2-8.2C268.6,266.5,267.9,266.3,267.3,266.1L267.3,266.1z"/>
	<path class="st30" d="M231.7,266.1c9.2-1.4,19.6-0.4,30.4,3.1c0.2-1.4,0.4-3,0.6-4.7c-11.2-3.4-22-4.5-31.8-3
		c-2.2,0.3-4.5,1.2-6.4,2.2c0.2,1.8,0.4,3.9,0.5,5.3C226.2,268,228.9,266.5,231.7,266.1L231.7,266.1z"/>
	<path class="st30" d="M267.3,266.1c-1.6-0.6-3.2-1.1-4.7-1.6c-0.2,1.7-0.4,3.3-0.6,4.7c1.5,0.5,3.1,1,4.7,1.6
		C266.9,269.5,267.1,267.9,267.3,266.1L267.3,266.1z"/>
</g>
<g class="st29">
	<path class="st30" d="M266,266.8c0.7-5.8,0.9-12.7,0.8-16.6c-0.8-0.2-1.6-0.5-2.4-0.7c0.2,3.4-0.1,10.6-0.8,16.5
		C264.4,266.2,265.2,266.5,266,266.8L266,266.8z"/>
	<path class="st30" d="M263.3,268.4c-0.5,3.5-1.1,6.2-1.8,6.8c-0.4,0.3-1.1,0.6-1.8,0.8c1.2,0.3,2.3,0.7,3.4,1
		c1.1-1,1.9-3.9,2.5-7.7C264.9,268.9,264.1,268.6,263.3,268.4L263.3,268.4z"/>
	<path class="st30" d="M266,266.8c-0.1,0.8-0.2,1.6-0.3,2.4c0.7,0.3,1.4,0.5,2.1,0.8c10,3.9,13.5,6.6,14.8,8.4
		c0.4-0.8,0.8-1.5,1.2-2.3c-2-2.1-6.2-4.8-15.1-8.2C267.8,267.5,266.9,267.1,266,266.8z"/>
	<path class="st30" d="M263.3,268.3c0.1-0.8,0.2-1.5,0.3-2.4c-11.5-3.7-22.6-4.9-32.6-3.3c-2.3,0.4-4.6,1.3-6.5,2.3
		c0.1,0.9,0.2,1.8,0.2,2.7c1.7-1.1,4.1-2.3,6.7-2.7C241.1,263.4,252.1,264.6,263.3,268.3L263.3,268.3z"/>
	<path class="st30" d="M266,266.8c-0.8-0.3-1.6-0.6-2.4-0.8c-0.1,0.8-0.2,1.6-0.3,2.4c0.8,0.3,1.6,0.6,2.4,0.9
		C265.8,268.4,265.9,267.6,266,266.8z"/>
</g>
<linearGradient id="SVGID_00000031208510159387334920000015161723221241048966_" gradientUnits="userSpaceOnUse" x1="216.0808" y1="279.0757" x2="220.4308" y2="355.4157" gradientTransform="matrix(1 0 0 -1 0 502)">
	<stop  offset="0.1" style="stop-color:#0973A3"/>
	<stop  offset="0.18" style="stop-color:#167DA7"/>
	<stop  offset="0.3" style="stop-color:#2589AD"/>
	<stop  offset="0.4" style="stop-color:#2B8DAF"/>
	<stop  offset="0.55" style="stop-color:#1D82AA"/>
	<stop  offset="0.77" style="stop-color:#0E76A4"/>
	<stop  offset="0.96" style="stop-color:#0973A3"/>
</linearGradient>
<path style="fill:url(#SVGID_00000031208510159387334920000015161723221241048966_);" d="M228.5,156.2c0,0-1.8,12.1-5.6,35.8
	c0.2,5.1-0.2,21.6,0,28c-0.7,4-10.8,3.2-12.1,1.4c-0.8-4.2-1.4-8.4-1.7-12.4c-1.1-17,2.4-51.1,4.1-55.7c1.3-1.4,3.1-1.1,5.2-0.7
	c2.1,0.4,9.7,1.8,9.7,1.8S229.1,155.4,228.5,156.2L228.5,156.2z"/>
<linearGradient id="SVGID_00000177479561615687508520000007340398868506686644_" gradientUnits="userSpaceOnUse" x1="155.5991" y1="271.2067" x2="162.3641" y2="290.5107" gradientTransform="matrix(1 0 0 -1 0 502)">
	<stop  offset="0" style="stop-color:#FFE988"/>
	<stop  offset="0.25" style="stop-color:#BA801E"/>
	<stop  offset="0.5" style="stop-color:#FBEC83"/>
	<stop  offset="0.75" style="stop-color:#BA801F"/>
	<stop  offset="1" style="stop-color:#FFE97F"/>
</linearGradient>
<path style="fill:url(#SVGID_00000177479561615687508520000007340398868506686644_);" d="M160,223.5c1.6-0.2,2.7-2.1,2.4-4.2
	c-0.3-2.1-1.9-3.6-3.5-3.4c-1.6,0.2-2.7,2.1-2.4,4.2C156.8,222.3,158.4,223.8,160,223.5z"/>
<linearGradient id="SVGID_00000081641901911137200170000011970472900587569334_" gradientUnits="userSpaceOnUse" x1="213.8204" y1="274.5603" x2="218.8664" y2="295.3663" gradientTransform="matrix(1 0 0 -1 0 502)">
	<stop  offset="0" style="stop-color:#FFE988"/>
	<stop  offset="0.25" style="stop-color:#BA801E"/>
	<stop  offset="0.5" style="stop-color:#FBEC83"/>
	<stop  offset="0.75" style="stop-color:#BA801F"/>
	<stop  offset="1" style="stop-color:#FFE97F"/>
</linearGradient>
<path style="fill:url(#SVGID_00000081641901911137200170000011970472900587569334_);" d="M217.2,219.6c2.1-0.3,3.5-2.2,3.2-4.3
	s-2.3-3.5-4.3-3.2s-3.5,2.3-3.2,4.3S215.1,219.9,217.2,219.6z"/>
<path class="st70" d="M220.2,114.8c-1.4,2.7-3.1,4.5-4.8,5.6c-1.8-3.8-3-7.8-3.9-11.9l-0.1-0.7c-0.7-3.4-1.9-6.7-3.4-9.8
	c1.4-0.9,3.2-1.5,5.7-1C220.2,98,223.9,107.6,220.2,114.8L220.2,114.8z"/>
<linearGradient id="SVGID_00000057861409777942861870000013745530005136159360_" gradientUnits="userSpaceOnUse" x1="210.282" y1="392.8244" x2="228.656" y2="396.5594" gradientTransform="matrix(1 0 0 -1 0 502)">
	<stop  offset="0" style="stop-color:#E7BC91"/>
	<stop  offset="0.4" style="stop-color:#F3D5B5"/>
	<stop  offset="0.66" style="stop-color:#F5DCB4"/>
	<stop  offset="1" style="stop-color:#F5DCB4"/>
</linearGradient>
<path style="fill:url(#SVGID_00000057861409777942861870000013745530005136159360_);" d="M220.2,114.8c-1.4,2.7-3.1,4.5-4.8,5.6
	c-1.8-3.8-3-7.8-3.9-11.9l-0.1-0.7c-0.7-3.4-1.9-6.7-3.4-9.8c1.4-0.9,3.2-1.5,5.7-1C220.2,98,223.9,107.6,220.2,114.8L220.2,114.8z"
	/>
<path class="st70" d="M126.1,114.6c-0.2,3.5,0,6.9,0.7,10.3l0.1,0.7c0.9,4.1,1.2,8.3,1.1,12.5c-2-0.3-4.3-1.3-6.6-3.2
	c-6.2-5.2-6.6-15.5-1-19.1C122.5,114.5,124.5,114.3,126.1,114.6C126.1,114.5,126.1,114.6,126.1,114.6L126.1,114.6z"/>
<linearGradient id="SVGID_00000128448245512961791830000017909227662748085897_" gradientUnits="userSpaceOnUse" x1="127.145" y1="375.9197" x2="104.339" y2="371.4977" gradientTransform="matrix(1 0 0 -1 0 502)">
	<stop  offset="0" style="stop-color:#E7BC91"/>
	<stop  offset="0.4" style="stop-color:#F3D5B5"/>
	<stop  offset="0.66" style="stop-color:#F5DCB4"/>
	<stop  offset="1" style="stop-color:#F5DCB4"/>
</linearGradient>
<path style="fill:url(#SVGID_00000128448245512961791830000017909227662748085897_);" d="M126.1,114.6c-0.2,3.5,0,6.9,0.7,10.3
	l0.1,0.7c0.9,4.1,1.2,8.3,1.1,12.5c-2-0.3-4.3-1.3-6.6-3.2c-6.2-5.2-6.6-15.5-1-19.1C122.5,114.5,124.5,114.3,126.1,114.6
	C126.1,114.5,126.1,114.6,126.1,114.6L126.1,114.6z"/>
<path class="st70" d="M202.3,123.2c-1.2,3.2-1,6.7,0.7,9.6c1.3,2.2,2.6,4.7,3,6.7c3,14.6-8.5,29.2-25.5,32.7
	c-17.1,3.5-33.3-5.5-36.3-20.1c-0.4-2-0.2-4.8,0.1-7.4c0.4-3.4-0.7-6.7-3.1-9.2c-2.3-2.4-3.9-5.3-4.5-8.6c-2-9.7,4.7-19.2,14.8-21.3
	c3.3-0.7,6.7-0.5,9.9,0.5c3.8,1.2,7.9,0.4,10.8-2.2c2.5-2.2,5.6-3.7,8.9-4.4c10.2-2.1,20,4.1,22,13.8c0.5,2.4,0.5,4.9-0.1,7.3
	C202.8,121.6,202.6,122.4,202.3,123.2L202.3,123.2z"/>
<linearGradient id="SVGID_00000097459614568518039070000017652632995546903464_" gradientUnits="userSpaceOnUse" x1="167.1759" y1="395.7716" x2="179.9039" y2="330.0396" gradientTransform="matrix(1 0 0 -1 0 502)">
	<stop  offset="0" style="stop-color:#E7BC91"/>
	<stop  offset="0.4" style="stop-color:#F3D5B5"/>
	<stop  offset="0.66" style="stop-color:#F5DCB4"/>
	<stop  offset="0.7" style="stop-color:#F3DAB2"/>
	<stop  offset="1" style="stop-color:#EFD3AB"/>
</linearGradient>
<path style="fill:url(#SVGID_00000097459614568518039070000017652632995546903464_);" d="M202.3,123.2c-1.2,3.2-1,6.7,0.7,9.6
	c1.3,2.2,2.6,4.7,3,6.7c3,14.6-8.5,29.2-25.5,32.7c-17.1,3.5-33.3-5.5-36.3-20.1c-0.4-2-0.2-4.8,0.1-7.4c0.4-3.4-0.7-6.7-3.1-9.2
	c-2.3-2.4-3.9-5.3-4.5-8.6c-2-9.7,4.7-19.2,14.8-21.3c3.3-0.7,6.7-0.5,9.9,0.5c3.8,1.2,7.9,0.4,10.8-2.2c2.5-2.2,5.6-3.7,8.9-4.4
	c10.2-2.1,20,4.1,22,13.8c0.5,2.4,0.5,4.9-0.1,7.3C202.8,121.6,202.6,122.4,202.3,123.2L202.3,123.2z"/>
<radialGradient id="SVGID_00000075855493571324453600000009349013710167476919_" cx="101.1244" cy="530.6752" r="1" gradientTransform="matrix(22.0393 -4.4799 -4.4799 -22.0393 326.2986 12309.4043)" gradientUnits="userSpaceOnUse">
	<stop  offset="0.49" style="stop-color:#3A2E2E"/>
	<stop  offset="0.81" style="stop-color:#4C3B3B"/>
	<stop  offset="1" style="stop-color:#4E3F3F"/>
</radialGradient>
<path style="fill:url(#SVGID_00000075855493571324453600000009349013710167476919_);" d="M160,152.3c-1,0.2-1.6,1.1-1.4,2.1
	c0,0.1,0,0.2,0.1,0.2c2.7,7.6,11.3,12.1,20.3,10.3c9-1.8,15.2-9.4,14.7-17.4c-0.1-1-0.9-1.8-1.9-1.7c-0.1,0-0.2,0-0.2,0L160,152.3
	L160,152.3z"/>
<radialGradient id="SVGID_00000078028585766548927090000005294146822648120989_" cx="113.7741" cy="532.1881" r="1" gradientTransform="matrix(-13.8464 2.6088 1.3827 7.3386 1017.2079 -4045.0283)" gradientUnits="userSpaceOnUse">
	<stop  offset="0" style="stop-color:#E6646E"/>
	<stop  offset="0.45" style="stop-color:#DD4E6D"/>
	<stop  offset="1" style="stop-color:#E6646E"/>
</radialGradient>
<path style="fill:url(#SVGID_00000078028585766548927090000005294146822648120989_);" d="M168.2,164.1c7,2.6,14.9,1,20.3-4.1
	c-2.2-4.2-6-2.3-10.9-1.3C172.9,159.7,168.6,159.5,168.2,164.1L168.2,164.1z"/>
<linearGradient id="SVGID_00000015352196166799571450000000763540229182723260_" gradientUnits="userSpaceOnUse" x1="117.1071" y1="386.7735" x2="230.3751" y2="372.7766" gradientTransform="matrix(1 0 0 -1 0 502)">
	<stop  offset="0" style="stop-color:#A16552"/>
	<stop  offset="0.2" style="stop-color:#935848"/>
	<stop  offset="0.5" style="stop-color:#935848"/>
	<stop  offset="0.6" style="stop-color:#9B604E"/>
	<stop  offset="0.73" style="stop-color:#A16552"/>
	<stop  offset="1" style="stop-color:#966444"/>
</linearGradient>
<path style="fill:url(#SVGID_00000015352196166799571450000000763540229182723260_);" d="M215.1,93.2c-3.9-0.7-6.7,0.7-8.5,2.2
	c-0.8-1.4-1.7-2.7-2.6-4c-0.7-0.9-1.4-1.8-2.1-2.7c-7.7-9.1-18.8-15.7-30.3-17.1l-1.4-5.8l-6.1,5.6l-0.9,0.1c-0.5,0.1-1,0.1-1.6,0.2
	l-1.9-4.2l-0.6-1.2c-0.3,0.1-0.7,0.1-1,0.2c-6.4,1.8-8.4,8.4-8.7,9.5c-10.1,5.8-17.7,16.2-21.2,27.6c-0.4,1.1-0.7,2.2-0.9,3.4
	c-0.4,1.5-0.6,3.1-0.8,4.7l-0.3-0.1c-2.2-0.7-5.2-0.7-8.4,1.3c-7.1,4.5-6.6,17.6,1.2,24.3c3.2,2.7,6.2,3.9,9,4.2c0,0.1,0,0.3,0,0.4
	c0,2.2,0.2,4.4,0.6,6.6c3.1,15.1,16.8,25.8,33.9,28.2c4,0.6,8.1,0.7,12.1,0.4c2.1-0.2,4.2-0.5,6.2-0.9l0.5-0.1
	c25-5.1,41.9-25.7,37.8-46c-0.4-2.2-1.1-4.3-2-6.3c-0.1-0.1-0.1-0.3-0.2-0.4c2.4-1.3,4.7-3.6,6.6-7.3
	C228.1,106.8,223.4,94.6,215.1,93.2L215.1,93.2z M126.1,114.6c-0.2,3.5,0,6.9,0.7,10.3l0.1,0.7c0.9,4.1,1.2,8.3,1.1,12.5
	c-2-0.3-4.3-1.3-6.6-3.2c-6.2-5.2-6.6-15.5-1-19.1C122.6,114.5,124.5,114.3,126.1,114.6C126.1,114.6,126.1,114.6,126.1,114.6
	L126.1,114.6z M203.1,120.9c-0.2,0.8-0.4,1.6-0.7,2.3c-1.2,3.2-1,6.7,0.7,9.6c1.3,2.2,2.6,4.7,3,6.7c3,14.6-8.5,29.2-25.5,32.7
	c-17.1,3.5-33.3-5.5-36.3-20.2c-0.4-2-0.2-4.8,0.1-7.4c0.4-3.4-0.7-6.7-3.1-9.2c-2.3-2.4-3.9-5.3-4.5-8.6c-2-9.7,4.7-19.2,14.9-21.3
	c3.3-0.7,6.7-0.5,9.9,0.5c3.8,1.2,7.9,0.4,10.8-2.2c2.5-2.2,5.6-3.7,8.9-4.4c10.2-2.1,20,4.1,22,13.8
	C203.6,116,203.6,118.5,203.1,120.9L203.1,120.9z M220.3,114.8c-1.4,2.7-3.1,4.5-4.8,5.6c-1.8-3.8-3.1-7.8-3.9-11.9l-0.1-0.7
	c-0.7-3.4-1.9-6.7-3.4-9.8c1.4-0.9,3.2-1.5,5.7-1C220.2,98,223.9,107.6,220.3,114.8L220.3,114.8z"/>
<linearGradient id="SVGID_00000028297468863973298920000005273437797621962427_" gradientUnits="userSpaceOnUse" x1="171.919" y1="362.8929" x2="165.564" y2="364.5909" gradientTransform="matrix(1 0 0 -1 0 502)">
	<stop  offset="0.49" style="stop-color:#3A2E2E"/>
	<stop  offset="0.81" style="stop-color:#4C3B3B"/>
	<stop  offset="1" style="stop-color:#4E3F3F"/>
</linearGradient>
<path style="fill:url(#SVGID_00000028297468863973298920000005273437797621962427_);" d="M165.4,137.4L165.4,137.4
	c-0.2,0.9,0.3,1.7,1.1,1.9l3.8,0.9c0.8,0.2,1.6-0.3,1.8-1.1l0-0.1c0.2-0.8-0.3-1.6-1.1-1.8l-3.8-0.9
	C166.4,136.2,165.6,136.6,165.4,137.4z"/>
<linearGradient id="SVGID_00000156589909160207805340000011938485067432948132_" gradientUnits="userSpaceOnUse" x1="175.2587" y1="363.5225" x2="180.6357" y2="367.6465" gradientTransform="matrix(1 0 0 -1 0 502)">
	<stop  offset="0.49" style="stop-color:#3A2E2E"/>
	<stop  offset="0.81" style="stop-color:#4C3B3B"/>
	<stop  offset="1" style="stop-color:#4E3F3F"/>
</linearGradient>
<path style="fill:url(#SVGID_00000156589909160207805340000011938485067432948132_);" d="M178.7,134l-3.2,2.3
	c-0.7,0.5-0.8,1.4-0.3,2.1l0.1,0.1c0.5,0.7,1.4,0.8,2.1,0.3l3.2-2.3c0.7-0.5,0.8-1.4,0.3-2.1l-0.1-0.1
	C180.3,133.7,179.4,133.5,178.7,134z"/>
<linearGradient id="SVGID_00000069365349709940433740000014203735295033559187_" gradientUnits="userSpaceOnUse" x1="151.7276" y1="382.4478" x2="157.4506" y2="370.9068" gradientTransform="matrix(1 0 0 -1 0 502)">
	<stop  offset="0.49" style="stop-color:#3A2E2E"/>
	<stop  offset="0.81" style="stop-color:#4C3B3B"/>
	<stop  offset="1" style="stop-color:#4E3F3F"/>
</linearGradient>
<path style="fill:url(#SVGID_00000069365349709940433740000014203735295033559187_);" d="M155.5,130.5c-2.9,0.6-5.8-1.2-6.3-3.9
	l-0.3-1.7c-0.6-2.8,1.4-5.5,4.3-6.1c2.9-0.6,5.8,1.2,6.3,3.9l0.3,1.7C160.3,127.2,158.4,129.9,155.5,130.5z"/>
<radialGradient id="SVGID_00000035518147834527467780000002197842639774301834_" cx="89.4612" cy="529.8984" r="1" gradientTransform="matrix(6.4971 -1.3207 -1.3207 -6.4971 275.4058 3680.2812)" gradientUnits="userSpaceOnUse">
	<stop  offset="0" style="stop-color:#5D5360"/>
	<stop  offset="1" style="stop-color:#5D5360;stop-opacity:0.4"/>
</radialGradient>
<path style="fill:url(#SVGID_00000035518147834527467780000002197842639774301834_);" d="M153.1,118.8l1.2,5.9
	c0.4,1.4,1.8,2.3,3.3,2c1.4-0.3,2.2-1.7,2-3l-0.2-0.8C158.8,120,156,118.2,153.1,118.8L153.1,118.8z"/>
<path class="st61" d="M154.1,123.8c1-0.2,1.6-1.1,1.4-2c-0.2-0.9-1.1-1.5-2.1-1.3c-1,0.2-1.6,1.1-1.4,2
	C152.2,123.4,153.1,124,154.1,123.8z"/>
<linearGradient id="SVGID_00000124146079209204401090000002644576070343902337_" gradientUnits="userSpaceOnUse" x1="117.7362" y1="361.8388" x2="211.2219" y2="397.1174" gradientTransform="matrix(1 0 0 -1 0 502)">
	<stop  offset="0" style="stop-color:#4E3F3F"/>
	<stop  offset="0.14" style="stop-color:#4E3F3F;stop-opacity:0.7"/>
	<stop  offset="0.46" style="stop-color:#4E3F3F;stop-opacity:0.4"/>
	<stop  offset="0.73" style="stop-color:#4E3F3F;stop-opacity:0.2"/>
	<stop  offset="0.84" style="stop-color:#4E3F3F;stop-opacity:9.000000e-02"/>
	<stop  offset="1" style="stop-color:#4E3F3F;stop-opacity:0"/>
</linearGradient>
<path style="fill:url(#SVGID_00000124146079209204401090000002644576070343902337_);" d="M176.6,97.4c6.5-2.9,15-9.7,16.1-12.4
	c1.1-3.1-10.8-3.4-10.8-3.4l-31.8,1.1l-1.3,0.9c1-2.3,2.1-4.5,3.2-6.4c0.6-1.1,1.2-2.2,1.9-3.2c2.4-3.9,4.7-6.2,5.9-6.4l-0.6-1.2
	c-0.3,0.1-0.7,0.2-1,0.2c-6.4,1.9-8.4,8.4-8.7,9.5c-10.1,5.8-17.7,16.2-21.2,27.6c-0.3,1.1-0.7,2.2-0.9,3.4
	c-0.4,1.5-0.6,3.1-0.8,4.7l-0.3-0.1c-2.2-0.7-5.2-0.7-8.4,1.3c-7.1,4.5-6.6,17.6,1.2,24.2c3.2,2.7,6.2,3.9,8.9,4.2
	c0,0.1,0,0.3,0,0.4c0,2.2,0.2,4.4,0.6,6.6c3.1,15.1,16.8,25.8,33.9,28.2c4,0.6,8.1,0.7,12.1,0.4c0,0-11.3-3.5-19.5-12.8
	c-7.5-8.5-10.9-24-12.1-40c-0.3-6.6-0.4-11.1-0.4-11.1c0-0.7,0.4-1.3,1.1-1.5c17.4-5.9,33.9-9.3,54.4-10.2c2.2-0.2,4.4-0.5,6.3-1.5
	c1.9-1.1,3.4-3.1,3.1-5.3C197.2,96.2,186.9,96.6,176.6,97.4L176.6,97.4z M144.6,102c-0.5,0.1-1,0.3-1.5,0.4c0.2-1.1,0.4-2.2,0.6-3.3
	c0,0,9.4-2.8,14.3-1.4c1.4,0.4,2.7,0.8,4.1,1C156.3,99.5,150.4,100.5,144.6,102L144.6,102z"/>
<linearGradient id="SVGID_00000147197099120241228810000002359050780917536404_" gradientUnits="userSpaceOnUse" x1="183.1007" y1="389.0099" x2="188.8247" y2="377.4688" gradientTransform="matrix(1 0 0 -1 0 502)">
	<stop  offset="0.49" style="stop-color:#3A2E2E"/>
	<stop  offset="0.81" style="stop-color:#4C3B3B"/>
	<stop  offset="1" style="stop-color:#4E3F3F"/>
</linearGradient>
<path style="fill:url(#SVGID_00000147197099120241228810000002359050780917536404_);" d="M186.8,124c-2.9,0.6-5.8-1.2-6.3-3.9
	l-0.3-1.7c-0.6-2.8,1.4-5.5,4.3-6.1c2.9-0.6,5.8,1.2,6.3,3.9l0.3,1.7C191.7,120.6,189.7,123.4,186.8,124z"/>
<radialGradient id="SVGID_00000151543607998785967280000001603061382308744358_" cx="89.4612" cy="529.8984" r="1" gradientTransform="matrix(6.4971 -1.3207 -1.3207 -6.4971 306.7778 3673.7292)" gradientUnits="userSpaceOnUse">
	<stop  offset="0" style="stop-color:#5D5360"/>
	<stop  offset="1" style="stop-color:#5D5360;stop-opacity:0.4"/>
</radialGradient>
<path style="fill:url(#SVGID_00000151543607998785967280000001603061382308744358_);" d="M184.4,112.3l1.2,5.8
	c0.4,1.4,1.8,2.3,3.3,2c1.4-0.3,2.2-1.7,2-3l-0.2-0.8C190.2,113.4,187.4,111.7,184.4,112.3L184.4,112.3z"/>
<path class="st61" d="M185.5,117.3c1-0.2,1.6-1.1,1.4-2c-0.2-0.9-1.1-1.5-2.1-1.3c-1,0.2-1.6,1.1-1.4,2
	C183.6,116.9,184.5,117.5,185.5,117.3z"/>
<linearGradient id="SVGID_00000148631924448916272210000001861428873579576754_" gradientUnits="userSpaceOnUse" x1="120.4262" y1="412.08" x2="207.1332" y2="421.9626" gradientTransform="matrix(1 0 0 -1 0 502)">
	<stop  offset="8.000000e-02" style="stop-color:#88756E"/>
	<stop  offset="0.28" style="stop-color:#927F76"/>
	<stop  offset="0.67" style="stop-color:#A18E81"/>
	<stop  offset="0.98" style="stop-color:#A69485"/>
</linearGradient>
<path style="fill:url(#SVGID_00000148631924448916272210000001861428873579576754_);" d="M180.9,63.3C160,61.9,159,62.7,159,62.8
	c-0.1-0.1-1.3-0.4-20.1,9c-17.1,10.2-15.5,39-14.6,39.5s6.3,0.4,6.3,0.4l35.3-12.1L203,97c0,0,5.1-2,5.7-2.8
	C209.4,93.3,200.4,66,180.9,63.3L180.9,63.3z"/>
<linearGradient id="SVGID_00000155861501141428604920000004175420325792464016_" gradientUnits="userSpaceOnUse" x1="188.7861" y1="419.7362" x2="209.584" y2="422.1021" gradientTransform="matrix(1 0 0 -1 0 502)">
	<stop  offset="8.000000e-02" style="stop-color:#88756E"/>
	<stop  offset="0.28" style="stop-color:#927F76"/>
	<stop  offset="0.67" style="stop-color:#A18E81"/>
	<stop  offset="0.98" style="stop-color:#A69485"/>
</linearGradient>
<path style="fill:url(#SVGID_00000155861501141428604920000004175420325792464016_);" d="M188.9,65.9c6.8,9.7,11.4,24.3,13.2,31.1
	L203,97c0,0,5.1-2,5.7-2.8C209.3,93.4,202.9,73.5,188.9,65.9z"/>
<linearGradient id="SVGID_00000152241152830199717890000003987447571161116836_" gradientUnits="userSpaceOnUse" x1="119.0236" y1="406.7238" x2="288.5446" y2="424.2712" gradientTransform="matrix(1 0 0 -1 0 502)">
	<stop  offset="8.000000e-02" style="stop-color:#88756E"/>
	<stop  offset="0.28" style="stop-color:#927F76"/>
	<stop  offset="0.67" style="stop-color:#A18E81"/>
	<stop  offset="0.98" style="stop-color:#A69485"/>
</linearGradient>
<path style="fill:url(#SVGID_00000152241152830199717890000003987447571161116836_);" d="M124.2,111.2c0.9,0.5,6.3,0.4,6.3,0.4
	l2.3-0.8c-1.3-9.1-0.1-26.6,0.6-34.6C122.1,88.6,123.4,110.8,124.2,111.2L124.2,111.2z"/>
<linearGradient id="SVGID_00000134211112492297273900000005359354527296725668_" gradientUnits="userSpaceOnUse" x1="163.9647" y1="407.7973" x2="170.9177" y2="379.309" gradientTransform="matrix(1 0 0 -1 0 502)">
	<stop  offset="0" style="stop-color:#685A56"/>
	<stop  offset="0.11" style="stop-color:#584C47"/>
	<stop  offset="0.25" style="stop-color:#49403A"/>
	<stop  offset="0.37" style="stop-color:#443C36"/>
</linearGradient>
<path style="fill:url(#SVGID_00000134211112492297273900000005359354527296725668_);" d="M166.1,100.3c0,0-15,4.5-21.8,7.2
	s-15,4.8-15.5,4.8c-0.6,0.1-1.3-2.9-1.3-2.9l21.1-12.7l15.8-4.2l16.9-1.8l22.8,2.7c0,0,0.4,2.4,0.4,3.4
	C204.4,97.9,181.6,97.3,166.1,100.3L166.1,100.3z"/>
<linearGradient id="SVGID_00000143579387022156063240000002222173424434485435_" gradientUnits="userSpaceOnUse" x1="160.7022" y1="415.551" x2="168.2292" y2="392.4661" gradientTransform="matrix(1 0 0 -1 0 502)">
	<stop  offset="8.000000e-02" style="stop-color:#A49385"/>
	<stop  offset="0.3" style="stop-color:#AF9B8B"/>
	<stop  offset="0.67" style="stop-color:#BEA594"/>
	<stop  offset="0.98" style="stop-color:#C4A997"/>
</linearGradient>
<path style="fill:url(#SVGID_00000143579387022156063240000002222173424434485435_);" d="M128.7,112.3c0,0-0.3-1.1,2.4-2.8
	c2.7-1.7,21.3-14,32.5-16.3c11.9-3,34.4,0.9,36.6,1.1c2.2,0.2,3.3,2.3,3.3,2.3s0.7,0.8,1.6,0.6c0.9-0.2,1.6-1.4,0.8-3.6
	c-0.8-1.5-1.6-1.9-3.1-2.2c-1.2-0.2-14.7-4.4-29.7-3.3c-6.6,0.5-13,1.8-19.2,4.1c-15,6.7-24.7,14.1-26.4,15.1
	c-2.1,1.2-1.5,4-1.1,4.6C126.6,112.5,128.2,113.6,128.7,112.3L128.7,112.3z"/>
<path class="st11" d="M250,419c0,0-32.1-20.3-48.7-20.4c-16.6-0.1-34.1-12.8-41.5-13.2c0,0-13.5-3.3-18.7-7.2
	c-5.2-3.9-31.8-7.6-40-5.8c-8.2,1.8-10.6,6.8-27.8,11.1c-17.2,4.3-20.9,19.8-1.2,35.7s83.8,22.4,108.9,20S271.9,439,250,419L250,419
	z"/>
<path class="st89" d="M67.3,384.9c3.7-0.3,4.6-1.8,12.7-0.3c8.1,1.5,12,1.7,4.5,6.6c-7.5,4.9-12.9,7.5-15.9,5.2
	C65.5,394.2,57.3,385.6,67.3,384.9L67.3,384.9z"/>
<path class="st12" d="M64.3,392.2c0,0,2.5,2.3,3.3,3c0.8,0.6,1.4,1.3,3.3,1.4c1.9,0.1,5.3-1,6.4-1.5c1-0.6,10.2-6,10.2-6
	s-2.3,2.7-3.7,3.8c-1.4,1.1-6.9,4.3-8.5,4.8c-1.6,0.5-3.3,0.7-5.2,0.4s-2.6-1.3-2.9-2S64.3,392.2,64.3,392.2L64.3,392.2z"/>
<path class="st89" d="M218.2,410.9c0.6-0.8,0.5-1.9,2.9-1.4c2.3,0.4,3.3,0.5,3.5,1.4c0.1,0.9,0.5,2.5-0.9,2.7
	c-1.4,0.1-4.2-0.1-4.8-0.6S217.9,411.3,218.2,410.9L218.2,410.9z"/>
<path class="st89" d="M204,414.8c0.8-0.7,2.3-3.3,5.8-2.6c3.5,0.6,4.3,1,4.2,2.3c-0.1,1.2,0.5,3.6-1.2,4.1s-6.1,2.4-7.2,2
	C204.5,420.1,201.4,417.1,204,414.8L204,414.8z"/>
<path class="st12" d="M218.1,411.6c0-0.2,0.6,1,1.1,1.1c0.6,0.2,1.7,0.5,2.7,0.4c1,0,1.6-0.4,2-0.4s0.6,0,0.6,0
	c0.1,0,0.1,0.4-0.1,0.7c-0.2,0.3-0.5,0.4-1.1,0.6c-0.6,0.2-1.7-0.1-2.2-0.1c-0.5,0-1.7-0.3-2.4-0.5S218.1,411.9,218.1,411.6
	L218.1,411.6z"/>
<path class="st12" d="M203.1,417.6c0,0,0.9,0.9,1.5,1.1c0.6,0.2,0.5-0.3,1.6,0s0.4,0.8,1.8,0.7s3.9-0.7,4.4-0.9
	c0.5-0.2,1.4-0.8,1.5-1.5c0.1-0.7,0.1,0.9-0.1,1.4c-0.2,0.5-1.9,0.9-2.3,1.1c-0.5,0.3-3.2,1-3.8,1.3c-0.6,0.3-2.2,0.2-2.8,0
	s-1.7-2.1-1.8-2.5C203.2,417.9,203.1,417.6,203.1,417.6L203.1,417.6z"/>
<path class="st90" d="M174.6,415.2c-13.7-8.8-7.8-14.7-23.7-19c-15.8-4.3-19.3,13.9-40.9,14.3c-20.2,0.4-44.3-1-47.3-1.2
	c2.1,3.2,5.2,6.4,9.3,9.7c20.1,18.6,52,22.7,115.1,23.6c7.5,0.1,15.2,0.1,23.2-0.1C208.5,441,187.7,423.6,174.6,415.2L174.6,415.2z"
	/>
<g>
	<defs>
		<path id="SVGID_00000063632791658662064230000003827253591652369283_" d="M228.6,263.8l-2.2-74.4l8.6-14.8l20.4-13.1l19.1,12.4
			l8.4,40.2l-6.2,0.4l2.2,39.5c-4.1-1.4-8.7-2.8-17.9-5.4L228.6,263.8z"/>
	</defs>
	<clipPath id="SVGID_00000150813026317889185810000001298122721334722182_">
		<use xlink:href="#SVGID_00000063632791658662064230000003827253591652369283_"  style="overflow:visible;"/>
	</clipPath>
	<g style="opacity:0.15;clip-path:url(#SVGID_00000150813026317889185810000001298122721334722182_);">
		<path class="st2" d="M265.7,253.2c0,0-0.3-77.3-9.4-94.1"/>
		<path class="st2" d="M225.3,238.9c0,0,34.5-8.3,54.1-4.3"/>
		<path class="st2" d="M223.4,222.2c0,0,19.6-20.3,57.9-17.5"/>
		<path class="st2" d="M224.2,203.3c0.5-0.2,21.8-39.1,58.5-30.3"/>
	</g>
	<g style="opacity:0.15;clip-path:url(#SVGID_00000150813026317889185810000001298122721334722182_);">
		<path class="st3" d="M265.7,253.2c0,0-0.3-77.3-9.4-94.1"/>
		<path class="st3" d="M225.3,238.9c0,0,34.5-8.3,54.1-4.3"/>
		<path class="st3" d="M223.4,222.2c0,0,19.6-20.3,57.9-17.5"/>
		<path class="st3" d="M224.2,203.3c0.5-0.2,21.8-39.1,58.5-30.3"/>
	</g>
	<g style="opacity:0.15;clip-path:url(#SVGID_00000150813026317889185810000001298122721334722182_);">
		<path class="st92" d="M265.7,253.2c0,0-0.3-77.3-9.4-94.1"/>
		<path class="st92" d="M225.3,238.9c0,0,34.5-8.3,54.1-4.3"/>
		<path class="st92" d="M223.4,222.2c0,0,19.6-20.3,57.9-17.5"/>
		<path class="st92" d="M224.2,203.3c0.5-0.2,21.8-39.1,58.5-30.3"/>
	</g>
</g>
</svg>
