<svg width="500" height="500" viewBox="0 0 500 500" fill="none" xmlns="http://www.w3.org/2000/svg">
<path d="M190.1 124.9C119.1 165.9 94.8 256.7 135.8 327.7C176.8 398.7 267.5 423 338.5 382C409.5 341 433.8 250.2 392.8 179.2C351.8 108.2 261.1 83.8996 190.1 124.9V124.9ZM333.7 373.6C267.4 411.9 182.5 389.2 144.2 322.8C105.9 256.4 128.6 171.7 195 133.4C261.4 95.0996 346.2 117.8 384.5 184.2C422.8 250.6 400 335.3 333.7 373.6Z" fill="#FFBE29"/>
<path d="M171.9 135.4C100.9 176.4 76.5998 267.2 117.6 338.2C158.6 409.2 249.4 433.5 320.4 392.5C391.4 351.5 415.7 260.7 374.7 189.7C333.7 118.7 242.9 94.5001 171.9 135.4V135.4ZM315.4 384.1C249.1 422.4 164.2 399.7 125.9 333.3C87.5998 266.9 110.3 182.1 176.7 143.8C243.1 105.5 327.9 128.2 366.2 194.6C404.5 261 381.8 345.8 315.4 384.1Z" fill="#FFBE29"/>
<path d="M162.8 387.299C233.8 428.299 324.6 403.999 365.6 332.999C406.6 261.999 382.3 171.199 311.3 130.199C240.3 89.1994 149.5 113.499 108.5 184.499C67.4001 255.499 91.7001 346.299 162.8 387.299ZM306.3 138.599C372.6 176.899 395.4 261.699 357.1 328.099C318.8 394.499 234 417.199 167.6 378.899C101.2 340.599 78.5001 255.799 116.8 189.399C155.1 122.999 240 100.299 306.3 138.599Z" fill="#FFBE29"/>
<path d="M199.201 387.299C270.201 428.299 361.001 403.999 402.001 332.999C443.001 261.999 418.701 171.199 347.701 130.199C276.701 89.1994 185.901 113.499 144.901 184.499C103.901 255.499 128.201 346.299 199.201 387.299ZM342.801 138.599C409.101 176.899 431.901 261.699 393.601 328.099C355.301 394.499 270.501 417.199 204.101 378.899C137.701 340.599 115.001 255.699 153.301 189.399C191.601 123.099 276.501 100.299 342.801 138.599Z" fill="#FFBE29"/>
<path d="M393.1 251C393.1 169 326.6 102.6 244.7 102.6C162.8 102.6 96.2002 169.1 96.2002 251C96.2002 332.9 162.7 399.4 244.7 399.4C326.7 399.4 393.1 333 393.1 251V251ZM106 251C106 174.4 168.1 112.3 244.7 112.3C321.3 112.3 383.4 174.4 383.4 251C383.4 327.6 321.3 389.7 244.7 389.7C168.1 389.7 106 327.6 106 251Z" fill="#FFBE29"/>
<path d="M403.7 248.2C403.7 166.2 337.2 99.7998 255.3 99.7998C173.4 99.7998 106.9 166.3 106.9 248.2C106.9 330.1 173.4 396.6 255.3 396.6C337.2 396.6 403.7 330.2 403.7 248.2V248.2ZM116.5 248.2C116.5 171.6 178.6 109.5 255.2 109.5C331.8 109.5 393.9 171.6 393.9 248.2C393.9 324.8 331.8 386.9 255.2 386.9C178.6 386.9 116.5 324.8 116.5 248.2Z" fill="#FFBE29"/>
<path d="M190.1 124.9C119.1 165.9 94.8 256.7 135.8 327.7C176.8 398.7 267.5 423 338.5 382C409.5 341 433.8 250.2 392.8 179.2C351.8 108.2 261.1 83.8996 190.1 124.9V124.9ZM333.7 373.6C267.4 411.9 182.5 389.2 144.2 322.8C105.9 256.4 128.6 171.7 195 133.4C261.4 95.0996 346.2 117.8 384.5 184.2C422.8 250.6 400 335.3 333.7 373.6Z" fill="#FFBE29"/>
<path d="M171.9 135.4C100.9 176.4 76.5998 267.2 117.6 338.2C158.6 409.2 249.4 433.5 320.4 392.5C391.4 351.5 415.7 260.7 374.7 189.7C333.7 118.7 242.9 94.5001 171.9 135.4V135.4ZM315.4 384.1C249.1 422.4 164.2 399.7 125.9 333.3C87.5998 266.9 110.3 182.1 176.7 143.8C243.1 105.5 327.9 128.2 366.2 194.6C404.5 261 381.8 345.8 315.4 384.1Z" fill="#FFBE29"/>
<path d="M162.8 387.299C233.8 428.299 324.6 403.999 365.6 332.999C406.6 261.999 382.3 171.199 311.3 130.199C240.3 89.1994 149.5 113.499 108.5 184.499C67.4001 255.499 91.7001 346.299 162.8 387.299ZM306.3 138.599C372.6 176.899 395.4 261.699 357.1 328.099C318.8 394.499 234 417.199 167.6 378.899C101.2 340.599 78.5001 255.799 116.8 189.399C155.1 122.999 240 100.299 306.3 138.599Z" fill="#FFCA5F"/>
<path d="M199.201 387.299C270.201 428.299 361.001 403.999 402.001 332.999C443.001 261.999 418.701 171.199 347.701 130.199C276.701 89.1994 185.901 113.499 144.901 184.499C103.901 255.499 128.201 346.299 199.201 387.299ZM342.801 138.599C409.101 176.899 431.901 261.699 393.601 328.099C355.301 394.499 270.501 417.199 204.101 378.899C137.701 340.599 115.001 255.699 153.301 189.399C191.601 123.099 276.501 100.299 342.801 138.599Z" fill="#FFD892"/>
<path d="M393.1 251C393.1 169 326.6 102.6 244.7 102.6C162.8 102.6 96.2002 169.1 96.2002 251C96.2002 332.9 162.7 399.4 244.7 399.4C326.7 399.4 393.1 333 393.1 251V251ZM106 251C106 174.4 168.1 112.3 244.7 112.3C321.3 112.3 383.4 174.4 383.4 251C383.4 327.6 321.3 389.7 244.7 389.7C168.1 389.7 106 327.6 106 251Z" fill="#FFBE29"/>
<path d="M403.7 248.2C403.7 166.2 337.2 99.7998 255.3 99.7998C173.4 99.7998 106.9 166.3 106.9 248.2C106.9 330.1 173.4 396.6 255.3 396.6C337.2 396.6 403.7 330.2 403.7 248.2V248.2ZM116.5 248.2C116.5 171.6 178.6 109.5 255.2 109.5C331.8 109.5 393.9 171.6 393.9 248.2C393.9 324.8 331.8 386.9 255.2 386.9C178.6 386.9 116.5 324.8 116.5 248.2Z" fill="#F9DDAA"/>
<path d="M316.1 448.4C269.6 448.4 231.9 410.7 231.9 364.2C231.9 317.7 269.6 280 316.1 280C362.6 280 400.3 317.7 400.3 364.2C400.3 410.7 362.6 448.4 316.1 448.4Z" fill="url(#paint0_linear_731_4666)"/>
<path d="M264.5 312.6C293 284.1 339.2 284.1 367.7 312.6C396.2 341.1 396.2 387.3 367.7 415.8C339.2 444.3 293 444.3 264.5 415.8C236 387.3 236 341.1 264.5 312.6Z" fill="url(#paint1_linear_731_4666)"/>
<path d="M361.901 441.8C353.101 433 353.101 418.8 361.901 410C370.701 401.2 384.901 401.2 393.701 410C402.501 418.8 402.501 433 393.701 441.8C384.901 450.6 370.701 450.5 361.901 441.8Z" fill="url(#paint2_linear_731_4666)"/>
<path d="M365.101 413.2C358.101 420.2 358.101 431.6 365.101 438.6C372.101 445.6 383.501 445.6 390.501 438.6C397.501 431.6 397.501 420.2 390.501 413.2C383.501 406.2 372.101 406.2 365.101 413.2Z" fill="url(#paint3_linear_731_4666)"/>
<path d="M369 427.5L375.5 434L386.6 419.6" stroke="white" stroke-width="5" stroke-linecap="round" stroke-linejoin="round"/>
<path d="M273.128 354.302C274.52 354.616 275.619 355.312 276.428 356.389C277.258 357.444 277.673 358.656 277.673 360.026C277.673 362.046 276.977 363.628 275.586 364.773C274.194 365.918 272.241 366.49 269.727 366.49H257.976V342.753H269.357C271.781 342.753 273.678 343.292 275.047 344.369C276.439 345.446 277.135 346.962 277.135 348.914C277.135 350.306 276.764 351.473 276.023 352.416C275.305 353.336 274.34 353.965 273.128 354.302ZM264.576 352.18H267.909C269.57 352.18 270.401 351.496 270.401 350.127C270.401 348.712 269.57 348.005 267.909 348.005H264.576V352.18ZM268.414 361.17C270.075 361.17 270.906 360.475 270.906 359.083C270.906 358.365 270.681 357.815 270.232 357.433C269.806 357.051 269.188 356.861 268.38 356.861H264.576V361.17H268.414ZM291.946 366.726C289.724 366.726 287.681 366.21 285.818 365.177C283.955 364.122 282.473 362.674 281.374 360.834C280.296 358.971 279.757 356.872 279.757 354.537C279.757 352.203 280.296 350.115 281.374 348.275C282.473 346.412 283.955 344.964 285.818 343.931C287.681 342.899 289.724 342.383 291.946 342.383C294.191 342.383 296.233 342.899 298.074 343.931C299.937 344.964 301.407 346.412 302.485 348.275C303.562 350.115 304.101 352.203 304.101 354.537C304.101 356.872 303.562 358.971 302.485 360.834C301.407 362.674 299.937 364.122 298.074 365.177C296.211 366.21 294.168 366.726 291.946 366.726ZM291.946 360.598C293.629 360.598 294.954 360.048 295.919 358.948C296.907 357.848 297.4 356.378 297.4 354.537C297.4 352.652 296.907 351.17 295.919 350.093C294.954 348.993 293.629 348.443 291.946 348.443C290.24 348.443 288.904 348.993 287.939 350.093C286.974 351.17 286.491 352.652 286.491 354.537C286.491 356.4 286.974 357.882 287.939 358.982C288.904 360.059 290.24 360.598 291.946 360.598ZM329.054 366.49H322.455L313.667 353.224V366.49H307.067V342.753H313.667L322.455 356.187V342.753H329.054V366.49ZM339.278 342.753V356.524C339.278 357.803 339.57 358.791 340.153 359.487C340.759 360.183 341.668 360.531 342.881 360.531C344.093 360.531 345.002 360.183 345.608 359.487C346.236 358.769 346.551 357.781 346.551 356.524V342.753H353.15V356.524C353.15 358.701 352.69 360.564 351.769 362.113C350.849 363.64 349.592 364.796 347.998 365.581C346.427 366.344 344.676 366.726 342.746 366.726C340.815 366.726 339.087 366.344 337.561 365.581C336.057 364.796 334.867 363.64 333.992 362.113C333.139 360.587 332.712 358.724 332.712 356.524V342.753H339.278ZM365.74 366.726C362.979 366.726 360.711 366.075 358.938 364.773C357.165 363.449 356.211 361.563 356.076 359.117H363.113C363.181 359.947 363.428 360.553 363.854 360.935C364.281 361.316 364.83 361.507 365.504 361.507C366.11 361.507 366.604 361.361 366.985 361.069C367.389 360.755 367.591 360.329 367.591 359.79C367.591 359.094 367.266 358.555 366.615 358.174C365.964 357.792 364.909 357.366 363.45 356.894C361.901 356.378 360.644 355.884 359.679 355.413C358.736 354.919 357.906 354.212 357.187 353.292C356.492 352.349 356.144 351.125 356.144 349.622C356.144 348.095 356.525 346.793 357.288 345.716C358.052 344.616 359.107 343.785 360.453 343.224C361.8 342.663 363.327 342.383 365.032 342.383C367.793 342.383 369.993 343.033 371.632 344.335C373.293 345.615 374.179 347.422 374.292 349.756H367.12C367.098 349.038 366.873 348.499 366.447 348.14C366.043 347.781 365.515 347.601 364.864 347.601C364.37 347.601 363.966 347.747 363.652 348.039C363.338 348.331 363.181 348.746 363.181 349.285C363.181 349.734 363.349 350.127 363.686 350.463C364.045 350.778 364.483 351.058 364.999 351.305C365.515 351.53 366.278 351.821 367.288 352.18C368.792 352.697 370.027 353.213 370.992 353.729C371.98 354.223 372.821 354.93 373.517 355.851C374.236 356.748 374.595 357.893 374.595 359.285C374.595 360.699 374.236 361.967 373.517 363.09C372.821 364.212 371.8 365.099 370.453 365.749C369.129 366.4 367.558 366.726 365.74 366.726Z" fill="white"/>
<path d="M268.254 392.8L267.924 392.978L268.03 393.175H268.254V392.8ZM264.012 384.922L264.342 384.744L264.236 384.547H264.012V384.922ZM263.376 384.922V384.547H263.001V384.922H263.376ZM263.376 392.8V393.175H263.751V392.8H263.376ZM257.437 392.8H257.062V393.175H257.437V392.8ZM257.437 371.438V371.063H257.062V371.438H257.437ZM271.163 372.347L270.993 372.682L270.998 372.684L271.163 372.347ZM273.86 374.802L273.535 374.989L273.536 374.992L273.86 374.802ZM273.557 382.134L273.253 381.914L273.253 381.915L273.557 382.134ZM270.072 384.467L269.964 384.108L269.511 384.245L269.747 384.655L270.072 384.467ZM274.89 392.8V393.175H275.54L275.214 392.612L274.89 392.8ZM263.376 380.862H263.001V381.237H263.376V380.862ZM268.133 380.286L267.875 380.014L267.875 380.014L268.133 380.286ZM268.103 377.014L267.837 377.279L267.844 377.285L267.851 377.292L268.103 377.014ZM263.376 376.408V376.033H263.001V376.408H263.376ZM268.584 392.622L264.342 384.744L263.682 385.1L267.924 392.978L268.584 392.622ZM264.012 384.547H263.376V385.297H264.012V384.547ZM263.001 384.922V392.8H263.751V384.922H263.001ZM263.376 392.425H257.437V393.175H263.376V392.425ZM257.812 392.8V371.438H257.062V392.8H257.812ZM257.437 371.813H266.8V371.063H257.437V371.813ZM266.8 371.813C268.474 371.813 269.867 372.109 270.993 372.682L271.333 372.013C270.076 371.374 268.56 371.063 266.8 371.063V371.813ZM270.998 372.684C272.129 373.24 272.97 374.009 273.535 374.989L274.184 374.614C273.538 373.493 272.58 372.626 271.328 372.011L270.998 372.684ZM273.536 374.992C274.106 375.96 274.394 377.055 274.394 378.286H275.144C275.144 376.932 274.826 375.704 274.183 374.611L273.536 374.992ZM274.394 378.286C274.394 379.666 274.012 380.871 273.253 381.914L273.86 382.355C274.717 381.176 275.144 379.815 275.144 378.286H274.394ZM273.253 381.915C272.522 382.927 271.436 383.663 269.964 384.108L270.181 384.826C271.779 384.343 273.016 383.523 273.861 382.354L273.253 381.915ZM269.747 384.655L274.565 392.988L275.214 392.612L270.397 384.28L269.747 384.655ZM274.89 392.425H268.254V393.175H274.89V392.425ZM263.376 381.237H266.315V380.487H263.376V381.237ZM266.315 381.237C267.176 381.237 267.892 381.032 268.391 380.558L267.875 380.014C267.566 380.307 267.07 380.487 266.315 380.487V381.237ZM268.391 380.558C268.891 380.083 269.114 379.416 269.114 378.619H268.364C268.364 379.277 268.183 379.721 267.875 380.014L268.391 380.558ZM269.114 378.619C269.114 377.85 268.873 377.204 268.354 376.735L267.851 377.292C268.181 377.59 268.364 378.015 268.364 378.619H269.114ZM268.368 376.748C267.87 376.251 267.164 376.033 266.315 376.033V376.783C267.042 376.783 267.527 376.968 267.837 377.279L268.368 376.748ZM266.315 376.033H263.376V376.783H266.315V376.033ZM263.001 376.408V380.862H263.751V376.408H263.001ZM282.196 391.618L282.011 391.944L282.014 391.946L282.196 391.618ZM278.197 387.709L277.872 387.897L277.875 387.902L278.197 387.709ZM278.197 376.408L277.874 376.217L277.873 376.218L278.197 376.408ZM293.225 372.499L293.042 372.826L293.044 372.827L293.225 372.499ZM297.195 376.408L296.87 376.595L296.871 376.597L297.195 376.408ZM297.195 387.709L297.518 387.899L297.519 387.897L297.195 387.709ZM293.225 391.618L293.407 391.946L293.41 391.944L293.225 391.618ZM291.286 386.013L291.007 385.762L291.004 385.765L291.286 386.013ZM291.286 378.044L291.004 378.291L291.01 378.297L291.286 378.044ZM284.105 378.044L284.384 378.294L284.387 378.291L284.105 378.044ZM284.105 386.043L283.823 386.29L283.826 386.293L284.105 386.043ZM287.711 392.637C285.772 392.637 283.996 392.187 282.378 391.29L282.014 391.946C283.749 392.907 285.65 393.387 287.711 393.387V392.637ZM282.381 391.292C280.761 390.374 279.475 389.118 278.518 387.517L277.875 387.902C278.898 389.614 280.278 390.963 282.011 391.944L282.381 391.292ZM278.521 387.522C277.587 385.907 277.117 384.084 277.117 382.043H276.367C276.367 384.204 276.867 386.159 277.872 387.897L278.521 387.522ZM277.117 382.043C277.117 380.003 277.587 378.191 278.52 376.597L277.873 376.218C276.867 377.937 276.367 379.882 276.367 382.043H277.117ZM278.519 376.598C279.476 374.978 280.761 373.723 282.378 372.827L282.014 372.171C280.278 373.133 278.897 374.484 277.874 376.217L278.519 376.598ZM282.378 372.827C283.996 371.93 285.772 371.48 287.711 371.48V370.73C285.65 370.73 283.749 371.209 282.014 372.171L282.378 372.827ZM287.711 371.48C289.671 371.48 291.445 371.93 293.042 372.826L293.409 372.172C291.693 371.209 289.791 370.73 287.711 370.73V371.48ZM293.044 372.827C294.66 373.723 295.934 374.977 296.87 376.595L297.519 376.22C296.516 374.485 295.144 373.133 293.407 372.171L293.044 372.827ZM296.871 376.597C297.804 378.191 298.274 380.003 298.274 382.043H299.024C299.024 379.882 298.525 377.937 297.518 376.218L296.871 376.597ZM298.274 382.043C298.274 384.084 297.804 385.907 296.87 387.522L297.519 387.897C298.525 386.159 299.024 384.204 299.024 382.043H298.274ZM296.871 387.52C295.935 389.119 294.66 390.375 293.041 391.292L293.41 391.944C295.144 390.963 296.515 389.613 297.518 387.899L296.871 387.52ZM293.044 391.29C291.425 392.187 289.65 392.637 287.711 392.637V393.387C289.771 393.387 291.672 392.907 293.407 391.946L293.044 391.29ZM287.711 387.872C289.316 387.872 290.617 387.343 291.568 386.26L291.004 385.765C290.218 386.661 289.136 387.122 287.711 387.122V387.872ZM291.565 386.263C292.53 385.189 292.994 383.769 292.994 382.043H292.244C292.244 383.631 291.82 384.857 291.007 385.762L291.565 386.263ZM292.994 382.043C292.994 380.281 292.531 378.847 291.563 377.79L291.01 378.297C291.818 379.179 292.244 380.412 292.244 382.043H292.994ZM291.568 377.796C290.617 376.713 289.316 376.184 287.711 376.184V376.934C289.136 376.934 290.218 377.395 291.004 378.291L291.568 377.796ZM287.711 376.184C286.087 376.184 284.775 376.712 283.823 377.796L284.387 378.291C285.172 377.396 286.264 376.934 287.711 376.934V376.184ZM283.826 377.793C282.879 378.851 282.427 380.283 282.427 382.043H283.177C283.177 380.41 283.594 379.176 284.384 378.294L283.826 377.793ZM282.427 382.043C282.427 383.785 282.88 385.215 283.823 386.29L284.387 385.796C283.593 384.891 283.177 383.654 283.177 382.043H282.427ZM283.826 386.293C284.778 387.356 286.09 387.872 287.711 387.872V387.122C286.261 387.122 285.169 386.669 284.384 385.793L283.826 386.293ZM307.136 371.438H307.511V371.063H307.136V371.438ZM307.924 386.497L307.637 386.738L307.641 386.744L307.924 386.497ZM312.833 386.497L312.551 386.25L312.55 386.251L312.833 386.497ZM313.681 371.438V371.063H313.306V371.438H313.681ZM319.62 371.438H319.995V371.063H319.62V371.438ZM318.378 388.861L318.699 389.054L318.7 389.052L318.378 388.861ZM314.984 391.982L315.148 392.319L315.15 392.318L314.984 391.982ZM305.591 391.982L305.417 392.314L305.423 392.317L305.591 391.982ZM302.379 388.861L302.052 389.044L302.054 389.047L302.379 388.861ZM301.228 371.438V371.063H300.853V371.438H301.228ZM306.761 371.438V383.831H307.511V371.438H306.761ZM306.761 383.831C306.761 385.035 307.036 386.022 307.637 386.738L308.211 386.256C307.762 385.721 307.511 384.93 307.511 383.831H306.761ZM307.641 386.744C308.279 387.475 309.215 387.812 310.378 387.812V387.062C309.36 387.062 308.66 386.772 308.207 386.251L307.641 386.744ZM310.378 387.812C311.542 387.812 312.478 387.475 313.116 386.744L312.55 386.251C312.097 386.772 311.397 387.062 310.378 387.062V387.812ZM313.115 386.744C313.757 386.01 314.056 385.024 314.056 383.831H313.306C313.306 384.901 313.04 385.692 312.551 386.25L313.115 386.744ZM314.056 383.831V371.438H313.306V383.831H314.056ZM313.681 371.813H319.62V371.063H313.681V371.813ZM319.245 371.438V383.831H319.995V371.438H319.245ZM319.245 383.831C319.245 385.737 318.843 387.344 318.055 388.669L318.7 389.052C319.569 387.59 319.995 385.844 319.995 383.831H319.245ZM318.057 388.667C317.265 389.98 316.188 390.97 314.818 391.645L315.15 392.318C316.649 391.579 317.834 390.489 318.699 389.054L318.057 388.667ZM314.82 391.644C313.462 392.304 311.944 392.637 310.257 392.637V393.387C312.045 393.387 313.678 393.033 315.148 392.319L314.82 391.644ZM310.257 392.637C308.571 392.637 307.074 392.304 305.759 391.646L305.423 392.317C306.856 393.033 308.47 393.387 310.257 393.387V392.637ZM305.765 391.649C304.477 390.977 303.458 389.988 302.705 388.674L302.054 389.047C302.876 390.481 303.998 391.573 305.417 392.314L305.765 391.649ZM302.707 388.678C301.977 387.373 301.603 385.763 301.603 383.831H300.853C300.853 385.858 301.246 387.602 302.052 389.044L302.707 388.678ZM301.603 383.831V371.438H300.853V383.831H301.603ZM301.228 371.813H307.136V371.063H301.228V371.813ZM338.979 371.438H339.354V371.063H338.979V371.438ZM338.979 376.165V376.54H339.354V376.165H338.979ZM333.283 376.165V375.79H332.908V376.165H333.283ZM333.283 392.8V393.175H333.658V392.8H333.283ZM327.344 392.8H326.969V393.175H327.344V392.8ZM327.344 376.165H327.719V375.79H327.344V376.165ZM321.708 376.165H321.333V376.54H321.708V376.165ZM321.708 371.438V371.063H321.333V371.438H321.708ZM338.604 371.438V376.165H339.354V371.438H338.604ZM338.979 375.79H333.283V376.54H338.979V375.79ZM332.908 376.165V392.8H333.658V376.165H332.908ZM333.283 392.425H327.344V393.175H333.283V392.425ZM327.719 392.8V376.165H326.969V392.8H327.719ZM327.344 375.79H321.708V376.54H327.344V375.79ZM322.083 376.165V371.438H321.333V376.165H322.083ZM321.708 371.813H338.979V371.063H321.708V371.813ZM347.115 376.195V375.82H346.74V376.195H347.115ZM347.115 379.68H346.74V380.055H347.115V379.68ZM353.933 379.68H354.308V379.305H353.933V379.68ZM353.933 384.195V384.57H354.308V384.195H353.933ZM347.115 384.195V383.82H346.74V384.195H347.115ZM347.115 388.043H346.74V388.418H347.115V388.043ZM354.842 388.043H355.217V387.668H354.842V388.043ZM354.842 392.8V393.175H355.217V392.8H354.842ZM341.176 392.8H340.801V393.175H341.176V392.8ZM341.176 371.438V371.063H340.801V371.438H341.176ZM354.842 371.438H355.217V371.063H354.842V371.438ZM354.842 376.195V376.57H355.217V376.195H354.842ZM346.74 376.195V379.68H347.49V376.195H346.74ZM347.115 380.055H353.933V379.305H347.115V380.055ZM353.558 379.68V384.195H354.308V379.68H353.558ZM353.933 383.82H347.115V384.57H353.933V383.82ZM346.74 384.195V388.043H347.49V384.195H346.74ZM347.115 388.418H354.842V387.668H347.115V388.418ZM354.467 388.043V392.8H355.217V388.043H354.467ZM354.842 392.425H341.176V393.175H354.842V392.425ZM341.551 392.8V371.438H340.801V392.8H341.551ZM341.176 371.813H354.842V371.063H341.176V371.813ZM354.467 371.438V376.195H355.217V371.438H354.467ZM354.842 375.82H347.115V376.57H354.842V375.82ZM368.593 392.8L368.263 392.978L368.369 393.175H368.593V392.8ZM364.351 384.922L364.681 384.744L364.575 384.547H364.351V384.922ZM363.715 384.922V384.547H363.34V384.922H363.715ZM363.715 392.8V393.175H364.09V392.8H363.715ZM357.776 392.8H357.401V393.175H357.776V392.8ZM357.776 371.438V371.063H357.401V371.438H357.776ZM371.502 372.347L371.332 372.682L371.337 372.684L371.502 372.347ZM374.199 374.802L373.874 374.989L373.876 374.992L374.199 374.802ZM373.896 382.134L373.593 381.914L373.592 381.915L373.896 382.134ZM370.411 384.467L370.303 384.108L369.85 384.245L370.087 384.655L370.411 384.467ZM375.229 392.8V393.175H375.879L375.554 392.612L375.229 392.8ZM363.715 380.862H363.34V381.237H363.715V380.862ZM368.472 380.286L368.214 380.014L368.214 380.014L368.472 380.286ZM368.442 377.014L368.177 377.279L368.183 377.285L368.19 377.292L368.442 377.014ZM363.715 376.408V376.033H363.34V376.408H363.715ZM368.923 392.622L364.681 384.744L364.021 385.1L368.263 392.978L368.923 392.622ZM364.351 384.547H363.715V385.297H364.351V384.547ZM363.34 384.922V392.8H364.09V384.922H363.34ZM363.715 392.425H357.776V393.175H363.715V392.425ZM358.151 392.8V371.438H357.401V392.8H358.151ZM357.776 371.813H367.139V371.063H357.776V371.813ZM367.139 371.813C368.813 371.813 370.206 372.109 371.332 372.682L371.672 372.013C370.415 371.374 368.899 371.063 367.139 371.063V371.813ZM371.337 372.684C372.468 373.24 373.309 374.009 373.874 374.989L374.524 374.614C373.877 373.493 372.919 372.626 371.668 372.011L371.337 372.684ZM373.876 374.992C374.445 375.96 374.733 377.055 374.733 378.286H375.483C375.483 376.932 375.165 375.704 374.522 374.611L373.876 374.992ZM374.733 378.286C374.733 379.666 374.351 380.871 373.593 381.914L374.199 382.355C375.057 381.176 375.483 379.815 375.483 378.286H374.733ZM373.592 381.915C372.861 382.927 371.775 383.663 370.303 384.108L370.52 384.826C372.118 384.343 373.355 383.523 374.2 382.354L373.592 381.915ZM370.087 384.655L374.904 392.988L375.554 392.612L370.736 384.28L370.087 384.655ZM375.229 392.425H368.593V393.175H375.229V392.425ZM363.715 381.237H366.654V380.487H363.715V381.237ZM366.654 381.237C367.515 381.237 368.231 381.032 368.73 380.558L368.214 380.014C367.905 380.307 367.409 380.487 366.654 380.487V381.237ZM368.73 380.558C369.23 380.083 369.453 379.416 369.453 378.619H368.703C368.703 379.277 368.522 379.721 368.214 380.014L368.73 380.558ZM369.453 378.619C369.453 377.85 369.212 377.204 368.693 376.735L368.19 377.292C368.52 377.59 368.703 378.015 368.703 378.619H369.453ZM368.707 376.748C368.209 376.251 367.503 376.033 366.654 376.033V376.783C367.381 376.783 367.866 376.968 368.177 377.279L368.707 376.748ZM366.654 376.033H363.715V376.783H366.654V376.033ZM363.34 376.408V380.862H364.09V376.408H363.34Z" fill="white"/>
<path d="M301.7 218.9C255.9 210.8 225.3 167.2 233.4 121.4C241.5 75.5996 285.1 44.9996 330.9 53.0996C376.7 61.1996 407.3 104.8 399.2 150.6C391.1 196.4 347.4 227 301.7 218.9" fill="url(#paint4_linear_731_4666)"/>
<path d="M274.4 76.1993C307.4 53.0993 352.9 61.0993 376 94.0993C399.1 127.099 391.1 172.599 358.1 195.699C325.1 218.799 279.6 210.799 256.5 177.799C233.4 144.799 241.4 99.3993 274.4 76.1993" fill="url(#paint5_linear_731_4666)"/>
<path d="M348.001 220.399C340.901 210.199 343.401 196.299 353.501 189.099C363.701 181.999 377.601 184.499 384.801 194.599C391.901 204.799 389.401 218.699 379.301 225.899C369.101 232.999 355.101 230.499 348.001 220.399Z" fill="url(#paint6_linear_731_4666)"/>
<path d="M356 192.8C347.9 198.5 345.9 209.7 351.6 217.8C357.3 225.9 368.5 227.9 376.6 222.2C384.7 216.5 386.7 205.3 381 197.2C375.3 189.1 364.2 187.1 356 192.8Z" fill="url(#paint7_linear_731_4666)"/>
<path d="M357.4 207.599L362.6 215.099L376.1 202.899" stroke="white" stroke-width="5" stroke-linecap="round" stroke-linejoin="round"/>
<path d="M270.351 122.838L264.548 121.815L263.196 124.329L258.414 123.485L267.265 108.173L272.511 109.098L275.568 126.51L270.763 125.663L270.351 122.838ZM269.828 119.156L268.997 113.552L266.323 118.538L269.828 119.156ZM291.903 118.142C291.729 119.132 291.337 119.996 290.728 120.735C290.137 121.46 289.334 121.989 288.318 122.32C287.321 122.639 286.156 122.681 284.826 122.446L282.574 122.049L281.6 127.574L277.05 126.772L279.936 110.407L286.737 111.606C288.052 111.838 289.126 112.267 289.957 112.892C290.803 113.52 291.387 114.285 291.706 115.187C292.026 116.089 292.091 117.074 291.903 118.142ZM285.023 118.747C286.308 118.974 287.053 118.499 287.261 117.323C287.471 116.132 286.934 115.423 285.649 115.196L283.839 114.877L283.213 118.428L285.023 118.747ZM298.6 117.456L298.129 120.125L303.352 121.046L302.742 124.504L297.519 123.584L296.999 126.531L302.918 127.575L302.276 131.219L291.807 129.374L294.693 113.009L305.161 114.855L304.519 118.499L298.6 117.456ZM310.67 132.867C308.766 132.531 307.282 131.807 306.218 130.694C305.157 129.565 304.728 128.15 304.933 126.446L309.784 127.302C309.73 127.883 309.826 128.33 310.074 128.645C310.321 128.96 310.677 129.159 311.142 129.241C311.559 129.314 311.918 129.274 312.216 129.119C312.533 128.951 312.724 128.682 312.789 128.31C312.874 127.831 312.715 127.42 312.313 127.078C311.91 126.735 311.235 126.313 310.286 125.811C309.281 125.267 308.475 124.773 307.867 124.331C307.277 123.876 306.79 123.288 306.407 122.566C306.042 121.831 305.951 120.946 306.133 119.909C306.319 118.857 306.74 118.005 307.397 117.355C308.057 116.69 308.886 116.246 309.882 116.023C310.879 115.799 311.965 115.791 313.141 115.999C315.045 116.334 316.482 117.051 317.454 118.147C318.443 119.231 318.835 120.585 318.628 122.208L313.684 121.336C313.756 120.838 313.667 120.439 313.416 120.14C313.181 119.843 312.84 119.655 312.391 119.576C312.05 119.516 311.754 119.568 311.502 119.731C311.25 119.894 311.091 120.161 311.026 120.532C310.971 120.842 311.039 121.133 311.231 121.406C311.44 121.666 311.708 121.913 312.034 122.146C312.362 122.363 312.853 122.657 313.506 123.028C314.48 123.566 315.268 124.072 315.871 124.546C316.491 125.006 316.986 125.596 317.354 126.315C317.74 127.021 317.848 127.854 317.679 128.814C317.507 129.789 317.105 130.619 316.474 131.306C315.858 131.995 315.046 132.482 314.038 132.767C313.046 133.055 311.923 133.088 310.67 132.867ZM344.853 121.854L337.952 137.51L332.358 136.524L331.874 126.099L327.808 135.721L322.214 134.735L321.13 117.671L326.051 118.538L325.982 130.062L330.531 119.328L335.522 120.208L336.072 131.746L339.932 120.986L344.853 121.854ZM354.721 137.715L348.918 136.691L347.566 139.205L342.784 138.362L351.635 123.05L356.881 123.975L359.937 141.387L355.133 140.54L354.721 137.715ZM354.198 134.032L353.367 128.429L350.693 133.414L354.198 134.032ZM376.273 133.018C376.098 134.009 375.707 134.873 375.098 135.611C374.507 136.337 373.704 136.865 372.688 137.197C371.691 137.516 370.526 137.558 369.196 137.323L366.944 136.926L365.97 142.45L361.42 141.648L364.306 125.284L371.107 126.483C372.422 126.715 373.496 127.144 374.327 127.769C375.173 128.397 375.756 129.162 376.076 130.064C376.396 130.966 376.461 131.951 376.273 133.018ZM369.393 133.624C370.677 133.851 371.423 133.376 371.631 132.2C371.841 131.008 371.304 130.299 370.019 130.073L368.209 129.753L367.582 133.305L369.393 133.624Z" fill="white"/>
<path d="M264.876 152.252L264.52 152.37L264.59 152.582L264.811 152.621L264.876 152.252ZM262.066 143.757L262.422 143.639L262.352 143.426L262.131 143.388L262.066 143.757ZM261.439 143.646L261.505 143.277L261.135 143.212L261.07 143.581L261.439 143.646ZM260.071 151.405L260.006 151.774L260.376 151.839L260.441 151.47L260.071 151.405ZM254.223 150.373L253.854 150.308L253.788 150.678L254.158 150.743L254.223 150.373ZM257.932 129.336L257.997 128.967L257.628 128.902L257.563 129.271L257.932 129.336ZM271.292 132.615L271.066 132.915L271.07 132.918L271.292 132.615ZM273.521 135.5L273.169 135.629L273.17 135.631L273.521 135.5ZM271.95 142.669L271.689 142.399L271.688 142.4L271.95 142.669ZM268.113 144.362L268.068 143.989L267.599 144.046L267.761 144.49L268.113 144.362ZM271.411 153.404L271.345 153.773L271.986 153.886L271.763 153.276L271.411 153.404ZM262.144 139.648L261.775 139.583L261.71 139.952L262.079 140.017L262.144 139.648ZM266.929 139.907L266.722 139.594L266.722 139.594L266.929 139.907ZM267.468 136.679L267.161 136.894L267.166 136.902L267.172 136.909L267.468 136.679ZM262.918 135.261L262.983 134.892L262.614 134.827L262.549 135.196L262.918 135.261ZM265.232 152.134L262.422 143.639L261.71 143.875L264.52 152.37L265.232 152.134ZM262.131 143.388L261.505 143.277L261.374 144.016L262.001 144.126L262.131 143.388ZM261.07 143.581L259.702 151.34L260.441 151.47L261.809 143.711L261.07 143.581ZM260.137 151.035L254.288 150.004L254.158 150.743L260.006 151.774L260.137 151.035ZM254.592 150.438L258.302 129.402L257.563 129.271L253.854 150.308L254.592 150.438ZM257.867 129.706L267.088 131.332L267.218 130.593L257.997 128.967L257.867 129.706ZM267.088 131.332C268.736 131.622 270.057 132.155 271.066 132.915L271.517 132.315C270.39 131.468 268.951 130.899 267.218 130.593L267.088 131.332ZM271.07 132.918C272.088 133.662 272.782 134.565 273.169 135.629L273.874 135.372C273.432 134.156 272.639 133.136 271.513 132.312L271.07 132.918ZM273.17 135.631C273.563 136.684 273.656 137.812 273.442 139.025L274.181 139.155C274.416 137.821 274.316 136.557 273.873 135.369L273.17 135.631ZM273.442 139.025C273.202 140.384 272.617 141.504 271.689 142.399L272.21 142.939C273.259 141.927 273.915 140.66 274.181 139.155L273.442 139.025ZM271.688 142.4C270.793 143.27 269.595 143.806 268.068 143.989L268.158 144.734C269.816 144.535 271.176 143.943 272.211 142.938L271.688 142.4ZM267.761 144.49L271.058 153.533L271.763 153.276L268.465 144.233L267.761 144.49ZM271.476 153.035L264.941 151.882L264.811 152.621L271.345 153.773L271.476 153.035ZM262.079 140.017L264.974 140.527L265.104 139.789L262.21 139.279L262.079 140.017ZM264.974 140.527C265.822 140.677 266.562 140.6 267.136 140.22L266.722 139.594C266.368 139.829 265.847 139.92 265.104 139.789L264.974 140.527ZM267.136 140.22C267.711 139.839 268.046 139.221 268.185 138.436L267.446 138.306C267.332 138.953 267.077 139.359 266.722 139.594L267.136 140.22ZM268.185 138.436C268.318 137.678 268.193 137.001 267.764 136.449L267.172 136.909C267.445 137.26 267.551 137.711 267.446 138.306L268.185 138.436ZM267.775 136.464C267.371 135.888 266.713 135.55 265.877 135.402L265.747 136.141C266.463 136.267 266.909 136.534 267.161 136.894L267.775 136.464ZM265.877 135.402L262.983 134.892L262.853 135.631L265.747 136.141L265.877 135.402ZM262.549 135.196L261.775 139.583L262.514 139.713L263.287 135.326L262.549 135.196ZM278.811 153.509L278.572 153.798L278.575 153.8L278.811 153.509ZM275.551 148.965L275.199 149.094L275.201 149.099L275.551 148.965ZM277.513 137.835L277.229 137.591L277.228 137.592L277.513 137.835ZM292.993 136.595L292.755 136.886L292.757 136.887L292.993 136.595ZM296.223 141.134L295.871 141.262L295.871 141.264L296.223 141.134ZM294.26 152.264L294.546 152.507L294.548 152.505L294.26 152.264ZM289.673 155.424L289.795 155.779L289.798 155.778L289.673 155.424ZM288.736 149.567L288.505 149.272L288.502 149.275L288.736 149.567ZM290.12 141.719L289.8 141.914L289.804 141.921L290.12 141.719ZM283.048 140.472L283.28 140.767L283.283 140.765L283.048 140.472ZM281.659 148.35L281.339 148.545L281.341 148.548L281.659 148.35ZM284.065 155.47C282.155 155.133 280.485 154.382 279.047 153.218L278.575 153.8C280.116 155.048 281.905 155.851 283.935 156.209L284.065 155.47ZM279.05 153.22C277.614 152.035 276.565 150.574 275.901 148.832L275.201 149.099C275.911 150.962 277.036 152.531 278.572 153.798L279.05 153.22ZM275.903 148.837C275.264 147.084 275.117 145.207 275.472 143.198L274.733 143.067C274.358 145.196 274.51 147.207 275.199 149.094L275.903 148.837ZM275.472 143.198C275.826 141.188 276.604 139.485 277.799 138.078L277.228 137.592C275.938 139.111 275.108 140.939 274.733 143.067L275.472 143.198ZM277.798 138.079C279.022 136.649 280.505 135.637 282.253 135.035L282.009 134.326C280.132 134.972 278.537 136.062 277.229 137.591L277.798 138.079ZM282.253 135.035C284.003 134.432 285.829 134.298 287.739 134.634L287.869 133.896C285.84 133.538 283.884 133.68 282.009 134.326L282.253 135.035ZM287.739 134.634C289.669 134.975 291.338 135.726 292.755 136.886L293.23 136.305C291.707 135.059 289.917 134.257 287.869 133.896L287.739 134.634ZM292.757 136.887C294.193 138.05 295.23 139.506 295.871 141.262L296.575 141.005C295.888 139.123 294.772 137.553 293.229 136.304L292.757 136.887ZM295.871 141.264C296.513 142.996 296.662 144.862 296.307 146.872L297.046 147.002C297.421 144.874 297.267 142.871 296.575 141.004L295.871 141.264ZM296.307 146.872C295.953 148.881 295.173 150.595 293.973 152.023L294.548 152.505C295.839 150.968 296.671 149.13 297.046 147.002L296.307 146.872ZM293.975 152.021C292.775 153.434 291.301 154.449 289.547 155.071L289.798 155.778C291.676 155.112 293.261 154.02 294.546 152.507L293.975 152.021ZM289.551 155.07C287.801 155.672 285.975 155.807 284.065 155.47L283.935 156.209C285.964 156.566 287.919 156.424 289.795 155.779L289.551 155.07ZM284.892 150.778C286.473 151.056 287.846 150.762 288.971 149.86L288.502 149.275C287.572 150.02 286.426 150.287 285.023 150.039L284.892 150.778ZM288.968 149.862C290.104 148.972 290.808 147.654 291.108 145.955L290.369 145.825C290.094 147.388 289.463 148.522 288.505 149.272L288.968 149.862ZM291.108 145.955C291.414 144.219 291.207 142.727 290.436 141.518L289.804 141.921C290.447 142.93 290.652 144.218 290.369 145.825L291.108 145.955ZM290.441 141.525C289.692 140.292 288.503 139.546 286.922 139.267L286.792 140.006C288.195 140.253 289.181 140.895 289.8 141.914L290.441 141.525ZM286.922 139.267C285.323 138.985 283.939 139.277 282.813 140.18L283.283 140.765C284.212 140.02 285.367 139.754 286.792 140.006L286.922 139.267ZM282.816 140.177C281.7 141.054 281.007 142.386 280.701 144.12L281.44 144.25C281.723 142.642 282.348 141.499 283.28 140.767L282.816 140.177ZM280.701 144.12C280.399 145.835 280.596 147.322 281.339 148.545L281.98 148.155C281.355 147.127 281.16 145.837 281.44 144.25L280.701 144.12ZM281.341 148.548C282.094 149.761 283.296 150.496 284.892 150.778L285.023 150.039C283.595 149.787 282.598 149.151 281.978 148.152L281.341 148.548ZM306.877 137.967L307.246 138.032L307.311 137.662L306.942 137.597L306.877 137.967ZM305.037 152.934L304.713 153.121L304.716 153.127L305.037 152.934ZM309.871 153.786L309.636 153.494L309.636 153.494L309.871 153.786ZM313.322 139.103L313.387 138.734L313.018 138.669L312.953 139.038L313.322 139.103ZM319.17 140.134L319.54 140.199L319.605 139.83L319.236 139.765L319.17 140.134ZM314.922 157.076L315.204 157.323L315.206 157.321L314.922 157.076ZM311.038 159.561L311.14 159.921L311.143 159.921L311.038 159.561ZM301.787 157.93L301.559 158.227L301.564 158.231L301.787 157.93ZM299.166 154.298L298.812 154.422L298.814 154.426L299.166 154.298ZM301.058 136.941L301.123 136.571L300.754 136.506L300.688 136.875L301.058 136.941ZM306.507 137.901L304.355 150.106L305.094 150.236L307.246 138.032L306.507 137.901ZM304.355 150.106C304.146 151.292 304.245 152.311 304.713 153.121L305.362 152.746C305.013 152.141 304.903 151.318 305.094 150.236L304.355 150.106ZM304.716 153.127C305.217 153.958 306.081 154.452 307.226 154.654L307.356 153.916C306.353 153.739 305.715 153.332 305.359 152.74L304.716 153.127ZM307.226 154.654C308.372 154.856 309.352 154.688 310.107 154.078L309.636 153.494C309.099 153.928 308.359 154.092 307.356 153.916L307.226 154.654ZM310.106 154.078C310.866 153.467 311.332 152.547 311.539 151.373L310.801 151.242C310.615 152.296 310.215 153.028 309.636 153.494L310.106 154.078ZM311.539 151.373L313.691 139.168L312.953 139.038L310.801 151.242L311.539 151.373ZM313.257 139.472L319.105 140.504L319.236 139.765L313.387 138.734L313.257 139.472ZM318.801 140.069L316.649 152.274L317.388 152.404L319.54 140.199L318.801 140.069ZM316.649 152.274C316.318 154.151 315.643 155.664 314.637 156.832L315.206 157.321C316.316 156.031 317.038 154.386 317.388 152.404L316.649 152.274ZM314.639 156.83C313.632 157.985 312.399 158.774 310.933 159.201L311.143 159.921C312.747 159.453 314.103 158.586 315.204 157.323L314.639 156.83ZM310.935 159.2C309.483 159.614 307.93 159.678 306.269 159.385L306.139 160.124C307.899 160.434 309.569 160.369 311.14 159.921L310.935 159.2ZM306.269 159.385C304.608 159.092 303.192 158.504 302.011 157.628L301.564 158.231C302.85 159.185 304.378 159.813 306.139 160.124L306.269 159.385ZM302.016 157.632C300.865 156.746 300.033 155.596 299.519 154.171L298.814 154.426C299.374 155.98 300.29 157.25 301.559 158.227L302.016 157.632ZM299.52 154.175C299.029 152.763 298.94 151.113 299.275 149.21L298.537 149.08C298.184 151.077 298.269 152.861 298.812 154.422L299.52 154.175ZM299.275 149.21L301.427 137.006L300.688 136.875L298.537 149.08L299.275 149.21ZM300.993 137.31L306.811 138.336L306.942 137.597L301.123 136.571L300.993 137.31ZM338.235 143.496L338.605 143.561L338.67 143.192L338.301 143.127L338.235 143.496ZM337.415 148.151L337.35 148.52L337.719 148.585L337.784 148.216L337.415 148.151ZM331.805 147.162L331.87 146.793L331.501 146.727L331.436 147.097L331.805 147.162ZM328.916 163.544L328.851 163.913L329.22 163.978L329.286 163.609L328.916 163.544ZM323.068 162.513L322.698 162.447L322.633 162.817L323.003 162.882L323.068 162.513ZM325.956 146.131L326.326 146.196L326.391 145.826L326.021 145.761L325.956 146.131ZM320.406 145.152L320.037 145.087L319.972 145.456L320.341 145.521L320.406 145.152ZM321.227 140.497L321.292 140.128L320.923 140.063L320.858 140.432L321.227 140.497ZM337.866 143.431L337.045 148.086L337.784 148.216L338.605 143.561L337.866 143.431ZM337.48 147.782L331.87 146.793L331.74 147.531L337.35 148.52L337.48 147.782ZM331.436 147.097L328.547 163.479L329.286 163.609L332.174 147.227L331.436 147.097ZM328.981 163.175L323.133 162.143L323.003 162.882L328.851 163.913L328.981 163.175ZM323.437 162.578L326.326 146.196L325.587 146.065L322.698 162.447L323.437 162.578ZM326.021 145.761L320.471 144.783L320.341 145.521L325.891 146.5L326.021 145.761ZM320.775 145.217L321.596 140.562L320.858 140.432L320.037 145.087L320.775 145.217ZM321.162 140.866L338.17 143.865L338.301 143.127L321.292 140.128L321.162 140.866ZM345.422 149.594L345.487 149.224L345.118 149.159L345.053 149.529L345.422 149.594ZM344.817 153.025L344.447 152.96L344.382 153.329L344.752 153.395L344.817 153.025ZM351.531 154.209L351.9 154.274L351.965 153.905L351.596 153.84L351.531 154.209ZM350.747 158.655L350.682 159.024L351.051 159.09L351.116 158.72L350.747 158.655ZM344.033 157.471L344.098 157.102L343.729 157.037L343.663 157.406L344.033 157.471ZM343.365 161.261L342.995 161.196L342.93 161.565L343.299 161.63L343.365 161.261ZM350.974 162.603L351.343 162.668L351.408 162.298L351.039 162.233L350.974 162.603ZM350.148 167.288L350.083 167.657L350.452 167.722L350.517 167.353L350.148 167.288ZM336.69 164.915L336.321 164.849L336.256 165.219L336.625 165.284L336.69 164.915ZM340.399 143.878L340.464 143.508L340.095 143.443L340.03 143.812L340.399 143.878ZM353.857 146.251L354.226 146.316L354.291 145.946L353.922 145.881L353.857 146.251ZM353.031 150.935L352.966 151.305L353.335 151.37L353.4 151L353.031 150.935ZM345.053 149.529L344.447 152.96L345.186 153.09L345.791 149.659L345.053 149.529ZM344.752 153.395L351.466 154.578L351.596 153.84L344.882 152.656L344.752 153.395ZM351.161 154.144L350.377 158.59L351.116 158.72L351.9 154.274L351.161 154.144ZM350.812 158.286L344.098 157.102L343.968 157.841L350.682 159.024L350.812 158.286ZM343.663 157.406L342.995 161.196L343.734 161.326L344.402 157.536L343.663 157.406ZM343.299 161.63L350.909 162.972L351.039 162.233L343.43 160.892L343.299 161.63ZM350.604 162.538L349.778 167.222L350.517 167.353L351.343 162.668L350.604 162.538ZM350.213 166.918L336.755 164.545L336.625 165.284L350.083 167.657L350.213 166.918ZM337.059 164.98L340.769 143.943L340.03 143.812L336.321 164.849L337.059 164.98ZM340.334 144.247L353.792 146.62L353.922 145.881L340.464 143.508L340.334 144.247ZM353.488 146.185L352.662 150.87L353.4 151L354.226 146.316L353.488 146.185ZM353.096 150.566L345.487 149.224L345.357 149.963L352.966 151.305L353.096 150.566ZM363.69 169.675L363.334 169.793L363.405 170.006L363.625 170.045L363.69 169.675ZM360.881 161.181L361.237 161.063L361.167 160.85L360.946 160.811L360.881 161.181ZM360.254 161.07L360.319 160.701L359.95 160.636L359.885 161.005L360.254 161.07ZM358.886 168.828L358.821 169.198L359.19 169.263L359.256 168.893L358.886 168.828ZM353.038 167.797L352.668 167.732L352.603 168.101L352.973 168.166L353.038 167.797ZM356.747 146.76L356.812 146.391L356.443 146.326L356.378 146.695L356.747 146.76ZM370.107 150.039L369.881 150.338L369.885 150.341L370.107 150.039ZM372.336 152.924L371.984 153.052L371.985 153.055L372.336 152.924ZM370.764 160.093L370.504 159.823L370.503 159.824L370.764 160.093ZM366.928 161.785L366.883 161.413L366.413 161.469L366.575 161.914L366.928 161.785ZM370.225 170.828L370.16 171.197L370.8 171.31L370.578 170.699L370.225 170.828ZM360.959 157.072L360.59 157.006L360.525 157.376L360.894 157.441L360.959 157.072ZM365.744 157.331L365.537 157.018L365.537 157.018L365.744 157.331ZM366.282 154.103L365.975 154.318L365.981 154.325L365.986 154.333L366.282 154.103ZM361.733 152.685L361.798 152.316L361.429 152.251L361.363 152.62L361.733 152.685ZM364.046 169.558L361.237 161.063L360.525 161.298L363.334 169.793L364.046 169.558ZM360.946 160.811L360.319 160.701L360.189 161.439L360.816 161.55L360.946 160.811ZM359.885 161.005L358.517 168.763L359.256 168.893L360.624 161.135L359.885 161.005ZM358.951 168.459L353.103 167.428L352.973 168.166L358.821 169.198L358.951 168.459ZM353.407 167.862L357.116 146.825L356.378 146.695L352.668 167.732L353.407 167.862ZM356.682 147.129L365.902 148.755L366.033 148.017L356.812 146.391L356.682 147.129ZM365.902 148.755C367.551 149.046 368.871 149.579 369.881 150.338L370.332 149.739C369.205 148.891 367.766 148.322 366.033 148.017L365.902 148.755ZM369.885 150.341C370.903 151.086 371.597 151.989 371.984 153.052L372.689 152.796C372.246 151.58 371.454 150.559 370.328 149.736L369.885 150.341ZM371.985 153.055C372.377 154.107 372.471 155.235 372.257 156.448L372.996 156.579C373.231 155.245 373.131 153.98 372.687 152.793L371.985 153.055ZM372.257 156.448C372.017 157.807 371.432 158.927 370.504 159.823L371.025 160.363C372.074 159.35 372.73 158.084 372.996 156.579L372.257 156.448ZM370.503 159.824C369.608 160.693 368.41 161.23 366.883 161.413L366.972 162.158C368.63 161.959 369.991 161.367 371.026 160.362L370.503 159.824ZM366.575 161.914L369.873 170.956L370.578 170.699L367.28 161.657L366.575 161.914ZM370.29 170.458L363.756 169.306L363.625 170.045L370.16 171.197L370.29 170.458ZM360.894 157.441L363.789 157.951L363.919 157.213L361.024 156.702L360.894 157.441ZM363.789 157.951C364.637 158.101 365.377 158.024 365.951 157.643L365.537 157.018C365.182 157.253 364.662 157.344 363.919 157.213L363.789 157.951ZM365.951 157.643C366.525 157.263 366.861 156.645 367 155.86L366.261 155.73C366.147 156.377 365.892 156.783 365.537 157.018L365.951 157.643ZM367 155.86C367.133 155.102 367.008 154.424 366.579 153.873L365.986 154.333C366.26 154.684 366.366 155.135 366.261 155.73L367 155.86ZM366.59 153.888C366.186 153.311 365.528 152.974 364.692 152.826L364.562 153.565C365.278 153.691 365.723 153.958 365.975 154.318L366.59 153.888ZM364.692 152.826L361.798 152.316L361.668 153.054L364.562 153.565L364.692 152.826ZM361.363 152.62L360.59 157.006L361.329 157.137L362.102 152.75L361.363 152.62Z" fill="white"/>
<path d="M133.2 332.8C87.4002 340.9 43.8002 310.3 35.7002 264.5C27.6002 218.7 58.2002 175.1 104 167C149.8 158.9 193.4 189.5 201.5 235.3C209.5 281.1 179 324.7 133.2 332.8Z" fill="url(#paint8_linear_731_4666)"/>
<path d="M58.7999 208C81.8999 175 127.4 167 160.4 190.1C193.4 213.2 201.4 258.7 178.3 291.7C155.2 324.7 109.7 332.7 76.6999 309.6C43.6999 286.5 35.6999 241 58.7999 208" fill="url(#paint9_linear_731_4666)"/>
<path d="M177.2 318.3C167 311.2 164.6 297.2 171.7 287C178.8 276.8 192.8 274.4 203 281.5C213.2 288.6 215.6 302.6 208.5 312.8C201.3 323 187.3 325.4 177.2 318.3Z" fill="url(#paint10_linear_731_4666)"/>
<path d="M175.4 289.6C169.7 297.7 171.7 308.9 179.8 314.6C187.9 320.3 199.1 318.3 204.8 310.2C210.5 302.1 208.5 290.9 200.4 285.2C192.2 279.5 181 281.5 175.4 289.6Z" fill="url(#paint11_linear_731_4666)"/>
<path d="M181.7 303.1L189.2 308.3L197.6 292.2" stroke="white" stroke-width="5" stroke-linecap="round" stroke-linejoin="round"/>
<path d="M70.3168 260.989C67.5978 261.468 65.2521 261.221 63.2796 260.246C61.3033 259.25 60.0364 257.559 59.4789 255.173L66.409 253.951C66.6196 254.757 66.968 255.311 67.4543 255.613C67.9405 255.914 68.5152 256.007 69.1784 255.89C69.7753 255.785 70.2363 255.555 70.5614 255.202C70.9047 254.822 71.0296 254.367 70.9361 253.836C70.8152 253.151 70.4011 252.677 69.6938 252.414C68.9865 252.151 67.8735 251.915 66.3547 251.704C64.7398 251.464 63.4161 251.196 62.3837 250.9C61.3695 250.577 60.4289 250.025 59.5617 249.243C58.7127 248.436 58.1576 247.291 57.8965 245.81C57.6314 244.307 57.7811 242.959 58.3456 241.765C58.9062 240.549 59.801 239.548 61.0299 238.762C62.2588 237.975 63.7132 237.434 65.3933 237.138C68.1122 236.658 70.3916 236.917 72.2314 237.915C74.0894 238.887 75.2764 240.512 75.7923 242.792L68.7295 244.037C68.5827 243.333 68.2681 242.842 67.7857 242.562C67.3254 242.279 66.7748 242.193 66.1337 242.307C65.6474 242.392 65.2748 242.606 65.016 242.948C64.7572 243.29 64.6746 243.726 64.7681 244.257C64.8461 244.699 65.0801 245.057 65.4701 245.33C65.8784 245.577 66.3582 245.777 66.9095 245.931C67.4569 246.062 68.2591 246.217 69.3163 246.395C70.887 246.642 72.1925 246.936 73.2326 247.277C74.2911 247.592 75.2428 248.142 76.0879 248.928C76.9512 249.687 77.5037 250.752 77.7453 252.123C77.9909 253.515 77.8574 254.827 77.3449 256.057C76.8545 257.283 76.0027 258.333 74.7894 259.208C73.5982 260.079 72.1073 260.673 70.3168 260.989ZM105.185 230.497L109.307 253.874L102.808 255.02L100.534 242.121L98.3981 255.798L92.9601 256.757L86.225 244.542L88.5169 257.54L82.0178 258.686L77.8959 235.309L85.7544 233.924L94.3013 248.075L97.3599 231.877L105.185 230.497ZM127.123 246.801L118.833 248.263L118.246 252.298L111.415 253.502L115.815 228.623L123.309 227.302L135.919 249.182L129.055 250.392L127.123 246.801ZM124.621 242.114L120.768 234.998L119.614 242.997L124.621 242.114ZM149.875 246.721L143.713 238.918L143.016 239.041L144.537 247.662L138.038 248.808L133.916 225.431L144.162 223.625C146.041 223.294 147.691 223.344 149.112 223.778C150.529 224.189 151.671 224.911 152.536 225.943C153.398 226.954 153.954 228.166 154.204 229.581C154.484 231.173 154.29 232.654 153.62 234.026C152.968 235.372 151.847 236.447 150.257 237.252L157.137 245.44L149.875 246.721ZM142.233 234.598L145.449 234.031C146.334 233.875 146.96 233.548 147.328 233.05C147.696 232.552 147.81 231.905 147.669 231.109C147.537 230.358 147.201 229.813 146.663 229.475C146.143 229.11 145.452 229.004 144.59 229.156L141.373 229.724L142.233 234.598ZM173.445 218.461L174.357 223.634L168.123 224.733L171.333 242.937L164.834 244.083L161.624 225.879L155.457 226.967L154.545 221.794L173.445 218.461Z" fill="white"/>
<path d="M76.4829 286.376L76.1886 286.609L76.3274 286.785L76.548 286.746L76.4829 286.376ZM70.9373 279.355L71.2316 279.122L71.0928 278.947L70.8722 278.985L70.9373 279.355ZM70.3107 279.465L70.2456 279.096L69.8763 279.161L69.9414 279.53L70.3107 279.465ZM71.6787 287.224L71.7438 287.593L72.1131 287.528L72.048 287.158L71.6787 287.224ZM65.8301 288.255L65.4608 288.32L65.5259 288.689L65.8952 288.624L65.8301 288.255ZM62.1207 267.218L62.0556 266.849L61.6863 266.914L61.7514 267.283L62.1207 267.218ZM75.796 265.73L75.6866 266.088L75.6915 266.09L75.796 265.73ZM78.8779 267.678L78.5905 267.919L78.5926 267.922L78.8779 267.678ZM79.8528 274.952L79.5158 274.788L79.5153 274.789L79.8528 274.952ZM76.8263 277.855L76.657 277.52L76.2349 277.734L76.5392 278.096L76.8263 277.855ZM83.0178 285.224L83.0829 285.593L83.723 285.481L83.3049 284.983L83.0178 285.224ZM69.6057 275.467L69.2363 275.532L69.3015 275.901L69.6708 275.836L69.6057 275.467ZM74.1905 274.074L73.8889 273.851L73.8889 273.851L74.1905 274.074ZM73.5924 270.856L73.3773 271.163L73.385 271.169L73.3929 271.174L73.5924 270.856ZM68.8322 271.08L68.7671 270.711L68.3978 270.776L68.4629 271.145L68.8322 271.08ZM76.7772 286.144L71.2316 279.122L70.643 279.587L76.1886 286.609L76.7772 286.144ZM70.8722 278.985L70.2456 279.096L70.3758 279.835L71.0024 279.724L70.8722 278.985ZM69.9414 279.53L71.3094 287.289L72.048 287.158L70.68 279.4L69.9414 279.53ZM71.6136 286.854L65.765 287.885L65.8952 288.624L71.7438 287.593L71.6136 286.854ZM66.1994 288.19L62.49 267.153L61.7514 267.283L65.4608 288.32L66.1994 288.19ZM62.1859 267.587L71.4063 265.961L71.2761 265.223L62.0556 266.849L62.1859 267.587ZM71.4063 265.961C73.0551 265.671 74.4779 265.72 75.6866 266.088L75.9053 265.371C74.5561 264.96 73.0091 264.917 71.2761 265.223L71.4063 265.961ZM75.6915 266.09C76.9026 266.441 77.8637 267.052 78.5905 267.919L79.1652 267.437C78.3337 266.446 77.2402 265.758 75.9004 265.369L75.6915 266.09ZM78.5926 267.922C79.3213 268.776 79.795 269.804 80.0088 271.017L80.7474 270.887C80.5123 269.553 79.9858 268.399 79.1632 267.435L78.5926 267.922ZM80.0088 271.017C80.2485 272.376 80.0817 273.629 79.5158 274.788L80.1897 275.117C80.8294 273.807 81.0129 272.392 80.7474 270.887L80.0088 271.017ZM79.5153 274.789C78.9712 275.912 78.0295 276.826 76.657 277.52L76.9956 278.189C78.4856 277.436 79.5616 276.414 80.1903 275.116L79.5153 274.789ZM76.5392 278.096L82.7307 285.465L83.3049 284.983L77.1135 277.614L76.5392 278.096ZM82.9527 284.855L76.4178 286.007L76.548 286.746L83.0829 285.593L82.9527 284.855ZM69.6708 275.836L72.5652 275.326L72.435 274.587L69.5405 275.097L69.6708 275.836ZM72.5652 275.326C73.4133 275.176 74.0825 274.851 74.4921 274.297L73.8889 273.851C73.6361 274.193 73.1784 274.456 72.435 274.587L72.5652 275.326ZM74.4921 274.297C74.9015 273.743 75.0056 273.047 74.8672 272.262L74.1286 272.392C74.2428 273.04 74.1419 273.509 73.8889 273.851L74.4921 274.297ZM74.8672 272.262C74.7336 271.504 74.3839 270.911 73.7919 270.539L73.3929 271.174C73.7697 271.411 74.0237 271.798 74.1286 272.392L74.8672 272.262ZM73.8075 270.549C73.2312 270.146 72.4974 270.053 71.6615 270.201L71.7918 270.939C72.5075 270.813 73.0176 270.912 73.3773 271.163L73.8075 270.549ZM71.6615 270.201L68.7671 270.711L68.8973 271.45L71.7918 270.939L71.6615 270.201ZM68.4629 271.145L69.2363 275.532L69.975 275.402L69.2015 271.015L68.4629 271.145ZM90.0079 282.792L89.8826 283.145L89.8858 283.146L90.0079 282.792ZM85.3903 279.637L85.1032 279.878L85.1067 279.882L85.3903 279.637ZM83.4278 268.507L83.0766 268.375L83.0762 268.376L83.4278 268.507ZM97.5495 262.048L97.4256 262.402L97.4274 262.402L97.5495 262.048ZM102.137 265.208L101.85 265.449L101.851 265.45L102.137 265.208ZM104.1 276.338L104.451 276.468L104.452 276.466L104.1 276.338ZM100.87 280.876L101.106 281.168L101.108 281.166L100.87 280.876ZM97.9864 275.693L97.6681 275.495L97.6659 275.498L97.9864 275.693ZM96.6026 267.845L96.368 268.138L96.3744 268.143L96.6026 267.845ZM89.5306 269.092L89.8492 269.29L89.8512 269.287L89.5306 269.092ZM90.9197 276.97L90.685 277.262L90.6881 277.265L90.9197 276.97ZM95.6156 282.837C93.706 283.174 91.8797 283.039 90.13 282.437L89.8858 283.146C91.7611 283.792 93.7166 283.934 95.7459 283.576L95.6156 282.837ZM90.1332 282.438C88.3786 281.816 86.8939 280.802 85.6739 279.392L85.1067 279.882C86.4115 281.391 88.0053 282.48 89.8826 283.145L90.1332 282.438ZM85.6774 279.396C84.4774 277.968 83.6978 276.254 83.3434 274.244L82.6048 274.375C82.9801 276.503 83.8113 278.341 85.1032 279.878L85.6774 279.396ZM83.3434 274.244C82.9891 272.235 83.1374 270.368 83.7794 268.637L83.0762 268.376C82.3836 270.244 82.2296 272.246 82.6048 274.375L83.3434 274.244ZM83.7789 268.638C84.4394 266.877 85.4869 265.418 86.9238 264.254L86.4519 263.671C84.9093 264.92 83.7833 266.49 83.0766 268.375L83.7789 268.638ZM86.9238 264.254C88.362 263.09 90.0322 262.339 91.9418 262.002L91.8115 261.263C89.7823 261.621 87.9933 262.423 86.4519 263.671L86.9238 264.254ZM91.9418 262.002C93.872 261.662 95.6975 261.797 97.4256 262.402L97.6734 261.694C95.8163 261.044 93.86 260.902 91.8115 261.263L91.9418 262.002ZM97.4274 262.402C99.175 263.004 100.647 264.018 101.85 265.449L102.424 264.966C101.135 263.432 99.549 262.339 97.6716 261.693L97.4274 262.402ZM101.851 265.45C103.047 266.858 103.825 268.561 104.179 270.57L104.917 270.44C104.542 268.312 103.713 266.483 102.423 264.965L101.851 265.45ZM104.179 270.57C104.533 272.58 104.387 274.457 103.748 276.209L104.452 276.466C105.14 274.58 105.293 272.568 104.917 270.44L104.179 270.57ZM103.748 276.208C103.104 277.945 102.066 279.403 100.631 280.587L101.108 281.166C102.645 279.898 103.761 278.33 104.451 276.468L103.748 276.208ZM100.634 280.585C99.1954 281.749 97.5252 282.501 95.6156 282.837L95.7459 283.576C97.7751 283.218 99.5641 282.416 101.106 281.168L100.634 280.585ZM94.7883 278.145C96.3688 277.866 97.5587 277.12 98.3069 275.888L97.6659 275.498C97.0471 276.517 96.0614 277.159 94.658 277.407L94.7883 278.145ZM98.3047 275.891C99.0682 274.666 99.279 273.186 98.9794 271.487L98.2408 271.617C98.5165 273.181 98.3115 274.462 97.6681 275.495L98.3047 275.891ZM98.9794 271.487C98.6733 269.751 97.9686 268.42 96.8309 267.547L96.3744 268.143C97.324 268.871 97.9576 270.011 98.2408 271.617L98.9794 271.487ZM96.8373 267.552C95.7127 266.651 94.3392 266.356 92.7586 266.634L92.8889 267.373C94.2922 267.126 95.438 267.392 96.368 268.138L96.8373 267.552ZM92.7586 266.634C91.1599 266.916 89.9592 267.664 89.2101 268.897L89.8512 269.287C90.4692 268.269 91.4638 267.624 92.8889 267.373L92.7586 266.634ZM89.2121 268.894C88.4631 270.1 88.267 271.589 88.5727 273.322L89.3113 273.192C89.0278 271.584 89.2241 270.296 89.8491 269.29L89.2121 268.894ZM88.5727 273.322C88.8752 275.038 89.5691 276.367 90.685 277.262L91.1543 276.677C90.2157 275.924 89.5911 274.779 89.3113 273.192L88.5727 273.322ZM90.6881 277.265C91.8108 278.146 93.192 278.427 94.7883 278.145L94.658 277.407C93.2305 277.658 92.0761 277.401 91.1513 276.675L90.6881 277.265ZM111.065 258.588L111.434 258.523L111.369 258.153L111 258.218L111.065 258.588ZM114.456 273.281L114.215 273.568L114.22 273.573L114.456 273.281ZM119.29 272.429L118.969 272.235L118.969 272.235L119.29 272.429ZM117.51 257.451L117.445 257.082L117.076 257.147L117.141 257.516L117.51 257.451ZM123.359 256.42L123.728 256.355L123.663 255.985L123.294 256.051L123.359 256.42ZM125.161 273.793L125.511 273.928L125.512 273.926L125.161 273.793ZM122.361 277.456L122.581 277.76L122.583 277.759L122.361 277.456ZM113.111 279.087L112.997 279.445L113.004 279.447L113.111 279.087ZM109.406 276.571L109.115 276.809L109.118 276.812L109.406 276.571ZM105.246 259.614L105.181 259.244L104.812 259.309L104.877 259.679L105.246 259.614ZM110.696 258.653L112.848 270.857L113.586 270.727L111.434 258.523L110.696 258.653ZM112.848 270.857C113.057 272.043 113.498 272.967 114.215 273.568L114.697 272.994C114.161 272.544 113.777 271.809 113.586 270.727L112.848 270.857ZM114.22 273.573C114.975 274.183 115.956 274.351 117.101 274.149L116.971 273.411C115.968 273.588 115.229 273.423 114.692 272.989L114.22 273.573ZM117.101 274.149C118.247 273.947 119.111 273.454 119.611 272.622L118.969 272.235C118.612 272.827 117.974 273.234 116.971 273.411L117.101 274.149ZM119.611 272.623C120.116 271.789 120.239 270.765 120.032 269.59L119.293 269.721C119.479 270.774 119.354 271.599 118.969 272.235L119.611 272.623ZM120.032 269.59L117.88 257.386L117.141 257.516L119.293 269.721L120.032 269.59ZM117.576 257.82L123.424 256.789L123.294 256.051L117.445 257.082L117.576 257.82ZM122.99 256.485L125.142 268.689L125.88 268.559L123.728 256.355L122.99 256.485ZM125.142 268.689C125.473 270.567 125.355 272.219 124.81 273.661L125.512 273.926C126.114 272.335 126.23 270.541 125.88 268.559L125.142 268.689ZM124.811 273.658C124.26 275.088 123.371 276.251 122.139 277.154L122.583 277.759C123.93 276.771 124.908 275.492 125.511 273.928L124.811 273.658ZM122.141 277.152C120.918 278.038 119.48 278.629 117.82 278.922L117.95 279.661C119.711 279.35 121.257 278.718 122.581 277.76L122.141 277.152ZM117.82 278.922C116.159 279.215 114.627 279.147 113.217 278.728L113.004 279.447C114.538 279.903 116.189 279.971 117.95 279.661L117.82 278.922ZM113.224 278.73C111.839 278.291 110.664 277.494 109.694 276.331L109.118 276.812C110.176 278.08 111.471 278.961 112.997 279.445L113.224 278.73ZM109.696 276.334C108.751 275.176 108.103 273.655 107.768 271.753L107.029 271.883C107.381 273.88 108.071 275.528 109.115 276.808L109.696 276.334ZM107.768 271.753L105.616 259.549L104.877 259.679L107.029 271.883L107.768 271.753ZM105.311 259.983L111.13 258.957L111 258.218L105.181 259.244L105.311 259.983ZM142.424 253.058L142.793 252.993L142.728 252.624L142.359 252.689L142.424 253.058ZM143.245 257.713L143.31 258.082L143.679 258.017L143.614 257.648L143.245 257.713ZM137.635 258.702L137.57 258.333L137.2 258.398L137.266 258.767L137.635 258.702ZM140.523 275.084L140.589 275.454L140.958 275.389L140.893 275.019L140.523 275.084ZM134.675 276.116L134.306 276.181L134.371 276.55L134.74 276.485L134.675 276.116ZM131.786 259.734L132.156 259.668L132.091 259.299L131.721 259.364L131.786 259.734ZM126.236 260.712L125.867 260.777L125.932 261.147L126.301 261.082L126.236 260.712ZM125.415 256.057L125.35 255.688L124.981 255.753L125.046 256.122L125.415 256.057ZM142.055 253.123L142.875 257.778L143.614 257.648L142.793 252.993L142.055 253.123ZM143.18 257.344L137.57 258.333L137.7 259.072L143.31 258.082L143.18 257.344ZM137.266 258.767L140.154 275.149L140.893 275.019L138.004 258.637L137.266 258.767ZM140.458 274.715L134.61 275.746L134.74 276.485L140.589 275.454L140.458 274.715ZM135.044 276.05L132.156 259.668L131.417 259.799L134.306 276.181L135.044 276.05ZM131.721 259.364L126.171 260.343L126.301 261.082L131.851 260.103L131.721 259.364ZM126.605 260.647L125.785 255.992L125.046 256.122L125.867 260.777L126.605 260.647ZM125.48 256.427L142.489 253.427L142.359 252.689L125.35 255.688L125.48 256.427ZM151.262 256.33L151.197 255.961L150.828 256.026L150.893 256.395L151.262 256.33ZM151.868 259.762L151.498 259.827L151.563 260.196L151.933 260.131L151.868 259.762ZM158.581 258.578L158.951 258.513L158.886 258.144L158.516 258.209L158.581 258.578ZM159.365 263.024L159.431 263.393L159.8 263.328L159.735 262.959L159.365 263.024ZM152.651 264.208L152.586 263.839L152.217 263.904L152.282 264.273L152.651 264.208ZM153.32 267.998L152.95 268.063L153.016 268.432L153.385 268.367L153.32 267.998ZM160.929 266.656L161.298 266.591L161.233 266.221L160.864 266.287L160.929 266.656ZM161.755 271.341L161.82 271.71L162.189 271.645L162.124 271.276L161.755 271.341ZM148.297 273.714L147.928 273.779L147.993 274.148L148.362 274.083L148.297 273.714ZM144.588 252.677L144.523 252.307L144.153 252.372L144.219 252.742L144.588 252.677ZM158.045 250.304L158.415 250.239L158.35 249.869L157.98 249.934L158.045 250.304ZM158.872 254.989L158.937 255.358L159.306 255.293L159.241 254.923L158.872 254.989ZM150.893 256.395L151.498 259.827L152.237 259.697L151.632 256.265L150.893 256.395ZM151.933 260.131L158.647 258.947L158.516 258.209L151.802 259.392L151.933 260.131ZM158.212 258.643L158.996 263.089L159.735 262.959L158.951 258.513L158.212 258.643ZM159.3 262.655L152.586 263.839L152.717 264.577L159.431 263.393L159.3 262.655ZM152.282 264.273L152.95 268.063L153.689 267.932L153.021 264.143L152.282 264.273ZM153.385 268.367L160.994 267.025L160.864 266.287L153.255 267.628L153.385 268.367ZM160.56 266.721L161.386 271.406L162.124 271.276L161.298 266.591L160.56 266.721ZM161.69 270.971L148.232 273.344L148.362 274.083L161.82 271.71L161.69 270.971ZM148.666 273.649L144.957 252.612L144.219 252.742L147.928 273.779L148.666 273.649ZM144.653 253.046L158.111 250.673L157.98 249.934L144.523 252.307L144.653 253.046ZM157.676 250.369L158.502 255.054L159.241 254.923L158.415 250.239L157.676 250.369ZM158.806 254.619L151.197 255.961L151.328 256.7L158.937 255.358L158.806 254.619ZM175.298 268.953L175.003 269.185L175.142 269.361L175.363 269.322L175.298 268.953ZM169.752 261.931L170.046 261.699L169.908 261.523L169.687 261.562L169.752 261.931ZM169.125 262.042L169.06 261.672L168.691 261.737L168.756 262.107L169.125 262.042ZM170.493 269.8L170.559 270.169L170.928 270.104L170.863 269.735L170.493 269.8ZM164.645 270.831L164.276 270.896L164.341 271.265L164.71 271.2L164.645 270.831ZM160.936 249.794L160.87 249.425L160.501 249.49L160.566 249.859L160.936 249.794ZM174.611 248.306L174.501 248.665L174.506 248.666L174.611 248.306ZM177.693 250.255L177.405 250.496L177.407 250.498L177.693 250.255ZM178.668 257.528L178.331 257.364L178.33 257.365L178.668 257.528ZM175.641 260.431L175.472 260.096L175.05 260.31L175.354 260.672L175.641 260.431ZM181.833 267.8L181.898 268.17L182.538 268.057L182.12 267.559L181.833 267.8ZM168.42 258.043L168.051 258.108L168.116 258.477L168.486 258.412L168.42 258.043ZM173.005 256.65L172.704 256.427L172.704 256.427L173.005 256.65ZM172.407 253.433L172.192 253.74L172.2 253.745L172.208 253.75L172.407 253.433ZM167.647 253.657L167.582 253.287L167.213 253.352L167.278 253.722L167.647 253.657ZM175.592 268.72L170.046 261.699L169.458 262.163L175.003 269.185L175.592 268.72ZM169.687 261.562L169.06 261.672L169.191 262.411L169.817 262.3L169.687 261.562ZM168.756 262.107L170.124 269.865L170.863 269.735L169.495 261.976L168.756 262.107ZM170.428 269.431L164.58 270.462L164.71 271.2L170.559 270.169L170.428 269.431ZM165.014 270.766L161.305 249.729L160.566 249.859L164.276 270.896L165.014 270.766ZM161.001 250.163L170.221 248.538L170.091 247.799L160.87 249.425L161.001 250.163ZM170.221 248.538C171.87 248.247 173.293 248.296 174.501 248.665L174.72 247.947C173.371 247.536 171.824 247.493 170.091 247.799L170.221 248.538ZM174.506 248.666C175.717 249.017 176.678 249.629 177.405 250.496L177.98 250.014C177.148 249.022 176.055 248.334 174.715 247.946L174.506 248.666ZM177.407 250.498C178.136 251.352 178.61 252.381 178.824 253.593L179.562 253.463C179.327 252.13 178.801 250.975 177.978 250.011L177.407 250.498ZM178.824 253.593C179.063 254.953 178.896 256.205 178.331 257.364L179.005 257.693C179.644 256.383 179.828 254.969 179.562 253.463L178.824 253.593ZM178.33 257.365C177.786 258.489 176.844 259.402 175.472 260.096L175.81 260.766C177.3 260.012 178.376 258.99 179.005 257.692L178.33 257.365ZM175.354 260.672L181.545 268.042L182.12 267.559L175.928 260.19L175.354 260.672ZM181.767 267.431L175.233 268.583L175.363 269.322L181.898 268.17L181.767 267.431ZM168.486 258.412L171.38 257.902L171.25 257.163L168.355 257.674L168.486 258.412ZM171.38 257.902C172.228 257.752 172.897 257.427 173.307 256.873L172.704 256.427C172.451 256.769 171.993 257.032 171.25 257.163L171.38 257.902ZM173.307 256.873C173.716 256.319 173.82 255.623 173.682 254.838L172.943 254.969C173.058 255.616 172.957 256.085 172.704 256.427L173.307 256.873ZM173.682 254.838C173.548 254.08 173.199 253.487 172.607 253.115L172.208 253.75C172.585 253.987 172.839 254.374 172.943 254.969L173.682 254.838ZM172.622 253.125C172.046 252.722 171.312 252.629 170.476 252.777L170.607 253.515C171.322 253.389 171.832 253.488 172.192 253.74L172.622 253.125ZM170.476 252.777L167.582 253.287L167.712 254.026L170.607 253.515L170.476 252.777ZM167.278 253.722L168.051 258.108L168.79 257.978L168.016 253.591L167.278 253.722Z" fill="white"/>
<defs>
<linearGradient id="paint0_linear_731_4666" x1="400.3" y1="364.2" x2="231.9" y2="364.2" gradientUnits="userSpaceOnUse">
<stop stop-color="#C59700"/>
<stop offset="1" stop-color="#F0B90B"/>
</linearGradient>
<linearGradient id="paint1_linear_731_4666" x1="264.5" y1="415.84" x2="367.702" y2="312.638" gradientUnits="userSpaceOnUse">
<stop stop-color="#C59700"/>
<stop offset="1" stop-color="#F0B90B"/>
</linearGradient>
<linearGradient id="paint2_linear_731_4666" x1="393.701" y1="441.8" x2="361.951" y2="410.05" gradientUnits="userSpaceOnUse">
<stop stop-color="#1EA166"/>
<stop offset="1" stop-color="#4BB485"/>
</linearGradient>
<linearGradient id="paint3_linear_731_4666" x1="365.101" y1="438.6" x2="390.501" y2="413.2" gradientUnits="userSpaceOnUse">
<stop stop-color="#1EA166"/>
<stop offset="1" stop-color="#4BB485"/>
</linearGradient>
<linearGradient id="paint4_linear_731_4666" x1="399.09" y1="150.895" x2="233.298" y2="121.661" gradientUnits="userSpaceOnUse">
<stop stop-color="#C59700"/>
<stop offset="1" stop-color="#F0B90B"/>
</linearGradient>
<linearGradient id="paint5_linear_731_4666" x1="256.524" y1="177.643" x2="376.03" y2="93.9639" gradientUnits="userSpaceOnUse">
<stop stop-color="#C59700"/>
<stop offset="1" stop-color="#F0B90B"/>
</linearGradient>
<linearGradient id="paint6_linear_731_4666" x1="379.105" y1="226.033" x2="353.349" y2="189.262" gradientUnits="userSpaceOnUse">
<stop stop-color="#1EA166"/>
<stop offset="1" stop-color="#4BB485"/>
</linearGradient>
<linearGradient id="paint7_linear_731_4666" x1="351.56" y1="217.839" x2="380.963" y2="197.242" gradientUnits="userSpaceOnUse">
<stop stop-color="#1EA166"/>
<stop offset="1" stop-color="#4BB485"/>
</linearGradient>
<linearGradient id="paint8_linear_731_4666" x1="201.721" y1="235.091" x2="35.9288" y2="264.324" gradientUnits="userSpaceOnUse">
<stop stop-color="#C59700"/>
<stop offset="1" stop-color="#F0B90B"/>
</linearGradient>
<linearGradient id="paint9_linear_731_4666" x1="76.6609" y1="309.405" x2="160.334" y2="189.907" gradientUnits="userSpaceOnUse">
<stop stop-color="#C59700"/>
<stop offset="1" stop-color="#F0B90B"/>
</linearGradient>
<linearGradient id="paint10_linear_731_4666" x1="208.69" y1="312.729" x2="171.921" y2="286.983" gradientUnits="userSpaceOnUse">
<stop stop-color="#1EA166"/>
<stop offset="1" stop-color="#4BB485"/>
</linearGradient>
<linearGradient id="paint11_linear_731_4666" x1="179.845" y1="314.683" x2="200.431" y2="285.271" gradientUnits="userSpaceOnUse">
<stop stop-color="#1EA166"/>
<stop offset="1" stop-color="#4BB485"/>
</linearGradient>
</defs>
</svg>
