<svg width="500" height="500" viewBox="0 0 500 500" fill="none" xmlns="http://www.w3.org/2000/svg">
<path d="M250 490.5C338.642 490.5 410.5 468.114 410.5 440.5C410.5 412.886 338.642 390.5 250 390.5C161.358 390.5 89.5 412.886 89.5 440.5C89.5 468.114 161.358 490.5 250 490.5Z" fill="#959593"/>
<path d="M366.869 415.86L335.679 403.55H283.599H279.869H228.649L232.659 405.13L259.839 415.86H366.869Z" fill="#DDDDDC"/>
<path d="M263.08 417.14H259.36H207.27L238.46 429.44H290.55H294.27H345.49L314.3 417.14H263.08Z" fill="#DDDDDC"/>
<path d="M293.78 430.72H241.69H237.97H186.75L217.94 443.03H272.88H324.97L293.78 430.72Z" fill="#DDDDDC"/>
<path d="M251.88 457.89H199.8H196.08H144.85L159 463.47L176.04 470.2H227.27H230.99H283.07L251.88 457.89Z" fill="#DDDDDC"/>
<path d="M252.36 456.61H303.59L282.52 448.3L272.4 444.3H221.17H217.45H165.37L189.75 453.92L196.56 456.61H248.65H252.36Z" fill="#DDDDDC"/>
<path d="M347.21 472.359C348.44 472.069 349.65 471.779 350.84 471.479H344.97L347.2 472.359H347.21Z" fill="#DDDDDC"/>
<path d="M162.54 400.96C160.42 401.38 158.33 401.82 156.29 402.28H165.88L162.54 400.96Z" fill="#DDDDDC"/>
<path d="M310.549 457.89H255.609L286.799 470.2H355.719C363.369 468.11 370.269 465.79 376.319 463.29L362.639 457.89H310.549V457.89Z" fill="#DDDDDC"/>
<path d="M204.029 415.86H256.119L231.359 406.09L224.929 403.55H150.819C143.959 405.22 137.619 407.07 131.859 409.06L149.089 415.86H204.029V415.86Z" fill="#DDDDDC"/>
<path d="M332.449 402.269H343.709C319.509 396.889 289.649 393.539 257.149 393.109L280.359 402.269H332.449V402.269Z" fill="#DDDDDC"/>
<path d="M290.029 471.47H234.229L252.369 478.63L261.529 482.24C292.849 481.57 321.56 478.19 344.88 472.9L341.26 471.47H290.04H290.029Z" fill="#DDDDDC"/>
<path d="M127.709 429.44H234.729L225.169 425.67L203.539 417.13H113.249C110.879 418.45 108.729 419.8 106.819 421.2L112.109 423.29L127.709 429.44V429.44Z" fill="#DDDDDC"/>
<path d="M373.069 460.54L378.109 462.53C381.539 461.04 384.669 459.5 387.479 457.89H366.359L373.079 460.54H373.069Z" fill="#DDDDDC"/>
<path d="M399.01 449.09C400.43 447.53 401.56 445.93 402.39 444.3H386.87L399.01 449.09Z" fill="#DDDDDC"/>
<path d="M221.699 402.27H276.639L253.329 393.07C252.219 393.07 251.109 393.06 249.999 393.06C218.589 393.06 189.389 395.79 165.029 400.46L169.609 402.27H221.699Z" fill="#DDDDDC"/>
<path d="M276.12 444.31L307.31 456.62H389.61C392.95 454.55 395.76 452.4 397.99 450.17L383.15 444.31H276.12Z" fill="#DDDDDC"/>
<path d="M141.619 456.61H192.839L176.109 450.01L161.649 444.3H97.6094C99.8194 448.64 104.189 452.77 110.379 456.61H141.609H141.619Z" fill="#DDDDDC"/>
<path d="M133.77 411.28L129.89 409.75C124.58 411.66 119.81 413.7 115.64 415.85H145.36L133.77 411.28V411.28Z" fill="#DDDDDC"/>
<path d="M370.109 417.14H318.029L349.219 429.45H401.419C398.599 425.09 393.599 420.96 386.759 417.14H370.119H370.109Z" fill="#DDDDDC"/>
<path d="M108.39 423.29L105.54 422.17C102.54 424.51 100.2 426.94 98.5801 429.45H123.98L108.39 423.3V423.29Z" fill="#DDDDDC"/>
<path d="M230.499 471.47H149.149C176.169 478.26 211.429 482.37 249.999 482.37C252.669 482.37 255.329 482.35 257.959 482.31L252.649 480.21L230.499 471.47V471.47Z" fill="#DDDDDC"/>
<path d="M370.589 415.86H384.359C375.249 411.17 363.299 407 349.179 403.55H339.399L370.589 415.86Z" fill="#DDDDDC"/>
<path d="M152.77 462.48L141.13 457.89H112.52C120.61 462.51 131.4 466.68 144.29 470.2H172.32L152.77 462.49V462.48Z" fill="#DDDDDC"/>
<path d="M348.73 430.72H297.51L328.7 443.03H402.98C403.69 441.29 404.07 439.52 404.07 437.72C404.07 435.34 403.42 433 402.18 430.72H348.73Z" fill="#DDDDDC"/>
<path d="M96.1699 440.149C96.3499 441.119 96.6399 442.079 97.0299 443.029H103.47L96.1699 440.149Z" fill="#DDDDDC"/>
<path d="M158.41 443.03H214.21L183.02 430.72H97.8197C96.5797 433 95.9297 435.34 95.9297 437.72C95.9297 438.02 95.9497 438.31 95.9697 438.6L107.19 443.03H158.41Z" fill="#DDDDDC"/>
<path d="M169.609 402.27L165.029 400.47L169.609 402.27Z" fill="#C7C7C4"/>
<path d="M280.36 402.269L257.15 393.109C255.88 393.089 254.61 393.079 253.33 393.069L276.64 402.269H280.36V402.269Z" fill="#C7C7C4"/>
<path d="M169.61 402.27L165.03 400.46C164.2 400.62 163.37 400.78 162.54 400.95L165.88 402.27H169.6H169.61Z" fill="#C7C7C4"/>
<path d="M370.59 415.86H384.36H370.59L339.4 403.55H349.18C347.39 403.11 345.56 402.69 343.7 402.27H336.16L370.59 415.86V415.86Z" fill="#C7C7C4"/>
<path d="M231.359 406.09L256.119 415.86L231.359 406.09Z" fill="#C7C7C4"/>
<path d="M314.79 415.86H370.59L336.17 402.27H332.45H280.36H276.64H225.42L228.65 403.55H279.87H283.6H335.68L366.87 415.86H259.84L232.66 405.13L259.84 415.86H311.07H314.79Z" fill="#C7C7C4"/>
<path d="M145.36 415.859H145.37L133.77 411.279L145.36 415.859Z" fill="#C7C7C4"/>
<path d="M149.089 415.86L131.859 409.06L149.079 415.86H149.089Z" fill="#C7C7C4"/>
<path d="M169.12 403.55H224.93L231.36 406.09L256.12 415.86H204.04H259.85L232.67 405.13L228.66 403.55L225.43 402.27H156.31C154.45 402.68 152.63 403.11 150.83 403.55H169.13H169.12Z" fill="#C7C7C4"/>
<path d="M145.369 415.86H149.089L131.859 409.06C131.199 409.29 130.539 409.52 129.899 409.75L133.779 411.28L145.369 415.85V415.86Z" fill="#C7C7C4"/>
<path d="M314.789 415.86L349.209 429.44L318.019 417.13H386.739C385.969 416.7 385.169 416.28 384.359 415.85H314.779L314.789 415.86Z" fill="#C7C7C4"/>
<path d="M225.18 425.67L234.73 429.44H234.74L225.18 425.67Z" fill="#C7C7C4"/>
<path d="M207.27 417.139H259.36H263.08H314.3L345.49 429.439H349.21L314.79 415.859H311.07H259.84H204.04L238.46 429.439L207.27 417.139Z" fill="#C7C7C4"/>
<path d="M127.709 429.44L112.109 423.29L127.709 429.44Z" fill="#C7C7C4"/>
<path d="M123.99 429.44L108.39 423.29L123.99 429.44Z" fill="#C7C7C4"/>
<path d="M152.32 417.139H203.54L225.17 425.679L234.73 429.449H238.45L204.03 415.869H149.09H115.64C114.82 416.289 114.02 416.719 113.25 417.149H152.32V417.139Z" fill="#C7C7C4"/>
<path d="M123.99 429.439H127.71L112.12 423.289L106.83 421.199C106.39 421.519 105.97 421.839 105.55 422.159L108.4 423.279L124 429.429L123.99 429.439Z" fill="#C7C7C4"/>
<path d="M349.21 429.439H294.27L297.51 430.719H402.18C401.95 430.289 401.69 429.869 401.42 429.439H349.22H349.21Z" fill="#C7C7C4"/>
<path d="M186.75 430.719H237.97H241.69H293.78L324.97 443.029H272.88H272.89H328.7H328.69L297.51 430.719L294.27 429.439H290.55H238.46H234.74H234.73H183.51L217.94 443.029L186.75 430.719Z" fill="#C7C7C4"/>
<path d="M130.95 430.719H183.03L214.22 443.029H217.94L183.51 429.439H98.5901C98.3201 429.859 98.0601 430.289 97.8301 430.719H130.95Z" fill="#C7C7C4"/>
<path d="M107.19 443.03L95.9697 438.6C95.9997 439.12 96.0697 439.63 96.1597 440.14L103.46 443.02H107.18L107.19 443.03Z" fill="#C7C7C4"/>
<path d="M383.149 444.31L397.989 450.16L383.149 444.31Z" fill="#C7C7C4"/>
<path d="M399.01 449.09L386.87 444.3H402.39C402.61 443.88 402.8 443.45 402.97 443.02H383.64L399.01 449.08V449.09Z" fill="#C7C7C4"/>
<path d="M272.399 444.3L282.519 448.3L272.399 444.3Z" fill="#C7C7C4"/>
<path d="M383.64 443.029H272.89L307.31 456.609L276.12 444.299H383.15L397.99 450.159C398.34 449.809 398.68 449.449 399.01 449.089L383.64 443.029V443.029Z" fill="#C7C7C4"/>
<path d="M161.649 444.3L176.109 450.01L161.649 444.3Z" fill="#C7C7C4"/>
<path d="M217.45 444.299H221.17H272.4L282.52 448.299L303.59 456.609H307.31L272.89 443.029H272.88H217.94H214.22H162.14L189.75 453.919L165.37 444.299H217.45Z" fill="#C7C7C4"/>
<path d="M110.429 444.3H161.649L176.109 450.01L192.839 456.61H196.559L189.749 453.92L162.139 443.02H97.0293C97.1993 443.45 97.3993 443.87 97.6093 444.3H110.429Z" fill="#C7C7C4"/>
<path d="M373.069 460.539L366.349 457.889H387.469C388.209 457.469 388.919 457.039 389.609 456.609H363.109L373.059 460.539H373.069Z" fill="#C7C7C4"/>
<path d="M363.119 456.609H252.359L286.789 470.199L255.599 457.889H362.629L376.309 463.289C376.919 463.039 377.519 462.789 378.109 462.529L373.069 460.539L363.119 456.609V456.609Z" fill="#C7C7C4"/>
<path d="M141.13 457.89L152.77 462.48L141.13 457.89Z" fill="#C7C7C4"/>
<path d="M196.08 457.889H199.8H251.88L283.07 470.199H286.79L252.36 456.609H248.65H196.56H192.84H141.62L159 463.469L144.85 457.889H196.08Z" fill="#C7C7C4"/>
<path d="M141.13 457.89L152.77 462.48L172.32 470.19H176.04L158.99 463.46L141.61 456.6H110.38C111.07 457.03 111.78 457.45 112.52 457.88H141.13V457.89Z" fill="#C7C7C4"/>
<path d="M347.21 472.359L344.98 471.479H350.85C352.5 471.059 354.12 470.639 355.72 470.199H341.75L347.22 472.359H347.21Z" fill="#C7C7C4"/>
<path d="M230.5 471.47L252.65 480.22L230.5 471.47Z" fill="#C7C7C4"/>
<path d="M341.739 470.199H230.989L252.359 478.629L234.219 471.469H341.249L344.869 472.899C345.659 472.719 346.439 472.539 347.209 472.359L341.739 470.199V470.199Z" fill="#C7C7C4"/>
<path d="M261.52 482.25L252.36 478.64L230.99 470.21H144.29C145.88 470.64 147.5 471.07 149.15 471.49H230.5L252.65 480.23L257.96 482.33C259.15 482.31 260.33 482.29 261.52 482.26V482.25Z" fill="#C7C7C4"/>
<path opacity="0.1" d="M358.241 430.74C358.241 432.08 352.371 433.17 345.131 433.17C337.891 433.17 332.021 432.08 332.021 430.74C332.021 429.4 337.891 428.31 345.131 428.31C352.371 428.31 358.241 429.4 358.241 430.74Z" fill="#353535"/>
<path opacity="0.1" d="M354.53 430.24C354.53 431.31 350.32 432.17 345.13 432.17C339.94 432.17 335.73 431.3 335.73 430.24C335.73 429.18 339.94 428.31 345.13 428.31C350.32 428.31 354.53 429.18 354.53 430.24Z" fill="#353535"/>
<path d="M339 429.65C339.26 426.92 336.58 420.09 325.89 419.86C325.89 419.86 337.8 417.28 341.34 424.08C341.34 424.08 339.72 413.08 324.32 412.21C324.32 412.21 340.76 411.15 343.74 421.8C344.52 424.6 344.75 425.92 344.75 425.92C344.75 425.92 342.6 410.19 346.16 409.6C346.16 409.6 345.31 420.17 347.93 421.81C347.93 421.81 347.6 414.35 354.22 413.93C354.22 413.93 348.99 419.39 350.1 425.51C350.1 425.51 349.63 421.43 356.65 419.3C356.65 419.3 350.57 424.4 350.82 430.26C350.82 430.26 338.8 431.89 339.01 429.65H339Z" fill="#698E59"/>
<path d="M350.81 430.26C348.3 430.61 345.77 430.89 343.22 430.94C342.58 430.94 341.94 430.94 341.31 430.89C340.67 430.83 340.03 430.76 339.41 430.46C339.26 430.38 339.11 430.27 338.99 430.12C338.94 430.03 338.89 429.94 338.87 429.85C338.87 429.74 338.85 429.65 338.85 429.58V429.1L338.81 428.65C338.73 428.04 338.56 427.44 338.31 426.87C338.07 426.3 337.78 425.74 337.42 425.24C337.08 424.72 336.66 424.25 336.23 423.81C336 423.6 335.78 423.38 335.54 423.18L334.8 422.62C334.55 422.44 334.27 422.29 334.01 422.13C333.75 421.96 333.47 421.82 333.18 421.69C332.9 421.56 332.62 421.42 332.33 421.3L331.44 420.99C330.86 420.76 330.23 420.67 329.63 420.51C329.02 420.4 328.39 420.32 327.77 420.23L325.89 420.12L323.94 420.01L325.84 419.63C327.26 419.35 328.69 419.2 330.13 419.15C331.57 419.11 333.01 419.18 334.44 419.43C335.86 419.69 337.27 420.11 338.53 420.86C338.85 421.04 339.15 421.25 339.44 421.47C339.73 421.69 340 421.94 340.26 422.2C340.51 422.47 340.76 422.74 340.96 423.05C341.19 423.34 341.36 423.67 341.54 423.98L341.11 424.12C341.03 423.69 340.92 423.24 340.76 422.81C340.63 422.37 340.43 421.96 340.26 421.53C340.05 421.12 339.87 420.7 339.62 420.31C339.39 419.91 339.15 419.52 338.87 419.16L338.47 418.6L338.01 418.08L337.55 417.56C337.39 417.4 337.21 417.25 337.05 417.09C336.71 416.78 336.39 416.45 336 416.19C335.63 415.92 335.27 415.63 334.88 415.38L333.68 414.69C333.29 414.45 332.84 414.3 332.43 414.1C332.01 413.92 331.59 413.7 331.14 413.58L329.82 413.15C329.38 412.98 328.92 412.93 328.47 412.82L327.11 412.53L324.34 412.2L327.12 412.44L328.5 412.69C328.96 412.79 329.43 412.83 329.87 412.98L331.22 413.37C331.68 413.48 332.1 413.69 332.53 413.86C332.96 414.05 333.41 414.19 333.82 414.43L335.05 415.12C335.45 415.36 335.82 415.66 336.21 415.92C336.61 416.18 336.94 416.51 337.3 416.82C337.48 416.98 337.66 417.13 337.83 417.29L338.31 417.81L338.79 418.33L339.22 418.89C339.52 419.26 339.77 419.66 340.02 420.06C340.28 420.45 340.47 420.89 340.7 421.3C340.89 421.73 341.09 422.17 341.23 422.62C341.39 423.07 341.51 423.52 341.61 424.01L341.86 425.27L341.19 424.15C341.01 423.86 340.85 423.55 340.64 423.28C340.45 422.99 340.21 422.74 339.98 422.49C339.73 422.25 339.48 422.01 339.2 421.81C338.93 421.6 338.64 421.4 338.34 421.23C337.14 420.53 335.78 420.12 334.4 419.88C333.02 419.64 331.6 419.58 330.19 419.63C328.78 419.67 327.37 419.81 325.99 420.08L325.94 419.59L327.86 419.71C328.49 419.81 329.13 419.89 329.76 420.01C330.38 420.18 331.02 420.27 331.62 420.51L332.53 420.83C332.83 420.95 333.12 421.1 333.41 421.24C333.71 421.37 333.99 421.52 334.26 421.7C334.53 421.87 334.82 422.02 335.08 422.22L335.85 422.81C336.1 423.02 336.32 423.25 336.56 423.48C337.01 423.94 337.43 424.44 337.78 424.99C338.14 425.53 338.44 426.11 338.68 426.71C338.92 427.31 339.09 427.94 339.17 428.59L339.21 429.09V429.57C339.19 429.75 339.21 429.82 339.27 429.93C339.35 430.03 339.46 430.11 339.58 430.18C340.11 430.44 340.75 430.53 341.37 430.6C342 430.66 342.63 430.69 343.26 430.7C345.79 430.72 348.33 430.52 350.85 430.24L350.81 430.26Z" fill="#407035"/>
<path d="M356.641 419.3C356.641 419.3 356.501 419.45 356.271 419.7C356.031 419.95 355.711 420.34 355.321 420.79C354.941 421.25 354.501 421.79 354.071 422.39C353.841 422.68 353.641 423.01 353.421 423.33C353.201 423.65 353.001 423.99 352.791 424.32C352.601 424.66 352.401 425 352.231 425.35C352.081 425.7 351.881 426.03 351.761 426.38C351.641 426.73 351.471 427.05 351.391 427.37C351.301 427.69 351.181 428 351.131 428.29C351.081 428.58 351.021 428.84 350.961 429.08C350.921 429.32 350.911 429.53 350.891 429.7C350.851 430.05 350.831 430.25 350.831 430.25C350.831 430.25 350.821 430.05 350.791 429.7C350.791 429.52 350.761 429.31 350.771 429.06C350.791 428.82 350.811 428.54 350.841 428.23C350.871 427.92 350.961 427.61 351.031 427.26C351.091 426.91 351.231 426.57 351.341 426.21C351.451 425.84 351.631 425.49 351.791 425.12C351.961 424.76 352.161 424.41 352.351 424.05C352.571 423.71 352.781 423.36 353.011 423.04C353.241 422.72 353.471 422.4 353.721 422.11C354.191 421.52 354.701 421.02 355.121 420.59C355.991 419.75 356.661 419.3 356.661 419.3H356.641Z" fill="#407035"/>
<path d="M350.001 424.91C350.061 425.11 350.111 425.31 350.161 425.51L350.031 425.53C349.971 425.11 350.001 424.69 350.101 424.29C350.181 423.88 350.361 423.49 350.541 423.12L350.871 422.59L351.261 422.1C351.551 421.8 351.831 421.49 352.171 421.25C352.491 420.98 352.841 420.77 353.191 420.55C353.361 420.44 353.561 420.36 353.741 420.26C353.921 420.17 354.111 420.08 354.301 420L354.881 419.79C355.071 419.73 355.261 419.65 355.461 419.6C355.861 419.51 356.251 419.4 356.651 419.32C356.291 419.5 355.911 419.66 355.551 419.82L354.481 420.36L353.971 420.66C353.801 420.76 353.621 420.85 353.461 420.96C353.141 421.19 352.801 421.39 352.511 421.65C352.361 421.78 352.201 421.89 352.071 422.03C351.931 422.17 351.781 422.3 351.651 422.44L351.271 422.88L350.941 423.35C350.741 423.68 350.551 424.02 350.431 424.39C350.301 424.75 350.201 425.14 350.181 425.53L350.051 425.55C350.041 425.35 350.031 425.14 350.031 424.93L350.001 424.91Z" fill="#407035"/>
<path d="M354.21 413.93C354.21 413.93 353.75 414.54 353.14 415.48C352.83 415.95 352.5 416.52 352.16 417.13C351.82 417.74 351.49 418.41 351.21 419.1C351.08 419.45 350.91 419.78 350.81 420.13C350.7 420.48 350.57 420.81 350.49 421.15C350.4 421.49 350.3 421.81 350.25 422.13C350.2 422.44 350.12 422.74 350.1 423.02C350.08 423.3 350.04 423.55 350.01 423.78C350.01 424.01 350.01 424.21 350 424.37C349.99 424.7 349.98 424.89 349.98 424.89C349.98 424.89 349.95 424.7 349.9 424.37C349.88 424.2 349.85 424 349.82 423.77C349.82 423.54 349.8 423.27 349.81 422.99C349.8 422.7 349.84 422.39 349.87 422.06C349.89 421.73 349.95 421.39 350.03 421.03C350.1 420.67 350.2 420.32 350.32 419.96C350.42 419.59 350.58 419.24 350.71 418.88C351.01 418.17 351.36 417.49 351.75 416.88C352.12 416.27 352.53 415.74 352.89 415.29C353.61 414.4 354.2 413.91 354.2 413.91L354.21 413.93Z" fill="#407035"/>
<path d="M347.501 421.439C347.641 421.569 347.801 421.679 347.951 421.769L347.871 421.819C347.821 421.349 347.811 420.869 347.861 420.399C347.891 419.919 347.961 419.449 348.061 418.979C348.111 418.739 348.181 418.509 348.251 418.289C348.311 418.059 348.401 417.829 348.501 417.609C348.601 417.389 348.691 417.159 348.821 416.959C348.951 416.749 349.041 416.529 349.201 416.339C349.351 416.149 349.501 415.949 349.651 415.769L350.181 415.259C350.361 415.089 350.581 414.979 350.771 414.829C350.961 414.679 351.191 414.579 351.411 414.489C351.641 414.399 351.851 414.279 352.081 414.219L352.781 414.049C353.011 413.989 353.251 413.989 353.491 413.969C353.731 413.959 353.961 413.949 354.201 413.939C353.971 413.999 353.741 414.049 353.511 414.099C353.281 414.149 353.051 414.179 352.841 414.279L352.191 414.509C351.971 414.589 351.791 414.719 351.581 414.819L351.281 414.979L351.011 415.179C350.841 415.319 350.641 415.439 350.481 415.599L350.011 416.079C349.871 416.249 349.741 416.439 349.601 416.619C349.461 416.789 349.361 416.999 349.241 417.189C349.121 417.379 349.031 417.589 348.931 417.789C348.831 417.989 348.741 418.199 348.671 418.419C348.591 418.629 348.511 418.849 348.451 419.069C348.311 419.509 348.201 419.959 348.121 420.409C348.051 420.869 347.971 421.329 347.941 421.789V421.899L347.861 421.839C347.701 421.709 347.581 421.569 347.471 421.419L347.501 421.439Z" fill="#407035"/>
<path d="M346.14 409.739C346.14 409.739 346.17 410.489 346.2 411.609C346.22 412.169 346.23 412.819 346.26 413.519C346.29 414.219 346.3 414.959 346.36 415.699C346.39 416.439 346.47 417.179 346.54 417.869C346.63 418.549 346.71 419.199 346.85 419.729C346.93 419.989 346.97 420.249 347.05 420.449C347.13 420.659 347.18 420.849 347.26 420.989C347.42 421.279 347.51 421.439 347.51 421.439C347.51 421.439 347.39 421.299 347.18 421.039C347.07 420.909 346.99 420.729 346.87 420.519C346.74 420.319 346.67 420.069 346.56 419.799C346.45 419.529 346.39 419.229 346.29 418.919C346.21 418.599 346.14 418.269 346.07 417.919C346.02 417.569 345.95 417.209 345.92 416.839C345.88 416.469 345.84 416.089 345.83 415.719C345.79 414.969 345.78 414.219 345.8 413.509C345.81 412.809 345.87 412.149 345.91 411.589C346.01 410.469 346.15 409.729 346.15 409.729L346.14 409.739Z" fill="#407035"/>
<path d="M344.561 425.03L344.801 425.91L344.691 425.93C344.421 424.53 344.251 423.12 344.091 421.7C343.951 420.28 343.861 418.86 343.851 417.43C343.851 416 343.881 414.57 344.121 413.15C344.181 412.8 344.251 412.44 344.341 412.09C344.431 411.74 344.531 411.39 344.671 411.06C344.801 410.72 345.001 410.41 345.231 410.12C345.481 409.85 345.801 409.63 346.161 409.59H346.171V409.6L346.151 409.74V409.6L346.161 409.61C345.811 409.71 345.551 409.94 345.341 410.21C345.151 410.5 345.001 410.81 344.911 411.15C344.801 411.48 344.721 411.82 344.661 412.16C344.591 412.5 344.551 412.85 344.511 413.2C344.371 414.6 344.351 416.01 344.371 417.42C344.391 418.83 344.451 420.25 344.531 421.66C344.591 423.08 344.711 424.49 344.801 425.91L344.691 425.93L344.561 425.03V425.03Z" fill="#407035"/>
<path d="M324.32 412.209C324.32 412.209 325.98 412.009 328.49 412.169C329.74 412.249 331.2 412.399 332.74 412.749C334.28 413.089 335.9 413.589 337.42 414.329C338.18 414.699 338.9 415.149 339.59 415.629C340.25 416.139 340.89 416.659 341.42 417.259C341.7 417.539 341.93 417.869 342.17 418.159C342.38 418.479 342.59 418.789 342.77 419.099C343.12 419.739 343.4 420.369 343.61 420.969C343.7 421.269 343.8 421.559 343.87 421.839C343.93 422.119 343.99 422.379 344.04 422.629C344.15 423.129 344.24 423.559 344.32 423.919C344.47 424.629 344.55 425.039 344.55 425.039C344.55 425.039 344.43 424.639 344.22 423.939C344.12 423.589 343.99 423.169 343.85 422.679C343.71 422.189 343.55 421.649 343.33 421.069C343.11 420.499 342.81 419.899 342.45 419.299C342.07 418.709 341.62 418.119 341.09 417.569C340.58 416.999 339.95 416.509 339.31 416.029C338.64 415.579 337.94 415.149 337.2 414.809C335.73 414.079 334.15 413.559 332.65 413.209C331.14 412.849 329.71 412.609 328.47 412.479C326 412.199 324.32 412.229 324.32 412.229V412.209Z" fill="#407035"/>
<path opacity="0.4" d="M339.001 429.65C338.791 431.88 350.811 430.26 350.811 430.26C350.561 424.4 356.641 419.3 356.641 419.3C354.301 420.24 352.881 422.7 351.851 424.52C350.821 426.34 350.111 426.83 349.951 425.92C349.801 425.08 349.811 424.3 349.951 423.58C350.051 418.29 354.221 413.94 354.221 413.94C354.191 413.94 354.171 413.94 354.141 413.94C352.461 414.84 350.601 417.24 350.221 418.92C349.621 421.55 348.151 426.8 346.141 425.4C344.131 424 344.781 417 344.781 414.72C344.781 412.98 345.511 410.68 345.861 409.7C343.401 410.81 344.121 420.18 344.541 424.15C344.681 424.74 344.791 425.24 344.891 425.6C345.541 428.12 343.091 430.78 343.531 427.91C343.971 425.04 340.921 417.93 335.971 414.75C332.841 412.74 327.841 412.29 324.591 412.23C339.751 413.21 341.351 424.08 341.351 424.08C341.241 423.87 341.131 423.68 341.011 423.49C342.061 425.81 340.991 427 339.561 424.7C338.191 422.5 334.701 421.15 330.421 420.44C337.371 422.17 339.231 427.37 339.011 429.66L339.001 429.65Z" fill="#407035"/>
<path style="mix-blend-mode:multiply" opacity="0.19" d="M230 451.181C274.183 451.181 310 443.122 310 433.181C310 423.24 274.183 415.181 230 415.181C185.817 415.181 150 423.24 150 433.181C150 443.122 185.817 451.181 230 451.181Z" fill="url(#paint0_linear_731_4304)"/>
<path d="M229.95 251.801C229.53 248.651 228.59 245.401 227.13 242.061C225.81 239.051 222.31 237.681 219.3 239.001C216.29 240.321 214.92 243.821 216.24 246.831C219.66 254.641 218.92 260.481 213.77 266.371C208.61 272.281 199.8 277.201 191.29 281.961C178.68 289.011 166.77 295.671 163.72 306.591C162.21 311.971 163.13 317.671 166.44 323.541C171.46 332.421 174.42 341.801 174.99 350.681C175.55 359.181 173.85 366.441 170.1 371.661C162.79 381.821 149.37 381.661 139.4 379.731C136.18 379.111 133.06 381.211 132.44 384.431C131.82 387.651 133.92 390.771 137.14 391.391C146.77 393.251 155.36 393.041 162.67 390.751C169.8 388.521 175.54 384.431 179.75 378.591C185.14 371.101 187.59 361.181 186.86 349.891C186.17 339.241 182.68 328.101 176.79 317.681C175.06 314.631 174.53 312.051 175.17 309.791C176.9 303.631 187.17 297.881 197.1 292.331C206.49 287.081 216.21 281.641 222.72 274.181C228.61 267.441 231.02 259.941 229.94 251.791L229.95 251.801Z" fill="#A16552"/>
<path opacity="0.35" d="M137.15 391.39C135.82 391.13 134.69 390.45 133.85 389.51C142.13 390.72 150.97 390.8 157.43 388.78C164.56 386.55 170.3 382.46 174.51 376.62C179.9 369.13 182.35 359.21 181.62 347.92C180.93 337.27 177.44 326.13 171.55 315.71C169.82 312.66 169.29 310.08 169.93 307.82C171.66 301.66 180.53 295.43 190.47 289.88C199.86 284.63 209.58 279.19 216.09 271.73C221.98 264.99 224.39 257.49 223.31 249.34C222.89 246.19 221.95 242.94 220.49 239.6C220.36 239.29 220.19 239.01 220.02 238.74C222.85 237.9 225.93 239.28 227.14 242.05C228.6 245.39 229.54 248.64 229.96 251.79C231.04 259.94 228.62 267.44 222.74 274.18C216.22 281.64 206.51 287.07 197.12 292.33C187.19 297.89 176.91 303.63 175.19 309.79C174.56 312.05 175.09 314.63 176.81 317.68C182.7 328.1 186.18 339.24 186.88 349.89C187.62 361.18 185.16 371.1 179.77 378.59C175.57 384.43 169.82 388.52 162.69 390.75C155.37 393.04 146.78 393.25 137.16 391.39H137.15Z" fill="#4E3F3F"/>
<path d="M203.309 93.9902H226.439V84.0802H203.309V93.9902Z" fill="#794C3E"/>
<path d="M325.059 151.36C318.719 142.29 311.459 137.11 310.889 137.63C310.319 138.15 314.019 146.21 324.569 152.73L325.669 153.04L325.059 151.36Z" fill="#CCCCCC"/>
<path d="M249.55 103.55C249.55 103.55 250.09 98.1301 249.39 96.8301C249.22 96.5101 248.59 96.6101 247.49 95.8701C247.49 95.8701 258.73 101.05 259.64 103.74C260.55 106.43 260.48 118.14 261.27 121.49C262.06 124.85 276.21 157.47 276.89 157.59C277.57 157.71 278.55 156.28 279.42 156.66C280.29 157.04 279.87 159.27 279.87 159.27C279.87 159.27 283.08 158.46 286.73 156.58C290.38 154.7 307.29 139.79 307.29 139.79C307.29 139.79 307.74 138.95 308.2 139.03C308.66 139.11 309.03 139.29 309.03 139.29C309.03 139.29 308.45 141.14 310.24 143.82C312.04 146.49 318.49 153.56 320.26 154.45C322.04 155.34 323.68 155.06 323.68 155.06C323.68 155.06 326.27 157.25 325.98 157.54C325.69 157.83 321.1 159.08 319.63 160.03C318.16 160.97 300.51 179.21 292.77 185.01C285.03 190.81 273.16 196.06 271.85 195.82C270.54 195.58 253.26 174.3 247.86 161.62C245.7 156.55 243.7 152.88 242.06 150.28C242.19 149.82 242.33 149.37 242.46 148.93C246.16 136.72 248.38 121.03 249.53 103.54L249.55 103.55Z" fill="#3F3093"/>
<path d="M320.279 154.461C318.499 153.571 312.049 146.501 310.259 143.831C308.609 141.371 308.959 139.631 309.029 139.361L310.889 137.641C310.889 137.641 313.649 142.231 316.769 145.411C319.879 148.591 325.209 152.691 325.239 152.521C325.269 152.351 325.059 151.371 325.059 151.371C325.059 151.371 326.779 153.491 326.289 153.791C326.059 153.931 324.869 154.511 323.669 155.091C323.469 155.121 321.949 155.311 320.289 154.481L320.279 154.461Z" fill="#E6E6E6"/>
<path d="M312.13 139.56C312.6 139.14 313.37 138.29 313.53 136.99C313.75 135.09 315.56 125.42 316.42 124.15C317.28 122.88 319.64 120.37 320.39 119C321.13 117.62 323.52 116.41 324.35 114.84C325.18 113.26 326.21 110.3 326.73 110.35C327.25 110.4 329.77 113.22 329.71 115.66C329.65 118.11 327.98 121.13 326.9 122.18C325.82 123.24 324.64 124.84 324.93 125.88C325.22 126.92 337.34 125.42 340.85 124.83C344.36 124.25 352.24 126.94 353.66 127.89C355.07 128.83 355.47 130.28 355.47 130.28C355.47 130.28 358.81 130.62 360.15 132.15C361.5 133.68 359.13 135.46 359.13 135.46C359.13 135.46 360.06 138.47 359.49 139.06C358.92 139.65 357.37 139.93 357.37 139.93C357.37 139.93 357.2 142.27 356.56 142.59C355.93 142.91 345.79 144.46 343.85 144.9C341.92 145.33 329.45 147.29 326.33 147.9C324.43 148.27 322.81 149.24 321.82 149.95C320.16 148.59 318.23 146.91 316.77 145.42C314.94 143.55 313.23 141.2 312.14 139.57L312.13 139.56Z" fill="#A16552"/>
<path opacity="0.45" d="M345.36 138.741C346.61 138.611 347.88 138.481 349.16 138.561C351.69 138.721 354.18 139.131 356.63 139.751C354.11 139.631 351.61 139.361 349.13 139.241C347.9 139.171 346.66 139.261 345.41 139.321L341.65 139.481H341.62H341.6L341.09 139.071L341.65 139.361C342.88 139.101 344.12 138.931 345.37 138.771L345.36 138.741Z" fill="#4E3F3F"/>
<path opacity="0.45" d="M349.189 133.79C352.399 133.82 355.549 134.46 358.539 135.47C355.419 134.95 352.299 134.46 349.189 134.46C346.079 134.53 342.939 134.9 339.819 135.33H339.789L339.769 135.32L339.399 134.87L339.819 135.23C342.859 134.38 345.999 133.85 349.189 133.79V133.79Z" fill="#4E3F3F"/>
<path opacity="0.45" d="M342.259 130.08L338.109 130.38C339.449 130.02 340.819 129.76 342.199 129.56C343.569 129.34 345.009 129.29 346.399 129.38C349.179 129.55 351.929 129.87 354.669 130.39C351.889 130.39 349.119 130.2 346.359 130.05C344.979 129.95 343.639 129.98 342.259 130.07V130.08Z" fill="#4E3F3F"/>
<path opacity="0.35" d="M317.649 143.54C317.649 143.54 320.619 144.76 322.189 144.58C323.749 144.4 327.749 142.58 331.979 141.96C336.219 141.34 340.109 142.55 340.419 142.66C340.419 142.66 347.899 141.86 351.979 141.73C353.939 141.67 355.699 141.71 357.019 141.78C356.899 142.16 356.749 142.48 356.549 142.58C355.919 142.9 345.779 144.45 343.839 144.89C341.909 145.32 329.439 147.28 326.319 147.89C324.419 148.26 322.799 149.23 321.809 149.94C320.149 148.58 318.219 146.9 316.759 145.41C316.539 145.18 316.329 144.93 316.109 144.69L317.649 143.54V143.54Z" fill="#4E3F3F"/>
<path d="M247.879 161.63C245.719 156.56 243.719 152.89 242.079 150.29C242.209 149.83 242.349 149.38 242.479 148.94C244.419 142.52 245.949 135.14 247.139 127.05C252.749 139 267.029 169.19 268.109 169.36C269.449 169.58 271.869 168.43 271.849 170.03C271.829 171.62 271.119 173.92 271.119 173.92C271.119 173.92 287.419 167.93 293.269 164.67C297.609 162.24 308.079 152.42 313.199 147.52C315.779 150.49 319.079 153.87 320.279 154.47C322.059 155.36 323.699 155.08 323.699 155.08C323.699 155.08 326.289 157.27 325.999 157.56C325.709 157.85 321.119 159.1 319.649 160.05C318.179 160.99 300.529 179.23 292.789 185.03C285.049 190.83 273.179 196.08 271.869 195.84C270.559 195.6 253.279 174.32 247.879 161.64V161.63Z" fill="#201775"/>
<path d="M192.909 89.75L194.979 88.59L197.839 80L212.709 90.97H216.319L226.629 86.54L231.359 91.76L233.659 92.64C232.969 97.12 230.939 109.72 228.539 119.23C226.569 127.02 223.159 136.99 221.089 142.84C217.779 137.24 213.559 129.92 210.859 124.66C206.499 116.16 195.589 94.94 192.919 89.76L192.909 89.75Z" fill="#F2F2F2"/>
<path d="M208.629 111.42C208.629 109.74 206.999 107.27 206.099 106.56C205.189 105.85 197.369 91.3301 197.369 91.3301L215.269 99.3101L229.969 91.3301C229.969 91.3301 225.469 110.26 227.459 111.41C228.079 111.77 229.419 110.3 230.969 108.11C230.239 111.86 229.409 115.75 228.539 119.22C226.569 127.01 223.159 136.98 221.089 142.83C217.779 137.23 213.559 129.91 210.859 124.65C209.559 122.12 207.679 118.46 205.609 114.43C210.069 115.36 208.639 112.87 208.639 111.42H208.629Z" fill="#E6E6E6"/>
<path d="M226.019 151.101C226.019 151.101 210.039 129.851 202.849 117.871C195.669 105.891 189.579 90.9707 189.579 90.9707C189.579 90.9707 173.199 97.0707 172.499 98.8807C171.809 100.691 168.329 118.551 174.119 140.481C179.909 162.411 193.119 203.561 192.419 209.431C191.729 215.311 188.479 229.031 188.479 229.031C188.479 229.031 197.279 234.001 203.539 235.131C209.789 236.261 214.299 235.131 214.299 235.131L229.949 211.391C229.949 211.391 229.489 193.151 228.099 177.551C226.709 161.951 226.009 151.101 226.009 151.101H226.019Z" fill="#3F3093"/>
<path d="M228.109 177.56C226.719 161.96 226.019 151.11 226.019 151.11C226.019 151.11 223.999 148.42 221.079 144.43C223.779 139.39 228.969 129.63 232.279 122.85C236.909 113.35 239.079 92.7803 239.079 92.7803C239.079 92.7803 250.809 96.7903 251.739 97.9503C252.669 99.1103 253.129 104.53 253.129 104.53C255.209 121.94 255.909 137.76 254.519 150.42C253.129 163.08 252.229 187.27 254.189 195.86C256.149 204.45 263.099 222.92 263.099 222.92C263.099 222.92 256.839 229.93 249.199 232.41C241.559 234.9 233.209 235.12 233.209 235.12L226.359 216.86L229.969 211.38C229.969 211.38 229.509 193.14 228.119 177.54L228.109 177.56Z" fill="#3F3093"/>
<path d="M177.579 409.62C177.579 409.62 179.189 354.66 179.879 347.65C180.569 340.64 185.859 319.3 187.009 313.09C188.159 306.87 184.499 267.47 184.269 263.62C184.039 259.78 181.969 249.38 181.969 249.38C181.969 249.38 185.619 236.29 190.639 229.75C193.309 231.17 199.519 234.27 204.259 235.14C210.469 236.27 214.939 235.14 214.939 235.14L230.469 211.4L226.889 216.88L233.689 235.14C233.689 235.14 241.969 234.91 249.549 232.43C255.429 230.5 260.469 225.87 262.439 223.88C264.389 230.12 268.729 244.28 269.089 247.69C269.549 252.1 268.039 287.66 266.769 295.8C265.509 303.94 264.009 313.1 263.779 317.39C263.549 321.68 261.709 388.94 262.289 394.82C262.859 400.7 271.829 418.11 271.489 418.67C271.149 419.24 268.059 421.38 268.059 421.38C268.059 421.38 267.009 419.35 266.089 419.35C265.169 419.35 253.329 420.93 247.469 422.52C241.609 424.1 234.249 426.02 234.249 426.02C234.249 426.02 233.899 409.63 233.789 407.14C233.669 404.65 229.999 368.37 229.309 359.89C228.619 351.41 230.799 341.96 231.149 340.49C231.499 339.02 231.609 327.15 232.409 325.91C233.219 324.67 234.019 316.26 234.019 316.26C234.019 316.26 232.189 303.01 231.729 294.87C231.269 286.73 229.329 251.2 228.639 251.42C227.949 251.65 226.919 252.66 226.339 256.51C225.769 260.35 217.239 308.92 216.209 315.02C215.179 321.12 214.369 325.31 213.339 329.38C212.299 333.45 211.159 348.48 210.239 360.13C209.319 371.77 207.479 392.12 207.939 398.22C208.399 404.32 207.589 421.28 208.509 422.97C209.429 424.67 205.059 426.02 205.059 426.02C205.059 426.02 205.059 422.63 200.459 419.35C195.859 416.07 178.619 424.1 178.619 424.1C178.619 424.1 176.319 416.87 176.319 415.06C176.319 413.25 177.579 409.63 177.579 409.63V409.62Z" fill="#110E60"/>
<path d="M269.33 418.66C269.68 418.09 260.71 400.69 260.13 394.81C259.56 388.93 261.39 321.67 261.62 317.38C261.85 313.09 263.35 303.93 264.61 295.79C265.88 287.65 267.39 252.09 266.93 247.68C266.6 244.53 262.88 232.23 260.77 225.45C261.45 224.84 262.01 224.29 262.43 223.87C264.38 230.11 268.72 244.27 269.08 247.68C269.54 252.09 268.03 287.65 266.76 295.79C265.5 303.93 264 313.09 263.77 317.38C263.54 321.67 261.7 388.93 262.28 394.81C262.85 400.69 271.82 418.1 271.48 418.66C271.14 419.23 268.05 421.37 268.05 421.37C268.05 421.37 267.77 420.83 267.37 420.31C268.22 419.68 269.15 418.96 269.33 418.66V418.66Z" fill="#201775"/>
<path d="M206.34 422.96C205.42 421.27 206.23 404.31 205.77 398.21C205.31 392.11 207.15 371.76 208.07 360.12C208.99 348.48 210.14 333.44 211.17 329.37C212.2 325.3 213.01 321.12 214.04 315.01C215.08 308.91 223.6 260.34 224.17 256.5C224.75 252.66 225.78 251.64 226.47 251.41C226.58 251.37 226.68 252.48 226.76 254.39C226.6 254.98 226.45 255.67 226.33 256.5C225.76 260.34 217.23 308.91 216.2 315.01C215.17 321.11 214.36 325.3 213.33 329.37C212.29 333.44 211.15 348.47 210.23 360.12C209.31 371.76 207.47 392.11 207.93 398.21C208.39 404.31 207.58 421.27 208.5 422.96C209.42 424.66 205.05 426.01 205.05 426.01C205.05 426.01 205.05 425.69 204.92 425.15C205.92 424.6 206.82 423.82 206.35 422.96H206.34Z" fill="#201775"/>
<path d="M202.589 235.13C198.679 234.41 193.769 232.11 190.729 230.55C190.919 230.27 191.109 230 191.309 229.74C193.929 231.16 200.04 234.26 204.71 235.13C206.29 235.42 207.76 235.56 209.07 235.61C207.32 235.68 205.109 235.6 202.589 235.13V235.13Z" fill="#22B322"/>
<path d="M224.96 218.971L229.96 211.391L226.35 216.871L233.16 235.001C231.83 235.101 231.03 235.131 231.03 235.131L224.96 218.971V218.971Z" fill="#22B322"/>
<path d="M233.76 235.13L233.71 235C236.59 234.77 242.03 234.13 247.16 232.41C252.91 230.48 257.84 225.85 259.77 223.86C259.92 224.34 260.08 224.88 260.25 225.44C257.8 227.7 253.8 230.89 249.27 232.41C241.85 234.9 233.76 235.12 233.76 235.12V235.13Z" fill="#FF97B4"/>
<path d="M266.109 419.361C266.729 420.341 267.409 421.391 267.809 421.861C268.669 422.881 283.069 426.101 285.139 427.291C287.209 428.481 290.569 433.311 290.569 433.311C290.569 433.311 279.019 436.701 270.739 435.291C262.299 433.851 263.409 433.481 255.309 432.541C247.209 431.611 236.169 434.321 236.259 431.691C236.299 430.441 236.709 427.771 237.129 425.321C239.799 424.621 244.049 423.491 247.719 422.501C253.289 421.001 264.249 419.491 266.099 419.351L266.109 419.361Z" fill="#722108"/>
<path d="M236.26 431.69C236.26 431.48 236.29 431.22 236.31 430.94L236.48 432.21C236.35 432.06 236.26 431.89 236.26 431.68V431.69Z" fill="#3A1616"/>
<path d="M236.279 430.71H236.329C236.329 430.79 236.309 430.87 236.309 430.95L236.279 430.71Z" fill="#3A1616"/>
<path d="M248.67 432.4V435.22C248.67 435.22 247.03 435.39 242.29 435.22C237.55 435.05 236.77 434.54 236.77 434.54L236.47 432.23C237.55 433.43 242.94 432.64 248.67 432.4V432.4Z" fill="#4C1605"/>
<path d="M200.72 419.34C205.32 422.62 205.32 426.01 205.32 426.01C205.32 426.01 205.34 426.01 205.37 425.99C205.71 428.89 206.01 431.94 205.84 432.61C205.49 433.97 203.17 437.45 199.2 439.99C195.24 442.53 178.6 432.78 178.6 431.43C178.6 430.53 178.91 426.54 179.11 423.98C181.12 423.07 196.43 416.27 200.73 419.33L200.72 419.34Z" fill="#722108"/>
<path d="M215.829 90.9698C215.189 90.9698 208.469 103.18 207.779 103.12C207.079 103.06 201.349 97.1898 198.569 93.7398C195.789 90.2898 195.039 88.4198 195.039 88.4198L197.809 79.5498C197.809 79.5498 202.979 83.7898 206.549 86.4198C210.119 89.0498 215.829 90.9598 215.829 90.9598V90.9698Z" fill="#E6E6E6"/>
<path d="M216.31 90.9698C216.31 90.9698 224.46 104.25 224.92 104.19C225.38 104.13 228.05 98.5398 229.44 95.5998C230.83 92.6598 231.53 91.3298 231.53 91.3298L226.99 85.5498C226.99 85.5498 221.23 88.8598 219.6 89.5598C217.97 90.2598 216.32 90.9698 216.32 90.9698H216.31Z" fill="#E6E6E6"/>
<path d="M215.829 90.9707H216.309C216.309 90.9707 219.799 96.6607 222.339 100.571L220.109 104.191C220.109 104.191 218.609 103.231 216.749 103.631C214.899 104.021 213.329 104.991 213.329 104.991L209.819 100.331C212.069 96.7407 215.389 90.9707 215.819 90.9707H215.829Z" fill="#AB71F6"/>
<path d="M221.069 142.83C218.169 137.92 214.569 131.69 211.909 126.68L213.339 104.98C213.339 104.98 214.899 104.02 216.759 103.62C218.609 103.22 220.119 104.18 220.119 104.18L220.269 103.94C221.749 109.44 224.619 120.1 226.369 126.91C224.579 132.8 222.509 138.79 221.079 142.82L221.069 142.83Z" fill="#AB71F6"/>
<path d="M192.31 88.5898C192.31 88.5898 205.86 114.93 210.84 124.65C215.82 134.37 226.02 151.1 226.02 151.1C226.02 151.1 207.72 136.41 197.87 124.08C188.02 111.76 180.26 93.8998 180.26 93.8998C180.26 93.8998 185.24 92.2598 187.33 91.3298C189.42 90.3998 192.31 88.5898 192.31 88.5898V88.5898Z" fill="#17176D"/>
<path d="M228.529 119.231C231.499 107.471 233.899 90.9707 233.899 90.9707L237.609 91.8707C241.319 92.7707 247.689 94.2407 247.689 94.2407C247.689 94.2407 243.289 113.571 237.839 123.291C233.969 130.211 226.219 139.651 222.069 144.511C221.749 143.971 221.409 143.411 221.069 142.821C223.149 136.981 226.559 127.011 228.519 119.211L228.529 119.231Z" fill="#17176D"/>
<path d="M216.229 158.81C216.229 160.54 217.669 161.95 219.439 161.95C221.209 161.95 222.649 160.55 222.649 158.81C222.649 157.07 221.209 155.67 219.439 155.67C217.669 155.67 216.229 157.07 216.229 158.81Z" fill="#17176D"/>
<path d="M217.859 181.69C217.859 183.42 219.299 184.83 221.069 184.83C222.839 184.83 224.279 183.43 224.279 181.69C224.279 179.95 222.839 178.55 221.069 178.55C219.299 178.55 217.859 179.95 217.859 181.69Z" fill="#17176D"/>
<path d="M219.5 204.571C219.5 206.301 220.94 207.711 222.71 207.711C224.48 207.711 225.92 206.311 225.92 204.571C225.92 202.831 224.48 201.431 222.71 201.431C220.94 201.431 219.5 202.831 219.5 204.571Z" fill="#17176D"/>
<path d="M198.569 93.7398C195.789 90.2898 195.039 88.4198 195.039 88.4198L195.069 88.3198C197.909 89.9798 207.119 95.0798 207.279 91.7198C207.429 88.3398 199.919 81.9198 197.649 80.0698L197.809 79.5498C197.809 79.5498 202.979 83.7898 206.549 86.4198C210.119 89.0498 215.829 90.9598 215.829 90.9598C215.189 90.9598 208.469 103.17 207.779 103.11C207.079 103.05 201.349 97.1798 198.569 93.7298V93.7398Z" fill="#CCCCCC"/>
<path d="M219.59 89.5606C221.07 88.9206 225.96 86.1406 226.83 85.6406C224.98 87.8206 222.12 91.6706 222.34 94.3706C222.51 96.4806 226.83 94.7406 230.86 92.6506C230.52 93.3406 230.05 94.3106 229.44 95.6006C228.05 98.5406 225.39 104.131 224.92 104.191C224.46 104.251 216.31 90.9706 216.31 90.9706C216.31 90.9706 217.96 90.2606 219.59 89.5606V89.5606Z" fill="#CCCCCC"/>
<path d="M216.31 93.1403C216.31 93.1403 220.03 97.4703 219.76 99.3203C219.49 101.17 218.47 101.09 216.31 101.26C214.15 101.44 213.55 101.88 212.85 101.26C212.15 100.64 212.76 99.3703 213.27 97.9803C213.78 96.5903 216.3 92.7803 216.3 92.7803" fill="#A67FEF"/>
<path d="M219.129 106.21C221.569 115.93 224.739 128.2 222.339 131.03C219.939 133.86 214.889 129.17 214.159 126.44C213.429 123.7 214.099 106.1 214.959 104.99C215.829 103.88 218.269 104.56 218.519 104.99C218.769 105.42 219.129 106.21 219.129 106.21V106.21Z" fill="#A67FEF"/>
<path d="M222.069 144.52C221.749 143.98 221.409 143.42 221.069 142.83C223.149 136.99 226.559 127.02 228.519 119.22C231.489 107.46 233.889 90.96 233.889 90.96C233.889 90.96 233.889 90.96 234.879 91.2C233.909 97.76 231.719 114.69 235.009 115.12C237.799 115.48 243.829 102.43 247.359 94.16C247.559 94.21 247.679 94.23 247.679 94.23C247.679 94.23 243.279 113.56 237.829 123.28C233.959 130.2 226.209 139.64 222.059 144.5L222.069 144.52Z" fill="#110E60"/>
<path d="M182.33 93.2098C186.18 101.09 199.25 127.03 203.14 124.67C206.84 122.42 195.77 98.3299 191.38 89.1599C191.95 88.8199 192.31 88.5898 192.31 88.5898C192.31 88.5898 205.86 114.93 210.84 124.65C215.82 134.37 226.02 151.1 226.02 151.1C226.02 151.1 207.72 136.41 197.87 124.08C188.02 111.76 180.26 93.8998 180.26 93.8998C180.26 93.8998 181.15 93.6098 182.33 93.1998V93.2098Z" fill="#110E60"/>
<path d="M203.549 235.13C197.299 234 188.489 229.03 188.489 229.03C188.489 229.03 191.729 215.31 192.429 209.43C192.989 204.69 184.499 176.97 178.159 154.92C180.699 147.31 182.319 142.48 182.319 142.48C182.319 142.48 205.279 187.56 206.639 201.43C207.999 215.29 209.469 223.34 214.159 222.55C218.859 221.76 229.919 209.55 229.919 209.55C229.949 210.72 229.959 211.4 229.959 211.4L214.309 235.14C214.309 235.14 209.809 236.27 203.549 235.14V235.13Z" fill="#201775"/>
<path d="M229.959 211.4C229.959 211.4 229.949 210.73 229.919 209.55C229.919 209.55 249.269 223.03 250.899 211.4C252.529 199.76 250.899 185.93 250.899 185.93L253.079 181.9C253.159 187.73 253.489 192.8 254.189 195.87C256.149 204.46 263.099 222.93 263.099 222.93C263.099 222.93 256.839 229.94 249.199 232.42C241.559 234.91 233.209 235.13 233.209 235.13L226.359 216.87L229.969 211.39L229.959 211.4Z" fill="#201775"/>
<path d="M184.6 239.381C186.03 235.951 187.82 232.331 189.82 229.741C192.51 231.161 198.77 234.261 203.55 235.131C209.8 236.261 214.31 235.131 214.31 235.131L229.96 211.391L226.35 216.871L233.2 235.131C233.2 235.131 241.54 234.901 249.19 232.421C255.12 230.491 260.19 225.861 262.18 223.871C263.15 226.961 264.72 232.011 266.1 236.721C260.32 238.951 247.05 243.961 240.58 245.591C232.16 247.711 226.35 245.591 226.35 245.591L224.29 231.811L214.24 246.531C214.24 246.531 207.99 247.181 195.5 244.001C190.85 242.821 187.27 241.091 184.59 239.381H184.6Z" fill="#0F0F4C"/>
<path d="M228.63 251.41C227.94 251.64 226.909 252.65 226.329 256.5C226.309 256.63 226.279 256.83 226.229 257.09C226.729 252.94 227.869 249.24 230.469 250.81C235.709 253.99 241.389 263.88 242.499 274.84C243.609 285.79 244.469 319.83 244.469 323C244.469 326.18 241.239 361.16 242.309 381.3C243.389 401.44 248.789 417.19 255.789 420.8C252.769 421.31 249.68 421.91 247.46 422.51C241.6 424.09 234.24 426.01 234.24 426.01C234.24 426.01 233.889 409.62 233.779 407.13C233.659 404.64 229.989 368.36 229.299 359.88C228.609 351.4 230.789 341.95 231.139 340.48C231.489 339.01 231.599 327.14 232.399 325.9C233.209 324.66 234.009 316.25 234.009 316.25C234.009 316.25 232.179 303 231.719 294.86C231.259 286.72 229.32 251.19 228.63 251.41V251.41Z" fill="#0F0F4C"/>
<path d="M205.05 426.01C205.05 426.01 205.05 422.62 200.45 419.34C195.85 416.06 178.61 424.09 178.61 424.09C178.61 424.09 176.31 416.86 176.31 415.05C176.31 413.24 177.57 409.62 177.57 409.62C177.57 409.62 179.18 354.66 179.87 347.65C180.56 340.64 185.85 319.3 187 313.09C188.15 306.87 184.49 267.47 184.26 263.62C184.03 259.78 181.96 249.38 181.96 249.38C181.96 249.38 185.61 236.29 190.63 229.75C192.72 230.86 196.96 232.99 200.98 234.28L201.13 235.63C201.13 235.63 193.67 254.44 192.95 267.46C192.23 280.48 198.48 316.63 195.96 323.7C193.45 330.77 185.51 408.14 188.42 413.79C191.32 419.44 193.81 416.62 199.2 413.79C202.03 412.31 205.54 417.03 208.25 421.86C208.31 422.38 208.39 422.76 208.49 422.94C209.41 424.64 205.04 425.99 205.04 425.99L205.05 426.01Z" fill="#0F0F4C"/>
<path d="M192.9 233.37L196.32 238.95C196.32 238.95 196.08 247.98 182.15 250.76L179.8 246.97L192.91 233.38L192.9 233.37Z" fill="#E6E6E6"/>
<path d="M181.539 97.9498C188.259 110.64 187.329 128.5 184.789 135.73C182.239 142.96 170.539 173.71 170.539 173.71C170.539 173.71 170.789 175.97 170.839 177.55C170.889 179.13 170.539 181.39 170.539 181.39C170.539 181.39 174.479 183.82 174.219 186.11C173.959 188.4 173.789 190.6 173.789 190.6C173.789 190.6 184.129 212.4 186.299 217.49C188.469 222.58 193.689 232.84 193.689 232.84C193.689 232.84 195.079 239.28 190.469 243.69C185.869 248.1 179.519 248.27 179.519 248.27C179.519 248.27 151.889 207.59 148.069 201.66C144.249 195.72 143.029 190.81 143.029 189.96C143.029 189.11 159.009 131.94 161.269 123.97C163.529 116 165.259 98.2198 177.189 96.0498C181.249 95.3098 181.539 97.9498 181.539 97.9498V97.9498Z" fill="#3F3093"/>
<path d="M174.599 222.55C174.599 213.01 156.949 190.92 157.759 182.97C158.449 176.22 179.689 140.69 186.089 130.11C185.759 132.34 185.309 134.26 184.789 135.74C182.239 142.97 170.539 173.72 170.539 173.72C170.539 173.72 170.789 175.98 170.839 177.56C170.889 179.14 170.539 181.4 170.539 181.4C170.539 181.4 174.479 183.83 174.219 186.12C173.959 188.41 173.789 190.61 173.789 190.61C173.789 190.61 184.129 212.41 186.299 217.5C188.469 222.59 193.689 232.85 193.689 232.85C193.689 232.85 195.079 239.29 190.469 243.7C185.869 248.11 179.519 248.28 179.519 248.28C179.519 248.28 169.919 234.24 161.639 221.75C168.139 224.34 174.599 226.43 174.599 222.55V222.55Z" fill="#201775"/>
<path d="M247.73 422.51C253.3 421.01 264.26 419.5 266.11 419.36C266.51 420 266.94 420.66 267.3 421.18C264.42 421.73 258.71 423.16 257.12 426.01C254.96 429.87 272.03 432.8 276.16 432.22C278.59 431.88 284.13 430.99 288.28 430.32C289.54 431.83 290.56 433.3 290.56 433.3C290.56 433.3 279.01 436.69 270.73 435.28C262.29 433.84 263.4 433.47 255.3 432.53C247.2 431.6 236.16 434.31 236.25 431.68C236.29 430.43 236.7 427.76 237.12 425.31C239.79 424.61 244.04 423.48 247.71 422.49L247.73 422.51Z" fill="#4C1605"/>
<path d="M190.869 438.741C185.039 436.381 178.579 432.281 178.579 431.441C178.579 430.541 178.889 426.551 179.089 423.991C181.099 423.081 196.409 416.281 200.709 419.341C205.309 422.621 205.309 426.011 205.309 426.011C205.309 426.011 205.329 426.011 205.359 425.991C205.539 427.561 205.709 429.171 205.799 430.421C204.479 427.431 202.189 424.531 198.199 424.041C189.579 422.981 188.239 432.791 189.219 435.621C189.479 436.371 190.099 437.501 190.869 438.731V438.741Z" fill="#4C1605"/>
<path d="M184.01 40.92C183.53 43.37 183.38 45.88 183.56 48.37L183.6 48.89C183.86 51.9 183.72 54.92 183.27 57.91C181.84 57.52 180.34 56.63 178.85 55.01C174.92 50.74 175.57 43.35 179.86 41.3C181.49 40.53 182.9 40.56 184.02 40.9C184.02 40.91 184.02 40.92 184.02 40.93L184.01 40.92Z" fill="#A16552"/>
<path d="M184.01 40.92C183.53 43.37 183.38 45.88 183.56 48.37L183.6 48.89C183.86 51.9 183.72 54.92 183.27 57.91C181.84 57.52 180.34 56.63 178.85 55.01C174.92 50.74 175.57 43.35 179.86 41.3C181.49 40.53 182.9 40.56 184.02 40.9C184.02 40.91 184.02 40.92 184.02 40.93L184.01 40.92Z" fill="#F5DCB4"/>
<path d="M251.169 49.5798C249.939 51.4098 248.579 52.5098 247.229 53.1098C246.339 50.2298 245.739 47.2598 245.549 44.2398L245.509 43.7198C245.309 41.2198 244.779 38.7598 243.939 36.3898C244.999 35.8798 246.389 35.6398 248.119 36.1598C252.669 37.5498 254.419 44.7498 251.169 49.5698V49.5798Z" fill="#A16552"/>
<path d="M251.169 49.5798C249.939 51.4098 248.579 52.5098 247.229 53.1098C246.339 50.2298 245.739 47.2598 245.549 44.2398L245.509 43.7198C245.309 41.2198 244.779 38.7598 243.939 36.3898C244.999 35.8798 246.389 35.6398 248.119 36.1598C252.669 37.5498 254.419 44.7498 251.169 49.5698V49.5798Z" fill="#F5DCB4"/>
<path d="M237.63 53.9198C236.48 56.0598 236.31 58.6099 237.26 60.8599C237.98 62.5499 238.65 64.4699 238.76 65.9299C239.56 76.6099 230.09 86.0299 217.6 86.9699C205.11 87.9099 194.34 80.0099 193.54 69.3199C193.43 67.8599 193.81 65.8599 194.27 64.0799C194.88 61.7199 194.33 59.2099 192.87 57.2699C192.52 56.7999 192.2 56.3099 191.92 55.7999C191.06 54.2499 190.55 52.5199 190.41 50.7499C189.88 43.6599 195.49 37.4499 202.94 36.8899C205.35 36.6999 207.76 37.1398 209.95 38.1698C212.52 39.3798 215.53 39.1599 217.89 37.5799C219.9 36.2399 222.22 35.4498 224.63 35.2798C232.08 34.7198 238.55 40.0199 239.09 47.1099C239.23 48.8799 238.98 50.6599 238.36 52.3299C238.16 52.8799 237.91 53.4099 237.63 53.9299V53.9198Z" fill="#A16552"/>
<path d="M237.63 53.9198C236.48 56.0598 236.31 58.6099 237.26 60.8599C237.98 62.5499 238.65 64.4699 238.76 65.9299C239.56 76.6099 230.09 86.0299 217.6 86.9699C205.11 87.9099 194.34 80.0099 193.54 69.3199C193.43 67.8599 193.81 65.8599 194.27 64.0799C194.88 61.7199 194.33 59.2099 192.87 57.2699C192.52 56.7999 192.2 56.3099 191.92 55.7999C191.06 54.2499 190.55 52.5199 190.41 50.7499C189.88 43.6599 195.49 37.4499 202.94 36.8899C205.35 36.6999 207.76 37.1398 209.95 38.1698C212.52 39.3798 215.53 39.1599 217.89 37.5799C219.9 36.2399 222.22 35.4498 224.63 35.2798C232.08 34.7198 238.55 40.0199 239.09 47.1099C239.23 48.8799 238.98 50.6599 238.36 52.3299C238.16 52.8799 237.91 53.4099 237.63 53.9299V53.9198Z" fill="#F5DCB4"/>
<path d="M204.82 70.8899C204.1 70.9399 203.56 71.5699 203.62 72.2899C203.62 72.3499 203.63 72.3999 203.64 72.4599C204.87 78.1199 210.63 82.1399 217.21 81.6499C223.79 81.1599 228.88 76.3199 229.26 70.5399C229.3 69.8199 228.75 69.2099 228.03 69.1699C227.97 69.1699 227.92 69.1699 227.86 69.1699L204.83 70.8999L204.82 70.8899Z" fill="#4E3F3F"/>
<path d="M209.609 80.0705C214.369 82.5705 220.149 82.1405 224.489 78.9505C223.319 75.7905 220.389 76.7605 216.869 77.0205C213.349 77.2805 210.309 76.7605 209.619 80.0605L209.609 80.0705Z" fill="#E6646E"/>
<path d="M249.47 33.6702C246.72 32.8302 244.63 33.5402 243.21 34.5102C242.76 33.4602 242.27 32.4402 241.71 31.4502C241.31 30.7202 240.88 30.0002 240.42 29.3002C235.76 22.1102 228.41 16.4102 220.31 14.3802L219.83 10.1402L214.95 13.5902C214.74 13.5902 214.54 13.5802 214.33 13.5702C213.95 13.5702 213.57 13.5702 213.19 13.5702L212.2 10.4102L211.91 9.49023C211.66 9.51023 211.41 9.54023 211.16 9.57023C206.43 10.3102 204.38 14.8102 204.07 15.5802C196.37 18.8002 189.95 25.5302 186.42 33.3302C186.07 34.0902 185.76 34.8602 185.47 35.6502C185.07 36.7202 184.73 37.8002 184.45 38.9002C184.39 38.8702 184.32 38.8402 184.25 38.8102C182.71 38.1302 180.62 37.8202 178.13 39.0102C172.67 41.6202 171.84 51.0002 176.83 56.4302C178.87 58.6402 180.92 59.7802 182.85 60.2102C182.83 60.3202 182.82 60.4302 182.8 60.5302C182.58 62.1102 182.52 63.7102 182.64 65.3002C183.47 76.3302 192.31 85.2102 204.29 88.5102C207.1 89.2802 209.99 89.7302 212.9 89.8602C214.41 89.9302 215.93 89.9102 217.44 89.8102L217.8 89.7802C236.1 88.4102 250.02 75.2202 248.91 60.3302C248.79 58.7402 248.5 57.1702 248.05 55.6402C248.02 55.5402 247.99 55.4302 247.95 55.3302C249.79 54.6102 251.65 53.1802 253.33 50.6902C257.46 44.5802 255.24 35.4302 249.46 33.6702H249.47ZM184.01 40.9202C183.53 43.3702 183.38 45.8802 183.56 48.3702L183.6 48.8902C183.86 51.9002 183.72 54.9202 183.27 57.9102C181.84 57.5202 180.34 56.6302 178.85 55.0102C174.92 50.7402 175.57 43.3502 179.86 41.3002C181.49 40.5302 182.9 40.5602 184.02 40.9002C184.02 40.9102 184.02 40.9202 184.02 40.9302L184.01 40.9202ZM238.35 52.3302C238.15 52.8802 237.91 53.4102 237.63 53.9302C236.48 56.0702 236.31 58.6202 237.26 60.8702C237.98 62.5602 238.65 64.4802 238.76 65.9402C239.56 76.6202 230.09 86.0402 217.6 86.9802C205.11 87.9202 194.34 80.0202 193.53 69.3302C193.42 67.8702 193.8 65.8702 194.26 64.0902C194.87 61.7302 194.32 59.2202 192.86 57.2802C192.51 56.8102 192.19 56.3202 191.91 55.8102C191.05 54.2602 190.54 52.5302 190.4 50.7602C189.87 43.6702 195.48 37.4602 202.93 36.9002C205.34 36.7102 207.75 37.1502 209.94 38.1802C212.51 39.3902 215.52 39.1702 217.88 37.5902C219.89 36.2502 222.21 35.4602 224.62 35.2902C232.07 34.7302 238.54 40.0302 239.08 47.1202C239.22 48.8902 238.97 50.6702 238.35 52.3402V52.3302ZM251.17 49.5802C249.93 51.4102 248.58 52.5102 247.23 53.1102C246.34 50.2302 245.74 47.2602 245.55 44.2402L245.51 43.7202C245.31 41.2202 244.78 38.7602 243.94 36.3902C245 35.8802 246.39 35.6402 248.12 36.1602C252.67 37.5502 254.42 44.7502 251.17 49.5702V49.5802Z" fill="#A16552"/>
<path d="M211.386 60.1605C210.821 59.952 210.194 60.2408 209.986 60.8056C209.777 61.3703 210.066 61.9971 210.631 62.2056L213.23 63.1648C213.794 63.3732 214.421 63.0844 214.63 62.5197C214.838 61.9549 214.549 61.3281 213.984 61.1197L211.386 60.1605Z" fill="#4E3F3F"/>
<path d="M219.767 59.5365L217.341 60.8727C216.813 61.163 216.621 61.8259 216.912 62.3532C217.202 62.8806 217.865 63.0727 218.392 62.7823L220.819 61.4461C221.346 61.1557 221.538 60.4929 221.248 59.9655C220.957 59.4382 220.294 59.2461 219.767 59.5365Z" fill="#4E3F3F"/>
<path d="M203.52 54.9398C201.38 55.0998 199.52 53.5898 199.37 51.5598L199.28 50.3398C199.13 48.3098 200.74 46.5398 202.88 46.3798C205.02 46.2198 206.88 47.7298 207.03 49.7598L207.12 50.9798C207.27 53.0098 205.66 54.7798 203.52 54.9398Z" fill="#4E3F3F"/>
<path d="M202.88 46.37L203.2 50.65C203.28 51.66 204.2 52.42 205.27 52.34C206.34 52.26 207.15 51.37 207.07 50.36L207.02 49.75C206.87 47.72 205.01 46.21 202.87 46.37H202.88Z" fill="#5D5360"/>
<path d="M205.154 53.0422C205.864 52.9889 206.399 52.3965 206.348 51.7191C206.298 51.0417 205.68 50.5358 204.97 50.589C204.26 50.6423 203.725 51.2347 203.776 51.9121C203.826 52.5895 204.444 53.0955 205.154 53.0422Z" fill="white"/>
<path d="M226.759 53.2005C224.619 53.3605 222.759 51.8505 222.609 49.8205L222.519 48.6005C222.369 46.5705 223.979 44.8005 226.119 44.6405C228.259 44.4805 230.119 45.9905 230.269 48.0205L230.359 49.2405C230.509 51.2705 228.899 53.0405 226.759 53.2005Z" fill="#4E3F3F"/>
<path d="M226.11 44.6298L226.43 48.9098C226.51 49.9198 227.43 50.6798 228.5 50.5998C229.57 50.5198 230.38 49.6298 230.3 48.6198L230.25 48.0098C230.1 45.9798 228.24 44.4698 226.1 44.6298H226.11Z" fill="#5D5360"/>
<path d="M228.388 51.299C229.099 51.2457 229.634 50.6534 229.583 49.9759C229.532 49.2985 228.915 48.7926 228.204 48.8459C227.494 48.8992 226.959 49.4915 227.01 50.1689C227.061 50.8463 227.678 51.3523 228.388 51.299Z" fill="white"/>
<path opacity="0.35" d="M212.21 10.42C211.34 10.4 209.54 11.91 207.45 14.44C206.93 15.07 206.39 15.77 205.84 16.52C201.78 22.08 197.24 30.7 196.1 39.28C194.2 53.69 194.23 70.24 200.14 78.97C205.16 86.37 212.92 89.87 212.92 89.87C210.01 89.75 207.12 89.29 204.31 88.52C192.34 85.22 183.49 76.34 182.66 65.31C182.54 63.72 182.59 62.12 182.82 60.54C182.83 60.43 182.85 60.32 182.87 60.22C180.94 59.79 178.89 58.65 176.85 56.44C171.86 51.01 172.68 41.63 178.14 39.02C180.62 37.84 182.72 38.14 184.26 38.82C184.33 38.85 184.4 38.88 184.46 38.91C184.74 37.81 185.09 36.72 185.48 35.66C185.77 34.88 186.09 34.11 186.43 33.34C189.96 25.54 196.38 18.81 204.08 15.59C204.39 14.82 206.44 10.32 211.17 9.58C211.41 9.54 211.66 9.51 211.92 9.5L212.21 10.42V10.42Z" fill="#4E3F3F"/>
<path d="M226.019 151.1L229.919 209.55L228.639 210.93L224.289 149.7L226.019 151.1Z" fill="#17176D"/>
<path d="M352.599 115.46C357.47 115.46 361.419 111.511 361.419 106.64C361.419 101.769 357.47 97.8203 352.599 97.8203C347.728 97.8203 343.779 101.769 343.779 106.64C343.779 111.511 347.728 115.46 352.599 115.46Z" fill="#FFD54F"/>
<path d="M352.6 113.181C356.212 113.181 359.14 110.253 359.14 106.641C359.14 103.029 356.212 100.101 352.6 100.101C348.988 100.101 346.06 103.029 346.06 106.641C346.06 110.253 348.988 113.181 352.6 113.181Z" fill="#FAF4E6"/>
<path d="M339.37 116.25C344.241 116.25 348.19 112.302 348.19 107.43C348.19 102.559 344.241 98.6104 339.37 98.6104C334.499 98.6104 330.55 102.559 330.55 107.43C330.55 112.302 334.499 116.25 339.37 116.25Z" fill="#FFD54F"/>
<path d="M339.37 113.971C342.982 113.971 345.91 111.043 345.91 107.431C345.91 103.819 342.982 100.891 339.37 100.891C335.758 100.891 332.83 103.819 332.83 107.431C332.83 111.043 335.758 113.971 339.37 113.971Z" fill="#FAF4E6"/>
<path d="M361.26 138.42L324.82 135.16C323.34 135.03 322.25 133.72 322.38 132.24L324.63 107.13C324.76 105.65 326.07 104.56 327.55 104.69L363.99 107.95C365.47 108.08 366.56 109.39 366.43 110.87L364.18 135.98C364.05 137.46 362.74 138.55 361.26 138.42V138.42Z" fill="#B77834"/>
<path d="M325.842 131.742L325.694 133.396L327.776 133.582L327.924 131.929L325.842 131.742Z" fill="#845730"/>
<path d="M354.24 135.941L349.83 135.541L349.98 133.881L354.39 134.281L354.24 135.941ZM345.41 135.151L341 134.751L341.15 133.091L345.56 133.491L345.41 135.151ZM336.58 134.361L332.17 133.961L332.32 132.301L336.73 132.701L336.58 134.361Z" fill="#845730"/>
<path d="M358.823 134.697L358.675 136.351L360.756 136.537L360.905 134.884L358.823 134.697Z" fill="#845730"/>
<path d="M349.18 126.69L365.27 128.13C365.79 128.18 366.24 127.8 366.28 127.28L367.03 118.91C367.08 118.39 366.7 117.94 366.18 117.9L350.09 116.46C348.54 116.32 347.18 117.46 347.04 119.01L346.63 123.64C346.49 125.18 347.63 126.55 349.18 126.69V126.69Z" fill="#845730"/>
<path d="M352.09 125.031C353.923 125.031 355.41 123.544 355.41 121.711C355.41 119.877 353.923 118.391 352.09 118.391C350.256 118.391 348.77 119.877 348.77 121.711C348.77 123.544 350.256 125.031 352.09 125.031Z" fill="#F9AB6D"/>
<path d="M328.081 106.828L327.933 108.481L330.014 108.668L330.162 107.015L328.081 106.828Z" fill="#845730"/>
<path d="M356.47 111.03L352.06 110.63L352.21 108.97L356.62 109.37L356.47 111.03ZM347.64 110.24L343.23 109.84L343.38 108.18L347.79 108.58L347.64 110.24ZM338.81 109.45L334.4 109.05L334.55 107.39L338.96 107.79L338.81 109.45Z" fill="#845730"/>
<path d="M361.051 109.783L360.903 111.437L362.985 111.623L363.133 109.97L361.051 109.783Z" fill="#845730"/>
<path d="M323.149 116.25C324.869 114.09 326.519 110.27 328.539 111.03C330.559 111.79 331.439 116.13 328.539 119.9C325.639 123.67 322.789 127.54 322.789 127.54L323.149 116.25Z" fill="#A16552"/>
<defs>
<linearGradient id="paint0_linear_731_4304" x1="239.15" y1="459.171" x2="222.01" y2="410.481" gradientUnits="userSpaceOnUse">
<stop stop-color="#575756"/>
<stop offset="1" stop-color="#3C3C3B"/>
</linearGradient>
</defs>
</svg>
