<?xml version="1.0" encoding="UTF-8"?><svg id="Laag_1" xmlns="http://www.w3.org/2000/svg" xmlns:xlink="http://www.w3.org/1999/xlink" viewBox="0 0 500 500"><defs><style>.cls-1{fill:none;}.cls-2{fill:url(#Naamloos_verloop_2);}.cls-3{fill:url(#Naamloos_verloop_4);}.cls-4{clip-path:url(#clippath);}.cls-5{fill:#f3c73c;}.cls-6{fill:#fff;}.cls-7{fill:#ffea8c;}.cls-8{fill:#eda672;}.cls-9{fill:#ffca28;}.cls-10{fill:#ffd770;}.cls-11{fill:#ffd54f;}.cls-12{fill:#ffb300;}.cls-13{fill:#faf4e6;}.cls-14{fill:#fcc490;}.cls-15{fill:#f0b90b;}.cls-16{fill:#fdfbf5;}.cls-17{fill:#999;}.cls-18{fill:#7d551f;}.cls-19,.cls-20{fill:#8c6239;}.cls-21{fill:#911d22;}.cls-22{fill:#b48b08;}.cls-23{fill:#b3b3b3;}.cls-24{fill:#ba9774;}.cls-25{fill:#ac752c;}.cls-26,.cls-27{fill:#a67c52;}.cls-28{fill:#d1ab86;}.cls-29{fill:#e2c39a;}.cls-30{fill:#c69c6d;}.cls-31{fill:#c6a081;}.cls-32{fill:#9b7e61;}.cls-33,.cls-34{fill:#603e26;}.cls-35{fill:#774f2f;}.cls-36{fill:#84552f;}.cls-37{fill:url(#Naamloos_verloop_2-2);}.cls-38{fill:url(#Naamloos_verloop_47);opacity:.67;}.cls-39{opacity:.33;}.cls-34,.cls-20{fill-rule:evenodd;}.cls-27{opacity:.8;}</style><clipPath id="clippath"><circle class="cls-1" cx="250" cy="250" r="169.91"/></clipPath><linearGradient id="Naamloos_verloop_4" x1="394.44" y1="401.57" x2="46.13" y2="35.91" gradientUnits="userSpaceOnUse"><stop offset="0" stop-color="#4c433b"/><stop offset=".58" stop-color="#5f5449"/><stop offset=".69" stop-color="#695b4e"/><stop offset=".88" stop-color="#85715d"/><stop offset="1" stop-color="#9b8269"/></linearGradient><linearGradient id="Naamloos_verloop_47" x1="374.58" y1="390.54" x2="3.94" y2="1.44" gradientUnits="userSpaceOnUse"><stop offset="0" stop-color="#1b4332"/><stop offset=".58" stop-color="#2d6a4f"/><stop offset=".73" stop-color="#285f47"/><stop offset=".99" stop-color="#1b4332"/><stop offset="1" stop-color="#1b4332"/></linearGradient><linearGradient id="Naamloos_verloop_2" x1="158.35" y1="248.86" x2="158.35" y2="266.6" gradientUnits="userSpaceOnUse"><stop offset="0" stop-color="#666"/><stop offset="1" stop-color="#333"/></linearGradient><linearGradient id="Naamloos_verloop_2-2" x1="110.69" y1="248.86" x2="110.69" y2="266.6" xlink:href="#Naamloos_verloop_2"/></defs><g class="cls-4"><circle class="cls-3" cx="251.6" cy="251.61" r="177.95"/><path class="cls-38" d="M434.61,179.09c-31.43,7.23-59.26-3.61-108.76-22.4s-18.07-39.02-71.9-49.14c-53.84-10.12-76.96,2.53-116.71-16.98-39.75-19.51-73.71,34.33-73.71,34.33l20.96,235.58,49.14,38.52,150.62-62.58,162.65-57.6-12.28-99.72Z"/><path class="cls-30" d="M238.45,295.96s-5.03,.06-6.66,1.87-.24,1.32-4.03,1.99-9.33,4.58-12.95,10.36c-3.61,5.78-1.57,4.03-3.79,3.91s-10.9,1.63-14.27,2.29-43.78,3.19-43.78,3.19l-20.06,16.5,.9,12.47,93.58-16.08,6.68-22.22,4.37-14.27Z"/><path class="cls-30" d="M174.35,310.15s-2.54-2.61-4.23-3.91-11.02,.38-11.02,.38l-12.59,11.44,3.01,10.12,2.92,5.18,14.42,1.32,3.2-9.94,4.28-14.6Z"/><path class="cls-14" d="M272.8,256.34c-2.95-3.31-4.28-4.22-8.43-5.6s-5.18-.72-11.14-6.32c-5.96-5.6,3.73-11.08,9.79-10.36,6.05,.72,12.68,3.97,14.78,7.17,1.81,2.05,1.52,.78,3.83-.96s14.3-11.92,16.04-13.85,7.53-6.74,14.87-8.31c7.35-1.57,9.51-2.71,12.28-.54s3.07,3.73,.72,6.87-2.17,3.67-5.12,5.12-6.74,3.25-6.74,3.25c0,0,1.11,1.02,8.16,.06,6.83-.84,7.66-1.29,12.77,.02,5.1,1.31,14.5,4.79,21.54,5.37s6.32,6.5,5.74,7.99-4.88,3.3-11.79,3.43c-2.17,0-2.85-.14-2.85-.14,0,0,4.13,3.19,7.62,7.41s10.36,7.83,11.86,9.45,3.25,2.77,1.39,5.12-4.88,2.05-7.65,1.08-11.14-4.7-11.14-4.7c0,0,1.99,5.96,3.97,8.85s4.64,8.13,5.96,9.94,.6,4.16-2.47,4.16-6.87-1.99-10.18-5.9-9.57-12.71-9.57-12.71c0,0-3.16,.15-5.78,.3-2.62,.15-7.17,3.55-12.5,4.97s-2.95-1.69-9.18,4.55c-6.23,6.23-14.18,12.47-19.33,23.12-5.15,10.66-63.77,19.51-63.77,19.51,0,0-.81-10.39,1.72-15.09s6.41-11.83,12.38-14.99c5.96-3.16,32.61-31.62,34.33-36.31-1.35-1.63-2.11-1.96-2.11-1.96Z"/><g><path class="cls-8" d="M306.22,280.07c1.64,.37,2.9,.98,3.81,1.55,1.56-1.55,2.54-2.46,3.23-2.99-1.54-.46-5.69-1.9-8.73-4.89-3.79-3.73-8.91-3.31-16.86-3.97-7.95-.66-10.6-10.3-12.77-11.47-.76,2.08-6.41,8.82-12.98,15.95,1.82-.63,4.24-1.14,7.02-.87,6.14,.6,10.06,4.88,20.53,5.6,10.48,.72,13.01,.24,16.74,1.08Z"/><path class="cls-8" d="M361.26,270.07c-3.64-1.08-5-.39-7.56-2.29-2.56-1.9-4.61-5.63-8.01-7.05-3.4-1.42-6.32-2.23-8.64-3.43s-2.41-2.29-3.73-1.51c-1.32,.78,.72,2.14,3.85,4.09,3.13,1.96,4.82,1.35,7.35,4.09,2.53,2.74,4.82,3.91,4.82,3.91,0,0,8.37,3.73,11.14,4.7,1.31,.46,2.67,.76,3.94,.71-.12-1.22-.2-2.36-3.16-3.24Z"/><path class="cls-8" d="M319.23,263.14c4.73,.3,6.8,1.32,4.76-.48-2.05-1.81-3.28-5.63-5.24-7.77-1.96-2.14-5.24-4.94-10.63-5.78-5.39-.84-4.61,.03-8.25-.69-3.64-.72-3.28-1.29-4.25-1.81s-1.39-.45-1.72,0c-.82,1.12-.36,1.05,1.9,3.67,2.26,2.62,5.27,4.65,5.99,7.82s.75,5.82,4.58,6.24c3.82,.42,8.13-1.51,12.86-1.2Z"/><path class="cls-8" d="M347.43,285.84c-1.1-1.84-2.75-4.92-3.21-7.4-.69-3.76-.24-3.22-2.59-4.94-2.35-1.72-3.91-2.92-5.03-3.43-1.11-.51-1.05,.54-.6,1.2s1.05,.96,1.05,.96c0,0,6.26,8.79,9.57,12.71,.26,.31,.53,.61,.8,.89Z"/><path class="cls-8" d="M347.26,249.54s.43,.08,1.67,.12c.41-.8,1.07-2.67-.8-3.82-2.44-1.51-9.06-2.29-12.01-3.31-2.95-1.02-3.13-1.35-10.18-1.2-7.05,.15-9.03,1.69-6.08,2.89,2.95,1.2,5.18,1.11,9.12,1.26,3.94,.15,7.08,2.02,10.63,2.92,3.55,.9,7.65,1.14,7.65,1.14Z"/><path class="cls-8" d="M303,238.99c4-.75,10.69-6.2,10.69-6.2,0,0,3.79-1.81,6.74-3.25,.6-.29,1.07-.55,1.45-.8,.21-1.09,.2-2.63-.35-3.17-.7-.7-2.55-.41-5.8,.97-3.25,1.38-10.55,4.58-12.62,5.58-2.08,.99-.54,1.9-3.14,3.97-2.6,2.08-.97,3.64,3.03,2.89Z"/></g><path class="cls-27" d="M222.33,323.79s-1.81-6.38,1.93-13.01c2.53-4.76,.18-1.87-1.81,1.69s-4.46,7.71-3.85,12.53,3.73-1.2,3.73-1.2Z"/><path class="cls-27" d="M210.47,327.94s-1.83-5.33,1.86-13.53c-.29-1.58-1.43,2.63-3.12,4.86s-2.65,2.35-4.4,8.19,5.66,.48,5.66,.48Z"/><polygon class="cls-30" points="109.18 314.06 96.41 323.61 98.4 348.54 121.88 338.34 124.78 313.46 109.18 314.06"/><g><path class="cls-35" d="M225.2,224.78s-18.34,21.74-38.17,26.06c-.35-6.41,0-19.6,0-19.6l29.87-6.46h8.3Z"/><path class="cls-14" d="M156.45,333.33s17.39-1.59,21.04,2.74-9.66,34.08-9.66,34.08l-54.56,10.24-14.31-21.8,5.27-19.03,9.38-1.78"/><path class="cls-14" d="M156.45,333.33l-3.95-4.36c-.11-1.88,.35-9.19,.77-15.02-6.23,1.89-12.19,3.41-15.82,3.88-.25,.09-.51,.15-.74,.12-.04,0-.09-.01-.12-.01-.04,0-.08,.01-.12,.01-.24,.02-.49-.04-.74-.12-3.94-.51-10.6-2.25-17.38-4.36,.59,6.5,1.24,14.57,.9,15.7-.33,1.11-3.23,5.3-5.62,8.63l20.91,23.86s5.74-5.73,9.23-9.22c3.49-3.49,12.68-19.09,12.68-19.1Z"/><path class="cls-8" d="M152.5,328.96c-.11-1.88,.35-9.19,.77-15.02-6.23,1.89-12.19,3.41-15.82,3.88-.25,.09-.51,.15-.74,.12-.04,0-.09-.01-.12-.01-.04,0-.08,.01-.12,.01-.24,.02-.49-.04-.74-.12-3.94-.51-10.6-2.25-17.38-4.36,.52,5.72,1.09,12.66,.99,15,5.17,4.57,12.18,9.19,18.81,8.25,5.34-.76,10.88-3.54,15.5-6.48l-1.13-1.26Z"/><path class="cls-8" d="M121.88,338.34c.95-.75,2.52-.33,3.5,.92,.99,1.25,1.02,2.88,.07,3.62-.95,.75-2.52,.33-3.5-.92s-1.02-2.88-.07-3.62Z"/><path class="cls-17" d="M180.65,204.96s3.42-2.39,3.9-5c0,0,1,3.85-1.12,5-2.12,1.15-3.85,1.35-3.85,1.35"/><path class="cls-14" d="M83.43,234.28c-2.06,13.99,2.07,52.32,12.45,66.26,4.36,5.86,8.83,18.85,16.77,21.13,5.39,4.68,16.8,4.32,22.34,4.32,6.05,0,18.3-.51,21.76-4.32,6.4-1.76,14-16.49,17.18-22.31,11.52-21.09,13.02-67.32,10.45-82.95-2.57-15.63-31.53-35.89-55.49-31.97-28.14,4.6-40.32,14.85-45.45,49.83Z"/><path class="cls-8" d="M142.14,277.5c.02-.15-.04-.3-.19-.44-1.57-.52-4.41-.69-7.43-.63-3.02-.06-5.86,.11-7.43,.63-.15,.14-.21,.29-.19,.44,0,.17,.09,.36,.2,.54,.93,.63,2.16,1.26,3.68,1.82,.04,.02,.08,.04,.12,.06,1,.46,2.11,.94,3.39,.93,.08,0,.15,0,.23,0,.08,0,.15,0,.23,0,1.29,0,2.4-.47,3.39-.93,.04-.02,.08-.04,.12-.06,1.52-.56,2.75-1.19,3.68-1.82,.11-.17,.21-.37,.2-.54Z"/><path class="cls-14" d="M182.16,259.32c1.47-2.13,3.58-3.87,6.04-4.61,2.46-.74,5.27-.42,7.36,1.1,2.65,1.94,3.78,5.49,3.62,8.8-.16,3.31-1.42,6.46-2.71,9.5-1.92,4.5-4.11,9.14-7.97,12.1-3.86,2.96-9.88,3.59-13.29,.11l6.96-27Z"/><path class="cls-14" d="M85.27,259.32c-1.47-2.13-3.58-3.87-6.04-4.61-2.46-.74-5.27-.42-7.36,1.1-2.65,1.94-3.78,5.49-3.62,8.8,.16,3.31,1.42,6.46,2.71,9.5,1.92,4.5,4.11,9.14,7.97,12.1,3.86,2.96,9.88,3.59,13.29,.11l-6.96-27Z"/><path class="cls-23" d="M85.09,266.7s-4.62-17.03-4.8-32.69c-.08-6.87,6.08-30.32,9.2-30.33,2.26,0,12.27,11.37,12.94,14.43,.46,2.11-13.63,27.85-13.48,31.46,.57,13.08,.63,19.2,.63,19.2l-4.48-2.07Z"/><path class="cls-23" d="M183.76,266.7s4.62-17.03,4.8-32.69c.08-6.87-6.08-30.32-9.2-30.33-2.26,0-12.27,11.37-12.94,14.43-.46,2.11,13.63,27.85,13.48,31.46-.57,13.08-.63,19.2-.63,19.2l4.48-2.07Z"/><path class="cls-8" d="M113.28,306.24c-.18-4.7-.35-9.4-.53-14.11-.97,.89-1.05,2.38-1,3.71,.12,3.51,.64,7.01,1.53,10.4Z"/><path class="cls-8" d="M156.14,306.24c.18-4.7,.35-9.4,.53-14.11,.97,.89,1.05,2.38,1,3.71-.12,3.51-.64,7.01-1.53,10.4Z"/><path class="cls-6" d="M154.65,249.64c-3.43,.77-6.24,2.75-7.44,6.3-.72,2.14,0,9.58,3.13,12.48,1.3,1.2,3.13,2.27,4.88,2.48,3.18,.37,8.03,.6,10.63-1.58,2.29-1.93,3.54-4.78,3.94-7.72,.32-2.33,.58-4.8-.51-6.88-1.87-3.55-6.16-4.87-10.01-5.85l-4.62,.78Z"/><path class="cls-2" d="M154.56,248.86h7.42c.77,0,1.48,.75,1.76,1.9,.96,4.07,.55,8.78-1.2,12.33-.8,1.62-1.93,3.06-3.31,3.42-1.43,.37-2.92-.49-4.02-1.82-2.64-3.22-3.18-8.77-2.48-13.56,0,0,0-.02,0-.02,.2-1.33,.97-2.25,1.83-2.25Z"/><path class="cls-6" d="M114.39,249.64c3.43,.77,6.24,2.75,7.44,6.3,.72,2.14,0,9.58-3.13,12.48-1.3,1.2-3.13,2.27-4.88,2.48-3.18,.37-8.03,.6-10.63-1.58-2.29-1.93-3.54-4.78-3.94-7.72-.32-2.33-.58-4.8,.51-6.88,1.87-3.55,6.16-4.87,10.01-5.85l4.62,.78Z"/><path class="cls-37" d="M114.48,248.86h-7.42c-.77,0-1.48,.75-1.76,1.9-.96,4.07-.55,8.78,1.2,12.33,.8,1.62,1.93,3.06,3.31,3.42,1.43,.37,2.92-.49,4.02-1.82,2.64-3.22,3.18-8.77,2.48-13.56,0,0,0-.02,0-.02-.2-1.33-.97-2.25-1.83-2.25Z"/><path class="cls-17" d="M115.73,229.19c-7.79-.48-15.67,.73-22.97,3.53,1.63,3.41,1.71,4.2,3.96,6.55,7.17-2.3,14.69-3.46,22.21-3.42,.06-3.4,.12-2.73,.18-6.13-.75,.56-1.5,1.12-2.24,1.68-.38-.73-.76-1.47-1.13-2.2Z"/><path class="cls-8" d="M140.35,302.63c-3.87,.63-7.78,.68-11.19,0,1.49,1.32,3.54,2.12,5.51,1.87,1.98-.24,3.67-.36,5.67-1.87Z"/><path class="cls-17" d="M151.01,229.19c7.79-.48,15.67,.73,22.97,3.53-1.63,3.41-1.58,3.83-3.96,6.55-7.17-2.3-14.69-3.46-22.21-3.42-.06-3.4-.12-2.73-.18-6.13,.75,.56,1.5,1.12,2.24,1.68,.38-.73,.75-1.47,1.13-2.2Z"/><path class="cls-17" d="M170.27,259.26c-.86-3.68-3.14-6.53-8.03-8.71-2.95-1.32-6.94-1.27-9.94-.06-2.01,.81-4.15,3.04-5.37,6.22-.38,1-1.46,.86-1.59,.24,.36-6.11,5.81-9.67,9.52-10.48,5.59-1.2,11.99,1.21,15.43,6.68,1.03,1.64,1.55,3.49,1.54,4.68,0,1.73-1.35,2.35-1.56,1.42Z"/><path class="cls-17" d="M98.76,259.26c.86-3.68,3.14-6.53,8.03-8.71,2.95-1.32,6.94-1.27,9.94-.06,2.01,.81,4.15,3.04,5.37,6.22,.38,1,1.46,.86,1.59,.24-.36-6.11-5.81-9.67-9.52-10.48-5.59-1.2-11.99,1.21-15.43,6.68-1.03,1.64-1.55,3.49-1.54,4.68,0,1.73,1.35,2.35,1.56,1.42Z"/><path class="cls-21" d="M186.72,255.3l-2.46-5.27c-.91-2.17-3.74-3.89-13.04-5.22-5.37-.77-12.4-1.26-17.9-1.26-1.59,0-2.95,.04-4.05,.12-5.28,.39-8.62,1.93-10.2,4.7,0,0,0,0,0,.01-.44,.77-1.23,1.26-2.11,1.26h-4.86c-.88,0-1.67-.5-2.11-1.26,0,0,0,0,0-.01-1.58-2.77-4.92-4.31-10.2-4.7-1.1-.08-2.46-.12-4.05-.12-5.51,0-12.53,.49-17.9,1.26-8.87,1.26-11.85,2.89-12.9,4.92h0s0,0,0,0c-.05,.1-.1,.2-.14,.3l-2.81,6s-.16,2.79,1.53,3.62l1.43-3.36c.43,1.82,1.17,4.19,2.38,7.3,.82,2.1,3.65,9.06,5.7,10.68,.91,.72,2.49,1.48,9.81,1.48h0c5.17,0,11.28-.4,13.9-.92,5.09-1,10.03-11.05,11.94-15.4,.54-1.1,1.28-2.6,1.75-4.27,.29-1.03,1.23-1.74,2.3-1.74h3.57c1.07,0,2.01,.71,2.3,1.74,.47,1.67,1.21,3.17,1.75,4.27,1.91,4.35,6.85,14.4,11.94,15.4,2.62,.51,8.73,.92,13.9,.92h0c7.33,0,8.91-.76,9.81-1.48,2.05-1.62,4.88-8.59,5.7-10.68,1.21-3.11,1.95-5.48,2.38-7.3l1.43,3.36c1.68-.83,1.18-4.35,1.18-4.35Zm-60.63,2.93s-5.7,12.98-9.9,13.8c-4.2,.82-19.57,1.44-21.4,0-1.82-1.44-8.52-16.93-7.44-20.71,1.08-3.77,24.39-5.38,32.21-4.8,11.23,.83,8.89,6.92,6.53,11.71Zm48.16,13.8c-1.82,1.44-17.19,.82-21.4,0-4.2-.82-9.9-13.8-9.9-13.8-2.36-4.78-4.7-10.88,6.53-11.71,7.82-.58,31.13,1.03,32.21,4.8,1.08,3.77-5.62,19.27-7.44,20.71Z"/><path class="cls-20" d="M82.13,197.3s3.94-27.2,4.64-31.49c.7-4.29,2.34-9.64,14.84-16.41,12.5-6.77,27.3-14.81,27.3-14.81,0,0,6.28-2.65,13.24,.8s34.36,17.72,34.77,17.54,4.4,.32,6.88,14.09c2.48,13.77,4.92,30.56,4.92,30.56l-31.68-.09-40.45-1.55-34.45,1.34"/><path class="cls-33" d="M75.35,222.44s-1.28-.67,0-2.36,3.86-10.84,4.16-12.93-3.21-4.47-1.41-6.46c1.81-1.99,12.64-11.32,27.5-15.7,14.86-4.38,27.6-4.32,43.25-1.67,15.65,2.65,40.89,14.77,40.89,14.77l4.42,21.99-34.63-1.25-72.36,6.97-11.83-3.36Z"/><path class="cls-19" d="M53.37,228.67s45.18-13.85,77.45-15.65c32.27-1.8,63.82,7.28,63.82,7.28l-4.22,7-61.93,15.05-43.21,.41-29.17-3.07-2.74-11.02Z"/><path class="cls-36" d="M53.37,228.67s-6.51-3.78-7.71-3.19c-1.2,.59-8.23,7.69-.28,13.35,7.95,5.66,15.36,7.35,40.62,8.16,25.26,.81,41.03,.52,56.94-3.44,15.91-3.96,43.27-11.35,59.94-15.21,12.96-2.3,18.79-3.02,22.32-3.56,1.06-.16,2.03-.76,2.6-1.67,.96-1.55,1.47-3.89-.16-5.33-2.44-2.15-5.96-3.49-13.92-1.64-7.95,1.85-22.93,4.37-34.46,7.81-11.53,3.45-44.88,14.39-62.67,15.74-17.79,1.36-45.24-.05-51.06-1.33-5.82-1.29-10.8-4.31-12.15-9.69Z"/><path class="cls-34" d="M106.64,174.31s4.4,1.66,8.62-4.31c4.22-5.96,8.81-18.64,8.44-22.58-.37-3.93-.11-5.13-3.95-2.87-3.84,2.25-9.23,6.41-12.1,7.18s-5.74,5.71-6.03,8.21,.09,.28,3.41-1.93,8.29-2.04,7.27,4.57c-1.03,6.61-7.96,11.56-5.65,11.71Z"/><path class="cls-34" d="M158.37,174.31s-4.4,1.66-8.62-4.31-8.81-18.64-8.44-22.58c.37-3.93,.11-5.13,3.95-2.87,3.84,2.25,9.23,6.41,12.1,7.18,2.87,.77,5.74,5.71,6.03,8.21,.29,2.5-.09,.28-3.41-1.93-3.32-2.2-8.29-2.04-7.27,4.57,1.03,6.61,7.96,11.56,5.65,11.71Z"/><path class="cls-8" d="M142.33,300.92c-.56,0-1.13-.04-1.69-.11-7.02-.89-21.47-.77-21.61-.77-1.04,0-1.9-.83-1.91-1.88s.83-1.9,1.88-1.91c.6,0,14.85-.12,22.12,.8,1.11,.14,2.21,.09,3.25-.15,3.29-.76,4.77-1.83,4.93-2.2,.37-.98,1.47-1.47,2.45-1.1,.98,.37,1.47,1.47,1.1,2.45-.96,2.52-4.67,3.86-7.62,4.54-.94,.22-1.9,.33-2.88,.33Z"/></g><path class="cls-26" d="M175.36,335.14l1.48,.75s.95,1.9-.42,3.03c-1.37,1.14-8.14,3.38-10.04,9.4-1.9,6.02-3.11,22.77-3.75,24.72-.64,1.95-3.48,10.73-4.94,12.97-1.51-7.18-2.41-10.97-2.41-10.97l.69-18.79,.95-12.26,7.18-7.82,11.25-1.03Z"/><path class="cls-30" d="M168.11,373.94s-6.12-25.86-6.33-27.66c-.21-1.8-.74-7.5,0-9.3,.74-1.8,8.03-20.39,9.19-24.41,.95-3.17,1.27-4.97,3.38-2.43,2.11,2.54,7.18,14.05,10.56,17.01,2.96,3.38,3.8,5.07,1.48,5.28s-8.98,2.43-12.68,10.56c-3.7,8.14-3.96,37.94-5.61,30.93Z"/><path class="cls-29" d="M358.78,285.99c.16,.25,.31,.46,.44,.64,1.32,1.81,.6,4.16-2.47,4.16-2.03,0-4.37-.87-6.68-2.59l-246.57,62.54,5.63,66.39,344.89,21.21v-176.51l-95.24,24.16Z"/><path class="cls-24" d="M207.46,360.23s-.91-4.58-.88-7.23,1.48-3.97,2.92-4.46,109.48-32.04,118.39-34.69c8.91-2.65,14.81-4.34,16.02-4.34s6.14-.36,9.51,1.69c3.37,2.05,24.69,14.09,29.99,17.22,5.3,3.13,14.09,8.31,16.86,11.56,2.77,3.25,4.09,2.17,2.89,5.3-1.2,3.13-3.13,5.78-5.06,8.13-1.93,2.35-29.21,10.18-41.1,13.67-11.89,3.49-80.18,25.17-85.72,27.34s-16.98,5.66-21.8,4.09c-4.82-1.57-16.5-11.44-22.04-16.86s-19.99-21.44-19.99-21.44Z"/><path class="cls-32" d="M402.26,341.91c-2.03,.2-2.49,1.04-3.83,2.52-1.63,1.8-4.06,2.45-7.54,4.03-3.48,1.58-16.8,7.41-22.63,8.49s-21.15,6.53-25.43,8.1c-4.28,1.57-11.68,4.94-19.27,6.08-7.59,1.14-9.94,3.43-20.72,7.53-10.78,4.09-31.68,9.45-35.96,10.48s-3.97,2.41-6.38,2.59c-2.41,.18-3.85,1.2-8.49,.78s-6.62-3.07-11.44-5.78-9.64-8.13-11.86-11.56c-2.23-3.43-3.67-4.16-6.62-6.99-2.95-2.83-9.64-10.48-12.08-13.61-1.6-2.05-2.57-2.24-3.41-1.91,0,.11-.01,.22-.02,.34-.03,2.65,.88,7.23,.88,7.23,0,0,14.45,16.02,19.99,21.44,5.54,5.42,17.22,15.3,22.04,16.86,4.82,1.57,16.26-1.93,21.8-4.09,5.54-2.17,73.83-23.85,85.72-27.34,11.89-3.49,39.18-11.32,41.1-13.67,1.93-2.35,3.85-5,5.06-8.13,.86-2.25,.43-2.32-.92-3.39Z"/><path class="cls-28" d="M265.03,383c-3.25,1.57-11.15,3.97-15.03,1.81-3.88-2.17-9.9-7.59-16.53-13.49-6.62-5.9-14.57-12.16-13.61-16.38s-.72-4.58,8.07-6.87,39.83-10.72,47.73-14.45c7.91-3.73,21.28-6.39,32.48-9.16,11.2-2.77,30.47-8.43,34.2-9.87,3.73-1.45,6.38,0,10.72,2.17,4.34,2.17,9.64,4.21,13.85,7.7s10.96,8.31,14.33,11.45,4.58,3.25,3.73,7.11c-.84,3.85-2.41,4.34-7.35,6.14s-34.65,8.28-42.14,11.43-16.04,6.04-22.78,6.76c-6.74,.72-19.27,5.9-22.88,7.95-3.61,2.05-6.74,1.57-12.28,2.89-5.54,1.32-12.53,4.82-12.53,4.82Z"/><path class="cls-31" d="M381.25,335.91c-3.37-3.13-10.12-7.95-14.33-11.45-4.22-3.5-9.51-5.54-13.85-7.7-4.34-2.17-6.99-3.61-10.72-2.17-3.73,1.45-23,7.11-34.2,9.87-11.2,2.77-24.57,5.42-32.48,9.16-7.91,3.73-38.94,12.16-47.73,14.45-8.79,2.29-7.11,2.65-8.07,6.87-.35,1.53,.48,3.33,1.99,5.29,2.51-1.63,8.15-5,15.11-8.3,9.15-4.34,40.35-14.21,56.37-17.34,16.02-3.13,39.26-9.27,45.41-10.96,6.14-1.69,6.74-2.9,10.6,.84s4.1,1.93,12.16,7.29c8.07,5.36,9.64,6.65,13.01,10.16,3.37,3.51,6.87,5.79,6.87,5.79h0c2.12-.99,3.03-2.04,3.61-4.69,.84-3.85-.36-3.97-3.73-7.11Z"/><g><g><path class="cls-12" d="M320.19,327.29c5.45,9.43,2.21,21.5-7.22,26.95-.49,.28-.99,.54-1.5,.78-9.18,4.31-20.28,.94-25.44-8-5.45-9.43-2.21-21.5,7.22-26.95,2.01-1.16,4.21-1.96,6.49-2.36,7.92-1.37,16.2,2.21,20.45,9.58Z"/><path class="cls-11" d="M319.39,325.17c5.55,9.61,2.25,21.89-7.35,27.44-.5,.29-1.01,.55-1.53,.8-9.35,4.39-20.65,.96-25.91-8.15-5.55-9.61-2.25-21.89,7.35-27.44,2.04-1.18,4.28-2,6.61-2.4,8.06-1.4,16.5,2.26,20.83,9.75Z"/><path class="cls-13" d="M316.88,326.62c4.75,8.22,1.93,18.74-6.29,23.48-.43,.25-.87,.47-1.31,.68-8,3.76-17.67,.82-22.17-6.97-4.75-8.22-1.93-18.74,6.29-23.48,1.75-1.01,3.67-1.71,5.66-2.05,6.9-1.2,14.12,1.93,17.83,8.35Z"/><path class="cls-9" d="M301.82,337.83s-.8-1.65-3.84-2.22c-4.34-.82-4.99-1.17-2.36-2.17s5.54,0,5.54,0"/><path class="cls-25" d="M299.29,345.13l-.66-.97-1.91,1.3c-.2,.13-.25,.4-.12,.6l.17,.25c.13,.2,.4,.25,.6,.11,0,0,0,0,0,0l1.91-1.3Z"/><path class="cls-18" d="M299.29,345.13l-.33-.49-2.27,1.54,.09,.13c.13,.2,.4,.25,.6,.11,0,0,0,0,0,0l1.91-1.3Z"/><path class="cls-12" d="M306.13,336.57c-.57-.18-1.14-.25-1.74-.27-.57-.02-1.15,.04-1.72,.08-.5,.04-.99,.02-1.47,.19,0,.04,0,.08-.01,.12s0,.08-.01,.12c0,.09-.02,.18-.03,.27,0,.01,0,.02,0,.03,0,.04,0,.08-.02,.11s-.01,.08-.02,.12c-.01,.09-.03,.18-.04,.26-.05,.26-.1,.53-.17,.79-.01,.04-.02,.09-.03,.13-.02,.07-.04,.14-.06,.21-.01,.05-.03,.1-.04,.15s-.03,.1-.04,.15c0,0,0,.02,0,.03-.02,.07-.05,.15-.07,.22,0,.02-.01,.03-.02,.05,0,.03-.02,.06-.03,.09l-.03,.09c-.03,.07-.05,.15-.08,.22-.04,.1-.08,.21-.12,.31-.03,.08-.07,.17-.11,.25,0,.02-.01,.03-.02,.05-.03,.07-.06,.13-.09,.2,0,0,0,0,0,0-.05,.11-.1,.21-.16,.32-.11,.22-.23,.44-.36,.65-.23,.39-.48,.76-.76,1.12-.12,.16-.24,.31-.36,.46h0c-.06,.08-.13,.15-.19,.23-.06,.06-.11,.13-.17,.19-.08,.09-.16,.17-.24,.25h0s-.02,.03-.05,.07c0,.01-.02,.03-.03,.05,0,0,0,.02-.01,.03s0,.02-.02,.03c-.14,.27-.2,.58-.16,.88,0,0,0,.02,0,.03,.04,.2,.11,.39,.23,.55,.06,.1,.14,.19,.22,.27h0c.06,.06,.12,.11,.19,.16,.24,.15,.53,.19,.83,.17,.6-.05,1.23-.36,1.6-.57,3.15-1.89,5.25-5.13,5.67-8.78-.08-.02-.15-.05-.23-.07Z"/><path class="cls-11" d="M302.67,336.38c-.5,.04-.99,.02-1.47,.19,0,.04,0,.08-.01,.12s0,.08-.01,.12,0,.08-.01,.12c0,.05-.01,.1-.02,.15,0,.01,0,.02,0,.03,0,.04,0,.08-.02,.11s-.01,.08-.02,.12-.01,.08-.02,.12-.01,.1-.02,.14c-.01,.08-.03,.16-.05,.24,0,.01,0,.03,0,.04,0,.04-.02,.08-.02,.11-.02,.08-.04,.17-.06,.25-.01,.05-.02,.09-.03,.14s-.02,.09-.03,.13c-.02,.07-.04,.14-.06,.21-.02,.05-.03,.1-.04,.15s-.03,.1-.04,.15c0,0,0,.02,0,.03-.02,.07-.05,.15-.07,.22,0,.02-.01,.03-.02,.05l-.03,.09-.03,.09c-.03,.07-.05,.15-.08,.22-.03,.07-.05,.13-.08,.19-.01,.04-.03,.08-.05,.12-.03,.08-.07,.17-.11,.25,0,.02-.01,.03-.02,.05-.03,.07-.06,.13-.09,.2,0,0,0,0,0,0-.02,.05-.05,.1-.08,.15s-.05,.11-.08,.17c-.04,.08-.08,.15-.12,.23l-.07,.12c-.05,.1-.11,.2-.17,.3-.04,.07-.08,.13-.12,.19-.06,.1-.12,.19-.18,.28-.04,.06-.09,.13-.13,.19-.06,.09-.13,.19-.2,.28-.04,.06-.09,.12-.13,.18-.08,.1-.16,.2-.24,.3l-.09,.11s-.02,.03-.03,.04h0c-.06,.08-.13,.15-.19,.23-.06,.06-.12,.13-.17,.19-.08,.09-.16,.17-.24,.25h0s-.02,.03-.05,.07c0,.01-.02,.03-.03,.05,0,0,0,.02-.01,.03s0,.02-.02,.03c-.14,.27-.2,.58-.16,.88,0,0,0,.02,0,.03,.04,.2,.11,.39,.23,.55,.06,.1,.14,.19,.22,.27h.02c.94-.54,1.8-1.2,2.56-1.96,.1-.1,.2-.21,.3-.32,1.74-1.88,2.82-4.28,3.08-6.83,0-.09,.01-.18,.02-.26-.46,0-.91,.05-1.36,.08Z"/><path class="cls-10" d="M306.41,336.11l-2.4,.45-2.87,.54s0-.02,0-.03c0-.05,.01-.1,.02-.15,0-.04,0-.08,.01-.12s0-.08,.01-.12c.01-.1,.02-.2,.03-.3,0-.07,0-.13,.01-.2,0-.13,.01-.26,.01-.4,0-.05,0-.09,0-.14,0-.01,0-.03,0-.04,0-.08,0-.16,0-.24s0-.17,0-.25c0-.1,0-.19-.01-.29,0-.08,0-.16-.02-.24s-.01-.17-.02-.26c0-.03,0-.06,0-.08,0-.06-.01-.11-.02-.17,0,0,0,0,0-.01-.01-.08-.02-.16-.03-.25,0-.02,0-.04,0-.06v-.05c-.02-.06-.03-.11-.04-.17,0-.05-.01-.09-.02-.14s-.02-.09-.02-.14v-.03s-.02-.06-.02-.09-.01-.06-.02-.09c-.04-.19-.09-.39-.13-.58-.03-.1-.05-.19-.08-.29-.04-.14-.08-.27-.13-.41v-.04s-.02-.02-.02-.03c-.05-.16-.11-.31-.17-.47-.02-.05-.04-.1-.06-.16s-.04-.1-.06-.15c-.02-.06-.05-.12-.08-.18-.02-.04-.03-.07-.05-.11-.03-.07-.06-.13-.09-.2-.03-.06-.05-.12-.08-.18-.05-.1-.1-.2-.16-.31-.03-.05-.05-.1-.08-.15l-.03-.06s-.02-.04-.03-.06c-.02-.04-.04-.08-.06-.11l-.07-.13c-.08-.14-.17-.28-.26-.42v-.02c-.1-.13-.18-.25-.27-.38h0c-.34-.53-1.28-1.68-1.7-2.63-.19-.44-.27-.83-.14-1.11,.02-.04,.04-.07,.06-.1h0s.05-.06,.08-.08h0s0,0,0,0c.28-.23,.63-.31,.98-.33,.71-.02,1.41,.26,1.49,.29,4.31,2.13,6.9,6.65,6.56,11.44h0Z"/><path class="cls-7" d="M304.01,336.56c.36-3.57-.9-7.26-3.74-9.88-.7-.64-1.47-1.2-2.29-1.66-.12-.06-.24-.13-.36-.19-.08-.04-.16-.08-.23-.11-.03,.03-.06,.05-.08,.08h0s-.04,.07-.06,.1c-.14,.28-.05,.67,.14,1.11,.42,.95,1.36,2.1,1.7,2.63h0c.09,.13,.18,.26,.26,.38v.02c.1,.14,.19,.28,.28,.42l.02,.04,.05,.09s.04,.08,.06,.11c.01,.02,.02,.04,.03,.06l.03,.06c.03,.05,.06,.1,.08,.15,.05,.1,.11,.21,.16,.31,.03,.06,.06,.12,.08,.18,.03,.07,.06,.13,.09,.2,.02,.04,.03,.07,.05,.11,.03,.06,.05,.12,.08,.18,.02,.05,.04,.1,.06,.15s.04,.1,.06,.16c.06,.15,.11,.31,.17,.47,0,0,0,.02,.01,.03v.04c.06,.14,.1,.27,.14,.41,.03,.1,.05,.19,.08,.29,.05,.19,.09,.38,.13,.58,0,.03,.01,.06,.02,.09s.01,.06,.02,.09v.03s.02,.09,.03,.14,.02,.09,.02,.14c0,.06,.02,.11,.03,.17v.05s.01,.04,.01,.06c.01,.08,.02,.16,.03,.25,0,0,0,0,0,.01,0,.06,.01,.11,.02,.17,0,.03,0,.05,0,.08,0,.09,.01,.17,.02,.26s.01,.16,.02,.24c0,.09,.01,.19,.01,.29,0,.08,0,.16,0,.25s0,.16,0,.24c0,.01,0,.03,0,.04,0,.04,0,.09,0,.14,0,.13,0,.26-.01,.4,0,.07,0,.13-.01,.2,0,.1-.02,.2-.03,.3,0,.04,0,.08-.01,.12s0,.08-.01,.12c0,.05-.01,.1-.02,.15,0,.01,0,.02,0,.03l2.87-.54Z"/><path class="cls-9" d="M301.14,337.1s2.61-.43,3.95-.07c2.12,.57,2.87,.68,4.42,5.18,.06,.16,.12,.33,.19,.49,.31,.72,1.22,2.46,1.59-3.01,.45-6.58-4.84-5.31-4.84-5.31-1.94,.48-3.73,1.44-5.32,2.73Z"/><path class="cls-7" d="M292.33,318.5c2.04-1.18,4.28-2,6.61-2.4,7.93-1.37,16.22,2.14,20.6,9.38-.06-.1-.12-.21-.18-.31-4.33-7.49-12.76-11.15-20.82-9.75-2.33,.4-4.56,1.22-6.61,2.4-9.6,5.54-12.89,17.82-7.35,27.43,.07,.12,.14,.23,.2,.35-5.28-9.55-1.96-21.61,7.54-27.1Z"/><path class="cls-12" d="M293.73,320.91c1.75-1.01,3.67-1.71,5.66-2.05,6.79-1.18,13.88,1.83,17.64,8.04-.05-.09-.1-.18-.15-.27-3.7-6.42-10.93-9.54-17.83-8.35-1.99,.35-3.91,1.04-5.66,2.05-8.22,4.75-11.04,15.26-6.29,23.48,.06,.1,.12,.2,.18,.3-4.52-8.18-1.68-18.51,6.45-23.2Z"/></g><g class="cls-39"><path class="cls-16" d="M311.05,317.29l-10.18,37.99c1.32,.07,2.65,.02,3.98-.17l9.56-35.68c-1.05-.83-2.18-1.54-3.36-2.14Z"/><path class="cls-16" d="M298.56,315.42c-.15,.03-.3,.05-.45,.08l-9.34,34.85c2.78,2.43,6.14,4.01,9.7,4.65l10.36-38.67c-3.25-1.18-6.8-1.51-10.27-.91Z"/></g></g><g><g><path class="cls-22" d="M292.9,334.58c-4.73,10.54-17.11,15.25-27.64,10.52-.55-.25-1.09-.52-1.6-.81-9.4-5.22-13.39-16.85-8.91-26.84,4.73-10.54,17.11-15.25,27.64-10.52,2.25,1,4.3,2.4,6.06,4.12,6.09,5.95,8.15,15.3,4.46,23.53Z"/><path class="cls-15" d="M294.22,332.58c-4.82,10.73-17.42,15.53-28.15,10.71-.56-.25-1.11-.53-1.63-.82-9.57-5.31-13.64-17.16-9.08-27.33,4.82-10.73,17.42-15.53,28.15-10.71,2.29,1.02,4.37,2.44,6.17,4.19,6.21,6.06,8.3,15.58,4.54,23.96Z"/><path class="cls-6" d="M291.41,331.32c-4.12,9.18-14.91,13.29-24.09,9.16-.48-.22-.95-.45-1.4-.7-8.19-4.54-11.67-14.68-7.77-23.39,4.12-9.18,14.91-13.29,24.09-9.16,1.96,.88,3.74,2.09,5.28,3.59,5.31,5.19,7.1,13.34,3.89,20.5Z"/><path class="cls-5" d="M283.16,305.18c2.29,1.02,4.37,2.44,6.16,4.19,6.1,5.96,8.23,15.27,4.72,23.53,.05-.11,.11-.23,.16-.35,3.76-8.37,1.66-17.89-4.54-23.95-1.79-1.75-3.88-3.17-6.16-4.19-10.72-4.81-23.32-.02-28.14,10.7-.06,.13-.11,.26-.17,.39,4.93-10.47,17.36-15.1,27.97-10.34Z"/><path class="cls-22" d="M281.96,307.88c1.96,.88,3.74,2.09,5.28,3.59,5.22,5.1,7.04,13.07,4.04,20.15,.05-.1,.09-.2,.14-.3,3.22-7.17,1.42-15.31-3.89-20.5-1.53-1.5-3.32-2.71-5.28-3.59-9.18-4.12-19.97-.02-24.09,9.16-.05,.11-.1,.22-.15,.33,4.22-8.96,14.87-12.92,23.94-8.85Z"/></g><g><polygon class="cls-15" points="274.78 316.67 276.53 319.18 279.59 318.88 277.83 316.35 274.78 316.67"/><polygon class="cls-15" points="266.06 320.24 264.31 317.72 260.78 325.41 265.54 332.23 266.84 329.4 263.84 325.08 266.06 320.24"/><polygon class="cls-15" points="268.28 315.39 271.34 315.08 269.59 312.56 266.54 312.87 265.24 315.7 266.99 318.21 268.28 315.39"/><polygon class="cls-15" points="284.77 322.98 283.47 325.8 286.53 325.49 287.83 322.67 286.07 320.14 283.02 320.46 284.77 322.98"/><polygon class="cls-15" points="282.55 327.82 280.31 332.66 275.09 333.19 273.78 336.02 282.06 335.2 285.6 327.51 282.55 327.82"/><polygon class="cls-15" points="266.02 324.87 267.77 327.38 269.07 324.55 267.33 322.04 266.02 324.87"/><polygon class="cls-15" points="268.09 331.2 266.8 334.02 268.54 336.54 271.6 336.23 272.9 333.41 269.84 333.72 268.09 331.2"/><polygon class="cls-15" points="280.36 328.03 277.31 328.35 276.01 331.17 279.05 330.87 280.36 328.03"/><polygon class="cls-15" points="278.76 314.33 281.76 318.66 284.81 318.35 280.06 311.51 271.78 312.35 273.53 314.87 278.76 314.33"/><polygon class="cls-15" points="282.59 323.19 282.6 323.19 280.84 320.67 275.6 321.2 272.61 316.88 269.56 317.19 268.25 320.03 271.26 324.35 269.03 329.2 270.78 331.71 273.82 331.41 276.06 326.55 281.3 326.03 282.59 323.19"/></g><g class="cls-39"><path class="cls-16" d="M295.82,320.52l-38.97,14.83c.76,1.18,1.63,2.29,2.62,3.32l36.6-13.92c.06-1.42-.03-2.83-.25-4.22Z"/><path class="cls-16" d="M289.67,308.62c-.12-.11-.23-.23-.35-.34l-35.75,13.6c-.36,3.89,.37,7.77,2.02,11.22l39.67-15.09c-1.01-3.53-2.92-6.78-5.59-9.39Z"/></g></g></g></svg>