<?xml version="1.0" encoding="UTF-8"?><svg xmlns="http://www.w3.org/2000/svg" xmlns:xlink="http://www.w3.org/1999/xlink" viewBox="0 0 500 500"><defs><style>.cls-1,.cls-2{fill:none;}.cls-3{fill:url(#linear-gradient);}.cls-4{fill:url(#Naamloos_verloop_2);}.cls-5{fill:url(#Naamloos_verloop_5);}.cls-6{fill:url(#Naamloos_verloop_4);}.cls-7{fill:url(#Naamloos_verloop_47-4);opacity:.67;}.cls-8{opacity:.1;}.cls-9{fill:#f9ab6d;}.cls-10{fill:#6b3628;}.cls-11{fill:#e89f4f;}.cls-12{fill:#fff;}.cls-13,.cls-14,.cls-15,.cls-16{fill:#eda672;}.cls-17{fill:#ffd54f;}.cls-18{fill:#faf4e6;}.cls-19{fill:#fcc490;}.cls-20{fill:#999;}.cls-21{fill:#8c4630;}.cls-22,.cls-23{fill:#8c6239;}.cls-24{fill:#a25744;}.cls-25{fill:#911d22;}.cls-26{fill:#b3b3b3;}.cls-27{fill:#b77834;}.cls-28{fill:#936a45;}.cls-29,.cls-30{fill:#a67c52;}.cls-31{fill:#afa193;}.cls-32{fill:#c69c6d;}.cls-33{fill:#244c3b;}.cls-34{fill:#201516;}.cls-35{fill:#143226;}.cls-36{fill:#9b8269;}.cls-37{fill:#726050;}.cls-38{fill:#563926;}.cls-39{fill:#56473b;}.cls-40{fill:#352c26;}.cls-41{fill:#3a2e26;}.cls-42,.cls-43{fill:#603e26;}.cls-44{fill:#774f2f;}.cls-45{fill:#84552f;}.cls-46{fill:#845730;}.cls-47{fill:url(#Naamloos_verloop_2-2);}.cls-14{opacity:.2;}.cls-14,.cls-48,.cls-49,.cls-50{mix-blend-mode:multiply;}.cls-51{fill:url(#Naamloos_verloop_96-2);}.cls-52{fill:url(#Naamloos_verloop_16-2);}.cls-53{fill:url(#Naamloos_verloop_47-3);}.cls-54{fill:url(#Naamloos_verloop_59);opacity:.35;}.cls-48{fill:url(#Naamloos_verloop_20);opacity:.4;}.cls-55{fill:url(#linear-gradient-8);}.cls-56{fill:url(#linear-gradient-9);}.cls-57{fill:url(#linear-gradient-3);}.cls-58{fill:url(#linear-gradient-4);}.cls-59{fill:url(#linear-gradient-2);}.cls-60{fill:url(#linear-gradient-6);}.cls-61{fill:url(#linear-gradient-7);}.cls-62{fill:url(#linear-gradient-5);}.cls-63{fill:url(#Naamloos_verloop_10);}.cls-63,.cls-64,.cls-65,.cls-66,.cls-67,.cls-68,.cls-69{stroke:#fcd486;}.cls-63,.cls-64,.cls-65,.cls-66,.cls-67,.cls-68,.cls-69,.cls-2{stroke-miterlimit:10;}.cls-64{fill:url(#Naamloos_verloop_10-4);}.cls-65{fill:url(#Naamloos_verloop_10-3);}.cls-66{fill:url(#Naamloos_verloop_10-2);}.cls-67{fill:url(#Naamloos_verloop_10-7);}.cls-68{fill:url(#Naamloos_verloop_10-6);}.cls-69{fill:url(#Naamloos_verloop_10-5);}.cls-43,.cls-23{fill-rule:evenodd;}.cls-70{fill:url(#linear-gradient-14);}.cls-71{fill:url(#linear-gradient-18);}.cls-72{fill:url(#linear-gradient-22);}.cls-73{fill:url(#linear-gradient-20);}.cls-74{fill:url(#linear-gradient-21);}.cls-75{fill:url(#linear-gradient-23);}.cls-76{fill:url(#linear-gradient-15);}.cls-77{fill:url(#linear-gradient-19);}.cls-78{fill:url(#linear-gradient-16);}.cls-79{fill:url(#linear-gradient-17);}.cls-80{fill:url(#linear-gradient-13);}.cls-81{fill:url(#linear-gradient-12);}.cls-82{fill:url(#linear-gradient-10);}.cls-83{fill:url(#linear-gradient-11);}.cls-84{fill:url(#linear-gradient-24);}.cls-85{isolation:isolate;}.cls-86{fill:url(#Naamloos_verloop_47);}.cls-87{fill:url(#Naamloos_verloop_16);}.cls-88{fill:url(#Naamloos_verloop_80);}.cls-89{fill:url(#Naamloos_verloop_96);}.cls-90{fill:url(#Naamloos_verloop_94);}.cls-2{stroke:url(#Naamloos_verloop_80-2);stroke-width:5px;}.cls-49{fill:url(#Naamloos_verloop_20-2);opacity:.3;}.cls-50{fill:url(#Naamloos_verloop_47-2);opacity:.18;}.cls-15{opacity:.5;}.cls-30{opacity:.8;}.cls-16{opacity:.47;}</style><linearGradient id="linear-gradient" x1="295.9" y1="-547.42" x2="243.35" y2="-592.92" gradientTransform="translate(-145.77 934.4) rotate(6.04)" gradientUnits="userSpaceOnUse"><stop offset="0" stop-color="#0a4c50"/><stop offset="1" stop-color="#508991"/></linearGradient><linearGradient id="linear-gradient-2" x1="1004.02" y1="-421.9" x2="1004.16" y2="-478.52" gradientTransform="translate(-368.37 1348.72) rotate(-35.73)" gradientUnits="userSpaceOnUse"><stop offset="0" stop-color="#114351"/><stop offset=".18" stop-color="#2a6568"/><stop offset=".37" stop-color="#41847c"/><stop offset=".53" stop-color="#4f9789"/><stop offset=".65" stop-color="#549e8e"/></linearGradient><linearGradient id="linear-gradient-3" x1="299.22" y1="-551.25" x2="246.67" y2="-596.75" xlink:href="#linear-gradient"/><linearGradient id="linear-gradient-4" x1="1003.44" y1="-452.23" x2="1013.76" y2="-452.23" gradientTransform="translate(-368.37 1348.72) rotate(-35.73)" gradientUnits="userSpaceOnUse"><stop offset="0" stop-color="#114351"/><stop offset=".2" stop-color="#2a6568"/><stop offset=".41" stop-color="#41847c"/><stop offset=".6" stop-color="#4f9789"/><stop offset=".72" stop-color="#549e8e"/></linearGradient><linearGradient id="linear-gradient-5" x1="302.36" y1="-554.87" x2="249.81" y2="-600.37" xlink:href="#linear-gradient"/><linearGradient id="linear-gradient-6" y1="-450.89" x2="1023.77" y2="-450.89" xlink:href="#linear-gradient-4"/><linearGradient id="linear-gradient-7" x1="304.84" y1="-557.74" x2="252.29" y2="-603.24" xlink:href="#linear-gradient"/><linearGradient id="linear-gradient-8" y1="-447.86" x2="1032.19" y2="-447.86" xlink:href="#linear-gradient-4"/><linearGradient id="linear-gradient-9" x1="306.87" y1="-560.09" x2="254.32" y2="-605.59" xlink:href="#linear-gradient"/><linearGradient id="linear-gradient-10" y1="-444.52" x2="1039.33" y2="-444.52" xlink:href="#linear-gradient-4"/><linearGradient id="linear-gradient-11" x1="309.8" y1="-563.47" x2="257.25" y2="-608.98" xlink:href="#linear-gradient"/><linearGradient id="linear-gradient-12" y1="-442.07" x2="1048.98" y2="-442.07" xlink:href="#linear-gradient-4"/><linearGradient id="linear-gradient-13" x1="277.95" y1="-526.69" x2="225.4" y2="-572.19" xlink:href="#linear-gradient"/><linearGradient id="linear-gradient-14" x1="951.96" y1="-437.83" x2="1003.44" y2="-437.83" gradientTransform="translate(-368.37 1348.72) rotate(-35.73)" gradientUnits="userSpaceOnUse"><stop offset=".44" stop-color="#549e8e"/><stop offset=".54" stop-color="#4f9789"/><stop offset=".68" stop-color="#41847c"/><stop offset=".85" stop-color="#2a6568"/><stop offset="1" stop-color="#114351"/></linearGradient><linearGradient id="linear-gradient-15" x1="281.47" y1="-530.75" x2="228.92" y2="-576.25" xlink:href="#linear-gradient"/><linearGradient id="linear-gradient-16" x1="962.04" y1="-440.71" y2="-440.71" xlink:href="#linear-gradient-14"/><linearGradient id="linear-gradient-17" x1="282.92" y1="-532.43" x2="230.37" y2="-577.93" xlink:href="#linear-gradient"/><linearGradient id="linear-gradient-18" x1="965.23" y1="-445.74" y2="-445.74" xlink:href="#linear-gradient-14"/><linearGradient id="linear-gradient-19" x1="285.93" y1="-535.9" x2="233.38" y2="-581.4" xlink:href="#linear-gradient"/><linearGradient id="linear-gradient-20" x1="292.52" y1="-543.51" x2="239.97" y2="-589.01" xlink:href="#linear-gradient"/><linearGradient id="linear-gradient-21" x1="993.13" y1="-452.24" y2="-452.24" xlink:href="#linear-gradient-14"/><linearGradient id="linear-gradient-22" x1="289.16" y1="-539.63" x2="236.61" y2="-585.13" xlink:href="#linear-gradient"/><linearGradient id="linear-gradient-23" x1="983.12" y1="-450.9" y2="-450.9" xlink:href="#linear-gradient-14"/><linearGradient id="linear-gradient-24" x1="973.72" y1="-448.71" y2="-448.71" xlink:href="#linear-gradient-14"/><linearGradient id="Naamloos_verloop_20" x1="187.37" y1="421.87" x2="174.42" y2="374.09" gradientTransform="translate(-119.09 83.08) rotate(-19.02)" gradientUnits="userSpaceOnUse"><stop offset="0" stop-color="#343e3a"/><stop offset=".58" stop-color="#3d5149" stop-opacity=".4"/><stop offset=".71" stop-color="#3d5149" stop-opacity=".53"/><stop offset=".93" stop-color="#3d5149" stop-opacity=".87"/><stop offset="1" stop-color="#3d5149"/></linearGradient><linearGradient id="Naamloos_verloop_47" x1="289.43" y1="502.19" x2="277.13" y2="313.22" gradientTransform="translate(-230.79 476.04) rotate(-65.25)" gradientUnits="userSpaceOnUse"><stop offset="0" stop-color="#1b4332"/><stop offset=".58" stop-color="#2d6a4f"/><stop offset=".73" stop-color="#285f47"/><stop offset=".99" stop-color="#1b4332"/><stop offset="1" stop-color="#1b4332"/></linearGradient><linearGradient id="Naamloos_verloop_59" x1="289.65" y1="499.44" x2="278.81" y2="333.01" gradientTransform="translate(-230.79 476.04) rotate(-65.25)" gradientUnits="userSpaceOnUse"><stop offset="0" stop-color="#486d32"/><stop offset=".3" stop-color="#5f833b"/><stop offset=".4" stop-color="#567838"/><stop offset=".57" stop-color="#3f5c33"/><stop offset=".61" stop-color="#395532"/></linearGradient><linearGradient id="Naamloos_verloop_47-2" x1="286.42" y1="497.06" x2="276.75" y2="348.44" xlink:href="#Naamloos_verloop_47"/><linearGradient id="Naamloos_verloop_47-3" x1="282.85" y1="492.92" x2="274.42" y2="363.42" xlink:href="#Naamloos_verloop_47"/><linearGradient id="Naamloos_verloop_20-2" x1="289.43" y1="502.19" x2="277.13" y2="313.22" gradientTransform="translate(-230.79 476.04) rotate(-65.25)" xlink:href="#Naamloos_verloop_20"/><linearGradient id="Naamloos_verloop_4" x1="236" y1="547.12" x2="248.53" y2="394.42" gradientUnits="userSpaceOnUse"><stop offset="0" stop-color="#4c433b"/><stop offset=".58" stop-color="#5f5449"/><stop offset=".69" stop-color="#695b4e"/><stop offset=".88" stop-color="#85715d"/><stop offset="1" stop-color="#9b8269"/></linearGradient><linearGradient id="Naamloos_verloop_47-4" x1="227.66" y1="573.67" x2="240.18" y2="400.37" gradientTransform="matrix(1, 0, 0, 1, 0, 0)" xlink:href="#Naamloos_verloop_47"/><linearGradient id="Naamloos_verloop_5" x1="201.35" y1="211.1" x2="218.83" y2="211.1" gradientTransform="translate(22.55 17.23)" gradientUnits="userSpaceOnUse"><stop offset=".04" stop-color="#ba8b17"/><stop offset=".12" stop-color="#b38616"/><stop offset=".35" stop-color="#a37a14"/><stop offset=".62" stop-color="#9a7413"/><stop offset="1" stop-color="#987213"/></linearGradient><linearGradient id="Naamloos_verloop_80" x1="202.07" y1="211.1" x2="218.12" y2="211.1" gradientTransform="translate(22.55 17.23)" gradientUnits="userSpaceOnUse"><stop offset=".04" stop-color="#ba8b17"/><stop offset=".22" stop-color="#ce991c"/><stop offset=".42" stop-color="#dea420"/><stop offset=".66" stop-color="#e7aa23"/><stop offset="1" stop-color="#eaad24"/></linearGradient><linearGradient id="Naamloos_verloop_10" x1="619.62" y1="2449.31" x2="620.93" y2="2449.34" gradientTransform="translate(2696.08 -428.45) rotate(90)" gradientUnits="userSpaceOnUse"><stop offset="0" stop-color="#e8cb91"/><stop offset=".31" stop-color="#eccc8e"/><stop offset=".62" stop-color="#f8cf87"/><stop offset=".63" stop-color="#f9d087"/><stop offset=".67" stop-color="#f4cf8a"/><stop offset=".8" stop-color="#ebcd91"/><stop offset="1" stop-color="#e9cd94"/></linearGradient><linearGradient id="Naamloos_verloop_80-2" x1="228.04" y1="154.85" x2="238.08" y2="154.85" gradientTransform="matrix(1, 0, 0, 1, 0, 0)" xlink:href="#Naamloos_verloop_80"/><linearGradient id="Naamloos_verloop_2" x1="253.66" y1="65.08" x2="253.66" y2="73.41" gradientUnits="userSpaceOnUse"><stop offset="0" stop-color="#666"/><stop offset="1" stop-color="#333"/></linearGradient><linearGradient id="Naamloos_verloop_2-2" x1="231.3" y1="65.08" x2="231.3" y2="73.41" xlink:href="#Naamloos_verloop_2"/><linearGradient id="Naamloos_verloop_10-2" x1="1078.67" y1="3233.91" x2="1080.12" y2="3233.96" gradientTransform="translate(3466.95 -867.2) rotate(90)" xlink:href="#Naamloos_verloop_10"/><linearGradient id="Naamloos_verloop_10-3" x1="622.33" y1="2461.49" x2="623.64" y2="2461.53" gradientTransform="translate(2704.06 -419.41) rotate(90)" xlink:href="#Naamloos_verloop_10"/><linearGradient id="Naamloos_verloop_10-4" x1="621.5" y1="2435.72" x2="622.81" y2="2435.76" gradientTransform="translate(2691.34 -440.82) rotate(90)" xlink:href="#Naamloos_verloop_10"/><linearGradient id="Naamloos_verloop_10-5" x1="140.5" y1="925.33" x2="141.81" y2="925.37" gradientTransform="translate(1185.27 23.12) rotate(90)" xlink:href="#Naamloos_verloop_10"/><linearGradient id="Naamloos_verloop_10-6" x1="168.13" y1="-404.76" x2="169.43" y2="-404.72" gradientTransform="translate(91.8 553.2)" xlink:href="#Naamloos_verloop_10"/><linearGradient id="Naamloos_verloop_10-7" x1="166.9" y1="-420.69" x2="168.2" y2="-420.65" gradientTransform="translate(89.79 553.49)" xlink:href="#Naamloos_verloop_10"/><linearGradient id="Naamloos_verloop_94" x1="253.52" y1="361.23" x2="295.14" y2="361.23" gradientUnits="userSpaceOnUse"><stop offset="0" stop-color="#a25744"/><stop offset=".14" stop-color="#9d5542"/><stop offset=".29" stop-color="#91503d"/><stop offset=".44" stop-color="#7d4835"/><stop offset=".58" stop-color="#613d2a"/><stop offset=".63" stop-color="#563926"/><stop offset=".68" stop-color="#6e4127"/><stop offset=".75" stop-color="#844929"/><stop offset=".82" stop-color="#944f2b"/><stop offset=".89" stop-color="#9e522b"/><stop offset="1" stop-color="#a1542c"/></linearGradient><linearGradient id="Naamloos_verloop_96" x1="-313.22" y1="950.9" x2="-315.5" y2="930.27" gradientTransform="translate(1182.21 438.09) rotate(70.31)" gradientUnits="userSpaceOnUse"><stop offset="0" stop-color="#223a19"/><stop offset="1" stop-color="#3a4f20"/></linearGradient><linearGradient id="Naamloos_verloop_16" x1="-315.97" y1="937.18" x2="-308.01" y2="937.18" gradientTransform="translate(1182.21 438.09) rotate(70.31)" gradientUnits="userSpaceOnUse"><stop offset="0" stop-color="#1b4332"/><stop offset="1" stop-color="#102d20"/></linearGradient><linearGradient id="Naamloos_verloop_96-2" x1="-270.77" y1="845.7" x2="-273.05" y2="825.06" gradientTransform="translate(-554.41 438.09) rotate(109.69) scale(1 -1)" xlink:href="#Naamloos_verloop_96"/><linearGradient id="Naamloos_verloop_16-2" x1="-273.52" y1="831.98" x2="-265.55" y2="831.98" gradientTransform="translate(-554.41 438.09) rotate(109.69) scale(1 -1)" xlink:href="#Naamloos_verloop_16"/></defs><g class="cls-85"><g id="Laag_1"><g><g><path class="cls-3" d="M164.45,371.06s.7,.64,1.85,1.82c1.15,1.17,2.77,2.87,4.61,4.98,3.74,4.18,8.36,10,12.71,16.03,4.34,6.03,8.39,12.27,11.17,17.14,1.42,2.41,2.51,4.49,3.26,5.95,.75,1.46,1.13,2.33,1.13,2.33,0,0-.7-.64-1.85-1.81-1.15-1.17-2.77-2.87-4.61-4.98-3.74-4.18-8.36-10-12.7-16.04-4.33-6.04-8.39-12.28-11.16-17.15-1.42-2.42-2.51-4.49-3.26-5.95-.75-1.46-1.13-2.33-1.13-2.33Z"/><path class="cls-59" d="M170.91,377.86c-1.84-2.11-3.46-3.81-4.61-4.98-1.15-1.18-1.85-1.82-1.85-1.82,0,0,.39,.87,1.13,2.33,.36,.71,.81,1.57,1.34,2.54,.22,.22,.47,.47,.75,.75,1.15,1.17,2.77,2.87,4.61,4.98,3.74,4.18,8.36,10,12.71,16.03,4.34,6.03,8.39,12.27,11.17,17.14,.73,1.25,1.37,2.4,1.93,3.43,.69,.68,1.09,1.05,1.09,1.05,0,0-.38-.87-1.13-2.33-.75-1.47-1.84-3.54-3.26-5.95-2.77-4.87-6.83-11.11-11.17-17.14-4.35-6.03-8.97-11.85-12.71-16.03Z"/><path class="cls-57" d="M173.36,365.76s.53,.77,1.41,2.16c.87,1.38,2.1,3.37,3.49,5.8,.7,1.21,1.46,2.52,2.21,3.93,.77,1.4,1.59,2.87,2.38,4.43,.8,1.55,1.66,3.13,2.46,4.78,.81,1.64,1.64,3.3,2.46,4.97,.79,1.68,1.58,3.36,2.36,5.02,.78,1.65,1.48,3.31,2.2,4.9,1.41,3.19,2.66,6.2,3.67,8.8,1.03,2.6,1.82,4.79,2.36,6.34,.54,1.55,.81,2.45,.81,2.45,0,0-.53-.77-1.41-2.16-.87-1.38-2.1-3.37-3.49-5.79-1.4-2.42-2.98-5.27-4.6-8.35-.8-1.55-1.66-3.13-2.47-4.77-.81-1.64-1.63-3.31-2.45-4.97-.79-1.68-1.58-3.36-2.36-5.02-.79-1.65-1.49-3.31-2.2-4.9-.72-1.59-1.36-3.15-1.98-4.62-.63-1.47-1.18-2.88-1.69-4.18-1.03-2.6-1.82-4.79-2.36-6.34-.54-1.54-.81-2.44-.81-2.44Z"/><path class="cls-58" d="M191.41,401.91c-.85-1.52-1.77-3.07-2.64-4.68-.87-1.61-1.75-3.25-2.63-4.88-.85-1.65-1.7-3.3-2.53-4.93-.85-1.62-1.6-3.26-2.38-4.82-.78-1.56-1.47-3.1-2.14-4.55-.68-1.45-1.29-2.83-1.84-4.11-1.09-2.47-1.94-4.57-2.53-6.09-.84-1.33-1.36-2.08-1.36-2.08,0,0,.27,.9,.81,2.44,.54,1.55,1.33,3.74,2.36,6.34,.51,1.3,1.07,2.71,1.69,4.18,.62,1.47,1.26,3.04,1.98,4.62,.72,1.59,1.41,3.25,2.2,4.9,.78,1.66,1.57,3.34,2.36,5.02,.82,1.67,1.64,3.33,2.45,4.97,.81,1.64,1.67,3.22,2.47,4.77,1.62,3.09,3.19,5.94,4.6,8.35,1.39,2.43,2.61,4.41,3.49,5.79,.87,1.38,1.41,2.16,1.41,2.16,0,0-.27-.9-.81-2.45-.54-1.55-1.33-3.74-2.36-6.34-.33-.84-.69-1.73-1.06-2.64-1.12-1.84-2.31-3.85-3.53-5.99Z"/><path class="cls-62" d="M183.05,362.1s.44,.84,1.12,2.34c.68,1.5,1.62,3.65,2.63,6.26,2.08,5.2,4.44,12.26,6.46,19.41,2.01,7.15,3.69,14.4,4.63,19.93,.5,2.75,.82,5.08,1.02,6.71,.2,1.63,.27,2.58,.27,2.58,0,0-.44-.84-1.12-2.34-.68-1.5-1.62-3.64-2.63-6.26-2.08-5.2-4.44-12.26-6.45-19.41-2.01-7.15-3.68-14.4-4.62-19.93-.5-2.75-.82-5.08-1.03-6.71-.2-1.63-.27-2.58-.27-2.58Z"/><path class="cls-60" d="M197.9,410.76c-2.32-5.1-5-12.04-7.34-19.1-2.34-7.05-4.34-14.22-5.54-19.69-.63-2.73-1.06-5.03-1.33-6.65-.28-1.62-.39-2.56-.39-2.56,0,0,.23,.4,.62,1.12-.53-1.14-.86-1.78-.86-1.78,0,0,.07,.95,.27,2.58,.2,1.63,.52,3.95,1.03,6.71,.94,5.53,2.62,12.77,4.62,19.93,2.02,7.15,4.37,14.21,6.45,19.41,1.01,2.61,1.95,4.76,2.63,6.26,.68,1.5,1.12,2.34,1.12,2.34,0,0-.06-.95-.27-2.58-.17-1.4-.44-3.32-.82-5.56-.06-.14-.12-.28-.19-.42Z"/><path class="cls-61" d="M193.43,362.09s.28,.87,.69,2.42c.4,1.54,.95,3.74,1.48,6.4,1.13,5.31,2.2,12.42,2.92,19.58,.72,7.15,1.09,14.34,1.03,19.77,0,2.71-.09,4.98-.18,6.57-.09,1.59-.19,2.5-.19,2.5,0,0-.28-.87-.69-2.41-.41-1.54-.95-3.74-1.48-6.4-1.13-5.31-2.2-12.42-2.92-19.58-.71-7.15-1.08-14.34-1.03-19.77,0-2.71,.09-4.98,.18-6.57,.09-1.59,.19-2.5,.19-2.5Z"/><path class="cls-55" d="M199,410.26c-1.34-5.26-2.68-12.33-3.68-19.45-.99-7.12-1.63-14.29-1.8-19.71-.11-2.71-.11-4.98-.08-6.57,.02-1,.05-1.73,.07-2.14-.06-.2-.09-.31-.09-.31,0,0-.1,.91-.19,2.5-.09,1.59-.19,3.86-.18,6.57-.05,5.42,.32,12.61,1.03,19.77,.72,7.15,1.79,14.27,2.92,19.58,.53,2.66,1.08,4.86,1.48,6.4,.4,1.54,.69,2.41,.69,2.41,0,0,.1-.91,.19-2.5,.07-1.15,.13-2.67,.16-4.45-.17-.67-.35-1.36-.53-2.1Z"/><path class="cls-56" d="M203.13,363.36s.13,.89,.27,2.44c.14,1.55,.31,3.76,.38,6.4,.22,5.29,.08,12.31-.41,19.3-.5,6.99-1.34,13.96-2.3,19.17-.45,2.6-.92,4.77-1.28,6.28-.36,1.51-.61,2.37-.61,2.37,0,0-.13-.89-.27-2.44-.14-1.55-.31-3.76-.39-6.4-.22-5.29-.08-12.31,.41-19.3,.5-6.99,1.35-13.96,2.31-19.17,.45-2.6,.92-4.77,1.28-6.28,.35-1.51,.61-2.37,.61-2.37Z"/><path class="cls-82" d="M200.2,415.12c-.13-1.27-.26-2.75-.36-4.44-.37-5.28-.43-12.3-.14-19.31,.3-7.01,.95-14,1.76-19.23,.37-2.62,.79-4.79,1.1-6.31,.31-1.52,.54-2.39,.54-2.39,0,0,.07,.4,.17,1.12-.08-.77-.15-1.2-.15-1.2,0,0-.25,.86-.61,2.37-.36,1.51-.83,3.68-1.28,6.28-.96,5.2-1.81,12.17-2.31,19.17-.49,6.99-.64,14.01-.41,19.3,.08,2.64,.24,4.85,.39,6.4,.14,1.55,.27,2.44,.27,2.44,0,0,.26-.86,.61-2.37,.12-.52,.27-1.15,.41-1.83Z"/><path class="cls-83" d="M213.83,361.7s-.04,.95-.2,2.58c-.16,1.64-.42,3.97-.85,6.73-.8,5.55-2.29,12.84-4.11,20.04-1.83,7.2-4,14.32-5.95,19.57-.94,2.64-1.83,4.81-2.47,6.32-.64,1.51-1.06,2.37-1.06,2.37,0,0,.04-.95,.2-2.58,.16-1.64,.42-3.97,.85-6.73,.8-5.55,2.29-12.84,4.12-20.04,1.84-7.2,4.01-14.32,5.96-19.57,.94-2.64,1.83-4.81,2.47-6.32,.64-1.51,1.06-2.37,1.06-2.37Z"/><path class="cls-81" d="M212.77,364.07c-.64,1.51-1.53,3.69-2.47,6.32-1.95,5.26-4.12,12.37-5.96,19.57-1.83,7.2-3.32,14.49-4.12,20.04-.43,2.77-.69,5.1-.85,6.73-.16,1.64-.2,2.58-.2,2.58,0,0,.42-.85,1.06-2.37,.44-1.05,1.01-2.43,1.63-4.04,.04-.43,.09-.86,.14-1.32,.57-5.58,1.77-12.92,3.3-20.19,1.54-7.27,3.43-14.47,5.16-19.8,.83-2.67,1.63-4.88,2.21-6.42,.58-1.54,.96-2.41,.96-2.41,0,0,0,.84-.08,2.29,.03-.27,.06-.55,.08-.79,.16-1.64,.2-2.58,.2-2.58,0,0-.42,.85-1.06,2.37Z"/><path class="cls-80" d="M140.02,425.25s.9-.28,2.5-.69c1.59-.41,3.87-.96,6.62-1.5,5.49-1.14,12.85-2.24,20.24-2.99,7.39-.74,14.82-1.13,20.43-1.1,2.8-.02,5.14,.07,6.78,.16,1.64,.09,2.59,.19,2.59,.19,0,0-.9,.29-2.5,.7-1.59,.41-3.87,.96-6.62,1.5-5.49,1.15-12.85,2.24-20.24,2.98-7.4,.73-14.82,1.12-20.43,1.09-2.8,.02-5.14-.07-6.78-.16-1.64-.08-2.59-.18-2.59-.18Z"/><path class="cls-70" d="M143.42,424.74c1.61-.34,3.91-.79,6.68-1.21,5.53-.91,12.93-1.68,20.35-2.11,7.42-.42,14.86-.49,20.46-.22,.2,0,.37,.02,.57,.03,2.11-.44,3.9-.88,5.21-1.21,1.59-.41,2.5-.7,2.5-.7,0,0-.94-.1-2.59-.19-1.64-.09-3.99-.18-6.78-.16-5.61-.04-13.03,.36-20.43,1.1-7.39,.75-14.75,1.84-20.24,2.99-2.75,.54-5.03,1.09-6.62,1.5-1.59,.41-2.5,.69-2.5,.69,0,0,.32,.03,.89,.08,.06-.02,.96-.25,2.51-.58Z"/><path class="cls-76" d="M144.84,414.67s.87-.12,2.37-.24c1.51-.12,3.66-.26,6.23-.3,5.14-.15,11.97,.07,18.76,.65,6.79,.58,13.55,1.51,18.6,2.54,2.52,.48,4.62,.98,6.08,1.36,1.46,.37,2.3,.64,2.3,.64,0,0-.87,.12-2.37,.24-1.51,.12-3.66,.26-6.23,.31-5.14,.16-11.97-.07-18.76-.65-6.79-.59-13.55-1.52-18.6-2.55-2.52-.48-4.62-.98-6.08-1.36-1.46-.37-2.3-.64-2.3-.64Z"/><path class="cls-78" d="M146.32,414.92s.87-.07,2.38-.1c1.51-.03,3.67-.05,6.23,.06,5.14,.14,11.94,.76,18.69,1.72,6.16,.89,12.26,2.06,17.07,3.26,2.52-.05,4.63-.18,6.11-.3,1.51-.12,2.37-.24,2.37-.24,0,0-.83-.27-2.3-.64-1.46-.38-3.56-.88-6.08-1.36-5.04-1.03-11.81-1.96-18.6-2.54-6.79-.57-13.62-.8-18.76-.65-2.57,.04-4.72,.18-6.23,.3-1.51,.12-2.37,.24-2.37,.24,0,0,.83,.26,2.3,.64,.35,.09,.73,.18,1.15,.29-1.25-.4-1.96-.68-1.96-.68Z"/><path class="cls-79" d="M141.56,404.66s.95,.04,2.58,.2c1.64,.16,3.97,.42,6.73,.85,5.55,.8,12.84,2.29,20.04,4.12,7.2,1.84,14.32,4.01,19.57,5.96,2.64,.94,4.81,1.83,6.32,2.47,1.51,.64,2.37,1.06,2.37,1.06,0,0-.95-.04-2.58-.2-1.64-.16-3.97-.42-6.73-.85-5.55-.8-12.84-2.29-20.04-4.12-7.2-1.84-14.31-4.02-19.57-5.96-2.64-.94-4.81-1.83-6.32-2.47-1.51-.64-2.37-1.06-2.37-1.06Z"/><path class="cls-71" d="M196.81,418.26c-1.51-.64-3.68-1.53-6.32-2.47-5.25-1.95-12.37-4.12-19.57-5.96-7.2-1.83-14.49-3.31-20.04-4.12-2.77-.43-5.1-.69-6.73-.85-1.64-.16-2.58-.2-2.58-.2,0,0,0,0,.01,0,.34,.04,.72,.1,1.16,.17,1.63,.24,3.94,.62,6.68,1.2,5.5,1.08,12.7,2.94,19.8,5.14,7,2.17,13.89,4.66,19.01,6.85,.55,.09,1.1,.17,1.63,.25,2.77,.43,5.1,.69,6.73,.85,1.64,.16,2.58,.2,2.58,.2,0,0-.85-.42-2.37-1.06Z"/><path class="cls-77" d="M144.98,394.88s.93,.21,2.51,.65c1.58,.44,3.83,1.1,6.48,2.01,5.32,1.75,12.24,4.49,19.02,7.53,6.77,3.06,13.4,6.43,18.24,9.27,2.43,1.38,4.42,2.63,5.8,3.53,1.38,.89,2.15,1.45,2.15,1.45,0,0-.93-.2-2.51-.65-1.58-.44-3.83-1.1-6.48-2.01-5.33-1.75-12.24-4.49-19.02-7.54-6.77-3.06-13.4-6.44-18.24-9.27-2.43-1.38-4.42-2.63-5.8-3.53-1.38-.89-2.15-1.45-2.15-1.45Z"/><path class="cls-73" d="M156.61,377.81s.77,.54,2.06,1.55c1.29,1,3.13,2.45,5.26,4.25,1.07,.9,2.23,1.87,3.42,2.94,1.2,1.06,2.48,2.16,3.75,3.35,1.28,1.18,2.63,2.37,3.95,3.65,1.32,1.26,2.67,2.55,4.01,3.83,1.32,1.31,2.64,2.62,3.94,3.91,1.3,1.29,2.53,2.61,3.74,3.86,2.41,2.52,4.62,4.91,6.46,7.01,1.86,2.09,3.35,3.88,4.38,5.15,1.03,1.27,1.6,2.02,1.6,2.02,0,0-.77-.54-2.06-1.55-1.29-1-3.13-2.45-5.26-4.25-2.15-1.79-4.6-3.93-7.17-6.28-1.28-1.18-2.63-2.38-3.95-3.64-1.32-1.27-2.66-2.55-4-3.84-1.32-1.31-2.63-2.62-3.93-3.91-1.3-1.28-2.53-2.61-3.74-3.85-1.22-1.24-2.35-2.49-3.44-3.67-1.09-1.17-2.1-2.3-3.02-3.35-1.86-2.09-3.35-3.88-4.39-5.15-1.03-1.27-1.6-2.02-1.6-2.02Z"/><path class="cls-74" d="M159.7,381.63c1.28,1,3.04,2.39,5.08,4.12,1.07,.9,2.23,1.87,3.42,2.94,1.2,1.06,2.48,2.16,3.75,3.35,1.28,1.18,2.63,2.37,3.95,3.65,1.32,1.26,2.67,2.55,4.01,3.83,1.32,1.31,2.64,2.62,3.94,3.91,1.3,1.29,2.53,2.61,3.74,3.86,2.41,2.52,4.62,4.91,6.46,7.01,1.11,1.24,2.08,2.38,2.91,3.37,.05,.04,.11,.09,.16,.12,1.29,1,2.06,1.55,2.06,1.55,0,0-.56-.75-1.6-2.02-1.03-1.27-2.53-3.06-4.38-5.15-1.84-2.1-4.05-4.5-6.46-7.01-1.21-1.25-2.44-2.57-3.74-3.86-1.3-1.29-2.62-2.6-3.94-3.91-1.34-1.28-2.69-2.57-4.01-3.83-1.31-1.27-2.67-2.46-3.95-3.65-1.27-1.19-2.55-2.29-3.75-3.35-1.19-1.06-2.35-2.04-3.42-2.94-2.13-1.81-3.96-3.25-5.26-4.26-1.29-1-2.06-1.55-2.06-1.55,0,0,.56,.75,1.6,2.02,.42,.52,.92,1.12,1.49,1.8Z"/><path class="cls-72" d="M150.05,385.84s.88,.36,2.36,1.07c1.48,.71,3.58,1.75,6.03,3.11,4.94,2.65,11.28,6.54,17.42,10.72,6.14,4.19,12.08,8.66,16.35,12.29,2.16,1.79,3.89,3.36,5.09,4.48,1.2,1.12,1.86,1.8,1.86,1.8,0,0-.88-.36-2.36-1.07-1.48-.71-3.59-1.75-6.04-3.1-4.94-2.65-11.28-6.54-17.42-10.73-6.14-4.19-12.08-8.67-16.35-12.3-2.16-1.79-3.89-3.36-5.1-4.48-1.2-1.12-1.86-1.8-1.86-1.8Z"/><path class="cls-75" d="M152.44,388.12c.35,.16,.77,.36,1.27,.6,1.48,.71,3.58,1.75,6.03,3.11,4.94,2.65,11.28,6.54,17.42,10.72,6.14,4.19,12.08,8.66,16.35,12.29,1.87,1.55,3.42,2.94,4.58,4.01,.69,.31,1.07,.47,1.07,.47,0,0-.66-.68-1.86-1.8-1.2-1.12-2.94-2.7-5.09-4.48-4.27-3.63-10.21-8.1-16.35-12.29-6.14-4.18-12.49-8.07-17.42-10.72-2.45-1.35-4.55-2.39-6.03-3.11-1.48-.71-2.36-1.07-2.36-1.07,0,0,.66,.68,1.86,1.8,.16,.15,.34,.31,.52,.48Z"/><path class="cls-84" d="M148.64,397.29c.05,.01,.1,.03,.15,.04,1.58,.44,3.83,1.1,6.48,2.01,5.32,1.75,12.24,4.49,19.02,7.53,6.77,3.06,13.4,6.43,18.24,9.27,1.67,.95,3.1,1.83,4.3,2.58,1.48,.41,2.34,.6,2.34,.6,0,0-.77-.56-2.15-1.45-1.38-.9-3.36-2.15-5.8-3.53-4.84-2.83-11.47-6.21-18.24-9.27-6.78-3.05-13.7-5.78-19.02-7.53-2.65-.91-4.9-1.57-6.48-2.01-1.58-.44-2.51-.65-2.51-.65,0,0,.77,.56,2.15,1.45,.44,.28,.96,.61,1.51,.96Z"/></g><path class="cls-48" d="M212.77,364.07c-.64,1.51-1.53,3.69-2.47,6.32-.73,1.97-1.49,4.2-2.26,6.6-1.27,4-2.55,8.47-3.7,12.97-.44,1.75-.87,3.5-1.27,5.23,.11-1.23,.21-2.46,.3-3.7,.49-7,.63-14.01,.41-19.3-.08-2.64-.24-4.85-.38-6.4-.14-1.55-.27-2.44-.27-2.44,0,0-.02,.08-.07,.25-.1,.36-.3,1.09-.54,2.13-.36,1.51-.83,3.68-1.28,6.28-.96,5.2-1.81,12.17-2.31,19.17-.05,.74-.1,1.48-.14,2.22-.08-.97-.18-1.95-.27-2.92-.73-7.15-1.8-14.27-2.92-19.58-.53-2.66-1.07-4.86-1.48-6.4-.4-1.54-.69-2.42-.69-2.42,0,0,0,.09-.03,.26-.04,.38-.1,1.15-.16,2.24-.09,1.59-.19,3.86-.18,6.57-.04,4.41,.19,9.98,.66,15.75,.11,1.33,.23,2.67,.36,4.02,.05,.45,.09,.89,.14,1.34,.09,.82,.18,1.63,.27,2.44-.4-1.53-.81-3.07-1.24-4.6-2.02-7.15-4.38-14.21-6.46-19.41-1.01-2.61-1.95-4.76-2.63-6.26-.53-1.17-.91-1.94-1.06-2.22,0,0,0,0,0,0,0-.02-.02-.03-.02-.05,0,0,0,0,0,0,0-.01-.01-.02-.02-.03,0,0,0,0,0-.01,0-.01-.01-.02-.01-.02,0,0,.07,.95,.27,2.58,.05,.41,.11,.86,.17,1.35,.2,1.47,.47,3.29,.85,5.36,.53,3.11,1.29,6.76,2.21,10.64,.1,.43,.21,.86,.31,1.3,.21,.87,.43,1.75,.66,2.64,.45,1.77,.94,3.57,1.44,5.36,.25,.89,.51,1.79,.77,2.67,.13,.45,.27,.9,.4,1.35,.51,1.7,1.04,3.37,1.56,5-.51-1.15-1.02-2.33-1.58-3.5-.78-1.65-1.57-3.34-2.36-5.02-.82-1.67-1.65-3.33-2.46-4.97-.8-1.64-1.67-3.23-2.46-4.78-.79-1.55-1.62-3.02-2.38-4.43-.76-1.41-1.51-2.72-2.21-3.93-1.39-2.43-2.61-4.41-3.49-5.8-.7-1.12-1.19-1.83-1.35-2.07-.04-.06-.06-.09-.06-.09h0s0,0,0,0c0,0,.18,.59,.54,1.65,.08,.24,.17,.51,.27,.8,.1,.29,.21,.6,.33,.94,.51,1.45,1.19,3.29,2.03,5.4,.13,.33,.26,.66,.39,.99,.4,1.01,.83,2.08,1.3,3.18,.62,1.47,1.26,3.04,1.98,4.62,.72,1.59,1.41,3.25,2.2,4.9,.78,1.66,1.57,3.34,2.36,5.02,.82,1.67,1.64,3.33,2.45,4.97,.57,1.16,1.17,2.3,1.76,3.42-1.36-2.07-2.82-4.19-4.31-6.3-.35-.49-.69-.98-1.04-1.46-.27-.38-.54-.75-.82-1.13-4.1-5.62-8.39-10.99-11.89-14.9-.12-.13-.23-.26-.34-.39-.19-.22-.38-.43-.57-.64-.24-.26-.47-.52-.69-.77-.05-.05-.09-.1-.14-.15-1.11-1.22-2.09-2.24-2.86-3.02-.65-.66-1.15-1.15-1.47-1.46-.25-.24-.38-.36-.38-.36,0,0,.39,.87,1.13,2.33,.05,.09,.09,.18,.14,.28,.74,1.44,1.79,3.41,3.11,5.67,2.78,4.87,6.83,11.11,11.16,17.15,1.86,2.58,3.76,5.12,5.63,7.51-.86-.9-1.74-1.82-2.65-2.72-1.3-1.29-2.62-2.6-3.94-3.91-.53-.51-1.06-1.01-1.59-1.52-.81-.78-1.62-1.55-2.42-2.31-.33-.32-.66-.63-.99-.94-1-.93-2-1.82-2.95-2.71-1.27-1.19-2.55-2.29-3.75-3.35-.3-.27-.59-.53-.89-.78-.88-.76-1.73-1.48-2.53-2.15-1.6-1.35-3.03-2.51-4.19-3.42-.39-.3-.74-.58-1.07-.83-1.29-1-2.06-1.55-2.06-1.55,0,0,.56,.75,1.6,2.02,1.03,1.27,2.53,3.06,4.39,5.15,.93,1.05,1.93,2.18,3.02,3.35,1.09,1.17,2.22,2.42,3.44,3.67,1.22,1.25,2.44,2.57,3.74,3.85,1.3,1.29,2.61,2.6,3.93,3.91,1.34,1.29,2.68,2.57,4,3.84,.94,.9,1.89,1.76,2.82,2.61-2.45-1.82-5.05-3.67-7.69-5.47-3.07-2.09-6.19-4.11-9.16-5.93-.37-.23-.74-.45-1.11-.68-.73-.44-1.45-.88-2.16-1.29-1.77-1.04-3.45-1.99-4.99-2.82-.31-.17-.61-.33-.9-.49-2.06-1.12-3.83-1.99-5.13-2.61-.19-.09-.36-.17-.53-.25-1.16-.55-1.83-.82-1.83-.82,0,0,.5,.52,1.43,1.4,0,0,.02,.02,.03,.03,.13,.12,.26,.25,.41,.38,1.2,1.12,2.94,2.69,5.1,4.48,4.27,3.63,10.21,8.11,16.35,12.3,1.35,.92,2.71,1.83,4.07,2.71-1.46-.69-2.94-1.38-4.43-2.06-6.78-3.05-13.7-5.78-19.02-7.53-2.65-.91-4.9-1.57-6.48-2.01-1.48-.42-2.39-.62-2.5-.65,0,0-.01,0-.01,0,0,0,.07,.05,.22,.16,.32,.22,.98,.68,1.93,1.3,.11,.07,.23,.15,.36,.23,1.36,.87,3.21,2.03,5.44,3.3,4.84,2.83,11.47,6.21,18.24,9.27,1.49,.67,2.99,1.33,4.47,1.96-1.56-.43-3.14-.85-4.72-1.26-1.8-.46-3.61-.89-5.39-1.3-.72-.17-1.44-.33-2.15-.48-.33-.07-.66-.14-.99-.22-.55-.12-1.09-.23-1.62-.34-3.6-.75-6.98-1.35-9.88-1.77-1.9-.3-3.6-.51-5-.67-.64-.07-1.22-.13-1.73-.18-.1-.01-.2-.02-.3-.03-1.45-.14-2.29-.17-2.29-.17h0s0,0,0,0c0,0,0,0,0,0,.03,.02,.88,.43,2.36,1.06,1.51,.64,3.69,1.53,6.32,2.47,5.26,1.95,12.37,4.12,19.57,5.96,.89,.23,1.77,.45,2.66,.66-.09,0-.19-.02-.28-.03-.85-.07-1.7-.14-2.55-.2-2.12-.15-4.22-.27-6.24-.35-.41-.02-.81-.03-1.21-.05-3.2-.11-6.19-.13-8.76-.05-2.57,.04-4.72,.18-6.23,.3-1.51,.12-2.37,.24-2.37,.24,0,0,.12,.04,.34,.1,.37,.11,1.04,.3,1.96,.53,.15,.04,.32,.08,.48,.12,.08,.02,.16,.04,.24,.06,.08,.02,.17,.04,.26,.06,1.36,.33,3.09,.73,5.1,1.11,5.04,1.02,11.81,1.96,18.6,2.55,1.34,.11,2.67,.21,4,.3-2.12,.15-4.28,.34-6.44,.56-6.4,.65-12.77,1.55-17.93,2.53-.43,.08-.85,.16-1.26,.24-.36,.07-.71,.14-1.05,.21-2.75,.54-5.03,1.09-6.62,1.5-1.59,.41-2.5,.69-2.5,.69,0,0,.94,.1,2.59,.18,1.64,.08,3.99,.17,6.78,.16,5.6,.03,13.03-.36,20.43-1.09,7.39-.74,14.75-1.83,20.24-2.98,2.75-.54,5.03-1.09,6.62-1.5,1.29-.33,2.13-.58,2.4-.67,.02,0,.04-.01,.05-.02,.03,0,.04-.01,.04-.01,0,0,.42-.85,1.06-2.37,.06-.15,.13-.31,.2-.47,.05-.12,.1-.24,.15-.36,0-.01,0-.02,.01-.03,.6-1.43,1.33-3.28,2.11-5.46,1.95-5.26,4.12-12.37,5.95-19.57,1.82-7.2,3.31-14.49,4.11-20.04,.43-2.77,.69-5.1,.85-6.73,.14-1.43,.19-2.34,.2-2.54,0-.03,0-.04,0-.04,0,0-.42,.85-1.06,2.37Z"/></g><g><g><path class="cls-86" d="M246.4,419.45s-2.54-3.02-2.29-4.87,1.64-3.55,1.64-3.55c0,0-2.81-.64-2.62-2.64s2.32-3.47,2.32-3.47c0,0-2.01-1.77-1.38-3.73s2.15-3.18,2.98-2.76c-1.16-1.31-1.25-3.76,.33-4.43,.64-2.09,.26-4.89,1.94-5.62,1.68-.73,2.46-1.47,2.69-2.62,.23-1.14,1.19-3.94,2.31-4.49,1.12-.55,1.62-3.41,2.56-4.16s2.76-1.93,4.17-1.59-.05-1.2,.71-2.25,3.46-.54,3.46-.54c0,0,1.15-.57,1.36,.63s1.29-.53,1.42-.78,1.51-1.34,2.12-1.17,1.57,1.08,1.57,1.08c0,0,.63-.59,1.37-.47s6.94-1.96,9.62-.83c2.68,1.13,2.98,2.15,2.98,2.15,0,0,1.78,1.15,2.84,.54s1.64-.46,2.37-.12,2.73,.06,3.59,.83,2.42-.71,2.42-.71c0,0,.85-3.03,3.41-2.62s-.87-3.38,2.52-2.37,5.58-.14,6.55,1.11,5.96-.97,6.12,1.31,5.14,2.96,4.88,3.76,3.06,3.65,3.06,3.65c0,0,2.99,.94,2.99,2.37,0,1.43,3.44-1.24,2.71,2.02-.73,3.26,1.82,2.27,1.3,4.13s1.06,6.55,1.06,6.55c0,0,1.51,2.46,.41,5.81s-.15,3.67-1.3,7.12,.75,1.97-1.06,5.9,.12,1.65-1.81,7.03c-1.93,5.38-1.62,8.07-1.62,8.07l-4.36,7.99-47.45,.87-26.06-14.37-1.85-2.77Z"/><path class="cls-54" d="M255.93,418.58s-2.24-2.66-2.02-4.29c.21-1.62,1.44-3.13,1.44-3.13,0,0-2.48-.56-2.31-2.33s2.05-3.05,2.05-3.05c0,0-1.77-1.56-1.21-3.29s1.89-2.8,2.63-2.43c-1.02-1.15-1.1-3.31,.29-3.9,.56-1.84,.23-4.31,1.71-4.95s2.16-1.3,2.37-2.31,1.05-3.47,2.03-3.96,1.43-3,2.26-3.67,2.43-1.7,3.67-1.4-.04-1.06,.63-1.98,3.05-.47,3.05-.47c0,0,1.01-.51,1.2,.55s1.14-.47,1.25-.69,1.33-1.18,1.87-1.03,1.38,.95,1.38,.95c0,0,.56-.52,1.21-.41s6.11-1.72,8.47-.73c2.36,.99,2.63,1.89,2.63,1.89,0,0,1.57,1.02,2.5,.47s1.45-.4,2.09-.11,2.4,.05,3.16,.73,2.13-.63,2.13-.63c0,0,.74-2.67,3.01-2.31s-.77-2.98,2.22-2.08,4.92-.13,5.77,.98,5.25-.85,5.39,1.16c.14,2.01,4.53,2.61,4.3,3.31s2.69,3.22,2.69,3.22c0,0,2.63,.82,2.63,2.09s3.03-1.09,2.39,1.78c-.64,2.87,1.6,2,1.14,3.63-.46,1.63,.93,5.77,.93,5.77,0,0,1.33,2.17,.36,5.12s-.13,3.24-1.14,6.27c-1.01,3.03,.66,1.74-.94,5.19-1.59,3.46,.11,1.45-1.59,6.19s-1.43,7.1-1.43,7.1l-3.84,7.04-41.79,.76-22.95-12.65-1.63-2.44Z"/><path class="cls-50" d="M261.84,420.89s-2-2.38-1.8-3.83c.19-1.45,1.29-2.79,1.29-2.79,0,0-2.21-.5-2.06-2.08,.15-1.58,1.83-2.73,1.83-2.73,0,0-1.58-1.39-1.08-2.93s1.69-2.5,2.35-2.17c-.91-1.03-.98-2.95,.26-3.49,.5-1.64,.21-3.85,1.52-4.42s1.93-1.16,2.12-2.06,.94-3.1,1.82-3.53,1.27-2.68,2.02-3.28,2.17-1.52,3.28-1.25-.04-.95,.56-1.77,2.72-.42,2.72-.42c0,0,.9-.45,1.07,.49s1.02-.42,1.12-.61,1.19-1.06,1.67-.92,1.23,.85,1.23,.85c0,0,.5-.47,1.08-.37s5.46-1.54,7.57-.65,2.34,1.69,2.34,1.69c0,0,1.4,.91,2.23,.42s1.29-.36,1.87-.09,2.15,.05,2.82,.65,1.91-.56,1.91-.56c0,0,.66-2.38,2.68-2.06s-.68-2.66,1.99-1.86,4.39-.11,5.15,.87,4.69-.76,4.82,1.03c.13,1.79,4.04,2.33,3.84,2.96s2.41,2.87,2.41,2.87c0,0,2.35,.74,2.35,1.86s2.7-.97,2.13,1.59,1.43,1.79,1.02,3.25,.83,5.16,.83,5.16c0,0,1.19,1.94,.32,4.57-.87,2.64-.12,2.89-1.02,5.6s.59,1.55-.84,4.64,.1,1.29-1.42,5.53-1.28,6.34-1.28,6.34l-3.43,6.29-37.32,.68-20.49-11.3-1.46-2.17Z"/><path class="cls-53" d="M266.71,422.8s-1.74-2.07-1.57-3.33,1.12-2.43,1.12-2.43c0,0-1.93-.44-1.8-1.81s1.59-2.38,1.59-2.38c0,0-1.38-1.21-.94-2.56s1.47-2.18,2.04-1.89c-.8-.89-.86-2.57,.23-3.04,.44-1.43,.18-3.35,1.33-3.85s1.68-1.01,1.84-1.79,.82-2.7,1.58-3.08,1.11-2.33,1.76-2.85,1.89-1.33,2.85-1.09-.03-.82,.49-1.54,2.37-.37,2.37-.37c0,0,.79-.39,.94,.43s.89-.37,.97-.53,1.04-.92,1.46-.8,1.08,.74,1.08,.74c0,0,.43-.41,.94-.32s4.76-1.34,6.59-.57,2.04,1.47,2.04,1.47c0,0,1.22,.79,1.95,.37s1.13-.31,1.63-.08,1.87,.04,2.46,.57,1.66-.49,1.66-.49c0,0,.58-2.08,2.34-1.79s-.6-2.32,1.73-1.62,3.83-.1,4.49,.76,4.08-.66,4.2,.9,3.52,2.03,3.35,2.58,2.1,2.5,2.1,2.5c0,0,2.05,.64,2.05,1.62s2.36-.85,1.86,1.38,1.25,1.56,.89,2.83,.73,4.49,.73,4.49c0,0,1.04,1.69,.28,3.98s-.1,2.52-.89,4.88c-.79,2.36,.51,1.35-.73,4.04-1.24,2.69,.08,1.13-1.24,4.82-1.32,3.69-1.11,5.53-1.11,5.53l-2.99,5.48-32.52,.59-17.86-9.85-1.27-1.89Z"/></g><path class="cls-49" d="M309.39,370c-.97-1.25-3.15-.1-6.55-1.11s.04,2.78-2.52,2.37-3.41,2.62-3.41,2.62c0,0-1.57,1.48-2.42,.71s-2.86-.5-3.59-.83-1.32-.5-2.37,.12-2.84-.54-2.84-.54c0,0-.3-1.02-2.98-2.15-2.68-1.13-8.88,.95-9.62,.83s-1.37,.47-1.37,.47c0,0-.96-.91-1.57-1.08s-2,.93-2.13,1.17c-.13,.25-1.2,1.98-1.42,.78s-1.36-.63-1.36-.63c0,0-2.71-.51-3.46,.54-.76,1.05,.69,2.6-.71,2.25-1.41-.35-3.22,.83-4.17,1.59-.94,.76-1.45,3.62-2.56,4.16s-2.08,3.35-2.31,4.49c-.23,1.14-1.02,1.88-2.69,2.62-1.68,.73-1.3,3.54-1.94,5.62-1.58,.68-1.49,3.13-.33,4.43-.83-.42-2.35,.79-2.98,2.76s1.38,3.73,1.38,3.73c0,0-2.13,1.46-2.32,3.47s2.62,2.64,2.62,2.64c0,0-1.39,1.71-1.64,3.55-.24,1.84,2.29,4.87,2.29,4.87l1.85,2.77,26.06,14.37,47.45-.87,4.36-7.99s-.31-2.68,1.62-8.07c1.93-5.38,0-3.1,1.81-7.03,1.81-3.92-.08-2.45,1.06-5.9,1.15-3.45,.19-3.77,1.3-7.12s-.41-5.81-.41-5.81c0,0-1.58-4.7-1.06-6.55s-2.03-.87-1.3-4.13c.73-3.26-2.71-.59-2.71-2.02,0-1.43-2.99-2.37-2.99-2.37,0,0-3.32-2.85-3.06-3.65,.26-.8-4.72-1.48-4.88-3.76s-5.16-.06-6.12-1.31Z"/></g><path class="cls-37" d="M372.57,449.87c-6.09-24.65-40.31-34.94-48.46-36.17-.44-.07-44.6-6.64-90.93-5.67-32.08,.67-58.08,9.49-75.15,16.31-3.88-1.33-18.55-1.38-25.5-.62-8.25,.9-12.99,1.99-17.49,4.04-5.33,2.42-7.28,7.12-7.59,8.73l-.05,.28v3.99l.12,.42c.09,.32,1,3.23,3.45,6.52,.96,1.29,2.65,2.81,4.2,4.08,.19,4.3,3.16,9.06,9.37,15.12,16.77,16.35,43.56,19.57,93.66,20.29,14.98,.21,31.27-.2,47.22-1.21,1.01,1.3,2.29,2.42,3.83,3.33,4.22,2.49,9.8,3.17,12.48,3.5,.49,.06,.87,.1,1.08,.14,.64,.14,2.52,.38,7.33,.98,3.47,.43,8.69,1.08,9.68,1.29,1.16,.39,4.95,1.31,7.2,1.31,.26,0,.49-.01,.7-.04,.31-.04,1.55-.12,2.74-.21,4.93-.34,9.96-.72,12.39-1.25,4.36-.96,14.03-8.24,16.38-11.39,2.4-3.23,3.29-6.08,3.38-6.4l.12-.42v-2.21c22.27-6.39,32.3-14.71,29.82-24.74Z"/><g><path class="cls-6" d="M218.26,481.19c-50.67-.73-75.79-4.01-91.61-19.44-15.82-15.43-8.11-20.05,11.64-28.69,19.74-8.64,52.34-24.14,94.97-25.03,42.63-.89,84.54,4.75,90.42,5.63,5.88,.89,40.13,10.19,45.99,33.92,5.86,23.73-86.85,34.53-151.4,33.6Z"/><path class="cls-7" d="M327.27,437.3c2.34-12.71,3.32-20.18-3.6-23.63h0c-4.43-.67-29.29-4.02-59.49-5.26-7.34-.26-14.57-.42-21.11-.46-3.25,0-6.52,.03-9.8,.09-6.22,.28-24.72,1.62-36.48,7.95-14.66,7.89-22.68,23.79-33.67,29.12-8.38,4.07-30.8,8.04-35.57,17.49,15.87,14.7,40.99,17.88,90.71,18.59,41.14,.59,93.7-3.58,124.91-12.83,3.4-8.82-18.41-17.43-15.9-31.07Z"/><g><g><path class="cls-36" d="M185.52,437.03s.44,1.37,.44,2.62-.3,5.47-5.01,8.25-11.68,3.08-12.99,3.37-16.68,2.03-17.64,2.38-5.36,1.37-6.79,1.19-11.75-.69-15.19-1.44-12.75-7.52-14.96-10.49c-2.2-2.96-2.98-5.59-2.98-5.59v-3.28l39.98,1.07,35.14,1.91Z"/><path class="cls-31" d="M113.57,440.49s-3.35-5.48-3.17-6.44,1.69-4.65,5.88-6.55,8.7-2.93,16.57-3.79c7.87-.86,22.13-.5,24.3,.51s8.73,3.97,11.35,4.64,6.83,2.03,10.56,2.18c3.73,.15,6.91,2.54,6.46,5.99-.46,3.46-1.26,8.51-9.44,10.87s-26.09,3.19-29.83,4.39c-3.74,1.19-7.87,.24-15.87-.83-8-1.07-16.07-9.71-16.81-10.96Z"/></g><polygon class="cls-36" points="143.21 453.55 144.29 448.37 145.84 452.84 143.21 453.55"/><polygon class="cls-36" points="185.52 437.03 182.5 436.21 184.95 437.28 184.01 437.64 185.52 438.76 185.52 437.03"/></g><g><g><path class="cls-36" d="M266.33,473.1s-.43,1.34-.43,2.56c0,1.22,.29,5.34,4.89,8.06s11.42,3.01,12.7,3.3,16.31,1.98,17.24,2.33,5.24,1.34,6.64,1.16,11.49-.67,14.85-1.41c3.36-.74,12.46-7.35,14.62-10.25,2.15-2.9,2.91-5.46,2.91-5.46v-3.2s-39.08,1.05-39.08,1.05l-34.34,1.86Z"/><path class="cls-31" d="M336.66,476.48s3.28-5.36,3.1-6.29-1.65-4.54-5.75-6.41c-4.1-1.86-8.5-2.87-16.2-3.71-7.7-.84-21.63-.49-23.75,.5-2.12,.99-8.53,3.88-11.09,4.53s-6.68,1.98-10.32,2.13c-3.65,.15-6.76,2.48-6.31,5.86s1.23,8.31,9.23,10.62,25.5,3.12,29.15,4.29,7.69,.23,15.52-.82c7.82-1.05,15.71-9.49,16.43-10.72Z"/></g><polygon class="cls-36" points="266.33 473.1 269.29 472.3 266.89 473.35 267.81 473.7 266.33 474.79 266.33 473.1"/></g><g id="Plant"><g><g><path class="cls-35" d="M400.98,391.59l-23.86,10-5.2-5.3,3.74,6.15-7.56,6.05-2.91-8.21,1.62,8.64-5.82,4.51-3.93-7.66,1.48,9.38-5.05,4.19-3.35-7.11,1.89,8.75s-5.46,4.61-13.17,5.14l-6.52-2.64c3.22-7.22,22.64-45.3,68.65-31.9Z"/><polygon class="cls-33" points="400.98 391.59 377.12 401.59 371.92 396.28 377.31 400.55 383.13 398.11 382.95 397.02 383.86 397.92 390.47 395.19 389.46 393.54 390.99 394.92 399.79 391.25 400.98 391.59"/><polygon class="cls-33" points="375.66 402.43 371.92 396.28 374.53 402.25 374.21 402.8 372.91 402.17 373.26 403.54 368.56 407.19 365.26 400.45 368.1 408.48 375.66 402.43"/><polygon class="cls-33" points="366.81 408.92 365.19 400.27 366.22 408.44 365.36 408.44 366.11 408.99 363.01 411.24 361.53 409.35 361.83 410.52 362.03 411.92 361.23 412.62 357.06 405.77 360.99 413.43 366.81 408.92"/><polygon class="cls-33" points="358.53 415.15 357.06 405.77 358.14 414.77 356.77 415.9 355.57 414.4 356.32 416.29 355.25 417.08 354.14 415.79 354.42 416.9 354.3 417.99 353.71 418.5 350.13 412.23 353.48 419.34 358.53 415.15"/><polygon class="cls-33" points="352.02 420.99 350.13 412.23 351.36 420.56 350.24 421.63 348.71 422.53 347.9 421.23 347.95 422.73 345.73 423.9 342.66 424.68 340.05 425.35 338.9 425.23 338.19 425.16 337.59 421.77 337.56 424.87 335.99 424.39 331.64 422.68 331.49 423.14 334.51 424.37 338.87 426.27 342.06 425.67 344.23 425.12 348.3 423.64 351.18 421.87 352.02 420.99"/></g><g><path class="cls-35" d="M364.19,377.34l-11.89,18.14-4.1-1.81,1.41,3.65-2.93,5.32-2.21-1.41,.35,4.11s-5.97,11.68-11.77,18.43l-1.57-.63c3.62-10.72,17.15-44.63,32.71-45.8Z"/><g><polygon class="cls-33" points="364.19 377.34 352.3 395.49 348.2 393.68 352.14 394.93 353.35 393.38 352.16 392.65 353.54 392.84 356.81 387.92 355.26 386.77 356.54 386.85 356.43 386.45 357.33 386.91 363.78 377.58 363.95 377.37 364.19 377.34"/><polygon class="cls-33" points="349.61 397.33 348.2 393.68 349.29 397.34 348.44 397.39 349.08 397.57 347.78 400.02 346.98 399.8 347.65 400.28 346.69 402.21 344.47 401.24 346.68 402.65 349.61 397.33"/><polygon class="cls-33" points="333.05 423.78 334.79 421.73 336.34 419.61 338.04 417.13 339.63 414.49 341.09 412.07 342.38 409.84 343.67 407.51 344.82 405.35 344.47 401.24 344.61 405.27 344.14 405.34 344.5 405.43 343.04 408.15 341.98 407.71 342.85 408.41 341.51 410.74 339.97 413.29 339.31 412.98 339.63 413.44 338.76 413.43 339.52 413.8 338.28 415.99 337.02 418.12 335.82 419.86 335.34 419.76 335.65 420.13 334.02 422.35 332.98 423.51 331.49 423.14 333.05 423.78"/></g></g></g><g><g><path class="cls-35" d="M342.97,377.15l-4.86,18.51-5.46,.67,5.3,.57,.15,7.16-6.13-1.98,5.8,2.94,.03,5.45-6.27-1.14,6.18,3.36,.19,4.85-5.68-1.23,5.99,2.83s.25,5.28-2.91,10.04l-4.48,2.64c-2.79-5.14-16.42-33.68,12.15-54.67Z"/><polygon class="cls-33" points="342.97 377.15 338.11 395.66 332.66 396.33 337.59 395.09 338.77 390.57 338.05 390.19 338.99 390.06 340.36 384.95 338.94 384.8 340.44 384.52 342.24 377.7 342.97 377.15"/><polygon class="cls-33" points="337.95 396.9 332.66 396.33 337.33 397.48 337.52 397.92 336.56 398.4 337.52 398.81 337.55 403.21 332.11 402.12 338.1 404.06 337.95 396.9"/><polygon class="cls-33" points="337.78 405.02 331.97 402.08 337.24 405.15 336.84 405.65 337.51 405.46 337.43 408.29 335.65 408.31 336.48 408.66 337.39 409.18 337.44 409.96 331.54 409.33 337.81 410.47 337.78 405.02"/><polygon class="cls-33" points="337.72 412.69 331.54 409.33 337.32 412.74 337.37 414.06 335.94 414.09 337.39 414.49 337.37 415.48 336.11 415.55 336.89 415.88 337.48 416.44 337.51 417.02 332.22 416.31 337.9 417.54 337.72 412.69"/><polygon class="cls-33" points="338.21 419.14 332.22 416.31 337.66 419.33 337.79 420.47 337.63 421.77 336.5 421.66 337.4 422.31 337.1 424.14 336.17 426.29 335.39 428.13 334.81 428.75 334.44 429.14 332.18 427.96 333.99 429.37 333 430.08 330.04 431.86 330.24 432.16 332.32 430.94 335.4 429.24 336.49 427.09 337.13 425.57 338.1 422.51 338.36 420.03 338.21 419.14"/></g><g><path class="cls-35" d="M318.06,392.35l5.31,15.14-2.91,1.6,2.78,.81,1.81,4.11-1.82,.66,2.57,1.64s4.17,8.76,5.53,15.2l-1.08,.63c-4.67-6.95-18.5-30.15-12.18-39.81Z"/><g><polygon class="cls-33" points="318.06 392.35 323.37 407.5 320.46 409.09 322.96 407.34 322.6 405.93 321.64 406.3 322.37 405.58 320.95 401.44 319.58 401.84 320.2 401.12 319.91 401 320.59 400.69 318.01 392.7 317.96 392.5 318.06 392.35"/><polygon class="cls-33" points="323.24 409.9 320.46 409.09 323.09 410.1 322.74 410.62 323.14 410.33 323.99 412.19 323.5 412.56 324.09 412.39 324.79 413.82 323.22 414.68 325.04 414.02 323.24 409.9"/><polygon class="cls-33" points="331.32 431.53 330.9 429.59 330.35 427.73 329.66 425.61 328.82 423.49 328.06 421.54 327.33 419.78 326.54 417.97 325.79 416.33 323.22 414.68 325.65 416.41 325.48 416.72 325.69 416.55 326.63 418.63 325.9 419.06 326.7 418.86 327.46 420.69 328.27 422.75 327.79 422.99 328.21 423.02 327.81 423.52 328.37 423.24 329.1 424.96 329.78 426.65 330.26 428.14 329.99 428.38 330.34 428.37 330.91 430.32 331.13 431.45 330.24 432.16 331.32 431.53"/></g></g></g></g><g><path class="cls-36" d="M341.45,426.96s.27,1.56,.36,2-.46,2.67-1.27,3.66-2.67,2.3-4.21,2.46-2.95,.25-4.1,.44-3.31,.58-6.86-.77-7.32-2.41-8.19-2.59-2.25-1.56-2.28-2.12,0-1.89,0-1.89l14.77,.87,11.77-2.07Z"/><path class="cls-31" d="M318.73,425.4s5.93-4.62,7.94-5.43,9.18,.53,9.18,.53c0,0,6.43,4.12,5.52,7.3-.92,3.19-2.79,6.36-6.46,6.48-3.66,.13-4.8,1.32-10.12-.7-5.32-2.02-8.82-2.35-9.74-4.68s3.69-3.5,3.69-3.5Z"/></g></g><path class="cls-8" d="M216.21,419.46s-17.2-.1-24.58,7.62c-7.38,7.72-13.53,10.44-10.58,19.35,2.95,8.91,34.32,15.33,67.23,10.62,32.91-4.71,43-2.35,55.8-12.41s8.07-17.09,3.05-19.46-18.97-4.97-35-4.2c-16.03,.77-55.92-1.52-55.92-1.52Z"/><g><path class="cls-32" d="M209.51,147.24c-.35-11.03,3.22-32.28,3.22-32.28,0,0-11.1,5.84-11.8,8.3-.7,2.45-13.31,55.33-13.31,55.33,0,0-4.73,1.05-4.73,1.58v1.93s0,1.75,0,1.75c0,0-5.78,2.1-6.65,4.03-.88,1.93-7.7,14.88-7.7,18.91,0,4.03,3.5,12.26,8.41,13.83,4.9,1.58,20.83-18.21,22.41-21.71,1.06-2.35,6.53-19.61,10.02-30.71,.24-8.1,.3-15.85,.14-20.94Z"/><path class="cls-28" d="M199.35,198.89c1.06-2.35,6.53-19.61,10.02-30.71,.24-8.1,.3-15.85,.14-20.94-.2-6.22,1.28-15.96,2.6-23.26-2.86,2.66-6.28,7.04-7.5,13.48-2.24,11.79-10.2,44.37-10.2,44.37,0,0-6.81,1.5-5.7,1.6,1.12,.1,3.23,.94,2.59,3.45-.64,2.51-7.23,4.64-12.3,16.54-2.46,5.78,.14,10.99,3.46,14.82,6.61-5.13,15.72-16.74,16.89-19.34Z"/><g><g><circle class="cls-17" cx="187.72" cy="193.29" r="7.05"/><circle class="cls-18" cx="187.72" cy="193.29" r="5.22"/></g><g><circle class="cls-17" cx="177.15" cy="193.92" r="7.05"/><circle class="cls-18" cx="177.15" cy="193.92" r="5.22"/></g><path class="cls-27" d="M194.64,218.68l-29.11-2.61c-1.18-.11-2.05-1.15-1.95-2.33l1.8-20.06c.11-1.18,1.15-2.05,2.33-1.95l29.11,2.61c1.18,.11,2.05,1.15,1.95,2.33l-1.8,20.06c-.11,1.18-1.15,2.05-2.33,1.95Z"/><g><rect class="cls-46" x="166.44" y="213.23" width="1.33" height="1.67" transform="translate(-61.01 361.41) rotate(-84.88)"/><path class="cls-46" d="M189.03,216.69l-3.53-.32,.12-1.32,3.53,.32-.12,1.32Zm-7.05-.63l-3.53-.32,.12-1.32,3.53,.32-.12,1.32Zm-7.05-.63l-3.53-.32,.12-1.32,3.53,.32-.12,1.32Z"/><rect class="cls-46" x="192.78" y="215.59" width="1.33" height="1.67" transform="translate(-39.36 389.8) rotate(-84.88)"/></g><path class="cls-46" d="M184.99,209.31l12.85,1.15c.41,.04,.77-.26,.81-.68l.6-6.68c.04-.41-.26-.77-.68-.81l-12.85-1.15c-1.23-.11-2.33,.8-2.44,2.04l-.33,3.7c-.11,1.23,.8,2.32,2.04,2.43Z"/><circle class="cls-9" cx="187.31" cy="205.33" r="2.65"/><g><rect class="cls-46" x="168.22" y="193.33" width="1.33" height="1.67" transform="translate(-39.57 345.07) rotate(-84.88)"/><path class="cls-46" d="M190.81,196.8l-3.53-.32,.12-1.32,3.53,.32-.12,1.32Zm-7.05-.63l-3.53-.32,.12-1.32,3.53,.32-.12,1.32Zm-7.05-.63l-3.53-.32,.12-1.32,3.53,.32-.12,1.32Z"/><rect class="cls-46" x="194.56" y="195.69" width="1.33" height="1.67" transform="translate(-17.92 373.45) rotate(-84.88)"/></g></g><g><path class="cls-19" d="M164.68,205.2s-7.41,3.72-10.37,6.88c-2.96,3.15-.76,4.68,0,4.97,.76,.29,4.9,0,5.6,.48,.7,.48-.06,6.69,1.66,6.69,1.72,0,5.06-2.01,5.44-1.91,.38,.09,2.01,2.2,3.15,1.91s3.51-2.2,3.51-2.2c0,0,4.41,.67,6.04-.48,1.62-1.15,1.24-6.59,.38-6.97-.86-.38-4.59,2.2-4.59,2.2,0,0,.76-3.25-1.15-3.82-2.45-.74-4.59,2.87-4.59,2.87,0,0,.96-2.48,.19-3.63-.76-1.15-5.06-.19-5.06-.19,0,0,1.72-1.72,1.91-3.34,.19-1.62-.48-4.3-2.15-3.44Z"/><path class="cls-13" d="M163.05,213.66l-5.73,3.55s2.76-.03,2.75,.62l2.98-4.17Z"/><path class="cls-13" d="M168.96,217.83l-1.38,4.92s-.59-.73-1.76,0l3.14-4.92Z"/><polygon class="cls-13" points="173.15 222.42 174.88 218.39 174.36 222.09 173.68 222.01 173.15 222.42"/></g><path class="cls-41" d="M266.34,198.94s5.98,3.37,6.84,6.53c.99,3.78-1.45,19.06-2.01,23.76s-.89,12.61-1.04,14.15-7.99,2.38-8.34,2.38,2.04-36.81,2.59-39.73,1.97-7.09,1.97-7.09Z"/><path class="cls-32" d="M224.5,108.36l-.18-1.32s-1.49-.74-3.97-.76c-2.48-.26,3.22-1.1,4.53-1.52s5.65-2.9,6.17-3.04-.53,4.06-.53,4.06l-1.85,.79-4.17,1.78Z"/><path class="cls-21" d="M294.13,373.11c-4.37-15.29-13.29-32.41-16.93-36.96-3.64-4.55-5.46-12.74-7.28-21.12-1.82-8.37-7.4-61.05-7.4-70.03,0-6.35,.48-14.38,.77-18.55-2.04,.59-16.03,4.47-30.5,4.47s-26.88-4.1-29.8-5.07c-2.81,10.53-7.84,30.6-8.19,40.23-.49,13.39,3.88,52.23,2.91,61.45-.97,9.22-6.8,29.13-5.83,41.75,.97,12.62,8.74,55.83,8.74,55.83l-3.7,4.07s6.92-4.37,14.56,0l7.65,4.37s4.73,4.83,6.19,4.14c1.46-.69,2.73-1.96,2.73-1.96l-1.82-3.82s-6.37-60.44-6.37-72.82c0-12.38-1.27-20.75-.18-24.94,1.09-4.19,1.46-11.65,1.27-17.84-.18-6.19,5.64-63.17,7.1-63.17s2.73-.36,4.01,9.1c1.27,9.47,11.47,55.53,12.74,62.44,1.27,6.92,3.82,10.92,5.83,14.2,2,3.28,14.38,39.14,18.02,57.53,3.64,18.39,4.91,29.13,4.19,31.68-.73,2.55,1.64,4.91,1.64,4.91,0,0,5.64-7.28,10.92-8.37,5.28-1.09,12.56,.55,15.66,3.64,3.1,3.1,4.37,4.19,4.37,4.19,0,0-6.92-44.06-11.29-59.35Z"/><path class="cls-34" d="M219.13,433.55l-7.65-4.37c-7.65-4.37-14.56,0-14.56,0l1.15-1.26c-2.53,1.53-5.09,3.23-6.3,4.48-2.8,2.91-3.53,7.28-3.53,7.28,0,0,31.31,.24,33.98,0,1.03-.09,1.73-.98,2.21-2.04-1.93-.65-5.3-4.09-5.3-4.09Z"/><path class="cls-34" d="M301.05,428.27c-3.1-3.1-10.38-4.73-15.66-3.64-4.39,.91-9.01,6.08-10.46,7.8,.02,.82,.08,1.64,.2,2.39l.49,3.16s7.77,.24,16.75,0c8.98-.24,13.05-1.7,13.05-1.7,0,0-.04-1.86-.5-4.28-.63-.57-1.86-1.73-3.87-3.73Z"/><path class="cls-10" d="M200.62,425.12l-3.7,4.07s6.92-4.37,14.56,0l7.65,4.37s4.73,4.83,6.19,4.14c1.46-.69,2.73-1.96,2.73-1.96l-1.82-3.82s-6.37-60.44-6.37-72.82c0-12.38-1.27-20.75-.18-24.94,1.09-4.19,1.46-11.65,1.27-17.84-.18-6.04,5.36-60.41,6.99-63.06-1.2,1.16-11.88,11.78-14.07,24.91-2.32,13.91-3.69,55.77-3.69,55.77-4.43,14.95-5.96,33.89-3.84,58.62,.86,10.07-2.58,18.73-6.97,25.46,.76,4.34,1.26,7.11,1.26,7.11Z"/><path class="cls-10" d="M272.83,428.09c-.73,2.55,1.64,4.91,1.64,4.91,0,0,5.64-7.28,10.92-8.37,5.28-1.09,12.56,.55,15.66,3.64,3.1,3.1,4.37,4.19,4.37,4.19,0,0-.84-5.33-2.11-12.92-4.86-2.29-12.36-6.22-15.63-9.99-5.02-5.8-15.85-55.27-22.8-64.16-6.96-8.89-10.43-17-16.28-44.83-4.36-20.74-12.92-35.22-16.99-41.24,.15,.85,.3,1.81,.45,2.91,1.27,9.47,11.47,55.53,12.74,62.44,1.27,6.92,3.82,10.92,5.83,14.2,2,3.28,14.38,39.14,18.02,57.53,3.64,18.39,4.91,29.13,4.19,31.68Z"/><path class="cls-1" d="M266.34,192.28l9.89,.33s-.68-4.02,.52-3.66c1.2,.36,3.42,1.75,3.42,1.75,0,0-2.35-2.47-2.23-2.82,.12-.36,2.35-1.6,2.35-1.6l-8.09-29.62c-1.22,7.3-3.82,22.84-5.42,32.73-.15,.93-.3,1.9-.45,2.9Z"/><path class="cls-32" d="M299.23,206.85c0-3.59-12.44-82.52-13.16-85.39-.7-2.79-16.3-8.28-17.13-8.67h0s.9,3.05,1.98,10.05c1.08,7,1.97,30.14,1.97,30.14,0,0-.26,1.54-.68,4.05l8.09,29.62s18.93,23.8,18.93,20.21Z"/><path class="cls-19" d="M263.48,221.75c.01-.14,.02-.29,.04-.45,.03-.32,.06-.66,.09-1.02,.02-.19,.03-.38,.05-.58,0-.08,.01-.17,.02-.25,.02-.2,.04-.41,.05-.62,.02-.27,.05-.55,.07-.83,.03-.38,.07-.77,.11-1.18,.01-.13,.02-.25,.03-.38,.02-.24,.04-.49,.07-.73,.01-.13,.02-.26,.04-.39,.44-4.65,1.04-10.6,1.75-16.34,.02-.18,.04-.35,.07-.53,.04-.29,.07-.58,.11-.87,.02-.17,.04-.34,.07-.51,.04-.3,.08-.61,.12-.91,.29-2.17,.59-4.26,.91-6.2,.03-.21,.07-.42,.1-.63h0c.14-.84,.28-1.71,.43-2.61,0-.02,0-.04,0-.05,.07-.44,.15-.89,.22-1.35,0-.02,0-.04,0-.06,.11-.68,.23-1.38,.34-2.08,0-.04,.01-.07,.02-.11,.2-1.2,.4-2.43,.61-3.68,0,0,0-.02,0-.03,.33-1.98,.66-4,.99-5.98,.02-.1,.03-.2,.05-.3,1.72-10.35,3.32-19.89,3.32-19.89,0,0-.07-1.76-.19-4.46,0-.02,0-.04,0-.06,0-.03,0-.06,0-.08,0,0,0,0,0,0v-.02c-.32-7.12-1-20.49-1.78-25.51-1.08-7-1.98-10.05-1.98-10.05l-17.52-8.83-11.03,.7-10.12,.6-17.83,9.51s-5.02,22.6-4.66,33.91c.12,3.77,.12,8.95,.02,14.67,0,0,0-.02,0-.02-.17,9.64-.62,20.79-1.26,29.21,0,.02,0,.04,0,.06-.02,.28-.04,.55-.06,.82,0,.04,0,.07,0,.11-.05,.57-.09,1.13-.14,1.67,0,.06,0,.11-.01,.17-.02,.21-.04,.42-.06,.63,0,.06-.01,.12-.02,.18-.02,.26-.05,.51-.07,.76-1.25,12.92-3.41,26.01-3.41,26.01h0s.2,.07,.59,.2c0,0,0,0,.01,0,.04,.01,.09,.03,.14,.05,0,0,.01,0,.02,0,.05,.02,.1,.03,.15,.05,0,0,.02,0,.02,0,.05,.02,.11,.03,.16,.05,.01,0,.02,0,.03,0,.05,.02,.11,.04,.17,.05,.01,0,.03,0,.04,.01,.06,.02,.12,.04,.18,.06,.02,0,.03,.01,.05,.02,.06,.02,.13,.04,.19,.06,.02,0,.03,0,.05,.01,.07,.02,.14,.04,.21,.06,.02,0,.03,0,.05,.01,.07,.02,.14,.04,.22,.07,.02,0,.04,.01,.05,.02,.08,.02,.15,.05,.23,.07,.01,0,.02,0,.04,.01,.66,.2,1.44,.43,2.32,.67,0,0,.02,0,.03,0,.11,.03,.21,.06,.32,.09,.03,0,.06,.02,.08,.02,.1,.03,.2,.05,.3,.08,.04,0,.07,.02,.11,.03,.1,.03,.2,.05,.3,.08,.04,.01,.08,.02,.12,.03,.1,.03,.2,.05,.3,.08,.05,.01,.09,.02,.14,.04,.1,.03,.2,.05,.3,.08,.05,.01,.1,.03,.15,.04,.1,.03,.2,.05,.3,.08,.05,.01,.11,.03,.16,.04,.1,.03,.2,.05,.31,.08,.05,.01,.11,.03,.16,.04,.11,.03,.21,.05,.32,.08,.05,.01,.11,.03,.16,.04,.11,.03,.22,.05,.33,.08,.06,.01,.11,.03,.17,.04,.11,.03,.22,.05,.33,.08,.06,.01,.11,.03,.17,.04,.11,.03,.23,.05,.34,.08,.06,.01,.12,.03,.17,.04,.12,.03,.23,.05,.35,.08,.06,.01,.11,.02,.17,.04,.12,.03,.24,.05,.37,.08,.05,.01,.11,.02,.16,.03,.13,.03,.26,.06,.39,.08,.05,.01,.1,.02,.15,.03,.14,.03,.27,.06,.41,.09,.04,0,.08,.02,.12,.03,.15,.03,.29,.06,.44,.09,.01,0,.02,0,.03,0,.72,.15,1.47,.29,2.23,.42,.01,0,.03,0,.04,0,.15,.03,.31,.05,.47,.08,.05,0,.09,.02,.14,.02,.14,.02,.28,.05,.42,.07,.06,.01,.13,.02,.19,.03,.14,.02,.27,.04,.41,.07,.07,.01,.14,.02,.21,.03,.13,.02,.26,.04,.4,.06,.08,.01,.16,.02,.23,.04,.13,.02,.26,.04,.39,.06,.08,.01,.16,.02,.24,.04,.13,.02,.26,.04,.39,.06,.08,.01,.17,.02,.25,.04,.13,.02,.26,.04,.39,.05,.09,.01,.17,.02,.26,.03,.13,.02,.26,.03,.39,.05,.09,.01,.17,.02,.26,.03,.13,.02,.26,.03,.39,.05,.09,.01,.18,.02,.27,.03,.13,.02,.26,.03,.39,.05,.09,.01,.18,.02,.27,.03,.13,.01,.26,.03,.4,.04,.09,0,.18,.02,.27,.03,.13,.01,.27,.03,.4,.04,.09,0,.18,.02,.27,.03,.13,.01,.27,.03,.4,.04,.09,0,.18,.02,.27,.02,.13,.01,.27,.02,.4,.03,.09,0,.18,.01,.27,.02,.14,.01,.28,.02,.42,.03,.08,0,.17,.01,.25,.02,.15,.01,.29,.02,.44,.03,.08,0,.16,0,.24,.01,.15,0,.3,.02,.45,.03,.07,0,.13,0,.2,.01,.6,.03,1.21,.06,1.81,.08,.01,0,.03,0,.04,0h0c.33,.01,.67,.02,1.01,.02h0c.4,0,.79,.01,1.19,.01,15.43,0,30.32-4.48,30.32-4.48,0,0,.03-.44,.1-1.23,0-.11,.02-.23,.03-.36,.01-.16,.03-.33,.04-.51Z"/><path class="cls-15" d="M247.97,119.98s-1.12,3.08,0,3.09,2.1-2.57,3.36-3.03,14.01-2.07,15.14-1.9,.27-.58-.91-.7-14.36,.15-17.58,2.54Z"/><path class="cls-15" d="M231.78,119.98s1.12,3.08,0,3.09-2.1-2.57-3.36-3.03-14.01-2.07-15.14-1.9-.27-.58,.91-.7,14.36,.15,17.58,2.54Z"/><path class="cls-15" d="M272.91,151.75c-.84,.28-.93,2.71-2.52,3.55s-26.35-2.8-27.28-3.36-1.4-1.68-1.78-2.24-.5-16.63-.81-19.15c-.31-2.48,1.19-7.31,1.24-7.47,.07-.16,.14-.33,.2-.5,.56-1.54,1.26-2.45,1.54-3.08s-1.54-1.12-2.52-1.19-5.19-.07-4.98,1.19c.03,.15,1.47,2.03,2.53,3.57,0,0,.5,2.72,.18,7.48,0,0-1.12,16.72-1.31,17.75s-1.49,2.24-2.71,1.87-22.33,.28-23.54,.56-2.65-2.99-3.1-2.43c.03,1.04,1.61,3.36,2.73,3.74s4.2-.19,6.91,0,15.42,.09,17.85,.65,1.59-.28,3.18,0,1.68,.47,2.9,1.03,25.83,4.35,28.22,3.64c2.52-1.4,3.46-4.48,3.08-5.61Z"/><path class="cls-16" d="M212.55,158.57s16.56,1.03,21.22,0c2.7-.47,4.67-.28,5.83,0s5.84,2.07,6.58,2.34,20.03,2.33,21.65,1.86c.49,.47,.77,1.31-.72,1.21s-18.78-1.58-21.02-1.49-9.72,.09-10.75,2.71-.19,10.18,0,11.31,19.16,6.63,22.89,7.38,6.45-4.2,7.01-10.09,1.59-5.07,1.4-4.5-.28,8.51-1.21,10.85-2.9,5.33-3.92,6.45-25.41-5.98-25.79-6.07c-.93,1.78-1.5,14.86-.38,17.1s22.09,5.79,23.38,4.86,4.19-8.41,3.62-11.31c.56-1.87,1.4,.56,1.4,1.87s-2.43,9.53-3.36,10.84-22.1-1.47-24.18-2c-2.08-.53-1.9,13.02-.87,14.52s23.03-.19,23.38-.84,1.66-7.29,2.32-8.13-.28,8.49-1.03,9.57-16.92,2.01-19.62,2.01-3.36,4.39-3.36,4.39l-8.17-.62s.32-3.77-.61-4.23-15.98-1.96-17.47-3.27-.84-8.78,0-9.44-.65,7.01,1.78,8.04c2.43,1.03,13.27,2.52,14.86,2.52,0,0,2.8,.77,3.5-1.05s1.47-12.15,.63-13.47-15.84-.9-16.89-1.25-4.34-.7-4.06-3.22-.14-8.55,.49-9.25,.63,1.68,.63,3.15-.56,6.03,.91,6.87,2.17,1.47,3.64,1.33,13.66-.84,14.93-.56c1.05-.7,1.75-17.94,1.47-18.57s-16.26-.21-18.29,.14-4.98-1.33-3.57-7.29,1.54-3.71,1.33-1.68-1.19,7.29,1.05,7.64,14.58-1.26,18.5-.7c2.52-.14,2.59-14.37,1.12-15.42s-7.5-2.52-13.24-2.66c-5.75-.14-9.88-2.36-7.01-1.85Z"/><path class="cls-14" d="M234.77,209.1s-1.4-8.13-1.87-9.51-1.21-4.55-1.61-5.26-2.97-3.67-3.25-4.11-1.26-2.64-1.35-3.85-.96-8.34-.96-8.34c0,0-.26-7.03,0-8.32s1.33-6.89,1.31-8.22-.05-7.99-.23-9.85-.79-5.73-1.03-6.81-.56-6.27-.39-7.32c0,0,.3-2.5,.55-3.01-.03-.68-.87-4.38-.87-4.38l-.81,2.38-.41,8.09,.33,4.77,.63,4.86,.75,6.59-.07,5.77-.44,4.46-.68,2.78-.07,4.41,.14,4.32,.37,4.69,.47,4.34,.77,2.27,1.4,1.92,1.66,2.29,.63,1,.71,1.94,1,3.67,.86,3.85,.78,4.58,.35,1.01,1.32-1.01Z"/><path class="cls-14" d="M232.28,105.35s-3.14,12.63-3.65,14.89,1.13,9.37,1.83,13.2c0,0,3.95,16.33,4.39,16.76s.76,.31,.93,.94,1.68,5.44,1.87,5.77-.16,.58-.21,.98,6.07,15.18,6.7,16.73,5.91,11.04,5.91,11.04l-1.01,2.78-11.91-23.26-4.85-16.61-5.17-20.04-1.54-10.37,3.73-12.33s1-.37,1.26-.39"/><path class="cls-13" d="M261.99,150.06c-.08-.86-1.06-1.48-2.21-1.38-1.14,.1-2.01,.88-1.93,1.74,.08,.86,1.06,1.48,2.21,1.38,1.14-.1,2.01-.88,1.93-1.74Z"/><path class="cls-32" d="M233.26,210.11s-2.02-13.23-3.98-15.75-4.02-5.7-4.02-7.29-1.96-14.38-.47-19.24,.65-19.25-.56-22.05,1.63-34.12,6.33-40.32c-2.96,.43-17.83,9.51-17.83,9.51,0,0-2.23,5.8-3.84,16.8-1.61,11-1.12,26.35-1.19,30.27s-.64,29.05-1.16,34.15-3.11,23.22-3.11,23.22l12.22,4.01,16.15,1.5,3.33-6.69-1.87-8.12Z"/><path class="cls-29" d="M233.44,210.11s-.81-4.28-1.2-6.5-1.99-8.11-2.38-8.74-3.11-3.97-3.76-5.63-.7-2.66-.79-3.57-1.04-9.34-.9-12.32,.07-3.61,.67-5.89,.88-8.37,.77-10.41-.6-8.86-1.02-10.2-.7-2.7-.7-5.92,2.28-22.32,3.15-25.47,3.28-10.02,3.28-10.02c0,0-.37,.01-1.26,.39s-3.45,10.22-3.66,11.42-2.1,14.97-2.38,17.54-.61,6.21-.33,8.55,1.12,6.26,1.4,9.02,.42,12.05-.23,14.39-1.17,3.83-.93,10.65,.84,10.14,1.31,11.91,3.92,6.03,4.25,6.91,2.38,10.84,2.43,12.52-2.85,2.34-3.55,3.08-1.68,2.06-1.82,2.94-2.14,2.41-3.54,2.58-4.87,.11-6.27-.35-3.64-2.63-4.24-4.34-3.23-15.9-5.07-18.04c-.27,2.89-1.15,9.13-1.28,9.91s-2.05,14.85-2.05,14.85l5.49,2.46,12.26,1.96,5.05,1.12,5.29-.31,4.55-7.46-2.52-7.03Z"/><path class="cls-32" d="M230.67,221.86s.76-4.61,0-7.07,1.55-4.06,4.28-5.82,8.13-7.92,9.39-11-.56-6.12,.49-7.13,7.01-6.54,9.67-10.6c2.66-4.06,5.05-28.31,4.39-33.36s-5.42-26.07-5.89-29.48,2.93-11.14,2.93-11.14l13.3,6.7s2.18,5.97,2.84,10.08c.65,4.11,1.68,23.73,1.68,26.07s-1.43,9.15-1.43,9.15c0,0-8.47,55.71-8.8,63.01-1.59,1.98-22.8,5.2-22.8,5.2l-10.06-4.64Z"/><path class="cls-30" d="M231.23,211.95s2.12,1.27,2.03,3.16,.43,3.85,1.52,4.66,3.92,.53,5.96,.42,8.62,.42,11-.91c2.38-1.33,8.09-5.96,9.92-9.39s3.06-7.49,4.23-7.65c-.26,1.84-1.48,11.03-1.48,11.03l-.8,8.38-5.73,2.89-10.25,1.8-6.86-.7-8.95-1.1-1.28-1.51,.15-1.17s.43-3.64,.27-5.37c-.3-1.8-1.06-2.87,.29-4.54Z"/><path class="cls-39" d="M224.03,223.8s-19.87-4.03-21-4.52c-.6,.42-1.55,6.76-1.76,7.6-.21,.98-.63,1.3,2.42,1.96s15.35,3.44,20.06,3.96,17.46,.91,17.46,.91c0,0,15.71-1.33,23.28-3.34,1.92-.98,.14-7.47,0-8.18s-.51-.56-1.87-.51-16.69,3.15-21.14,3.23c-4.46,.08-17.45-1.12-17.45-1.12Z"/><rect class="cls-5" x="223.9" y="221.92" width="17.48" height="12.82" rx="1.08" ry="1.08" transform="translate(7.06 -6.98) rotate(1.74)"/><rect class="cls-88" x="224.61" y="222.45" width="16.05" height="11.77" rx="1.08" ry="1.08" transform="translate(7.06 -6.98) rotate(1.74)"/><ellipse class="cls-63" cx="246.76" cy="191.82" rx=".84" ry=".65" transform="translate(-47.16 298.12) rotate(-57.74)"/><path class="cls-29" d="M263.96,110.33l.66,.33s.42,.84-.19,1.34-3.6,1.49-4.44,4.16c-.84,2.66-1.38,10.07-1.66,10.93s-1.54,4.74-2.18,5.73c-.67-3.17-1.07-4.85-1.07-4.85l.31-8.31,.42-5.42,3.18-3.46,4.97-.46Z"/><path class="cls-32" d="M255.48,129.65s-2.71-11.44-2.8-12.23-.33-3.32,0-4.11,3.55-9.02,4.06-10.79c.42-1.4,.56-2.2,1.49-1.07s3.18,6.21,4.67,7.52c1.31,1.49,1.68,2.24,.65,2.34s-3.97,1.07-5.61,4.67-1.75,16.78-2.48,13.68Z"/><path class="cls-39" d="M224.32,107.05s4.33,34.47,14.73,59.2,27.28,48.76,27.28,48.76v5.23s-12.05-11.35-27.8-44.37c-2.67-5.61-4.88-11.42-6.6-17.39-6.1-21.15-11.22-49.67-11.22-49.67l3.6-1.77Z"/><path class="cls-2" d="M231.68,157.58s-.96-2.97-1.14-4.12,2.96-1.89,3.38-1.58,1.54,4.8,1.65,5.12-3.62,1.44-3.89,.58Z"/><path class="cls-40" d="M233.97,164.8s2.31,2.44,2.95,2.16,1.27-2.3,1-3.54c.79,1.96,.22,4.17-.18,5.06s-3.14-1.96-3.14-1.96l-.62-1.71Z"/><circle class="cls-40" cx="235.97" cy="164.27" r=".38"/><circle class="cls-40" cx="234.75" cy="161.01" r=".38"/><circle class="cls-40" cx="231.43" cy="149.51" r=".38"/><circle class="cls-40" cx="232.68" cy="154.16" r=".38"/><g><path class="cls-44" d="M285.04,53.78s-8.61,10.2-17.91,12.23c-.16-3.01,0-9.2,0-9.2l14.02-3.03h3.9Z"/><path class="cls-19" d="M252.77,104.72l-1.85-2.05c-.05-.88,.17-4.31,.36-7.05-2.92,.89-5.72,1.6-7.43,1.82-.12,.04-.24,.07-.35,.06-.02,0-.04,0-.05,0-.02,0-.04,0-.06,0-.11,.01-.23-.02-.35-.06-1.85-.24-4.98-1.06-8.16-2.05,.28,3.05,.58,6.84,.42,7.37-.16,.52-1.52,2.49-2.64,4.05l9.81,11.2s2.69-2.69,4.33-4.33c1.64-1.64,5.95-8.96,5.95-8.96Z"/><path class="cls-13" d="M250.92,102.67c-.05-.88,.17-4.31,.36-7.05-2.92,.89-5.72,1.6-7.43,1.82-.12,.04-.24,.07-.35,.06-.02,0-.04,0-.05,0-.02,0-.04,0-.06,0-.11,.01-.23-.02-.35-.06-1.85-.24-4.98-1.06-8.16-2.05,.25,2.68,.51,5.94,.46,7.04,2.42,2.15,5.71,4.31,8.83,3.87,2.51-.36,5.11-1.66,7.28-3.04l-.53-.59Z"/><path class="cls-13" d="M236.55,107.08c.44-.35,1.18-.16,1.64,.43,.46,.59,.48,1.35,.03,1.7-.44,.35-1.18,.16-1.64-.43s-.48-1.35-.03-1.7Z"/><path class="cls-20" d="M264.13,44.48s1.6-1.12,1.83-2.34c0,0,.47,1.8-.53,2.34s-1.81,.63-1.81,.63"/><path class="cls-19" d="M218.5,58.24c-.96,6.57,.97,24.55,5.84,31.1,2.05,2.75,4.14,8.84,7.87,9.92,2.53,2.19,7.89,2.03,10.49,2.03,2.84,0,8.59-.24,10.21-2.03,3.01-.83,6.57-7.74,8.06-10.47,5.41-9.9,6.11-31.59,4.9-38.93-1.21-7.34-14.8-16.84-26.04-15-13.21,2.16-18.92,6.97-21.33,23.39Z"/><path class="cls-13" d="M246.06,78.52c0-.07-.02-.14-.09-.21-.74-.24-2.07-.32-3.49-.29-1.42-.03-2.75,.05-3.49,.29-.07,.07-.1,.14-.09,.21,0,.08,.04,.17,.1,.25,.44,.3,1.01,.59,1.73,.85,.02,0,.04,.02,.06,.03,.47,.21,.99,.44,1.59,.44,.04,0,.07,0,.11,0,.04,0,.07,0,.11,0,.6,0,1.12-.22,1.59-.44,.02,0,.04-.02,.06-.03,.71-.26,1.29-.56,1.73-.85,.05-.08,.1-.17,.1-.25Z"/><path class="cls-19" d="M264.84,69.99c.69-1,1.68-1.81,2.83-2.16,1.15-.35,2.47-.2,3.45,.52,1.25,.91,1.77,2.58,1.7,4.13-.08,1.55-.66,3.03-1.27,4.46-.9,2.11-1.93,4.29-3.74,5.68-1.81,1.39-4.64,1.69-6.24,.05l3.26-12.67Z"/><path class="cls-19" d="M219.37,69.99c-.69-1-1.68-1.81-2.83-2.16-1.15-.35-2.47-.2-3.45,.52-1.25,.91-1.77,2.58-1.7,4.13,.08,1.55,.66,3.03,1.27,4.46,.9,2.11,1.93,4.29,3.74,5.68,1.81,1.39,4.64,1.69,6.24,.05l-3.26-12.67Z"/><path class="cls-26" d="M219.28,73.45s-2.17-7.99-2.25-15.34c-.04-3.22,2.85-14.23,4.32-14.24,1.06,0,5.76,5.33,6.07,6.77,.22,.99-6.4,13.07-6.32,14.77,.27,6.14,.29,9.01,.29,9.01l-2.1-.97Z"/><path class="cls-26" d="M265.59,73.45s2.17-7.99,2.25-15.34c.04-3.22-2.85-14.23-4.32-14.24-1.06,0-5.76,5.33-6.07,6.77-.22,.99,6.4,13.07,6.32,14.77-.27,6.14-.29,9.01-.29,9.01l2.1-.97Z"/><path class="cls-13" d="M232.51,92.01c-.08-2.21-.17-4.41-.25-6.62-.45,.42-.49,1.12-.47,1.74,.06,1.65,.3,3.29,.72,4.88Z"/><path class="cls-13" d="M252.62,92.01c.08-2.21,.17-4.41,.25-6.62,.45,.42,.49,1.12,.47,1.74-.06,1.65-.3,3.29-.72,4.88Z"/><path class="cls-12" d="M251.93,65.44c-1.61,.36-2.93,1.29-3.49,2.96-.34,1,0,4.49,1.47,5.86,.61,.56,1.47,1.07,2.29,1.16,1.49,.18,3.77,.28,4.99-.74,1.07-.9,1.66-2.24,1.85-3.62,.15-1.09,.27-2.25-.24-3.23-.88-1.67-2.89-2.28-4.7-2.75l-2.17,.36Z"/><path class="cls-4" d="M251.88,65.08h3.48c.36,0,.7,.35,.82,.89,.45,1.91,.26,4.12-.56,5.79-.37,.76-.9,1.44-1.55,1.61-.67,.17-1.37-.23-1.88-.86-1.24-1.51-1.49-4.11-1.17-6.36,0,0,0,0,0-.01,.09-.63,.45-1.06,.86-1.06Z"/><path class="cls-12" d="M233.03,65.44c1.61,.36,2.93,1.29,3.49,2.96,.34,1,0,4.49-1.47,5.86-.61,.56-1.47,1.07-2.29,1.16-1.49,.18-3.77,.28-4.99-.74-1.07-.9-1.66-2.24-1.85-3.62-.15-1.09-.27-2.25,.24-3.23,.88-1.67,2.89-2.28,4.7-2.75l2.17,.36Z"/><path class="cls-47" d="M233.07,65.08h-3.48c-.36,0-.7,.35-.82,.89-.45,1.91-.26,4.12,.56,5.79,.37,.76,.9,1.44,1.55,1.61,.67,.17,1.37-.23,1.88-.86,1.24-1.51,1.49-4.11,1.17-6.36,0,0,0,0,0-.01-.09-.63-.45-1.06-.86-1.06Z"/><path class="cls-20" d="M233.66,55.85c-3.65-.23-7.35,.34-10.78,1.65,.77,1.6,.8,1.97,1.86,3.07,3.36-1.08,6.89-1.62,10.42-1.61,.03-1.6,.06-1.28,.08-2.88-.35,.26-.7,.53-1.05,.79-.18-.34-.35-.69-.53-1.03Z"/><path class="cls-13" d="M245.22,90.32c-1.82,.3-3.65,.32-5.25,0,.7,.62,1.66,.99,2.59,.88,.93-.11,1.72-.17,2.66-.88Z"/><path class="cls-20" d="M250.22,55.85c3.65-.23,7.35,.34,10.78,1.65-.77,1.6-.74,1.8-1.86,3.07-3.36-1.08-6.89-1.62-10.42-1.61-.03-1.6-.06-1.28-.08-2.88,.35,.26,.7,.53,1.05,.79,.18-.34,.35-.69,.53-1.03Z"/><path class="cls-20" d="M259.26,69.96c-.41-1.73-1.47-3.06-3.77-4.09-1.38-.62-3.26-.59-4.67-.03-.94,.38-1.95,1.43-2.52,2.92-.18,.47-.69,.4-.75,.11,.17-2.87,2.72-4.54,4.47-4.92,2.62-.57,5.63,.57,7.24,3.14,.48,.77,.73,1.64,.72,2.2,0,.81-.63,1.1-.73,.67Z"/><path class="cls-20" d="M225.7,69.96c.41-1.73,1.47-3.06,3.77-4.09,1.38-.62,3.26-.59,4.67-.03,.94,.38,1.95,1.43,2.52,2.92,.18,.47,.69,.4,.75,.11-.17-2.87-2.72-4.54-4.47-4.92-2.62-.57-5.63,.57-7.24,3.14-.48,.77-.73,1.64-.72,2.2,0,.81,.63,1.1,.73,.67Z"/><path class="cls-25" d="M266.98,68.1l-1.16-2.47c-.43-1.02-1.75-1.83-6.12-2.45-2.52-.36-5.82-.59-8.4-.59-.74,0-1.38,.02-1.9,.06-2.48,.18-4.04,.91-4.79,2.21,0,0,0,0,0,0-.2,.36-.58,.59-.99,.59h-2.28c-.41,0-.79-.23-.99-.59,0,0,0,0,0,0-.74-1.3-2.31-2.02-4.79-2.21-.52-.04-1.16-.06-1.9-.06-2.58,0-5.88,.23-8.4,.59-4.16,.59-5.56,1.36-6.05,2.31h0s0,0,0,0c-.02,.05-.05,.09-.07,.14l-1.32,2.82s-.07,1.31,.72,1.7l.67-1.58c.2,.85,.55,1.97,1.12,3.43,.38,.98,1.71,4.25,2.68,5.01,.43,.34,1.17,.69,4.61,.69h0c2.43,0,5.29-.19,6.52-.43,2.39-.47,4.71-5.19,5.6-7.23,.26-.52,.6-1.22,.82-2,.14-.48,.58-.82,1.08-.82h1.67c.5,0,.94,.33,1.08,.82,.22,.78,.57,1.49,.82,2,.9,2.04,3.21,6.76,5.6,7.23,1.23,.24,4.1,.43,6.52,.43h0c3.44,0,4.18-.36,4.61-.69,.96-.76,2.29-4.03,2.68-5.01,.57-1.46,.91-2.57,1.12-3.43l.67,1.58c.79-.39,.56-2.04,.56-2.04Zm-28.45,1.38s-2.68,6.09-4.65,6.48c-1.97,.39-9.18,.68-10.04,0-.86-.68-4-7.95-3.49-9.72,.51-1.77,11.45-2.53,15.12-2.25,5.27,.39,4.17,3.25,3.06,5.49Zm22.6,6.48c-.86,.68-8.07,.39-10.04,0-1.97-.39-4.65-6.48-4.65-6.48-1.11-2.25-2.21-5.1,3.06-5.49,3.67-.27,14.61,.48,15.12,2.25,.51,1.77-2.64,9.04-3.49,9.72Z"/><path class="cls-23" d="M217.9,40.88s1.85-12.77,2.18-14.78,1.1-4.52,6.96-7.7c5.87-3.18,12.81-6.95,12.81-6.95,0,0,2.95-1.24,6.21,.38s16.12,8.31,16.32,8.23,2.06,.15,3.23,6.61c1.17,6.46,2.31,14.34,2.31,14.34l-14.87-.04-18.98-.73-16.17,.63"/><path class="cls-42" d="M214.71,52.68s-.6-.32,0-1.11,1.81-5.09,1.95-6.07-1.51-2.1-.66-3.03,5.93-5.31,12.91-7.37,12.95-2.03,20.3-.78c7.34,1.25,19.19,6.93,19.19,6.93l2.07,10.32-16.25-.59-33.96,3.27-5.55-1.58Z"/><path class="cls-22" d="M204.4,55.6s21.2-6.5,36.35-7.34c15.14-.84,29.95,3.42,29.95,3.42l-1.98,3.29-29.06,7.06-20.28,.19-13.69-1.44-1.29-5.17Z"/><path class="cls-45" d="M204.4,55.6s-3.05-1.77-3.62-1.5-3.86,3.61-.13,6.27,7.21,3.45,19.06,3.83c11.85,.38,19.26,.24,26.72-1.62s20.31-5.33,28.13-7.14c6.08-1.08,8.82-1.42,10.47-1.67,.5-.08,.95-.35,1.22-.78,.45-.73,.69-1.83-.08-2.5-1.15-1.01-2.8-1.64-6.53-.77-3.73,.87-10.76,2.05-16.17,3.67-5.41,1.62-21.06,6.75-29.41,7.39-8.35,.64-21.23-.02-23.96-.63-2.73-.6-5.07-2.02-5.7-4.55Z"/><path class="cls-43" d="M229.4,30.09s2.06,.78,4.04-2.02,4.13-8.75,3.96-10.6-.05-2.41-1.85-1.35-4.33,3.01-5.68,3.37-2.69,2.68-2.83,3.85,.04,.13,1.6-.9,3.89-.96,3.41,2.15-3.74,5.42-2.65,5.5Z"/><path class="cls-43" d="M253.67,30.09s-2.06,.78-4.04-2.02-4.13-8.75-3.96-10.6,.05-2.41,1.85-1.35,4.33,3.01,5.68,3.37,2.69,2.68,2.83,3.85-.04,.13-1.6-.9-3.89-.96-3.41,2.15,3.74,5.42,2.65,5.5Z"/><path class="cls-13" d="M246.15,89.51c-.26,0-.53-.02-.79-.05-3.29-.42-10.07-.36-10.14-.36-.49,0-.89-.39-.9-.88s.39-.89,.88-.9c.28,0,6.97-.06,10.38,.37,.52,.07,1.04,.04,1.52-.07,1.54-.36,2.24-.86,2.32-1.03,.18-.46,.69-.69,1.15-.51,.46,.18,.69,.69,.51,1.15-.45,1.18-2.19,1.81-3.58,2.13-.44,.1-.89,.15-1.35,.15Z"/></g><ellipse class="cls-66" cx="233.02" cy="212.2" rx=".84" ry=".72" transform="translate(-81.8 226.92) rotate(-45)"/><ellipse class="cls-65" cx="242.55" cy="203.57" rx=".84" ry=".65" transform="translate(-59.06 300.04) rotate(-57.74)"/><ellipse class="cls-64" cx="255.6" cy="181.34" rx=".84" ry=".65" transform="translate(-34.17 300.71) rotate(-57.74)"/><ellipse class="cls-69" cx="259.92" cy="164.27" rx=".84" ry=".65" transform="translate(50.12 389.06) rotate(-79.27)"/><ellipse class="cls-68" cx="260.58" cy="148.46" rx=".65" ry=".84" transform="translate(-16.74 34.28) rotate(-7.29)"/><ellipse class="cls-67" cx="257.34" cy="132.82" rx=".65" ry=".84" transform="translate(-14.78 33.74) rotate(-7.29)"/><g><path class="cls-24" d="M308.36,280.93s.88,10.16,.51,12.41-.51,2.08-.21,2.24,1.19,.54,1.63,.28-.18-11.87-.97-15.49c-.51-.28-.97,.56-.97,.56Z"/><g><path class="cls-11" d="M304.04,273.63s1.52-1.76,3.22-1.73,3.59,.98,4.31,3.28-.53,3.87-1.02,4.33-1.89,1.58-2.94,1.58-2.4-.96-2.55-1.51-1.02-5.95-1.02-5.95Z"/><path class="cls-38" d="M304.78,273.34s1.92-1.03,3.15-.55,2.27,2.84,2.06,4.51-1.33,2.86-2.38,3.05-2.15-.98-2.15-.98l-.68-6.02Z"/><path class="cls-45" d="M276.44,279.69s-.97,.68-1.35,1.06,.13,3.32,1.35,3.83,4.02-.75,4.02-.75l25.13-4.34s2.1-.3,2.24-2.18-1.07-4.55-3.22-3.84c-2.15,.7-7.85,1.78-10.18,2.2s-17.99,4.04-17.99,4.04Z"/></g><path class="cls-13" d="M278.84,269.65c-.48,.27-1.72,2.86-2.01,3.44s-.26,4.54-.29,5.32-.37,2.39,.13,2.41,1.43-.5,2.17-1.27,1.42-3.11,1.42-3.11c0,0,.14-7.67-1.42-6.79Z"/><path class="cls-19" d="M284.34,260.41s-3.23,6.3-3.92,7.04-1.59,1.38-1.59,2.44,1.8,8.05,1.8,8.05c0,0-.05,9.21,.16,10.27s2.7,2.59,4.29,1.11,1.91-1.16,2.38-.95,3.12,0,3.44-.95,.85-.53,1.27-.42,2.12-.16,2.28-.53,.53,.74,.95,.79,2.81-1.22,2.81-3.6,.26-8.31-.32-9.58-.9-2.28-.9-4.24-.58-2.97-.74-4.55c-.16-1.59,.05-4.87,.05-4.87l-6.88-4.24-4.39-.53-.69,4.77Z"/><path class="cls-13" d="M285.37,289.06s.97-6.04,.89-7.61,.26-1.69,.38-.99,.36,7.06,1.08,7.97c-.48-.16-.5-.21-.68-.22s-.57,.03-.93,.29-.73,.57-.73,.57Z"/><path class="cls-13" d="M291.8,286.86s-.22-1.68,0-3.64,.02-4.17-.26-4.61-.73-.28-.66,1.55,.15,5.51,.09,7.1c.17-.28,.21-.33,.37-.42s.46,.03,.46,.03Z"/><path class="cls-13" d="M294.46,286.46s.62-1.6,.4-3.44-.47-3.94-.18-4.61,.45-.77,.73,.26,.79,5.14,.71,5.6-1.28,2.44-1.28,2.44l-.09-.13s-.19-.3-.29-.12Z"/><path class="cls-90" d="M275.31,282.93c-1.31,.45-2.57,1.08-3.78,1.78-1.21,.7-2.36,1.49-3.45,2.36-2.18,1.74-4.11,3.77-5.72,6.03-1.61,2.26-2.94,4.71-3.92,7.3-.99,2.59-1.68,5.28-2.12,8.02l-.15,1.03c-.04,.34-.11,.68-.14,1.03l-.19,2.07-.1,2.08c-.02,.35-.02,.69-.02,1.04v1.04s0,1.04,0,1.04l.03,1.05,.05,2.11c.03,1.41,.07,2.81,.11,4.22,.17,5.62,.39,11.24,.85,16.81,.12,1.39,.24,2.78,.39,4.18,.14,1.39,.31,2.8,.41,4.24,.11,1.44,.14,2.87,.13,4.3,0,1.43-.06,2.85-.13,4.27-.14,2.83-.35,5.65-.59,8.46-.23,2.81-.49,5.61-.69,8.4-.05,.7-.09,1.39-.13,2.08-.03,.69-.05,1.36-.06,2.06-.01,1.39,0,2.77,.08,4.15,.14,2.75,.47,5.49,1.08,8.14,.61,2.64,1.52,5.22,2.93,7.42,.7,1.1,1.54,2.09,2.5,2.91,.97,.82,2.07,1.45,3.26,1.88l-.1-.03c2.19,.56,4.44,.85,6.69,.82,2.25-.02,4.49-.36,6.61-1.06,2.11-.7,4.1-1.77,5.64-3.27,.38-.38,.72-.78,1.03-1.2,.3-.43,.56-.87,.76-1.35l.3-.76c.05-.12,.1-.26,.14-.39l.12-.4c.18-.53,.3-1.09,.44-1.64,.52-2.23,.83-4.54,1.04-6.86,.21-2.32,.32-4.66,.37-7,.05-2.34,.01-4.69-.07-7.03-.07-2.35-.26-4.68-.43-7.04l-.11-1.79c-.02-.3-.03-.6-.03-.89l-.02-.89c0-.59-.03-1.19-.03-1.78v-1.78c.01-1.19,.06-2.37,.1-3.55,.03-1.18,.1-2.36,.15-3.55,.24-4.72,.59-9.44,1.02-14.14,.21-2.35,.46-4.7,.71-7.05,.27-2.35,.54-4.69,.89-7.04,.08-.59,.2-1.17,.29-1.76l.21-.9c.06-.24,.11-.52,.14-.8,.13-1.14,.16-2.32,.19-3.49,.04-2.35,0-4.7-.05-7.06-.03-1.18-.07-2.35-.11-3.53-.05-1.18-.1-2.35-.17-3.53-.13-2.35-.28-4.7-.48-7.04-.11-1.17-.22-2.34-.39-3.49-.04-.29-.09-.57-.14-.85-.05-.28-.11-.54-.2-.8l-.13-.39-.17-.37c-.1-.25-.26-.47-.39-.71-.06-.12-.16-.22-.24-.33-.09-.1-.16-.22-.25-.32-.19-.2-.37-.4-.58-.58-.4-.37-.86-.68-1.34-.95-.97-.54-2.04-.93-3.14-1.14l-.2-.03-.24-.04c-.18-.04-.33-.08-.47-.12-.29-.08-.57-.16-.84-.24-.55-.14-1.09-.25-1.62-.28-1.07-.07-2.13,.17-3.05,.7-.24,.12-.45,.28-.68,.43-.21,.17-.43,.33-.62,.52-.21,.18-.39,.39-.58,.58-.18,.21-.36,.42-.54,.64-.68,.88-1.26,1.87-1.76,2.89-.12,.26-.25,.51-.37,.78l-.34,.79c-.21,.54-.42,1.07-.62,1.63-.4,1.1-.79,2.21-1.17,3.32-.75,2.22-1.46,4.46-2.1,6.72-1.28,4.51-2.36,9.08-2.99,13.69-.16,1.15-.27,2.3-.37,3.46l-.05,.86-.03,.43v.43s-.04,.86-.04,.86v.86s0,.43,0,.43l.02,.43c.01,.28,.02,.57,.04,.85,.05,.56,.08,1.13,.17,1.68,.06,.56,.18,1.1,.29,1.65l.21,.8c.07,.27,.17,.52,.25,.78,.08,.26,.19,.51,.29,.75l.16,.37c.06,.12,.12,.23,.19,.35,.13,.23,.24,.47,.39,.68l.22,.32,.11,.16,.13,.17c.69,.91,1.42,1.8,2.19,2.65,1.54,1.7,3.21,3.28,5.02,4.66,1.8,1.38,3.75,2.57,5.79,3.32,1.02,.36,2.06,.6,3.04,.6,.49,0,.96-.05,1.4-.17l.32-.11c.11-.03,.2-.09,.3-.13l.07-.03s.05-.02,.04-.02c0-.01,.02-.01,.04-.02,.04-.05,.09-.08,.15-.15,.24-.27,.5-.72,.71-1.19,.22-.48,.42-.99,.6-1.52,.36-1.06,.66-2.17,.93-3.29,.53-2.24,.95-4.54,1.32-6.85,.72-4.62,1.25-9.29,1.66-13.96,.2-2.34,.38-4.68,.51-7.02,.13-2.34,.23-4.68,.24-7,0-.58,0-1.16-.02-1.72-.02-.57-.04-1.14-.09-1.65-.01-.13-.03-.25-.05-.37l-.07-.42c-.05-.28-.1-.56-.15-.84-.11-.56-.23-1.11-.36-1.66-.53-2.19-1.27-4.33-2.37-6.17-.55-.91-1.19-1.74-1.93-2.39-.74-.64-1.57-1.12-2.48-1.35-.22-.07-.46-.1-.69-.14-.23-.02-.5-.05-.65-.05-.36,.01-.78,.1-1.2,.28-.86,.34-1.72,.96-2.53,1.66-1.61,1.43-3.02,3.23-4.26,5.12-1.24,1.9-2.32,3.92-3.23,6.01-.91,2.09-1.67,4.25-2.22,6.46-.55,2.2-.9,4.44-.94,6.67,0,.28,0,.55,0,.83l.02,.87,.05,1.77,.11,3.54,.2,7.08c.25,9.44,.52,18.87,.72,28.31,.2,9.44,.39,18.88,.47,28.32l.02,3.54c0,1.18,.01,2.36,0,3.55v1.77c-.01,.59-.03,1.19-.05,1.78-.02,1.2-.09,2.36-.11,3.53-.13,4.7-.08,9.4,.15,14.1,.24,4.69,.68,9.38,1.57,13.99,.46,2.3,1.03,4.58,1.89,6.75,.43,1.08,.94,2.14,1.57,3.11,.64,.96,1.42,1.86,2.4,2.47l-.14,.24c-1.06-.6-1.9-1.5-2.6-2.47-.7-.98-1.25-2.04-1.74-3.13-.48-1.09-.88-2.22-1.23-3.35-.35-1.14-.65-2.29-.92-3.44-.53-2.31-.93-4.66-1.25-7-.32-2.35-.56-4.71-.75-7.07-.37-4.72-.52-9.46-.51-14.2,0-1.18,.03-2.38,.03-3.54,0-.59,0-1.17,0-1.76l-.03-1.76c-.01-1.18-.04-2.35-.07-3.53l-.09-3.53c-.28-9.43-.61-18.86-.96-28.28l-1.07-28.29-.27-7.07-.13-3.54-.07-1.77-.03-.89c-.01-.31-.01-.63-.01-.94,.02-2.5,.39-4.95,.97-7.33,.58-2.38,1.38-4.69,2.35-6.93,.97-2.23,2.11-4.4,3.44-6.45,.67-1.03,1.39-2.03,2.17-2.99,.79-.96,1.64-1.89,2.6-2.74,.97-.84,2.04-1.64,3.37-2.19,.66-.27,1.42-.47,2.23-.5,.44,0,.76,.04,1.11,.07,.35,.06,.7,.11,1.04,.21,.69,.18,1.36,.44,1.98,.79,.62,.34,1.19,.75,1.71,1.21,1.03,.92,1.84,1.98,2.5,3.09,1.32,2.23,2.12,4.61,2.69,7,.14,.6,.27,1.2,.38,1.8,.06,.3,.11,.6,.16,.9l.07,.45c.02,.17,.05,.35,.06,.51,.06,.66,.08,1.27,.1,1.88,.01,.61,.01,1.21,0,1.81-.03,2.4-.15,4.77-.3,7.15-.15,2.37-.34,4.74-.56,7.1-.45,4.72-1.02,9.44-1.79,14.14-.39,2.35-.84,4.7-1.42,7.04-.29,1.17-.62,2.34-1.02,3.51-.21,.59-.43,1.17-.71,1.77-.29,.59-.59,1.19-1.14,1.81-.13,.15-.31,.31-.49,.46-.1,.08-.22,.15-.33,.22-.06,.04-.11,.07-.15,.08l-.13,.06c-.17,.07-.34,.16-.51,.22-.17,.06-.35,.12-.52,.17-.7,.19-1.41,.26-2.1,.25-1.38-.02-2.66-.35-3.87-.78-2.39-.9-4.49-2.24-6.42-3.74-1.93-1.51-3.68-3.2-5.28-5.02-.8-.91-1.56-1.85-2.28-2.83l-.14-.18-.14-.21-.27-.42c-.19-.27-.33-.57-.48-.86-.07-.15-.15-.29-.22-.44l-.18-.45c-.12-.3-.25-.6-.33-.9-.09-.3-.2-.61-.27-.91l-.22-.92c-.11-.61-.23-1.23-.29-1.84-.09-.61-.11-1.23-.16-1.84-.01-.31-.02-.61-.03-.92v-.46s0-.46,0-.46c.02-2.43,.26-4.83,.63-7.2,.74-4.73,1.94-9.35,3.33-13.89,.7-2.27,1.46-4.52,2.26-6.75,.4-1.11,.82-2.23,1.25-3.33,.21-.55,.44-1.11,.67-1.67l.38-.83c.12-.28,.27-.54,.4-.82,.56-1.08,1.2-2.13,1.98-3.1,.2-.24,.41-.47,.62-.71,.22-.22,.44-.45,.68-.65,.23-.21,.49-.4,.75-.6,.27-.18,.53-.36,.82-.51,.57-.31,1.19-.54,1.83-.67,.64-.13,1.3-.17,1.93-.12,.64,.04,1.26,.18,1.86,.34,.29,.08,.58,.17,.86,.26,.29,.09,.46,.12,.81,.19,.61,.12,1.21,.3,1.79,.52,.58,.22,1.15,.47,1.68,.8,.54,.32,1.06,.68,1.52,1.11,.24,.2,.45,.45,.66,.68,.11,.11,.2,.25,.29,.38,.09,.13,.2,.25,.28,.39,.16,.28,.34,.54,.45,.84l.19,.44,.14,.46c.1,.3,.16,.62,.22,.92,.05,.3,.1,.6,.14,.9,.16,1.19,.26,2.37,.36,3.55,.36,4.72,.53,9.44,.65,14.17,.05,2.36,.07,4.73,.02,7.1-.03,1.19-.07,2.37-.2,3.57-.04,.3-.08,.61-.17,.94l-.19,.82c-.1,.58-.21,1.15-.29,1.73-.68,4.65-1.14,9.35-1.54,14.04-.39,4.7-.69,9.4-.85,14.11-.03,1.18-.09,2.35-.09,3.53,0,1.18-.04,2.35-.01,3.53l.02,1.76c.01,.59,.04,1.17,.07,1.76l.04,.88c0,.29,.02,.58,.05,.87l.14,1.74c.22,2.34,.47,4.72,.6,7.08,.14,2.37,.23,4.74,.24,7.12,0,2.38-.05,4.76-.21,7.14-.17,2.38-.42,4.76-.92,7.15-.14,.6-.26,1.19-.44,1.79l-.13,.45c-.04,.15-.09,.3-.14,.45l-.33,.89c-.25,.61-.58,1.2-.94,1.74-.38,.54-.79,1.04-1.24,1.5-1.82,1.84-4.07,3.08-6.42,3.91-2.36,.82-4.83,1.22-7.3,1.28-2.47,.06-4.94-.24-7.33-.83h-.04s-.06-.03-.06-.03c-1.47-.5-2.85-1.29-4.03-2.29-1.19-.99-2.18-2.18-3-3.45-.82-1.27-1.47-2.62-2-4-.53-1.38-.94-2.79-1.27-4.2-.65-2.84-.97-5.71-1.11-8.58-.07-1.43-.09-2.87-.07-4.3,0-.71,.03-1.44,.07-2.16,.04-.72,.09-1.43,.14-2.13,.46-5.64,1.07-11.23,1.42-16.81,.08-1.39,.15-2.79,.17-4.17,.03-1.39,.01-2.76-.07-4.14-.08-1.37-.22-2.76-.35-4.17-.14-1.41-.25-2.82-.35-4.23-.37-5.65-.49-11.29-.56-16.93-.02-1.41-.04-2.82-.04-4.23v-2.11s0-1.06,0-1.06l.02-1.07,.02-1.07c0-.36,.01-.71,.05-1.07l.15-2.14,.25-2.13c.03-.36,.11-.71,.16-1.06l.18-1.06c.52-2.81,1.31-5.58,2.41-8.22,1.1-2.64,2.54-5.14,4.27-7.41,1.74-2.26,3.8-4.28,6.08-5.98,1.14-.85,2.35-1.6,3.61-2.26,1.26-.66,2.55-1.24,3.93-1.64l.08,.26Z"/><path class="cls-24" d="M255.65,324.02s-2.61-31.86,20.19-39.86c.33-.98-.81-2.77-.81-2.77,0,0-24.61,7.39-20.86,42.63,1.29,.03,1.48,0,1.48,0Z"/></g><path class="cls-32" d="M299.23,206.85s1.24,52.41,1.24,53.96,.7,3.08,0,3.5-11.75-1.82-13.35-3.36-4.15-2.52-4.91-2.52-1.78,.09-1.64-.56,1.87-33.57,2.43-38.58-1.89-26.99-2.7-32.64c1.75-3.2,14.33,15.21,14.33,15.21l4.59,5Z"/><path class="cls-28" d="M272.32,158.29s.86-23.34,0-27.54c1.29,.75,2.97,2.34,3.35,3.83s.75,19.95,2.24,23.71c1.49,3.76,6.49,26.74,7.05,27.98,.98,1.24,1.68,1.1,2.94,.68s2.37,1.47,0,2.24-2.02,7.85-1.36,10.37,.18,16.32,0,23.86c-.18,7.54-3.4,30.44-3.4,32.23s.94,3.34,.94,3.34c0,0-1.62-.54-2.23-.49s-1.35,.03-1.3-.55,.52-8.15,.52-8.15l.96-16.45,.5-8.02,.27-3.83,.26-3.14s.02-3.06-.13-5.32-.87-10.78-.87-10.78c0,0-1-8.73-1.14-9.81s-.63-5.79-.63-5.79l-3.07-11.24-4.91-17.11Z"/></g><g><path class="cls-89" d="M197.42,462.56c-.98-.02-1.86-.91-1.87-1.9,0-.98,.85-1.89,1.83-1.93,.84-.04,1.61,.48,2.21,1.08,.38,.37,.74,.83,.73,1.36,1.97-1.73,4.14-3.24,6.44-4.5,1.84-1.01,4-1.87,6-1.22-1.52-1.17-3.62-1.05-5.53-.98-1.62,.06-3.3,.15-4.78-.51-1.89-.83-3.61-2.23-5.67-2.36,.12,.79-.17,1.65-.8,2.15-.63,.5-1.58,.57-2.25,.13s-.95-1.41-.57-2.12c-3.32,.43-6.5,1.67-9.39,3.34-2.9,1.68-5.7,4.06-6.5,7.31-.22,.91-.28,1.86-.34,2.79,0,.09,0,.18,.03,.25,.1,.2,.39,.19,.61,.15,2.8-.5,5.66-.24,8.5-.15s5.77-.01,8.37-1.17c1.06-.47,2.03-1.11,2.99-1.75Z"/><path class="cls-87" d="M197.42,462.56c-.98-.02-1.86-.91-1.87-1.9,0-.98,.85-1.89,1.83-1.93,.84-.04,1.61,.48,2.21,1.08,.38,.37,.74,.83,.73,1.36,1.97-1.73,4.14-3.24,6.44-4.5,1.84-1.01,4-1.87,6-1.22-1.19-1.46-14.19-.19-24.87,2.83-6.06,1.71-10.91,6-10.96,6.94,0,.09,0,.18,.03,.25,.1,.2,.39,.19,.61,.15,2.8-.5,5.66-.24,8.5-.15s5.77-.01,8.37-1.17c1.06-.47,2.03-1.11,2.99-1.75Z"/></g><g><path class="cls-51" d="M317.02,467.09c.98-.02,1.86-.91,1.87-1.9,0-.98-.85-1.89-1.83-1.93-.84-.04-1.61,.48-2.21,1.08-.38,.37-.74,.83-.73,1.36-1.97-1.73-4.14-3.24-6.44-4.5-1.84-1.01-4-1.87-6-1.22,1.52-1.17,3.62-1.05,5.53-.98,1.62,.06,3.3,.15,4.78-.51,1.89-.83,3.61-2.23,5.67-2.36-.12,.79,.17,1.65,.8,2.15,.63,.5,1.58,.57,2.25,.13s.95-1.41,.57-2.12c3.32,.43,6.5,1.67,9.39,3.34,2.9,1.68,5.7,4.06,6.5,7.31,.22,.91,.28,1.86,.34,2.79,0,.09,0,.18-.03,.25-.1,.2-.39,.19-.61,.15-2.8-.5-5.66-.24-8.5-.15s-5.77-.01-8.37-1.17c-1.06-.47-2.03-1.11-2.99-1.75Z"/><path class="cls-52" d="M317.02,467.09c.98-.02,1.86-.91,1.87-1.9,0-.98-.85-1.89-1.83-1.93-.84-.04-1.61,.48-2.21,1.08-.38,.37-.74,.83-.73,1.36-1.97-1.73-4.14-3.24-6.44-4.5-1.84-1.01-4-1.87-6-1.22,1.19-1.46,14.19-.19,24.87,2.83,6.06,1.71,10.91,6,10.96,6.94,0,.09,0,.18-.03,.25-.1,.2-.39,.19-.61,.15-2.8-.5-5.66-.24-8.5-.15s-5.77-.01-8.37-1.17c-1.06-.47-2.03-1.11-2.99-1.75Z"/></g></g></g></svg>