<?xml version="1.0" encoding="UTF-8"?>
<!DOCTYPE svg PUBLIC "-//W3C//DTD SVG 1.1//EN" "http://www.w3.org/Graphics/SVG/1.1/DTD/svg11.dtd">
<svg xmlns="http://www.w3.org/2000/svg" version="1.1" width="400px" height="400px" style="shape-rendering:geometricPrecision; text-rendering:geometricPrecision; image-rendering:optimizeQuality; fill-rule:evenodd; clip-rule:evenodd" xmlns:xlink="http://www.w3.org/1999/xlink">
<g><path style="opacity:0.995" fill="#7f3ce0" d="M 179.5,-0.5 C 192.833,-0.5 206.167,-0.5 219.5,-0.5C 304.538,11.9461 361.705,58.6127 391,139.5C 394.818,152.765 397.651,166.099 399.5,179.5C 399.5,192.833 399.5,206.167 399.5,219.5C 387.054,304.538 340.387,361.705 259.5,391C 246.235,394.818 232.901,397.651 219.5,399.5C 206.167,399.5 192.833,399.5 179.5,399.5C 94.4616,387.054 37.295,340.387 8,259.5C 4.18196,246.235 1.34862,232.901 -0.5,219.5C -0.5,206.167 -0.5,192.833 -0.5,179.5C 11.9461,94.4616 58.6127,37.295 139.5,8C 152.765,4.18196 166.099,1.34862 179.5,-0.5 Z"/></g>
<g><path style="opacity:1" fill="#fcfbfe" d="M 194.5,63.5 C 200.345,63.151 206.012,63.9843 211.5,66C 244.338,84.9198 277.338,103.587 310.5,122C 316.222,126.617 320.056,132.45 322,139.5C 322.667,178.5 322.667,217.5 322,256.5C 320.584,263.583 317.084,269.416 311.5,274C 276.457,294.188 241.124,313.855 205.5,333C 196.353,334.509 188.02,332.509 180.5,327C 150.5,310 120.5,293 90.5,276C 82.8807,271.272 78.3807,264.438 77,255.5C 76.3333,216.833 76.3333,178.167 77,139.5C 79.9216,129.576 86.0883,122.409 95.5,118C 125.5,101 155.5,84 185.5,67C 188.571,65.7043 191.571,64.5377 194.5,63.5 Z"/></g>
<g><path style="opacity:1" fill="#803ee0" d="M 196.5,81.5 C 200.131,81.1604 203.464,81.9937 206.5,84C 237.5,101.667 268.5,119.333 299.5,137C 300.667,138.167 301.833,139.333 303,140.5C 303.667,150.5 303.667,160.5 303,170.5C 297.061,178.784 289.228,184.284 279.5,187C 224.167,187.333 168.833,187.667 113.5,188C 106.926,189.371 101.093,192.204 96,196.5C 95.3333,177.833 95.3333,159.167 96,140.5C 97.5,139 99,137.5 100.5,136C 132.725,118.059 164.725,99.8925 196.5,81.5 Z"/></g>
<g><path style="opacity:1" fill="#fdfcfe" d="M 146.5,128.5 C 157.505,128.333 168.505,128.5 179.5,129C 185.693,131.193 189.859,135.359 192,141.5C 192.5,152.161 192.667,162.828 192.5,173.5C 186.5,173.5 180.5,173.5 174.5,173.5C 174.5,164.5 174.5,155.5 174.5,146.5C 166.833,146.5 159.167,146.5 151.5,146.5C 151.5,155.5 151.5,164.5 151.5,173.5C 145.167,173.5 138.833,173.5 132.5,173.5C 132.334,163.161 132.5,152.828 133,142.5C 135.687,135.981 140.187,131.314 146.5,128.5 Z"/></g>
<g><path style="opacity:1" fill="#fdfcfe" d="M 219.5,128.5 C 230.505,128.333 241.505,128.5 252.5,129C 259.552,130.93 264.052,135.43 266,142.5C 266.5,152.828 266.666,163.161 266.5,173.5C 260.167,173.5 253.833,173.5 247.5,173.5C 247.5,164.5 247.5,155.5 247.5,146.5C 239.833,146.5 232.167,146.5 224.5,146.5C 224.5,155.5 224.5,164.5 224.5,173.5C 218.5,173.5 212.5,173.5 206.5,173.5C 206.333,162.828 206.5,152.161 207,141.5C 209.353,135.315 213.52,130.982 219.5,128.5 Z"/></g>
<g><path style="opacity:1" fill="#7f3de0" d="M 302.5,195.5 C 303.166,205.328 303.5,215.328 303.5,225.5C 303.645,236.26 303.145,246.927 302,257.5C 269.079,277.046 235.912,296.212 202.5,315C 200.5,315.667 198.5,315.667 196.5,315C 165.167,297.333 133.833,279.667 102.5,262C 99.6667,260.5 97.5,258.333 96,255.5C 95.3333,244.167 95.3333,232.833 96,221.5C 101.371,214.783 107.871,209.617 115.5,206C 171.167,205.667 226.833,205.333 282.5,205C 290.058,203.44 296.724,200.273 302.5,195.5 Z"/></g>
<g><path style="opacity:1" fill="#fdfdfe" d="M 133.5,248.5 C 133.5,238.833 133.5,229.167 133.5,219.5C 139.167,219.5 144.833,219.5 150.5,219.5C 150.174,228.349 150.507,237.016 151.5,245.5C 159.167,245.5 166.833,245.5 174.5,245.5C 174.5,236.5 174.5,227.5 174.5,218.5C 180.5,218.5 186.5,218.5 192.5,218.5C 192.666,228.839 192.5,239.172 192,249.5C 190.273,256.228 186.106,260.728 179.5,263C 167.833,263.667 156.167,263.667 144.5,263C 138.043,260.241 134.377,255.408 133.5,248.5 Z"/></g>
<g><path style="opacity:1" fill="#d9c5f5" d="M 151.5,245.5 C 150.507,237.016 150.174,228.349 150.5,219.5C 144.833,219.5 139.167,219.5 133.5,219.5C 133.5,229.167 133.5,238.833 133.5,248.5C 132.506,238.681 132.173,228.681 132.5,218.5C 138.833,218.5 145.167,218.5 151.5,218.5C 151.5,227.5 151.5,236.5 151.5,245.5 Z"/></g>
<g><path style="opacity:1" fill="#fdfdfe" d="M 247.5,245.5 C 248.493,237.016 248.826,228.349 248.5,219.5C 254.167,219.5 259.833,219.5 265.5,219.5C 265.5,229.167 265.5,238.833 265.5,248.5C 264.656,255.852 260.656,260.685 253.5,263C 241.833,263.667 230.167,263.667 218.5,263C 212.471,260.309 208.638,255.809 207,249.5C 206.5,239.172 206.334,228.839 206.5,218.5C 212.5,218.5 218.5,218.5 224.5,218.5C 224.5,227.5 224.5,236.5 224.5,245.5C 232.167,245.5 239.833,245.5 247.5,245.5 Z"/></g>
<g><path style="opacity:1" fill="#d4bdf4" d="M 265.5,248.5 C 265.5,238.833 265.5,229.167 265.5,219.5C 259.833,219.5 254.167,219.5 248.5,219.5C 248.826,228.349 248.493,237.016 247.5,245.5C 247.5,236.5 247.5,227.5 247.5,218.5C 253.833,218.5 260.167,218.5 266.5,218.5C 266.827,228.681 266.494,238.681 265.5,248.5 Z"/></g>
</svg>
