<svg width="256" height="256" viewBox="0 0 256 256" fill="none" xmlns="http://www.w3.org/2000/svg">
<path d="M87.5269 176.492C82.9336 176.492 79.0547 173.211 78.2819 168.676L52.1363 14.9517C51.7134 12.4728 52.2821 9.99381 53.7403 7.95232C55.1985 5.91084 57.3566 4.5547 59.821 4.13182C64.9247 3.27148 69.7806 6.71285 70.6555 11.8166L96.8011 165.541C97.224 168.02 96.6553 170.499 95.1971 172.54C93.7389 174.581 91.5807 175.938 89.1164 176.361C88.606 176.448 88.0665 176.492 87.5269 176.492Z" fill="#CCFF00"/>
<path d="M87.5269 176.492C82.9336 176.492 79.0547 173.211 78.2819 168.676L52.1363 14.9517C51.7134 12.4728 52.2821 9.99381 53.7403 7.95232C55.1985 5.91084 57.3566 4.5547 59.821 4.13182C64.9247 3.27148 69.7806 6.71285 70.6555 11.8166L96.8011 165.541C97.224 168.02 96.6553 170.499 95.1971 172.54C93.7389 174.581 91.5807 175.938 89.1164 176.361C88.606 176.448 88.0665 176.492 87.5269 176.492Z" fill="#CCFF00"/>
<path d="M131.346 105.594C116.4 105.594 102.503 110.07 90.8811 117.755L94.0455 136.362C104.034 127.656 117.085 122.363 131.346 122.363C162.712 122.363 188.231 147.882 188.231 179.248C188.231 210.614 162.712 236.132 131.346 236.132C99.9803 236.132 74.4618 210.614 74.4618 179.248C74.4618 175.063 74.9284 170.994 75.7887 167.072L70.7433 137.456C62.519 149.34 57.6924 163.747 57.6924 179.262C57.6924 219.873 90.7353 252.916 131.346 252.916C171.957 252.916 205 219.873 205 179.262C205 138.651 171.972 105.594 131.346 105.594Z" fill="#CCFF00"/>
<path d="M127.321 222.236C132.862 222.236 137.353 217.744 137.353 212.203C137.353 206.662 132.862 202.171 127.321 202.171C121.78 202.171 117.289 206.662 117.289 212.203C117.289 217.744 121.78 222.236 127.321 222.236Z" fill="#1CD8D2"/>
<path d="M158.658 210.555C164.199 210.555 168.691 206.064 168.691 200.523C168.691 194.982 164.199 190.49 158.658 190.49C153.118 190.49 148.626 194.982 148.626 200.523C148.626 206.064 153.118 210.555 158.658 210.555Z" fill="#1CD8D2"/>
<path d="M134.028 189.047C139.569 189.047 144.061 184.555 144.061 179.014C144.061 173.474 139.569 168.982 134.028 168.982C128.487 168.982 123.996 173.474 123.996 179.014C123.996 184.555 128.487 189.047 134.028 189.047Z" fill="#1CD8D2"/>
<path d="M102.882 199.298C108.423 199.298 112.915 194.806 112.915 189.266C112.915 183.725 108.423 179.233 102.882 179.233C97.3413 179.233 92.8496 183.725 92.8496 189.266C92.8496 194.806 97.3413 199.298 102.882 199.298Z" fill="#1CD8D2"/>
<path d="M165.074 178.766C170.615 178.766 175.107 174.275 175.107 168.734C175.107 163.193 170.615 158.702 165.074 158.702C159.534 158.702 155.042 163.193 155.042 168.734C155.042 174.275 159.534 178.766 165.074 178.766Z" fill="#1CD8D2"/>
<path d="M140.722 155.858C146.263 155.858 150.754 151.366 150.754 145.826C150.754 140.285 146.263 135.793 140.722 135.793C135.181 135.793 130.689 140.285 130.689 145.826C130.689 151.366 135.181 155.858 140.722 155.858Z" fill="#1CD8D2"/>
<path d="M109.283 167.524C114.824 167.524 119.316 163.032 119.316 157.491C119.316 151.95 114.824 147.459 109.283 147.459C103.743 147.459 99.251 151.95 99.251 157.491C99.251 163.032 103.743 167.524 109.283 167.524Z" fill="#1CD8D2"/>
</svg>
