<?xml version="1.0" encoding="UTF-8"?>
<!DOCTYPE svg PUBLIC "-//W3C//DTD SVG 1.1//EN" "http://www.w3.org/Graphics/SVG/1.1/DTD/svg11.dtd">
<svg xmlns="http://www.w3.org/2000/svg" version="1.1" width="200px" height="200px" style="shape-rendering:geometricPrecision; text-rendering:geometricPrecision; image-rendering:optimizeQuality; fill-rule:evenodd; clip-rule:evenodd" xmlns:xlink="http://www.w3.org/1999/xlink">
<g><path style="opacity:1" fill="#fdfdfe" d="M -0.5,-0.5 C 66.1667,-0.5 132.833,-0.5 199.5,-0.5C 199.5,66.1667 199.5,132.833 199.5,199.5C 132.833,199.5 66.1667,199.5 -0.5,199.5C -0.5,132.833 -0.5,66.1667 -0.5,-0.5 Z"/></g>
<g><path style="opacity:1" fill="#028efd" d="M 61.5,14.5 C 65.2733,14.2633 68.9399,14.7633 72.5,16C 106.735,35.9244 140.735,55.4244 174.5,74.5C 175.086,74.2907 175.586,73.9574 176,73.5C 178.153,78.5094 181.986,81.1761 187.5,81.5C 190.927,84.3744 192.094,88.0411 191,92.5C 190.617,93.056 190.117,93.3893 189.5,93.5C 189.719,92.325 189.386,91.325 188.5,90.5C 183.12,86.8563 178.12,83.3563 173.5,80C 150.498,67.5017 127.831,54.5017 105.5,41C 103.837,40.7351 102.337,41.2351 101,42.5C 100.781,41.062 100.281,39.7287 99.5,38.5C 88.4169,31.7848 77.0836,25.2848 65.5,19C 63.6156,17.9513 62.2823,16.4513 61.5,14.5 Z"/></g>
<g><path style="opacity:1" fill="#039cfc" d="M 51.5,14.5 C 60.6517,13.5064 69.985,13.1731 79.5,13.5C 110.402,31.2193 141.402,49.0527 172.5,67C 173.928,67.5791 175.262,67.4124 176.5,66.5C 177.365,66.5639 178.365,66.8973 179.5,67.5C 182.669,71.833 185.336,76.4997 187.5,81.5C 181.986,81.1761 178.153,78.5094 176,73.5C 175.586,73.9574 175.086,74.2907 174.5,74.5C 140.735,55.4244 106.735,35.9244 72.5,16C 68.9399,14.7633 65.2733,14.2633 61.5,14.5C 58.1667,14.5 54.8333,14.5 51.5,14.5 Z"/></g>
<g><path style="opacity:1" fill="#01a9fe" d="M 79.5,13.5 C 84.5,13.5 89.5,13.5 94.5,13.5C 94.4142,14.4959 94.7476,15.3292 95.5,16C 122.081,31.4087 148.081,46.242 173.5,60.5C 174.731,61.6507 174.731,62.8173 173.5,64C 174.942,64.3768 175.942,65.2101 176.5,66.5C 175.262,67.4124 173.928,67.5791 172.5,67C 141.402,49.0527 110.402,31.2193 79.5,13.5 Z"/></g>
<g><path style="opacity:1" fill="#03b5fd" d="M 94.5,13.5 C 97.5,13.5 100.5,13.5 103.5,13.5C 122.161,23.4949 140.494,33.9949 158.5,45C 159.362,47.7344 160.195,47.9011 161,45.5C 165.062,49.4533 168.895,52.7867 172.5,55.5C 175.335,59.1638 177.668,63.1638 179.5,67.5C 178.365,66.8973 177.365,66.5639 176.5,66.5C 175.942,65.2101 174.942,64.3768 173.5,64C 174.731,62.8173 174.731,61.6507 173.5,60.5C 148.081,46.242 122.081,31.4087 95.5,16C 94.7476,15.3292 94.4142,14.4959 94.5,13.5 Z"/></g>
<g><path style="opacity:1" fill="#05c2fd" d="M 103.5,13.5 C 108.833,13.5 114.167,13.5 119.5,13.5C 119.082,14.2216 118.416,14.7216 117.5,15C 132.665,23.079 147.331,31.9123 161.5,41.5C 162.182,40.7573 162.849,40.0906 163.5,39.5C 167.003,44.5016 170.003,49.835 172.5,55.5C 168.895,52.7867 165.062,49.4533 161,45.5C 160.195,47.9011 159.362,47.7344 158.5,45C 140.494,33.9949 122.161,23.4949 103.5,13.5 Z"/></g>
<g><path style="opacity:1" fill="#09d0fc" d="M 119.5,13.5 C 129.041,13.2053 138.541,13.5386 148,14.5C 154.179,22.1895 159.346,30.5228 163.5,39.5C 162.849,40.0906 162.182,40.7573 161.5,41.5C 147.331,31.9123 132.665,23.079 117.5,15C 118.416,14.7216 119.082,14.2216 119.5,13.5 Z"/></g>
<g><path style="opacity:1" fill="#156dfd" d="M 84.5,47.5 C 84.7678,49.099 84.4345,50.4324 83.5,51.5C 82.9396,49.1992 82.4396,46.8659 82,44.5C 81.6667,45.5 81.3333,46.5 81,47.5C 79.9914,45.9751 79.4914,44.3084 79.5,42.5C 77.0108,42.7022 74.6775,42.2022 72.5,41C 63.9231,35.5505 55.2564,30.3838 46.5,25.5C 45.4593,27.9913 44.6259,27.9913 44,25.5C 43.6174,26.056 43.1174,26.3893 42.5,26.5C 43.4706,24.5168 44.4706,22.5168 45.5,20.5C 47.8448,19.6465 50.3448,18.6465 53,17.5C 60.032,22.1603 68.1987,26.9936 77.5,32C 80.5819,33.8719 83.2486,36.2052 85.5,39C 84.8531,41.4686 84.5198,44.3019 84.5,47.5 Z"/></g>
<g><path style="opacity:1" fill="#275bfb" d="M 83.5,51.5 C 83.1016,55.7607 82.1016,59.7607 80.5,63.5C 80.3802,59.9582 80.7135,56.4582 81.5,53C 79.8862,50.3823 77.8862,48.049 75.5,46C 70.5065,43.6784 65.5065,41.3451 60.5,39C 59.8333,38 59.1667,37 58.5,36C 54.3255,34.9176 50.3255,33.251 46.5,31C 45.8742,30.2496 45.3742,29.4162 45,28.5C 43.7365,30.607 41.9032,31.607 39.5,31.5C 40.1103,29.5659 41.1103,27.8993 42.5,26.5C 43.1174,26.3893 43.6174,26.056 44,25.5C 44.6259,27.9913 45.4593,27.9913 46.5,25.5C 55.2564,30.3838 63.9231,35.5505 72.5,41C 74.6775,42.2022 77.0108,42.7022 79.5,42.5C 79.4914,44.3084 79.9914,45.9751 81,47.5C 81.3333,46.5 81.6667,45.5 82,44.5C 82.4396,46.8659 82.9396,49.1992 83.5,51.5 Z"/></g>
<g><path style="opacity:1" fill="#344cfd" d="M 80.5,63.5 C 80.7678,65.099 80.4345,66.4324 79.5,67.5C 79.7771,64.5525 79.4438,61.7191 78.5,59C 71.0823,54.5968 63.4156,50.5968 55.5,47C 54.9535,46.0754 54.2868,45.2421 53.5,44.5C 48.4375,42.7546 43.7708,40.4213 39.5,37.5C 37.4645,38.885 35.4645,40.2183 33.5,41.5C 35.1373,37.8822 37.1373,34.5488 39.5,31.5C 41.9032,31.607 43.7365,30.607 45,28.5C 45.3742,29.4162 45.8742,30.2496 46.5,31C 50.3255,33.251 54.3255,34.9176 58.5,36C 59.1667,37 59.8333,38 60.5,39C 65.5065,41.3451 70.5065,43.6784 75.5,46C 77.8862,48.049 79.8862,50.3823 81.5,53C 80.7135,56.4582 80.3802,59.9582 80.5,63.5 Z"/></g>
<g><path style="opacity:1" fill="#0481fc" d="M 51.5,14.5 C 54.8333,14.5 58.1667,14.5 61.5,14.5C 62.2823,16.4513 63.6156,17.9513 65.5,19C 77.0836,25.2848 88.4169,31.7848 99.5,38.5C 100.281,39.7287 100.781,41.062 101,42.5C 102.337,41.2351 103.837,40.7351 105.5,41C 127.831,54.5017 150.498,67.5017 173.5,80C 178.12,83.3563 183.12,86.8563 188.5,90.5C 189.386,91.325 189.719,92.325 189.5,93.5C 181.92,94.4657 174.253,94.799 166.5,94.5C 166.5,93.8333 166.833,93.5 167.5,93.5C 171.967,93.8674 176.3,93.3674 180.5,92C 155.384,77.1631 129.55,61.9964 103,46.5C 100.626,49.2876 99.2929,48.9542 99,45.5C 97.8118,46.5634 97.3118,47.8967 97.5,49.5C 96.6862,47.369 96.1862,45.0356 96,42.5C 93.2935,39.0221 90.2935,38.6888 87,41.5C 86.1553,43.6115 85.322,45.6115 84.5,47.5C 84.5198,44.3019 84.8531,41.4686 85.5,39C 83.2486,36.2052 80.5819,33.8719 77.5,32C 68.1987,26.9936 60.032,22.1603 53,17.5C 50.3448,18.6465 47.8448,19.6465 45.5,20.5C 46.5222,17.4777 48.5222,15.4777 51.5,14.5 Z"/></g>
<g><path style="opacity:1" fill="#4f32fc" d="M 79.5,67.5 C 78.9448,71.3968 77.9448,75.0635 76.5,78.5C 76.0084,74.5435 76.6751,70.8768 78.5,67.5C 64.5423,59.4401 50.3756,52.1068 36,45.5C 35.3086,47.8912 34.3086,47.8912 33,45.5C 32.5831,46.756 31.7498,47.4226 30.5,47.5C 30.9752,45.2163 31.9752,43.2163 33.5,41.5C 35.4645,40.2183 37.4645,38.885 39.5,37.5C 43.7708,40.4213 48.4375,42.7546 53.5,44.5C 54.2868,45.2421 54.9535,46.0754 55.5,47C 63.4156,50.5968 71.0823,54.5968 78.5,59C 79.4438,61.7191 79.7771,64.5525 79.5,67.5 Z"/></g>
<g><path style="opacity:1" fill="#8104fc" d="M 28.5,50.5 C 35.2843,54.5599 42.951,58.3932 51.5,62C 57.7859,66.4845 64.1193,70.9845 70.5,75.5C 72.0709,76.3094 73.7376,76.6427 75.5,76.5C 75.5,77.5 75.5,78.5 75.5,79.5C 74.7802,83.7158 73.4469,87.7158 71.5,91.5C 60.1213,85.4283 48.788,79.2616 37.5,73C 31.8891,69.7098 26.5557,66.2098 21.5,62.5C 23.3437,58.1362 25.677,54.1362 28.5,50.5 Z"/></g>
<g><path style="opacity:1" fill="#641cfe" d="M 76.5,78.5 C 76.5,78.8333 76.5,79.1667 76.5,79.5C 76.1667,79.5 75.8333,79.5 75.5,79.5C 75.5,78.5 75.5,77.5 75.5,76.5C 73.7376,76.6427 72.0709,76.3094 70.5,75.5C 64.1193,70.9845 57.7859,66.4845 51.5,62C 42.951,58.3932 35.2843,54.5599 28.5,50.5C 28.9321,49.2905 29.5987,48.2905 30.5,47.5C 31.7498,47.4226 32.5831,46.756 33,45.5C 34.3086,47.8912 35.3086,47.8912 36,45.5C 50.3756,52.1068 64.5423,59.4401 78.5,67.5C 76.6751,70.8768 76.0084,74.5435 76.5,78.5 Z"/></g>
<g><path style="opacity:1" fill="#1b69fa" d="M 97.5,49.5 C 98.4728,50.7914 99.4728,50.7914 100.5,49.5C 101.386,50.325 101.719,51.325 101.5,52.5C 111.097,57.2987 120.764,62.132 130.5,67C 131.956,68.7448 133.289,70.5781 134.5,72.5C 135.167,71.8333 135.833,71.1667 136.5,70.5C 145.938,76.2681 155.271,82.1014 164.5,88C 163.584,88.2784 162.918,88.7784 162.5,89.5C 159.402,89.5875 159.068,89.0875 161.5,88C 157.664,85.9164 153.997,83.583 150.5,81C 147.352,79.3953 144.019,78.3953 140.5,78C 137.482,74.3999 135.482,74.8999 134.5,79.5C 133.03,77.8487 131.697,76.0153 130.5,74C 127.502,73.1093 124.836,73.6093 122.5,75.5C 120.12,73.7633 118.453,71.43 117.5,68.5C 111.941,65.0952 106.441,61.7619 101,58.5C 99.872,60.3453 99.372,62.3453 99.5,64.5C 98.2751,59.7105 97.6084,54.7105 97.5,49.5 Z"/></g>
<g><path style="opacity:1" fill="#3251fa" d="M 122.5,75.5 C 121.945,79.3968 120.945,83.0635 119.5,86.5C 119.662,84.4727 119.495,82.4727 119,80.5C 113.991,75.8867 108.158,72.8867 101.5,71.5C 101.5,73.8333 101.5,76.1667 101.5,78.5C 100.479,74.0196 99.8127,69.353 99.5,64.5C 99.372,62.3453 99.872,60.3453 101,58.5C 106.441,61.7619 111.941,65.0952 117.5,68.5C 118.453,71.43 120.12,73.7633 122.5,75.5 Z"/></g>
<g><path style="opacity:1" fill="#0a75fe" d="M 167.5,93.5 C 167.918,92.7784 168.584,92.2784 169.5,92C 167.199,90.884 164.865,90.0507 162.5,89.5C 162.918,88.7784 163.584,88.2784 164.5,88C 155.271,82.1014 145.938,76.2681 136.5,70.5C 135.833,71.1667 135.167,71.8333 134.5,72.5C 133.289,70.5781 131.956,68.7448 130.5,67C 120.764,62.132 111.097,57.2987 101.5,52.5C 101.719,51.325 101.386,50.325 100.5,49.5C 99.4728,50.7914 98.4728,50.7914 97.5,49.5C 97.3118,47.8967 97.8118,46.5634 99,45.5C 99.2929,48.9542 100.626,49.2876 103,46.5C 129.55,61.9964 155.384,77.1631 180.5,92C 176.3,93.3674 171.967,93.8674 167.5,93.5 Z"/></g>
<g><path style="opacity:1" fill="#4f39f3" d="M 119.5,86.5 C 118.258,94.4735 116.258,102.14 113.5,109.5C 113.541,105.384 114.207,101.384 115.5,97.5C 116.818,94.4355 116.818,91.2688 115.5,88C 116.744,87.5439 117.577,88.0439 118,89.5C 118.494,87.8659 118.66,86.1992 118.5,84.5C 116.328,83.1989 113.995,82.1989 111.5,81.5C 111.67,80.1779 111.337,79.0113 110.5,78C 108.884,77.3848 107.551,76.3848 106.5,75C 105.207,74.51 103.873,74.3433 102.5,74.5C 103.08,78.81 103.414,83.1434 103.5,87.5C 103.5,88.8333 103.5,90.1667 103.5,91.5C 102.105,87.4091 101.438,83.0758 101.5,78.5C 101.5,76.1667 101.5,73.8333 101.5,71.5C 108.158,72.8867 113.991,75.8867 119,80.5C 119.495,82.4727 119.662,84.4727 119.5,86.5 Z"/></g>
<g><path style="opacity:1" fill="#9908f7" d="M 21.5,62.5 C 26.5557,66.2098 31.8891,69.7098 37.5,73C 48.788,79.2616 60.1213,85.4283 71.5,91.5C 73.4469,87.7158 74.7802,83.7158 75.5,79.5C 75.8333,79.5 76.1667,79.5 76.5,79.5C 74.4725,89.2762 71.9725,98.9429 69,108.5C 66.4883,104.139 63.9883,99.8059 61.5,95.5C 61.3893,94.8826 61.056,94.3826 60.5,94C 53.5002,93.4231 46.5002,92.9231 39.5,92.5C 39.5,91.5 39.5,90.5 39.5,89.5C 50.1461,89.3293 50.1461,88.8293 39.5,88C 33.2981,84.067 26.9647,80.4004 20.5,77C 21.5,76 22.5,75 23.5,74C 22.9747,73.3076 22.3081,72.8076 21.5,72.5C 20.3348,73.4911 19.1681,74.4911 18,75.5C 17.5,75.1667 17,74.8333 16.5,74.5C 17.4411,72.2279 18.7745,70.2279 20.5,68.5C 20.1373,67.8165 19.8039,67.1499 19.5,66.5C 19.6596,64.847 20.3263,63.5137 21.5,62.5 Z"/></g>
<g><path style="opacity:1" fill="#6130db" d="M 92.5,89.5 C 91.5713,86.3246 90.738,82.9913 90,79.5C 89.5831,78.244 88.7498,77.5774 87.5,77.5C 87.8647,74.3751 88.698,71.3751 90,68.5C 91.2447,75.4574 92.078,82.4574 92.5,89.5 Z"/></g>
<g><path style="opacity:1" fill="#255ff9" d="M 162.5,89.5 C 164.865,90.0507 167.199,90.884 169.5,92C 168.584,92.2784 167.918,92.7784 167.5,93.5C 166.833,93.5 166.5,93.8333 166.5,94.5C 158.472,94.831 150.472,94.4977 142.5,93.5C 139.378,89.0565 136.711,84.3898 134.5,79.5C 135.482,74.8999 137.482,74.3999 140.5,78C 144.019,78.3953 147.352,79.3953 150.5,81C 153.997,83.583 157.664,85.9164 161.5,88C 159.068,89.0875 159.402,89.5875 162.5,89.5 Z"/></g>
<g><path style="opacity:1" fill="#b510ee" d="M 19.5,66.5 C 19.8039,67.1499 20.1373,67.8165 20.5,68.5C 18.7745,70.2279 17.4411,72.2279 16.5,74.5C 17,74.8333 17.5,75.1667 18,75.5C 19.1681,74.4911 20.3348,73.4911 21.5,72.5C 22.3081,72.8076 22.9747,73.3076 23.5,74C 22.5,75 21.5,76 20.5,77C 26.9647,80.4004 33.2981,84.067 39.5,88C 50.1461,88.8293 50.1461,89.3293 39.5,89.5C 39.5,90.5 39.5,91.5 39.5,92.5C 46.5002,92.9231 53.5002,93.4231 60.5,94C 61.056,94.3826 61.3893,94.8826 61.5,95.5C 44.2103,94.6939 26.877,94.1939 9.5,94C 6.91326,92.4749 6.07992,90.3083 7,87.5C 10.6893,80.1061 14.8559,73.1061 19.5,66.5 Z"/></g>
<g><path style="opacity:1" fill="#542cfd" d="M 115.5,97.5 C 114.641,95.8941 114.474,94.2275 115,92.5C 114.667,92.8333 114.333,93.1667 114,93.5C 110.592,91.281 107.092,89.281 103.5,87.5C 103.414,83.1434 103.08,78.81 102.5,74.5C 103.873,74.3433 105.207,74.51 106.5,75C 107.551,76.3848 108.884,77.3848 110.5,78C 111.337,79.0113 111.67,80.1779 111.5,81.5C 113.995,82.1989 116.328,83.1989 118.5,84.5C 118.66,86.1992 118.494,87.8659 118,89.5C 117.577,88.0439 116.744,87.5439 115.5,88C 116.818,91.2688 116.818,94.4355 115.5,97.5 Z"/></g>
<g><path style="opacity:1" fill="#7a0ef9" d="M 103.5,87.5 C 107.092,89.281 110.592,91.281 114,93.5C 114.333,93.1667 114.667,92.8333 115,92.5C 114.474,94.2275 114.641,95.8941 115.5,97.5C 114.207,101.384 113.541,105.384 113.5,109.5C 113.5,110.167 113.5,110.833 113.5,111.5C 111.17,115.313 109.67,119.647 109,124.5C 108.617,123.944 108.117,123.611 107.5,123.5C 105.516,112.928 104.183,102.261 103.5,91.5C 103.5,90.1667 103.5,88.8333 103.5,87.5 Z"/></g>
<g><path style="opacity:1" fill="#910af6" d="M 87.5,77.5 C 88.7498,77.5774 89.5831,78.244 90,79.5C 90.738,82.9913 91.5713,86.3246 92.5,89.5C 94.1404,96.611 95.1404,103.944 95.5,111.5C 94.8386,112.718 94.1719,114.051 93.5,115.5C 91.4912,113.99 89.6579,112.323 88,110.5C 86.8173,111.731 85.6507,111.731 84.5,110.5C 83.0366,107.643 82.0366,104.643 81.5,101.5C 82.8984,93.2398 84.8984,85.2398 87.5,77.5 Z"/></g>
<g><path style="opacity:1" fill="#3d45fb" d="M 143.5,104.5 C 151.833,104.5 160.167,104.5 168.5,104.5C 170.292,105.309 172.292,105.809 174.5,106C 175.634,107.016 175.301,107.683 173.5,108C 175.81,108.497 178.143,108.663 180.5,108.5C 180.478,111.998 181.978,113.331 185,112.5C 185.813,114.436 186.313,116.436 186.5,118.5C 185.59,121.992 183.924,124.992 181.5,127.5C 181.762,126.022 181.429,124.689 180.5,123.5C 178.947,122.561 177.613,121.394 176.5,120C 176.645,119.228 176.978,118.561 177.5,118C 166.886,111.154 155.553,106.654 143.5,104.5 Z"/></g>
<g><path style="opacity:1" fill="#2c58f4" d="M 168.5,104.5 C 175.508,104.334 182.508,104.5 189.5,105C 191.396,106.808 191.896,108.975 191,111.5C 189.974,114.239 188.474,116.572 186.5,118.5C 186.313,116.436 185.813,114.436 185,112.5C 181.978,113.331 180.478,111.998 180.5,108.5C 178.143,108.663 175.81,108.497 173.5,108C 175.301,107.683 175.634,107.016 174.5,106C 172.292,105.809 170.292,105.309 168.5,104.5 Z"/></g>
<g><path style="opacity:1" fill="#7e03fe" d="M 125.5,107.5 C 129.199,109.019 132.532,111.186 135.5,114C 140.483,114.819 144.483,117.152 147.5,121C 154.786,125.638 162.452,129.305 170.5,132C 172.037,133.11 172.703,134.61 172.5,136.5C 168.635,134.741 167.301,135.741 168.5,139.5C 168.566,141.266 167.732,142.266 166,142.5C 158.41,138.572 151.077,134.239 144,129.5C 143.667,129.833 143.333,130.167 143,130.5C 138.21,126.536 133.043,123.203 127.5,120.5C 127.174,117.342 126.174,114.508 124.5,112C 125.38,110.644 125.714,109.144 125.5,107.5 Z"/></g>
<g><path style="opacity:1" fill="#532efa" d="M 143.5,104.5 C 155.553,106.654 166.886,111.154 177.5,118C 176.978,118.561 176.645,119.228 176.5,120C 177.613,121.394 178.947,122.561 180.5,123.5C 181.429,124.689 181.762,126.022 181.5,127.5C 180.226,130.76 178.56,133.76 176.5,136.5C 178.138,133.427 177.805,130.594 175.5,128C 176.448,127.517 177.448,127.351 178.5,127.5C 178.762,126.022 178.429,124.689 177.5,123.5C 176.808,124.025 176.308,124.692 176,125.5C 175.691,124.234 175.191,123.067 174.5,122C 167.474,118.889 160.807,115.222 154.5,111C 152.5,110.667 150.5,110.333 148.5,110C 149.815,108.605 149.481,107.605 147.5,107C 144.833,107 142.167,107 139.5,107C 137.051,105.033 134.551,103.199 132,101.5C 130.242,102.469 129.742,103.636 130.5,105C 128.866,105.494 127.199,105.66 125.5,105.5C 126.347,100.112 127.513,94.7788 129,89.5C 131.423,95.2058 134.923,100.039 139.5,104C 140.793,104.49 142.127,104.657 143.5,104.5 Z"/></g>
<g><path style="opacity:1" fill="#932cd5" d="M 113.5,111.5 C 112.146,117.581 110.48,123.581 108.5,129.5C 107.534,127.604 107.201,125.604 107.5,123.5C 108.117,123.611 108.617,123.944 109,124.5C 109.67,119.647 111.17,115.313 113.5,111.5 Z"/></g>
<g><path style="opacity:1" fill="#621dfe" d="M 176.5,136.5 C 176.5,137.167 176.167,137.5 175.5,137.5C 174.209,137.737 173.209,137.404 172.5,136.5C 172.703,134.61 172.037,133.11 170.5,132C 162.452,129.305 154.786,125.638 147.5,121C 144.483,117.152 140.483,114.819 135.5,114C 132.532,111.186 129.199,109.019 125.5,107.5C 125.5,106.833 125.5,106.167 125.5,105.5C 127.199,105.66 128.866,105.494 130.5,105C 129.742,103.636 130.242,102.469 132,101.5C 134.551,103.199 137.051,105.033 139.5,107C 142.167,107 144.833,107 147.5,107C 149.481,107.605 149.815,108.605 148.5,110C 150.5,110.333 152.5,110.667 154.5,111C 160.807,115.222 167.474,118.889 174.5,122C 175.191,123.067 175.691,124.234 176,125.5C 176.308,124.692 176.808,124.025 177.5,123.5C 178.429,124.689 178.762,126.022 178.5,127.5C 177.448,127.351 176.448,127.517 175.5,128C 177.805,130.594 178.138,133.427 176.5,136.5 Z"/></g>
<g><path style="opacity:1" fill="#b70fef" d="M 81.5,101.5 C 82.0366,104.643 83.0366,107.643 84.5,110.5C 85.6507,111.731 86.8173,111.731 88,110.5C 89.6579,112.323 91.4912,113.99 93.5,115.5C 94.1719,114.051 94.8386,112.718 95.5,111.5C 96.8015,115.943 97.4681,120.609 97.5,125.5C 97.6646,128.518 97.498,131.518 97,134.5C 96.6667,134.167 96.3333,133.833 96,133.5C 95.2613,134.574 94.2613,135.241 93,135.5C 87.6365,131.701 81.8032,128.867 75.5,127C 75.9582,124.602 77.2915,122.936 79.5,122C 78.6919,121.692 78.0253,121.192 77.5,120.5C 78.8069,119.135 78.8069,117.802 77.5,116.5C 78.0756,111.191 79.409,106.191 81.5,101.5 Z"/></g>
<g><path style="opacity:1" fill="#eb14aa" d="M 87.5,163.5 C 85.8008,163.66 84.1341,163.494 82.5,163C 75.9617,158.23 68.9617,154.23 61.5,151C 59.803,147.816 57.1363,146.15 53.5,146C 48.3508,141.204 42.3508,137.871 35.5,136C 31.6516,132.611 27.3183,129.944 22.5,128C 21.2161,127.316 20.0495,127.483 19,128.5C 18.1237,126.365 16.6237,125.031 14.5,124.5C 13.1667,122.167 11.8333,119.833 10.5,117.5C 11.7498,117.423 12.5831,116.756 13,115.5C 13.3333,116.833 13.6667,118.167 14,119.5C 14.414,119.043 14.914,118.709 15.5,118.5C 17.495,121.168 20.1617,122.835 23.5,123.5C 25.6922,124.859 27.3589,126.692 28.5,129C 35.3737,132.937 42.3737,136.603 49.5,140C 62.0741,148.093 74.7407,155.926 87.5,163.5 Z"/></g>
<g><path style="opacity:1" fill="#e915ba" d="M 7.5,106.5 C 7.5,107.833 7.5,109.167 7.5,110.5C 10.0488,110.441 12.0488,111.441 13.5,113.5C 14.086,113.291 14.586,112.957 15,112.5C 15.2492,113.624 15.7492,114.624 16.5,115.5C 23.6883,119.258 30.355,123.758 36.5,129C 39.9989,130.704 43.6655,132.038 47.5,133C 57.4004,139.113 67.4004,144.946 77.5,150.5C 89.1312,158.99 101.465,166.49 114.5,173C 115.833,174.333 117.167,175.667 118.5,177C 124.322,179.367 129.988,181.867 135.5,184.5C 131.818,184.665 128.152,184.499 124.5,184C 115.796,178.662 107.13,173.329 98.5,168C 94.9069,166.219 91.2402,164.719 87.5,163.5C 74.7407,155.926 62.0741,148.093 49.5,140C 42.3737,136.603 35.3737,132.937 28.5,129C 27.3589,126.692 25.6922,124.859 23.5,123.5C 20.1617,122.835 17.495,121.168 15.5,118.5C 14.914,118.709 14.414,119.043 14,119.5C 13.6667,118.167 13.3333,116.833 13,115.5C 12.5831,116.756 11.7498,117.423 10.5,117.5C 9.56039,115.388 8.39372,113.388 7,111.5C 6.22039,109.613 6.38705,107.946 7.5,106.5 Z"/></g>
<g><path style="opacity:1" fill="#ca17e8" d="M 39.5,104.5 C 44.8437,104.334 50.1771,104.501 55.5,105C 59.5843,111.837 63.9177,118.504 68.5,125C 70.235,125.651 71.9017,125.485 73.5,124.5C 75.4123,122.009 76.7456,119.342 77.5,116.5C 78.8069,117.802 78.8069,119.135 77.5,120.5C 78.0253,121.192 78.6919,121.692 79.5,122C 77.2915,122.936 75.9582,124.602 75.5,127C 81.8032,128.867 87.6365,131.701 93,135.5C 94.2613,135.241 95.2613,134.574 96,133.5C 96.3333,133.833 96.6667,134.167 97,134.5C 97.498,131.518 97.6646,128.518 97.5,125.5C 99.4595,134.609 100.793,143.942 101.5,153.5C 100.215,150.411 99.5488,147.078 99.5,143.5C 97.4727,143.662 95.4727,143.495 93.5,143C 83.3794,137.103 73.3794,130.936 63.5,124.5C 62.914,124.709 62.414,125.043 62,125.5C 54.6327,120.635 47.1327,115.969 39.5,111.5C 40.0253,110.808 40.6919,110.308 41.5,110C 33.1661,109.479 32.8328,108.813 40.5,108C 39.8333,107.667 39.1667,107.333 38.5,107C 39.2524,106.329 39.5858,105.496 39.5,104.5 Z"/></g>
<g><path style="opacity:1" fill="#db17e7" d="M 11.5,104.5 C 20.8333,104.5 30.1667,104.5 39.5,104.5C 39.5858,105.496 39.2524,106.329 38.5,107C 39.1667,107.333 39.8333,107.667 40.5,108C 32.8328,108.813 33.1661,109.479 41.5,110C 40.6919,110.308 40.0253,110.808 39.5,111.5C 47.1327,115.969 54.6327,120.635 62,125.5C 62.414,125.043 62.914,124.709 63.5,124.5C 73.3794,130.936 83.3794,137.103 93.5,143C 95.4727,143.495 97.4727,143.662 99.5,143.5C 99.5488,147.078 100.215,150.411 101.5,153.5C 101.5,153.833 101.5,154.167 101.5,154.5C 101.649,155.552 101.483,156.552 101,157.5C 100,155.5 99,153.5 98,151.5C 97.6667,152.167 97.3333,152.833 97,153.5C 92.0092,148.243 86.0092,144.576 79,142.5C 74.1026,138.561 68.6026,135.727 62.5,134C 49.5658,125.709 36.5658,117.709 23.5,110C 20.854,109.503 18.1873,109.336 15.5,109.5C 16.2625,108.732 17.2625,108.232 18.5,108C 16.8333,107.667 15.1667,107.333 13.5,107C 12.244,106.583 11.5774,105.75 11.5,104.5 Z"/></g>
<g><path style="opacity:1" fill="#e717ce" d="M 11.5,104.5 C 11.5774,105.75 12.244,106.583 13.5,107C 15.1667,107.333 16.8333,107.667 18.5,108C 17.2625,108.232 16.2625,108.732 15.5,109.5C 16.5676,110.434 17.901,110.768 19.5,110.5C 19.281,111.675 19.6143,112.675 20.5,113.5C 25.4623,115.669 30.4623,117.835 35.5,120C 38.2956,121.419 40.2956,123.585 41.5,126.5C 59.5803,138.527 78.5803,148.86 98.5,157.5C 101.528,162.021 105.861,164.521 111.5,165C 121.128,172.862 131.795,179.362 143.5,184.5C 140.833,184.5 138.167,184.5 135.5,184.5C 129.988,181.867 124.322,179.367 118.5,177C 117.167,175.667 115.833,174.333 114.5,173C 101.465,166.49 89.1312,158.99 77.5,150.5C 67.4004,144.946 57.4004,139.113 47.5,133C 43.6655,132.038 39.9989,130.704 36.5,129C 30.355,123.758 23.6883,119.258 16.5,115.5C 15.7492,114.624 15.2492,113.624 15,112.5C 14.586,112.957 14.086,113.291 13.5,113.5C 12.0488,111.441 10.0488,110.441 7.5,110.5C 7.5,109.167 7.5,107.833 7.5,106.5C 8.28696,104.896 9.6203,104.229 11.5,104.5 Z"/></g>
<g><path style="opacity:1" fill="#9606f8" d="M 125.5,105.5 C 125.5,106.167 125.5,106.833 125.5,107.5C 125.714,109.144 125.38,110.644 124.5,112C 126.174,114.508 127.174,117.342 127.5,120.5C 133.043,123.203 138.21,126.536 143,130.5C 143.333,130.167 143.667,129.833 144,129.5C 151.077,134.239 158.41,138.572 166,142.5C 167.732,142.266 168.566,141.266 168.5,139.5C 167.301,135.741 168.635,134.741 172.5,136.5C 173.209,137.404 174.209,137.737 175.5,137.5C 173.336,142.5 170.669,147.167 167.5,151.5C 166.25,151.577 165.417,152.244 165,153.5C 163.667,152.833 162.333,152.167 161,151.5C 160.667,152.833 160.333,154.167 160,155.5C 154.964,149.727 148.797,145.56 141.5,143C 139.588,140.212 136.921,138.879 133.5,139C 131.667,137.167 129.833,135.333 128,133.5C 127.282,134.451 126.449,134.617 125.5,134C 122.131,131.763 120.464,128.597 120.5,124.5C 121.409,117.859 123.076,111.526 125.5,105.5 Z"/></g>
<g><path style="opacity:1" fill="#af0df1" d="M 120.5,124.5 C 120.464,128.597 122.131,131.763 125.5,134C 126.449,134.617 127.282,134.451 128,133.5C 129.833,135.333 131.667,137.167 133.5,139C 136.921,138.879 139.588,140.212 141.5,143C 148.797,145.56 154.964,149.727 160,155.5C 160.333,154.167 160.667,152.833 161,151.5C 162.333,152.167 163.667,152.833 165,153.5C 165.417,152.244 166.25,151.577 167.5,151.5C 165.75,155.335 163.75,159.001 161.5,162.5C 159.908,161.398 159.075,162.065 159,164.5C 157.68,164.201 156.18,164.034 154.5,164C 142.988,157.1 131.655,150.6 120.5,144.5C 119.646,143.052 118.646,141.719 117.5,140.5C 118.407,137.579 118.74,134.579 118.5,131.5C 118.721,128.933 119.388,126.599 120.5,124.5 Z"/></g>
<g><path style="opacity:1" fill="#c513eb" d="M 118.5,131.5 C 118.74,134.579 118.407,137.579 117.5,140.5C 118.646,141.719 119.646,143.052 120.5,144.5C 131.655,150.6 142.988,157.1 154.5,164C 156.18,164.034 157.68,164.201 159,164.5C 159.075,162.065 159.908,161.398 161.5,162.5C 159.754,166.327 157.754,169.993 155.5,173.5C 154.209,173.263 153.209,173.596 152.5,174.5C 141.658,167.241 130.491,160.241 119,153.5C 118.577,154.956 117.744,155.456 116.5,155C 115.635,153.641 114.635,152.474 113.5,151.5C 114.565,144.573 116.232,137.906 118.5,131.5 Z"/></g>
<g><path style="opacity:1" fill="#f40a4e" d="M 89.5,184.5 C 86.1667,184.5 82.8333,184.5 79.5,184.5C 79.4894,182.983 78.8228,181.816 77.5,181C 74.3388,179.587 71.3388,177.92 68.5,176C 65.8333,175.667 63.1667,175.333 60.5,175C 53.9107,171.084 47.5774,166.75 41.5,162C 40.5,161.333 39.5,161.333 38.5,162C 39.3802,163.356 39.7135,164.856 39.5,166.5C 37.0002,163.506 35.0002,160.173 33.5,156.5C 34.5109,153.982 35.8443,153.982 37.5,156.5C 38.3279,155.585 39.3279,154.919 40.5,154.5C 54.6022,165.553 69.9355,174.553 86.5,181.5C 87.548,182.548 88.548,183.548 89.5,184.5 Z"/></g>
<g><path style="opacity:1" fill="#eb149c" d="M 14.5,124.5 C 16.6237,125.031 18.1237,126.365 19,128.5C 20.0495,127.483 21.2161,127.316 22.5,128C 27.3183,129.944 31.6516,132.611 35.5,136C 42.3508,137.871 48.3508,141.204 53.5,146C 57.1363,146.15 59.803,147.816 61.5,151C 68.9617,154.23 75.9617,158.23 82.5,163C 84.1341,163.494 85.8008,163.66 87.5,163.5C 91.2402,164.719 94.9069,166.219 98.5,168C 107.13,173.329 115.796,178.662 124.5,184C 128.152,184.499 131.818,184.665 135.5,184.5C 138.167,184.5 140.833,184.5 143.5,184.5C 144.167,184.5 144.833,184.5 145.5,184.5C 134.346,185.495 123.012,185.828 111.5,185.5C 111.5,184.833 111.167,184.5 110.5,184.5C 106.476,182.65 102.476,180.483 98.5,178C 92.484,172.998 86.1506,168.498 79.5,164.5C 77.1065,163.651 74.7731,162.651 72.5,161.5C 69.551,157.383 65.551,155.216 60.5,155C 54.96,152.135 49.96,148.468 45.5,144C 41.4178,141.627 37.0845,139.794 32.5,138.5C 31.8076,137.975 31.3076,137.308 31,136.5C 30.6667,136.833 30.3333,137.167 30,137.5C 28.6802,133.818 26.1802,132.318 22.5,133C 21.7476,133.671 21.4142,134.504 21.5,135.5C 18.9308,132.039 16.5974,128.372 14.5,124.5 Z"/></g>
<g><path style="opacity:1" fill="#ec1471" d="M 110.5,184.5 C 111.167,184.5 111.5,184.833 111.5,185.5C 98.1667,185.5 84.8333,185.5 71.5,185.5C 73.9479,184.527 76.6146,184.194 79.5,184.5C 82.8333,184.5 86.1667,184.5 89.5,184.5C 94.9325,185.187 95.5992,184.021 91.5,181C 78.1235,175.145 65.1235,168.478 52.5,161C 51.7433,159.488 50.7433,158.154 49.5,157C 46.0618,156.08 43.0618,154.413 40.5,152C 38.5594,151.257 36.7261,151.424 35,152.5C 34.3848,150.884 33.3848,149.551 32,148.5C 30.9614,149.244 30.4614,150.244 30.5,151.5C 27.677,147.864 25.3437,143.864 23.5,139.5C 26.0381,139.118 27.8714,140.451 29,143.5C 40.7886,148.962 52.9553,154.462 65.5,160C 68.2809,161.717 70.6142,163.884 72.5,166.5C 78.7966,170.653 85.13,174.82 91.5,179C 95.4153,178.902 98.4153,180.402 100.5,183.5C 103.768,184.487 107.102,184.82 110.5,184.5 Z"/></g>
<g><path style="opacity:1" fill="#f00f86" d="M 110.5,184.5 C 107.102,184.82 103.768,184.487 100.5,183.5C 98.4153,180.402 95.4153,178.902 91.5,179C 85.13,174.82 78.7966,170.653 72.5,166.5C 70.6142,163.884 68.2809,161.717 65.5,160C 52.9553,154.462 40.7886,148.962 29,143.5C 27.8714,140.451 26.0381,139.118 23.5,139.5C 22.3263,138.486 21.6596,137.153 21.5,135.5C 21.4142,134.504 21.7476,133.671 22.5,133C 26.1802,132.318 28.6802,133.818 30,137.5C 30.3333,137.167 30.6667,136.833 31,136.5C 31.3076,137.308 31.8076,137.975 32.5,138.5C 37.0845,139.794 41.4178,141.627 45.5,144C 49.96,148.468 54.96,152.135 60.5,155C 65.551,155.216 69.551,157.383 72.5,161.5C 74.7731,162.651 77.1065,163.651 79.5,164.5C 86.1506,168.498 92.484,172.998 98.5,178C 102.476,180.483 106.476,182.65 110.5,184.5 Z"/></g>
<g><path style="opacity:1" fill="#f30b60" d="M 89.5,184.5 C 88.548,183.548 87.548,182.548 86.5,181.5C 69.9355,174.553 54.6022,165.553 40.5,154.5C 39.3279,154.919 38.3279,155.585 37.5,156.5C 35.8443,153.982 34.5109,153.982 33.5,156.5C 32.1103,155.101 31.1103,153.434 30.5,151.5C 30.4614,150.244 30.9614,149.244 32,148.5C 33.3848,149.551 34.3848,150.884 35,152.5C 36.7261,151.424 38.5594,151.257 40.5,152C 43.0618,154.413 46.0618,156.08 49.5,157C 50.7433,158.154 51.7433,159.488 52.5,161C 65.1235,168.478 78.1235,175.145 91.5,181C 95.5992,184.021 94.9325,185.187 89.5,184.5 Z"/></g>
<g><path style="opacity:1" fill="#e41bde" d="M 15.5,109.5 C 18.1873,109.336 20.854,109.503 23.5,110C 36.5658,117.709 49.5658,125.709 62.5,134C 68.6026,135.727 74.1026,138.561 79,142.5C 86.0092,144.576 92.0092,148.243 97,153.5C 97.3333,152.833 97.6667,152.167 98,151.5C 99,153.5 100,155.5 101,157.5C 101.483,156.552 101.649,155.552 101.5,154.5C 103.409,157.83 106.409,159.164 110.5,158.5C 110.5,159.5 110.5,160.5 110.5,161.5C 115.124,161.951 118.957,163.951 122,167.5C 122.333,167.167 122.667,166.833 123,166.5C 124.514,168.766 126.681,169.932 129.5,170C 130.618,171.074 131.618,172.24 132.5,173.5C 138.087,176.462 143.754,179.128 149.5,181.5C 148.392,179.305 148.559,177.305 150,175.5C 150.333,176.167 150.667,176.833 151,177.5C 151.5,176.333 152.333,175.5 153.5,175C 153.272,174.601 152.938,174.435 152.5,174.5C 153.209,173.596 154.209,173.263 155.5,173.5C 153.828,176.022 152.328,178.688 151,181.5C 149.736,183.607 147.903,184.607 145.5,184.5C 144.833,184.5 144.167,184.5 143.5,184.5C 131.795,179.362 121.128,172.862 111.5,165C 105.861,164.521 101.528,162.021 98.5,157.5C 78.5803,148.86 59.5803,138.527 41.5,126.5C 40.2956,123.585 38.2956,121.419 35.5,120C 30.4623,117.835 25.4623,115.669 20.5,113.5C 19.6143,112.675 19.281,111.675 19.5,110.5C 17.901,110.768 16.5676,110.434 15.5,109.5 Z"/></g>
<g><path style="opacity:1" fill="#f20c38" d="M 79.5,184.5 C 76.6146,184.194 73.9479,184.527 71.5,185.5C 65.31,185.823 59.31,185.49 53.5,184.5C 58.5,184.5 63.5,184.5 68.5,184.5C 68.67,183.178 68.3366,182.011 67.5,181C 64.2448,179.701 61.2448,178.035 58.5,176C 57.2161,175.316 56.0495,175.483 55,176.5C 52.7875,172.306 49.2875,169.972 44.5,169.5C 44.1924,168.692 43.6924,168.025 43,167.5C 42.5065,169.134 42.3398,170.801 42.5,172.5C 40.9925,170.819 39.9925,168.819 39.5,166.5C 39.7135,164.856 39.3802,163.356 38.5,162C 39.5,161.333 40.5,161.333 41.5,162C 47.5774,166.75 53.9107,171.084 60.5,175C 63.1667,175.333 65.8333,175.667 68.5,176C 71.3388,177.92 74.3388,179.587 77.5,181C 78.8228,181.816 79.4894,182.983 79.5,184.5 Z"/></g>
<g><path style="opacity:1" fill="#da17e8" d="M 113.5,151.5 C 114.635,152.474 115.635,153.641 116.5,155C 117.744,155.456 118.577,154.956 119,153.5C 130.491,160.241 141.658,167.241 152.5,174.5C 152.938,174.435 153.272,174.601 153.5,175C 152.333,175.5 151.5,176.333 151,177.5C 150.667,176.833 150.333,176.167 150,175.5C 148.559,177.305 148.392,179.305 149.5,181.5C 143.754,179.128 138.087,176.462 132.5,173.5C 131.618,172.24 130.618,171.074 129.5,170C 126.681,169.932 124.514,168.766 123,166.5C 122.667,166.833 122.333,167.167 122,167.5C 118.957,163.951 115.124,161.951 110.5,161.5C 110.5,160.5 110.5,159.5 110.5,158.5C 111.323,156.013 112.323,153.679 113.5,151.5 Z"/></g>
<g><path style="opacity:1" fill="#f70620" d="M 53.5,184.5 C 51.5165,184.617 49.8498,183.95 48.5,182.5C 46.0751,179.411 44.0751,176.078 42.5,172.5C 42.3398,170.801 42.5065,169.134 43,167.5C 43.6924,168.025 44.1924,168.692 44.5,169.5C 49.2875,169.972 52.7875,172.306 55,176.5C 56.0495,175.483 57.2161,175.316 58.5,176C 61.2448,178.035 64.2448,179.701 67.5,181C 68.3366,182.011 68.67,183.178 68.5,184.5C 63.5,184.5 58.5,184.5 53.5,184.5 Z"/></g>
</svg>
