<?xml version="1.0" encoding="UTF-8"?><svg id="Laag_2" xmlns="http://www.w3.org/2000/svg" xmlns:xlink="http://www.w3.org/1999/xlink" viewBox="0 0 500 500"><defs><style>.cls-1{fill:url(#linear-gradient-2);}.cls-2{font-size:23.57px;}.cls-2,.cls-3,.cls-4,.cls-5{font-family:Poppins-ExtraBold, Poppins;isolation:isolate;}.cls-2,.cls-4{fill:#fff;}.cls-3{stroke-miterlimit:10;stroke-width:.75px;}.cls-3,.cls-6,.cls-5{fill:none;stroke:#fff;}.cls-3,.cls-5{font-size:30.3px;}.cls-7{fill:#f9ddaa;}.cls-4{font-size:33.67px;}.cls-8{fill:url(#linear-gradient-6);}.cls-9{fill:url(#linear-gradient-11);}.cls-10{fill:url(#linear-gradient-10);}.cls-6{stroke-linecap:round;stroke-linejoin:round;stroke-width:5px;}.cls-11{fill:#ffbe29;}.cls-12{fill:#ffd892;}.cls-13{fill:url(#linear-gradient-5);}.cls-5{stroke-miterlimit:10;stroke-width:.75px;}.cls-14{fill:#ffca5f;}.cls-15{fill:url(#linear-gradient-7);}.cls-16{fill:url(#linear-gradient-9);}.cls-17{fill:url(#linear-gradient-3);}.cls-18{fill:url(#linear-gradient);}.cls-19{fill:url(#linear-gradient-4);}.cls-20{fill:url(#linear-gradient-8);}.cls-21{fill:url(#linear-gradient-12);}</style><linearGradient id="linear-gradient" x1="-5026.02" y1="3648.77" x2="-4857.62" y2="3648.77" gradientTransform="translate(-4625.72 -3284.57) rotate(-180) scale(1 -1)" gradientUnits="userSpaceOnUse"><stop offset="0" stop-color="#c59700"/><stop offset="1" stop-color="#f0b90b"/></linearGradient><linearGradient id="linear-gradient-2" x1="-2319.24" y1="-2369.77" x2="-2173.29" y2="-2369.77" gradientTransform="translate(228.77 -2899.79) rotate(-45) scale(1 -1)" xlink:href="#linear-gradient"/><linearGradient id="linear-gradient-3" x1="-4742.05" y1="-1458.45" x2="-4710.3" y2="-1426.7" gradientTransform="translate(-1064.75 -4300.25) rotate(-90) scale(1 -1)" gradientUnits="userSpaceOnUse"><stop offset="0" stop-color="#1ea166"/><stop offset="1" stop-color="#4bb485"/></linearGradient><linearGradient id="linear-gradient-4" x1="303.85" y1="-1340.85" x2="329.25" y2="-1315.45" gradientTransform="translate(61.25 -902.25) scale(1 -1)" xlink:href="#linear-gradient-3"/><linearGradient id="linear-gradient-5" x1="-5385.53" y1="3166.24" x2="-5217.18" y2="3166.24" gradientTransform="translate(-4354.81 -3902.43) rotate(-170) scale(1 -1)" xlink:href="#linear-gradient"/><linearGradient id="linear-gradient-6" x1="-1723.54" y1="-2282.46" x2="-1577.65" y2="-2282.46" gradientTransform="translate(359.2 -2680.62) rotate(-35) scale(1 -1)" xlink:href="#linear-gradient"/><linearGradient id="linear-gradient-7" x1="-4259.45" y1="-1818.01" x2="-4227.71" y2="-1786.26" gradientTransform="translate(-671.64 -4284.4) rotate(-80) scale(1 -1)" xlink:href="#linear-gradient-3"/><linearGradient id="linear-gradient-8" x1="663.4" y1="-858.24" x2="688.78" y2="-832.85" gradientTransform="translate(-152.73 -742.56) rotate(10) scale(1 -1)" xlink:href="#linear-gradient-3"/><linearGradient id="linear-gradient-9" x1="-4591.82" y1="4021.01" x2="-4423.47" y2="4021.01" gradientTransform="translate(-5018.58 -2927.47) rotate(170) scale(1 -1)" xlink:href="#linear-gradient"/><linearGradient id="linear-gradient-10" x1="-2889.56" y1="-2325.63" x2="-2743.68" y2="-2325.63" gradientTransform="translate(-171 -3391.51) rotate(-55) scale(1 -1)" xlink:href="#linear-gradient"/><linearGradient id="linear-gradient-11" x1="-5114.25" y1="-1024.22" x2="-5082.51" y2="-992.48" gradientTransform="translate(-1688.05 -4545.97) rotate(-100) scale(1 -1)" xlink:href="#linear-gradient-3"/><linearGradient id="linear-gradient-12" x1="-130.43" y1="-1713.14" x2="-105.05" y2="-1687.75" gradientTransform="translate(10.81 -1395.08) rotate(-10) scale(1 -1)" xlink:href="#linear-gradient-3"/></defs><g id="Laag_2-2"><g><path class="cls-11" d="M190.1,124.9c-71,41-95.3,131.8-54.3,202.8s131.7,95.3,202.7,54.3,95.3-131.8,54.3-202.8-131.7-95.3-202.7-54.3h0Zm143.6,248.7c-66.3,38.3-151.2,15.6-189.5-50.8s-15.6-151.1,50.8-189.4,151.2-15.6,189.5,50.8c38.3,66.4,15.5,151.1-50.8,189.4h0Z"/><path class="cls-11" d="M171.9,135.4c-71,41-95.3,131.8-54.3,202.8s131.8,95.3,202.8,54.3,95.3-131.8,54.3-202.8-131.8-95.2-202.8-54.3h0Zm143.5,248.7c-66.3,38.3-151.2,15.6-189.5-50.8s-15.6-151.2,50.8-189.5c66.4-38.3,151.2-15.6,189.5,50.8s15.6,151.2-50.8,189.5h0Z"/><path class="cls-11" d="M162.8,387.3c71,41,161.8,16.7,202.8-54.3s16.7-161.8-54.3-202.8-161.8-16.7-202.8,54.3c-41.1,71-16.8,161.8,54.3,202.8h0Zm143.5-248.7c66.3,38.3,89.1,123.1,50.8,189.5s-123.1,89.1-189.5,50.8-89.1-123.1-50.8-189.5c38.3-66.4,123.2-89.1,189.5-50.8h0Z"/><path class="cls-11" d="M199.2,387.3c71,41,161.8,16.7,202.8-54.3s16.7-161.8-54.3-202.8-161.8-16.7-202.8,54.3-16.7,161.8,54.3,202.8h0Zm143.6-248.7c66.3,38.3,89.1,123.1,50.8,189.5s-123.1,89.1-189.5,50.8-89.1-123.2-50.8-189.5,123.2-89.1,189.5-50.8h0Z"/><path class="cls-11" d="M393.1,251c0-82-66.5-148.4-148.4-148.4S96.2,169.1,96.2,251s66.5,148.4,148.5,148.4,148.4-66.4,148.4-148.4h0Zm-287.1,0c0-76.6,62.1-138.7,138.7-138.7s138.7,62.1,138.7,138.7-62.1,138.7-138.7,138.7-138.7-62.1-138.7-138.7h0Z"/><path class="cls-11" d="M403.7,248.2c0-82-66.5-148.4-148.4-148.4S106.9,166.3,106.9,248.2s66.5,148.4,148.4,148.4,148.4-66.4,148.4-148.4Zm-287.2,0c0-76.6,62.1-138.7,138.7-138.7s138.7,62.1,138.7,138.7-62.1,138.7-138.7,138.7-138.7-62.1-138.7-138.7Z"/><path class="cls-11" d="M190.1,124.9c-71,41-95.3,131.8-54.3,202.8s131.7,95.3,202.7,54.3,95.3-131.8,54.3-202.8-131.7-95.3-202.7-54.3h0Zm143.6,248.7c-66.3,38.3-151.2,15.6-189.5-50.8s-15.6-151.1,50.8-189.4,151.2-15.6,189.5,50.8c38.3,66.4,15.5,151.1-50.8,189.4h0Z"/><path class="cls-11" d="M171.9,135.4c-71,41-95.3,131.8-54.3,202.8s131.8,95.3,202.8,54.3,95.3-131.8,54.3-202.8-131.8-95.2-202.8-54.3h0Zm143.5,248.7c-66.3,38.3-151.2,15.6-189.5-50.8s-15.6-151.2,50.8-189.5c66.4-38.3,151.2-15.6,189.5,50.8s15.6,151.2-50.8,189.5h0Z"/><path class="cls-14" d="M162.8,387.3c71,41,161.8,16.7,202.8-54.3s16.7-161.8-54.3-202.8-161.8-16.7-202.8,54.3c-41.1,71-16.8,161.8,54.3,202.8h0Zm143.5-248.7c66.3,38.3,89.1,123.1,50.8,189.5s-123.1,89.1-189.5,50.8-89.1-123.1-50.8-189.5c38.3-66.4,123.2-89.1,189.5-50.8h0Z"/><path class="cls-12" d="M199.2,387.3c71,41,161.8,16.7,202.8-54.3s16.7-161.8-54.3-202.8-161.8-16.7-202.8,54.3-16.7,161.8,54.3,202.8h0Zm143.6-248.7c66.3,38.3,89.1,123.1,50.8,189.5s-123.1,89.1-189.5,50.8-89.1-123.2-50.8-189.5,123.2-89.1,189.5-50.8h0Z"/><path class="cls-11" d="M393.1,251c0-82-66.5-148.4-148.4-148.4S96.2,169.1,96.2,251s66.5,148.4,148.5,148.4,148.4-66.4,148.4-148.4h0Zm-287.1,0c0-76.6,62.1-138.7,138.7-138.7s138.7,62.1,138.7,138.7-62.1,138.7-138.7,138.7-138.7-62.1-138.7-138.7h0Z"/><path class="cls-7" d="M403.7,248.2c0-82-66.5-148.4-148.4-148.4S106.9,166.3,106.9,248.2s66.5,148.4,148.4,148.4,148.4-66.4,148.4-148.4Zm-287.2,0c0-76.6,62.1-138.7,138.7-138.7s138.7,62.1,138.7,138.7-62.1,138.7-138.7,138.7-138.7-62.1-138.7-138.7Z"/><g><path class="cls-18" d="M316.1,448.4c-46.5,0-84.2-37.7-84.2-84.2s37.7-84.2,84.2-84.2,84.2,37.7,84.2,84.2-37.7,84.2-84.2,84.2"/><path class="cls-1" d="M264.5,312.6c28.5-28.5,74.7-28.5,103.2,0s28.5,74.7,0,103.2-74.7,28.5-103.2,0-28.5-74.7,0-103.2"/><path class="cls-17" d="M361.9,441.8c-8.8-8.8-8.8-23,0-31.8s23-8.8,31.8,0,8.8,23,0,31.8-23,8.7-31.8,0"/><path class="cls-19" d="M365.1,413.2c-7,7-7,18.4,0,25.4s18.4,7,25.4,0,7-18.4,0-25.4-18.4-7-25.4,0"/><polyline class="cls-6" points="369 427.5 375.5 434 386.6 419.6"/><text class="cls-4" transform="translate(256.09 363.16)"><tspan x="0" y="0">BONUS</tspan></text><text class="cls-3" transform="translate(255.74 390.1)"><tspan x="0" y="0">ROUTER</tspan></text></g><g><path class="cls-13" d="M301.7,218.9c-45.8-8.1-76.4-51.7-68.3-97.5,8.1-45.8,51.7-76.4,97.5-68.3s76.4,51.7,68.3,97.5-51.8,76.4-97.5,68.3"/><path class="cls-8" d="M274.4,76.2c33-23.1,78.5-15.1,101.6,17.9s15.1,78.5-17.9,101.6-78.5,15.1-101.6-17.9-15.1-78.4,17.9-101.6"/><path class="cls-15" d="M348,220.4c-7.1-10.2-4.6-24.1,5.5-31.3,10.2-7.1,24.1-4.6,31.3,5.5,7.1,10.2,4.6,24.1-5.5,31.3-10.2,7.1-24.2,4.6-31.3-5.5"/><path class="cls-20" d="M356,192.8c-8.1,5.7-10.1,16.9-4.4,25s16.9,10.1,25,4.4c8.1-5.7,10.1-16.9,4.4-25s-16.8-10.1-25-4.4"/><polyline class="cls-6" points="357.4 207.6 362.6 215.1 376.1 202.9"/><text class="cls-2" transform="translate(258.65 121.06) rotate(10)"><tspan x="0" y="0">APESWAP</tspan></text><text class="cls-5" transform="translate(253.02 147.42) rotate(10)"><tspan x="0" y="0">ROUTER</tspan></text></g><g><path class="cls-16" d="M133.2,332.8c-45.8,8.1-89.4-22.5-97.5-68.3s22.5-89.4,68.3-97.5c45.8-8.1,89.4,22.5,97.5,68.3,8,45.8-22.5,89.4-68.3,97.5"/><path class="cls-10" d="M58.8,208c23.1-33,68.6-41,101.6-17.9s41,68.6,17.9,101.6-68.6,41-101.6,17.9-41-68.6-17.9-101.6"/><path class="cls-9" d="M177.2,318.3c-10.2-7.1-12.6-21.1-5.5-31.3,7.1-10.2,21.1-12.6,31.3-5.5s12.6,21.1,5.5,31.3c-7.2,10.2-21.2,12.6-31.3,5.5"/><path class="cls-21" d="M175.4,289.6c-5.7,8.1-3.7,19.3,4.4,25,8.1,5.7,19.3,3.7,25-4.4s3.7-19.3-4.4-25c-8.2-5.7-19.4-3.7-25,4.4"/><polyline class="cls-6" points="181.7 303.1 189.2 308.3 197.6 292.2"/><text class="cls-4" transform="translate(59.02 259.36) rotate(-10)"><tspan x="0" y="0">SMART</tspan></text><text class="cls-5" transform="translate(63.69 285.89) rotate(-10)"><tspan x="0" y="0">ROUTER</tspan></text></g></g></g></svg>