<?xml version="1.0" encoding="UTF-8"?><svg xmlns="http://www.w3.org/2000/svg" xmlns:xlink="http://www.w3.org/1999/xlink" viewBox="0 0 500 500"><defs><style>.cls-1{fill:url(#_езымянный_градиент_36-14);}.cls-2{fill:#ffb300;}.cls-3{fill:#ffd770;}.cls-4{fill:#c92424;}.cls-5{fill:url(#_езымянный_градиент_36-15);}.cls-6{fill:#fff;}.cls-7{fill:#ac752c;}.cls-8{fill:url(#_езымянный_градиент_36-9);}.cls-9{fill:#935544;}.cls-10{fill:url(#_езымянный_градиент_36-20);}.cls-11{fill:url(#_езымянный_градиент_36-2);}.cls-12{fill:#faf4e6;}.cls-13{fill:url(#Naamloos_verloop_79-2);}.cls-14{fill:url(#_езымянный_градиент_36-17);}.cls-15{fill:url(#_езымянный_градиент_36-5);}.cls-16{fill:url(#_езымянный_градиент_36-19);}.cls-17{fill:url(#Naamloos_verloop_11);opacity:.15;}.cls-17,.cls-18{mix-blend-mode:multiply;}.cls-19{fill:#e6646e;}.cls-20{fill:url(#_езымянный_градиент_36-23);}.cls-21{fill:#e8d995;}.cls-22{fill:url(#_езымянный_градиент_36-10);}.cls-23{fill:url(#_езымянный_градиент_36-4);}.cls-18{opacity:.2;}.cls-24,.cls-25,.cls-26{isolation:isolate;}.cls-27{opacity:.33;}.cls-28{fill:url(#_езымянный_градиент_36-21);}.cls-29{fill:url(#_езымянный_градиент_36-22);}.cls-30{fill:url(#Naamloos_verloop_74-4);}.cls-31{fill:#fdfbf5;}.cls-32{fill:url(#_езымянный_градиент_36-6);}.cls-33{fill:url(#_езымянный_градиент_36-11);}.cls-34{fill:#a0a7aa;}.cls-35{fill:#171819;}.cls-36{fill:#04325b;}.cls-37{fill:url(#_езымянный_градиент_36-12);}.cls-38{fill:#b21f1f;}.cls-39{fill:url(#Naamloos_verloop_56);}.cls-25,.cls-26{opacity:.35;}.cls-25,.cls-40{fill:#4e3f3f;}.cls-41{fill:url(#_езымянный_градиент_36-26);}.cls-42{fill:#05325b;}.cls-43{fill:url(#_езымянный_градиент_36-18);}.cls-44{fill:url(#Naamloos_verloop_74-2);}.cls-45{fill:#ad5545;}.cls-46{fill:url(#Naamloos_verloop_80);}.cls-47,.cls-48{fill:#161616;}.cls-47,.cls-49{opacity:.25;}.cls-50{fill:#5d5360;}.cls-51{fill:#cd776b;}.cls-52{fill:#ffd54f;}.cls-53{fill:url(#_езымянный_градиент_36-24);}.cls-54{fill:#a3644f;}.cls-55{fill:url(#_езымянный_градиент_36-7);}.cls-56{fill:url(#Naamloos_verloop_11-2);}.cls-57{fill:#7d551f;}.cls-58{fill:url(#Naamloos_verloop_11-3);}.cls-59{fill:url(#_езымянный_градиент_36);}.cls-60{fill:url(#Naamloos_verloop_79);}.cls-61{fill:url(#_езымянный_градиент_36-25);}.cls-62{fill:url(#Naamloos_verloop_70);}.cls-63{fill:#a16552;}.cls-64{opacity:.14;}.cls-65{fill:#cd897a;}.cls-66{fill:url(#_езымянный_градиент_36-16);}.cls-67{fill:url(#Naamloos_verloop_74);}.cls-68{fill:#2d2d2d;}.cls-69{fill:#ccc;}.cls-70{fill:#032c59;}.cls-71{fill:#f5dcb4;}.cls-72{fill:#23201e;}.cls-73{fill:url(#_езымянный_градиент_36-13);}.cls-74{fill:#cecece;}.cls-75{fill:url(#_езымянный_градиент_36-3);}.cls-76{fill:#212121;opacity:.1;}.cls-77{fill:url(#Naamloos_verloop_56-2);}.cls-78{fill:#ffca28;}.cls-79{fill:#ffea8c;}.cls-80{fill:url(#Naamloos_verloop_74-3);}.cls-81{fill:url(#_езымянный_градиент_36-8);}</style><linearGradient id="_езымянный_градиент_36" x1="341.71" y1="380.85" x2="336.35" y2="518.86" gradientTransform="translate(489.11) rotate(-180) scale(1 -1)" gradientUnits="userSpaceOnUse"><stop offset="0" stop-color="#f6d3ca"/><stop offset="1" stop-color="#cc826e"/></linearGradient><linearGradient id="_езымянный_градиент_36-2" x1="354.26" y1="381.34" x2="348.9" y2="519.34" xlink:href="#_езымянный_градиент_36"/><linearGradient id="_езымянный_градиент_36-3" x1="144.78" y1="373.21" x2="139.42" y2="511.21" xlink:href="#_езымянный_градиент_36"/><linearGradient id="_езымянный_градиент_36-4" x1="136.78" y1="372.89" x2="131.42" y2="510.9" xlink:href="#_езымянный_градиент_36"/><linearGradient id="_езымянный_градиент_36-5" x1="274.57" y1="378.25" x2="269.21" y2="516.25" xlink:href="#_езымянный_градиент_36"/><linearGradient id="_езымянный_градиент_36-6" x1="166.32" y1="374.04" x2="160.96" y2="512.04" xlink:href="#_езымянный_градиент_36"/><linearGradient id="_езымянный_градиент_36-7" x1="320.82" y1="380.04" x2="315.47" y2="518.05" xlink:href="#_езымянный_градиент_36"/><linearGradient id="_езымянный_градиент_36-8" x1="180.49" y1="374.59" x2="175.13" y2="512.6" xlink:href="#_езымянный_градиент_36"/><linearGradient id="_езымянный_градиент_36-9" x1="277.82" y1="378.37" x2="272.46" y2="516.38" xlink:href="#_езымянный_градиент_36"/><linearGradient id="_езымянный_градиент_36-10" x1="224.51" y1="376.3" x2="219.15" y2="514.31" xlink:href="#_езымянный_градиент_36"/><linearGradient id="_езымянный_градиент_36-11" x1="289.45" y1="378.82" x2="284.09" y2="516.83" xlink:href="#_езымянный_градиент_36"/><linearGradient id="_езымянный_градиент_36-12" x1="158.44" y1="373.74" x2="153.08" y2="511.74" xlink:href="#_езымянный_градиент_36"/><linearGradient id="_езымянный_градиент_36-13" x1="311.92" y1="379.7" x2="306.56" y2="517.7" xlink:href="#_езымянный_градиент_36"/><linearGradient id="_езымянный_градиент_36-14" x1="205.13" y1="375.55" x2="199.77" y2="513.55" xlink:href="#_езымянный_градиент_36"/><linearGradient id="_езымянный_градиент_36-15" x1="321.56" y1="380.07" x2="316.2" y2="518.07" xlink:href="#_езымянный_градиент_36"/><linearGradient id="_езымянный_градиент_36-16" x1="327.74" y1="380.31" x2="322.38" y2="518.31" xlink:href="#_езымянный_градиент_36"/><linearGradient id="_езымянный_градиент_36-17" x1="221.78" y1="376.2" x2="216.42" y2="514.2" xlink:href="#_езымянный_градиент_36"/><linearGradient id="_езымянный_градиент_36-18" x1="170.59" y1="374.21" x2="165.23" y2="512.21" xlink:href="#_езымянный_градиент_36"/><linearGradient id="_езымянный_градиент_36-19" x1="236.4" y1="376.76" x2="231.04" y2="514.77" xlink:href="#_езымянный_градиент_36"/><linearGradient id="_езымянный_градиент_36-20" x1="169.03" y1="374.15" x2="163.67" y2="512.15" xlink:href="#_езымянный_градиент_36"/><linearGradient id="_езымянный_градиент_36-21" x1="196.32" y1="375.21" x2="190.96" y2="513.21" xlink:href="#_езымянный_градиент_36"/><linearGradient id="_езымянный_градиент_36-22" x1="251.66" y1="377.36" x2="246.3" y2="515.36" xlink:href="#_езымянный_градиент_36"/><linearGradient id="_езымянный_градиент_36-23" x1="328.82" y1="380.35" x2="323.46" y2="518.36" xlink:href="#_езымянный_градиент_36"/><linearGradient id="_езымянный_градиент_36-24" x1="283.06" y1="378.58" x2="277.7" y2="516.58" xlink:href="#_езымянный_градиент_36"/><linearGradient id="_езымянный_градиент_36-25" x1="244.08" y1="377.06" x2="238.73" y2="515.07" xlink:href="#_езымянный_градиент_36"/><linearGradient id="_езымянный_градиент_36-26" x1="266.28" y1="377.92" x2="260.93" y2="515.93" xlink:href="#_езымянный_градиент_36"/><linearGradient id="Naamloos_verloop_74" x1="215.16" y1="88" x2="226.77" y2="106.58" gradientTransform="matrix(1, 0, 0, 1, 0, 0)" gradientUnits="userSpaceOnUse"><stop offset="0" stop-color="#012a4a"/><stop offset=".41" stop-color="#012a4a"/><stop offset=".45" stop-color="#012d4e"/><stop offset=".6" stop-color="#01365d"/><stop offset=".73" stop-color="#013a63"/><stop offset="1" stop-color="#013a63"/></linearGradient><linearGradient id="Naamloos_verloop_70" x1="245.59" y1="78.87" x2="242.14" y2="140.76" gradientTransform="translate(-5.7 8.92) rotate(-2.17)" gradientUnits="userSpaceOnUse"><stop offset="0" stop-color="#e6e6e6"/><stop offset=".31" stop-color="#ddd"/><stop offset=".32" stop-color="#ddd"/><stop offset=".54" stop-color="#ececec"/><stop offset=".73" stop-color="#f2f2f2"/><stop offset=".88" stop-color="#f9f9f9"/><stop offset="1" stop-color="#fff"/></linearGradient><linearGradient id="Naamloos_verloop_56" x1="223.13" y1="96.11" x2="239.86" y2="96.11" gradientTransform="translate(-5.7 8.92) rotate(-2.17)" gradientUnits="userSpaceOnUse"><stop offset="0" stop-color="#e6e6e6"/><stop offset=".41" stop-color="#e6e6e6"/><stop offset=".54" stop-color="#ececec"/><stop offset=".73" stop-color="#f2f2f2"/><stop offset="1" stop-color="#fff"/></linearGradient><linearGradient id="Naamloos_verloop_56-2" x1="239.86" y1="95.44" x2="264.54" y2="95.44" xlink:href="#Naamloos_verloop_56"/><linearGradient id="Naamloos_verloop_74-2" x1="241.41" y1="238.57" x2="311.55" y2="110.1" gradientTransform="translate(-5.7 8.92) rotate(-2.17)" xlink:href="#Naamloos_verloop_74"/><linearGradient id="Naamloos_verloop_79" x1="231.79" y1="219.43" x2="237.94" y2="209.9" gradientTransform="translate(-5.7 8.92) rotate(-2.17)" gradientUnits="userSpaceOnUse"><stop offset="0" stop-color="#0a061d"/><stop offset=".72" stop-color="#12223e"/><stop offset=".79" stop-color="#0e1631"/><stop offset=".91" stop-color="#0b0a22"/><stop offset="1" stop-color="#0a061d"/></linearGradient><linearGradient id="Naamloos_verloop_79-2" x1="232.44" y1="169.42" x2="237.41" y2="160.88" xlink:href="#Naamloos_verloop_79"/><linearGradient id="Naamloos_verloop_80" x1="233.57" y1="195.91" x2="234.06" y2="185.02" gradientTransform="translate(-5.7 8.92) rotate(-2.17)" gradientUnits="userSpaceOnUse"><stop offset="0" stop-color="#0a061d"/><stop offset=".72" stop-color="#12223e"/><stop offset=".74" stop-color="#111f3a"/><stop offset=".9" stop-color="#0b0c24"/><stop offset="1" stop-color="#0a061d"/></linearGradient><linearGradient id="Naamloos_verloop_11" x1="307.39" y1="130.1" x2="307.57" y2="130.1" gradientTransform="translate(-5.7 8.92) rotate(-2.17)" gradientUnits="userSpaceOnUse"><stop offset="0" stop-color="#4e3f3f"/><stop offset=".44" stop-color="#4e3f3f" stop-opacity=".7"/><stop offset=".74" stop-color="#4e3f3f" stop-opacity=".2"/><stop offset=".91" stop-color="#4e3f3f" stop-opacity="0"/></linearGradient><linearGradient id="Naamloos_verloop_74-3" x1="232.52" y1="150.49" x2="194.85" y2="70.62" gradientTransform="translate(-5.7 8.92) rotate(-2.17)" xlink:href="#Naamloos_verloop_74"/><linearGradient id="Naamloos_verloop_11-2" x1="233" y1="150.26" x2="220.13" y2="122.99" xlink:href="#Naamloos_verloop_11"/><linearGradient id="Naamloos_verloop_74-4" x1="230.46" y1="151.46" x2="192.78" y2="71.6" gradientTransform="translate(-5.7 8.92) rotate(-2.17)" xlink:href="#Naamloos_verloop_74"/><linearGradient id="Naamloos_verloop_11-3" x1="230.46" y1="151.46" x2="192.78" y2="71.6" xlink:href="#Naamloos_verloop_11"/></defs><g class="cls-24"><g id="Laag_1"><ellipse class="cls-34" cx="244.55" cy="449.75" rx="113.77" ry="42.93"/><ellipse class="cls-54" cx="244.55" cy="451.75" rx="116.77" ry="45.93"/><g><path class="cls-59" d="M158.63,469.14h-15.6c2.07,1.54,4.39,3.03,6.92,4.46l3.86-1.98,4.82-2.48Z"/><path class="cls-11" d="M132.02,456.09c.61,1.56,1.45,3.1,2.5,4.6l8.96-4.6h-11.46Z"/><path class="cls-75" d="M337.61,441.8h18.76c-1.2-2.41-2.92-4.75-5.14-7l-2.1,1.08-11.51,5.92Z"/><path class="cls-23" d="M357.52,454.86c.29-.92,.5-1.84,.64-2.77l-5.39,2.77h4.76Z"/><polygon class="cls-15" points="219.74 416.91 181.28 416.91 171.94 421.71 181.21 416.94 260.25 416.94 260.32 416.91 222.49 416.91 219.74 416.91"/><polygon class="cls-32" points="332.47 443.03 294.01 443.03 294.01 443.03 356.93 443.03 356.93 443.03 335.22 443.03 332.47 443.03"/><path class="cls-55" d="M170.08,482.21c.88,.29,1.78,.57,2.68,.85l1.65-.85h-4.33Z"/><path class="cls-81" d="M313.75,415.68c-1.51-.44-3.05-.86-4.61-1.27l-2.47,1.27h7.08Z"/><path class="cls-8" d="M256.2,482.2h-79.04l-2.67,1.37c17.22,5.08,38.42,8.34,61.55,8.98l7.1-3.65,13.06-6.71Z"/><path class="cls-22" d="M262.71,415.68h41.21l3.38-1.74c-17.99-4.5-39.56-7.12-62.75-7.12-.82,0-1.64,0-2.46,.01l-17.21,8.84h37.83Z"/><path class="cls-33" d="M179.55,480.98h37.83l23.03-11.83h-.23l-22.96,11.79h-50.86s.08,.03,.12,.04h13.06Z"/><path class="cls-37" d="M321.82,428.74h21.95c-3.08-2.07-6.61-4.03-10.53-5.87l-2.17,1.11-9.25,4.75Z"/><path class="cls-73" d="M163.76,467.92h38.47l23.03-11.83h-79.04l-10.96,5.63c1.64,2.14,3.72,4.21,6.19,6.2h22.31Z"/><path class="cls-1" d="M304.28,416.91h-41.21l-4.26,2.19-18.78,9.65h79.04l12.72-6.54c-4.25-1.91-8.94-3.69-14-5.3h-13.52Z"/><path class="cls-5" d="M209.47,443.03h-77.3c-.91,2.19-1.39,4.44-1.39,6.73,0,1.73,.28,3.43,.8,5.11h54.85l23.03-11.83Z"/><path class="cls-66" d="M171.29,441.8l23.03-11.83h-50.75c-5.06,3.67-8.75,7.64-10.83,11.83h38.55Z"/><polygon class="cls-14" points="284.37 469.14 281.63 469.14 243.17 469.14 220.13 480.98 258.59 480.98 261.34 480.98 299.17 480.98 311.99 474.39 322.2 469.14 284.37 469.14"/><path class="cls-43" d="M347.63,456.08h-37.83l-11.52,5.92-11.52,5.92h60.89c4.57-3.69,7.8-7.66,9.43-11.83h-9.47Z"/><polygon class="cls-16" points="268.59 456.08 265.84 456.08 228.01 456.08 220.58 459.9 204.98 467.92 242.81 467.92 245.55 467.92 284.01 467.92 287.99 465.88 307.05 456.08 268.59 456.08"/><path class="cls-10" d="M317.1,473.18l-15.19,7.8h20.7c9.52-3.39,17.48-7.39,23.46-11.83h-21.13l-7.85,4.03Z"/><polygon class="cls-28" points="293.65 441.8 296.4 441.8 334.86 441.8 334.91 441.77 256.2 441.77 279.18 429.97 278.86 429.97 263.04 438.09 255.83 441.8 293.65 441.8"/><polygon class="cls-29" points="291.26 443.03 253.44 443.03 253.43 443.03 250.69 443.03 212.22 443.03 189.19 454.86 227.65 454.86 268.23 454.86 291.26 443.03"/><path class="cls-20" d="M178.53,416.91h-7.22c-10.43,3.31-19.25,7.32-25.98,11.83h10.17l23.03-11.83Z"/><path class="cls-53" d="M183.67,415.68h38.46l17.14-8.81c-24,.41-46.05,3.63-63.92,8.81h8.31Z"/><path class="cls-61" d="M258.95,482.2l-14.9,7.65-5.38,2.76c.32,0,.64,0,.96,.01l20.31-10.43h-.99Z"/><polygon class="cls-41" points="253.07 441.8 276.11 429.97 237.64 429.97 234.9 429.97 197.07 429.97 174.04 441.8 211.86 441.8 214.61 441.8 253.07 441.8"/><polygon class="cls-45" points="303.92 415.68 307.3 413.94 307.3 413.94 303.92 415.68 303.92 415.68"/><path class="cls-45" d="M239.27,406.88l-17.14,8.81h2.75l17.21-8.84c-.94,0-1.88,.02-2.82,.04Z"/><path class="cls-45" d="M306.67,415.68l2.47-1.27c-.61-.16-1.22-.31-1.84-.47l-3.38,1.74h2.75Z"/><path class="cls-45" d="M180.92,415.68h-5.57c-1.37,.4-2.72,.81-4.04,1.23h7.22l-23.03,11.83h0l25.42-13.06Z"/><polygon class="cls-45" points="181.28 416.91 181.28 416.91 158.25 428.74 158.25 428.74 171.94 421.71 181.28 416.91"/><polygon class="cls-45" points="240.03 428.74 240.04 428.74 258.81 419.09 240.03 428.74"/><polygon class="cls-45" points="237.29 428.74 255.59 419.34 237.28 428.74 237.29 428.74"/><polygon class="cls-45" points="180.92 415.68 155.5 428.74 158.24 428.74 158.25 428.74 158.25 428.74 181.28 416.91 181.28 416.91 219.74 416.91 222.49 416.91 260.32 416.91 262.71 415.68 224.88 415.68 222.13 415.68 222.13 415.68 183.67 415.68 180.92 415.68"/><polygon class="cls-45" points="331.08 423.99 321.82 428.74 321.82 428.74 331.08 423.99"/><polygon class="cls-45" points="319.08 428.74 331.8 422.2 331.8 422.2 319.07 428.74 319.08 428.74"/><path class="cls-45" d="M303.92,415.68h-41.21l-2.39,1.23-.07,.04h0l-4.66,2.4-18.3,9.4h2.75l18.78-9.65,4.26-2.19h54.73c-1.32-.42-2.67-.83-4.04-1.23h-9.83Z"/><path class="cls-45" d="M321.82,428.74l9.25-4.75,2.17-1.11c-.48-.22-.96-.45-1.45-.67l-12.72,6.53h2.75Z"/><rect class="cls-45" x="172.61" y="435.88" width="25.89" height="0" transform="translate(-178.66 132.94) rotate(-27.19)"/><path class="cls-45" d="M155.86,429.97h38.46l-23.03,11.83h0l25.35-13.02h-38.47l.06-.03h-12.91c-.6,.4-1.19,.81-1.76,1.23h12.29Z"/><polygon class="cls-45" points="263.04 438.09 255.83 441.8 255.83 441.8 263.04 438.09"/><polygon class="cls-45" points="237.22 428.77 196.64 428.77 171.29 441.8 174.03 441.8 197.07 429.97 197.07 429.97 234.9 429.97 237.64 429.97 276.11 429.97 253.07 441.8 253.08 441.8 278.5 428.74 237.29 428.74 237.28 428.74 237.22 428.77"/><polygon class="cls-45" points="349.13 435.88 337.61 441.8 337.61 441.8 349.13 435.88"/><rect class="cls-45" x="334.86" y="441.79" width=".06" height="0" transform="translate(-164.83 201.77) rotate(-27.18)"/><path class="cls-45" d="M321.82,428.74h-43.33l-25.42,13.06h2.75l7.21-3.7,15.82-8.13h.32l.05-.03h66.27c-.56-.4-1.14-.81-1.73-1.2h-21.95Z"/><path class="cls-45" d="M334.91,441.77l-.05,.03h2.75l11.52-5.92,2.1-1.08c-.27-.27-.54-.55-.83-.82l-15.16,7.79h-.33Z"/><polygon class="cls-45" points="148.61 454.86 186.44 454.86 186.44 454.86 131.59 454.86 131.59 454.86 145.86 454.86 148.61 454.86"/><path class="cls-45" d="M171.65,443.03h37.82l2.39-1.23h-79.12c-.2,.41-.39,.82-.56,1.23h39.47Z"/><polygon class="cls-45" points="214.61 441.8 211.86 441.8 209.47 443.03 186.44 454.86 186.44 454.86 227.65 454.86 227.65 454.86 189.19 454.86 212.22 443.03 250.69 443.03 253.43 443.03 253.44 443.03 291.26 443.03 268.23 454.86 268.23 454.86 293.65 441.8 255.83 441.8 255.83 441.8 253.08 441.8 253.07 441.8 214.61 441.8"/><path class="cls-45" d="M337.61,441.8h-43.96l-25.42,13.06h2.75l23.03-11.83h62.93c-.17-.41-.36-.82-.56-1.23h-18.76Z"/><path class="cls-45" d="M350.02,454.86h2.75l5.39-2.77c.07-.49,.11-.99,.14-1.48l-8.28,4.25Z"/><polygon class="cls-45" points="146.22 456.09 135.26 461.72 135.26 461.72 146.22 456.09 146.22 456.09"/><path class="cls-45" d="M145.86,454.86h-14.28c.13,.41,.27,.82,.43,1.23h11.46l-8.96,4.6h0l11.35-5.83Z"/><polygon class="cls-45" points="228.01 456.08 220.58 459.9 228.01 456.08 228.01 456.08"/><path class="cls-45" d="M146.22,456.09h79.04l-23.03,11.83h0l25.42-13.06h-81.79l-11.35,5.83c.24,.34,.49,.69,.75,1.03l10.96-5.63h0Z"/><polygon class="cls-45" points="309.8 456.08 298.28 462 309.8 456.08 309.8 456.08"/><polygon class="cls-45" points="227.65 454.86 227.65 454.86 202.23 467.92 204.98 467.92 220.58 459.9 228.01 456.08 228.01 456.08 265.84 456.08 268.59 456.08 307.05 456.08 287.99 465.88 309.44 454.86 270.97 454.86 270.98 454.86 268.23 454.86 268.23 454.86 227.65 454.86"/><path class="cls-45" d="M350.02,454.86h-40.58l-21.45,11.02-3.97,2.04h2.75l11.52-5.92,11.52-5.92h47.29c.16-.41,.3-.82,.43-1.23h-7.51Z"/><path class="cls-45" d="M153.81,471.62l7.21-3.7h-19.57c.51,.41,1.04,.82,1.58,1.23h15.6l-4.82,2.48Z"/><path class="cls-45" d="M161.22,469.11h79.04l-.08,.04h.23l-23.03,11.83h0l25.42-13.06h-81.79l-7.21,3.7-3.86,1.98c.4,.22,.81,.45,1.22,.67l10.06-5.17Z"/><polygon class="cls-45" points="324.95 469.14 317.1 473.18 324.95 469.14 324.95 469.14"/><polygon class="cls-45" points="242.81 467.92 217.38 480.98 220.13 480.98 243.17 469.14 281.63 469.14 284.37 469.14 322.2 469.14 311.99 474.39 324.59 467.92 286.76 467.92 284.02 467.92 284.01 467.92 245.55 467.92 242.81 467.92"/><path class="cls-45" d="M324.59,467.92l-12.6,6.47-12.82,6.59h2.75l15.19-7.8,7.85-4.03h21.13c.54-.41,1.07-.81,1.58-1.23h-23.07Z"/><path class="cls-45" d="M176.81,480.98h-10.32c1.18,.42,2.37,.83,3.59,1.23h4.33l-1.65,.85h0l4.04-2.08Z"/><polygon class="cls-45" points="258.95 482.2 244.05 489.86 258.95 482.2 258.95 482.2"/><path class="cls-45" d="M215,482.2h41.21l-13.06,6.71,15.45-7.93h-81.78l-4.04,2.08c.57,.18,1.15,.35,1.73,.52l2.67-1.37h37.83Z"/><path class="cls-45" d="M299.17,480.98h-40.58l-15.45,7.93-7.1,3.65c.87,.02,1.75,.05,2.63,.06l5.38-2.76,14.9-7.65h60.09c1.21-.4,2.4-.81,3.57-1.23h-23.45Z"/><path class="cls-51" d="M259.95,482.2h-.01l-20.31,10.44c1.63,.03,3.27,.04,4.92,.04,28.49,0,54.54-3.95,74.49-10.48h-59.09Z"/><polygon class="cls-65" points="171.94 421.71 158.25 428.74 158.24 428.74 158.18 428.77 196.64 428.77 237.22 428.77 237.28 428.74 255.59 419.34 260.25 416.94 260.25 416.94 181.21 416.94 171.94 421.71"/><path class="cls-65" d="M240.19,469.14l.08-.04h-79.04l-10.06,5.17c4.46,2.41,9.56,4.65,15.21,6.66h50.86l22.96-11.79Z"/><path class="cls-65" d="M294.01,443.03l-23.03,11.83h79.04l8.28-4.25c.01-.28,.03-.57,.03-.85,0-2.29-.48-4.53-1.39-6.72h-62.93Z"/><path class="cls-65" d="M279.23,429.94l-.05,.03-22.98,11.81h79.04l15.16-7.79c-1.45-1.38-3.09-2.73-4.9-4.04h-66.27Z"/></g><ellipse class="cls-76" cx="243.62" cy="439.4" rx="23.72" ry="71.88" transform="translate(-214.7 645.23) rotate(-85.18)"/><g><path class="cls-67" d="M218.31,95.08s2.19-.61,3.48-.59c.82,.9-1,3.27-1,3.27l-2.48-.56v-2.12Z"/><g><path class="cls-63" d="M336.76,140c-.06-2.61-.54-5.35-1.44-8.21-.81-2.57-3.55-4-6.12-3.19-2.57,.81-4,3.55-3.19,6.12,2.1,6.68,.98,11.39-3.75,15.75-4.74,4.37-12.37,7.61-19.75,10.75-10.93,4.65-21.25,9.03-24.71,17.68-1.71,4.26-1.47,9,.72,14.09,3.31,7.7,4.9,15.63,4.59,22.93-.3,7-2.33,12.78-5.86,16.71-6.88,7.66-17.83,6.33-25.8,3.87-2.58-.79-5.31,.65-6.11,3.23-.8,2.58,.65,5.31,3.23,6.11,7.7,2.37,14.74,2.96,20.92,1.74,6.02-1.19,11.08-4.02,15.03-8.42,5.06-5.64,7.95-13.53,8.35-22.82,.38-8.76-1.48-18.17-5.37-27.21-1.14-2.65-1.34-4.8-.63-6.59,1.96-4.88,10.86-8.67,19.47-12.33,8.14-3.46,16.56-7.04,22.55-12.56,5.41-4.98,8.05-10.9,7.89-17.65Z"/><g class="cls-26"><path class="cls-40" d="M246.04,244.01c6.66,1.72,13.88,2.57,19.33,1.5,6.02-1.19,11.08-4.02,15.03-8.42,5.06-5.64,7.95-13.53,8.35-22.82,.38-8.76-1.48-18.17-5.37-27.21-1.14-2.65-1.34-4.8-.63-6.59,1.96-4.88,9.76-9.18,18.37-12.84,8.14-3.46,16.56-7.04,22.55-12.56,5.41-4.98,8.05-10.9,7.89-17.65-.06-2.61-.54-5.35-1.44-8.21-.08-.26-.19-.51-.31-.75,1.64-.3,3.28,.27,4.39,1.42-1.24-1.29-3.16-1.85-4.98-1.27-2.57,.81-4,3.55-3.19,6.12,2.1,6.68,.98,11.39-3.75,15.75-4.74,4.37-12.37,7.61-19.75,10.75-10.93,4.65-21.25,9.03-24.71,17.68-1.71,4.26-1.47,9,.72,14.09,3.31,7.7,4.9,15.63,4.59,22.93-.3,7-2.33,12.78-5.86,16.71-6.88,7.66-17.83,6.33-25.8,3.87-2.58-.79-5.31,.65-6.11,3.23-.71,2.31,.37,4.74,2.45,5.79-.71-.36-1.31-.89-1.76-1.52Z"/><path class="cls-40" d="M334.99,130.98c.06,.12,.12,.24,.18,.37-.05-.13-.11-.25-.18-.37Z"/><path class="cls-40" d="M335.18,131.39c.05,.13,.11,.27,.15,.41-.04-.14-.09-.28-.15-.41Z"/><path class="cls-40" d="M334.76,130.59c.07,.11,.14,.22,.2,.34-.06-.12-.13-.23-.2-.34Z"/><path class="cls-40" d="M248.57,245.84c-.12-.04-.24-.08-.36-.13,.12,.05,.23,.09,.36,.13Z"/><path class="cls-40" d="M248.15,245.69c-.12-.05-.23-.1-.34-.15,.11,.05,.22,.11,.34,.15Z"/><path class="cls-40" d="M334.49,130.23c.08,.1,.16,.21,.23,.32-.07-.11-.15-.22-.23-.32Z"/><path class="cls-40" d="M334.2,129.89c.09,.1,.18,.2,.27,.31-.09-.11-.18-.21-.27-.31Z"/></g></g><path class="cls-35" d="M188.28,432.87s-.3,.66-.27,3.78,6.06,4.04,10.63,4.64c4.57,.6,12.22-1.16,17.39-4.21,5.17-3.05,7.15-6.23,12.65-8.21,5.5-1.99,8.51-2.32,10.91-3.25s3.59-.6,3.86-2.19-.99-4.7-.99-4.7l-30.71,7.43-23.47,6.71Z"/><path class="cls-35" d="M299.39,436.35s-.36,6.56-1.35,11.36-4.14,6.56-7.15,7.52-6.53,1.06-10.5,.66-5.4-2.91-6.39-5.07-.87-9.38-.87-9.38l26.26-5.1Z"/><path class="cls-74" d="M191.7,426.02s-2.54,1.96-3.16,5.14c-.62,3.18-.34,3.44,2.44,5.03,2.77,1.59,8.96,2.65,16.91,1.15,7.95-1.5,11.57-6.54,14.49-8.13s12.37-5.56,15.9-6.18c3.53-.62,5.12-1.06,4.68-6.27-.44-5.21-.79-8.04-1.41-10.6-.62-2.56-.44-2.65-2.03-2.83s-23.86,8.83-23.86,8.83l-17.12,13.87h-6.82Z"/><path class="cls-74" d="M274.76,417.11s-2.04,11.53-1.78,15.61-.19,12.56,.88,14.86c1.07,2.3,3.42,3.97,11.12,4.59,7.7,.62,10-2.03,11.5-4.42s3-7.15,2.91-11.66c-.09-4.5-1.77-10.25-3.27-13.6-1.5-3.36-3.02-8.14-4.2-8.62s-14.33,1.28-17.16,3.23Z"/><path class="cls-63" d="M214.42,320.84c-.28,1.63-.62,3.87,1.24,8.34,1.85,4.47,.88,9.15,.97,17.98s3.8,34.18,4.86,42.66-.44,14.84-1.5,18.02c-1.06,3.18-3.97,2.83-4.68,3.44s1.15,6.36,5.03,8.39c3.89,2.03,4.95,1.24,7.86-.71,2.91-1.94,8.21-4.59,9.63-7.15,1.41-2.56,2.03-5.12,1.68-8.48-.35-3.36,.62-27.91,1.41-34.27,.79-6.36,5.92-9.01,5.65-19.26-.26-10.25-3.44-19.87-3.18-22.7,.26-2.83,.88-9.89,.88-9.89l-29.85,3.62Z"/><path class="cls-63" d="M258.23,321.92s4.5,11.46,6.45,15.97c1.94,4.5,1.85,5.48,2.03,11.04s2.3,16.52,4.24,25.08c1.94,8.57,5.34,23.54,4.9,29.72-.53,6.14-1.72,8.37-1.26,12.08,.46,3.71,.73,5.37,.26,7.49s-.45,3.25,1.03,3.97,16.39,.79,17.58-.4-.26-3.91-.53-6.62-2.65-14.04-2.32-18.02,2.32-17.42,3.31-26.7c.99-9.27,.13-27.43-1.72-34.12s-2.45-13.18-2.65-15.9c-.2-2.72-28.29-9.98-31.33-3.6Z"/><path class="cls-68" d="M239.59,404.66c-.1-1.93,.17,5.48-1.5,8.92-1.68,3.44-5.92,4.76-9.1,7.28-3.18,2.52-9.01,4.46-10.69,5.52s-2.82,4.24-4.11,1.85-.49-3-2.96-1.85-6.09,4.15-11.39,4.68c-5.3,.53-8.3-1.32-8.74-2.74s0-2.91,6.27-5.65c6.27-2.74,7.33-3.97,8.48-6.27s9.45-5.12,9.45-5.12c0,0,4.24,0,4.68,3.36s1.06,5.2,3,5.65,9.72-4.86,11.22-6.27,5.55-6.19,5.39-9.36Z"/><path class="cls-68" d="M274.63,425.74s-.44,9.15,1.22,14.58c1.66,5.43,5.37,5.63,9.67,5.37s8.35-4.97,9.27-9.01c.93-4.04,.6-8.43,0-10.94s-1.92-6.05-1.92-6.05c0,0,1.13,5.39,.07,5.99s-1.92-1.59-4.37-2.45-7.82-1.39-9.34-.53-2.78,2.72-3.25,2.91-1.35,.13-1.35,.13Z"/><path class="cls-42" d="M296.47,406.08c.26-4.77,.83-36.43,.42-48.62-.42-12.19-3.61-37.5-3.61-37.5,0-1.24-.3-11.98-1.18-17.19-.88-5.21-.84-35.9-.4-37.93,.44-2.03,2.3-3.44,1.68-5.39-.62-1.94,.15-2.72-.13-4.06s-2.38-7.2-1.9-11.09c.49-3.89-.09-10.29-.84-13.38s.79-4.74-.31-7.05-5.66-14.59-5.66-14.59l-73.88,4.31s-4.18,4.73-6.1,8.42c-1.92,3.68-3.25,2.42-3.25,8.92s1.79,5.43,2.85,9.8c1.06,4.37-.4,22.32-.53,27.03-.13,4.7,4.53,17.63,5.53,33.13,.99,15.5-1.99,16.5,1.19,19.28,0,0,2.05,13.98,2.65,26.1,.6,12.12,4.57,29.61,3.58,43.92-3.18,14.91-3.18,13.42-2.38,14.16s25.85,4.72,28.82,1.74c.39-6.76,3.35-26.43,3.56-40.14,.21-13.71,1.21-37.18-.38-55.26,.41-8.85,.72-28.26,.72-28.26,0,0,4.77,15.99,5.74,20.4,.97,4.42,2.03,14.04,2.21,15.9,.02,.18,.07,.36,.15,.54,.75,2.8,4.2,15.83,6.08,24.6,2.12,9.88,7.29,42.21,7.95,53.74,.66,11.53-.79,10.6,0,12.85s22.13,3.58,27.43,1.06c1.06-2.25-.26-.66,0-5.43Z"/><path class="cls-21" d="M219.94,222s-.64-.25-.77-2.37,.64-3.86,.64-3.86l-2.03-.42s-.32,1.29-.38,3.33,.32,2.24,.32,2.24c0,0,1.86,2.09,2.22,1.09Z"/><path class="cls-21" d="M254.66,225.27c-1.88-2.54-3.05-7.9-3.05-7.9,0,0-2.09-2.05-2.02,.86s2.59,7.75,2.59,7.75c0,0,.23,.31,.77,.26s2.14-.61,1.72-.98Z"/><g class="cls-64"><path class="cls-72" d="M244.54,328.04c.53,6.49,2.37,22.24,2.37,22.25,.25-12.52,.37-27.32-.72-39.62,.41-8.85,.72-28.26,.72-28.26,0,0-2.91,15.82-3.43,21.12-.52,5.3,.52,18.02,1.05,24.51Z"/><path class="cls-72" d="M261.84,330.99c-3.44-9.31-.74-9.97-4.95-21.08-4.22-11.11,.24-11.34-2.16-23.74-2.4-12.4-1.58-8.47-4.78-14.63-3.21-6.16-7.13-13.91-6.92-6.57,.2,7.35,3.9,17.45,3.9,17.45,0,0,4.77,15.99,5.74,20.4,.97,4.42,2.03,14.04,2.21,15.9,.02,.18,.07,.36,.15,.54,.75,2.8,4.2,15.83,6.08,24.6,.86,3.99,2.21,11.63,3.56,20.09-.17-11.87-.79-27.47-2.82-32.96Z"/></g><path class="cls-70" d="M205.27,194.77c-1.72-4.26-2.47-15.52-1.72-17.25,.76-1.73,2.38-9.59,2.38-9.59l-1.27-1.06,1.27-14.16s-6.82-26.5-8.28-30.61-5.42-18.02-6.47-16.96c-1.05,1.06-1.67,7.89-1.87,10.54-.2,2.65-4.04,8.61-3.25,14.91,.79,6.29-2.05,11.2-3.38,14.97-1.32,3.78-1.59,8.15-1.66,10.07-.07,1.92-2.72,1.92-3.25,7.22-.17,1.71-.03,2.83,.24,3.58h0s.16,3.93-.31,7.11-1.06,3.45,1.43,9.18c2.49,5.73,9.54,26.38,11.24,30.77s8.57,14.33,8.57,14.33l11.65-19.88s-3.6-8.9-5.32-13.16Z"/><path class="cls-47" d="M205.27,194.77c-1.72-4.26-2.47-15.52-1.72-17.25,.76-1.73,2.38-9.59,2.38-9.59l-1.08-.9-.79-.03c-.03-1.74-.05-5,.03-9.45,.12-6.83,1.12-9.68,1.18-12.07,.07-2.38-1.66-3.11-3.05-5.37-1.39-2.25-2.98-6.49-4.24-7.82s-.13,3.71,1.32,7.22c1.46,3.51,3.05,4.5,2.65,8.21-.4,3.71-.93,4.7-2.38,3.05-1.46-1.66-3.78-3.11-2.85-1.79s3.84,6.08,3.58,6.68c-.27,.61-2.81-.08-3.79,0-.98,.08,1.01,.97,1.54,1.81,.53,.85,2.65,3.21,1.72,5.04s-3.05,.77-5.3-.36c-2.25-1.13-5.37-1.66-8.41-1.66s-5.96,.33-6.76,1.52c-.79,1.19,1.32,.2,3.91,0s7.22-.61,10.14,1.35c2.91,1.96,3.05,1.3,4.37,3.35,0,0,3.09,4.69,2.71,8.37-.39,3.68-1.38,5.42,.03,12.58,1.42,7.16,4.32,9.39,3.26,11.23s-.7,4.61,.23,6.22c.93,1.62-.23,2.87,.54,5.29,.77,2.42-.1,5.61-2.71,8.81-1.8,2.19-3.55,4.75-4.46,6.14,.96,1.45,1.63,2.41,1.63,2.41l11.65-19.88s-3.6-8.9-5.32-13.16Z"/><polygon class="cls-9" points="235.75 117.73 231.6 103.46 224.71 91.98 225.64 83.19 259.16 81.91 256.9 95.25 243.3 120.38 235.75 117.73"/><path class="cls-62" d="M265.99,91.26s-26.14,56.62-30.24,62.28c-4.64-8.72-16.56-49.85-16.9-57.16,2.42-1.04,3.34-2.5,3.34-2.5l12.32,.76,4.41-1.05,18.29-2.66,6.31,.05,2.47,.28Z"/><path class="cls-69" d="M241.12,108.75l2.99,25.46,1.23-2.55-3.04-20.97s-.29-2.93,2.02-5.16c-2.6,2.61-3.2,3.21-3.2,3.21Z"/><path class="cls-4" d="M241.12,108.82l4,26.61s-8.02,17.99-9.98,20.72c-2.8-5.54-7.76-21.94-7.76-21.94l5.83-26.43s4.5-2.1,7.92,1.03Z"/><path class="cls-4" d="M237.52,93.2l7.96,11.2s-2.91,3.03-4.36,4.41-6.8,.52-7.92-1.03-1.98-3.43-1.98-3.43l6.3-11.16Z"/><polygon class="cls-39" points="220.79 93.5 225.01 87.59 237.52 93.2 230.89 104.96 220.79 93.5"/><polygon class="cls-77" points="246.59 105.96 237.52 93.2 259.28 83.35 262.12 90.59 246.59 105.96"/><path class="cls-69" d="M252.51,120.06s-5.57,.79-3.56-3.8c2.01-4.59,9.55-17.75,10.09-19.23,.54-1.48,1.36-2.96,1.36-2.96l3.13-3.1,2.47,.28-13.48,28.81Z"/><path class="cls-69" d="M224.52,88.26s3.63,3.05,4.43,4.42,2.41,3.92,1.51,6.04-2.42,3.01-2.42,3.01l2.84,3.22,6.64-11.76-12.51-5.61-.48,.68Z"/><path class="cls-38" d="M232.68,107.02s9.27,1.5,9.14-.62-.85-5.37-1.7-7.06-3.78-4.06-3.78-4.06l1.17-2.08,7.96,11.2-4.36,4.41s-1.26,1.26-5.16,.38c-2.73-.53-3.27-2.18-3.27-2.18Z"/><path class="cls-38" d="M234.47,108.72s-2.97,16.46-3.03,20.12-2,12.02,3.57,11.81c5.57-.21,6.55-5.99,6.5-10.75-.05-4.76-.76-14.43-.76-14.43l1.29-.61,3.09,20.57-3.28,6.79-2.95,5.26-3.53,8.18-2.33-5.07-1.3-3.65-1.67-4.5-1.33-4.06-1.34-4.16,5.83-26.43,1.26,.93Z"/><path class="cls-69" d="M237.52,93.2l21.75-9.85,.74,1.89s-14.01,5.41-14.95,8.17,2.34,8.12,5.95,8.17l-4.43,4.38-9.07-12.76Z"/><path class="cls-70" d="M203.88,100.87s-6.73,3-8.43,3.21-4.19,.91-4.27,1.06,1.88,19.75,4.64,25.99c2.77,6.27,7.78,43.7,8.07,45.98s1.74,20.93,.2,27.2c-1.55,6.32-7.4,29.63-7.4,29.63,0,0-.83,1.76,3.05,5.26s23.25,8.5,31.07,8.37c5.23,.23,5.27-4.23,5.27-4.23l5.05-16.33-2.49-62.77-.37-11.57-2.5,.87-9.58-22.69-16.22-24.82-6.09-5.15Z"/><g class="cls-49"><path class="cls-48" d="M234.05,159.71c-1.11,1.24,.04,5.42,.16,7.25s.95,25.4,.82,30.42,.97,21.05,.87,22.94-3.21,2.22-15.5,7.07c-12.42,4.9-11.37-4.81-12.44-18.9-1.06-13.87-3.34-20.95-3.35-20.98,.27,6.15,.33,13.36-.51,16.81-1.55,6.32-7.4,29.63-7.4,29.63,0,0-.83,1.76,3.05,5.26s23.25,8.5,31.07,8.37c5.23,.23,5.27-4.23,5.27-4.23l5.05-16.33-1.58-39.85-2.88-22.58s-1.51-6.11-2.61-4.87Z"/><path class="cls-48" d="M234.85,161.99c-1.11,1.24-.77,3.14-.65,4.97s.95,25.4,.82,30.42,.97,21.05,.87,22.94-3.21,2.22-15.5,7.07c-12.42,4.9-11.37-4.81-12.44-18.9-1.06-13.87-3.34-20.95-3.35-20.98,.27,6.15,.33,13.36-.51,16.81-1.55,6.32-7.4,29.63-7.4,29.63,0,0-.83,1.76,3.05,5.26s23.25,8.5,31.07,8.37c5.23,.23,5.27-4.23,5.27-4.23l5.05-16.33-1.58-39.85-2.88-22.58s-.7-3.83-1.81-2.59Z"/></g><path class="cls-44" d="M279.26,96.56s4.34-.41,6.58-.28,9.47,3.34,10.41,4.51-.54,32.58-2.46,39.39c-1.93,6.86-4.91,49.55-4.91,49.55l-.57,13.75s-.55,6.66,1.83,14.53c1.59,5.28,4.1,13.88,5.59,19.04,.66,2.28-.87,4.6-3.22,4.9-9.9,1.26-33.04,3.99-35.82,2.28-3.56-2.18-13.35-16.36-15.56-17.22s-10.69-9.55-10.8-17.74-.18-26.73-.43-29.33-1.48-14.17,0-16.17,28.49-45.02,28.49-45.02l12.73-18.87,8.14-3.33Z"/><path class="cls-42" d="M279.26,96.56s4.34-.41,6.58-.28,9.47,3.34,10.41,4.51-.54,32.58-2.46,39.39c-1.93,6.86-4.91,49.55-4.91,49.55l-.57,13.75s-.55,6.66,1.83,14.53c1.59,5.28,4.1,13.88,5.59,19.04,.66,2.28-.87,4.6-3.22,4.9-9.9,1.26-33.04,3.99-35.82,2.28-3.56-2.18-13.35-16.36-15.56-17.22s-10.69-9.55-10.8-17.74-.18-26.73-.43-29.33-1.48-14.17,0-16.17,28.49-45.02,28.49-45.02l12.73-18.87,8.14-3.33Z"/><path class="cls-47" d="M257.57,244.53c.13,.03,.26,.05,.41,.07,.1,.01,.21,.03,.33,.04,.1,.01,.2,.03,.31,.04,.12,.01,.25,.02,.38,.03h.05c.11,.01,.2,.02,.31,.03,.07,0,.15,0,.22,0,.08,0,.17,0,.25,.01,.12,0,.23,.01,.36,.01,.04,0,.09,0,.13,0,.11,0,.24,0,.36,0,.14,0,.27,0,.42,0,.04,0,.09,0,.14,0,.56,0,1.16,0,1.8-.02,.03,0,.06,0,.09,0,.07,0,.15,0,.22,0,.15,0,.31-.01,.46-.02,.15,0,.29,0,.44-.01,.05,0,.09,0,.14,0,.19,0,.39-.02,.58-.03,.15,0,.3-.01,.45-.02,.09,0,.18,0,.26-.01,.15,0,.29-.02,.44-.02,.17,0,.34-.02,.52-.03,.2-.01,.41-.03,.61-.04,.1,0,.2-.01,.3-.02,.12,0,.23-.01,.35-.02,.18-.01,.37-.03,.55-.04h.2c.19-.03,.38-.04,.57-.05,.11,0,.21-.02,.32-.02,.09,0,.18-.01,.27-.02,.25-.02,.5-.04,.75-.06,.18-.01,.36-.03,.54-.04h.12c.24-.03,.47-.05,.71-.07,.17-.01,.35-.03,.53-.05h.11c.25-.03,.5-.05,.75-.08,.22-.02,.45-.04,.68-.06h.08c.22-.03,.44-.05,.66-.07l.2-.02c.86-.08,1.73-.17,2.59-.25h.06c.38-.04,.76-.08,1.14-.12,.08,0,.15-.02,.23-.02,.15-.02,.29-.03,.44-.05,.19-.02,.37-.04,.56-.06,.13-.01,.27-.03,.4-.04,.15-.02,.3-.03,.45-.05,.21-.02,.42-.05,.63-.07,.1-.01,.21-.02,.31-.03,.08,0,.16-.02,.24-.03,.83-.09,1.64-.18,2.44-.28h0c.15-.02,.3-.04,.46-.05,.2-.02,.4-.05,.59-.07,.09,0,.17-.02,.26-.03,.15-.02,.29-.03,.44-.05,1.54-.18,2.99-.36,4.29-.52,.19-.02,.37-.05,.55-.07,.16-.02,.33-.04,.48-.06,.15-.02,.28-.04,.43-.05,.17-.02,.35-.04,.51-.06h.04c2.37-.31,3.91-2.65,3.24-4.94-.13-.45-.27-.92-.41-1.42-.16-.56-.33-1.15-.51-1.76l-.07-.25c-.13-.44-.26-.89-.39-1.35-.15-.52-.3-1.05-.46-1.58l-.03-.12c-.25-.85-.5-1.71-.75-2.57h0c-.15-.53-.31-1.05-.46-1.57-.12-.4-.23-.79-.35-1.19l-.07-.25c-.07-.25-.15-.49-.22-.74-.07-.23-.13-.45-.2-.68-.04-.15-.09-.3-.13-.45-.11-.36-.21-.72-.32-1.08l-.03-.12c-.13-.44-.26-.87-.38-1.28-.16-.55-.32-1.09-.48-1.59-.11-.35-.21-.7-.31-1.02-2.38-7.87-1.83-14.53-1.83-14.53l.57-13.75s-.86-22.3,2.2-37.27h0s-5.32-9.03-6.53-9.43c-1.21-.4-2.57,6.58-2.57,6.58-16.39,42.44-16,41.26-18.52,49.05-2.21,6.84-.13,22.82-2.32,29.32-2.21,6.55-6.62,3.48-9.37,2.65-2.33-.7-16.51-13.34-20.7-17.1,1.17,3.71,3.55,7.22,5.76,9.74,2.06,2.12,3.88,3.6,4.29,3.75,2.22,.86,12.01,15.04,15.56,17.22,.17,.11,.43,.2,.75,.27,.04,0,.09,.02,.13,.02Z"/><circle class="cls-60" cx="236.86" cy="214.99" r="3.39"/><circle class="cls-13" cx="234.57" cy="166.45" r="3.39"/><circle class="cls-46" cx="235.14" cy="190.67" r="3.39"/><g><path class="cls-36" d="M316.77,166.14c-.17-.99-.35-2.1-.52-3.4-.54-4.06-1.58-5.48-.34-7.68,1.24-2.21-1.24-2.65-1.94-5.03s-4.68-11.48-4.24-14.31c.44-2.83-.35-3.44-1.25-4.86-.9-1.41-1.49-2.03-.78-3.97,.71-1.94,1.32-3.09,0-6.54-1.32-3.44-6.36-14.49-8.92-17.49-2.15-2.52-8.83-5.35-11.87-6.25,.32,.11,.6,.26,.87,.45l-.87-.45s-4.67,7.13-4.86,15.61c-.16,7.03-.07,13.29-.31,17.11,.02,0,.03,.02,.05,.03,3.12,1.68,.33,3.36,0,6.18-.33,2.83-.5,6.71,.03,9.63,.53,2.91-1.1,5.3,1.44,7.95,.87,.9,1.31,1.46,1.62,1.7v.05c-.05,.3-.08,.59-.12,.89,1.93,2.51,5.1,4.64,5.02,6.37-.09,1.85,.71,2.38,.71,2.38,.08-.05,.22-.09,.39-.12-.15,.06-.29,.1-.39,.12-1.4,.22-5.08-1.99-7.5-.58,9.01,16.03-1.21,22.42-1.21,22.42,4.29,.4,18.14,2.84,22.59,1.94,4.45-.9,4.06-2.88,7.55-3.55,3.48-.68,5.52-4.06,6.19-7.26,.68-3.19,.29-8.03-1.33-11.34Z"/><path class="cls-36" d="M285.61,96.31c-.1,0-.19,0-.28,.01,.42,.03,.8,.08,1.11,.15-.36-.09-.65-.15-.83-.16Z"/></g><path class="cls-47" d="M291.88,163.61c1.41-.89,4.97-2.65,8.74-3.04,3.78-.4,7.55,.53,6.36-.13-1.19-.66-6.29-1.52-9.24-.53-2.95,.99-6.19,2.38-6.79,1.85-.6-.54,.46-.59,2.21-2.2,1.75-1.61,5.21-2.7,4.48-2.9s-4.64,.6-6.62,2.45c-1.99,1.85-1.82-.36-3.18-2.45-1.36-2.09-.48-2.1-.12-2.7,.36-.6,1.68-3.51-.66-1.03-1.54,1.63-1.61,2.34-2.2,1.87-.04,.31-.08,.63-.12,.94,1.93,2.51,5.1,4.64,5.02,6.37-.09,1.85,.71,2.38,.71,2.38,.11-.07,.33-.12,.61-.16,.17-.24,.42-.49,.8-.73Z"/><path class="cls-36" d="M265.99,91.26s.17-.83,1.16-.42,10.79,4.55,12.67,5.1c1.88,.55-13.66,29.1-20.11,36.78-6.45,7.68-28.08,29.9-29.82,31.07,2.54-3.25,5.86-10.25,5.86-10.25l9.76-18.87,6.99-14.6,5.72-12.2,5.38-11.6,2.38-5Z"/><path class="cls-36" d="M218.86,96.38s.47-1.3-.25-1.34-14.71,4.07-14.71,4.07c0,0-.86,.17-.45,2.07s13.79,39.22,31.13,54.74c1-2,1.19-2.39,1.19-2.39l-6.97-18.94-3.93-13.03-3.83-14.21-1.66-7.38s-.59-3.35-.52-3.6Z"/><path class="cls-17" d="M279.76,97.35c.14-.47,.21-.82,.21-1.07-.02-.22-.09-.31-.13-.34,0,0-.01-.01-.02-.01-.5-.15-1.57-.55-2.89-1.07h0s-.13,1.23,.43,2.01-.45,2.21-.67,3.47-7.49,14.43-9.96,19.2c-2.48,4.76-11.67,16.68-14.53,19.58s-20.14,21.4-20.14,21.4h0c-.72,1.23-1.47,2.39-2.16,3.27l.26-.21c3-2.52,23.34-23.46,29.56-30.86,2.67-3.18,6.91-9.95,10.81-16.83,1.71-3.1,3.62-6.59,4.48-8.21,1.05-2.02,2-3.91,2.77-5.56,.96-2.15,1.74-4.1,1.98-4.77h0Z"/><g class="cls-18"><path class="cls-80" d="M235.14,154.78l-.58,1.15c.23-.47,.42-.85,.58-1.15Z"/><polygon class="cls-56" points="235.14 154.77 235.14 154.78 235.14 154.77 235.14 154.77"/><path class="cls-30" d="M223.18,139.45c-4-6.22-11.47-22.36-14.07-28.14-2.61-5.79-4.01-12.55-4.01-12.55-.75,.22-1.2,.35-1.2,.35,0,0-.86,.17-.45,2.07s13.79,39.22,31.13,54.74l.58-1.15h0s-7.96-9.1-11.96-15.32Z"/><path class="cls-58" d="M223.18,139.45c-4-6.22-11.47-22.36-14.07-28.14-2.61-5.79-4.01-12.55-4.01-12.55-.75,.22-1.2,.35-1.2,.35,0,0-.86,.17-.45,2.07s13.79,39.22,31.13,54.74l.58-1.15h0s-7.96-9.1-11.96-15.32Z"/></g><g><path class="cls-63" d="M294.22,165.72s3.34,.71,5.43,2.55,2.19,4.42,.5,7.06c-1.69,2.63-2.83,1.59-1.54,3.93s2.48,5.17-1.19,5.81-3.33-1.49-5.37,2.04-4.67,4.12-8.55,3.03-9.49-.65-12.03-2.88c-2.53-2.24-4.92-4.47-4.92-4.47,0,0-2.93-.89-5.27-2.09s-.25-3.78,2.83-4.22,7.26-2.29,9.64-2.53,5.27-2.44,8.3-1.39,3.48,2.68,5.27,.89,6.49-5.45,6.9-7.72Z"/><g><g><path class="cls-2" d="M234.31,173.17h-8.7v7.11c0,4.52,13.81,8.18,30.85,8.18v-17.78c-8.69,0-16.55,.95-22.15,2.49Z"/><path class="cls-2" d="M278.62,173.17h8.7v7.11c0,4.52-13.81,8.18-30.85,8.18v-17.78c8.69,0,16.55,.95,22.15,2.49Z"/><ellipse class="cls-52" cx="256.47" cy="173.17" rx="30.85" ry="8.18"/></g><g><path class="cls-12" d="M268,167.08c-2.74-.33-5.7-.55-8.73-.63-14.26-.38-27.09,2.16-28.63,5.67-1.47,3.33,7.71,6.34,20.82,6.97,.72,.04,1.46,.06,2.21,.08,14.26,.38,27.09-2.16,28.63-5.67,1.21-2.74-4.81-5.27-14.29-6.43Z"/><path class="cls-2" d="M259.3,167.52c3.07,.08,6.06,.3,8.83,.63,7.61,.93,13.02,2.73,14.31,4.82,.27-2.53-5.57-4.81-14.44-5.9-2.74-.33-5.7-.55-8.73-.63-14.26-.38-27.09,2.16-28.63,5.67-.13,.29-.17,.58-.14,.86,2.08-3.41,14.75-5.84,28.81-5.47Z"/><path class="cls-78" d="M253.93,173.56s.49-.67-2.7-1.51c-4.56-1.2-5.03-1.45-.94-1.17s6.75,1.22,6.75,1.22"/><path class="cls-7" d="M244.33,175.2l.06-.44-3.5-.03c-.36,0-.67,.07-.68,.16l-.02,.11c-.01,.09,.27,.16,.63,.17h0l3.5,.03Z"/><path class="cls-57" d="M244.33,175.2l.03-.22-4.15-.04v.06c-.02,.09,.26,.16,.62,.17h0l3.5,.03Z"/><path class="cls-2" d="M260.31,174.13c-.54-.18-1.17-.32-1.88-.46-.69-.13-1.44-.24-2.17-.35-.65-.1-1.23-.21-1.96-.27-.04,.01-.08,.02-.12,.03s-.08,.02-.12,.03c-.09,.02-.18,.05-.28,.07h-.04s-.08,.03-.12,.04-.09,.02-.13,.03c-.09,.02-.19,.05-.29,.07-.29,.07-.6,.14-.91,.2-.05,.01-.11,.02-.16,.03-.08,.02-.17,.03-.26,.05-.06,.01-.12,.02-.19,.04s-.12,.02-.19,.03h-.04c-.1,.02-.19,.04-.29,.06-.02,0-.04,0-.07,.01-.04,0-.08,.01-.12,.02l-.12,.02c-.1,.02-.2,.03-.3,.05-.14,.02-.28,.04-.43,.07-.11,.02-.23,.03-.35,.05h-.07c-.1,.02-.19,.04-.29,.05h0c-.16,.02-.32,.04-.48,.06-.33,.04-.67,.08-1.02,.12-.63,.07-1.27,.12-1.92,.17-.28,.02-.56,.04-.85,.06h0c-.14,0-.29,.02-.44,.02-.13,0-.26,.01-.38,.02-.17,0-.35,.02-.52,.02h0s-.05,0-.13,.01c-.02,0-.05,0-.08,0h-.09c-.41,.06-.76,.14-.98,.24h-.02c-.13,.08-.21,.15-.21,.23,0,.04,0,.09,.03,.13h0s.05,.06,.1,.09c.16,.1,.48,.17,.86,.23,.78,.12,1.83,.16,2.47,.18,5.53,.13,10.98-.39,14.76-1.39-.07-.02-.14-.05-.21-.07Z"/><path class="cls-52" d="M256.25,173.31c-.65-.1-1.23-.21-1.96-.27-.04,.01-.08,.02-.12,.03s-.08,.02-.12,.03-.08,.02-.12,.03c-.05,.01-.1,.03-.15,.04h-.04s-.08,.03-.12,.04-.09,.02-.13,.03-.09,.02-.14,.03-.1,.03-.15,.04c-.09,.02-.18,.04-.27,.06h-.05s-.09,.03-.13,.04c-.1,.02-.19,.04-.29,.06-.05,.01-.11,.02-.16,.03s-.11,.02-.16,.03c-.09,.02-.17,.03-.26,.05-.06,.01-.12,.02-.19,.04s-.12,.02-.19,.03h-.04c-.1,.02-.19,.04-.29,.06-.02,0-.04,0-.07,.01l-.12,.02-.12,.02c-.1,.02-.2,.03-.3,.05-.09,.01-.18,.03-.27,.04-.05,0-.11,.02-.16,.02-.11,.02-.23,.03-.35,.05h-.07c-.1,.02-.19,.04-.29,.05h0c-.08,.01-.15,.02-.23,.03s-.16,.02-.25,.03c-.12,.01-.24,.03-.36,.04l-.19,.02c-.15,.02-.31,.03-.47,.05-.11,.01-.21,.02-.32,.03-.16,.02-.32,.03-.47,.04-.11,0-.22,.02-.32,.03-.16,.01-.33,.03-.49,.04-.11,0-.21,.02-.31,.02-.19,.01-.37,.03-.56,.04h-.21s-.06,.02-.08,.02h0c-.14,0-.29,.02-.44,.02-.13,0-.26,.01-.38,.02-.17,0-.35,.02-.52,.02h0s-.05,0-.13,.01c-.02,0-.05,0-.08,0h-.09c-.41,.06-.76,.14-.98,.24h-.02c-.13,.08-.21,.15-.21,.23,0,.04,0,.09,.03,.13h.03c1.62,.05,3.25,.04,4.86-.02,.22,0,.44-.02,.65-.03,3.8-.18,7.26-.66,9.85-1.37,.09-.02,.17-.05,.26-.07-.56-.1-1.15-.19-1.73-.28Z"/><path class="cls-3" d="M261.06,174.06l-3.33-.39-3.98-.47h.04c.05-.02,.1-.04,.15-.05,.04-.01,.08-.02,.12-.03s.08-.02,.12-.03c.1-.03,.21-.06,.31-.09,.07-.02,.13-.04,.19-.06,.13-.04,.25-.08,.37-.12,.04-.01,.08-.03,.12-.04h.04c.07-.04,.14-.06,.21-.08s.15-.05,.22-.08c.08-.03,.16-.06,.24-.09,.07-.03,.13-.05,.2-.08s.14-.05,.2-.08c.02,0,.04-.02,.06-.03,.04-.02,.09-.04,.13-.05h.01c.06-.03,.12-.06,.18-.09,.01,0,.03-.01,.04-.02l.03-.02s.08-.04,.12-.06c.03-.02,.07-.03,.1-.05s.06-.03,.09-.05h.02s.04-.03,.05-.04,.04-.02,.06-.03c.12-.07,.24-.13,.35-.2,.05-.03,.11-.07,.16-.1,.08-.05,.15-.1,.21-.15l.02-.02s.01,0,.01-.01c.08-.06,.15-.12,.21-.18,.02-.02,.04-.04,.06-.06s.04-.04,.06-.06c.02-.02,.05-.05,.07-.07,.01-.01,.03-.03,.04-.04,.02-.03,.04-.05,.06-.08,.02-.02,.04-.05,.06-.07,.03-.04,.06-.08,.08-.13,.01-.02,.03-.04,.04-.06v-.02s.02-.02,.02-.02c0-.02,.01-.03,.03-.05l.02-.06c.03-.06,.04-.12,.06-.19h0c.01-.07,.02-.12,.02-.18h0c.05-.24-.07-.79,.27-1.17,.15-.17,.41-.31,.82-.36,.05,0,.1-.01,.16-.02h0c.06,0,.12,0,.18,0h0c.54,0,1.05,.04,1.49,.12,.89,.15,1.49,.39,1.56,.41,3.35,1.59,2.48,3.51-2.21,4.88h0Z"/><path class="cls-79" d="M257.73,173.66c3.62-.99,5.38-2.38,4.25-3.79-.28-.35-.72-.68-1.32-1-.09-.05-.18-.09-.27-.14-.06-.03-.12-.06-.18-.09-.06,0-.12,0-.18,0h0c-.06,0-.11,0-.16,.02-.41,.05-.67,.19-.82,.36-.34,.38-.22,.93-.27,1.16h0c0,.06-.01,.12-.02,.17h0c-.01,.07-.03,.13-.06,.19v.02l-.02,.04s-.01,.03-.03,.05c0,0,0,.02-.01,.02v.02s-.03,.04-.05,.06c-.03,.04-.05,.08-.08,.13-.02,.02-.03,.05-.06,.07-.02,.03-.04,.05-.06,.08l-.04,.04s-.04,.05-.07,.07c-.02,.02-.04,.04-.06,.06s-.04,.04-.06,.06c-.07,.06-.14,.12-.21,.18,0,0-.01,0-.01,.01l-.02,.02c-.07,.05-.14,.1-.21,.15-.05,.03-.11,.07-.16,.1-.11,.07-.23,.14-.35,.2-.02,.01-.04,.02-.06,.03s-.04,.02-.05,.03h-.02s-.06,.04-.09,.06-.06,.03-.1,.05c-.04,.02-.08,.04-.12,.06l-.03,.02s-.03,.01-.04,.02c-.06,.03-.12,.05-.18,.08h-.01s-.08,.04-.13,.06c-.02,0-.04,.02-.06,.03-.07,.03-.14,.06-.2,.08s-.13,.05-.2,.08c-.08,.03-.16,.06-.24,.09-.07,.03-.14,.05-.22,.08s-.14,.05-.21,.07h-.04s-.08,.04-.12,.05c-.12,.04-.24,.08-.37,.12-.07,.02-.13,.04-.19,.06-.1,.03-.2,.06-.31,.09-.04,.01-.08,.02-.12,.03s-.08,.02-.12,.03c-.05,.01-.1,.03-.15,.04h-.04l3.98,.48Z"/><path class="cls-78" d="M253.74,173.2s3.57,.44,4.89,.85c2.08,.64,2.89,.84,.78,2.53-.08,.06-.15,.12-.2,.19-.26,.28-.71,1.01,4.63-.55,6.42-1.88-1.17-2.66-1.17-2.66-2.79-.28-5.84-.39-8.92-.35Z"/></g><g class="cls-27"><path class="cls-31" d="M283.82,169.39l-44.21,10.63c2.02,.35,4.2,.64,6.51,.86l40.28-9.69c-.59-.63-1.47-1.24-2.58-1.8Z"/><path class="cls-31" d="M266.06,165.39l-39.71,9.55c1.44,1.73,4.95,3.25,9.8,4.38l45.4-10.92c-3.78-1.4-9.19-2.47-15.49-3.01Z"/></g></g><path class="cls-63" d="M292.05,165.41c-2.09-.4-5.74-2.44-8.55-4.1-2.81-1.66-3.38-2.98-7.16-1.91s-4.5,2.46-6.36,4.8-2.44,3.23-2.19,4.57,3.58,4.42,5.02,5.67,8.65,.25,9.64-3.33c3.23,0,4.87,2.34,4.87,2.34,0,0,7.75-4.87,8-6.46s-3.28-1.57-3.28-1.57Z"/></g><g><path class="cls-63" d="M209.29,37.45c-.7,2.44-1.07,4.97-1.1,7.51v.53c0,3.08-.41,6.13-1.13,9.11-1.41-.52-2.86-1.55-4.23-3.33-3.62-4.67-2.32-12.11,2.22-13.81,1.72-.64,3.14-.49,4.25-.04,0,.01,0,.02,0,.03Z"/><path class="cls-71" d="M209.29,37.45c-.7,2.44-1.07,4.97-1.1,7.51v.53c0,3.08-.41,6.13-1.13,9.11-1.41-.52-2.86-1.55-4.23-3.33-3.62-4.67-2.32-12.11,2.22-13.81,1.72-.64,3.14-.49,4.25-.04,0,.01,0,.02,0,.03Z"/><path class="cls-63" d="M276.62,52.05c-1.41,1.74-2.88,2.75-4.3,3.23-.66-3-1-6.06-.93-9.13v-.53c.02-2.55-.3-5.1-.95-7.56,1.12-.42,2.55-.55,4.25,.13,4.49,1.8,5.64,9.26,1.93,13.86Z"/><path class="cls-71" d="M276.62,52.05c-1.41,1.74-2.88,2.75-4.3,3.23-.66-3-1-6.06-.93-9.13v-.53c.02-2.55-.3-5.1-.95-7.56,1.12-.42,2.55-.55,4.25,.13,4.49,1.8,5.64,9.26,1.93,13.86Z"/><path class="cls-63" d="M262.52,55.28c-1.35,2.07-1.75,4.64-.97,7.01,.58,1.78,1.1,3.78,1.08,5.27-.11,10.9-10.53,19.63-23.27,19.49-12.74-.13-22.98-9.08-22.86-19.97,.02-1.49,.57-3.49,1.19-5.25,.82-2.34,.48-4.93-.82-7.02-.31-.5-.59-1.03-.84-1.57-.74-1.65-1.11-3.44-1.09-5.25,.08-7.24,6.3-13.04,13.9-12.96,2.46,.02,4.86,.67,6.99,1.9,2.5,1.45,5.57,1.48,8.1,.08,2.15-1.18,4.57-1.78,7.03-1.75,7.6,.08,13.7,6.01,13.63,13.25-.02,1.81-.42,3.59-1.19,5.22-.25,.54-.55,1.06-.87,1.55Z"/><path class="cls-71" d="M262.52,55.28c-1.35,2.07-1.75,4.64-.97,7.01,.58,1.78,1.1,3.78,1.08,5.27-.11,10.9-10.53,19.63-23.27,19.49-12.74-.13-22.98-9.08-22.86-19.97,.02-1.49,.57-3.49,1.19-5.25,.82-2.34,.48-4.93-.82-7.02-.31-.5-.59-1.03-.84-1.57-.74-1.65-1.11-3.44-1.09-5.25,.08-7.24,6.3-13.04,13.9-12.96,2.46,.02,4.86,.67,6.99,1.9,2.5,1.45,5.57,1.48,8.1,.08,2.15-1.18,4.57-1.78,7.03-1.75,7.6,.08,13.7,6.01,13.63,13.25-.02,1.81-.42,3.59-1.19,5.22-.25,.54-.55,1.06-.87,1.55Z"/><path class="cls-40" d="M227.79,69.63c-.73,0-1.33,.58-1.34,1.31,0,.06,0,.12,0,.17,.75,5.85,6.24,10.42,12.96,10.49s12.3-4.39,13.17-10.22c.1-.73-.4-1.4-1.13-1.5-.06,0-.11-.01-.17-.01l-23.5-.25Z"/><path class="cls-19" d="M231.85,79.35c4.61,2.95,10.5,3.01,15.18,.16-.92-3.31-3.97-2.58-7.56-2.62s-6.63-.83-7.62,2.46Z"/><path class="cls-63" d="M276.28,35.77c-2.71-1.09-4.89-.55-6.42,.31-.36-1.1-.78-2.18-1.25-3.23-.34-.78-.72-1.54-1.12-2.29-4.1-7.69-11.06-14.1-19.09-16.87l-.11-4.34-5.25,3.08c-.21-.03-.42-.05-.63-.07-.39-.04-.77-.07-1.16-.09l-.73-3.29-.21-.96c-.26,0-.51,0-.76,.02-4.86,.34-7.32,4.73-7.7,5.48-8.09,2.6-15.17,8.87-19.43,16.46-.42,.74-.81,1.5-1.17,2.26-.49,1.05-.93,2.12-1.32,3.21-.06-.04-.13-.08-.19-.11-1.5-.83-3.6-1.32-6.22-.33-5.76,2.17-7.41,11.61-2.82,17.55,1.87,2.42,3.85,3.75,5.77,4.36-.03,.11-.05,.22-.08,.32-.36,1.58-.55,3.2-.57,4.82-.12,11.25,8.08,21.02,19.93,25.4,2.78,1.03,5.67,1.73,8.61,2.11,1.53,.2,3.06,.31,4.6,.34h.37c18.67,.2,33.93-11.96,34.08-27.16,.02-1.62-.14-3.24-.47-4.83-.02-.11-.05-.22-.07-.32,1.93-.57,3.94-1.86,5.86-4.24,4.71-5.84,3.26-15.31-2.45-17.59Zm-66.99,1.68c-.7,2.44-1.07,4.97-1.1,7.51v.53c0,3.08-.41,6.13-1.13,9.11-1.41-.52-2.86-1.55-4.23-3.33-3.62-4.67-2.32-12.11,2.22-13.81,1.72-.64,3.14-.49,4.25-.04,0,.01,0,.02,0,.03Zm54.1,16.27c-.25,.54-.54,1.06-.87,1.55-1.35,2.07-1.75,4.64-.97,7.01,.58,1.78,1.1,3.78,1.08,5.27-.11,10.9-10.53,19.63-23.27,19.49-12.74-.13-22.98-9.08-22.87-19.97,.02-1.49,.57-3.49,1.19-5.25,.82-2.34,.48-4.93-.82-7.02-.31-.5-.59-1.03-.84-1.57-.74-1.65-1.11-3.44-1.09-5.25,.08-7.24,6.3-13.04,13.9-12.96,2.46,.02,4.86,.67,6.99,1.9,2.5,1.45,5.57,1.48,8.1,.08,2.15-1.18,4.57-1.78,7.03-1.75,7.6,.08,13.7,6.01,13.63,13.25-.02,1.81-.42,3.59-1.19,5.22Zm13.24-1.68c-1.41,1.74-2.88,2.75-4.3,3.23-.66-3-1-6.06-.93-9.13v-.53c.02-2.55-.3-5.1-.95-7.56,1.12-.42,2.55-.55,4.25,.13,4.49,1.8,5.64,9.26,1.93,13.86h0Z"/><rect class="cls-40" x="235.07" y="58.42" width="2.22" height="5.03" rx="1.11" ry="1.11" transform="translate(80.65 248.83) rotate(-64.85)"/><rect class="cls-40" x="240.57" y="59.9" width="5.03" height="2.22" rx="1.11" ry="1.11" transform="translate(-3.84 103.94) rotate(-23.95)"/><path class="cls-40" d="M227.85,53.35h0c-2.18-.02-3.93-1.72-3.91-3.79v-1.25c.03-2.07,1.82-3.73,4-3.7h0c2.18,.02,3.93,1.72,3.91,3.79v1.25c-.03,2.07-1.82,3.73-4,3.7Z"/><path class="cls-50" d="M227.95,44.61l-.05,4.37c-.01,1.03,.87,1.88,1.96,1.89,1.09,.01,1.98-.82,2-1.85v-.62c.03-2.07-1.72-3.76-3.91-3.79Z"/><ellipse class="cls-6" cx="227.92" cy="47.11" rx="1.25" ry="1.32" transform="translate(178.43 274.53) rotate(-89.4)"/><path class="cls-40" d="M251.56,53.6h0c-2.18-.02-3.93-1.72-3.91-3.79v-1.25c.03-2.07,1.82-3.73,4-3.7h0c2.18,.02,3.93,1.72,3.91,3.79v1.25c-.03,2.07-1.82,3.73-4,3.7Z"/><path class="cls-50" d="M251.65,44.86l-.05,4.37c-.01,1.03,.87,1.88,1.96,1.89s1.98-.82,2-1.85v-.62c.03-2.07-1.72-3.76-3.91-3.79Z"/><ellipse class="cls-6" cx="251.63" cy="47.36" rx="1.25" ry="1.32" transform="translate(201.65 298.47) rotate(-89.4)"/><path class="cls-25" d="M240.52,8.98c-.88-.1-2.83,1.28-5.18,3.66-.58,.59-1.19,1.25-1.82,1.97-4.6,5.28-9.95,13.62-11.84,22.23-3.18,14.44-4.58,31.22,.66,40.59,4.44,7.94,12.01,12.15,12.01,12.15-2.94-.38-5.83-1.09-8.61-2.12-11.85-4.38-20.05-14.15-19.93-25.4,.02-1.62,.21-3.24,.57-4.82,.02-.11,.05-.22,.08-.32-1.92-.6-3.9-1.94-5.77-4.36-4.59-5.94-2.94-15.38,2.82-17.54,2.62-.99,4.72-.49,6.22,.33,.07,.04,.13,.07,.19,.11,.38-1.09,.82-2.16,1.32-3.21,.36-.77,.75-1.52,1.17-2.26,4.26-7.6,11.34-13.87,19.43-16.46,.39-.75,2.85-5.14,7.7-5.48,.25-.02,.5-.03,.76-.02l.22,.96Z"/></g></g></g></g></svg>