<?xml version="1.0" encoding="UTF-8"?><svg xmlns="http://www.w3.org/2000/svg" xmlns:xlink="http://www.w3.org/1999/xlink" viewBox="0 0 500 500"><defs><style>.cls-1{fill:#939393;}.cls-2{fill:#ffb300;}.cls-3{fill:url(#Naamloos_verloop_44);}.cls-4{fill:#fff;}.cls-5{fill:#3479ad;}.cls-6{fill:#d1d1d1;}.cls-7{fill:#dbdbdb;}.cls-8{fill:#e6646e;}.cls-9{fill:#3a7ab3;}.cls-10{opacity:.06;}.cls-11{fill:url(#Naamloos_verloop_38);}.cls-12{fill:#63ce63;}.cls-13{fill:#c7c8c9;}.cls-14{fill:#fdfbf5;}.cls-15{fill:#4da2ef;}.cls-16{fill:gray;}.cls-17{opacity:.15;}.cls-18{isolation:isolate;opacity:.35;}.cls-18,.cls-19{fill:#4e3f3f;}.cls-20{fill:#7c7b7b;}.cls-21{fill:#5d5360;}.cls-22{fill:url(#Naamloos_verloop_110);}.cls-23{fill:#c9e3f4;opacity:.4;}.cls-24{fill:#275b82;}.cls-25{fill:#aaa;}.cls-26{fill:#c11b17;}.cls-27{fill:#a16552;}.cls-28{fill:#999;}.cls-29{fill:#d89000;}.cls-30{fill:#f5dcb4;}.cls-31{fill:#b3b3b3;}.cls-32{fill:#efefef;}.cls-33{fill:#7f7f7f;}.cls-34{fill:#023044;opacity:.5;}.cls-35{fill:#c6c6c6;}.cls-36{fill:#8c5648;}.cls-37{fill:#666;}.cls-38{fill:#f2f2f2;}.cls-39{fill:#ee3224;}</style><linearGradient id="Naamloos_verloop_110" x1="68.95" y1="247.73" x2="430.08" y2="247.73" gradientTransform="matrix(1, 0, 0, 1, 0, 0)" gradientUnits="userSpaceOnUse"><stop offset=".15" stop-color="#ccc"/><stop offset=".4" stop-color="#999"/><stop offset=".61" stop-color="#999"/><stop offset=".85" stop-color="#ccc"/></linearGradient><linearGradient id="Naamloos_verloop_38" x1="260.79" y1="55.36" x2="260.79" y2="115.94" gradientTransform="matrix(1, 0, 0, 1, 0, 0)" gradientUnits="userSpaceOnUse"><stop offset="0" stop-color="#e7bc91"/><stop offset=".4" stop-color="#f3d5b5"/><stop offset=".66" stop-color="#f5dcb4"/><stop offset=".7" stop-color="#f3dab2"/><stop offset="1" stop-color="#efd3ab"/></linearGradient><linearGradient id="Naamloos_verloop_44" x1="260.79" y1="23.71" x2="260.79" y2="119.3" gradientTransform="matrix(1, 0, 0, 1, 0, 0)" gradientUnits="userSpaceOnUse"><stop offset="0" stop-color="#a16552"/><stop offset=".2" stop-color="#935848"/><stop offset=".5" stop-color="#935848"/><stop offset=".6" stop-color="#9b604e"/><stop offset=".73" stop-color="#a16552"/><stop offset="1" stop-color="#966444"/></linearGradient></defs><g id="Laag_2"><path class="cls-22" d="M395.93,69.17c-19.85-.54-36.12,15.39-36.12,35.12h-.21c0,19.4-15.73,35.13-35.13,35.13-10.24,0-19.46-4.38-25.88-11.37-13.61-14.82-32.45-23.76-52.57-23.76h-3.12c-19.78,0-38.75,8.04-52.33,22.42-5.95,6.3-14.39,10.23-23.74,10.23-17.54,0-31.84-13.83-32.62-31.18,.02-.49,.04-.98,.04-1.48,0-18.34-15.12-33.15-33.57-32.64-17.79,.49-31.74,15.53-31.74,33.32V426.3H430.08V105.02c0-19.14-15.01-35.32-34.14-35.85Z"/><ellipse class="cls-16" cx="250" cy="426.3" rx="180.56" ry="56.25"/><ellipse class="cls-37" cx="250" cy="423.17" rx="173.32" ry="50.24"/><ellipse class="cls-10" cx="250" cy="423.17" rx="117.09" ry="28"/><ellipse class="cls-31" cx="81.44" cy="372.08" rx="2.18" ry="1.83" transform="translate(-247.97 180.86) rotate(-47.52)"/><ellipse class="cls-31" cx="81.44" cy="352.08" rx="2.18" ry="1.83" transform="translate(-233.22 174.36) rotate(-47.52)"/><ellipse class="cls-31" cx="81.44" cy="332.08" rx="2.18" ry="1.83" transform="translate(-218.47 167.87) rotate(-47.52)"/><ellipse class="cls-31" cx="81.44" cy="312.08" rx="2.18" ry="1.83" transform="translate(-203.72 161.38) rotate(-47.52)"/><ellipse class="cls-31" cx="81.44" cy="292.08" rx="2.18" ry="1.83" transform="translate(-188.97 154.89) rotate(-47.52)"/><ellipse class="cls-31" cx="81.44" cy="272.08" rx="2.18" ry="1.83" transform="translate(-174.22 148.39) rotate(-47.52)"/><ellipse class="cls-31" cx="81.44" cy="252.08" rx="2.18" ry="1.83" transform="translate(-159.47 141.9) rotate(-47.52)"/><ellipse class="cls-31" cx="81.44" cy="232.08" rx="2.18" ry="1.83" transform="translate(-144.72 135.41) rotate(-47.52)"/><ellipse class="cls-31" cx="81.44" cy="212.08" rx="2.18" ry="1.83" transform="translate(-129.97 128.91) rotate(-47.52)"/><ellipse class="cls-31" cx="81.44" cy="192.08" rx="2.18" ry="1.83" transform="translate(-115.22 122.42) rotate(-47.52)"/><ellipse class="cls-31" cx="81.44" cy="172.08" rx="2.18" ry="1.83" transform="translate(-100.47 115.93) rotate(-47.52)"/><ellipse class="cls-31" cx="81.44" cy="152.08" rx="2.18" ry="1.83" transform="translate(-85.72 109.43) rotate(-47.52)"/><ellipse class="cls-31" cx="81.44" cy="132.08" rx="2.18" ry="1.83" transform="translate(-70.97 102.94) rotate(-47.52)"/><ellipse class="cls-31" cx="81.44" cy="112.08" rx="2.18" ry="1.83" transform="translate(-56.22 96.45) rotate(-47.52)"/><ellipse class="cls-31" cx="418.56" cy="372.08" rx="1.83" ry="2.18" transform="translate(-141.41 380.34) rotate(-42.48)"/><ellipse class="cls-31" cx="418.56" cy="352.08" rx="1.83" ry="2.18" transform="translate(-127.9 375.09) rotate(-42.48)"/><ellipse class="cls-31" cx="418.56" cy="332.08" rx="1.83" ry="2.18" transform="translate(-114.4 369.84) rotate(-42.48)"/><ellipse class="cls-31" cx="418.56" cy="312.08" rx="1.83" ry="2.18" transform="translate(-100.89 364.59) rotate(-42.48)"/><ellipse class="cls-31" cx="418.56" cy="292.08" rx="1.83" ry="2.18" transform="translate(-87.38 359.34) rotate(-42.48)"/><ellipse class="cls-31" cx="418.56" cy="272.08" rx="1.83" ry="2.18" transform="translate(-73.88 354.09) rotate(-42.48)"/><ellipse class="cls-31" cx="418.56" cy="252.08" rx="1.83" ry="2.18" transform="translate(-60.37 348.84) rotate(-42.48)"/><ellipse class="cls-31" cx="418.56" cy="232.08" rx="1.83" ry="2.18" transform="translate(-46.86 343.59) rotate(-42.48)"/><ellipse class="cls-31" cx="418.56" cy="212.08" rx="1.83" ry="2.18" transform="translate(-33.35 338.34) rotate(-42.48)"/><ellipse class="cls-31" cx="418.56" cy="192.08" rx="1.83" ry="2.18" transform="translate(-19.85 333.09) rotate(-42.48)"/><ellipse class="cls-31" cx="418.56" cy="172.08" rx="1.83" ry="2.18" transform="translate(-6.34 327.84) rotate(-42.48)"/><ellipse class="cls-31" cx="418.56" cy="152.08" rx="1.83" ry="2.18" transform="translate(7.17 322.59) rotate(-42.48)"/><ellipse class="cls-31" cx="418.56" cy="132.08" rx="1.83" ry="2.18" transform="translate(20.67 317.34) rotate(-42.48)"/><ellipse class="cls-31" cx="418.56" cy="112.08" rx="1.83" ry="2.18" transform="translate(34.18 312.09) rotate(-42.48)"/></g><g id="Laag_1"><g><path class="cls-7" d="M163.9,337c.74,.11,1.49,.2,2.26,.28,15.79,1.65,38.19-5.09,55.19-46.64,9.53-23.29,13.03-46.79,13.17-47.78,.54-3.69-2.02-7.13-5.71-7.67h-.01c-3.69-.53-7.11,2.02-7.65,5.71-.05,.36-3.47,23.11-12.39,44.81-5.08,12.36-10.9,21.92-17.29,28.41-7.34,7.45-15.16,10.63-23.9,9.71-19.78-2.07-24.02-14.8-29.25-35.39-4.3-16.9-9.17-36.05-29.71-43.8-3.5-1.32-7.39,.44-8.71,3.94-1.32,3.49,.44,7.39,3.94,8.71,13.94,5.26,17.39,18.8,21.38,34.48,2.51,9.87,5.11,20.07,10.75,28.45,6.39,9.49,15.55,14.99,27.94,16.78Z"/><g><path class="cls-13" d="M234.18,245.01c.23-1.36,.34-2.13,.35-2.16l-13.38-1.95s-.1,.67-.3,1.84l13.33,2.27Z"/><path class="cls-13" d="M158.09,335.82l3.47-13.07c1.03,.27,2.12,.51,3.24,.7l-2.27,13.33c-1.52-.26-3.02-.58-4.44-.96Zm19.81-12.95c.98-.3,1.96-.67,2.92-1.1l5.49,12.36c-1.45,.64-2.94,1.2-4.43,1.66l-3.98-12.92Zm-40.16-.2l10.63-8.35c.65,.82,1.34,1.6,2.05,2.3l-9.5,9.63c-1.12-1.1-2.19-2.3-3.19-3.57Zm54.16-9c.78-.82,1.57-1.69,2.34-2.6l10.34,8.71c-.96,1.14-1.94,2.23-2.93,3.26l-9.75-9.37Zm-63.91-11.59l12.96-3.85c.38,1.26,.74,2.41,1.11,3.52l-12.8,4.34c-.43-1.27-.85-2.58-1.27-4.01Zm74.68-3.54c.58-1.06,1.17-2.17,1.74-3.29l12.06,6.12c-.64,1.26-1.29,2.5-1.95,3.69l-11.84-6.52Zm-79.97-16.19l12.98-3.8c.36,1.21,.72,2.51,1.11,3.95l-13.06,3.51c-.36-1.34-.69-2.54-1.02-3.65Zm87.96-1.49c.44-1.17,.87-2.37,1.29-3.58l12.77,4.46c-.45,1.3-.92,2.59-1.39,3.85l-12.67-4.73Zm-95.26-14.87l10.88-8.03c.89,1.21,1.75,2.51,2.55,3.87l-11.64,6.87c-.57-.96-1.17-1.87-1.79-2.71Zm101.21-3.95c.32-1.22,.65-2.47,.95-3.72l13.12,3.25c-.33,1.32-.67,2.64-1.01,3.94l-13.07-3.47Z"/><path class="cls-13" d="M105.35,257.91l5.49-12.36c-.72-.32-1.48-.63-2.23-.92l-4.77,12.65c.52,.2,1.03,.4,1.52,.62Z"/></g><path class="cls-13" d="M177.08,191.63c.38,6.77,1.04,14.23,5.88,19.51,5.51,6.02,14.3,6.94,22.04,7.09,21.27,.42,42.26-1.45,63.2-3.32,2.26-.2,4.59-.42,6.48-1.51,3.38-1.95,4.56-6.15,5.3-10.06,3.53-18.73,2.25-38.5,.95-58.04-1.31-19.7-2.62-39.41-4.39-59.13-.06-.71-.12-1.53-.19-2.42-.32-4.18-.81-9.86-2.51-12.92-6.66-11.95-27.33-8.41-37.55-8.56-15.56-.23-34.91,2.23-50.36,2.87-2.76,.11-5.68,.29-7.81,1.84-.63,.46-1.16,1.01-1.6,1.63-1.53,2.14-2.05,5.08-2.41,7.84-4.98,37.24,.84,76.89,2.99,115.17Z"/><g><g><path class="cls-32" d="M316.72,182.66c.45,1.33,.59,2.35,.26,2.93-2.17,3.94-21.48,28.46-21.69,28.76,7.72,4.78,18.12,14.19,27.28,19.05,.49,.32,.54,.13,1.1-.38,2.48-2.25,4.96-4.69,7.35-7.3,8.57-9.3,16.67-20.91,19.53-32.5,2.38-8.65,.5-16.58-3.03-25.38-.44-1.09-.9-2.19-1.38-3.31-.13-.29-.26-.58-.39-.86-3.08-6.85-5.57-12.2-9.42-18.62-.49-1.63-2.12,.31-3.24,.54-5.04,2.41-9.8,4.67-14.64,7.4-4.3,2.49-7.67,5.73-11.26,8.94,1.11,2.2,6.95,14.99,7.63,16.36,.81,1.64,1.49,3.13,1.9,4.36Z"/><path class="cls-7" d="M293.65,211.84c5.98,3.74,15.86,13.14,23,17.98,2.75,1.28,5.1,2.46,6.75,3.45h0c.09-.08,.18-.16,.27-.24,.22-.2,.44-.4,.67-.61,.17-.16,.34-.31,.51-.47,.43-.4,.87-.81,1.3-1.23,.16-.16,.33-.31,.49-.48,.23-.22,.45-.44,.68-.67,.13-.13,.27-.26,.4-.4,.34-.34,.67-.68,1.01-1.02,.28-.29,.56-.58,.84-.87,.21-.22,.43-.45,.64-.67,.21-.23,.42-.45,.63-.68,.19-.2,.37-.41,.56-.61s.37-.41,.56-.61c.1-.11,.2-.22,.29-.33,.16-.17,.31-.35,.46-.52,.3-.35,.61-.69,.91-1.04,1.57-1.83,3.1-3.71,4.56-5.63-3.11-11.21-10.12-20.89-12.61-24.51,2.15-3.73,2.23-8.74,1.58-13.21-.25-1.72-.6-3.36-.99-4.82-.02-.08-.05-.16-.07-.24-2.84-9.92,5.9-18.66,14.18-22.28-.27-.53-3.86-7.35-3.93-7.46-.07,.03-28.9,15.52-30.61,16.91,1.39,2.78,6.17,10.71,9.1,16.74,.09,.18,.17,.35,.26,.52,.01,.02,.02,.05,.03,.07,.04,.07,.07,.14,.1,.21,1.42,3.02,2.16,5.27,1.85,6.3-.03,.06-23.21,26.13-23.41,26.43Z"/></g><path class="cls-2" d="M326.09,174.39c.02,.08,.05,.16,.07,.24,.38,1.46,.74,3.1,.99,4.82,7.32-2.82,14.22-6.75,20.37-11.6-.44-1.09-.9-2.19-1.38-3.31-.13-.29-.26-.58-.39-.86-6.16,4.3-12.74,7.87-19.66,10.71Z"/><path class="cls-29" d="M314.82,178.31c.09,.18,.36,.74,.39,.81,.62,1.33,1.12,2.53,1.47,3.56,3.55-.82,7.07-1.9,10.47-3.22-.25-1.72-.6-3.36-.99-4.82-.02-.08-.05-.16-.07-.24-3.67,1.51-7.43,2.81-11.27,3.91h0Z"/><g><path class="cls-32" d="M292.53,125.18c.04,2.64,.35,5.3,.76,7.9,1.9,11.91,6.04,23.45,12.1,33.87,.95,1.64,2.91,2.41,4.73,1.89,8.48-2.43,17.58-9.65,24.58-16.51,1.12-1.1,2.19-2.19,3.19-3.25,1.43-1.52,1.93-3.7,1.28-5.68-4.13-12.53-11.32-22.94-18.94-30.3-4.19-4.05-8.51-7.18-12.51-9.25-6.13,.21-11.39,5.13-13.57,10.88-1.27,3.33-1.69,6.88-1.63,10.46Z"/><path class="cls-7" d="M286.6,127.06c.04,2.64,.35,5.3,.76,7.9,1.9,11.91,6.17,21.86,13.79,31.19,3.35,4.1,7.15,3.21,8.97,2.68,8.48-2.43,17.58-9.65,24.58-16.51-1.44,.12-2.96-.18-4.25-.85-2.67-1.39-4.49-3.98-5.94-6.61-5.26-9.58-6.68-21.13-4.28-31.77-4.19-4.05-8.51-7.18-12.51-9.25-6.13,.21-11.39,5.13-13.57,10.88-1.27,3.33-7.62,8.76-7.56,12.34Z"/></g></g><path class="cls-32" d="M227.89,420.26c-3.04-1.46-7.3-.54-12.07-3.11-8.37-4.51-14.48,4.79-21.13,1.6-.51-3.94-1.32-7.86-1.34-11.83-.08-27.43,.17-79.62,1.07-88.64,.05-.49,.1-.91,.15-1.23,.47-3.15,1.39-7.44,2.61-12.46,.37-1.52,.76-3.11,1.18-4.75,7.63-29.89,23.09-78.36,23.09-78.36,9.95,4.76,36.52,17.44,52.85,25.26-.76,1.79-1.51,3.61-2.25,5.45-7.32,18.25-13.29,38.41-18.64,57.92-.41,1.51-.82,3.02-1.23,4.53-1.36,5-2.67,9.95-3.96,14.8-6.4,24.03-12.36,44.86-16.31,69.34-.82,5.06-1.57,10.13-2.27,15.21-.05,.35-.14,.75-.26,1.17-.46,1.66-1.32,3.72-1.5,5.11h0Z"/><path class="cls-32" d="M266.81,417.31c13.54-4.02,25.78-10.4,39.77-12.34-1.28-23.29,5.88-55.47,9.37-69.93,.03-.13,.06-.25,.09-.37,1.05-9.78,1.7-19.61,1.94-29.45,.05-2.12,.08-4.24,.1-6.35,.12-18.7-1.23-37.4-4.05-55.88-2.17,.49-4.36,.97-6.57,1.46-15.72,3.45-31.98,7.19-44.05,17.49,.78,13.79,.9,30.89,4.33,55.77,.27,1.96,.56,3.97,.88,6.03,.77,5.06,1.68,10.42,2.75,16.13-7.6,26.24-8.72,36.51-4.56,77.45Z"/><path class="cls-7" d="M266.81,417.31c13.54-4.02,25.78-10.4,39.77-12.34-1.28-23.29,5.88-55.47,9.37-69.93-3.77,2.97-9.35,3.86-13.97,2.2-6.43-2.31-10.89-8.49-12.71-15.08-.9-3.27-1.24-6.63-1.25-10.02,0-2.14,.13-4.3,.34-6.44,.13-1.3,.28-2.6,.45-3.9,2.65-20.05,9.04-39.58,18.65-57.37-15.72,3.45-31.98,7.19-44.05,17.49,.78,13.79,.9,30.89,4.33,55.77,.27,1.96,.56,3.97,.88,6.03,.77,5.06,1.68,10.42,2.75,16.13-7.6,26.24-8.72,36.51-4.56,77.45Z"/><path class="cls-2" d="M288.02,312.14c9.47-4.07,19.66-6.46,29.96-6.93,.05-2.12,.08-4.24,.1-6.35-10.16,.44-20.26,2.85-29.72,6.84-.21,2.14-.34,4.3-.34,6.44Z"/><path class="cls-29" d="M267.74,317.69c.27,1.96,.56,3.97,.88,6.03,5.91-4.71,12.46-8.6,19.4-11.58,0-2.14,.13-4.3,.34-6.44-7.36,3.11-14.33,7.17-20.61,11.99Z"/><path class="cls-7" d="M227.89,420.26c-3.04-1.46-7.3-.54-12.07-3.11-8.37-4.51-14.48,4.79-21.13,1.6-.51-3.94-1.32-7.86-1.34-11.83-.08-27.43,.17-79.62,1.07-88.64,1.5,3.61,3.95,6.82,7.12,9.11,5.9,4.28,14.08,5.2,20.78,2.34,6.75-2.87,11.52-8.99,15.47-15.17,1.1-1.72,2.16-3.48,3.19-5.25,.91-1.58,1.79-3.18,2.63-4.79,2.07-3.94,3.93-7.98,5.6-12.11,1.64-4.06,3.1-8.44,2.35-12.75-1.3-7.45-7.98-11.82-14.54-15.59-10.85-6.24-18.18-4.98-27.16-5.01,11.18-44.88,26.04-6.34,41.01-8.89,7.09-1.21,14.92-1.16,21.17,2.01-7.32,18.25-13.29,38.41-18.64,57.92-.41,1.51-.82,3.02-1.23,4.53-1.36,5-2.67,9.95-3.96,14.8-6.4,24.03-12.36,44.86-16.31,69.34-.82,5.06-1.57,10.13-2.27,15.21-.05,.35-.14,.75-.26,1.17-.46,1.66-1.32,3.72-1.5,5.11h0Z"/><path class="cls-32" d="M208.03,249.88c1.46,2.85,33.35,3.39,57.41,36.45,5.37-.05,16.99,1.1,19.69-3.17,16.3-25.86,30.48-35.17,31.16-39.11,.36-2.09-.41-5.15-1.8-8.53-3.17-7.73-9.54-17.12-12.89-20.36-4.87-4.71-13.45-2.67-20.55-2.53-17.39,.34-37.54,1.91-54.9,2.35-3.52,.09-7.35,.27-10.21,2.07-3.37,2.12-6.24,11.55-6.98,14.95-.42,1.94-1.09,5.17-1.48,8.44-.43,3.67-.5,7.4,.55,9.44Z"/><path class="cls-32" d="M234.28,421.24l-63.25,3.54c-1.01-2.14-1.46-4.41-1.43-6.69,0-.31,.01-.61,.03-.92,.36-5.72,3.58-11.35,7.97-14.81,5.73-4.49,13.02-5.88,20.02-5.93,7.03-.06,14.04,1.12,20.7,3.42,1.7,.59,3.37,1.25,5.01,1.98,2.61,1.16,5.15,2.5,7.6,4.02,0,0,3.32,14.3,3.35,15.37Z"/><path class="cls-7" d="M234.28,421.24l-63.64,3.57c-1.01-2.14-1.44-6.39-.93-9.2,10.48-.15,20.77-.3,31.24-.46,5.1-.08,10.75-.39,14.47-4.28,3.27-3.43,3.99-6.17,2.9-11.01,1.7,.59,3.37,1.25,5.01,1.98,2.61,1.16,5.15,2.5,7.6,4.02,0,0,3.32,14.3,3.35,15.37Z"/><g><path class="cls-7" d="M234.28,421.24s-20.27,11.91-63.64,3.57"/><path class="cls-28" d="M204.79,430.93c-9.37,.37-20.92-.28-34.76-2.94-1.76-.34-2.92-2.05-2.58-3.81s2.05-2.92,3.81-2.58c41.39,7.96,61.19-3.07,61.39-3.18,1.55-.9,3.54-.37,4.44,1.18,.9,1.55,.39,3.53-1.16,4.44-.6,.35-10.66,6.07-31.14,6.89Z"/></g><path class="cls-32" d="M264.23,418.08l63.85,1.95c1.02-2,1.46-4.12,1.43-6.23,0-.28-.02-.57-.04-.85-.38-5.29-3.63-10.44-8.08-13.55-5.79-4.04-13.15-5.17-20.22-5.07-7.09,.1-14.17,1.33-20.88,3.61-1.71,.58-3.4,1.22-5.06,1.94-2.63,1.13-5.19,2.43-7.66,3.89,0,0-3.32,13.32-3.35,14.31Z"/><path class="cls-32" d="M176.51,68.62c5.16,5.97,15.68,11.05,20.38,12.85,9.13,3.5,18.81,5.49,28.55,6.31,14.39,1.23,28.89-.02,43.17-2.16,2.58-.39,5.31-.9,7.74-1.87-.32-4.18-.81-9.86-2.51-12.92-6.66-11.95-27.33-8.41-37.55-8.56-15.56-.23-34.91,2.23-50.36,2.87-2.76,.11-5.68,.29-7.81,1.84-.63,.46-1.16,1.01-1.6,1.63Z"/><path class="cls-7" d="M207.49,240.44c.38,.48,.81,.93,1.29,1.35,11.93,10.54,97.53,8.45,104.84-4.14,.4-.68,.68-1.4,.88-2.14-3.17-7.73-9.54-17.12-12.89-20.36-4.87-4.71-13.45-2.67-20.55-2.53-17.39,.34-37.54,1.91-54.9,2.35-3.52,.09-7.35,.27-10.21,2.07-3.37,2.12-6.24,11.55-6.98,14.95-.42,1.94-1.09,5.17-1.48,8.44Z"/><path class="cls-32" d="M203.62,220.02c.05,1.05,.14,2.12,.3,3.16,.5,3.44,1.67,6.71,4.32,9.06,3.37,2.98,12.63,4.95,24.33,5.96,29.72,2.56,75.26-1.07,80.51-10.1,1.26-2.17,1.36-4.72,1.4-7.18,0-.43,.01-.86,.02-1.28,.01-.87,.03-1.72,.04-2.57,.48-29.54,1.51-48.32,2.09-79.9,.34-18.54-7.66-29.53-15.81-35.2-4.92-3.42-9.94-4.46-13.14-4.93-22.37-3.3-27.91-4.14-50.47-2.05-5.85,.54-29.75,6.35-33.32,10.85-.14,.18-.28,.36-.41,.55-2.6,3.74-2.6,8.69-2.48,13.25,.07,2.72,.14,5.44,.21,8.15,.8,30.83,1.59,61.16,2.37,90.99,0,.41,.03,.82,.05,1.22Z"/><path class="cls-7" d="M203.62,220.02c.03,.53,.06,1.06,.11,1.59,.01,.12,.02,.23,.04,.34,.04,.41,.09,.82,.15,1.23h0c.5,3.44,1.67,6.71,4.32,9.06,3.37,2.98,12.63,4.95,24.33,5.96-4.33-3.17-7.98-7.39-10.65-12.11-.58-1.02-1.11-2.07-1.59-3.13-.12-.26-.24-.52-.35-.78-4.65-10.87-4.83-23.19-3.04-34.88,1.79-11.69,5.88-46.78-15.35-44.75,.8,30.83,1.21,46.43,1.99,76.26,0,.41,.03,.82,.05,1.22Z"/><g><path class="cls-35" d="M285.1,224.64c.28-12.49,.56-24.98,.83-37.47-1.94,.04-3.17-.06-5.12-.02-.38,12.64-.75,25.29-1.13,37.93,1.72-.23,3.69-.21,5.41-.44Z"/><path class="cls-35" d="M220.32,222.95c.48,1.06,1.01,2.11,1.59,3.13,34.34,4.27,72.65,2.27,92.58-6.44,.01-.87,.03-1.72,.04-2.57-2.33,1.34-5.09,2.02-7.75,2.6-7.16,1.57-14.39,2.82-21.66,3.73-1.8,.23-3.61,.43-5.41,.62-19.74,2.04-39.74,1.68-59.39-1.08Z"/><path class="cls-25" d="M203.62,220.02c.03,.53,.06,1.06,.11,1.59,.01,.12,.02,.23,.04,.34,.04,.41,.09,.82,.15,1.23h0c5.79,1.17,11.83,2.14,18,2.91-.58-1.02-1.11-2.07-1.59-3.13-5.6-.78-11.17-1.76-16.71-2.94Z"/></g><path class="cls-35" d="M305.91,108.55c0,8.77-20.66,21.93-44.9,21.93s-40.86-10.14-40.86-18.91,19.65-15.88,43.89-15.88,41.87,4.08,41.87,12.85Z"/><path class="cls-25" d="M309.18,113.14c3.14,6.98,2.87,15.11,.8,22.48-2.07,7.37-5.81,14.14-9.51,20.84,1.82,2.88,2.86,4.27,4.68,7.15,3.38-4.52,6.31-8.97,8.67-13.72,1.92-3.86,3.48-7.91,4.61-12.35,2.52-9.91,1.98-20.89-3.11-29.77-3.33-5.81-8.33-10.09-14.25-12.08-3.11-1.04-6.48-1.45-9.99-1.11-.41,2.04,.14,1.41,.78,3.39,9.28,1.99,14.18,8.19,17.32,15.17Z"/><path class="cls-1" d="M309.18,113.14c3.14,6.98,2.87,15.11,.8,22.48-2.07,7.37-5.81,14.14-9.51,20.84,1.82,2.88,2.86,4.27,4.68,7.15,3.38-4.52,6.31-8.97,8.67-13.72-1.08-3.3-1.29-6.98-1.06-10.47,.38-5.79,1.77-11.54,1.42-17.33-.44-7.19-3.57-14.01-7.77-19.86-1.64-2.29-3.44-4.45-5.34-6.53-3.11-1.04-10.5-2.68-15.55,1.04,2.15,.32,4.7,.69,6.35,1.24,9.7,2.68,14.18,8.19,17.32,15.17Z"/><path class="cls-7" d="M264.23,418.08l64.24,1.96c1.02-2,1.44-5.95,.92-8.54-10.58,.08-20.96,.16-31.54,.24-5.15,.04-10.85-.13-14.61-3.66-3.31-3.1-4.04-5.63-2.94-10.14-1.71,.58-3.4,1.22-5.06,1.94-2.63,1.13-5.19,2.43-7.66,3.89,0,0-3.32,13.32-3.35,14.31Z"/><path class="cls-35" d="M280.17,191.86c8.65-.49,16.53-2.21,21.09-4.59l.14-.08,.14-.09c5.54-3.53,5.83-10.14,6.06-15.46,.06-1.49,.13-2.9,.28-4.21l.03-.23v-.24c-.01-1.72,.19-3.58,.39-5.56,.52-4.94,1.11-10.55-1.56-15.55l-.08-.16-.1-.15c-2.14-3.24-5.05-4.72-8.9-4.5-1.42,.08-2.89,.37-4.45,.67-1.9,.37-4.05,.79-6.56,.93-.56,.03-1.13,.05-1.69,.05-1.75,0-3.38,0-4.9,0-4.48,0-8.02,0-10.89,.16-4.63,.26-9.77,.94-12.21,5.66-1.7,3.3-1.64,7.68-1.55,14.94,.05,3.8,.12,8.53-.06,14.29v.09c-.02,2.95,.32,7.18,3.39,10.07,1.67,1.84,4.56,2.98,9.04,3.6,3.5,.48,7.79,.6,12.39,.34Z"/><path class="cls-7" d="M308.31,147.39c3.05,5.69,.67,12.99,.71,19.31-.72,6.21,.44,13.67-4.58,16.86-9.43,4.94-34.21,5.89-37.96,1.37-1.95-1.74-2.31-4.66-2.3-7.35,.99-33.15-5.72-31.2,25.75-31.3,10.14-.03,14.73-4.41,18.37,1.1Z"/><ellipse class="cls-29" cx="185.81" cy="113.41" rx="14.19" ry="7.06" transform="translate(70.89 298.29) rotate(-89.54)"/><path class="cls-1" d="M216.46,112.04c3.34,3.94,13.53,7.24,28.38,8.39,.83,.06,1.68,.12,2.54,.17,2.06-1.56,6.44-2.51,10.81-2.34,6.46,.25,9.16,1.32,10.8,2.16,14.23-1.04,25.31-3.85,29.1-7.45,.88-.84,1.36-1.72,1.41-2.62,.25-5.24-14.31-9.77-34.01-11.08-3.1-.2-6.32-.33-9.64-.36-4.27-.05-8.27,.05-11.98,.27-17.5,1.03-28.36,4.83-28.6,9.83-.05,1.03,.36,2.05,1.19,3.03Z"/><path class="cls-33" d="M216.46,112.04c3.34,3.94,13.53,7.24,28.38,8.39,.83,.06,1.68,.12,2.54,.17,1.79-1.34,6.31-2.89,10.62-2.82,4.56,.07,7.84,.93,10.98,2.65,14.23-1.04,25.31-3.85,29.1-7.45-3.3-3.11-11.88-5.74-23.23-7.21-2.09-.27-4.27-.51-6.52-.7-.02,0-.04,0-.06,0-.9-.08-1.81-.14-2.73-.2-3.1-.2-6.32-.33-9.64-.37-3.22-.03-6.3,.01-9.21,.13-.02,0-.04,0-.06,0-.41,.02-.82,.03-1.22,.05-.5,.02-1,.05-1.49,.08-14.37,.85-24.26,3.56-27.47,7.27Z"/><path class="cls-36" d="M244.54,112.18l30.72-.64c.17-.1,1.56,5.37,2.23,8.02-2.67,.36-5.51,.66-8.5,.88-1.64-.85-4.34-1.91-10.8-2.16-4.37-.17-8.75,.78-10.81,2.34-.86-.05-1.71-.11-2.54-.17-2.3-.18-4.48-.41-6.55-.68l6.25-7.58Z"/><ellipse class="cls-6" cx="184.26" cy="113.5" rx="10.07" ry="5.01" transform="translate(69.27 296.84) rotate(-89.54)"/><g><path class="cls-7" d="M306.13,56.87c-.29-.36-.61-.71-.96-1.05-.53-.51-1.14-.98-1.81-1.44-.67-.45-1.41-.88-2.19-1.28-.53-.27-1.08-.52-1.65-.77-13.16-5.66-37.69-5.74-38.73-5.74-.02,0-.03,0-.03,0h0s-.01,0-.03,0c-1.04,0-25.57,.08-38.73,5.74-.57,.25-1.12,.5-1.65,.77-.79,.4-1.52,.83-2.19,1.28-.67,.45-1.28,.93-1.81,1.44-.35,.34-.68,.69-.96,1.05-1,1.27-1.56,2.7-1.56,4.3,0,1.83,.05,3.99,.21,6.35,.1,1.48,.26,3.05,.47,4.67,.04,.32,.09,.65,.14,.98,2.3,15.45,10.69,35.49,40.17,37.85,1.88,.15,3.85,.23,5.91,.23h.05c2.06,0,4.03-.08,5.91-.23,29.49-2.37,37.88-22.4,40.17-37.85,.05-.33,.1-.66,.14-.98,.22-1.62,.37-3.19,.47-4.67,.17-2.37,.21-4.52,.21-6.35,0-1.6-.56-3.03-1.56-4.3Z"/><g><path class="cls-27" d="M225.11,58.44c-.78,2.86-1.19,5.81-1.2,8.78v.61c.04,3.59-.4,7.16-1.2,10.64-1.65-.59-3.36-1.77-4.98-3.83-4.28-5.41-2.85-14.09,2.42-16.14,1.99-.77,3.66-.61,4.96-.1v.03Z"/><path class="cls-30" d="M225.11,58.44c-.78,2.86-1.19,5.81-1.2,8.78v.61c.04,3.59-.4,7.16-1.2,10.64-1.65-.59-3.36-1.77-4.98-3.83-4.28-5.41-2.85-14.09,2.42-16.14,1.99-.77,3.66-.61,4.96-.1v.03Z"/><path class="cls-27" d="M303.85,74.64c-1.62,2.06-3.32,3.24-4.97,3.83-.81-3.49-1.24-7.06-1.2-10.64v-.61c-.01-2.98-.41-5.94-1.21-8.81,1.31-.5,2.97-.66,4.96,.1,5.27,2.05,6.69,10.73,2.42,16.14Z"/><path class="cls-30" d="M303.85,74.64c-1.62,2.06-3.32,3.24-4.97,3.83-.81-3.49-1.24-7.06-1.2-10.64v-.61c-.01-2.98-.41-5.94-1.21-8.81,1.31-.5,2.97-.66,4.96,.1,5.27,2.05,6.69,10.73,2.42,16.14Z"/><path class="cls-27" d="M287.43,78.59c-1.56,2.43-1.98,5.44-1.04,8.18,.7,2.07,1.33,4.41,1.33,6.14,0,12.72-12.06,23.03-26.92,23.03s-26.92-10.32-26.92-23.03c0-1.74,.63-4.07,1.33-6.14,.93-2.74,.5-5.76-1.04-8.18-.37-.59-.71-1.2-.99-1.83-.88-1.92-1.34-4-1.34-6.12,0-8.44,7.19-15.29,16.06-15.29,2.86-.01,5.68,.73,8.18,2.13,2.93,1.67,6.52,1.67,9.45,0,2.49-1.4,5.32-2.13,8.18-2.13,8.87,0,16.06,6.85,16.06,15.29,0,2.11-.45,4.19-1.33,6.11-.29,.64-.62,1.25-1,1.84Z"/><path class="cls-11" d="M287.43,78.59c-1.56,2.43-1.98,5.44-1.04,8.18,.7,2.07,1.33,4.41,1.33,6.14,0,12.72-12.06,23.03-26.92,23.03s-26.92-10.32-26.92-23.03c0-1.74,.63-4.07,1.33-6.14,.93-2.74,.5-5.76-1.04-8.18-.37-.59-.71-1.2-.99-1.83-.88-1.92-1.34-4-1.34-6.12,0-8.44,7.19-15.29,16.06-15.29,2.86-.01,5.68,.73,8.18,2.13,2.93,1.67,6.52,1.67,9.45,0,2.49-1.4,5.32-2.13,8.18-2.13,8.87,0,16.06,6.85,16.06,15.29,0,2.11-.45,4.19-1.33,6.11-.29,.64-.62,1.25-1,1.84Z"/><path class="cls-19" d="M247.08,95.76c-.85,0-1.55,.7-1.55,1.55,0,.07,0,.13,.01,.2,.95,6.82,7.41,12.09,15.25,12.09s14.3-5.27,15.25-12.09c.11-.85-.49-1.62-1.34-1.73-.07-.01-.13-.01-.2-.01h-27.42Z"/><path class="cls-8" d="M251.93,107.06c5.42,3.38,12.3,3.38,17.72,0-1.11-3.84-4.67-2.96-8.86-2.96s-7.75-.89-8.86,2.96Z"/><path class="cls-3" d="M303.26,55.66c-3.18-1.24-5.71-.59-7.49,.44-.44-1.27-.94-2.54-1.5-3.75-.41-.9-.86-1.78-1.34-2.66-4.88-8.92-13.07-16.32-22.48-19.46l-.19-5.06-6.08,3.66c-.24-.03-.49-.05-.73-.08-.45-.04-.89-.08-1.35-.09l-.89-3.83-.26-1.12c-.3,0-.6,.01-.89,.03-5.67,.46-8.49,5.6-8.92,6.49-9.4,3.13-17.6,10.53-22.47,19.45-.48,.87-.93,1.75-1.34,2.66-.57,1.23-1.07,2.48-1.5,3.75l-.23-.13c-1.76-.95-4.21-1.49-7.26-.32-6.7,2.6-8.51,13.64-3.08,20.51,2.21,2.8,4.54,4.33,6.79,5.02-.03,.13-.05,.25-.09,.38-.4,1.85-.61,3.74-.61,5.64,0,13.14,9.69,24.43,23.57,29.4,3.26,1.16,6.64,1.96,10.08,2.36,1.78,.22,3.58,.33,5.38,.35h.42c21.79,0,39.45-14.38,39.45-32.11,0-1.89-.21-3.79-.61-5.64-.02-.13-.05-.25-.09-.38,2.24-.69,4.57-2.22,6.78-5.02,5.43-6.87,3.62-17.9-3.07-20.49Zm-78.15,2.78c-.78,2.86-1.19,5.81-1.2,8.78v.61c.04,3.59-.4,7.16-1.2,10.64-1.65-.59-3.36-1.77-4.98-3.83-4.28-5.41-2.85-14.09,2.42-16.14,1.99-.77,3.66-.61,4.96-.1v.03Zm63.32,18.33c-.29,.63-.62,1.24-.99,1.83-1.56,2.43-1.98,5.44-1.04,8.18,.7,2.07,1.33,4.41,1.33,6.14,0,12.72-12.06,23.03-26.92,23.03s-26.92-10.32-26.92-23.03c0-1.74,.63-4.07,1.33-6.14,.93-2.74,.5-5.76-1.04-8.18-.37-.59-.71-1.2-.99-1.83-.88-1.92-1.34-4-1.34-6.12,0-8.44,7.19-15.29,16.06-15.29,2.86-.01,5.68,.73,8.18,2.13,2.93,1.67,6.52,1.67,9.45,0,2.49-1.4,5.32-2.13,8.18-2.13,8.87,0,16.06,6.85,16.06,15.29-.01,2.11-.46,4.2-1.34,6.12Zm15.43-2.12c-1.63,2.06-3.33,3.24-4.98,3.83-.81-3.49-1.24-7.06-1.2-10.64v-.61c-.01-2.98-.41-5.94-1.21-8.81,1.31-.5,2.97-.66,4.96,.1,5.27,2.05,6.69,10.73,2.43,16.14h0Z"/><path class="cls-19" d="M254.09,84.29h0c.29-.65,1.07-.94,1.71-.64l2.99,1.37c.65,.29,.94,1.07,.64,1.71h0c-.29,.65-1.07,.94-1.71,.64l-2.99-1.37c-.65-.29-.94-1.07-.64-1.71Z"/><path class="cls-19" d="M262.15,86.73h0c-.29-.65-.01-1.41,.64-1.72l2.99-1.37c.65-.29,1.41-.01,1.71,.64h0c.29,.65,.01,1.41-.64,1.71l-2.99,1.37c-.64,.3-1.41,.02-1.71-.63Z"/><path class="cls-19" d="M246.96,76.76h0c-2.55,0-4.61-1.96-4.61-4.37v-1.46c0-2.42,2.07-4.37,4.61-4.37h0c2.55,0,4.61,1.96,4.61,4.37v1.46c0,2.42-2.07,4.37-4.61,4.37Z"/><path class="cls-21" d="M246.96,66.57v5.09c0,1.21,1.03,2.19,2.31,2.19s2.31-.98,2.31-2.19v-.73c0-2.42-2.07-4.36-4.61-4.36Z"/><ellipse class="cls-4" cx="246.96" cy="73.47" rx="1.53" ry="1.46"/><path class="cls-19" d="M274.62,76.76h0c-2.55,0-4.61-1.96-4.61-4.37v-1.46c0-2.42,2.07-4.37,4.61-4.37h0c2.55,0,4.61,1.96,4.61,4.37v1.46c0,2.42-2.07,4.37-4.61,4.37Z"/><path class="cls-21" d="M274.62,66.57v5.09c0,1.21,1.03,2.19,2.31,2.19s2.31-.98,2.31-2.19v-.73c0-2.42-2.07-4.36-4.61-4.36Z"/><ellipse class="cls-4" cx="274.62" cy="73.47" rx="1.53" ry="1.46"/><path class="cls-18" d="M261.21,24.82c-1.03-.1-3.29,1.52-6,4.34-.67,.7-1.37,1.48-2.1,2.32-5.3,6.21-11.45,16.02-13.55,26.09-3.54,16.89-4.96,36.49,1.26,47.36,5.28,9.21,14.16,14.04,14.16,14.04-3.44-.4-6.81-1.2-10.08-2.36-13.88-4.97-23.57-16.27-23.57-29.4,0-1.89,.21-3.79,.61-5.64,.02-.13,.05-.25,.09-.38-2.24-.69-4.57-2.21-6.79-5.02-5.43-6.88-3.62-17.91,3.08-20.5,3.05-1.19,5.5-.63,7.26,.32l.23,.13c.44-1.27,.94-2.54,1.5-3.75,.41-.9,.86-1.78,1.34-2.66,4.88-8.91,13.07-16.32,22.47-19.45,.44-.88,3.26-6.03,8.92-6.49,.29-.02,.59-.03,.89-.03l.27,1.09Z"/></g><g><path class="cls-2" d="M211,69.09c.74,8.48,2.35,15.26-.2,15.49s-8.29-6.2-9.03-14.68c-.74-8.48,3.79-15.8,6.34-16.02s2.14,6.74,2.89,15.22Z"/><ellipse class="cls-26" cx="210.23" cy="69.15" rx="5.1" ry="16.97" transform="translate(-5.23 18.59) rotate(-5)"/><path class="cls-2" d="M310.57,69.09c-.74,8.48-2.35,15.26,.2,15.49s8.29-6.2,9.03-14.68c.74-8.48-3.79-15.8-6.34-16.02-2.55-.22-2.14,6.74-2.89,15.22Z"/><ellipse class="cls-26" cx="311.35" cy="69.15" rx="16.97" ry="5.1" transform="translate(215.32 373.29) rotate(-85)"/><path class="cls-34" d="M305.61,56.84c-.28-.36-.6-.71-.95-1.05-.53-.51-1.12-.99-1.79-1.44-.66-.45-1.39-.88-2.17-1.28-.52-.27-1.06-.52-1.63-.77-13.01-5.67-37.26-5.75-38.29-5.75-.02,0-.03,0-.03,0h0s-.01,0-.03,0c-1.02,0-25.27,.08-38.29,5.75-.57,.25-1.11,.5-1.63,.77-.78,.4-1.51,.83-2.17,1.28-.66,.45-1.26,.93-1.79,1.44-.35,.34-.67,.69-.95,1.05-.99,1.27-1.54,2.7-1.54,4.3,0,1.83,.05,3.99,.21,6.36,.1,1.48,.25,3.05,.47,4.67,.04,.32,.09,.65,.14,.98,2.27,15.48,10.56,35.53,39.72,37.91,1.86,.15,3.81,.23,5.84,.23h.05c2.03,0,3.98-.08,5.84-.23,29.15-2.37,37.45-22.43,39.72-37.91,.05-.33,.09-.66,.14-.98,.22-1.62,.37-3.19,.47-4.67,.17-2.37,.21-4.53,.21-6.36,0-1.6-.56-3.03-1.54-4.3Z"/><path class="cls-7" d="M260.75,21c-28.12,0-51.53,17.68-51.53,45.8s.62,57.58,51.53,57.58,51.53-29.45,51.53-57.58-23.41-45.8-51.53-45.8Zm46.25,51.19c-.04,.32-.09,.65-.14,.98-2.3,15.45-10.69,35.49-40.17,37.85-1.88,.15-3.85,.23-5.91,.23h-.05c-2.06,0-4.03-.08-5.91-.23-29.49-2.37-37.88-22.4-40.17-37.85-.05-.33-.1-.66-.14-.98-.22-1.62-.37-3.19-.47-4.67-.17-2.37-.21-4.52-.21-6.35,0-1.6,.56-3.03,1.56-4.3,.29-.36,.61-.71,.96-1.05,.53-.51,1.14-.98,1.81-1.44s1.41-.88,2.19-1.28c.53-.27,1.08-.52,1.65-.77,13.16-5.66,37.69-5.74,38.73-5.74h.07c1.04,0,25.57,.08,38.73,5.74,.57,.25,1.12,.5,1.65,.77,.79,.4,1.52,.83,2.19,1.28s1.28,.93,1.81,1.44c.35,.34,.68,.69,.96,1.05,1,1.27,1.56,2.7,1.56,4.3,0,1.83-.05,3.99-.21,6.35-.1,1.48-.26,3.05-.47,4.67Z"/><path class="cls-38" d="M294.85,31.6c-11.36-8.78-24.54-10.6-34.1-10.6s-22.74,1.82-34.1,10.6c-16.57,12.8,5.71,5.43,34.1,5.43s50.67,7.37,34.1-5.43Z"/><path class="cls-2" d="M310.41,53.02c-.46-.59-.97-1.16-1.54-1.7-.76-.73-1.63-1.43-2.58-2.09-.85-.58-1.8-1.14-2.82-1.67-.63-.32-1.29-.64-1.99-.94-13.9-6.05-37.99-6.25-40.7-6.25h-.07c-2.7,0-26.79,.2-40.69,6.25-.69,.3-1.36,.62-1.99,.94-1.02,.52-1.97,1.09-2.82,1.67-.95,.65-1.82,1.35-2.58,2.09-.56,.54-1.08,1.12-1.54,1.7-1.87,2.4-2.85,5.21-2.85,8.13,0,2.39,.07,4.61,.23,6.8,.12,1.72,.29,3.42,.51,5.06,.05,.35,.1,.71,.15,1.07,1.6,10.87,5.34,19.93,11.14,26.93,7.93,9.57,19.41,15.03,34.13,16.23,.08,0,.15,.01,.23,.02v.23h12.26v-.23c.08,0,.15-.01,.23-.02,14.72-1.2,26.2-6.66,34.13-16.23,5.8-7,9.54-16.06,11.14-26.93,.05-.36,.1-.71,.15-1.07,.22-1.63,.39-3.34,.51-5.06,.15-2.19,.23-4.42,.23-6.8,0-2.92-.99-5.73-2.85-8.13Zm-3.46,14.49c-.1,1.48-.25,3.05-.47,4.67-.04,.32-.09,.65-.14,.98-2.27,15.48-10.56,35.53-39.72,37.91-1.86,.15-3.81,.23-5.84,.23h-.05c-2.03,0-3.98-.08-5.84-.23-29.15-2.37-37.45-22.43-39.72-37.91-.05-.33-.09-.66-.14-.98-.22-1.62-.37-3.19-.47-4.67-.17-2.37-.21-4.53-.21-6.36,0-1.6,.56-3.03,1.54-4.3,.28-.36,.6-.71,.95-1.05,.53-.51,1.12-.99,1.79-1.44s1.39-.88,2.17-1.28c.52-.27,1.06-.52,1.63-.77,13.01-5.67,37.26-5.75,38.29-5.75h.07c1.02,0,25.27,.08,38.29,5.75,.57,.25,1.11,.5,1.63,.77,.78,.4,1.51,.83,2.17,1.28s1.26,.93,1.79,1.44c.35,.34,.67,.69,.95,1.05,.99,1.27,1.54,2.7,1.54,4.3,0,1.83-.05,3.99-.21,6.36Z"/><path class="cls-23" d="M285.02,106.32c2.99-4.92,12.15-22.59,12.68-54.7-1.83-.67-3.82-1.25-5.9-1.76,.19,8.96-.6,34.89-14.22,59.27,2.72-.76,5.19-1.71,7.44-2.82Z"/><path class="cls-23" d="M260.75,111.26h.03c2.06,0,4.03-.08,5.91-.23,1.5-.12,2.94-.29,4.33-.5,2.4-4.56,15.07-29.96,16.48-61.58-4.88-.91-9.95-1.47-14.35-1.81-.6,6.41-4.2,37.67-18.93,63.84,.2,.02,.4,.04,.6,.05,1.88,.15,3.85,.23,5.91,.23h.03Z"/><path class="cls-29" d="M254.54,117.43h3.65v6.82c0,.97-.79,1.76-1.76,1.76h-.14c-.97,0-1.76-.79-1.76-1.76v-6.82h0Z"/><path class="cls-29" d="M265.13,117.43h.14c.97,0,1.76,.79,1.76,1.76v6.82h-3.65v-6.82c0-.97,.79-1.76,1.76-1.76Z" transform="translate(530.39 243.44) rotate(-180)"/></g></g><ellipse class="cls-35" cx="298.28" cy="154.78" rx="4.5" ry="5.61" transform="translate(-8.3 17.16) rotate(-3.25)"/><ellipse class="cls-12" cx="299.44" cy="154.72" rx="3.34" ry="4.83" transform="translate(-8.29 17.23) rotate(-3.25)"/><ellipse class="cls-35" cx="298.2" cy="171.54" rx="4.5" ry="5.61" transform="translate(-9.25 17.18) rotate(-3.25)"/><ellipse class="cls-39" cx="299.36" cy="171.48" rx="3.34" ry="4.83" transform="translate(-9.24 17.25) rotate(-3.25)"/><path class="cls-35" d="M275.77,181.04c1.67,.02,2.91-.07,3.82-.26,3.07-.64,2.44-2.48,2.55-5.83,.07-6.77,.22-21.12,.22-21.76,.17-2.83-5.25-2.59-7.65-1.46-.94,1.07-1.13,1.82-1.11,2.72,.02,1.04,.32,2.27,.09,4.41,.18,15.58-1.57,22.4,2.09,22.18Z"/><g><g><path class="cls-9" d="M321.95,211.28c-11.11-3.04-26.67-4.93-43.9-4.93s-32.79,1.89-43.9,4.93h-17.23v14.1c0,8.95,27.37,16.2,61.14,16.2s61.14-7.26,61.14-16.2v-14.1h-17.23Z"/><ellipse class="cls-15" cx="278.05" cy="211.28" rx="61.14" ry="16.2"/></g><g><path class="cls-5" d="M300.91,199.22c-5.43-.66-11.29-1.08-17.31-1.24-28.27-.76-53.68,4.28-56.74,11.24-2.91,6.6,15.28,12.57,41.26,13.82,1.43,.07,2.89,.13,4.37,.16,28.27,.76,53.68-4.28,56.74-11.24,2.4-5.44-9.53-10.44-28.32-12.74Z"/><path class="cls-24" d="M283.67,200.09c6.09,.16,12.01,.59,17.5,1.26,15.09,1.84,25.79,5.41,28.35,9.56,.53-5.02-11.03-9.54-28.61-11.69-5.43-.66-11.29-1.08-17.31-1.24-28.27-.76-53.68,4.28-56.74,11.24-.25,.57-.34,1.14-.29,1.71,4.13-6.76,29.24-11.58,57.09-10.83Z"/><g><path class="cls-24" d="M297,212.85c-1.24,.91-3.08,1.64-5.5,2.17-2.43,.54-5.36,.8-8.81,.8h-4.89l.3,5.63-16.07,.02,2.02-17.78h18.64c5.21,0,9.21,.55,11.99,1.66,2.78,1.11,4.18,2.59,4.18,4.44,0,1.12-.62,2.14-1.86,3.05Zm-11.67-3.05c0-1.09-1.38-1.63-4.15-1.63h-3.79l.17,3.26h3.62c2.77,0,4.15-.54,4.15-1.63Z"/><path class="cls-15" d="M297,210.88c-1.24,.91-3.08,1.64-5.5,2.17-2.43,.54-5.36,.8-8.81,.8h-4.89l.3,5.63-16.07,.02,2.02-17.78h18.64c5.21,0,9.21,.55,11.99,1.66,2.78,1.11,4.18,2.59,4.18,4.44,0,1.12-.62,2.14-1.86,3.05Zm-11.67-3.05c0-1.09-1.38-1.63-4.15-1.63h-3.79l.17,3.26h3.62c2.77,0,4.15-.54,4.15-1.63Z"/></g></g><g class="cls-17"><path class="cls-14" d="M332.26,203.79l-87.62,21.07c4,.69,8.33,1.27,12.9,1.7l79.83-19.2c-1.18-1.25-2.91-2.45-5.11-3.57Z"/><path class="cls-14" d="M297.06,195.88l-78.7,18.92c2.86,3.43,9.81,6.44,19.42,8.67l89.96-21.63c-7.5-2.77-18.21-4.89-30.69-5.97Z"/></g></g><g><g><path class="cls-9" d="M319.95,194.28c-11.11-3.04-26.67-4.93-43.9-4.93s-32.79,1.89-43.9,4.93h-17.23v14.1c0,8.95,27.37,16.2,61.14,16.2s61.14-7.26,61.14-16.2v-14.1h-17.23Z"/><ellipse class="cls-15" cx="276.05" cy="194.28" rx="61.14" ry="16.2"/></g><g><path class="cls-5" d="M298.91,182.22c-5.43-.66-11.29-1.08-17.31-1.24-28.27-.76-53.68,4.28-56.74,11.24-2.91,6.6,15.28,12.57,41.26,13.82,1.43,.07,2.89,.13,4.37,.16,28.27,.76,53.68-4.28,56.74-11.24,2.4-5.44-9.53-10.44-28.32-12.74Z"/><path class="cls-24" d="M281.67,183.09c6.09,.16,12.01,.59,17.5,1.26,15.09,1.84,25.79,5.41,28.35,9.56,.53-5.02-11.03-9.54-28.61-11.69-5.43-.66-11.29-1.08-17.31-1.24-28.27-.76-53.68,4.28-56.74,11.24-.25,.57-.34,1.14-.29,1.71,4.13-6.76,29.24-11.58,57.09-10.83Z"/><g><path class="cls-24" d="M295,195.85c-1.24,.91-3.08,1.64-5.5,2.17-2.43,.54-5.36,.8-8.81,.8h-4.89l.3,5.63-16.07,.02,2.02-17.78h18.64c5.21,0,9.21,.55,11.99,1.66,2.78,1.11,4.18,2.59,4.18,4.44,0,1.12-.62,2.14-1.86,3.05Zm-11.67-3.05c0-1.09-1.38-1.63-4.15-1.63h-3.79l.17,3.26h3.62c2.77,0,4.15-.54,4.15-1.63Z"/><path class="cls-15" d="M295,193.88c-1.24,.91-3.08,1.64-5.5,2.17-2.43,.54-5.36,.8-8.81,.8h-4.89l.3,5.63-16.07,.02,2.02-17.78h18.64c5.21,0,9.21,.55,11.99,1.66,2.78,1.11,4.18,2.59,4.18,4.44,0,1.12-.62,2.14-1.86,3.05Zm-11.67-3.05c0-1.09-1.38-1.63-4.15-1.63h-3.79l.17,3.26h3.62c2.77,0,4.15-.54,4.15-1.63Z"/></g></g><g class="cls-17"><path class="cls-14" d="M330.26,186.79l-87.62,21.07c4,.69,8.33,1.27,12.9,1.7l79.83-19.2c-1.18-1.25-2.91-2.45-5.11-3.57Z"/><path class="cls-14" d="M295.06,178.88l-78.7,18.92c2.86,3.43,9.81,6.44,19.42,8.67l89.96-21.63c-7.5-2.77-18.21-4.89-30.69-5.97Z"/></g></g><path class="cls-20" d="M275.77,181.04c1.67,.02,2.91-.07,3.82-.26,.02-.74-.01-1.62,.02-2.63,.07-6.77,.22-21.12,.22-21.76,.14-2.35-3.59-2.58-6.23-1.94,.02,1.04,.32,2.27,.09,4.41,.18,15.58-1.57,22.4,2.09,22.18Z"/><path class="cls-25" d="M190.21,113.83c7.06-13.06,23.68-2.53,27.1,.1,17.17,13.2,25.87,26.8,37.37,45.15,3.31,5.21,10.27,2.97,5.55-6.11-.35-.68-.71-1.36-1.07-2.03-8.1-15.01-17.93-27.17-30.68-38.73-4.24-3.85-8.77-7.49-14-9.84-1.84-.83-5.63-1.97-10-2.42-8.06-.82-18.05,.72-21.21,11-1.81,5.9,4.13,8.3,6.94,2.87Z"/><path class="cls-2" d="M243.61,304.52c-.84,1.62-1.72,3.21-2.63,4.79-13.85-5.35-29.01-6.99-43.8-4.73,.37-1.52,.76-3.11,1.18-4.75,15.03-3.59,31.25-1.81,45.25,4.69Z"/><path class="cls-29" d="M252.18,314.62c-3.61-2.05-7.35-3.83-11.2-5.31,.91-1.58,1.79-3.18,2.63-4.79,3.41,1.58,6.7,3.44,9.8,5.58-.41,1.51-.82,3.02-1.23,4.53Z"/><path class="cls-1" d="M217.3,113.93c17.17,13.2,25.87,26.8,37.37,45.15,3.31,5.21,10.27,2.97,5.55-6.11-.35-.68-.71-1.36-1.07-2.03-4.05-1.66-7.75-4.43-10.82-7.57-5.26-5.39-9.18-11.92-13.95-17.75-6.79-8.28-15.36-15.09-24.96-19.84-1.92-.95-4.06-2-4.86-3.99-.23-.58-.24-1.23-.08-1.84-8.06-.82-18.05,.72-21.21,11-.22,.71-.32,1.36-.34,1.96,20.78-11.46,30.95-1.62,34.37,1.01Z"/><g><path class="cls-7" d="M213.69,207.83c.55,.72,1.2,1.36,1.96,1.85,1.51,.98,3.52,1.3,5.13,.51,.79-.39,4.45-2.5,8.64-2.82,3.37-.26,6.55-4.9,3.22-5.43-.07-.01-3.47-.54-3.54-.56-1.27-.2-1.97-.38-3.26-.39-4.62-.03-9.46,2.37-13.32,4.93,.33,.67,.72,1.31,1.17,1.9Z"/><g><g><g><path class="cls-7" d="M225.72,239.9c2.53,.06,5.09-.13,7.44-.64,5.46-1.18,4.87-26.82-.72-27.56-10.51-1.39-10.09-5.46-19.29-7.1-.06-.01-.13-.02-.19-.03-3.1,8.7-6.12,22.21-2.11,30.74,1.58,2.51,8.11,4.45,14.87,4.6Z"/><path class="cls-7" d="M246.39,210.92c-2.56-.16-5.04,.38-7.59,.71-4.25,.56-7.86-.15-13.22-1.52-1.12,2.08,.62,5.9,2.52,6.99,1.64,.95,3.61,1.13,5.51,1.19,5.62,.19,11.27-.46,16.7-1.91,.16-.04,2.25-5.08-3.92-5.46Z"/><path class="cls-7" d="M255.43,223.08c0-.27,.45-4.21-4.98-4.59-2.56-.18-5.04,.38-7.59,.71-4.25,.56-8.67-1.15-12.82-.1-1.12,2.08,.22,4.48,2.12,5.57,1.64,.95,3.61,1.13,5.51,1.19,5.62,.19,11.27-.46,16.7-1.91,.16-.04,1.05-.55,1.06-.87Z"/><path class="cls-7" d="M248.91,226.18c-2.31-.02-4.54,.34-6.84,.64-3.84,.5-7.82-1.04-11.55-.09-1.01,1.88,.2,4.04,1.91,5.02,1.48,.85,3.25,1.02,4.96,1.07,5.07,.17,10.16-.41,15.06-1.72,.14-.04,2.76-4.86-3.54-4.92Z"/><path class="cls-7" d="M246.55,233.12c-2.17-.12-4.26,.32-6.41,.6-3.6,.47-7.33-.97-10.84-.09-.95,1.76,.19,3.79,1.79,4.71,1.39,.8,3.05,.95,4.66,1.01,4.75,.16,9.53-.39,14.12-1.61,.13-.04,2.64-4.3-3.32-4.62Z"/></g><path class="cls-35" d="M225.72,239.9c.98-2.36,1.62-4.86,1.88-7.4,.58-5.62-.7-11.42-3.6-16.28-2.73-4.58-6.75-8.19-10.85-11.63-.06-.01-.13-.02-.19-.03-3.1,8.7-6.12,22.21-2.11,30.74,1.58,2.51,8.11,4.45,14.87,4.6Z"/></g><path class="cls-32" d="M153.36,203.32c7.51,17.71,32.3,32.3,58.94,38.43,6.31-.02,6.94-6.97,8.66-12.49,2.28-9.27,2.4-20.23-6.06-24.83-.28,.19-14.91-4.73-19.03-10.9-4.83-6.47-2.58-15.62,.84-22.65,.76-1.57,1.47-2.85,1.99-3.77-.26-.24-.6-.69-.97-1.06-8.01-8.55-17.59-15.75-28.13-20.64-2.85-1.06-2.87-2.33-4.24,.61-9.11,16.67-17.02,41.09-12,57.3Z"/><path class="cls-7" d="M153.36,203.32c7.49,17.68,32.25,32.29,58.94,38.43,6.35-.02,6.99-7.09,8.73-12.78-22.59-.71-45.9-16.79-50.81-39.23-.33-1.52-.53-3.07-.61-4.61-.11-2.16,.02-4.31,.37-6.41,1.74-10.3,8.93-19.25,20-20.1-6.07-5.2-12.96-9.77-20.14-13.1-1.11-.52-2.22-1-3.35-1.46-.14,.27-.34,.56-.57,.98-9.47,16.81-17.64,41.94-12.56,58.28Z"/><path class="cls-32" d="M163.65,148.15c7.72,8.73,18.37,16.89,28.9,21.73,2.64,1.21,5.77,.42,7.48-1.93,.17-.23,.33-.46,.49-.69,8.33-11.78,13.11-26.07,13.43-40.51,.17-7.5-1.83-16.41-8.79-19.2-2.78-1.12-5.74-.99-8.62-.14-2.94,.86-5.8,2.46-8.32,4.22l-.2,.14c-10.27,7.3-20.26,15.76-25.66,26.89-1.52,3.14-1.03,6.89,1.28,9.5Z"/><path class="cls-7" d="M163.65,148.15c7.72,8.73,18.37,16.89,28.9,21.73,2.64,1.21,5.77,.42,7.48-1.93,.17-.23,.33-.46,.49-.69-10.64-1.76-19.98-10.33-22.35-20.9-2.03-9.1,.82-18.82,6.13-26.48,3.34-4.81,7.57-8.9,12.23-12.48-2.94,.86-5.8,2.46-8.32,4.22l-.2,.14c-10.27,7.3-20.26,15.76-25.66,26.89-1.52,3.14-1.03,6.89,1.28,9.5Z"/></g><path class="cls-2" d="M169.6,185.13h.02c7.76,3.13,16.06,4.85,24.37,4.83-.74-2.08-.98-4.26-.88-6.43-7.92-.15-15.8-1.81-23.13-4.82-.35,2.1-.48,4.26-.37,6.41Z"/><path class="cls-29" d="M153.78,176.2c4.84,3.63,10.18,6.65,15.82,8.93-.11-2.16,.02-4.31,.37-6.41h0c-5.23-2.15-10.18-4.97-14.66-8.42-.07,.25-.14,.49-.21,.74-.06,.2-.11,.4-.17,.61-.15,.55-.3,1.09-.44,1.64-.09,.34-.17,.67-.26,1.01-.16,.64-.31,1.27-.45,1.91Z"/></g><g><path class="cls-7" d="M264.23,418.08s20.11,12.32,64.24,1.96"/><path class="cls-28" d="M295.44,427.45c-21.8,0-32.31-6.22-32.92-6.6-1.53-.94-2.01-2.94-1.07-4.47,.93-1.52,2.93-2.01,4.46-1.08,.19,.11,19.8,11.44,61.81,1.58,1.74-.42,3.5,.67,3.91,2.42,.41,1.75-.68,3.5-2.42,3.91-13.34,3.13-24.56,4.24-33.76,4.24Z"/></g></g><g><g><path class="cls-9" d="M325.95,176.28c-11.11-3.04-26.67-4.93-43.9-4.93s-32.79,1.89-43.9,4.93h-17.23v14.1c0,8.95,27.37,16.2,61.14,16.2s61.14-7.26,61.14-16.2v-14.1h-17.23Z"/><ellipse class="cls-15" cx="282.05" cy="176.28" rx="61.14" ry="16.2"/></g><g><path class="cls-5" d="M304.91,164.22c-5.43-.66-11.29-1.08-17.31-1.24-28.27-.76-53.68,4.28-56.74,11.24-2.91,6.6,15.28,12.57,41.26,13.82,1.43,.07,2.89,.13,4.37,.16,28.27,.76,53.68-4.28,56.74-11.24,2.4-5.44-9.53-10.44-28.32-12.74Z"/><path class="cls-24" d="M287.67,165.09c6.09,.16,12.01,.59,17.5,1.26,15.09,1.84,25.79,5.41,28.35,9.56,.53-5.02-11.03-9.54-28.61-11.69-5.43-.66-11.29-1.08-17.31-1.24-28.27-.76-53.68,4.28-56.74,11.24-.25,.57-.34,1.14-.29,1.71,4.13-6.76,29.24-11.58,57.09-10.83Z"/><g><path class="cls-24" d="M301,177.85c-1.24,.91-3.08,1.64-5.5,2.17-2.43,.54-5.36,.8-8.81,.8h-4.89l.3,5.63-16.07,.02,2.02-17.78h18.64c5.21,0,9.21,.55,11.99,1.66,2.78,1.11,4.18,2.59,4.18,4.44,0,1.12-.62,2.14-1.86,3.05Zm-11.67-3.05c0-1.09-1.38-1.63-4.15-1.63h-3.79l.17,3.26h3.62c2.77,0,4.15-.54,4.15-1.63Z"/><path class="cls-15" d="M301,175.88c-1.24,.91-3.08,1.64-5.5,2.17-2.43,.54-5.36,.8-8.81,.8h-4.89l.3,5.63-16.07,.02,2.02-17.78h18.64c5.21,0,9.21,.55,11.99,1.66,2.78,1.11,4.18,2.59,4.18,4.44,0,1.12-.62,2.14-1.86,3.05Zm-11.67-3.05c0-1.09-1.38-1.63-4.15-1.63h-3.79l.17,3.26h3.62c2.77,0,4.15-.54,4.15-1.63Z"/></g></g><g class="cls-17"><path class="cls-14" d="M336.26,168.79l-87.62,21.07c4,.69,8.33,1.27,12.9,1.7l79.83-19.2c-1.18-1.25-2.91-2.45-5.11-3.57Z"/><path class="cls-14" d="M301.06,160.88l-78.7,18.92c2.86,3.43,9.81,6.44,19.42,8.67l89.96-21.63c-7.5-2.77-18.21-4.89-30.69-5.97Z"/></g></g><g><g><path class="cls-9" d="M323.95,159.28c-11.11-3.04-26.67-4.93-43.9-4.93s-32.79,1.89-43.9,4.93h-17.23v14.1c0,8.95,27.37,16.2,61.14,16.2s61.14-7.26,61.14-16.2v-14.1h-17.23Z"/><ellipse class="cls-15" cx="280.05" cy="159.28" rx="61.14" ry="16.2"/></g><g><path class="cls-5" d="M302.91,147.22c-5.43-.66-11.29-1.08-17.31-1.24-28.27-.76-53.68,4.28-56.74,11.24-2.91,6.6,15.28,12.57,41.26,13.82,1.43,.07,2.89,.13,4.37,.16,28.27,.76,53.68-4.28,56.74-11.24,2.4-5.44-9.53-10.44-28.32-12.74Z"/><path class="cls-24" d="M285.67,148.09c6.09,.16,12.01,.59,17.5,1.26,15.09,1.84,25.79,5.41,28.35,9.56,.53-5.02-11.03-9.54-28.61-11.69-5.43-.66-11.29-1.08-17.31-1.24-28.27-.76-53.68,4.28-56.74,11.24-.25,.57-.34,1.14-.29,1.71,4.13-6.76,29.24-11.58,57.09-10.83Z"/><g><path class="cls-24" d="M299,160.85c-1.24,.91-3.08,1.64-5.5,2.17-2.43,.54-5.36,.8-8.81,.8h-4.89l.3,5.63-16.07,.02,2.02-17.78h18.64c5.21,0,9.21,.55,11.99,1.66,2.78,1.11,4.18,2.59,4.18,4.44,0,1.12-.62,2.14-1.86,3.05Zm-11.67-3.05c0-1.09-1.38-1.63-4.15-1.63h-3.79l.17,3.26h3.62c2.77,0,4.15-.54,4.15-1.63Z"/><path class="cls-15" d="M299,158.88c-1.24,.91-3.08,1.64-5.5,2.17-2.43,.54-5.36,.8-8.81,.8h-4.89l.3,5.63-16.07,.02,2.02-17.78h18.64c5.21,0,9.21,.55,11.99,1.66,2.78,1.11,4.18,2.59,4.18,4.44,0,1.12-.62,2.14-1.86,3.05Zm-11.67-3.05c0-1.09-1.38-1.63-4.15-1.63h-3.79l.17,3.26h3.62c2.77,0,4.15-.54,4.15-1.63Z"/></g></g><g class="cls-17"><path class="cls-14" d="M334.26,151.79l-87.62,21.07c4,.69,8.33,1.27,12.9,1.7l79.83-19.2c-1.18-1.25-2.91-2.45-5.11-3.57Z"/><path class="cls-14" d="M299.06,143.88l-78.7,18.92c2.86,3.43,9.81,6.44,19.42,8.67l89.96-21.63c-7.5-2.77-18.21-4.89-30.69-5.97Z"/></g></g><g><g><path class="cls-9" d="M317.95,142.28c-11.11-3.04-26.67-4.93-43.9-4.93s-32.79,1.89-43.9,4.93h-17.23v14.1c0,8.95,27.37,16.2,61.14,16.2s61.14-7.26,61.14-16.2v-14.1h-17.23Z"/><ellipse class="cls-15" cx="274.05" cy="142.28" rx="61.14" ry="16.2"/></g><g><path class="cls-5" d="M296.91,130.22c-5.43-.66-11.29-1.08-17.31-1.24-28.27-.76-53.68,4.28-56.74,11.24-2.91,6.6,15.28,12.57,41.26,13.82,1.43,.07,2.89,.13,4.37,.16,28.27,.76,53.68-4.28,56.74-11.24,2.4-5.44-9.53-10.44-28.32-12.74Z"/><path class="cls-24" d="M279.67,131.09c6.09,.16,12.01,.59,17.5,1.26,15.09,1.84,25.79,5.41,28.35,9.56,.53-5.02-11.03-9.54-28.61-11.69-5.43-.66-11.29-1.08-17.31-1.24-28.27-.76-53.68,4.28-56.74,11.24-.25,.57-.34,1.14-.29,1.71,4.13-6.76,29.24-11.58,57.09-10.83Z"/><g><path class="cls-24" d="M293.64,143.85c-1.5,.91-3.55,1.64-6.12,2.17-2.58,.54-5.59,.8-9.04,.8h-4.89l-1.32,5.63-16.07,.02,7.12-17.78h18.64c5.21,0,9.05,.55,11.52,1.66,2.47,1.11,3.44,2.59,2.9,4.44-.32,1.12-1.23,2.14-2.74,3.05Zm-10.79-3.05c.31-1.09-.91-1.63-3.68-1.63h-3.79l-.76,3.26h3.62c2.77,0,4.31-.54,4.62-1.63Z"/><path class="cls-15" d="M294.21,141.88c-1.5,.91-3.55,1.64-6.12,2.17-2.58,.54-5.59,.8-9.04,.8h-4.89l-1.32,5.63-16.07,.02,7.12-17.78h18.64c5.21,0,9.05,.55,11.52,1.66,2.47,1.11,3.44,2.59,2.9,4.44-.32,1.12-1.23,2.14-2.74,3.05Zm-10.79-3.05c.31-1.09-.91-1.63-3.68-1.63h-3.79l-.76,3.26h3.62c2.77,0,4.31-.54,4.62-1.63Z"/></g></g><g class="cls-17"><path class="cls-14" d="M328.26,134.79l-87.62,21.07c4,.69,8.33,1.27,12.9,1.7l79.83-19.2c-1.18-1.25-2.91-2.45-5.11-3.57Z"/><path class="cls-14" d="M293.06,126.88l-78.7,18.92c2.86,3.43,9.81,6.44,19.42,8.67l89.96-21.63c-7.5-2.77-18.21-4.89-30.69-5.97Z"/></g></g></g></svg>