<?xml version="1.0" encoding="UTF-8"?><svg xmlns="http://www.w3.org/2000/svg" viewBox="0 0 500 500"><defs><style>.cls-1{fill:#939393;}.cls-2{fill:#ffb300;}.cls-3{fill:#fff;}.cls-4{fill:#faf4e6;}.cls-5{fill:#d1d1d1;}.cls-6{fill:#dbdbdb;}.cls-7{fill:#023044;opacity:.7;}.cls-8{fill:#7fcdee;}.cls-9{fill:#e6646e;}.cls-10{opacity:.6;}.cls-11{fill:#845730;}.cls-12{opacity:.06;}.cls-13{fill:#63ce63;}.cls-14{fill:#c7c8c9;}.cls-15{opacity:.8;}.cls-16{fill:#b2e1f5;}.cls-17{isolation:isolate;opacity:.35;}.cls-17,.cls-18{fill:#4e3f3f;}.cls-19{fill:#7c7b7b;}.cls-20{fill:#b77834;}.cls-21{fill:#5d5360;}.cls-22{fill:#ffd54f;}.cls-23{fill:#aaa;}.cls-24{fill:#c11b17;}.cls-25{fill:#f9ab6d;}.cls-26{fill:#a16552;}.cls-27{fill:#999;}.cls-28{fill:#d89000;}.cls-29{fill:#f5dcb4;}.cls-30{fill:#efefef;}.cls-31{fill:#e1f4fd;}.cls-32{fill:#c9e3f4;opacity:.63;}.cls-33{fill:#7f7f7f;}.cls-34{fill:#c6c6c6;}.cls-35{fill:#8c5648;}.cls-36{fill:#f3fbfe;}.cls-37{fill:#ee3224;}</style></defs><g id="Laag_2"><ellipse class="cls-8" cx="250" cy="432.55" rx="160.5" ry="50"/><ellipse class="cls-16" cx="250" cy="429.77" rx="154.06" ry="44.65"/><g class="cls-15"><g><path class="cls-36" d="M96.75,365.09s-16.89-2.53-17.67,14.9c-.78,17.43,18.23,10.63,18.23,10.63,0,0,.5,22.87,28.15,12.86,0,0,14.45,23.37,46.56,5.25,0,0,38.05,14.09,35.55-20.31,0,0,14.09,7.04,14.27-10.97,.19-18-22.32-11.7-22.32-11.7,0,0-1.69-24.35-25.26-13.38,0,0,.12-19.16-24.66-11.65-24.78,7.51-23.43,16.19-23.43,16.19,0,0-14.98-21.15-29.43,8.19Z"/><path class="cls-31" d="M96.75,365.09s-16.89-2.53-17.67,14.9c-.78,17.43,18.23,10.63,18.23,10.63,0,0,.5,22.87,28.15,12.86,0,0,14.45,23.37,46.56,5.25,0,0,38.05,14.09,35.55-20.31,0,0,14.09,7.04,14.27-10.97,.19-18-22.32-11.7-22.32-11.7,0,0,18.43,1.86,15.83,13.47-2.6,11.61-15.63,5.85-15.63,5.85,4.2,23.14-17.94,12.86-17.94,12.86-31.72,24.33-53.8-5.96-53.8-5.96,0,0-16.22,1.34-30.81-7.23-14.59-8.57-.43-19.64-.43-19.64Z"/><path class="cls-31" d="M199.53,365.74c-14.13-.77-20.04,3.49-22.48,6.69,2.04-5.04,3.77-14.38-9.73-17.27-18.8-4.02-23.06,3.79-24.93,8.34,0,0-3.35-6.67-15.84-3.72-9.61,2.27-7.58,10.28-6.13,13.85-2.17-4.08-8.98-13.55-23.66-8.54,0,0-9.95,.8-8.71,12.54,1.24,11.74,15.99,10.42,15.99,10.42,0,0,2.76,13.73,23.96,3.91,0,0,5.98,16.58,22.05,17.49,29.06,1.64,24.92-4.17,23.22-5.81,1.74,1.42,7.68,5.38,8.53-5.72,0,0,7.85,9.92,18,1.08,0,0,8.01-5.16-.06-13.94,0,0,15.34,7.2,15.63-5.85,0,0,6.33-12.27-15.83-13.47Z"/><path class="cls-31" d="M96.49,365.09s-25.08,26.3,11.13,22.87c0,0-25.84,1.23-11.13-22.87Z"/><path class="cls-31" d="M106.3,379.71s-2.61,10.99,7.27,14.63c9.18,3.39,14.37,1.56,14.37,1.56,0,0,3.73,7.06,22.03,10.84,0,0-18.77-7.53-20.82-20.13,0,0-17.99,13.01-22.85-6.9Z"/><path class="cls-31" d="M170.46,397.55s6.87,21.44,11.41,4.08c0,0,22.05,6.15,17.86-16.57,0,0-3.71,21.65-18.2,12.24,0,0-2.79,8.81-11.07,.24Z"/><path class="cls-31" d="M189.57,370.67s30.19-7.16,27.76,6.61c-2.43,13.76-21.19,2.36-21.19,2.36,0,0,14.48,5.41,14.53-3.58,.05-8.99-21.1-5.39-21.1-5.39Z"/><path class="cls-36" d="M141.94,354.38s16.62-5.4,21.13,9.25c0,0-5.87-9.39-21.13-9.25Z"/><path class="cls-36" d="M119.41,359.93s13.11-8.45,20.82,6.4c0,0-6.9-10.16-20.82-6.4Z"/><path class="cls-36" d="M117.29,364.05s11.65-7.56,20.53,4.55c0,0-11.25-7.79-20.53-4.55Z"/><path class="cls-36" d="M102.43,360.3s14.23-2.63,15.08,13.91c0,0-2.67-9.47-15.08-13.91Z"/><path class="cls-36" d="M169.61,358.72s10,7.1,5.79,16.99c0,0,1.35-5.89-5.79-16.99Z"/><path class="cls-36" d="M180.05,374.82s-1.88-7.37,14.35-8.08c0,0-11.52,2.12-14.35,8.08Z"/></g><g><path class="cls-36" d="M189.5,372.74s-15.05-2.53-9.34,14.01c5.71,16.54,146.59,14.88,141.95-1.2-4.64-16.08-13.28-5.9-13.28-5.9,0,0,5.31-8.68-9.87-6.92,0,0-1.33-14.73-16.25-12.97-14.92,1.75-12.85,9.33-12.85,9.33,0,0-.14-6.19-4.39-4.66,0,0,8.02-14.93-15.62-12.51,0,0,2.97-21.49-21.26-19.53-24.24,1.96-23.81,21.47-23.81,21.47,0,0-24.01-3-15.29,18.9Z"/><path class="cls-31" d="M322.21,386.52l-26.95-5.11-21.65,.47-18.57-8.71-58.08,4.92-17.96,.39c-.34,2.01-.08,4.69,1.15,8.26,5.6,16.2,140.84,14.94,142.05-.23Z"/><path class="cls-31" d="M238.69,385.1c15.17,3.65,21.37-3.36,21.37-3.36,12.51,11.98,25.04,4.48,25.04,4.48,0,0,3.66,8.7,17.22,8.68,11.05-1.86,18.58-4.43,19.75-7.7h0c-4.4-9.92-14.78-6.5-14.78-6.5-.62-8.3-11.02-3.7-11.02-3.7-8.66-16-27.68-1.58-27.68-1.58-2.61-15.47-20.58-14.43-20.58-14.43-21.31-24.04-37.79,2.6-37.79,2.6-5.51-7.87-15.13-6.48-21.32-4.48-1.68,2.84-1.98,7.13,.6,13.61,0,0-15.05-2.53-9.34,14.01,26.19,14.28,58.52-1.65,58.52-1.65Z"/><path class="cls-36" d="M215.47,363.49s4.93-9.69,15.11-9.32c10.18,.37,14.44,9.97,14.44,9.97,0,0,10-2.84,15.59,2.72,0,0-12.76-3.44-15.96,.35,0,0-6.15-11.02-14.44-9.97-8.29,1.06-14.74,6.25-14.74,6.25Z"/><path class="cls-36" d="M207.21,366.12s-2.33-6.38-16.29-4.42c0,0,10.06,.02,16.29,4.42Z"/><path class="cls-36" d="M294.59,380.33s3.84-4.68,8.27-2.15c4.43,2.53,3.2,6.49,3.2,6.49,0,0-.83-2.83-4.7-4.71-3.87-1.88-6.77,.37-6.77,.37Z"/><path class="cls-36" d="M309.32,383.56s7.07-4.92,12.75,3.66c0,0-4.9-5.1-12.75-3.66Z"/><path class="cls-31" d="M186.57,382.7s8.1,10.32,24.02,8.01c15.92-2.32,21.9-9.01,21.9-9.01,0,0-9.09,4.46-22.2,5.35-13.11,.89-23.72-4.34-23.72-4.34Z"/><path class="cls-31" d="M253.15,375.99s.8,6.19,7.85,8.63c7.05,2.44,11.12-1.55,11.12-1.55,0,0-6.33,.58-11.21-2.4-4.88-2.99-7.76-4.67-7.76-4.67Z"/><path class="cls-31" d="M292.45,381.91s-.51,11.3,8.05,12.58c8.56,1.28,15.32-2.88,15.32-2.88,0,0-9.02,2.45-15.02-.48-6-2.93-8.36-9.22-8.36-9.22Z"/></g><g><path class="cls-36" d="M221.68,403.47s-21.92,4.53-.36,10.62c21.57,6.09,22.95-5.81,22.95-5.81,0,0,11.34,20.22,32.12,.29,0,0-2.81,6.02,10.05,4.1,0,0,22.35,19.25,48.09-4.31,0,0,7.57,8.57,13.16,1.61,0,0,5.89,6.71,10.66-.23,0,0,13.21,14.76,27.35-.6,0,0,14.66,8.16,20.22-.44,0,0,11.33,1.12,12.53-4.65,0,0,7.05,5.32,7.44-1.8,.39-7.12-6.49-3.08-6.49-3.08,0,0,4.76-7.27-3.29-6.68,0,0,8.82-2.93,3-12.78-5.82-9.86-15.52-3.22-15.52-3.22,0,0,5.3-14.06-11.42-9.6,0,0,7.57-10.15-2.91-20.45-10.48-10.3-24.64-.97-24.64-.97,0,0-1.62-5.43-8.94-2.27,0,0-1.24-12.69-16.38-11.13-15.15,1.56-17.96,10.65-17.96,10.65,0,0-14.17-16.27-38.36-9.5-24.19,6.77-24.6,31.94-24.6,31.94,0,0-10.14-7.3-23.49,7.63-13.35,14.92-3.38,20.45-3.38,20.45,0,0-15.96-5.56-9.82,10.25Z"/><g><path class="cls-31" d="M231.49,393.22l-1.88-1.71c.92,1.18,1.88,1.71,1.88,1.71Z"/><path class="cls-31" d="M418.45,404.03s7.05,5.32,7.44-1.8c.39-7.12-6.49-3.08-6.49-3.08,0,0,4.76-7.27-3.29-6.68l-2.14,2.23-14.48-5.83-109.38,7.08-58.61-2.72s-15.96-5.56-9.82,10.25c0,0-21.92,4.53-.36,10.62,21.57,6.09,22.95-5.81,22.95-5.81,0,0,11.34,20.22,32.12,.29,0,0-2.81,6.02,10.05,4.1,0,0,22.35,19.25,48.09-4.31,0,0,7.57,8.57,13.16,1.61,0,0,5.89,6.71,10.66-.23,0,0,13.21,14.76,27.35-.6,0,0,14.66,8.16,20.22-.44,0,0,11.33,1.12,12.53-4.65Z"/></g><path class="cls-31" d="M231.49,393.22s-6.47-.25-7.86,3c-1.39,3.25,2.54,9.02,2.54,9.02,0,0-7.88-.71-8.42,3.41-.54,4.11,22.41,6.83,25.62-6.71,0,0,19.39,16.1,33.96-.39,0,0,32.67,21.02,57.37-1.26,0,0,9.91,11.43,23.81,3.81,0,0,18.42,12.04,25.38-4.73,0,0,20.51,13.68,30.19,1.17,0,0,6.93-4.54-.13-5.85,0,0,6.04-18.58-13.21-14.65,0,0-2.81-13.12-24.53-12.64-21.72,.48-26.37,15.22-26.37,15.22,0,0,15.41-31.67-10.05-30.82-25.46,.85-18.74,26.85-18.74,26.85,0,0-5.17-35.7-34.59-28.32-29.42,7.38-20.48,27.68-20.48,27.68,0,0-25.82-17.4-34.5,15.2Z"/><path class="cls-36" d="M265.99,378.02s2.72-22.9,28.73-25.23c0,0-19.8,5.41-28.73,25.23Z"/><path class="cls-36" d="M265.99,378.02s-27.11-7.61-31.59,15.33c0,0,6.97-16.26,31.59-15.33Z"/><path class="cls-36" d="M336.06,381.46s-.26-10.18-15.67-6.07c-15.41,4.11-9.95,12.78-9.95,12.78,0,0,2.17-8.09,10.63-9.52,8.46-1.44,11.4-1.21,15,2.81Z"/><path class="cls-36" d="M353.71,371.27s1.89-20.4-22.25-13.13c0,0,18.11-2.15,22.25,13.13Z"/><path class="cls-36" d="M376.5,380.03s12.91-9.98,24.25,.02c11.35,10-.75,19.05-.75,19.05,0,0,8.79-13.05-1.55-17.38-10.34-4.33-21.95-1.7-21.95-1.7Z"/><path class="cls-31" d="M266.39,396.26s.19,8.48,10.98,6.72c10.8-1.76,12.04-11.9,12.04-11.9,0,0-10.73,18.23-23.02,5.19Z"/><path class="cls-31" d="M233.02,396.8s-7.87,2.15-3.11,8.08c4.76,5.92,26.53-8.59,26.53-8.59,0,0-15.63,8.34-21.82,6.43-6.19-1.9-1.59-5.92-1.59-5.92Z"/><path class="cls-31" d="M297.55,401.34s19.55,10.21,35.87-6.74c0,0-11.42,26.71-35.87,6.74Z"/><path class="cls-31" d="M360.87,395.12s22.23,10.53,31.88-1.75c0,0-13.61,20.65-31.88,1.75Z"/></g></g></g><g id="Laag_1"><ellipse class="cls-12" cx="250" cy="429.77" rx="115" ry="27.5"/><g><path class="cls-6" d="M160.17,340.66c.77,.11,1.56,.21,2.35,.29,16.43,1.72,39.74-5.3,57.44-48.54,9.92-24.24,13.56-48.7,13.71-49.73,.56-3.85-2.1-7.42-5.95-7.98h-.01c-3.84-.55-7.4,2.11-7.96,5.95-.06,.37-3.61,24.05-12.89,46.63-5.29,12.87-11.34,22.81-17.99,29.56-7.64,7.75-15.78,11.06-24.87,10.11-20.59-2.15-24.99-15.4-30.44-36.83-4.47-17.59-9.55-37.52-30.92-45.58-3.64-1.37-7.7,.46-9.07,4.1-1.37,3.64,.46,7.7,4.1,9.07,14.51,5.48,18.1,19.57,22.25,35.89,2.61,10.27,5.31,20.89,11.18,29.6,6.65,9.87,16.18,15.6,29.08,17.46Z"/><g><path class="cls-14" d="M233.31,244.93c.24-1.41,.36-2.21,.36-2.25l-13.92-2.03s-.1,.69-.31,1.92l13.87,2.36Z"/><path class="cls-14" d="M154.12,339.44l3.62-13.6c1.07,.28,2.2,.53,3.37,.73l-2.36,13.87c-1.59-.27-3.14-.61-4.62-1Zm20.62-13.48c1.02-.31,2.04-.7,3.04-1.14l5.72,12.86c-1.51,.67-3.06,1.25-4.61,1.73l-4.14-13.45Zm-41.79-.2l11.07-8.69c.67,.86,1.39,1.66,2.13,2.39l-9.88,10.02c-1.16-1.15-2.28-2.4-3.32-3.72Zm56.36-9.37c.82-.85,1.64-1.76,2.44-2.71l10.76,9.07c-1,1.18-2.02,2.32-3.05,3.4l-10.15-9.75Zm-66.52-12.06l13.49-4.01c.39,1.32,.77,2.51,1.16,3.66l-13.33,4.52c-.45-1.32-.88-2.68-1.32-4.17Zm77.72-3.68c.61-1.1,1.22-2.26,1.81-3.42l12.55,6.37c-.66,1.31-1.35,2.6-2.03,3.84l-12.33-6.79Zm-83.22-16.85l13.5-3.96c.37,1.26,.75,2.61,1.15,4.11l-13.59,3.65c-.38-1.4-.72-2.64-1.06-3.8Zm91.54-1.55c.45-1.22,.91-2.47,1.35-3.72l13.28,4.64c-.47,1.35-.96,2.7-1.45,4.01l-13.18-4.92Zm-99.14-15.47l11.32-8.36c.93,1.26,1.82,2.61,2.66,4.02l-12.12,7.15c-.59-1-1.21-1.95-1.86-2.82Zm105.33-4.11c.34-1.27,.67-2.57,.99-3.87l13.66,3.39c-.34,1.37-.69,2.75-1.05,4.1l-13.6-3.61Z"/><path class="cls-14" d="M99.24,258.36l5.71-12.86c-.75-.33-1.54-.66-2.33-.95l-4.97,13.17c.54,.2,1.07,.42,1.58,.65Z"/></g><g><path class="cls-30" d="M343.93,169.36c1.04,1.02,1.65,1.9,1.62,2.59-.15,4.68-6.51,36.53-6.55,36.91,9.42,.79,23.5,4.62,34.29,4.81,.61,.06,.57-.13,.84-.87,1.24-3.26,2.39-6.68,3.38-10.24,3.56-12.67,5.61-27.26,2.79-39.36-1.87-9.15-7.36-15.62-14.78-22.11-.92-.8-1.87-1.61-2.85-2.42-.26-.21-.51-.41-.77-.62-6.09-4.9-10.92-8.69-17.52-12.83-1.22-1.28-1.82,1.29-2.75,2.03-3.54,4.61-6.89,8.96-10.09,13.77-2.81,4.34-4.42,8.93-6.23,13.6,2.06,1.52,13.52,10.63,14.79,11.58,1.53,1.14,2.86,2.2,3.82,3.15Z"/><path class="cls-6" d="M336.29,207.31c7.31,.65,20.91,4.71,29.82,5.83,3.16-.11,5.89-.12,7.89,.02h0c.05-.12,.09-.23,.14-.35,.11-.29,.22-.58,.33-.88,.08-.22,.17-.45,.25-.68,.21-.58,.42-1.16,.63-1.76,.08-.22,.15-.45,.23-.67,.11-.31,.21-.63,.32-.94,.06-.18,.12-.37,.18-.56,.15-.47,.31-.94,.45-1.42,.12-.4,.25-.8,.37-1.21,.09-.31,.18-.61,.27-.92,.09-.31,.18-.62,.27-.93,.08-.27,.16-.55,.23-.83s.15-.55,.23-.83c.04-.15,.08-.29,.11-.44,.06-.23,.12-.47,.18-.7,.12-.46,.24-.93,.35-1.4,.6-2.44,1.13-4.91,1.58-7.38-8.17-8.94-19.24-14.61-23.26-16.8,.23-4.47-2.06-9.16-4.76-13-1.04-1.48-2.14-2.83-3.19-4.01-.06-.06-.12-.13-.18-.19-7.32-7.86-3.33-20.09,2.64-27.35-.5-.37-7.05-4.99-7.17-5.07-.05,.07-19.48,28.03-20.42,30.13,2.6,1.93,10.78,7.03,16.33,11.24,.16,.12,.33,.24,.48,.36,.02,.02,.04,.03,.07,.05,.07,.05,.13,.1,.2,.15,2.74,2.13,4.49,3.87,4.68,4.97,0,.07-9.21,35.18-9.25,35.56Z"/></g><path class="cls-14" d="M173.88,189.38c.39,7.04,1.09,14.8,6.12,20.3,5.74,6.26,14.88,7.22,22.93,7.38,22.14,.44,43.98-1.51,65.78-3.45,2.35-.21,4.77-.44,6.74-1.58,3.51-2.03,4.75-6.4,5.52-10.47,3.68-19.49,2.34-40.07,.98-60.4-1.36-20.5-2.73-41.01-4.57-61.53-.07-.74-.13-1.59-.2-2.52-.34-4.35-.85-10.26-2.62-13.45-6.93-12.44-28.45-8.75-39.07-8.91-16.2-.24-36.33,2.33-52.41,2.99-2.88,.12-5.91,.3-8.13,1.92-.66,.48-1.21,1.05-1.67,1.7-1.59,2.22-2.13,5.29-2.51,8.16-5.18,38.75,.88,80.02,3.11,119.86Z"/><g><path class="cls-30" d="M294.38,127.44c1.29,2.43,2.82,4.76,4.44,6.97,7.38,10.15,16.66,18.91,27.2,25.71,1.66,1.07,3.83,.87,5.28-.48,6.72-6.26,11.76-17.25,15.01-26.91,.52-1.55,1-3.07,1.43-4.52,.61-2.09,.05-4.34-1.49-5.87-9.74-9.68-21.32-15.94-31.86-19.18-5.8-1.78-11.28-2.65-15.97-2.68-5.59,3.08-8.14,10.13-7.46,16.49,.39,3.69,1.68,7.18,3.42,10.47Z"/><path class="cls-6" d="M289.76,131.99c1.29,2.43,2.82,4.76,4.44,6.97,7.38,10.15,16.03,17.37,27.51,22.43,5.04,2.22,8.14-.4,9.59-1.74,6.72-6.26,11.76-17.25,15.01-26.91-1.28,.8-2.83,1.23-4.34,1.22-3.13-.03-6.04-1.57-8.63-3.33-9.4-6.41-16.17-16.45-18.96-27.46-5.8-1.78-11.28-2.65-15.97-2.68-5.59,3.08-8.14,10.13-7.46,16.49,.39,3.69-2.94,11.73-1.19,15.02Z"/></g><g><path class="cls-6" d="M282.84,243.43c.1,6.42,3.82,15.6,9.75,18.08,14.94,6.25,29.65,8.82,45.74,10.75,2.7,.32,5.61,.57,8.6,.73,1.33,.07,2.67,.13,4.01,.17,2.01,.06,4.03,.07,6.02,.03,.72-.01,1.43-.03,2.14-.06,.55-.02,1.1-.05,1.64-.08,.36-.02,.73-.04,1.08-.07,1.12-.08,2.21-.17,3.28-.29,.17-.02,.35-.04,.52-.06,6.78-.8,12.21-2.49,14.12-5.45,1.57-2.42,1.4-9.21-.2-11.61-.45-.68-.98-1.3-1.56-1.88-.11-.11-.22-.21-.33-.31-.68-.64-1.42-1.22-2.19-1.76,.06-3.79,.05-7.59,.17-11.38,.28-9.02,1.36-18.25,5.52-26.25,.57-1.1,1.22-2.23,1.54-3.41,.14-.51,.22-1.04,.2-1.58-.03-1.16-.5-2.26-.99-3.31-.05-.11-.1-.22-.16-.33-7.58-15.93-23.77-27.44-41.32-29.34-4.49-.49-13.1-1.12-22.14,.49-10.22,1.82-20.99,6.5-27.01,17.52-8.1,14.83-8.71,32.52-8.45,49.42Z"/><path class="cls-30" d="M359.09,273.12c.55-.02,1.1-.05,1.64-.08,.36-.02,.73-.04,1.08-.07,1.12-.08,2.21-.17,3.28-.29,.17-.02,.35-.04,.52-.06,6.78-.8,12.21-2.49,14.12-5.45,1.57-2.42,1.4-9.21-.2-11.61-.45-.68-.98-1.3-1.56-1.88-.36,.5-.65,1.06-.99,1.58-1.84,2.88-5.08,4.64-8.41,5.41-3.33,.77-7.04,.69-10.45,.59,1.14,3.83,1.46,7.89,.96,11.86Z"/><path class="cls-28" d="M356.95,273.18c1.28-.03,2.54-.07,3.78-.14,.86-3.58,.96-7.34,.27-10.96-1.42,.21-3.31-.19-4.73,.02,.82,3.38,1.33,7.57,.67,11.08Z"/><path class="cls-28" d="M346.92,272.99c1.33,.07,2.67,.13,4.01,.17,.95-3.59,.97-7.43,.04-11.03-1.6-.15-3.33-.38-4.93-.53,1.06,3.61,1.45,7.64,.88,11.39Z"/><path class="cls-30" d="M305.63,189.45c-.02,5.52,5.38,9.77,10.81,10.74,5.44,.97,10.98-.41,16.45-1.15,16.45-2.23,33.29,1.64,47.42,10.23,.85,.52,1.64,.95,2.37,1.29,.14-.51,.22-1.04,.2-1.58-.03-1.16-.5-2.26-.99-3.31-.05-.11-.1-.22-.16-.33-7.58-15.93-23.77-27.44-41.32-29.34-4.49-.49-13.1-1.12-22.14,.49-.26,.11-.52,.22-.78,.33-5.64,2.42-11.85,6.5-11.88,12.63Z"/><g><path class="cls-2" d="M295.46,228.11c12.73-35.26,59.22-34.49,69.51-31.68,6.13,1.67,12.1,4.68,16.78,8.92,.05,.11,.11,.22,.16,.33,.49,1.05,.96,2.15,.99,3.31,.04,1.78-.92,3.4-1.74,4.98-.22,.42-.43,.84-.63,1.27-.72-2.05-2-3.75-4.16-5.48-5.21-4.44-17.96-7.66-31.51-7.3-5.27,.14-10.66,.82-15.78,2.19-2.28,.61-4.5,1.35-6.63,2.24-2.06,.86-4.03,1.86-5.89,3-6.25,3.85-11.19,9.38-13.62,17.02-2.13,6.68,5.79,23.13,37.77,29.96,1.96,.42,4.01,.8,6.15,1.14,.36,.06,.73,.12,1.1,.17,2.49,.38,4.79,.66,6.92,.85,7.01,.63,12.12,.27,15.83-.95,3.17-1.04,5.32-2.72,6.74-4.94,2.62,2.62,3.1,6.21,.1,7.23-15.29,5.15-43.91,2.21-59.02-3.46-4.73-1.78-28.07-14.9-23.06-28.8Z"/><path class="cls-2" d="M370.7,258.08c-3.71,1.22-8.82,1.58-15.83,.95-2.12-.19-4.43-.47-6.92-.85-.37-.06-.74-.11-1.1-.17-2.14-.34-4.19-.72-6.15-1.14-31.98-6.83-39.9-23.28-37.77-29.96,2.43-7.63,7.37-13.17,13.62-17.02,1.86-1.15,3.83-2.15,5.89-3,2.13-.89,4.36-1.63,6.63-2.24,5.11-1.37,10.51-2.05,15.78-2.19,13.55-.36,26.3,2.86,31.51,7.3,2.16,1.73,3.44,3.43,4.16,5.48-3.64,7.7-4.63,16.44-4.9,24.99-.14,4.39-.07,6.99-.17,11.38,.75,.44,1.42,.96,1.98,1.53-1.42,2.22-3.56,3.9-6.74,4.94Z"/><path class="cls-14" d="M370.7,258.08c-3.71,1.22-8.82,1.58-15.83,.95-2.12-.19-4.43-.47-6.92-.85-.37-.06-.74-.11-1.1-.17-2.14-.34-4.19-.72-6.15-1.14-31.98-6.83-39.9-23.28-37.77-29.96,2.43-7.63,7.37-13.17,13.62-17.02,1.86-1.15,3.83-2.15,5.89-3,2.13-.89,4.36-1.63,6.63-2.24,5.11-1.37,10.51-2.05,15.78-2.19,13.55-.36,26.3,2.86,31.51,7.3,2.16,1.73,3.44,3.43,4.16,5.48-3.64,7.7-4.63,16.44-4.9,24.99-.14,4.39-.07,6.99-.17,11.38,.75,.44,1.42,.96,1.98,1.53-1.42,2.22-3.56,3.9-6.74,4.94Z"/><path class="cls-7" d="M340.71,256.87c1.96,.42,4.01,.8,6.15,1.14,.36,.06,.73,.12,1.1,.17,2.49,.38,4.79,.66,6.92,.85,7.01,.63,12.12,.27,15.83-.95,6.75-2.22,8.84-7.29,9.23-14.43,.76-21.91,4.09-27.74-3.56-33.89-5.21-4.44-17.96-7.66-31.51-7.3-5.27,.14-10.66,.82-15.78,2.19-2.28,.61-4.5,1.35-6.63,2.24-2.06,.86-4.03,1.86-5.89,3-6.25,3.85-11.19,9.38-13.62,17.02-2.13,6.68,5.79,23.13,37.77,29.96Z"/></g><path class="cls-32" d="M329.08,204.64c7.91,18.54,16.53,36.52,25.79,54.39,7.01,.63,12.12,.27,15.83-.95-3.94-7.36-7.41-15-10.86-22.61-4.99-11.01-9.99-22.01-14.98-33.01-5.27,.14-10.66,.82-15.78,2.19Z"/><path class="cls-32" d="M316.56,209.89c7.58,15.94,15.69,31.48,24.15,46.98,1.96,.42,4.01,.8,6.15,1.14-8.34-16.94-16.47-33.99-24.4-51.12-2.06,.86-4.03,1.86-5.89,3Z"/><ellipse class="cls-24" cx="293.76" cy="228" rx="14.77" ry="7.34" transform="translate(30.76 490.89) rotate(-82.8)"/><ellipse class="cls-28" cx="292.15" cy="227.9" rx="10.48" ry="5.21" transform="translate(29.45 489.21) rotate(-82.8)"/></g><path class="cls-30" d="M226.76,427.31c-3.16-1.52-7.59-.56-12.56-3.24-8.71-4.7-15.07,4.98-21.99,1.67-.53-4.1-1.38-8.18-1.39-12.32-.08-28.55,.18-82.87,1.12-92.25,.05-.51,.1-.94,.15-1.28,.49-3.28,1.45-7.74,2.71-12.96,.38-1.58,.79-3.23,1.23-4.95,7.94-31.11,24.03-81.55,24.03-81.55,10.35,4.96,38,18.15,55.01,26.29-.8,1.87-1.58,3.76-2.34,5.67-7.62,18.99-13.83,39.97-19.4,60.28-.43,1.58-.86,3.15-1.28,4.71-1.41,5.21-2.78,10.36-4.13,15.4-6.66,25.01-12.86,46.68-16.97,72.17-.85,5.27-1.64,10.54-2.36,15.83-.05,.37-.14,.78-.27,1.21-.48,1.73-1.37,3.87-1.56,5.32h0Z"/><path class="cls-30" d="M267.27,424.24c14.09-4.18,26.83-10.82,41.39-12.84-1.34-24.23,6.12-57.73,9.75-72.78,.03-.13,.06-.26,.09-.39,1.1-10.18,1.77-20.41,2.02-30.65,.05-2.2,.09-4.41,.1-6.61,.12-19.46-1.28-38.92-4.21-58.16-2.26,.51-4.54,1.01-6.84,1.51-16.36,3.59-33.28,7.48-45.84,18.2,.82,14.35,.93,32.14,4.51,58.04,.28,2.04,.59,4.13,.91,6.28,.8,5.27,1.75,10.85,2.86,16.78-7.91,27.31-9.08,37.99-4.74,80.61Z"/><path class="cls-6" d="M267.27,424.24c14.09-4.18,26.83-10.82,41.39-12.84-1.34-24.23,6.12-57.73,9.75-72.78-3.92,3.09-9.73,4.02-14.54,2.29-6.69-2.41-11.34-8.84-13.23-15.69-.94-3.4-1.29-6.9-1.3-10.42,0-2.23,.13-4.47,.35-6.7,.13-1.36,.29-2.71,.47-4.06,2.76-20.86,9.41-41.19,19.41-59.71-16.36,3.59-33.28,7.48-45.84,18.2,.82,14.35,.93,32.14,4.51,58.04,.28,2.04,.59,4.13,.91,6.28,.8,5.27,1.75,10.85,2.86,16.78-7.91,27.31-9.08,37.99-4.74,80.61Z"/><path class="cls-2" d="M289.34,314.79c9.85-4.24,20.46-6.72,31.18-7.21,.05-2.2,.09-4.41,.1-6.61-10.57,.46-21.09,2.97-30.93,7.12-.22,2.23-.35,4.47-.35,6.7Z"/><path class="cls-28" d="M268.23,320.57c.28,2.04,.59,4.13,.91,6.28,6.15-4.9,12.97-8.95,20.19-12.06,0-2.23,.13-4.47,.35-6.7-7.66,3.23-14.91,7.46-21.45,12.48Z"/><path class="cls-6" d="M226.76,427.31c-3.16-1.52-7.59-.56-12.56-3.24-8.71-4.7-15.07,4.98-21.99,1.67-.53-4.1-1.38-8.18-1.39-12.32-.08-28.55,.18-82.87,1.12-92.25,1.56,3.75,4.11,7.1,7.41,9.48,6.14,4.45,14.65,5.41,21.63,2.44,7.02-2.99,11.99-9.35,16.1-15.78,1.15-1.8,2.25-3.62,3.32-5.46,.95-1.64,1.86-3.31,2.74-4.99,2.15-4.1,4.09-8.31,5.82-12.6,1.7-4.23,3.23-8.78,2.44-13.27-1.35-7.75-8.31-12.3-15.13-16.22-11.29-6.49-18.92-5.18-28.26-5.21,11.63-46.71,27.09-6.6,42.68-9.25,7.37-1.26,15.52-1.2,22.04,2.09-7.62,18.99-13.83,39.97-19.4,60.28-.43,1.58-.86,3.15-1.28,4.71-1.41,5.21-2.78,10.36-4.13,15.4-6.66,25.01-12.86,46.68-16.97,72.17-.85,5.27-1.64,10.54-2.36,15.83-.05,.37-.14,.78-.27,1.21-.48,1.73-1.37,3.87-1.56,5.32h0Z"/><path class="cls-30" d="M206.1,250c1.52,2.96,34.71,3.53,59.75,37.94,5.59-.06,17.68,1.15,20.49-3.3,16.97-26.92,31.72-36.6,32.43-40.71,.37-2.17-.43-5.36-1.87-8.87-3.3-8.04-9.92-17.81-13.41-21.19-5.06-4.9-13.99-2.77-21.39-2.63-18.1,.35-39.07,1.99-57.14,2.45-3.67,.09-7.64,.28-10.63,2.15-3.51,2.21-6.49,12.02-7.26,15.56-.44,2.02-1.14,5.38-1.54,8.79-.45,3.82-.52,7.7,.57,9.82Z"/><path class="cls-30" d="M233.42,428.33l-65.83,3.69c-1.05-2.23-1.52-4.59-1.49-6.96,0-.32,.01-.64,.04-.96,.38-5.96,3.72-11.82,8.3-15.41,5.96-4.68,13.55-6.11,20.83-6.17,7.32-.06,14.61,1.16,21.54,3.56,1.76,.61,3.51,1.3,5.22,2.06,2.72,1.21,5.36,2.61,7.91,4.19,0,0,3.46,14.88,3.49,16Z"/><path class="cls-6" d="M233.42,428.33l-66.23,3.71c-1.05-2.23-1.5-6.65-.97-9.57,10.91-.16,21.61-.31,32.52-.47,5.31-.08,11.19-.4,15.05-4.45,3.4-3.56,4.15-6.42,3.01-11.46,1.76,.61,3.51,1.3,5.22,2.06,2.72,1.21,5.36,2.61,7.91,4.19,0,0,3.46,14.88,3.49,16Z"/><g><path class="cls-6" d="M233.42,428.33s-21.09,12.39-66.23,3.71"/><path class="cls-27" d="M202.72,438.42c-9.75,.39-21.77-.29-36.17-3.06-1.84-.35-3.04-2.13-2.68-3.96s2.13-3.04,3.96-2.68c43.07,8.29,63.68-3.2,63.89-3.31,1.61-.93,3.68-.38,4.62,1.23,.94,1.61,.4,3.67-1.21,4.62-.62,.37-11.09,6.32-32.41,7.17Z"/></g><path class="cls-30" d="M264.58,425.04l66.45,2.03c1.06-2.08,1.52-4.29,1.49-6.48,0-.3-.02-.59-.04-.88-.39-5.51-3.78-10.87-8.41-14.1-6.03-4.21-13.69-5.38-21.04-5.28-7.38,.1-14.74,1.38-21.73,3.76-1.78,.6-3.54,1.27-5.26,2.02-2.74,1.18-5.4,2.53-7.97,4.05,0,0-3.46,13.86-3.49,14.9Z"/><path class="cls-30" d="M173.29,61.35c5.37,6.22,16.31,11.5,21.21,13.38,9.51,3.64,19.58,5.71,29.71,6.57,14.97,1.28,30.07-.02,44.93-2.25,2.69-.4,5.52-.93,8.05-1.94-.34-4.35-.85-10.26-2.62-13.45-6.93-12.44-28.45-8.75-39.07-8.91-16.2-.24-36.33,2.33-52.41,2.99-2.88,.12-5.91,.3-8.13,1.92-.66,.48-1.21,1.05-1.67,1.7Z"/><path class="cls-6" d="M205.53,240.18c.4,.5,.85,.97,1.34,1.41,12.42,10.97,101.5,8.79,109.11-4.3,.41-.71,.71-1.46,.92-2.23-3.3-8.04-9.92-17.81-13.41-21.19-5.06-4.9-13.99-2.77-21.39-2.63-18.1,.35-39.07,1.99-57.14,2.45-3.67,.09-7.64,.28-10.63,2.15-3.51,2.21-6.49,12.02-7.26,15.56-.44,2.02-1.14,5.38-1.54,8.79Z"/><path class="cls-30" d="M201.5,218.92c.05,1.1,.15,2.2,.31,3.29,.52,3.57,1.74,6.98,4.5,9.43,3.51,3.1,13.14,5.15,25.32,6.2,30.93,2.67,78.32-1.11,83.78-10.51,1.31-2.25,1.42-4.91,1.46-7.47,0-.45,.01-.89,.02-1.33,.01-.9,.03-1.79,.04-2.67,.5-30.74,1.57-50.29,2.17-83.15,.35-19.3-7.97-30.73-16.45-36.63-5.12-3.56-10.34-4.64-13.68-5.14-23.28-3.44-29.05-4.31-52.52-2.13-6.09,.57-30.96,6.6-34.68,11.29-.15,.19-.29,.38-.43,.57-2.71,3.89-2.71,9.04-2.59,13.79,.07,2.83,.15,5.66,.22,8.49,.83,32.09,1.66,63.65,2.47,94.7,0,.42,.03,.85,.05,1.27Z"/><path class="cls-6" d="M201.5,218.92c.03,.55,.06,1.1,.11,1.65,.01,.12,.02,.24,.04,.36,.04,.43,.09,.85,.16,1.28h0c.52,3.57,1.73,6.98,4.49,9.43,3.51,3.1,13.14,5.15,25.32,6.2-4.51-3.29-8.31-7.69-11.09-12.6-.6-1.06-1.16-2.15-1.66-3.26-.13-.27-.25-.54-.36-.82-4.84-11.31-5.02-24.14-3.16-36.3,1.86-12.16,6.11-48.69-15.98-46.58,.83,32.09,1.26,48.31,2.07,79.36,0,.42,.03,.85,.05,1.27Z"/><g><path class="cls-34" d="M286.3,223.73c.29-13,.58-26,.87-38.99-2.02,.05-3.3-.07-5.32-.02-.39,13.16-.79,26.31-1.18,39.47,1.8-.24,3.84-.22,5.63-.46Z"/><path class="cls-34" d="M218.89,221.97c.5,1.11,1.06,2.2,1.66,3.26,35.74,4.44,75.61,2.36,96.34-6.71,.01-.9,.03-1.79,.04-2.67-2.43,1.39-5.29,2.1-8.06,2.71-7.45,1.64-14.98,2.93-22.54,3.88-1.87,.24-3.75,.45-5.63,.65-20.55,2.12-41.35,1.75-61.81-1.12Z"/><path class="cls-23" d="M201.5,218.92c.03,.55,.06,1.1,.11,1.65,.01,.12,.02,.24,.04,.36,.04,.43,.09,.85,.16,1.28h0c6.02,1.22,12.31,2.23,18.73,3.02-.6-1.06-1.16-2.15-1.66-3.26-5.83-.82-11.63-1.83-17.39-3.06Z"/></g><path class="cls-23" d="M311.36,107.69c3.27,7.26,2.98,15.73,.83,23.39-2.15,7.67-6.04,14.72-9.9,21.68,1.89,2.99,2.97,4.45,4.87,7.44,3.52-4.7,6.56-9.33,9.03-14.28,2-4.01,3.62-8.23,4.8-12.86,2.63-10.32,2.06-21.74-3.23-30.98-3.47-6.05-8.67-10.5-14.83-12.57-3.24-1.09-6.74-1.51-10.39-1.16-.43,2.13,.15,1.47,.81,3.53,9.65,2.07,14.76,8.52,18.03,15.79Z"/><path class="cls-1" d="M311.36,107.69c3.27,7.26,2.98,15.73,.83,23.39-2.15,7.67-6.04,14.72-9.9,21.68,1.89,2.99,2.97,4.45,4.87,7.44,3.52-4.7,6.56-9.33,9.03-14.28-1.12-3.43-1.34-7.26-1.1-10.89,.4-6.03,1.84-12.01,1.48-18.04-.46-7.48-3.72-14.58-8.08-20.67-1.71-2.38-3.58-4.63-5.56-6.8-3.24-1.09-10.93-2.79-16.19,1.08,2.24,.33,4.89,.71,6.6,1.3,10.1,2.78,14.76,8.52,18.03,15.79Z"/><path class="cls-6" d="M264.58,425.04l66.85,2.04c1.06-2.08,1.5-6.19,.96-8.89-11.01,.08-21.81,.16-32.82,.25-5.36,.04-11.29-.14-15.2-3.81-3.44-3.23-4.2-5.86-3.06-10.55-1.78,.6-3.54,1.27-5.26,2.02-2.74,1.18-5.4,2.53-7.97,4.05,0,0-3.46,13.86-3.49,14.9Z"/><path class="cls-34" d="M281.17,189.62c9-.51,17.21-2.3,21.95-4.78l.15-.08,.14-.09c5.77-3.67,6.07-10.56,6.31-16.09,.07-1.55,.13-3.02,.29-4.38l.03-.24v-.25c-.01-1.79,.19-3.73,.41-5.79,.54-5.15,1.16-10.98-1.63-16.19l-.09-.16-.1-.15c-2.23-3.38-5.26-4.91-9.27-4.68-1.48,.08-3.01,.38-4.63,.7-1.98,.39-4.21,.82-6.83,.97-.59,.03-1.18,.05-1.76,.05-1.82,0-3.52,0-5.1,0-4.67,0-8.35,0-11.33,.17-4.82,.27-10.17,.98-12.71,5.89-1.77,3.43-1.71,7.99-1.61,15.55,.05,3.96,.12,8.88-.06,14.87v.1c-.02,3.07,.34,7.47,3.53,10.48,1.74,1.91,4.75,3.11,9.41,3.75,3.65,.5,8.11,.62,12.89,.35Z"/><path class="cls-6" d="M310.45,143.33c3.17,5.93,.7,13.52,.74,20.1-.75,6.46,.46,14.23-4.76,17.55-9.82,5.14-35.61,6.13-39.5,1.43-2.03-1.81-2.41-4.85-2.39-7.65,1.03-34.5-5.95-32.47,26.8-32.58,10.56-.04,15.33-4.59,19.12,1.15Z"/><ellipse class="cls-28" cx="182.97" cy="107.97" rx="14.77" ry="7.34" transform="translate(73.51 290.06) rotate(-89.54)"/><path class="cls-1" d="M214.87,106.55c3.48,4.1,14.08,7.54,29.54,8.74,.87,.07,1.75,.13,2.64,.18,2.14-1.62,6.7-2.61,11.25-2.43,6.72,.26,9.53,1.37,11.24,2.25,14.81-1.08,26.34-4.01,30.29-7.76,.91-.87,1.42-1.79,1.46-2.73,.26-5.45-14.9-10.17-35.4-11.53-3.23-.21-6.58-.34-10.03-.38-4.44-.05-8.61,.05-12.47,.28-18.21,1.07-29.52,5.03-29.77,10.23-.05,1.07,.38,2.13,1.24,3.15Z"/><path class="cls-33" d="M214.86,106.55c3.48,4.1,14.08,7.54,29.54,8.74,.87,.07,1.75,.13,2.64,.18,1.86-1.4,6.57-3,11.06-2.94,4.74,.07,8.16,.97,11.43,2.76,14.8-1.08,26.34-4.01,30.29-7.76-3.43-3.24-12.37-5.97-24.17-7.51-2.17-.28-4.44-.53-6.79-.72-.02,0-.04,0-.06,0-.93-.08-1.88-.15-2.84-.21-3.22-.21-6.58-.34-10.03-.38-3.35-.04-6.55,.01-9.58,.13-.02,0-.04,0-.06,0-.43,.02-.85,.03-1.27,.06-.52,.03-1.04,.05-1.55,.08-14.95,.88-25.25,3.7-28.59,7.57Z"/><path class="cls-35" d="M244.09,106.69l31.97-.67c.17-.1,1.63,5.59,2.32,8.35-2.78,.38-5.74,.69-8.84,.92-1.71-.88-4.52-1.99-11.24-2.25-4.54-.18-9.11,.81-11.25,2.43-.9-.05-1.78-.11-2.64-.18-2.39-.19-4.67-.42-6.82-.71l6.51-7.88Z"/><ellipse class="cls-5" cx="181.36" cy="108.07" rx="10.48" ry="5.21" transform="translate(71.83 288.54) rotate(-89.54)"/><ellipse class="cls-34" cx="300.02" cy="151.03" rx="4.68" ry="5.83" transform="translate(-8.08 17.25) rotate(-3.25)"/><ellipse class="cls-13" cx="301.22" cy="150.96" rx="3.48" ry="5.03" transform="translate(-8.07 17.32) rotate(-3.25)"/><ellipse class="cls-34" cx="299.93" cy="168.47" rx="4.68" ry="5.83" transform="translate(-9.07 17.28) rotate(-3.25)"/><ellipse class="cls-37" cx="301.14" cy="168.4" rx="3.48" ry="5.03" transform="translate(-9.06 17.35) rotate(-3.25)"/><g><path class="cls-26" d="M222.58,49.92c-.94,2.8-1.51,5.7-1.68,8.65l-.03,.6c-.16,3.57-.8,7.09-1.79,10.5-1.61-.68-3.24-1.95-4.73-4.08-3.94-5.61-2.04-14.15,3.31-15.88,2.02-.65,3.66-.4,4.93,.18v.03Z"/><path class="cls-29" d="M222.58,49.92c-.94,2.8-1.51,5.7-1.68,8.65l-.03,.6c-.16,3.57-.8,7.09-1.79,10.5-1.61-.68-3.24-1.95-4.73-4.08-3.94-5.61-2.04-14.15,3.31-15.88,2.02-.65,3.66-.4,4.93,.18v.03Z"/><path class="cls-26" d="M299.84,70.45c-1.73,1.95-3.48,3.03-5.15,3.52-.6-3.51-.83-7.08-.59-10.63l.03-.6c.16-2.96-.08-5.92-.7-8.82,1.32-.42,2.99-.49,4.92,.38,5.11,2.33,6.04,11.03,1.49,16.16Z"/><path class="cls-29" d="M299.84,70.45c-1.73,1.95-3.48,3.03-5.15,3.52-.6-3.51-.83-7.08-.59-10.63l.03-.6c.16-2.96-.08-5.92-.7-8.82,1.32-.42,2.99-.49,4.92,.38,5.11,2.33,6.04,11.03,1.49,16.16Z"/><path class="cls-26" d="M283.32,73.44c-1.68,2.32-2.27,5.29-1.5,8.06,.57,2.09,1.07,4.45,.97,6.17-.72,12.63-13.27,22.18-28.02,21.34-14.76-.84-26.14-11.76-25.43-24.38,.1-1.73,.86-4,1.66-6.02,1.07-2.67,.82-5.69-.58-8.18-.33-.6-.63-1.23-.88-1.87-.77-1.95-1.1-4.05-.98-6.15,.48-8.38,8-14.77,16.81-14.27,2.84,.15,5.6,1.04,8,2.58,2.81,1.82,6.38,2.02,9.38,.53,2.55-1.25,5.4-1.82,8.24-1.66,8.8,.5,15.56,7.7,15.08,16.08-.12,2.1-.68,4.13-1.66,5.99-.33,.62-.69,1.21-1.1,1.77Z"/><path class="cls-29" d="M283.32,73.44c-1.68,2.32-2.27,5.29-1.5,8.06,.57,2.09,1.07,4.45,.97,6.17-.72,12.63-13.27,22.18-28.02,21.34-14.76-.84-26.14-11.76-25.43-24.38,.1-1.73,.86-4,1.66-6.02,1.07-2.67,.82-5.69-.58-8.18-.33-.6-.63-1.23-.88-1.87-.77-1.95-1.1-4.05-.98-6.15,.48-8.38,8-14.77,16.81-14.27,2.84,.15,5.6,1.04,8,2.58,2.81,1.82,6.38,2.02,9.38,.53,2.55-1.25,5.4-1.82,8.24-1.66,8.8,.5,15.56,7.7,15.08,16.08-.12,2.1-.68,4.13-1.66,5.99-.33,.62-.69,1.21-1.1,1.77Z"/><path class="cls-18" d="M242.29,88.21c-.84-.05-1.57,.6-1.62,1.45,0,.06,0,.13,0,.2,.56,6.83,6.68,12.42,14.45,12.86,7.78,.44,14.49-4.42,15.82-11.14,.16-.84-.39-1.64-1.23-1.79-.06-.01-.13-.02-.19-.02l-27.22-1.55Z"/><path class="cls-9" d="M246.47,99.7c5.19,3.67,12.02,4.05,17.59,1-.89-3.88-4.47-3.2-8.63-3.44-4.16-.24-7.64-1.32-8.96,2.44Z"/><path class="cls-26" d="M300.32,51.57c-3.08-1.41-5.64-.91-7.46,.01-.36-1.29-.79-2.57-1.28-3.81-.36-.92-.75-1.82-1.18-2.71-4.34-9.13-12.05-16.94-21.22-20.58l.1-5.03-6.24,3.29c-.24-.05-.48-.08-.72-.12-.44-.07-.88-.13-1.33-.16l-.67-3.85-.2-1.13c-.3-.02-.59-.02-.89-.02-5.65,.13-8.74,5.08-9.22,5.94-9.51,2.58-18.06,9.47-23.4,18.04-.52,.84-1.02,1.69-1.48,2.56-.63,1.19-1.2,2.4-1.7,3.64l-.22-.14c-1.7-1.04-4.1-1.72-7.19-.72-6.8,2.2-9.22,13.06-4.21,20.19,2.04,2.9,4.26,4.56,6.46,5.36-.04,.13-.07,.25-.11,.37-.5,1.81-.82,3.68-.92,5.56-.74,13.04,8.24,24.8,21.74,30.52,3.18,1.34,6.48,2.32,9.87,2.91,1.76,.32,3.54,.53,5.32,.65l.42,.02c21.63,1.23,39.97-12.05,40.97-29.66,.11-1.88,0-3.77-.29-5.63-.01-.13-.04-.25-.06-.38,2.26-.55,4.66-1.95,7.01-4.6,5.78-6.51,4.61-17.57-1.89-20.51Zm-77.73-1.65c-.94,2.8-1.51,5.7-1.68,8.65l-.03,.6c-.16,3.57-.8,7.09-1.79,10.5-1.61-.68-3.24-1.95-4.73-4.08-3.94-5.61-2.04-14.15,3.31-15.88,2.02-.65,3.66-.4,4.93,.18v.03Zm61.83,21.76c-.33,.61-.69,1.2-1.09,1.76-1.68,2.32-2.27,5.29-1.5,8.06,.57,2.09,1.07,4.45,.97,6.17-.72,12.63-13.27,22.18-28.02,21.34-14.76-.84-26.14-11.76-25.43-24.38,.1-1.73,.86-4,1.66-6.02,1.07-2.67,.82-5.69-.58-8.18-.33-.6-.63-1.23-.88-1.87-.77-1.95-1.1-4.05-.98-6.15,.48-8.38,8-14.77,16.81-14.27,2.84,.15,5.6,1.04,8,2.58,2.81,1.82,6.38,2.02,9.38,.53,2.55-1.25,5.4-1.82,8.24-1.66,8.8,.5,15.56,7.7,15.08,16.08-.13,2.1-.69,4.14-1.67,6Zm15.44-1.24c-1.74,1.95-3.49,3.03-5.16,3.52-.6-3.51-.83-7.08-.59-10.63l.03-.6c.16-2.96-.08-5.92-.7-8.82,1.32-.42,2.99-.49,4.92,.38,5.11,2.33,6.04,11.03,1.5,16.16h0Z"/><path class="cls-18" d="M249.89,77.22h0c.33-.63,1.11-.87,1.73-.54l2.89,1.53c.63,.33,.87,1.11,.54,1.73h0c-.33,.63-1.11,.87-1.73,.54l-2.89-1.53c-.63-.33-.87-1.11-.54-1.73Z"/><path class="cls-18" d="M257.76,80.1h0c-.25-.66,.07-1.4,.73-1.67l3.05-1.19c.66-.25,1.4,.07,1.66,.73h0c.25,.66-.07,1.4-.73,1.66l-3.05,1.19c-.65,.27-1.41-.06-1.66-.72Z"/><path class="cls-18" d="M243.24,69.35h0c-2.53-.14-4.47-2.2-4.33-4.6l.08-1.45c.14-2.4,2.3-4.23,4.83-4.08h0c2.53,.14,4.47,2.2,4.33,4.6l-.08,1.45c-.14,2.4-2.3,4.23-4.83,4.08Z"/><path class="cls-21" d="M243.82,59.22l-.29,5.06c-.07,1.2,.9,2.23,2.17,2.3,1.26,.07,2.35-.84,2.41-2.04l.04-.72c.14-2.4-1.81-4.45-4.33-4.59Z"/><ellipse class="cls-3" cx="243.65" cy="62.11" rx="1.45" ry="1.53" transform="translate(167.83 301.85) rotate(-86.75)"/><path class="cls-18" d="M270.7,70.9h0c-2.53-.14-4.47-2.2-4.33-4.6l.08-1.45c.14-2.4,2.3-4.23,4.83-4.08h0c2.53,.14,4.47,2.2,4.33,4.6l-.08,1.45c-.14,2.4-2.3,4.23-4.83,4.08Z"/><path class="cls-21" d="M271.28,60.78l-.29,5.06c-.07,1.2,.9,2.23,2.17,2.3s2.35-.84,2.41-2.04l.04-.72c.14-2.4-1.81-4.45-4.33-4.59Z"/><ellipse class="cls-3" cx="271.12" cy="63.67" rx="1.45" ry="1.53" transform="translate(192.18 330.74) rotate(-86.75)"/><path class="cls-17" d="M260.31,18.59c-1.02-.16-3.35,1.33-6.2,3.97-.71,.65-1.44,1.39-2.22,2.18-5.61,5.87-12.27,15.26-14.92,25.13-4.46,16.57-6.98,35.94-1.42,47.09,4.72,9.44,13.26,14.73,13.26,14.73-3.39-.59-6.7-1.57-9.87-2.91-13.49-5.72-22.48-17.48-21.74-30.52,.11-1.88,.42-3.75,.92-5.56,.03-.13,.07-.25,.11-.37-2.19-.81-4.41-2.45-6.46-5.36-5-7.13-2.59-17.99,4.21-20.18,3.09-1.01,5.49-.32,7.19,.72l.22,.14c.5-1.24,1.07-2.46,1.7-3.64,.46-.87,.95-1.72,1.48-2.56,5.34-8.57,13.89-15.47,23.4-18.04,.48-.85,3.58-5.8,9.22-5.94,.29,0,.59,0,.89,.02l.21,1.1Z"/></g><path class="cls-34" d="M276.6,178.35c1.74,.02,3.02-.07,3.97-.27,3.19-.66,2.54-2.58,2.65-6.07,.07-7.04,.23-21.98,.23-22.65,.18-2.94-5.46-2.69-7.96-1.52-.98,1.11-1.18,1.89-1.16,2.83,.02,1.08,.34,2.36,.09,4.59,.19,16.22-1.64,23.31,2.17,23.08Z"/><path class="cls-19" d="M276.6,178.35c1.74,.02,3.02-.07,3.97-.27,.02-.78-.01-1.69,.02-2.74,.07-7.04,.23-21.98,.23-22.65,.15-2.45-3.74-2.69-6.49-2.02,.02,1.08,.34,2.36,.09,4.59,.19,16.22-1.64,23.31,2.17,23.08Z"/><path class="cls-23" d="M187.55,108.41c7.35-13.59,24.64-2.64,28.2,.1,17.87,13.74,26.92,27.89,38.9,46.99,3.45,5.42,10.69,3.09,5.77-6.36-.37-.71-.74-1.41-1.12-2.11-8.43-15.62-18.66-28.28-31.93-40.31-4.41-4-9.13-7.79-14.56-10.24-1.91-.86-5.86-2.05-10.41-2.52-8.38-.86-18.78,.75-22.07,11.45-1.89,6.14,4.3,8.64,7.22,2.99Z"/><path class="cls-2" d="M243.13,306.86c-.88,1.68-1.79,3.35-2.74,4.99-14.41-5.57-30.19-7.28-45.58-4.92,.38-1.58,.79-3.23,1.23-4.95,15.64-3.74,32.52-1.88,47.09,4.88Z"/><path class="cls-28" d="M252.04,317.37c-3.75-2.14-7.65-3.98-11.66-5.53,.95-1.64,1.86-3.31,2.74-4.99,3.55,1.65,6.97,3.58,10.2,5.8-.43,1.58-.86,3.15-1.28,4.71Z"/><path class="cls-1" d="M215.74,108.51c17.87,13.74,26.92,27.89,38.9,46.99,3.45,5.42,10.69,3.09,5.77-6.36-.37-.71-.74-1.41-1.12-2.11-4.21-1.73-8.06-4.61-11.26-7.88-5.48-5.6-9.55-12.41-14.52-18.47-7.07-8.61-15.99-15.7-25.98-20.64-2-.99-4.23-2.08-5.05-4.16-.24-.6-.25-1.28-.09-1.91-8.38-.86-18.78,.75-22.07,11.45-.23,.73-.34,1.42-.35,2.04,21.62-11.93,32.21-1.69,35.77,1.05Z"/><path class="cls-2" d="M348.73,157.26c.06,.07,.12,.13,.18,.19,1.04,1.17,2.15,2.53,3.19,4.01,5.46-6.07,10.01-12.96,13.43-20.38-.92-.8-1.87-1.61-2.85-2.42-.26-.21-.51-.41-.77-.62-3.69,6.89-8.11,13.31-13.18,19.21Z"/><path class="cls-28" d="M340.12,166.21c.16,.12,.68,.51,.75,.56,1.2,.94,2.24,1.82,3.04,2.61,2.9-2.44,5.66-5.1,8.19-7.92-1.04-1.48-2.14-2.83-3.19-4.01-.06-.06-.12-.13-.18-.19-2.69,3.13-5.56,6.11-8.61,8.95h0Z"/><g><path class="cls-6" d="M216.33,205.65c.61,.72,1.32,1.34,2.14,1.81,1.62,.93,3.73,1.15,5.36,.23,.8-.45,4.48-2.85,8.82-3.42,3.48-.46,6.53-5.47,3.03-5.82-.07,0-3.64-.37-3.71-.37-1.34-.13-2.07-.29-3.41-.22-4.81,.23-9.7,3-13.56,5.88,.38,.67,.82,1.32,1.32,1.91Z"/><g><g><circle class="cls-22" cx="258.27" cy="197.38" r="10.01"/><circle class="cls-4" cx="258.27" cy="197.38" r="7.42"/></g><g><circle class="cls-22" cx="243.69" cy="201.05" r="10.01"/><circle class="cls-4" cx="243.69" cy="201.05" r="7.42"/></g><path class="cls-20" d="M274.63,230.96l-41.31,4.06c-1.68,.16-3.17-1.06-3.33-2.74l-2.8-28.46c-.16-1.68,1.06-3.17,2.74-3.33l41.31-4.06c1.68-.16,3.17,1.06,3.33,2.74l2.8,28.46c.16,1.68-1.06,3.17-2.74,3.33Z"/><g><rect class="cls-11" x="233.81" y="230.86" width="2.37" height="1.89" transform="translate(-21.55 24.1) rotate(-5.61)"/><path class="cls-11" d="M266.28,229.68l-5,.49-.18-1.88,5-.49,.18,1.88Zm-10,.98l-5,.49-.18-1.88,5-.49,.18,1.88Zm-10,.98l-5,.49-.18-1.88,5-.49,.18,1.88Z"/><rect class="cls-11" x="271.18" y="227.19" width="2.37" height="1.89" transform="translate(-21.01 27.74) rotate(-5.61)"/></g><path class="cls-11" d="M258.69,220.44l18.23-1.79c.58-.06,1.01-.57,.95-1.16l-.93-9.48c-.06-.58-.57-1.01-1.16-.95l-18.23,1.79c-1.75,.17-3.03,1.73-2.86,3.49l.52,5.25c.17,1.75,1.73,3.03,3.49,2.86Z"/><circle class="cls-25" cx="260.88" cy="214.28" r="3.76"/><g><rect class="cls-11" x="231.04" y="202.63" width="2.37" height="1.89" transform="translate(-18.8 23.69) rotate(-5.61)"/><path class="cls-11" d="M263.5,201.45l-5,.49-.18-1.88,5-.49,.18,1.88Zm-10,.98l-5,.49-.18-1.88,5-.49,.18,1.88Zm-10,.98l-5,.49-.18-1.88,5-.49,.18,1.88Z"/><rect class="cls-11" x="268.41" y="198.96" width="2.37" height="1.89" transform="translate(-18.26 27.33) rotate(-5.61)"/></g></g><g><g><g><path class="cls-6" d="M230.66,238.3c2.63-.08,5.28-.43,7.69-1.09,5.61-1.54,3.53-28.15-2.32-28.6-11.01-.85-10.8-5.1-20.45-6.28-.07,0-.13-.02-.2-.02-2.73,9.21-5.09,23.43-.43,32.06,1.78,2.51,8.68,4.16,15.72,3.93Z"/><path class="cls-6" d="M250.49,207c-2.67-.02-5.22,.68-7.84,1.17-4.39,.82-8.18,.29-13.82-.83-1.05,2.23,.98,6.09,3.01,7.12,1.76,.89,3.81,.96,5.79,.92,5.85-.13,11.68-1.12,17.25-2.93,.16-.05,2.05-5.4-4.39-5.45Z"/><path class="cls-6" d="M260.57,219.12c-.01-.28,.23-4.4-5.44-4.48-2.67-.04-5.22,.68-7.84,1.17-4.39,.82-9.08-.7-13.32,.62-1.05,2.23,.48,4.64,2.52,5.67,1.76,.89,3.81,.96,5.79,.92,5.85-.13,11.68-1.12,17.25-2.93,.16-.05,1.06-.63,1.05-.97Z"/><path class="cls-6" d="M253.98,222.72c-2.41,.11-4.7,.61-7.07,1.06-3.96,.74-8.19-.63-12.01,.56-.94,2.01,.44,4.18,2.27,5.11,1.59,.8,3.44,.87,5.22,.83,5.27-.12,10.53-1.01,15.55-2.65,.15-.05,2.59-5.2-3.96-4.92Z"/><path class="cls-6" d="M251.92,230.06c-2.26,0-4.41,.58-6.63,.99-3.71,.69-7.68-.59-11.27,.53-.88,1.88,.41,3.92,2.13,4.8,1.49,.75,3.23,.82,4.89,.78,4.95-.11,9.88-.95,14.58-2.48,.14-.05,2.5-4.62-3.71-4.61Z"/></g><path class="cls-34" d="M230.66,238.3c.88-2.51,1.4-5.14,1.53-7.79,.28-5.88-1.38-11.83-4.67-16.71-3.1-4.6-7.48-8.13-11.94-11.47-.07,0-.13-.02-.2-.02-2.73,9.21-5.09,23.43-.43,32.06,1.78,2.51,8.68,4.16,15.72,3.93Z"/></g><path class="cls-30" d="M153.38,204.41c8.82,17.98,35.4,31.72,63.44,36.57,6.56-.38,6.81-7.64,8.29-13.47,1.84-9.76,1.34-21.16-7.71-25.45-.28,.21-15.76-4.06-20.4-10.25-5.39-6.45-3.57-16.09-.42-23.59,.7-1.68,1.36-3.05,1.85-4.03-.28-.23-.66-.68-1.07-1.04-8.81-8.43-19.17-15.37-30.41-19.84-3.02-.93-3.11-2.25-4.37,.87-8.52,17.84-15.34,43.66-9.2,60.23Z"/><path class="cls-6" d="M153.38,204.41c8.79,17.95,35.36,31.72,63.44,36.57,6.59-.39,6.85-7.76,8.34-13.78-23.51,.55-48.66-14.83-55.04-37.86-.43-1.56-.73-3.16-.9-4.76-.24-2.23-.23-4.48,.02-6.68,1.22-10.81,8.18-20.52,19.64-22.02-6.61-5.06-14.02-9.42-21.68-12.47-1.19-.47-2.36-.91-3.56-1.32-.13,.29-.32,.6-.54,1.05-8.88,18.01-15.94,44.58-9.72,61.28Z"/><path class="cls-30" d="M160.92,146.5c8.52,8.63,20.06,16.51,31.27,20.93,2.81,1.11,6.02,.11,7.66-2.43,.16-.25,.32-.5,.47-.75,7.99-12.72,12.14-27.84,11.65-42.86-.26-7.81-2.83-16.94-10.23-19.45-2.96-1-6.02-.7-8.97,.34-3.01,1.06-5.89,2.89-8.4,4.86l-.19,.16c-10.25,8.17-20.16,17.53-25.13,29.41-1.4,3.35-.68,7.22,1.87,9.8Z"/><path class="cls-6" d="M160.92,146.5c8.52,8.63,20.06,16.51,31.27,20.93,2.81,1.11,6.02,.11,7.66-2.43,.16-.25,.32-.5,.47-.75-11.16-1.22-21.35-9.59-24.41-20.44-2.63-9.34-.22-19.6,4.86-27.87,3.2-5.19,7.36-9.68,12-13.66-3.01,1.06-5.89,2.89-8.4,4.86l-.19,.16c-10.25,8.17-20.16,17.53-25.13,29.41-1.4,3.35-.68,7.22,1.87,9.8Z"/></g><path class="cls-2" d="M169.22,184.59h.02c8.24,2.81,16.97,4.13,25.59,3.63-.89-2.12-1.26-4.37-1.28-6.63-8.24,.3-16.52-.98-24.31-3.69-.25,2.2-.26,4.45-.02,6.68Z"/><path class="cls-28" d="M152.27,176.21c5.24,3.5,10.96,6.33,16.95,8.37-.24-2.23-.23-4.48,.02-6.68h0c-5.56-1.93-10.86-4.59-15.71-7.91-.06,.26-.12,.52-.18,.78-.05,.21-.09,.43-.14,.64-.13,.58-.25,1.15-.36,1.73-.07,.36-.14,.71-.21,1.07-.13,.67-.25,1.34-.36,2.01Z"/></g><g><path class="cls-6" d="M264.58,425.04s20.93,12.82,66.85,2.04"/><path class="cls-27" d="M297.07,434.79c-22.68,0-33.62-6.48-34.26-6.87-1.59-.98-2.09-3.06-1.12-4.66,.97-1.59,3.05-2.09,4.64-1.13,.2,.12,20.61,11.91,64.32,1.64,1.82-.44,3.64,.7,4.07,2.52,.43,1.82-.7,3.64-2.52,4.07-13.88,3.26-25.55,4.41-35.13,4.41Z"/></g></g><g class="cls-10"><g><path class="cls-36" d="M413.4,405s17.46-2.62,18.26,15.4c.81,18.02-18.84,10.99-18.84,10.99,0,0-.52,23.63-29.09,13.28,0,0-14.93,24.15-48.11,5.42,0,0-39.31,14.56-36.74-20.99,0,0-14.56,7.27-14.75-11.33-.19-18.6,23.06-12.09,23.06-12.09,0,0,1.75-25.16,26.1-13.83,0,0-.13-19.8,25.48-12.04,25.61,7.76,24.21,16.73,24.21,16.73,0,0,15.48-21.86,30.41,8.46Z"/><path class="cls-31" d="M413.4,405s17.46-2.62,18.26,15.4c.81,18.02-18.84,10.99-18.84,10.99,0,0-.52,23.63-29.09,13.28,0,0-14.93,24.15-48.11,5.42,0,0-39.31,14.56-36.74-20.99,0,0-14.56,7.27-14.75-11.33-.19-18.6,23.06-12.09,23.06-12.09,0,0-19.04,1.93-16.35,13.92,2.69,12,16.15,6.05,16.15,6.05-4.34,23.91,18.53,13.28,18.53,13.28,32.78,25.14,55.59-6.16,55.59-6.16,0,0,16.76,1.38,31.84-7.47,15.08-8.86,.44-20.3,.44-20.3Z"/><path class="cls-31" d="M307.19,405.67c14.6-.79,20.71,3.61,23.23,6.91-2.11-5.2-3.9-14.86,10.06-17.85,19.43-4.15,23.83,3.92,25.76,8.62,0,0,3.46-6.89,16.37-3.85,9.94,2.34,7.83,10.62,6.34,14.31,2.24-4.21,9.28-14,24.45-8.82,0,0,10.28,.83,9,12.95-1.28,12.13-16.52,10.77-16.52,10.77,0,0-2.85,14.19-24.76,4.04,0,0-6.18,17.14-22.78,18.07-30.03,1.69-25.75-4.31-23.99-6-1.8,1.46-7.94,5.56-8.82-5.91,0,0-8.11,10.25-18.6,1.12,0,0-8.28-5.33,.06-14.4,0,0-15.85,7.44-16.15-6.05,0,0-6.55-12.68,16.35-13.92Z"/><path class="cls-31" d="M413.67,405s25.92,27.17-11.5,23.64c0,0,26.7,1.27,11.5-23.64Z"/><path class="cls-31" d="M403.52,420.11s2.7,11.35-7.51,15.11c-9.49,3.5-14.85,1.62-14.85,1.62,0,0-3.86,7.29-22.77,11.2,0,0,19.39-7.78,21.51-20.8,0,0,18.59,13.45,23.62-7.13Z"/><path class="cls-31" d="M337.23,438.54s-7.1,22.15-11.79,4.22c0,0-22.78,6.35-18.45-17.12,0,0,3.84,22.37,18.8,12.65,0,0,2.88,9.1,11.44,.25Z"/><path class="cls-31" d="M317.49,410.77s-31.2-7.39-28.69,6.83c2.51,14.22,21.9,2.43,21.9,2.43,0,0-14.96,5.6-15.01-3.7-.06-9.29,21.8-5.57,21.8-5.57Z"/><path class="cls-36" d="M366.7,393.94s-17.18-5.58-21.83,9.56c0,0,6.06-9.71,21.83-9.56Z"/><path class="cls-36" d="M389.98,399.67s-13.55-8.73-21.51,6.62c0,0,7.13-10.5,21.51-6.62Z"/><path class="cls-36" d="M392.18,403.92s-12.04-7.81-21.22,4.71c0,0,11.62-8.05,21.22-4.71Z"/><path class="cls-36" d="M407.52,400.05s-14.7-2.71-15.58,14.38c0,0,2.76-9.79,15.58-14.38Z"/><path class="cls-36" d="M338.11,398.42s-10.34,7.34-5.98,17.55c0,0-1.39-6.09,5.98-17.55Z"/><path class="cls-36" d="M327.32,415.06s1.95-7.62-14.83-8.35c0,0,11.91,2.19,14.83,8.35Z"/></g><g><path class="cls-36" d="M317.55,422.38s15.55-2.61,9.65,14.48c-5.91,17.09-151.47,15.38-146.68-1.24,4.79-16.62,13.73-6.09,13.73-6.09,0,0-5.48-8.97,10.2-7.16,0,0,1.37-15.22,16.79-13.41,15.42,1.81,13.28,9.64,13.28,9.64,0,0,.14-6.39,4.53-4.82,0,0-8.29-15.43,16.14-12.93,0,0-3.07-22.2,21.97-20.18,25.04,2.02,24.6,22.18,24.6,22.18,0,0,24.81-3.1,15.8,19.53Z"/><path class="cls-31" d="M180.42,436.62l27.84-5.28,22.37,.49,19.19-9,60.02,5.08,18.56,.41c.35,2.08,.08,4.85-1.19,8.54-5.78,16.74-145.53,15.44-146.78-.24Z"/><path class="cls-31" d="M266.73,435.15c-15.68,3.77-22.08-3.47-22.08-3.47-12.93,12.38-25.87,4.63-25.87,4.63,0,0-3.78,8.99-17.79,8.97-11.41-1.92-19.2-4.58-20.41-7.95h0c4.54-10.25,15.27-6.72,15.27-6.72,.64-8.58,11.39-3.82,11.39-3.82,8.95-16.53,28.61-1.63,28.61-1.63,2.7-15.99,21.26-14.91,21.26-14.91,22.02-24.84,39.05,2.69,39.05,2.69,5.69-8.13,15.63-6.7,22.03-4.63,1.74,2.94,2.04,7.37-.62,14.07,0,0,15.55-2.61,9.65,14.48-27.07,14.75-60.48-1.7-60.48-1.7Z"/><path class="cls-36" d="M290.72,412.82s-5.09-10.02-15.61-9.63c-10.52,.39-14.92,10.3-14.92,10.3,0,0-10.33-2.94-16.11,2.81,0,0,13.19-3.55,16.49,.36,0,0,6.35-11.39,14.92-10.3,8.57,1.09,15.23,6.46,15.23,6.46Z"/><path class="cls-36" d="M299.25,415.53s2.4-6.59,16.83-4.57c0,0-10.4,.02-16.83,4.57Z"/><path class="cls-36" d="M208.96,430.22s-3.96-4.83-8.54-2.22c-4.58,2.61-3.31,6.71-3.31,6.71,0,0,.86-2.92,4.85-4.87,4-1.95,7,.38,7,.38Z"/><path class="cls-36" d="M193.74,433.55s-7.3-5.09-13.17,3.78c0,0,5.07-5.26,13.17-3.78Z"/><path class="cls-31" d="M320.58,432.67s-8.37,10.67-24.82,8.27c-16.45-2.39-22.63-9.31-22.63-9.31,0,0,9.39,4.6,22.94,5.53,13.54,.92,24.51-4.49,24.51-4.49Z"/><path class="cls-31" d="M251.79,425.73s-.82,6.4-8.11,8.91c-7.28,2.52-11.49-1.6-11.49-1.6,0,0,6.54,.6,11.58-2.48,5.04-3.09,8.02-4.83,8.02-4.83Z"/><path class="cls-31" d="M211.17,431.85s.53,11.68-8.32,13c-8.85,1.32-15.83-2.97-15.83-2.97,0,0,9.32,2.54,15.52-.49,6.2-3.03,8.64-9.53,8.64-9.53Z"/></g><g><path class="cls-36" d="M284.3,444.66s22.65,4.68,.37,10.97c-22.29,6.3-23.71-6-23.71-6,0,0-11.72,20.89-33.19,.3,0,0,2.91,6.22-10.38,4.23,0,0-23.09,19.89-49.69-4.46,0,0-7.82,8.85-13.6,1.66,0,0-6.09,6.94-11.02-.24,0,0-13.65,15.25-28.26-.62,0,0-15.15,8.43-20.89-.46,0,0-11.71,1.15-12.94-4.81,0,0-7.28,5.49-7.68-1.86-.4-7.36,6.71-3.19,6.71-3.19,0,0-4.92-7.51,3.4-6.91,0,0-9.12-3.03-3.1-13.21,6.02-10.18,16.04-3.32,16.04-3.32,0,0-5.48-14.53,11.8-9.92,0,0-7.83-10.49,3.01-21.13,10.83-10.64,25.46-1,25.46-1,0,0,1.68-5.62,9.24-2.34,0,0,1.28-13.11,16.93-11.5,15.65,1.61,18.55,11,18.55,11,0,0,14.64-16.81,39.64-9.82,25,6.99,25.42,33,25.42,33,0,0,10.48-7.54,24.27,7.88,13.79,15.42,3.49,21.13,3.49,21.13,0,0,16.5-5.74,10.14,10.6Z"/><g><path class="cls-31" d="M274.16,434.07l1.94-1.76c-.95,1.21-1.94,1.76-1.94,1.76Z"/><path class="cls-31" d="M80.98,445.24s-7.28,5.49-7.68-1.86c-.4-7.36,6.71-3.19,6.71-3.19,0,0-4.92-7.51,3.4-6.91l2.21,2.31,14.96-6.03,113.02,7.32,60.57-2.81s16.5-5.74,10.14,10.6c0,0,22.65,4.68,.37,10.97-22.29,6.3-23.71-6-23.71-6,0,0-11.72,20.89-33.19,.3,0,0,2.91,6.22-10.38,4.23,0,0-23.09,19.89-49.69-4.46,0,0-7.82,8.85-13.6,1.66,0,0-6.09,6.94-11.02-.24,0,0-13.65,15.25-28.26-.62,0,0-15.15,8.43-20.89-.46,0,0-11.71,1.15-12.94-4.81Z"/></g><path class="cls-31" d="M274.16,434.07s6.68-.26,8.12,3.11c1.44,3.36-2.63,9.32-2.63,9.32,0,0,8.14-.73,8.7,3.52,.55,4.25-23.15,7.06-26.48-6.93,0,0-20.03,16.64-35.1-.4,0,0-33.76,21.72-59.29-1.3,0,0-10.25,11.81-24.6,3.93,0,0-19.03,12.44-26.22-4.89,0,0-21.19,14.14-31.2,1.21,0,0-7.16-4.7,.13-6.05,0,0-6.24-19.2,13.65-15.14,0,0,2.91-13.55,25.35-13.06,22.44,.49,27.25,15.73,27.25,15.73,0,0-15.93-32.73,10.38-31.85,26.31,.88,19.37,27.74,19.37,27.74,0,0,5.35-36.89,35.74-29.26,30.4,7.63,21.16,28.61,21.16,28.61,0,0,26.68-17.98,35.65,15.71Z"/><path class="cls-36" d="M238.51,418.36s-2.81-23.67-29.69-26.07c0,0,20.46,5.59,29.69,26.07Z"/><path class="cls-36" d="M238.51,418.36s28.01-7.86,32.64,15.85c0,0-7.2-16.8-32.64-15.85Z"/><path class="cls-36" d="M166.11,421.92s.27-10.52,16.19-6.27c15.93,4.25,10.29,13.21,10.29,13.21,0,0-2.24-8.36-10.98-9.84-8.74-1.48-11.78-1.25-15.5,2.91Z"/><path class="cls-36" d="M147.88,411.38s-1.96-21.08,23-13.57c0,0-18.72-2.22-23,13.57Z"/><path class="cls-36" d="M124.32,420.44s-13.34-10.31-25.06,.02c-11.73,10.34,.78,19.69,.78,19.69,0,0-9.09-13.48,1.6-17.95,10.69-4.47,22.68-1.75,22.68-1.75Z"/><path class="cls-31" d="M238.1,437.21s-.19,8.76-11.35,6.94c-11.16-1.82-12.44-12.3-12.44-12.3,0,0,11.09,18.84,23.79,5.36Z"/><path class="cls-31" d="M272.59,437.76s8.13,2.22,3.21,8.34c-4.92,6.12-27.41-8.87-27.41-8.87,0,0,16.15,8.62,22.55,6.65,6.4-1.97,1.65-6.12,1.65-6.12Z"/><path class="cls-31" d="M205.91,442.46s-20.2,10.55-37.07-6.97c0,0,11.8,27.6,37.07,6.97Z"/><path class="cls-31" d="M140.47,436.04s-22.97,10.89-32.95-1.81c0,0,14.06,21.34,32.95,1.81Z"/></g></g></g></svg>