<?xml version="1.0" encoding="UTF-8"?><svg id="Laag_1" xmlns="http://www.w3.org/2000/svg" xmlns:xlink="http://www.w3.org/1999/xlink" viewBox="0 0 500 500"><defs><style>.cls-1,.cls-2,.cls-3,.cls-4,.cls-5,.cls-6,.cls-7,.cls-8{fill:none;}.cls-9{fill:#6b5c5c;}.cls-9,.cls-10{opacity:.1;}.cls-2,.cls-3,.cls-4,.cls-5,.cls-6,.cls-7,.cls-8{stroke:#c0c1b6;stroke-miterlimit:10;}.cls-2,.cls-8{stroke-width:3px;}.cls-11{fill:url(#linear-gradient);}.cls-12{fill:url(#Naamloos_verloop_3);}.cls-13{fill:url(#Naamloos_verloop_6);}.cls-14{fill:url(#Naamloos_verloop_7);}.cls-15{clip-path:url(#clippath);}.cls-16{fill:#68bdfc;}.cls-17{fill:#f3c73c;}.cls-18{fill:#fff;}.cls-19{fill:#f0b90b;}.cls-20{fill:#fdfbf5;}.cls-21{fill:#a16552;}.cls-22{fill:#a05c2d;}.cls-23{fill:#9f6552;}.cls-24{fill:#9e9e08;}.cls-25{fill:#b48b08;}.cls-26{fill:#b46e36;}.cls-27{fill:#333;}.cls-28{fill:#8c8914;}.cls-29{fill:#b2956b;}.cls-30{fill:#c0c1b6;}.cls-31{fill:#877404;}.cls-32{fill:#6d5047;}.cls-33{fill:#2b8f5f;}.cls-34{fill:#2b6f99;}.cls-35{fill:#3479ad;}.cls-36{fill:#3d3532;}.cls-37{fill:#777706;}.cls-38{fill:#828282;}.cls-39{fill:#4da2ef;}.cls-40{fill:url(#Naamloos_verloop_7-3);}.cls-41{fill:url(#Naamloos_verloop_7-2);}.cls-42{fill:url(#Naamloos_verloop_7-4);}.cls-43{fill:url(#Naamloos_verloop_3-6);}.cls-44{fill:url(#Naamloos_verloop_3-3);}.cls-45{fill:url(#Naamloos_verloop_3-5);}.cls-46{fill:url(#Naamloos_verloop_3-2);}.cls-47{fill:url(#Naamloos_verloop_3-4);}.cls-48{fill:url(#Naamloos_verloop_89-2);}.cls-49{fill:url(#Naamloos_verloop_89-3);}.cls-50{fill:url(#Naamloos_verloop_18-2);}.cls-51{fill:url(#Naamloos_verloop_42-2);}.cls-52{fill:url(#Naamloos_verloop_38-2);}.cls-53{fill:url(#Naamloos_verloop_37-4);}.cls-54{fill:url(#Naamloos_verloop_37-3);}.cls-55{fill:url(#Naamloos_verloop_37-2);}.cls-56{fill:url(#Naamloos_verloop_43);opacity:.2;}.cls-3,.cls-5{stroke-width:5px;}.cls-57{clip-path:url(#clippath-1);}.cls-4,.cls-5,.cls-58,.cls-8{opacity:.15;}.cls-4,.cls-7{stroke-width:8px;}.cls-59{fill:#4e3f3f;isolation:isolate;opacity:.35;}.cls-6{stroke-width:2px;}.cls-60{fill:url(#linear-gradient-8);}.cls-61{fill:url(#linear-gradient-9);}.cls-62{fill:url(#linear-gradient-3);}.cls-63{fill:url(#linear-gradient-4);}.cls-64{fill:url(#linear-gradient-2);}.cls-65{fill:url(#linear-gradient-6);}.cls-66{fill:url(#linear-gradient-7);}.cls-67{fill:url(#linear-gradient-5);}.cls-68{opacity:.33;}.cls-69{opacity:.3;}.cls-70{fill:url(#linear-gradient-14);}.cls-71{fill:url(#linear-gradient-15);}.cls-72{fill:url(#linear-gradient-13);}.cls-73{fill:url(#linear-gradient-12);}.cls-74{fill:url(#linear-gradient-10);}.cls-75{fill:url(#linear-gradient-11);}.cls-76{fill:url(#Naamloos_verloop_51);}.cls-77{fill:url(#Naamloos_verloop_42);}.cls-78{fill:url(#Naamloos_verloop_45);}.cls-79{fill:url(#Naamloos_verloop_44);}.cls-80{fill:url(#Naamloos_verloop_38);}.cls-81{fill:url(#Naamloos_verloop_37);}.cls-82{fill:url(#Naamloos_verloop_18);}.cls-83{fill:url(#Naamloos_verloop_15);}.cls-84{fill:url(#Naamloos_verloop_89);}.cls-85{fill:url(#Naamloos_verloop_95);}.cls-86{fill:url(#Naamloos_verloop_92);}.cls-87{fill:url(#Naamloos_verloop_70);}</style><linearGradient id="linear-gradient" x1="60.16" y1="429.23" x2="379.49" y2="429.23" gradientUnits="userSpaceOnUse"><stop offset="0" stop-color="#d4c900"/><stop offset="1" stop-color="#9b8900"/></linearGradient><linearGradient id="Naamloos_verloop_3" x1="104.66" y1="329.7" x2="176.84" y2="329.7" gradientUnits="userSpaceOnUse"><stop offset=".12" stop-color="#935848"/><stop offset=".5" stop-color="#935848"/><stop offset=".6" stop-color="#9b604e"/><stop offset=".73" stop-color="#a16552"/><stop offset="1" stop-color="#966444"/></linearGradient><linearGradient id="linear-gradient-2" x1="214.35" y1="306.08" x2="126.86" y2="230.84" gradientUnits="userSpaceOnUse"><stop offset=".2" stop-color="#514c44"/><stop offset=".6" stop-color="#645a48"/><stop offset=".82" stop-color="#72644c"/></linearGradient><clipPath id="clippath"><polygon class="cls-1" points="146.83 203.01 142.35 203.15 135.38 217.41 135.18 283 179.51 297.26 172.84 294.01 146.83 203.01"/></clipPath><linearGradient id="linear-gradient-3" x1="127.4" y1="294.24" x2="236.83" y2="292.97" xlink:href="#linear-gradient-2"/><radialGradient id="Naamloos_verloop_6" cx="188.07" cy="115.11" fx="188.07" fy="115.11" r="287.01" gradientUnits="userSpaceOnUse"><stop offset=".14" stop-color="#92594b"/><stop offset=".24" stop-color="#91584a"/><stop offset=".26" stop-color="#905749"/><stop offset=".55" stop-color="#814b3f"/><stop offset=".79" stop-color="#7c483c"/></radialGradient><linearGradient id="Naamloos_verloop_38" x1="189.32" y1="249.24" x2="189.18" y2="208.6" gradientUnits="userSpaceOnUse"><stop offset="0" stop-color="#e7bc91"/><stop offset=".4" stop-color="#f3d5b5"/><stop offset=".66" stop-color="#f5dcb4"/><stop offset=".7" stop-color="#f3dab2"/><stop offset="1" stop-color="#efd3ab"/></linearGradient><linearGradient id="Naamloos_verloop_70" x1="156.33" y1="221.86" x2="207.99" y2="221.86" gradientUnits="userSpaceOnUse"><stop offset="0" stop-color="#e6e6e6"/><stop offset=".31" stop-color="#ddd"/><stop offset=".32" stop-color="#ddd"/><stop offset=".54" stop-color="#ececec"/><stop offset=".73" stop-color="#f2f2f2"/><stop offset=".88" stop-color="#f9f9f9"/><stop offset="1" stop-color="#fff"/></linearGradient><linearGradient id="linear-gradient-4" x1="209.84" y1="284" x2="202.69" y2="219.32" xlink:href="#linear-gradient-2"/><linearGradient id="linear-gradient-5" x1="167.61" y1="229.72" x2="190.78" y2="278.58" xlink:href="#linear-gradient-2"/><linearGradient id="Naamloos_verloop_7" x1="177.58" y1="244.06" x2="182.35" y2="234.95" gradientTransform="translate(-60.43 -1.76) scale(1.3 1)" gradientUnits="userSpaceOnUse"><stop offset="0" stop-color="#ffe988"/><stop offset=".25" stop-color="#ba801e"/><stop offset=".5" stop-color="#fbec83"/><stop offset=".75" stop-color="#ba801f"/><stop offset="1" stop-color="#ffe97f"/></linearGradient><linearGradient id="Naamloos_verloop_7-2" x1="176.58" y1="255.12" x2="181.35" y2="246.01" gradientTransform="translate(-58.82 -1.69) scale(1.3 1)" xlink:href="#Naamloos_verloop_7"/><linearGradient id="Naamloos_verloop_3-2" x1="277.05" y1="376.91" x2="298.59" y2="405.24" xlink:href="#Naamloos_verloop_3"/><linearGradient id="linear-gradient-6" x1="253.7" y1="417.08" x2="292" y2="395.37" gradientUnits="userSpaceOnUse"><stop offset=".16" stop-color="#277a33"/><stop offset=".18" stop-color="#277b34"/><stop offset=".35" stop-color="#288543"/><stop offset=".5" stop-color="#298949"/><stop offset=".52" stop-color="#288747"/><stop offset=".74" stop-color="#277d38"/><stop offset=".92" stop-color="#277a33"/></linearGradient><linearGradient id="linear-gradient-7" x1="240.14" y1="436.28" x2="192.14" y2="185.73" gradientUnits="userSpaceOnUse"><stop offset=".1" stop-color="#0aa051"/><stop offset=".18" stop-color="#27a55b"/><stop offset=".26" stop-color="#3faa64"/><stop offset=".34" stop-color="#4ead6a"/><stop offset=".4" stop-color="#54af6c"/><stop offset=".51" stop-color="#4cab63"/><stop offset=".76" stop-color="#3fa554"/><stop offset=".96" stop-color="#3ba34f"/></linearGradient><linearGradient id="linear-gradient-8" x1="210.44" y1="321.41" x2="203.42" y2="285.8" gradientTransform="translate(21.14 -14.58) rotate(4.34)" xlink:href="#linear-gradient-6"/><linearGradient id="linear-gradient-9" x1="295.34" y1="239.26" x2="218.06" y2="217.47" xlink:href="#linear-gradient-2"/><linearGradient id="linear-gradient-10" x1="162.86" y1="256.15" x2="147.28" y2="182.87" xlink:href="#linear-gradient-6"/><linearGradient id="linear-gradient-11" x1="148.5" y1="198.64" x2="180.29" y2="265.66" xlink:href="#linear-gradient-2"/><linearGradient id="linear-gradient-12" x1="221.38" y1="193.84" x2="158.82" y2="268.14" xlink:href="#linear-gradient-2"/><linearGradient id="Naamloos_verloop_43" x1="241.21" y1="365.3" x2="145.47" y2="445.21" gradientUnits="userSpaceOnUse"><stop offset="0" stop-color="#282525"/><stop offset=".44" stop-color="#282525" stop-opacity=".7"/><stop offset=".62" stop-color="#282525" stop-opacity=".39"/><stop offset=".91" stop-color="#282525" stop-opacity="0"/></linearGradient><linearGradient id="Naamloos_verloop_3-3" x1="14.52" y1="351.11" x2="-69.62" y2="354.5" gradientTransform="translate(77.65 34.06) rotate(-16.29)" xlink:href="#Naamloos_verloop_3"/><linearGradient id="Naamloos_verloop_3-4" x1="176.77" y1="339.37" x2="273.93" y2="339.37" xlink:href="#Naamloos_verloop_3"/><linearGradient id="Naamloos_verloop_3-5" x1="-77.51" y1="374.87" x2="-103.41" y2="297.63" gradientTransform="translate(77.65 34.06) rotate(-16.29)" xlink:href="#Naamloos_verloop_3"/><linearGradient id="Naamloos_verloop_3-6" x1="44.17" y1="339.61" x2="-31.37" y2="383.49" gradientTransform="translate(77.65 34.06) rotate(-16.29)" xlink:href="#Naamloos_verloop_3"/><linearGradient id="linear-gradient-13" x1="204.56" y1="318.93" x2="253.24" y2="261.06" xlink:href="#linear-gradient-2"/><clipPath id="clippath-1"><polygon class="cls-1" points="228.55 296.83 226.21 227.53 235.01 207.64 255.45 194.49 274.54 206.89 279.91 304.45 228.55 296.83"/></clipPath><linearGradient id="linear-gradient-14" x1="217.16" y1="300.59" x2="348.9" y2="299.07" xlink:href="#linear-gradient-2"/><linearGradient id="linear-gradient-15" x1="216.08" y1="255.92" x2="220.43" y2="179.58" xlink:href="#linear-gradient-6"/><linearGradient id="Naamloos_verloop_7-3" x1="149.26" y1="262.72" x2="158.75" y2="244.61" gradientTransform="translate(4.78 .4)" xlink:href="#Naamloos_verloop_7"/><linearGradient id="Naamloos_verloop_7-4" x1="206.62" y1="267.11" x2="216.11" y2="248.99" gradientTransform="translate(-58.28 -7.9) scale(1.3 1)" xlink:href="#Naamloos_verloop_7"/><linearGradient id="Naamloos_verloop_18" x1="190.89" y1="64.84" x2="209.65" y2="64.84" gradientTransform="translate(10.3 116.65) rotate(-11.49)" gradientUnits="userSpaceOnUse"><stop offset="0" stop-color="#e7bc91"/><stop offset=".4" stop-color="#f3d5b5"/><stop offset=".66" stop-color="#f5dcb4"/><stop offset="1" stop-color="#f5dcb4"/></linearGradient><linearGradient id="Naamloos_verloop_18-2" x1="106.07" y1="64.85" x2="82.84" y2="64.63" xlink:href="#Naamloos_verloop_18"/><linearGradient id="Naamloos_verloop_38-2" x1="149.25" y1="53.37" x2="148.64" y2="120.32" gradientTransform="translate(10.3 116.65) rotate(-11.49)" xlink:href="#Naamloos_verloop_38"/><radialGradient id="Naamloos_verloop_45" cx="148.64" cy="108.8" fx="148.64" fy="108.8" r="22.49" gradientTransform="translate(10.3 116.65) rotate(-11.49)" gradientUnits="userSpaceOnUse"><stop offset=".49" stop-color="#3a2e2e"/><stop offset=".81" stop-color="#4c3b3b"/><stop offset="1" stop-color="#4e3f3f"/></radialGradient><radialGradient id="Naamloos_verloop_51" cx="149.37" cy="105.44" fx="149.37" fy="105.44" r="14.09" gradientTransform="translate(334.88 217.9) rotate(169.33) scale(1 .53)" gradientUnits="userSpaceOnUse"><stop offset="0" stop-color="#e6646e"/><stop offset=".45" stop-color="#dd4e6d"/><stop offset="1" stop-color="#e6646e"/></radialGradient><linearGradient id="Naamloos_verloop_44" x1="98.39" y1="52.21" x2="206.6" y2="88.48" gradientTransform="translate(10.3 116.65) rotate(-11.49)" gradientUnits="userSpaceOnUse"><stop offset="0" stop-color="#a16552"/><stop offset=".2" stop-color="#935848"/><stop offset=".5" stop-color="#935848"/><stop offset=".6" stop-color="#9b604e"/><stop offset=".73" stop-color="#a16552"/><stop offset="1" stop-color="#966444"/></linearGradient><linearGradient id="Naamloos_verloop_37" x1="147.35" y1="86.54" x2="141.45" y2="83.62" gradientTransform="translate(186.13 4.58) rotate(65.45)" gradientUnits="userSpaceOnUse"><stop offset=".49" stop-color="#3a2e2e"/><stop offset=".81" stop-color="#4c3b3b"/><stop offset="1" stop-color="#4e3f3f"/></linearGradient><linearGradient id="Naamloos_verloop_37-2" x1="150.74" y1="86.59" x2="156.82" y2="83.63" gradientTransform="translate(73.41 28.09) rotate(24.55)" xlink:href="#Naamloos_verloop_37"/><linearGradient id="Naamloos_verloop_37-3" x1="131.45" y1="63.35" x2="134.76" y2="75.8" gradientTransform="translate(10.3 116.65) rotate(-11.49)" xlink:href="#Naamloos_verloop_37"/><radialGradient id="Naamloos_verloop_42" cx="136.49" cy="64.14" fx="136.49" fy="64.14" r="6.63" gradientTransform="translate(10.3 116.65) rotate(-11.49)" gradientUnits="userSpaceOnUse"><stop offset="0" stop-color="#5d5360"/><stop offset="1" stop-color="#5d5360" stop-opacity=".4"/></radialGradient><linearGradient id="Naamloos_verloop_15" x1="105.52" y1="156.8" x2="204.91" y2="146.45" gradientTransform="translate(-24.19 48.34) rotate(-14.73)" gradientUnits="userSpaceOnUse"><stop offset="0" stop-color="#4e3f3f"/><stop offset=".14" stop-color="#4e3f3f" stop-opacity=".7"/><stop offset=".46" stop-color="#4e3f3f" stop-opacity=".4"/><stop offset=".73" stop-color="#4e3f3f" stop-opacity=".2"/><stop offset=".84" stop-color="#4e3f3f" stop-opacity=".09"/><stop offset="1" stop-color="#4e3f3f" stop-opacity="0"/></linearGradient><linearGradient id="Naamloos_verloop_37-4" x1="163.51" y1="63.18" x2="166.82" y2="75.63" gradientTransform="translate(10.3 116.65) rotate(-11.49)" xlink:href="#Naamloos_verloop_37"/><radialGradient id="Naamloos_verloop_42-2" cx="168.54" cy="63.96" fx="168.54" fy="63.96" r="6.63" xlink:href="#Naamloos_verloop_42"/><linearGradient id="Naamloos_verloop_89" x1="130.56" y1="93.36" x2="217.03" y2="105.14" gradientTransform="translate(-29.1 64.58) rotate(-14.26)" gradientUnits="userSpaceOnUse"><stop offset=".08" stop-color="#88756e"/><stop offset=".28" stop-color="#927f76"/><stop offset=".67" stop-color="#a18e81"/><stop offset=".98" stop-color="#a69485"/></linearGradient><linearGradient id="Naamloos_verloop_89-2" x1="198.7" y1="102.78" x2="219.44" y2="105.6" xlink:href="#Naamloos_verloop_89"/><linearGradient id="Naamloos_verloop_89-3" x1="127.89" y1="98.22" x2="296.5" y2="122.97" xlink:href="#Naamloos_verloop_89"/><linearGradient id="Naamloos_verloop_95" x1="161.93" y1="124.11" x2="161.41" y2="153.43" gradientTransform="translate(-24.19 48.34) rotate(-14.73)" gradientUnits="userSpaceOnUse"><stop offset="0" stop-color="#685a56"/><stop offset=".11" stop-color="#584c47"/><stop offset=".25" stop-color="#49403a"/><stop offset=".37" stop-color="#443c36"/></linearGradient><linearGradient id="Naamloos_verloop_92" x1="160.75" y1="115.78" x2="162.16" y2="140.02" gradientTransform="translate(-24.19 48.34) rotate(-14.73)" gradientUnits="userSpaceOnUse"><stop offset=".08" stop-color="#a49385"/><stop offset=".3" stop-color="#af9b8b"/><stop offset=".67" stop-color="#bea594"/><stop offset=".98" stop-color="#c4a997"/></linearGradient></defs><path class="cls-31" d="M382.06,438.31c-7.62-30.84-50.57-43.73-60.8-45.27-.56-.08-56.53-8.4-115.2-7.18-41.95,.87-76.13,12.89-98.34,21.97-3.08-.03-5.53,.15-7.28,.54-3.86,.85-6.5,2.29-9.56,3.96-3.87,2.11-8.68,4.73-18.3,7.13-8.91,2.22-14.89,7.39-16.4,14.19-1.87,8.39,3.07,17.87,13.91,26.69,21.18,19.55,54.62,23.42,116.98,24.32,3.24,.05,6.51,.07,9.81,.07,35.49,0,74.24-2.65,105.51-7.28,28.78-4.26,65.41-12.27,76.52-26.24,3.21-4.04,4.27-8.38,3.15-12.9Z"/><path class="cls-22" d="M343.07,469.18c.3-3.26,2.48-9.8,2.48-9.8l-87.56,.39-133.18-31.18-44.32-11.48c-2.23,.79-4.82,1.59-7.92,2.36-8.91,2.22-14.89,7.39-16.4,14.19-1.87,8.39,3.07,17.87,13.91,26.69,21.18,19.55,54.62,23.42,116.98,24.32,3.24,.05,6.51,.07,9.81,.07,35.49,0,74.24-2.65,105.51-7.28,12.98-1.92,27.56-4.61,40.68-8.26Z"/><path class="cls-28" d="M244.6,368.67c-1.94-11.33-5.67-21.74-12.32-28.67,0,0-6.96,3.58-10.78,35.95-1.6-11.31-2.82-20.02-2.82-20.02l-8.42,32.93-3.48-42.7-1.6,32.87-5.25-11.25-3.25,15.46-22.28-25.09-3.17,51.21,48.23-5.56,5.87-.68,7.31-.84,13.64-1.57,12.09-1.39c.35-.59,1.13-.94,1.83-.39l.19,.15h.03c4.67-18.13,7.22-39.29-.54-53.06,0,0-5.9,1.34-15.27,22.63Z"/><path class="cls-28" d="M299.52,378.36c5.29-8.21,9.16-27.38,9.16-27.38l-1.65-4.39,2.86,.87,1.57-6.73-2.67-3.56,5.05,.72,7.44-23.52c-19.94,7.25-22.32,64.87-21.77,64.01Z"/><path class="cls-28" d="M300.4,376.09l-.26,.82c13.53,.32,21.23-11.03,21.23-11.03l-4.76-9.01,5.86,6.75,4.24-6.14-4.5-9.82,6.66,7.18,4.99-6.73-4.43-8.97,5.71,8.09,6.42-8.95-5.99-5.58,7.33,4.21,23.05-18.28c-60.11-.59-65.55,57.46-65.55,57.46Z"/><g><path class="cls-28" d="M375.99,391.59c-.69-.42-1.57-.32-2.36-.17-2.74,.54-5.37,1.62-7.69,3.17,.3-2.71,3.57-4.93,2.64-7.5-.84-2.32-4.12-2.26-6.55-1.76,.93-1.3,1.89-2.65,2.22-4.21,.33-1.56-.12-3.41-1.49-4.24-1.33-.81-3.06-.46-4.52,.11-2.68,1.04-5.11,2.72-7.04,4.85-.41-3.93-5.27-6.19-9.1-5.15-3.83,1.04-6.6,4.35-8.55,7.79-1.88-2.73-.1-7.79-3.23-8.89-.99-.35-2.09-.05-3.07,.35-2.52,1.01-4.79,2.63-6.57,4.67,.51-4.05,1.02-8.11,1.53-12.16,.09-.72,.13-1.59-.46-2.04-.62-.47-1.51-.15-2.18,.25-1.86,1.12-3.4,2.76-4.38,4.69,.47-2.38,.94-4.76,1.41-7.15,.12-.61,.23-1.29-.08-1.82-.62-1.06-2.25-.74-3.34-.17-3.32,1.75-6.03,4.6-7.6,7.99,1.73-3.62,2.55-7.67,2.36-11.68-.88,.91-1.76,1.81-2.64,2.72,.54-2.54,.84-5.14,.89-7.74,.02-1.12-.06-2.38-.9-3.13-.98-.86-2.59-.59-3.58,.25-1,.84-1.52,2.09-2.02,3.29,.55-2.71,.3-5.58-.69-8.16-.24-.62-.54-1.25-1.08-1.65-1.45-1.08-3.6,.22-4.35,1.86-.75,1.64-.73,3.54-1.46,5.19,.7-10.87-1.4-21.92-6.06-31.79-.69-1.47-1.5-2.98-2.88-3.86-3.14-2.01-7.36,.31-9.63,3.26-4.48,5.83-4.03,12.35-5.3,19.09-1.32,7-2.4,14.09-2.72,21.37-.33,7.59-.14,15.2,.54,22.77,.2,2.15,1.96,22.35,3.59,22.5,22.95,2.12,45.91,4.64,68.5,9.25,6.79,1.39,13.71,2.97,20.58,2.09,6.87-.89,13.82-4.84,16.08-11.35-.61,.04-1.22,.09-1.82,.13,1.54-2.84,2.77-5.85,3.67-8.96,.41-1.42,.59-3.28-.68-4.04Z"/><path class="cls-28" d="M375.99,391.59c-.69-.42-1.57-.32-2.36-.17-2.74,.54-5.37,1.62-7.69,3.17,.3-2.71,3.57-4.93,2.64-7.5-.84-2.32-4.12-2.26-6.55-1.76,.93-1.3,1.89-2.65,2.22-4.21,.33-1.56-.12-3.41-1.49-4.24-1.33-.81-3.06-.46-4.52,.11-2.68,1.04-5.11,2.72-7.04,4.85-.41-3.93-5.27-6.19-9.1-5.15-3.83,1.04-6.6,4.35-8.55,7.79-1.88-2.73-.1-7.79-3.23-8.89-.99-.35-2.09-.05-3.07,.35-2.52,1.01-4.79,2.63-6.57,4.67,.51-4.05,1.02-8.11,1.53-12.16,.09-.72,.13-1.59-.46-2.04-.62-.47-1.51-.15-2.18,.25-1.86,1.12-3.4,2.76-4.38,4.69,.47-2.38,.94-4.76,1.41-7.15,.12-.61,.23-1.29-.08-1.82-1.52-2.6-7.34,2.01-8.17,3.5,1.2-2.13,2.01-4.49,2.38-6.91,.09-.6,.15-1.23,0-1.82-.15-.59-.55-1.16-1.13-1.35-.84-.28-1.73,.25-2.37,.85-.58,.54-1.09,1.16-1.5,1.84,.55-2.13,1.55-6.35-.44-8.11-.98-.86-2.59-.59-3.58,.25-1,.84-1.52,2.09-2.02,3.29,.55-2.71,.3-5.58-.69-8.16-.24-.62-.54-1.25-1.08-1.65-1.45-1.08-3.6,.22-4.35,1.86-.75,1.64-.73,3.54-1.46,5.19,.7-10.87-1.4-21.92-6.06-31.79-.69-1.47-1.5-2.98-2.88-3.86-.67-.43-1.4-.66-2.14-.73,.21,.25,.41,.51,.6,.78,1.33,1.92,1.88,4.3,2.3,6.56,2.11,11.36,1.81,23.16-.89,34.39,.24-.97,.52-1.99,1.22-2.7,.71-.71,2-.96,2.7-.24,.4,.41,.51,1.01,.59,1.58,.3,2.26,.28,4.56-.07,6.81,.48-1.51,.99-3.06,2.04-4.25,1.05-1.19,2.79-1.92,4.27-1.33,3.71,1.48,1.21,7.75,3.88,10.7,.27-1.18,1.68-1.95,2.84-1.57,1.16,.38,1.85,1.77,1.5,2.93,.88-.58,1.75-1.16,2.63-1.73,.36,3.57,.28,7.18-.25,10.73,.6-2.97,2.31-5.71,4.72-7.55,.8-.61,2.05-1.08,2.71-.32,.37,.42,.36,1.05,.32,1.6-.14,2.27-.29,4.55-.43,6.82,1.03-1.68,3.03-3.6,4.65-2.46,.65,.46,.93,1.28,1.12,2.06,1.32,5.23,.91,10.87-1.16,15.85,2.16-5.51,5.78-10.81,11.21-13.22,.81-.36,1.9-.6,2.49,.07,.34,.38,.38,.93,.41,1.43,.08,1.61,.17,3.21,.25,4.82,.06-.58,.6-1.06,1.18-1.06,.56,.63,.94,1.42,1.06,2.26,1.46-3.41,4.05-6.33,7.27-8.2,1.75-1.01,4.19-1.63,5.63-.21,.77,.76,1,1.89,1.12,2.95,.42,3.64-.01,7.38-1.26,10.82,1.05-2.02,2.25-4.18,4.34-5.11,2.09-.93,5.19,.28,5.16,2.55,.92-.77,1.89-1.57,3.07-1.82,1.18-.25,2.61,.24,3,1.37,.2,.59,.1,1.23-.01,1.84-.36,2.05-.72,4.1-1.08,6.15,.73-1.29,2.75-1.61,3.84-.6,1.15-1.1,2.37-2.25,3.92-2.64,1.55-.39,3.5,.31,3.9,1.85,.38-1.17,2.31-.97,2.95,.08,.64,1.06,.38,2.4,.12,3.6-.03,.14-.06,.29-.09,.43,.71-1.68,1.33-3.39,1.83-5.14,.41-1.42,.59-3.28-.68-4.04Z"/></g><path class="cls-11" d="M187.11,475.65c-64.26-.92-96.13-5.09-116.2-24.65s-10.28-25.43,14.76-36.39,66.39-30.62,120.45-31.75,107.23,6.02,114.69,7.14,50.9,12.93,58.33,43.03-110.17,43.79-192.04,42.62Z"/><path class="cls-26" d="M325.38,419.97c2.96-16.12,4.21-25.6-4.56-29.97h0c-5.62-.85-37.15-5.1-75.46-6.68-9.31-.32-18.48-.54-26.78-.59-4.12,0-8.27,.03-12.43,.12-7.89,.35-31.36,2.05-46.28,10.08-18.6,10.01-28.76,30.17-42.7,36.94-10.63,5.16-39.07,10.2-45.11,22.19,20.13,18.64,51.99,22.68,115.06,23.58,52.18,.75,118.85-4.54,158.44-16.27,4.31-11.19-23.35-22.1-20.17-39.41Z"/><path class="cls-10" d="M182.85,390.62s-24.11-.16-34.45,12.28-18.97,16.83-14.83,31.19c4.14,14.36,48.1,24.71,94.23,17.12,46.13-7.59,60.27-3.79,78.2-20,17.93-16.21,11.31-27.56,4.27-31.37s-26.58-8.01-49.05-6.77c-22.47,1.24-78.37-2.44-78.37-2.44Z"/><path class="cls-69" d="M85.25,415.61s2.48-.62,4.37,.59,.42,1.6,2.41,1.66,3.65-.49,5.87,0,4.4,.75,6,.46,3.07,.59,4.37-1.04,2.32-4.24,3.26-5.05,2.94-2.02,4.14-2.28,5.28-3.03,6.03-3.26,3.35-1.79,3.52-2.01-.33,1.2-1.63,2.11-3.55,1.53-3.88,1.83-4.17,2.45-4.79,3.16-2.87,2.84-3.59,3.72-3.33,3.68-4.14,4.01-2.61,.13-4.01,.39-3.49,1.21-4.47,1.66-4.79,.1-6.16,.46-5.38,.29-5.9-1.08-1.99-4.9-1.4-5.32Z"/><path class="cls-29" d="M117.35,445.39c3.73-.27,4.55-1.79,12.66-.29s12.02,1.73,4.52,6.65-12.89,7.54-15.9,5.24-11.24-10.89-1.28-11.6Z"/><path class="cls-10" d="M114.39,452.66s2.46,2.35,3.27,2.97,1.37,1.27,3.29,1.37,5.35-.95,6.39-1.5,10.22-6.03,10.22-6.03c0,0-2.32,2.71-3.73,3.77s-6.91,4.28-8.48,4.8-3.29,.68-5.18,.42-2.61-1.34-2.9-1.96-2.88-3.85-2.88-3.85Z"/><path class="cls-29" d="M301.61,405.6c.55-.8,.52-1.86,2.87-1.45s3.33,.54,3.46,1.45,.52,2.54-.91,2.67-4.17-.13-4.76-.59-.97-1.63-.65-2.09Z"/><path class="cls-29" d="M290.26,397.52c.8-.69,2.28-3.26,5.8-2.61s4.3,1.04,4.24,2.28,.46,3.65-1.17,4.11-6.13,2.41-7.24,1.96-4.22-3.5-1.63-5.74Z"/><path class="cls-10" d="M301.51,406.3c.03-.24,.55,.96,1.14,1.12s1.72,.48,2.68,.44,1.63-.37,2.04-.37,.59-.05,.64-.01,.11,.4-.06,.67-.54,.4-1.09,.57-1.69-.07-2.15-.1-1.71-.31-2.38-.55-.86-1.42-.82-1.78Z"/><path class="cls-10" d="M289.36,400.26s.93,.92,1.5,1.13,.54-.34,1.6,0,.36,.77,1.84,.67,3.91-.66,4.43-.89,1.44-.83,1.55-1.53,.13,.91-.12,1.42-1.86,.86-2.33,1.12-3.18,.96-3.8,1.29-2.25,.21-2.79,0-1.74-2.12-1.78-2.54-.11-.66-.11-.66Z"/><g><path class="cls-12" d="M141.82,285.14s-30.19,67.77-36,79.62,11.96,15.38,11.96,15.38c0,0,28.28-35.69,40.75-55.73,12.47-20.04,17.29-18.75,18.24-27.14s-7.86-17.18-12.18-17.94-22.77,5.82-22.77,5.82Z"/><g><g><path class="cls-35" d="M134.19,387.51c-4.33,14.45-19.56,22.66-34.01,18.33-.75-.23-1.49-.48-2.22-.77-13.06-5.15-20.22-19.54-16.12-33.24,4.33-14.45,19.56-22.66,34.01-18.33,3.08,.92,5.97,2.37,8.54,4.3,8.91,6.67,13.17,18.43,9.79,29.71Z"/><path class="cls-39" d="M135.56,384.69c-4.41,14.72-19.92,23.08-34.64,18.67-.77-.23-1.52-.49-2.26-.78-13.3-5.25-20.59-19.9-16.41-33.85,4.41-14.72,19.92-23.08,34.64-18.67,3.14,.94,6.08,2.42,8.7,4.38,9.07,6.8,13.41,18.77,9.97,30.26Z"/><path class="cls-35" d="M131.72,383.54c-3.77,12.6-17.04,19.75-29.64,15.97-.66-.2-1.3-.42-1.93-.67-11.38-4.49-17.62-17.03-14.04-28.97,3.77-12.6,17.04-19.75,29.64-15.97,2.68,.8,5.2,2.07,7.45,3.75,7.76,5.82,11.47,16.06,8.53,25.89Z"/><path class="cls-16" d="M116.57,351.09c3.13,.93,6.08,2.42,8.7,4.38,8.92,6.68,13.26,18.37,10.12,29.68,.05-.16,.1-.32,.15-.47,3.44-11.48-.9-23.45-9.96-30.24-2.62-1.96-5.56-3.44-8.7-4.38-14.71-4.41-30.21,3.95-34.62,18.66-.05,.18-.1,.36-.15,.53,4.61-14.4,19.92-22.51,34.46-18.16Z"/><path class="cls-34" d="M115.48,354.79c2.68,.8,5.2,2.07,7.45,3.75,7.63,5.72,11.35,15.73,8.67,25.41,.04-.14,.09-.27,.13-.41,2.94-9.83-.77-20.08-8.53-25.89-2.24-1.68-4.76-2.95-7.45-3.75-12.6-3.77-25.87,3.38-29.64,15.97-.05,.15-.09,.31-.13,.46,3.94-12.33,17.05-19.27,29.5-15.54Z"/></g><g class="cls-10"><path class="cls-27" d="M120.96,377.94c-.65,1.44-1.69,2.64-3.13,3.58s-3.24,1.52-5.4,1.73l-3.31,.32,.81,8.47-8.35,.8-2.54-26.64,11.66-1.11c3.26-.31,5.84,.28,7.74,1.77,1.9,1.49,2.99,3.63,3.25,6.41,.16,1.68-.08,3.24-.73,4.68Zm-7.74-3.88c-.16-1.63-1.1-2.36-2.83-2.2l-2.37,.23,.47,4.89,2.37-.23c1.73-.17,2.52-1.06,2.36-2.69Z"/></g><path class="cls-39" d="M119.34,376.6c-.65,1.44-1.69,2.64-3.13,3.58s-3.24,1.52-5.4,1.73l-3.31,.32,.81,8.47-8.35,.8-2.54-26.64,11.66-1.11c3.26-.31,5.84,.28,7.74,1.77,1.9,1.49,2.99,3.63,3.25,6.41,.16,1.68-.08,3.24-.73,4.68Zm-7.74-3.88c-.16-1.63-1.1-2.36-2.83-2.2l-2.37,.23,.47,4.89,2.37-.23c1.73-.17,2.52-1.06,2.36-2.69Z"/><g class="cls-10"><path class="cls-20" d="M135.59,368.8l-47.95,25.84c1.18,1.4,2.5,2.69,3.96,3.85l45.03-24.27c-.17-1.85-.52-3.66-1.04-5.42Z"/><path class="cls-20" d="M125.6,354.43c-.17-.13-.34-.25-.51-.38l-43.98,23.7c.19,5.1,1.8,10,4.53,14.18l48.8-26.3c-1.91-4.4-4.93-8.28-8.84-11.21Z"/></g></g><path class="cls-23" d="M429.86,367.86c3.15-1.48,6.24-3.53,9.24-6.16,2.71-2.37,2.98-6.48,.61-9.19-2.37-2.71-6.48-2.98-9.19-.61-7.03,6.15-13.38,7.31-21.23,3.88-7.88-3.44-15.93-11.01-23.72-18.33-11.53-10.84-22.43-21.08-34.84-20.67-6.12,.2-11.78,3.04-16.81,8.44-7.62,8.18-16.44,14.37-25.52,17.9-8.7,3.39-16.84,4.02-23.54,1.82-13.04-4.28-17.3-18.36-18.58-29.41-.41-3.57-3.64-6.13-7.22-5.72-3.57,.41-6.13,3.64-5.72,7.22,1.24,10.67,4.3,19.58,9.1,26.46,4.68,6.71,10.86,11.36,18.34,13.82,9.6,3.15,20.78,2.44,32.33-2.06,10.9-4.24,21.38-11.56,30.32-21.16,2.62-2.81,5.14-4.22,7.71-4.3,7.01-.23,16.4,8.6,25.49,17.14,8.59,8.08,17.48,16.43,27.43,20.78,8.99,3.93,17.62,3.97,25.78,.15Z"/><path class="cls-23" d="M315.15,339.99c.89-.48,1.77-1,2.65-1.53-.88,.53-1.76,1.05-2.65,1.53Z"/><path class="cls-23" d="M261.65,310.03c.41,.12,.8,.28,1.17,.47-.37-.19-.76-.35-1.17-.47Z"/><path class="cls-23" d="M259.07,309.81c.67-.08,1.33-.05,1.96,.07-.63-.12-1.29-.15-1.96-.07-.37,.04-.73,.12-1.07,.22,.35-.1,.7-.18,1.07-.22Z"/><path class="cls-23" d="M333.93,325.22c.63-.67,1.27-1.31,1.92-1.9-.65,.59-1.29,1.23-1.92,1.9-3.81,4.09-7.92,7.68-12.21,10.69,4.29-3.01,8.4-6.6,12.21-10.69Z"/><path class="cls-23" d="M255.82,311.15c-.27,.21-.52,.43-.75,.67,.23-.24,.48-.47,.75-.67Z"/><path class="cls-23" d="M253.33,315.85c.02-.32,.07-.63,.14-.93,0-.03,0-.05,.01-.08-.07,.33-.13,.67-.15,1.01Z"/><path class="cls-23" d="M255.95,311.05c.26-.2,.54-.37,.83-.53-.29,.15-.57,.33-.83,.53Z"/><path class="cls-23" d="M256.93,310.45c.3-.15,.61-.28,.94-.38-.33,.1-.64,.23-.94,.38Z"/><path class="cls-23" d="M418.93,357.61c-.43,.04-.87,.06-1.31,.07,.44,0,.88-.03,1.31-.07Z"/><path class="cls-23" d="M253.83,313.74c-.13,.31-.24,.64-.32,.97,0-.04,.02-.07,.03-.1,.06-.24,.14-.47,.23-.7,.02-.05,.03-.11,.06-.17Z"/><path class="cls-23" d="M418.93,357.61c1.3-.12,2.59-.42,3.87-.88-1.28,.46-2.57,.75-3.87,.88Z"/><path class="cls-23" d="M385.66,337.53s-.06-.06-.09-.08c-1.44-1.36-2.87-2.7-4.3-4.02,1.43,1.32,2.86,2.66,4.3,4.02,.03,.03,.06,.06,.09,.08Z"/><path class="cls-23" d="M435.24,350.3s.05,0,.08,0c-.03,0-.05,0-.08,0Z"/><path class="cls-23" d="M388.41,340.11c.52,.49,1.04,.97,1.57,1.46-.52-.48-1.05-.97-1.57-1.46Z"/><path class="cls-23" d="M367.41,322.19c1.07,.69,2.15,1.43,3.21,2.22-1.07-.79-2.14-1.53-3.21-2.22Z"/><path class="cls-23" d="M360.89,318.73c-2.93-1.2-5.92-1.9-9-1.96,3.08,.06,6.07,.77,9,1.96Z"/><path class="cls-23" d="M360.89,318.73c1.83,.75,3.64,1.69,5.44,2.78-1.8-1.09-3.61-2.03-5.44-2.78Z"/><path class="cls-23" d="M372.76,326.04c1.06,.84,2.13,1.72,3.19,2.63-1.06-.91-2.13-1.79-3.19-2.63Z"/><path class="cls-23" d="M441.32,356.73s0,.07,0,.1c0,.02,0,.04,0,.06,0-.05,0-.11,0-.16Z"/><path class="cls-23" d="M441.25,357.77c-.02,.13-.05,.26-.08,.39-.02,.09-.03,.18-.05,.27,.06-.22,.1-.44,.13-.67Z"/><path class="cls-23" d="M441.12,358.43s-.01,.03-.02,.05c0,.01,0,.03,0,.04,0-.03,.02-.06,.02-.09Z"/><path class="cls-23" d="M441.27,357.65s0,.01,0,.02c0,.01,0,.03,0,.04,0-.02,0-.04,0-.06Z"/><path class="cls-23" d="M441.32,357.02c0,.08-.01,.16-.02,.24,0,.07,0,.14-.01,.2,.02-.15,.03-.3,.03-.45Z"/><path class="cls-23" d="M254.37,312.71c.19-.29,.41-.57,.65-.83-.24,.26-.46,.53-.65,.83Z"/><path class="cls-59" d="M440.86,359.21c.1-.24,.18-.48,.24-.73,.03-.11,.04-.22,.07-.33,.03-.16,.07-.33,.09-.49,.02-.13,.02-.27,.03-.4,.01-.14,.02-.28,.02-.42,0-.15,0-.29-.02-.44,0-.13-.02-.25-.03-.38-.02-.16-.04-.31-.07-.47-.02-.12-.05-.23-.08-.34-.04-.16-.08-.32-.14-.48-.03-.1-.08-.2-.12-.31-.06-.16-.13-.33-.21-.49-.04-.09-.09-.17-.14-.26-.09-.17-.18-.34-.29-.5,0,0,0,0,0-.01-.22,.27-.47,.54-.74,.78-3.01,2.63-6.09,4.68-9.24,6.16-8.16,3.82-16.79,3.78-25.78-.15-9.94-4.34-18.83-12.7-27.43-20.78-9.09-8.54-18.53-15.76-25.53-15.53-2.57,.09-5.09,1.49-7.71,4.3-8.94,9.6-19.43,16.92-30.32,21.16-11.55,4.5-22.73,5.21-32.33,2.06-7.49-2.46-13.66-7.11-18.34-13.82-4.24-6.07-7.08-15.33-8.55-24.37-.13,.22-.26,.43-.36,.67,0,0,0,0,0,0-.04,.08-.06,.17-.1,.26-.09,.23-.17,.46-.23,.7-.03,.1-.05,.21-.08,.31-.07,.31-.12,.62-.14,.95-.02,.38-.02,.77,.03,1.16,1.24,10.67,4.3,19.58,9.1,26.46,4.68,6.71,10.86,11.36,18.34,13.82,9.6,3.15,20.78,2.44,32.33-2.06,10.9-4.24,21.38-11.56,30.32-21.16,2.62-2.81,5.14-4.22,7.71-4.3,7.01-.23,16.4,8.6,25.49,17.14,8.59,8.08,17.48,16.43,27.43,20.78,8.99,3.93,17.62,3.97,25.78,.15,3.15-1.48,6.24-3.53,9.24-6.16,.8-.7,1.38-1.56,1.75-2.49Z"/><path class="cls-23" d="M440.86,359.21c.09-.21,.16-.43,.22-.65-.06,.22-.14,.44-.22,.65Z"/><path class="cls-23" d="M441.26,355.86c0,.05,0,.11,.01,.16,0,.04,.02,.09,.02,.13,0-.1-.02-.2-.04-.29Z"/><path class="cls-23" d="M441.3,356.22c0,.06,0,.12,0,.18,0,.09,.02,.17,.02,.26,0-.15-.02-.29-.03-.44Z"/><path class="cls-23" d="M440.35,353.38c.06,.1,.11,.2,.17,.3,.03,.06,.07,.11,.1,.17-.08-.16-.17-.32-.27-.47Z"/><path class="cls-23" d="M440.22,353.18s0,0,0,0c-.15-.23-.32-.46-.51-.67-.59-.68-1.29-1.2-2.05-1.57,.76,.37,1.46,.89,2.05,1.57,.18,.21,.34,.43,.49,.65,0,0,0,0,0,0,0,0,0,0,0,.01Z"/><path class="cls-23" d="M440.74,354.11c.05,.1,.08,.21,.12,.31,.03,.07,.06,.13,.09,.2-.06-.17-.13-.34-.2-.51Z"/><path class="cls-23" d="M253.88,313.63c.1-.23,.22-.46,.35-.67,0,0,0,.01,0,.02,.05-.08,.09-.18,.14-.26-.19,.29-.35,.6-.49,.91Z"/><path class="cls-23" d="M440.64,353.91s0,.02,.01,.03c0,.01,.02,.03,.02,.04-.01-.02-.02-.04-.03-.07Z"/><path class="cls-23" d="M440.95,354.62s.02,.07,.03,.11c.02,.05,.04,.09,.05,.13-.03-.08-.05-.16-.08-.24Z"/><path class="cls-23" d="M441.22,355.68c-.04-.22-.09-.43-.15-.64,.02,.06,.02,.11,.04,.17,.03,.11,.06,.23,.08,.34,0,.04,.02,.08,.03,.13Z"/><polygon class="cls-64" points="146.83 203.01 142.35 203.15 135.38 217.41 135.18 283 179.51 297.26 172.84 294.01 146.83 203.01"/><g class="cls-15"><g class="cls-58"><path class="cls-7" d="M128.79,270.89s11.88-9.02,45.68,0"/><path class="cls-7" d="M128.79,242.91s19.8-5.51,35.43,6.56"/><path class="cls-7" d="M136.33,207.57s16.82,16.79,22.51,24.4"/></g><g class="cls-58"><path class="cls-3" d="M128.79,270.89s11.88-9.02,45.68,0"/><path class="cls-3" d="M128.79,242.91s19.8-5.51,35.43,6.56"/><path class="cls-3" d="M136.33,207.57s16.82,16.79,22.51,24.4"/></g><g class="cls-58"><path class="cls-2" d="M128.79,270.89s11.88-9.02,45.68,0"/><path class="cls-2" d="M128.79,242.91s19.8-5.51,35.43,6.56"/><path class="cls-2" d="M136.33,207.57s16.82,16.79,22.51,24.4"/></g></g><g><path class="cls-62" d="M165.92,278.98c-13.17-3.73-28.27,2-30.05,3.38-1.78,1.38-3.29,4.68-2.76,6.95s.76,7.57,.76,7.57c0,0,.49,1.91,1.32,2.51l1.65-1.82c.65-1.1,3-2.22,10.98-.3,12.73,3.07,22.95,5.89,23.85,7.03,.9,1.14-1.9,3.79-1.47,4.56s4.02,2.38,8.36-1.39c4.33-3.76,7.28-13.6,7.38-17.44,.1-3.84-6.84-7.33-20.01-11.06Z"/><g class="cls-58"><path class="cls-1" d="M164.22,290.35c.42-4.73,.59-9.83,.36-11.69-12.83-3.01-26.99,2.37-28.71,3.7-1.78,1.38-3.29,4.68-2.76,6.95,.05,.2,.09,.44,.14,.68,1.66-.84,3.52-1.5,5.32-1.78,7.9-1.24,16.66-.48,25.66,2.13Z"/><path class="cls-1" d="M170.16,292.32c.27,.1,.54,.19,.82,.29,6.76,2.64,10.5,4.81,12.63,6.71,1.42-3.58,2.26-7.27,2.32-9.29,.09-3.34-5.16-6.41-15.19-9.61,.05,2.97-.15,6.91-.37,9.63-.07,.81-.14,1.55-.21,2.26Z"/><path class="cls-1" d="M163.5,296.22c-8.45-2.59-16.62-3.38-23.89-2.25-2.64,.41-5.05,1.97-5.61,2.62-.03,.18-.01,.48,.03,.82,.36,1.08,1.33,3.3,2.64,1.48,0,0-1.58-4.68,11.14-1.61,3.8,.92,7.38,1.81,10.55,2.64,1.82-.16,3.59-.47,4.41-.85,.26-.57,.5-1.58,.72-2.86Z"/><path class="cls-1" d="M180.49,305.18c-.33-1.79-4.1-4.13-11.18-6.94-.5,2.4-1.05,3.65-1.55,4.37,2.2,.72,3.61,1.31,3.91,1.69,.9,1.14-1.9,3.79-1.47,4.56,.42,.77,4.02,2.38,8.36-1.39,.69-.6,1.34-1.37,1.96-2.23,0-.02-.01-.05-.01-.07Z"/><path class="cls-30" d="M168.74,298.02c-1.76-.69-3.5-1.27-5.24-1.8-.22,1.28-.46,2.28-.72,2.86-.82,.38-2.59,.69-4.41,.85,3.83,1.01,7.06,1.92,9.39,2.69,.5-.72,1.05-1.97,1.55-4.37-.19-.08-.37-.15-.57-.23Z"/><path class="cls-30" d="M170.16,292.32c.07-.71,.14-1.46,.21-2.26,.22-2.72,.42-6.66,.37-9.63-1.5-.48-3.11-.96-4.82-1.45-.44-.13-.89-.21-1.34-.32,.23,1.85,.06,6.96-.36,11.69,1.97,.57,3.96,1.22,5.95,1.98Z"/><path class="cls-30" d="M170.16,292.32c-.25,2.51-.55,4.44-.86,5.92,7.09,2.81,10.85,5.15,11.18,6.94,0,.02,.01,.05,.01,.07,1.21-1.69,2.26-3.79,3.1-5.93-2.13-1.9-5.87-4.07-12.63-6.71-.27-.11-.54-.19-.82-.29Z"/><path class="cls-30" d="M139.62,293.97c7.27-1.14,15.44-.34,23.89,2.25,.28-1.64,.52-3.71,.72-5.87-9-2.61-17.76-3.37-25.66-2.13-1.79,.28-3.66,.94-5.32,1.78,.44,2.5,.63,6.89,.63,6.89,0,0,.06,.22,.16,.53-.04-.34-.05-.64-.03-.82,.56-.65,2.96-2.21,5.61-2.62Z"/><path class="cls-30" d="M170.16,292.32c-1.99-.75-3.97-1.4-5.95-1.98-.19,2.16-.43,4.24-.72,5.87,1.74,.53,3.48,1.11,5.24,1.8,.2,.08,.38,.15,.57,.23,.31-1.48,.6-3.41,.86-5.92Z"/></g><g class="cls-58"><path class="cls-1" d="M165.13,291.63c.49-4.82,.71-10.35,.5-12.72-13.1-3.57-28,2.08-29.77,3.44-1.78,1.38-3.29,4.68-2.76,6.95,.11,.46,.21,1.06,.29,1.71,1.64-.88,3.55-1.57,5.34-1.85,8.1-1.27,17.13-.4,26.4,2.46Z"/><path class="cls-1" d="M169.07,292.97c.51,.19,1.02,.35,1.53,.55,7.03,2.75,10.66,4.92,12.6,6.78,1.66-3.87,2.66-8.06,2.72-10.26,.09-3.45-5.52-6.61-16.21-9.93,.07,2.72-.09,6.58-.36,9.86-.09,1.1-.19,2.08-.29,2.99Z"/><path class="cls-1" d="M164.65,295.55c-8.9-2.85-17.54-3.73-25.21-2.53-2.3,.36-4.51,1.54-5.65,2.43,.05,.86,.08,1.44,.08,1.44,0,0,1.12,4.35,2.8,2.01,0,0-1.58-4.68,11.14-1.61,4.83,1.16,9.3,2.29,13.04,3.31,1.15-.2,2.16-.47,2.71-.82,.4-.62,.77-2.19,1.08-4.23Z"/><path class="cls-1" d="M169.11,297.12c-.2-.08-.39-.14-.59-.21-.6,3.38-1.26,4.74-1.8,5.38,2.79,.87,4.59,1.58,4.94,2.02,.9,1.14-1.9,3.79-1.47,4.56,.42,.77,4.02,2.38,8.36-1.39,.97-.84,1.86-1.99,2.67-3.3-.63-1.26-2.88-3.46-12.11-7.07Z"/><path class="cls-30" d="M164.65,295.55c-.31,2.04-.68,3.61-1.08,4.23-.56,.35-1.56,.61-2.71,.82,2.26,.61,4.24,1.18,5.88,1.7,.53-.64,1.2-1.99,1.8-5.38-1.3-.49-2.59-.95-3.88-1.36Z"/><path class="cls-30" d="M169.07,292.97c.1-.91,.2-1.89,.29-2.99,.27-3.28,.43-7.14,.36-9.86-1.21-.37-2.47-.75-3.8-1.13-.09-.03-.19-.04-.28-.07,.21,2.37-.01,7.9-.5,12.72,1.31,.4,2.62,.85,3.94,1.33Z"/><path class="cls-30" d="M169.07,292.97c-.17,1.55-.35,2.85-.55,3.94,.2,.07,.39,.13,.59,.21,9.23,3.6,11.47,5.8,12.11,7.07,.74-1.19,1.41-2.51,1.99-3.88-1.94-1.86-5.57-4.04-12.6-6.78-.51-.2-1.02-.36-1.53-.55Z"/><path class="cls-30" d="M139.44,293.01c7.67-1.2,16.31-.32,25.21,2.53,.18-1.18,.35-2.51,.49-3.91-9.27-2.86-18.3-3.73-26.4-2.46-1.79,.28-3.7,.97-5.34,1.85,.19,1.47,.32,3.22,.39,4.43,1.13-.9,3.34-2.07,5.65-2.43Z"/><path class="cls-30" d="M169.07,292.97c-1.32-.48-2.63-.93-3.94-1.33-.14,1.4-.31,2.73-.49,3.91,1.29,.41,2.58,.87,3.88,1.36,.19-1.09,.38-2.39,.55-3.94Z"/></g><g class="cls-58"><path class="cls-1" d="M165.75,294.87c-9.34-3.1-18.43-4.08-26.48-2.82-2.11,.33-4.17,1.29-5.55,2.23,.11,1.45,.16,2.6,.16,2.6,0,0,1.12,4.35,2.8,2.01,0,0-1.58-4.68,11.14-1.61,5.72,1.38,10.92,2.7,15,3.85,.59-.18,1.11-.39,1.47-.65,.56-.47,1.06-2.71,1.46-5.61Z"/><path class="cls-1" d="M170.23,294.42c7.4,2.89,10.87,5.12,12.55,6.86,1.92-4.13,3.08-8.84,3.14-11.23,.1-3.56-5.88-6.82-17.26-10.25,.1,3.26-.09,8.97-.68,13.82,.75,.27,1.49,.51,2.24,.81Z"/><path class="cls-1" d="M165.99,292.9c.55-4.9,.83-10.84,.66-13.7-.25-.07-.49-.14-.74-.22-13.17-3.73-28.27,2-30.05,3.38-1.78,1.38-3.29,4.68-2.76,6.95,.17,.71,.31,1.72,.41,2.76,1.55-.89,3.47-1.64,5.39-1.94,8.28-1.3,17.56-.34,27.08,2.77Z"/><path class="cls-1" d="M169.48,296.22c-.59-.23-1.18-.42-1.77-.64-.48,3.09-1.17,5.56-2.09,6.36,3.43,1.03,5.64,1.86,6.04,2.36,.9,1.14-1.9,3.79-1.47,4.56,.42,.77,4.02,2.38,8.36-1.39,1.2-1.04,2.29-2.56,3.24-4.28-1.08-1.5-3.98-3.74-12.31-6.99Z"/><path class="cls-30" d="M167.99,293.61c.59-4.85,.78-10.56,.68-13.82-.65-.2-1.33-.39-2.01-.59,.17,2.86-.11,8.8-.66,13.7,.66,.22,1.33,.47,1.99,.71Z"/><path class="cls-30" d="M165.75,294.87c-.4,2.9-.9,5.13-1.46,5.61-.36,.26-.88,.47-1.47,.65,1,.28,1.95,.55,2.81,.81,.92-.8,1.61-3.27,2.09-6.36-.66-.24-1.31-.49-1.97-.71Z"/><path class="cls-30" d="M167.99,293.61c-.08,.68-.17,1.34-.27,1.97,.59,.21,1.18,.41,1.77,.64,8.33,3.25,11.23,5.49,12.31,6.99,.35-.62,.68-1.27,.99-1.93-1.68-1.73-5.15-3.97-12.55-6.86-.75-.29-1.5-.54-2.24-.81Z"/><path class="cls-30" d="M165.75,294.87c.09-.63,.17-1.29,.25-1.97-9.52-3.11-18.81-4.07-27.08-2.77-1.92,.3-3.84,1.06-5.39,1.94,.08,.75,.14,1.51,.19,2.21,1.38-.94,3.44-1.9,5.55-2.23,8.06-1.26,17.15-.28,26.48,2.82Z"/><path class="cls-30" d="M167.99,293.61c-.66-.24-1.33-.49-1.99-.71-.08,.68-.16,1.34-.25,1.97,.65,.22,1.31,.47,1.97,.71,.1-.63,.19-1.29,.27-1.97Z"/></g></g><path class="cls-13" d="M211.02,186.15l-52.99,22.92,.82,22.89,21.37,7.03,26.33-25.06s5.65-21.49,5.77-21.94-1.29-5.85-1.29-5.85Z"/><path class="cls-80" d="M163.53,229.47c.61-1.25,1.54-2.32,2.7-3.08,3.53-2.29,11.67-6.95,19.73-6.95,10.7,0,23.72,1.88,29.07,7.52,4.18,4.4-10.33,14.87-16.9,19.25-1.9,1.27-4.27,1.62-6.47,.97l-23.38-6.93c-4.57-1.36-6.84-6.49-4.75-10.78h0Z"/><path class="cls-87" d="M159.19,212.44s11.61,18.88,48.8-11.63c-6,15.62-17.84,33.12-17.84,33.12l-30.09,8.98s-3.72-23.49-3.73-24.43,2.86-6.04,2.86-6.04Z"/><path class="cls-63" d="M211.02,186.15s-6.99,28.58-29.48,44.18c-24.75,13.57-22.69-23.45-22.69-23.45l-13.4-3.45,10.68,56.52,5.49,4.99,22.2,57.56,49.37-5.05,5.81-71.96,16.45-51-44.43-8.33Z"/><path class="cls-4" d="M155.51,238.15s43.58-1.89,70.85-8.71"/><path class="cls-5" d="M155.51,238.14s43.49-1.89,70.7-8.69"/><path class="cls-8" d="M155.51,238.3s45.01-1.95,73.17-8.99"/><path class="cls-67" d="M170.47,233.24s-.34,6.51,.92,18.63,7,4.7,7,4.7c0,0-1.97-21-1.55-24.15-4.18,.81-6.36,.81-6.36,.81Z"/><circle class="cls-14" cx="173.33" cy="237.07" r="1.93" transform="translate(-32.5 27.59) rotate(-8.32)"/><circle class="cls-41" cx="173.65" cy="248.21" r="1.93" transform="translate(-34.1 27.75) rotate(-8.32)"/><path class="cls-46" d="M275.18,416.37s29.4-19.22,30.99-21.71,3.51-8.59,2.15-14.7-6.56-13.57-9.73-14.93-11.53,0-11.53,0l-16.96,32,5.09,19.34Z"/><path class="cls-65" d="M262.06,427.56l2.71-2.15s1.02,.9,2.04,1.07,3.39-2.21,3.28-3.22,.23-2.94,.9-1.81,4.18-1.13,4.18-3.05-.9-30.08-.9-30.08l-12.21,39.24Z"/><path class="cls-66" d="M288.4,269.43c-2.56-11.55-4.27-10.54-13.22-11.81-8.95-1.28-45.89-12.06-49.28-13.82h0c-7.58-5.28-23.29-3.58-36.64-3.77-16.12-.22-34.09,2.27-34.34,6.18-.25,3.91,1.78,8.34,3.81,16.12,2.03,7.78,13.29,33.33,18.5,43.12,5.21,9.8,3.18,27.17,3.18,27.17h.17s-12.33,35.57-12.33,35.57l-10.86,31.38-4.24,11.37,12.38,15.95,20.02,1.53,26.63-6.45,7.46,8.82,26.29,3.39,16.12-6.62s3.73-8.93,4.52-14.25,18.89-38.79,18.89-38.79c0,0,8.59-23.75,9.39-33.93,.79-10.18,1.47-19.68,1.24-24.65,0,0,.89,1.94,1.47-5.09,.58-7.03-6.62-29.88-9.18-41.43Z"/><path class="cls-60" d="M168.99,293.74s-.11,1.85,.82,6.87,6.27,12.74,6.47,18.32,1.82,5.95,3.4,5.69,29.47-3.33,40.6,.7c11.13,4.04,16.07-3.78,16.86-11.32s1.29-27.64-1.37-28.53-46.45,2.45-55.02,2.99-11.76,5.27-11.76,5.27Z"/><path class="cls-36" d="M302.66,397.63s3.62-14.17,.91-20.62-10.29-11.5-10.74-12.59-.45-1.21,2.37-1.77,5.54,1.02,12.89,2.37,9.39,7.35,9.61,10.18-1.58,18.66-5.54,30.76c-3.96,12.1-3.39,16.62-5.09,19s-8.59,6.56-13.91,6.56-13.08-2.6-14.59-9.5l-1.5-6.89,25.59-17.5Z"/><path class="cls-32" d="M295.24,402.7l-16.79,11.48c.16,1.5,.54,2.65,1.31,2.77,2.38,.38,12.09,2.79,13.96-2.57,1.16-3.31,1.47-8.31,1.52-11.68Z"/><polygon class="cls-33" points="233.18 317.45 255.95 300 273.44 212.44 265.28 301.36 260.87 302.2 263.59 306.61 258.54 314.85 233.18 317.45"/><path class="cls-61" d="M274.54,206.89l-1.11,5.55-4.03,44.01c2.42,.56,4.42,.98,5.78,1.17,4.19,.6,6.8,.69,8.64,1.82l2.57,3.8-11.85-56.34Z"/><polygon class="cls-38" points="271.48 233.82 268.96 234.32 267.1 244.18 270.6 243.42 271.48 233.82"/><path class="cls-74" d="M167.12,254.57l-5.15-12.51-2.69-9.14-.19-40.82s-8.32-.38-11.24,2.51-3.07,25.52,.97,41.62c3.25,12.94,7.22,20.56,8.65,23.04,.3,.52,.94,.73,1.5,.5l7.29-3.1c.81-.35,1.2-1.28,.86-2.1Z"/><g><path class="cls-75" d="M159.87,205.46s-1.16,20.92,10.61,27.78c-5.6,.76-5.95-3.32-7.73-3.58s-4.39-16.09-12.23-10.22c-3.57-2.94,1.59-15.83,1.59-15.83l7.76,1.84Z"/><path class="cls-73" d="M170.47,233.24s15.96-2.82,26.18-19.15,12.23-24.38,12.23-24.38l2.19-7.15,12.26,9.53s-3.44,19.57-2.87,23.79-.39,2.81-4.7,1.4-11.8-2.68-15.33,0-9.42,9.57-14.52,13.02-11.64,4.48-15.45,2.94Z"/></g><polygon class="cls-56" points="231.64 353.83 221.24 349.53 212.19 358.13 213.72 377.69 200.32 409.92 199.71 414.26 180.8 416.02 168.46 408.86 161.9 422.19 165.54 426.88 185.56 428.41 198.15 425.36 212.19 421.96 209.82 409.92 231.64 353.83"/><path class="cls-44" d="M179.59,367.39s-3.38,2.78-7.24,3.79-6.44,.48-7.59,1.38,4.39,4.61,4.39,4.61c0,0,9.5-5.75,10.13-7.35s.31-2.43,.31-2.43Z"/><g><g><path class="cls-25" d="M169.29,381.72c3.72,15.79-6.07,31.6-21.85,35.31-.82,.19-1.65,.35-2.48,.47-14.93,2.2-29.31-7.36-32.84-22.32-3.72-15.79,6.07-31.6,21.85-35.31,3.36-.8,6.84-.99,10.27-.58,11.88,1.44,22.15,10.11,25.05,22.43Z"/><path class="cls-19" d="M169.05,378.37c3.78,16.08-6.18,32.18-22.25,35.96-.84,.2-1.68,.36-2.52,.48-15.21,2.25-29.85-7.5-33.44-22.73-3.78-16.08,6.18-32.18,22.25-35.96,3.42-.81,6.96-1.01,10.45-.59,12.09,1.47,22.55,10.3,25.51,22.84Z"/><path class="cls-18" d="M164.85,379.35c3.24,13.76-5.29,27.53-19.04,30.77-.72,.17-1.44,.3-2.16,.41-13.01,1.92-25.54-6.42-28.61-19.45-3.24-13.76,5.29-27.53,19.04-30.77,2.93-.69,5.96-.86,8.95-.5,10.35,1.26,19.3,8.81,21.83,19.55Z"/><path class="cls-17" d="M133.34,357.25c3.42-.81,6.96-1.01,10.45-.59,11.89,1.44,22.2,10,25.34,22.22-.04-.17-.07-.35-.12-.52-2.95-12.54-13.41-21.36-25.49-22.83-3.49-.42-7.03-.22-10.45,.59-16.07,3.78-26.03,19.88-22.24,35.94,.05,.19,.09,.39,.14,.58-3.43-15.88,6.48-31.65,22.37-35.39Z"/><path class="cls-25" d="M134.31,361.28c2.93-.69,5.96-.86,8.95-.5,10.18,1.24,19.01,8.56,21.7,19.02-.03-.15-.06-.3-.1-.45-2.53-10.74-11.48-18.29-21.83-19.55-2.99-.36-6.02-.19-8.95,.5-13.76,3.24-22.28,17.02-19.04,30.77,.04,.17,.08,.33,.12,.5-2.94-13.6,5.55-27.1,19.15-30.3Z"/></g><g><polygon class="cls-19" points="133.8 377.2 137.9 378.52 141.04 375.56 136.93 374.25 133.8 377.2"/><polygon class="cls-19" points="127.12 388.62 123.03 387.3 125.64 398.89 136.78 402.44 135.81 398.17 128.79 395.92 127.12 388.62"/><polygon class="cls-19" points="125.47 381.32 128.62 378.37 124.51 377.05 121.38 380 122.34 384.26 126.43 385.58 125.47 381.32"/><polygon class="cls-19" points="150.32 375.72 151.28 379.97 154.43 377.02 153.47 372.76 149.36 371.44 146.23 374.4 150.32 375.72"/><polygon class="cls-19" points="151.99 383.01 153.61 390.32 148.24 395.36 149.2 399.64 157.73 391.65 155.12 380.06 151.99 383.01"/><polygon class="cls-19" points="131.04 393.82 135.13 395.12 134.17 390.87 130.07 389.55 131.04 393.82"/><polygon class="cls-19" points="138.75 399.12 139.71 403.37 143.8 404.69 146.95 401.73 145.99 397.48 142.84 400.44 138.75 399.12"/><polygon class="cls-19" points="149.72 385.11 146.59 388.07 147.55 392.32 150.68 389.39 149.72 385.11"/><polygon class="cls-19" points="136.25 371.21 143.29 373.47 146.42 370.52 135.29 366.95 126.78 374.95 130.87 376.27 136.25 371.21"/><polygon class="cls-19" points="148.07 377.81 148.09 377.81 143.97 376.49 138.58 381.56 131.57 379.29 128.43 382.25 129.39 386.52 136.43 388.77 138.09 396.08 142.17 397.39 145.31 394.45 143.66 387.14 149.05 382.08 148.07 377.81"/></g><g class="cls-68"><path class="cls-20" d="M160.55,363.55l-30.81,49.78c1.85,.67,3.78,1.17,5.75,1.46l28.94-46.76c-1.15-1.63-2.45-3.14-3.87-4.49Z"/><path class="cls-20" d="M143.54,355.52c-.23-.03-.45-.05-.68-.07l-28.26,45.66c2.92,4.65,7.04,8.35,11.83,10.78l31.36-50.67c-4.13-3.07-9.04-5.07-14.25-5.7Z"/></g></g><path class="cls-47" d="M180.81,365.69s12.49-16.79,21.68-28.64,28.53-36.74,32.28-39.29,1.93-4.39,1.93-4.39l36.73,5.28s1.96,10.28-1.96,16.2-20.99,28.05-30.35,34.69-45.49,35.86-45.49,35.86l-18.87-7.87,4.04-11.83Z"/><path class="cls-45" d="M93.08,378.74s-3.83-.82-5.8-.25-5.09,1.1-6.19,6.7,3.33,14.41,4.2,16.48,4.94,5.11,7.35,4.59c2.41-.52,8.67-2.39,10.39-4.37,1.72-1.99-.04-4.97-.88-5.14s.73-.99,.71-2.73-1.53-4.03-2.06-4.01-1.53-.55-1.07-.63,.81-3.14-.19-4.44-2.18-1.25-2.24-1.31l-.06-.06s1.05-.48,.98-1.04,.77-2.21-5.13-3.8Z"/><path class="cls-43" d="M180.81,365.69s-1.83,3.01-4.14,4.39-8.89,7.07-11.26,10.24-2.25,8.43-3.85,11.02-7.66,9.66-8.74,11.63-1.44,3.95-.47,4.85-.24,2.43,.8,3.54,2.28,1.34,3.81,.54-.19,1.35,2.77,1.43c2.97,.08,5.12-1.85,5.71-.61s.35,3.2,6.62-1.93,11.25-7.06,14.23-15.82,9.34-9.56,9.34-9.56l-14.83-19.7Z"/><polygon class="cls-72" points="228.55 296.83 226.21 227.53 235.01 207.64 255.45 194.49 274.54 206.89 279.91 304.45 228.55 296.83"/><g class="cls-57"><g class="cls-58"><path class="cls-7" d="M265.74,286.21s-.27-77.28-9.37-94.13"/><path class="cls-7" d="M225.28,271.91s34.45-8.3,54.11-4.34"/><path class="cls-7" d="M223.36,255.18s19.64-20.34,57.94-17.53"/><path class="cls-7" d="M224.19,236.34c.54-.19,21.83-39.07,58.45-30.34"/></g><g class="cls-58"><path class="cls-3" d="M265.74,286.21s-.27-77.28-9.37-94.13"/><path class="cls-3" d="M225.28,271.91s34.45-8.3,54.11-4.34"/><path class="cls-3" d="M223.36,255.18s19.64-20.34,57.94-17.53"/><path class="cls-3" d="M224.19,236.34c.54-.19,21.83-39.07,58.45-30.34"/></g><g class="cls-58"><path class="cls-6" d="M265.74,286.21s-.27-77.28-9.37-94.13"/><path class="cls-6" d="M225.28,271.91s34.45-8.3,54.11-4.34"/><path class="cls-6" d="M223.36,255.18s19.64-20.34,57.94-17.53"/><path class="cls-6" d="M224.19,236.34c.54-.19,21.83-39.07,58.45-30.34"/></g></g><g><path class="cls-70" d="M263.53,282.22c-15.85-4.49-34.03,2.41-36.18,4.07-2.14,1.66-3.97,5.64-3.32,8.37s.92,9.12,.92,9.12c0,0,.6,2.3,1.59,3.03l1.98-2.19c.78-1.33,3.62-2.68,13.22-.36,15.32,3.69,27.62,7.09,28.71,8.46,1.09,1.37-2.29,4.57-1.78,5.49s4.84,2.86,10.06-1.67c5.22-4.53,8.76-16.37,8.88-20.99,.12-4.62-8.24-8.82-24.09-13.31Z"/><g class="cls-58"><path class="cls-1" d="M261.48,295.9c.51-5.69,.71-11.84,.43-14.07-15.45-3.62-32.49,2.85-34.56,4.45-2.14,1.66-3.97,5.64-3.32,8.37,.06,.24,.11,.53,.16,.82,2-1.02,4.24-1.81,6.4-2.15,9.51-1.49,20.06-.57,30.89,2.57Z"/><path class="cls-1" d="M268.64,298.28c.33,.12,.65,.22,.98,.35,8.13,3.18,12.64,5.79,15.2,8.08,1.71-4.32,2.72-8.75,2.79-11.18,.11-4.02-6.21-7.72-18.28-11.57,.06,3.58-.18,8.32-.44,11.59-.08,.97-.16,1.87-.25,2.73Z"/><path class="cls-1" d="M260.62,302.97c-10.17-3.12-20.01-4.07-28.76-2.7-3.18,.5-6.08,2.38-6.75,3.16-.03,.22-.02,.58,.03,.99,.44,1.3,1.6,3.98,3.18,1.78,0,0-1.91-5.63,13.42-1.94,4.58,1.1,8.88,2.18,12.7,3.18,2.19-.19,4.33-.56,5.31-1.02,.31-.69,.6-1.91,.87-3.44Z"/><path class="cls-1" d="M281.07,313.76c-.39-2.16-4.93-4.97-13.46-8.36-.61,2.89-1.26,4.39-1.87,5.26,2.65,.87,4.34,1.57,4.71,2.04,1.09,1.37-2.29,4.57-1.78,5.49,.51,.92,4.84,2.86,10.06-1.67,.83-.72,1.61-1.64,2.35-2.68,0-.03-.01-.06-.02-.09Z"/><path class="cls-30" d="M266.92,305.14c-2.11-.83-4.21-1.52-6.3-2.16-.26,1.54-.56,2.75-.87,3.44-.99,.46-3.12,.83-5.31,1.02,4.61,1.21,8.5,2.32,11.3,3.23,.61-.87,1.27-2.37,1.87-5.26-.23-.09-.45-.18-.69-.27Z"/><path class="cls-30" d="M268.64,298.28c.09-.86,.17-1.75,.25-2.73,.27-3.27,.51-8.01,.44-11.59-1.81-.58-3.74-1.16-5.81-1.74-.53-.15-1.08-.26-1.61-.38,.28,2.23,.08,8.38-.43,14.07,2.38,.69,4.76,1.47,7.16,2.38Z"/><path class="cls-30" d="M268.64,298.28c-.31,3.02-.66,5.34-1.03,7.12,8.53,3.38,13.07,6.2,13.46,8.36,0,.02,.01,.06,.02,.09,1.46-2.04,2.72-4.56,3.74-7.13-2.56-2.29-7.07-4.9-15.2-8.08-.33-.13-.65-.23-.98-.35Z"/><path class="cls-30" d="M231.86,300.27c8.75-1.37,18.59-.41,28.76,2.7,.34-1.97,.63-4.47,.86-7.07-10.83-3.14-21.38-4.06-30.89-2.57-2.16,.34-4.4,1.13-6.4,2.15,.53,3.01,.75,8.3,.75,8.3,0,0,.07,.26,.2,.64-.05-.4-.07-.77-.03-.99,.67-.78,3.57-2.66,6.75-3.16Z"/><path class="cls-30" d="M268.64,298.28c-2.4-.91-4.78-1.69-7.16-2.38-.23,2.6-.52,5.1-.86,7.07,2.09,.64,4.19,1.34,6.3,2.16,.24,.09,.46,.18,.69,.27,.37-1.78,.72-4.11,1.03-7.12Z"/></g><g class="cls-58"><path class="cls-1" d="M262.59,297.45c.59-5.8,.85-12.46,.6-15.31-15.77-4.3-33.71,2.5-35.84,4.15-2.14,1.66-3.97,5.64-3.32,8.37,.13,.56,.25,1.28,.35,2.05,1.98-1.05,4.27-1.88,6.43-2.22,9.75-1.53,20.62-.48,31.78,2.96Z"/><path class="cls-1" d="M267.33,299.06c.62,.23,1.23,.42,1.85,.66,8.46,3.31,12.84,5.92,15.17,8.17,2-4.66,3.2-9.7,3.27-12.35,.11-4.15-6.65-7.96-19.51-11.95,.08,3.28-.11,7.92-.43,11.87-.11,1.33-.22,2.5-.35,3.6Z"/><path class="cls-1" d="M262,302.16c-10.72-3.43-21.11-4.5-30.35-3.05-2.77,.43-5.43,1.85-6.8,2.93,.06,1.03,.09,1.74,.09,1.74,0,0,1.35,5.24,3.37,2.42,0,0-1.91-5.63,13.42-1.94,5.82,1.4,11.19,2.76,15.69,3.98,1.38-.24,2.6-.56,3.27-.98,.48-.74,.93-2.64,1.3-5.09Z"/><path class="cls-1" d="M267.37,304.05c-.24-.09-.47-.16-.7-.25-.72,4.07-1.52,5.7-2.17,6.47,3.36,1.05,5.52,1.9,5.95,2.44,1.09,1.37-2.29,4.57-1.78,5.49,.51,.92,4.84,2.86,10.06-1.67,1.16-1.01,2.24-2.39,3.21-3.97-.76-1.52-3.47-4.17-14.57-8.51Z"/><path class="cls-30" d="M262,302.16c-.38,2.45-.82,4.35-1.3,5.09-.67,.42-1.88,.74-3.27,.98,2.72,.74,5.1,1.42,7.07,2.04,.64-.77,1.45-2.4,2.17-6.47-1.56-.6-3.12-1.14-4.67-1.64Z"/><path class="cls-30" d="M267.33,299.06c.12-1.1,.24-2.28,.35-3.6,.32-3.95,.51-8.59,.43-11.87-1.46-.45-2.97-.9-4.58-1.36-.11-.03-.23-.05-.34-.08,.25,2.86-.01,9.51-.6,15.31,1.58,.49,3.15,1.02,4.74,1.6Z"/><path class="cls-30" d="M267.33,299.06c-.21,1.86-.43,3.44-.66,4.74,.24,.09,.47,.16,.7,.25,11.11,4.34,13.81,6.99,14.57,8.51,.89-1.43,1.7-3.03,2.4-4.67-2.34-2.24-6.71-4.86-15.17-8.17-.62-.24-1.23-.44-1.85-.66Z"/><path class="cls-30" d="M231.65,299.11c9.23-1.45,19.63-.38,30.35,3.05,.22-1.42,.42-3.03,.59-4.71-11.16-3.44-22.03-4.49-31.78-2.96-2.15,.34-4.45,1.17-6.43,2.22,.23,1.77,.39,3.88,.48,5.33,1.36-1.08,4.02-2.49,6.8-2.93Z"/><path class="cls-30" d="M267.33,299.06c-1.58-.58-3.16-1.12-4.74-1.6-.17,1.68-.37,3.29-.59,4.71,1.55,.5,3.11,1.04,4.67,1.64,.23-1.31,.45-2.88,.66-4.74Z"/></g><g class="cls-58"><path class="cls-1" d="M263.32,301.35c-11.24-3.73-22.18-4.92-31.88-3.4-2.54,.4-5.02,1.56-6.68,2.69,.13,1.75,.19,3.13,.19,3.13,0,0,1.35,5.24,3.37,2.42,0,0-1.91-5.63,13.42-1.94,6.88,1.66,13.14,3.25,18.06,4.63,.71-.22,1.34-.47,1.77-.79,.67-.57,1.27-3.26,1.76-6.75Z"/><path class="cls-1" d="M268.72,300.8c8.91,3.48,13.08,6.17,15.11,8.25,2.31-4.97,3.71-10.64,3.79-13.52,.11-4.29-7.08-8.21-20.78-12.34,.12,3.92-.11,10.8-.82,16.64,.9,.32,1.8,.62,2.7,.97Z"/><path class="cls-1" d="M263.62,298.98c.66-5.9,1-13.05,.8-16.5-.3-.09-.59-.17-.89-.26-15.85-4.49-34.03,2.41-36.18,4.07-2.14,1.66-3.97,5.64-3.32,8.37,.2,.85,.37,2.07,.5,3.33,1.87-1.07,4.17-1.98,6.49-2.34,9.96-1.56,21.14-.41,32.6,3.33Z"/><path class="cls-1" d="M267.82,302.97c-.71-.28-1.42-.51-2.13-.77-.58,3.73-1.4,6.7-2.52,7.66,4.13,1.24,6.79,2.24,7.27,2.84,1.09,1.37-2.29,4.57-1.78,5.49,.51,.92,4.84,2.86,10.06-1.67,1.45-1.26,2.76-3.08,3.91-5.15-1.3-1.8-4.79-4.5-14.82-8.41Z"/><path class="cls-30" d="M266.02,299.83c.71-5.84,.94-12.72,.82-16.64-.78-.24-1.6-.47-2.42-.71,.2,3.44-.14,10.6-.8,16.5,.8,.26,1.6,.57,2.4,.85Z"/><path class="cls-30" d="M263.32,301.35c-.48,3.49-1.08,6.18-1.76,6.75-.43,.31-1.06,.57-1.77,.79,1.21,.34,2.34,.67,3.38,.98,1.11-.97,1.93-3.93,2.52-7.66-.79-.29-1.58-.59-2.37-.85Z"/><path class="cls-30" d="M266.02,299.83c-.1,.81-.21,1.61-.33,2.37,.71,.26,1.42,.49,2.13,.77,10.02,3.91,13.52,6.61,14.82,8.41,.42-.75,.82-1.52,1.19-2.33-2.03-2.09-6.2-4.77-15.11-8.25-.9-.35-1.8-.65-2.7-.97Z"/><path class="cls-30" d="M263.32,301.35c.1-.76,.2-1.55,.3-2.37-11.46-3.74-22.64-4.89-32.6-3.33-2.31,.36-4.62,1.27-6.49,2.34,.09,.9,.17,1.82,.23,2.66,1.66-1.13,4.14-2.29,6.68-2.69,9.7-1.52,20.64-.34,31.88,3.4Z"/><path class="cls-30" d="M266.02,299.83c-.8-.29-1.6-.59-2.4-.85-.09,.82-.19,1.62-.3,2.37,.79,.26,1.58,.56,2.37,.85,.12-.76,.23-1.56,.33-2.37Z"/></g></g><path class="cls-71" d="M228.53,189.18s-1.83,12.1-5.62,35.83c.17,5.15-.22,21.57,0,28.02-.72,4.05-10.76,3.23-12.09,1.36-.8-4.15-1.43-8.4-1.7-12.41-1.15-16.96,2.42-51.12,4.09-55.69,1.28-1.45,3.11-1.05,5.19-.66s9.68,1.84,9.68,1.84c0,0,.97,.96,.45,1.72Z"/><ellipse class="cls-40" cx="159.46" cy="252.76" rx="2.96" ry="3.83" transform="translate(-34.93 25.77) rotate(-8.33)"/><ellipse class="cls-42" cx="216.64" cy="248.83" rx="3.83" ry="3.83" transform="translate(-33.74 33.98) rotate(-8.32)"/><g><g><path class="cls-21" d="M220.25,147.82c-1.38,2.73-3.06,4.49-4.82,5.56-1.75-3.81-3.05-7.82-3.86-11.94l-.14-.71c-.71-3.41-1.86-6.72-3.44-9.83,1.38-.88,3.25-1.46,5.72-1.04,6.52,1.11,10.18,10.74,6.54,17.95Z"/><path class="cls-82" d="M220.25,147.82c-1.38,2.73-3.06,4.49-4.82,5.56-1.75-3.81-3.05-7.82-3.86-11.94l-.14-.71c-.71-3.41-1.86-6.72-3.44-9.83,1.38-.88,3.25-1.46,5.72-1.04,6.52,1.11,10.18,10.74,6.54,17.95Z"/><path class="cls-21" d="M126.1,147.58c-.23,3.47,0,6.95,.67,10.35l.14,.71c.86,4.11,1.24,8.3,1.11,12.5-2.03-.29-4.26-1.26-6.61-3.24-6.16-5.21-6.56-15.51-.98-19.09,2.11-1.35,4.06-1.55,5.67-1.28,0,.01,0,.03,0,.04Z"/><path class="cls-50" d="M126.1,147.58c-.23,3.47,0,6.95,.67,10.35l.14,.71c.86,4.11,1.24,8.3,1.11,12.5-2.03-.29-4.26-1.26-6.61-3.24-6.16-5.21-6.56-15.51-.98-19.09,2.11-1.35,4.06-1.55,5.67-1.28,0,.01,0,.03,0,.04Z"/><path class="cls-21" d="M202.32,156.17c-1.24,3.16-.97,6.7,.71,9.64,1.29,2.21,2.55,4.74,2.96,6.74,2.96,14.61-8.47,29.24-25.53,32.7-17.06,3.47-33.3-5.54-36.27-20.15-.41-2-.23-4.82,.09-7.36,.41-3.36-.73-6.72-3.1-9.15-2.29-2.37-3.86-5.34-4.52-8.57-1.97-9.69,4.68-19.23,14.85-21.29,3.29-.68,6.69-.49,9.89,.54,3.75,1.23,7.87,.39,10.84-2.2,2.54-2.19,5.6-3.69,8.89-4.35,10.17-2.07,20.03,4.11,22,13.8,.5,2.42,.46,4.92-.11,7.33-.18,.79-.42,1.57-.71,2.32Z"/><path class="cls-52" d="M202.32,156.17c-1.24,3.16-.97,6.7,.71,9.64,1.29,2.21,2.55,4.74,2.96,6.74,2.96,14.61-8.47,29.24-25.53,32.7-17.06,3.47-33.3-5.54-36.27-20.15-.41-2-.23-4.82,.09-7.36,.41-3.36-.73-6.72-3.1-9.15-2.29-2.37-3.86-5.34-4.52-8.57-1.97-9.69,4.68-19.23,14.85-21.29,3.29-.68,6.69-.49,9.89,.54,3.75,1.23,7.87,.39,10.84-2.2,2.54-2.19,5.6-3.69,8.89-4.35,10.17-2.07,20.03,4.11,22,13.8,.5,2.42,.46,4.92-.11,7.33-.18,.79-.42,1.57-.71,2.32Z"/><path class="cls-78" d="M160.02,185.3c-.98,.2-1.61,1.15-1.42,2.13,.02,.08,.04,.16,.06,.23,2.69,7.6,11.34,12.14,20.32,10.31,8.98-1.82,15.18-9.38,14.68-17.43-.07-1-.93-1.75-1.93-1.68-.08,0-.16,.02-.24,.03l-31.48,6.4Z"/><path class="cls-76" d="M168.23,197.13c7.01,2.62,14.9,1.01,20.33-4.13-2.17-4.16-6.04-2.31-10.86-1.33-4.82,.98-9.09,.79-9.46,5.46Z"/><path class="cls-79" d="M215.14,126.18c-3.94-.68-6.69,.66-8.49,2.25-.8-1.37-1.66-2.69-2.59-3.96-.68-.93-1.4-1.85-2.15-2.74-7.67-9.1-18.81-15.68-30.33-17.08l-1.39-5.77-6.14,5.62-.86,.08c-.53,.06-1.04,.13-1.57,.21l-1.91-4.19-.56-1.21c-.35,.07-.69,.14-1.01,.25-6.39,1.85-8.43,8.41-8.73,9.53-10.06,5.78-17.74,16.2-21.25,27.56-.35,1.11-.65,2.23-.91,3.36-.36,1.54-.64,3.1-.84,4.66l-.29-.09c-2.24-.67-5.18-.73-8.41,1.34-7.09,4.54-6.58,17.63,1.25,24.25,3.19,2.69,6.23,3.91,8.95,4.17,0,.15,0,.3,0,.45-.03,2.22,.17,4.44,.62,6.61,3.06,15.07,16.82,25.78,33.9,28.24,4.01,.58,8.08,.7,12.11,.36,2.1-.17,4.18-.46,6.25-.87l.49-.1c25-5.08,41.91-25.69,37.78-46.04-.44-2.17-1.11-4.29-2.01-6.32-.06-.14-.12-.28-.19-.41,2.41-1.32,4.73-3.61,6.62-7.33,4.62-9.17-.03-21.41-8.31-22.83Zm-89.03,21.41c-.23,3.47,0,6.95,.67,10.35l.14,.71c.86,4.11,1.24,8.3,1.11,12.5-2.03-.29-4.26-1.26-6.61-3.24-6.16-5.21-6.56-15.51-.98-19.09,2.11-1.35,4.06-1.55,5.67-1.28,0,.01,0,.03,0,.04Zm76.94,6.27c-.18,.79-.42,1.57-.72,2.32-1.24,3.16-.97,6.7,.71,9.64,1.29,2.21,2.55,4.74,2.96,6.74,2.96,14.61-8.47,29.24-25.53,32.7-17.06,3.47-33.3-5.54-36.27-20.15-.41-2-.23-4.82,.09-7.36,.41-3.36-.73-6.72-3.1-9.15-2.29-2.37-3.86-5.34-4.52-8.57-1.97-9.69,4.68-19.23,14.85-21.29,3.29-.68,6.69-.49,9.89,.54,3.75,1.23,7.87,.39,10.84-2.2,2.54-2.19,5.6-3.69,8.89-4.35,10.17-2.07,20.03,4.11,22,13.8,.5,2.42,.46,4.92-.1,7.33Zm17.21-6.03c-1.38,2.73-3.06,4.49-4.82,5.56-1.75-3.81-3.05-7.82-3.86-11.94l-.14-.71c-.71-3.41-1.86-6.72-3.44-9.83,1.38-.88,3.25-1.46,5.72-1.04,6.52,1.11,10.18,10.74,6.54,17.95h0Z"/><rect class="cls-81" x="167.23" y="167.83" width="3.03" height="6.88" rx="1.47" ry="1.47" transform="translate(-36.24 296.93) rotate(-76.94)"/><rect class="cls-55" x="174.56" y="167.88" width="6.88" height="3.03" rx="1.47" ry="1.47" transform="translate(-65.59 137.13) rotate(-36.04)"/><path class="cls-54" d="M155.45,163.51h0c-2.92,.59-5.75-1.17-6.31-3.94l-.34-1.67c-.56-2.77,1.35-5.5,4.27-6.09h0c2.92-.59,5.75,1.17,6.31,3.94l.34,1.67c.56,2.77-1.36,5.5-4.27,6.09Z"/><path class="cls-77" d="M153.08,151.81l1.19,5.85c.36,1.45,1.83,2.33,3.28,1.96,1.35-.34,2.23-1.66,2.01-3.04l-.17-.82c-.57-2.79-3.4-4.54-6.31-3.95Z"/><ellipse class="cls-18" cx="153.76" cy="155.16" rx="1.8" ry="1.71" transform="translate(-27.82 33.72) rotate(-11.49)"/><path class="cls-83" d="M176.58,130.39c6.52-2.86,14.98-9.65,16.12-12.42,1.15-3.08-10.84-3.43-10.84-3.43l-31.76,1.06-1.29,.93c1.02-2.32,2.09-4.48,3.16-6.41,.63-1.14,1.25-2.19,1.86-3.16,2.44-3.86,4.65-6.25,5.86-6.37l-.56-1.21c-.35,.07-.69,.15-1.01,.25-6.39,1.85-8.43,8.41-8.73,9.53-10.06,5.78-17.74,16.19-21.25,27.56-.34,1.11-.65,2.23-.91,3.36-.36,1.54-.64,3.1-.84,4.66l-.29-.09c-2.24-.67-5.18-.73-8.41,1.34-7.08,4.54-6.58,17.63,1.25,24.25,3.19,2.68,6.21,3.89,8.94,4.16,0,.15,0,.3,0,.45-.03,2.22,.18,4.43,.62,6.61,3.06,15.07,16.82,25.78,33.91,28.24,4.01,.58,8.08,.7,12.11,.36,0,0-11.31-3.47-19.52-12.81-7.47-8.5-10.92-24.02-12.05-39.95-.29-6.55-.44-11.06-.44-11.06,0,0,0,0,0-.01,0-.69,.44-1.31,1.09-1.53,17.41-5.92,33.95-9.31,54.36-10.18,2.16-.23,4.4-.47,6.3-1.51,1.91-1.05,3.43-3.12,3.13-5.28-10.19,1.43-20.53,1.91-30.82,2.66Zm-31.96,4.59c-.49,.13-.98,.27-1.47,.44,.17-1.11,.37-2.21,.6-3.31,.03,0,9.43-2.81,14.32-1.42,1.37,.39,2.72,.76,4.1,1.05-5.91,.73-11.78,1.73-17.56,3.25Z"/><path class="cls-53" d="M186.83,156.96h0c-2.92,.59-5.75-1.17-6.31-3.94l-.34-1.67c-.56-2.77,1.35-5.5,4.27-6.09h0c2.92-.59,5.75,1.17,6.31,3.94l.34,1.67c.56,2.77-1.36,5.5-4.27,6.09Z"/><path class="cls-51" d="M184.45,145.26l1.19,5.85c.36,1.45,1.83,2.33,3.28,1.96,1.35-.34,2.23-1.66,2.01-3.04l-.17-.82c-.57-2.79-3.4-4.54-6.31-3.95Z"/><ellipse class="cls-18" cx="185.13" cy="148.6" rx="1.8" ry="1.71" transform="translate(-25.88 39.84) rotate(-11.49)"/></g><path class="cls-84" d="M180.89,96.26c-20.92-1.39-21.86-.6-21.9-.51-.08-.06-1.3-.41-20.11,9.02-17.1,10.17-15.53,38.95-14.63,39.48s6.32,.39,6.32,.39l35.33-12.13,37.13-2.55s5.08-1.99,5.72-2.83c.64-.84-8.32-28.12-27.85-30.87Z"/><g><path class="cls-48" d="M188.87,98.94c6.78,9.7,11.37,24.32,13.25,31.08l.9-.06s5.08-1.99,5.72-2.83c.55-.71-5.88-20.61-19.87-28.19Z"/><path class="cls-49" d="M124.24,144.24c.9,.52,6.32,.39,6.32,.39l2.26-.78c-1.32-9.13-.1-26.6,.58-34.61-11.26,12.31-9.95,34.53-9.16,34.99Z"/></g><path class="cls-85" d="M166.06,133.29s-15.04,4.46-21.82,7.2c-6.78,2.74-14.96,4.79-15.54,4.85s-1.26-2.91-1.26-2.91l21.12-12.66,15.82-4.16,16.89-1.82,22.75,2.65s.44,2.43,.41,3.44c-.03,1.02-22.83,.46-38.37,3.41Z"/><path class="cls-86" d="M128.7,145.34s-.32-1.12,2.35-2.85c2.67-1.72,21.31-13.98,32.51-16.33,11.86-2.97,34.37,.93,36.57,1.09s3.27,2.26,3.27,2.26c0,0,.7,.78,1.6,.62s1.55-1.37,.82-3.56c-.81-1.48-1.64-1.89-3.12-2.15-1.23-.21-14.72-4.4-29.7-3.27-6.55,.49-13.01,1.85-19.2,4.05-15,6.71-24.72,14.08-26.44,15.08-2.08,1.22-1.49,4.02-1.12,4.6s1.93,1.75,2.45,.45Z"/></g></g><path class="cls-26" d="M250,451.96s-32.11-20.33-48.74-20.44-34.13-12.82-41.52-13.22c0,0-13.48-3.35-18.65-7.25s-31.8-7.56-40-5.75-10.57,6.78-27.78,11.07-20.89,19.76-1.25,35.7,83.81,22.39,108.86,20.05,91.01-.07,69.09-20.15Z"/><path class="cls-29" d="M67.27,417.89c3.73-.27,4.55-1.79,12.66-.29s12.02,1.73,4.52,6.65-12.89,7.54-15.9,5.24-11.24-10.89-1.28-11.6Z"/><path class="cls-10" d="M64.31,425.17s2.46,2.35,3.27,2.97,1.37,1.27,3.29,1.37,5.35-.95,6.39-1.5,10.22-6.03,10.22-6.03c0,0-2.32,2.71-3.73,3.77s-6.91,4.28-8.48,4.8-3.29,.68-5.18,.42-2.61-1.34-2.9-1.96-2.88-3.85-2.88-3.85Z"/><path class="cls-29" d="M218.18,443.87c.55-.8,.52-1.86,2.87-1.45s3.33,.54,3.46,1.45,.52,2.54-.91,2.67-4.17-.13-4.76-.59-.97-1.63-.65-2.09Z"/><path class="cls-29" d="M204.02,447.85c.8-.69,2.28-3.26,5.8-2.61s4.3,1.04,4.24,2.28,.46,3.65-1.17,4.11-6.13,2.41-7.24,1.96-4.22-3.5-1.63-5.74Z"/><path class="cls-10" d="M218.09,444.57c.03-.24,.55,.96,1.14,1.12s1.72,.48,2.68,.44,1.63-.37,2.04-.37,.59-.05,.64-.01,.11,.4-.06,.67-.54,.4-1.09,.57-1.69-.07-2.15-.1-1.71-.31-2.38-.55-.86-1.42-.82-1.78Z"/><path class="cls-10" d="M203.12,450.6s.93,.92,1.5,1.13,.54-.34,1.6,0,.36,.77,1.84,.67,3.91-.66,4.43-.89,1.44-.83,1.55-1.53,.13,.91-.12,1.42-1.86,.86-2.33,1.12-3.18,.96-3.8,1.29-2.25,.21-2.79,0-1.74-2.12-1.78-2.54-.11-.66-.11-.66Z"/><path class="cls-9" d="M174.65,448.24c-13.7-8.8-7.83-14.74-23.67-19.01s-19.31,13.92-40.86,14.32c-20.18,.37-44.33-1.02-47.32-1.2,2.15,3.16,5.2,6.43,9.26,9.72,20.13,18.64,51.99,22.68,115.06,23.58,7.47,.11,15.25,.09,23.2-.06-1.86-1.56-22.58-18.95-35.66-27.35Z"/><path class="cls-24" d="M376.78,423.42c.91-1.25,2.37-3.73,0-4.11-.04,0-.05-.02-.08-.02l-2.45-.12,4.08-3.6-4.85,.66,.28-.41c1.45-4.63,1.22-9.87,.71-14.79-1.63,3.38-3.38,6.7-5.24,9.95-.46-3.09-1.18-6.13-2.15-9.1-.8,2.72-1.28,5.53-1.41,8.37-1.72-3.33-3.83-6.46-6.27-9.31-1.52-1.78-3.25-3.6-3.59-5.91,.12,4.69,1.07,9.36,2.8,13.72-5-8.07-7.36-17.74-6.65-27.2-6.64,6.57-8.02,16.79-13.22,24.55-.83-8.17-3.1-16.2-6.68-23.59,.26,.53-1.67,4.08-1.91,4.77-.63,1.73-1.2,3.49-1.71,5.26-1,3.49-1.73,7.03-2.29,10.61-.87,5.63,.91,11.35,2.62,16.79l-3.29,.19,.24,3.36h-5.29l3.12,1.92c16.38,2.83,33.75,1.19,50.42,1.29,.61,0,1.3-.03,1.7-.49,.48-.55,.28-1.41,.56-2.09,.12-.3,.32-.54,.56-.72Zm-23.94-4.11l.02-.14,.07,.13h-.08Z"/><g><path class="cls-37" d="M364.81,408.73c-2.4-5.28-6.99-9.43-8.87-14.92-.42,2.03,.18,4.14,1.07,6.01,.89,1.87,2.06,3.6,2.89,5.49,1.5,3.4,1.85,7.24,1.44,10.94-.15-.66-.36-1.32-.64-1.94-.33-1.47-.8-2.91-1.39-4.3-2.08-4.86-4.83-9.07-5.63-14.44-.85-5.75,.64-11.77-.91-17.38-3.41,6.64-4.63,15.45-2.01,22.57,2.57,6.97,9.13,12.18,10.55,19.47,.01-.92-.02-1.83-.11-2.74,.2,.93,.46,2.26,.2,2.54,1.53-1.68,2.74-3.65,3.55-5.77,.36-.94,.65-1.94,.59-2.95-.05-.89-.37-1.75-.74-2.57Z"/><path class="cls-37" d="M372.24,411.39c-1.12,2.88-2.6,5.58-4.42,8.01l1.38,.99h1.44l3.12-4.56c1.43-4.57,1.23-9.74,.73-14.6-.56,3.48-.94,6.82-2.24,10.17Z"/><path class="cls-37" d="M334.41,411.97c-1.33-4.32-1.88-8.83-2.21-13.34-.37-5.13-.45-10.28-.25-15.41-.39,1.22-1.62,3.53-1.82,4.06-.63,1.73-1.2,3.49-1.71,5.26-1,3.49-1.91,7.01-2.29,10.61-.71,6.79,2.45,18.18,4.62,21.79l3.12,.96s2.64-2.4,3.12-2.4c.22,0,.62,.34,1.01,.71,.03,0,.05,0,.08-.01,2.11-.38,2.51-.86,1.22-2.59-2.19-2.94-3.81-6.13-4.89-9.64Z"/></g><path class="cls-24" d="M312.03,400.86l4.87,4.7,5.57-3.34-5.19,3.49,1.11,1.46,6.53-2.69,.52,.61-5.91,3.36,1.83,2.18,5.32-3.61-4.89,3.91,3.38,3.09,4.22-3.03-3.73,3.23,4-2.62-3.47,3.24s6.96,4.85,11.1,10.53c0,0-2.76-11.7-9.51-21.04-6.75-9.34-13.57-5.63-15.75-3.45Z"/><path class="cls-37" d="M302.79,417.36l6.66,1.19,2.77-5.88-2.37,5.78,1.74,.6,3.93-5.87,.77,.22-3.04,6.08,2.74,.79,2.41-5.96-1.89,5.97,4.53,.69,1.82-4.86-1.31,4.76,1.86-4.4-1.09,4.62s8.48,.15,15.08,2.57c0,0-8.81-8.19-19.61-12.19s-14.41,2.88-15,5.89Z"/></svg>