<?xml version="1.0" encoding="utf-8"?>
<!-- Generator: Adobe Illustrator 27.0.0, SVG Export Plug-In . SVG Version: 6.00 Build 0)  -->
<svg version="1.1" id="Capa_1" xmlns="http://www.w3.org/2000/svg" xmlns:xlink="http://www.w3.org/1999/xlink" x="0px" y="0px"
	 viewBox="0 0 500 500" style="enable-background:new 0 0 500 500;" xml:space="preserve">
<style type="text/css">
	.st0{fill:#8C8914;}
	.st1{fill:#8E9324;}
	.st2{fill:#D3A522;}
	.st3{fill:url(#SVGID_1_);}
	.st4{fill:#4D522A;}
	.st5{fill:#5C5C02;}
	.st6{fill:#FFD039;}
	.st7{opacity:0.1;enable-background:new    ;}
	.st8{opacity:0.3;enable-background:new    ;}
	.st9{fill:#B2956B;}
	.st10{fill:url(#SVGID_00000072254810018194338660000004931470906100950704_);}
	.st11{fill:#FFB300;}
	.st12{fill:#FFD54F;}
	.st13{fill:#FAF4E6;}
	.st14{fill:#FFCA28;}
	.st15{fill:#AC752C;}
	.st16{fill:#7D551F;}
	.st17{fill:#FFD770;}
	.st18{fill:#FFEA8C;}
	.st19{opacity:0.33;}
	.st20{fill:#FDFBF5;}
	.st21{fill:#9F6552;}
	.st22{opacity:0.35;fill:#4E3F3F;enable-background:new    ;}
	.st23{fill:url(#SVGID_00000114069002904482453920000003337677668690753199_);}
	.st24{opacity:0.15;}
	.st25{fill:#C0C1B6;}
	.st26{fill:url(#SVGID_00000083808189830467193070000014255341497998723263_);}
	.st27{fill:url(#SVGID_00000173861342427883646100000014094318446187919285_);}
	.st28{fill:url(#SVGID_00000155861581514484991790000018412940392543879316_);}
	.st29{fill:url(#SVGID_00000010282208921007407500000001181741349830778807_);}
	.st30{fill:url(#SVGID_00000048480764183752742450000003551037427047293313_);}
	.st31{opacity:0.15;fill:none;stroke:#C0C1B6;stroke-width:8;stroke-miterlimit:10;enable-background:new    ;}
	.st32{opacity:0.15;fill:none;stroke:#C0C1B6;stroke-width:5;stroke-miterlimit:10;enable-background:new    ;}
	.st33{opacity:0.15;fill:none;stroke:#C0C1B6;stroke-width:3;stroke-miterlimit:10;enable-background:new    ;}
	.st34{fill:url(#SVGID_00000090294002276950502400000012779724724391184566_);}
	.st35{fill:url(#SVGID_00000041280609920907306610000014457792736417650320_);}
	.st36{fill:url(#SVGID_00000106868796488695338300000004548037813519252144_);}
	.st37{fill:url(#SVGID_00000150812262326824094910000015227904218596973228_);}
	.st38{fill:url(#SVGID_00000160155434408119726960000013658982214543828360_);}
	.st39{fill:url(#SVGID_00000142895779740302078580000004449798191577859760_);}
	.st40{fill:url(#SVGID_00000090280100503309575890000016275645558540073908_);}
	.st41{fill:#3D3532;}
	.st42{fill:#6D5047;}
	.st43{fill:#2B8F5F;}
	.st44{fill:url(#SVGID_00000079470231763889165890000009910438552307477175_);}
	.st45{fill:#828282;}
	.st46{fill:url(#SVGID_00000015349499933254977860000003184057657227339183_);}
	.st47{fill:url(#SVGID_00000060715243798535797340000004140505709238799501_);}
	.st48{fill:url(#SVGID_00000063621630460876085980000017427487429065118142_);}
	.st49{opacity:0.2;fill:url(#SVGID_00000029763347341941867690000006825864060489473175_);enable-background:new    ;}
	.st50{fill:url(#SVGID_00000011732093346995635580000016309972869185363126_);}
	.st51{fill:#5B3CA6;}
	.st52{fill:#7950DD;}
	.st53{fill:#FFFFFF;}
	.st54{fill:#9473E4;}
	.st55{fill:url(#SVGID_00000179642802284124067030000016145952809722489250_);}
	.st56{fill:url(#SVGID_00000090270273237411990950000004014947320313808803_);}
	.st57{fill:url(#SVGID_00000094577560421136945170000006098630914952428675_);}
	.st58{fill:url(#SVGID_00000064329181133624779670000016495179542719780794_);}
	.st59{fill:url(#SVGID_00000080885816577730800240000011613549579835697068_);}
	.st60{fill:url(#SVGID_00000160874328402118041560000014385276291460571026_);}
	.st61{fill:url(#SVGID_00000136369577687067811630000001787683099945141656_);}
	.st62{fill:url(#SVGID_00000044170958047094145100000002566559662587917717_);}
	.st63{fill:#A16552;}
	.st64{fill:url(#SVGID_00000041269125434908177060000007413918894466620598_);}
	.st65{fill:url(#SVGID_00000115483046380401826330000005782347412412896669_);}
	.st66{fill:url(#SVGID_00000147907960757019368130000013347060497795809954_);}
	.st67{fill:url(#SVGID_00000031202717889827608240000015457385726732316074_);}
	.st68{fill:url(#SVGID_00000042707268778394046530000016006040619990381199_);}
	.st69{fill:url(#SVGID_00000119829855480312055050000012845698615047808429_);}
	.st70{fill:url(#SVGID_00000125586943208240109970000011182838720297743548_);}
	.st71{fill:url(#SVGID_00000093897115881958293850000002064759000685763732_);}
	.st72{fill:url(#SVGID_00000103239737007304824070000010432567190382743996_);}
	.st73{fill:url(#SVGID_00000158016514072169776210000000298304663097807495_);}
	.st74{fill:url(#SVGID_00000031895891896207600430000010670130834309477010_);}
	.st75{fill:url(#SVGID_00000161621726382172974480000018098931687894890170_);}
	.st76{fill:url(#SVGID_00000165929975099551369630000002224898022059593620_);}
	.st77{fill:url(#SVGID_00000092444743793813447010000001878088055867210660_);}
	.st78{fill:url(#SVGID_00000160883685063566471750000014786492966710282406_);}
	.st79{fill:url(#SVGID_00000000214757679454921930000018154600607106543488_);}
	.st80{fill:url(#SVGID_00000088826323103085381290000016142836457354077340_);}
	.st81{fill:url(#SVGID_00000159439732394488874860000011733738548749963435_);}
	.st82{fill:#D3B86A;}
	.st83{opacity:0.1;fill:#6B5C5C;enable-background:new    ;}
</style>
<path class="st0" d="M244.6,335.7c-1.9-11.3-5.7-21.7-12.3-28.7c0,0-7,3.6-10.8,36c-1.6-11.3-2.8-20-2.8-20l-8.4,32.9l-3.5-42.7
	l-1.6,32.9l-5.2-11.2l-3.2,15.5l-22.3-25.1l-3.2,51.2l48.2-5.6l5.9-0.7l7.3-0.8l13.6-1.6l12.1-1.4c0.4-0.6,1.1-0.9,1.8-0.4l0.2,0.1
	h0c4.7-18.1,7.2-39.3-0.5-53.1C259.9,313,254,314.4,244.6,335.7L244.6,335.7z"/>
<path class="st1" d="M382.1,405.3c-7.6-30.8-50.6-43.7-60.8-45.3c-0.6-0.1-56.5-8.4-115.2-7.2c-41.9,0.9-76.1,12.9-98.3,22
	c-3.1,0-5.5,0.2-7.3,0.5c-3.9,0.9-6.5,2.3-9.6,4c-3.9,2.1-8.7,4.7-18.3,7.1c-8.9,2.2-14.9,7.4-16.4,14.2
	c-1.9,8.4,3.1,17.9,13.9,26.7c21.2,19.6,54.6,23.4,117,24.3c3.2,0,6.5,0.1,9.8,0.1c35.5,0,74.2-2.7,105.5-7.3
	c28.8-4.3,65.4-12.3,76.5-26.2C382.1,414.2,383.2,409.8,382.1,405.3L382.1,405.3z"/>
<path class="st2" d="M343.1,436.2c0.3-3.3,2.5-9.8,2.5-9.8l-87.6,0.4l-133.2-31.2l-44.3-11.5c-2.2,0.8-4.8,1.6-7.9,2.4
	c-8.9,2.2-14.9,7.4-16.4,14.2c-1.9,8.4,3.1,17.9,13.9,26.7c21.2,19.5,54.6,23.4,117,24.3c3.2,0,6.5,0.1,9.8,0.1
	c35.5,0,74.2-2.6,105.5-7.3C315.4,442.5,329.9,439.9,343.1,436.2L343.1,436.2z"/>
<linearGradient id="SVGID_1_" gradientUnits="userSpaceOnUse" x1="60.1552" y1="105.7699" x2="379.4755" y2="105.7699" gradientTransform="matrix(1 0 0 -1 0 502)">
	<stop  offset="0" style="stop-color:#ADA10C"/>
	<stop  offset="1" style="stop-color:#D2BE07"/>
</linearGradient>
<path class="st3" d="M187.1,442.6c-64.3-0.9-96.1-5.1-116.2-24.6s-10.3-25.4,14.8-36.4c25-11,66.4-30.6,120.5-31.8
	c54.1-1.1,107.2,6,114.7,7.1s50.9,12.9,58.3,43C386.6,430.1,269,443.8,187.1,442.6L187.1,442.6z"/>
<path class="st4" d="M370.1,393.6c0-5,3.2-9.5,7.9-11.3c5.6-1.5,11.6-1,17,1.4c-2.6,3.6-6.2,6.5-10.4,8.2
	C379.9,393.3,375,393.9,370.1,393.6L370.1,393.6z"/>
<path class="st4" d="M364.4,393.6c0,0-2.3-17.1,8.2-20c5.7-1.7,11.7-2.4,17.6-2.2c0,0-1.9,12.6-10.6,16.9
	C374.8,390.8,369.7,392.5,364.4,393.6L364.4,393.6z"/>
<path class="st5" d="M351.1,357c-5.6,7.9-5.6,18.6,0,26.5c3.6,4.3,8.2,7.8,13.3,10.1c2.4-5.8,2.6-12.2,0.8-18.2
	C362,365.1,351.1,356.9,351.1,357L351.1,357z"/>
<path class="st5" d="M370.1,393.6c0,0-2.7-12,1.4-18.2c2.4-3.8,5.9-6.7,10.1-8.3c0.7,4.4,0.7,8.9,0,13.3
	C379.2,388.1,370.1,393.6,370.1,393.6L370.1,393.6z"/>
<path class="st5" d="M356.6,393c-1.7-3.6-10.5-10.2-14.6-9.2c-4.1,1-1.9,4.6,2.6,7C348.5,392,352.5,392.8,356.6,393z"/>
<path class="st6" d="M325.4,387c3-16.1,4.2-25.6-4.6-30c-5.6-0.9-37.1-5.1-75.5-6.7c-9.3-0.3-18.5-0.5-26.8-0.6
	c-4.1,0-8.3,0-12.4,0.1c-7.9,0.4-31.4,2-46.3,10.1c-18.6,10-28.8,30.2-42.7,36.9c-10.6,5.2-39.1,10.2-45.1,22.2
	c20.1,18.6,52,22.7,115.1,23.6c52.2,0.8,118.9-4.5,158.4-16.3C349.9,415.2,322.2,404.3,325.4,387L325.4,387z"/>
<path class="st7" d="M182.9,357.6c0,0-24.1-0.2-34.5,12.3c-10.3,12.4-19,16.8-14.8,31.2c4.1,14.4,48.1,24.7,94.2,17.1
	s60.3-3.8,78.2-20c17.9-16.2,11.3-27.6,4.3-31.4c-7-3.8-26.6-8-49-6.8C238.8,361.3,182.9,357.6,182.9,357.6L182.9,357.6z"/>
<path class="st8" d="M85.2,382.6c0,0,2.5-0.6,4.4,0.6c1.9,1.2,0.4,1.6,2.4,1.7c2,0.1,3.7-0.5,5.9,0c2.2,0.5,4.4,0.8,6,0.5
	c1.6-0.3,3.1,0.6,4.4-1c1.3-1.6,2.3-4.2,3.3-5s2.9-2,4.1-2.3c1.2-0.3,5.3-3,6-3.3s3.4-1.8,3.5-2s-0.3,1.2-1.6,2.1
	c-1.3,0.9-3.5,1.5-3.9,1.8c-0.3,0.3-4.2,2.5-4.8,3.2c-0.6,0.7-2.9,2.8-3.6,3.7s-3.3,3.7-4.1,4c-0.8,0.3-2.6,0.1-4,0.4
	c-1.4,0.3-3.5,1.2-4.5,1.7c-1,0.5-4.8,0.1-6.2,0.5c-1.4,0.4-5.4,0.3-5.9-1.1C86.1,386.6,84.7,383,85.2,382.6L85.2,382.6z"/>
<path class="st9" d="M117.3,412.4c3.7-0.3,4.6-1.8,12.7-0.3c8.1,1.5,12,1.7,4.5,6.6c-7.5,4.9-12.9,7.5-15.9,5.2
	C115.6,421.7,107.4,413.1,117.3,412.4L117.3,412.4z"/>
<path class="st7" d="M114.4,419.7c0,0,2.5,2.4,3.3,3c0.8,0.6,1.4,1.3,3.3,1.4c1.9,0.1,5.4-1,6.4-1.5c1-0.5,10.2-6,10.2-6
	s-2.3,2.7-3.7,3.8s-6.9,4.3-8.5,4.8c-1.6,0.5-3.3,0.7-5.2,0.4c-1.9-0.3-2.6-1.3-2.9-2C117,422.9,114.4,419.6,114.4,419.7
	L114.4,419.7z"/>
<path class="st9" d="M301.6,372.6c0.6-0.8,0.5-1.9,2.9-1.5c2.3,0.4,3.3,0.5,3.5,1.5s0.5,2.5-0.9,2.7c-1.4,0.1-4.2-0.1-4.8-0.6
	C301.7,374.2,301.3,373,301.6,372.6L301.6,372.6z"/>
<path class="st9" d="M290.3,364.5c0.8-0.7,2.3-3.3,5.8-2.6s4.3,1,4.2,2.3s0.5,3.6-1.2,4.1c-1.6,0.5-6.1,2.4-7.2,2
	C290.8,369.8,287.7,366.8,290.3,364.5L290.3,364.5z"/>
<path class="st7" d="M301.5,373.3c0-0.2,0.5,1,1.1,1.1c0.6,0.2,1.7,0.5,2.7,0.4c1,0,1.6-0.4,2-0.4s0.6,0,0.6,0c0,0,0.1,0.4-0.1,0.7
	c-0.2,0.3-0.5,0.4-1.1,0.6c-0.5,0.2-1.7-0.1-2.1-0.1c-0.5,0-1.7-0.3-2.4-0.5C301.7,374.8,301.5,373.6,301.5,373.3L301.5,373.3z"/>
<path class="st7" d="M289.4,367.3c0,0,0.9,0.9,1.5,1.1c0.6,0.2,0.5-0.3,1.6,0c1.1,0.3,0.4,0.8,1.8,0.7c1.5-0.1,3.9-0.7,4.4-0.9
	c0.5-0.2,1.4-0.8,1.5-1.5c0.1-0.7,0.1,0.9-0.1,1.4s-1.9,0.9-2.3,1.1c-0.5,0.3-3.2,1-3.8,1.3s-2.2,0.2-2.8,0
	c-0.5-0.2-1.7-2.1-1.8-2.5C289.4,367.5,289.4,367.3,289.4,367.3L289.4,367.3z"/>
<linearGradient id="SVGID_00000029013225160571580690000005227244499354447037_" gradientUnits="userSpaceOnUse" x1="104.6528" y1="205.2955" x2="176.8421" y2="205.2955" gradientTransform="matrix(1 0 0 -1 0 502)">
	<stop  offset="0.12" style="stop-color:#935848"/>
	<stop  offset="0.5" style="stop-color:#935848"/>
	<stop  offset="0.6" style="stop-color:#9B604E"/>
	<stop  offset="0.73" style="stop-color:#A16552"/>
	<stop  offset="1" style="stop-color:#966444"/>
</linearGradient>
<path style="fill:url(#SVGID_00000029013225160571580690000005227244499354447037_);" d="M141.8,252.1c0,0-30.2,67.8-36,79.6
	c-5.8,11.8,12,15.4,12,15.4s28.3-35.7,40.8-55.7s17.3-18.8,18.2-27.1c0.9-8.4-7.9-17.2-12.2-17.9
	C160.3,245.6,141.8,252.1,141.8,252.1L141.8,252.1z"/>
<path class="st11" d="M139.9,354.2c-4,16-20.1,25.7-36.1,21.8c-0.8-0.2-1.7-0.4-2.5-0.7C86.8,370.3,78.3,355,82,339.8
	c4-16,20.2-25.7,36.1-21.8c3.4,0.8,6.6,2.3,9.5,4.2C137.8,329.1,143,341.7,139.9,354.2L139.9,354.2z"/>
<path class="st12" d="M141.3,351c-4,16.3-20.5,26.2-36.8,22.2c-0.9-0.2-1.7-0.5-2.5-0.7c-14.8-5-23.5-20.6-19.7-36.1
	c4-16.3,20.5-26.2,36.8-22.2c3.5,0.9,6.8,2.3,9.7,4.3C139.1,325.5,144.4,338.3,141.3,351z"/>
<path class="st13" d="M137,350c-3.5,13.9-17.6,22.4-31.5,19c-0.7-0.2-1.4-0.4-2.1-0.6c-12.6-4.3-20.1-17.6-16.8-30.9
	c3.5-13.9,17.6-22.4,31.5-19c3,0.7,5.8,2,8.3,3.7C135.1,328.1,139.7,339.1,137,350z"/>
<path class="st14" d="M108.9,346.4c0,0,0.9-2.6-1.9-6.4c-3.9-5.4-4.2-6.5-0.3-4.8c3.9,1.7,6,5.8,6,5.8"/>
<path class="st15" d="M98.5,351.7l0.3-1.8l-3.4-0.6c-0.4-0.1-0.7,0.2-0.8,0.5l-0.1,0.5c-0.1,0.4,0.2,0.7,0.5,0.8L98.5,351.7z"/>
<path class="st16" d="M98.5,351.7l0.2-0.9l-4.1-0.7l0,0.2c-0.1,0.4,0.2,0.7,0.5,0.8L98.5,351.7L98.5,351.7z"/>
<path class="st11" d="M114.9,349.5c-0.4-0.8-1-1.5-1.6-2.1c-0.6-0.6-1.3-1.2-2-1.7c-0.6-0.5-1.1-1-1.8-1.3c0,0-0.1,0.1-0.1,0.1
	c0,0-0.1,0.1-0.1,0.1c-0.1,0.1-0.2,0.2-0.3,0.3c0,0,0,0,0,0c0,0-0.1,0.1-0.1,0.1c-0.1,0-0.1,0.1-0.2,0.1c-0.1,0.1-0.2,0.2-0.3,0.2
	c-0.3,0.2-0.7,0.5-1,0.7c-0.1,0-0.1,0.1-0.2,0.1c-0.1,0.1-0.2,0.1-0.3,0.2c-0.1,0-0.1,0.1-0.2,0.1c-0.1,0-0.1,0.1-0.2,0.1
	c0,0,0,0,0,0c-0.1,0.1-0.2,0.1-0.3,0.2c0,0,0,0-0.1,0c0,0-0.1,0.1-0.1,0.1l-0.1,0.1c-0.1,0.1-0.2,0.1-0.3,0.2
	c-0.2,0.1-0.3,0.1-0.5,0.2c-0.1,0.1-0.2,0.1-0.4,0.2c0,0-0.1,0-0.1,0c-0.1,0-0.2,0.1-0.3,0.1c-0.2,0.1-0.3,0.1-0.5,0.2
	c-0.3,0.1-0.7,0.2-1.1,0.3c-0.7,0.2-1.3,0.3-2,0.4c-0.3,0-0.6,0.1-0.9,0.1c-0.2,0-0.3,0-0.5,0c-0.1,0-0.3,0-0.4,0
	c-0.2,0-0.3,0-0.5,0c0,0,0,0-0.1,0c0,0-0.1,0-0.1,0c0,0,0,0,0,0c0,0,0,0-0.1,0c-0.4,0.1-0.8,0.4-1.1,0.8c0,0,0,0,0,0
	c-0.2,0.2-0.3,0.5-0.3,0.8c0,0.2,0,0.4,0,0.5c0,0.1,0,0.2,0,0.4c0.1,0.4,0.4,0.8,0.7,1c0.7,0.6,1.7,0.9,2.3,1.1
	c5.4,1.2,11.1-0.1,15.4-3.6C115,349.8,115,349.7,114.9,349.5L114.9,349.5z"/>
<path class="st12" d="M111.3,345.7c-0.6-0.5-1.1-1-1.8-1.3c0,0-0.1,0.1-0.1,0.1c0,0-0.1,0.1-0.1,0.1s-0.1,0.1-0.1,0.1
	c-0.1,0.1-0.1,0.1-0.2,0.1c0,0,0,0,0,0c0,0-0.1,0.1-0.1,0.1c-0.1,0-0.1,0.1-0.2,0.1s-0.1,0.1-0.2,0.1c0,0-0.1,0.1-0.2,0.1
	c-0.1,0.1-0.2,0.1-0.3,0.2c0,0,0,0-0.1,0c0,0-0.1,0.1-0.1,0.1c-0.1,0.1-0.2,0.1-0.3,0.2c-0.1,0-0.1,0.1-0.2,0.1
	c-0.1,0-0.1,0.1-0.2,0.1c-0.1,0.1-0.2,0.1-0.3,0.2c-0.1,0-0.1,0.1-0.2,0.1c-0.1,0-0.1,0.1-0.2,0.1c0,0,0,0,0,0
	c-0.1,0.1-0.2,0.1-0.3,0.2c0,0-0.1,0-0.1,0l-0.1,0.1l-0.1,0.1c-0.1,0-0.2,0.1-0.3,0.2c-0.1,0-0.2,0.1-0.3,0.1
	c-0.1,0-0.1,0.1-0.2,0.1c-0.1,0-0.2,0.1-0.4,0.2c0,0-0.1,0-0.1,0c-0.1,0-0.2,0.1-0.3,0.1c-0.1,0-0.2,0.1-0.2,0.1
	c-0.1,0-0.2,0.1-0.3,0.1c-0.1,0-0.2,0.1-0.4,0.1l-0.2,0.1c-0.2,0-0.3,0.1-0.5,0.1c-0.1,0-0.2,0.1-0.3,0.1c-0.2,0-0.3,0.1-0.5,0.1
	c-0.1,0-0.2,0.1-0.3,0.1c-0.2,0-0.3,0.1-0.5,0.1c-0.1,0-0.2,0-0.3,0.1c-0.2,0-0.4,0.1-0.6,0.1l-0.2,0c0,0-0.1,0-0.1,0
	c-0.2,0-0.3,0-0.4,0c-0.1,0-0.3,0-0.4,0c-0.2,0-0.3,0-0.5,0c0,0-0.1,0-0.1,0c0,0,0,0-0.1,0c0,0,0,0-0.1,0c0,0,0,0,0,0
	c-0.4,0.1-0.8,0.4-1.1,0.8c0,0,0,0,0,0c-0.2,0.2-0.3,0.5-0.3,0.8c0,0.2-0.1,0.4,0,0.5h0c1.6,0.4,3.2,0.6,4.8,0.6c0.2,0,0.4,0,0.7,0
	c3.9-0.2,7.6-1.7,10.5-4.2c0.1-0.1,0.2-0.2,0.3-0.3C112.4,346.6,111.9,346.2,111.3,345.7L111.3,345.7z"/>
<path class="st17" d="M115.7,349.4l-3.1-2l-3.7-2.4c0,0,0,0,0,0c0.1,0,0.1-0.1,0.2-0.1c0.1,0,0.1-0.1,0.1-0.1c0,0,0.1-0.1,0.1-0.1
	c0.1-0.1,0.2-0.2,0.3-0.3c0.1-0.1,0.2-0.1,0.2-0.2c0.1-0.1,0.3-0.3,0.4-0.4c0-0.1,0.1-0.1,0.1-0.1c0,0,0,0,0,0
	c0.1-0.1,0.2-0.2,0.2-0.3c0.1-0.1,0.2-0.2,0.3-0.3c0.1-0.1,0.2-0.2,0.3-0.3c0.1-0.1,0.2-0.2,0.2-0.3c0.1-0.1,0.2-0.2,0.2-0.3
	c0,0,0.1-0.1,0.1-0.1c0.1-0.1,0.1-0.1,0.2-0.2h0c0.1-0.1,0.2-0.2,0.2-0.3c0,0,0,0,0.1-0.1l0-0.1c0-0.1,0.1-0.1,0.2-0.2
	c0-0.1,0.1-0.1,0.1-0.2c0,0,0.1-0.1,0.1-0.2l0,0c0,0,0.1-0.1,0.1-0.1c0,0,0.1-0.1,0.1-0.1c0.2-0.2,0.3-0.5,0.5-0.8
	c0.1-0.1,0.2-0.3,0.2-0.4c0.1-0.2,0.2-0.4,0.3-0.6l0-0.1c0,0,0,0,0,0c0.1-0.2,0.2-0.5,0.3-0.7c0-0.1,0.1-0.2,0.1-0.2
	s0.1-0.1,0.1-0.2c0-0.1,0.1-0.2,0.1-0.3c0,0,0-0.1,0.1-0.2c0-0.1,0.1-0.2,0.1-0.3c0-0.1,0.1-0.2,0.1-0.3c0.1-0.2,0.1-0.3,0.2-0.5
	c0-0.1,0.1-0.2,0.1-0.3l0-0.1c0,0,0-0.1,0-0.1c0-0.1,0-0.1,0.1-0.2l0-0.2c0.1-0.2,0.1-0.5,0.2-0.7v0c0-0.2,0.1-0.4,0.1-0.7
	c0.2-0.9,0.4-3.2,0.9-4.6c0.2-0.7,0.6-1.2,1-1.4c0,0,0.1,0,0.2,0c0.1,0,0.1,0,0.2,0c0.5,0,1,0.3,1.4,0.7c0.8,0.7,1.3,1.8,1.3,1.9
	C122.9,336.9,121,344.5,115.7,349.4L115.7,349.4z"/>
<path class="st18" d="M112.6,347.3c4.1-3.5,6.6-8.9,6.3-14.7c-0.1-1.4-0.3-2.8-0.8-4.2c-0.1-0.2-0.1-0.4-0.2-0.6
	c0-0.1-0.1-0.2-0.1-0.4c-0.1,0-0.1,0-0.2,0s-0.1,0-0.2,0c-0.4,0.2-0.8,0.7-1,1.4c-0.6,1.5-0.7,3.7-0.9,4.6c0,0.2-0.1,0.5-0.1,0.7v0
	c-0.1,0.2-0.1,0.5-0.2,0.7l0,0.1l0,0.1c0,0.1,0,0.1,0,0.2c0,0,0,0.1,0,0.1l0,0.1c0,0.1,0,0.2-0.1,0.3c-0.1,0.2-0.1,0.3-0.2,0.5
	c0,0.1-0.1,0.2-0.1,0.3c0,0.1-0.1,0.2-0.1,0.3c0,0,0,0.1-0.1,0.2c0,0.1-0.1,0.2-0.1,0.3c0,0.1-0.1,0.2-0.1,0.2s-0.1,0.2-0.1,0.2
	c-0.1,0.2-0.2,0.5-0.3,0.7c0,0,0,0,0,0l0,0.1c-0.1,0.2-0.2,0.4-0.3,0.6c-0.1,0.1-0.1,0.3-0.2,0.4c-0.2,0.3-0.3,0.5-0.5,0.8
	c0,0-0.1,0.1-0.1,0.1c0,0-0.1,0.1-0.1,0.1l0,0c0,0.1-0.1,0.1-0.1,0.2s-0.1,0.1-0.1,0.2c0,0.1-0.1,0.1-0.1,0.2l0,0.1c0,0,0,0-0.1,0.1
	c-0.1,0.1-0.2,0.2-0.2,0.3c0,0,0,0,0,0c0,0.1-0.1,0.1-0.2,0.2c0,0-0.1,0.1-0.1,0.1c-0.1,0.1-0.2,0.2-0.2,0.3
	c-0.1,0.1-0.2,0.2-0.2,0.3c-0.1,0.1-0.2,0.2-0.3,0.3c-0.1,0.1-0.2,0.2-0.3,0.3c-0.1,0.1-0.2,0.2-0.2,0.3c0,0,0,0,0,0
	c0,0-0.1,0.1-0.2,0.1c-0.1,0.1-0.3,0.3-0.4,0.4c-0.1,0.1-0.1,0.1-0.2,0.2c-0.1,0.1-0.2,0.2-0.4,0.3c0,0-0.1,0.1-0.1,0.1
	c0,0-0.1,0.1-0.1,0.1c-0.1,0-0.1,0.1-0.2,0.1c0,0,0,0,0,0L112.6,347.3L112.6,347.3z"/>
<path class="st14" d="M108.9,344.9c0,0,3.3,2.3,4.4,4.1c1.7,2.8,2.4,3.8-0.6,10.3c-0.1,0.2-0.2,0.5-0.3,0.7c-0.4,1.1-1.2,4,4.9-1.6
	c7.4-6.7,0.3-10.9,0.3-10.9C114.9,346,112,345.2,108.9,344.9L108.9,344.9z"/>
<path class="st18" d="M118.8,315.4c3.5,0.9,6.8,2.3,9.7,4.3c10.1,6.8,15.4,19.3,12.6,31.8c0.1-0.2,0.1-0.3,0.1-0.5
	c3.1-12.7-2.2-25.5-12.4-32.5c-3-2-6.2-3.5-9.7-4.3c-16.3-4-32.7,5.9-36.8,22.2c-0.1,0.2-0.1,0.4-0.1,0.6
	C86.4,321,102.7,311.4,118.8,315.4z"/>
<path class="st11" d="M117.8,319.5c3,0.7,5.8,2,8.3,3.7c8.6,5.8,13.2,16.6,10.8,27.3c0-0.2,0.1-0.3,0.1-0.5
	c2.7-10.9-1.9-21.9-10.7-27.8c-2.5-1.7-5.3-3-8.3-3.7c-13.9-3.5-28,5-31.5,19c0,0.2-0.1,0.3-0.1,0.5
	C90.1,324.3,104,316.1,117.8,319.5L117.8,319.5z"/>
<g class="st19">
	<path class="st20" d="M140.5,333.7l-50.9,30.7c1.4,1.5,2.9,2.8,4.5,4l47.8-28.8C141.6,337.6,141.1,335.6,140.5,333.7z"/>
	<path class="st20" d="M128.8,318.6c-0.2-0.1-0.4-0.3-0.6-0.4l-46.7,28.1c0.5,5.6,2.5,10.8,5.7,15.2l51.9-31.2
		C136.7,325.6,133.2,321.5,128.8,318.6z"/>
</g>
<path class="st21" d="M429.9,334.9c3.2-1.5,6.2-3.5,9.2-6.2c2.7-2.4,3-6.5,0.6-9.2c-2.4-2.7-6.5-3-9.2-0.6c-7,6.1-13.4,7.3-21.2,3.9
	c-7.9-3.4-15.9-11-23.7-18.3c-11.5-10.8-22.4-21.1-34.8-20.7c-6.1,0.2-11.8,3-16.8,8.4c-7.6,8.2-16.4,14.4-25.5,17.9
	c-8.7,3.4-16.8,4-23.5,1.8c-13-4.3-17.3-18.4-18.6-29.4c-0.4-3.6-3.6-6.1-7.2-5.7c-3.6,0.4-6.1,3.6-5.7,7.2
	c1.2,10.7,4.3,19.6,9.1,26.5c4.7,6.7,10.9,11.4,18.3,13.8c9.6,3.1,20.8,2.4,32.3-2.1c10.9-4.2,21.4-11.6,30.3-21.2
	c2.6-2.8,5.1-4.2,7.7-4.3c7-0.2,16.4,8.6,25.5,17.1c8.6,8.1,17.5,16.4,27.4,20.8C413,338.6,421.7,338.7,429.9,334.9L429.9,334.9z"/>
<path class="st21" d="M315.1,307c0.9-0.5,1.8-1,2.6-1.5C316.9,306,316,306.5,315.1,307z"/>
<path class="st21" d="M261.6,277c0.4,0.1,0.8,0.3,1.2,0.5C262.5,277.3,262.1,277.1,261.6,277z"/>
<path class="st21" d="M259.1,276.8c0.7-0.1,1.3,0,2,0.1C260.4,276.8,259.7,276.7,259.1,276.8c-0.4,0-0.7,0.1-1.1,0.2
	C258.4,276.9,258.7,276.9,259.1,276.8z"/>
<path class="st21" d="M333.9,292.2c0.6-0.7,1.3-1.3,1.9-1.9C335.2,290.9,334.6,291.5,333.9,292.2c-3.8,4.1-7.9,7.7-12.2,10.7
	C326,299.9,330.1,296.3,333.9,292.2z"/>
<path class="st21" d="M255.8,278.1c-0.3,0.2-0.5,0.4-0.8,0.7C255.3,278.6,255.6,278.4,255.8,278.1z"/>
<path class="st21" d="M253.3,282.9c0-0.3,0.1-0.6,0.1-0.9c0,0,0-0.1,0-0.1C253.4,282.2,253.4,282.5,253.3,282.9L253.3,282.9z"/>
<path class="st21" d="M255.9,278c0.3-0.2,0.5-0.4,0.8-0.5C256.5,277.7,256.2,277.9,255.9,278L255.9,278z"/>
<path class="st21" d="M256.9,277.5c0.3-0.2,0.6-0.3,0.9-0.4C257.5,277.2,257.2,277.3,256.9,277.5z"/>
<path class="st21" d="M418.9,324.6c-0.4,0-0.9,0.1-1.3,0.1C418.1,324.7,418.5,324.6,418.9,324.6z"/>
<path class="st21" d="M253.8,280.7c-0.1,0.3-0.2,0.6-0.3,1c0,0,0-0.1,0-0.1c0.1-0.2,0.1-0.5,0.2-0.7
	C253.8,280.9,253.8,280.8,253.8,280.7z"/>
<path class="st21" d="M418.9,324.6c1.3-0.1,2.6-0.4,3.9-0.9C421.5,324.2,420.2,324.5,418.9,324.6z"/>
<path class="st21" d="M385.7,304.5L385.7,304.5c-1.5-1.4-3-2.8-4.4-4.1C382.7,301.8,384.1,303.1,385.7,304.5L385.7,304.5z"/>
<path class="st21" d="M388.4,307.1c0.5,0.5,1,1,1.6,1.5C389.5,308.1,388.9,307.6,388.4,307.1z"/>
<path class="st21" d="M367.4,289.2c1.1,0.7,2.1,1.4,3.2,2.2C369.5,290.6,368.5,289.9,367.4,289.2z"/>
<path class="st21" d="M360.9,285.7c-2.9-1.2-5.9-1.9-9-2C355,283.8,358,284.5,360.9,285.7z"/>
<path class="st21" d="M360.9,285.7c1.8,0.8,3.6,1.7,5.4,2.8C364.5,287.4,362.7,286.5,360.9,285.7z"/>
<path class="st21" d="M372.8,293c1.1,0.8,2.1,1.7,3.2,2.6C374.9,294.8,373.8,293.9,372.8,293z"/>
<path class="st21" d="M441.2,324.8c0,0.1,0,0.3-0.1,0.4c0,0.1,0,0.2-0.1,0.3C441.2,325.2,441.2,325,441.2,324.8L441.2,324.8z"/>
<path class="st21" d="M441.1,325.4C441.1,325.4,441.1,325.5,441.1,325.4C441.1,325.5,441.1,325.5,441.1,325.4
	C441.1,325.5,441.1,325.5,441.1,325.4L441.1,325.4z"/>
<path class="st21" d="M441.3,324c0,0.1,0,0.2,0,0.2c0,0.1,0,0.1,0,0.2C441.3,324.3,441.3,324.2,441.3,324L441.3,324z"/>
<path class="st21" d="M254.4,279.7c0.2-0.3,0.4-0.6,0.7-0.8C254.8,279.1,254.6,279.4,254.4,279.7z"/>
<path class="st22" d="M440.9,326.2c0.1-0.2,0.2-0.5,0.2-0.7c0-0.1,0-0.2,0.1-0.3c0-0.2,0.1-0.3,0.1-0.5c0-0.1,0-0.3,0-0.4
	c0-0.1,0-0.3,0-0.4c0-0.1,0-0.3,0-0.4c0-0.1,0-0.2,0-0.4c0-0.2,0-0.3-0.1-0.5c0-0.1-0.1-0.2-0.1-0.3c0-0.2-0.1-0.3-0.1-0.5
	c0-0.1-0.1-0.2-0.1-0.3c-0.1-0.2-0.1-0.3-0.2-0.5c0-0.1-0.1-0.2-0.1-0.3c-0.1-0.2-0.2-0.3-0.3-0.5c-0.2,0.3-0.5,0.5-0.7,0.8
	c-3,2.6-6.1,4.7-9.2,6.2c-8.2,3.8-16.8,3.8-25.8-0.1c-9.9-4.3-18.8-12.7-27.4-20.8c-9.1-8.5-18.5-15.8-25.5-15.5
	c-2.6,0.1-5.1,1.5-7.7,4.3c-8.9,9.6-19.4,16.9-30.3,21.2c-11.5,4.5-22.7,5.2-32.3,2.1c-7.5-2.5-13.7-7.1-18.3-13.8
	c-4.2-6.1-7.1-15.3-8.5-24.4c-0.1,0.2-0.3,0.4-0.4,0.7c0,0.1-0.1,0.2-0.1,0.3c-0.1,0.2-0.2,0.5-0.2,0.7c0,0.1,0,0.2-0.1,0.3
	c-0.1,0.3-0.1,0.6-0.1,1c0,0.4,0,0.8,0,1.2c1.2,10.7,4.3,19.6,9.1,26.5c4.7,6.7,10.9,11.4,18.3,13.8c9.6,3.1,20.8,2.4,32.3-2.1
	c10.9-4.2,21.4-11.6,30.3-21.2c2.6-2.8,5.1-4.2,7.7-4.3c7-0.2,16.4,8.6,25.5,17.1c8.6,8.1,17.5,16.4,27.4,20.8
	c9,3.9,17.6,4,25.8,0.1c3.1-1.5,6.2-3.5,9.2-6.2C439.9,328,440.5,327.1,440.9,326.2L440.9,326.2z"/>
<path class="st21" d="M440.9,326.2c0.1-0.2,0.2-0.4,0.2-0.6C441,325.8,440.9,326,440.9,326.2z"/>
<path class="st21" d="M441.3,322.9c0,0.1,0,0.1,0,0.2c0,0,0,0.1,0,0.1C441.3,323,441.3,323,441.3,322.9L441.3,322.9z"/>
<path class="st21" d="M441.3,323.2c0,0.1,0,0.1,0,0.2c0,0.1,0,0.2,0,0.3C441.3,323.5,441.3,323.4,441.3,323.2L441.3,323.2z"/>
<path class="st21" d="M440.4,320.4c0.1,0.1,0.1,0.2,0.2,0.3c0,0.1,0.1,0.1,0.1,0.2C440.5,320.7,440.5,320.5,440.4,320.4L440.4,320.4
	z"/>
<path class="st21" d="M440.2,320.2c-0.1-0.2-0.3-0.4-0.5-0.7c-0.6-0.7-1.3-1.2-2-1.6c0.8,0.4,1.5,0.9,2,1.6
	C439.9,319.7,440,319.9,440.2,320.2L440.2,320.2z"/>
<path class="st21" d="M440.7,321.1c0.1,0.1,0.1,0.2,0.1,0.3c0,0.1,0.1,0.1,0.1,0.2C440.9,321.5,440.8,321.3,440.7,321.1L440.7,321.1
	z"/>
<path class="st21" d="M253.9,280.6c0.1-0.2,0.2-0.5,0.4-0.7v0c0.1-0.1,0.1-0.2,0.1-0.3C254.2,280,254,280.3,253.9,280.6L253.9,280.6
	z"/>
<path class="st21" d="M440.6,320.9L440.6,320.9C440.6,320.9,440.7,321,440.6,320.9C440.7,321,440.7,320.9,440.6,320.9z"/>
<path class="st21" d="M441,321.6c0,0,0,0.1,0,0.1c0,0,0,0.1,0,0.1C441,321.8,441,321.7,441,321.6z"/>
<path class="st21" d="M441.2,322.7c0-0.2-0.1-0.4-0.1-0.6c0,0.1,0,0.1,0,0.2c0,0.1,0.1,0.2,0.1,0.3
	C441.2,322.6,441.2,322.6,441.2,322.7z"/>
<linearGradient id="SVGID_00000082357578983360475290000009560700135485768880_" gradientUnits="userSpaceOnUse" x1="192.7684" y1="189.8245" x2="133.1738" y2="241.0749">
	<stop  offset="0.2" style="stop-color:#162944"/>
	<stop  offset="0.54" style="stop-color:#202F57"/>
	<stop  offset="0.82" style="stop-color:#2B366B"/>
</linearGradient>
<polygon style="fill:url(#SVGID_00000082357578983360475290000009560700135485768880_);" points="179.5,264.3 135.2,250 
	135.2,239.4 135.2,237.9 135.2,236.8 135.2,233.7 135.2,232.7 135.2,231.1 135.3,212.9 135.3,211.4 135.3,210.4 135.3,207.3 
	135.3,206.3 135.3,204.8 135.4,184.4 137,181 137.8,179.6 138.2,178.6 139.6,175.8 140.1,174.8 140.8,173.4 142.3,170.2 146.8,170 
	150.7,183.7 151.6,186.8 151.6,186.8 152.2,189 154.1,195.6 154.8,197.9 155.8,201.3 155.8,201.3 157.7,208.1 158.2,210 
	158.6,211.2 159.8,215.3 160.2,216.7 160.8,218.9 164.4,231.5 164.9,233.1 165.2,234.2 166.1,237.5 166.4,238.5 166.9,240.2 
	172.8,261 "/>
<g class="st24">
	<g>
		<path class="st25" d="M175.5,234l-0.4,1.4l-0.2,1l-0.4,1.5l-0.4,1.4l-0.2,1l-0.4,1.5c-2.3-0.6-4.5-1.1-6.5-1.6
			c-12.6-2.7-21.2-2.5-26.5-1.8c-2.1,0.3-3.9,0.7-5.2,1.1l0-1.6v-1l0-3.1v-1l0-1.6c6-1.4,15.4-2.1,29.2,0.4
			C167.8,232.2,171.5,233,175.5,234z"/>
	</g>
	<g>
		<path class="st25" d="M166.7,213.3l-0.9,1.2l-0.6,0.8l-1.8,2.4l-0.6,0.8l-0.9,1.2c-0.3-0.2-0.6-0.5-1-0.7
			c-8.9-6.3-19.3-6.6-25.5-6l0-1.5v-1l0-3.1v-1l0-1.5c5.8-0.5,14.1-0.2,22.4,3.3C160.7,209.4,163.8,211.1,166.7,213.3z"/>
	</g>
	<g>
		<path class="st25" d="M162,196.6l-1.2,0.9l-0.8,0.6l-2.4,1.8l-0.8,0.6l-1.1,0.8v0l-0.1,0.1c-3.9-5.2-13.4-15.1-18.6-20.4l0.7-1.4
			l0.5-1l1.4-2.9l0.5-1l0.7-1.4c2.1,2.1,6,6.1,10,10.3C155.1,188.3,159.5,193.2,162,196.6z"/>
	</g>
</g>
<g class="st24">
	<g>
		<path class="st25" d="M175.1,235.5l-0.2,1l-0.4,1.5l-0.6,2.4c-2.6-0.7-5.1-1.3-7.4-1.8c-12.6-2.6-21.2-2.4-26.5-1.6
			c-1.8,0.3-3.4,0.6-4.7,1v-1l0-3.1v-1c5.9-1.4,15.5-2.2,29.7,0.4C168,233.7,171.5,234.5,175.1,235.5z"/>
	</g>
	<g>
		<path class="st25" d="M165.8,214.5l-0.6,0.8l-1.8,2.4l-0.6,0.8c-0.8-0.6-1.7-1.2-2.5-1.8c-8.9-5.6-18.8-5.9-24.9-5.3v-1l0-3.1v-1
			c5.8-0.5,14.4-0.2,22.9,3.6C160.8,211.1,163.3,212.6,165.8,214.5z"/>
	</g>
	<g>
		<path class="st25" d="M160.8,197.5l-0.8,0.6l-2.4,1.8l-0.8,0.6c-0.6-0.8-1.3-1.6-2-2.5c-4.7-5.6-12.7-13.9-17.1-18.4l0.5-1
			l1.4-2.9l0.5-1c2.5,2.6,7.1,7.3,11.6,12v0C155.3,190.8,158.8,194.7,160.8,197.5z"/>
	</g>
</g>
<g class="st24">
	<g>
		<path class="st25" d="M174.9,236.4l-0.4,1.5l-0.4,1.4c-2.8-0.8-5.5-1.4-8-1.9c-12.6-2.6-21.3-2.3-26.6-1.5
			c-1.7,0.2-3.1,0.6-4.3,0.9l0-3.1c5.8-1.4,15.4-2.3,30,0.5C168.2,234.8,171.4,235.5,174.9,236.4z"/>
	</g>
	<g>
		<path class="st25" d="M165.1,215.3l-1.8,2.4c-1.1-0.9-2.3-1.7-3.5-2.4c-8.8-5.2-18.4-5.4-24.5-4.9l0-3.1
			c5.9-0.5,14.7-0.2,23.3,3.9C160.8,212.3,163,213.6,165.1,215.3z"/>
	</g>
	<g>
		<path class="st25" d="M160,198.1l-2.4,1.8c-0.9-1.2-2.1-2.7-3.5-4.3c-4.9-5.7-12-13-15.9-17l1.4-2.9c2.9,2.9,8,8.2,12.6,13.2
			C155.4,192.4,158.2,195.7,160,198.1z"/>
	</g>
</g>
<linearGradient id="SVGID_00000107580623899668854120000002370461948432671414_" gradientUnits="userSpaceOnUse" x1="127.3999" y1="240.7651" x2="236.8299" y2="242.0351" gradientTransform="matrix(1 0 0 -1 0 502)">
	<stop  offset="0.2" style="stop-color:#162944"/>
	<stop  offset="0.54" style="stop-color:#202F57"/>
	<stop  offset="0.82" style="stop-color:#2B366B"/>
</linearGradient>
<path style="fill:url(#SVGID_00000107580623899668854120000002370461948432671414_);" d="M165.9,246c-13.2-3.7-28.3,2-30.1,3.4
	s-3.3,4.7-2.8,6.9c0.5,2.3,0.8,7.6,0.8,7.6s0.5,1.9,1.3,2.5l1.6-1.8c0.7-1.1,3-2.2,11-0.3c12.7,3.1,22.9,5.9,23.8,7
	c0.9,1.1-1.9,3.8-1.5,4.6c0.4,0.8,4,2.4,8.4-1.4c4.3-3.8,7.3-13.6,7.4-17.4C186,253.2,179.1,249.7,165.9,246L165.9,246z"/>
<g class="st24">
	<path class="st25" d="M168.7,265c-1.8-0.7-3.5-1.3-5.2-1.8c-0.2,1.3-0.5,2.3-0.7,2.9c-0.8,0.4-2.6,0.7-4.4,0.9
		c3.8,1,7.1,1.9,9.4,2.7c0.5-0.7,1.1-2,1.6-4.4C169.1,265.2,168.9,265.1,168.7,265z"/>
	<path class="st25" d="M170.2,259.3c0.1-0.7,0.1-1.5,0.2-2.3c0.2-2.7,0.4-6.7,0.4-9.6c-1.5-0.5-3.1-1-4.8-1.4
		c-0.4-0.1-0.9-0.2-1.3-0.3c0.2,1.8,0.1,7-0.4,11.7C166.2,257.9,168.2,258.6,170.2,259.3L170.2,259.3z"/>
	<path class="st25" d="M170.2,259.3c-0.2,2.5-0.6,4.4-0.9,5.9c7.1,2.8,10.9,5.2,11.2,6.9c0,0,0,0.1,0,0.1c1.2-1.7,2.3-3.8,3.1-5.9
		c-2.1-1.9-5.9-4.1-12.6-6.7C170.7,259.5,170.4,259.4,170.2,259.3L170.2,259.3z"/>
	<path class="st25" d="M139.6,261c7.3-1.1,15.4-0.3,23.9,2.2c0.3-1.6,0.5-3.7,0.7-5.9c-9-2.6-17.8-3.4-25.7-2.1
		c-1.8,0.3-3.7,0.9-5.3,1.8c0.4,2.5,0.6,6.9,0.6,6.9s0.1,0.2,0.2,0.5c0-0.3,0-0.6,0-0.8C134.6,263,137,261.4,139.6,261L139.6,261z"
		/>
	<path class="st25" d="M170.2,259.3c-2-0.8-4-1.4-5.9-2c-0.2,2.2-0.4,4.2-0.7,5.9c1.7,0.5,3.5,1.1,5.2,1.8c0.2,0.1,0.4,0.2,0.6,0.2
		C169.6,263.8,169.9,261.8,170.2,259.3L170.2,259.3z"/>
</g>
<g class="st24">
	<path class="st25" d="M164.6,262.5c-0.3,2-0.7,3.6-1.1,4.2c-0.6,0.4-1.6,0.6-2.7,0.8c2.3,0.6,4.2,1.2,5.9,1.7
		c0.5-0.6,1.2-2,1.8-5.4C167.2,263.4,165.9,263,164.6,262.5L164.6,262.5z"/>
	<path class="st25" d="M169.1,260c0.1-0.9,0.2-1.9,0.3-3c0.3-3.3,0.4-7.1,0.4-9.9c-1.2-0.4-2.5-0.8-3.8-1.1c-0.1,0-0.2,0-0.3-0.1
		c0.2,2.4,0,7.9-0.5,12.7C166.5,259,167.8,259.5,169.1,260L169.1,260z"/>
	<path class="st25" d="M169.1,260c-0.2,1.5-0.4,2.9-0.6,3.9c0.2,0.1,0.4,0.1,0.6,0.2c9.2,3.6,11.5,5.8,12.1,7.1
		c0.7-1.2,1.4-2.5,2-3.9c-1.9-1.9-5.6-4-12.6-6.8C170.1,260.3,169.6,260.2,169.1,260L169.1,260z"/>
	<path class="st25" d="M139.4,260c7.7-1.2,16.3-0.3,25.2,2.5c0.2-1.2,0.4-2.5,0.5-3.9c-9.3-2.9-18.3-3.7-26.4-2.5
		c-1.8,0.3-3.7,1-5.3,1.8c0.2,1.5,0.3,3.2,0.4,4.4C134.9,261.5,137.1,260.4,139.4,260L139.4,260z"/>
	<path class="st25" d="M169.1,260c-1.3-0.5-2.6-0.9-3.9-1.3c-0.1,1.4-0.3,2.7-0.5,3.9c1.3,0.4,2.6,0.9,3.9,1.4
		C168.7,262.8,168.9,261.5,169.1,260L169.1,260z"/>
</g>
<g class="st24">
	<path class="st25" d="M168,260.6c0.6-4.8,0.8-10.6,0.7-13.8c-0.7-0.2-1.3-0.4-2-0.6c0.2,2.9-0.1,8.8-0.7,13.7
		C166.7,260.1,167.3,260.4,168,260.6L168,260.6z"/>
	<path class="st25" d="M165.8,261.9c-0.4,2.9-0.9,5.1-1.5,5.6c-0.4,0.3-0.9,0.5-1.5,0.6c1,0.3,1.9,0.5,2.8,0.8
		c0.9-0.8,1.6-3.3,2.1-6.4C167.1,262.3,166.4,262.1,165.8,261.9z"/>
	<path class="st25" d="M168,260.6c-0.1,0.7-0.2,1.3-0.3,2c0.6,0.2,1.2,0.4,1.8,0.6c8.3,3.2,11.2,5.5,12.3,7c0.4-0.6,0.7-1.3,1-1.9
		c-1.7-1.7-5.1-4-12.6-6.9C169.5,261.1,168.7,260.9,168,260.6L168,260.6z"/>
	<path class="st25" d="M165.8,261.9c0.1-0.6,0.2-1.3,0.2-2c-9.5-3.1-18.8-4.1-27.1-2.8c-1.9,0.3-3.8,1.1-5.4,1.9
		c0.1,0.8,0.1,1.5,0.2,2.2c1.4-0.9,3.4-1.9,5.6-2.2C147.3,257.8,156.4,258.8,165.8,261.9L165.8,261.9z"/>
	<path class="st25" d="M168,260.6c-0.7-0.2-1.3-0.5-2-0.7c-0.1,0.7-0.2,1.3-0.2,2c0.6,0.2,1.3,0.5,2,0.7
		C167.8,262,167.9,261.3,168,260.6z"/>
</g>
<radialGradient id="SVGID_00000150813193481489790780000008707192384567782034_" cx="105.6307" cy="530.899" r="1" gradientTransform="matrix(287.01 0 0 -287.01 -30128.9902 152455.4219)" gradientUnits="userSpaceOnUse">
	<stop  offset="0.14" style="stop-color:#92594B"/>
	<stop  offset="0.24" style="stop-color:#91584A"/>
	<stop  offset="0.26" style="stop-color:#905749"/>
	<stop  offset="0.55" style="stop-color:#814B3F"/>
	<stop  offset="0.79" style="stop-color:#7C483C"/>
</radialGradient>
<path style="fill:url(#SVGID_00000150813193481489790780000008707192384567782034_);" d="M211,153.1l-53,22.9l0.8,22.9l21.4,7
	l26.3-25.1c0,0,5.6-21.5,5.8-21.9C212.4,158.5,211,153.1,211,153.1L211,153.1z"/>
<linearGradient id="SVGID_00000166664460597968687660000007227820721808732581_" gradientUnits="userSpaceOnUse" x1="189.325" y1="285.76" x2="189.185" y2="326.4" gradientTransform="matrix(1 0 0 -1 0 502)">
	<stop  offset="0" style="stop-color:#E7BC91"/>
	<stop  offset="0.4" style="stop-color:#F3D5B5"/>
	<stop  offset="0.66" style="stop-color:#F5DCB4"/>
	<stop  offset="0.7" style="stop-color:#F3DAB2"/>
	<stop  offset="1" style="stop-color:#EFD3AB"/>
</linearGradient>
<path style="fill:url(#SVGID_00000166664460597968687660000007227820721808732581_);" d="M163.5,196.5c0.6-1.2,1.5-2.3,2.7-3.1
	c3.5-2.3,11.7-6.9,19.7-6.9c10.7,0,23.7,1.9,29.1,7.5c4.2,4.4-10.3,14.9-16.9,19.2c-1.9,1.3-4.3,1.6-6.5,1l-23.4-6.9
	C163.7,205.9,161.4,200.8,163.5,196.5L163.5,196.5z"/>
<linearGradient id="SVGID_00000145029666320183774820000004641240596011011485_" gradientUnits="userSpaceOnUse" x1="156.33" y1="313.14" x2="207.99" y2="313.14" gradientTransform="matrix(1 0 0 -1 0 502)">
	<stop  offset="0" style="stop-color:#E6E6E6"/>
	<stop  offset="0.31" style="stop-color:#DDDDDD"/>
	<stop  offset="0.32" style="stop-color:#DDDDDD"/>
	<stop  offset="0.54" style="stop-color:#ECECEC"/>
	<stop  offset="0.73" style="stop-color:#F2F2F2"/>
	<stop  offset="0.88" style="stop-color:#F9F9F9"/>
	<stop  offset="1" style="stop-color:#FFFFFF"/>
</linearGradient>
<path style="fill:url(#SVGID_00000145029666320183774820000004641240596011011485_);" d="M159.2,179.4c0,0,11.6,18.9,48.8-11.6
	c-6,15.6-17.8,33.1-17.8,33.1l-30.1,9c0,0-3.7-23.5-3.7-24.4S159.2,179.4,159.2,179.4L159.2,179.4z"/>
<linearGradient id="SVGID_00000157270626905121378540000011970958998250930822_" gradientUnits="userSpaceOnUse" x1="209.8505" y1="251.0012" x2="202.7005" y2="315.6812" gradientTransform="matrix(1 0 0 -1 0 502)">
	<stop  offset="0.2" style="stop-color:#162944"/>
	<stop  offset="0.54" style="stop-color:#202F57"/>
	<stop  offset="0.82" style="stop-color:#2B366B"/>
</linearGradient>
<path style="fill:url(#SVGID_00000157270626905121378540000011970958998250930822_);" d="M211,153.1c0,0-7,28.6-29.5,44.2
	c-24.8,13.6-22.7-23.4-22.7-23.4l-13.4-3.5l10.7,56.5l5.5,5l22.2,57.6l49.4-5l5.8-72l16.4-51L211,153.1L211,153.1z"/>
<path class="st31" d="M155.5,205.1c0,0,43.6-1.9,70.8-8.7"/>
<path class="st32" d="M155.5,205.1c0,0,43.5-1.9,70.7-8.7"/>
<path class="st33" d="M155.5,205.3c0,0,45-1.9,73.2-9"/>
<linearGradient id="SVGID_00000096024122078715806060000009240125361763750841_" gradientUnits="userSpaceOnUse" x1="167.6093" y1="305.2796" x2="190.7793" y2="256.4196" gradientTransform="matrix(1 0 0 -1 0 502)">
	<stop  offset="0.2" style="stop-color:#162944"/>
	<stop  offset="0.54" style="stop-color:#202F57"/>
	<stop  offset="0.82" style="stop-color:#2B366B"/>
</linearGradient>
<path style="fill:url(#SVGID_00000096024122078715806060000009240125361763750841_);" d="M170.5,200.2c0,0-0.3,6.5,0.9,18.6
	c1.3,12.1,7,4.7,7,4.7s-2-21-1.6-24.2C172.7,200.2,170.5,200.2,170.5,200.2L170.5,200.2z"/>
<linearGradient id="SVGID_00000083808323711302612970000006364395960506234253_" gradientUnits="userSpaceOnUse" x1="171.93" y1="292.2013" x2="174.465" y2="302.6653" gradientTransform="matrix(1 0 0 -1 0 502)">
	<stop  offset="0" style="stop-color:#FFE988"/>
	<stop  offset="0.25" style="stop-color:#BA801E"/>
	<stop  offset="0.5" style="stop-color:#FBEC83"/>
	<stop  offset="0.75" style="stop-color:#BA801F"/>
	<stop  offset="1" style="stop-color:#FFE97F"/>
</linearGradient>
<path style="fill:url(#SVGID_00000083808323711302612970000006364395960506234253_);" d="M173.6,206c1.1-0.2,1.8-1.1,1.6-2.2
	c-0.2-1.1-1.1-1.8-2.2-1.6c-1.1,0.2-1.8,1.1-1.6,2.2C171.6,205.4,172.5,206.1,173.6,206z"/>
<linearGradient id="SVGID_00000132778501126170740510000006662416005083565739_" gradientUnits="userSpaceOnUse" x1="172.2494" y1="281.0562" x2="174.7844" y2="291.5202" gradientTransform="matrix(1 0 0 -1 0 502)">
	<stop  offset="0" style="stop-color:#FFE988"/>
	<stop  offset="0.25" style="stop-color:#BA801E"/>
	<stop  offset="0.5" style="stop-color:#FBEC83"/>
	<stop  offset="0.75" style="stop-color:#BA801F"/>
	<stop  offset="1" style="stop-color:#FFE97F"/>
</linearGradient>
<path style="fill:url(#SVGID_00000132778501126170740510000006662416005083565739_);" d="M173.9,217.1c1.1-0.2,1.8-1.1,1.6-2.2
	c-0.2-1.1-1.1-1.8-2.2-1.6c-1.1,0.2-1.8,1.1-1.6,2.2C171.9,216.6,172.9,217.3,173.9,217.1z"/>
<linearGradient id="SVGID_00000176010709177694960600000016493836012085869441_" gradientUnits="userSpaceOnUse" x1="277.0505" y1="158.0896" x2="298.5905" y2="129.7596" gradientTransform="matrix(1 0 0 -1 0 502)">
	<stop  offset="0.12" style="stop-color:#935848"/>
	<stop  offset="0.5" style="stop-color:#935848"/>
	<stop  offset="0.6" style="stop-color:#9B604E"/>
	<stop  offset="0.73" style="stop-color:#A16552"/>
	<stop  offset="1" style="stop-color:#966444"/>
</linearGradient>
<path style="fill:url(#SVGID_00000176010709177694960600000016493836012085869441_);" d="M275.2,383.4c0,0,29.4-19.2,31-21.7
	s3.5-8.6,2.2-14.7c-1.4-6.1-6.6-13.6-9.7-14.9c-3.2-1.4-11.5,0-11.5,0l-17,32L275.2,383.4L275.2,383.4z"/>
<linearGradient id="SVGID_00000078739263372542684170000008866417054373731712_" gradientUnits="userSpaceOnUse" x1="253.6979" y1="117.9254" x2="291.9979" y2="139.6354" gradientTransform="matrix(1 0 0 -1 0 502)">
	<stop  offset="0.1" style="stop-color:#0973A3"/>
	<stop  offset="0.18" style="stop-color:#167DA7"/>
	<stop  offset="0.3" style="stop-color:#2589AD"/>
	<stop  offset="0.4" style="stop-color:#2B8DAF"/>
	<stop  offset="0.55" style="stop-color:#1D82AA"/>
	<stop  offset="0.77" style="stop-color:#0E76A4"/>
	<stop  offset="0.96" style="stop-color:#0973A3"/>
</linearGradient>
<path style="fill:url(#SVGID_00000078739263372542684170000008866417054373731712_);" d="M262.1,394.6l2.7-2.1c0,0,1,0.9,2,1.1
	c1,0.2,3.4-2.2,3.3-3.2c-0.1-1,0.2-2.9,0.9-1.8c0.7,1.1,4.2-1.1,4.2-3.1c0-1.9-0.9-30.1-0.9-30.1L262.1,394.6z"/>
<linearGradient id="SVGID_00000019658290128215953400000014147628901972466824_" gradientUnits="userSpaceOnUse" x1="240.1312" y1="98.7183" x2="192.1312" y2="349.2683" gradientTransform="matrix(1 0 0 -1 0 502)">
	<stop  offset="0.1" style="stop-color:#0973A3"/>
	<stop  offset="0.18" style="stop-color:#167DA7"/>
	<stop  offset="0.3" style="stop-color:#2589AD"/>
	<stop  offset="0.4" style="stop-color:#2B8DAF"/>
	<stop  offset="0.55" style="stop-color:#1D82AA"/>
	<stop  offset="0.77" style="stop-color:#0E76A4"/>
	<stop  offset="0.96" style="stop-color:#0973A3"/>
</linearGradient>
<path style="fill:url(#SVGID_00000019658290128215953400000014147628901972466824_);" d="M288.4,236.4c-2.6-11.5-4.3-10.5-13.2-11.8
	c-8.9-1.3-45.9-12.1-49.3-13.8c-7.6-5.3-23.3-3.6-36.6-3.8c-16.1-0.2-34.1,2.3-34.3,6.2c-0.2,3.9,1.8,8.3,3.8,16.1
	s13.3,33.3,18.5,43.1c5.2,9.8,3.2,27.2,3.2,27.2h0.2l-12.3,35.6l-10.9,31.4l-4.2,11.4l12.4,16l20,1.5l26.6-6.5l7.5,8.8l26.3,3.4
	l16.1-6.6c0,0,3.7-8.9,4.5-14.2c0.8-5.3,18.9-38.8,18.9-38.8s8.6-23.8,9.4-33.9c0.8-10.2,1.5-19.7,1.2-24.6c0,0,0.9,1.9,1.5-5.1
	C298.1,270.8,290.9,248,288.4,236.4L288.4,236.4z"/>
<linearGradient id="SVGID_00000093878681268282997760000009358015245453942429_" gradientUnits="userSpaceOnUse" x1="206.6671" y1="213.1615" x2="202.3531" y2="249.2115" gradientTransform="matrix(1 0 0 -1 0 502)">
	<stop  offset="0.1" style="stop-color:#0973A3"/>
	<stop  offset="0.18" style="stop-color:#167DA7"/>
	<stop  offset="0.3" style="stop-color:#2589AD"/>
	<stop  offset="0.4" style="stop-color:#2B8DAF"/>
	<stop  offset="0.55" style="stop-color:#1D82AA"/>
	<stop  offset="0.77" style="stop-color:#0E76A4"/>
	<stop  offset="0.96" style="stop-color:#0973A3"/>
</linearGradient>
<path style="fill:url(#SVGID_00000093878681268282997760000009358015245453942429_);" d="M169,260.7c0,0-0.1,1.9,0.8,6.9
	c0.9,5,6.3,12.7,6.5,18.3c0.2,5.6,1.8,6,3.4,5.7c1.6-0.3,29.5-3.3,40.6,0.7c11.1,4,16.1-3.8,16.9-11.3s1.3-27.6-1.4-28.5
	c-2.7-0.9-46.4,2.4-55,3C172.2,256,169,260.7,169,260.7L169,260.7z"/>
<path class="st41" d="M302.7,364.6c0,0,3.6-14.2,0.9-20.6c-2.7-6.5-10.3-11.5-10.7-12.6c-0.4-1.1-0.4-1.2,2.4-1.8
	c2.8-0.6,5.5,1,12.9,2.4c7.4,1.4,9.4,7.4,9.6,10.2c0.2,2.8-1.6,18.7-5.5,30.8s-3.4,16.6-5.1,19c-1.7,2.4-8.6,6.6-13.9,6.6
	s-13.1-2.6-14.6-9.5l-1.5-6.9L302.7,364.6L302.7,364.6z"/>
<path class="st42" d="M295.2,369.7l-16.8,11.5c0.2,1.5,0.5,2.6,1.3,2.8c2.4,0.4,12.1,2.8,14-2.6
	C294.9,378.1,295.2,373.1,295.2,369.7L295.2,369.7z"/>
<path class="st43" d="M233.2,284.5L256,267l17.5-87.6l-8.2,88.9l-4.4,0.8l2.7,4.4l-5.1,8.2L233.2,284.5z"/>
<linearGradient id="SVGID_00000102508732055694083090000018167269413091997084_" gradientUnits="userSpaceOnUse" x1="283.731" y1="201.1491" x2="230.4871" y2="216.1619">
	<stop  offset="0.2" style="stop-color:#162944"/>
	<stop  offset="0.54" style="stop-color:#202F57"/>
	<stop  offset="0.82" style="stop-color:#2B366B"/>
</linearGradient>
<path style="fill:url(#SVGID_00000102508732055694083090000018167269413091997084_);" d="M286.4,230.2l-2.6-3.8
	c-1.5-0.9-3.5-1.2-6.5-1.5c-0.7-0.1-1.4-0.2-2.2-0.3c-1.4-0.2-3.4-0.6-5.8-1.2l1.4-15l0.1-1.5l0.1-1.5l0.2-2l0.3-3l1.9-21l0.7-3.7
	l0.3-1.5l0.1-0.4l0.1,0.4l0.3,1.5l5.2,24.7l0.3,1.5l0.3,1.5l0.4,2v0h0L286.4,230.2z"/>
<path class="st45" d="M271.5,200.8l-2.5,0.5l-1.9,9.9l3.5-0.8L271.5,200.8z"/>
<linearGradient id="SVGID_00000077311013237365124830000007097226581877920899_" gradientUnits="userSpaceOnUse" x1="162.8554" y1="278.849" x2="147.2754" y2="352.129" gradientTransform="matrix(1 0 0 -1 0 502)">
	<stop  offset="0.1" style="stop-color:#0973A3"/>
	<stop  offset="0.18" style="stop-color:#167DA7"/>
	<stop  offset="0.3" style="stop-color:#2589AD"/>
	<stop  offset="0.4" style="stop-color:#2B8DAF"/>
	<stop  offset="0.55" style="stop-color:#1D82AA"/>
	<stop  offset="0.77" style="stop-color:#0E76A4"/>
	<stop  offset="0.96" style="stop-color:#0973A3"/>
</linearGradient>
<path style="fill:url(#SVGID_00000077311013237365124830000007097226581877920899_);" d="M167.1,221.6l-5.1-12.5l-2.7-9.1l-0.2-40.8
	c0,0-8.3-0.4-11.2,2.5c-2.9,2.9-3.1,25.5,1,41.6c3.2,12.9,7.2,20.6,8.6,23c0.3,0.5,0.9,0.7,1.5,0.5l7.3-3.1
	C167.1,223.3,167.5,222.4,167.1,221.6L167.1,221.6z"/>
<linearGradient id="SVGID_00000052787817704296929920000009206347520600807075_" gradientUnits="userSpaceOnUse" x1="148.5061" y1="336.3639" x2="180.2961" y2="269.3439" gradientTransform="matrix(1 0 0 -1 0 502)">
	<stop  offset="0.2" style="stop-color:#162944"/>
	<stop  offset="0.54" style="stop-color:#202F57"/>
	<stop  offset="0.82" style="stop-color:#2B366B"/>
</linearGradient>
<path style="fill:url(#SVGID_00000052787817704296929920000009206347520600807075_);" d="M159.9,172.5c0,0-1.2,20.9,10.6,27.8
	c-5.6,0.8-5.9-3.3-7.7-3.6c-1.8-0.3-4.4-16.1-12.2-10.2c-3.6-2.9,1.6-15.8,1.6-15.8L159.9,172.5L159.9,172.5z"/>
<linearGradient id="SVGID_00000046298323553382141930000000013240344309643688_" gradientUnits="userSpaceOnUse" x1="221.3745" y1="341.1646" x2="158.8145" y2="266.8646" gradientTransform="matrix(1 0 0 -1 0 502)">
	<stop  offset="0.2" style="stop-color:#162944"/>
	<stop  offset="0.54" style="stop-color:#202F57"/>
	<stop  offset="0.82" style="stop-color:#2B366B"/>
</linearGradient>
<path style="fill:url(#SVGID_00000046298323553382141930000000013240344309643688_);" d="M170.5,200.2c0,0,16-2.8,26.2-19.2
	c10.2-16.3,12.2-24.4,12.2-24.4l2.2-7.2l12.3,9.5c0,0-3.4,19.6-2.9,23.8c0.6,4.2-0.4,2.8-4.7,1.4c-4.3-1.4-11.8-2.7-15.3,0
	c-3.5,2.7-9.4,9.6-14.5,13C180.8,200.8,174.3,201.8,170.5,200.2L170.5,200.2z"/>
<linearGradient id="SVGID_00000097493061741794147770000015796403401178771382_" gradientUnits="userSpaceOnUse" x1="241.2121" y1="169.7017" x2="145.4721" y2="89.7917" gradientTransform="matrix(1 0 0 -1 0 502)">
	<stop  offset="0" style="stop-color:#282525"/>
	<stop  offset="0.44" style="stop-color:#282525;stop-opacity:0.7"/>
	<stop  offset="0.62" style="stop-color:#282525;stop-opacity:0.39"/>
	<stop  offset="0.91" style="stop-color:#282525;stop-opacity:0"/>
</linearGradient>
<path style="opacity:0.2;fill:url(#SVGID_00000097493061741794147770000015796403401178771382_);enable-background:new    ;" d="
	M231.6,320.8l-10.4-4.3l-9.1,8.6l1.5,19.6l-13.4,32.2l-0.6,4.3l-18.9,1.8l-12.3-7.2l-6.6,13.3l3.6,4.7l20,1.5l12.6-3.1l14-3.4
	l-2.4-12L231.6,320.8z"/>
<linearGradient id="SVGID_00000054954772712091626990000007409429149517463203_" gradientUnits="userSpaceOnUse" x1="190.0642" y1="168.0004" x2="110.2522" y2="141.1454" gradientTransform="matrix(1 0 0 -1 0 502)">
	<stop  offset="0.12" style="stop-color:#935848"/>
	<stop  offset="0.5" style="stop-color:#935848"/>
	<stop  offset="0.6" style="stop-color:#9B604E"/>
	<stop  offset="0.73" style="stop-color:#A16552"/>
	<stop  offset="1" style="stop-color:#966444"/>
</linearGradient>
<path style="fill:url(#SVGID_00000054954772712091626990000007409429149517463203_);" d="M179.6,334.4c0,0-3.4,2.8-7.2,3.8
	c-3.9,1-6.4,0.5-7.6,1.4c-1.2,0.9,4.4,4.6,4.4,4.6s9.5-5.8,10.1-7.4C179.9,335.2,179.6,334.4,179.6,334.4L179.6,334.4z"/>
<path class="st51" d="M176.2,360c3,16.2-7.7,31.7-23.8,34.7c-0.8,0.2-1.7,0.3-2.5,0.4c-15.2,1.5-29.3-8.9-32.2-24.2
	c-3-16.2,7.7-31.7,23.8-34.7c3.4-0.6,7-0.7,10.4-0.1C163.9,338.1,173.8,347.4,176.2,360L176.2,360z"/>
<path class="st52" d="M176.1,356.6c3.1,16.5-7.8,32.3-24.3,35.3c-0.9,0.2-1.7,0.3-2.6,0.4c-15.5,1.5-29.9-9-32.8-24.6
	c-3.1-16.5,7.8-32.3,24.3-35.3c3.5-0.7,7.1-0.7,10.6-0.1C163.6,334.3,173.7,343.8,176.1,356.6L176.1,356.6z"/>
<path class="st53" d="M171.8,357.4c2.6,14.1-6.7,27.6-20.8,30.2c-0.7,0.1-1.5,0.2-2.2,0.3c-13.3,1.3-25.5-7.7-28-21.1
	c-2.6-14.1,6.7-27.6,20.8-30.2c3-0.6,6.1-0.6,9.1-0.1C161.1,338.3,169.8,346.4,171.8,357.4L171.8,357.4z"/>
<path class="st54" d="M141,333.5c3.5-0.7,7.1-0.7,10.6-0.1c12,2,22,11.2,24.6,23.7c0-0.2-0.1-0.4-0.1-0.5
	c-2.4-12.8-12.5-22.3-24.7-24.3c-3.5-0.6-7.1-0.6-10.6,0.1c-16.4,3.1-27.3,18.9-24.2,35.3c0,0.2,0.1,0.4,0.1,0.6
	C113.9,352,124.7,336.5,141,333.5L141,333.5z"/>
<path class="st51" d="M141.8,337.6c3-0.6,6.1-0.6,9.1-0.1c10.2,1.7,18.8,9.6,21,20.3c0-0.1-0.1-0.3-0.1-0.5
	c-2-11-10.7-19.1-21.2-20.8c-3-0.5-6.1-0.5-9.1,0.1c-14.1,2.6-23.4,16.2-20.8,30.2c0,0.2,0.1,0.3,0.1,0.5
	C118.6,353.5,127.8,340.2,141.8,337.6L141.8,337.6z"/>
<path class="st52" d="M153.3,355.5c-0.7-0.3-1.5-0.1-2.1,0.4l-4.2,3.7l-2.9,2.5l-4.2,3.7c-0.5,0.5-1.3,0.6-2.1,0.4l-4.2-1.6
	c-0.7-0.3-1.2-0.9-1.4-1.6l-0.8-4.4c-0.1-0.8,0.1-1.5,0.7-2l3.3-2.8c0.5-0.5,1.3-0.6,2.1-0.4l4.1,1.5c0.7,0.3,1.2,0.9,1.4,1.6
	l0.5,2.9l2.9-2.5l-0.5-2.9c-0.1-0.8-0.6-1.4-1.4-1.6l-7.6-2.9c-0.7-0.3-1.5-0.1-2.1,0.4l-6.3,5.4c-0.6,0.5-0.8,1.2-0.7,2l1.5,8.3
	c0.1,0.8,0.6,1.4,1.4,1.6l7.7,2.9c0.7,0.3,1.5,0.1,2.1-0.4l4.3-3.7l2.9-2.5l4.3-3.7c0.5-0.5,1.3-0.6,2.1-0.4l4.1,1.5
	c0.7,0.3,1.2,0.9,1.4,1.6l0.8,4.4c0.1,0.8-0.1,1.5-0.7,2l-3.3,2.9c-0.5,0.5-1.3,0.6-2.1,0.4l-4.1-1.5c-0.7-0.3-1.2-0.9-1.4-1.6
	l-0.5-2.9l-2.9,2.5l0.5,2.9c0.1,0.8,0.6,1.4,1.4,1.6l7.7,2.9c0.7,0.3,1.5,0.1,2.1-0.4l6.3-5.4c0.5-0.5,0.8-1.2,0.7-2l-1.5-8.3
	c-0.1-0.8-0.6-1.4-1.4-1.6L153.3,355.5L153.3,355.5z"/>
<g class="st19">
	<path class="st20" d="M168.2,341.2l-33.6,48.9c1.8,0.8,3.8,1.4,5.7,1.8l31.5-45.9C170.8,344.2,169.6,342.6,168.2,341.2L168.2,341.2
		z"/>
	<path class="st20" d="M151.4,332.3c-0.2,0-0.5-0.1-0.7-0.1L119.9,377c2.7,4.8,6.7,8.8,11.5,11.5l34.2-49.8
		C161.5,335.4,156.6,333.1,151.4,332.3L151.4,332.3z"/>
</g>
<linearGradient id="SVGID_00000112630359421271470830000010608026815013341324_" gradientUnits="userSpaceOnUse" x1="176.761" y1="195.615" x2="273.921" y2="195.615" gradientTransform="matrix(1 0 0 -1 0 502)">
	<stop  offset="0.12" style="stop-color:#935848"/>
	<stop  offset="0.5" style="stop-color:#935848"/>
	<stop  offset="0.6" style="stop-color:#9B604E"/>
	<stop  offset="0.73" style="stop-color:#A16552"/>
	<stop  offset="1" style="stop-color:#966444"/>
</linearGradient>
<path style="fill:url(#SVGID_00000112630359421271470830000010608026815013341324_);" d="M180.8,332.7c0,0,12.5-16.8,21.7-28.6
	c9.2-11.8,28.5-36.7,32.3-39.3c3.8-2.6,1.9-4.4,1.9-4.4l36.7,5.3c0,0,2,10.3-2,16.2c-3.9,5.9-21,28-30.4,34.7
	c-9.4,6.6-45.5,35.9-45.5,35.9l-18.9-7.9L180.8,332.7L180.8,332.7z"/>
<linearGradient id="SVGID_00000013893126765741611320000016179205683538014084_" gradientUnits="userSpaceOnUse" x1="108.3998" y1="119.3931" x2="61.8735" y2="186.2671" gradientTransform="matrix(1 0 0 -1 0 502)">
	<stop  offset="0.12" style="stop-color:#935848"/>
	<stop  offset="0.5" style="stop-color:#935848"/>
	<stop  offset="0.6" style="stop-color:#9B604E"/>
	<stop  offset="0.73" style="stop-color:#A16552"/>
	<stop  offset="1" style="stop-color:#966444"/>
</linearGradient>
<path style="fill:url(#SVGID_00000013893126765741611320000016179205683538014084_);" d="M93.1,345.7c0,0-3.8-0.8-5.8-0.2
	c-2,0.6-5.1,1.1-6.2,6.7s3.3,14.4,4.2,16.5c0.9,2.1,4.9,5.1,7.4,4.6c2.4-0.5,8.7-2.4,10.4-4.4c1.7-2,0-5-0.9-5.1
	c-0.8-0.2,0.7-1,0.7-2.7c0-1.7-1.5-4-2.1-4c-0.5,0-1.5-0.6-1.1-0.6c0.5-0.1,0.8-3.1-0.2-4.4c-1-1.3-2.2-1.2-2.2-1.3l-0.1-0.1
	c0,0,1-0.5,1-1S99,347.3,93.1,345.7L93.1,345.7z"/>
<linearGradient id="SVGID_00000079484163607723945180000001005273754854174358_" gradientUnits="userSpaceOnUse" x1="215.2998" y1="187.3584" x2="155.1008" y2="124.0504" gradientTransform="matrix(1 0 0 -1 0 502)">
	<stop  offset="0.12" style="stop-color:#935848"/>
	<stop  offset="0.5" style="stop-color:#935848"/>
	<stop  offset="0.6" style="stop-color:#9B604E"/>
	<stop  offset="0.73" style="stop-color:#A16552"/>
	<stop  offset="1" style="stop-color:#966444"/>
</linearGradient>
<path style="fill:url(#SVGID_00000079484163607723945180000001005273754854174358_);" d="M180.8,332.7c0,0-1.8,3-4.1,4.4
	c-2.3,1.4-8.9,7.1-11.3,10.2c-2.4,3.2-2.2,8.4-3.8,11c-1.6,2.6-7.7,9.7-8.7,11.6s-1.4,4-0.5,4.9s-0.2,2.4,0.8,3.5
	c1,1.1,2.3,1.3,3.8,0.5c1.5-0.8-0.2,1.4,2.8,1.4c3,0.1,5.1-1.8,5.7-0.6c0.6,1.2,0.4,3.2,6.6-1.9c6.3-5.1,11.2-7.1,14.2-15.8
	s9.3-9.6,9.3-9.6L180.8,332.7L180.8,332.7z"/>
<linearGradient id="SVGID_00000165933123031954586030000010475351021484884125_" gradientUnits="userSpaceOnUse" x1="201.1178" y1="158.9129" x2="252.0508" y2="219.4613">
	<stop  offset="0.2" style="stop-color:#162944"/>
	<stop  offset="0.54" style="stop-color:#202F57"/>
	<stop  offset="0.82" style="stop-color:#2B366B"/>
</linearGradient>
<polygon style="fill:url(#SVGID_00000165933123031954586030000010475351021484884125_);" points="279.9,271.5 228.5,263.8 
	227.8,242.4 227.8,240.9 227.7,239.4 227.7,237.3 227.6,235.8 227.5,234.3 227.2,224.1 227.1,222.2 227.1,220.3 227,217.8 
	227,217.8 226.9,216 226.9,216 226.9,214.2 226.6,206.5 226.5,204.4 226.5,201.8 226.3,198.4 226.3,196 226.2,194.5 227.1,192.4 
	235,174.6 253.6,162.7 254.9,161.8 255.5,161.5 256.7,162.3 259.4,164 261.3,165.3 261.3,165.3 263.1,166.5 265.8,168.2 
	267.7,169.5 269.8,170.8 272.8,172.8 274.5,173.9 274.5,173.9 274.6,174.3 274.7,175.8 276,200.4 276.1,201.9 276.2,203.4 
	276.3,205.4 276.4,206.9 276.4,208.4 277.3,224.9 277.6,230.2 277.7,231.8 277.8,233.3 277.9,235.3 278,236.9 278.1,238.4 "/>
<g class="st24">
	<g>
		<path class="st25" d="M253.6,162.7c0.8,2.1,1.6,4.8,2.3,8c0.1,0.4,0.2,0.9,0.3,1.4c0.1,0.5,0.2,1,0.3,1.5c0.1,0.7,0.2,1.3,0.3,2
			c0.1,0.5,0.2,1,0.2,1.5c0.1,0.5,0.2,1,0.2,1.5c1,6.8,1.8,14.7,2.4,22.9c0,0.5,0.1,1,0.1,1.5c0,0.5,0.1,1,0.1,1.5
			c0,0.7,0.1,1.3,0.1,2c0,0.5,0.1,1,0.1,1.5c0,0.5,0.1,1,0.1,1.5c0.4,6.9,0.7,13.7,1,20.1c0,0.5,0,1,0.1,1.5c0,0.5,0,1,0,1.5
			c0,0.7,0.1,1.4,0.1,2c0,0.5,0,1,0.1,1.5c0,0.5,0,1,0,1.5c0.2,6.2,0.2,11.6,0.2,15.6h1.5l1.5,0h2l1.5,0h1.5c0-0.1,0-6.4-0.3-15.7
			c0-0.5,0-1,0-1.5c0-0.5,0-1,0-1.5c0-0.7,0-1.3-0.1-2c0-0.5,0-1,0-1.5c0-0.5,0-1-0.1-1.5c-0.2-5.3-0.4-11.2-0.8-17.3
			c-0.1-1.2-0.1-2.5-0.2-3.7c0-0.5-0.1-1-0.1-1.5c0-0.5-0.1-1-0.1-1.5c0-0.7-0.1-1.3-0.1-2c0-0.5-0.1-1-0.1-1.5c0-0.5-0.1-1-0.1-1.5
			c-0.7-9.5-1.6-17.6-2.6-24.2h0c-0.1-0.5-0.1-1-0.2-1.5c-0.1-0.5-0.2-1-0.2-1.4c-0.1-0.7-0.2-1.3-0.4-2c-0.1-0.5-0.2-1-0.3-1.5
			c-0.1-0.5-0.2-0.9-0.3-1.4c-0.2-0.7-0.3-1.4-0.5-2.1l-1.8-1.2h0l-1.9-1.2l-2.7-1.7l-1.3-0.8l-0.6,0.3L253.6,162.7z"/>
	</g>
	<g>
		<path class="st25" d="M278.1,238.4c-2.6-0.5-5.6-0.8-8.6-0.9c-0.5,0-1,0-1.5,0s-1,0-1.5,0c-0.7,0-1.3,0-2,0c-0.5,0-1,0-1.5,0
			c-0.5,0-1,0-1.5,0.1c-14,0.7-28.8,3.8-33.7,4.8l0-1.5l-0.1-1.5l-0.1-2l-0.1-1.5l0-1.5c6.1-1.3,20.1-4,33.7-4.7c0.5,0,1,0,1.5-0.1
			s1,0,1.5,0c0.7,0,1.4,0,2,0c0.5,0,1,0,1.5,0c0.5,0,1,0,1.5,0c2.9,0.1,5.8,0.3,8.4,0.7l0.1,1.5l0.1,1.5l0.1,2l0.1,1.5L278.1,238.4z
			"/>
	</g>
	<g>
		<path class="st25" d="M276.4,208.4c-2,0-3.8,0-5.7,0c-0.9,0-1.7,0.1-2.5,0.1c-0.5,0-1,0.1-1.5,0.1c-0.5,0-1,0.1-1.5,0.1
			c-0.7,0.1-1.4,0.1-2,0.2c-0.5,0.1-1,0.1-1.5,0.2c-0.5,0.1-1,0.1-1.5,0.2c-8.5,1.4-15.3,3.9-20.2,6.3c-6.7,3.2-11,6.7-12.9,8.3
			l-0.1-1.9l-0.1-1.9l-0.1-2.5v0l-0.1-1.8v0l-0.1-1.8c6.3-4.4,17.3-10.3,32.9-12.7c0.5-0.1,1-0.2,1.5-0.2c0.5-0.1,1-0.1,1.5-0.2
			c0.7-0.1,1.3-0.2,2-0.2c0.5,0,1-0.1,1.5-0.1h0c0.5,0,1-0.1,1.5-0.1c1.2-0.1,2.5-0.1,3.8-0.2c1.5,0,3,0,4.5,0l0.1,1.5l0.1,1.5
			l0.1,2l0.1,1.5L276.4,208.4z"/>
	</g>
	<g>
		<path class="st25" d="M275,175.8c-0.1,0-0.2,0-0.3,0c-0.2,0-0.3,0-0.5,0c-3.2-0.2-6.2,0-9.1,0.6h0c-0.5,0.1-1,0.2-1.5,0.3
			c-0.5,0.1-1,0.2-1.4,0.3c-0.7,0.2-1.3,0.4-1.9,0.6c-0.5,0.2-1,0.3-1.4,0.5c-0.5,0.2-1,0.4-1.4,0.6c-13.6,5.4-23.5,17.4-29.1,26
			c-0.5,0.8-1,1.5-1.6,1.9l-0.1-2.2l-0.1-2.6l-0.1-3.3l-0.1-2.4l0-1.5l0.9-2.1c8.5-10.6,18.3-18,28.8-21.8c0.5-0.2,0.9-0.3,1.4-0.5
			c0.5-0.2,1-0.3,1.4-0.5c0.6-0.2,1.3-0.4,1.9-0.5c0.5-0.1,1-0.2,1.4-0.3c0.5-0.1,1-0.2,1.5-0.3c0.7-0.1,1.5-0.3,2.2-0.4l1.9,1.2
			l2.1,1.4l3,2l1.7,1.1v0l0.1,0.4L275,175.8z"/>
	</g>
</g>
<g class="st24">
	<g>
		<path class="st25" d="M268.2,253.2l-1.5,0h-2l-1.5,0c0-0.1,0-6.4-0.3-15.7c0-0.5,0-1,0-1.5c0-0.5,0-1,0-1.5c0-0.7,0-1.3-0.1-2
			c0-0.5,0-1,0-1.5c0-0.5,0-1-0.1-1.5c-0.2-5.3-0.4-11.1-0.8-17c-0.1-1.1-0.1-2.2-0.2-3.3c0-0.5-0.1-1-0.1-1.5c0-0.5-0.1-1-0.1-1.5
			c0-0.7-0.1-1.4-0.1-2c0-0.5-0.1-1-0.1-1.5c0-0.5-0.1-1-0.1-1.5c-0.7-9.7-1.6-17.3-2.5-23.2c-0.1-0.5-0.2-1-0.2-1.5
			c-0.1-0.5-0.2-1-0.2-1.5c-0.1-0.7-0.2-1.4-0.4-2c-0.1-0.5-0.2-1-0.3-1.5c-0.1-0.5-0.2-0.9-0.3-1.4c-0.8-3.8-1.7-6.5-2.4-8.3
			l0.5-0.4l1.2,0.8l2.7,1.7l1.9,1.2h0c0.3,1.1,0.6,2.3,0.9,3.6c0.1,0.5,0.2,0.9,0.3,1.4c0.1,0.5,0.2,1,0.3,1.5
			c0.1,0.7,0.2,1.3,0.4,2c0.1,0.5,0.2,0.9,0.2,1.4c0.1,0.5,0.2,1,0.2,1.5c1.1,7.2,2,15.6,2.6,24h0c0,0.5,0.1,1,0.1,1.5
			c0,0.5,0.1,1,0.1,1.5c0,0.7,0.1,1.3,0.1,2c0,0.5,0.1,1,0.1,1.5c0,0.5,0.1,1,0.1,1.5c0.5,7.3,0.8,14.4,1,20.8c0,0.5,0,1,0,1.5
			c0,0.5,0,1,0.1,1.5c0,0.7,0,1.4,0.1,2c0,0.5,0,1,0,1.5c0,0.5,0,1,0,1.5C268.2,246.3,268.2,252.3,268.2,253.2z"/>
	</g>
	<g>
		<path class="st25" d="M278,236.9c-2.6-0.5-5.5-0.7-8.6-0.8c-0.5,0-1,0-1.5,0c-0.5,0-1,0-1.5,0c-0.7,0-1.3,0-2,0c-0.5,0-1,0-1.5,0
			c-0.5,0-1,0-1.5,0.1c-13.9,0.7-28.5,3.7-33.7,4.8l-0.1-1.5l-0.1-2l-0.1-1.5c6-1.3,20-4.1,33.7-4.7c0.5,0,1,0,1.5-0.1
			c0.5,0,1,0,1.5,0c0.7,0,1.3,0,2,0c0.5,0,1,0,1.5,0c0.5,0,1,0,1.5,0c2.9,0.1,5.8,0.3,8.4,0.7l0.1,1.5l0.1,2L278,236.9z"/>
	</g>
	<g>
		<path class="st25" d="M276.3,205.4l0.1,1.5c-1.9,0-3.7,0-5.5,0c-0.9,0-1.9,0.1-2.8,0.2c-0.5,0-1,0.1-1.5,0.1c-0.5,0-1,0.1-1.5,0.1
			c-0.7,0.1-1.4,0.1-2,0.2c-0.5,0.1-1,0.1-1.5,0.2c-0.5,0.1-1,0.1-1.5,0.2c-8.8,1.4-15.9,4.1-20.9,6.5c-5.8,2.8-9.9,5.8-12.1,7.7
			l-0.1-1.9l-0.1-2.5v0l-0.1-1.8v0c6-4.3,17-10.5,32.9-13c0.5-0.1,1-0.2,1.5-0.2c0.5-0.1,1-0.1,1.5-0.2c0.7-0.1,1.3-0.1,2-0.2
			c0.5,0,1-0.1,1.5-0.1s1-0.1,1.5-0.1c1.2-0.1,2.3-0.1,3.6-0.2c1.5,0,3.1,0,4.7,0l0.1,1.5L276.3,205.4z"/>
	</g>
	<g>
		<path class="st25" d="M274.6,174.3L274.6,174.3c-0.1,0-0.1,0-0.2,0c-3.4-0.2-6.6,0-9.7,0.6c-0.5,0.1-1,0.2-1.5,0.3
			c-0.5,0.1-1,0.2-1.4,0.4c-0.7,0.2-1.3,0.3-1.9,0.5c-0.5,0.1-1,0.3-1.4,0.5c-0.5,0.2-1,0.3-1.4,0.5c-14.2,5.5-24.4,17.9-30.1,26.7
			c-0.1,0.2-0.3,0.4-0.4,0.6l-0.1-2.6l-0.1-3.3l-0.1-2.4c10-13.5,20.4-20.5,29.9-24c0.5-0.2,1-0.3,1.4-0.5c0.5-0.2,1-0.3,1.5-0.4
			c0.7-0.2,1.3-0.4,1.9-0.5c0.5-0.1,1-0.2,1.4-0.3c0.5-0.1,1-0.2,1.5-0.3c1.3-0.2,2.6-0.4,3.8-0.5l2.1,1.4l3,2l1.7,1.1v0
			L274.6,174.3z"/>
	</g>
</g>
<g class="st24">
	<g>
		<path class="st25" d="M266.7,253.2h-2c0-0.2,0-6.5-0.3-15.7c0-0.5,0-1,0-1.5c0-0.5,0-1,0-1.5c0-0.7,0-1.3-0.1-2c0-0.5,0-1,0-1.5
			c0-0.5,0-1-0.1-1.5c-0.2-6.3-0.5-13.3-1-20.5c0-0.5-0.1-1-0.1-1.5c0-0.5-0.1-1-0.1-1.5c0-0.7-0.1-1.3-0.1-2c0-0.5-0.1-1-0.1-1.5
			c0-0.5-0.1-1-0.1-1.5c-0.6-8.3-1.5-16.5-2.5-23.5c-0.1-0.5-0.1-1-0.2-1.5c-0.1-0.5-0.2-1-0.2-1.5c-0.1-0.7-0.2-1.3-0.4-2
			c-0.1-0.5-0.2-1-0.3-1.5c-0.1-0.5-0.2-0.9-0.3-1.4c-0.6-2.9-1.3-5.4-2.1-7.4l2.7,1.7c0.5,1.6,0.9,3.3,1.3,5.2
			c0.1,0.5,0.2,0.9,0.3,1.4c0.1,0.5,0.2,1,0.3,1.5c0.1,0.6,0.2,1.3,0.4,2c0.1,0.5,0.2,1,0.2,1.4c0.1,0.5,0.1,1,0.2,1.5
			c1.1,7.1,2,15.4,2.6,23.8c0,0.5,0.1,1,0.1,1.5c0,0.5,0.1,1,0.1,1.5c0,0.7,0.1,1.3,0.1,2c0,0.5,0.1,1,0.1,1.5c0,0.5,0.1,1,0.1,1.5
			c0.4,7.2,0.8,14.3,1,20.7c0,0.5,0,1,0,1.5c0,0.5,0,1,0,1.5c0,0.7,0,1.4,0.1,2c0,0.5,0,1,0,1.5c0,0.5,0,1,0,1.5
			C266.7,246.3,266.7,252.3,266.7,253.2z"/>
	</g>
	<g>
		<path class="st25" d="M277.9,235.3c-2.6-0.5-5.5-0.7-8.5-0.8c-0.5,0-1,0-1.5,0c-0.5,0-1,0-1.5,0c-0.7,0-1.3,0-2,0
			c-0.5,0-1,0-1.5,0c-0.5,0-1,0-1.5,0.1c-13.8,0.7-28.3,3.6-33.7,4.7l-0.1-2c5.8-1.3,19.9-4.1,33.7-4.7c0.5,0,1,0,1.5-0.1
			c0.5,0,1,0,1.5,0c0.7,0,1.4,0,2,0c0.5,0,1,0,1.5,0c0.5,0,1,0,1.5,0c3,0.1,5.8,0.3,8.5,0.8L277.9,235.3z"/>
	</g>
	<g>
		<path class="st25" d="M276.3,205.4c-1.8,0-3.5,0-5.2,0c-1,0-2,0.1-3,0.1c-0.5,0-1,0.1-1.5,0.1c-0.5,0-1,0.1-1.5,0.1
			c-0.7,0.1-1.4,0.1-2,0.2c-0.5,0.1-1,0.1-1.5,0.2c-0.5,0.1-1,0.1-1.5,0.2c-9.1,1.5-16.4,4.2-21.6,6.7c-5.2,2.5-9,5.2-11.4,7.1
			l-0.1-2.5v0c2.5-1.8,6-4.1,10.5-6.3c5.4-2.6,12.9-5.5,22.4-7c0.5-0.1,1-0.1,1.5-0.2c0.5-0.1,1-0.1,1.5-0.2c0.7-0.1,1.3-0.2,2-0.2
			v0c0.5-0.1,1-0.1,1.5-0.1c0.5,0,1-0.1,1.5-0.1c1.1-0.1,2.2-0.1,3.3-0.2c1.6,0,3.2-0.1,4.9,0L276.3,205.4z"/>
	</g>
	<g>
		<path class="st25" d="M272.8,172.8c-2.6,0-5.4,0.1-8.3,0.7c-0.5,0.1-1,0.2-1.5,0.3c-0.5,0.1-1,0.2-1.4,0.3
			c-0.6,0.2-1.3,0.3-1.9,0.5c-0.5,0.2-1,0.3-1.4,0.5c-0.5,0.2-1,0.3-1.4,0.5c-9.7,3.6-20.3,11.3-30.4,26.2l-0.1-3.3
			c10-14.1,20.5-21.4,30.1-24.9c0.5-0.2,1-0.3,1.4-0.5c0.5-0.2,1-0.3,1.4-0.5c0.7-0.2,1.3-0.4,1.9-0.5c0.5-0.1,1-0.2,1.4-0.3
			c0.5-0.1,1-0.2,1.5-0.3c1.9-0.3,3.8-0.6,5.6-0.6L272.8,172.8z"/>
	</g>
</g>
<linearGradient id="SVGID_00000016784328867979008820000001045508217061986725_" gradientUnits="userSpaceOnUse" x1="217.161" y1="234.4108" x2="348.901" y2="235.9308" gradientTransform="matrix(1 0 0 -1 0 502)">
	<stop  offset="0.2" style="stop-color:#162944"/>
	<stop  offset="0.54" style="stop-color:#202F57"/>
	<stop  offset="0.82" style="stop-color:#2B366B"/>
</linearGradient>
<path style="fill:url(#SVGID_00000016784328867979008820000001045508217061986725_);" d="M263.5,249.2c-15.9-4.5-34,2.4-36.2,4.1
	c-2.1,1.7-4,5.6-3.3,8.4c0.6,2.7,0.9,9.1,0.9,9.1s0.6,2.3,1.6,3l2-2.2c0.8-1.3,3.6-2.7,13.2-0.4c15.3,3.7,27.6,7.1,28.7,8.5
	s-2.3,4.6-1.8,5.5c0.5,0.9,4.8,2.9,10.1-1.7s8.8-16.4,8.9-21C287.7,257.9,279.4,253.7,263.5,249.2L263.5,249.2z"/>
<g class="st24">
	<path class="st25" d="M266.9,272.1c-2.1-0.8-4.2-1.5-6.3-2.2c-0.3,1.5-0.6,2.8-0.9,3.4c-1,0.5-3.1,0.8-5.3,1
		c4.6,1.2,8.5,2.3,11.3,3.2c0.6-0.9,1.3-2.4,1.9-5.3C267.4,272.3,267.2,272.2,266.9,272.1z"/>
	<path class="st25" d="M268.6,265.3c0.1-0.9,0.2-1.8,0.2-2.7c0.3-3.3,0.5-8,0.4-11.6c-1.8-0.6-3.7-1.2-5.8-1.7
		c-0.5-0.1-1.1-0.3-1.6-0.4c0.3,2.2,0.1,8.4-0.4,14.1C263.9,263.6,266.2,264.4,268.6,265.3L268.6,265.3z"/>
	<path class="st25" d="M268.6,265.3c-0.3,3-0.7,5.3-1,7.1c8.5,3.4,13.1,6.2,13.5,8.4c0,0,0,0.1,0,0.1c1.5-2,2.7-4.6,3.7-7.1
		c-2.6-2.3-7.1-4.9-15.2-8.1C269.3,265.5,269,265.4,268.6,265.3L268.6,265.3z"/>
	<path class="st25" d="M231.9,267.3c8.8-1.4,18.6-0.4,28.8,2.7c0.3-2,0.6-4.5,0.9-7.1c-10.8-3.1-21.4-4.1-30.9-2.6
		c-2.2,0.3-4.4,1.1-6.4,2.1c0.5,3,0.8,8.3,0.8,8.3s0.1,0.3,0.2,0.6c-0.1-0.4-0.1-0.8,0-1C225.8,269.6,228.7,267.8,231.9,267.3
		L231.9,267.3z"/>
	<path class="st25" d="M268.6,265.3c-2.4-0.9-4.8-1.7-7.2-2.4c-0.2,2.6-0.5,5.1-0.9,7.1c2.1,0.6,4.2,1.3,6.3,2.2
		c0.2,0.1,0.5,0.2,0.7,0.3C268,270.6,268.3,268.3,268.6,265.3L268.6,265.3z"/>
</g>
<g class="st24">
	<path class="st25" d="M262,269.2c-0.4,2.4-0.8,4.4-1.3,5.1c-0.7,0.4-1.9,0.7-3.3,1c2.7,0.7,5.1,1.4,7.1,2c0.6-0.8,1.4-2.4,2.2-6.5
		C265.1,270.2,263.6,269.7,262,269.2z"/>
	<path class="st25" d="M267.3,266.1c0.1-1.1,0.2-2.3,0.4-3.6c0.3-4,0.5-8.6,0.4-11.9c-1.5-0.4-3-0.9-4.6-1.4c-0.1,0-0.2-0.1-0.3-0.1
		c0.2,2.9,0,9.5-0.6,15.3C264.2,264.9,265.7,265.5,267.3,266.1L267.3,266.1z"/>
	<path class="st25" d="M267.3,266.1c-0.2,1.9-0.4,3.4-0.7,4.7c0.2,0.1,0.5,0.2,0.7,0.2c11.1,4.3,13.8,7,14.6,8.5
		c0.9-1.4,1.7-3,2.4-4.7c-2.3-2.2-6.7-4.9-15.2-8.2C268.6,266.5,267.9,266.3,267.3,266.1L267.3,266.1z"/>
	<path class="st25" d="M231.7,266.1c9.2-1.4,19.6-0.4,30.4,3.1c0.2-1.4,0.4-3,0.6-4.7c-11.2-3.4-22-4.5-31.8-3
		c-2.2,0.3-4.5,1.2-6.4,2.2c0.2,1.8,0.4,3.9,0.5,5.3C226.2,268,228.9,266.5,231.7,266.1L231.7,266.1z"/>
	<path class="st25" d="M267.3,266.1c-1.6-0.6-3.2-1.1-4.7-1.6c-0.2,1.7-0.4,3.3-0.6,4.7c1.5,0.5,3.1,1,4.7,1.6
		C266.9,269.5,267.1,267.9,267.3,266.1L267.3,266.1z"/>
</g>
<g class="st24">
	<path class="st25" d="M266,266.8c0.7-5.8,0.9-12.7,0.8-16.6c-0.8-0.2-1.6-0.5-2.4-0.7c0.2,3.4-0.1,10.6-0.8,16.5
		C264.4,266.2,265.2,266.5,266,266.8L266,266.8z"/>
	<path class="st25" d="M263.3,268.4c-0.5,3.5-1.1,6.2-1.8,6.8c-0.4,0.3-1.1,0.6-1.8,0.8c1.2,0.3,2.3,0.7,3.4,1
		c1.1-1,1.9-3.9,2.5-7.7C264.9,268.9,264.1,268.6,263.3,268.4L263.3,268.4z"/>
	<path class="st25" d="M266,266.8c-0.1,0.8-0.2,1.6-0.3,2.4c0.7,0.3,1.4,0.5,2.1,0.8c10,3.9,13.5,6.6,14.8,8.4
		c0.4-0.8,0.8-1.5,1.2-2.3c-2-2.1-6.2-4.8-15.1-8.2C267.8,267.5,266.9,267.1,266,266.8z"/>
	<path class="st25" d="M263.3,268.4c0.1-0.8,0.2-1.6,0.3-2.4c-11.5-3.7-22.6-4.9-32.6-3.3c-2.3,0.4-4.6,1.3-6.5,2.3
		c0.1,0.9,0.2,1.8,0.2,2.7c1.7-1.1,4.1-2.3,6.7-2.7C241.1,263.4,252.1,264.6,263.3,268.4L263.3,268.4z"/>
	<path class="st25" d="M266,266.8c-0.8-0.3-1.6-0.6-2.4-0.8c-0.1,0.8-0.2,1.6-0.3,2.4c0.8,0.3,1.6,0.6,2.4,0.9
		C265.8,268.4,265.9,267.6,266,266.8z"/>
</g>
<linearGradient id="SVGID_00000150810102921723220280000014625523893327076256_" gradientUnits="userSpaceOnUse" x1="216.0808" y1="279.0747" x2="220.4308" y2="355.4147" gradientTransform="matrix(1 0 0 -1 0 502)">
	<stop  offset="0.1" style="stop-color:#0973A3"/>
	<stop  offset="0.18" style="stop-color:#167DA7"/>
	<stop  offset="0.3" style="stop-color:#2589AD"/>
	<stop  offset="0.4" style="stop-color:#2B8DAF"/>
	<stop  offset="0.55" style="stop-color:#1D82AA"/>
	<stop  offset="0.77" style="stop-color:#0E76A4"/>
	<stop  offset="0.96" style="stop-color:#0973A3"/>
</linearGradient>
<path style="fill:url(#SVGID_00000150810102921723220280000014625523893327076256_);" d="M228.5,156.2c0,0-1.8,12.1-5.6,35.8
	c0.2,5.2-0.2,21.6,0,28c-0.7,4.1-10.8,3.2-12.1,1.4c-0.8-4.1-1.4-8.4-1.7-12.4c-1.1-17,2.4-51.1,4.1-55.7c1.3-1.4,3.1-1,5.2-0.7
	c2.1,0.4,9.7,1.8,9.7,1.8S229.1,155.4,228.5,156.2L228.5,156.2z"/>
<linearGradient id="SVGID_00000099656335610060506180000007962992406847932843_" gradientUnits="userSpaceOnUse" x1="155.5991" y1="271.2057" x2="162.3641" y2="290.5097" gradientTransform="matrix(1 0 0 -1 0 502)">
	<stop  offset="0" style="stop-color:#FFE988"/>
	<stop  offset="0.25" style="stop-color:#BA801E"/>
	<stop  offset="0.5" style="stop-color:#FBEC83"/>
	<stop  offset="0.75" style="stop-color:#BA801F"/>
	<stop  offset="1" style="stop-color:#FFE97F"/>
</linearGradient>
<path style="fill:url(#SVGID_00000099656335610060506180000007962992406847932843_);" d="M160,223.6c1.6-0.2,2.7-2.1,2.4-4.2
	c-0.3-2.1-1.9-3.6-3.5-3.4c-1.6,0.2-2.7,2.1-2.4,4.2C156.8,222.3,158.4,223.8,160,223.6z"/>
<linearGradient id="SVGID_00000148661160467334155390000017054989891000237721_" gradientUnits="userSpaceOnUse" x1="213.8204" y1="274.5603" x2="218.8664" y2="295.3663" gradientTransform="matrix(1 0 0 -1 0 502)">
	<stop  offset="0" style="stop-color:#FFE988"/>
	<stop  offset="0.25" style="stop-color:#BA801E"/>
	<stop  offset="0.5" style="stop-color:#FBEC83"/>
	<stop  offset="0.75" style="stop-color:#BA801F"/>
	<stop  offset="1" style="stop-color:#FFE97F"/>
</linearGradient>
<path style="fill:url(#SVGID_00000148661160467334155390000017054989891000237721_);" d="M217.2,219.6c2.1-0.3,3.5-2.2,3.2-4.3
	s-2.3-3.5-4.3-3.2s-3.5,2.3-3.2,4.3S215.1,219.9,217.2,219.6z"/>
<path class="st63" d="M220.2,114.8c-1.4,2.7-3.1,4.5-4.8,5.6c-1.8-3.8-3-7.8-3.9-11.9l-0.1-0.7c-0.7-3.4-1.9-6.7-3.4-9.8
	c1.4-0.9,3.2-1.5,5.7-1C220.2,98,223.9,107.6,220.2,114.8L220.2,114.8z"/>
<linearGradient id="SVGID_00000158007647228718088150000009488292521389332375_" gradientUnits="userSpaceOnUse" x1="210.282" y1="392.8244" x2="228.656" y2="396.5594" gradientTransform="matrix(1 0 0 -1 0 502)">
	<stop  offset="0" style="stop-color:#E7BC91"/>
	<stop  offset="0.4" style="stop-color:#F3D5B5"/>
	<stop  offset="0.66" style="stop-color:#F5DCB4"/>
	<stop  offset="1" style="stop-color:#F5DCB4"/>
</linearGradient>
<path style="fill:url(#SVGID_00000158007647228718088150000009488292521389332375_);" d="M220.2,114.8c-1.4,2.7-3.1,4.5-4.8,5.6
	c-1.8-3.8-3-7.8-3.9-11.9l-0.1-0.7c-0.7-3.4-1.9-6.7-3.4-9.8c1.4-0.9,3.2-1.5,5.7-1C220.2,98,223.9,107.6,220.2,114.8L220.2,114.8z"
	/>
<path class="st63" d="M126.1,114.6c-0.2,3.5,0,6.9,0.7,10.3l0.1,0.7c0.9,4.1,1.2,8.3,1.1,12.5c-2-0.3-4.3-1.3-6.6-3.2
	c-6.2-5.2-6.6-15.5-1-19.1C122.5,114.5,124.5,114.3,126.1,114.6C126.1,114.5,126.1,114.6,126.1,114.6L126.1,114.6z"/>
<linearGradient id="SVGID_00000142858242249205170190000017914018354284946829_" gradientUnits="userSpaceOnUse" x1="127.145" y1="375.9217" x2="104.339" y2="371.4997" gradientTransform="matrix(1 0 0 -1 0 502)">
	<stop  offset="0" style="stop-color:#E7BC91"/>
	<stop  offset="0.4" style="stop-color:#F3D5B5"/>
	<stop  offset="0.66" style="stop-color:#F5DCB4"/>
	<stop  offset="1" style="stop-color:#F5DCB4"/>
</linearGradient>
<path style="fill:url(#SVGID_00000142858242249205170190000017914018354284946829_);" d="M126.1,114.6c-0.2,3.5,0,6.9,0.7,10.3
	l0.1,0.7c0.9,4.1,1.2,8.3,1.1,12.5c-2-0.3-4.3-1.3-6.6-3.2c-6.2-5.2-6.6-15.5-1-19.1C122.5,114.5,124.5,114.3,126.1,114.6
	C126.1,114.5,126.1,114.6,126.1,114.6L126.1,114.6z"/>
<path class="st63" d="M202.3,123.2c-1.2,3.2-1,6.7,0.7,9.6c1.3,2.2,2.6,4.7,3,6.7c3,14.6-8.5,29.2-25.5,32.7
	c-17.1,3.5-33.3-5.5-36.3-20.1c-0.4-2-0.2-4.8,0.1-7.4c0.4-3.4-0.7-6.7-3.1-9.2c-2.3-2.4-3.9-5.3-4.5-8.6c-2-9.7,4.7-19.2,14.8-21.3
	c3.3-0.7,6.7-0.5,9.9,0.5c3.8,1.2,7.9,0.4,10.8-2.2c2.5-2.2,5.6-3.7,8.9-4.4c10.2-2.1,20,4.1,22,13.8c0.5,2.4,0.5,4.9-0.1,7.3
	C202.8,121.6,202.6,122.4,202.3,123.2L202.3,123.2z"/>
<linearGradient id="SVGID_00000130629731364660182310000003636268194299113088_" gradientUnits="userSpaceOnUse" x1="167.1759" y1="395.7737" x2="179.9039" y2="330.0416" gradientTransform="matrix(1 0 0 -1 0 502)">
	<stop  offset="0" style="stop-color:#E7BC91"/>
	<stop  offset="0.4" style="stop-color:#F3D5B5"/>
	<stop  offset="0.66" style="stop-color:#F5DCB4"/>
	<stop  offset="0.7" style="stop-color:#F3DAB2"/>
	<stop  offset="1" style="stop-color:#EFD3AB"/>
</linearGradient>
<path style="fill:url(#SVGID_00000130629731364660182310000003636268194299113088_);" d="M202.3,123.2c-1.2,3.2-1,6.7,0.7,9.6
	c1.3,2.2,2.6,4.7,3,6.7c3,14.6-8.5,29.2-25.5,32.7c-17.1,3.5-33.3-5.5-36.3-20.1c-0.4-2-0.2-4.8,0.1-7.4c0.4-3.4-0.7-6.7-3.1-9.2
	c-2.3-2.4-3.9-5.3-4.5-8.6c-2-9.7,4.7-19.2,14.8-21.3c3.3-0.7,6.7-0.5,9.9,0.5c3.8,1.2,7.9,0.4,10.8-2.2c2.5-2.2,5.6-3.7,8.9-4.4
	c10.2-2.1,20,4.1,22,13.8c0.5,2.4,0.5,4.9-0.1,7.3C202.8,121.6,202.6,122.4,202.3,123.2L202.3,123.2z"/>
<radialGradient id="SVGID_00000112634943812080705470000011597358006513704338_" cx="101.1244" cy="530.6752" r="1" gradientTransform="matrix(22.0393 -4.4799 -4.4799 -22.0393 326.2986 12309.4043)" gradientUnits="userSpaceOnUse">
	<stop  offset="0.49" style="stop-color:#3A2E2E"/>
	<stop  offset="0.81" style="stop-color:#4C3B3B"/>
	<stop  offset="1" style="stop-color:#4E3F3F"/>
</radialGradient>
<path style="fill:url(#SVGID_00000112634943812080705470000011597358006513704338_);" d="M160,152.3c-1,0.2-1.6,1.1-1.4,2.1
	c0,0.1,0,0.2,0.1,0.2c2.7,7.6,11.3,12.1,20.3,10.3c9-1.8,15.2-9.4,14.7-17.4c-0.1-1-0.9-1.8-1.9-1.7c-0.1,0-0.2,0-0.2,0L160,152.3
	L160,152.3z"/>
<radialGradient id="SVGID_00000132076898338304126990000010676586780427312311_" cx="113.7741" cy="532.1881" r="1" gradientTransform="matrix(-13.8464 2.6088 1.3827 7.3386 1017.2079 -4045.0303)" gradientUnits="userSpaceOnUse">
	<stop  offset="0" style="stop-color:#E6646E"/>
	<stop  offset="0.45" style="stop-color:#DD4E6D"/>
	<stop  offset="1" style="stop-color:#E6646E"/>
</radialGradient>
<path style="fill:url(#SVGID_00000132076898338304126990000010676586780427312311_);" d="M168.2,164.1c7,2.6,14.9,1,20.3-4.1
	c-2.2-4.2-6-2.3-10.9-1.3C172.9,159.6,168.6,159.5,168.2,164.1L168.2,164.1z"/>
<linearGradient id="SVGID_00000070101915665102716250000005281679213018306495_" gradientUnits="userSpaceOnUse" x1="117.1071" y1="386.775" x2="230.3751" y2="372.777" gradientTransform="matrix(1 0 0 -1 0 502)">
	<stop  offset="0" style="stop-color:#A16552"/>
	<stop  offset="0.2" style="stop-color:#935848"/>
	<stop  offset="0.5" style="stop-color:#935848"/>
	<stop  offset="0.6" style="stop-color:#9B604E"/>
	<stop  offset="0.73" style="stop-color:#A16552"/>
	<stop  offset="1" style="stop-color:#966444"/>
</linearGradient>
<path style="fill:url(#SVGID_00000070101915665102716250000005281679213018306495_);" d="M215.1,93.2c-3.9-0.7-6.7,0.7-8.5,2.2
	c-0.8-1.4-1.7-2.7-2.6-4c-0.7-0.9-1.4-1.8-2.1-2.7c-7.7-9.1-18.8-15.7-30.3-17.1l-1.4-5.8l-6.1,5.6l-0.9,0.1c-0.5,0.1-1,0.1-1.6,0.2
	l-1.9-4.2l-0.6-1.2c-0.3,0.1-0.7,0.1-1,0.2c-6.4,1.8-8.4,8.4-8.7,9.5c-10.1,5.8-17.7,16.2-21.2,27.6c-0.4,1.1-0.7,2.2-0.9,3.4
	c-0.4,1.5-0.6,3.1-0.8,4.7l-0.3-0.1c-2.2-0.7-5.2-0.7-8.4,1.3c-7.1,4.5-6.6,17.6,1.2,24.2c3.2,2.7,6.2,3.9,9,4.2c0,0.2,0,0.3,0,0.4
	c0,2.2,0.2,4.4,0.6,6.6c3.1,15.1,16.8,25.8,33.9,28.2c4,0.6,8.1,0.7,12.1,0.4c2.1-0.2,4.2-0.5,6.2-0.9l0.5-0.1
	c25-5.1,41.9-25.7,37.8-46c-0.4-2.2-1.1-4.3-2-6.3c-0.1-0.1-0.1-0.3-0.2-0.4c2.4-1.3,4.7-3.6,6.6-7.3
	C228.1,106.8,223.4,94.6,215.1,93.2L215.1,93.2z M126.1,114.6c-0.2,3.5,0,7,0.7,10.4l0.1,0.7c0.9,4.1,1.2,8.3,1.1,12.5
	c-2-0.3-4.3-1.3-6.6-3.2c-6.2-5.2-6.6-15.5-1-19.1C122.6,114.5,124.5,114.3,126.1,114.6C126.1,114.6,126.1,114.6,126.1,114.6
	L126.1,114.6z M203.1,120.9c-0.2,0.8-0.4,1.6-0.7,2.3c-1.2,3.2-1,6.7,0.7,9.6c1.3,2.2,2.6,4.7,3,6.7c3,14.6-8.5,29.2-25.5,32.7
	c-17.1,3.5-33.3-5.5-36.3-20.1c-0.4-2-0.2-4.8,0.1-7.4c0.4-3.4-0.7-6.7-3.1-9.1c-2.3-2.4-3.9-5.3-4.5-8.6c-2-9.7,4.7-19.2,14.9-21.3
	c3.3-0.7,6.7-0.5,9.9,0.5c3.8,1.2,7.9,0.4,10.8-2.2c2.5-2.2,5.6-3.7,8.9-4.4c10.2-2.1,20,4.1,22,13.8
	C203.6,115.9,203.6,118.4,203.1,120.9L203.1,120.9z M220.3,114.8c-1.4,2.7-3.1,4.5-4.8,5.6c-1.8-3.8-3.1-7.8-3.9-11.9l-0.1-0.7
	c-0.7-3.4-1.9-6.7-3.4-9.8c1.4-0.9,3.2-1.5,5.7-1C220.2,98,223.9,107.6,220.3,114.8L220.3,114.8z"/>
<linearGradient id="SVGID_00000029016596449592091050000016507049115811837107_" gradientUnits="userSpaceOnUse" x1="171.919" y1="362.8949" x2="165.564" y2="364.5929" gradientTransform="matrix(1 0 0 -1 0 502)">
	<stop  offset="0.49" style="stop-color:#3A2E2E"/>
	<stop  offset="0.81" style="stop-color:#4C3B3B"/>
	<stop  offset="1" style="stop-color:#4E3F3F"/>
</linearGradient>
<path style="fill:url(#SVGID_00000029016596449592091050000016507049115811837107_);" d="M165.4,137.4L165.4,137.4
	c-0.2,0.9,0.3,1.7,1.1,1.9l3.8,0.9c0.8,0.2,1.6-0.3,1.8-1.1l0-0.1c0.2-0.8-0.3-1.6-1.1-1.8l-3.8-0.9
	C166.4,136.1,165.6,136.6,165.4,137.4z"/>
<linearGradient id="SVGID_00000147930785235278251150000003787377380762447028_" gradientUnits="userSpaceOnUse" x1="175.2587" y1="363.5235" x2="180.6357" y2="367.6475" gradientTransform="matrix(1 0 0 -1 0 502)">
	<stop  offset="0.49" style="stop-color:#3A2E2E"/>
	<stop  offset="0.81" style="stop-color:#4C3B3B"/>
	<stop  offset="1" style="stop-color:#4E3F3F"/>
</linearGradient>
<path style="fill:url(#SVGID_00000147930785235278251150000003787377380762447028_);" d="M178.7,134l-3.2,2.3
	c-0.7,0.5-0.8,1.4-0.3,2.1l0.1,0.1c0.5,0.7,1.4,0.8,2.1,0.3l3.2-2.3c0.7-0.5,0.8-1.4,0.3-2.1l-0.1-0.1
	C180.3,133.7,179.4,133.5,178.7,134z"/>
<linearGradient id="SVGID_00000129892473785466289700000008979183574205564069_" gradientUnits="userSpaceOnUse" x1="151.7276" y1="382.4488" x2="157.4506" y2="370.9078" gradientTransform="matrix(1 0 0 -1 0 502)">
	<stop  offset="0.49" style="stop-color:#3A2E2E"/>
	<stop  offset="0.81" style="stop-color:#4C3B3B"/>
	<stop  offset="1" style="stop-color:#4E3F3F"/>
</linearGradient>
<path style="fill:url(#SVGID_00000129892473785466289700000008979183574205564069_);" d="M155.5,130.5c-2.9,0.6-5.8-1.2-6.3-3.9
	l-0.3-1.7c-0.6-2.8,1.4-5.5,4.3-6.1c2.9-0.6,5.8,1.2,6.3,3.9l0.3,1.7C160.3,127.2,158.4,129.9,155.5,130.5z"/>
<radialGradient id="SVGID_00000077325573625790128520000010593717456728829878_" cx="89.4612" cy="529.8984" r="1" gradientTransform="matrix(6.4971 -1.3207 -1.3207 -6.4971 275.4058 3680.2793)" gradientUnits="userSpaceOnUse">
	<stop  offset="0" style="stop-color:#5D5360"/>
	<stop  offset="1" style="stop-color:#5D5360;stop-opacity:0.4"/>
</radialGradient>
<path style="fill:url(#SVGID_00000077325573625790128520000010593717456728829878_);" d="M153.1,118.8l1.2,5.9
	c0.4,1.4,1.8,2.3,3.3,2c1.4-0.3,2.2-1.7,2-3l-0.2-0.8C158.8,120,156,118.2,153.1,118.8L153.1,118.8z"/>
<path class="st53" d="M154.1,123.8c1-0.2,1.6-1.1,1.4-2c-0.2-0.9-1.1-1.5-2.1-1.3c-1,0.2-1.6,1.1-1.4,2
	C152.2,123.4,153.1,124,154.1,123.8z"/>
<linearGradient id="SVGID_00000121248581297180536730000009288234376560448909_" gradientUnits="userSpaceOnUse" x1="117.7362" y1="361.8398" x2="211.2219" y2="397.1184" gradientTransform="matrix(1 0 0 -1 0 502)">
	<stop  offset="0" style="stop-color:#4E3F3F"/>
	<stop  offset="0.14" style="stop-color:#4E3F3F;stop-opacity:0.7"/>
	<stop  offset="0.46" style="stop-color:#4E3F3F;stop-opacity:0.4"/>
	<stop  offset="0.73" style="stop-color:#4E3F3F;stop-opacity:0.2"/>
	<stop  offset="0.84" style="stop-color:#4E3F3F;stop-opacity:9.000000e-02"/>
	<stop  offset="1" style="stop-color:#4E3F3F;stop-opacity:0"/>
</linearGradient>
<path style="fill:url(#SVGID_00000121248581297180536730000009288234376560448909_);" d="M176.6,97.4c6.5-2.9,15-9.7,16.1-12.4
	c1.1-3.1-10.8-3.4-10.8-3.4l-31.8,1.1l-1.3,0.9c1-2.3,2.1-4.5,3.2-6.4c0.6-1.1,1.2-2.2,1.9-3.2c2.4-3.9,4.7-6.2,5.9-6.4l-0.6-1.2
	c-0.3,0.1-0.7,0.2-1,0.2c-6.4,1.8-8.4,8.4-8.7,9.5c-10.1,5.8-17.7,16.2-21.2,27.6c-0.3,1.1-0.7,2.2-0.9,3.4
	c-0.4,1.5-0.6,3.1-0.8,4.7l-0.3-0.1c-2.2-0.7-5.2-0.7-8.4,1.3c-7.1,4.5-6.6,17.6,1.2,24.3c3.2,2.7,6.2,3.9,8.9,4.2
	c0,0.2,0,0.3,0,0.5c0,2.2,0.2,4.4,0.6,6.6c3.1,15.1,16.8,25.8,33.9,28.2c4,0.6,8.1,0.7,12.1,0.4c0,0-11.3-3.5-19.5-12.8
	c-7.5-8.5-10.9-24-12.1-39.9c-0.3-6.6-0.4-11.1-0.4-11.1c0-0.7,0.4-1.3,1.1-1.5c17.4-5.9,33.9-9.3,54.4-10.2
	c2.2-0.2,4.4-0.5,6.3-1.5c1.9-1.1,3.4-3.1,3.1-5.3C197.2,96.2,186.9,96.6,176.6,97.4L176.6,97.4z M144.6,102c-0.5,0.1-1,0.3-1.5,0.4
	c0.2-1.1,0.4-2.2,0.6-3.3c0,0,9.4-2.8,14.3-1.4c1.4,0.4,2.7,0.8,4.1,1C156.3,99.5,150.4,100.5,144.6,102L144.6,102z"/>
<linearGradient id="SVGID_00000081632791793715758860000000709491120335736999_" gradientUnits="userSpaceOnUse" x1="183.1007" y1="389.0108" x2="188.8247" y2="377.4698" gradientTransform="matrix(1 0 0 -1 0 502)">
	<stop  offset="0.49" style="stop-color:#3A2E2E"/>
	<stop  offset="0.81" style="stop-color:#4C3B3B"/>
	<stop  offset="1" style="stop-color:#4E3F3F"/>
</linearGradient>
<path style="fill:url(#SVGID_00000081632791793715758860000000709491120335736999_);" d="M186.8,124c-2.9,0.6-5.8-1.2-6.3-3.9
	l-0.3-1.7c-0.6-2.8,1.4-5.5,4.3-6.1c2.9-0.6,5.8,1.2,6.3,3.9l0.3,1.7C191.7,120.6,189.7,123.4,186.8,124z"/>
<radialGradient id="SVGID_00000146481974188245510830000015474201451411320460_" cx="89.4612" cy="529.8984" r="1" gradientTransform="matrix(6.4971 -1.3207 -1.3207 -6.4971 306.7778 3673.7283)" gradientUnits="userSpaceOnUse">
	<stop  offset="0" style="stop-color:#5D5360"/>
	<stop  offset="1" style="stop-color:#5D5360;stop-opacity:0.4"/>
</radialGradient>
<path style="fill:url(#SVGID_00000146481974188245510830000015474201451411320460_);" d="M184.4,112.3l1.2,5.8
	c0.4,1.4,1.8,2.3,3.3,2c1.4-0.3,2.2-1.7,2-3l-0.2-0.8C190.2,113.4,187.4,111.7,184.4,112.3L184.4,112.3z"/>
<path class="st53" d="M185.5,117.3c1-0.2,1.6-1.1,1.4-2c-0.2-0.9-1.1-1.5-2.1-1.3c-1,0.2-1.6,1.1-1.4,2
	C183.6,116.9,184.5,117.5,185.5,117.3z"/>
<linearGradient id="SVGID_00000077325143254509198780000002347403747944239253_" gradientUnits="userSpaceOnUse" x1="120.4262" y1="412.08" x2="207.1332" y2="421.9626" gradientTransform="matrix(1 0 0 -1 0 502)">
	<stop  offset="8.000000e-02" style="stop-color:#88756E"/>
	<stop  offset="0.28" style="stop-color:#927F76"/>
	<stop  offset="0.67" style="stop-color:#A18E81"/>
	<stop  offset="0.98" style="stop-color:#A69485"/>
</linearGradient>
<path style="fill:url(#SVGID_00000077325143254509198780000002347403747944239253_);" d="M180.9,63.3C160,61.9,159,62.7,159,62.8
	c-0.1-0.1-1.3-0.4-20.1,9c-17.1,10.2-15.5,39-14.6,39.5s6.3,0.4,6.3,0.4l35.3-12.1L203,97c0,0,5.1-2,5.7-2.8
	C209.4,93.3,200.4,66,180.9,63.3L180.9,63.3z"/>
<linearGradient id="SVGID_00000085965311609774780030000005749981254498889405_" gradientUnits="userSpaceOnUse" x1="188.7861" y1="419.7352" x2="209.584" y2="422.1012" gradientTransform="matrix(1 0 0 -1 0 502)">
	<stop  offset="8.000000e-02" style="stop-color:#88756E"/>
	<stop  offset="0.28" style="stop-color:#927F76"/>
	<stop  offset="0.67" style="stop-color:#A18E81"/>
	<stop  offset="0.98" style="stop-color:#A69485"/>
</linearGradient>
<path style="fill:url(#SVGID_00000085965311609774780030000005749981254498889405_);" d="M188.9,65.9c6.8,9.7,11.4,24.3,13.2,31.1
	L203,97c0,0,5.1-2,5.7-2.8C209.3,93.4,202.9,73.5,188.9,65.9z"/>
<linearGradient id="SVGID_00000161594391391333534480000002720013422048915638_" gradientUnits="userSpaceOnUse" x1="119.0236" y1="406.7238" x2="288.5446" y2="424.2712" gradientTransform="matrix(1 0 0 -1 0 502)">
	<stop  offset="8.000000e-02" style="stop-color:#88756E"/>
	<stop  offset="0.28" style="stop-color:#927F76"/>
	<stop  offset="0.67" style="stop-color:#A18E81"/>
	<stop  offset="0.98" style="stop-color:#A69485"/>
</linearGradient>
<path style="fill:url(#SVGID_00000161594391391333534480000002720013422048915638_);" d="M124.2,111.2c0.9,0.5,6.3,0.4,6.3,0.4
	l2.3-0.8c-1.3-9.1-0.1-26.6,0.6-34.6C122.1,88.6,123.4,110.8,124.2,111.2L124.2,111.2z"/>
<linearGradient id="SVGID_00000159451612449429756140000009319116244054931857_" gradientUnits="userSpaceOnUse" x1="163.9647" y1="407.7963" x2="170.9177" y2="379.308" gradientTransform="matrix(1 0 0 -1 0 502)">
	<stop  offset="0" style="stop-color:#685A56"/>
	<stop  offset="0.11" style="stop-color:#584C47"/>
	<stop  offset="0.25" style="stop-color:#49403A"/>
	<stop  offset="0.37" style="stop-color:#443C36"/>
</linearGradient>
<path style="fill:url(#SVGID_00000159451612449429756140000009319116244054931857_);" d="M166.1,100.3c0,0-15,4.5-21.8,7.2
	c-6.8,2.7-15,4.8-15.5,4.8c-0.6,0.1-1.3-2.9-1.3-2.9l21.1-12.7l15.8-4.2l16.9-1.8l22.8,2.7c0,0,0.4,2.4,0.4,3.4
	C204.4,97.9,181.6,97.3,166.1,100.3L166.1,100.3z"/>
<linearGradient id="SVGID_00000051357268511058805180000014051027055560258481_" gradientUnits="userSpaceOnUse" x1="160.7022" y1="415.551" x2="168.2292" y2="392.4661" gradientTransform="matrix(1 0 0 -1 0 502)">
	<stop  offset="8.000000e-02" style="stop-color:#A49385"/>
	<stop  offset="0.3" style="stop-color:#AF9B8B"/>
	<stop  offset="0.67" style="stop-color:#BEA594"/>
	<stop  offset="0.98" style="stop-color:#C4A997"/>
</linearGradient>
<path style="fill:url(#SVGID_00000051357268511058805180000014051027055560258481_);" d="M128.7,112.3c0,0-0.3-1.1,2.4-2.8
	c2.7-1.7,21.3-14,32.5-16.3c11.9-3,34.4,0.9,36.6,1.1c2.2,0.2,3.3,2.3,3.3,2.3s0.7,0.8,1.6,0.6c0.9-0.2,1.6-1.4,0.8-3.6
	c-0.8-1.5-1.6-1.9-3.1-2.2c-1.2-0.2-14.7-4.4-29.7-3.3c-6.6,0.5-13,1.8-19.2,4.1c-15,6.7-24.7,14.1-26.4,15.1
	c-2.1,1.2-1.5,4-1.1,4.6C126.6,112.5,128.2,113.6,128.7,112.3L128.7,112.3z"/>
<path class="st6" d="M250,419c0,0-32.1-20.3-48.7-20.4c-16.6-0.1-34.1-12.8-41.5-13.2c0,0-13.5-3.3-18.7-7.2
	c-5.2-3.9-31.8-7.6-40-5.8c-8.2,1.8-10.6,6.8-27.8,11.1c-17.2,4.3-20.9,19.8-1.2,35.7s83.8,22.4,108.9,20S271.9,439,250,419L250,419
	z"/>
<path class="st82" d="M67.3,384.9c3.7-0.3,4.6-1.8,12.7-0.3c8.1,1.5,12,1.7,4.5,6.6c-7.5,4.9-12.9,7.5-15.9,5.2
	C65.5,394.2,57.3,385.6,67.3,384.9L67.3,384.9z"/>
<path class="st7" d="M64.3,392.2c0,0,2.5,2.3,3.3,3c0.8,0.6,1.4,1.3,3.3,1.4c1.9,0.1,5.3-1,6.4-1.5c1-0.6,10.2-6,10.2-6
	s-2.3,2.7-3.7,3.8c-1.4,1.1-6.9,4.3-8.5,4.8c-1.6,0.5-3.3,0.7-5.2,0.4s-2.6-1.3-2.9-2S64.3,392.2,64.3,392.2L64.3,392.2z"/>
<path class="st82" d="M218.2,410.9c0.6-0.8,0.5-1.9,2.9-1.4c2.3,0.4,3.3,0.5,3.5,1.4c0.1,0.9,0.5,2.5-0.9,2.7
	c-1.4,0.1-4.2-0.1-4.8-0.6C218.2,412.5,217.9,411.3,218.2,410.9L218.2,410.9z"/>
<path class="st82" d="M204,414.9c0.8-0.7,2.3-3.3,5.8-2.6c3.5,0.7,4.3,1,4.2,2.3c-0.1,1.2,0.5,3.7-1.2,4.1s-6.1,2.4-7.2,2
	C204.5,420.1,201.4,417.1,204,414.9L204,414.9z"/>
<path class="st7" d="M218.1,411.6c0-0.2,0.6,1,1.1,1.1c0.6,0.2,1.7,0.5,2.7,0.4c1,0,1.6-0.4,2-0.4s0.6-0.1,0.6,0s0.1,0.4-0.1,0.7
	c-0.2,0.3-0.5,0.4-1.1,0.6c-0.6,0.2-1.7-0.1-2.2-0.1c-0.5,0-1.7-0.3-2.4-0.6S218.1,411.9,218.1,411.6L218.1,411.6z"/>
<path class="st7" d="M203.1,417.6c0,0,0.9,0.9,1.5,1.1c0.6,0.2,0.5-0.3,1.6,0s0.4,0.8,1.8,0.7s3.9-0.7,4.4-0.9
	c0.5-0.2,1.4-0.8,1.5-1.5c0.1-0.7,0.1,0.9-0.1,1.4c-0.2,0.5-1.9,0.9-2.3,1.1c-0.5,0.3-3.2,1-3.8,1.3c-0.6,0.3-2.2,0.2-2.8,0
	s-1.7-2.1-1.8-2.5C203.2,417.9,203.1,417.6,203.1,417.6L203.1,417.6z"/>
<path class="st83" d="M174.6,415.2c-13.7-8.8-7.8-14.7-23.7-19c-15.8-4.3-19.3,13.9-40.9,14.3c-20.2,0.4-44.3-1-47.3-1.2
	c2.1,3.2,5.2,6.4,9.3,9.7c20.1,18.6,52,22.7,115.1,23.6c7.5,0.1,15.2,0.1,23.2-0.1C208.5,441,187.7,423.6,174.6,415.2L174.6,415.2z"
	/>
</svg>
