<?xml version="1.0" encoding="UTF-8"?><svg xmlns="http://www.w3.org/2000/svg" xmlns:xlink="http://www.w3.org/1999/xlink" viewBox="0 0 500 500"><defs><style>.cls-1{fill:#959593;}.cls-2{fill:#fff;}.cls-3{fill:#faf4e6;}.cls-4{fill:#e6646e;}.cls-5{fill:#845730;}.cls-6,.cls-7,.cls-8{isolation:isolate;}.cls-9{fill:#5c2fab;}.cls-10{fill:#698e59;}.cls-11,.cls-12{fill:#407035;}.cls-13{fill:#240d4c;}.cls-12{opacity:.4;}.cls-14{fill:#361472;}.cls-15{fill:#ff97b4;}.cls-16{fill:#e6e6e6;}.cls-7{opacity:.35;}.cls-7,.cls-17,.cls-8{fill:#4e3f3f;}.cls-18{fill:#b77834;}.cls-19{fill:#5d5360;}.cls-20{fill:#ffd54f;}.cls-21{fill:#3a1616;}.cls-22{fill:#722108;}.cls-23{fill:#f9ab6d;}.cls-24{fill:#a16552;}.cls-25{fill:#4c1605;}.cls-26{fill:#ccc;}.cls-27{fill:#f5dcb4;}.cls-28{fill:#c7c7c4;}.cls-29{fill:#22b322;}.cls-30{fill:#794c3e;}.cls-31{fill:#7b3fe4;}.cls-32{fill:#353535;opacity:.1;}.cls-33{fill:url(#Naamloos_verloop_9);mix-blend-mode:multiply;opacity:.19;}.cls-34{fill:#1b0a39;}.cls-35{fill:#f2f2f2;}.cls-36{fill:#dddddc;}.cls-8{opacity:.45;}</style><linearGradient id="Naamloos_verloop_9" x1="239.15" y1="459.17" x2="222.01" y2="410.48" gradientTransform="matrix(1, 0, 0, 1, 0, 0)" gradientUnits="userSpaceOnUse"><stop offset="0" stop-color="#575756"/><stop offset="1" stop-color="#3c3c3b"/></linearGradient></defs><g class="cls-6"><g id="Laag_1"><ellipse class="cls-1" cx="250" cy="440.5" rx="160.5" ry="50"/><g><path class="cls-36" d="M332.45,402.27h11.26c-24.2-5.38-54.06-8.73-86.56-9.16l23.21,9.16h52.09Z"/><path class="cls-36" d="M370.11,417.14h-52.08l31.19,12.31h52.2c-2.82-4.36-7.82-8.49-14.66-12.31h-16.64Z"/><path class="cls-36" d="M348.73,430.72h-51.22l31.19,12.31h74.28c.71-1.74,1.09-3.51,1.09-5.31,0-2.38-.65-4.72-1.89-7h-53.45Z"/><path class="cls-36" d="M347.21,472.36c1.23-.29,2.44-.58,3.63-.88h-5.87l2.23,.88Z"/><path class="cls-36" d="M310.55,457.89h-54.94l31.19,12.31h68.92c7.65-2.09,14.55-4.41,20.6-6.91l-13.68-5.4h-52.09Z"/><path class="cls-36" d="M373.07,460.54l5.04,1.99c3.43-1.49,6.56-3.03,9.37-4.64h-21.12l6.72,2.65Z"/><path class="cls-36" d="M221.7,402.27h54.94l-23.31-9.2c-1.11,0-2.22-.01-3.33-.01-31.41,0-60.61,2.73-84.97,7.4l4.58,1.81h52.09Z"/><path class="cls-36" d="M276.12,444.31l31.19,12.31h82.3c3.34-2.07,6.15-4.22,8.38-6.45l-14.84-5.86h-107.03Z"/><path class="cls-36" d="M399.01,449.09c1.42-1.56,2.55-3.16,3.38-4.79h-15.52l12.14,4.79Z"/><path class="cls-36" d="M370.59,415.86h13.77c-9.11-4.69-21.06-8.86-35.18-12.31h-9.78l31.19,12.31Z"/><path class="cls-36" d="M96.17,440.15c.18,.97,.47,1.93,.86,2.88h6.44l-7.3-2.88Z"/><path class="cls-36" d="M141.62,456.61h51.22l-16.73-6.6-14.46-5.71H97.61c2.21,4.34,6.58,8.47,12.77,12.31h31.23Z"/><path class="cls-36" d="M152.77,462.48l-11.64-4.59h-28.61c8.09,4.62,18.88,8.79,31.77,12.31h28.03l-19.55-7.71Z"/><path class="cls-36" d="M162.54,400.96c-2.12,.42-4.21,.86-6.25,1.32h9.59l-3.34-1.32Z"/><path class="cls-36" d="M230.5,471.47h-81.35c27.02,6.79,62.28,10.9,100.85,10.9,2.67,0,5.33-.02,7.96-.06l-5.31-2.1-22.15-8.74Z"/><path class="cls-36" d="M127.71,429.44h107.02l-9.56-3.77-21.63-8.54H113.25c-2.37,1.32-4.52,2.67-6.43,4.07l5.29,2.09,15.6,6.15Z"/><path class="cls-36" d="M158.41,443.03h55.8l-31.19-12.31H97.82c-1.24,2.28-1.89,4.62-1.89,7,0,.3,.02,.59,.04,.88l11.22,4.43h51.22Z"/><path class="cls-36" d="M204.03,415.86h52.09l-24.76-9.77-6.43-2.54h-74.11c-6.86,1.67-13.2,3.52-18.96,5.51l17.23,6.8h54.94Z"/><path class="cls-36" d="M108.39,423.29l-2.85-1.12c-3,2.34-5.34,4.77-6.96,7.28h25.4l-15.59-6.15Z"/><path class="cls-36" d="M133.77,411.28l-3.88-1.53c-5.31,1.91-10.08,3.95-14.25,6.1h29.72l-11.59-4.57Z"/><polygon class="cls-36" points="251.88 457.89 199.8 457.89 196.08 457.89 144.85 457.89 159 463.47 176.04 470.2 227.27 470.2 230.99 470.2 283.07 470.2 251.88 457.89"/><polygon class="cls-36" points="293.78 430.72 241.69 430.72 237.97 430.72 237.97 430.72 186.75 430.72 217.94 443.03 272.88 443.03 324.97 443.03 293.78 430.72"/><path class="cls-36" d="M290.03,471.47h-55.8l18.14,7.16,9.16,3.61c31.32-.67,60.03-4.05,83.35-9.34l-3.62-1.43h-51.22Z"/><polygon class="cls-36" points="366.87 415.86 335.68 403.55 283.6 403.55 279.87 403.55 228.65 403.55 232.66 405.13 259.84 415.86 366.87 415.86"/><polygon class="cls-36" points="263.08 417.14 259.36 417.14 207.27 417.14 238.46 429.44 290.55 429.44 294.27 429.44 345.49 429.44 314.3 417.14 263.08 417.14"/><polygon class="cls-36" points="252.36 456.61 303.59 456.61 282.52 448.3 272.4 444.3 221.17 444.3 217.45 444.3 165.37 444.3 189.75 453.92 196.56 456.61 248.65 456.61 252.36 456.61"/><polygon class="cls-28" points="169.61 402.27 165.03 400.47 165.03 400.47 169.61 402.27 169.61 402.27"/><path class="cls-28" d="M280.36,402.27h0l-23.21-9.16c-1.27-.02-2.54-.03-3.82-.04l23.31,9.2h3.72Z"/><path class="cls-28" d="M169.61,402.27l-4.58-1.81c-.83,.16-1.66,.32-2.49,.49l3.34,1.32h3.72Z"/><rect class="cls-28" x="351.28" y="392.94" width="0" height="33.53" transform="translate(-158.77 586.08) rotate(-68.47)"/><path class="cls-28" d="M370.59,415.86h0l-31.19-12.31h9.78c-1.79-.44-3.62-.86-5.48-1.28h-7.54l34.43,13.59Z"/><polygon class="cls-28" points="231.36 406.09 256.12 415.86 256.12 415.86 231.36 406.09"/><polygon class="cls-28" points="314.79 415.86 370.59 415.86 336.17 402.27 332.45 402.27 280.36 402.27 280.36 402.27 276.64 402.27 225.42 402.27 228.65 403.55 279.87 403.55 283.6 403.55 335.68 403.55 335.68 403.55 366.87 415.86 366.87 415.86 259.84 415.86 232.66 405.13 259.84 415.86 311.07 415.86 314.79 415.86"/><polygon class="cls-28" points="145.36 415.86 145.37 415.86 133.77 411.28 145.36 415.86"/><polygon class="cls-28" points="149.09 415.86 131.86 409.06 131.86 409.06 149.08 415.86 149.09 415.86"/><path class="cls-28" d="M169.12,403.55h55.81l6.43,2.54,24.76,9.77h3.72l-27.18-10.73-4.01-1.58-3.23-1.28h-69.12c-1.86,.41-3.68,.84-5.48,1.28h18.3Z"/><path class="cls-28" d="M145.37,415.86h3.72l-17.23-6.8c-.66,.23-1.32,.46-1.96,.69l3.88,1.53,11.59,4.57Z"/><rect class="cls-28" x="329.89" y="406.53" width="0" height="33.53" transform="translate(-184.94 574.77) rotate(-68.46)"/><path class="cls-28" d="M314.79,415.86l34.42,13.58h0l-31.19-12.31h68.72c-.77-.43-1.57-.85-2.38-1.28h-69.58Z"/><polygon class="cls-28" points="207.27 417.14 259.36 417.14 263.08 417.14 314.3 417.14 314.3 417.14 345.49 429.44 349.21 429.44 314.79 415.86 311.07 415.86 259.84 415.86 204.04 415.86 238.46 429.44 238.46 429.44 207.27 417.14"/><polygon class="cls-28" points="225.18 425.67 234.73 429.44 234.74 429.44 225.18 425.67"/><polygon class="cls-28" points="123.99 429.44 123.99 429.44 108.39 423.29 123.99 429.44"/><polygon class="cls-28" points="127.71 429.44 127.71 429.44 112.11 423.29 127.71 429.44"/><path class="cls-28" d="M152.32,417.14h51.22l21.63,8.54,9.56,3.77h3.72l-34.42-13.58H115.64c-.82,.42-1.62,.85-2.39,1.28h39.07Z"/><path class="cls-28" d="M123.99,429.44h3.72l-15.59-6.15-5.29-2.09c-.44,.32-.86,.64-1.28,.96l2.85,1.12,15.6,6.15Z"/><polygon class="cls-28" points="328.7 443.03 379.92 443.03 383.64 443.03 402.97 443.03 402.97 443.03 328.69 443.03 328.7 443.03"/><path class="cls-28" d="M349.21,429.44h-54.94l3.24,1.28h104.67c-.23-.43-.49-.85-.76-1.28h-52.2Z"/><polygon class="cls-28" points="186.75 430.72 237.97 430.72 237.97 430.72 241.69 430.72 293.78 430.72 324.97 443.03 272.88 443.03 272.89 443.03 328.7 443.03 328.69 443.03 297.51 430.72 294.27 429.44 290.55 429.44 238.46 429.44 238.46 429.44 234.74 429.44 234.73 429.44 183.51 429.44 217.94 443.03 217.94 443.03 186.75 430.72"/><path class="cls-28" d="M130.95,430.72h52.08l31.19,12.31h3.72l-34.43-13.59H98.59c-.27,.42-.53,.85-.76,1.28h33.12Z"/><path class="cls-28" d="M107.19,443.03h0l-11.22-4.43c.03,.52,.1,1.03,.19,1.54l7.3,2.88h3.72Z"/><polygon class="cls-28" points="383.15 444.31 397.99 450.16 397.99 450.16 383.15 444.31 383.15 444.31"/><path class="cls-28" d="M399.01,449.09h0l-12.14-4.79h15.52c.22-.42,.41-.85,.58-1.28h-19.33l15.37,6.06Z"/><polygon class="cls-28" points="272.4 444.3 282.52 448.3 272.4 444.3 272.4 444.3"/><path class="cls-28" d="M383.64,443.03h-110.75l34.42,13.58h0l-31.19-12.31h107.03l14.84,5.86c.35-.35,.69-.71,1.02-1.07l-15.37-6.06Z"/><polygon class="cls-28" points="161.65 444.3 176.11 450.01 161.65 444.3 161.65 444.3"/><polygon class="cls-28" points="217.45 444.3 221.17 444.3 272.4 444.3 272.4 444.3 282.52 448.3 303.59 456.61 307.31 456.61 272.89 443.03 272.88 443.03 217.94 443.03 217.94 443.03 214.22 443.03 162.14 443.03 189.75 453.92 165.37 444.3 217.45 444.3"/><path class="cls-28" d="M110.43,444.3h51.22l14.46,5.71,16.73,6.6h3.72l-6.81-2.69-27.61-10.9H97.03c.17,.43,.37,.85,.58,1.28h12.82Z"/><path class="cls-28" d="M373.07,460.54l-6.72-2.65h21.12c.74-.42,1.45-.85,2.14-1.28h-26.5l9.95,3.93Z"/><path class="cls-28" d="M363.12,456.61h-110.76l34.43,13.59h0l-31.19-12.31h107.03l13.68,5.4c.61-.25,1.21-.5,1.8-.76l-5.04-1.99-9.95-3.93Z"/><polygon class="cls-28" points="141.13 457.89 152.77 462.48 141.13 457.89 141.13 457.89"/><polygon class="cls-28" points="196.08 457.89 199.8 457.89 251.88 457.89 283.07 470.2 286.79 470.2 252.36 456.61 248.65 456.61 196.56 456.61 196.56 456.61 192.84 456.61 141.62 456.61 159 463.47 144.85 457.89 196.08 457.89"/><path class="cls-28" d="M141.13,457.89l11.64,4.59,19.55,7.71h3.72l-17.05-6.73-17.38-6.86h-31.23c.69,.43,1.4,.85,2.14,1.28h28.61Z"/><path class="cls-28" d="M347.21,472.36h0l-2.23-.88h5.87c1.65-.42,3.27-.84,4.87-1.28h-13.97l5.47,2.16Z"/><polygon class="cls-28" points="230.5 471.47 230.5 471.47 252.65 480.22 230.5 471.47"/><path class="cls-28" d="M341.74,470.2h-110.75l21.37,8.43-18.14-7.16h107.03l3.62,1.43c.79-.18,1.57-.36,2.34-.54l-5.47-2.16Z"/><path class="cls-28" d="M261.52,482.25l-9.16-3.61-21.37-8.43h-86.7c1.59,.43,3.21,.86,4.86,1.28h81.35l22.15,8.74,5.31,2.1c1.19-.02,2.37-.04,3.56-.07Z"/></g><g><g><path class="cls-32" d="M358.24,430.74c0,1.34-5.87,2.43-13.11,2.43s-13.11-1.09-13.11-2.43,5.87-2.43,13.11-2.43,13.11,1.09,13.11,2.43Z"/><path class="cls-32" d="M354.53,430.24c0,1.07-4.21,1.93-9.4,1.93s-9.4-.87-9.4-1.93,4.21-1.93,9.4-1.93,9.4,.87,9.4,1.93Z"/><path class="cls-10" d="M339,429.65c.26-2.73-2.42-9.56-13.11-9.79,0,0,11.91-2.58,15.45,4.22,0,0-1.62-11-17.02-11.87,0,0,16.44-1.06,19.42,9.59,.78,2.8,1.01,4.12,1.01,4.12,0,0-2.15-15.73,1.41-16.32,0,0-.85,10.57,1.77,12.21,0,0-.33-7.46,6.29-7.88,0,0-5.23,5.46-4.12,11.58,0,0-.47-4.08,6.55-6.21,0,0-6.08,5.1-5.83,10.96,0,0-12.02,1.63-11.81-.61Z"/><path class="cls-11" d="M350.81,430.26c-2.51,.35-5.04,.63-7.59,.68-.64,0-1.28,0-1.91-.05-.64-.06-1.28-.13-1.9-.43-.15-.08-.3-.19-.42-.34-.05-.09-.1-.18-.12-.27,0-.11-.02-.2-.02-.27v-.48l-.04-.45c-.08-.61-.25-1.21-.5-1.78-.24-.57-.53-1.13-.89-1.63-.34-.52-.76-.99-1.19-1.43-.23-.21-.45-.43-.69-.63l-.74-.56c-.25-.18-.53-.33-.79-.49-.26-.17-.54-.31-.83-.44-.28-.13-.56-.27-.85-.39l-.89-.31c-.58-.23-1.21-.32-1.81-.48-.61-.11-1.24-.19-1.86-.28l-1.88-.11-1.95-.11,1.9-.38c1.42-.28,2.85-.43,4.29-.48,1.44-.04,2.88,.03,4.31,.28,1.42,.26,2.83,.68,4.09,1.43,.32,.18,.62,.39,.91,.61,.29,.22,.56,.47,.82,.73,.25,.27,.5,.54,.7,.85,.23,.29,.4,.62,.58,.93l-.43,.14c-.08-.43-.19-.88-.35-1.31-.13-.44-.33-.85-.5-1.28-.21-.41-.39-.83-.64-1.22-.23-.4-.47-.79-.75-1.15l-.4-.56-.46-.52-.46-.52c-.16-.16-.34-.31-.5-.47-.34-.31-.66-.64-1.05-.9-.37-.27-.73-.56-1.12-.81l-1.2-.69c-.39-.24-.84-.39-1.25-.59-.42-.18-.84-.4-1.29-.52l-1.32-.43c-.44-.17-.9-.22-1.35-.33l-1.36-.29-2.77-.33,2.78,.24,1.38,.25c.46,.1,.93,.14,1.37,.29l1.35,.39c.46,.11,.88,.32,1.31,.49,.43,.19,.88,.33,1.29,.57l1.23,.69c.4,.24,.77,.54,1.16,.8,.4,.26,.73,.59,1.09,.9,.18,.16,.36,.31,.53,.47l.48,.52,.48,.52,.43,.56c.3,.37,.55,.77,.8,1.17,.26,.39,.45,.83,.68,1.24,.19,.43,.39,.87,.53,1.32,.16,.45,.28,.9,.38,1.39l.25,1.26-.67-1.12c-.18-.29-.34-.6-.55-.87-.19-.29-.43-.54-.66-.79-.25-.24-.5-.48-.78-.68-.27-.21-.56-.41-.86-.58-1.2-.7-2.56-1.11-3.94-1.35-1.38-.24-2.8-.3-4.21-.25-1.41,.04-2.82,.18-4.2,.45l-.05-.49,1.92,.12c.63,.1,1.27,.18,1.9,.3,.62,.17,1.26,.26,1.86,.5l.91,.32c.3,.12,.59,.27,.88,.41,.3,.13,.58,.28,.85,.46,.27,.17,.56,.32,.82,.52l.77,.59c.25,.21,.47,.44,.71,.67,.45,.46,.87,.96,1.22,1.51,.36,.54,.66,1.12,.9,1.72,.24,.6,.41,1.23,.49,1.88l.04,.5v.48c-.02,.18,0,.25,.06,.36,.08,.1,.19,.18,.31,.25,.53,.26,1.17,.35,1.79,.42,.63,.06,1.26,.09,1.89,.1,2.53,.02,5.07-.18,7.59-.46Z"/><path class="cls-11" d="M356.64,419.3s-.14,.15-.37,.4c-.24,.25-.56,.64-.95,1.09-.38,.46-.82,1-1.25,1.6-.23,.29-.43,.62-.65,.94-.22,.32-.42,.66-.63,.99-.19,.34-.39,.68-.56,1.03-.15,.35-.35,.68-.47,1.03-.12,.35-.29,.67-.37,.99-.09,.32-.21,.63-.26,.92-.05,.29-.11,.55-.17,.79-.04,.24-.05,.45-.07,.62-.04,.35-.06,.55-.06,.55,0,0-.01-.2-.04-.55,0-.18-.03-.39-.02-.64,.02-.24,.04-.52,.07-.83,.03-.31,.12-.62,.19-.97,.06-.35,.2-.69,.31-1.05,.11-.37,.29-.72,.45-1.09,.17-.36,.37-.71,.56-1.07,.22-.34,.43-.69,.66-1.01,.23-.32,.46-.64,.71-.93,.47-.59,.98-1.09,1.4-1.52,.87-.84,1.54-1.29,1.54-1.29Z"/><path class="cls-11" d="M350,424.91c.06,.2,.11,.4,.16,.6l-.13,.02c-.06-.42-.03-.84,.07-1.24,.08-.41,.26-.8,.44-1.17l.33-.53,.39-.49c.29-.3,.57-.61,.91-.85,.32-.27,.67-.48,1.02-.7,.17-.11,.37-.19,.55-.29,.18-.09,.37-.18,.56-.26l.58-.21c.19-.06,.38-.14,.58-.19,.4-.09,.79-.2,1.19-.28-.36,.18-.74,.34-1.1,.5l-1.07,.54-.51,.3c-.17,.1-.35,.19-.51,.3-.32,.23-.66,.43-.95,.69-.15,.13-.31,.24-.44,.38-.14,.14-.29,.27-.42,.41l-.38,.44-.33,.47c-.2,.33-.39,.67-.51,1.04-.13,.36-.23,.75-.25,1.14l-.13,.02c-.01-.2-.02-.41-.02-.62Z"/><path class="cls-11" d="M354.21,413.93s-.46,.61-1.07,1.55c-.31,.47-.64,1.04-.98,1.65-.34,.61-.67,1.28-.95,1.97-.13,.35-.3,.68-.4,1.03-.11,.35-.24,.68-.32,1.02-.09,.34-.19,.66-.24,.98-.05,.31-.13,.61-.15,.89-.02,.28-.06,.53-.09,.76,0,.23,0,.43-.01,.59-.01,.33-.02,.52-.02,.52,0,0-.03-.19-.08-.52-.02-.17-.05-.37-.08-.6,0-.23-.02-.5-.01-.78-.01-.29,.03-.6,.06-.93,.02-.33,.08-.67,.16-1.03,.07-.36,.17-.71,.29-1.07,.1-.37,.26-.72,.39-1.08,.3-.71,.65-1.39,1.04-2,.37-.61,.78-1.14,1.14-1.59,.72-.89,1.31-1.38,1.31-1.38Z"/><path class="cls-11" d="M347.5,421.44c.14,.13,.3,.24,.45,.33l-.08,.05c-.05-.47-.06-.95-.01-1.42,.03-.48,.1-.95,.2-1.42,.05-.24,.12-.47,.19-.69,.06-.23,.15-.46,.25-.68,.1-.22,.19-.45,.32-.65,.13-.21,.22-.43,.38-.62,.15-.19,.3-.39,.45-.57l.53-.51c.18-.17,.4-.28,.59-.43,.19-.15,.42-.25,.64-.34,.23-.09,.44-.21,.67-.27l.7-.17c.23-.06,.47-.06,.71-.08,.24-.01,.47-.02,.71-.03-.23,.06-.46,.11-.69,.16-.23,.05-.46,.08-.67,.18l-.65,.23c-.22,.08-.4,.21-.61,.31l-.3,.16-.27,.2c-.17,.14-.37,.26-.53,.42l-.47,.48c-.14,.17-.27,.36-.41,.54-.14,.17-.24,.38-.36,.57-.12,.19-.21,.4-.31,.6-.1,.2-.19,.41-.26,.63-.08,.21-.16,.43-.22,.65-.14,.44-.25,.89-.33,1.34-.07,.46-.15,.92-.18,1.38v.11l-.08-.06c-.16-.13-.28-.27-.39-.42Z"/><path class="cls-11" d="M346.14,409.74s.03,.75,.06,1.87c.02,.56,.03,1.21,.06,1.91,.03,.7,.04,1.44,.1,2.18,.03,.74,.11,1.48,.18,2.17,.09,.68,.17,1.33,.31,1.86,.08,.26,.12,.52,.2,.72,.08,.21,.13,.4,.21,.54,.16,.29,.25,.45,.25,.45,0,0-.12-.14-.33-.4-.11-.13-.19-.31-.31-.52-.13-.2-.2-.45-.31-.72-.11-.27-.17-.57-.27-.88-.08-.32-.15-.65-.22-1-.05-.35-.12-.71-.15-1.08-.04-.37-.08-.75-.09-1.12-.04-.75-.05-1.5-.03-2.21,.01-.7,.07-1.36,.11-1.92,.1-1.12,.24-1.86,.24-1.86Z"/><path class="cls-11" d="M344.56,425.03l.24,.88-.11,.02c-.27-1.4-.44-2.81-.6-4.23-.14-1.42-.23-2.84-.24-4.27,0-1.43,.03-2.86,.27-4.28,.06-.35,.13-.71,.22-1.06,.09-.35,.19-.7,.33-1.03,.13-.34,.33-.65,.56-.94,.25-.27,.57-.49,.93-.53h.01l-.02,.15v-.14h.01c-.35,.11-.61,.34-.82,.61-.19,.29-.34,.6-.43,.94-.11,.33-.19,.67-.25,1.01-.07,.34-.11,.69-.15,1.04-.14,1.4-.16,2.81-.14,4.22,.02,1.41,.08,2.83,.16,4.24,.06,1.42,.18,2.83,.27,4.25l-.11,.02-.13-.9Z"/><path class="cls-11" d="M324.32,412.21s1.66-.2,4.17-.04c1.25,.08,2.71,.23,4.25,.58,1.54,.34,3.16,.84,4.68,1.58,.76,.37,1.48,.82,2.17,1.3,.66,.51,1.3,1.03,1.83,1.63,.28,.28,.51,.61,.75,.9,.21,.32,.42,.63,.6,.94,.35,.64,.63,1.27,.84,1.87,.09,.3,.19,.59,.26,.87,.06,.28,.12,.54,.17,.79,.11,.5,.2,.93,.28,1.29,.15,.71,.23,1.12,.23,1.12,0,0-.12-.4-.33-1.1-.1-.35-.23-.77-.37-1.26-.14-.49-.3-1.03-.52-1.61-.22-.57-.52-1.17-.88-1.77-.38-.59-.83-1.18-1.36-1.73-.51-.57-1.14-1.06-1.78-1.54-.67-.45-1.37-.88-2.11-1.22-1.47-.73-3.05-1.25-4.55-1.6-1.51-.36-2.94-.6-4.18-.73-2.47-.28-4.15-.25-4.15-.25Z"/></g><path class="cls-12" d="M339,429.65c-.21,2.23,11.81,.61,11.81,.61-.25-5.86,5.83-10.96,5.83-10.96-2.34,.94-3.76,3.4-4.79,5.22-1.03,1.82-1.74,2.31-1.9,1.4-.15-.84-.14-1.62,0-2.34,.1-5.29,4.27-9.64,4.27-9.64-.03,0-.05,0-.08,0-1.68,.9-3.54,3.3-3.92,4.98-.6,2.63-2.07,7.88-4.08,6.48-2.01-1.4-1.36-8.4-1.36-10.68,0-1.74,.73-4.04,1.08-5.02-2.46,1.11-1.74,10.48-1.32,14.45,.14,.59,.25,1.09,.35,1.45,.65,2.52-1.8,5.18-1.36,2.31,.44-2.87-2.61-9.98-7.56-13.16-3.13-2.01-8.13-2.46-11.38-2.52,15.16,.98,16.76,11.85,16.76,11.85-.11-.21-.22-.4-.34-.59,1.05,2.32-.02,3.51-1.45,1.21-1.37-2.2-4.86-3.55-9.14-4.26,6.95,1.73,8.81,6.93,8.59,9.22Z"/></g></g><g id="Laag_2"><ellipse class="cls-33" cx="230" cy="433.18" rx="80" ry="18"/><g><g><path class="cls-24" d="M229.95,251.8c-.42-3.15-1.36-6.4-2.82-9.74-1.32-3.01-4.82-4.38-7.83-3.06-3.01,1.32-4.38,4.82-3.06,7.83,3.42,7.81,2.68,13.65-2.47,19.54-5.16,5.91-13.97,10.83-22.48,15.59-12.61,7.05-24.52,13.71-27.57,24.63-1.51,5.38-.59,11.08,2.72,16.95,5.02,8.88,7.98,18.26,8.55,27.14,.56,8.5-1.14,15.76-4.89,20.98-7.31,10.16-20.73,10-30.7,8.07-3.22-.62-6.34,1.48-6.96,4.7-.62,3.22,1.48,6.34,4.7,6.96,9.63,1.86,18.22,1.65,25.53-.64,7.13-2.23,12.87-6.32,17.08-12.16,5.39-7.49,7.84-17.41,7.11-28.7-.69-10.65-4.18-21.79-10.07-32.21-1.73-3.05-2.26-5.63-1.62-7.89,1.73-6.16,12-11.91,21.93-17.46,9.39-5.25,19.11-10.69,25.62-18.15,5.89-6.74,8.3-14.24,7.22-22.39Z"/><path class="cls-7" d="M137.15,391.39c-1.33-.26-2.46-.94-3.3-1.88,8.28,1.21,17.12,1.29,23.58-.73,7.13-2.23,12.87-6.32,17.08-12.16,5.39-7.49,7.84-17.41,7.11-28.7-.69-10.65-4.18-21.79-10.07-32.21-1.73-3.05-2.26-5.63-1.62-7.89,1.73-6.16,10.6-12.39,20.54-17.94,9.39-5.25,19.11-10.69,25.62-18.15,5.89-6.74,8.3-14.24,7.22-22.39-.42-3.15-1.36-6.4-2.82-9.74-.13-.31-.3-.59-.47-.86,2.83-.84,5.91,.54,7.12,3.31,1.46,3.34,2.4,6.59,2.82,9.74,1.08,8.15-1.34,15.65-7.22,22.39-6.52,7.46-16.23,12.89-25.62,18.15-9.93,5.56-20.21,11.3-21.93,17.46-.63,2.26-.1,4.84,1.62,7.89,5.89,10.42,9.37,21.56,10.07,32.21,.74,11.29-1.72,21.21-7.11,28.7-4.2,5.84-9.95,9.93-17.08,12.16-7.32,2.29-15.91,2.5-25.53,.64Z"/><rect class="cls-30" x="203.31" y="84.08" width="23.13" height="9.91" transform="translate(429.75 178.07) rotate(-180)"/><path class="cls-26" d="M325.06,151.36c-6.34-9.07-13.6-14.25-14.17-13.73s3.13,8.58,13.68,15.1l1.1,.31-.61-1.68Z"/><path class="cls-14" d="M249.55,103.55s.54-5.42-.16-6.72c-.17-.32-.8-.22-1.9-.96h0s11.24,5.18,12.15,7.87c.91,2.69,.84,14.4,1.63,17.75,.79,3.36,14.94,35.98,15.62,36.1s1.66-1.31,2.53-.93c.87,.38,.45,2.61,.45,2.61,0,0,3.21-.81,6.86-2.69,3.65-1.88,20.56-16.79,20.56-16.79,0,0,.45-.84,.91-.76s.83,.26,.83,.26c0,0-.58,1.85,1.21,4.53,1.8,2.67,8.25,9.74,10.02,10.63,1.78,.89,3.42,.61,3.42,.61,0,0,2.59,2.19,2.3,2.48-.29,.29-4.88,1.54-6.35,2.49-1.47,.94-19.12,19.18-26.86,24.98-7.74,5.8-19.61,11.05-20.92,10.81s-18.59-21.52-23.99-34.2c-2.16-5.07-4.16-8.74-5.8-11.34,.13-.46,.27-.91,.4-1.35,3.7-12.21,5.92-27.9,7.07-45.39Z"/><path class="cls-16" d="M320.28,154.46c-1.78-.89-8.23-7.96-10.02-10.63-1.65-2.46-1.3-4.2-1.23-4.47l1.86-1.72s2.76,4.59,5.88,7.77c3.11,3.18,8.44,7.28,8.47,7.11s-.18-1.15-.18-1.15c0,0,1.72,2.12,1.23,2.42-.23,.14-1.42,.72-2.62,1.3-.2,.03-1.72,.22-3.38-.61Z"/><path class="cls-24" d="M312.13,139.56c.47-.42,1.24-1.27,1.4-2.57,.22-1.9,2.03-11.57,2.89-12.84,.86-1.27,3.22-3.78,3.97-5.15,.74-1.38,3.13-2.59,3.96-4.16,.83-1.58,1.86-4.54,2.38-4.49,.52,.05,3.04,2.87,2.98,5.31-.06,2.45-1.73,5.47-2.81,6.52-1.08,1.06-2.26,2.66-1.97,3.7,.29,1.04,12.41-.46,15.92-1.05,3.51-.58,11.39,2.11,12.81,3.06,1.41,.94,1.81,2.39,1.81,2.39,0,0,3.34,.34,4.68,1.87,1.35,1.53-1.02,3.31-1.02,3.31,0,0,.93,3.01,.36,3.6-.57,.59-2.12,.87-2.12,.87,0,0-.17,2.34-.81,2.66-.63,.32-10.77,1.87-12.71,2.31-1.93,.43-14.4,2.39-17.52,3-1.9,.37-3.52,1.34-4.51,2.05-1.66-1.36-3.59-3.04-5.05-4.53-1.83-1.87-3.54-4.22-4.63-5.85Z"/><g><path class="cls-8" d="M345.36,138.74c1.25-.13,2.52-.26,3.8-.18,2.53,.16,5.02,.57,7.47,1.19-2.52-.12-5.02-.39-7.5-.51-1.23-.07-2.47,.02-3.72,.08l-3.76,.16h-.05l-.51-.42,.56,.29c1.23-.26,2.47-.43,3.72-.59Z"/><path class="cls-8" d="M349.19,133.79c3.21,.03,6.36,.67,9.35,1.68-3.12-.52-6.24-1.01-9.35-1.01-3.11,.07-6.25,.44-9.37,.87h-.05l-.37-.47,.42,.36c3.04-.85,6.18-1.38,9.37-1.44Z"/><path class="cls-8" d="M342.26,130.08l-4.15,.3c1.34-.36,2.71-.62,4.09-.82,1.37-.22,2.81-.27,4.2-.18,2.78,.17,5.53,.49,8.27,1.01-2.78,0-5.55-.19-8.31-.34-1.38-.1-2.72-.07-4.1,.02Z"/></g><path class="cls-7" d="M317.65,143.54s2.97,1.22,4.54,1.04c1.56-.18,5.56-2,9.79-2.62,4.24-.62,8.13,.59,8.44,.7,0,0,7.48-.8,11.56-.93,1.96-.06,3.72-.02,5.04,.05-.12,.38-.27,.7-.47,.8-.63,.32-10.77,1.87-12.71,2.31-1.93,.43-14.4,2.39-17.52,3-1.9,.37-3.52,1.34-4.51,2.05-1.66-1.36-3.59-3.04-5.05-4.53-.22-.23-.43-.48-.65-.72l1.54-1.15Z"/><path class="cls-13" d="M247.88,161.63c-2.16-5.07-4.16-8.74-5.8-11.34,.13-.46,.27-.91,.4-1.35,1.94-6.42,3.47-13.8,4.66-21.89,5.61,11.95,19.89,42.14,20.97,42.31,1.34,.22,3.76-.93,3.74,.67-.02,1.59-.73,3.89-.73,3.89,0,0,16.3-5.99,22.15-9.25,4.34-2.43,14.81-12.25,19.93-17.15,2.58,2.97,5.88,6.35,7.08,6.95,1.78,.89,3.42,.61,3.42,.61,0,0,2.59,2.19,2.3,2.48-.29,.29-4.88,1.54-6.35,2.49-1.47,.94-19.12,19.18-26.86,24.98-7.74,5.8-19.61,11.05-20.92,10.81s-18.59-21.52-23.99-34.2Z"/><path class="cls-35" d="M192.91,89.75l2.07-1.16,2.86-8.59,14.87,10.97h3.61l10.31-4.43,4.73,5.22,2.3,.88c-.69,4.48-2.72,17.08-5.12,26.59-1.97,7.79-5.38,17.76-7.45,23.61-3.31-5.6-7.53-12.92-10.23-18.18-4.36-8.5-15.27-29.72-17.94-34.9Z"/><path class="cls-16" d="M208.63,111.42c0-1.68-1.63-4.15-2.53-4.86-.91-.71-8.73-15.23-8.73-15.23l17.9,7.98,14.7-7.98s-4.5,18.93-2.51,20.08c.62,.36,1.96-1.11,3.51-3.3-.73,3.75-1.56,7.64-2.43,11.11-1.97,7.79-5.38,17.76-7.45,23.61-3.31-5.6-7.53-12.92-10.23-18.18-1.3-2.53-3.18-6.19-5.25-10.22,4.46,.93,3.03-1.56,3.03-3.01Z"/><path class="cls-14" d="M226.02,151.1s-15.98-21.25-23.17-33.23c-7.18-11.98-13.27-26.9-13.27-26.9,0,0-16.38,6.1-17.08,7.91-.69,1.81-4.17,19.67,1.62,41.6,5.79,21.93,19,63.08,18.3,68.95-.69,5.88-3.94,19.6-3.94,19.6,0,0,8.8,4.97,15.06,6.1,6.25,1.13,10.76,0,10.76,0l15.65-23.74s-.46-18.24-1.85-33.84c-1.39-15.6-2.09-26.45-2.09-26.45Z"/><path class="cls-14" d="M228.11,177.56c-1.39-15.6-2.09-26.45-2.09-26.45,0,0-2.02-2.69-4.94-6.68,2.7-5.04,7.89-14.8,11.2-21.58,4.63-9.5,6.8-30.07,6.8-30.07,0,0,11.73,4.01,12.66,5.17,.93,1.16,1.39,6.58,1.39,6.58,2.08,17.41,2.78,33.23,1.39,45.89-1.39,12.66-2.29,36.85-.33,45.44,1.96,8.59,8.91,27.06,8.91,27.06,0,0-6.26,7.01-13.9,9.49-7.64,2.49-15.99,2.71-15.99,2.71l-6.85-18.26,3.61-5.48s-.46-18.24-1.85-33.84Z"/><path class="cls-13" d="M177.58,409.62s1.61-54.96,2.3-61.97c.69-7.01,5.98-28.35,7.13-34.56,1.15-6.22-2.51-45.62-2.74-49.47-.23-3.84-2.3-14.24-2.3-14.24,0,0,3.65-13.09,8.67-19.63,2.67,1.42,8.88,4.52,13.62,5.39,6.21,1.13,10.68,0,10.68,0l15.53-23.74-3.58,5.48,6.8,18.26s8.28-.23,15.86-2.71c5.88-1.93,10.92-6.56,12.89-8.55,1.95,6.24,6.29,20.4,6.65,23.81,.46,4.41-1.05,39.97-2.32,48.11-1.26,8.14-2.76,17.3-2.99,21.59-.23,4.29-2.07,71.55-1.49,77.43,.57,5.88,9.54,23.29,9.2,23.85-.34,.57-3.43,2.71-3.43,2.71,0,0-1.05-2.03-1.97-2.03s-12.76,1.58-18.62,3.17c-5.86,1.58-13.22,3.5-13.22,3.5,0,0-.35-16.39-.46-18.88-.12-2.49-3.79-38.77-4.48-47.25-.69-8.48,1.49-17.93,1.84-19.4,.35-1.47,.46-13.34,1.26-14.58,.81-1.24,1.61-9.65,1.61-9.65,0,0-1.83-13.25-2.29-21.39-.46-8.14-2.4-43.67-3.09-43.45-.69,.23-1.72,1.24-2.3,5.09-.57,3.84-9.1,52.41-10.13,58.51-1.03,6.1-1.84,10.29-2.87,14.36-1.04,4.07-2.18,19.1-3.1,30.75-.92,11.64-2.76,31.99-2.3,38.09,.46,6.1-.35,23.06,.57,24.75,.92,1.7-3.45,3.05-3.45,3.05,0,0,0-3.39-4.6-6.67-4.6-3.28-21.84,4.75-21.84,4.75,0,0-2.3-7.23-2.3-9.04s1.26-5.43,1.26-5.43Z"/><path class="cls-14" d="M269.33,418.66c.35-.57-8.62-17.97-9.2-23.85-.57-5.88,1.26-73.14,1.49-77.43,.23-4.29,1.73-13.45,2.99-21.59,1.27-8.14,2.78-43.7,2.32-48.11-.33-3.15-4.05-15.45-6.16-22.23,.68-.61,1.24-1.16,1.66-1.58,1.95,6.24,6.29,20.4,6.65,23.81,.46,4.41-1.05,39.97-2.32,48.11-1.26,8.14-2.76,17.3-2.99,21.59-.23,4.29-2.07,71.55-1.49,77.43,.57,5.88,9.54,23.29,9.2,23.85-.34,.57-3.43,2.71-3.43,2.71,0,0-.28-.54-.68-1.06,.85-.63,1.78-1.35,1.96-1.65Z"/><path class="cls-14" d="M206.34,422.96c-.92-1.69-.11-18.65-.57-24.75-.46-6.1,1.38-26.45,2.3-38.09,.92-11.64,2.07-26.68,3.1-30.75,1.03-4.07,1.84-8.25,2.87-14.36,1.04-6.1,9.56-54.67,10.13-58.51,.58-3.84,1.61-4.86,2.3-5.09,.11-.04,.21,1.07,.29,2.98-.16,.59-.31,1.28-.43,2.11-.57,3.84-9.1,52.41-10.13,58.51-1.03,6.1-1.84,10.29-2.87,14.36-1.04,4.07-2.18,19.1-3.1,30.75-.92,11.64-2.76,31.99-2.3,38.09,.46,6.1-.35,23.06,.57,24.75,.92,1.7-3.45,3.05-3.45,3.05,0,0,0-.32-.13-.86,1-.55,1.9-1.33,1.43-2.19Z"/><path class="cls-29" d="M202.59,235.13c-3.91-.72-8.82-3.02-11.86-4.58,.19-.28,.38-.55,.58-.81,2.62,1.42,8.73,4.52,13.4,5.39,1.58,.29,3.05,.43,4.36,.48-1.75,.07-3.96-.01-6.48-.48Z"/><path class="cls-29" d="M224.96,218.97l5-7.58-3.61,5.48,6.81,18.13c-1.33,.1-2.13,.13-2.13,.13l-6.07-16.16Z"/><path class="cls-15" d="M233.76,235.13l-.05-.13c2.88-.23,8.32-.87,13.45-2.59,5.75-1.93,10.68-6.56,12.61-8.55,.15,.48,.31,1.02,.48,1.58-2.45,2.26-6.45,5.45-10.98,6.97-7.42,2.49-15.51,2.71-15.51,2.71Z"/><path class="cls-22" d="M266.11,419.36c.62,.98,1.3,2.03,1.7,2.5,.86,1.02,15.26,4.24,17.33,5.43,2.07,1.19,5.43,6.02,5.43,6.02,0,0-11.55,3.39-19.83,1.98-8.44-1.44-7.33-1.81-15.43-2.75-8.1-.93-19.14,1.78-19.05-.85,.04-1.25,.45-3.92,.87-6.37,2.67-.7,6.92-1.83,10.59-2.82,5.57-1.5,16.53-3.01,18.38-3.15Z"/><path class="cls-21" d="M236.26,431.69c0-.21,.03-.47,.05-.75l.17,1.27c-.13-.15-.22-.32-.22-.53Z"/><path class="cls-21" d="M236.28,430.71h.05c0,.08-.02,.16-.02,.24l-.03-.24Z"/><path class="cls-25" d="M248.67,432.4v2.82s-1.64,.17-6.38,0c-4.74-.17-5.52-.68-5.52-.68l-.3-2.31c1.08,1.2,6.47,.41,12.2,.17Z"/><path class="cls-22" d="M200.72,419.34c4.6,3.28,4.6,6.67,4.6,6.67,0,0,.02,0,.05-.02,.34,2.9,.64,5.95,.47,6.62-.35,1.36-2.67,4.84-6.64,7.38-3.96,2.54-20.6-7.21-20.6-8.56,0-.9,.31-4.89,.51-7.45,2.01-.91,17.32-7.71,21.62-4.65Z"/><path class="cls-16" d="M215.83,90.97c-.64,0-7.36,12.21-8.05,12.15-.7-.06-6.43-5.93-9.21-9.38-2.78-3.45-3.53-5.32-3.53-5.32l2.77-8.87s5.17,4.24,8.74,6.87c3.57,2.63,9.28,4.54,9.28,4.54Z"/><path class="cls-16" d="M216.31,90.97s8.15,13.28,8.61,13.22c.46-.06,3.13-5.65,4.52-8.59,1.39-2.94,2.09-4.27,2.09-4.27l-4.54-5.78s-5.76,3.31-7.39,4.01c-1.63,.7-3.28,1.41-3.28,1.41Z"/><path class="cls-9" d="M215.83,90.97h.48s3.49,5.69,6.03,9.6l-2.23,3.62s-1.5-.96-3.36-.56c-1.85,.39-3.42,1.36-3.42,1.36l-3.51-4.66c2.25-3.59,5.57-9.36,6-9.36Z"/><path class="cls-9" d="M221.07,142.83c-2.9-4.91-6.5-11.14-9.16-16.15l1.43-21.7s1.56-.96,3.42-1.36c1.85-.4,3.36,.56,3.36,.56l.15-.24c1.48,5.5,4.35,16.16,6.1,22.97-1.79,5.89-3.86,11.88-5.29,15.91Z"/><path class="cls-13" d="M192.31,88.59s13.55,26.34,18.53,36.06c4.98,9.72,15.18,26.45,15.18,26.45,0,0-18.3-14.69-28.15-27.02-9.85-12.32-17.61-30.18-17.61-30.18,0,0,4.98-1.64,7.07-2.57,2.09-.93,4.98-2.74,4.98-2.74Z"/><path class="cls-13" d="M228.53,119.23c2.97-11.76,5.37-28.26,5.37-28.26l3.71,.9c3.71,.9,10.08,2.37,10.08,2.37,0,0-4.4,19.33-9.85,29.05-3.87,6.92-11.62,16.36-15.77,21.22-.32-.54-.66-1.1-1-1.69,2.08-5.84,5.49-15.81,7.45-23.61Z"/><path class="cls-34" d="M216.23,158.81c0,1.73,1.44,3.14,3.21,3.14s3.21-1.4,3.21-3.14-1.44-3.14-3.21-3.14-3.21,1.4-3.21,3.14Z"/><path class="cls-34" d="M217.86,181.69c0,1.73,1.44,3.14,3.21,3.14s3.21-1.4,3.21-3.14-1.44-3.14-3.21-3.14-3.21,1.4-3.21,3.14Z"/><path class="cls-34" d="M219.5,204.57c0,1.73,1.44,3.14,3.21,3.14s3.21-1.4,3.21-3.14-1.44-3.14-3.21-3.14-3.21,1.4-3.21,3.14Z"/><path class="cls-26" d="M198.57,93.74c-2.78-3.45-3.53-5.32-3.53-5.32l.03-.1c2.84,1.66,12.05,6.76,12.21,3.4,.15-3.38-7.36-9.8-9.63-11.65l.16-.52s5.17,4.24,8.74,6.87c3.57,2.63,9.28,4.54,9.28,4.54-.64,0-7.36,12.21-8.05,12.15-.7-.06-6.43-5.93-9.21-9.38Z"/><path class="cls-26" d="M219.59,89.56c1.48-.64,6.37-3.42,7.24-3.92-1.85,2.18-4.71,6.03-4.49,8.73,.17,2.11,4.49,.37,8.52-1.72-.34,.69-.81,1.66-1.42,2.95-1.39,2.94-4.05,8.53-4.52,8.59-.46,.06-8.61-13.22-8.61-13.22,0,0,1.65-.71,3.28-1.41Z"/><path class="cls-31" d="M216.31,93.14s3.72,4.33,3.45,6.18-1.29,1.77-3.45,1.94c-2.16,.18-2.76,.62-3.46,0-.7-.62-.09-1.89,.42-3.28s3.03-5.2,3.03-5.2"/><path class="cls-31" d="M219.13,106.21c2.44,9.72,5.61,21.99,3.21,24.82-2.4,2.83-7.45-1.86-8.18-4.59-.73-2.74-.06-20.34,.8-21.45,.87-1.11,3.31-.43,3.56,0s.61,1.22,.61,1.22Z"/><path class="cls-34" d="M222.07,144.52c-.32-.54-.66-1.1-1-1.69,2.08-5.84,5.49-15.81,7.45-23.61,2.97-11.76,5.37-28.26,5.37-28.26,0,0,0,0,.99,.24-.97,6.56-3.16,23.49,.13,23.92,2.79,.36,8.82-12.69,12.35-20.96,.2,.05,.32,.07,.32,.07,0,0-4.4,19.33-9.85,29.05-3.87,6.92-11.62,16.36-15.77,21.22Z"/><path class="cls-34" d="M182.33,93.21c3.85,7.88,16.92,33.82,20.81,31.46,3.7-2.25-7.37-26.34-11.76-35.51,.57-.34,.93-.57,.93-.57,0,0,13.55,26.34,18.53,36.06,4.98,9.72,15.18,26.45,15.18,26.45,0,0-18.3-14.69-28.15-27.02-9.85-12.32-17.61-30.18-17.61-30.18,0,0,.89-.29,2.07-.7Z"/><path class="cls-13" d="M203.55,235.13c-6.25-1.13-15.06-6.1-15.06-6.1,0,0,3.24-13.72,3.94-19.6,.56-4.74-7.93-32.46-14.27-54.51,2.54-7.61,4.16-12.44,4.16-12.44,0,0,22.96,45.08,24.32,58.95,1.36,13.86,2.83,21.91,7.52,21.12,4.7-.79,15.76-13,15.76-13h0c.03,1.17,.04,1.85,.04,1.85l-15.65,23.74s-4.5,1.13-10.76,0Z"/><path class="cls-13" d="M229.96,211.4s-.01-.67-.04-1.85c0,0,19.35,13.48,20.98,1.85,1.63-11.64,0-25.47,0-25.47l2.18-4.03c.08,5.83,.41,10.9,1.11,13.97,1.96,8.59,8.91,27.06,8.91,27.06,0,0-6.26,7.01-13.9,9.49-7.64,2.49-15.99,2.71-15.99,2.71l-6.85-18.26,3.61-5.48Z"/><path class="cls-34" d="M184.6,239.38c1.43-3.43,3.22-7.05,5.22-9.64,2.69,1.42,8.95,4.52,13.73,5.39,6.25,1.13,10.76,0,10.76,0l15.65-23.74-3.61,5.48,6.85,18.26s8.34-.23,15.99-2.71c5.93-1.93,11-6.56,12.99-8.55,.97,3.09,2.54,8.14,3.92,12.85-5.78,2.23-19.05,7.24-25.52,8.87-8.42,2.12-14.23,0-14.23,0l-2.06-13.78-10.05,14.72s-6.25,.65-18.74-2.53c-4.65-1.18-8.23-2.91-10.91-4.62Z"/><path class="cls-34" d="M228.63,251.41c-.69,.23-1.72,1.24-2.3,5.09-.02,.13-.05,.33-.1,.59,.5-4.15,1.64-7.85,4.24-6.28,5.24,3.18,10.92,13.07,12.03,24.03,1.11,10.95,1.97,44.99,1.97,48.16,0,3.18-3.23,38.16-2.16,58.3,1.08,20.14,6.48,35.89,13.48,39.5h0c-3.02,.51-6.11,1.11-8.33,1.71-5.86,1.58-13.22,3.5-13.22,3.5,0,0-.35-16.39-.46-18.88-.12-2.49-3.79-38.77-4.48-47.25-.69-8.48,1.49-17.93,1.84-19.4,.35-1.47,.46-13.34,1.26-14.58,.81-1.24,1.61-9.65,1.61-9.65,0,0-1.83-13.25-2.29-21.39-.46-8.14-2.4-43.67-3.09-43.45Z"/><path class="cls-34" d="M205.05,426.01s0-3.39-4.6-6.67c-4.6-3.28-21.84,4.75-21.84,4.75,0,0-2.3-7.23-2.3-9.04s1.26-5.43,1.26-5.43c0,0,1.61-54.96,2.3-61.97,.69-7.01,5.98-28.35,7.13-34.56,1.15-6.22-2.51-45.62-2.74-49.47-.23-3.84-2.3-14.24-2.3-14.24,0,0,3.65-13.09,8.67-19.63,2.09,1.11,6.33,3.24,10.35,4.53l.15,1.35s-7.46,18.81-8.18,31.83c-.72,13.02,5.53,49.17,3.01,56.24-2.51,7.07-10.45,84.44-7.54,90.09,2.9,5.65,5.39,2.83,10.78,0,2.83-1.48,6.34,3.24,9.05,8.07,.06,.52,.14,.9,.24,1.08,.92,1.7-3.45,3.05-3.45,3.05Z"/><path class="cls-16" d="M192.9,233.37l3.42,5.58s-.24,9.03-14.17,11.81l-2.35-3.79,13.11-13.59Z"/><path class="cls-14" d="M181.54,97.95c6.72,12.69,5.79,30.55,3.25,37.78-2.55,7.23-14.25,37.98-14.25,37.98,0,0,.25,2.26,.3,3.84,.05,1.58-.3,3.84-.3,3.84,0,0,3.94,2.43,3.68,4.72-.26,2.29-.43,4.49-.43,4.49,0,0,10.34,21.8,12.51,26.89,2.17,5.09,7.39,15.35,7.39,15.35,0,0,1.39,6.44-3.22,10.85-4.6,4.41-10.95,4.58-10.95,4.58,0,0-27.63-40.68-31.45-46.61-3.82-5.94-5.04-10.85-5.04-11.7s15.98-58.02,18.24-65.99c2.26-7.97,3.99-25.75,15.92-27.92,4.06-.74,4.35,1.9,4.35,1.9Z"/><path class="cls-13" d="M174.6,222.55c0-9.54-17.65-31.63-16.84-39.58,.69-6.75,21.93-42.28,28.33-52.86-.33,2.23-.78,4.15-1.3,5.63-2.55,7.23-14.25,37.98-14.25,37.98,0,0,.25,2.26,.3,3.84,.05,1.58-.3,3.84-.3,3.84,0,0,3.94,2.43,3.68,4.72-.26,2.29-.43,4.49-.43,4.49,0,0,10.34,21.8,12.51,26.89,2.17,5.09,7.39,15.35,7.39,15.35,0,0,1.39,6.44-3.22,10.85-4.6,4.41-10.95,4.58-10.95,4.58,0,0-9.6-14.04-17.88-26.53,6.5,2.59,12.96,4.68,12.96,.8Z"/><path class="cls-25" d="M247.73,422.51c5.57-1.5,16.53-3.01,18.38-3.15,.4,.64,.83,1.3,1.19,1.82-2.88,.55-8.59,1.98-10.18,4.83-2.16,3.86,14.91,6.79,19.04,6.21,2.43-.34,7.97-1.23,12.12-1.9,1.26,1.51,2.28,2.98,2.28,2.98,0,0-11.55,3.39-19.83,1.98-8.44-1.44-7.33-1.81-15.43-2.75-8.1-.93-19.14,1.78-19.05-.85,.04-1.25,.45-3.92,.87-6.37,2.67-.7,6.92-1.83,10.59-2.82Z"/><path class="cls-25" d="M190.87,438.74c-5.83-2.36-12.29-6.46-12.29-7.3,0-.9,.31-4.89,.51-7.45,2.01-.91,17.32-7.71,21.62-4.65,4.6,3.28,4.6,6.67,4.6,6.67,0,0,.02,0,.05-.02,.18,1.57,.35,3.18,.44,4.43-1.32-2.99-3.61-5.89-7.6-6.38-8.62-1.06-9.96,8.75-8.98,11.58,.26,.75,.88,1.88,1.65,3.11Z"/><g><path class="cls-24" d="M184.01,40.92c-.48,2.45-.63,4.96-.45,7.45l.04,.52c.26,3.01,.12,6.03-.33,9.02-1.43-.39-2.93-1.28-4.42-2.9-3.93-4.27-3.28-11.66,1.01-13.71,1.63-.77,3.04-.74,4.16-.4,0,.01,0,.02,0,.03Z"/><path class="cls-27" d="M184.01,40.92c-.48,2.45-.63,4.96-.45,7.45l.04,.52c.26,3.01,.12,6.03-.33,9.02-1.43-.39-2.93-1.28-4.42-2.9-3.93-4.27-3.28-11.66,1.01-13.71,1.63-.77,3.04-.74,4.16-.4,0,.01,0,.02,0,.03Z"/><path class="cls-24" d="M251.17,49.58c-1.23,1.83-2.59,2.93-3.94,3.53-.89-2.88-1.49-5.85-1.68-8.87l-.04-.52c-.2-2.5-.73-4.96-1.57-7.33,1.06-.51,2.45-.75,4.18-.23,4.55,1.39,6.3,8.59,3.05,13.41Z"/><path class="cls-27" d="M251.17,49.58c-1.23,1.83-2.59,2.93-3.94,3.53-.89-2.88-1.49-5.85-1.68-8.87l-.04-.52c-.2-2.5-.73-4.96-1.57-7.33,1.06-.51,2.45-.75,4.18-.23,4.55,1.39,6.3,8.59,3.05,13.41Z"/><path class="cls-24" d="M237.63,53.92c-1.15,2.14-1.32,4.69-.37,6.94,.72,1.69,1.39,3.61,1.5,5.07,.8,10.68-8.67,20.1-21.16,21.04-12.49,.94-23.26-6.96-24.06-17.65-.11-1.46,.27-3.46,.73-5.24,.61-2.36,.06-4.87-1.4-6.81-.35-.47-.67-.96-.95-1.47-.86-1.55-1.37-3.28-1.51-5.05-.53-7.09,5.08-13.3,12.53-13.86,2.41-.19,4.82,.25,7.01,1.28,2.57,1.21,5.58,.99,7.94-.59,2.01-1.34,4.33-2.13,6.74-2.3,7.45-.56,13.92,4.74,14.46,11.83,.14,1.77-.11,3.55-.73,5.22-.2,.55-.45,1.08-.73,1.6Z"/><path class="cls-27" d="M237.63,53.92c-1.15,2.14-1.32,4.69-.37,6.94,.72,1.69,1.39,3.61,1.5,5.07,.8,10.68-8.67,20.1-21.16,21.04-12.49,.94-23.26-6.96-24.06-17.65-.11-1.46,.27-3.46,.73-5.24,.61-2.36,.06-4.87-1.4-6.81-.35-.47-.67-.96-.95-1.47-.86-1.55-1.37-3.28-1.51-5.05-.53-7.09,5.08-13.3,12.53-13.86,2.41-.19,4.82,.25,7.01,1.28,2.57,1.21,5.58,.99,7.94-.59,2.01-1.34,4.33-2.13,6.74-2.3,7.45-.56,13.92,4.74,14.46,11.83,.14,1.77-.11,3.55-.73,5.22-.2,.55-.45,1.08-.73,1.6Z"/><path class="cls-17" d="M204.82,70.89c-.72,.05-1.26,.68-1.2,1.4,0,.06,.01,.11,.02,.17,1.23,5.66,6.99,9.68,13.57,9.19,6.58-.49,11.67-5.33,12.05-11.11,.04-.72-.51-1.33-1.23-1.37-.06,0-.11,0-.17,0l-23.03,1.73Z"/><path class="cls-4" d="M209.61,80.07c4.76,2.5,10.54,2.07,14.88-1.12-1.17-3.16-4.1-2.19-7.62-1.93s-6.56-.26-7.25,3.04Z"/><path class="cls-24" d="M249.47,33.67c-2.75-.84-4.84-.13-6.26,.84-.45-1.05-.94-2.07-1.5-3.06-.4-.73-.83-1.45-1.29-2.15-4.66-7.19-12.01-12.89-20.11-14.92l-.48-4.24-4.88,3.45c-.21,0-.41-.01-.62-.02-.38,0-.76,0-1.14,0l-.99-3.16-.29-.92c-.25,.02-.5,.05-.75,.08-4.73,.74-6.78,5.24-7.09,6.01-7.7,3.22-14.12,9.95-17.65,17.75-.35,.76-.66,1.53-.95,2.32-.4,1.07-.74,2.15-1.02,3.25-.06-.03-.13-.06-.2-.09-1.54-.68-3.63-.99-6.12,.2-5.46,2.61-6.29,11.99-1.3,17.42,2.04,2.21,4.09,3.35,6.02,3.78-.02,.11-.03,.22-.05,.32-.22,1.58-.28,3.18-.16,4.77,.83,11.03,9.67,19.91,21.65,23.21,2.81,.77,5.7,1.22,8.61,1.35,1.51,.07,3.03,.05,4.54-.05l.36-.03c18.3-1.37,32.22-14.56,31.11-29.45-.12-1.59-.41-3.16-.86-4.69-.03-.1-.06-.21-.1-.31,1.84-.72,3.7-2.15,5.38-4.64,4.13-6.11,1.91-15.26-3.87-17.02Zm-65.46,7.25c-.48,2.45-.63,4.96-.45,7.45l.04,.52c.26,3.01,.12,6.03-.33,9.02-1.43-.39-2.93-1.28-4.42-2.9-3.93-4.27-3.28-11.66,1.01-13.71,1.63-.77,3.04-.74,4.16-.4,0,.01,0,.02,0,.03Zm54.34,11.41c-.2,.55-.44,1.08-.72,1.6-1.15,2.14-1.32,4.69-.37,6.94,.72,1.69,1.39,3.61,1.5,5.07,.8,10.68-8.67,20.1-21.16,21.04-12.49,.94-23.26-6.96-24.07-17.65-.11-1.46,.27-3.46,.73-5.24,.61-2.36,.06-4.87-1.4-6.81-.35-.47-.67-.96-.95-1.47-.86-1.55-1.37-3.28-1.51-5.05-.53-7.09,5.08-13.3,12.53-13.86,2.41-.19,4.82,.25,7.01,1.28,2.57,1.21,5.58,.99,7.94-.59,2.01-1.34,4.33-2.13,6.74-2.3,7.45-.56,13.92,4.74,14.46,11.83,.14,1.77-.11,3.55-.73,5.22Zm12.82-2.75c-1.24,1.83-2.59,2.93-3.94,3.53-.89-2.88-1.49-5.85-1.68-8.87l-.04-.52c-.2-2.5-.73-4.96-1.57-7.33,1.06-.51,2.45-.75,4.18-.23,4.55,1.39,6.3,8.59,3.05,13.41h0Z"/><rect class="cls-17" x="211.22" y="59.2" width="2.18" height="4.95" rx="1.09" ry="1.09" transform="translate(80.93 239.48) rotate(-69.74)"/><rect class="cls-17" x="216.6" y="60.08" width="4.95" height="2.18" rx="1.09" ry="1.09" transform="translate(-2.33 113.25) rotate(-28.84)"/><path class="cls-17" d="M203.52,54.94h0c-2.14,.16-4-1.35-4.15-3.38l-.09-1.22c-.15-2.03,1.46-3.8,3.6-3.96h0c2.14-.16,4,1.35,4.15,3.38l.09,1.22c.15,2.03-1.46,3.8-3.6,3.96Z"/><path class="cls-19" d="M202.88,46.37l.32,4.28c.08,1.01,1,1.77,2.07,1.69,1.07-.08,1.88-.97,1.8-1.98l-.05-.61c-.15-2.03-2.01-3.54-4.15-3.38Z"/><ellipse class="cls-2" cx="203.06" cy="48.82" rx="1.29" ry="1.23" transform="translate(-3.08 15.32) rotate(-4.29)"/><path class="cls-17" d="M226.76,53.2h0c-2.14,.16-4-1.35-4.15-3.38l-.09-1.22c-.15-2.03,1.46-3.8,3.6-3.96h0c2.14-.16,4,1.35,4.15,3.38l.09,1.22c.15,2.03-1.46,3.8-3.6,3.96Z"/><path class="cls-19" d="M226.11,44.63l.32,4.28c.08,1.01,1,1.77,2.07,1.69s1.88-.97,1.8-1.98l-.05-.61c-.15-2.03-2.01-3.54-4.15-3.38Z"/><ellipse class="cls-2" cx="226.3" cy="47.08" rx="1.29" ry="1.23" transform="translate(-2.89 17.05) rotate(-4.29)"/><path class="cls-7" d="M212.21,10.42c-.87-.02-2.67,1.49-4.76,4.02-.52,.63-1.06,1.33-1.61,2.08-4.06,5.56-8.6,14.18-9.74,22.76-1.9,14.41-1.87,30.96,4.04,39.69,5.02,7.4,12.78,10.9,12.78,10.9-2.91-.12-5.8-.58-8.61-1.35-11.97-3.3-20.82-12.18-21.65-23.21-.12-1.59-.07-3.19,.16-4.77,.01-.11,.03-.22,.05-.32-1.93-.43-3.98-1.57-6.02-3.78-4.99-5.43-4.17-14.81,1.29-17.42,2.48-1.18,4.58-.88,6.12-.2,.07,.03,.14,.06,.2,.09,.28-1.1,.63-2.19,1.02-3.25,.29-.78,.61-1.55,.95-2.32,3.53-7.8,9.95-14.53,17.65-17.75,.31-.77,2.36-5.27,7.09-6.01,.24-.04,.49-.07,.75-.08l.29,.92Z"/></g><polygon class="cls-13" points="226.02 151.1 229.92 209.55 228.64 210.93 224.29 149.7 226.02 151.1"/></g><g><g><circle class="cls-20" cx="352.6" cy="106.64" r="8.82"/><circle class="cls-3" cx="352.6" cy="106.64" r="6.54"/></g><g><circle class="cls-20" cx="339.37" cy="107.43" r="8.82"/><circle class="cls-3" cx="339.37" cy="107.43" r="6.54"/></g><path class="cls-18" d="M361.26,138.42l-36.44-3.26c-1.48-.13-2.57-1.44-2.44-2.92l2.25-25.11c.13-1.48,1.44-2.57,2.92-2.44l36.44,3.26c1.48,.13,2.57,1.44,2.44,2.92l-2.25,25.11c-.13,1.48-1.44,2.57-2.92,2.44Z"/><g><rect class="cls-5" x="325.96" y="131.6" width="1.66" height="2.09" transform="translate(165.53 446.31) rotate(-84.88)"/><path class="cls-5" d="M354.24,135.94l-4.41-.4,.15-1.66,4.41,.4-.15,1.66Zm-8.83-.79l-4.41-.4,.15-1.66,4.41,.4-.15,1.66Zm-8.83-.79l-4.41-.4,.15-1.66,4.41,.4-.15,1.66Z"/><rect class="cls-5" x="358.93" y="134.55" width="1.66" height="2.09" transform="translate(192.63 481.84) rotate(-84.88)"/></g><path class="cls-5" d="M349.18,126.69l16.09,1.44c.52,.05,.97-.33,1.01-.85l.75-8.37c.05-.52-.33-.97-.85-1.01l-16.09-1.44c-1.55-.14-2.91,1-3.05,2.55l-.41,4.63c-.14,1.54,1,2.91,2.55,3.05Z"/><circle class="cls-23" cx="352.09" cy="121.71" r="3.32"/><g><rect class="cls-5" x="328.19" y="106.7" width="1.66" height="2.09" transform="translate(192.37 425.84) rotate(-84.88)"/><path class="cls-5" d="M356.47,111.03l-4.41-.4,.15-1.66,4.41,.4-.15,1.66Zm-8.83-.79l-4.41-.4,.15-1.66,4.41,.4-.15,1.66Zm-8.83-.79l-4.41-.4,.15-1.66,4.41,.4-.15,1.66Z"/><rect class="cls-5" x="361.16" y="109.65" width="1.66" height="2.09" transform="translate(219.46 461.37) rotate(-84.88)"/></g></g><path class="cls-24" d="M323.15,116.25c1.72-2.16,3.37-5.98,5.39-5.22s2.9,5.1,0,8.87-5.75,7.64-5.75,7.64l.36-11.29Z"/></g></g></g></svg>