<?xml version="1.0" encoding="UTF-8"?><svg xmlns="http://www.w3.org/2000/svg" viewBox="0 0 500 500"><defs><style>.cls-1{fill:#343434;}.cls-2{fill:#ffb300;}.cls-3{fill:#ffd770;}.cls-4{fill:#959593;}.cls-5{fill:#fff;}.cls-6{fill:#ac752c;}.cls-7{fill:#faf4e6;}.cls-8{fill:#fabe76;}.cls-9{fill:#b96e14;}.cls-10{fill:#e6646e;}.cls-11{fill:#8c8c8c;}.cls-12{opacity:.33;}.cls-13{opacity:.2;}.cls-14{fill:#5c2fab;}.cls-15{fill:#698e59;}.cls-16{fill:#393939;}.cls-17,.cls-18{fill:#407035;}.cls-19{fill:#240d4c;}.cls-20{fill:#fdfbf5;}.cls-21{fill:#9473e4;}.cls-18{opacity:.4;}.cls-22{fill:#361472;}.cls-23{fill:#f9a948;}.cls-24{fill:#696969;}.cls-25{fill:#ff97b4;}.cls-26{fill:#e6e6e6;}.cls-27{opacity:.35;}.cls-27,.cls-28,.cls-29{fill:#4e3f3f;}.cls-27,.cls-29{isolation:isolate;}.cls-30{fill:#5d5360;}.cls-31{fill:#ffd54f;}.cls-32{fill:#f7931a;}.cls-33{fill:#3a1616;}.cls-34{fill:#a3a3a3;}.cls-35{fill:#7d551f;}.cls-36{fill:#3c3c3b;}.cls-37{fill:#722108;}.cls-38{fill:#a16552;}.cls-39{fill:#141414;}.cls-40{fill:#e8e8e8;}.cls-41{fill:#4c1605;}.cls-42{fill:#ccc;}.cls-43{fill:#f5dcb4;}.cls-44{fill:#c7c7c4;}.cls-45{fill:#22b322;}.cls-46{fill:#794c3e;}.cls-47{fill:#7950dd;}.cls-48{fill:#5b3ca6;}.cls-49{fill:#7b3fe4;}.cls-50{fill:#353535;opacity:.1;}.cls-51{fill:#1b0a39;}.cls-52{fill:#f2f2f2;}.cls-53{fill:#dddddc;}.cls-54{fill:#ffca28;}.cls-55{fill:#ffea8c;}.cls-29{opacity:.45;}</style></defs><g id="Laag_1"><ellipse class="cls-4" cx="250" cy="440.5" rx="160.5" ry="50"/><g><polygon class="cls-53" points="263.08 417.14 259.36 417.14 207.27 417.14 238.46 429.44 290.55 429.44 294.27 429.44 345.49 429.44 314.3 417.14 263.08 417.14"/><polygon class="cls-53" points="293.78 430.72 241.69 430.72 237.97 430.72 237.97 430.72 186.75 430.72 217.94 443.03 272.88 443.03 324.97 443.03 293.78 430.72"/><polygon class="cls-53" points="366.87 415.86 335.68 403.55 283.6 403.55 279.87 403.55 228.65 403.55 232.66 405.13 259.84 415.86 366.87 415.86"/><path class="cls-53" d="M373.07,460.54l5.04,1.99c3.43-1.49,6.56-3.03,9.37-4.64h-21.12l6.72,2.65Z"/><path class="cls-53" d="M108.39,423.29l-2.85-1.12c-3,2.34-5.34,4.77-6.96,7.28h25.4l-15.59-6.15Z"/><path class="cls-53" d="M158.41,443.03h55.8l-31.19-12.31H97.82c-1.24,2.28-1.89,4.62-1.89,7,0,.3,.02,.59,.04,.88l11.22,4.43h51.22Z"/><path class="cls-53" d="M127.71,429.44h107.02l-9.56-3.77-21.63-8.54H113.25c-2.37,1.32-4.52,2.67-6.43,4.07l5.29,2.09,15.6,6.15Z"/><path class="cls-53" d="M133.77,411.28l-3.88-1.53c-5.31,1.91-10.08,3.95-14.25,6.1h29.72l-11.59-4.57Z"/><path class="cls-53" d="M96.17,440.15c.18,.97,.47,1.93,.86,2.88h6.44l-7.3-2.88Z"/><path class="cls-53" d="M347.21,472.36c1.23-.29,2.44-.58,3.63-.88h-5.87l2.23,.88Z"/><path class="cls-53" d="M141.62,456.61h51.22l-16.73-6.6-14.46-5.71H97.61c2.21,4.34,6.58,8.47,12.77,12.31h31.23Z"/><path class="cls-53" d="M204.03,415.86h52.09l-24.76-9.77-6.43-2.54h-74.11c-6.86,1.67-13.2,3.52-18.96,5.51l17.23,6.8h54.94Z"/><path class="cls-53" d="M332.45,402.27h11.26c-24.2-5.38-54.06-8.73-86.56-9.16l23.21,9.16h52.09Z"/><path class="cls-53" d="M370.11,417.14h-52.08l31.19,12.31h52.2c-2.82-4.36-7.82-8.49-14.66-12.31h-16.64Z"/><path class="cls-53" d="M162.54,400.96c-2.12,.42-4.21,.86-6.25,1.32h9.59l-3.34-1.32Z"/><path class="cls-53" d="M310.55,457.89h-54.94l31.19,12.31h68.92c7.65-2.09,14.55-4.41,20.6-6.91l-13.68-5.4h-52.09Z"/><path class="cls-53" d="M399.01,449.09c1.42-1.56,2.55-3.16,3.38-4.79h-15.52l12.14,4.79Z"/><path class="cls-53" d="M348.73,430.72h-51.22l31.19,12.31h74.28c.71-1.74,1.09-3.51,1.09-5.31,0-2.38-.65-4.72-1.89-7h-53.45Z"/><path class="cls-53" d="M221.7,402.27h54.94l-23.31-9.2c-1.11,0-2.22-.01-3.33-.01-31.41,0-60.61,2.73-84.97,7.4l4.58,1.81h52.09Z"/><path class="cls-53" d="M370.59,415.86h13.77c-9.11-4.69-21.06-8.86-35.18-12.31h-9.78l31.19,12.31Z"/><path class="cls-53" d="M152.77,462.48l-11.64-4.59h-28.61c8.09,4.62,18.88,8.79,31.77,12.31h28.03l-19.55-7.71Z"/><path class="cls-53" d="M290.03,471.47h-55.8l18.14,7.16,9.16,3.61c31.32-.67,60.03-4.05,83.35-9.34l-3.62-1.43h-51.22Z"/><polygon class="cls-53" points="251.88 457.89 199.8 457.89 196.08 457.89 144.85 457.89 159 463.47 176.04 470.2 227.27 470.2 230.99 470.2 283.07 470.2 251.88 457.89"/><path class="cls-53" d="M230.5,471.47h-81.35c27.02,6.79,62.28,10.9,100.85,10.9,2.67,0,5.33-.02,7.96-.06l-5.31-2.1-22.15-8.74Z"/><polygon class="cls-53" points="252.36 456.61 303.59 456.61 282.52 448.3 272.4 444.3 221.17 444.3 217.45 444.3 165.37 444.3 189.75 453.92 196.56 456.61 248.65 456.61 252.36 456.61"/><path class="cls-53" d="M276.12,444.31l31.19,12.31h82.3c3.34-2.07,6.15-4.22,8.38-6.45l-14.84-5.86h-107.03Z"/><polygon class="cls-44" points="169.61 402.27 165.03 400.47 165.03 400.47 169.61 402.27 169.61 402.27"/><path class="cls-44" d="M280.36,402.27h0l-23.21-9.16c-1.27-.02-2.54-.03-3.82-.04l23.31,9.2h3.72Z"/><path class="cls-44" d="M169.61,402.27l-4.58-1.81c-.83,.16-1.66,.32-2.49,.49l3.34,1.32h3.72Z"/><rect class="cls-44" x="351.28" y="392.94" width="0" height="33.53" transform="translate(-158.77 586.08) rotate(-68.47)"/><path class="cls-44" d="M370.59,415.86h0l-31.19-12.31h9.78c-1.79-.44-3.62-.86-5.48-1.28h-7.54l34.43,13.59Z"/><polygon class="cls-44" points="314.79 415.86 370.59 415.86 336.17 402.27 332.45 402.27 280.36 402.27 280.36 402.27 276.64 402.27 225.42 402.27 228.65 403.55 279.87 403.55 283.6 403.55 335.68 403.55 335.68 403.55 366.87 415.86 366.87 415.86 259.84 415.86 232.66 405.13 259.84 415.86 311.07 415.86 314.79 415.86"/><polygon class="cls-44" points="231.36 406.09 256.12 415.86 256.12 415.86 231.36 406.09"/><polygon class="cls-44" points="145.36 415.86 145.37 415.86 133.77 411.28 145.36 415.86"/><polygon class="cls-44" points="149.09 415.86 131.86 409.06 131.86 409.06 149.08 415.86 149.09 415.86"/><path class="cls-44" d="M169.12,403.55h55.81l6.43,2.54,24.76,9.77h3.72l-27.18-10.73-4.01-1.58-3.23-1.28h-69.12c-1.86,.41-3.68,.84-5.48,1.28h18.3Z"/><path class="cls-44" d="M145.37,415.86h3.72l-17.23-6.8c-.66,.23-1.32,.46-1.96,.69l3.88,1.53,11.59,4.57Z"/><rect class="cls-44" x="329.89" y="406.53" width="0" height="33.53" transform="translate(-184.94 574.77) rotate(-68.46)"/><path class="cls-44" d="M314.79,415.86l34.42,13.58h0l-31.19-12.31h68.72c-.77-.43-1.57-.85-2.38-1.28h-69.58Z"/><polygon class="cls-44" points="225.18 425.67 234.73 429.44 234.74 429.44 225.18 425.67"/><polygon class="cls-44" points="207.27 417.14 259.36 417.14 263.08 417.14 314.3 417.14 314.3 417.14 345.49 429.44 349.21 429.44 314.79 415.86 311.07 415.86 259.84 415.86 204.04 415.86 238.46 429.44 238.46 429.44 207.27 417.14"/><polygon class="cls-44" points="123.99 429.44 123.99 429.44 108.39 423.29 123.99 429.44"/><polygon class="cls-44" points="127.71 429.44 127.71 429.44 112.11 423.29 127.71 429.44"/><path class="cls-44" d="M152.32,417.14h51.22l21.63,8.54,9.56,3.77h3.72l-34.42-13.58H115.64c-.82,.42-1.62,.85-2.39,1.28h39.07Z"/><path class="cls-44" d="M123.99,429.44h3.72l-15.59-6.15-5.29-2.09c-.44,.32-.86,.64-1.28,.96l2.85,1.12,15.6,6.15Z"/><polygon class="cls-44" points="328.7 443.03 379.92 443.03 383.64 443.03 402.97 443.03 402.97 443.03 328.69 443.03 328.7 443.03"/><path class="cls-44" d="M349.21,429.44h-54.94l3.24,1.28h104.67c-.23-.43-.49-.85-.76-1.28h-52.2Z"/><polygon class="cls-44" points="186.75 430.72 237.97 430.72 237.97 430.72 241.69 430.72 293.78 430.72 324.97 443.03 272.88 443.03 272.89 443.03 328.7 443.03 328.69 443.03 297.51 430.72 294.27 429.44 290.55 429.44 238.46 429.44 238.46 429.44 234.74 429.44 234.73 429.44 183.51 429.44 217.94 443.03 217.94 443.03 186.75 430.72"/><path class="cls-44" d="M130.95,430.72h52.08l31.19,12.31h3.72l-34.43-13.59H98.59c-.27,.42-.53,.85-.76,1.28h33.12Z"/><path class="cls-44" d="M107.19,443.03h0l-11.22-4.43c.03,.52,.1,1.03,.19,1.54l7.3,2.88h3.72Z"/><polygon class="cls-44" points="383.15 444.31 397.99 450.16 397.99 450.16 383.15 444.31 383.15 444.31"/><path class="cls-44" d="M399.01,449.09h0l-12.14-4.79h15.52c.22-.42,.41-.85,.58-1.28h-19.33l15.37,6.06Z"/><polygon class="cls-44" points="272.4 444.3 282.52 448.3 272.4 444.3 272.4 444.3"/><path class="cls-44" d="M383.64,443.03h-110.75l34.42,13.58h0l-31.19-12.31h107.03l14.84,5.86c.35-.35,.69-.71,1.02-1.07l-15.37-6.06Z"/><polygon class="cls-44" points="161.65 444.3 176.11 450.01 161.65 444.3 161.65 444.3"/><polygon class="cls-44" points="217.45 444.3 221.17 444.3 272.4 444.3 272.4 444.3 282.52 448.3 303.59 456.61 307.31 456.61 272.89 443.03 272.88 443.03 217.94 443.03 217.94 443.03 214.22 443.03 162.14 443.03 189.75 453.92 165.37 444.3 217.45 444.3"/><path class="cls-44" d="M110.43,444.3h51.22l14.46,5.71,16.73,6.6h3.72l-6.81-2.69-27.61-10.9H97.03c.17,.43,.37,.85,.58,1.28h12.82Z"/><path class="cls-44" d="M373.07,460.54l-6.72-2.65h21.12c.74-.42,1.45-.85,2.14-1.28h-26.5l9.95,3.93Z"/><path class="cls-44" d="M363.12,456.61h-110.76l34.43,13.59h0l-31.19-12.31h107.03l13.68,5.4c.61-.25,1.21-.5,1.8-.76l-5.04-1.99-9.95-3.93Z"/><polygon class="cls-44" points="141.13 457.89 152.77 462.48 141.13 457.89 141.13 457.89"/><polygon class="cls-44" points="196.08 457.89 199.8 457.89 251.88 457.89 283.07 470.2 286.79 470.2 252.36 456.61 248.65 456.61 196.56 456.61 196.56 456.61 192.84 456.61 141.62 456.61 159 463.47 144.85 457.89 196.08 457.89"/><path class="cls-44" d="M141.13,457.89l11.64,4.59,19.55,7.71h3.72l-17.05-6.73-17.38-6.86h-31.23c.69,.43,1.4,.85,2.14,1.28h28.61Z"/><path class="cls-44" d="M347.21,472.36h0l-2.23-.88h5.87c1.65-.42,3.27-.84,4.87-1.28h-13.97l5.47,2.16Z"/><polygon class="cls-44" points="230.5 471.47 230.5 471.47 252.65 480.22 230.5 471.47"/><path class="cls-44" d="M341.74,470.2h-110.75l21.37,8.43-18.14-7.16h107.03l3.62,1.43c.79-.18,1.57-.36,2.34-.54l-5.47-2.16Z"/><path class="cls-44" d="M261.52,482.25l-9.16-3.61-21.37-8.43h-86.7c1.59,.43,3.21,.86,4.86,1.28h81.35l22.15,8.74,5.31,2.1c1.19-.02,2.37-.04,3.56-.07Z"/></g><g><g><path class="cls-50" d="M358.24,430.74c0,1.34-5.87,2.43-13.11,2.43s-13.11-1.09-13.11-2.43,5.87-2.43,13.11-2.43,13.11,1.09,13.11,2.43Z"/><path class="cls-50" d="M354.53,430.24c0,1.07-4.21,1.93-9.4,1.93s-9.4-.87-9.4-1.93,4.21-1.93,9.4-1.93,9.4,.87,9.4,1.93Z"/><path class="cls-15" d="M339,429.65c.26-2.73-2.42-9.56-13.11-9.79,0,0,11.91-2.58,15.45,4.22,0,0-1.62-11-17.02-11.87,0,0,16.44-1.06,19.42,9.59,.78,2.8,1.01,4.12,1.01,4.12,0,0-2.15-15.73,1.41-16.32,0,0-.85,10.57,1.77,12.21,0,0-.33-7.46,6.29-7.88,0,0-5.23,5.46-4.12,11.58,0,0-.47-4.08,6.55-6.21,0,0-6.08,5.1-5.83,10.96,0,0-12.02,1.63-11.81-.61Z"/><path class="cls-17" d="M350.81,430.26c-2.51,.35-5.04,.63-7.59,.68-.64,0-1.28,0-1.91-.05-.64-.06-1.28-.13-1.9-.43-.15-.08-.3-.19-.42-.34-.05-.09-.1-.18-.12-.27,0-.11-.02-.2-.02-.27v-.48l-.04-.45c-.08-.61-.25-1.21-.5-1.78-.24-.57-.53-1.13-.89-1.63-.34-.52-.76-.99-1.19-1.43-.23-.21-.45-.43-.69-.63l-.74-.56c-.25-.18-.53-.33-.79-.49-.26-.17-.54-.31-.83-.44-.28-.13-.56-.27-.85-.39l-.89-.31c-.58-.23-1.21-.32-1.81-.48-.61-.11-1.24-.19-1.86-.28l-1.88-.11-1.95-.11,1.9-.38c1.42-.28,2.85-.43,4.29-.48,1.44-.04,2.88,.03,4.31,.28,1.42,.26,2.83,.68,4.09,1.43,.32,.18,.62,.39,.91,.61,.29,.22,.56,.47,.82,.73,.25,.27,.5,.54,.7,.85,.23,.29,.4,.62,.58,.93l-.43,.14c-.08-.43-.19-.88-.35-1.31-.13-.44-.33-.85-.5-1.28-.21-.41-.39-.83-.64-1.22-.23-.4-.47-.79-.75-1.15l-.4-.56-.46-.52-.46-.52c-.16-.16-.34-.31-.5-.47-.34-.31-.66-.64-1.05-.9-.37-.27-.73-.56-1.12-.81l-1.2-.69c-.39-.24-.84-.39-1.25-.59-.42-.18-.84-.4-1.29-.52l-1.32-.43c-.44-.17-.9-.22-1.35-.33l-1.36-.29-2.77-.33,2.78,.24,1.38,.25c.46,.1,.93,.14,1.37,.29l1.35,.39c.46,.11,.88,.32,1.31,.49,.43,.19,.88,.33,1.29,.57l1.23,.69c.4,.24,.77,.54,1.16,.8,.4,.26,.73,.59,1.09,.9,.18,.16,.36,.31,.53,.47l.48,.52,.48,.52,.43,.56c.3,.37,.55,.77,.8,1.17,.26,.39,.45,.83,.68,1.24,.19,.43,.39,.87,.53,1.32,.16,.45,.28,.9,.38,1.39l.25,1.26-.67-1.12c-.18-.29-.34-.6-.55-.87-.19-.29-.43-.54-.66-.79-.25-.24-.5-.48-.78-.68-.27-.21-.56-.41-.86-.58-1.2-.7-2.56-1.11-3.94-1.35-1.38-.24-2.8-.3-4.21-.25-1.41,.04-2.82,.18-4.2,.45l-.05-.49,1.92,.12c.63,.1,1.27,.18,1.9,.3,.62,.17,1.26,.26,1.86,.5l.91,.32c.3,.12,.59,.27,.88,.41,.3,.13,.58,.28,.85,.46,.27,.17,.56,.32,.82,.52l.77,.59c.25,.21,.47,.44,.71,.67,.45,.46,.87,.96,1.22,1.51,.36,.54,.66,1.12,.9,1.72,.24,.6,.41,1.23,.49,1.88l.04,.5v.48c-.02,.18,0,.25,.06,.36,.08,.1,.19,.18,.31,.25,.53,.26,1.17,.35,1.79,.42,.63,.06,1.26,.09,1.89,.1,2.53,.02,5.07-.18,7.59-.46Z"/><path class="cls-17" d="M356.64,419.3s-.14,.15-.37,.4c-.24,.25-.56,.64-.95,1.09-.38,.46-.82,1-1.25,1.6-.23,.29-.43,.62-.65,.94-.22,.32-.42,.66-.63,.99-.19,.34-.39,.68-.56,1.03-.15,.35-.35,.68-.47,1.03-.12,.35-.29,.67-.37,.99-.09,.32-.21,.63-.26,.92-.05,.29-.11,.55-.17,.79-.04,.24-.05,.45-.07,.62-.04,.35-.06,.55-.06,.55,0,0-.01-.2-.04-.55,0-.18-.03-.39-.02-.64,.02-.24,.04-.52,.07-.83,.03-.31,.12-.62,.19-.97,.06-.35,.2-.69,.31-1.05,.11-.37,.29-.72,.45-1.09,.17-.36,.37-.71,.56-1.07,.22-.34,.43-.69,.66-1.01,.23-.32,.46-.64,.71-.93,.47-.59,.98-1.09,1.4-1.52,.87-.84,1.54-1.29,1.54-1.29Z"/><path class="cls-17" d="M350,424.91c.06,.2,.11,.4,.16,.6l-.13,.02c-.06-.42-.03-.84,.07-1.24,.08-.41,.26-.8,.44-1.17l.33-.53,.39-.49c.29-.3,.57-.61,.91-.85,.32-.27,.67-.48,1.02-.7,.17-.11,.37-.19,.55-.29,.18-.09,.37-.18,.56-.26l.58-.21c.19-.06,.38-.14,.58-.19,.4-.09,.79-.2,1.19-.28-.36,.18-.74,.34-1.1,.5l-1.07,.54-.51,.3c-.17,.1-.35,.19-.51,.3-.32,.23-.66,.43-.95,.69-.15,.13-.31,.24-.44,.38-.14,.14-.29,.27-.42,.41l-.38,.44-.33,.47c-.2,.33-.39,.67-.51,1.04-.13,.36-.23,.75-.25,1.14l-.13,.02c-.01-.2-.02-.41-.02-.62Z"/><path class="cls-17" d="M354.21,413.93s-.46,.61-1.07,1.55c-.31,.47-.64,1.04-.98,1.65-.34,.61-.67,1.28-.95,1.97-.13,.35-.3,.68-.4,1.03-.11,.35-.24,.68-.32,1.02-.09,.34-.19,.66-.24,.98-.05,.31-.13,.61-.15,.89-.02,.28-.06,.53-.09,.76,0,.23,0,.43-.01,.59-.01,.33-.02,.52-.02,.52,0,0-.03-.19-.08-.52-.02-.17-.05-.37-.08-.6,0-.23-.02-.5-.01-.78-.01-.29,.03-.6,.06-.93,.02-.33,.08-.67,.16-1.03,.07-.36,.17-.71,.29-1.07,.1-.37,.26-.72,.39-1.08,.3-.71,.65-1.39,1.04-2,.37-.61,.78-1.14,1.14-1.59,.72-.89,1.31-1.38,1.31-1.38Z"/><path class="cls-17" d="M347.5,421.44c.14,.13,.3,.24,.45,.33l-.08,.05c-.05-.47-.06-.95-.01-1.42,.03-.48,.1-.95,.2-1.42,.05-.24,.12-.47,.19-.69,.06-.23,.15-.46,.25-.68,.1-.22,.19-.45,.32-.65,.13-.21,.22-.43,.38-.62,.15-.19,.3-.39,.45-.57l.53-.51c.18-.17,.4-.28,.59-.43,.19-.15,.42-.25,.64-.34,.23-.09,.44-.21,.67-.27l.7-.17c.23-.06,.47-.06,.71-.08,.24-.01,.47-.02,.71-.03-.23,.06-.46,.11-.69,.16-.23,.05-.46,.08-.67,.18l-.65,.23c-.22,.08-.4,.21-.61,.31l-.3,.16-.27,.2c-.17,.14-.37,.26-.53,.42l-.47,.48c-.14,.17-.27,.36-.41,.54-.14,.17-.24,.38-.36,.57-.12,.19-.21,.4-.31,.6-.1,.2-.19,.41-.26,.63-.08,.21-.16,.43-.22,.65-.14,.44-.25,.89-.33,1.34-.07,.46-.15,.92-.18,1.38v.11l-.08-.06c-.16-.13-.28-.27-.39-.42Z"/><path class="cls-17" d="M346.14,409.74s.03,.75,.06,1.87c.02,.56,.03,1.21,.06,1.91,.03,.7,.04,1.44,.1,2.18,.03,.74,.11,1.48,.18,2.17,.09,.68,.17,1.33,.31,1.86,.08,.26,.12,.52,.2,.72,.08,.21,.13,.4,.21,.54,.16,.29,.25,.45,.25,.45,0,0-.12-.14-.33-.4-.11-.13-.19-.31-.31-.52-.13-.2-.2-.45-.31-.72-.11-.27-.17-.57-.27-.88-.08-.32-.15-.65-.22-1-.05-.35-.12-.71-.15-1.08-.04-.37-.08-.75-.09-1.12-.04-.75-.05-1.5-.03-2.21,.01-.7,.07-1.36,.11-1.92,.1-1.12,.24-1.86,.24-1.86Z"/><path class="cls-17" d="M344.56,425.03l.24,.88-.11,.02c-.27-1.4-.44-2.81-.6-4.23-.14-1.42-.23-2.84-.24-4.27,0-1.43,.03-2.86,.27-4.28,.06-.35,.13-.71,.22-1.06,.09-.35,.19-.7,.33-1.03,.13-.34,.33-.65,.56-.94,.25-.27,.57-.49,.93-.53h.01l-.02,.15v-.14h.01c-.35,.11-.61,.34-.82,.61-.19,.29-.34,.6-.43,.94-.11,.33-.19,.67-.25,1.01-.07,.34-.11,.69-.15,1.04-.14,1.4-.16,2.81-.14,4.22,.02,1.41,.08,2.83,.16,4.24,.06,1.42,.18,2.83,.27,4.25l-.11,.02-.13-.9Z"/><path class="cls-17" d="M324.32,412.21s1.66-.2,4.17-.04c1.25,.08,2.71,.23,4.25,.58,1.54,.34,3.16,.84,4.68,1.58,.76,.37,1.48,.82,2.17,1.3,.66,.51,1.3,1.03,1.83,1.63,.28,.28,.51,.61,.75,.9,.21,.32,.42,.63,.6,.94,.35,.64,.63,1.27,.84,1.87,.09,.3,.19,.59,.26,.87,.06,.28,.12,.54,.17,.79,.11,.5,.2,.93,.28,1.29,.15,.71,.23,1.12,.23,1.12,0,0-.12-.4-.33-1.1-.1-.35-.23-.77-.37-1.26-.14-.49-.3-1.03-.52-1.61-.22-.57-.52-1.17-.88-1.77-.38-.59-.83-1.18-1.36-1.73-.51-.57-1.14-1.06-1.78-1.54-.67-.45-1.37-.88-2.11-1.22-1.47-.73-3.05-1.25-4.55-1.6-1.51-.36-2.94-.6-4.18-.73-2.47-.28-4.15-.25-4.15-.25Z"/></g><path class="cls-18" d="M339,429.65c-.21,2.23,11.81,.61,11.81,.61-.25-5.86,5.83-10.96,5.83-10.96-2.34,.94-3.76,3.4-4.79,5.22-1.03,1.82-1.74,2.31-1.9,1.4-.15-.84-.14-1.62,0-2.34,.1-5.29,4.27-9.64,4.27-9.64-.03,0-.05,0-.08,0-1.68,.9-3.54,3.3-3.92,4.98-.6,2.63-2.07,7.88-4.08,6.48-2.01-1.4-1.36-8.4-1.36-10.68,0-1.74,.73-4.04,1.08-5.02-2.46,1.11-1.74,10.48-1.32,14.45,.14,.59,.25,1.09,.35,1.45,.65,2.52-1.8,5.18-1.36,2.31,.44-2.87-2.61-9.98-7.56-13.16-3.13-2.01-8.13-2.46-11.38-2.52,15.16,.98,16.76,11.85,16.76,11.85-.11-.21-.22-.4-.34-.59,1.05,2.32-.02,3.51-1.45,1.21-1.37-2.2-4.86-3.55-9.14-4.26,6.95,1.73,8.81,6.93,8.59,9.22Z"/></g></g><g id="Laag_2"><g><g><path class="cls-38" d="M225.95,251.8c-.42-3.15-1.36-6.4-2.82-9.74-1.32-3.01-4.82-4.38-7.83-3.06-3.01,1.32-4.38,4.82-3.06,7.83,3.42,7.81,2.68,13.65-2.47,19.54-5.16,5.91-13.97,10.83-22.48,15.59-12.61,7.05-24.52,13.71-27.57,24.63-1.51,5.38-.59,11.08,2.72,16.95,5.02,8.88,7.98,18.26,8.55,27.14,.56,8.5-1.14,15.76-4.89,20.98-7.31,10.16-20.73,10-30.7,8.07-3.22-.62-6.34,1.48-6.96,4.7-.62,3.22,1.48,6.34,4.7,6.96,9.63,1.86,18.22,1.65,25.53-.64,7.13-2.23,12.87-6.32,17.08-12.16,5.39-7.49,7.84-17.41,7.11-28.7-.69-10.65-4.18-21.79-10.07-32.21-1.73-3.05-2.26-5.63-1.62-7.89,1.73-6.16,12-11.91,21.93-17.46,9.39-5.25,19.11-10.69,25.62-18.15,5.89-6.74,8.3-14.24,7.22-22.39Z"/><path class="cls-27" d="M133.15,391.39c-1.33-.26-2.46-.94-3.3-1.88,8.28,1.21,17.12,1.29,23.58-.73,7.13-2.23,12.87-6.32,17.08-12.16,5.39-7.49,7.84-17.41,7.11-28.7-.69-10.65-4.18-21.79-10.07-32.21-1.73-3.05-2.26-5.63-1.62-7.89,1.73-6.16,10.6-12.39,20.54-17.94,9.39-5.25,19.11-10.69,25.62-18.15,5.89-6.74,8.3-14.24,7.22-22.39-.42-3.15-1.36-6.4-2.82-9.74-.13-.31-.3-.59-.47-.86,2.83-.84,5.91,.54,7.12,3.31,1.46,3.34,2.4,6.59,2.82,9.74,1.08,8.15-1.34,15.65-7.22,22.39-6.52,7.46-16.23,12.89-25.62,18.15-9.93,5.56-20.21,11.3-21.93,17.46-.63,2.26-.1,4.84,1.62,7.89,5.89,10.42,9.37,21.56,10.07,32.21,.74,11.29-1.72,21.21-7.11,28.7-4.2,5.84-9.95,9.93-17.08,12.16-7.32,2.29-15.91,2.5-25.53,.64Z"/><rect class="cls-46" x="199.31" y="84.08" width="23.13" height="9.91" transform="translate(421.75 178.07) rotate(-180)"/><path class="cls-42" d="M321.06,151.36c-6.34-9.07-13.6-14.25-14.17-13.73s3.13,8.58,13.68,15.1l1.1,.31-.61-1.68Z"/><path class="cls-22" d="M245.55,103.55s.54-5.42-.16-6.72c-.17-.32-.8-.22-1.9-.96h0s11.24,5.18,12.15,7.87c.91,2.69,.84,14.4,1.63,17.75,.79,3.36,14.94,35.98,15.62,36.1s1.66-1.31,2.53-.93c.87,.38,.45,2.61,.45,2.61,0,0,3.21-.81,6.86-2.69,3.65-1.88,20.56-16.79,20.56-16.79,0,0,.45-.84,.91-.76s.83,.26,.83,.26c0,0-.58,1.85,1.21,4.53,1.8,2.67,8.25,9.74,10.02,10.63,1.78,.89,3.42,.61,3.42,.61,0,0,2.59,2.19,2.3,2.48-.29,.29-4.88,1.54-6.35,2.49-1.47,.94-19.12,19.18-26.86,24.98-7.74,5.8-19.61,11.05-20.92,10.81s-18.59-21.52-23.99-34.2c-2.16-5.07-4.16-8.74-5.8-11.34,.13-.46,.27-.91,.4-1.35,3.7-12.21,5.92-27.9,7.07-45.39Z"/><path class="cls-26" d="M316.28,154.46c-1.78-.89-8.23-7.96-10.02-10.63-1.65-2.46-1.3-4.2-1.23-4.47l1.86-1.72s2.76,4.59,5.88,7.77c3.11,3.18,8.44,7.28,8.47,7.11s-.18-1.15-.18-1.15c0,0,1.72,2.12,1.23,2.42-.23,.14-1.42,.72-2.62,1.3-.2,.03-1.72,.22-3.38-.61Z"/><path class="cls-38" d="M308.13,139.56c.47-.42,1.24-1.27,1.4-2.57,.22-1.9,2.03-11.57,2.89-12.84,.86-1.27,3.22-3.78,3.97-5.15,.74-1.38,3.13-2.59,3.96-4.16,.83-1.58,1.86-4.54,2.38-4.49,.52,.05,3.04,2.87,2.98,5.31-.06,2.45-1.73,5.47-2.81,6.52-1.08,1.06-2.26,2.66-1.97,3.7,.29,1.04,12.41-.46,15.92-1.05,3.51-.58,11.39,2.11,12.81,3.06,1.41,.94,1.81,2.39,1.81,2.39,0,0,3.34,.34,4.68,1.87,1.35,1.53-1.02,3.31-1.02,3.31,0,0,.93,3.01,.36,3.6-.57,.59-2.12,.87-2.12,.87,0,0-.17,2.34-.81,2.66-.63,.32-10.77,1.87-12.71,2.31-1.93,.43-14.4,2.39-17.52,3-1.9,.37-3.52,1.34-4.51,2.05-1.66-1.36-3.59-3.04-5.05-4.53-1.83-1.87-3.54-4.22-4.63-5.85Z"/><g><path class="cls-29" d="M341.36,138.74c1.25-.13,2.52-.26,3.8-.18,2.53,.16,5.02,.57,7.47,1.19-2.52-.12-5.02-.39-7.5-.51-1.23-.07-2.47,.02-3.72,.08l-3.76,.16h-.05l-.51-.42,.56,.29c1.23-.26,2.47-.43,3.72-.59Z"/><path class="cls-29" d="M345.19,133.79c3.21,.03,6.36,.67,9.35,1.68-3.12-.52-6.24-1.01-9.35-1.01-3.11,.07-6.25,.44-9.37,.87h-.05l-.37-.47,.42,.36c3.04-.85,6.18-1.38,9.37-1.44Z"/><path class="cls-29" d="M338.26,130.08l-4.15,.3c1.34-.36,2.71-.62,4.09-.82,1.37-.22,2.81-.27,4.2-.18,2.78,.17,5.53,.49,8.27,1.01-2.78,0-5.55-.19-8.31-.34-1.38-.1-2.72-.07-4.1,.02Z"/></g><path class="cls-27" d="M313.65,143.54s2.97,1.22,4.54,1.04c1.56-.18,5.56-2,9.79-2.62,4.24-.62,8.13,.59,8.44,.7,0,0,7.48-.8,11.56-.93,1.96-.06,3.72-.02,5.04,.05-.12,.38-.27,.7-.47,.8-.63,.32-10.77,1.87-12.71,2.31-1.93,.43-14.4,2.39-17.52,3-1.9,.37-3.52,1.34-4.51,2.05-1.66-1.36-3.59-3.04-5.05-4.53-.22-.23-.43-.48-.65-.72l1.54-1.15Z"/><path class="cls-19" d="M243.88,161.63c-2.16-5.07-4.16-8.74-5.8-11.34,.13-.46,.27-.91,.4-1.35,1.94-6.42,3.47-13.8,4.66-21.89,5.61,11.95,19.89,42.14,20.97,42.31,1.34,.22,3.76-.93,3.74,.67-.02,1.59-.73,3.89-.73,3.89,0,0,16.3-5.99,22.15-9.25,4.34-2.43,14.81-12.25,19.93-17.15,2.58,2.97,5.88,6.35,7.08,6.95,1.78,.89,3.42,.61,3.42,.61,0,0,2.59,2.19,2.3,2.48-.29,.29-4.88,1.54-6.35,2.49-1.47,.94-19.12,19.18-26.86,24.98-7.74,5.8-19.61,11.05-20.92,10.81s-18.59-21.52-23.99-34.2Z"/><path class="cls-52" d="M188.91,89.75l2.07-1.16,2.86-8.59,14.87,10.97h3.61l10.31-4.43,4.73,5.22,2.3,.88c-.69,4.48-2.72,17.08-5.12,26.59-1.97,7.79-5.38,17.76-7.45,23.61-3.31-5.6-7.53-12.92-10.23-18.18-4.36-8.5-15.27-29.72-17.94-34.9Z"/><path class="cls-26" d="M204.63,111.42c0-1.68-1.63-4.15-2.53-4.86-.91-.71-8.73-15.23-8.73-15.23l17.9,7.98,14.7-7.98s-4.5,18.93-2.51,20.08c.62,.36,1.96-1.11,3.51-3.3-.73,3.75-1.56,7.64-2.43,11.11-1.97,7.79-5.38,17.76-7.45,23.61-3.31-5.6-7.53-12.92-10.23-18.18-1.3-2.53-3.18-6.19-5.25-10.22,4.46,.93,3.03-1.56,3.03-3.01Z"/><path class="cls-22" d="M222.02,151.1s-15.98-21.25-23.17-33.23c-7.18-11.98-13.27-26.9-13.27-26.9,0,0-16.38,6.1-17.08,7.91-.69,1.81-4.17,19.67,1.62,41.6,5.79,21.93,19,63.08,18.3,68.95-.69,5.88-3.94,19.6-3.94,19.6,0,0,8.8,4.97,15.06,6.1,6.25,1.13,10.76,0,10.76,0l15.65-23.74s-.46-18.24-1.85-33.84c-1.39-15.6-2.09-26.45-2.09-26.45Z"/><path class="cls-22" d="M224.11,177.56c-1.39-15.6-2.09-26.45-2.09-26.45,0,0-2.02-2.69-4.94-6.68,2.7-5.04,7.89-14.8,11.2-21.58,4.63-9.5,6.8-30.07,6.8-30.07,0,0,11.73,4.01,12.66,5.17,.93,1.16,1.39,6.58,1.39,6.58,2.08,17.41,2.78,33.23,1.39,45.89-1.39,12.66-2.29,36.85-.33,45.44,1.96,8.59,8.91,27.06,8.91,27.06,0,0-6.26,7.01-13.9,9.49-7.64,2.49-15.99,2.71-15.99,2.71l-6.85-18.26,3.61-5.48s-.46-18.24-1.85-33.84Z"/><path class="cls-19" d="M173.58,409.62s1.61-54.96,2.3-61.97c.69-7.01,5.98-28.35,7.13-34.56,1.15-6.22-2.51-45.62-2.74-49.47-.23-3.84-2.3-14.24-2.3-14.24,0,0,3.65-13.09,8.67-19.63,2.67,1.42,8.88,4.52,13.62,5.39,6.21,1.13,10.68,0,10.68,0l15.53-23.74-3.58,5.48,6.8,18.26s8.28-.23,15.86-2.71c5.88-1.93,10.92-6.56,12.89-8.55,1.95,6.24,6.29,20.4,6.65,23.81,.46,4.41-1.05,39.97-2.32,48.11-1.26,8.14-2.76,17.3-2.99,21.59-.23,4.29-2.07,71.55-1.49,77.43,.57,5.88,9.54,23.29,9.2,23.85-.34,.57-3.43,2.71-3.43,2.71,0,0-1.05-2.03-1.97-2.03s-12.76,1.58-18.62,3.17c-5.86,1.58-13.22,3.5-13.22,3.5,0,0-.35-16.39-.46-18.88-.12-2.49-3.79-38.77-4.48-47.25-.69-8.48,1.49-17.93,1.84-19.4,.35-1.47,.46-13.34,1.26-14.58,.81-1.24,1.61-9.65,1.61-9.65,0,0-1.83-13.25-2.29-21.39-.46-8.14-2.4-43.67-3.09-43.45-.69,.23-1.72,1.24-2.3,5.09-.57,3.84-9.1,52.41-10.13,58.51-1.03,6.1-1.84,10.29-2.87,14.36-1.04,4.07-2.18,19.1-3.1,30.75-.92,11.64-2.76,31.99-2.3,38.09,.46,6.1-.35,23.06,.57,24.75,.92,1.7-3.45,3.05-3.45,3.05,0,0,0-3.39-4.6-6.67-4.6-3.28-21.84,4.75-21.84,4.75,0,0-2.3-7.23-2.3-9.04s1.26-5.43,1.26-5.43Z"/><path class="cls-22" d="M265.33,418.66c.35-.57-8.62-17.97-9.2-23.85-.57-5.88,1.26-73.14,1.49-77.43,.23-4.29,1.73-13.45,2.99-21.59,1.27-8.14,2.78-43.7,2.32-48.11-.33-3.15-4.05-15.45-6.16-22.23,.68-.61,1.24-1.16,1.66-1.58,1.95,6.24,6.29,20.4,6.65,23.81,.46,4.41-1.05,39.97-2.32,48.11-1.26,8.14-2.76,17.3-2.99,21.59-.23,4.29-2.07,71.55-1.49,77.43,.57,5.88,9.54,23.29,9.2,23.85-.34,.57-3.43,2.71-3.43,2.71,0,0-.28-.54-.68-1.06,.85-.63,1.78-1.35,1.96-1.65Z"/><path class="cls-22" d="M202.34,422.96c-.92-1.69-.11-18.65-.57-24.75-.46-6.1,1.38-26.45,2.3-38.09,.92-11.64,2.07-26.68,3.1-30.75,1.03-4.07,1.84-8.25,2.87-14.36,1.04-6.1,9.56-54.67,10.13-58.51,.58-3.84,1.61-4.86,2.3-5.09,.11-.04,.21,1.07,.29,2.98-.16,.59-.31,1.28-.43,2.11-.57,3.84-9.1,52.41-10.13,58.51-1.03,6.1-1.84,10.29-2.87,14.36-1.04,4.07-2.18,19.1-3.1,30.75-.92,11.64-2.76,31.99-2.3,38.09,.46,6.1-.35,23.06,.57,24.75,.92,1.7-3.45,3.05-3.45,3.05,0,0,0-.32-.13-.86,1-.55,1.9-1.33,1.43-2.19Z"/><path class="cls-45" d="M198.59,235.13c-3.91-.72-8.82-3.02-11.86-4.58,.19-.28,.38-.55,.58-.81,2.62,1.42,8.73,4.52,13.4,5.39,1.58,.29,3.05,.43,4.36,.48-1.75,.07-3.96-.01-6.48-.48Z"/><path class="cls-45" d="M220.96,218.97l5-7.58-3.61,5.48,6.81,18.13c-1.33,.1-2.13,.13-2.13,.13l-6.07-16.16Z"/><path class="cls-25" d="M229.76,235.13l-.05-.13c2.88-.23,8.32-.87,13.45-2.59,5.75-1.93,10.68-6.56,12.61-8.55,.15,.48,.31,1.02,.48,1.58-2.45,2.26-6.45,5.45-10.98,6.97-7.42,2.49-15.51,2.71-15.51,2.71Z"/><path class="cls-37" d="M262.11,419.36c.62,.98,1.3,2.03,1.7,2.5,.86,1.02,15.26,4.24,17.33,5.43,2.07,1.19,5.43,6.02,5.43,6.02,0,0-11.55,3.39-19.83,1.98-8.44-1.44-7.33-1.81-15.43-2.75-8.1-.93-19.14,1.78-19.05-.85,.04-1.25,.45-3.92,.87-6.37,2.67-.7,6.92-1.83,10.59-2.82,5.57-1.5,16.53-3.01,18.38-3.15Z"/><path class="cls-33" d="M232.26,431.69c0-.21,.03-.47,.05-.75l.17,1.27c-.13-.15-.22-.32-.22-.53Z"/><path class="cls-33" d="M232.28,430.71h.05c0,.08-.02,.16-.02,.24l-.03-.24Z"/><path class="cls-41" d="M244.67,432.4v2.82s-1.64,.17-6.38,0c-4.74-.17-5.52-.68-5.52-.68l-.3-2.31c1.08,1.2,6.47,.41,12.2,.17Z"/><path class="cls-37" d="M196.72,419.34c4.6,3.28,4.6,6.67,4.6,6.67,0,0,.02,0,.05-.02,.34,2.9,.64,5.95,.47,6.62-.35,1.36-2.67,4.84-6.64,7.38-3.96,2.54-20.6-7.21-20.6-8.56,0-.9,.31-4.89,.51-7.45,2.01-.91,17.32-7.71,21.62-4.65Z"/><path class="cls-26" d="M211.83,90.97c-.64,0-7.36,12.21-8.05,12.15-.7-.06-6.43-5.93-9.21-9.38-2.78-3.45-3.53-5.32-3.53-5.32l2.77-8.87s5.17,4.24,8.74,6.87c3.57,2.63,9.28,4.54,9.28,4.54Z"/><path class="cls-26" d="M212.31,90.97s8.15,13.28,8.61,13.22c.46-.06,3.13-5.65,4.52-8.59,1.39-2.94,2.09-4.27,2.09-4.27l-4.54-5.78s-5.76,3.31-7.39,4.01c-1.63,.7-3.28,1.41-3.28,1.41Z"/><path class="cls-14" d="M211.83,90.97h.48s3.49,5.69,6.03,9.6l-2.23,3.62s-1.5-.96-3.36-.56c-1.85,.39-3.42,1.36-3.42,1.36l-3.51-4.66c2.25-3.59,5.57-9.36,6-9.36Z"/><path class="cls-14" d="M217.07,142.83c-2.9-4.91-6.5-11.14-9.16-16.15l1.43-21.7s1.56-.96,3.42-1.36c1.85-.4,3.36,.56,3.36,.56l.15-.24c1.48,5.5,4.35,16.16,6.1,22.97-1.79,5.89-3.86,11.88-5.29,15.91Z"/><path class="cls-19" d="M188.31,88.59s13.55,26.34,18.53,36.06c4.98,9.72,15.18,26.45,15.18,26.45,0,0-18.3-14.69-28.15-27.02-9.85-12.32-17.61-30.18-17.61-30.18,0,0,4.98-1.64,7.07-2.57,2.09-.93,4.98-2.74,4.98-2.74Z"/><path class="cls-19" d="M224.53,119.23c2.97-11.76,5.37-28.26,5.37-28.26l3.71,.9c3.71,.9,10.08,2.37,10.08,2.37,0,0-4.4,19.33-9.85,29.05-3.87,6.92-11.62,16.36-15.77,21.22-.32-.54-.66-1.1-1-1.69,2.08-5.84,5.49-15.81,7.45-23.61Z"/><path class="cls-51" d="M212.23,158.81c0,1.73,1.44,3.14,3.21,3.14s3.21-1.4,3.21-3.14-1.44-3.14-3.21-3.14-3.21,1.4-3.21,3.14Z"/><path class="cls-51" d="M213.86,181.69c0,1.73,1.44,3.14,3.21,3.14s3.21-1.4,3.21-3.14-1.44-3.14-3.21-3.14-3.21,1.4-3.21,3.14Z"/><path class="cls-51" d="M215.5,204.57c0,1.73,1.44,3.14,3.21,3.14s3.21-1.4,3.21-3.14-1.44-3.14-3.21-3.14-3.21,1.4-3.21,3.14Z"/><path class="cls-42" d="M194.57,93.74c-2.78-3.45-3.53-5.32-3.53-5.32l.03-.1c2.84,1.66,12.05,6.76,12.21,3.4,.15-3.38-7.36-9.8-9.63-11.65l.16-.52s5.17,4.24,8.74,6.87c3.57,2.63,9.28,4.54,9.28,4.54-.64,0-7.36,12.21-8.05,12.15-.7-.06-6.43-5.93-9.21-9.38Z"/><path class="cls-42" d="M215.59,89.56c1.48-.64,6.37-3.42,7.24-3.92-1.85,2.18-4.71,6.03-4.49,8.73,.17,2.11,4.49,.37,8.52-1.72-.34,.69-.81,1.66-1.42,2.95-1.39,2.94-4.05,8.53-4.52,8.59-.46,.06-8.61-13.22-8.61-13.22,0,0,1.65-.71,3.28-1.41Z"/><path class="cls-49" d="M212.31,93.14s3.72,4.33,3.45,6.18-1.29,1.77-3.45,1.94c-2.16,.18-2.76,.62-3.46,0-.7-.62-.09-1.89,.42-3.28s3.03-5.2,3.03-5.2"/><path class="cls-49" d="M215.13,106.21c2.44,9.72,5.61,21.99,3.21,24.82-2.4,2.83-7.45-1.86-8.18-4.59-.73-2.74-.06-20.34,.8-21.45,.87-1.11,3.31-.43,3.56,0s.61,1.22,.61,1.22Z"/><path class="cls-51" d="M218.07,144.52c-.32-.54-.66-1.1-1-1.69,2.08-5.84,5.49-15.81,7.45-23.61,2.97-11.76,5.37-28.26,5.37-28.26,0,0,0,0,.99,.24-.97,6.56-3.16,23.49,.13,23.92,2.79,.36,8.82-12.69,12.35-20.96,.2,.05,.32,.07,.32,.07,0,0-4.4,19.33-9.85,29.05-3.87,6.92-11.62,16.36-15.77,21.22Z"/><path class="cls-51" d="M178.33,93.21c3.85,7.88,16.92,33.82,20.81,31.46,3.7-2.25-7.37-26.34-11.76-35.51,.57-.34,.93-.57,.93-.57,0,0,13.55,26.34,18.53,36.06,4.98,9.72,15.18,26.45,15.18,26.45,0,0-18.3-14.69-28.15-27.02-9.85-12.32-17.61-30.18-17.61-30.18,0,0,.89-.29,2.07-.7Z"/><path class="cls-19" d="M199.55,235.13c-6.25-1.13-15.06-6.1-15.06-6.1,0,0,3.24-13.72,3.94-19.6,.56-4.74-7.93-32.46-14.27-54.51,2.54-7.61,4.16-12.44,4.16-12.44,0,0,22.96,45.08,24.32,58.95,1.36,13.86,2.83,21.91,7.52,21.12,4.7-.79,15.76-13,15.76-13h0c.03,1.17,.04,1.85,.04,1.85l-15.65,23.74s-4.5,1.13-10.76,0Z"/><path class="cls-19" d="M225.96,211.4s-.01-.67-.04-1.85c0,0,19.35,13.48,20.98,1.85,1.63-11.64,0-25.47,0-25.47l2.18-4.03c.08,5.83,.41,10.9,1.11,13.97,1.96,8.59,8.91,27.06,8.91,27.06,0,0-6.26,7.01-13.9,9.49-7.64,2.49-15.99,2.71-15.99,2.71l-6.85-18.26,3.61-5.48Z"/><path class="cls-51" d="M180.6,239.38c1.43-3.43,3.22-7.05,5.22-9.64,2.69,1.42,8.95,4.52,13.73,5.39,6.25,1.13,10.76,0,10.76,0l15.65-23.74-3.61,5.48,6.85,18.26s8.34-.23,15.99-2.71c5.93-1.93,11-6.56,12.99-8.55,.97,3.09,2.54,8.14,3.92,12.85-5.78,2.23-19.05,7.24-25.52,8.87-8.42,2.12-14.23,0-14.23,0l-2.06-13.78-10.05,14.72s-6.25,.65-18.74-2.53c-4.65-1.18-8.23-2.91-10.91-4.62Z"/><path class="cls-51" d="M224.63,251.41c-.69,.23-1.72,1.24-2.3,5.09-.02,.13-.05,.33-.1,.59,.5-4.15,1.64-7.85,4.24-6.28,5.24,3.18,10.92,13.07,12.03,24.03,1.11,10.95,1.97,44.99,1.97,48.16,0,3.18-3.23,38.16-2.16,58.3,1.08,20.14,6.48,35.89,13.48,39.5h0c-3.02,.51-6.11,1.11-8.33,1.71-5.86,1.58-13.22,3.5-13.22,3.5,0,0-.35-16.39-.46-18.88-.12-2.49-3.79-38.77-4.48-47.25-.69-8.48,1.49-17.93,1.84-19.4,.35-1.47,.46-13.34,1.26-14.58,.81-1.24,1.61-9.65,1.61-9.65,0,0-1.83-13.25-2.29-21.39-.46-8.14-2.4-43.67-3.09-43.45Z"/><path class="cls-51" d="M201.05,426.01s0-3.39-4.6-6.67c-4.6-3.28-21.84,4.75-21.84,4.75,0,0-2.3-7.23-2.3-9.04s1.26-5.43,1.26-5.43c0,0,1.61-54.96,2.3-61.97,.69-7.01,5.98-28.35,7.13-34.56,1.15-6.22-2.51-45.62-2.74-49.47-.23-3.84-2.3-14.24-2.3-14.24,0,0,3.65-13.09,8.67-19.63,2.09,1.11,6.33,3.24,10.35,4.53l.15,1.35s-7.46,18.81-8.18,31.83c-.72,13.02,5.53,49.17,3.01,56.24-2.51,7.07-10.45,84.44-7.54,90.09,2.9,5.65,5.39,2.83,10.78,0,2.83-1.48,6.34,3.24,9.05,8.07,.06,.52,.14,.9,.24,1.08,.92,1.7-3.45,3.05-3.45,3.05Z"/><path class="cls-26" d="M188.9,233.37l3.42,5.58s-.24,9.03-14.17,11.81l-2.35-3.79,13.11-13.59Z"/><path class="cls-22" d="M177.54,97.95c6.72,12.69,5.79,30.55,3.25,37.78-2.55,7.23-14.25,37.98-14.25,37.98,0,0,.25,2.26,.3,3.84,.05,1.58-.3,3.84-.3,3.84,0,0,3.94,2.43,3.68,4.72-.26,2.29-.43,4.49-.43,4.49,0,0,10.34,21.8,12.51,26.89,2.17,5.09,7.39,15.35,7.39,15.35,0,0,1.39,6.44-3.22,10.85-4.6,4.41-10.95,4.58-10.95,4.58,0,0-27.63-40.68-31.45-46.61-3.82-5.94-5.04-10.85-5.04-11.7s15.98-58.02,18.24-65.99c2.26-7.97,3.99-25.75,15.92-27.92,4.06-.74,4.35,1.9,4.35,1.9Z"/><path class="cls-19" d="M170.6,222.55c0-9.54-17.65-31.63-16.84-39.58,.69-6.75,21.93-42.28,28.33-52.86-.33,2.23-.78,4.15-1.3,5.63-2.55,7.23-14.25,37.98-14.25,37.98,0,0,.25,2.26,.3,3.84,.05,1.58-.3,3.84-.3,3.84,0,0,3.94,2.43,3.68,4.72-.26,2.29-.43,4.49-.43,4.49,0,0,10.34,21.8,12.51,26.89,2.17,5.09,7.39,15.35,7.39,15.35,0,0,1.39,6.44-3.22,10.85-4.6,4.41-10.95,4.58-10.95,4.58,0,0-9.6-14.04-17.88-26.53,6.5,2.59,12.96,4.68,12.96,.8Z"/><path class="cls-41" d="M243.73,422.51c5.57-1.5,16.53-3.01,18.38-3.15,.4,.64,.83,1.3,1.19,1.82-2.88,.55-8.59,1.98-10.18,4.83-2.16,3.86,14.91,6.79,19.04,6.21,2.43-.34,7.97-1.23,12.12-1.9,1.26,1.51,2.28,2.98,2.28,2.98,0,0-11.55,3.39-19.83,1.98-8.44-1.44-7.33-1.81-15.43-2.75-8.1-.93-19.14,1.78-19.05-.85,.04-1.25,.45-3.92,.87-6.37,2.67-.7,6.92-1.83,10.59-2.82Z"/><path class="cls-41" d="M186.87,438.74c-5.83-2.36-12.29-6.46-12.29-7.3,0-.9,.31-4.89,.51-7.45,2.01-.91,17.32-7.71,21.62-4.65,4.6,3.28,4.6,6.67,4.6,6.67,0,0,.02,0,.05-.02,.18,1.57,.35,3.18,.44,4.43-1.32-2.99-3.61-5.89-7.6-6.38-8.62-1.06-9.96,8.75-8.98,11.58,.26,.75,.88,1.88,1.65,3.11Z"/><g><path class="cls-38" d="M180.01,40.92c-.48,2.45-.63,4.96-.45,7.45l.04,.52c.26,3.01,.12,6.03-.33,9.02-1.43-.39-2.93-1.28-4.42-2.9-3.93-4.27-3.28-11.66,1.01-13.71,1.63-.77,3.04-.74,4.16-.4,0,.01,0,.02,0,.03Z"/><path class="cls-43" d="M180.01,40.92c-.48,2.45-.63,4.96-.45,7.45l.04,.52c.26,3.01,.12,6.03-.33,9.02-1.43-.39-2.93-1.28-4.42-2.9-3.93-4.27-3.28-11.66,1.01-13.71,1.63-.77,3.04-.74,4.16-.4,0,.01,0,.02,0,.03Z"/><path class="cls-38" d="M247.17,49.58c-1.23,1.83-2.59,2.93-3.94,3.53-.89-2.88-1.49-5.85-1.68-8.87l-.04-.52c-.2-2.5-.73-4.96-1.57-7.33,1.06-.51,2.45-.75,4.18-.23,4.55,1.39,6.3,8.59,3.05,13.41Z"/><path class="cls-43" d="M247.17,49.58c-1.23,1.83-2.59,2.93-3.94,3.53-.89-2.88-1.49-5.85-1.68-8.87l-.04-.52c-.2-2.5-.73-4.96-1.57-7.33,1.06-.51,2.45-.75,4.18-.23,4.55,1.39,6.3,8.59,3.05,13.41Z"/><path class="cls-38" d="M233.63,53.92c-1.15,2.14-1.32,4.69-.37,6.94,.72,1.69,1.39,3.61,1.5,5.07,.8,10.68-8.67,20.1-21.16,21.04-12.49,.94-23.26-6.96-24.06-17.65-.11-1.46,.27-3.46,.73-5.24,.61-2.36,.06-4.87-1.4-6.81-.35-.47-.67-.96-.95-1.47-.86-1.55-1.37-3.28-1.51-5.05-.53-7.09,5.08-13.3,12.53-13.86,2.41-.19,4.82,.25,7.01,1.28,2.57,1.21,5.58,.99,7.94-.59,2.01-1.34,4.33-2.13,6.74-2.3,7.45-.56,13.92,4.74,14.46,11.83,.14,1.77-.11,3.55-.73,5.22-.2,.55-.45,1.08-.73,1.6Z"/><path class="cls-43" d="M233.63,53.92c-1.15,2.14-1.32,4.69-.37,6.94,.72,1.69,1.39,3.61,1.5,5.07,.8,10.68-8.67,20.1-21.16,21.04-12.49,.94-23.26-6.96-24.06-17.65-.11-1.46,.27-3.46,.73-5.24,.61-2.36,.06-4.87-1.4-6.81-.35-.47-.67-.96-.95-1.47-.86-1.55-1.37-3.28-1.51-5.05-.53-7.09,5.08-13.3,12.53-13.86,2.41-.19,4.82,.25,7.01,1.28,2.57,1.21,5.58,.99,7.94-.59,2.01-1.34,4.33-2.13,6.74-2.3,7.45-.56,13.92,4.74,14.46,11.83,.14,1.77-.11,3.55-.73,5.22-.2,.55-.45,1.08-.73,1.6Z"/><path class="cls-28" d="M200.82,70.89c-.72,.05-1.26,.68-1.2,1.4,0,.06,.01,.11,.02,.17,1.23,5.66,6.99,9.68,13.57,9.19,6.58-.49,11.67-5.33,12.05-11.11,.04-.72-.51-1.33-1.23-1.37-.06,0-.11,0-.17,0l-23.03,1.73Z"/><path class="cls-10" d="M205.61,80.07c4.76,2.5,10.54,2.07,14.88-1.12-1.17-3.16-4.1-2.19-7.62-1.93s-6.56-.26-7.25,3.04Z"/><path class="cls-38" d="M245.47,33.67c-2.75-.84-4.84-.13-6.26,.84-.45-1.05-.94-2.07-1.5-3.06-.4-.73-.83-1.45-1.29-2.15-4.66-7.19-12.01-12.89-20.11-14.92l-.48-4.24-4.88,3.45c-.21,0-.41-.01-.62-.02-.38,0-.76,0-1.14,0l-.99-3.16-.29-.92c-.25,.02-.5,.05-.75,.08-4.73,.74-6.78,5.24-7.09,6.01-7.7,3.22-14.12,9.95-17.65,17.75-.35,.76-.66,1.53-.95,2.32-.4,1.07-.74,2.15-1.02,3.25-.06-.03-.13-.06-.2-.09-1.54-.68-3.63-.99-6.12,.2-5.46,2.61-6.29,11.99-1.3,17.42,2.04,2.21,4.09,3.35,6.02,3.78-.02,.11-.03,.22-.05,.32-.22,1.58-.28,3.18-.16,4.77,.83,11.03,9.67,19.91,21.65,23.21,2.81,.77,5.7,1.22,8.61,1.35,1.51,.07,3.03,.05,4.54-.05l.36-.03c18.3-1.37,32.22-14.56,31.11-29.45-.12-1.59-.41-3.16-.86-4.69-.03-.1-.06-.21-.1-.31,1.84-.72,3.7-2.15,5.38-4.64,4.13-6.11,1.91-15.26-3.87-17.02Zm-65.46,7.25c-.48,2.45-.63,4.96-.45,7.45l.04,.52c.26,3.01,.12,6.03-.33,9.02-1.43-.39-2.93-1.28-4.42-2.9-3.93-4.27-3.28-11.66,1.01-13.71,1.63-.77,3.04-.74,4.16-.4,0,.01,0,.02,0,.03Zm54.34,11.41c-.2,.55-.44,1.08-.72,1.6-1.15,2.14-1.32,4.69-.37,6.94,.72,1.69,1.39,3.61,1.5,5.07,.8,10.68-8.67,20.1-21.16,21.04-12.49,.94-23.26-6.96-24.07-17.65-.11-1.46,.27-3.46,.73-5.24,.61-2.36,.06-4.87-1.4-6.81-.35-.47-.67-.96-.95-1.47-.86-1.55-1.37-3.28-1.51-5.05-.53-7.09,5.08-13.3,12.53-13.86,2.41-.19,4.82,.25,7.01,1.28,2.57,1.21,5.58,.99,7.94-.59,2.01-1.34,4.33-2.13,6.74-2.3,7.45-.56,13.92,4.74,14.46,11.83,.14,1.77-.11,3.55-.73,5.22Zm12.82-2.75c-1.24,1.83-2.59,2.93-3.94,3.53-.89-2.88-1.49-5.85-1.68-8.87l-.04-.52c-.2-2.5-.73-4.96-1.57-7.33,1.06-.51,2.45-.75,4.18-.23,4.55,1.39,6.3,8.59,3.05,13.41h0Z"/><rect class="cls-28" x="207.22" y="59.2" width="2.18" height="4.95" rx="1.09" ry="1.09" transform="translate(78.31 235.73) rotate(-69.74)"/><rect class="cls-28" x="212.6" y="60.08" width="4.95" height="2.18" rx="1.09" ry="1.09" transform="translate(-2.83 111.32) rotate(-28.84)"/><path class="cls-28" d="M199.52,54.94h0c-2.14,.16-4-1.35-4.15-3.38l-.09-1.22c-.15-2.03,1.46-3.8,3.6-3.96h0c2.14-.16,4,1.35,4.15,3.38l.09,1.22c.15,2.03-1.46,3.8-3.6,3.96Z"/><path class="cls-30" d="M198.88,46.37l.32,4.28c.08,1.01,1,1.77,2.07,1.69,1.07-.08,1.88-.97,1.8-1.98l-.05-.61c-.15-2.03-2.01-3.54-4.15-3.38Z"/><ellipse class="cls-5" cx="201.06" cy="51.82" rx="1.29" ry="1.23" transform="translate(-3.31 15.18) rotate(-4.29)"/><path class="cls-28" d="M222.76,53.2h0c-2.14,.16-4-1.35-4.15-3.38l-.09-1.22c-.15-2.03,1.46-3.8,3.6-3.96h0c2.14-.16,4,1.35,4.15,3.38l.09,1.22c.15,2.03-1.46,3.8-3.6,3.96Z"/><path class="cls-30" d="M222.11,44.63l.32,4.28c.08,1.01,1,1.77,2.07,1.69s1.88-.97,1.8-1.98l-.05-.61c-.15-2.03-2.01-3.54-4.15-3.38Z"/><ellipse class="cls-5" cx="224.3" cy="50.08" rx="1.29" ry="1.23" transform="translate(-3.12 16.91) rotate(-4.29)"/><path class="cls-27" d="M208.21,10.42c-.87-.02-2.67,1.49-4.76,4.02-.52,.63-1.06,1.33-1.61,2.08-4.06,5.56-8.6,14.18-9.74,22.76-1.9,14.41-1.87,30.96,4.04,39.69,5.02,7.4,12.78,10.9,12.78,10.9-2.91-.12-5.8-.58-8.61-1.35-11.97-3.3-20.82-12.18-21.65-23.21-.12-1.59-.07-3.19,.16-4.77,.01-.11,.03-.22,.05-.32-1.93-.43-3.98-1.57-6.02-3.78-4.99-5.43-4.17-14.81,1.29-17.42,2.48-1.18,4.58-.88,6.12-.2,.07,.03,.14,.06,.2,.09,.28-1.1,.63-2.19,1.02-3.25,.29-.78,.61-1.55,.95-2.32,3.53-7.8,9.95-14.53,17.65-17.75,.31-.77,2.36-5.27,7.09-6.01,.24-.04,.49-.07,.75-.08l.29,.92Z"/></g><polygon class="cls-19" points="222.02 151.1 225.92 209.55 224.64 210.93 220.29 149.7 222.02 151.1"/></g><g><g><path class="cls-48" d="M407.32,98.15c4.6,24.72-11.72,48.5-36.45,53.1-1.29,.24-2.58,.42-3.87,.55-23.29,2.32-44.87-13.56-49.22-36.99-4.6-24.72,11.72-48.5,36.45-53.1,5.26-.99,10.66-1.03,15.94-.14,18.29,3.1,33.56,17.29,37.15,36.58Z"/><path class="cls-47" d="M407.2,92.93c4.68,25.18-11.94,49.39-37.12,54.07-1.31,.24-2.63,.43-3.94,.56-23.72,2.36-45.69-13.81-50.13-37.67-4.68-25.18,11.94-49.39,37.12-54.07,5.36-1,10.86-1.05,16.24-.14,18.63,3.16,34.18,17.6,37.84,37.26Z"/><path class="cls-5" d="M400.63,94.15c4.01,21.55-10.21,42.26-31.76,46.27-1.12,.21-2.25,.37-3.37,.48-20.3,2.02-39.1-11.82-42.9-32.24-4.01-21.55,10.21-42.26,31.76-46.27,4.59-.86,9.29-.9,13.89-.12,15.94,2.71,29.25,15.06,32.38,31.88Z"/><path class="cls-21" d="M353.44,57.59c5.36-1,10.85-1.05,16.23-.14,18.31,3.11,33.65,17.13,37.63,36.28-.05-.27-.09-.54-.14-.82-3.65-19.64-19.2-34.08-37.81-37.24-5.38-.91-10.87-.86-16.23,.14-25.17,4.68-41.78,28.88-37.1,54.04,.06,.3,.12,.61,.18,.91-4.14-24.85,12.37-48.55,37.25-53.18Z"/><path class="cls-48" d="M354.64,63.91c4.59-.86,9.29-.9,13.89-.12,15.68,2.66,28.81,14.66,32.21,31.06-.04-.23-.08-.47-.12-.7-3.13-16.82-16.44-29.17-32.38-31.88-4.6-.78-9.31-.74-13.89,.12-21.55,4.01-35.77,24.72-31.76,46.27,.05,.26,.1,.52,.15,.78-3.55-21.28,10.59-41.57,31.89-45.53Z"/></g><path class="cls-47" d="M372.28,91.23c-1.03-.41-2.25-.2-3.17,.56l-6.5,5.69-4.44,3.75-6.5,5.69c-.83,.74-2.04,.95-3.17,.56l-6.39-2.43c-1.03-.41-1.87-1.35-2.08-2.5l-1.2-6.8c-.2-1.15,.17-2.3,1.1-3.06l5.1-4.36c.83-.74,2.04-.95,3.17-.56l6.28,2.35c1.03,.41,1.87,1.35,2.08,2.5l.78,4.41,4.42-3.84-.78-4.41c-.2-1.15-.95-2.1-2.08-2.5l-11.66-4.46c-1.03-.41-2.25-.2-3.17,.56l-9.62,8.21c-.93,.76-1.3,1.91-1.1,3.06l2.25,12.74c.2,1.15,.95,2.1,2.08,2.5l11.85,4.43c1.03,.41,2.25,.2,3.17-.56l6.52-5.59,4.42-3.84,6.52-5.59c.83-.74,2.04-.95,3.17-.56l6.28,2.35c1.03,.41,1.87,1.35,2.08,2.5l1.2,6.8c.2,1.15-.17,2.3-1.1,3.06l-5.08,4.45c-.83,.74-2.04,.95-3.17,.56l-6.28-2.35c-1.03-.41-1.87-1.35-2.08-2.5l-.78-4.41-4.42,3.84,.78,4.41c.2,1.15,.95,2.1,2.08,2.5l11.85,4.43c1.03,.41,2.25,.2,3.17-.56l9.62-8.21c.83-.74,1.3-1.91,1.1-3.06l-2.25-12.74c-.2-1.15-.95-2.1-2.08-2.5l-11.96-4.51Z"/><g class="cls-12"><path class="cls-20" d="M395.13,69.35l-51.38,74.86c2.82,1.18,5.76,2.08,8.8,2.69l48.26-70.3c-1.66-2.61-3.56-5.04-5.67-7.24Z"/><path class="cls-20" d="M369.37,55.67c-.35-.06-.7-.11-1.05-.16l-47.13,68.66c4.18,7.42,10.29,13.46,17.53,17.57l52.3-76.19c-6.18-5.06-13.63-8.52-21.65-9.88Z"/></g></g><path class="cls-38" d="M317.85,117.39c1.72-2.16,4.68-7.12,6.7-6.36s2.9,5.1,0,8.87-5.75,7.64-5.75,7.64l-.95-10.16Z"/></g><g><path class="cls-32" d="M468.6,280.3c0,23.33-18.92,42.25-42.25,42.25-1.22,0-2.43-.05-3.62-.16-21.64-1.84-38.62-19.98-38.62-42.09,0-23.33,18.92-42.25,42.25-42.25,4.97,0,9.9,.87,14.57,2.58,16.16,5.93,27.68,21.46,27.68,39.67Z"/><path class="cls-23" d="M469.38,275.52c0,23.76-19.26,43.03-43.03,43.03-1.24,0-2.47-.06-3.69-.16-22.04-1.87-39.33-20.35-39.33-42.87,0-23.76,19.26-43.03,43.03-43.03,5.06,0,10.08,.88,14.83,2.63,16.45,6.04,28.19,21.85,28.19,40.4Z"/><g id="Layer_1"><g id="_1421344023328"><path class="cls-32" d="M462.06,284.42c-4.92,19.72-24.89,31.73-44.62,26.81-19.72-4.92-31.72-24.9-26.8-44.62,4.92-19.73,24.89-31.73,44.61-26.81,19.72,4.92,31.73,24.9,26.81,44.62h0Z"/><path class="cls-5" d="M444.24,269.84c.8-5.36-3.28-8.24-8.86-10.17l1.81-7.26-4.42-1.1-1.76,7.07c-1.16-.29-2.36-.56-3.54-.83l1.78-7.12-4.42-1.1-1.81,7.26c-.96-.22-1.91-.44-2.82-.66v-.02l-6.09-1.52-1.18,4.72s3.28,.75,3.21,.8c1.79,.45,2.11,1.63,2.06,2.57l-2.06,8.27c.12,.03,.28,.08,.46,.15-.15-.04-.3-.08-.47-.12l-2.89,11.59c-.22,.54-.77,1.36-2.03,1.05,.04,.06-3.21-.8-3.21-.8l-2.2,5.06,5.75,1.43c1.07,.27,2.12,.55,3.15,.81l-1.83,7.35,4.42,1.1,1.81-7.27c1.21,.33,2.38,.63,3.52,.91l-1.81,7.23,4.42,1.1,1.83-7.33c7.54,1.43,13.21,.85,15.59-5.97,1.92-5.49-.1-8.66-4.06-10.72,2.89-.67,5.06-2.57,5.64-6.49h0Zm-10.1,14.16c-1.37,5.49-10.61,2.52-13.61,1.78l2.43-9.73c3,.75,12.61,2.23,11.18,7.95h0Zm1.37-14.24c-1.25,4.99-8.94,2.46-11.44,1.83l2.2-8.83c2.5,.62,10.53,1.78,9.24,6.99h0Z"/></g></g><path class="cls-8" d="M426.33,234.17c5.06,0,10.08,.88,14.83,2.62,16.18,5.94,27.79,21.33,28.17,39.47,0-.26,0-.51,0-.77,0-18.53-11.73-34.34-28.18-40.38-4.75-1.74-9.77-2.63-14.83-2.62-23.75,0-43,19.25-43,43,0,.29,0,.57,.01,.86,.43-23.37,19.52-42.19,42.99-42.19Z"/><path class="cls-9" d="M426.35,240.13c4.33,0,8.63,.76,12.69,2.25,13.85,5.09,23.79,18.26,24.12,33.79,0-.22,0-.44,0-.66,0-15.87-10.05-29.4-24.12-34.57-4.07-1.49-8.36-2.25-12.69-2.25-20.33,0-36.82,16.48-36.82,36.82,0,.25,0,.49,0,.74,.37-20.01,16.71-36.12,36.81-36.12Z"/><g class="cls-13"><path class="cls-20" d="M462.36,251.96l-59.56,59.56c2.37,1.55,4.9,2.88,7.57,3.94l55.94-55.94c-1.07-2.66-2.39-5.2-3.95-7.57Z"/><path class="cls-20" d="M441.19,235.12c-.31-.11-.62-.22-.93-.33l-54.63,54.63c2.55,7.47,7.1,14.02,13.01,19l60.62-60.62c-4.78-5.66-10.99-10.08-18.07-12.68Z"/></g></g><g><g><path class="cls-2" d="M372.51,214.25c12.99,22.5,5.28,51.28-17.22,64.28-1.17,.68-2.37,1.3-3.58,1.87-21.89,10.28-48.38,2.24-60.69-19.09-12.99-22.5-5.28-51.28,17.22-64.28,4.79-2.77,10.03-4.68,15.49-5.62,18.89-3.27,38.65,5.28,48.79,22.85Z"/><path class="cls-31" d="M370.6,209.2c13.23,22.92,5.38,52.23-17.54,65.46-1.2,.69-2.42,1.32-3.65,1.9-22.3,10.47-49.27,2.28-61.81-19.44-13.23-22.92-5.38-52.23,17.54-65.46,4.88-2.82,10.22-4.76,15.77-5.73,19.23-3.33,39.36,5.38,49.69,23.27Z"/><path class="cls-7" d="M364.61,212.66c11.32,19.61,4.6,44.69-15.01,56.01-1.02,.59-2.07,1.13-3.12,1.63-19.08,8.96-42.16,1.95-52.89-16.64-11.32-19.61-4.6-44.69,15.01-56.01,4.17-2.42,8.74-4.08,13.49-4.9,16.46-2.85,33.68,4.6,42.52,19.91Z"/><path class="cls-54" d="M328.7,239.38s-1.92-3.94-9.15-5.3c-10.34-1.95-11.89-2.8-5.62-5.18,6.27-2.38,13.22,.01,13.22,.01"/><path class="cls-6" d="M322.67,256.8l-1.57-2.31-4.57,3.1c-.47,.32-.6,.97-.27,1.44l.41,.6c.32,.47,.96,.6,1.44,.27h0l4.57-3.1Z"/><path class="cls-35" d="M322.67,256.8l-.79-1.16-5.42,3.68,.21,.3c.32,.47,.96,.6,1.44,.27h0l4.57-3.1Z"/><path class="cls-2" d="M338.97,236.38c-1.37-.42-2.71-.59-4.14-.63-1.37-.04-2.75,.1-4.11,.19-1.2,.08-2.36,.05-3.5,.44,0,.09-.02,.19-.03,.28s-.02,.19-.03,.28c-.02,.21-.04,.42-.07,.64,0,.03,0,.05,0,.08-.01,.09-.02,.18-.04,.27s-.03,.19-.05,.29c-.03,.21-.06,.42-.11,.63-.11,.63-.25,1.26-.41,1.89-.03,.11-.05,.21-.08,.31-.04,.17-.09,.34-.14,.5-.03,.13-.07,.24-.1,.36s-.07,.23-.11,.35c0,.02-.02,.05-.02,.08-.06,.18-.11,.36-.18,.53-.02,.04-.03,.08-.04,.12-.02,.07-.04,.14-.07,.21l-.08,.21c-.06,.18-.12,.35-.19,.53-.09,.25-.19,.5-.3,.74-.08,.19-.16,.4-.25,.59-.02,.04-.03,.07-.05,.11-.07,.16-.14,.32-.22,.48v.02c-.13,.25-.25,.51-.38,.76-.27,.52-.55,1.04-.85,1.55-.55,.93-1.15,1.82-1.8,2.68-.28,.37-.57,.73-.87,1.09h0c-.15,.18-.3,.36-.46,.54-.14,.15-.27,.31-.42,.46-.19,.21-.38,.4-.58,.6h0s-.05,.06-.13,.18c-.02,.03-.04,.08-.07,.12-.01,.02-.02,.04-.04,.07s-.02,.05-.04,.07c-.34,.64-.47,1.37-.38,2.09,0,.02,0,.04,.01,.07,.09,.47,.27,.92,.55,1.32,.15,.23,.33,.44,.52,.64h0c.14,.15,.29,.27,.46,.37,.58,.36,1.27,.46,1.98,.4,1.43-.12,2.95-.87,3.83-1.37,7.52-4.51,12.52-12.25,13.54-20.95-.18-.06-.36-.12-.55-.18Z"/><path class="cls-31" d="M330.72,235.94c-1.2,.08-2.36,.05-3.5,.44,0,.09-.02,.19-.03,.28s-.02,.19-.03,.28-.02,.19-.03,.28c-.01,.11-.03,.24-.04,.36,0,.03,0,.05,0,.08-.01,.09-.02,.18-.04,.27s-.03,.19-.05,.29-.03,.19-.05,.29-.03,.23-.05,.34c-.03,.19-.07,.38-.11,.58,0,.04-.01,.07-.02,.11-.02,.09-.04,.18-.05,.27-.04,.2-.09,.4-.14,.6-.03,.11-.05,.22-.08,.33s-.05,.21-.08,.31c-.05,.17-.09,.33-.14,.5-.04,.12-.07,.24-.1,.36s-.07,.23-.11,.35c0,.02-.02,.05-.02,.08-.06,.18-.11,.35-.18,.53-.02,.04-.03,.08-.04,.12l-.07,.21-.08,.21c-.06,.18-.12,.35-.19,.53-.06,.16-.13,.31-.19,.46-.04,.09-.07,.18-.11,.28-.08,.19-.16,.4-.25,.59-.02,.04-.03,.07-.05,.11-.07,.16-.14,.32-.22,.48v.02c-.07,.12-.13,.24-.19,.37s-.13,.26-.19,.4c-.09,.19-.2,.37-.29,.55l-.16,.29c-.13,.24-.26,.47-.4,.7-.1,.16-.19,.31-.28,.46-.14,.23-.29,.46-.43,.67-.1,.15-.2,.3-.31,.45-.15,.22-.31,.45-.48,.67-.11,.14-.2,.28-.31,.42-.19,.24-.37,.48-.57,.71l-.22,.27s-.06,.07-.08,.1h0c-.15,.18-.3,.36-.46,.54-.14,.15-.28,.31-.42,.46-.19,.21-.38,.4-.58,.6h0s-.05,.06-.13,.18c-.02,.03-.04,.08-.07,.12-.01,.02-.02,.04-.04,.07s-.02,.05-.04,.07c-.34,.64-.47,1.37-.38,2.09,0,.02,0,.04,.01,.07,.09,.47,.27,.92,.55,1.32,.15,.23,.33,.44,.52,.64l.04-.02c2.23-1.27,4.29-2.84,6.1-4.66,.25-.25,.49-.5,.73-.76,4.15-4.49,6.73-10.2,7.34-16.29,.02-.21,.03-.42,.05-.63-1.09,.02-2.17,.12-3.25,.19Z"/><path class="cls-3" d="M339.64,235.3l-5.73,1.07-6.84,1.28s0-.05,0-.08c.01-.12,.03-.24,.04-.36,.01-.09,.02-.19,.03-.28s.02-.19,.03-.28c.03-.24,.05-.48,.07-.73,.01-.16,.02-.32,.03-.47,.02-.31,.03-.63,.03-.94,0-.11,0-.22,0-.32,0-.03,0-.06,0-.1,0-.19,0-.37,0-.57s0-.4-.01-.6c0-.23-.02-.46-.04-.68-.01-.19-.02-.38-.04-.57s-.03-.41-.05-.61c0-.07-.01-.13-.02-.19-.01-.13-.03-.27-.04-.4,0-.01,0-.02,0-.03-.03-.2-.05-.39-.08-.59,0-.04,0-.09-.02-.13l-.02-.11c-.02-.14-.05-.27-.07-.4-.02-.11-.03-.22-.05-.33s-.04-.22-.06-.33l-.02-.08c-.01-.07-.03-.14-.04-.2s-.03-.14-.05-.21c-.1-.46-.2-.92-.32-1.38-.06-.23-.12-.46-.18-.69-.09-.33-.19-.65-.3-.98l-.03-.1s-.02-.05-.03-.08c-.12-.37-.26-.75-.4-1.11-.05-.12-.1-.25-.15-.37s-.1-.24-.15-.37c-.06-.14-.12-.29-.19-.43-.04-.08-.08-.17-.11-.26-.07-.16-.14-.31-.21-.47-.06-.14-.13-.28-.2-.42-.12-.25-.24-.48-.37-.73-.06-.12-.13-.24-.2-.37l-.08-.13s-.05-.09-.08-.14c-.05-.09-.1-.18-.15-.27l-.18-.31c-.2-.34-.41-.68-.63-1.01l-.03-.05c-.2-.3-.4-.6-.61-.9h0c-.81-1.27-3.06-4.01-4.05-6.28-.46-1.04-.65-1.98-.33-2.64,.04-.08,.09-.16,.14-.24h0c.06-.07,.13-.14,.2-.2h0s0,0,.01,0c.66-.55,1.5-.75,2.33-.78,1.69-.06,3.37,.61,3.55,.68,10.27,5.08,16.45,15.86,15.65,27.29h0Z"/><path class="cls-55" d="M333.92,236.37c.86-8.52-2.16-17.32-8.93-23.57-1.66-1.53-3.5-2.86-5.47-3.95-.28-.15-.57-.31-.86-.46-.18-.1-.37-.18-.55-.27-.07,.06-.14,.13-.2,.2h0c-.06,.08-.1,.16-.14,.24-.32,.66-.13,1.6,.33,2.64,.99,2.27,3.24,5.01,4.05,6.27h0c.21,.31,.42,.61,.61,.91l.03,.05c.22,.33,.43,.67,.63,1.01l.05,.1,.12,.21c.05,.09,.1,.18,.15,.27,.03,.04,.06,.09,.08,.14l.08,.13c.07,.12,.14,.24,.2,.37,.13,.24,.25,.49,.37,.73,.07,.14,.14,.28,.2,.42,.07,.16,.15,.31,.21,.47,.04,.08,.08,.17,.11,.26,.06,.15,.13,.29,.19,.43,.05,.13,.1,.25,.15,.37s.1,.25,.15,.37c.14,.37,.27,.74,.4,1.11,.01,.02,.02,.05,.03,.08l.03,.1c.11,.32,.21,.65,.3,.98,.06,.23,.12,.46,.18,.69,.12,.46,.22,.92,.32,1.38,.02,.07,.03,.14,.05,.21s.03,.14,.04,.2l.02,.08c.02,.11,.04,.22,.06,.33s.04,.22,.05,.33c.02,.13,.05,.27,.07,.4l.02,.11s.01,.09,.02,.13c.03,.19,.05,.39,.08,.59,0,.01,0,.02,0,.03,.02,.13,.03,.27,.04,.4,0,.06,.01,.13,.02,.19,.01,.2,.04,.41,.05,.61s.03,.38,.04,.57c.01,.23,.03,.46,.04,.68,0,.19,0,.39,.01,.6s0,.38,0,.57c0,.04,0,.07,0,.1,0,.11,0,.21,0,.32,0,.32-.02,.63-.03,.94-.01,.16-.02,.32-.03,.47-.02,.24-.04,.48-.07,.73,0,.09-.02,.19-.03,.28s-.02,.19-.03,.28c-.01,.11-.03,.24-.04,.36,0,.03,0,.05,0,.08l6.84-1.29Z"/><path class="cls-54" d="M327.07,237.66s6.22-1.03,9.43-.18c5.05,1.35,6.85,1.63,10.55,12.34,.14,.39,.28,.78,.45,1.16,.75,1.71,2.91,5.87,3.8-7.18,1.06-15.7-11.55-12.66-11.55-12.66-4.62,1.14-8.89,3.44-12.68,6.51Z"/><path class="cls-55" d="M306.05,193.29c4.88-2.82,10.21-4.76,15.76-5.72,18.91-3.28,38.68,5.1,49.15,22.39-.14-.25-.28-.5-.42-.75-10.32-17.88-30.44-26.59-49.66-23.25-5.55,.96-10.89,2.9-15.76,5.72-22.91,13.22-30.76,42.52-17.53,65.42,.16,.28,.32,.55,.49,.82-12.6-22.79-4.67-51.56,17.97-64.63Z"/><path class="cls-2" d="M309.4,199.03c4.17-2.42,8.74-4.08,13.49-4.9,16.19-2.81,33.12,4.36,42.08,19.17-.12-.21-.24-.43-.36-.64-8.84-15.31-26.06-22.76-42.52-19.91-4.75,.83-9.32,2.48-13.49,4.9-19.61,11.32-26.33,36.4-15.01,56.01,.14,.24,.28,.47,.42,.71-10.78-19.51-4-44.14,15.39-55.34Z"/></g><g class="cls-12"><path class="cls-20" d="M350.71,190.39l-24.28,90.62c3.15,.18,6.33,.04,9.5-.41l22.8-85.11c-2.51-1.98-5.2-3.68-8.02-5.1Z"/><path class="cls-20" d="M320.91,185.93c-.36,.06-.72,.13-1.08,.2l-22.27,83.12c6.62,5.79,14.65,9.57,23.13,11.08l24.71-92.23c-7.76-2.8-16.21-3.6-24.49-2.17Z"/></g></g><g><path class="cls-24" d="M387.01,331.46c3.6,20.41-10.03,39.88-30.44,43.48-1.07,.19-2.13,.33-3.19,.42-19.21,1.73-36.87-11.52-40.28-30.86-3.6-20.41,10.03-39.88,30.44-43.48,4.35-.77,8.79-.77,13.14,0,15.05,2.7,27.53,14.5,30.34,30.43Z"/><path class="cls-11" d="M386.96,327.16c3.67,20.79-10.22,40.61-31,44.27-1.09,.19-2.17,.33-3.25,.43-19.57,1.76-37.55-11.73-41.02-31.43-3.67-20.79,10.22-40.61,31-44.27,4.43-.79,8.96-.78,13.38,0,15.32,2.75,28.03,14.77,30.89,30.99Z"/><path class="cls-40" d="M381.53,328.11c3.14,17.79-8.74,34.75-26.53,37.89-.93,.16-1.86,.28-2.78,.37-16.74,1.51-32.13-10.04-35.1-26.9-3.14-17.79,8.74-34.75,26.53-37.89,3.79-.67,7.66-.67,11.45,0,13.11,2.35,23.99,12.64,26.44,26.52Z"/><path class="cls-34" d="M342.92,297.62c4.42-.79,8.95-.78,13.37,0,15.07,2.7,27.6,14.37,30.73,30.18-.04-.22-.07-.45-.11-.67-2.86-16.21-15.56-28.23-30.88-30.98-4.42-.79-8.95-.79-13.37,0-20.77,3.66-34.65,23.48-30.98,44.25,.04,.25,.09,.5,.14,.75-3.22-20.51,10.57-39.91,31.1-43.54Z"/><path class="cls-24" d="M343.86,302.84c3.79-.67,7.66-.67,11.45,0,12.9,2.31,23.63,12.3,26.31,25.84-.03-.19-.06-.38-.09-.58-2.45-13.88-13.32-24.17-26.44-26.52-3.79-.68-7.66-.68-11.45,0-17.79,3.14-29.66,20.1-26.53,37.89,.04,.22,.08,.43,.12,.64-2.76-17.56,9.05-34.17,26.63-37.27Z"/><g id="Layer_1-2"><g id="_1421394342400"><g><polygon class="cls-1" points="345.11 310.08 344.98 311.24 350.66 343.44 351.04 343.71 364.43 332.24 345.11 310.08"/><polygon class="cls-11" points="345.11 310.08 334.54 337.51 351.04 343.71 348.29 328.08 345.11 310.08"/><polygon class="cls-36" points="351.54 346.54 351.4 346.8 353.42 358.27 353.7 358.77 364.94 335.07 351.54 346.54"/><polygon class="cls-11" points="353.7 358.77 351.54 346.54 335.04 340.35 353.7 358.77"/><polygon class="cls-39" points="351.04 343.71 364.43 332.24 348.29 328.08 351.04 343.71"/><polygon class="cls-16" points="334.54 337.51 351.04 343.71 348.29 328.08 334.54 337.51"/></g></g></g><g class="cls-13"><path class="cls-20" d="M377.18,307.63l-42.92,61.29c2.31,.99,4.73,1.76,7.23,2.28l40.31-57.56c-1.34-2.17-2.89-4.18-4.62-6.01Z"/><path class="cls-20" d="M356.06,296.16c-.29-.05-.58-.1-.86-.14l-39.36,56.22c3.38,6.14,8.37,11.17,14.31,14.61l43.68-62.38c-5.05-4.22-11.17-7.12-17.77-8.31Z"/></g></g></g></svg>