<svg width="500" height="500" viewBox="0 0 500 500" fill="none" xmlns="http://www.w3.org/2000/svg">
<path d="M250 490.5C338.642 490.5 410.5 468.114 410.5 440.5C410.5 412.886 338.642 390.5 250 390.5C161.358 390.5 89.5 412.886 89.5 440.5C89.5 468.114 161.358 490.5 250 490.5Z" fill="#959593"/>
<path d="M133.77 411.28L129.89 409.75C124.58 411.66 119.81 413.7 115.64 415.85H145.36L133.77 411.28V411.28Z" fill="#DDDDDC"/>
<path d="M162.54 400.96C160.42 401.38 158.33 401.82 156.29 402.28H165.88L162.54 400.96Z" fill="#DDDDDC"/>
<path d="M204.029 415.86H256.119L231.359 406.09L224.929 403.55H150.819C143.959 405.22 137.619 407.07 131.859 409.06L149.089 415.86H204.029V415.86Z" fill="#DDDDDC"/>
<path d="M230.499 471.47H149.149C176.169 478.26 211.429 482.37 249.999 482.37C252.669 482.37 255.329 482.35 257.959 482.31L252.649 480.21L230.499 471.47V471.47Z" fill="#DDDDDC"/>
<path d="M127.709 429.44H234.729L225.169 425.67L203.539 417.13H113.249C110.879 418.45 108.729 419.8 106.819 421.2L112.109 423.29L127.709 429.44V429.44Z" fill="#DDDDDC"/>
<path d="M158.41 443.03H214.21L183.02 430.72H97.8197C96.5797 433 95.9297 435.34 95.9297 437.72C95.9297 438.02 95.9497 438.31 95.9697 438.6L107.19 443.03H158.41Z" fill="#DDDDDC"/>
<path d="M96.1699 440.149C96.3499 441.119 96.6399 442.079 97.0299 443.029H103.47L96.1699 440.149Z" fill="#DDDDDC"/>
<path d="M141.619 456.61H192.839L176.109 450.01L161.649 444.3H97.6094C99.8194 448.64 104.189 452.77 110.379 456.61H141.609H141.619Z" fill="#DDDDDC"/>
<path d="M152.77 462.48L141.13 457.89H112.52C120.61 462.51 131.4 466.68 144.29 470.2H172.32L152.77 462.49V462.48Z" fill="#DDDDDC"/>
<path d="M108.39 423.29L105.54 422.17C102.54 424.51 100.2 426.94 98.5801 429.45H123.98L108.39 423.3V423.29Z" fill="#DDDDDC"/>
<path d="M251.88 457.89H199.8H196.08H144.85L159 463.47L176.04 470.2H227.27H230.99H283.07L251.88 457.89Z" fill="#DDDDDC"/>
<path d="M370.109 417.14H318.029L349.219 429.45H401.419C398.599 425.09 393.599 420.96 386.759 417.14H370.119H370.109Z" fill="#DDDDDC"/>
<path d="M290.029 471.47H234.229L252.369 478.63L261.529 482.24C292.849 481.57 321.56 478.19 344.88 472.9L341.26 471.47H290.04H290.029Z" fill="#DDDDDC"/>
<path d="M399.01 449.09C400.43 447.53 401.56 445.93 402.39 444.3H386.87L399.01 449.09Z" fill="#DDDDDC"/>
<path d="M370.589 415.86H384.359C375.249 411.17 363.299 407 349.179 403.55H339.399L370.589 415.86Z" fill="#DDDDDC"/>
<path d="M347.21 472.359C348.44 472.069 349.65 471.779 350.84 471.479H344.97L347.2 472.359H347.21Z" fill="#DDDDDC"/>
<path d="M310.549 457.89H255.609L286.799 470.2H355.719C363.369 468.11 370.269 465.79 376.319 463.29L362.639 457.89H310.549V457.89Z" fill="#DDDDDC"/>
<path d="M373.069 460.54L378.109 462.53C381.539 461.04 384.669 459.5 387.479 457.89H366.359L373.079 460.54H373.069Z" fill="#DDDDDC"/>
<path d="M276.12 444.31L307.31 456.62H389.61C392.95 454.55 395.76 452.4 397.99 450.17L383.15 444.31H276.12Z" fill="#DDDDDC"/>
<path d="M348.73 430.72H297.51L328.7 443.03H402.98C403.69 441.29 404.07 439.52 404.07 437.72C404.07 435.34 403.42 433 402.18 430.72H348.73Z" fill="#DDDDDC"/>
<path d="M252.36 456.61H303.59L282.52 448.3L272.4 444.3H221.17H217.45H165.37L189.75 453.92L196.56 456.61H248.65H252.36Z" fill="#DDDDDC"/>
<path d="M263.08 417.14H259.36H207.27L238.46 429.44H290.55H294.27H345.49L314.3 417.14H263.08Z" fill="#DDDDDC"/>
<path d="M366.869 415.86L335.679 403.55H283.599H279.869H228.649L232.659 405.13L259.839 415.86H366.869Z" fill="#DDDDDC"/>
<path d="M293.78 430.72H241.69H237.97H186.75L217.94 443.03H272.88H324.97L293.78 430.72Z" fill="#DDDDDC"/>
<path d="M332.449 402.269H343.709C319.509 396.889 289.649 393.539 257.149 393.109L280.359 402.269H332.449V402.269Z" fill="#DDDDDC"/>
<path d="M221.699 402.27H276.639L253.329 393.07C252.219 393.07 251.109 393.06 249.999 393.06C218.589 393.06 189.389 395.79 165.029 400.46L169.609 402.27H221.699Z" fill="#DDDDDC"/>
<path d="M169.609 402.27L165.029 400.47L169.609 402.27Z" fill="#C7C7C4"/>
<path d="M280.36 402.269L257.15 393.109C255.88 393.089 254.61 393.079 253.33 393.069L276.64 402.269H280.36V402.269Z" fill="#C7C7C4"/>
<path d="M169.61 402.27L165.03 400.46C164.2 400.62 163.37 400.78 162.54 400.95L165.88 402.27H169.6H169.61Z" fill="#C7C7C4"/>
<path d="M370.59 415.86H384.36H370.59L339.4 403.55H349.18C347.39 403.11 345.56 402.69 343.7 402.27H336.16L370.59 415.86V415.86Z" fill="#C7C7C4"/>
<path d="M231.359 406.09L256.119 415.86L231.359 406.09Z" fill="#C7C7C4"/>
<path d="M314.79 415.86H370.59L336.17 402.27H332.45H280.36H276.64H225.42L228.65 403.55H279.87H283.6H335.68L366.87 415.86H259.84L232.66 405.13L259.84 415.86H311.07H314.79Z" fill="#C7C7C4"/>
<path d="M145.36 415.859H145.37L133.77 411.279L145.36 415.859Z" fill="#C7C7C4"/>
<path d="M149.089 415.86L131.859 409.06L149.079 415.86H149.089Z" fill="#C7C7C4"/>
<path d="M169.12 403.55H224.93L231.36 406.09L256.12 415.86H204.04H259.85L232.67 405.13L228.66 403.55L225.43 402.27H156.31C154.45 402.68 152.63 403.11 150.83 403.55H169.13H169.12Z" fill="#C7C7C4"/>
<path d="M145.369 415.86H149.089L131.859 409.06C131.199 409.29 130.539 409.52 129.899 409.75L133.779 411.28L145.369 415.85V415.86Z" fill="#C7C7C4"/>
<path d="M314.789 415.86L349.209 429.44L318.019 417.13H386.739C385.969 416.7 385.169 416.28 384.359 415.85H314.779L314.789 415.86Z" fill="#C7C7C4"/>
<path d="M225.18 425.67L234.73 429.44H234.74L225.18 425.67Z" fill="#C7C7C4"/>
<path d="M207.27 417.139H259.36H263.08H314.3L345.49 429.439H349.21L314.79 415.859H311.07H259.84H204.04L238.46 429.439L207.27 417.139Z" fill="#C7C7C4"/>
<path d="M123.99 429.44L108.39 423.29L123.99 429.44Z" fill="#C7C7C4"/>
<path d="M127.709 429.44L112.109 423.29L127.709 429.44Z" fill="#C7C7C4"/>
<path d="M152.32 417.139H203.54L225.17 425.679L234.73 429.449H238.45L204.03 415.869H149.09H115.64C114.82 416.289 114.02 416.719 113.25 417.149H152.32V417.139Z" fill="#C7C7C4"/>
<path d="M123.99 429.439H127.71L112.12 423.289L106.83 421.199C106.39 421.519 105.97 421.839 105.55 422.159L108.4 423.279L124 429.429L123.99 429.439Z" fill="#C7C7C4"/>
<path d="M349.21 429.439H294.27L297.51 430.719H402.18C401.95 430.289 401.69 429.869 401.42 429.439H349.22H349.21Z" fill="#C7C7C4"/>
<path d="M186.75 430.719H237.97H241.69H293.78L324.97 443.029H272.88H272.89H328.7H328.69L297.51 430.719L294.27 429.439H290.55H238.46H234.74H234.73H183.51L217.94 443.029L186.75 430.719Z" fill="#C7C7C4"/>
<path d="M130.95 430.719H183.03L214.22 443.029H217.94L183.51 429.439H98.5901C98.3201 429.859 98.0601 430.289 97.8301 430.719H130.95Z" fill="#C7C7C4"/>
<path d="M107.19 443.03L95.9697 438.6C95.9997 439.12 96.0697 439.63 96.1597 440.14L103.46 443.02H107.18L107.19 443.03Z" fill="#C7C7C4"/>
<path d="M383.149 444.31L397.989 450.16L383.149 444.31Z" fill="#C7C7C4"/>
<path d="M399.01 449.09L386.87 444.3H402.39C402.61 443.88 402.8 443.45 402.97 443.02H383.64L399.01 449.08V449.09Z" fill="#C7C7C4"/>
<path d="M272.399 444.3L282.519 448.3L272.399 444.3Z" fill="#C7C7C4"/>
<path d="M383.64 443.029H272.89L307.31 456.609L276.12 444.299H383.15L397.99 450.159C398.34 449.809 398.68 449.449 399.01 449.089L383.64 443.029V443.029Z" fill="#C7C7C4"/>
<path d="M161.649 444.3L176.109 450.01L161.649 444.3Z" fill="#C7C7C4"/>
<path d="M217.45 444.299H221.17H272.4L282.52 448.299L303.59 456.609H307.31L272.89 443.029H272.88H217.94H214.22H162.14L189.75 453.919L165.37 444.299H217.45Z" fill="#C7C7C4"/>
<path d="M110.429 444.3H161.649L176.109 450.01L192.839 456.61H196.559L189.749 453.92L162.139 443.02H97.0293C97.1993 443.45 97.3993 443.87 97.6093 444.3H110.429Z" fill="#C7C7C4"/>
<path d="M373.069 460.539L366.349 457.889H387.469C388.209 457.469 388.919 457.039 389.609 456.609H363.109L373.059 460.539H373.069Z" fill="#C7C7C4"/>
<path d="M363.119 456.609H252.359L286.789 470.199L255.599 457.889H362.629L376.309 463.289C376.919 463.039 377.519 462.789 378.109 462.529L373.069 460.539L363.119 456.609V456.609Z" fill="#C7C7C4"/>
<path d="M141.13 457.89L152.77 462.48L141.13 457.89Z" fill="#C7C7C4"/>
<path d="M196.08 457.889H199.8H251.88L283.07 470.199H286.79L252.36 456.609H248.65H196.56H192.84H141.62L159 463.469L144.85 457.889H196.08Z" fill="#C7C7C4"/>
<path d="M141.13 457.89L152.77 462.48L172.32 470.19H176.04L158.99 463.46L141.61 456.6H110.38C111.07 457.03 111.78 457.45 112.52 457.88H141.13V457.89Z" fill="#C7C7C4"/>
<path d="M347.21 472.359L344.98 471.479H350.85C352.5 471.059 354.12 470.639 355.72 470.199H341.75L347.22 472.359H347.21Z" fill="#C7C7C4"/>
<path d="M230.5 471.47L252.65 480.22L230.5 471.47Z" fill="#C7C7C4"/>
<path d="M341.739 470.199H230.989L252.359 478.629L234.219 471.469H341.249L344.869 472.899C345.659 472.719 346.439 472.539 347.209 472.359L341.739 470.199V470.199Z" fill="#C7C7C4"/>
<path d="M261.52 482.25L252.36 478.64L230.99 470.21H144.29C145.88 470.64 147.5 471.07 149.15 471.49H230.5L252.65 480.23L257.96 482.33C259.15 482.31 260.33 482.29 261.52 482.26V482.25Z" fill="#C7C7C4"/>
<path style="mix-blend-mode:multiply" opacity="0.19" d="M230 451.18C274.183 451.18 310 443.121 310 433.18C310 423.239 274.183 415.18 230 415.18C185.817 415.18 150 423.239 150 433.18C150 443.121 185.817 451.18 230 451.18Z" fill="url(#paint0_linear_731_4485)"/>
<path opacity="0.1" d="M358.241 430.74C358.241 432.08 352.371 433.17 345.131 433.17C337.891 433.17 332.021 432.08 332.021 430.74C332.021 429.4 337.891 428.31 345.131 428.31C352.371 428.31 358.241 429.4 358.241 430.74Z" fill="#353535"/>
<path opacity="0.1" d="M354.53 430.24C354.53 431.31 350.32 432.17 345.13 432.17C339.94 432.17 335.73 431.3 335.73 430.24C335.73 429.18 339.94 428.31 345.13 428.31C350.32 428.31 354.53 429.18 354.53 430.24Z" fill="#353535"/>
<path d="M339 429.65C339.26 426.92 336.58 420.09 325.89 419.86C325.89 419.86 337.8 417.28 341.34 424.08C341.34 424.08 339.72 413.08 324.32 412.21C324.32 412.21 340.76 411.15 343.74 421.8C344.52 424.6 344.75 425.92 344.75 425.92C344.75 425.92 342.6 410.19 346.16 409.6C346.16 409.6 345.31 420.17 347.93 421.81C347.93 421.81 347.6 414.35 354.22 413.93C354.22 413.93 348.99 419.39 350.1 425.51C350.1 425.51 349.63 421.43 356.65 419.3C356.65 419.3 350.57 424.4 350.82 430.26C350.82 430.26 338.8 431.89 339.01 429.65H339Z" fill="#698E59"/>
<path d="M350.81 430.26C348.3 430.61 345.77 430.89 343.22 430.94C342.58 430.94 341.94 430.94 341.31 430.89C340.67 430.83 340.03 430.76 339.41 430.46C339.26 430.38 339.11 430.27 338.99 430.12C338.94 430.03 338.89 429.94 338.87 429.85C338.87 429.74 338.85 429.65 338.85 429.58V429.1L338.81 428.65C338.73 428.04 338.56 427.44 338.31 426.87C338.07 426.3 337.78 425.74 337.42 425.24C337.08 424.72 336.66 424.25 336.23 423.81C336 423.6 335.78 423.38 335.54 423.18L334.8 422.62C334.55 422.44 334.27 422.29 334.01 422.13C333.75 421.96 333.47 421.82 333.18 421.69C332.9 421.56 332.62 421.42 332.33 421.3L331.44 420.99C330.86 420.76 330.23 420.67 329.63 420.51C329.02 420.4 328.39 420.32 327.77 420.23L325.89 420.12L323.94 420.01L325.84 419.63C327.26 419.35 328.69 419.2 330.13 419.15C331.57 419.11 333.01 419.18 334.44 419.43C335.86 419.69 337.27 420.11 338.53 420.86C338.85 421.04 339.15 421.25 339.44 421.47C339.73 421.69 340 421.94 340.26 422.2C340.51 422.47 340.76 422.74 340.96 423.05C341.19 423.34 341.36 423.67 341.54 423.98L341.11 424.12C341.03 423.69 340.92 423.24 340.76 422.81C340.63 422.37 340.43 421.96 340.26 421.53C340.05 421.12 339.87 420.7 339.62 420.31C339.39 419.91 339.15 419.52 338.87 419.16L338.47 418.6L338.01 418.08L337.55 417.56C337.39 417.4 337.21 417.25 337.05 417.09C336.71 416.78 336.39 416.45 336 416.19C335.63 415.92 335.27 415.63 334.88 415.38L333.68 414.69C333.29 414.45 332.84 414.3 332.43 414.1C332.01 413.92 331.59 413.7 331.14 413.58L329.82 413.15C329.38 412.98 328.92 412.93 328.47 412.82L327.11 412.53L324.34 412.2L327.12 412.44L328.5 412.69C328.96 412.79 329.43 412.83 329.87 412.98L331.22 413.37C331.68 413.48 332.1 413.69 332.53 413.86C332.96 414.05 333.41 414.19 333.82 414.43L335.05 415.12C335.45 415.36 335.82 415.66 336.21 415.92C336.61 416.18 336.94 416.51 337.3 416.82C337.48 416.98 337.66 417.13 337.83 417.29L338.31 417.81L338.79 418.33L339.22 418.89C339.52 419.26 339.77 419.66 340.02 420.06C340.28 420.45 340.47 420.89 340.7 421.3C340.89 421.73 341.09 422.17 341.23 422.62C341.39 423.07 341.51 423.52 341.61 424.01L341.86 425.27L341.19 424.15C341.01 423.86 340.85 423.55 340.64 423.28C340.45 422.99 340.21 422.74 339.98 422.49C339.73 422.25 339.48 422.01 339.2 421.81C338.93 421.6 338.64 421.4 338.34 421.23C337.14 420.53 335.78 420.12 334.4 419.88C333.02 419.64 331.6 419.58 330.19 419.63C328.78 419.67 327.37 419.81 325.99 420.08L325.94 419.59L327.86 419.71C328.49 419.81 329.13 419.89 329.76 420.01C330.38 420.18 331.02 420.27 331.62 420.51L332.53 420.83C332.83 420.95 333.12 421.1 333.41 421.24C333.71 421.37 333.99 421.52 334.26 421.7C334.53 421.87 334.82 422.02 335.08 422.22L335.85 422.81C336.1 423.02 336.32 423.25 336.56 423.48C337.01 423.94 337.43 424.44 337.78 424.99C338.14 425.53 338.44 426.11 338.68 426.71C338.92 427.31 339.09 427.94 339.17 428.59L339.21 429.09V429.57C339.19 429.75 339.21 429.82 339.27 429.93C339.35 430.03 339.46 430.11 339.58 430.18C340.11 430.44 340.75 430.53 341.37 430.6C342 430.66 342.63 430.69 343.26 430.7C345.79 430.72 348.33 430.52 350.85 430.24L350.81 430.26Z" fill="#407035"/>
<path d="M356.641 419.3C356.641 419.3 356.501 419.45 356.271 419.7C356.031 419.95 355.711 420.34 355.321 420.79C354.941 421.25 354.501 421.79 354.071 422.39C353.841 422.68 353.641 423.01 353.421 423.33C353.201 423.65 353.001 423.99 352.791 424.32C352.601 424.66 352.401 425 352.231 425.35C352.081 425.7 351.881 426.03 351.761 426.38C351.641 426.73 351.471 427.05 351.391 427.37C351.301 427.69 351.181 428 351.131 428.29C351.081 428.58 351.021 428.84 350.961 429.08C350.921 429.32 350.911 429.53 350.891 429.7C350.851 430.05 350.831 430.25 350.831 430.25C350.831 430.25 350.821 430.05 350.791 429.7C350.791 429.52 350.761 429.31 350.771 429.06C350.791 428.82 350.811 428.54 350.841 428.23C350.871 427.92 350.961 427.61 351.031 427.26C351.091 426.91 351.231 426.57 351.341 426.21C351.451 425.84 351.631 425.49 351.791 425.12C351.961 424.76 352.161 424.41 352.351 424.05C352.571 423.71 352.781 423.36 353.011 423.04C353.241 422.72 353.471 422.4 353.721 422.11C354.191 421.52 354.701 421.02 355.121 420.59C355.991 419.75 356.661 419.3 356.661 419.3H356.641Z" fill="#407035"/>
<path d="M350.001 424.91C350.061 425.11 350.111 425.31 350.161 425.51L350.031 425.53C349.971 425.11 350.001 424.69 350.101 424.29C350.181 423.88 350.361 423.49 350.541 423.12L350.871 422.59L351.261 422.1C351.551 421.8 351.831 421.49 352.171 421.25C352.491 420.98 352.841 420.77 353.191 420.55C353.361 420.44 353.561 420.36 353.741 420.26C353.921 420.17 354.111 420.08 354.301 420L354.881 419.79C355.071 419.73 355.261 419.65 355.461 419.6C355.861 419.51 356.251 419.4 356.651 419.32C356.291 419.5 355.911 419.66 355.551 419.82L354.481 420.36L353.971 420.66C353.801 420.76 353.621 420.85 353.461 420.96C353.141 421.19 352.801 421.39 352.511 421.65C352.361 421.78 352.201 421.89 352.071 422.03C351.931 422.17 351.781 422.3 351.651 422.44L351.271 422.88L350.941 423.35C350.741 423.68 350.551 424.02 350.431 424.39C350.301 424.75 350.201 425.14 350.181 425.53L350.051 425.55C350.041 425.35 350.031 425.14 350.031 424.93L350.001 424.91Z" fill="#407035"/>
<path d="M354.21 413.93C354.21 413.93 353.75 414.54 353.14 415.48C352.83 415.95 352.5 416.52 352.16 417.13C351.82 417.74 351.49 418.41 351.21 419.1C351.08 419.45 350.91 419.78 350.81 420.13C350.7 420.48 350.57 420.81 350.49 421.15C350.4 421.49 350.3 421.81 350.25 422.13C350.2 422.44 350.12 422.74 350.1 423.02C350.08 423.3 350.04 423.55 350.01 423.78C350.01 424.01 350.01 424.21 350 424.37C349.99 424.7 349.98 424.89 349.98 424.89C349.98 424.89 349.95 424.7 349.9 424.37C349.88 424.2 349.85 424 349.82 423.77C349.82 423.54 349.8 423.27 349.81 422.99C349.8 422.7 349.84 422.39 349.87 422.06C349.89 421.73 349.95 421.39 350.03 421.03C350.1 420.67 350.2 420.32 350.32 419.96C350.42 419.59 350.58 419.24 350.71 418.88C351.01 418.17 351.36 417.49 351.75 416.88C352.12 416.27 352.53 415.74 352.89 415.29C353.61 414.4 354.2 413.91 354.2 413.91L354.21 413.93Z" fill="#407035"/>
<path d="M347.501 421.439C347.641 421.569 347.801 421.679 347.951 421.769L347.871 421.819C347.821 421.349 347.811 420.869 347.861 420.399C347.891 419.919 347.961 419.449 348.061 418.979C348.111 418.739 348.181 418.509 348.251 418.289C348.311 418.059 348.401 417.829 348.501 417.609C348.601 417.389 348.691 417.159 348.821 416.959C348.951 416.749 349.041 416.529 349.201 416.339C349.351 416.149 349.501 415.949 349.651 415.769L350.181 415.259C350.361 415.089 350.581 414.979 350.771 414.829C350.961 414.679 351.191 414.579 351.411 414.489C351.641 414.399 351.851 414.279 352.081 414.219L352.781 414.049C353.011 413.989 353.251 413.989 353.491 413.969C353.731 413.959 353.961 413.949 354.201 413.939C353.971 413.999 353.741 414.049 353.511 414.099C353.281 414.149 353.051 414.179 352.841 414.279L352.191 414.509C351.971 414.589 351.791 414.719 351.581 414.819L351.281 414.979L351.011 415.179C350.841 415.319 350.641 415.439 350.481 415.599L350.011 416.079C349.871 416.249 349.741 416.439 349.601 416.619C349.461 416.789 349.361 416.999 349.241 417.189C349.121 417.379 349.031 417.589 348.931 417.789C348.831 417.989 348.741 418.199 348.671 418.419C348.591 418.629 348.511 418.849 348.451 419.069C348.311 419.509 348.201 419.959 348.121 420.409C348.051 420.869 347.971 421.329 347.941 421.789V421.899L347.861 421.839C347.701 421.709 347.581 421.569 347.471 421.419L347.501 421.439Z" fill="#407035"/>
<path d="M346.14 409.739C346.14 409.739 346.17 410.489 346.2 411.609C346.22 412.169 346.23 412.819 346.26 413.519C346.29 414.219 346.3 414.959 346.36 415.699C346.39 416.439 346.47 417.179 346.54 417.869C346.63 418.549 346.71 419.199 346.85 419.729C346.93 419.989 346.97 420.249 347.05 420.449C347.13 420.659 347.18 420.849 347.26 420.989C347.42 421.279 347.51 421.439 347.51 421.439C347.51 421.439 347.39 421.299 347.18 421.039C347.07 420.909 346.99 420.729 346.87 420.519C346.74 420.319 346.67 420.069 346.56 419.799C346.45 419.529 346.39 419.229 346.29 418.919C346.21 418.599 346.14 418.269 346.07 417.919C346.02 417.569 345.95 417.209 345.92 416.839C345.88 416.469 345.84 416.089 345.83 415.719C345.79 414.969 345.78 414.219 345.8 413.509C345.81 412.809 345.87 412.149 345.91 411.589C346.01 410.469 346.15 409.729 346.15 409.729L346.14 409.739Z" fill="#407035"/>
<path d="M344.561 425.03L344.801 425.91L344.691 425.93C344.421 424.53 344.251 423.12 344.091 421.7C343.951 420.28 343.861 418.86 343.851 417.43C343.851 416 343.881 414.57 344.121 413.15C344.181 412.8 344.251 412.44 344.341 412.09C344.431 411.74 344.531 411.39 344.671 411.06C344.801 410.72 345.001 410.41 345.231 410.12C345.481 409.85 345.801 409.63 346.161 409.59H346.171V409.6L346.151 409.74V409.6L346.161 409.61C345.811 409.71 345.551 409.94 345.341 410.21C345.151 410.5 345.001 410.81 344.911 411.15C344.801 411.48 344.721 411.82 344.661 412.16C344.591 412.5 344.551 412.85 344.511 413.2C344.371 414.6 344.351 416.01 344.371 417.42C344.391 418.83 344.451 420.25 344.531 421.66C344.591 423.08 344.711 424.49 344.801 425.91L344.691 425.93L344.561 425.03V425.03Z" fill="#407035"/>
<path d="M324.32 412.209C324.32 412.209 325.98 412.009 328.49 412.169C329.74 412.249 331.2 412.399 332.74 412.749C334.28 413.089 335.9 413.589 337.42 414.329C338.18 414.699 338.9 415.149 339.59 415.629C340.25 416.139 340.89 416.659 341.42 417.259C341.7 417.539 341.93 417.869 342.17 418.159C342.38 418.479 342.59 418.789 342.77 419.099C343.12 419.739 343.4 420.369 343.61 420.969C343.7 421.269 343.8 421.559 343.87 421.839C343.93 422.119 343.99 422.379 344.04 422.629C344.15 423.129 344.24 423.559 344.32 423.919C344.47 424.629 344.55 425.039 344.55 425.039C344.55 425.039 344.43 424.639 344.22 423.939C344.12 423.589 343.99 423.169 343.85 422.679C343.71 422.189 343.55 421.649 343.33 421.069C343.11 420.499 342.81 419.899 342.45 419.299C342.07 418.709 341.62 418.119 341.09 417.569C340.58 416.999 339.95 416.509 339.31 416.029C338.64 415.579 337.94 415.149 337.2 414.809C335.73 414.079 334.15 413.559 332.65 413.209C331.14 412.849 329.71 412.609 328.47 412.479C326 412.199 324.32 412.229 324.32 412.229V412.209Z" fill="#407035"/>
<path opacity="0.4" d="M339.001 429.65C338.791 431.88 350.811 430.26 350.811 430.26C350.561 424.4 356.641 419.3 356.641 419.3C354.301 420.24 352.881 422.7 351.851 424.52C350.821 426.34 350.111 426.83 349.951 425.92C349.801 425.08 349.811 424.3 349.951 423.58C350.051 418.29 354.221 413.94 354.221 413.94C354.191 413.94 354.171 413.94 354.141 413.94C352.461 414.84 350.601 417.24 350.221 418.92C349.621 421.55 348.151 426.8 346.141 425.4C344.131 424 344.781 417 344.781 414.72C344.781 412.98 345.511 410.68 345.861 409.7C343.401 410.81 344.121 420.18 344.541 424.15C344.681 424.74 344.791 425.24 344.891 425.6C345.541 428.12 343.091 430.78 343.531 427.91C343.971 425.04 340.921 417.93 335.971 414.75C332.841 412.74 327.841 412.29 324.591 412.23C339.751 413.21 341.351 424.08 341.351 424.08C341.241 423.87 341.131 423.68 341.011 423.49C342.061 425.81 340.991 427 339.561 424.7C338.191 422.5 334.701 421.15 330.421 420.44C337.371 422.17 339.231 427.37 339.011 429.66L339.001 429.65Z" fill="#407035"/>
<path d="M225.95 251.801C225.53 248.651 224.59 245.401 223.13 242.061C221.81 239.051 218.31 237.681 215.3 239.001C212.29 240.321 210.92 243.821 212.24 246.831C215.66 254.641 214.92 260.481 209.77 266.371C204.61 272.281 195.8 277.201 187.29 281.961C174.68 289.011 162.77 295.671 159.72 306.591C158.21 311.971 159.13 317.671 162.44 323.541C167.46 332.421 170.42 341.801 170.99 350.681C171.55 359.181 169.85 366.441 166.1 371.661C158.79 381.821 145.37 381.661 135.4 379.731C132.18 379.111 129.06 381.211 128.44 384.431C127.82 387.651 129.92 390.771 133.14 391.391C142.77 393.251 151.36 393.041 158.67 390.751C165.8 388.521 171.54 384.431 175.75 378.591C181.14 371.101 183.59 361.181 182.86 349.891C182.17 339.241 178.68 328.101 172.79 317.681C171.06 314.631 170.53 312.051 171.17 309.791C172.9 303.631 183.17 297.881 193.1 292.331C202.49 287.081 212.21 281.641 218.72 274.181C224.61 267.441 227.02 259.941 225.94 251.791L225.95 251.801Z" fill="#A16552"/>
<path opacity="0.35" d="M133.15 391.39C131.82 391.13 130.69 390.45 129.85 389.51C138.13 390.72 146.97 390.8 153.43 388.78C160.56 386.55 166.3 382.46 170.51 376.62C175.9 369.13 178.35 359.21 177.62 347.92C176.93 337.27 173.44 326.13 167.55 315.71C165.82 312.66 165.29 310.08 165.93 307.82C167.66 301.66 176.53 295.43 186.47 289.88C195.86 284.63 205.58 279.19 212.09 271.73C217.98 264.99 220.39 257.49 219.31 249.34C218.89 246.19 217.95 242.94 216.49 239.6C216.36 239.29 216.19 239.01 216.02 238.74C218.85 237.9 221.93 239.28 223.14 242.05C224.6 245.39 225.54 248.64 225.96 251.79C227.04 259.94 224.62 267.44 218.74 274.18C212.22 281.64 202.51 287.07 193.12 292.33C183.19 297.89 172.91 303.63 171.19 309.79C170.56 312.05 171.09 314.63 172.81 317.68C178.7 328.1 182.18 339.24 182.88 349.89C183.62 361.18 181.16 371.1 175.77 378.59C171.57 384.43 165.82 388.52 158.69 390.75C151.37 393.04 142.78 393.25 133.16 391.39H133.15Z" fill="#4E3F3F"/>
<path d="M199.309 93.9902H222.439V84.0802H199.309V93.9902Z" fill="#794C3E"/>
<path d="M321.059 151.36C314.719 142.29 307.459 137.11 306.889 137.63C306.319 138.15 310.019 146.21 320.569 152.73L321.669 153.04L321.059 151.36Z" fill="#CCCCCC"/>
<path d="M245.55 103.55C245.55 103.55 246.09 98.1301 245.39 96.8301C245.22 96.5101 244.59 96.6101 243.49 95.8701C243.49 95.8701 254.73 101.05 255.64 103.74C256.55 106.43 256.48 118.14 257.27 121.49C258.06 124.85 272.21 157.47 272.89 157.59C273.57 157.71 274.55 156.28 275.42 156.66C276.29 157.04 275.87 159.27 275.87 159.27C275.87 159.27 279.08 158.46 282.73 156.58C286.38 154.7 303.29 139.79 303.29 139.79C303.29 139.79 303.74 138.95 304.2 139.03C304.66 139.11 305.03 139.29 305.03 139.29C305.03 139.29 304.45 141.14 306.24 143.82C308.04 146.49 314.49 153.56 316.26 154.45C318.04 155.34 319.68 155.06 319.68 155.06C319.68 155.06 322.27 157.25 321.98 157.54C321.69 157.83 317.1 159.08 315.63 160.03C314.16 160.97 296.51 179.21 288.77 185.01C281.03 190.81 269.16 196.06 267.85 195.82C266.54 195.58 249.26 174.3 243.86 161.62C241.7 156.55 239.7 152.88 238.06 150.28C238.19 149.82 238.33 149.37 238.46 148.93C242.16 136.72 244.38 121.03 245.53 103.54L245.55 103.55Z" fill="#3F3093"/>
<path d="M316.279 154.461C314.499 153.571 308.049 146.501 306.259 143.831C304.609 141.371 304.959 139.631 305.029 139.361L306.889 137.641C306.889 137.641 309.649 142.231 312.769 145.411C315.879 148.591 321.209 152.691 321.239 152.521C321.269 152.351 321.059 151.371 321.059 151.371C321.059 151.371 322.779 153.491 322.289 153.791C322.059 153.931 320.869 154.511 319.669 155.091C319.469 155.121 317.949 155.311 316.289 154.481L316.279 154.461Z" fill="#E6E6E6"/>
<path d="M308.13 139.56C308.6 139.14 309.37 138.29 309.53 136.99C309.75 135.09 311.56 125.42 312.42 124.15C313.28 122.88 315.64 120.37 316.39 119C317.13 117.62 319.52 116.41 320.35 114.84C321.18 113.26 322.21 110.3 322.73 110.35C323.25 110.4 325.77 113.22 325.71 115.66C325.65 118.11 323.98 121.13 322.9 122.18C321.82 123.24 320.64 124.84 320.93 125.88C321.22 126.92 333.34 125.42 336.85 124.83C340.36 124.25 348.24 126.94 349.66 127.89C351.07 128.83 351.47 130.28 351.47 130.28C351.47 130.28 354.81 130.62 356.15 132.15C357.5 133.68 355.13 135.46 355.13 135.46C355.13 135.46 356.06 138.47 355.49 139.06C354.92 139.65 353.37 139.93 353.37 139.93C353.37 139.93 353.2 142.27 352.56 142.59C351.93 142.91 341.79 144.46 339.85 144.9C337.92 145.33 325.45 147.29 322.33 147.9C320.43 148.27 318.81 149.24 317.82 149.95C316.16 148.59 314.23 146.91 312.77 145.42C310.94 143.55 309.23 141.2 308.14 139.57L308.13 139.56Z" fill="#A16552"/>
<path opacity="0.45" d="M341.36 138.741C342.61 138.611 343.88 138.481 345.16 138.561C347.69 138.721 350.18 139.131 352.63 139.751C350.11 139.631 347.61 139.361 345.13 139.241C343.9 139.171 342.66 139.261 341.41 139.321L337.65 139.481H337.62H337.6L337.09 139.071L337.65 139.361C338.88 139.101 340.12 138.931 341.37 138.771L341.36 138.741Z" fill="#4E3F3F"/>
<path opacity="0.45" d="M345.189 133.79C348.399 133.82 351.549 134.46 354.539 135.47C351.419 134.95 348.299 134.46 345.189 134.46C342.079 134.53 338.939 134.9 335.819 135.33H335.789L335.769 135.32L335.399 134.87L335.819 135.23C338.859 134.38 341.999 133.85 345.189 133.79V133.79Z" fill="#4E3F3F"/>
<path opacity="0.45" d="M338.259 130.08L334.109 130.38C335.449 130.02 336.819 129.76 338.199 129.56C339.569 129.34 341.009 129.29 342.399 129.38C345.179 129.55 347.929 129.87 350.669 130.39C347.889 130.39 345.119 130.2 342.359 130.05C340.979 129.95 339.639 129.98 338.259 130.07V130.08Z" fill="#4E3F3F"/>
<path opacity="0.35" d="M313.649 143.54C313.649 143.54 316.619 144.76 318.189 144.58C319.749 144.4 323.749 142.58 327.979 141.96C332.219 141.34 336.109 142.55 336.419 142.66C336.419 142.66 343.899 141.86 347.979 141.73C349.939 141.67 351.699 141.71 353.019 141.78C352.899 142.16 352.749 142.48 352.549 142.58C351.919 142.9 341.779 144.45 339.839 144.89C337.909 145.32 325.439 147.28 322.319 147.89C320.419 148.26 318.799 149.23 317.809 149.94C316.149 148.58 314.219 146.9 312.759 145.41C312.539 145.18 312.329 144.93 312.109 144.69L313.649 143.54V143.54Z" fill="#4E3F3F"/>
<path d="M243.879 161.63C241.719 156.56 239.719 152.89 238.079 150.29C238.209 149.83 238.349 149.38 238.479 148.94C240.419 142.52 241.949 135.14 243.139 127.05C248.749 139 263.029 169.19 264.109 169.36C265.449 169.58 267.869 168.43 267.849 170.03C267.829 171.62 267.119 173.92 267.119 173.92C267.119 173.92 283.419 167.93 289.269 164.67C293.609 162.24 304.079 152.42 309.199 147.52C311.779 150.49 315.079 153.87 316.279 154.47C318.059 155.36 319.699 155.08 319.699 155.08C319.699 155.08 322.289 157.27 321.999 157.56C321.709 157.85 317.119 159.1 315.649 160.05C314.179 160.99 296.529 179.23 288.789 185.03C281.049 190.83 269.179 196.08 267.869 195.84C266.559 195.6 249.279 174.32 243.879 161.64V161.63Z" fill="#201775"/>
<path d="M188.909 89.75L190.979 88.59L193.839 80L208.709 90.97H212.319L222.629 86.54L227.359 91.76L229.659 92.64C228.969 97.12 226.939 109.72 224.539 119.23C222.569 127.02 219.159 136.99 217.089 142.84C213.779 137.24 209.559 129.92 206.859 124.66C202.499 116.16 191.589 94.94 188.919 89.76L188.909 89.75Z" fill="#F2F2F2"/>
<path d="M204.629 111.42C204.629 109.74 202.999 107.27 202.099 106.56C201.189 105.85 193.369 91.3301 193.369 91.3301L211.269 99.3101L225.969 91.3301C225.969 91.3301 221.469 110.26 223.459 111.41C224.079 111.77 225.419 110.3 226.969 108.11C226.239 111.86 225.409 115.75 224.539 119.22C222.569 127.01 219.159 136.98 217.089 142.83C213.779 137.23 209.559 129.91 206.859 124.65C205.559 122.12 203.679 118.46 201.609 114.43C206.069 115.36 204.639 112.87 204.639 111.42H204.629Z" fill="#E6E6E6"/>
<path d="M222.019 151.101C222.019 151.101 206.039 129.851 198.849 117.871C191.669 105.891 185.579 90.9707 185.579 90.9707C185.579 90.9707 169.199 97.0707 168.499 98.8807C167.809 100.691 164.329 118.551 170.119 140.481C175.909 162.411 189.119 203.561 188.419 209.431C187.729 215.311 184.479 229.031 184.479 229.031C184.479 229.031 193.279 234.001 199.539 235.131C205.789 236.261 210.299 235.131 210.299 235.131L225.949 211.391C225.949 211.391 225.489 193.151 224.099 177.551C222.709 161.951 222.009 151.101 222.009 151.101H222.019Z" fill="#3F3093"/>
<path d="M224.109 177.56C222.719 161.96 222.019 151.11 222.019 151.11C222.019 151.11 219.999 148.42 217.079 144.43C219.779 139.39 224.969 129.63 228.279 122.85C232.909 113.35 235.079 92.7803 235.079 92.7803C235.079 92.7803 246.809 96.7903 247.739 97.9503C248.669 99.1103 249.129 104.53 249.129 104.53C251.209 121.94 251.909 137.76 250.519 150.42C249.129 163.08 248.229 187.27 250.189 195.86C252.149 204.45 259.099 222.92 259.099 222.92C259.099 222.92 252.839 229.93 245.199 232.41C237.559 234.9 229.209 235.12 229.209 235.12L222.359 216.86L225.969 211.38C225.969 211.38 225.509 193.14 224.119 177.54L224.109 177.56Z" fill="#3F3093"/>
<path d="M173.579 409.62C173.579 409.62 175.189 354.66 175.879 347.65C176.569 340.64 181.859 319.3 183.009 313.09C184.159 306.87 180.499 267.47 180.269 263.62C180.039 259.78 177.969 249.38 177.969 249.38C177.969 249.38 181.619 236.29 186.639 229.75C189.309 231.17 195.519 234.27 200.259 235.14C206.469 236.27 210.939 235.14 210.939 235.14L226.469 211.4L222.889 216.88L229.689 235.14C229.689 235.14 237.969 234.91 245.549 232.43C251.429 230.5 256.469 225.87 258.439 223.88C260.389 230.12 264.729 244.28 265.089 247.69C265.549 252.1 264.039 287.66 262.769 295.8C261.509 303.94 260.009 313.1 259.779 317.39C259.549 321.68 257.709 388.94 258.289 394.82C258.859 400.7 267.829 418.11 267.489 418.67C267.149 419.24 264.059 421.38 264.059 421.38C264.059 421.38 263.009 419.35 262.089 419.35C261.169 419.35 249.329 420.93 243.469 422.52C237.609 424.1 230.249 426.02 230.249 426.02C230.249 426.02 229.899 409.63 229.789 407.14C229.669 404.65 225.999 368.37 225.309 359.89C224.619 351.41 226.799 341.96 227.149 340.49C227.499 339.02 227.609 327.15 228.409 325.91C229.219 324.67 230.019 316.26 230.019 316.26C230.019 316.26 228.189 303.01 227.729 294.87C227.269 286.73 225.329 251.2 224.639 251.42C223.949 251.65 222.919 252.66 222.339 256.51C221.769 260.35 213.239 308.92 212.209 315.02C211.179 321.12 210.369 325.31 209.339 329.38C208.299 333.45 207.159 348.48 206.239 360.13C205.319 371.77 203.479 392.12 203.939 398.22C204.399 404.32 203.589 421.28 204.509 422.97C205.429 424.67 201.059 426.02 201.059 426.02C201.059 426.02 201.059 422.63 196.459 419.35C191.859 416.07 174.619 424.1 174.619 424.1C174.619 424.1 172.319 416.87 172.319 415.06C172.319 413.25 173.579 409.63 173.579 409.63V409.62Z" fill="#110E60"/>
<path d="M265.33 418.66C265.68 418.09 256.71 400.69 256.13 394.81C255.56 388.93 257.39 321.67 257.62 317.38C257.85 313.09 259.35 303.93 260.61 295.79C261.88 287.65 263.39 252.09 262.93 247.68C262.6 244.53 258.88 232.23 256.77 225.45C257.45 224.84 258.01 224.29 258.43 223.87C260.38 230.11 264.72 244.27 265.08 247.68C265.54 252.09 264.03 287.65 262.76 295.79C261.5 303.93 260 313.09 259.77 317.38C259.54 321.67 257.7 388.93 258.28 394.81C258.85 400.69 267.82 418.1 267.48 418.66C267.14 419.23 264.05 421.37 264.05 421.37C264.05 421.37 263.77 420.83 263.37 420.31C264.22 419.68 265.15 418.96 265.33 418.66V418.66Z" fill="#201775"/>
<path d="M202.34 422.96C201.42 421.27 202.23 404.31 201.77 398.21C201.31 392.11 203.15 371.76 204.07 360.12C204.99 348.48 206.14 333.44 207.17 329.37C208.2 325.3 209.01 321.12 210.04 315.01C211.08 308.91 219.6 260.34 220.17 256.5C220.75 252.66 221.78 251.64 222.47 251.41C222.58 251.37 222.68 252.48 222.76 254.39C222.6 254.98 222.45 255.67 222.33 256.5C221.76 260.34 213.23 308.91 212.2 315.01C211.17 321.11 210.36 325.3 209.33 329.37C208.29 333.44 207.15 348.47 206.23 360.12C205.31 371.76 203.47 392.11 203.93 398.21C204.39 404.31 203.58 421.27 204.5 422.96C205.42 424.66 201.05 426.01 201.05 426.01C201.05 426.01 201.05 425.69 200.92 425.15C201.92 424.6 202.82 423.82 202.35 422.96H202.34Z" fill="#201775"/>
<path d="M198.589 235.13C194.679 234.41 189.769 232.11 186.729 230.55C186.919 230.27 187.109 230 187.309 229.74C189.929 231.16 196.04 234.26 200.71 235.13C202.29 235.42 203.76 235.56 205.07 235.61C203.32 235.68 201.109 235.6 198.589 235.13V235.13Z" fill="#22B322"/>
<path d="M220.96 218.971L225.96 211.391L222.35 216.871L229.16 235.001C227.83 235.101 227.03 235.131 227.03 235.131L220.96 218.971V218.971Z" fill="#22B322"/>
<path d="M229.76 235.13L229.71 235C232.59 234.77 238.03 234.13 243.16 232.41C248.91 230.48 253.84 225.85 255.77 223.86C255.92 224.34 256.08 224.88 256.25 225.44C253.8 227.7 249.8 230.89 245.27 232.41C237.85 234.9 229.76 235.12 229.76 235.12V235.13Z" fill="#FF97B4"/>
<path d="M262.109 419.361C262.729 420.341 263.409 421.391 263.809 421.861C264.669 422.881 279.069 426.101 281.139 427.291C283.209 428.481 286.569 433.311 286.569 433.311C286.569 433.311 275.019 436.701 266.739 435.291C258.299 433.851 259.409 433.481 251.309 432.541C243.209 431.611 232.169 434.321 232.259 431.691C232.299 430.441 232.709 427.771 233.129 425.321C235.799 424.621 240.049 423.491 243.719 422.501C249.289 421.001 260.249 419.491 262.099 419.351L262.109 419.361Z" fill="#722108"/>
<path d="M232.26 431.69C232.26 431.48 232.29 431.22 232.31 430.94L232.48 432.21C232.35 432.06 232.26 431.89 232.26 431.68V431.69Z" fill="#3A1616"/>
<path d="M232.279 430.71H232.329C232.329 430.79 232.309 430.87 232.309 430.95L232.279 430.71Z" fill="#3A1616"/>
<path d="M244.67 432.4V435.22C244.67 435.22 243.03 435.39 238.29 435.22C233.55 435.05 232.77 434.54 232.77 434.54L232.47 432.23C233.55 433.43 238.94 432.64 244.67 432.4V432.4Z" fill="#4C1605"/>
<path d="M196.72 419.34C201.32 422.62 201.32 426.01 201.32 426.01C201.32 426.01 201.34 426.01 201.37 425.99C201.71 428.89 202.01 431.94 201.84 432.61C201.49 433.97 199.17 437.45 195.2 439.99C191.24 442.53 174.6 432.78 174.6 431.43C174.6 430.53 174.91 426.54 175.11 423.98C177.12 423.07 192.43 416.27 196.73 419.33L196.72 419.34Z" fill="#722108"/>
<path d="M211.829 90.9698C211.189 90.9698 204.469 103.18 203.779 103.12C203.079 103.06 197.349 97.1898 194.569 93.7398C191.789 90.2898 191.039 88.4198 191.039 88.4198L193.809 79.5498C193.809 79.5498 198.979 83.7898 202.549 86.4198C206.119 89.0498 211.829 90.9598 211.829 90.9598V90.9698Z" fill="#E6E6E6"/>
<path d="M212.31 90.9698C212.31 90.9698 220.46 104.25 220.92 104.19C221.38 104.13 224.05 98.5398 225.44 95.5998C226.83 92.6598 227.53 91.3298 227.53 91.3298L222.99 85.5498C222.99 85.5498 217.23 88.8598 215.6 89.5598C213.97 90.2598 212.32 90.9698 212.32 90.9698H212.31Z" fill="#E6E6E6"/>
<path d="M211.829 90.9707H212.309C212.309 90.9707 215.799 96.6607 218.339 100.571L216.109 104.191C216.109 104.191 214.609 103.231 212.749 103.631C210.899 104.021 209.329 104.991 209.329 104.991L205.819 100.331C208.069 96.7407 211.389 90.9707 211.819 90.9707H211.829Z" fill="#AB71F6"/>
<path d="M217.069 142.83C214.169 137.92 210.569 131.69 207.909 126.68L209.339 104.98C209.339 104.98 210.899 104.02 212.759 103.62C214.609 103.22 216.119 104.18 216.119 104.18L216.269 103.94C217.749 109.44 220.619 120.1 222.369 126.91C220.579 132.8 218.509 138.79 217.079 142.82L217.069 142.83Z" fill="#AB71F6"/>
<path d="M188.31 88.5898C188.31 88.5898 201.86 114.93 206.84 124.65C211.82 134.37 222.02 151.1 222.02 151.1C222.02 151.1 203.72 136.41 193.87 124.08C184.02 111.76 176.26 93.8998 176.26 93.8998C176.26 93.8998 181.24 92.2598 183.33 91.3298C185.42 90.3998 188.31 88.5898 188.31 88.5898V88.5898Z" fill="#17176D"/>
<path d="M224.529 119.231C227.499 107.471 229.899 90.9707 229.899 90.9707L233.609 91.8707C237.319 92.7707 243.689 94.2407 243.689 94.2407C243.689 94.2407 239.289 113.571 233.839 123.291C229.969 130.211 222.219 139.651 218.069 144.511C217.749 143.971 217.409 143.411 217.069 142.821C219.149 136.981 222.559 127.011 224.519 119.211L224.529 119.231Z" fill="#17176D"/>
<path d="M212.229 158.81C212.229 160.54 213.669 161.95 215.439 161.95C217.219 161.95 218.649 160.55 218.649 158.81C218.649 157.07 217.209 155.67 215.439 155.67C213.669 155.67 212.229 157.07 212.229 158.81Z" fill="#17176D"/>
<path d="M213.859 181.69C213.859 183.42 215.299 184.83 217.069 184.83C218.839 184.83 220.279 183.43 220.279 181.69C220.279 179.95 218.839 178.55 217.069 178.55C215.299 178.55 213.859 179.95 213.859 181.69Z" fill="#17176D"/>
<path d="M215.5 204.571C215.5 206.301 216.94 207.711 218.71 207.711C220.48 207.711 221.92 206.311 221.92 204.571C221.92 202.831 220.48 201.431 218.71 201.431C216.94 201.431 215.5 202.831 215.5 204.571Z" fill="#17176D"/>
<path d="M194.569 93.7398C191.789 90.2898 191.039 88.4198 191.039 88.4198L191.069 88.3198C193.909 89.9798 203.119 95.0798 203.279 91.7198C203.429 88.3398 195.919 81.9198 193.649 80.0698L193.809 79.5498C193.809 79.5498 198.979 83.7898 202.549 86.4198C206.119 89.0498 211.829 90.9598 211.829 90.9598C211.189 90.9598 204.469 103.17 203.779 103.11C203.079 103.05 197.349 97.1798 194.569 93.7298V93.7398Z" fill="#CCCCCC"/>
<path d="M215.59 89.5606C217.07 88.9206 221.96 86.1406 222.83 85.6406C220.98 87.8206 218.12 91.6706 218.34 94.3706C218.51 96.4806 222.83 94.7406 226.86 92.6506C226.52 93.3406 226.05 94.3106 225.44 95.6006C224.05 98.5406 221.39 104.131 220.92 104.191C220.46 104.251 212.31 90.9706 212.31 90.9706C212.31 90.9706 213.96 90.2606 215.59 89.5606V89.5606Z" fill="#CCCCCC"/>
<path d="M212.31 93.1403C212.31 93.1403 216.03 97.4703 215.76 99.3203C215.49 101.17 214.47 101.09 212.31 101.26C210.15 101.44 209.55 101.88 208.85 101.26C208.15 100.64 208.76 99.3703 209.27 97.9803C209.78 96.5903 212.3 92.7803 212.3 92.7803" fill="#A67FEF"/>
<path d="M215.129 106.21C217.569 115.93 220.739 128.2 218.339 131.03C215.939 133.86 210.889 129.17 210.159 126.44C209.429 123.7 210.099 106.1 210.959 104.99C211.829 103.88 214.269 104.56 214.519 104.99C214.769 105.42 215.129 106.21 215.129 106.21V106.21Z" fill="#A67FEF"/>
<path d="M218.069 144.52C217.749 143.98 217.409 143.42 217.069 142.83C219.149 136.99 222.559 127.02 224.519 119.22C227.489 107.46 229.889 90.96 229.889 90.96C229.889 90.96 229.889 90.96 230.879 91.2C229.909 97.76 227.719 114.69 231.009 115.12C233.799 115.48 239.829 102.43 243.359 94.16C243.559 94.21 243.679 94.23 243.679 94.23C243.679 94.23 239.279 113.56 233.829 123.28C229.959 130.2 222.209 139.64 218.059 144.5L218.069 144.52Z" fill="#110E60"/>
<path d="M178.33 93.2098C182.18 101.09 195.25 127.03 199.14 124.67C202.84 122.42 191.77 98.3299 187.38 89.1599C187.95 88.8199 188.31 88.5898 188.31 88.5898C188.31 88.5898 201.86 114.93 206.84 124.65C211.82 134.37 222.02 151.1 222.02 151.1C222.02 151.1 203.72 136.41 193.87 124.08C184.02 111.76 176.26 93.8998 176.26 93.8998C176.26 93.8998 177.15 93.6098 178.33 93.1998V93.2098Z" fill="#110E60"/>
<path d="M199.549 235.13C193.299 234 184.489 229.03 184.489 229.03C184.489 229.03 187.729 215.31 188.429 209.43C188.989 204.69 180.499 176.97 174.159 154.92C176.699 147.31 178.319 142.48 178.319 142.48C178.319 142.48 201.279 187.56 202.639 201.43C203.999 215.29 205.469 223.34 210.159 222.55C214.859 221.76 225.919 209.55 225.919 209.55C225.949 210.72 225.959 211.4 225.959 211.4L210.309 235.14C210.309 235.14 205.809 236.27 199.549 235.14V235.13Z" fill="#201775"/>
<path d="M225.959 211.4C225.959 211.4 225.949 210.73 225.919 209.55C225.919 209.55 245.269 223.03 246.899 211.4C248.529 199.76 246.899 185.93 246.899 185.93L249.079 181.9C249.159 187.73 249.489 192.8 250.189 195.87C252.149 204.46 259.099 222.93 259.099 222.93C259.099 222.93 252.839 229.94 245.199 232.42C237.559 234.91 229.209 235.13 229.209 235.13L222.359 216.87L225.969 211.39L225.959 211.4Z" fill="#201775"/>
<path d="M180.6 239.381C182.03 235.951 183.82 232.331 185.82 229.741C188.51 231.161 194.77 234.261 199.55 235.131C205.8 236.261 210.31 235.131 210.31 235.131L225.96 211.391L222.35 216.871L229.2 235.131C229.2 235.131 237.54 234.901 245.19 232.421C251.12 230.491 256.19 225.861 258.18 223.871C259.15 226.961 260.72 232.011 262.1 236.721C256.32 238.951 243.05 243.961 236.58 245.591C228.16 247.711 222.35 245.591 222.35 245.591L220.29 231.811L210.24 246.531C210.24 246.531 203.99 247.181 191.5 244.001C186.85 242.821 183.27 241.091 180.59 239.381H180.6Z" fill="#0F0F4C"/>
<path d="M224.63 251.41C223.94 251.64 222.909 252.65 222.329 256.5C222.309 256.63 222.279 256.83 222.229 257.09C222.729 252.94 223.869 249.24 226.469 250.81C231.709 253.99 237.389 263.88 238.499 274.84C239.609 285.79 240.469 319.83 240.469 323C240.469 326.18 237.239 361.16 238.309 381.3C239.389 401.44 244.789 417.19 251.789 420.8C248.769 421.31 245.68 421.91 243.46 422.51C237.6 424.09 230.24 426.01 230.24 426.01C230.24 426.01 229.889 409.62 229.779 407.13C229.659 404.64 225.989 368.36 225.299 359.88C224.609 351.4 226.789 341.95 227.139 340.48C227.489 339.01 227.599 327.14 228.399 325.9C229.209 324.66 230.009 316.25 230.009 316.25C230.009 316.25 228.179 303 227.719 294.86C227.259 286.72 225.32 251.19 224.63 251.41V251.41Z" fill="#0F0F4C"/>
<path d="M201.05 426.01C201.05 426.01 201.05 422.62 196.45 419.34C191.85 416.06 174.61 424.09 174.61 424.09C174.61 424.09 172.31 416.86 172.31 415.05C172.31 413.24 173.57 409.62 173.57 409.62C173.57 409.62 175.18 354.66 175.87 347.65C176.56 340.64 181.85 319.3 183 313.09C184.15 306.87 180.49 267.47 180.26 263.62C180.03 259.78 177.96 249.38 177.96 249.38C177.96 249.38 181.61 236.29 186.63 229.75C188.72 230.86 192.96 232.99 196.98 234.28L197.13 235.63C197.13 235.63 189.67 254.44 188.95 267.46C188.23 280.48 194.48 316.63 191.96 323.7C189.45 330.77 181.51 408.14 184.42 413.79C187.32 419.44 189.81 416.62 195.2 413.79C198.03 412.31 201.54 417.03 204.25 421.86C204.31 422.38 204.39 422.76 204.49 422.94C205.41 424.64 201.04 425.99 201.04 425.99L201.05 426.01Z" fill="#0F0F4C"/>
<path d="M188.9 233.37L192.32 238.95C192.32 238.95 192.08 247.98 178.15 250.76L175.8 246.97L188.91 233.38L188.9 233.37Z" fill="#E6E6E6"/>
<path d="M177.539 97.9498C184.259 110.64 183.329 128.5 180.789 135.73C178.239 142.96 166.539 173.71 166.539 173.71C166.539 173.71 166.789 175.97 166.839 177.55C166.889 179.13 166.539 181.39 166.539 181.39C166.539 181.39 170.479 183.82 170.219 186.11C169.959 188.4 169.789 190.6 169.789 190.6C169.789 190.6 180.129 212.4 182.299 217.49C184.469 222.58 189.689 232.84 189.689 232.84C189.689 232.84 191.079 239.28 186.469 243.69C181.869 248.1 175.519 248.27 175.519 248.27C175.519 248.27 147.889 207.59 144.069 201.66C140.249 195.72 139.029 190.81 139.029 189.96C139.029 189.11 155.009 131.94 157.269 123.97C159.529 116 161.259 98.2198 173.189 96.0498C177.249 95.3098 177.539 97.9498 177.539 97.9498V97.9498Z" fill="#3F3093"/>
<path d="M170.599 222.55C170.599 213.01 152.949 190.92 153.759 182.97C154.449 176.22 175.689 140.69 182.089 130.11C181.759 132.34 181.309 134.26 180.789 135.74C178.239 142.97 166.539 173.72 166.539 173.72C166.539 173.72 166.789 175.98 166.839 177.56C166.889 179.14 166.539 181.4 166.539 181.4C166.539 181.4 170.479 183.83 170.219 186.12C169.959 188.41 169.789 190.61 169.789 190.61C169.789 190.61 180.129 212.41 182.299 217.5C184.469 222.59 189.689 232.85 189.689 232.85C189.689 232.85 191.079 239.29 186.469 243.7C181.869 248.11 175.519 248.28 175.519 248.28C175.519 248.28 165.919 234.24 157.639 221.75C164.139 224.34 170.599 226.43 170.599 222.55V222.55Z" fill="#201775"/>
<path d="M243.73 422.51C249.3 421.01 260.26 419.5 262.11 419.36C262.51 420 262.94 420.66 263.3 421.18C260.42 421.73 254.71 423.16 253.12 426.01C250.96 429.87 268.03 432.8 272.16 432.22C274.59 431.88 280.13 430.99 284.28 430.32C285.54 431.83 286.56 433.3 286.56 433.3C286.56 433.3 275.01 436.69 266.73 435.28C258.29 433.84 259.4 433.47 251.3 432.53C243.2 431.6 232.16 434.31 232.25 431.68C232.29 430.43 232.7 427.76 233.12 425.31C235.79 424.61 240.04 423.48 243.71 422.49L243.73 422.51Z" fill="#4C1605"/>
<path d="M186.869 438.741C181.039 436.381 174.579 432.281 174.579 431.441C174.579 430.541 174.889 426.551 175.089 423.991C177.099 423.081 192.409 416.281 196.709 419.341C201.309 422.621 201.309 426.011 201.309 426.011C201.309 426.011 201.329 426.011 201.359 425.991C201.539 427.561 201.709 429.171 201.799 430.421C200.479 427.431 198.189 424.531 194.199 424.041C185.579 422.981 184.239 432.791 185.219 435.621C185.479 436.371 186.099 437.501 186.869 438.731V438.741Z" fill="#4C1605"/>
<path d="M180.01 40.92C179.53 43.37 179.38 45.88 179.56 48.37L179.6 48.89C179.86 51.9 179.72 54.92 179.27 57.91C177.84 57.52 176.34 56.63 174.85 55.01C170.92 50.74 171.57 43.35 175.86 41.3C177.49 40.53 178.9 40.56 180.02 40.9C180.02 40.91 180.02 40.92 180.02 40.93L180.01 40.92Z" fill="#A16552"/>
<path d="M180.01 40.92C179.53 43.37 179.38 45.88 179.56 48.37L179.6 48.89C179.86 51.9 179.72 54.92 179.27 57.91C177.84 57.52 176.34 56.63 174.85 55.01C170.92 50.74 171.57 43.35 175.86 41.3C177.49 40.53 178.9 40.56 180.02 40.9C180.02 40.91 180.02 40.92 180.02 40.93L180.01 40.92Z" fill="#F5DCB4"/>
<path d="M247.169 49.5798C245.939 51.4098 244.579 52.5098 243.229 53.1098C242.339 50.2298 241.739 47.2598 241.549 44.2398L241.509 43.7198C241.309 41.2198 240.779 38.7598 239.939 36.3898C240.999 35.8798 242.389 35.6398 244.119 36.1598C248.669 37.5498 250.419 44.7498 247.169 49.5698V49.5798Z" fill="#A16552"/>
<path d="M247.169 49.5798C245.939 51.4098 244.579 52.5098 243.229 53.1098C242.339 50.2298 241.739 47.2598 241.549 44.2398L241.509 43.7198C241.309 41.2198 240.779 38.7598 239.939 36.3898C240.999 35.8798 242.389 35.6398 244.119 36.1598C248.669 37.5498 250.419 44.7498 247.169 49.5698V49.5798Z" fill="#F5DCB4"/>
<path d="M233.63 53.9198C232.48 56.0598 232.31 58.6099 233.26 60.8599C233.98 62.5499 234.65 64.4699 234.76 65.9299C235.56 76.6099 226.09 86.0299 213.6 86.9699C201.11 87.9099 190.34 80.0099 189.54 69.3199C189.43 67.8599 189.81 65.8599 190.27 64.0799C190.88 61.7199 190.33 59.2099 188.87 57.2699C188.52 56.7999 188.2 56.3099 187.92 55.7999C187.06 54.2499 186.55 52.5199 186.41 50.7499C185.88 43.6599 191.49 37.4499 198.94 36.8899C201.35 36.6999 203.76 37.1398 205.95 38.1698C208.52 39.3798 211.53 39.1599 213.89 37.5799C215.9 36.2399 218.22 35.4498 220.63 35.2798C228.08 34.7198 234.55 40.0199 235.09 47.1099C235.23 48.8799 234.98 50.6599 234.36 52.3299C234.16 52.8799 233.91 53.4099 233.63 53.9299V53.9198Z" fill="#A16552"/>
<path d="M233.63 53.9198C232.48 56.0598 232.31 58.6099 233.26 60.8599C233.98 62.5499 234.65 64.4699 234.76 65.9299C235.56 76.6099 226.09 86.0299 213.6 86.9699C201.11 87.9099 190.34 80.0099 189.54 69.3199C189.43 67.8599 189.81 65.8599 190.27 64.0799C190.88 61.7199 190.33 59.2099 188.87 57.2699C188.52 56.7999 188.2 56.3099 187.92 55.7999C187.06 54.2499 186.55 52.5199 186.41 50.7499C185.88 43.6599 191.49 37.4499 198.94 36.8899C201.35 36.6999 203.76 37.1398 205.95 38.1698C208.52 39.3798 211.53 39.1599 213.89 37.5799C215.9 36.2399 218.22 35.4498 220.63 35.2798C228.08 34.7198 234.55 40.0199 235.09 47.1099C235.23 48.8799 234.98 50.6599 234.36 52.3299C234.16 52.8799 233.91 53.4099 233.63 53.9299V53.9198Z" fill="#F5DCB4"/>
<path d="M200.82 70.8899C200.1 70.9399 199.56 71.5699 199.62 72.2899C199.62 72.3499 199.63 72.3999 199.64 72.4599C200.87 78.1199 206.63 82.1399 213.21 81.6499C219.79 81.1599 224.88 76.3199 225.26 70.5399C225.3 69.8199 224.75 69.2099 224.03 69.1699C223.97 69.1699 223.92 69.1699 223.86 69.1699L200.83 70.8999L200.82 70.8899Z" fill="#4E3F3F"/>
<path d="M205.609 80.0705C210.369 82.5705 216.149 82.1405 220.489 78.9505C219.319 75.7905 216.389 76.7605 212.869 77.0205C209.349 77.2805 206.309 76.7605 205.619 80.0605L205.609 80.0705Z" fill="#E6646E"/>
<path d="M245.47 33.6702C242.72 32.8302 240.63 33.5402 239.21 34.5102C238.76 33.4602 238.27 32.4402 237.71 31.4502C237.31 30.7202 236.88 30.0002 236.42 29.3002C231.76 22.1102 224.41 16.4102 216.31 14.3802L215.83 10.1402L210.95 13.5902C210.74 13.5902 210.54 13.5802 210.33 13.5702C209.95 13.5702 209.57 13.5702 209.19 13.5702L208.2 10.4102L207.91 9.49023C207.66 9.51023 207.41 9.54023 207.16 9.57023C202.43 10.3102 200.38 14.8102 200.07 15.5802C192.37 18.8002 185.95 25.5302 182.42 33.3302C182.07 34.0902 181.76 34.8602 181.47 35.6502C181.07 36.7202 180.73 37.8002 180.45 38.9002C180.39 38.8702 180.32 38.8402 180.25 38.8102C178.71 38.1302 176.62 37.8202 174.13 39.0102C168.67 41.6202 167.84 51.0002 172.83 56.4302C174.87 58.6402 176.92 59.7802 178.85 60.2102C178.83 60.3202 178.82 60.4302 178.8 60.5302C178.58 62.1102 178.52 63.7102 178.64 65.3002C179.47 76.3302 188.31 85.2102 200.29 88.5102C203.1 89.2802 205.99 89.7302 208.9 89.8602C210.41 89.9302 211.93 89.9102 213.44 89.8102L213.8 89.7802C232.1 88.4102 246.02 75.2202 244.91 60.3302C244.79 58.7402 244.5 57.1702 244.05 55.6402C244.02 55.5402 243.99 55.4302 243.95 55.3302C245.79 54.6102 247.65 53.1802 249.33 50.6902C253.46 44.5802 251.24 35.4302 245.46 33.6702H245.47ZM180.01 40.9202C179.53 43.3702 179.38 45.8802 179.56 48.3702L179.6 48.8902C179.86 51.9002 179.72 54.9202 179.27 57.9102C177.84 57.5202 176.34 56.6302 174.85 55.0102C170.92 50.7402 171.57 43.3502 175.86 41.3002C177.49 40.5302 178.9 40.5602 180.02 40.9002C180.02 40.9102 180.02 40.9202 180.02 40.9302L180.01 40.9202ZM234.35 52.3302C234.15 52.8802 233.91 53.4102 233.63 53.9302C232.48 56.0702 232.31 58.6202 233.26 60.8702C233.98 62.5602 234.65 64.4802 234.76 65.9402C235.56 76.6202 226.09 86.0402 213.6 86.9802C201.11 87.9202 190.34 80.0202 189.53 69.3302C189.42 67.8702 189.8 65.8702 190.26 64.0902C190.87 61.7302 190.32 59.2202 188.86 57.2802C188.51 56.8102 188.19 56.3202 187.91 55.8102C187.05 54.2602 186.54 52.5302 186.4 50.7602C185.87 43.6702 191.48 37.4602 198.93 36.9002C201.34 36.7102 203.75 37.1502 205.94 38.1802C208.51 39.3902 211.52 39.1702 213.88 37.5902C215.89 36.2502 218.21 35.4602 220.62 35.2902C228.07 34.7302 234.54 40.0302 235.08 47.1202C235.22 48.8902 234.97 50.6702 234.35 52.3402V52.3302ZM247.17 49.5802C245.93 51.4102 244.58 52.5102 243.23 53.1102C242.34 50.2302 241.74 47.2602 241.55 44.2402L241.51 43.7202C241.31 41.2202 240.78 38.7602 239.94 36.3902C241 35.8802 242.39 35.6402 244.12 36.1602C248.67 37.5502 250.42 44.7502 247.17 49.5702V49.5802Z" fill="#A16552"/>
<path d="M207.381 60.1624C206.816 59.9539 206.189 60.2428 205.981 60.8075C205.773 61.3723 206.061 61.9991 206.626 62.2075L209.225 63.1667C209.789 63.3752 210.416 63.0864 210.625 62.5216C210.833 61.9569 210.544 61.3301 209.98 61.1216L207.381 60.1624Z" fill="#4E3F3F"/>
<path d="M215.763 59.5355L213.337 60.8717C212.809 61.1621 212.617 61.8249 212.908 62.3523C213.198 62.8796 213.861 63.0717 214.388 62.7813L216.815 61.4451C217.342 61.1548 217.534 60.4919 217.244 59.9646C216.953 59.4372 216.29 59.2452 215.763 59.5355Z" fill="#4E3F3F"/>
<path d="M199.52 54.9398C197.38 55.0998 195.52 53.5898 195.37 51.5598L195.28 50.3398C195.13 48.3098 196.74 46.5398 198.88 46.3798C201.02 46.2198 202.88 47.7298 203.03 49.7598L203.12 50.9798C203.27 53.0098 201.66 54.7798 199.52 54.9398Z" fill="#4E3F3F"/>
<path d="M198.88 46.37L199.2 50.65C199.28 51.66 200.2 52.42 201.27 52.34C202.34 52.26 203.15 51.37 203.07 50.36L203.02 49.75C202.87 47.72 201.01 46.21 198.87 46.37H198.88Z" fill="#5D5360"/>
<path d="M201.155 53.0412C201.865 52.9879 202.4 52.3955 202.349 51.7181C202.299 51.0407 201.681 50.5348 200.971 50.5881C200.26 50.6414 199.726 51.2337 199.777 51.9111C199.827 52.5885 200.445 53.0945 201.155 53.0412Z" fill="white"/>
<path d="M222.759 53.2005C220.619 53.3605 218.759 51.8505 218.609 49.8205L218.519 48.6005C218.369 46.5705 219.979 44.8005 222.119 44.6405C224.259 44.4805 226.119 45.9905 226.269 48.0205L226.359 49.2405C226.509 51.2705 224.899 53.0405 222.759 53.2005Z" fill="#4E3F3F"/>
<path d="M222.11 44.6298L222.43 48.9098C222.51 49.9198 223.43 50.6798 224.5 50.5998C225.57 50.5198 226.38 49.6298 226.3 48.6198L226.25 48.0098C226.1 45.9798 224.24 44.4698 222.1 44.6298H222.11Z" fill="#5D5360"/>
<path d="M224.389 51.298C225.1 51.2447 225.635 50.6524 225.584 49.975C225.533 49.2976 224.916 48.7916 224.205 48.8449C223.495 48.8982 222.96 49.4906 223.011 50.168C223.062 50.8454 223.679 51.3513 224.389 51.298Z" fill="white"/>
<path opacity="0.35" d="M208.21 10.42C207.34 10.4 205.54 11.91 203.45 14.44C202.93 15.07 202.39 15.77 201.84 16.52C197.78 22.08 193.24 30.7 192.1 39.28C190.2 53.69 190.23 70.24 196.14 78.97C201.16 86.37 208.92 89.87 208.92 89.87C206.01 89.75 203.12 89.29 200.31 88.52C188.34 85.22 179.49 76.34 178.66 65.31C178.54 63.72 178.59 62.12 178.82 60.54C178.83 60.43 178.85 60.32 178.87 60.22C176.94 59.79 174.89 58.65 172.85 56.44C167.86 51.01 168.68 41.63 174.14 39.02C176.62 37.84 178.72 38.14 180.26 38.82C180.33 38.85 180.4 38.88 180.46 38.91C180.74 37.81 181.09 36.72 181.48 35.66C181.77 34.88 182.09 34.11 182.43 33.34C185.96 25.54 192.38 18.81 200.08 15.59C200.39 14.82 202.44 10.32 207.17 9.58C207.41 9.54 207.66 9.51 207.92 9.5L208.21 10.42V10.42Z" fill="#4E3F3F"/>
<path d="M222.019 151.1L225.919 209.55L224.639 210.93L220.289 149.7L222.019 151.1Z" fill="#17176D"/>
<path d="M407.989 98.3197C412.359 123.09 395.819 146.71 371.049 151.07C369.759 151.3 368.459 151.47 367.169 151.58C343.859 153.68 322.429 137.6 318.289 114.13C313.919 89.3597 330.459 65.7397 355.229 61.3797C360.499 60.4397 365.899 60.4497 371.169 61.3897C389.429 64.6597 404.569 78.9897 407.979 98.3197H407.989Z" fill="#FFB300"/>
<path d="M407.919 93.0998C412.369 118.32 395.519 142.38 370.299 146.82C368.979 147.05 367.659 147.22 366.349 147.34C342.609 149.48 320.789 133.11 316.569 109.2C312.119 83.9798 328.969 59.9198 354.189 55.4798C359.559 54.5298 365.059 54.5298 370.429 55.4898C389.029 58.8198 404.449 73.4098 407.919 93.0998V93.0998Z" fill="#FFD54F"/>
<path d="M401.329 94.2602C405.139 115.84 390.719 136.43 369.139 140.23C368.009 140.43 366.879 140.58 365.759 140.68C345.439 142.51 326.769 128.5 323.169 108.04C319.359 86.4602 333.779 65.8702 355.359 62.0702C359.959 61.2502 364.659 61.2602 369.249 62.0702C385.159 64.9202 398.359 77.4102 401.329 94.2502V94.2602Z" fill="#FAF4E6"/>
<path d="M359.819 106.68C359.819 106.68 359.379 102.47 353.249 98.8301C344.489 93.6401 343.359 92.3501 349.849 92.2601C356.339 92.1701 361.859 96.6401 361.859 96.6401" fill="#FFCA28"/>
<path d="M348.57 120.519L347.91 117.899L342.73 119.209C342.19 119.349 341.87 119.889 342 120.429L342.17 121.109C342.31 121.649 342.85 121.969 343.39 121.829L348.57 120.519Z" fill="#AC752C"/>
<path d="M348.569 120.52L348.239 119.21L342.089 120.76L342.179 121.1C342.319 121.64 342.859 121.96 343.399 121.82L348.579 120.51L348.569 120.52Z" fill="#7D551F"/>
<path d="M370.149 107.339C369.039 106.499 367.879 105.909 366.589 105.389C365.359 104.899 364.059 104.569 362.789 104.199C361.669 103.879 360.619 103.469 359.459 103.439C359.419 103.519 359.379 103.599 359.339 103.689C359.299 103.779 359.259 103.849 359.219 103.929C359.129 104.109 359.039 104.299 358.939 104.479C358.929 104.499 358.919 104.529 358.899 104.549C358.859 104.629 358.819 104.709 358.779 104.779C358.739 104.849 358.689 104.939 358.639 105.029C358.539 105.209 358.439 105.389 358.329 105.569C358.019 106.099 357.689 106.629 357.329 107.149C357.269 107.239 357.209 107.319 357.149 107.409C357.059 107.549 356.959 107.689 356.859 107.819C356.789 107.919 356.719 108.019 356.649 108.109C356.579 108.199 356.509 108.299 356.439 108.389C356.429 108.409 356.409 108.429 356.389 108.449C356.279 108.589 356.169 108.739 356.049 108.879C356.019 108.909 355.999 108.949 355.969 108.979C355.929 109.039 355.879 109.089 355.839 109.149L355.699 109.319C355.579 109.459 355.469 109.599 355.349 109.739C355.189 109.929 355.009 110.129 354.839 110.319C354.699 110.469 354.559 110.629 354.409 110.769C354.379 110.799 354.359 110.829 354.329 110.849C354.209 110.969 354.089 111.089 353.969 111.209C353.969 111.209 353.969 111.209 353.959 111.219C353.769 111.409 353.569 111.599 353.369 111.789C352.959 112.179 352.529 112.549 352.079 112.919C351.279 113.579 350.429 114.199 349.549 114.759C349.169 115.009 348.789 115.239 348.399 115.459C348.199 115.569 347.999 115.689 347.799 115.799C347.629 115.889 347.449 115.989 347.269 116.079C347.029 116.199 346.789 116.319 346.539 116.439C346.539 116.439 346.469 116.479 346.369 116.559C346.339 116.589 346.299 116.609 346.269 116.639C346.249 116.659 346.239 116.669 346.209 116.689C346.179 116.709 346.169 116.729 346.149 116.739C345.629 117.209 345.269 117.829 345.109 118.519C345.109 118.539 345.109 118.559 345.099 118.589C345.019 119.049 345.039 119.519 345.159 119.969C345.219 120.229 345.309 120.479 345.419 120.719C345.499 120.899 345.599 121.059 345.719 121.209C346.129 121.729 346.719 122.049 347.389 122.229C348.729 122.589 350.359 122.419 351.319 122.249C359.649 120.639 366.759 115.259 370.569 107.679C370.429 107.569 370.279 107.449 370.129 107.339H370.149Z" fill="#FFB300"/>
<path d="M362.789 104.21C361.669 103.89 360.619 103.48 359.459 103.45C359.419 103.53 359.379 103.61 359.339 103.7C359.299 103.79 359.259 103.86 359.219 103.94C359.179 104.02 359.139 104.1 359.089 104.19C359.039 104.29 358.989 104.4 358.939 104.5C358.929 104.52 358.919 104.55 358.899 104.57C358.859 104.65 358.819 104.73 358.779 104.8C358.739 104.87 358.689 104.96 358.639 105.05C358.589 105.14 358.539 105.22 358.499 105.3C358.459 105.38 358.389 105.5 358.339 105.59C358.239 105.75 358.139 105.92 358.049 106.08C358.029 106.11 358.009 106.14 357.989 106.17C357.939 106.25 357.899 106.32 357.849 106.4C357.739 106.57 357.639 106.73 357.529 106.9C357.469 106.99 357.409 107.08 357.349 107.17C357.289 107.26 357.229 107.34 357.169 107.43C357.069 107.57 356.979 107.7 356.879 107.84C356.809 107.94 356.739 108.03 356.669 108.13C356.599 108.23 356.529 108.32 356.459 108.41C356.449 108.43 356.429 108.45 356.409 108.47C356.299 108.61 356.189 108.75 356.069 108.9C356.039 108.93 356.019 108.97 355.989 109L355.859 109.17L355.719 109.34C355.599 109.48 355.489 109.62 355.369 109.76C355.259 109.88 355.149 110 355.049 110.12C354.989 110.19 354.919 110.26 354.859 110.33C354.719 110.48 354.579 110.64 354.429 110.78C354.399 110.81 354.379 110.84 354.349 110.86C354.229 110.98 354.109 111.1 353.989 111.22C353.989 111.22 353.989 111.22 353.979 111.23C353.889 111.32 353.789 111.41 353.689 111.5C353.589 111.59 353.489 111.7 353.379 111.8C353.229 111.94 353.079 112.07 352.929 112.2L352.679 112.41C352.489 112.58 352.289 112.75 352.089 112.92C351.949 113.03 351.819 113.14 351.679 113.24C351.469 113.4 351.269 113.56 351.059 113.71C350.919 113.81 350.779 113.91 350.629 114.02C350.419 114.17 350.199 114.33 349.969 114.47C349.829 114.56 349.689 114.66 349.549 114.75C349.299 114.91 349.049 115.06 348.799 115.21L348.509 115.38C348.509 115.38 348.429 115.42 348.399 115.45C348.199 115.56 347.999 115.68 347.799 115.79C347.629 115.88 347.449 115.98 347.269 116.07C347.029 116.19 346.789 116.31 346.539 116.43C346.539 116.43 346.469 116.47 346.369 116.55C346.339 116.58 346.299 116.6 346.269 116.63C346.249 116.65 346.239 116.66 346.209 116.68C346.179 116.7 346.169 116.72 346.149 116.73C345.629 117.2 345.269 117.82 345.109 118.51C345.109 118.53 345.109 118.55 345.099 118.58C345.019 119.04 345.039 119.51 345.159 119.96C345.219 120.22 345.309 120.47 345.419 120.71H345.469C347.919 120.29 350.309 119.54 352.559 118.48C352.859 118.34 353.169 118.19 353.469 118.03C358.729 115.33 362.969 110.98 365.539 105.65C365.629 105.47 365.709 105.28 365.789 105.1C364.799 104.76 363.779 104.49 362.769 104.2L362.789 104.21Z" fill="#FFD54F"/>
<path d="M371.119 106.58L365.559 105.66L358.909 104.56C358.909 104.56 358.929 104.51 358.949 104.49C358.999 104.39 359.049 104.28 359.099 104.18C359.139 104.1 359.179 104.02 359.229 103.93C359.279 103.84 359.309 103.77 359.349 103.69C359.459 103.48 359.559 103.27 359.649 103.05C359.719 102.91 359.769 102.77 359.839 102.63C359.959 102.35 360.079 102.07 360.179 101.78C360.219 101.68 360.259 101.59 360.289 101.49C360.299 101.46 360.309 101.43 360.319 101.4C360.379 101.23 360.439 101.06 360.509 100.88C360.579 100.7 360.629 100.51 360.699 100.33C360.769 100.12 360.829 99.9102 360.889 99.7002C360.939 99.5202 360.999 99.3402 361.049 99.1702C361.099 99.0002 361.149 98.7902 361.209 98.6002C361.229 98.5402 361.239 98.4802 361.259 98.4202C361.289 98.2902 361.319 98.1702 361.349 98.0402C361.349 98.0402 361.349 98.0202 361.349 98.0102C361.389 97.8202 361.439 97.6402 361.469 97.4502C361.469 97.4102 361.489 97.3702 361.499 97.3202L361.519 97.2202C361.539 97.0902 361.559 96.9602 361.589 96.8302C361.609 96.7202 361.629 96.6202 361.649 96.5102C361.669 96.4002 361.689 96.3002 361.709 96.1902V96.1102C361.729 96.0402 361.739 95.9802 361.749 95.9102C361.759 95.8402 361.769 95.7802 361.779 95.7002C361.849 95.2502 361.899 94.8002 361.939 94.3402C361.959 94.1102 361.979 93.8802 361.999 93.6602C362.029 93.3302 362.039 93.0102 362.049 92.6702V92.5702C362.049 92.5702 362.049 92.5202 362.049 92.4902C362.059 92.1102 362.059 91.7302 362.049 91.3502C362.049 91.2202 362.049 91.0902 362.039 90.9602C362.029 90.8302 362.029 90.7102 362.029 90.5802C362.029 90.4302 362.009 90.2802 361.999 90.1302C361.999 90.0402 361.989 89.9502 361.979 89.8502C361.979 89.6902 361.959 89.5202 361.939 89.3502C361.939 89.2002 361.909 89.0502 361.899 88.9002C361.869 88.6402 361.839 88.3802 361.799 88.1102C361.779 87.9802 361.759 87.8502 361.739 87.7102L361.709 87.5602C361.709 87.5102 361.699 87.4602 361.679 87.4102C361.659 87.3102 361.639 87.2102 361.629 87.1102L361.569 86.7702C361.499 86.3902 361.419 86.0202 361.329 85.6402V85.5802C361.239 85.2402 361.149 84.9002 361.059 84.5602C360.739 83.1302 359.599 79.9002 359.449 77.5002C359.379 76.4002 359.509 75.4802 360.019 74.9902C360.079 74.9302 360.149 74.8702 360.229 74.8202C360.309 74.7702 360.389 74.7402 360.479 74.7002C360.479 74.7002 360.479 74.7002 360.489 74.7002C361.269 74.4202 362.099 74.5102 362.869 74.7702C364.429 75.2802 365.729 76.4402 365.869 76.5702C373.529 84.5902 375.579 96.4402 371.069 106.57L371.119 106.58Z" fill="#FFD770"/>
<path d="M365.559 105.659C369.159 98.1995 369.329 89.1995 365.239 81.2695C364.239 79.3295 363.009 77.5095 361.569 75.8595C361.359 75.6295 361.149 75.3895 360.939 75.1595C360.809 75.0095 360.659 74.8695 360.529 74.7295C360.439 74.7595 360.359 74.7995 360.279 74.8395C360.209 74.8895 360.139 74.9495 360.069 75.0095C359.559 75.4995 359.419 76.4295 359.499 77.5195C359.649 79.9195 360.789 83.1495 361.109 84.5595C361.199 84.9195 361.289 85.2595 361.369 85.5995V85.6595C361.469 86.0395 361.549 86.4095 361.619 86.7895L361.639 86.8895L361.679 87.1195C361.699 87.2195 361.719 87.3195 361.729 87.4195C361.739 87.4695 361.749 87.5195 361.759 87.5695L361.789 87.7195C361.809 87.8495 361.839 87.9895 361.849 88.1195C361.879 88.3795 361.919 88.6495 361.949 88.9095C361.969 89.0595 361.979 89.2095 361.989 89.3595C362.009 89.5295 362.019 89.6895 362.029 89.8595C362.029 89.9495 362.039 90.0395 362.049 90.1395C362.059 90.2895 362.069 90.4395 362.079 90.5895C362.079 90.7195 362.079 90.8495 362.089 90.9695C362.099 91.0895 362.089 91.2295 362.099 91.3595C362.099 91.7395 362.099 92.1195 362.099 92.4995C362.099 92.5295 362.099 92.5495 362.099 92.5795V92.6795C362.089 93.0095 362.069 93.3395 362.039 93.6695C362.019 93.8995 361.999 94.1295 361.979 94.3495C361.939 94.8095 361.879 95.2595 361.819 95.7095C361.819 95.7795 361.799 95.8495 361.789 95.9195C361.779 95.9895 361.769 96.0495 361.759 96.1195V96.1995C361.729 96.3095 361.709 96.4095 361.689 96.5195C361.669 96.6295 361.649 96.7295 361.629 96.8395C361.599 96.9695 361.589 97.0995 361.559 97.2295L361.539 97.3295C361.539 97.3295 361.519 97.4095 361.509 97.4595C361.469 97.6495 361.429 97.8295 361.389 98.0195C361.389 98.0195 361.389 98.0395 361.389 98.0495C361.359 98.1795 361.329 98.2995 361.299 98.4295C361.289 98.4895 361.269 98.5495 361.249 98.6095C361.189 98.7995 361.149 98.9995 361.089 99.1795C361.029 99.3595 360.989 99.5295 360.929 99.7095C360.869 99.9195 360.799 100.129 360.739 100.339C360.679 100.519 360.609 100.699 360.549 100.889C360.489 101.079 360.419 101.229 360.359 101.409C360.349 101.439 360.339 101.469 360.329 101.499C360.289 101.599 360.259 101.689 360.219 101.789C360.119 102.079 359.999 102.359 359.879 102.639C359.809 102.779 359.759 102.919 359.689 103.059C359.589 103.279 359.499 103.489 359.389 103.699C359.349 103.779 359.309 103.859 359.269 103.939C359.229 104.019 359.189 104.099 359.139 104.189C359.089 104.289 359.039 104.399 358.989 104.499C358.979 104.519 358.969 104.549 358.949 104.569L365.599 105.659H365.559Z" fill="#FFEA8C"/>
<path d="M358.909 104.569C358.909 104.569 364.909 105.689 367.539 107.529C371.679 110.429 373.229 111.279 373.049 122.249C373.049 122.649 373.049 123.049 373.069 123.449C373.179 125.249 373.779 129.759 378.899 118.179C385.059 104.259 372.589 102.849 372.589 102.849C368.009 102.359 363.359 103.039 358.899 104.569H358.909Z" fill="#FFCA28"/>
<path d="M354.479 57.2598C359.849 56.3098 365.339 56.3098 370.709 57.2698C388.989 60.5498 404.199 74.7098 407.999 93.8998C407.959 93.6298 407.909 93.3498 407.869 93.0798C404.399 73.4098 388.989 58.8298 370.399 55.4898C365.029 54.5298 359.539 54.5298 354.169 55.4798C328.959 59.9198 312.129 83.9698 316.569 109.18C316.619 109.49 316.679 109.79 316.739 110.09C312.829 85.1998 329.559 61.6598 354.479 57.2598V57.2598Z" fill="#FFEA8C"/>
<path d="M355.619 63.5899C360.219 62.7699 364.919 62.7799 369.509 63.5899C385.159 66.3999 398.189 78.5199 401.429 94.9499C401.389 94.7199 401.359 94.4799 401.319 94.2499C398.349 77.4099 385.149 64.9199 369.239 62.0699C364.649 61.2499 359.939 61.2399 355.349 62.0699C333.769 65.8799 319.349 86.4599 323.159 108.04C323.209 108.3 323.259 108.56 323.309 108.82C319.959 87.5099 334.289 67.3499 355.619 63.5899V63.5899Z" fill="#FFB300"/>
<g opacity="0.33">
<path d="M396.059 69.4092L343.979 143.779C346.789 144.989 349.719 145.919 352.749 146.549L401.659 76.6992C400.029 74.0692 398.149 71.6292 396.059 69.4092V69.4092Z" fill="#FDFBF5"/>
<path d="M370.429 55.4893C370.079 55.4293 369.729 55.3693 369.379 55.3193L321.609 123.539C325.719 130.989 331.769 137.089 338.979 141.269L391.979 65.5693C385.849 60.4493 378.429 56.9293 370.419 55.4893H370.429Z" fill="#FDFBF5"/>
</g>
<path d="M317.85 117.391C319.57 115.231 322.53 110.271 324.55 111.031C326.57 111.791 327.45 116.131 324.55 119.901C321.65 123.671 318.8 127.541 318.8 127.541L317.85 117.381V117.391Z" fill="#A16552"/>
<defs>
<linearGradient id="paint0_linear_731_4485" x1="239.15" y1="459.17" x2="222.01" y2="410.48" gradientUnits="userSpaceOnUse">
<stop stop-color="#575756"/>
<stop offset="1" stop-color="#3C3C3B"/>
</linearGradient>
</defs>
</svg>
