<svg width="500" height="500" viewBox="0 0 500 500" fill="none" xmlns="http://www.w3.org/2000/svg">
<path d="M250 490.5C338.642 490.5 410.5 468.114 410.5 440.5C410.5 412.886 338.642 390.5 250 390.5C161.358 390.5 89.5 412.886 89.5 440.5C89.5 468.114 161.358 490.5 250 490.5Z" fill="#959593"/>
<path d="M230.499 471.47H149.149C176.169 478.26 211.429 482.37 249.999 482.37C252.669 482.37 255.329 482.35 257.959 482.31L252.649 480.21L230.499 471.47V471.47Z" fill="#DDDDDC"/>
<path d="M96.1699 440.149C96.3499 441.119 96.6399 442.079 97.0299 443.029H103.47L96.1699 440.149Z" fill="#DDDDDC"/>
<path d="M370.589 415.86H384.359C375.249 411.17 363.299 407 349.179 403.55H339.399L370.589 415.86Z" fill="#DDDDDC"/>
<path d="M152.77 462.48L141.13 457.89H112.52C120.61 462.51 131.4 466.68 144.29 470.2H172.32L152.77 462.49V462.48Z" fill="#DDDDDC"/>
<path d="M399.01 449.09C400.43 447.53 401.56 445.93 402.39 444.3H386.87L399.01 449.09Z" fill="#DDDDDC"/>
<path d="M348.73 430.72H297.51L328.7 443.03H402.98C403.69 441.29 404.07 439.52 404.07 437.72C404.07 435.34 403.42 433 402.18 430.72H348.73Z" fill="#DDDDDC"/>
<path d="M141.619 456.61H192.839L176.109 450.01L161.649 444.3H97.6094C99.8194 448.64 104.189 452.77 110.379 456.61H141.609H141.619Z" fill="#DDDDDC"/>
<path d="M370.109 417.14H318.029L349.219 429.45H401.419C398.599 425.09 393.599 420.96 386.759 417.14H370.119H370.109Z" fill="#DDDDDC"/>
<path d="M133.77 411.28L129.89 409.75C124.58 411.66 119.81 413.7 115.64 415.85H145.36L133.77 411.28V411.28Z" fill="#DDDDDC"/>
<path d="M332.449 402.269H343.709C319.509 396.889 289.649 393.539 257.149 393.109L280.359 402.269H332.449V402.269Z" fill="#DDDDDC"/>
<path d="M108.39 423.29L105.54 422.17C102.54 424.51 100.2 426.94 98.5801 429.45H123.98L108.39 423.3V423.29Z" fill="#DDDDDC"/>
<path d="M158.41 443.03H214.21L183.02 430.72H97.8197C96.5797 433 95.9297 435.34 95.9297 437.72C95.9297 438.02 95.9497 438.31 95.9697 438.6L107.19 443.03H158.41Z" fill="#DDDDDC"/>
<path d="M127.709 429.44H234.729L225.169 425.67L203.539 417.13H113.249C110.879 418.45 108.729 419.8 106.819 421.2L112.109 423.29L127.709 429.44V429.44Z" fill="#DDDDDC"/>
<path d="M221.699 402.27H276.639L253.329 393.07C252.219 393.07 251.109 393.06 249.999 393.06C218.589 393.06 189.389 395.79 165.029 400.46L169.609 402.27H221.699Z" fill="#DDDDDC"/>
<path d="M162.54 400.96C160.42 401.38 158.33 401.82 156.29 402.28H165.88L162.54 400.96Z" fill="#DDDDDC"/>
<path d="M204.029 415.86H256.119L231.359 406.09L224.929 403.55H150.819C143.959 405.22 137.619 407.07 131.859 409.06L149.089 415.86H204.029V415.86Z" fill="#DDDDDC"/>
<path d="M310.549 457.89H255.609L286.799 470.2H355.719C363.369 468.11 370.269 465.79 376.319 463.29L362.639 457.89H310.549V457.89Z" fill="#DDDDDC"/>
<path d="M293.78 430.72H241.69H237.97H186.75L217.94 443.03H272.88H324.97L293.78 430.72Z" fill="#DDDDDC"/>
<path d="M276.12 444.31L307.31 456.62H389.61C392.95 454.55 395.76 452.4 397.99 450.17L383.15 444.31H276.12Z" fill="#DDDDDC"/>
<path d="M290.029 471.47H234.229L252.369 478.63L261.529 482.24C292.849 481.57 321.56 478.19 344.88 472.9L341.26 471.47H290.04H290.029Z" fill="#DDDDDC"/>
<path d="M263.08 417.14H259.36H207.27L238.46 429.44H290.55H294.27H345.49L314.3 417.14H263.08Z" fill="#DDDDDC"/>
<path d="M347.21 472.359C348.44 472.069 349.65 471.779 350.84 471.479H344.97L347.2 472.359H347.21Z" fill="#DDDDDC"/>
<path d="M252.36 456.61H303.59L282.52 448.3L272.4 444.3H221.17H217.45H165.37L189.75 453.92L196.56 456.61H248.65H252.36Z" fill="#DDDDDC"/>
<path d="M366.869 415.86L335.679 403.55H283.599H279.869H228.649L232.659 405.13L259.839 415.86H366.869Z" fill="#DDDDDC"/>
<path d="M251.88 457.89H199.8H196.08H144.85L159 463.47L176.04 470.2H227.27H230.99H283.07L251.88 457.89Z" fill="#DDDDDC"/>
<path d="M373.069 460.54L378.109 462.53C381.539 461.04 384.669 459.5 387.479 457.89H366.359L373.079 460.54H373.069Z" fill="#DDDDDC"/>
<path d="M169.609 402.27L165.029 400.47L169.609 402.27Z" fill="#C7C7C4"/>
<path d="M280.36 402.269L257.15 393.109C255.88 393.089 254.61 393.079 253.33 393.069L276.64 402.269H280.36V402.269Z" fill="#C7C7C4"/>
<path d="M169.61 402.27L165.03 400.46C164.2 400.62 163.37 400.78 162.54 400.95L165.88 402.27H169.6H169.61Z" fill="#C7C7C4"/>
<path d="M370.59 415.86H384.36H370.59L339.4 403.55H349.18C347.39 403.11 345.56 402.69 343.7 402.27H336.16L370.59 415.86V415.86Z" fill="#C7C7C4"/>
<path d="M231.359 406.09L256.119 415.86L231.359 406.09Z" fill="#C7C7C4"/>
<path d="M314.79 415.86H370.59L336.17 402.27H332.45H280.36H276.64H225.42L228.65 403.55H279.87H283.6H335.68L366.87 415.86H259.84L232.66 405.13L259.84 415.86H311.07H314.79Z" fill="#C7C7C4"/>
<path d="M149.089 415.86L131.859 409.06L149.079 415.86H149.089Z" fill="#C7C7C4"/>
<path d="M145.36 415.859H145.37L133.77 411.279L145.36 415.859Z" fill="#C7C7C4"/>
<path d="M169.12 403.55H224.93L231.36 406.09L256.12 415.86H204.04H259.85L232.67 405.13L228.66 403.55L225.43 402.27H156.31C154.45 402.68 152.63 403.11 150.83 403.55H169.13H169.12Z" fill="#C7C7C4"/>
<path d="M145.369 415.86H149.089L131.859 409.06C131.199 409.29 130.539 409.52 129.899 409.75L133.779 411.28L145.369 415.85V415.86Z" fill="#C7C7C4"/>
<path d="M314.789 415.86L349.209 429.44L318.019 417.13H386.739C385.969 416.7 385.169 416.28 384.359 415.85H314.779L314.789 415.86Z" fill="#C7C7C4"/>
<path d="M225.18 425.67L234.73 429.44H234.74L225.18 425.67Z" fill="#C7C7C4"/>
<path d="M207.27 417.139H259.36H263.08H314.3L345.49 429.439H349.21L314.79 415.859H311.07H259.84H204.04L238.46 429.439L207.27 417.139Z" fill="#C7C7C4"/>
<path d="M123.99 429.44L108.39 423.29L123.99 429.44Z" fill="#C7C7C4"/>
<path d="M127.709 429.44L112.109 423.29L127.709 429.44Z" fill="#C7C7C4"/>
<path d="M152.32 417.139H203.54L225.17 425.679L234.73 429.449H238.45L204.03 415.869H149.09H115.64C114.82 416.289 114.02 416.719 113.25 417.149H152.32V417.139Z" fill="#C7C7C4"/>
<path d="M123.99 429.439H127.71L112.12 423.289L106.83 421.199C106.39 421.519 105.97 421.839 105.55 422.159L108.4 423.279L124 429.429L123.99 429.439Z" fill="#C7C7C4"/>
<path d="M349.21 429.439H294.27L297.51 430.719H402.18C401.95 430.289 401.69 429.869 401.42 429.439H349.22H349.21Z" fill="#C7C7C4"/>
<path d="M186.75 430.719H237.97H241.69H293.78L324.97 443.029H272.88H272.89H328.7H328.69L297.51 430.719L294.27 429.439H290.55H238.46H234.74H234.73H183.51L217.94 443.029L186.75 430.719Z" fill="#C7C7C4"/>
<path d="M130.95 430.719H183.03L214.22 443.029H217.94L183.51 429.439H98.5901C98.3201 429.859 98.0601 430.289 97.8301 430.719H130.95Z" fill="#C7C7C4"/>
<path d="M107.19 443.03L95.9697 438.6C95.9997 439.12 96.0697 439.63 96.1597 440.14L103.46 443.02H107.18L107.19 443.03Z" fill="#C7C7C4"/>
<path d="M383.149 444.31L397.989 450.16L383.149 444.31Z" fill="#C7C7C4"/>
<path d="M399.01 449.09L386.87 444.3H402.39C402.61 443.88 402.8 443.45 402.97 443.02H383.64L399.01 449.08V449.09Z" fill="#C7C7C4"/>
<path d="M272.399 444.3L282.519 448.3L272.399 444.3Z" fill="#C7C7C4"/>
<path d="M383.64 443.029H272.89L307.31 456.609L276.12 444.299H383.15L397.99 450.159C398.34 449.809 398.68 449.449 399.01 449.089L383.64 443.029V443.029Z" fill="#C7C7C4"/>
<path d="M161.649 444.3L176.109 450.01L161.649 444.3Z" fill="#C7C7C4"/>
<path d="M217.45 444.299H221.17H272.4L282.52 448.299L303.59 456.609H307.31L272.89 443.029H272.88H217.94H214.22H162.14L189.75 453.919L165.37 444.299H217.45Z" fill="#C7C7C4"/>
<path d="M110.429 444.3H161.649L176.109 450.01L192.839 456.61H196.559L189.749 453.92L162.139 443.02H97.0293C97.1993 443.45 97.3993 443.87 97.6093 444.3H110.429Z" fill="#C7C7C4"/>
<path d="M373.069 460.539L366.349 457.889H387.469C388.209 457.469 388.919 457.039 389.609 456.609H363.109L373.059 460.539H373.069Z" fill="#C7C7C4"/>
<path d="M363.119 456.609H252.359L286.789 470.199L255.599 457.889H362.629L376.309 463.289C376.919 463.039 377.519 462.789 378.109 462.529L373.069 460.539L363.119 456.609V456.609Z" fill="#C7C7C4"/>
<path d="M141.13 457.89L152.77 462.48L141.13 457.89Z" fill="#C7C7C4"/>
<path d="M196.08 457.889H199.8H251.88L283.07 470.199H286.79L252.36 456.609H248.65H196.56H192.84H141.62L159 463.469L144.85 457.889H196.08Z" fill="#C7C7C4"/>
<path d="M141.13 457.89L152.77 462.48L172.32 470.19H176.04L158.99 463.46L141.61 456.6H110.38C111.07 457.03 111.78 457.45 112.52 457.88H141.13V457.89Z" fill="#C7C7C4"/>
<path d="M347.21 472.359L344.98 471.479H350.85C352.5 471.059 354.12 470.639 355.72 470.199H341.75L347.22 472.359H347.21Z" fill="#C7C7C4"/>
<path d="M230.5 471.47L252.65 480.22L230.5 471.47Z" fill="#C7C7C4"/>
<path d="M341.739 470.199H230.989L252.359 478.629L234.219 471.469H341.249L344.869 472.899C345.659 472.719 346.439 472.539 347.209 472.359L341.739 470.199V470.199Z" fill="#C7C7C4"/>
<path d="M261.52 482.25L252.36 478.64L230.99 470.21H144.29C145.88 470.64 147.5 471.07 149.15 471.49H230.5L252.65 480.23L257.96 482.33C259.15 482.31 260.33 482.29 261.52 482.26V482.25Z" fill="#C7C7C4"/>
<path style="mix-blend-mode:multiply" opacity="0.19" d="M230 451.18C274.183 451.18 310 443.121 310 433.18C310 423.239 274.183 415.18 230 415.18C185.817 415.18 150 423.239 150 433.18C150 443.121 185.817 451.18 230 451.18Z" fill="url(#paint0_linear_731_4079)"/>
<path opacity="0.1" d="M358.241 430.74C358.241 432.08 352.371 433.17 345.131 433.17C337.891 433.17 332.021 432.08 332.021 430.74C332.021 429.4 337.891 428.31 345.131 428.31C352.371 428.31 358.241 429.4 358.241 430.74Z" fill="#353535"/>
<path opacity="0.1" d="M354.53 430.24C354.53 431.31 350.32 432.17 345.13 432.17C339.94 432.17 335.73 431.3 335.73 430.24C335.73 429.18 339.94 428.31 345.13 428.31C350.32 428.31 354.53 429.18 354.53 430.24Z" fill="#353535"/>
<path d="M339 429.65C339.26 426.92 336.58 420.09 325.89 419.86C325.89 419.86 337.8 417.28 341.34 424.08C341.34 424.08 339.72 413.08 324.32 412.21C324.32 412.21 340.76 411.15 343.74 421.8C344.52 424.6 344.75 425.92 344.75 425.92C344.75 425.92 342.6 410.19 346.16 409.6C346.16 409.6 345.31 420.17 347.93 421.81C347.93 421.81 347.6 414.35 354.22 413.93C354.22 413.93 348.99 419.39 350.1 425.51C350.1 425.51 349.63 421.43 356.65 419.3C356.65 419.3 350.57 424.4 350.82 430.26C350.82 430.26 338.8 431.89 339.01 429.65H339Z" fill="#698E59"/>
<path d="M350.81 430.26C348.3 430.61 345.77 430.89 343.22 430.94C342.58 430.94 341.94 430.94 341.31 430.89C340.67 430.83 340.03 430.76 339.41 430.46C339.26 430.38 339.11 430.27 338.99 430.12C338.94 430.03 338.89 429.94 338.87 429.85C338.87 429.74 338.85 429.65 338.85 429.58V429.1L338.81 428.65C338.73 428.04 338.56 427.44 338.31 426.87C338.07 426.3 337.78 425.74 337.42 425.24C337.08 424.72 336.66 424.25 336.23 423.81C336 423.6 335.78 423.38 335.54 423.18L334.8 422.62C334.55 422.44 334.27 422.29 334.01 422.13C333.75 421.96 333.47 421.82 333.18 421.69C332.9 421.56 332.62 421.42 332.33 421.3L331.44 420.99C330.86 420.76 330.23 420.67 329.63 420.51C329.02 420.4 328.39 420.32 327.77 420.23L325.89 420.12L323.94 420.01L325.84 419.63C327.26 419.35 328.69 419.2 330.13 419.15C331.57 419.11 333.01 419.18 334.44 419.43C335.86 419.69 337.27 420.11 338.53 420.86C338.85 421.04 339.15 421.25 339.44 421.47C339.73 421.69 340 421.94 340.26 422.2C340.51 422.47 340.76 422.74 340.96 423.05C341.19 423.34 341.36 423.67 341.54 423.98L341.11 424.12C341.03 423.69 340.92 423.24 340.76 422.81C340.63 422.37 340.43 421.96 340.26 421.53C340.05 421.12 339.87 420.7 339.62 420.31C339.39 419.91 339.15 419.52 338.87 419.16L338.47 418.6L338.01 418.08L337.55 417.56C337.39 417.4 337.21 417.25 337.05 417.09C336.71 416.78 336.39 416.45 336 416.19C335.63 415.92 335.27 415.63 334.88 415.38L333.68 414.69C333.29 414.45 332.84 414.3 332.43 414.1C332.01 413.92 331.59 413.7 331.14 413.58L329.82 413.15C329.38 412.98 328.92 412.93 328.47 412.82L327.11 412.53L324.34 412.2L327.12 412.44L328.5 412.69C328.96 412.79 329.43 412.83 329.87 412.98L331.22 413.37C331.68 413.48 332.1 413.69 332.53 413.86C332.96 414.05 333.41 414.19 333.82 414.43L335.05 415.12C335.45 415.36 335.82 415.66 336.21 415.92C336.61 416.18 336.94 416.51 337.3 416.82C337.48 416.98 337.66 417.13 337.83 417.29L338.31 417.81L338.79 418.33L339.22 418.89C339.52 419.26 339.77 419.66 340.02 420.06C340.28 420.45 340.47 420.89 340.7 421.3C340.89 421.73 341.09 422.17 341.23 422.62C341.39 423.07 341.51 423.52 341.61 424.01L341.86 425.27L341.19 424.15C341.01 423.86 340.85 423.55 340.64 423.28C340.45 422.99 340.21 422.74 339.98 422.49C339.73 422.25 339.48 422.01 339.2 421.81C338.93 421.6 338.64 421.4 338.34 421.23C337.14 420.53 335.78 420.12 334.4 419.88C333.02 419.64 331.6 419.58 330.19 419.63C328.78 419.67 327.37 419.81 325.99 420.08L325.94 419.59L327.86 419.71C328.49 419.81 329.13 419.89 329.76 420.01C330.38 420.18 331.02 420.27 331.62 420.51L332.53 420.83C332.83 420.95 333.12 421.1 333.41 421.24C333.71 421.37 333.99 421.52 334.26 421.7C334.53 421.87 334.82 422.02 335.08 422.22L335.85 422.81C336.1 423.02 336.32 423.25 336.56 423.48C337.01 423.94 337.43 424.44 337.78 424.99C338.14 425.53 338.44 426.11 338.68 426.71C338.92 427.31 339.09 427.94 339.17 428.59L339.21 429.09V429.57C339.19 429.75 339.21 429.82 339.27 429.93C339.35 430.03 339.46 430.11 339.58 430.18C340.11 430.44 340.75 430.53 341.37 430.6C342 430.66 342.63 430.69 343.26 430.7C345.79 430.72 348.33 430.52 350.85 430.24L350.81 430.26Z" fill="#407035"/>
<path d="M356.641 419.3C356.641 419.3 356.501 419.45 356.271 419.7C356.031 419.95 355.711 420.34 355.321 420.79C354.941 421.25 354.501 421.79 354.071 422.39C353.841 422.68 353.641 423.01 353.421 423.33C353.201 423.65 353.001 423.99 352.791 424.32C352.601 424.66 352.401 425 352.231 425.35C352.081 425.7 351.881 426.03 351.761 426.38C351.641 426.73 351.471 427.05 351.391 427.37C351.301 427.69 351.181 428 351.131 428.29C351.081 428.58 351.021 428.84 350.961 429.08C350.921 429.32 350.911 429.53 350.891 429.7C350.851 430.05 350.831 430.25 350.831 430.25C350.831 430.25 350.821 430.05 350.791 429.7C350.791 429.52 350.761 429.31 350.771 429.06C350.791 428.82 350.811 428.54 350.841 428.23C350.871 427.92 350.961 427.61 351.031 427.26C351.091 426.91 351.231 426.57 351.341 426.21C351.451 425.84 351.631 425.49 351.791 425.12C351.961 424.76 352.161 424.41 352.351 424.05C352.571 423.71 352.781 423.36 353.011 423.04C353.241 422.72 353.471 422.4 353.721 422.11C354.191 421.52 354.701 421.02 355.121 420.59C355.991 419.75 356.661 419.3 356.661 419.3H356.641Z" fill="#407035"/>
<path d="M350.001 424.91C350.061 425.11 350.111 425.31 350.161 425.51L350.031 425.53C349.971 425.11 350.001 424.69 350.101 424.29C350.181 423.88 350.361 423.49 350.541 423.12L350.871 422.59L351.261 422.1C351.551 421.8 351.831 421.49 352.171 421.25C352.491 420.98 352.841 420.77 353.191 420.55C353.361 420.44 353.561 420.36 353.741 420.26C353.921 420.17 354.111 420.08 354.301 420L354.881 419.79C355.071 419.73 355.261 419.65 355.461 419.6C355.861 419.51 356.251 419.4 356.651 419.32C356.291 419.5 355.911 419.66 355.551 419.82L354.481 420.36L353.971 420.66C353.801 420.76 353.621 420.85 353.461 420.96C353.141 421.19 352.801 421.39 352.511 421.65C352.361 421.78 352.201 421.89 352.071 422.03C351.931 422.17 351.781 422.3 351.651 422.44L351.271 422.88L350.941 423.35C350.741 423.68 350.551 424.02 350.431 424.39C350.301 424.75 350.201 425.14 350.181 425.53L350.051 425.55C350.041 425.35 350.031 425.14 350.031 424.93L350.001 424.91Z" fill="#407035"/>
<path d="M354.21 413.93C354.21 413.93 353.75 414.54 353.14 415.48C352.83 415.95 352.5 416.52 352.16 417.13C351.82 417.74 351.49 418.41 351.21 419.1C351.08 419.45 350.91 419.78 350.81 420.13C350.7 420.48 350.57 420.81 350.49 421.15C350.4 421.49 350.3 421.81 350.25 422.13C350.2 422.44 350.12 422.74 350.1 423.02C350.08 423.3 350.04 423.55 350.01 423.78C350.01 424.01 350.01 424.21 350 424.37C349.99 424.7 349.98 424.89 349.98 424.89C349.98 424.89 349.95 424.7 349.9 424.37C349.88 424.2 349.85 424 349.82 423.77C349.82 423.54 349.8 423.27 349.81 422.99C349.8 422.7 349.84 422.39 349.87 422.06C349.89 421.73 349.95 421.39 350.03 421.03C350.1 420.67 350.2 420.32 350.32 419.96C350.42 419.59 350.58 419.24 350.71 418.88C351.01 418.17 351.36 417.49 351.75 416.88C352.12 416.27 352.53 415.74 352.89 415.29C353.61 414.4 354.2 413.91 354.2 413.91L354.21 413.93Z" fill="#407035"/>
<path d="M347.501 421.439C347.641 421.569 347.801 421.679 347.951 421.769L347.871 421.819C347.821 421.349 347.811 420.869 347.861 420.399C347.891 419.919 347.961 419.449 348.061 418.979C348.111 418.739 348.181 418.509 348.251 418.289C348.311 418.059 348.401 417.829 348.501 417.609C348.601 417.389 348.691 417.159 348.821 416.959C348.951 416.749 349.041 416.529 349.201 416.339C349.351 416.149 349.501 415.949 349.651 415.769L350.181 415.259C350.361 415.089 350.581 414.979 350.771 414.829C350.961 414.679 351.191 414.579 351.411 414.489C351.641 414.399 351.851 414.279 352.081 414.219L352.781 414.049C353.011 413.989 353.251 413.989 353.491 413.969C353.731 413.959 353.961 413.949 354.201 413.939C353.971 413.999 353.741 414.049 353.511 414.099C353.281 414.149 353.051 414.179 352.841 414.279L352.191 414.509C351.971 414.589 351.791 414.719 351.581 414.819L351.281 414.979L351.011 415.179C350.841 415.319 350.641 415.439 350.481 415.599L350.011 416.079C349.871 416.249 349.741 416.439 349.601 416.619C349.461 416.789 349.361 416.999 349.241 417.189C349.121 417.379 349.031 417.589 348.931 417.789C348.831 417.989 348.741 418.199 348.671 418.419C348.591 418.629 348.511 418.849 348.451 419.069C348.311 419.509 348.201 419.959 348.121 420.409C348.051 420.869 347.971 421.329 347.941 421.789V421.899L347.861 421.839C347.701 421.709 347.581 421.569 347.471 421.419L347.501 421.439Z" fill="#407035"/>
<path d="M346.14 409.739C346.14 409.739 346.17 410.489 346.2 411.609C346.22 412.169 346.23 412.819 346.26 413.519C346.29 414.219 346.3 414.959 346.36 415.699C346.39 416.439 346.47 417.179 346.54 417.869C346.63 418.549 346.71 419.199 346.85 419.729C346.93 419.989 346.97 420.249 347.05 420.449C347.13 420.659 347.18 420.849 347.26 420.989C347.42 421.279 347.51 421.439 347.51 421.439C347.51 421.439 347.39 421.299 347.18 421.039C347.07 420.909 346.99 420.729 346.87 420.519C346.74 420.319 346.67 420.069 346.56 419.799C346.45 419.529 346.39 419.229 346.29 418.919C346.21 418.599 346.14 418.269 346.07 417.919C346.02 417.569 345.95 417.209 345.92 416.839C345.88 416.469 345.84 416.089 345.83 415.719C345.79 414.969 345.78 414.219 345.8 413.509C345.81 412.809 345.87 412.149 345.91 411.589C346.01 410.469 346.15 409.729 346.15 409.729L346.14 409.739Z" fill="#407035"/>
<path d="M344.561 425.03L344.801 425.91L344.691 425.93C344.421 424.53 344.251 423.12 344.091 421.7C343.951 420.28 343.861 418.86 343.851 417.43C343.851 416 343.881 414.57 344.121 413.15C344.181 412.8 344.251 412.44 344.341 412.09C344.431 411.74 344.531 411.39 344.671 411.06C344.801 410.72 345.001 410.41 345.231 410.12C345.481 409.85 345.801 409.63 346.161 409.59H346.171V409.6L346.151 409.74V409.6L346.161 409.61C345.811 409.71 345.551 409.94 345.341 410.21C345.151 410.5 345.001 410.81 344.911 411.15C344.801 411.48 344.721 411.82 344.661 412.16C344.591 412.5 344.551 412.85 344.511 413.2C344.371 414.6 344.351 416.01 344.371 417.42C344.391 418.83 344.451 420.25 344.531 421.66C344.591 423.08 344.711 424.49 344.801 425.91L344.691 425.93L344.561 425.03V425.03Z" fill="#407035"/>
<path d="M324.32 412.209C324.32 412.209 325.98 412.009 328.49 412.169C329.74 412.249 331.2 412.399 332.74 412.749C334.28 413.089 335.9 413.589 337.42 414.329C338.18 414.699 338.9 415.149 339.59 415.629C340.25 416.139 340.89 416.659 341.42 417.259C341.7 417.539 341.93 417.869 342.17 418.159C342.38 418.479 342.59 418.789 342.77 419.099C343.12 419.739 343.4 420.369 343.61 420.969C343.7 421.269 343.8 421.559 343.87 421.839C343.93 422.119 343.99 422.379 344.04 422.629C344.15 423.129 344.24 423.559 344.32 423.919C344.47 424.629 344.55 425.039 344.55 425.039C344.55 425.039 344.43 424.639 344.22 423.939C344.12 423.589 343.99 423.169 343.85 422.679C343.71 422.189 343.55 421.649 343.33 421.069C343.11 420.499 342.81 419.899 342.45 419.299C342.07 418.709 341.62 418.119 341.09 417.569C340.58 416.999 339.95 416.509 339.31 416.029C338.64 415.579 337.94 415.149 337.2 414.809C335.73 414.079 334.15 413.559 332.65 413.209C331.14 412.849 329.71 412.609 328.47 412.479C326 412.199 324.32 412.229 324.32 412.229V412.209Z" fill="#407035"/>
<path opacity="0.4" d="M339.001 429.65C338.791 431.88 350.811 430.26 350.811 430.26C350.561 424.4 356.641 419.3 356.641 419.3C354.301 420.24 352.881 422.7 351.851 424.52C350.821 426.34 350.111 426.83 349.951 425.92C349.801 425.08 349.811 424.3 349.951 423.58C350.051 418.29 354.221 413.94 354.221 413.94C354.191 413.94 354.171 413.94 354.141 413.94C352.461 414.84 350.601 417.24 350.221 418.92C349.621 421.55 348.151 426.8 346.141 425.4C344.131 424 344.781 417 344.781 414.72C344.781 412.98 345.511 410.68 345.861 409.7C343.401 410.81 344.121 420.18 344.541 424.15C344.681 424.74 344.791 425.24 344.891 425.6C345.541 428.12 343.091 430.78 343.531 427.91C343.971 425.04 340.921 417.93 335.971 414.75C332.841 412.74 327.841 412.29 324.591 412.23C339.751 413.21 341.351 424.08 341.351 424.08C341.241 423.87 341.131 423.68 341.011 423.49C342.061 425.81 340.991 427 339.561 424.7C338.191 422.5 334.701 421.15 330.421 420.44C337.371 422.17 339.231 427.37 339.011 429.66L339.001 429.65Z" fill="#407035"/>
<path d="M225.95 251.801C225.53 248.651 224.59 245.401 223.13 242.061C221.81 239.051 218.31 237.681 215.3 239.001C212.29 240.321 210.92 243.821 212.24 246.831C215.66 254.641 214.92 260.481 209.77 266.371C204.61 272.281 195.8 277.201 187.29 281.961C174.68 289.011 162.77 295.671 159.72 306.591C158.21 311.971 159.13 317.671 162.44 323.541C167.46 332.421 170.42 341.801 170.99 350.681C171.55 359.181 169.85 366.441 166.1 371.661C158.79 381.821 145.37 381.661 135.4 379.731C132.18 379.111 129.06 381.211 128.44 384.431C127.82 387.651 129.92 390.771 133.14 391.391C142.77 393.251 151.36 393.041 158.67 390.751C165.8 388.521 171.54 384.431 175.75 378.591C181.14 371.101 183.59 361.181 182.86 349.891C182.17 339.241 178.68 328.101 172.79 317.681C171.06 314.631 170.53 312.051 171.17 309.791C172.9 303.631 183.17 297.881 193.1 292.331C202.49 287.081 212.21 281.641 218.72 274.181C224.61 267.441 227.02 259.941 225.94 251.791L225.95 251.801Z" fill="#A16552"/>
<path opacity="0.35" d="M133.15 391.39C131.82 391.13 130.69 390.45 129.85 389.51C138.13 390.72 146.97 390.8 153.43 388.78C160.56 386.55 166.3 382.46 170.51 376.62C175.9 369.13 178.35 359.21 177.62 347.92C176.93 337.27 173.44 326.13 167.55 315.71C165.82 312.66 165.29 310.08 165.93 307.82C167.66 301.66 176.53 295.43 186.47 289.88C195.86 284.63 205.58 279.19 212.09 271.73C217.98 264.99 220.39 257.49 219.31 249.34C218.89 246.19 217.95 242.94 216.49 239.6C216.36 239.29 216.19 239.01 216.02 238.74C218.85 237.9 221.93 239.28 223.14 242.05C224.6 245.39 225.54 248.64 225.96 251.79C227.04 259.94 224.62 267.44 218.74 274.18C212.22 281.64 202.51 287.07 193.12 292.33C183.19 297.89 172.91 303.63 171.19 309.79C170.56 312.05 171.09 314.63 172.81 317.68C178.7 328.1 182.18 339.24 182.88 349.89C183.62 361.18 181.16 371.1 175.77 378.59C171.57 384.43 165.82 388.52 158.69 390.75C151.37 393.04 142.78 393.25 133.16 391.39H133.15Z" fill="#4E3F3F"/>
<path d="M199.309 93.9902H222.439V84.0802H199.309V93.9902Z" fill="#794C3E"/>
<path d="M321.059 151.36C314.719 142.29 307.459 137.11 306.889 137.63C306.319 138.15 310.019 146.21 320.569 152.73L321.669 153.04L321.059 151.36Z" fill="#CCCCCC"/>
<path d="M245.55 103.55C245.55 103.55 246.09 98.1301 245.39 96.8301C245.22 96.5101 244.59 96.6101 243.49 95.8701C243.49 95.8701 254.73 101.05 255.64 103.74C256.55 106.43 256.48 118.14 257.27 121.49C258.06 124.85 272.21 157.47 272.89 157.59C273.57 157.71 274.55 156.28 275.42 156.66C276.29 157.04 275.87 159.27 275.87 159.27C275.87 159.27 279.08 158.46 282.73 156.58C286.38 154.7 303.29 139.79 303.29 139.79C303.29 139.79 303.74 138.95 304.2 139.03C304.66 139.11 305.03 139.29 305.03 139.29C305.03 139.29 304.45 141.14 306.24 143.82C308.04 146.49 314.49 153.56 316.26 154.45C318.04 155.34 319.68 155.06 319.68 155.06C319.68 155.06 322.27 157.25 321.98 157.54C321.69 157.83 317.1 159.08 315.63 160.03C314.16 160.97 296.51 179.21 288.77 185.01C281.03 190.81 269.16 196.06 267.85 195.82C266.54 195.58 249.26 174.3 243.86 161.62C241.7 156.55 239.7 152.88 238.06 150.28C238.19 149.82 238.33 149.37 238.46 148.93C242.16 136.72 244.38 121.03 245.53 103.54L245.55 103.55Z" fill="#3F3093"/>
<path d="M316.279 154.461C314.499 153.571 308.049 146.501 306.259 143.831C304.609 141.371 304.959 139.631 305.029 139.361L306.889 137.641C306.889 137.641 309.649 142.231 312.769 145.411C315.879 148.591 321.209 152.691 321.239 152.521C321.269 152.351 321.059 151.371 321.059 151.371C321.059 151.371 322.779 153.491 322.289 153.791C322.059 153.931 320.869 154.511 319.669 155.091C319.469 155.121 317.949 155.311 316.289 154.481L316.279 154.461Z" fill="#E6E6E6"/>
<path d="M308.13 139.56C308.6 139.14 309.37 138.29 309.53 136.99C309.75 135.09 311.56 125.42 312.42 124.15C313.28 122.88 315.64 120.37 316.39 119C317.13 117.62 319.52 116.41 320.35 114.84C321.18 113.26 322.21 110.3 322.73 110.35C323.25 110.4 325.77 113.22 325.71 115.66C325.65 118.11 323.98 121.13 322.9 122.18C321.82 123.24 320.64 124.84 320.93 125.88C321.22 126.92 333.34 125.42 336.85 124.83C340.36 124.25 348.24 126.94 349.66 127.89C351.07 128.83 351.47 130.28 351.47 130.28C351.47 130.28 354.81 130.62 356.15 132.15C357.5 133.68 355.13 135.46 355.13 135.46C355.13 135.46 356.06 138.47 355.49 139.06C354.92 139.65 353.37 139.93 353.37 139.93C353.37 139.93 353.2 142.27 352.56 142.59C351.93 142.91 341.79 144.46 339.85 144.9C337.92 145.33 325.45 147.29 322.33 147.9C320.43 148.27 318.81 149.24 317.82 149.95C316.16 148.59 314.23 146.91 312.77 145.42C310.94 143.55 309.23 141.2 308.14 139.57L308.13 139.56Z" fill="#A16552"/>
<path opacity="0.45" d="M341.36 138.741C342.61 138.611 343.88 138.481 345.16 138.561C347.69 138.721 350.18 139.131 352.63 139.751C350.11 139.631 347.61 139.361 345.13 139.241C343.9 139.171 342.66 139.261 341.41 139.321L337.65 139.481H337.62H337.6L337.09 139.071L337.65 139.361C338.88 139.101 340.12 138.931 341.37 138.771L341.36 138.741Z" fill="#4E3F3F"/>
<path opacity="0.45" d="M345.189 133.79C348.399 133.82 351.549 134.46 354.539 135.47C351.419 134.95 348.299 134.46 345.189 134.46C342.079 134.53 338.939 134.9 335.819 135.33H335.789L335.769 135.32L335.399 134.87L335.819 135.23C338.859 134.38 341.999 133.85 345.189 133.79V133.79Z" fill="#4E3F3F"/>
<path opacity="0.45" d="M338.259 130.08L334.109 130.38C335.449 130.02 336.819 129.76 338.199 129.56C339.569 129.34 341.009 129.29 342.399 129.38C345.179 129.55 347.929 129.87 350.669 130.39C347.889 130.39 345.119 130.2 342.359 130.05C340.979 129.95 339.639 129.98 338.259 130.07V130.08Z" fill="#4E3F3F"/>
<path opacity="0.35" d="M313.649 143.54C313.649 143.54 316.619 144.76 318.189 144.58C319.749 144.4 323.749 142.58 327.979 141.96C332.219 141.34 336.109 142.55 336.419 142.66C336.419 142.66 343.899 141.86 347.979 141.73C349.939 141.67 351.699 141.71 353.019 141.78C352.899 142.16 352.749 142.48 352.549 142.58C351.919 142.9 341.779 144.45 339.839 144.89C337.909 145.32 325.439 147.28 322.319 147.89C320.419 148.26 318.799 149.23 317.809 149.94C316.149 148.58 314.219 146.9 312.759 145.41C312.539 145.18 312.329 144.93 312.109 144.69L313.649 143.54V143.54Z" fill="#4E3F3F"/>
<path d="M243.879 161.63C241.719 156.56 239.719 152.89 238.079 150.29C238.209 149.83 238.349 149.38 238.479 148.94C240.419 142.52 241.949 135.14 243.139 127.05C248.749 139 263.029 169.19 264.109 169.36C265.449 169.58 267.869 168.43 267.849 170.03C267.829 171.62 267.119 173.92 267.119 173.92C267.119 173.92 283.419 167.93 289.269 164.67C293.609 162.24 304.079 152.42 309.199 147.52C311.779 150.49 315.079 153.87 316.279 154.47C318.059 155.36 319.699 155.08 319.699 155.08C319.699 155.08 322.289 157.27 321.999 157.56C321.709 157.85 317.119 159.1 315.649 160.05C314.179 160.99 296.529 179.23 288.789 185.03C281.049 190.83 269.179 196.08 267.869 195.84C266.559 195.6 249.279 174.32 243.879 161.64V161.63Z" fill="#201775"/>
<path d="M188.909 89.75L190.979 88.59L193.839 80L208.709 90.97H212.319L222.629 86.54L227.359 91.76L229.659 92.64C228.969 97.12 226.939 109.72 224.539 119.23C222.569 127.02 219.159 136.99 217.089 142.84C213.779 137.24 209.559 129.92 206.859 124.66C202.499 116.16 191.589 94.94 188.919 89.76L188.909 89.75Z" fill="#F2F2F2"/>
<path d="M204.629 111.42C204.629 109.74 202.999 107.27 202.099 106.56C201.189 105.85 193.369 91.3301 193.369 91.3301L211.269 99.3101L225.969 91.3301C225.969 91.3301 221.469 110.26 223.459 111.41C224.079 111.77 225.419 110.3 226.969 108.11C226.239 111.86 225.409 115.75 224.539 119.22C222.569 127.01 219.159 136.98 217.089 142.83C213.779 137.23 209.559 129.91 206.859 124.65C205.559 122.12 203.679 118.46 201.609 114.43C206.069 115.36 204.639 112.87 204.639 111.42H204.629Z" fill="#E6E6E6"/>
<path d="M222.019 151.101C222.019 151.101 206.039 129.851 198.849 117.871C191.669 105.891 185.579 90.9707 185.579 90.9707C185.579 90.9707 169.199 97.0707 168.499 98.8807C167.809 100.691 164.329 118.551 170.119 140.481C175.909 162.411 189.119 203.561 188.419 209.431C187.729 215.311 184.479 229.031 184.479 229.031C184.479 229.031 193.279 234.001 199.539 235.131C205.789 236.261 210.299 235.131 210.299 235.131L225.949 211.391C225.949 211.391 225.489 193.151 224.099 177.551C222.709 161.951 222.009 151.101 222.009 151.101H222.019Z" fill="#3F3093"/>
<path d="M224.109 177.56C222.719 161.96 222.019 151.11 222.019 151.11C222.019 151.11 219.999 148.42 217.079 144.43C219.779 139.39 224.969 129.63 228.279 122.85C232.909 113.35 235.079 92.7803 235.079 92.7803C235.079 92.7803 246.809 96.7903 247.739 97.9503C248.669 99.1103 249.129 104.53 249.129 104.53C251.209 121.94 251.909 137.76 250.519 150.42C249.129 163.08 248.229 187.27 250.189 195.86C252.149 204.45 259.099 222.92 259.099 222.92C259.099 222.92 252.839 229.93 245.199 232.41C237.559 234.9 229.209 235.12 229.209 235.12L222.359 216.86L225.969 211.38C225.969 211.38 225.509 193.14 224.119 177.54L224.109 177.56Z" fill="#3F3093"/>
<path d="M173.579 409.62C173.579 409.62 175.189 354.66 175.879 347.65C176.569 340.64 181.859 319.3 183.009 313.09C184.159 306.87 180.499 267.47 180.269 263.62C180.039 259.78 177.969 249.38 177.969 249.38C177.969 249.38 181.619 236.29 186.639 229.75C189.309 231.17 195.519 234.27 200.259 235.14C206.469 236.27 210.939 235.14 210.939 235.14L226.469 211.4L222.889 216.88L229.689 235.14C229.689 235.14 237.969 234.91 245.549 232.43C251.429 230.5 256.469 225.87 258.439 223.88C260.389 230.12 264.729 244.28 265.089 247.69C265.549 252.1 264.039 287.66 262.769 295.8C261.509 303.94 260.009 313.1 259.779 317.39C259.549 321.68 257.709 388.94 258.289 394.82C258.859 400.7 267.829 418.11 267.489 418.67C267.149 419.24 264.059 421.38 264.059 421.38C264.059 421.38 263.009 419.35 262.089 419.35C261.169 419.35 249.329 420.93 243.469 422.52C237.609 424.1 230.249 426.02 230.249 426.02C230.249 426.02 229.899 409.63 229.789 407.14C229.669 404.65 225.999 368.37 225.309 359.89C224.619 351.41 226.799 341.96 227.149 340.49C227.499 339.02 227.609 327.15 228.409 325.91C229.219 324.67 230.019 316.26 230.019 316.26C230.019 316.26 228.189 303.01 227.729 294.87C227.269 286.73 225.329 251.2 224.639 251.42C223.949 251.65 222.919 252.66 222.339 256.51C221.769 260.35 213.239 308.92 212.209 315.02C211.179 321.12 210.369 325.31 209.339 329.38C208.299 333.45 207.159 348.48 206.239 360.13C205.319 371.77 203.479 392.12 203.939 398.22C204.399 404.32 203.589 421.28 204.509 422.97C205.429 424.67 201.059 426.02 201.059 426.02C201.059 426.02 201.059 422.63 196.459 419.35C191.859 416.07 174.619 424.1 174.619 424.1C174.619 424.1 172.319 416.87 172.319 415.06C172.319 413.25 173.579 409.63 173.579 409.63V409.62Z" fill="#110E60"/>
<path d="M265.33 418.66C265.68 418.09 256.71 400.69 256.13 394.81C255.56 388.93 257.39 321.67 257.62 317.38C257.85 313.09 259.35 303.93 260.61 295.79C261.88 287.65 263.39 252.09 262.93 247.68C262.6 244.53 258.88 232.23 256.77 225.45C257.45 224.84 258.01 224.29 258.43 223.87C260.38 230.11 264.72 244.27 265.08 247.68C265.54 252.09 264.03 287.65 262.76 295.79C261.5 303.93 260 313.09 259.77 317.38C259.54 321.67 257.7 388.93 258.28 394.81C258.85 400.69 267.82 418.1 267.48 418.66C267.14 419.23 264.05 421.37 264.05 421.37C264.05 421.37 263.77 420.83 263.37 420.31C264.22 419.68 265.15 418.96 265.33 418.66V418.66Z" fill="#201775"/>
<path d="M202.34 422.96C201.42 421.27 202.23 404.31 201.77 398.21C201.31 392.11 203.15 371.76 204.07 360.12C204.99 348.48 206.14 333.44 207.17 329.37C208.2 325.3 209.01 321.12 210.04 315.01C211.08 308.91 219.6 260.34 220.17 256.5C220.75 252.66 221.78 251.64 222.47 251.41C222.58 251.37 222.68 252.48 222.76 254.39C222.6 254.98 222.45 255.67 222.33 256.5C221.76 260.34 213.23 308.91 212.2 315.01C211.17 321.11 210.36 325.3 209.33 329.37C208.29 333.44 207.15 348.47 206.23 360.12C205.31 371.76 203.47 392.11 203.93 398.21C204.39 404.31 203.58 421.27 204.5 422.96C205.42 424.66 201.05 426.01 201.05 426.01C201.05 426.01 201.05 425.69 200.92 425.15C201.92 424.6 202.82 423.82 202.35 422.96H202.34Z" fill="#201775"/>
<path d="M198.589 235.13C194.679 234.41 189.769 232.11 186.729 230.55C186.919 230.27 187.109 230 187.309 229.74C189.929 231.16 196.04 234.26 200.71 235.13C202.29 235.42 203.76 235.56 205.07 235.61C203.32 235.68 201.109 235.6 198.589 235.13V235.13Z" fill="#22B322"/>
<path d="M220.96 218.971L225.96 211.391L222.35 216.871L229.16 235.001C227.83 235.101 227.03 235.131 227.03 235.131L220.96 218.971V218.971Z" fill="#22B322"/>
<path d="M229.76 235.13L229.71 235C232.59 234.77 238.03 234.13 243.16 232.41C248.91 230.48 253.84 225.85 255.77 223.86C255.92 224.34 256.08 224.88 256.25 225.44C253.8 227.7 249.8 230.89 245.27 232.41C237.85 234.9 229.76 235.12 229.76 235.12V235.13Z" fill="#FF97B4"/>
<path d="M262.109 419.361C262.729 420.341 263.409 421.391 263.809 421.861C264.669 422.881 279.069 426.101 281.139 427.291C283.209 428.481 286.569 433.311 286.569 433.311C286.569 433.311 275.019 436.701 266.739 435.291C258.299 433.851 259.409 433.481 251.309 432.541C243.209 431.611 232.169 434.321 232.259 431.691C232.299 430.441 232.709 427.771 233.129 425.321C235.799 424.621 240.049 423.491 243.719 422.501C249.289 421.001 260.249 419.491 262.099 419.351L262.109 419.361Z" fill="#722108"/>
<path d="M232.26 431.69C232.26 431.48 232.29 431.22 232.31 430.94L232.48 432.21C232.35 432.06 232.26 431.89 232.26 431.68V431.69Z" fill="#3A1616"/>
<path d="M232.279 430.71H232.329C232.329 430.79 232.309 430.87 232.309 430.95L232.279 430.71Z" fill="#3A1616"/>
<path d="M244.67 432.4V435.22C244.67 435.22 243.03 435.39 238.29 435.22C233.55 435.05 232.77 434.54 232.77 434.54L232.47 432.23C233.55 433.43 238.94 432.64 244.67 432.4V432.4Z" fill="#4C1605"/>
<path d="M196.72 419.34C201.32 422.62 201.32 426.01 201.32 426.01C201.32 426.01 201.34 426.01 201.37 425.99C201.71 428.89 202.01 431.94 201.84 432.61C201.49 433.97 199.17 437.45 195.2 439.99C191.24 442.53 174.6 432.78 174.6 431.43C174.6 430.53 174.91 426.54 175.11 423.98C177.12 423.07 192.43 416.27 196.73 419.33L196.72 419.34Z" fill="#722108"/>
<path d="M211.829 90.9698C211.189 90.9698 204.469 103.18 203.779 103.12C203.079 103.06 197.349 97.1898 194.569 93.7398C191.789 90.2898 191.039 88.4198 191.039 88.4198L193.809 79.5498C193.809 79.5498 198.979 83.7898 202.549 86.4198C206.119 89.0498 211.829 90.9598 211.829 90.9598V90.9698Z" fill="#E6E6E6"/>
<path d="M212.31 90.9698C212.31 90.9698 220.46 104.25 220.92 104.19C221.38 104.13 224.05 98.5398 225.44 95.5998C226.83 92.6598 227.53 91.3298 227.53 91.3298L222.99 85.5498C222.99 85.5498 217.23 88.8598 215.6 89.5598C213.97 90.2598 212.32 90.9698 212.32 90.9698H212.31Z" fill="#E6E6E6"/>
<path d="M211.829 90.9707H212.309C212.309 90.9707 215.799 96.6607 218.339 100.571L216.109 104.191C216.109 104.191 214.609 103.231 212.749 103.631C210.899 104.021 209.329 104.991 209.329 104.991L205.819 100.331C208.069 96.7407 211.389 90.9707 211.819 90.9707H211.829Z" fill="#AB71F6"/>
<path d="M217.069 142.83C214.169 137.92 210.569 131.69 207.909 126.68L209.339 104.98C209.339 104.98 210.899 104.02 212.759 103.62C214.609 103.22 216.119 104.18 216.119 104.18L216.269 103.94C217.749 109.44 220.619 120.1 222.369 126.91C220.579 132.8 218.509 138.79 217.079 142.82L217.069 142.83Z" fill="#AB71F6"/>
<path d="M188.31 88.5898C188.31 88.5898 201.86 114.93 206.84 124.65C211.82 134.37 222.02 151.1 222.02 151.1C222.02 151.1 203.72 136.41 193.87 124.08C184.02 111.76 176.26 93.8998 176.26 93.8998C176.26 93.8998 181.24 92.2598 183.33 91.3298C185.42 90.3998 188.31 88.5898 188.31 88.5898V88.5898Z" fill="#17176D"/>
<path d="M224.529 119.231C227.499 107.471 229.899 90.9707 229.899 90.9707L233.609 91.8707C237.319 92.7707 243.689 94.2407 243.689 94.2407C243.689 94.2407 239.289 113.571 233.839 123.291C229.969 130.211 222.219 139.651 218.069 144.511C217.749 143.971 217.409 143.411 217.069 142.821C219.149 136.981 222.559 127.011 224.519 119.211L224.529 119.231Z" fill="#17176D"/>
<path d="M212.229 158.81C212.229 160.54 213.669 161.95 215.439 161.95C217.209 161.95 218.649 160.55 218.649 158.81C218.649 157.07 217.209 155.67 215.439 155.67C213.669 155.67 212.229 157.07 212.229 158.81Z" fill="#17176D"/>
<path d="M213.859 181.69C213.859 183.42 215.299 184.83 217.069 184.83C218.839 184.83 220.279 183.43 220.279 181.69C220.279 179.95 218.839 178.55 217.069 178.55C215.299 178.55 213.859 179.95 213.859 181.69Z" fill="#17176D"/>
<path d="M215.5 204.571C215.5 206.301 216.94 207.711 218.71 207.711C220.48 207.711 221.92 206.311 221.92 204.571C221.92 202.831 220.48 201.431 218.71 201.431C216.94 201.431 215.5 202.831 215.5 204.571Z" fill="#17176D"/>
<path d="M194.569 93.7398C191.789 90.2898 191.039 88.4198 191.039 88.4198L191.069 88.3198C193.909 89.9798 203.119 95.0798 203.279 91.7198C203.429 88.3398 195.919 81.9198 193.649 80.0698L193.809 79.5498C193.809 79.5498 198.979 83.7898 202.549 86.4198C206.119 89.0498 211.829 90.9598 211.829 90.9598C211.189 90.9598 204.469 103.17 203.779 103.11C203.079 103.05 197.349 97.1798 194.569 93.7298V93.7398Z" fill="#CCCCCC"/>
<path d="M215.59 89.5606C217.07 88.9206 221.96 86.1406 222.83 85.6406C220.98 87.8206 218.12 91.6706 218.34 94.3706C218.51 96.4806 222.83 94.7406 226.86 92.6506C226.52 93.3406 226.05 94.3106 225.44 95.6006C224.05 98.5406 221.39 104.131 220.92 104.191C220.46 104.251 212.31 90.9706 212.31 90.9706C212.31 90.9706 213.96 90.2606 215.59 89.5606V89.5606Z" fill="#CCCCCC"/>
<path d="M212.31 93.1403C212.31 93.1403 216.03 97.4703 215.76 99.3203C215.49 101.17 214.47 101.09 212.31 101.26C210.15 101.44 209.55 101.88 208.85 101.26C208.15 100.64 208.76 99.3703 209.27 97.9803C209.78 96.5903 212.3 92.7803 212.3 92.7803" fill="#A67FEF"/>
<path d="M215.129 106.21C217.569 115.93 220.739 128.2 218.339 131.03C215.939 133.86 210.889 129.17 210.159 126.44C209.429 123.7 210.099 106.1 210.959 104.99C211.829 103.88 214.269 104.56 214.519 104.99C214.769 105.42 215.129 106.21 215.129 106.21V106.21Z" fill="#A67FEF"/>
<path d="M218.069 144.52C217.749 143.98 217.409 143.42 217.069 142.83C219.149 136.99 222.559 127.02 224.519 119.22C227.489 107.46 229.889 90.96 229.889 90.96C229.889 90.96 229.889 90.96 230.879 91.2C229.909 97.76 227.719 114.69 231.009 115.12C233.799 115.48 239.829 102.43 243.359 94.16C243.559 94.21 243.679 94.23 243.679 94.23C243.679 94.23 239.279 113.56 233.829 123.28C229.959 130.2 222.209 139.64 218.059 144.5L218.069 144.52Z" fill="#110E60"/>
<path d="M178.33 93.2098C182.18 101.09 195.25 127.03 199.14 124.67C202.84 122.42 191.77 98.3299 187.38 89.1599C187.95 88.8199 188.31 88.5898 188.31 88.5898C188.31 88.5898 201.86 114.93 206.84 124.65C211.82 134.37 222.02 151.1 222.02 151.1C222.02 151.1 203.72 136.41 193.87 124.08C184.02 111.76 176.26 93.8998 176.26 93.8998C176.26 93.8998 177.15 93.6098 178.33 93.1998V93.2098Z" fill="#110E60"/>
<path d="M199.549 235.13C193.299 234 184.489 229.03 184.489 229.03C184.489 229.03 187.729 215.31 188.429 209.43C188.989 204.69 180.499 176.97 174.159 154.92C176.699 147.31 178.319 142.48 178.319 142.48C178.319 142.48 201.279 187.56 202.639 201.43C203.999 215.29 205.469 223.34 210.159 222.55C214.859 221.76 225.919 209.55 225.919 209.55C225.949 210.72 225.959 211.4 225.959 211.4L210.309 235.14C210.309 235.14 205.809 236.27 199.549 235.14V235.13Z" fill="#201775"/>
<path d="M225.959 211.4C225.959 211.4 225.949 210.73 225.919 209.55C225.919 209.55 245.269 223.03 246.899 211.4C248.529 199.76 246.899 185.93 246.899 185.93L249.079 181.9C249.159 187.73 249.489 192.8 250.189 195.87C252.149 204.46 259.099 222.93 259.099 222.93C259.099 222.93 252.839 229.94 245.199 232.42C237.559 234.91 229.209 235.13 229.209 235.13L222.359 216.87L225.969 211.39L225.959 211.4Z" fill="#201775"/>
<path d="M180.6 239.381C182.03 235.951 183.82 232.331 185.82 229.741C188.51 231.161 194.77 234.261 199.55 235.131C205.8 236.261 210.31 235.131 210.31 235.131L225.96 211.391L222.35 216.871L229.2 235.131C229.2 235.131 237.54 234.901 245.19 232.421C251.12 230.491 256.19 225.861 258.18 223.871C259.15 226.961 260.72 232.011 262.1 236.721C256.32 238.951 243.05 243.961 236.58 245.591C228.16 247.711 222.35 245.591 222.35 245.591L220.29 231.811L210.24 246.531C210.24 246.531 203.99 247.181 191.5 244.001C186.85 242.821 183.27 241.091 180.59 239.381H180.6Z" fill="#0F0F4C"/>
<path d="M224.63 251.41C223.94 251.64 222.909 252.65 222.329 256.5C222.309 256.63 222.279 256.83 222.229 257.09C222.729 252.94 223.869 249.24 226.469 250.81C231.709 253.99 237.389 263.88 238.499 274.84C239.609 285.79 240.469 319.83 240.469 323C240.469 326.18 237.239 361.16 238.309 381.3C239.389 401.44 244.789 417.19 251.789 420.8C248.769 421.31 245.68 421.91 243.46 422.51C237.6 424.09 230.24 426.01 230.24 426.01C230.24 426.01 229.889 409.62 229.779 407.13C229.659 404.64 225.989 368.36 225.299 359.88C224.609 351.4 226.789 341.95 227.139 340.48C227.489 339.01 227.599 327.14 228.399 325.9C229.209 324.66 230.009 316.25 230.009 316.25C230.009 316.25 228.179 303 227.719 294.86C227.259 286.72 225.32 251.19 224.63 251.41V251.41Z" fill="#0F0F4C"/>
<path d="M201.05 426.01C201.05 426.01 201.05 422.62 196.45 419.34C191.85 416.06 174.61 424.09 174.61 424.09C174.61 424.09 172.31 416.86 172.31 415.05C172.31 413.24 173.57 409.62 173.57 409.62C173.57 409.62 175.18 354.66 175.87 347.65C176.56 340.64 181.85 319.3 183 313.09C184.15 306.87 180.49 267.47 180.26 263.62C180.03 259.78 177.96 249.38 177.96 249.38C177.96 249.38 181.61 236.29 186.63 229.75C188.72 230.86 192.96 232.99 196.98 234.28L197.13 235.63C197.13 235.63 189.67 254.44 188.95 267.46C188.23 280.48 194.48 316.63 191.96 323.7C189.45 330.77 181.51 408.14 184.42 413.79C187.32 419.44 189.81 416.62 195.2 413.79C198.03 412.31 201.54 417.03 204.25 421.86C204.31 422.38 204.39 422.76 204.49 422.94C205.41 424.64 201.04 425.99 201.04 425.99L201.05 426.01Z" fill="#0F0F4C"/>
<path d="M188.9 233.37L192.32 238.95C192.32 238.95 192.08 247.98 178.15 250.76L175.8 246.97L188.91 233.38L188.9 233.37Z" fill="#E6E6E6"/>
<path d="M177.539 97.9498C184.259 110.64 183.329 128.5 180.789 135.73C178.239 142.96 166.539 173.71 166.539 173.71C166.539 173.71 166.789 175.97 166.839 177.55C166.889 179.13 166.539 181.39 166.539 181.39C166.539 181.39 170.479 183.82 170.219 186.11C169.959 188.4 169.789 190.6 169.789 190.6C169.789 190.6 180.129 212.4 182.299 217.49C184.469 222.58 189.689 232.84 189.689 232.84C189.689 232.84 191.079 239.28 186.469 243.69C181.869 248.1 175.519 248.27 175.519 248.27C175.519 248.27 147.889 207.59 144.069 201.66C140.249 195.72 139.029 190.81 139.029 189.96C139.029 189.11 155.009 131.94 157.269 123.97C159.529 116 161.259 98.2198 173.189 96.0498C177.249 95.3098 177.539 97.9498 177.539 97.9498V97.9498Z" fill="#3F3093"/>
<path d="M170.599 222.55C170.599 213.01 152.949 190.92 153.759 182.97C154.449 176.22 175.689 140.69 182.089 130.11C181.759 132.34 181.309 134.26 180.789 135.74C178.239 142.97 166.539 173.72 166.539 173.72C166.539 173.72 166.789 175.98 166.839 177.56C166.889 179.14 166.539 181.4 166.539 181.4C166.539 181.4 170.479 183.83 170.219 186.12C169.959 188.41 169.789 190.61 169.789 190.61C169.789 190.61 180.129 212.41 182.299 217.5C184.469 222.59 189.689 232.85 189.689 232.85C189.689 232.85 191.079 239.29 186.469 243.7C181.869 248.11 175.519 248.28 175.519 248.28C175.519 248.28 165.919 234.24 157.639 221.75C164.139 224.34 170.599 226.43 170.599 222.55V222.55Z" fill="#201775"/>
<path d="M243.73 422.51C249.3 421.01 260.26 419.5 262.11 419.36C262.51 420 262.94 420.66 263.3 421.18C260.42 421.73 254.71 423.16 253.12 426.01C250.96 429.87 268.03 432.8 272.16 432.22C274.59 431.88 280.13 430.99 284.28 430.32C285.54 431.83 286.56 433.3 286.56 433.3C286.56 433.3 275.01 436.69 266.73 435.28C258.29 433.84 259.4 433.47 251.3 432.53C243.2 431.6 232.16 434.31 232.25 431.68C232.29 430.43 232.7 427.76 233.12 425.31C235.79 424.61 240.04 423.48 243.71 422.49L243.73 422.51Z" fill="#4C1605"/>
<path d="M186.869 438.741C181.039 436.381 174.579 432.281 174.579 431.441C174.579 430.541 174.889 426.551 175.089 423.991C177.099 423.081 192.409 416.281 196.709 419.341C201.309 422.621 201.309 426.011 201.309 426.011C201.309 426.011 201.329 426.011 201.359 425.991C201.539 427.561 201.709 429.171 201.799 430.421C200.479 427.431 198.189 424.531 194.199 424.041C185.579 422.981 184.239 432.791 185.219 435.621C185.479 436.371 186.099 437.501 186.869 438.731V438.741Z" fill="#4C1605"/>
<path d="M180.01 40.92C179.53 43.37 179.38 45.88 179.56 48.37L179.6 48.89C179.86 51.9 179.72 54.92 179.27 57.91C177.84 57.52 176.34 56.63 174.85 55.01C170.92 50.74 171.57 43.35 175.86 41.3C177.49 40.53 178.9 40.56 180.02 40.9C180.02 40.91 180.02 40.92 180.02 40.93L180.01 40.92Z" fill="#A16552"/>
<path d="M180.01 40.92C179.53 43.37 179.38 45.88 179.56 48.37L179.6 48.89C179.86 51.9 179.72 54.92 179.27 57.91C177.84 57.52 176.34 56.63 174.85 55.01C170.92 50.74 171.57 43.35 175.86 41.3C177.49 40.53 178.9 40.56 180.02 40.9C180.02 40.91 180.02 40.92 180.02 40.93L180.01 40.92Z" fill="#F5DCB4"/>
<path d="M247.169 49.5798C245.939 51.4098 244.579 52.5098 243.229 53.1098C242.339 50.2298 241.739 47.2598 241.549 44.2398L241.509 43.7198C241.309 41.2198 240.779 38.7598 239.939 36.3898C240.999 35.8798 242.389 35.6398 244.119 36.1598C248.669 37.5498 250.419 44.7498 247.169 49.5698V49.5798Z" fill="#A16552"/>
<path d="M247.169 49.5798C245.939 51.4098 244.579 52.5098 243.229 53.1098C242.339 50.2298 241.739 47.2598 241.549 44.2398L241.509 43.7198C241.309 41.2198 240.779 38.7598 239.939 36.3898C240.999 35.8798 242.389 35.6398 244.119 36.1598C248.669 37.5498 250.419 44.7498 247.169 49.5698V49.5798Z" fill="#F5DCB4"/>
<path d="M233.63 53.9198C232.48 56.0598 232.31 58.6099 233.26 60.8599C233.98 62.5499 234.65 64.4699 234.76 65.9299C235.56 76.6099 226.09 86.0299 213.6 86.9699C201.11 87.9099 190.34 80.0099 189.54 69.3199C189.43 67.8599 189.81 65.8599 190.27 64.0799C190.88 61.7199 190.33 59.2099 188.87 57.2699C188.52 56.7999 188.2 56.3099 187.92 55.7999C187.06 54.2499 186.55 52.5199 186.41 50.7499C185.88 43.6599 191.49 37.4499 198.94 36.8899C201.35 36.6999 203.76 37.1398 205.95 38.1698C208.52 39.3798 211.53 39.1599 213.89 37.5799C215.9 36.2399 218.22 35.4498 220.63 35.2798C228.08 34.7198 234.55 40.0199 235.09 47.1099C235.23 48.8799 234.98 50.6599 234.36 52.3299C234.16 52.8799 233.91 53.4099 233.63 53.9299V53.9198Z" fill="#A16552"/>
<path d="M233.63 53.9198C232.48 56.0598 232.31 58.6099 233.26 60.8599C233.98 62.5499 234.65 64.4699 234.76 65.9299C235.56 76.6099 226.09 86.0299 213.6 86.9699C201.11 87.9099 190.34 80.0099 189.54 69.3199C189.43 67.8599 189.81 65.8599 190.27 64.0799C190.88 61.7199 190.33 59.2099 188.87 57.2699C188.52 56.7999 188.2 56.3099 187.92 55.7999C187.06 54.2499 186.55 52.5199 186.41 50.7499C185.88 43.6599 191.49 37.4499 198.94 36.8899C201.35 36.6999 203.76 37.1398 205.95 38.1698C208.52 39.3798 211.53 39.1599 213.89 37.5799C215.9 36.2399 218.22 35.4498 220.63 35.2798C228.08 34.7198 234.55 40.0199 235.09 47.1099C235.23 48.8799 234.98 50.6599 234.36 52.3299C234.16 52.8799 233.91 53.4099 233.63 53.9299V53.9198Z" fill="#F5DCB4"/>
<path d="M200.82 70.8899C200.1 70.9399 199.56 71.5699 199.62 72.2899C199.62 72.3499 199.63 72.3999 199.64 72.4599C200.87 78.1199 206.63 82.1399 213.21 81.6499C219.79 81.1599 224.88 76.3199 225.26 70.5399C225.3 69.8199 224.75 69.2099 224.03 69.1699C223.97 69.1699 223.92 69.1699 223.86 69.1699L200.83 70.8999L200.82 70.8899Z" fill="#4E3F3F"/>
<path d="M205.609 80.0705C210.369 82.5705 216.149 82.1405 220.489 78.9505C219.319 75.7905 216.389 76.7605 212.869 77.0205C209.349 77.2805 206.309 76.7605 205.619 80.0605L205.609 80.0705Z" fill="#E6646E"/>
<path d="M245.47 33.6702C242.72 32.8302 240.63 33.5402 239.21 34.5102C238.76 33.4602 238.27 32.4402 237.71 31.4502C237.31 30.7202 236.88 30.0002 236.42 29.3002C231.76 22.1102 224.41 16.4102 216.31 14.3802L215.83 10.1402L210.95 13.5902C210.74 13.5902 210.54 13.5802 210.33 13.5702C209.95 13.5702 209.57 13.5702 209.19 13.5702L208.2 10.4102L207.91 9.49023C207.66 9.51023 207.41 9.54023 207.16 9.57023C202.43 10.3102 200.38 14.8102 200.07 15.5802C192.37 18.8002 185.95 25.5302 182.42 33.3302C182.07 34.0902 181.76 34.8602 181.47 35.6502C181.07 36.7202 180.73 37.8002 180.45 38.9002C180.39 38.8702 180.32 38.8402 180.25 38.8102C178.71 38.1302 176.62 37.8202 174.13 39.0102C168.67 41.6202 167.84 51.0002 172.83 56.4302C174.87 58.6402 176.92 59.7802 178.85 60.2102C178.83 60.3202 178.82 60.4302 178.8 60.5302C178.58 62.1102 178.52 63.7102 178.64 65.3002C179.47 76.3302 188.31 85.2102 200.29 88.5102C203.1 89.2802 205.99 89.7302 208.9 89.8602C210.41 89.9302 211.93 89.9102 213.44 89.8102L213.8 89.7802C232.1 88.4102 246.02 75.2202 244.91 60.3302C244.79 58.7402 244.5 57.1702 244.05 55.6402C244.02 55.5402 243.99 55.4302 243.95 55.3302C245.79 54.6102 247.65 53.1802 249.33 50.6902C253.46 44.5802 251.24 35.4302 245.46 33.6702H245.47ZM180.01 40.9202C179.53 43.3702 179.38 45.8802 179.56 48.3702L179.6 48.8902C179.86 51.9002 179.72 54.9202 179.27 57.9102C177.84 57.5202 176.34 56.6302 174.85 55.0102C170.92 50.7402 171.57 43.3502 175.86 41.3002C177.49 40.5302 178.9 40.5602 180.02 40.9002C180.02 40.9102 180.02 40.9202 180.02 40.9302L180.01 40.9202ZM234.35 52.3302C234.15 52.8802 233.91 53.4102 233.63 53.9302C232.48 56.0702 232.31 58.6202 233.26 60.8702C233.98 62.5602 234.65 64.4802 234.76 65.9402C235.56 76.6202 226.09 86.0402 213.6 86.9802C201.11 87.9202 190.34 80.0202 189.53 69.3302C189.42 67.8702 189.8 65.8702 190.26 64.0902C190.87 61.7302 190.32 59.2202 188.86 57.2802C188.51 56.8102 188.19 56.3202 187.91 55.8102C187.05 54.2602 186.54 52.5302 186.4 50.7602C185.87 43.6702 191.48 37.4602 198.93 36.9002C201.34 36.7102 203.75 37.1502 205.94 38.1802C208.51 39.3902 211.52 39.1702 213.88 37.5902C215.89 36.2502 218.21 35.4602 220.62 35.2902C228.07 34.7302 234.54 40.0302 235.08 47.1202C235.22 48.8902 234.97 50.6702 234.35 52.3402V52.3302ZM247.17 49.5802C245.93 51.4102 244.58 52.5102 243.23 53.1102C242.34 50.2302 241.74 47.2602 241.55 44.2402L241.51 43.7202C241.31 41.2202 240.78 38.7602 239.94 36.3902C241 35.8802 242.39 35.6402 244.12 36.1602C248.67 37.5502 250.42 44.7502 247.17 49.5702V49.5802Z" fill="#A16552"/>
<path d="M207.381 60.1624C206.816 59.9539 206.189 60.2428 205.981 60.8075C205.773 61.3723 206.061 61.9991 206.626 62.2075L209.225 63.1667C209.789 63.3752 210.416 63.0864 210.625 62.5216C210.833 61.9569 210.544 61.3301 209.98 61.1216L207.381 60.1624Z" fill="#4E3F3F"/>
<path d="M215.763 59.5355L213.337 60.8717C212.809 61.1621 212.617 61.8249 212.908 62.3523C213.198 62.8796 213.861 63.0717 214.388 62.7813L216.815 61.4451C217.342 61.1548 217.534 60.4919 217.244 59.9646C216.953 59.4372 216.29 59.2452 215.763 59.5355Z" fill="#4E3F3F"/>
<path d="M199.52 54.9398C197.38 55.0998 195.52 53.5898 195.37 51.5598L195.28 50.3398C195.13 48.3098 196.74 46.5398 198.88 46.3798C201.02 46.2198 202.88 47.7298 203.03 49.7598L203.12 50.9798C203.27 53.0098 201.66 54.7798 199.52 54.9398Z" fill="#4E3F3F"/>
<path d="M198.88 46.37L199.2 50.65C199.28 51.66 200.2 52.42 201.27 52.34C202.34 52.26 203.15 51.37 203.07 50.36L203.02 49.75C202.87 47.72 201.01 46.21 198.87 46.37H198.88Z" fill="#5D5360"/>
<path d="M201.155 53.0412C201.865 52.9879 202.4 52.3955 202.349 51.7181C202.299 51.0407 201.681 50.5348 200.971 50.5881C200.26 50.6414 199.726 51.2337 199.777 51.9111C199.827 52.5885 200.445 53.0945 201.155 53.0412Z" fill="white"/>
<path d="M222.759 53.2005C220.619 53.3605 218.759 51.8505 218.609 49.8205L218.519 48.6005C218.369 46.5705 219.979 44.8005 222.119 44.6405C224.259 44.4805 226.119 45.9905 226.269 48.0205L226.359 49.2405C226.509 51.2705 224.899 53.0405 222.759 53.2005Z" fill="#4E3F3F"/>
<path d="M222.11 44.6298L222.43 48.9098C222.51 49.9198 223.43 50.6798 224.5 50.5998C225.57 50.5198 226.38 49.6298 226.3 48.6198L226.25 48.0098C226.1 45.9798 224.24 44.4698 222.1 44.6298H222.11Z" fill="#5D5360"/>
<path d="M224.389 51.298C225.1 51.2447 225.635 50.6524 225.584 49.975C225.533 49.2976 224.916 48.7916 224.205 48.8449C223.495 48.8982 222.96 49.4906 223.011 50.168C223.062 50.8454 223.679 51.3513 224.389 51.298Z" fill="white"/>
<path opacity="0.35" d="M208.21 10.42C207.34 10.4 205.54 11.91 203.45 14.44C202.93 15.07 202.39 15.77 201.84 16.52C197.78 22.08 193.24 30.7 192.1 39.28C190.2 53.69 190.23 70.24 196.14 78.97C201.16 86.37 208.92 89.87 208.92 89.87C206.01 89.75 203.12 89.29 200.31 88.52C188.34 85.22 179.49 76.34 178.66 65.31C178.54 63.72 178.59 62.12 178.82 60.54C178.83 60.43 178.85 60.32 178.87 60.22C176.94 59.79 174.89 58.65 172.85 56.44C167.86 51.01 168.68 41.63 174.14 39.02C176.62 37.84 178.72 38.14 180.26 38.82C180.33 38.85 180.4 38.88 180.46 38.91C180.74 37.81 181.09 36.72 181.48 35.66C181.77 34.88 182.09 34.11 182.43 33.34C185.96 25.54 192.38 18.81 200.08 15.59C200.39 14.82 202.44 10.32 207.17 9.58C207.41 9.54 207.66 9.51 207.92 9.5L208.21 10.42V10.42Z" fill="#4E3F3F"/>
<path d="M222.019 151.1L225.919 209.55L224.639 210.93L220.289 149.7L222.019 151.1Z" fill="#17176D"/>
<path d="M407.32 98.1502C411.92 122.87 395.6 146.65 370.87 151.25C369.58 151.49 368.29 151.67 367 151.8C343.71 154.12 322.13 138.24 317.78 114.81C313.18 90.0902 329.5 66.3102 354.23 61.7102C359.49 60.7202 364.89 60.6802 370.17 61.5702C388.46 64.6702 403.73 78.8602 407.32 98.1502V98.1502Z" fill="#5B3CA6"/>
<path d="M407.2 92.9302C411.88 118.11 395.26 142.32 370.08 147C368.77 147.24 367.45 147.43 366.14 147.56C342.42 149.92 320.45 133.75 316.01 109.89C311.33 84.7102 327.95 60.5002 353.13 55.8202C358.49 54.8202 363.99 54.7702 369.37 55.6802C388 58.8402 403.55 73.2803 407.21 92.9403L407.2 92.9302Z" fill="#AB71F6"/>
<path d="M353.44 57.5905C358.8 56.5905 364.29 56.5405 369.67 57.4505C387.98 60.5605 403.32 74.5805 407.3 93.7305C407.25 93.4605 407.21 93.1905 407.16 92.9105C403.51 73.2705 387.96 58.8305 369.35 55.6705C363.97 54.7605 358.48 54.8105 353.12 55.8105C327.95 60.4905 311.34 84.6905 316.02 109.85C316.08 110.15 316.14 110.46 316.2 110.76C312.06 85.9105 328.57 62.2105 353.45 57.5805L353.44 57.5905Z" fill="#9262DD"/>
<path d="M354.64 63.9103C359.23 63.0503 363.93 63.0103 368.53 63.7903C384.21 66.4503 397.34 78.4503 400.74 94.8503C400.7 94.6203 400.66 94.3803 400.62 94.1503C397.49 77.3303 384.18 64.9803 368.24 62.2703C363.64 61.4903 358.93 61.5303 354.35 62.3903C332.8 66.4003 318.58 87.1103 322.59 108.66C322.64 108.92 322.69 109.18 322.74 109.44C319.19 88.1603 333.33 67.8703 354.63 63.9103H354.64Z" fill="#5B3CA6"/>
<path d="M361.67 141.14C383.623 141.14 401.42 123.644 401.42 102.06C401.42 80.4772 383.623 62.9805 361.67 62.9805C339.717 62.9805 321.92 80.4772 321.92 102.06C321.92 123.644 339.717 141.14 361.67 141.14Z" fill="url(#paint1_linear_731_4079)"/>
<path d="M361.67 141.14C383.623 141.14 401.42 123.644 401.42 102.06C401.42 80.4772 383.623 62.9805 361.67 62.9805C339.717 62.9805 321.92 80.4772 321.92 102.06C321.92 123.644 339.717 141.14 361.67 141.14Z" fill="url(#paint2_linear_731_4079)"/>
<path d="M361.67 140.731C383.397 140.731 401.01 123.417 401.01 102.061C401.01 80.7038 383.397 63.3906 361.67 63.3906C339.943 63.3906 322.33 80.7038 322.33 102.061C322.33 123.417 339.943 140.731 361.67 140.731Z" stroke="url(#paint3_linear_731_4079)" stroke-opacity="0.12" stroke-width="1.19"/>
<path d="M348.17 125.06L343.22 108.59L343.73 99.2703L345.48 96.9803L342.77 89.5203L349.38 83.8203L366.05 83.9203L368.8 80.0303L378.84 80.6803L375.48 89.2703L383.9 103.41L382.18 111.88L374.26 113.31L373.12 115.95L365.16 121.04L348.18 125.06H348.17ZM347.44 108.11L351.06 120.15L363.48 117.21L369.77 113.19L371.29 109.67L378.64 108.35L379.49 104.15L370.86 89.6503L372.9 84.4303L370.89 84.3003L368.24 88.0603L350.96 87.9603L347.68 90.7903L350.19 97.7103L347.85 100.77L347.45 108.14L347.44 108.11Z" fill="white"/>
<g opacity="0.15">
<path d="M395.129 69.3506L343.749 144.211C346.569 145.391 349.509 146.291 352.549 146.901L400.809 76.6006C399.149 73.9906 397.249 71.5606 395.139 69.3606L395.129 69.3506Z" fill="#FDFBF5"/>
<path d="M369.369 55.6707C369.019 55.6107 368.669 55.5607 368.319 55.5107L321.189 124.171C325.369 131.591 331.479 137.631 338.719 141.741L391.019 65.5507C384.839 60.4907 377.389 57.0307 369.369 55.6707V55.6707Z" fill="#FDFBF5"/>
</g>
<path d="M317.85 117.391C319.57 115.231 322.53 110.271 324.55 111.031C326.57 111.791 327.45 116.131 324.55 119.901C321.65 123.671 318.8 127.541 318.8 127.541L317.85 117.381V117.391Z" fill="#A16552"/>
<path d="M468.599 280.301C468.599 303.631 449.679 322.551 426.349 322.551C425.129 322.551 423.919 322.501 422.729 322.391C401.089 320.551 384.109 302.411 384.109 280.301C384.109 256.971 403.029 238.051 426.359 238.051C431.329 238.051 436.259 238.921 440.929 240.631C457.089 246.561 468.609 262.091 468.609 280.301H468.599Z" fill="#F7931A"/>
<path d="M469.379 275.52C469.379 299.28 450.119 318.55 426.349 318.55C425.109 318.55 423.879 318.49 422.659 318.39C400.619 316.52 383.329 298.04 383.329 275.52C383.329 251.76 402.589 232.49 426.359 232.49C431.419 232.49 436.439 233.37 441.189 235.12C457.639 241.16 469.379 256.97 469.379 275.52V275.52Z" fill="#F9A948"/>
<path d="M462.059 284.42C457.139 304.14 437.169 316.15 417.439 311.23C397.719 306.31 385.719 286.33 390.639 266.61C395.559 246.88 415.529 234.88 435.249 239.8C454.969 244.72 466.979 264.7 462.059 284.42Z" fill="#F7931A"/>
<path d="M444.239 269.84C445.039 264.48 440.959 261.6 435.379 259.67L437.189 252.41L432.769 251.31L431.009 258.38C429.849 258.09 428.649 257.82 427.469 257.55L429.249 250.43L424.829 249.33L423.019 256.59C422.059 256.37 421.109 256.15 420.199 255.93V255.91L414.109 254.39L412.929 259.11C412.929 259.11 416.209 259.86 416.139 259.91C417.929 260.36 418.249 261.54 418.199 262.48L416.139 270.75C416.259 270.78 416.419 270.83 416.599 270.9C416.449 270.86 416.299 270.82 416.129 270.78L413.239 282.37C413.019 282.91 412.469 283.73 411.209 283.42C411.249 283.48 407.999 282.62 407.999 282.62L405.799 287.68L411.549 289.11C412.619 289.38 413.669 289.66 414.699 289.92L412.869 297.27L417.289 298.37L419.099 291.1C420.309 291.43 421.479 291.73 422.619 292.01L420.809 299.24L425.229 300.34L427.059 293.01C434.599 294.44 440.269 293.86 442.649 287.04C444.569 281.55 442.549 278.38 438.589 276.32C441.479 275.65 443.649 273.75 444.229 269.83L444.239 269.84ZM434.139 284C432.769 289.49 423.529 286.52 420.529 285.78L422.959 276.05C425.959 276.8 435.569 278.28 434.139 284V284ZM435.509 269.76C434.259 274.75 426.569 272.22 424.069 271.59L426.269 262.76C428.769 263.38 436.799 264.54 435.509 269.75V269.76Z" fill="white"/>
<path d="M426.329 234.17C431.389 234.17 436.409 235.05 441.159 236.79C457.339 242.73 468.949 258.12 469.329 276.26C469.329 276 469.329 275.75 469.329 275.49C469.329 256.96 457.599 241.15 441.149 235.11C436.399 233.37 431.379 232.48 426.319 232.49C402.569 232.49 383.319 251.74 383.319 275.49C383.319 275.78 383.319 276.06 383.329 276.35C383.759 252.98 402.849 234.16 426.319 234.16L426.329 234.17Z" fill="#FABE76"/>
<path d="M426.349 240.13C430.679 240.13 434.979 240.89 439.039 242.38C452.889 247.47 462.829 260.64 463.159 276.17C463.159 275.95 463.159 275.73 463.159 275.51C463.159 259.64 453.109 246.11 439.039 240.94C434.969 239.45 430.679 238.69 426.349 238.69C406.019 238.69 389.529 255.17 389.529 275.51C389.529 275.76 389.529 276 389.529 276.25C389.899 256.24 406.239 240.13 426.339 240.13H426.349Z" fill="#B96E14"/>
<g opacity="0.2">
<path d="M462.359 251.96L402.799 311.52C405.169 313.07 407.699 314.4 410.369 315.46L466.309 259.52C465.239 256.86 463.919 254.32 462.359 251.95V251.96Z" fill="#FDFBF5"/>
<path d="M441.189 235.12C440.879 235.01 440.569 234.9 440.259 234.79L385.629 289.42C388.179 296.89 392.729 303.44 398.639 308.42L459.259 247.8C454.479 242.14 448.269 237.72 441.189 235.12Z" fill="#FDFBF5"/>
</g>
<path d="M372.51 214.25C385.5 236.75 377.79 265.53 355.29 278.53C354.12 279.21 352.92 279.83 351.71 280.4C329.82 290.68 303.33 282.64 291.02 261.31C278.03 238.81 285.74 210.03 308.24 197.03C313.03 194.26 318.27 192.35 323.73 191.41C342.62 188.14 362.38 196.69 372.52 214.26L372.51 214.25Z" fill="#FFB300"/>
<path d="M370.6 209.2C383.83 232.12 375.98 261.43 353.06 274.66C351.86 275.35 350.64 275.98 349.41 276.56C327.11 287.03 300.14 278.84 287.6 257.12C274.37 234.2 282.22 204.89 305.14 191.66C310.02 188.84 315.36 186.9 320.91 185.93C340.14 182.6 360.27 191.31 370.6 209.2Z" fill="#FFD54F"/>
<path d="M364.609 212.66C375.929 232.27 369.209 257.35 349.599 268.67C348.579 269.26 347.529 269.8 346.479 270.3C327.399 279.26 304.319 272.25 293.589 253.66C282.269 234.05 288.989 208.97 308.599 197.65C312.769 195.23 317.339 193.57 322.089 192.75C338.549 189.9 355.769 197.35 364.609 212.66V212.66Z" fill="#FAF4E6"/>
<path d="M328.699 239.38C328.699 239.38 326.779 235.44 319.549 234.08C309.209 232.13 307.659 231.28 313.929 228.9C320.199 226.52 327.149 228.91 327.149 228.91" fill="#FFCA28"/>
<path d="M322.67 256.8L321.1 254.49L316.53 257.59C316.06 257.91 315.93 258.56 316.26 259.03L316.67 259.63C316.99 260.1 317.63 260.23 318.11 259.9L322.68 256.8H322.67Z" fill="#AC752C"/>
<path d="M322.669 256.8L321.879 255.64L316.459 259.32L316.669 259.62C316.989 260.09 317.629 260.22 318.109 259.89L322.679 256.79L322.669 256.8Z" fill="#7D551F"/>
<path d="M338.969 236.38C337.599 235.96 336.259 235.79 334.829 235.75C333.459 235.71 332.079 235.85 330.719 235.94C329.519 236.02 328.359 235.99 327.219 236.38C327.219 236.47 327.199 236.57 327.189 236.66C327.179 236.75 327.169 236.85 327.159 236.94C327.139 237.15 327.119 237.36 327.089 237.58C327.089 237.61 327.089 237.63 327.089 237.66C327.079 237.75 327.069 237.84 327.049 237.93C327.029 238.02 327.019 238.12 326.999 238.22C326.969 238.43 326.939 238.64 326.889 238.85C326.779 239.48 326.639 240.11 326.479 240.74C326.449 240.85 326.429 240.95 326.399 241.05C326.359 241.22 326.309 241.39 326.259 241.55C326.229 241.68 326.189 241.79 326.159 241.91C326.129 242.03 326.089 242.14 326.049 242.26C326.049 242.28 326.029 242.31 326.029 242.34C325.969 242.52 325.919 242.7 325.849 242.87C325.829 242.91 325.819 242.95 325.809 242.99C325.789 243.06 325.769 243.13 325.739 243.2L325.659 243.41C325.599 243.59 325.539 243.76 325.469 243.94C325.379 244.19 325.279 244.44 325.169 244.68C325.089 244.87 325.009 245.08 324.919 245.27C324.899 245.31 324.889 245.34 324.869 245.38C324.799 245.54 324.729 245.7 324.649 245.86C324.649 245.86 324.649 245.87 324.649 245.88C324.529 246.13 324.409 246.39 324.279 246.64C324.009 247.16 323.729 247.68 323.429 248.19C322.879 249.12 322.279 250.01 321.629 250.87C321.349 251.24 321.059 251.6 320.759 251.96C320.609 252.14 320.459 252.32 320.299 252.5C320.159 252.65 320.029 252.81 319.879 252.96C319.689 253.17 319.499 253.36 319.299 253.56C319.299 253.56 319.249 253.62 319.169 253.74C319.149 253.77 319.129 253.82 319.099 253.86C319.089 253.88 319.079 253.9 319.059 253.93C319.039 253.96 319.039 253.98 319.019 254C318.679 254.64 318.549 255.37 318.639 256.09C318.639 256.11 318.639 256.13 318.649 256.16C318.739 256.63 318.919 257.08 319.199 257.48C319.349 257.71 319.529 257.92 319.719 258.12C319.859 258.27 320.009 258.39 320.179 258.49C320.759 258.85 321.449 258.95 322.159 258.89C323.589 258.77 325.109 258.02 325.989 257.52C333.509 253.01 338.509 245.27 339.529 236.57C339.349 236.51 339.169 236.45 338.979 236.39L338.969 236.38Z" fill="#FFB300"/>
<path d="M330.72 235.94C329.52 236.02 328.36 235.99 327.22 236.38C327.22 236.47 327.2 236.57 327.19 236.66C327.18 236.75 327.17 236.85 327.16 236.94C327.15 237.03 327.14 237.13 327.13 237.22C327.12 237.33 327.1 237.46 327.09 237.58C327.09 237.61 327.09 237.63 327.09 237.66C327.08 237.75 327.07 237.84 327.05 237.93C327.03 238.02 327.02 238.12 327 238.22C326.98 238.32 326.97 238.41 326.95 238.51C326.93 238.61 326.92 238.74 326.9 238.85C326.87 239.04 326.83 239.23 326.79 239.43C326.79 239.47 326.78 239.5 326.77 239.54C326.75 239.63 326.73 239.72 326.72 239.81C326.68 240.01 326.63 240.21 326.58 240.41C326.55 240.52 326.53 240.63 326.5 240.74C326.47 240.85 326.45 240.95 326.42 241.05C326.37 241.22 326.33 241.38 326.28 241.55C326.24 241.67 326.21 241.79 326.18 241.91C326.15 242.03 326.11 242.14 326.07 242.26C326.07 242.28 326.05 242.31 326.05 242.34C325.99 242.52 325.94 242.69 325.87 242.87C325.85 242.91 325.84 242.95 325.83 242.99L325.76 243.2L325.68 243.41C325.62 243.59 325.56 243.76 325.49 243.94C325.43 244.1 325.36 244.25 325.3 244.4C325.26 244.49 325.23 244.58 325.19 244.68C325.11 244.87 325.03 245.08 324.94 245.27C324.92 245.31 324.91 245.34 324.89 245.38C324.82 245.54 324.75 245.7 324.67 245.86C324.67 245.86 324.67 245.87 324.67 245.88C324.61 246 324.55 246.12 324.49 246.25C324.43 246.38 324.36 246.51 324.3 246.65C324.21 246.84 324.1 247.02 324.01 247.2L323.85 247.49C323.72 247.73 323.59 247.96 323.45 248.19C323.35 248.35 323.26 248.5 323.17 248.65C323.03 248.88 322.88 249.11 322.74 249.32C322.64 249.47 322.54 249.62 322.43 249.77C322.28 249.99 322.12 250.22 321.95 250.44C321.84 250.58 321.75 250.72 321.64 250.86C321.45 251.1 321.27 251.34 321.07 251.57L320.85 251.84C320.85 251.84 320.79 251.91 320.77 251.94C320.62 252.12 320.47 252.3 320.31 252.48C320.17 252.63 320.03 252.79 319.89 252.94C319.7 253.15 319.51 253.34 319.31 253.54C319.31 253.54 319.26 253.6 319.18 253.72C319.16 253.75 319.14 253.8 319.11 253.84C319.1 253.86 319.09 253.88 319.07 253.91C319.05 253.94 319.05 253.96 319.03 253.98C318.69 254.62 318.56 255.35 318.65 256.07C318.65 256.09 318.65 256.11 318.66 256.14C318.75 256.61 318.93 257.06 319.21 257.46C319.36 257.69 319.54 257.9 319.73 258.1L319.77 258.08C322 256.81 324.06 255.24 325.87 253.42C326.12 253.17 326.36 252.92 326.6 252.66C330.75 248.17 333.33 242.46 333.94 236.37C333.96 236.16 333.97 235.95 333.99 235.74C332.9 235.76 331.82 235.86 330.74 235.93L330.72 235.94Z" fill="#FFD54F"/>
<path d="M339.64 235.299L333.91 236.369L327.07 237.649C327.07 237.649 327.07 237.6 327.07 237.57C327.08 237.45 327.1 237.33 327.11 237.21C327.12 237.12 327.13 237.019 327.14 236.929C327.15 236.839 327.16 236.739 327.17 236.649C327.2 236.409 327.22 236.169 327.24 235.919C327.25 235.759 327.26 235.599 327.27 235.449C327.29 235.139 327.3 234.819 327.3 234.509C327.3 234.399 327.3 234.289 327.3 234.189C327.3 234.159 327.3 234.129 327.3 234.089C327.3 233.899 327.3 233.719 327.3 233.519C327.3 233.319 327.3 233.119 327.29 232.919C327.29 232.689 327.27 232.46 327.25 232.24C327.24 232.05 327.23 231.859 327.21 231.669C327.19 231.479 327.18 231.259 327.16 231.059C327.16 230.989 327.15 230.929 327.14 230.869C327.13 230.739 327.11 230.599 327.1 230.469C327.1 230.459 327.1 230.449 327.1 230.439C327.07 230.239 327.05 230.05 327.02 229.85C327.02 229.81 327.02 229.759 327 229.719L326.98 229.609C326.96 229.469 326.93 229.34 326.91 229.21C326.89 229.1 326.88 228.989 326.86 228.879C326.84 228.769 326.82 228.659 326.8 228.549L326.78 228.469C326.77 228.399 326.75 228.329 326.74 228.269C326.73 228.209 326.71 228.129 326.69 228.059C326.59 227.599 326.49 227.139 326.37 226.679C326.31 226.449 326.25 226.22 326.19 225.99C326.1 225.66 326 225.339 325.89 225.009L325.86 224.909C325.86 224.909 325.84 224.859 325.83 224.829C325.71 224.459 325.57 224.079 325.43 223.719C325.38 223.599 325.33 223.47 325.28 223.35C325.23 223.23 325.18 223.109 325.13 222.979C325.07 222.839 325.01 222.689 324.94 222.549C324.9 222.469 324.86 222.379 324.83 222.289C324.76 222.129 324.69 221.98 324.62 221.82C324.56 221.68 324.49 221.539 324.42 221.399C324.3 221.149 324.18 220.919 324.05 220.669C323.99 220.549 323.92 220.429 323.85 220.299L323.77 220.169C323.77 220.169 323.72 220.079 323.69 220.029C323.64 219.939 323.59 219.849 323.54 219.759L323.36 219.449C323.16 219.109 322.95 218.769 322.73 218.439L322.7 218.389C322.5 218.089 322.3 217.789 322.09 217.489C321.28 216.219 319.03 213.48 318.04 211.21C317.58 210.17 317.39 209.23 317.71 208.57C317.75 208.49 317.8 208.409 317.85 208.329C317.91 208.259 317.98 208.189 318.05 208.129C318.05 208.129 318.05 208.129 318.06 208.129C318.72 207.579 319.56 207.379 320.39 207.349C322.08 207.289 323.76 207.959 323.94 208.029C334.21 213.109 340.39 223.89 339.59 235.32L339.64 235.299Z" fill="#FFD770"/>
<path d="M333.919 236.37C334.779 227.85 331.759 219.05 324.989 212.8C323.329 211.27 321.489 209.94 319.519 208.85C319.239 208.7 318.949 208.54 318.659 208.39C318.479 208.29 318.289 208.21 318.109 208.12C318.039 208.18 317.969 208.25 317.909 208.32C317.849 208.4 317.809 208.48 317.769 208.56C317.449 209.22 317.639 210.16 318.099 211.2C319.089 213.47 321.339 216.21 322.149 217.47C322.359 217.78 322.569 218.08 322.759 218.38L322.789 218.43C323.009 218.76 323.219 219.1 323.419 219.44L323.469 219.54L323.589 219.75C323.639 219.84 323.689 219.93 323.739 220.02C323.769 220.06 323.799 220.11 323.819 220.16L323.899 220.29C323.969 220.41 324.039 220.53 324.099 220.66C324.229 220.9 324.349 221.15 324.469 221.39C324.539 221.53 324.609 221.67 324.669 221.81C324.739 221.97 324.819 222.12 324.879 222.28C324.919 222.36 324.959 222.45 324.989 222.54C325.049 222.69 325.119 222.83 325.179 222.97C325.229 223.1 325.279 223.22 325.329 223.34C325.379 223.46 325.429 223.59 325.479 223.71C325.619 224.08 325.749 224.45 325.879 224.82C325.889 224.84 325.899 224.87 325.909 224.9L325.939 225C326.049 225.32 326.149 225.65 326.239 225.98C326.299 226.21 326.359 226.44 326.419 226.67C326.539 227.13 326.639 227.59 326.739 228.05C326.759 228.12 326.769 228.19 326.789 228.26C326.809 228.33 326.819 228.4 326.829 228.46L326.849 228.54C326.869 228.65 326.889 228.76 326.909 228.87C326.929 228.98 326.949 229.09 326.959 229.2C326.979 229.33 327.009 229.47 327.029 229.6L327.049 229.71C327.049 229.71 327.059 229.8 327.069 229.84C327.099 230.03 327.119 230.23 327.149 230.43C327.149 230.44 327.149 230.45 327.149 230.46C327.169 230.59 327.179 230.73 327.189 230.86C327.189 230.92 327.199 230.99 327.209 231.05C327.219 231.25 327.249 231.46 327.259 231.66C327.269 231.86 327.289 232.04 327.299 232.23C327.309 232.46 327.329 232.69 327.339 232.91C327.339 233.1 327.339 233.3 327.349 233.51C327.359 233.72 327.349 233.89 327.349 234.08C327.349 234.12 327.349 234.15 327.349 234.18C327.349 234.29 327.349 234.39 327.349 234.5C327.349 234.82 327.329 235.13 327.319 235.44C327.309 235.6 327.299 235.76 327.289 235.91C327.269 236.15 327.249 236.39 327.219 236.64C327.219 236.73 327.199 236.83 327.189 236.92C327.179 237.01 327.169 237.11 327.159 237.2C327.149 237.31 327.129 237.44 327.119 237.56C327.119 237.59 327.119 237.61 327.119 237.64L333.959 236.35L333.919 236.37Z" fill="#FFEA8C"/>
<path d="M327.069 237.66C327.069 237.66 333.289 236.63 336.499 237.48C341.549 238.83 343.349 239.11 347.049 249.82C347.189 250.21 347.329 250.6 347.499 250.98C348.249 252.69 350.409 256.85 351.299 243.8C352.359 228.1 339.749 231.14 339.749 231.14C335.129 232.28 330.859 234.58 327.069 237.65V237.66Z" fill="#FFCA28"/>
<path d="M306.049 193.29C310.929 190.47 316.259 188.53 321.809 187.57C340.719 184.29 360.489 192.67 370.959 209.96C370.819 209.71 370.679 209.46 370.539 209.21C360.219 191.33 340.099 182.62 320.879 185.96C315.329 186.92 309.989 188.86 305.119 191.68C282.209 204.9 274.359 234.2 287.589 257.1C287.749 257.38 287.909 257.65 288.079 257.92C275.479 235.13 283.409 206.36 306.049 193.29V193.29Z" fill="#FFEA8C"/>
<path d="M309.399 199.03C313.569 196.61 318.139 194.95 322.889 194.13C339.079 191.32 356.009 198.49 364.969 213.3C364.849 213.09 364.729 212.87 364.609 212.66C355.769 197.35 338.549 189.9 322.089 192.75C317.339 193.58 312.769 195.23 308.599 197.65C288.989 208.97 282.269 234.05 293.589 253.66C293.729 253.9 293.869 254.13 294.009 254.37C283.229 234.86 290.009 210.23 309.399 199.03V199.03Z" fill="#FFB300"/>
<g opacity="0.33">
<path d="M350.71 190.39L326.43 281.01C329.58 281.19 332.76 281.05 335.93 280.6L358.73 195.49C356.22 193.51 353.53 191.81 350.71 190.39V190.39Z" fill="#FDFBF5"/>
<path d="M320.91 185.93C320.55 185.99 320.19 186.06 319.83 186.13L297.56 269.25C304.18 275.04 312.21 278.82 320.69 280.33L345.4 188.1C337.64 185.3 329.19 184.5 320.91 185.93V185.93Z" fill="#FDFBF5"/>
</g>
<path d="M387.009 331.46C390.609 351.87 376.979 371.34 356.569 374.94C355.499 375.13 354.439 375.27 353.379 375.36C334.169 377.09 316.509 363.84 313.099 344.5C309.499 324.09 323.129 304.62 343.539 301.02C347.889 300.25 352.329 300.25 356.679 301.02C371.729 303.72 384.209 315.52 387.019 331.45L387.009 331.46Z" fill="#696969"/>
<path d="M386.96 327.16C390.63 347.95 376.74 367.77 355.96 371.43C354.87 371.62 353.79 371.76 352.71 371.86C333.14 373.62 315.16 360.13 311.69 340.43C308.02 319.64 321.91 299.82 342.69 296.16C347.12 295.37 351.65 295.38 356.07 296.16C371.39 298.91 384.1 310.93 386.96 327.15V327.16Z" fill="#8C8C8C"/>
<path d="M381.529 328.11C384.669 345.9 372.789 362.86 354.999 366C354.069 366.16 353.139 366.28 352.219 366.37C335.479 367.88 320.089 356.33 317.119 339.47C313.979 321.68 325.859 304.72 343.649 301.58C347.439 300.91 351.309 300.91 355.099 301.58C368.209 303.93 379.089 314.22 381.539 328.1L381.529 328.11Z" fill="#E8E8E8"/>
<path d="M342.919 297.62C347.339 296.83 351.869 296.84 356.289 297.62C371.359 300.32 383.889 311.99 387.019 327.8C386.979 327.58 386.949 327.35 386.909 327.13C384.049 310.92 371.349 298.9 356.029 296.15C351.609 295.36 347.079 295.36 342.659 296.15C321.889 299.81 308.009 319.63 311.679 340.4C311.719 340.65 311.769 340.9 311.819 341.15C308.599 320.64 322.389 301.24 342.919 297.61V297.62Z" fill="#A3A3A3"/>
<path d="M343.859 302.84C347.649 302.17 351.519 302.17 355.309 302.84C368.209 305.15 378.939 315.14 381.619 328.68C381.589 328.49 381.559 328.3 381.529 328.1C379.079 314.22 368.209 303.93 355.089 301.58C351.299 300.9 347.429 300.9 343.639 301.58C325.849 304.72 313.979 321.68 317.109 339.47C317.149 339.69 317.189 339.9 317.229 340.11C314.469 322.55 326.279 305.94 343.859 302.84Z" fill="#696969"/>
<path d="M345.109 310.08L344.979 311.24L350.659 343.44L351.039 343.71L364.429 332.24L345.109 310.08Z" fill="#343434"/>
<path d="M345.109 310.08L334.539 337.51L351.039 343.71L348.289 328.08L345.109 310.08Z" fill="#8C8C8C"/>
<path d="M351.539 346.54L351.399 346.8L353.419 358.27L353.699 358.77L364.939 335.07L351.539 346.54Z" fill="#3C3C3B"/>
<path d="M353.699 358.77L351.539 346.54L335.039 340.35L353.699 358.77Z" fill="#8C8C8C"/>
<path d="M351.039 343.71L364.429 332.24L348.289 328.08L351.039 343.71Z" fill="#141414"/>
<path d="M334.539 337.51L351.039 343.71L348.289 328.08L334.539 337.51Z" fill="#393939"/>
<g opacity="0.2">
<path d="M377.179 307.631L334.259 368.921C336.569 369.911 338.989 370.681 341.489 371.201L381.799 313.641C380.459 311.471 378.909 309.461 377.179 307.631Z" fill="#FDFBF5"/>
<path d="M356.059 296.161C355.769 296.111 355.479 296.061 355.199 296.021L315.839 352.241C319.219 358.381 324.209 363.411 330.149 366.851L373.829 304.471C368.779 300.251 362.659 297.351 356.059 296.161Z" fill="#FDFBF5"/>
</g>
<defs>
<linearGradient id="paint0_linear_731_4079" x1="239.15" y1="459.17" x2="222.01" y2="410.48" gradientUnits="userSpaceOnUse">
<stop stop-color="#575756"/>
<stop offset="1" stop-color="#3C3C3B"/>
</linearGradient>
<linearGradient id="paint1_linear_731_4079" x1="361.67" y1="62.9805" x2="361.67" y2="141.14" gradientUnits="userSpaceOnUse">
<stop stop-color="#130C3F"/>
<stop offset="1" stop-color="#15197B"/>
</linearGradient>
<linearGradient id="paint2_linear_731_4079" x1="321.92" y1="102.06" x2="401.42" y2="102.06" gradientUnits="userSpaceOnUse">
<stop stop-color="#AE73FA"/>
<stop offset="1" stop-color="#AE73FA" stop-opacity="0"/>
</linearGradient>
<linearGradient id="paint3_linear_731_4079" x1="401.6" y1="102.061" x2="321.74" y2="102.061" gradientUnits="userSpaceOnUse">
<stop stop-color="#AE73FA"/>
<stop offset="1" stop-color="#AE73FA" stop-opacity="0"/>
</linearGradient>
</defs>
</svg>
