<svg xmlns="http://www.w3.org/2000/svg" xmlns:xlink="http://www.w3.org/1999/xlink" id="Laag_1" data-name="Laag 1" viewBox="0 0 500 500">
    <defs>
        <style>
            .cls-1 {
            fill: #fff;
            }

            .cls-2 {
            fill: #faf4e6;
            }

            .cls-3 {
            fill: #9f6552;
            }

            .cls-4 {
            fill: #27c278;
            }

            .cls-5 {
            fill: #842929;
            }

            .cls-6 {
            fill: #e6646e;
            }

            .cls-7 {
            fill: #845730;
            }

            .cls-8 {
            fill: #935747;
            }

            .cls-9 {
            opacity: .2;
            }

            .cls-9, .cls-10 {
            fill: #1a191b;
            }

            .cls-11 {
            isolation: isolate;
            opacity: .35;
            }

            .cls-11, .cls-12, .cls-13 {
            fill: #4e3f3f;
            }

            .cls-14 {
            fill: #b77834;
            }

            .cls-15 {
            fill: #5d5360;
            }

            .cls-16 {
            fill: #5e5349;
            }

            .cls-17 {
            fill: #ffd54f;
            }

            .cls-10 {
            opacity: .15;
            }

            .cls-18 {
            fill: #772424;
            }

            .cls-19 {
            clip-path: url(#clippath);
            }

            .cls-20 {
            fill: none;
            }

            .cls-21 {
            fill: #f9ab6d;
            }

            .cls-22 {
            fill: #a16552;
            }

            .cls-23 {
            fill: #3d3532;
            }

            .cls-24 {
            fill: #231e1c;
            }

            .cls-25 {
            fill: #f5dcb4;
            }

            .cls-26 {
            fill: #2e2826;
            }

            .cls-12 {
            opacity: .35;
            }
        </style>
        <clipPath id="clippath">
            <circle class="cls-20" cx="250" cy="250" r="250"/>
        </clipPath>
    </defs>
    <g class="cls-19">
        <path class="cls-4" d="m125.25,235.38s.05,2.13,1.77,3.15,4.98,3.19,7.85,6.45c2.87,3.26,5.3,5.11,9.77,5.36,4.47.26,17.87-.06,24.06-1.21,6.19-1.15,7.4-2.55,12.26-3.32,4.85-.77,5.87-5.62,9.7-7.79s5.74-8.55,8.43-11.87c2.68-3.32,3.7-6.64,5.49-7.91s-.51-27.83.77-31.91c1.28-4.09,7.53-43.06,7.53-43.06,0,0-10.55,7.32-12.09,9.53s-8.34,11.4-10.21,15.66-5.79,20.94-8.34,26.55-5.96,10.21-11.23,12.26-4.6,6.86-12.09,8.88c-7.49,2.02-16-1.05-16-1.05l-17.66,20.29Z"/>
        <path class="cls-3" d="m355.86,457.04c3.44,2.01,7.38,3.58,11.82,4.69,3.99,1.01,8.04-1.41,9.05-5.4,1.01-3.99-1.41-8.04-5.4-9.05-10.36-2.61-15.59-7.84-17.47-17.47-1.89-9.66,0-22.17,1.82-34.26,2.7-17.91,5.25-34.84-3.22-46.26-4.17-5.63-10.53-9.11-18.89-10.33-12.65-1.85-24.23-6.13-33.47-12.38-8.86-5.99-14.75-13.24-17.03-20.98-4.45-15.06,6.03-28.23,15.6-36.63,3.09-2.71,3.4-7.42.69-10.52-2.71-3.1-7.42-3.4-10.52-.69-9.24,8.11-15.63,16.79-18.99,25.79-3.27,8.78-3.63,17.62-1.08,26.27,3.28,11.09,11.22,21.15,22.98,29.1,11.09,7.5,24.8,12.6,39.66,14.78,4.35.64,7.32,2.09,9.07,4.46,4.78,6.45,2.58,21.04.45,35.16-2.01,13.35-4.09,27.15-1.71,39.34,2.15,11.02,7.73,19.17,16.64,24.37Z"/>
        <path class="cls-11" d="m371.16,461.76c.29-.07.57-.15.85-.25.12-.04.23-.1.35-.15.18-.07.35-.15.52-.23.14-.07.27-.15.4-.23.14-.08.28-.16.41-.26.14-.1.27-.2.41-.3.11-.09.23-.18.34-.28.13-.12.26-.24.39-.37.09-.1.18-.2.27-.3.13-.14.25-.29.36-.44.07-.1.14-.2.21-.31.11-.17.22-.34.32-.51.05-.1.1-.2.15-.3.1-.2.2-.39.28-.6,0,0,0-.01,0-.02-.4-.03-.81-.09-1.21-.19-4.43-1.12-8.37-2.68-11.82-4.69-8.91-5.2-14.48-13.35-16.64-24.37-2.38-12.19-.3-25.99,1.71-39.34,2.13-14.12,2.78-27.7-2-34.15-1.75-2.36-4.72-3.82-9.07-4.46-14.86-2.17-28.57-7.28-39.66-14.78-11.75-7.94-19.7-18.01-22.98-29.1-2.56-8.65-2.2-17.49,1.08-26.27,2.96-7.94,9.83-16.64,17.39-23.91-.29.02-.58.04-.86.1,0,0,0,0,0,0-.1.02-.2.05-.3.08-.27.06-.54.14-.81.24-.12.04-.23.08-.35.13-.33.14-.66.3-.98.49-.37.23-.74.48-1.08.78-9.24,8.11-15.63,16.79-18.99,25.79-3.27,8.78-3.63,17.62-1.08,26.27,3.28,11.09,11.22,21.15,22.98,29.1,11.09,7.5,24.8,12.6,39.66,14.78,4.35.64,7.32,2.09,9.07,4.46,4.78,6.45,2.58,21.04.45,35.16-2.01,13.35-4.09,27.15-1.71,39.34,2.15,11.02,7.73,19.17,16.64,24.37,3.44,2.01,7.38,3.58,11.82,4.69,1.18.3,2.37.29,3.48.03Z"/>
        <g>
            <path class="cls-26" d="m307.66,302.32l8.95,44.22s17.5,97.51,20.18,103.77c2.68,6.26,7.38,21.47,7.6,26.39.22,4.92-5.81,14.98-5.81,14.98,0,0-42.94.18-45.4-1.03-2.46-1.21-8.92-6.68-10.51-8.65-1.59-1.97-26.22-125.85-26.22-125.85l-9.84-3.13-1.57,7.16s3.68,101.03,6.99,109.58c.22,4.92-6.71,15.83-6.71,15.83,0,0-36.68-1.51-38.69-2.41-2.01-.89-5.37-8.27-5.14-10.73.22-2.46-6.21-126.91-5.53-145.36.67-18.45,6.71-30.86,6.71-30.86l105,6.1Z"/>
            <path class="cls-23" d="m201.02,282.68l106.65,8.52,4.26,32.24s-113.5-13.96-113.16-15.86c.34-1.89,2.25-24.9,2.25-24.9Z"/>
            <path class="cls-24" d="m240.68,398.9c6.19,42.94,6.43,73.33-2.07,85.47-.2.29-.49.59-.78.89,4.39.2,7.48.33,7.48.33,0,0,3.87-2.82,6.71-15.83,2.58-23.44.57-57.75-1.05-78-.81-10.08,2.51-7.54.52-17.45l-4.89-21.28s-12.11,2.94-5.92,45.88Z"/>
            <path class="cls-24" d="m247.92,484.97c-.25-.05-42.6-2.77-43.69-2.1-1.09.67,1.76,5.95,1.76,5.95,0,0-4.19,4.78-3.94,6.21.25,1.43,4.19,4.95,4.19,4.95,0,0-4.72,5.54-4.2,7.55.51,2.01,33.39,7.46,47.98,4.36,1.76-2.01-1.68-7.88-1.68-7.88,0,0,4.61-2.85,4.61-4.44,0-1.59-8.05-8.91-8.05-8.91,0,0,7.13-4.93,3.02-5.68Z"/>
            <path class="cls-24" d="m340.34,490.66s-48.73-1.03-50.24,0c-1.51,1.03.67,4.3.67,4.55,0,.25-2.43,2.77-2.52,4.95-.08,2.18,5.62,6.71,5.62,6.71,0,0-6.37,8.64-4.7,9.98,1.68,1.34,39.25,4.86,52.67.67,1.76-1.85-1.93-7.04-1.93-7.04,0,0,4.11-4.19,4.11-5.62,0-1.43-5.37-6.04-4.95-6.63.42-.59,3.86-4.95,3.69-5.95-.17-1.01-2.43-1.61-2.43-1.61Z"/>
        </g>
        <path class="cls-1" d="m182.23,195c-.35.78-.73,1.54-1.12,2.27l22.23,11.76,1.06-20.71s-13.83-7.1-17.24-8.89c-1.67,5.92-3.51,12.45-4.93,15.57Z"/>
        <path class="cls-18" d="m322.61,101.2s-2.63.52-3.87,1.67-.22,5.16-.54,7.01-.75,3.17-.75,3.17c0,0,5.49-1.88,5.75-2.35s-.6-9.5-.6-9.5Z"/>
        <path class="cls-16" d="m305.17,108.32s15.06-2.93,21.96-4.72c6.89-1.79,11.87-5.49,15.32-4.47s2.94,2.89,0,4.51c-2.94,1.62-13.4,4.43-16.85,4.68s-21.19,5.23-21.19,5.23l.77-5.23Z"/>
        <path class="cls-5" d="m320.48,105.16s-1.35-3.35,2.82-4.37c4.75-1.07,6.13-.25,7.28,1.73s3.06,10.78,5.87,16.02,6.13,18.46,10.34,29.4c4.21,10.94,9.7,14.77,12.38,27.92s-9.84,31.15-19.48,30.38-40.14-15.96-42.69-28.85,6.77-34.09,8.68-39.96c1.91-5.87,12-26.17,14.3-27.96s.61-2.69.5-4.31Z"/>
        <path class="cls-9" d="m359.17,175.85c-.7-3.45-1.6-6.24-2.62-8.71-2.1.93.7,10.11-2.36,12.28-3.06,2.17-2.94,4.98-6.26-2.43s-4.21-13.53-9.83-17.62c-5.62-4.09-11.94-5.71-11.94-5.71l7.34,19.37,12.77,26.68,2.56,2.61c6.73-5.91,12.19-17.36,10.33-26.48Z"/>
        <path class="cls-25" d="m231.59,139.37s-5.91,49.45,22.32,50.49c28.23,1.03,50.76-41.03,50.76-41.03l-73.08-9.45Z"/>
        <path class="cls-22" d="m282.85,176.88c13.22-12.03,7.26-29.94,7.26-29.94l-58.52-7.57s-2.14,18.21,2.47,32.77c10.74-1.63,31.55-3.19,48.78,4.74Z"/>
        <polygon class="cls-22" points="290.05 145.45 286.74 136.7 264.94 143.81 269.34 152.23 289.48 146.86 290.05 145.45"/>
        <path class="cls-4" d="m317.1,183.89c.26-5.11,13.28-27.06,13.28-27.06,0,0-9.19-6.77-14.04-8.04-4.85-1.28-23.99-1.9-26.29-3.34,0,0-21.68,55.74-42.19,36.39-15.79-14.89-8.96-35.55-4.97-44.28h-9.95s-7.88,2.3-10.94,3.7c-3.06,1.4-6.5.13-9.32,2.13,0,0-7.02,26.39-8.55,39.58s-1.02,35.4-1.28,41.27c-.26,5.87-2.17,18.77-1.66,27.7.51,8.94-.13,20.55-1.15,24.77-1.02,4.21-3.45,5.87-.77,8.81,2.68,2.94,2.96,5.87,5.82,4.6s7.28-2.68,15.6-3.57,11.77,10.51,22.24,8.98c10.47-1.53,19.4.13,24.38.13s16.21-1.15,23.11-1.79,17.74,2.94,19.15-3.45c1.4-6.38,2.04-34,2.17-37.7.13-3.7-1.28-.77.13-3.7,1.4-2.94,4.98-2.3,2.55-5.36s-2.04-5.23-.89-8.43c1.15-3.19,3.32-11.23,3.57-14.94s-.26-31.28,0-36.38Z"/>
        <path class="cls-4" d="m317.1,183.89c.26-5.11,13.28-27.06,13.28-27.06,0,0-9.19-6.77-14.04-8.04-4.85-1.28-23.99-1.9-26.29-3.34,0,0-21.68,55.74-42.19,36.39-15.79-14.89-8.96-35.55-4.97-44.28h-9.95s-7.88,2.3-10.94,3.7c-3.06,1.4-6.5.13-9.32,2.13,0,0-7.02,26.39-8.55,39.58s-1.02,35.4-1.28,41.27c-.26,5.87-2.17,18.77-1.66,27.7.51,8.94-.13,20.55-1.15,24.77-1.02,4.21-3.45,5.87-.77,8.81,2.68,2.94,2.96,5.87,5.82,4.6s7.28-2.68,15.6-3.57,11.77,10.51,22.24,8.98c10.47-1.53,19.4.13,24.38.13s16.21-1.15,23.11-1.79,17.74,2.94,19.15-3.45c1.4-6.38,2.04-34,2.17-37.7.13-3.7-1.28-.77.13-3.7,1.4-2.94,4.98-2.3,2.55-5.36s-2.04-5.23-.89-8.43c1.15-3.19,3.32-11.23,3.57-14.94s-.26-31.28,0-36.38Z"/>
        <path class="cls-1" d="m308.96,189.06l-105.19-2.38c-.53,6.46-.7,14.24-.77,21.16l107.83,4.34-1.87-23.11Z"/>
        <path class="cls-11" d="m204.11,184.53c-1.23-1.79-1.96-1.96-4-1.45-2.04.51-1.28,7.4-1.62,10.81-.34,3.4,1.02,9.7,1.45,13.36.43,3.66,2.38,5.11-.6,8-2.98,2.89-3.23,5.11-5.7,4.77-2.47-.34-8.09-1.96-7.66-.77.43,1.19,5.87,4.43,7.74,5.28,1.87.85.68,3.66,0,3.66s-5.11-2.55-7.57-3.06,2.81,3.15,5.02,5.62c2.21,2.47.34,3.23-1.45,2.81s-2.38-1.02-2.72,1.16.34,2.24-.85,1.82c-1.19-.43-2.64-1.53-3.06,1.62s.09,1.19-2.98,1.79c-3.06.6-3.49.68-13.11,1.13-9.62.45-12.77-.28-14.3-1.13-1.53-.85-1.96-3.23-3.74-1.62-1.79,1.62-2.38,3.57-6.12,2.38s-1.02-3.23-.17-7.74c.85-4.51-1.7-4.73-1.7-4.73,0,0-6.07,1.21-11.47,2.29l-4.24,4.87s.05,2.13,1.77,3.15c1.72,1.02,4.98,3.19,7.85,6.45,2.87,3.26,5.3,5.11,9.77,5.36s17.87-.06,24.06-1.21c6.19-1.15,7.4-2.55,12.26-3.32,4.85-.77,5.87-5.62,9.7-7.79,3.83-2.17,5.74-8.55,8.43-11.87s3.7-6.64,5.49-7.91c1.6-1.14-.06-22.42.47-29.88-.33-1.96-.65-3.41-.94-3.83Z"/>
        <path class="cls-22" d="m139.94,205.21s2.64,1.02,3.83,5.62c1.19,4.6-.09,4.26-.51,7.23s.77,6.04-2.64,10.64c-3.4,4.6-7.23,8.26-10.38,8.34-3.15.09-3.91-1.53-6.04-2.04s-7.47-4.52-7.57-5.58,8.09-10.68,8.09-10.68l8.94-11.15,6.3-2.38Z"/>
        <path class="cls-12" d="m139.94,205.21s2.64,1.02,3.83,5.62c1.19,4.6-.09,4.26-.51,7.23s.77,6.04-2.64,10.64c-3.4,4.6-7.23,8.26-10.38,8.34-3.15.09-3.91-1.53-6.04-2.04s-7.47-4.52-7.57-5.58,8.09-10.68,8.09-10.68l8.94-11.15,6.3-2.38Z"/>
        <path class="cls-16" d="m106.77,230.38c-2.99,2.58-5.45,5.36-6.72,5.53s.51,3.57,2.47,4.68,2.04,1.53,4.26,0,12.29-10.98,14.04-13.28,12.26-13.11,12.26-13.11c0,0,6.3-5.79,9.87-10.3,3.57-4.51,6.21-5.79,15.15-10.13,8.94-4.34,20.17-12.6,27.83-17.7s23.57-14.98,27.32-17.79,26.38-20.15,26.38-20.15l-4.15-2.32s-19.09,14.81-25.34,18.77c-6.26,3.96-19.15,12-23.62,14.68s-3.23,4.09-5.7,4.09-4.17-1.53-5.53-.43-2.13,4.43-4.51,6.04-16.09,9.62-21.36,12.26c-5.28,2.64-6.98,3.23-10.47,7.23s-6.04,7.91-8.34,8.6-16.77,16.6-16.77,16.6c0,0-4.1,4.17-7.06,6.72Z"/>
        <path class="cls-11" d="m313.53,235.21c1.1-3.05,3.13-10.52,3.53-14.41l-32.81-20.32-9.3,14.13-15.49-14.48s-24.1-5.81-23.42-.19,7.45,10.74,10.26,12.29c2.81,1.55,9.21,1.6,9.48,3.39.28,1.79,2.42,3.77,2.42,3.77,0,0,5.32,3.19,8.52,5.61,3.19,2.42,13.74,10.65,19.65,15.87,4.7,4.16,15.7,10.24,19.99,12.54.67,5.21-2.11,9.46-8.36,11.07-6.77,1.74-.39,6.97-4.84,13.74-4.45,6.77-8.9,2.71-17.81,7.35-8.9,4.65-15.87,3.1-25.34,4.65-8.15,1.33-8.16,4.52-8,5.39.31-.02.62-.06.94-.1,10.47-1.53,19.4.13,24.38.13s16.21-1.15,23.11-1.79,17.74,2.94,19.15-3.45c1.4-6.38,2.04-34,2.17-37.7.13-3.7-1.28-.77.13-3.7,1.4-2.94,4.98-2.3,2.55-5.36s-2.04-5.23-.89-8.43Z"/>
        <path class="cls-4" d="m329.8,156.83s8.64,15.14,13.67,36.43c5.03,21.29,5.23,32.32,6.97,40.26,1.74,7.94-10.14,15.34-13.94,18.39-3.79,3.05-22.06-13.55-22.06-13.55l-6-49.94s5.42-7.35,8.71-12.97c3.29-5.61,12.65-18.62,12.65-18.62Z"/>
        <path class="cls-4" d="m330.38,156.83s8.06,15.14,13.09,36.43c5.03,21.29,5.23,32.32,6.97,40.26,1.74,7.94-10.14,15.34-13.94,18.39-3.79,3.05-22.06-13.55-22.06-13.55l-6-49.94s5.42-7.35,8.71-12.97c3.29-5.61,13.23-18.62,13.23-18.62Z"/>
        <path class="cls-1" d="m343.47,193.26c-1.17-4.97-2.51-9.59-3.87-13.77l-29.32,6.38c-.94.17-2.11.35-2.11.35l2.15,17.93,34.28-5.89c-.35-1.6-.72-3.26-1.14-5Z"/>
        <path class="cls-11" d="m308.36,187.77s2.69,1.62,3.95,5.39,5.23,4.94,10.84,9.39,15.48,10.45,16.16,16.35,0,14.61,0,14.61l-28.79-25.08-.98-10.83-1.18-9.84Z"/>
        <path class="cls-22" d="m119.43,229.38c-2.32-.33-6.98-3.23-8.6-4.09s-1.74-1.96-1.53-3.28,2.43-1.83,3.32-1.79-.26-2.26.68-3.4,3.36-1.62,2.85-2.55-1.32-4.34.3-5.32,2.47.21,3.74-1.02.81-3.53,2.85-4.64,7.04-.19,10.81,2.87,4.98,8.68,2.68,8.68-1.96.53-1.83,1.68.04,3.53-1.57,3.53-2.26-.55-2.13.77-2.34,4-3.79,3.74-3.62-1.19-4.38-1.02-.04,1.19-.98,3.28-.94,2.77-2.43,2.55Z"/>
        <path class="cls-10" d="m321.19,122.29c-.66,3.74.26,12.65-.51,18.15s-5.74,6.14-9.83,4.99c-4.09-1.15-3.45-9.45,0-12.13,3.45-2.68,7.02-15.5,10.34-19.56,3.32-4.06,1.66-.93,0,8.55Z"/>
        <path class="cls-10" d="m331.85,135.14c-1.39-4.01-3.39-15.72-3.8-19.29-.41-3.57-.03-6.38,1.12-4.34s1.28,3.57,3.83,9.57c2.55,6,2.04,23.26-1.15,14.06Z"/>
        <g>
            <path class="cls-22" d="m227.3,84.87c-.8,3.04-1.2,6.16-1.18,9.3v.65c.09,3.8-.35,7.57-1.16,11.28-1.75-.6-3.57-1.85-5.3-4.01-4.58-5.68-3.15-14.89,2.4-17.1,2.1-.84,3.87-.68,5.25-.16,0,.01,0,.02-.01.03Z"/>
            <path class="cls-25" d="m227.3,84.87c-.8,3.04-1.2,6.16-1.18,9.3v.65c.09,3.8-.35,7.57-1.16,11.28-1.75-.6-3.57-1.85-5.3-4.01-4.58-5.68-3.15-14.89,2.4-17.1,2.1-.84,3.87-.68,5.25-.16,0,.01,0,.02-.01.03Z"/>
            <path class="cls-22" d="m310.78,101.27c-1.7,2.19-3.49,3.46-5.23,4.1-.88-3.69-1.39-7.46-1.37-11.25v-.65c-.05-3.15-.51-6.28-1.37-9.32,1.38-.55,3.14-.74,5.25.06,5.59,2.12,7.18,11.29,2.71,17.06Z"/>
            <path class="cls-25" d="m310.78,101.27c-1.7,2.19-3.49,3.46-5.23,4.1-.88-3.69-1.39-7.46-1.37-11.25v-.65c-.05-3.15-.51-6.28-1.37-9.32,1.38-.55,3.14-.74,5.25.06,5.59,2.12,7.18,11.29,2.71,17.06Z"/>
            <path class="cls-22" d="m293.44,105.6c-1.62,2.59-2.04,5.78-1.03,8.67.76,2.18,1.45,4.65,1.47,6.49.12,13.46-12.53,24.49-28.26,24.63-15.73.14-28.59-10.65-28.71-24.11-.02-1.84.63-4.32,1.35-6.51.96-2.91.48-6.1-1.19-8.65-.4-.62-.76-1.26-1.07-1.92-.95-2.02-1.45-4.22-1.47-6.45-.08-8.94,7.46-16.25,16.85-16.34,3.03-.04,6.02.71,8.68,2.18,3.12,1.73,6.91,1.7,10-.09,2.63-1.51,5.6-2.31,8.64-2.33,9.39-.09,17.06,7.09,17.15,16.03.02,2.23-.44,4.44-1.35,6.48-.3.67-.65,1.32-1.04,1.94Z"/>
            <path class="cls-25" d="m293.44,105.6c-1.62,2.59-2.04,5.78-1.03,8.67.76,2.18,1.45,4.65,1.47,6.49.12,13.46-12.53,24.49-28.26,24.63-15.73.14-28.59-10.65-28.71-24.11-.02-1.84.63-4.32,1.35-6.51.96-2.91.48-6.1-1.19-8.65-.4-.62-.76-1.26-1.07-1.92-.95-2.02-1.45-4.22-1.47-6.45-.08-8.94,7.46-16.25,16.85-16.34,3.03-.04,6.02.71,8.68,2.18,3.12,1.73,6.91,1.7,10-.09,2.63-1.51,5.6-2.31,8.64-2.33,9.39-.09,17.06,7.09,17.15,16.03.02,2.23-.44,4.44-1.35,6.48-.3.67-.65,1.32-1.04,1.94Z"/>
            <path class="cls-13" d="m250.91,124.16c-.9,0-1.63.75-1.62,1.65,0,.07,0,.14.02.21,1.07,7.2,7.96,12.72,16.25,12.64s15.08-5.72,16.02-12.94c.11-.9-.53-1.71-1.43-1.82-.07,0-.14-.01-.21-.01l-29.02.26Z"/>
            <path class="cls-6" d="m256.16,136.07c5.77,3.53,13.04,3.46,18.74-.17-1.21-4.06-4.96-3.09-9.4-3.05-4.44.04-8.2-.86-9.34,3.22Z"/>
            <path class="cls-22" d="m309.97,81.19c-3.38-1.28-6.05-.56-7.92.53-.47-1.35-1.01-2.67-1.62-3.96-.44-.95-.92-1.88-1.44-2.8-5.24-9.4-13.99-17.15-23.97-20.37l-.25-5.36-6.41,3.93c-.26-.03-.52-.05-.78-.07-.48-.04-.95-.07-1.43-.08l-.98-4.05-.29-1.18c-.32,0-.64.02-.94.04-5.99.54-8.93,6.02-9.38,6.95-9.92,3.4-18.52,11.31-23.59,20.8-.5.93-.96,1.87-1.39,2.82-.58,1.3-1.1,2.64-1.55,3.99-.08-.05-.16-.09-.24-.13-1.87-.98-4.47-1.54-7.69-.26-7.06,2.82-8.87,14.51-3.06,21.73,2.37,2.94,4.85,4.54,7.23,5.24-.03.13-.06.27-.09.4-.41,1.96-.61,3.96-.59,5.97.13,13.9,10.48,25.76,25.22,30.89,3.46,1.2,7.04,2,10.69,2.4,1.89.21,3.79.31,5.69.31h.45c23.05-.21,41.6-15.6,41.43-34.36-.02-2-.25-4-.7-5.95-.03-.13-.06-.27-.09-.4,2.37-.74,4.81-2.39,7.13-5.37,5.68-7.32,3.66-18.98-3.45-21.66Zm-82.67,3.69c-.8,3.04-1.2,6.16-1.18,9.3v.65c.09,3.8-.35,7.57-1.16,11.28-1.75-.6-3.57-1.85-5.3-4.01-4.58-5.68-3.15-14.89,2.4-17.1,2.1-.84,3.87-.68,5.25-.16,0,.01,0,.02-.01.03Zm67.18,18.79c-.3.67-.65,1.32-1.03,1.94-1.62,2.59-2.04,5.78-1.03,8.67.76,2.18,1.45,4.65,1.47,6.49.12,13.46-12.53,24.49-28.26,24.63-15.73.14-28.59-10.65-28.71-24.11-.02-1.84.63-4.32,1.35-6.51.96-2.91.48-6.1-1.19-8.65-.4-.62-.76-1.26-1.07-1.92-.95-2.02-1.45-4.22-1.47-6.45-.08-8.94,7.46-16.25,16.85-16.34,3.03-.04,6.02.71,8.68,2.18,3.12,1.73,6.91,1.7,10-.09,2.63-1.51,5.6-2.31,8.64-2.33,9.39-.09,17.06,7.09,17.15,16.03.02,2.23-.44,4.44-1.35,6.48Zm16.3-2.39c-1.7,2.19-3.49,3.46-5.23,4.1-.88-3.69-1.39-7.46-1.37-11.25v-.65c-.05-3.15-.51-6.28-1.37-9.32,1.38-.55,3.14-.74,5.25.06,5.59,2.12,7.18,11.29,2.71,17.06h0Z"/>
            <rect class="cls-13" x="259.69" y="110.11" width="2.74" height="6.22" rx="1.37" ry="1.37" transform="translate(51.35 305.55) rotate(-65.97)"/>
            <rect class="cls-13" x="266.48" y="111.78" width="6.22" height="2.74" rx="1.37" ry="1.37" transform="translate(-22.55 124.89) rotate(-25.07)"/>
            <path class="cls-13" d="m250.6,104.05h0c-2.69.02-4.9-2.03-4.92-4.58v-1.54c-.04-2.55,2.13-4.64,4.82-4.67h0c2.69-.02,4.9,2.03,4.92,4.58v1.54c.04,2.55-2.13,4.64-4.82,4.67Z"/>
            <path class="cls-15" d="m250.5,93.27l.05,5.39c.01,1.28,1.11,2.3,2.46,2.29,1.35-.01,2.43-1.06,2.42-2.33v-.77c-.03-2.55-2.23-4.6-4.93-4.58Z"/>
            <ellipse class="cls-1" cx="250.5" cy="97.08" rx="1.63" ry="1.54" transform="translate(-.87 2.28) rotate(-.52)"/>
            <path class="cls-13" d="m279.87,103.79h0c-2.69.02-4.9-2.03-4.92-4.58v-1.54c-.04-2.55,2.13-4.64,4.82-4.67h0c2.7-.02,4.9,2.03,4.92,4.58v1.54c.04,2.55-2.13,4.64-4.82,4.67Z"/>
            <path class="cls-15" d="m279.78,93l.05,5.39c.01,1.28,1.11,2.3,2.46,2.29s2.43-1.06,2.42-2.33v-.77c-.03-2.55-2.23-4.6-4.93-4.58Z"/>
            <ellipse class="cls-1" cx="279.78" cy="96.82" rx="1.63" ry="1.54" transform="translate(-.87 2.55) rotate(-.52)"/>
            <path class="cls-11" d="m265.17,48.96c-1.09-.1-3.47,1.64-6.3,4.65-.71.75-1.44,1.58-2.2,2.48-5.55,6.63-11.95,17.06-14.09,27.73-3.58,17.9-4.91,38.65,1.79,50.09,5.68,9.7,15.12,14.72,15.12,14.72-3.64-.4-7.23-1.2-10.69-2.4-14.73-5.12-25.09-16.98-25.22-30.88-.02-2,.18-4,.59-5.97.03-.13.06-.27.09-.4-2.38-.7-4.86-2.3-7.23-5.24-5.81-7.22-4-18.92,3.06-21.73,3.21-1.28,5.81-.72,7.69.26.08.04.16.09.24.13.45-1.36.96-2.69,1.55-3.99.43-.96.89-1.9,1.39-2.82,5.07-9.48,13.67-17.4,23.59-20.8.46-.94,3.4-6.41,9.38-6.95.31-.03.62-.04.94-.04l.29,1.17Z"/>
        </g>
        <g>
            <g>
                <g>
                    <circle class="cls-17" cx="232.72" cy="150.2" r="10.15"/>
                    <circle class="cls-2" cx="232.72" cy="150.2" r="7.52"/>
                </g>
                <g>
                    <circle class="cls-17" cx="247.94" cy="151.11" r="10.15"/>
                    <circle class="cls-2" cx="247.94" cy="151.11" r="7.52"/>
                </g>
                <path class="cls-14" d="m222.76,186.77l41.93-3.75c1.7-.15,2.96-1.65,2.8-3.36l-2.59-28.89c-.15-1.7-1.65-2.96-3.36-2.8l-41.93,3.75c-1.7.15-2.96,1.65-2.8,3.36l2.59,28.89c.15,1.7,1.65,2.96,3.36,2.8Z"/>
                <g>
                    <rect class="cls-7" x="261.22" y="179.17" width="2.4" height="1.92" transform="translate(-15.02 24.12) rotate(-5.12)"/>
                    <path class="cls-7" d="m230.67,182.01l5.08-.45.17,1.91-5.08.45-.17-1.91Zm10.16-.91l5.08-.45.17,1.91-5.08.45-.17-1.91Zm10.16-.91l5.08-.45.17,1.91-5.08.45-.17-1.91Z"/>
                    <rect class="cls-7" x="223.28" y="182.56" width="2.4" height="1.92" transform="translate(-15.47 20.75) rotate(-5.12)"/>
                </g>
                <path class="cls-7" d="m236.65,173.27l-18.51,1.66c-.59.05-1.11-.38-1.17-.97l-.86-9.63c-.05-.59.38-1.11.97-1.17l18.51-1.66c1.78-.16,3.35,1.16,3.51,2.93l.48,5.33c.16,1.77-1.16,3.35-2.93,3.5Z"/>
                <circle class="cls-21" cx="233.31" cy="167.54" r="3.82"/>
                <g>
                    <rect class="cls-7" x="258.65" y="150.51" width="2.4" height="1.92" transform="translate(-12.47 23.77) rotate(-5.12)"/>
                    <path class="cls-7" d="m228.1,153.35l5.08-.45.17,1.91-5.08.45-.17-1.91Zm10.16-.91l5.08-.45.17,1.91-5.08.45-.17-1.91Zm10.16-.91l5.08-.45.17,1.91-5.08.45-.17-1.91Z"/>
                    <rect class="cls-7" x="220.71" y="153.9" width="2.4" height="1.92" transform="translate(-12.92 20.4) rotate(-5.12)"/>
                </g>
            </g>
            <path class="cls-8" d="m241.16,185.21s-9.83-8.05-10.76-8.5-2.61,1.42-1.63,5.07,4.54,5.21,6.11,6.93c1.57,1.73,3.92,6.08,5.61,1.54s.67-5.04.67-5.04Z"/>
            <path class="cls-8" d="m242.69,207.53s-5.76-4.87-6.52-6.63-.11-4.12-.11-4.12l2.11.86,4.52,9.89Z"/>
            <path class="cls-8" d="m237.76,198.14s-3.03-.87-3.44-3.42-.4-4.22.36-5.04,2.75,1.03,2.75,1.03l.32,7.42Z"/>
            <path class="cls-22" d="m274.22,196.02s-.02-.19-.05-.44c-.22-1.73-1.28-7.96-6.03-10.46-5.43-2.86-10.18-3.79-12.38-4.3s-19.08-7.49-19.08-7.49l-3.4-1.77s-2.52-.89-3.46.81,1.22,4.2,2.88,5.73,6.11,4.79,6.49,6.11-2.24,5.01-2.31,5.94-.14,13.38,7.01,18.36c7.16,4.98,19.78,7.53,19.78,7.53,0,0,12.09-3.59,11.84-10.42-.25-6.83-1.29-9.6-1.29-9.6Z"/>
        </g>
        <path class="cls-4" d="m273.88,191.25c-1.84.48-4.72,1.82-8.17,7.44-3.45,5.62-7.69,14.22-7.85,16.97,5.59,3.28,24.9,16.6,32.61,22.56,7.71,5.96,14.1,11.06,21.54,12.07,7.44,1,21.03,9.9,26.8,11.49,5.77,1.59,8.3,1.6,11.55-2.47,3.26-4.07,3.52-16.02,2.92-18.27-.6-2.25-1.46-11.98-6.68-16.18-5.22-4.2-18.68-9.17-27.94-13.31-9.26-4.13-20.51-6.31-26.64-10.2s-18.14-10.09-18.14-10.09Z"/>
    </g>
</svg>