<?xml version="1.0" encoding="UTF-8"?>
<!DOCTYPE svg PUBLIC "-//W3C//DTD SVG 1.1//EN" "http://www.w3.org/Graphics/SVG/1.1/DTD/svg11.dtd">
<svg xmlns="http://www.w3.org/2000/svg" version="1.1" width="500px" height="500px" style="shape-rendering:geometricPrecision; text-rendering:geometricPrecision; image-rendering:optimizeQuality; fill-rule:evenodd; clip-rule:evenodd" xmlns:xlink="http://www.w3.org/1999/xlink">
<g><path style="opacity:1" fill="#fefefe" d="M -0.5,-0.5 C 166.167,-0.5 332.833,-0.5 499.5,-0.5C 499.5,166.167 499.5,332.833 499.5,499.5C 332.833,499.5 166.167,499.5 -0.5,499.5C -0.5,332.833 -0.5,166.167 -0.5,-0.5 Z"/></g>
<g><path style="opacity:1" fill="#171e43" d="M 230.5,4.5 C 321.235,0.959492 394.068,34.9595 449,106.5C 493.39,171.504 505.39,242.17 485,318.5C 462.552,390.56 417.052,442.393 348.5,474C 283.304,500.922 217.971,501.255 152.5,475C 64.9993,433.793 15.8326,364.959 5,268.5C 0.448727,183.79 30.2821,113.956 94.5,59C 134.402,27.4184 179.736,9.25168 230.5,4.5 Z"/></g>
<g><path style="opacity:1" fill="#52cac7" d="M 401.5,169.5 C 405.952,182.456 407.452,195.789 406,209.5C 405.167,210.333 404.333,211.167 403.5,212C 325.167,212.667 246.833,212.667 168.5,212C 167.619,211.292 166.953,210.458 166.5,209.5C 166.358,201.792 166.858,194.125 168,186.5C 168.249,187.624 168.749,188.624 169.5,189.5C 181.264,136.566 213.598,103.399 266.5,90C 318.223,84.1682 358.723,103.335 388,147.5C 391.442,154.717 394.609,162.05 397.5,169.5C 398.864,169.378 400.197,169.378 401.5,169.5 Z"/></g>
<g><path style="opacity:1" fill="#4ebfbf" d="M 401.5,169.5 C 400.197,169.378 398.864,169.378 397.5,169.5C 394.609,162.05 391.442,154.717 388,147.5C 358.723,103.335 318.223,84.1682 266.5,90C 213.598,103.399 181.264,136.566 169.5,189.5C 168.749,188.624 168.249,187.624 168,186.5C 166.858,194.125 166.358,201.792 166.5,209.5C 165.227,174.191 177.227,144.024 202.5,119C 241.971,84.3099 286.304,76.6432 335.5,96C 367.895,111.225 389.895,135.725 401.5,169.5 Z"/></g>
<g><path style="opacity:1" fill="#d41477" d="M 117.5,233.5 C 127.876,233.769 130.543,238.269 125.5,247C 117.447,249.951 113.613,247.118 114,238.5C 114.997,236.677 116.164,235.01 117.5,233.5 Z"/></g>
<g><path style="opacity:1" fill="#dc1479" d="M 144.5,233.5 C 238.834,233.333 333.167,233.5 427.5,234C 431.518,234.681 433.184,237.014 432.5,241C 433.192,244.532 431.859,246.865 428.5,248C 333.5,248.667 238.5,248.667 143.5,248C 138.003,242.683 138.336,237.85 144.5,233.5 Z"/></g>
<g><path style="opacity:1" fill="#d61477" d="M 60.5,267.5 C 68.7942,266.036 72.2942,269.37 71,277.5C 67.4321,281.938 63.2654,282.605 58.5,279.5C 55.4543,274.741 56.121,270.741 60.5,267.5 Z"/></g>
<g><path style="opacity:1" fill="#d91478" d="M 88.5,266.5 C 157.834,266.333 227.167,266.5 296.5,267C 301.143,269.072 302.643,272.572 301,277.5C 300.167,279 299,280.167 297.5,281C 227.167,281.667 156.833,281.667 86.5,281C 82.0019,275.32 82.6686,270.487 88.5,266.5 Z"/></g>
<g><path style="opacity:1" fill="#d31476" d="M 117.5,300.5 C 129.538,301.192 131.538,306.026 123.5,315C 115.841,315.671 112.674,312.171 114,304.5C 114.69,302.65 115.856,301.316 117.5,300.5 Z"/></g>
<g><path style="opacity:1" fill="#da1479" d="M 143.5,300.5 C 227.834,300.333 312.167,300.5 396.5,301C 402.008,305.985 401.675,310.652 395.5,315C 311.833,315.667 228.167,315.667 144.5,315C 138.27,310.485 137.937,305.652 143.5,300.5 Z"/></g>
<g><path style="opacity:1" fill="#d61477" d="M 75.5,333.5 C 83.7593,332.864 86.9259,336.53 85,344.5C 80.7139,349.815 76.3806,349.815 72,344.5C 70.6628,339.916 71.8295,336.249 75.5,333.5 Z"/></g>
<g><path style="opacity:1" fill="#db1479" d="M 101.5,333.5 C 135.835,333.333 170.168,333.5 204.5,334C 209.626,336.553 210.793,340.386 208,345.5C 206.829,346.893 205.329,347.727 203.5,348C 169.833,348.667 136.167,348.667 102.5,348C 96.2917,343.58 95.9583,338.747 101.5,333.5 Z"/></g>
<g><path style="opacity:1" fill="#db1479" d="M 228.5,333.5 C 298.167,333.333 367.834,333.5 437.5,334C 442.626,336.553 443.793,340.386 441,345.5C 440.097,346.701 438.931,347.535 437.5,348C 367.833,348.667 298.167,348.667 228.5,348C 223.174,342.999 223.174,338.165 228.5,333.5 Z"/></g>
<g><path style="opacity:1" fill="#d41477" d="M 242.5,366.5 C 248.377,366.035 252.044,368.701 253.5,374.5C 252.006,380.25 248.339,382.416 242.5,381C 237.203,376.215 237.203,371.382 242.5,366.5 Z"/></g>
<g><path style="opacity:1" fill="#da1478" d="M 269.5,366.5 C 313.168,366.333 356.835,366.5 400.5,367C 405.833,371.667 405.833,376.333 400.5,381C 356.5,381.667 312.5,381.667 268.5,381C 263.003,375.683 263.336,370.85 269.5,366.5 Z"/></g>
<g><path style="opacity:1" fill="#d71478" d="M 164.5,400.5 C 172.167,399.024 176,402.024 176,409.5C 173.928,414.143 170.428,415.643 165.5,414C 160.519,409.92 160.186,405.42 164.5,400.5 Z"/></g>
<g><path style="opacity:1" fill="#df137a" d="M 191.5,400.5 C 235.835,400.333 280.168,400.5 324.5,401C 327.394,403.909 328.227,407.409 327,411.5C 326.097,412.701 324.931,413.535 323.5,414C 279.5,414.667 235.5,414.667 191.5,414C 186.193,409.375 186.193,404.875 191.5,400.5 Z"/></g>
</svg>
