<?xml version="1.0" encoding="UTF-8"?>
<!DOCTYPE svg PUBLIC "-//W3C//DTD SVG 1.1//EN" "http://www.w3.org/Graphics/SVG/1.1/DTD/svg11.dtd">
<svg xmlns="http://www.w3.org/2000/svg" version="1.1" width="225px" height="225px" style="shape-rendering:geometricPrecision; text-rendering:geometricPrecision; image-rendering:optimizeQuality; fill-rule:evenodd; clip-rule:evenodd" xmlns:xlink="http://www.w3.org/1999/xlink">
<g><path style="opacity:1" fill="#fefefd" d="M -0.5,-0.5 C 33.1667,-0.5 66.8333,-0.5 100.5,-0.5C 50.9634,7.52504 18.4634,35.525 3,83.5C 1.77296,89.9616 0.606297,96.2949 -0.5,102.5C -0.5,68.1667 -0.5,33.8333 -0.5,-0.5 Z"/></g>
<g><path style="opacity:1" fill="#70d44b" d="M 100.5,-0.5 C 107.167,-0.5 113.833,-0.5 120.5,-0.5C 178.369,8.10491 213.036,41.1049 224.5,98.5C 224.5,106.167 224.5,113.833 224.5,121.5C 217.25,172.59 188.917,205.756 139.5,221C 133.028,222.187 126.694,223.354 120.5,224.5C 113.833,224.5 107.167,224.5 100.5,224.5C 50.4716,216.307 17.9716,187.973 3,139.5C 1.70294,132.711 0.536274,126.044 -0.5,119.5C -0.5,113.833 -0.5,108.167 -0.5,102.5C 0.606297,96.2949 1.77296,89.9616 3,83.5C 18.4634,35.525 50.9634,7.52504 100.5,-0.5 Z"/></g>
<g><path style="opacity:1" fill="#fefefd" d="M 120.5,-0.5 C 155.167,-0.5 189.833,-0.5 224.5,-0.5C 224.5,32.5 224.5,65.5 224.5,98.5C 213.036,41.1049 178.369,8.10491 120.5,-0.5 Z"/></g>
<g><path style="opacity:1" fill="#fbfdfa" d="M 106.5,34.5 C 116.497,33.4424 124.997,36.4424 132,43.5C 148.511,74.521 164.511,105.854 180,137.5C 185.825,155.988 179.658,168.488 161.5,175C 128.5,175.667 95.5,175.667 62.5,175C 47.2556,170.018 40.4222,159.518 42,143.5C 57.0751,111.347 72.7418,79.3474 89,47.5C 93.6035,41.3812 99.4368,37.0478 106.5,34.5 Z"/></g>
<g><path style="opacity:1" fill="#6fd34a" d="M 107.5,45.5 C 114.663,44.608 120.497,46.9413 125,52.5C 140.333,83.1667 155.667,113.833 171,144.5C 172.592,152.733 169.758,158.899 162.5,163C 129.548,164.638 96.5476,164.971 63.5,164C 54.8817,160.264 51.3817,153.764 53,144.5C 68.3333,113.833 83.6667,83.1667 99,52.5C 101.416,49.5766 104.25,47.2433 107.5,45.5 Z"/></g>
<g><path style="opacity:1" fill="#fefefd" d="M -0.5,119.5 C 0.536274,126.044 1.70294,132.711 3,139.5C 17.9716,187.973 50.4716,216.307 100.5,224.5C 66.8333,224.5 33.1667,224.5 -0.5,224.5C -0.5,189.5 -0.5,154.5 -0.5,119.5 Z"/></g>
<g><path style="opacity:1" fill="#fdfefd" d="M 224.5,121.5 C 224.5,155.833 224.5,190.167 224.5,224.5C 189.833,224.5 155.167,224.5 120.5,224.5C 126.694,223.354 133.028,222.187 139.5,221C 188.917,205.756 217.25,172.59 224.5,121.5 Z"/></g>
</svg>
