<?xml version="1.0" encoding="UTF-8"?>
<!DOCTYPE svg PUBLIC "-//W3C//DTD SVG 1.1//EN" "http://www.w3.org/Graphics/SVG/1.1/DTD/svg11.dtd">
<svg xmlns="http://www.w3.org/2000/svg" version="1.1" width="225px" height="225px" style="shape-rendering:geometricPrecision; text-rendering:geometricPrecision; image-rendering:optimizeQuality; fill-rule:evenodd; clip-rule:evenodd" xmlns:xlink="http://www.w3.org/1999/xlink">
<g><path style="opacity:1" fill="#fffdfd" d="M -0.5,-0.5 C 32.8333,-0.5 66.1667,-0.5 99.5,-0.5C 55.7222,6.76825 24.8889,30.7683 7,71.5C 3.5287,81.3897 1.0287,91.3897 -0.5,101.5C -0.5,67.5 -0.5,33.5 -0.5,-0.5 Z"/></g>
<g><path style="opacity:1" fill="#ff433d" d="M 99.5,-0.5 C 105.833,-0.5 112.167,-0.5 118.5,-0.5C 170.639,5.34802 204.805,33.348 221,83.5C 222.002,89.6717 223.168,95.6717 224.5,101.5C 224.5,107.167 224.5,112.833 224.5,118.5C 219.021,167.824 193.021,201.324 146.5,219C 137.171,221.606 127.838,223.44 118.5,224.5C 112.167,224.5 105.833,224.5 99.5,224.5C 54.5547,216.766 23.388,191.766 6,149.5C 2.74189,139.249 0.575227,128.916 -0.5,118.5C -0.5,112.833 -0.5,107.167 -0.5,101.5C 1.0287,91.3897 3.5287,81.3897 7,71.5C 24.8889,30.7683 55.7222,6.76825 99.5,-0.5 Z"/></g>
<g><path style="opacity:1" fill="#fffdfd" d="M 118.5,-0.5 C 153.833,-0.5 189.167,-0.5 224.5,-0.5C 224.5,33.5 224.5,67.5 224.5,101.5C 223.168,95.6717 222.002,89.6717 221,83.5C 204.805,33.348 170.639,5.34802 118.5,-0.5 Z"/></g>
<g><path style="opacity:1" fill="#ffaaa8" d="M 144.5,47.5 C 153.675,46.1778 163.008,46.1778 172.5,47.5C 172.376,48.1067 172.043,48.44 171.5,48.5C 162.682,47.5067 153.682,47.1734 144.5,47.5 Z"/></g>
<g><path style="opacity:1" fill="#fffefe" d="M 59.5,47.5 C 66.8333,47.5 74.1667,47.5 81.5,47.5C 81.5,90.5 81.5,133.5 81.5,176.5C 74.1667,176.5 66.8333,176.5 59.5,176.5C 59.5,133.5 59.5,90.5 59.5,47.5 Z"/></g>
<g><path style="opacity:1" fill="#fffdfd" d="M 144.5,47.5 C 153.682,47.1734 162.682,47.5067 171.5,48.5C 155.63,69.7265 139.63,90.8932 123.5,112C 139.63,133.107 155.63,154.273 171.5,175.5C 162.682,176.493 153.682,176.827 144.5,176.5C 127.315,155.472 110.648,133.972 94.5,112C 110.648,90.0284 127.315,68.5284 144.5,47.5 Z"/></g>
<g><path style="opacity:1" fill="#ffcdcc" d="M 59.5,47.5 C 66.9818,46.508 74.6484,46.1746 82.5,46.5C 82.5,90.1667 82.5,133.833 82.5,177.5C 74.6484,177.825 66.9818,177.492 59.5,176.5C 66.8333,176.5 74.1667,176.5 81.5,176.5C 81.5,133.5 81.5,90.5 81.5,47.5C 74.1667,47.5 66.8333,47.5 59.5,47.5 Z"/></g>
<g><path style="opacity:1" fill="#fffdfd" d="M -0.5,118.5 C 0.575227,128.916 2.74189,139.249 6,149.5C 23.388,191.766 54.5547,216.766 99.5,224.5C 66.1667,224.5 32.8333,224.5 -0.5,224.5C -0.5,189.167 -0.5,153.833 -0.5,118.5 Z"/></g>
<g><path style="opacity:1" fill="#fffdfd" d="M 224.5,118.5 C 224.5,153.833 224.5,189.167 224.5,224.5C 189.167,224.5 153.833,224.5 118.5,224.5C 127.838,223.44 137.171,221.606 146.5,219C 193.021,201.324 219.021,167.824 224.5,118.5 Z"/></g>
<g><path style="opacity:1" fill="#ffaaa8" d="M 171.5,175.5 C 172.043,175.56 172.376,175.893 172.5,176.5C 163.008,177.822 153.675,177.822 144.5,176.5C 153.682,176.827 162.682,176.493 171.5,175.5 Z"/></g>
</svg>
