<?xml version="1.0" encoding="UTF-8"?>
<!DOCTYPE svg PUBLIC "-//W3C//DTD SVG 1.1//EN" "http://www.w3.org/Graphics/SVG/1.1/DTD/svg11.dtd">
<svg xmlns="http://www.w3.org/2000/svg" version="1.1" width="240px" height="240px" style="shape-rendering:geometricPrecision; text-rendering:geometricPrecision; image-rendering:optimizeQuality; fill-rule:evenodd; clip-rule:evenodd" xmlns:xlink="http://www.w3.org/1999/xlink">
<g><path style="opacity:0.988" fill="#010000" d="M 104.5,-0.5 C 114.5,-0.5 124.5,-0.5 134.5,-0.5C 193.167,10.8333 228.167,45.8333 239.5,104.5C 239.5,114.5 239.5,124.5 239.5,134.5C 228.167,193.167 193.167,228.167 134.5,239.5C 124.5,239.5 114.5,239.5 104.5,239.5C 45.8333,228.167 10.8333,193.167 -0.5,134.5C -0.5,124.5 -0.5,114.5 -0.5,104.5C 10.8333,45.8333 45.8333,10.8333 104.5,-0.5 Z"/></g>
<g><path style="opacity:1" fill="#eb7f1f" d="M 75.5,61.5 C 81.8333,61.5 88.1667,61.5 94.5,61.5C 80.7759,99.8362 66.9426,138.169 53,176.5C 46.5562,177.81 40.0562,177.81 33.5,176.5C 47.5086,138.138 61.5086,99.8049 75.5,61.5 Z"/></g>
<g><path style="opacity:1" fill="#eb801f" d="M 101.5,61.5 C 107.842,61.3338 114.175,61.5005 120.5,62C 135.583,100.082 149.583,138.582 162.5,177.5C 156.132,177.83 149.798,177.496 143.5,176.5C 132.952,147.35 122.118,118.35 111,89.5C 99.8817,118.35 89.0483,147.35 78.5,176.5C 72.2015,177.496 65.8682,177.83 59.5,177.5C 72.9072,138.611 86.9072,99.9444 101.5,61.5 Z"/></g>
<g><path style="opacity:1" fill="#ea7f1f" d="M 160.5,61.5 C 166.833,61.5 173.167,61.5 179.5,61.5C 171.354,84.4685 163.187,107.469 155,130.5C 154.586,130.957 154.086,131.291 153.5,131.5C 149.615,123.68 146.615,115.513 144.5,107C 149.339,91.6488 154.672,76.4822 160.5,61.5 Z"/></g>
<g><path style="opacity:1" fill="#ea7f1f" d="M 186.5,61.5 C 192.868,61.1703 199.202,61.5037 205.5,62.5C 192.883,97.3552 179.883,132.022 166.5,166.5C 162.67,158.823 159.336,150.823 156.5,142.5C 166.238,115.366 176.238,88.3655 186.5,61.5 Z"/></g>
<g><path style="opacity:1" fill="#ea7f1f" d="M 110.5,107.5 C 111.458,107.953 112.292,108.619 113,109.5C 121.547,131.976 129.38,154.643 136.5,177.5C 130.491,177.666 124.491,177.499 118.5,177C 112.701,161.898 107.034,146.731 101.5,131.5C 104.114,123.322 107.114,115.322 110.5,107.5 Z"/></g>
</svg>
