<svg xmlns="http://www.w3.org/2000/svg" xmlns:xlink="http://www.w3.org/1999/xlink" viewBox="0 0 230 305"><defs><style>.cls-1{fill:none;}.cls-2{clip-path:url(#clip-path);}.cls-3{fill:#b8b3b3;}.cls-4{fill:url(#Naamloos_verloop_121);}.cls-5{fill:url(#Naamloos_verloop_122);}.cls-10,.cls-6,.cls-7,.cls-8,.cls-9{opacity:0.5;}.cls-6{fill:url(#Naamloos_verloop_122-2);}.cls-7{fill:url(#Naamloos_verloop_122-3);}.cls-8{fill:url(#Naamloos_verloop_122-4);}.cls-9{fill:url(#Naamloos_verloop_122-5);}.cls-10{fill:url(#Naamloos_verloop_122-6);}.cls-11{fill:url(#Naamloos_verloop_26);}.cls-12{fill:url(#Naamloos_verloop_22);}.cls-13{fill:url(#Naamloos_verloop_76);}.cls-14{fill:#dedfe2;}.cls-15{fill:#c4c5c6;}.cls-16{fill:url(#Naamloos_verloop_71);}.cls-17{fill:url(#Naamloos_verloop_71-2);}.cls-18{fill:url(#Naamloos_verloop_71-3);}.cls-19{fill:url(#Naamloos_verloop_4);}.cls-20{fill:url(#Naamloos_verloop_71-4);}.cls-21{fill:url(#Naamloos_verloop_71-5);}.cls-22{fill:url(#Naamloos_verloop_71-6);}.cls-23{fill:url(#Naamloos_verloop_5);}.cls-24{fill:url(#Naamloos_verloop_5-2);}.cls-25{fill:url(#Naamloos_verloop_5-3);}.cls-26{fill:url(#Naamloos_verloop_5-4);}.cls-27{fill:url(#Naamloos_verloop_5-5);}.cls-28{fill:url(#Naamloos_verloop_5-6);}.cls-29{fill:url(#Naamloos_verloop_5-7);}.cls-30{fill:url(#Naamloos_verloop_5-8);}.cls-31{fill:url(#Naamloos_verloop_5-9);}.cls-32{fill:url(#Naamloos_verloop_5-10);}.cls-33{fill:url(#Naamloos_verloop_5-11);}.cls-34{fill:url(#Naamloos_verloop_5-12);}.cls-35{fill:url(#Naamloos_verloop_5-13);}.cls-36{fill:url(#Naamloos_verloop_5-14);}.cls-37{fill:url(#Naamloos_verloop_5-15);}.cls-38{fill:url(#Naamloos_verloop_5-16);}.cls-39{fill:url(#Naamloos_verloop_71-7);}.cls-40{fill:#fff;opacity:0.06;}.cls-41{fill:url(#Naamloos_verloop_10);}.cls-42{fill:url(#Naamloos_verloop_10-2);}.cls-43{fill:url(#Naamloos_verloop_10-3);}.cls-44{fill:url(#Naamloos_verloop_10-4);}.cls-45{fill:url(#Naamloos_verloop_10-5);}.cls-46{fill:url(#Naamloos_verloop_10-6);}.cls-47{fill:url(#Naamloos_verloop_10-7);}.cls-48{fill:url(#Naamloos_verloop_10-8);}.cls-49{fill:url(#Naamloos_verloop_10-9);}.cls-50{fill:url(#Naamloos_verloop_10-10);}.cls-51{fill:url(#Naamloos_verloop_10-11);}.cls-52{fill:url(#Naamloos_verloop_10-12);}.cls-53{fill:url(#Naamloos_verloop_10-13);}.cls-54{fill:url(#Naamloos_verloop_10-14);}.cls-55{fill:url(#Naamloos_verloop_10-15);}.cls-56{fill:url(#Naamloos_verloop_10-16);}.cls-57{fill:url(#Naamloos_verloop_10-17);}.cls-58{fill:url(#Naamloos_verloop_10-18);}.cls-59{fill:url(#Naamloos_verloop_3);}.cls-60{fill:url(#Naamloos_verloop_18);}.cls-61{fill:url(#Naamloos_verloop_34);}</style><clipPath id="clip-path"><path class="cls-1" d="M42,0H230V253H62a20,20,0,0,1-20-20Z"/></clipPath><linearGradient id="Naamloos_verloop_121" x1="123.62" y1="258.47" x2="122.07" y2="-6.35" gradientUnits="userSpaceOnUse"><stop offset="0" stop-color="#4595c9"/><stop offset="1" stop-color="#a2ffff"/></linearGradient><linearGradient id="Naamloos_verloop_122" x1="32.96" y1="75.11" x2="3.71" y2="-16.01" gradientUnits="userSpaceOnUse"><stop offset="0" stop-color="#e6e6e6"/><stop offset="0.11" stop-color="#e9e9e9" stop-opacity="0.83"/><stop offset="0.26" stop-color="#ebebeb" stop-opacity="0.64"/><stop offset="0.41" stop-color="#eee" stop-opacity="0.48"/><stop offset="0.55" stop-color="#f0f0f0" stop-opacity="0.36"/><stop offset="0.7" stop-color="#f1f1f1" stop-opacity="0.27"/><stop offset="0.85" stop-color="#f2f2f2" stop-opacity="0.22"/><stop offset="1" stop-color="#f2f2f2" stop-opacity="0.2"/></linearGradient><linearGradient id="Naamloos_verloop_122-2" x1="235.8" y1="100.09" x2="198.72" y2="-15.41" xlink:href="#Naamloos_verloop_122"/><linearGradient id="Naamloos_verloop_122-3" x1="105.29" y1="119.61" x2="95.55" y2="72.8" xlink:href="#Naamloos_verloop_122"/><linearGradient id="Naamloos_verloop_122-4" x1="69.5" y1="139.6" x2="59.68" y2="92.43" xlink:href="#Naamloos_verloop_122"/><linearGradient id="Naamloos_verloop_122-5" x1="215.18" y1="61.23" x2="174.49" y2="-65.56" xlink:href="#Naamloos_verloop_122"/><linearGradient id="Naamloos_verloop_122-6" x1="204.31" y1="155.25" x2="192.83" y2="100.12" xlink:href="#Naamloos_verloop_122"/><linearGradient id="Naamloos_verloop_26" x1="123.3" y1="216.39" x2="122.24" y2="154.27" gradientUnits="userSpaceOnUse"><stop offset="0" stop-color="#66b88c"/><stop offset="0.7" stop-color="#52ab7c"/></linearGradient><linearGradient id="Naamloos_verloop_22" x1="123.32" y1="244.09" x2="122.38" y2="189.15" gradientUnits="userSpaceOnUse"><stop offset="0" stop-color="#3b9a77"/><stop offset="0.67" stop-color="#407e51"/></linearGradient><linearGradient id="Naamloos_verloop_76" x1="82.8" y1="166.06" x2="160.99" y2="166.06" gradientUnits="userSpaceOnUse"><stop offset="0" stop-color="#ffcd38"/><stop offset="1" stop-color="#ffd54f"/></linearGradient><linearGradient id="Naamloos_verloop_71" x1="147.7" y1="255.13" x2="129.66" y2="254.94" gradientUnits="userSpaceOnUse"><stop offset="0" stop-color="#ff9500"/><stop offset="1" stop-color="#ffbd00"/></linearGradient><linearGradient id="Naamloos_verloop_71-2" x1="152.53" y1="246.49" x2="122.72" y2="246.49" xlink:href="#Naamloos_verloop_71"/><linearGradient id="Naamloos_verloop_71-3" x1="152.84" y1="238.33" x2="127.78" y2="238.21" xlink:href="#Naamloos_verloop_71"/><linearGradient id="Naamloos_verloop_4" x1="151.44" y1="230.15" x2="137.11" y2="230.02" gradientUnits="userSpaceOnUse"><stop offset="0" stop-color="#ff9500"/><stop offset="0.23" stop-color="#ff9e00"/><stop offset="1" stop-color="#ffbd00"/></linearGradient><linearGradient id="Naamloos_verloop_71-4" x1="150.75" y1="221.81" x2="140.68" y2="221.71" xlink:href="#Naamloos_verloop_71"/><linearGradient id="Naamloos_verloop_71-5" x1="150.98" y1="214.05" x2="145.55" y2="213.91" xlink:href="#Naamloos_verloop_71"/><linearGradient id="Naamloos_verloop_71-6" x1="151.32" y1="205.26" x2="147.62" y2="205.22" xlink:href="#Naamloos_verloop_71"/><linearGradient id="Naamloos_verloop_5" x1="82.89" y1="196.49" x2="149.98" y2="196.49" gradientUnits="userSpaceOnUse"><stop offset="0" stop-color="#ffbd00"/><stop offset="1" stop-color="#ffbd00"/></linearGradient><linearGradient id="Naamloos_verloop_5-2" x1="83.18" y1="188.15" x2="149.98" y2="188.15" xlink:href="#Naamloos_verloop_5"/><linearGradient id="Naamloos_verloop_5-3" x1="83.69" y1="179.82" x2="149.98" y2="179.82" xlink:href="#Naamloos_verloop_5"/><linearGradient id="Naamloos_verloop_5-4" x1="84.42" y1="171.48" x2="149.98" y2="171.48" xlink:href="#Naamloos_verloop_5"/><linearGradient id="Naamloos_verloop_5-5" x1="85.39" y1="163.15" x2="149.98" y2="163.15" xlink:href="#Naamloos_verloop_5"/><linearGradient id="Naamloos_verloop_5-6" x1="86.61" y1="154.82" x2="149.98" y2="154.82" xlink:href="#Naamloos_verloop_5"/><linearGradient id="Naamloos_verloop_5-7" x1="88.08" y1="146.48" x2="149.98" y2="146.48" xlink:href="#Naamloos_verloop_5"/><linearGradient id="Naamloos_verloop_5-8" x1="89.82" y1="138.15" x2="149.98" y2="138.15" xlink:href="#Naamloos_verloop_5"/><linearGradient id="Naamloos_verloop_5-9" x1="91.85" y1="129.81" x2="149.98" y2="129.81" xlink:href="#Naamloos_verloop_5"/><linearGradient id="Naamloos_verloop_5-10" x1="94.17" y1="121.48" x2="149.98" y2="121.48" xlink:href="#Naamloos_verloop_5"/><linearGradient id="Naamloos_verloop_5-11" x1="96.81" y1="113.15" x2="149.98" y2="113.15" xlink:href="#Naamloos_verloop_5"/><linearGradient id="Naamloos_verloop_5-12" x1="99.78" y1="104.81" x2="149.98" y2="104.81" xlink:href="#Naamloos_verloop_5"/><linearGradient id="Naamloos_verloop_5-13" x1="103.12" y1="96.48" x2="149.98" y2="96.48" xlink:href="#Naamloos_verloop_5"/><linearGradient id="Naamloos_verloop_5-14" x1="106.84" y1="88.14" x2="149.98" y2="88.14" xlink:href="#Naamloos_verloop_5"/><linearGradient id="Naamloos_verloop_5-15" x1="110.97" y1="79.81" x2="149.98" y2="79.81" xlink:href="#Naamloos_verloop_5"/><linearGradient id="Naamloos_verloop_5-16" x1="115.55" y1="71.47" x2="149.98" y2="71.47" xlink:href="#Naamloos_verloop_5"/><linearGradient id="Naamloos_verloop_71-7" x1="139.53" y1="197.67" x2="160.99" y2="197.67" xlink:href="#Naamloos_verloop_71"/><linearGradient id="Naamloos_verloop_10" x1="104.99" y1="237.44" x2="112.72" y2="230.49" gradientUnits="userSpaceOnUse"><stop offset="0" stop-color="#21e6c1"/><stop offset="1" stop-color="#25f4cc"/></linearGradient><linearGradient id="Naamloos_verloop_10-2" x1="127.06" y1="227.91" x2="132.13" y2="223.37" xlink:href="#Naamloos_verloop_10"/><linearGradient id="Naamloos_verloop_10-3" x1="89.81" y1="220.77" x2="97.54" y2="213.82" xlink:href="#Naamloos_verloop_10"/><linearGradient id="Naamloos_verloop_10-4" x1="137.44" y1="219.58" x2="142.5" y2="215.03" xlink:href="#Naamloos_verloop_10"/><linearGradient id="Naamloos_verloop_10-5" x1="128.34" y1="204.1" x2="136.06" y2="197.16" xlink:href="#Naamloos_verloop_10"/><linearGradient id="Naamloos_verloop_10-6" x1="101.36" y1="171.86" x2="111.56" y2="162.7" xlink:href="#Naamloos_verloop_10"/><linearGradient id="Naamloos_verloop_10-7" x1="98.91" y1="194.58" x2="103.98" y2="190.03" xlink:href="#Naamloos_verloop_10"/><linearGradient id="Naamloos_verloop_10-8" x1="108.91" y1="194.58" x2="113.98" y2="190.03" xlink:href="#Naamloos_verloop_10"/><linearGradient id="Naamloos_verloop_10-9" x1="142.63" y1="186.24" x2="147.69" y2="181.69" xlink:href="#Naamloos_verloop_10"/><linearGradient id="Naamloos_verloop_10-10" x1="124.57" y1="112.42" x2="132.3" y2="105.48" xlink:href="#Naamloos_verloop_10"/><linearGradient id="Naamloos_verloop_10-11" x1="120.66" y1="80.28" x2="131.05" y2="70.94" xlink:href="#Naamloos_verloop_10"/><linearGradient id="Naamloos_verloop_10-12" x1="123.3" y1="144.57" x2="128.37" y2="140.02" xlink:href="#Naamloos_verloop_10"/><linearGradient id="Naamloos_verloop_10-13" x1="98.91" y1="144.57" x2="103.98" y2="140.02" xlink:href="#Naamloos_verloop_10"/><linearGradient id="Naamloos_verloop_10-14" x1="129.76" y1="154.09" x2="137.49" y2="147.15" xlink:href="#Naamloos_verloop_10"/><linearGradient id="Naamloos_verloop_10-15" x1="104.1" y1="127.9" x2="109.16" y2="123.36" xlink:href="#Naamloos_verloop_10"/><linearGradient id="Naamloos_verloop_10-16" x1="114.1" y1="127.9" x2="119.16" y2="123.36" xlink:href="#Naamloos_verloop_10"/><linearGradient id="Naamloos_verloop_10-17" x1="139.61" y1="94.57" x2="144.67" y2="90.02" xlink:href="#Naamloos_verloop_10"/><linearGradient id="Naamloos_verloop_10-18" x1="109.29" y1="102.9" x2="114.35" y2="98.35" xlink:href="#Naamloos_verloop_10"/><linearGradient id="Naamloos_verloop_3" x1="162.96" y1="37.59" x2="152.84" y2="18.84" gradientUnits="userSpaceOnUse"><stop offset="0" stop-color="#643601"/><stop offset="1" stop-color="#7d551f"/></linearGradient><linearGradient id="Naamloos_verloop_18" x1="128.6" y1="294.67" x2="127.28" y2="209.77" gradientUnits="userSpaceOnUse"><stop offset="0" stop-color="#1b4332"/><stop offset="1" stop-color="#1b5932"/></linearGradient><linearGradient id="Naamloos_verloop_34" x1="138.88" y1="248.38" x2="138.88" y2="269.13" gradientUnits="userSpaceOnUse"><stop offset="0" stop-color="#1b4f32"/><stop offset="0.13" stop-color="#1b4e32"/><stop offset="1" stop-color="#1b5932"/></linearGradient></defs><g id="bg"><g class="cls-2"><path class="cls-3" d="M42,0H230V253H62a20,20,0,0,1-20-20Z"/><rect class="cls-4" x="16" width="214" height="304"/><path class="cls-5" d="M69.06,13.29c0-.44,0-.88,0-1.33a22.82,22.82,0,0,0-22.23-22.8H.34A22.81,22.81,0,0,0-22.47,12v0A22.8,22.8,0,0,0-44.2,34.77,22.81,22.81,0,0,0-22.47,57.56v0A22.81,22.81,0,0,0,.34,80.4l26.53,0A22.8,22.8,0,0,0,49.1,57.59H62v0a22.8,22.8,0,0,0,7.07-44.28Z"/><path class="cls-6" d="M281.55,21.73q.06-.82.06-1.68a28.92,28.92,0,0,0-28.18-28.9h-59a28.91,28.91,0,0,0-28.91,28.91v0a28.91,28.91,0,0,0,0,57.76v0a28.91,28.91,0,0,0,28.91,28.92l33.63,0a28.92,28.92,0,0,0,28.18-28.9H272.6v0a28.91,28.91,0,0,0,8.95-56.13Z"/><path class="cls-7" d="M131.63,97.7a15.4,15.4,0,0,0-15-15.39H85.23a15.4,15.4,0,1,0,0,30.79h31.4A15.39,15.39,0,0,0,131.63,97.7Z"/><path class="cls-8" d="M107.51,117.52A12.57,12.57,0,0,0,95.27,105H34.87a12.57,12.57,0,0,0,0,25.14h60.4A12.56,12.56,0,0,0,107.51,117.52Z"/><path class="cls-9" d="M278.91-22.37c0-.56,0-1.12,0-1.68a28.91,28.91,0,0,0-28.17-28.9v0H152.51A28.92,28.92,0,0,0,123.59-24v0a28.91,28.91,0,0,0,0,57.76v0a28.91,28.91,0,0,0,28.92,28.91l33.63,0c.81,0,4.57,0,5.67,0l33.63,0a28.89,28.89,0,0,0,28.17-28.89H270v0a28.91,28.91,0,0,0,9-56.13Z"/><path class="cls-10" d="M246.8,129.44c0-8.37-7.11-15.17-16-15.38H167.45c-9,0-16.37,6.89-16.37,15.39s7.33,15.4,16.37,15.4h63.39C239.69,144.62,246.8,137.81,246.8,129.44Z"/><path class="cls-11" d="M16,152.81s3.75-.37,4.78.85c-.89-1.74-.94-5,1-4.5s1.5.46,1.5.46-1.08-1.82-.42-2.34,2.16-1.36,3,0,1.82,0,2-.67-.46-.69-.46-1.16,1-1.73,2.44-.61.23-.84.23-.84-1-1.73-.42-2.62a2.7,2.7,0,0,1,4.19.37c.67,1.63,1.17,2.87,1.79,2.5a2.62,2.62,0,0,1,3.26.63c.81,1.24-.07,2-.32,2.74s1.82,1.69,2.5,1.19,4.38.75,4.25,2.63.5,1.65.5,1.65,1.24-1,2.11-.63A1.76,1.76,0,0,1,48.3,155c-.52.58.14.28.56.37S51,156.8,50,157.55c-.73.65.44.61.7.51s3,1.15,1.41,3.47c-.75.56-.35,1.85,0,1.85s1.55.38,1.52,1.48a2.32,2.32,0,0,1-.72,1.62c0,.14-.69,1.4,1.31,1.4s4.81.24,5.37,1.06-.18,1.06,0,1.68,1.19.82,1.63.69,1.37-.25,1.66.31,1.4.66,1.34.41-.13-1.34,1.06-1.12,1.5,1.06,1.45,1.4.74.75,1,.53c0,0,1.83.22,2.33,1.54s-.44,1.5.5,1.31.69-.88,1.69-.88,3.44-.31,2.94.94-.68,2.37.06,2.25.25-.38.87-.38,1.07.13.94.69a.62.62,0,0,0,.32.75,1.18,1.18,0,0,0,1.18-.25,1.12,1.12,0,0,1,1.14-.36c.22.05.14.14.32.22s.1,0,.42.05.78.11.73.4.11.4.33.35.17-.41.72-.17a2.05,2.05,0,0,1,.7.48c.16.08.22.11.36,0a1.83,1.83,0,0,1,.89-.23c.27,0,.5,0,.63.23s.09.42.4.2.25-.57.69-.89.66-.19.77-.68-.28-.45,0-.8.57-.16.64-.54-.09-.84.3-1,1.17-.78,1.15-1.06a2.37,2.37,0,0,1,.28-1.24,1.61,1.61,0,0,0,.8-1.15c.23-.91.07-.94.37-1s.94-.66,1.2-.47.65.7.94.4,0-.35.42-.49a1.53,1.53,0,0,1,1.66.65c.18.45-.06.62-.07.8s-.08.29.2.35a.81.81,0,0,1,.53.49c.07.18-.15.62,0,.65s.19,0,.29-.11a.28.28,0,0,1,.48,0,.4.4,0,0,1,0,.51c-.1.13-.19.27,0,.24s.25-.26.34.1-.26.49-.19.87-.28.61.2.45,1.83,2.17,2.77,1.24.5-1.38,1.87-1.75,1.38.62,2.13-.82.56-1.68,1.5-2.06,1.06.63,1.81-.94,1.25-2.12,2.13-2.24,1.31.31,1.62-.57.78-1.47,1.41-1.47a1.11,1.11,0,0,1,1.12.5c.31.41.35.94.56.54s-.25-.22.22-.41a.68.68,0,0,1,.94.31c.19.31.5.6.78.41s1.45.46,1.49,1.21-.07,1.1-.35,1.19-.54.26-.35.36.47,0,.49.39-.07.57-.35.61-.66.43-.44.52.49-.07.39.3-.25.57-.39.59-.8.52-.4,1,.56.47,1.1.89,1,.63,1,1.29a3.31,3.31,0,0,1-.31,1.29c-.12.46,1,3.31,1.71,3.45s1,.67,2.06,0,.65-1.1,2.83-1.23a21.2,21.2,0,0,0,2.79-.26l1.19-2s1.06-1.19,2.06-1,1.56.5,2.06.19a8.82,8.82,0,0,0,1.26-1.12,4,4,0,0,1,2.43-.32c1.13.32,1.74,1.1,2,1s.5-.09.64-.43.17-.68.44-.77a1.33,1.33,0,0,1,1,.05.85.85,0,0,0,.73,0c.06-.05.23-.56.58-.6s.58.19.7,0-.2-.3-.41-.44-.29-.34-.1-.39.39.27.54-.06-.06-.33.22-.44a1.44,1.44,0,0,1,.77.06s0,.44.26.39,0-.14.44-.06,1.54.85,2.08.76.33-.19,1-.42a2.9,2.9,0,0,1,1.8,0c.54.14.28.32,1.15.42s.91-.42,1.19.21.64,1,.28,1.41a.83.83,0,0,0-.18.82s.44-.12.77.44.63.7.33,1.22-.56.73-.33.77.45.07.45.07a.65.65,0,0,1,0,.61c-.17.28-.1.78.28.52s.44-.92,1.08-1.15,1.07-.12.89.38-.78,1.17-.19.84.33-.59.77-.7.71-.07.49.44-.7,1-.49,1.09.42.39.21.58a.36.36,0,0,0,0,.55,1.86,1.86,0,0,0,1.46.45c.87-.11.64-.3,1.27-.7s.8-.72,1.45-.54.94,0,.89-.16-.68-.64-.35-.79.75-.28.89,0,.19.76.45.74.54-.61,1-.56.47.33.75.26.29-.22.36-.54-.07-.58.65-.53.85.57,1,.48.82-.52.79-.87a.8.8,0,0,1,.72-1c.72-.15.88.22,1.32.5a4.19,4.19,0,0,0,1.78.63c.5,0,.34.36.81-.32s.53-1,1.19-1a1.85,1.85,0,0,1,1,.31c.38.15.44.56.72,0s0-1.07.75-1.07a2.3,2.3,0,0,1,1.22.35s.33.8.89.64.85-.09.94-.42-.07-.28.05-.92-.05-1.08.44-.89.24.52.59.66.49.49.54.09,0-.7,0-.7a.71.71,0,0,1,.71-.52c.58,0,.76-.07,1,.21s.76.85,1.29-.23,0-1.88.52-3,2.3-.43,3-.1c0-.65-.42-1.19,0-1.94a1.16,1.16,0,0,1,1.73-.07,1.12,1.12,0,0,1,.49-1.53c.5-.14,1.34,0,1.41.8.21-1,.61-1.43,1.95-1.41,1.4.31,1.42,1.06,1.4,1.6.42.21.56-.14.68-.45a1.1,1.1,0,0,1,1.41-.75c.93.26,2.13,1.22,2.51,1a11,11,0,0,0,1.07-.79,2.93,2.93,0,0,1,2.67-.47c1,.47,1.69,1.92,2.72,1.64s2.39-.56,3-.05,1,1,.56,1.83c-.18.75.71,1.17.94.84s.56-1,1.27-1,1.26.71,1.12,1.08-.47,1.64-.14,1.41.47-.61.94-.57.7,1.27,1,1.18,1.27-.66,1.17-1.36-.62-1.83.49-1.92,1.15.74,1.43.84.51.14.56-.42.15-1.69,1-1.55a1.38,1.38,0,0,1,1.24,1.38c.21-.51.26-.82.91-.82s.87.85.87.85c.09-.68-.12-1.71.63-2.07a1.68,1.68,0,0,1,1.48.12c-.16-.59-.21-1.66.77-2a1.78,1.78,0,0,1,1.69.3s.33.52.45,0,.11-1.5.89-1.59,1.07.49,1.19.42a3.16,3.16,0,0,1,3.58-1.94v65.25H16Z"/><path class="cls-12" d="M229.47,194a6.47,6.47,0,0,0-1.88,1.5c-.7.66-.75.28-1.31-.14s-1-.42-2.58-.38c-1,0-1.45.12-1.73.48l-.51-2.85,1.46-.88,1,.11,1.49.16.25-1.59h-.46l-.41-1-1.74.68h0l1.09-1.52h.06l0,0v0h2.07l1.54-.25.91-.86-1.06-1.83-4.54.43,0,.47-.76-.25-2.53.41-2.22-.86-.9.6-.35,1.36,1.2.54.27.32-.59-.28-1.4-.5-.21.91-.31,0-.61.56-.14.77L214,191l1.89.18,1.36.29.17.53.46-.94,1.55.11a5.79,5.79,0,0,1,1.7,2.49l.37,3.09a1.28,1.28,0,0,1-1.39.47,3.45,3.45,0,0,0-.47-1.26c-.33-.42-.7-.28-1.25.05s-.81-.19-.9-.38.51-.52.84-1.08-.7-1-2-1.36-2,.52-3.07,1.08-1.33-.37-1.61-.84-1-.94-2.91-1.22-1.27.19-2.67.56-2.3-1.55-2.39-2.25-1.22-1.26-2.44-1-1.08,1.12-1.41,1.54-2.06.33-2.53,0,.05-1.5-.47-2.15-2-.42-2.67.56.42,1.08,0,2.48-1.36,1.46-1.87,1.88-2.11-.61-3.61-1.36-1.55-.19-2.53.75-.19.8-1,1.22-.7-1.27-2.22-1.59a2.51,2.51,0,0,0-.41-.07,2.67,2.67,0,0,0-1-1.17,1.56,1.56,0,0,0,.7-.85c.1-.18.66-.44.66-.44l.5.07v-.37l.09.52.47.22,0-.63.4.93.89,1a4.69,4.69,0,0,0-1.38-2.61.6.6,0,0,0-.2-.05l-1.32-.28a1.47,1.47,0,0,0-1.68,1.1h0c-.28-.24-1.13-.88-1.45-.6l-.69.6,0,0a3.27,3.27,0,0,0-2-.45c-1.92.24-3.12,3-3.12,3l1.91-1.11v-.57l.11.51.6-.12-.08-.67.28.66.83-.11v-.53l.14.52a6.44,6.44,0,0,0-1.71,3.17.81.81,0,0,0-.49.4c-.4.68.11,1-.12,1.6s-.7.37-1.36.7-.42.84-1.5,1.69-2.62-.69-3.59-.85c.18-.31.78-2.9.78-2.9a15,15,0,0,0-1.25,2.69,33.78,33.78,0,0,0-.75-5.63,27.11,27.11,0,0,0,.19,5.5,9.78,9.78,0,0,0-4.07-3.72c.5,1.38,3.25,2.94,3.5,4.13s-1.93,1.06-2.36,1a5.38,5.38,0,0,0-3.42.09c-1.82.61-.75,2.39-.14,2.95s-.8.75-3.14.72a2.62,2.62,0,0,0-1.83,1.59c-.92-.92-2-1.66-2.83-1.5L155,204.7l.4-.32-.05.45.31.32-.06.13a6.12,6.12,0,0,0-6.19.4l3,.43.43-.75-.25.8,1,.46.09-1,.07,1,.78.34.22-1,.1,1.05a3.36,3.36,0,0,1-.16.33c-.84,1.51-3.28.56-5.85-.07s-2.12,1.63-2.12,2,.25,1.44-1.75,1.26-.94,2.55-.73,3.25-1.21.74-2.59.49-.93.88-2.81,2.25-2.25,1.06-3,1.13-1.56,2.5-1.93,3.07-2.32-.7-1.63-2.32-1.06-2.44-2.25-3.5a5.77,5.77,0,0,0-3.12-1.22,7.87,7.87,0,0,1-2.26-.4,5.69,5.69,0,0,0-2.13-.46,6,6,0,0,1,1.13-1.33h0l1.55-.11.46,1,.16-.53,1.37-.29,1.88-.18-.57-.94-.14-.77-.61-.56-.32,0-.2-.91-1.41.49-.58.29.27-.33,1.2-.53-.35-1.36-.9-.61-2.22.86-2.53-.41-.76.25,0-.46-4.46-.43c-1.34-.79-3.53-1.24-3.87-2.59-.28-1.16-2.49-2.68-4.12-3.64l.55-.39-.11-1.48.51,1.25,1-.63-.14-1.37.35,1.31,1.25-.84-.5-1,.74.89,3.85-1.25a8.23,8.23,0,0,0-8.94,1.4V197l.33.24.52-.79-.17-.59.62.34,2.08-2.68c-1.19,0-2.4,1.21-3.42,2.65a2.79,2.79,0,0,0-.74-1.66,3.47,3.47,0,0,0-1.45-.38c-.89,0-.52-.75-1.18-1.45s-2.47-.57-2.47-.57a2.11,2.11,0,0,1-.81.38c-.37.05-1-.28-.79-.7s-1-1-1-1-1.5.14-1.82.89,0,.37-.62.79-.29-.36-1.62-.88a36.73,36.73,0,0,1-2.67-6.64l1.45,2.37-.09.75,0,.3.34-.47-.12.67a5.73,5.73,0,0,0,2.19,2.86l0-1.29c-.27-4.65-1.46-6.17-2.29-6.66a2,2,0,0,0,.9-1.08c.13-.24.84-.57.84-.57l.64.09v-.48l.12.67.6.29-.05-.81.51,1.19L97,184.05a6,6,0,0,0-1.77-3.34.72.72,0,0,0-.25-.06l-1.69-.36a1.89,1.89,0,0,0-2.15,1.4h0c-.36-.29-1.44-1.11-1.86-.75l-.88.76,0,0a4.1,4.1,0,0,0-2.53-.57c-2.45.3-4,3.82-4,3.82l2.45-1.42v-.72l.14.65.77-.16-.1-.86.35.85,1.07-.14v-.68l.17.67a8.25,8.25,0,0,0-2.36,5v1.67l1.05-2.3.13-1.05.08.86L86,186l-.08,1,.8-1.24-.08-.63.29.53a8.42,8.42,0,0,1,1.8-1.69,2.26,2.26,0,0,0-.44.94c-.12.64-.25,1.43-.35,2.42A7.14,7.14,0,0,0,90.38,193a14.68,14.68,0,0,1-.46-2.72l-.68-.77.64.43v-1.58l-.55-.47h.46l-.46-.24h.46a12.83,12.83,0,0,1,.28-3.07,47.87,47.87,0,0,0,2.58,6.84c-.55.07-.64.75-1.37,1.79-1,1.41-.09,1-.47,1.46s-1.17-.19-1.17-.19-2.48-1.59-4.5-1.45c-1.24.08-1.56.38-1.88.87l-1.44.71,1.42-.84-.3-.67-1.43,1-.09-.19,1.34-1.22-.22-.42-1.38.82,1.39-.93L82,190.51c-.74.27-2.35,1.46-.92,4.05.11.19.22.38.34.56a14.77,14.77,0,0,0-3.79-1.46,11,11,0,0,1,2.12,2.08c-.54,0-1.08-.11-1.56-.12-1.34,0-1.08.37-1.59,1.15s-.38.37-.68.53-.71-.49-.8-.77c0-1.26-1-3.28-1.69-2.95,0,.89,0,1.69,0,3.09-.7-1-1.73-1.4-3.37-2.06,0,1.92,2.48,3.33,2.43,3.66s-.84-.19-2.15-.75-1.13.89-2.25,1.07a3.08,3.08,0,0,1-1.75-.51l.26-2.18a5,5,0,0,1,1.5-2.22l1.38-.09.41.83L70,194l1.21-.25,1.68-.16-.52-.84-.12-.68-.54-.5-.28,0-.18-.81-1.25.44-.52.26.24-.29,1.07-.48-.31-1.2-.8-.54-2,.77-2.24-.37-.67.22,0-.41-4-.39-.94,1.63.8.76,1.37.22h1.83v0l0,0H64l1,1.35h0l-1.54-.6L63,193h-.41l.22,1.42,1.32-.15.85-.1,1.3.79-.51,2.84a4.19,4.19,0,0,0-1.82-.52c-1.59,0-1.26,1.41-1.64,1.5s-.7-.47-1.66-.7-2.74.7-3.4,1.17-2.11-.94-2.58-1.45-1.83-.42-2.72.18-1.5-1.12-1.5-1.12a4.53,4.53,0,0,0,.25-1l.35-.28-.27-.43s0-.08,0-.12l.34.44.78-.8-.72-1.05.77.93-.62-1,.77.87a13.51,13.51,0,0,1,2.64-2.65,17.49,17.49,0,0,0-4.16,1.57,1,1,0,0,0-.09-.15l.21-.36c1.68-3-.2-4.42-1.07-4.73L49,190.09l1.62,1.09-1.61-1-.26.49,1.57,1.43-.11.22-1.66-1.18-.36.78,1.19.71h-.12l-1.1-.54-.22.71a2.93,2.93,0,0,0-1.18.64,1,1,0,0,1-1.57,0,11.76,11.76,0,0,1-2.37-3,14.52,14.52,0,0,0-5.06-5.82c-3.31-2.42-3.19-1.31-3.19-1.31a1.77,1.77,0,0,1-1.09-.77c-.41-.65-1.72-1.1-1.91-.66s-.68.24-2.26.94a1.27,1.27,0,0,1-.23.08l.57-.5-.72.09,0-.06a5.65,5.65,0,0,0,.11-2.21c-.25.5-.51,1-.79,1.49a9.38,9.38,0,0,0-.32-1.37,5.36,5.36,0,0,0-.21,1.26,7.79,7.79,0,0,0-.94-1.4,1.86,1.86,0,0,1-.54-.88,6,6,0,0,0,.42,2.05h0a6.86,6.86,0,0,1-1-4.07c-1,1-1.2,2.51-2,3.68a10.88,10.88,0,0,0-1-3.54c0,.08-.25.61-.29.71-.1.26-.18.53-.26.79a12.89,12.89,0,0,0-.34,1.59,4.41,4.41,0,0,0,.18,1.8,3.45,3.45,0,0,0-.5.67c-.38.69.81,0-.69,2.38S16,186.79,16,186.79v70.59H230V193.86Zm-6.58-4.87-.42.88-.5-.07-1.06-.58Zm-5,1.9.42-.86-.05-.52,1.26,1.14Zm2.93.19-2.57-1.73,0-.39.25.3,1,.27.43.49,1.46.55,0,.28Zm.95.37.58.07-1.14.48ZM90.61,183.07l.07,0v0l0,0ZM68,193.33l1.12-1,0,.46.37.76Zm0-1,.93-.24.22-.27,0,.35-2.27,1.53-.55-.2,0-.25,1.3-.49Zm-3-.48,1.75.2-.93.52-.45.06Zm.49,2.24L66,194l.5.49ZM80,195.76l.51-.58-.36.58Zm.27,0h-.07l.44-.54Zm26.56,3.6-.08-.58.26.68Zm16.67,11.77,1.25-1.14,0,.52.42.87Zm-1.4-1.43-1.06.59-.51.07-.41-.88Zm-6.25-1,.18,0C115.88,208.79,115.81,208.79,115.87,208.75Zm3,.16,0,0,0,0H119l1.09,1.53h0l-.86-.33a2,2,0,0,0-1-.86,4.16,4.16,0,0,0-1-.34Zm2.45,4c-1,.25-2.12.25-2.69.38-.32.08-.51-.47-.47-1l1-.11.95-.12,1.37.83A.76.76,0,0,0,121.31,212.94Zm-.62-.93.58-.07.56.55Zm.91-.67,0-.27,1.46-.56.43-.48,1-.27.25-.31,0,.4-2.57,1.73Zm56.81-18.59a17.72,17.72,0,0,0-.27,1.89,1,1,0,0,0,0,.17c-.28,0-1.69.22-1.84,0a.68.68,0,0,0-.12-.12l.08-.71.07.67.3-1-.07.75.63-1-.07-.49.23.42a6.55,6.55,0,0,1,1.41-1.32A1.54,1.54,0,0,0,178.41,192.75Zm1.87-1.43v0h0l0,0h0Zm-.69,3.38a9.74,9.74,0,0,1,.22-2.19c.12.43.35,1.16.66,2.06Zm1.33-.24c-.2-.56-.38-1.12-.55-1.67l.95,1.55A3.19,3.19,0,0,1,180.92,194.46Z"/><path class="cls-13" d="M96.83,304.28S41.6,136.54,150.3,27.84L161,46.71V304.28Z"/><polygon class="cls-14" points="160.99 62.75 169.96 62.75 197.32 304.28 160.99 304.28 160.99 62.75"/><polygon class="cls-15" points="169.96 62.75 160.99 62.75 160.99 304.28 172.79 304.28 172.79 87.73 169.96 62.75"/><path class="cls-16" d="M86.49,256.4H150v-3.15H86.05C86.2,254.31,86.34,255.36,86.49,256.4Z"/><path class="cls-17" d="M85.39,248.06H150v-3.14H85C85.15,246,85.27,247,85.39,248.06Z"/><path class="cls-18" d="M84.49,239.73H150v-3.15H84.2C84.29,237.64,84.39,238.69,84.49,239.73Z"/><path class="cls-19" d="M83.77,231.4H150v-3.15H83.55C83.62,229.31,83.7,230.35,83.77,231.4Z"/><path class="cls-20" d="M83.25,223.06H150v-3.14H83.11C83.15,221,83.2,222,83.25,223.06Z"/><path class="cls-21" d="M82.93,214.73h67v-3.15H82.86C82.88,212.64,82.9,213.68,82.93,214.73Z"/><path class="cls-22" d="M150,203.25H82.81c0,1.05,0,2.1,0,3.14H150Z"/><path class="cls-23" d="M150,198.06v-3.15H83c0,1.06-.06,2.1-.08,3.15Z"/><path class="cls-24" d="M150,189.72v-3.14H83.34c-.06,1-.11,2.1-.16,3.14Z"/><path class="cls-25" d="M150,181.39v-3.14h-66c-.09,1.05-.17,2.1-.25,3.14Z"/><path class="cls-26" d="M150,173.06v-3.15H84.76c-.12,1.05-.23,2.1-.34,3.15Z"/><path class="cls-27" d="M150,164.72v-3.14H85.82c-.15,1-.29,2.1-.43,3.14Z"/><path class="cls-28" d="M150,156.39v-3.15H87.14c-.19,1-.36,2.1-.53,3.15Z"/><path class="cls-29" d="M150,148.05v-3.14H88.71c-.22,1.05-.43,2.1-.63,3.14Z"/><path class="cls-30" d="M150,139.72v-3.15H90.55c-.25,1.05-.49,2.1-.73,3.15Z"/><path class="cls-31" d="M150,131.39v-3.15H92.69q-.43,1.57-.84,3.15Z"/><path class="cls-32" d="M150,123.05v-3.14H95.13c-.33,1-.65,2.09-1,3.14Z"/><path class="cls-33" d="M150,114.72v-3.15H97.89q-.56,1.58-1.08,3.15Z"/><path class="cls-34" d="M150,106.38v-3.14H101c-.42,1.05-.82,2.09-1.22,3.14Z"/><path class="cls-35" d="M150,98.05V94.9H104.47q-.69,1.57-1.35,3.15Z"/><path class="cls-36" d="M150,89.72V86.57H108.34q-.77,1.58-1.5,3.15Z"/><path class="cls-37" d="M150,81.38V78.24H112.64c-.56,1-1.12,2.09-1.67,3.14Z"/><path class="cls-38" d="M150,73.05V69.9H117.41q-.94,1.57-1.86,3.15Z"/><polygon class="cls-39" points="139.53 304.28 160.99 91.05 160.99 304.28 139.53 304.28"/><path class="cls-40" d="M96.83,304.28h20C116.84,152.14,161,46.71,161,46.71L150.3,27.84C41.6,136.54,96.83,304.28,96.83,304.28Z"/><rect class="cls-41" x="103.64" y="231.4" width="10.38" height="5.19"/><rect class="cls-42" x="126.98" y="223.06" width="5.19" height="5.19"/><rect class="cls-43" x="88.45" y="214.73" width="10.38" height="5.19"/><rect class="cls-44" x="137.36" y="214.73" width="5.19" height="5.19"/><rect class="cls-45" x="126.98" y="198.06" width="10.38" height="5.19"/><rect class="cls-46" x="98.83" y="164.72" width="15.19" height="5.19"/><rect class="cls-47" x="98.83" y="189.72" width="5.19" height="5.19"/><rect class="cls-48" x="108.83" y="189.72" width="5.19" height="5.19"/><rect class="cls-49" x="142.55" y="181.39" width="5.19" height="5.19"/><rect class="cls-50" x="123.22" y="106.38" width="10.38" height="5.19"/><rect class="cls-51" x="118.03" y="73.05" width="15.57" height="5.19"/><rect class="cls-52" x="123.22" y="139.72" width="5.19" height="5.19"/><rect class="cls-53" x="98.83" y="139.72" width="5.19" height="5.19"/><rect class="cls-54" x="128.41" y="148.05" width="10.38" height="5.19"/><rect class="cls-55" x="104.02" y="123.05" width="5.19" height="5.19"/><rect class="cls-56" x="114.02" y="123.05" width="5.19" height="5.19"/><rect class="cls-57" x="139.53" y="89.72" width="5.19" height="5.19"/><rect class="cls-58" x="109.21" y="98.05" width="5.19" height="5.19"/><polygon class="cls-59" points="150.3 27.84 155.06 20.92 163.22 24.38 160.99 46.71 150.3 27.84"/><path class="cls-60" d="M239.1,218l-.18-1.64-1.22-1.28H237l-.3-2-3,.86-1.29.52.62-.65,2.62-1-.55-2.92-1.83-1.4-4.81,1.52-5.29-1.22-1.64.44.12-1-9.54-1.55-2.49,3.74,1.8,1.95.27.06c.39,3.17,2.62,6.42,2.13,6.74s-2.72.66-3.19-.19a11.12,11.12,0,0,0-2-2.75l.25-2.89-1.07,3,.32-1.79-.83,1.87.43-3.12-1.2,3.16a12.1,12.1,0,0,0-2-.25c-.75.1-1.41.57-2.25,2.63s-.75.65-1.22,1.4a5.69,5.69,0,0,0-1.22,2.35c-.53,1.7-2.09.33-3.29-.62l-.74-1.23,1,.9.58-1-.75-1.17.92,1,.75-1.34-.92-.68,1.09.47,2.92-2.9a8.35,8.35,0,0,0-7.47,5.35l-.29-.56.41.08.12-1-.43-.45.72,0,.67-3.38c-1.6.78-2,4-2.11,6.39l-.53.72c-1,1.41-.47.47-1.69.75s-1.12-.37-1.12-1.5-1.31-.47-4.22,0l-.32.06a3,3,0,0,0-1.17-1.81,1.44,1.44,0,0,0,.64-.76c.09-.17.6-.4.6-.4l.45.07v-.34l.09.47.41.2,0-.57.36.84.81.9a4.21,4.21,0,0,0-1.26-2.34.52.52,0,0,0-.17,0l-1.2-.25a1.35,1.35,0,0,0-1.53,1h0c-.26-.21-1-.78-1.32-.53l-.63.53,0,0a2.9,2.9,0,0,0-1.8-.4,3.28,3.28,0,0,0-2,1.38,6.14,6.14,0,0,0-1.74-3.14.72.72,0,0,0-.25-.06l-1.71-.37a1.93,1.93,0,0,0-2.2,1.43h0c-.37-.3-1.47-1.13-1.89-.77l-.9.78,0,0a4.15,4.15,0,0,0-2.57-.58c-2.49.31-4,3.88-4,3.88l2.49-1.44v-.74l.15.67.78-.16-.1-.88.36.86,1.08-.14v-.69l.17.68a8.49,8.49,0,0,0-2.4,5v1.7l1.07-2.33.13-1.07.09.87.39-1.31-.09,1,.81-1.26-.08-.63.3.53a8.54,8.54,0,0,1,1.83-1.71,2.15,2.15,0,0,0-.45,1c-.13.65-.25,1.46-.35,2.46a6.7,6.7,0,0,0,1.48,4.7,14.75,14.75,0,0,0-3.46-1.81l-2.06.69-1.19,1a6.7,6.7,0,0,1-.56-2.19c0-.94-1.12-.25-2.06.25s-1.19-.06-1.32.5.63,1.07,0,1.31-.56.38-.81,1.07-1,0-1.37-.94c.18-1.06-.32-4.06-1.25-5.06-.5,1.25,0,3.75,0,4.93a4.28,4.28,0,0,0-4.31-1.37c-.07,1.5,3.12,2.25,3.28,3.06-.51-.18-3.18-.64-4.55-.06a3.1,3.1,0,0,0-2-1.34,2.82,2.82,0,0,0-1.7.38h0l-.59-.51c-.28-.24-1,.31-1.26.5h0a1.28,1.28,0,0,0-1.45-.94l-1.14.25a.47.47,0,0,0-.17,0,4,4,0,0,0-1.19,2.22l.77-.85.34-.8,0,.54.4-.19.08-.44v.31l.43-.06s.48.22.57.38a1.29,1.29,0,0,0,.6.72,3.34,3.34,0,0,0-1.24,2.24c-1.16-.14-1,1.26-1,1.32s-.09-.08-.74,2c-.76,2.35-.38.77-1.5,2.14s0,0-.76,0a1.93,1.93,0,0,0-.71.22c-.14-1.25-.49-2.51-1.25-2.88l.42,2.15h.46l-.27.29.07.61.26-.05,0,.08-.21.12a5.32,5.32,0,0,0-4.69-3.26l1.86,1.85.69-.3-.59.44.48.85.59-.66-.48.75.37.65.67-.57-.5.82.24.45a5,5,0,0,0-.61.64,11.23,11.23,0,0,0-1.76,2.57c-.74,1.5-3.37-.63-3.24-1.44s.24-.69-1.13-1-1.25.35-3.13.72a41.72,41.72,0,0,1-4.24.48l.14-.27-.47-.78.62.54.36-.61-.45-.71.55.63.45-.81-.55-.41.65.28,1.76-1.74a5,5,0,0,0-4.5,3.22l-.17-.34.25.05.07-.58-.26-.27h.43l.4-2c-.9.45-1.19,2.2-1.26,3.62l-2.23-5.89.86,6.25L116.87,238l.64,3.58-2.13-5.93.5,5.78c-.58,0-.56.3-.76,1-.24.87-1.24.31-1.24.31a7.39,7.39,0,0,1-2.57-1.25,4.11,4.11,0,0,0-1.73-.93,46.38,46.38,0,0,0-.74-6.77,12.68,12.68,0,0,1,1.65,2.62l.42-.22-.31.43.42-.21-.28.68.71,1.41.38-.67-.27,1a14.38,14.38,0,0,1,.82,2.66,7.15,7.15,0,0,0-.35-6.23c-.54-.84-1-1.5-1.42-2a2.11,2.11,0,0,0-.82-.64,8.35,8.35,0,0,1,2.4.69l0-.61.2.59,1.3.75-.51-.82.93,1-.31-.81.59.89,2,1.57-.76-1.5a8.36,8.36,0,0,0-4.39-3.35l-.15-.68.31.61,1-.36-.06-.93.29.82.78-.21-.17-.65.32.65,2.88.15s-3-2.45-5.36-1.6a4.37,4.37,0,0,0-2,1.68l0,0-1.16-.28c-.53-.13-1.15,1.11-1.35,1.54h0a1.92,1.92,0,0,0-2.6-.26l-1.37,1.1-.12.08h0l-.16-1.47L101.25,230h-.61l-.27-1.75-2.73.76-1.15.48.55-.58,2.35-.88-.49-2.62-1.64-1.26-4.32,1.37-4.76-1.1-1.47.39.1-.88-8.56-1.39L76,225.88l1.62,1.75,2.9.65,3.92.27v.07l.07-.06h.12l1.89,3h-.09l-3.23-1.49L82.33,232l-.87-.06.27,3.06,2.86-.12,1.82-.1,2.68,1.86a5.07,5.07,0,0,0-2,.79,14.91,14.91,0,0,1-3-.76,6.17,6.17,0,0,0-3.43-.31,1,1,0,0,1-1.38-.59,3.39,3.39,0,0,0-.87-1.25c-.5-.41-.75-.35-.66-.45a4.58,4.58,0,0,0,1.94-1.27,4.45,4.45,0,0,0-1.88.46c.5-.47,1.22-1.52,1.1-2a3.74,3.74,0,0,0-2.07,1.56c-.37.85-1.09.34-1.37,0-.09-.4-.43-1.26-1-.95s-1.62-.76-1.62-.76a4.14,4.14,0,0,0-.75-1.54c-.54-.63-.72-.23-1.08-.47s-1-.87-1-1.12-.71-1-.83.07c-.06.51-.64.53-1.22.43l-.59-1-.07-.37c3-5.83,2.62-8.57,2-9.78a2.9,2.9,0,0,0,1.93-.69,3.84,3.84,0,0,1,1.49-.09l.72.59.36-.6-.34.93.53.8.55-1-.26,1.88.47,2.47A8.75,8.75,0,0,0,75,216a1,1,0,0,0-.27-.26L72.91,214a2.77,2.77,0,0,0-3.76.16h0c-.24-.65-1-2.48-1.77-2.34l-1.68.3v.05A5.92,5.92,0,0,0,63,209.61c-3.3-1.45-7.86,1.82-7.86,1.82l4.15,0,.52-.91-.3.93,1.08.37.52-1.15L60.87,212l1.44.62.5-.86-.28,1a11.33,11.33,0,0,0-3.89,1.8l-.75-.51-7,2.71L43,215.47l-2.38.79.08-1.45-4.65-.45c.91-1.2,3.88-5.59,2.46-10.72-.49-1.75-1-3.16-1.39-4.26a4,4,0,0,0-1.1-1.56,15.63,15.63,0,0,1,3.83,2.48l.38-1,0,1.15,1.86,2-.45-1.7,1.09,2.21-.11-1.58.56,1.86L45.86,207l-.52-3a15.13,15.13,0,0,0-5.87-8.19l.11-1.26.21,1.23,2-.09.38-1.64.08,1.58,1.46,0,.06-1.22.21,1.3,4.94,1.8s-3.91-5.87-8.5-5.65A7.79,7.79,0,0,0,36,193.72l0-.05-1.86-1.1c-.87-.51-2.6,1.31-3.18,2v0a3.51,3.51,0,0,0-4.38-1.86l-3,1.19a1.21,1.21,0,0,0-.45.18,11,11,0,0,0-2.21,6.6l1.69-2.69.56-2.32.17,1.48,1-.7,0-1.25.15.86,1.13-.37a5.08,5.08,0,0,1,1.73.77,3.66,3.66,0,0,0,2,1.67c-1.37,1.15-3.08,4.27-2.13,12.75l.47,2.32a10.62,10.62,0,0,0,3.14-5.87l-.44-1.17.77.76-.17-.54L30.62,205l1.91-4.74a65.38,65.38,0,0,1-3,13.44l-.07,0-2.25-.22a2.5,2.5,0,0,1-.72-1.3c-.18-1-.65-.23-.89.19s-1.08.8-2.76.38a6.45,6.45,0,0,0,.8-1.55s-.8-.56-2,.66c.33-.33,1.32-2.86.61-3.78a2.66,2.66,0,0,0-1.31,2.28s0-3.85-.65-4.55c-1.32.89-1.65,3.23-1.83,4.55-.66-.33-2.44-1.14-2.44-1.14V305H119.5l110.5-.38V219.71h2l.85,2.06.42-1.1,2.92-.43,4-.12ZM67.6,215.58l0,0,0,0a.32.32,0,0,1,0,.06l-.12-.08ZM32.1,196.89l0-.07v0l0,0,.12,0Zm3.75,17.45-2.46-.24c0-.53-1.51-.64-2.11-.67l-.42,0a83.52,83.52,0,0,0,2.88-14.08,22.81,22.81,0,0,1,1.47,5.45l.85-.14-.78.57.85-.14-.85,1,.49,2.85,1-1-1,1.59A30.35,30.35,0,0,1,35.85,214.34ZM60.72,216l-.07,0,.33-.78,0,.88a12.38,12.38,0,0,1,3.52-.78,3.28,3.28,0,0,0-1.25.85c-.54.6-1.18,1.37-1.89,2.31Zm1.66,4.89-.07-.22.26.15Zm.35-.13-.24-.39.5.3Zm1.35,2.6-.64-2.84-.32.11A18.57,18.57,0,0,1,65.71,217c-.3,1.14-.86,3.46-1.32,6.26Zm2.15-.36-.66.75h0l-.32-.29c.29-1.87.67-3.69,1.09-5.4l0,4.05-.67.87-.27.36Zm20.56,6.84,3.74.67-2.08,1-1,.07Zm.75,4.86,1.11-.06,1,1.12Zm1.81-1.15.09-.52,2.84-.88.88-.87,2-.39.52-.55-.11.75-5.09,3Zm6.19-2.16-.14,1,.69,1.69L93,233.35Zm10.21,8.77a6.87,6.87,0,0,1-1.22-1c-.25-.31-1.7-.14-1.7-.14a1.68,1.68,0,0,1-1.13,0c-.43-.23,0-1.59.28-2.2-.87.31-1.17.69-1.39,1.78,0-.39-.62-1.29-.89-1.17.27.91.38,1.2.1,1.45s-2.42-.62-2.94-1.93-.84-1.36-1.64-1.19a1.28,1.28,0,0,1-1.27-.56s-.51-1-.79-1l3,0,.75,1.85.39-1,2.62-.38,2.2-.07a5.7,5.7,0,0,0,.25,2l.45-1.69,0-.34.73,0-.25-.46.2-.26-.19-.66.22.43.53-.38a2.68,2.68,0,0,1,1,.13,2.08,2.08,0,0,0,1.31.56c-.52.8-.89,2.65.81,6.7A3.31,3.31,0,0,1,105.75,240.12Zm1.83-7.37,0,0h.07Zm.92,7.65a4.88,4.88,0,0,0,.09-2l-.41-.54.52.27-.17-.26-.42-.63.24-2.79a39.7,39.7,0,0,1,.59,5.93Zm12.94,1.23h-.1l-.17-.26Zm23.45-11.48v0h0l0,0Zm-.07,1.27c-.24.78-.53,1.59-.86,2.4a1,1,0,0,1,0-.14h0l0-.2,0-.28V233Zm-.61,2.88c.56-1.36.93-2.55,1.1-3.12a8.8,8.8,0,0,1,.19,2h.31l-.31.15h.31l-.37.32v.64a6.5,6.5,0,0,1-.82.12A.48.48,0,0,1,144.21,234.3Zm2.48-.24a3.72,3.72,0,0,0,.06-1.07c-.07-.65-.15-1.18-.23-1.61a1.56,1.56,0,0,0-.3-.62,5.84,5.84,0,0,1,1.21,1.12l.2-.35,0,.42.54.82-.06-.63.26.85.05-.57.09.7.35.76c-1.05.05-1.93.14-1.93.14Zm5.06-.12a13.72,13.72,0,0,0-2.58-.07v-.34a5.54,5.54,0,0,0-1.59-3.28l.11-.45v.45l.72.1.24-.57-.07.57.52.11.09-.43v.48l1.65.94a6.76,6.76,0,0,0-.54-.93c1.45.78,3.81.81,4.32,1C154.88,231.81,153.75,233.31,151.75,233.94Zm32.06-10.71a1,1,0,0,0-.2.52c-.24-.63-.46-1.27-.65-1.88Zm-.93-2.68v0l0,0h0Zm-.57,4.81v-1.1l-.39-.33h.33l-.33-.17h.33a9,9,0,0,1,.2-2.15c.16.55.51,1.66,1,2.94a2.74,2.74,0,0,1-.5.95,2.85,2.85,0,0,1-.59.51c0-.24,0-.41,0-.41l-.48-.54Zm-9.64-1.19-.1.76,0,.31.34-.49-.13.68a5.9,5.9,0,0,0,2.23,2.92L175,227c-.28-4.73-1.49-6.27-2.33-6.77a2.06,2.06,0,0,0,.91-1.1c.13-.24.86-.58.86-.58l.64.09v-.48l.13.68.6.29,0-.83.51,1.22,1,1.15a7.74,7.74,0,0,0-.71,1.19l1.74-1v-.5l.1.46.54-.11-.07-.61.25.6.76-.1v-.48l.12.47a5.85,5.85,0,0,0-1.68,3.46v1.17l.75-1.6.09-.74.06.6.27-.9-.06.67.57-.87L180,222l.21.36a6,6,0,0,1,1.28-1.18,1.55,1.55,0,0,0-.31.66,17.07,17.07,0,0,0-.25,1.69,4.4,4.4,0,0,0,.79,2.9,65.14,65.14,0,0,1-7.3,3,35.56,35.56,0,0,1-3.22-7.69Zm-1.59-4.32v0l0,0H171Zm-.37,9.88a16.61,16.61,0,0,1-.4-2.55l-.69-.77.64.43v-1.6l-.55-.49h.47l-.47-.24h.47a13.12,13.12,0,0,1,.28-3.11,44.8,44.8,0,0,0,3.32,8.3,3.76,3.76,0,0,0-1.09.55C172.38,230.71,171.57,230.45,170.71,229.73Zm58-13.21,2.25-.42.58-.62-.13.83-3.58,2.1a1.16,1.16,0,0,0-.94-.25,4.89,4.89,0,0,0-1.9,1.12l-.52-.23.1-.58,3.16-1Zm-2.92-.85-2.32,1.1-1.08.07-.76-1.92ZM219,213.6l.08-.06h.13l2.1,3.37h-.09l-3.33-1.54a12.46,12.46,0,0,0,.51-1.9l.58,0Zm-5.75-.68,1.37.32,2.61.17a37.37,37.37,0,0,0-2,5.06C215.53,216.53,214.43,214.47,213.27,212.92ZM230,219.19v-.72a4.46,4.46,0,0,1-1.17.17l2.53-2-.17,1.1.77,1.88Z"/></g><path class="cls-61" d="M202.69,252l.09-.24-.19.23-18.53-.33,0-.19.95-.06-.58-.31c-3-.31-6.06.19-9.05.37l-.18,0-15.64-.29-36.46-.37a5.79,5.79,0,0,0-1.48-2.94l-.1.18a16.29,16.29,0,0,0-1.91,2.73l-47.08-.48H62.38l-2.16,1.13,2.16,1.42H61.1l.09-.5-3.06-.5-.2.45-1.81-2.31-6.56-2.12-1.5.81-.31,2.06,3.81,1.07L53.88,254h2.56l1.22-1,3.25,1c.21.4.45.93.75,1.66h1l-.85.84a12.89,12.89,0,0,1,.85,2.53l.93,1h-.93a7.06,7.06,0,0,1,.93,3.75,20.58,20.58,0,0,0,2-6.93l-.93-.19.93-.66v-2l1.72,2.5v2.88l.81.87-.29.94.73.75-.56.81s-.38,1.31,0,5.69c0-1.73,2.11-5.17,3.16-8,2.26,6.85,5.89,15.32,10,15.32h.06c3-.07,5.65-4.37,8-13.08a19.22,19.22,0,0,0,2.46.83c1.55,2.14,3.32,3.72,5.15,3.72h.19c1.66-.09,3.17-1.5,4.54-4.18,3.93-1.49,7.66-4.57,11.14-9.21.73-.16,1.31-.24,1.31-.24s1.22.4,1.75.59a4,4,0,0,0,1.46.06,1.18,1.18,0,0,1,1.08-.94c-1.57,4.06-2.14,10,3.42,16l-.46-7.16-2-.64,2,.17.57-2.62-2.4.29,2.35-.67.4-2-2.38,0,2.51-.79.13-.56.76,1,2-.26-1.64.79.92,1.25,1.83-.29-1.75.57L125.9,260l1.31-.76-1.15,1.07,2,5.09c1.85-5.75-.23-9.6-2.52-11.93l.82-.05-.31.46,1.1.65.78-.27-.4.85,3.75,2.62c-.07-1.69-2-3.31-4.11-4.61h0a39.3,39.3,0,0,1,5,.91c1.12.43,1.36.14,1.31.71s-.6.39,0,1,.88,0,1.82.84,1.87.41,1.87,1.4-.74.87,0,1.47,1.55.27,2,1.06a2.87,2.87,0,0,1,.47,1.41c.14.75-.14,1,1.13,1s1,.43,1.17-.32-.05-.94.33-1.93a3.74,3.74,0,0,1,1.45-1.59c.28-.28.51.71.54-1s.21-2.49-.12-3-1.17-.33-1.12-.75.7-1.31,1.08-1.17,1.26-.09,1.36.61,0,1.12.32,1.31a2.44,2.44,0,0,0,1,.14s.85-1.22,1.32-1.22H150a4.53,4.53,0,0,0,.69.75c.14.05,1.64.38,1.83-.18s1.36-.57,1.36-.57a5.76,5.76,0,0,0,1.26-.15c.79.9,1.79,3.78,2.69,4.53-.12-1.38-1.47-3.47-1.72-4.25,1,.87,1.44,2,2.22,2.47a6.49,6.49,0,0,0-1.5-2.6c.5-.43,2.25,0,2.25,0a9.24,9.24,0,0,0,.9.23c1,3.83,4.32,15.45,8.42,15.45h0c1.45,0,2.79-1.45,4.05-4.3,2.46,5.35,5.84,10.57,9.63,10.57h.07c3.88-.07,7.43-5.64,10.58-16.57l1.79-1.22-.71-2.06.79,1.94.55-.26-.43-2.33.23-.13.7,2.17.85-.45-.82-2,.94,1.88,1.25-.9-.7-1.59.8,1.44-.59-1.49.83,1.37.46-.42.12.05a3.35,3.35,0,0,0,1.27-.19l-.06.07a6.3,6.3,0,0,0-.91,6.12,12.82,12.82,0,0,0,1.17,2.3l.59-3.65-1.29,0,1.35-.27.29-1.21-1.55.29,1.64-.54.4-1.52-1.57.62,1.63-.84-1.44.14,1.25-.55c.41.49.67.62.67,1.15a5.89,5.89,0,0,1,0,1.56,2.16,2.16,0,0,0,.87,2c.26.19.57.94,1.38.25s.88-1.44,1.25-1.44,1.44.13,1.69.56.12.88,1,1,.06.88,1.37.13,1.25-1.13,1.25-1.69-.68-1.45.06-1.85l.76-.4a1.56,1.56,0,0,0,0-1.12c-.26-.57-.88-1.07-.38-1.57a1.63,1.63,0,0,1,1.38-.5l1.31.38a1.66,1.66,0,0,0,1.43.31c.76-.25.82-1.07,1.38-.94s1,0,2.88.32,1.5.56,2.68.62a3.18,3.18,0,0,0,1.94-.5,2.17,2.17,0,0,1,1.69-.75,3.52,3.52,0,0,1,2.19.38,6.33,6.33,0,0,0,1.59.62l0-2.22ZM93.12,253.85c1.07.15.79-.16,1.41.15s.22.81,0,1.35a6,6,0,0,0-.37,2.55,7.39,7.39,0,0,0,1-2.59c.16-.71.26-.56.26-.56a12.24,12.24,0,0,0,.24,3.62,7.86,7.86,0,0,0,.29-3.87,3.87,3.87,0,0,0,1.93,1.29c.14-.61-.89-1.35-1.21-1.57.12.05.33.05.68-.22.57-.44.53-.75,1.28-.53s3.5.59,3.5.59l1.32-.28.75.18a42.59,42.59,0,0,1-2.85,8.71,15.36,15.36,0,0,1-5.11,1H96a15.81,15.81,0,0,1-4-.51,30.63,30.63,0,0,1-2-3.31q.61-2.52,1.21-5.45l1-.36S92.06,253.69,93.12,253.85Zm-4.68.61a1.55,1.55,0,0,0,.62.73s.25,1,.82.19a2.56,2.56,0,0,1,.82-.8c-.33,1.63-.67,3.15-1,4.55-1-1.93-1.78-3.84-2.32-5.22C88,254,88.22,254,88.44,254.46Zm-8.22.17a9.49,9.49,0,0,1,1.69-.8s1.34-.05,1.87.63,1.19,1.14,1.56.82a.85.85,0,0,0,.35-.68.85.85,0,0,1,1.09-.77h0a56.94,56.94,0,0,0,2.7,6c-.18.75-.37,1.46-.55,2.15a32.62,32.62,0,0,1-10.42-7.9,4.91,4.91,0,0,1,.8.23C79.88,254.63,79.41,255.13,80.22,254.63Zm-1.94-.85,0,.1-.45-.52A.51.51,0,0,1,78.28,253.78Zm3,21.52h0c-4,0-7.56-8.82-9.76-15.63a4.6,4.6,0,0,0,.26-2.11,14.08,14.08,0,0,0-.33-3.19h0a1.68,1.68,0,0,1,1.08-.59c.62,0,.56.48,1.25.59s2.34.21,2.28-.3.12-.94.81-.85l.33,0c1.81,2.18,6.11,6.81,11.71,9.27C86,272.75,83.23,275.25,81.24,275.3Zm8.19-13.06c.15-.54.3-1.11.44-1.69.45.81.93,1.61,1.44,2.36A20,20,0,0,1,89.43,262.24Zm7.64,4.53h-.16c-1.52,0-3-1.26-4.4-3a16.35,16.35,0,0,0,3.51.4h.18a15.9,15.9,0,0,0,4.77-.8C99.77,265.52,98.47,266.68,97.07,266.77Zm4.89-4.35a44.25,44.25,0,0,0,2.67-8.27l.9,1.07,1.44.06,1.47-.28.56-.94-.47-.68s.22-.44,1-.1a13.33,13.33,0,0,0,1.78.63s-.31.43.72.15h0C108.84,258.16,105.48,261,102,262.42Zm18.7-8.22.91-.23.09.21Zm1.93,1,.09-.37,1.3-.24Zm49.32,2.3v-.61l.32-1.32.71.1.61.28,1.12-.09.14-.07a57.94,57.94,0,0,1-2.36,8.35c-1-2.3-1.84-4.57-2.46-6.38Zm-3.5,11.75h0c-3.64,0-6.86-11-7.89-14.89a1,1,0,0,0,.32,0c.5-.15,3.46.32,3.83,0s2.81.14,2.81.14l.28.89V256l1.08.52.33.25a83.48,83.48,0,0,0,3,8C170.75,268.25,169.43,269.22,168.41,269.24Zm13.75,6.27h-.06c-3.62,0-6.94-5.35-9.36-10.72a56.81,56.81,0,0,0,2.64-9.28l.09,0c0,.21.06.43.09.64.26-.62.53-1.24.83-1.84a9,9,0,0,0,.49,1.6,6.35,6.35,0,0,0,.15-1.51,9,9,0,0,0,1.23,1.59,2.25,2.25,0,0,1,.72,1,7.33,7.33,0,0,0-.67-2.43,8.16,8.16,0,0,1,1.51,4.8c1.12-1.26,1.24-3.11,2.08-4.56a12.72,12.72,0,0,0,1.48,4.15c-.06-.09.25-.75.28-.88.1-.32.18-.64.25-1a14,14,0,0,0,.28-1.93,3.38,3.38,0,0,0,0-.45c.63-.19.9-.58,1.5-.65.84,2.21,1.5,4.46,1.5,4.46l-.57-4.08.57,1.36v-1.36l1,2.67v-2.86s2.06.24,2.58.24c.3,0,1.52,0,2.78-.11l-.3,1.19a3,3,0,0,0-.89,3.36C189.28,269.87,185.85,275.44,182.16,275.51Zm12.72-20.95a8.63,8.63,0,0,0-1,.53c.07-.25.13-.5.19-.75a13,13,0,0,0,1.9-.28l.83-.22A18.36,18.36,0,0,0,194.88,254.56Z"/></g></svg>