<svg width="17" height="20" viewBox="0 0 17 20" fill="none" xmlns="http://www.w3.org/2000/svg">
<g opacity="0.89" clip-path="url(#clip0_2295_60711)">
<path d="M9.08967 0.173029C8.82129 -0.0563742 8.41871 -0.0563742 8.15032 0.173029C6.55806 1.52725 1.46387 6.32991 1.46387 12.3487C1.46387 19.4824 7.41225 20.0004 8.62 20.0004C9.82774 20.0004 15.7761 19.4824 15.7761 12.3487C15.7735 6.32991 10.6819 1.52725 9.08967 0.173029ZM11.7994 12.9875H9.73225V15.1434C9.73225 15.5628 9.37613 15.9032 8.93742 15.9032H8.30258C7.86387 15.9032 7.50774 15.5628 7.50774 15.1434V12.9875H5.44064C5.00193 12.9875 4.6458 12.6471 4.6458 12.2278V11.5988C4.6458 11.1794 5.00193 10.839 5.44064 10.839H7.50774V8.68314C7.50774 8.2638 7.86387 7.9234 8.30258 7.9234H8.93742C9.37613 7.9234 9.73225 8.2638 9.73225 8.68314V10.839H11.7994C12.2381 10.839 12.5942 11.1794 12.5942 11.5988V12.2278C12.5942 12.6471 12.2381 12.9875 11.7994 12.9875Z" fill="#FAFAFA"/>
<g opacity="0.5" filter="url(#filter0_d_2295_60711)">
<path d="M8.29935 15.9007H8.93419C9.3729 15.9007 9.72903 15.5603 9.72903 15.1409V12.985H11.7961C12.2348 12.985 12.591 12.6446 12.591 12.2253V11.5963C12.591 11.1769 12.2348 10.8365 11.7961 10.8365H9.72903V8.68064C9.72903 8.2613 9.3729 7.9209 8.93419 7.9209H8.29935C7.86064 7.9209 7.50451 8.2613 7.50451 8.68064V10.8365H5.43742C4.99871 10.8365 4.64258 11.1769 4.64258 11.5963V12.2253C4.64258 12.6446 4.99871 12.985 5.43742 12.985H7.50451V15.1409C7.50451 15.5603 7.86064 15.9007 8.29935 15.9007Z" fill="white"/>
</g>
</g>
<defs>
<filter id="filter0_d_2295_60711" x="-2.64715" y="0.631174" width="22.5277" height="22.5592" filterUnits="userSpaceOnUse" color-interpolation-filters="sRGB">
<feFlood flood-opacity="0" result="BackgroundImageFix"/>
<feColorMatrix in="SourceAlpha" type="matrix" values="0 0 0 0 0 0 0 0 0 0 0 0 0 0 0 0 0 0 127 0" result="hardAlpha"/>
<feOffset/>
<feGaussianBlur stdDeviation="3.64486"/>
<feColorMatrix type="matrix" values="0 0 0 0 1 0 0 0 0 1 0 0 0 0 1 0 0 0 1 0"/>
<feBlend mode="normal" in2="BackgroundImageFix" result="effect1_dropShadow_2295_60711"/>
<feBlend mode="normal" in="SourceGraphic" in2="effect1_dropShadow_2295_60711" result="shape"/>
</filter>
<clipPath id="clip0_2295_60711">
<rect width="16" height="20" fill="white" transform="translate(0.562988)"/>
</clipPath>
</defs>
</svg>
