<svg width="59" height="76" viewBox="0 0 59 76" fill="none" xmlns="http://www.w3.org/2000/svg">
<path d="M31.4415 0.65624C30.4518 -0.215491 28.9673 -0.215491 27.9776 0.65624C22.1061 5.80227 3.32129 24.0524 3.32129 46.9236C3.32129 74.0317 25.256 76.0001 29.7095 76.0001C34.1631 76.0001 56.0977 74.0317 56.0977 46.9236C56.0882 24.0524 37.3129 5.80227 31.4415 0.65624ZM41.4334 49.3514H33.811V57.5438C33.811 59.1372 32.4977 60.4308 30.88 60.4308H28.539C26.9213 60.4308 25.6081 59.1372 25.6081 57.5438V49.3514H17.9856C16.3679 49.3514 15.0547 48.0578 15.0547 46.4643V44.0741C15.0547 42.4806 16.3679 41.1871 17.9856 41.1871H25.6081V32.9947C25.6081 31.4012 26.9213 30.1076 28.539 30.1076H30.88C32.4977 30.1076 33.811 31.4012 33.811 32.9947V41.1871H41.4334C43.0511 41.1871 44.3644 42.4806 44.3644 44.0741V46.4643C44.3644 48.0578 43.0511 49.3514 41.4334 49.3514Z" fill="#38A611"/>
<g opacity="0.5" filter="url(#filter0_d_1550_90089)">
<path d="M28.5293 60.4213H30.8702C32.488 60.4213 33.8012 59.1277 33.8012 57.5343V49.3419H41.4236C43.0414 49.3419 44.3546 48.0483 44.3546 46.4548V44.0646C44.3546 42.4711 43.0414 41.1776 41.4236 41.1776H33.8012V32.9852C33.8012 31.3917 32.488 30.0981 30.8702 30.0981H28.5293C26.9115 30.0981 25.5983 31.3917 25.5983 32.9852V41.1776H17.9759C16.3581 41.1776 15.0449 42.4711 15.0449 44.0646V46.4548C15.0449 48.0483 16.3581 49.3419 17.9759 49.3419H25.5983V57.5343C25.5983 59.1277 26.9115 60.4213 28.5293 60.4213Z" fill="white"/>
</g>
<defs>
<filter id="filter0_d_1550_90089" x="5.04492" y="20.0981" width="49.3096" height="50.3231" filterUnits="userSpaceOnUse" color-interpolation-filters="sRGB">
<feFlood flood-opacity="0" result="BackgroundImageFix"/>
<feColorMatrix in="SourceAlpha" type="matrix" values="0 0 0 0 0 0 0 0 0 0 0 0 0 0 0 0 0 0 127 0" result="hardAlpha"/>
<feOffset/>
<feGaussianBlur stdDeviation="5"/>
<feColorMatrix type="matrix" values="0 0 0 0 1 0 0 0 0 1 0 0 0 0 1 0 0 0 1 0"/>
<feBlend mode="normal" in2="BackgroundImageFix" result="effect1_dropShadow_1550_90089"/>
<feBlend mode="normal" in="SourceGraphic" in2="effect1_dropShadow_1550_90089" result="shape"/>
</filter>
</defs>
</svg>
