<svg width="59" height="77" viewBox="0 0 59 77" fill="none" xmlns="http://www.w3.org/2000/svg">
<g clip-path="url(#clip0_1530_59884)">
<path d="M31.4415 1.15624C30.4518 0.284509 28.9673 0.284509 27.9776 1.15624C22.1061 6.30227 3.32129 24.5524 3.32129 47.4236C3.32129 74.5317 25.256 76.5001 29.7095 76.5001C34.1631 76.5001 56.0977 74.5317 56.0977 47.4236C56.0882 24.5524 37.3129 6.30227 31.4415 1.15624ZM41.4334 49.8514H33.811V58.0438C33.811 59.6372 32.4977 60.9308 30.88 60.9308H28.539C26.9213 60.9308 25.6081 59.6372 25.6081 58.0438V49.8514H17.9856C16.3679 49.8514 15.0547 48.5578 15.0547 46.9643V44.5741C15.0547 42.9806 16.3679 41.6871 17.9856 41.6871H25.6081V33.4947C25.6081 31.9012 26.9213 30.6076 28.539 30.6076H30.88C32.4977 30.6076 33.811 31.9012 33.811 33.4947V41.6871H41.4334C43.0511 41.6871 44.3644 42.9806 44.3644 44.5741V46.9643C44.3644 48.5578 43.0511 49.8514 41.4334 49.8514Z" fill="#4D4040" fill-opacity="0.5"/>
<g opacity="0.5" filter="url(#filter0_d_1530_59884)">
<path d="M28.5293 60.9213H30.8702C32.488 60.9213 33.8012 59.6277 33.8012 58.0343V49.8419H41.4236C43.0414 49.8419 44.3546 48.5483 44.3546 46.9548V44.5646C44.3546 42.9711 43.0414 41.6776 41.4236 41.6776H33.8012V33.4852C33.8012 31.8917 32.488 30.5981 30.8702 30.5981H28.5293C26.9115 30.5981 25.5983 31.8917 25.5983 33.4852V41.6776H17.9759C16.3581 41.6776 15.0449 42.9711 15.0449 44.5646V46.9548C15.0449 48.5483 16.3581 49.8419 17.9759 49.8419H25.5983V58.0343C25.5983 59.6277 26.9115 60.9213 28.5293 60.9213Z" fill="white"/>
</g>
</g>
<defs>
<filter id="filter0_d_1530_59884" x="5.04492" y="20.5981" width="49.3096" height="50.3231" filterUnits="userSpaceOnUse" color-interpolation-filters="sRGB">
<feFlood flood-opacity="0" result="BackgroundImageFix"/>
<feColorMatrix in="SourceAlpha" type="matrix" values="0 0 0 0 0 0 0 0 0 0 0 0 0 0 0 0 0 0 127 0" result="hardAlpha"/>
<feOffset/>
<feGaussianBlur stdDeviation="5"/>
<feColorMatrix type="matrix" values="0 0 0 0 1 0 0 0 0 1 0 0 0 0 1 0 0 0 1 0"/>
<feBlend mode="normal" in2="BackgroundImageFix" result="effect1_dropShadow_1530_59884"/>
<feBlend mode="normal" in="SourceGraphic" in2="effect1_dropShadow_1530_59884" result="shape"/>
</filter>
<clipPath id="clip0_1530_59884">
<rect width="59" height="76" fill="white" transform="translate(0 0.5)"/>
</clipPath>
</defs>
</svg>
