<svg width="54" height="76" viewBox="0 0 54 76" fill="none" xmlns="http://www.w3.org/2000/svg">
<path d="M28.4415 0.65624C27.4518 -0.215491 25.9673 -0.215491 24.9776 0.65624C19.1061 5.80227 0.321289 24.0524 0.321289 46.9236C0.321289 74.0317 22.256 76.0001 26.7095 76.0001C31.1631 76.0001 53.0977 74.0317 53.0977 46.9236C53.0882 24.0524 34.3129 5.80227 28.4415 0.65624ZM38.4334 49.3514H30.811V57.5438C30.811 59.1372 29.4977 60.4308 27.88 60.4308H25.539C23.9213 60.4308 22.6081 59.1372 22.6081 57.5438V49.3514H14.9856C13.3679 49.3514 12.0547 48.0578 12.0547 46.4643V44.0741C12.0547 42.4806 13.3679 41.1871 14.9856 41.1871H22.6081V32.9947C22.6081 31.4012 23.9213 30.1076 25.539 30.1076H27.88C29.4977 30.1076 30.811 31.4012 30.811 32.9947V41.1871H38.4334C40.0511 41.1871 41.3644 42.4806 41.3644 44.0741V46.4643C41.3644 48.0578 40.0511 49.3514 38.4334 49.3514Z" fill="#DF4141"/>
</svg>
